%TF.GenerationSoftware,KiCad,Pcbnew,7.0.5-7.0.5~ubuntu20.04.1*%
%TF.CreationDate,2023-07-21T18:18:41-03:00*%
%TF.ProjectId,Barramento_EITduino,42617272-616d-4656-9e74-6f5f45495464,v01*%
%TF.SameCoordinates,Original*%
%TF.FileFunction,Copper,L2,Bot*%
%TF.FilePolarity,Positive*%
%FSLAX46Y46*%
G04 Gerber Fmt 4.6, Leading zero omitted, Abs format (unit mm)*
G04 Created by KiCad (PCBNEW 7.0.5-7.0.5~ubuntu20.04.1) date 2023-07-21 18:18:41*
%MOMM*%
%LPD*%
G01*
G04 APERTURE LIST*
%TA.AperFunction,ComponentPad*%
%ADD10C,2.000000*%
%TD*%
%TA.AperFunction,ComponentPad*%
%ADD11R,2.000000X2.000000*%
%TD*%
G04 APERTURE END LIST*
D10*
%TO.P,J4,1,Pin_1*%
%TO.N,SINC*%
X186690000Y-57150000D03*
%TO.P,J4,2,Pin_2*%
%TO.N,SPI_COPI*%
X186690000Y-59690000D03*
%TO.P,J4,3,Pin_3*%
%TO.N,SPI_CIPO*%
X186690000Y-62230000D03*
%TO.P,J4,4,Pin_4*%
%TO.N,SPI_clk*%
X186690000Y-64770000D03*
%TO.P,J4,5,Pin_5*%
%TO.N,CS (AD9833)*%
X186690000Y-67310000D03*
%TO.P,J4,6,Pin_6*%
%TO.N,CS (X9c10x)*%
X186690000Y-69850000D03*
%TO.P,J4,7,Pin_7*%
%TO.N,unconnected-(J4-Pin_7-Pad7)*%
X186690000Y-72390000D03*
%TO.P,J4,8,Pin_8*%
%TO.N,unconnected-(J4-Pin_8-Pad8)*%
X186690000Y-74930000D03*
%TO.P,J4,9,Pin_9*%
%TO.N,unconnected-(J4-Pin_9-Pad9)*%
X186690000Y-77470000D03*
%TO.P,J4,10,Pin_10*%
%TO.N,unconnected-(J4-Pin_10-Pad10)*%
X186690000Y-80010000D03*
%TO.P,J4,11,Pin_11*%
%TO.N,unconnected-(J4-Pin_11-Pad11)*%
X186690000Y-82550000D03*
%TO.P,J4,12,Pin_12*%
%TO.N,unconnected-(J4-Pin_12-Pad12)*%
X186690000Y-85090000D03*
%TO.P,J4,13,Pin_13*%
%TO.N,unconnected-(J4-Pin_13-Pad13)*%
X186690000Y-87630000D03*
%TO.P,J4,14,Pin_14*%
%TO.N,unconnected-(J4-Pin_14-Pad14)*%
X186690000Y-90170000D03*
%TO.P,J4,15,Pin_15*%
%TO.N,unconnected-(J4-Pin_15-Pad15)*%
X186690000Y-92710000D03*
%TO.P,J4,16,Pin_16*%
%TO.N,unconnected-(J4-Pin_16-Pad16)*%
X186690000Y-95250000D03*
%TO.P,J4,17,Pin_17*%
%TO.N,unconnected-(J4-Pin_17-Pad17)*%
X186690000Y-97790000D03*
%TO.P,J4,18,Pin_18*%
%TO.N,unconnected-(J4-Pin_18-Pad18)*%
X186690000Y-100330000D03*
%TO.P,J4,19,Pin_19*%
%TO.N,unconnected-(J4-Pin_19-Pad19)*%
X186690000Y-102870000D03*
%TO.P,J4,20,Pin_20*%
%TO.N,unconnected-(J4-Pin_20-Pad20)*%
X186690000Y-105410000D03*
%TO.P,J4,21,Pin_21*%
%TO.N,unconnected-(J4-Pin_21-Pad21)*%
X186690000Y-107950000D03*
%TO.P,J4,22,Pin_22*%
%TO.N,X9x10x_INC*%
X186690000Y-110490000D03*
%TO.P,J4,23,Pin_23*%
%TO.N,X9x10x_U{slash}D*%
X186690000Y-113030000D03*
%TO.P,J4,24,Pin_24*%
%TO.N,unconnected-(J4-Pin_24-Pad24)*%
X186690000Y-115570000D03*
%TO.P,J4,25,Pin_25*%
%TO.N,unconnected-(J4-Pin_25-Pad25)*%
X186690000Y-118110000D03*
%TO.P,J4,26,Pin_26*%
%TO.N,unconnected-(J4-Pin_26-Pad26)*%
X186690000Y-120650000D03*
%TO.P,J4,27,Pin_27*%
%TO.N,unconnected-(J4-Pin_27-Pad27)*%
X186690000Y-123190000D03*
%TO.P,J4,28,Pin_28*%
%TO.N,unconnected-(J4-Pin_28-Pad28)*%
X186690000Y-125730000D03*
%TO.P,J4,29,Pin_29*%
%TO.N,unconnected-(J4-Pin_29-Pad29)*%
X186690000Y-128270000D03*
%TO.P,J4,30,Pin_30*%
%TO.N,SCL3*%
X186690000Y-130810000D03*
%TO.P,J4,31,Pin_31*%
%TO.N,SDA3*%
X186690000Y-133350000D03*
%TO.P,J4,32,Pin_32*%
%TO.N,SCL2*%
X186690000Y-135890000D03*
%TO.P,J4,33,Pin_33*%
%TO.N,SDA2*%
X186690000Y-138430000D03*
%TO.P,J4,34,Pin_34*%
%TO.N,SCL1*%
X186690000Y-140970000D03*
%TO.P,J4,35,Pin_35*%
%TO.N,SDA1*%
X186690000Y-143510000D03*
%TD*%
D11*
%TO.P,J2,1,Pin_1*%
%TO.N,Earth*%
X106680000Y-57150000D03*
D10*
%TO.P,J2,2,Pin_2*%
%TO.N,+12V*%
X106680000Y-59690000D03*
%TO.P,J2,3,Pin_3*%
%TO.N,-12V*%
X106680000Y-62230000D03*
%TO.P,J2,4,Pin_4*%
%TO.N,+9V*%
X106680000Y-64770000D03*
%TO.P,J2,5,Pin_5*%
%TO.N,-9V*%
X106680000Y-67310000D03*
%TO.P,J2,6,Pin_6*%
%TO.N,+5V*%
X106680000Y-69850000D03*
%TO.P,J2,7,Pin_7*%
%TO.N,-5V*%
X106680000Y-72390000D03*
%TO.P,J2,8,Pin_8*%
%TO.N,+3.3V*%
X106680000Y-74930000D03*
%TD*%
%TO.P,J3,1,Pin_1*%
%TO.N,unconnected-(J3-Pin_1-Pad1)*%
X106680000Y-81280000D03*
%TO.P,J3,2,Pin_2*%
%TO.N,unconnected-(J3-Pin_2-Pad2)*%
X106680000Y-83820000D03*
%TO.P,J3,3,Pin_3*%
%TO.N,unconnected-(J3-Pin_3-Pad3)*%
X106680000Y-86360000D03*
%TO.P,J3,4,Pin_4*%
%TO.N,unconnected-(J3-Pin_4-Pad4)*%
X106680000Y-88900000D03*
%TO.P,J3,5,Pin_5*%
%TO.N,unconnected-(J3-Pin_5-Pad5)*%
X106680000Y-91440000D03*
%TO.P,J3,6,Pin_6*%
%TO.N,unconnected-(J3-Pin_6-Pad6)*%
X106680000Y-93980000D03*
%TO.P,J3,7,Pin_7*%
%TO.N,unconnected-(J3-Pin_7-Pad7)*%
X106680000Y-96520000D03*
%TO.P,J3,8,Pin_8*%
%TO.N,unconnected-(J3-Pin_8-Pad8)*%
X106680000Y-99060000D03*
%TO.P,J3,9,Pin_9*%
%TO.N,unconnected-(J3-Pin_9-Pad9)*%
X106680000Y-101600000D03*
%TO.P,J3,10,Pin_10*%
%TO.N,unconnected-(J3-Pin_10-Pad10)*%
X106680000Y-104140000D03*
%TO.P,J3,11,Pin_11*%
%TO.N,unconnected-(J3-Pin_11-Pad11)*%
X106680000Y-106680000D03*
%TO.P,J3,12,Pin_12*%
%TO.N,unconnected-(J3-Pin_12-Pad12)*%
X106680000Y-109220000D03*
%TO.P,J3,13,Pin_13*%
%TO.N,unconnected-(J3-Pin_13-Pad13)*%
X106680000Y-111760000D03*
%TO.P,J3,14,Pin_14*%
%TO.N,unconnected-(J3-Pin_14-Pad14)*%
X106680000Y-114300000D03*
%TO.P,J3,15,Pin_15*%
%TO.N,unconnected-(J3-Pin_15-Pad15)*%
X106680000Y-116840000D03*
%TO.P,J3,16,Pin_16*%
%TO.N,unconnected-(J3-Pin_16-Pad16)*%
X106680000Y-119380000D03*
%TO.P,J3,17,Pin_17*%
%TO.N,unconnected-(J3-Pin_17-Pad17)*%
X106680000Y-121920000D03*
%TO.P,J3,18,Pin_18*%
%TO.N,unconnected-(J3-Pin_18-Pad18)*%
X106680000Y-124460000D03*
%TO.P,J3,19,Pin_19*%
%TO.N,unconnected-(J3-Pin_19-Pad19)*%
X106680000Y-127000000D03*
%TO.P,J3,20,Pin_20*%
%TO.N,I1*%
X106680000Y-129540000D03*
%TO.P,J3,21,Pin_21*%
%TO.N,I2*%
X106680000Y-132080000D03*
%TO.P,J3,22,Pin_22*%
%TO.N,Ampl1*%
X106680000Y-134620000D03*
%TO.P,J3,23,Pin_23*%
%TO.N,Ampl2*%
X106680000Y-137160000D03*
%TO.P,J3,24,Pin_24*%
%TO.N,Sin1*%
X106680000Y-139700000D03*
%TO.P,J3,25,Pin_25*%
%TO.N,Sin2*%
X106680000Y-142240000D03*
%TO.P,J3,26,Pin_26*%
%TO.N,SinA*%
X106680000Y-144780000D03*
%TO.P,J3,27,Pin_27*%
%TO.N,SinB*%
X106680000Y-147320000D03*
%TD*%
M02*
