M48
; DRILL file {KiCad 7.0.10-7.0.10~ubuntu20.04.1} date seg 27 mai 2024 18:51:08
; FORMAT={-:-/ absolute / metric / decimal}
; #@! TF.CreationDate,2024-05-27T18:51:08-03:00
; #@! TF.GenerationSoftware,Kicad,Pcbnew,7.0.10-7.0.10~ubuntu20.04.1
; #@! TF.FileFunction,Plated,1,2,PTH
FMAT,2
METRIC
; #@! TA.AperFunction,Plated,PTH,ViaDrill
T1C0.800
; #@! TA.AperFunction,Plated,PTH,ComponentDrill
T2C0.800
; #@! TA.AperFunction,Plated,PTH,ComponentDrill
T3C1.020
; #@! TA.AperFunction,Plated,PTH,ComponentDrill
T4C1.100
%
G90
G05
T1
X115.648Y-112.863
X133.324Y-131.142
X149.729Y-86.419
X175.561Y-99.929
X176.11Y-116.928
X181.077Y-79.245
T2
X112.88Y-124.0
X112.88Y-131.62
X113.41Y-95.98
X113.6Y-100.48
X113.6Y-108.1
X116.14Y-100.48
X116.14Y-108.1
X117.38Y-117.0
X117.38Y-123.38
X117.38Y-125.92
X117.38Y-128.46
X117.38Y-131.0
X118.68Y-100.48
X118.68Y-108.1
X119.5Y-57.8
X119.5Y-65.42
X121.03Y-95.98
X121.22Y-100.48
X121.22Y-108.1
X124.89Y-80.01
X125.0Y-117.0
X125.0Y-123.38
X125.0Y-125.92
X125.0Y-128.46
X125.0Y-131.0
X125.3Y-63.6
X125.3Y-71.22
X126.22Y-100.67
X126.22Y-108.29
X127.18Y-42.0
X129.49Y-73.81
X131.48Y-47.4
X131.84Y-85.7
X131.84Y-95.86
X132.3Y-61.4
X132.3Y-69.02
X132.51Y-80.01
X134.8Y-42.0
X135.84Y-90.86
X135.84Y-98.48
X136.34Y-104.36
X137.11Y-73.81
X137.7Y-58.8
X137.7Y-66.42
X138.84Y-104.36
X139.1Y-47.4
X140.34Y-90.86
X140.34Y-98.48
X142.09Y-63.8
X142.09Y-66.34
X142.09Y-68.88
X142.09Y-71.42
X144.34Y-85.97
X144.34Y-93.59
X144.34Y-98.28
X144.34Y-108.44
X147.5Y-93.78
X149.229Y-107.877
X149.229Y-110.417
X149.229Y-112.957
X149.229Y-115.497
X149.71Y-63.8
X149.71Y-66.34
X149.71Y-68.88
X149.71Y-71.42
X150.0Y-93.78
X152.19Y-47.7
X154.9Y-58.8
X154.9Y-66.42
X155.0Y-123.1
X155.99Y-73.81
X156.849Y-107.877
X156.849Y-110.417
X156.849Y-112.957
X156.849Y-115.497
X157.48Y-41.8
X157.5Y-123.1
X158.0Y-79.38
X158.0Y-87.0
X159.81Y-47.7
X161.0Y-61.19
X161.0Y-68.81
X162.045Y-112.79
X162.045Y-120.41
X163.0Y-79.38
X163.0Y-87.0
X163.61Y-73.81
X165.1Y-41.8
X166.0Y-51.19
X166.0Y-58.81
X167.0Y-63.6
X167.0Y-71.22
X167.045Y-117.68
X167.045Y-125.3
X167.75Y-131.18
X168.0Y-79.38
X168.0Y-87.0
X168.19Y-75.0
X170.25Y-131.18
X171.38Y-53.0
X171.38Y-58.0
X171.38Y-63.0
X171.38Y-68.0
X171.545Y-117.87
X171.545Y-125.49
X173.0Y-79.38
X173.0Y-87.0
X175.81Y-75.0
X179.0Y-53.0
X179.0Y-58.0
X179.0Y-63.0
X179.0Y-68.0
T3
X106.934Y-44.704
X106.934Y-47.244
X106.934Y-49.784
X106.934Y-52.324
X106.934Y-54.864
X106.934Y-57.404
X106.934Y-59.944
X106.934Y-62.484
X106.934Y-68.834
X106.934Y-71.374
X106.934Y-73.914
X106.934Y-76.454
X106.934Y-78.994
X106.934Y-81.534
X106.934Y-84.074
X106.934Y-86.614
X106.934Y-89.154
X106.934Y-91.694
X106.934Y-94.234
X106.934Y-96.774
X106.934Y-99.314
X106.934Y-101.854
X106.934Y-104.394
X106.934Y-106.934
X106.934Y-109.474
X106.934Y-112.014
X106.934Y-114.554
X106.934Y-117.094
X106.934Y-119.634
X106.934Y-122.174
X106.934Y-124.714
X106.934Y-127.254
X106.934Y-129.794
X106.934Y-132.334
X106.934Y-134.874
X134.76Y-54.0
X137.3Y-54.0
X139.84Y-54.0
X152.26Y-54.0
X154.8Y-54.0
X157.34Y-54.0
X160.66Y-99.9
X163.2Y-99.9
X165.74Y-99.9
X185.674Y-44.704
X185.674Y-47.244
X185.674Y-49.784
X185.674Y-52.324
X185.674Y-54.864
X185.674Y-57.404
X185.674Y-59.944
X185.674Y-62.484
X185.674Y-65.024
X185.674Y-67.564
X185.674Y-70.104
X185.674Y-72.644
X185.674Y-75.184
X185.674Y-77.724
X185.674Y-80.264
X185.674Y-82.804
X185.674Y-85.344
X185.674Y-87.884
X185.674Y-90.424
X185.674Y-92.964
X185.674Y-95.504
X185.674Y-98.044
X185.674Y-100.584
X185.674Y-103.124
X185.674Y-105.664
X185.674Y-108.204
X185.674Y-110.744
X185.674Y-113.284
X185.674Y-115.824
X185.674Y-118.364
X185.674Y-120.904
X185.674Y-123.444
X185.674Y-125.984
X185.674Y-128.524
X185.674Y-131.064
T4
X112.46Y-44.19
X115.0Y-44.19
X119.725Y-44.19
X122.265Y-44.19
X162.045Y-125.1
X162.045Y-135.26
X170.0Y-44.19
X172.54Y-44.19
X176.545Y-112.52
X176.545Y-122.68
X177.0Y-44.19
X179.54Y-44.19
M30
