G04 #@! TF.GenerationSoftware,KiCad,Pcbnew,7.0.10-7.0.10~ubuntu20.04.1*
G04 #@! TF.CreationDate,2024-05-27T18:50:51-03:00*
G04 #@! TF.ProjectId,Fonte_corrente_bipolar_V01,466f6e74-655f-4636-9f72-72656e74655f,v02*
G04 #@! TF.SameCoordinates,Original*
G04 #@! TF.FileFunction,Soldermask,Top*
G04 #@! TF.FilePolarity,Negative*
%FSLAX46Y46*%
G04 Gerber Fmt 4.6, Leading zero omitted, Abs format (unit mm)*
G04 Created by KiCad (PCBNEW 7.0.10-7.0.10~ubuntu20.04.1) date 2024-05-27 18:50:51*
%MOMM*%
%LPD*%
G01*
G04 APERTURE LIST*
%ADD10C,1.600000*%
%ADD11O,1.600000X1.600000*%
%ADD12O,2.000000X1.600000*%
%ADD13O,1.800000X2.500000*%
%ADD14R,1.800000X2.500000*%
%ADD15O,1.600000X2.000000*%
%ADD16R,2.200000X2.200000*%
%ADD17O,2.200000X2.200000*%
%ADD18R,1.600000X1.600000*%
%ADD19R,2.500000X1.800000*%
%ADD20O,2.500000X1.800000*%
%ADD21R,2.000000X1.600000*%
%ADD22R,1.800000X2.600000*%
%ADD23R,1.600000X2.000000*%
G04 APERTURE END LIST*
D10*
X173000000Y-79380000D03*
D11*
X173000000Y-87000000D03*
D10*
X168000000Y-79380000D03*
D11*
X168000000Y-87000000D03*
D10*
X179000000Y-53000000D03*
D11*
X171380000Y-53000000D03*
D10*
X179000000Y-58000000D03*
D11*
X171380000Y-58000000D03*
D10*
X163000000Y-79380000D03*
D11*
X163000000Y-87000000D03*
D10*
X158000000Y-79380000D03*
D11*
X158000000Y-87000000D03*
D10*
X179000000Y-63000000D03*
D11*
X171380000Y-63000000D03*
D10*
X179000000Y-68000000D03*
D11*
X171380000Y-68000000D03*
D12*
X135840000Y-90860000D03*
X135840000Y-98480000D03*
D13*
X160660000Y-99900000D03*
D14*
X163200000Y-99900000D03*
D13*
X165740000Y-99900000D03*
D12*
X125300000Y-71220000D03*
X125300000Y-63600000D03*
X137700000Y-66420000D03*
X137700000Y-58800000D03*
D15*
X132510000Y-80010000D03*
X124890000Y-80010000D03*
D12*
X112880000Y-131620000D03*
X112880000Y-124000000D03*
D16*
X162045100Y-135260000D03*
D17*
X162045100Y-125100000D03*
D13*
X152260000Y-54000000D03*
D14*
X154800000Y-54000000D03*
D13*
X157340000Y-54000000D03*
D15*
X113410000Y-95980000D03*
X121030000Y-95980000D03*
D12*
X167045100Y-117680000D03*
X167045100Y-125300000D03*
D15*
X168190000Y-75000000D03*
X175810000Y-75000000D03*
D12*
X162045100Y-112790000D03*
X162045100Y-120410000D03*
D14*
X119725000Y-44190000D03*
D13*
X122265000Y-44190000D03*
D18*
X147500000Y-93780000D03*
D10*
X150000000Y-93780000D03*
D12*
X119500000Y-57800000D03*
X119500000Y-65420000D03*
D19*
X106934000Y-44704000D03*
D20*
X106934000Y-47244000D03*
X106934000Y-49784000D03*
X106934000Y-52324000D03*
X106934000Y-54864000D03*
X106934000Y-57404000D03*
X106934000Y-59944000D03*
X106934000Y-62484000D03*
D15*
X117380000Y-117000000D03*
X125000000Y-117000000D03*
D21*
X142090000Y-63800000D03*
D12*
X142090000Y-66340000D03*
X142090000Y-68880000D03*
X142090000Y-71420000D03*
X149710000Y-71420000D03*
X149710000Y-68880000D03*
X149710000Y-66340000D03*
X149710000Y-63800000D03*
X126220000Y-100670000D03*
X126220000Y-108290000D03*
D14*
X112460000Y-44190000D03*
D13*
X115000000Y-44190000D03*
D20*
X106934000Y-68834000D03*
X106934000Y-71374000D03*
X106934000Y-73914000D03*
X106934000Y-76454000D03*
X106934000Y-78994000D03*
X106934000Y-81534000D03*
X106934000Y-84074000D03*
X106934000Y-86614000D03*
X106934000Y-89154000D03*
X106934000Y-91694000D03*
X106934000Y-94234000D03*
X106934000Y-96774000D03*
X106934000Y-99314000D03*
X106934000Y-101854000D03*
X106934000Y-104394000D03*
X106934000Y-106934000D03*
X106934000Y-109474000D03*
X106934000Y-112014000D03*
X106934000Y-114554000D03*
X106934000Y-117094000D03*
X106934000Y-119634000D03*
X106934000Y-122174000D03*
X106934000Y-124714000D03*
X106934000Y-127254000D03*
X106934000Y-129794000D03*
X106934000Y-132334000D03*
X106934000Y-134874000D03*
D15*
X165100000Y-41800000D03*
X157480000Y-41800000D03*
D12*
X132300000Y-69020000D03*
X132300000Y-61400000D03*
D21*
X117380000Y-123380000D03*
D12*
X117380000Y-125920000D03*
X117380000Y-128460000D03*
X117380000Y-131000000D03*
X125000000Y-131000000D03*
X125000000Y-128460000D03*
X125000000Y-125920000D03*
X125000000Y-123380000D03*
D15*
X159810000Y-47700000D03*
X152190000Y-47700000D03*
X155990000Y-73810000D03*
X163610000Y-73810000D03*
D20*
X185674000Y-44704000D03*
X185674000Y-47244000D03*
X185674000Y-49784000D03*
X185674000Y-52324000D03*
X185674000Y-54864000D03*
X185674000Y-57404000D03*
X185674000Y-59944000D03*
X185674000Y-62484000D03*
X185674000Y-65024000D03*
X185674000Y-67564000D03*
X185674000Y-70104000D03*
X185674000Y-72644000D03*
X185674000Y-75184000D03*
X185674000Y-77724000D03*
X185674000Y-80264000D03*
X185674000Y-82804000D03*
X185674000Y-85344000D03*
X185674000Y-87884000D03*
X185674000Y-90424000D03*
X185674000Y-92964000D03*
X185674000Y-95504000D03*
X185674000Y-98044000D03*
X185674000Y-100584000D03*
X185674000Y-103124000D03*
X185674000Y-105664000D03*
X185674000Y-108204000D03*
X185674000Y-110744000D03*
X185674000Y-113284000D03*
X185674000Y-115824000D03*
X185674000Y-118364000D03*
X185674000Y-120904000D03*
X185674000Y-123444000D03*
X185674000Y-125984000D03*
X185674000Y-128524000D03*
X185674000Y-131064000D03*
D13*
X134760000Y-54000000D03*
D22*
X137300000Y-54000000D03*
D13*
X139840000Y-54000000D03*
D12*
X166000000Y-51190000D03*
X166000000Y-58810000D03*
D15*
X157500000Y-123100000D03*
D21*
X155000000Y-123100000D03*
D16*
X176545100Y-112520000D03*
D17*
X176545100Y-122680000D03*
D21*
X149228900Y-107877000D03*
D12*
X149228900Y-110417000D03*
X149228900Y-112957000D03*
X149228900Y-115497000D03*
X156848900Y-115497000D03*
X156848900Y-112957000D03*
X156848900Y-110417000D03*
X156848900Y-107877000D03*
X161000000Y-68810000D03*
X161000000Y-61190000D03*
X167000000Y-63600000D03*
X167000000Y-71220000D03*
D14*
X170000000Y-44190000D03*
D13*
X172540000Y-44190000D03*
D16*
X131840000Y-85700000D03*
D12*
X131840000Y-95860000D03*
D15*
X170250200Y-131180000D03*
D21*
X167750200Y-131180000D03*
X144340000Y-108440000D03*
D12*
X144340000Y-98280000D03*
D23*
X121220000Y-100480000D03*
D15*
X118680000Y-100480000D03*
X116140000Y-100480000D03*
X113600000Y-100480000D03*
X113600000Y-108100000D03*
X116140000Y-108100000D03*
X118680000Y-108100000D03*
X121220000Y-108100000D03*
D12*
X140340000Y-90860000D03*
X140340000Y-98480000D03*
X154900000Y-66420000D03*
X154900000Y-58800000D03*
D14*
X177000000Y-44190000D03*
D13*
X179540000Y-44190000D03*
D15*
X139100000Y-47400000D03*
X131480000Y-47400000D03*
X137110000Y-73810000D03*
X129490000Y-73810000D03*
X134800000Y-42000000D03*
X127180000Y-42000000D03*
D12*
X144340000Y-85970000D03*
X144340000Y-93590000D03*
X171545100Y-117870000D03*
X171545100Y-125490000D03*
D18*
X136340000Y-104360000D03*
D10*
X138840000Y-104360000D03*
M02*
