%TF.GenerationSoftware,KiCad,Pcbnew,7.0.10-7.0.10~ubuntu20.04.1*%
%TF.CreationDate,2024-05-27T18:51:09-03:00*%
%TF.ProjectId,Fonte_corrente_bipolar_V01,466f6e74-655f-4636-9f72-72656e74655f,v02*%
%TF.SameCoordinates,Original*%
%TF.FileFunction,Drillmap*%
%TF.FilePolarity,Positive*%
%FSLAX45Y45*%
G04 Gerber Fmt 4.5, Leading zero omitted, Abs format (unit mm)*
G04 Created by KiCad (PCBNEW 7.0.10-7.0.10~ubuntu20.04.1) date 2024-05-27 18:51:09*
%MOMM*%
%LPD*%
G01*
G04 APERTURE LIST*
%ADD10C,0.500000*%
%ADD11C,0.200000*%
G04 APERTURE END LIST*
D10*
X10185400Y-3835400D02*
X10185400Y-13835380D01*
X19185382Y-13835380D02*
X10185400Y-13835380D01*
X19185400Y-3835400D02*
X10185400Y-3835400D01*
X19185400Y-13835400D02*
X19185400Y-3835400D01*
D11*
X10421177Y-14171884D02*
X10421177Y-13971884D01*
X10421177Y-13971884D02*
X10468796Y-13971884D01*
X10468796Y-13971884D02*
X10497367Y-13981408D01*
X10497367Y-13981408D02*
X10516415Y-14000455D01*
X10516415Y-14000455D02*
X10525939Y-14019503D01*
X10525939Y-14019503D02*
X10535463Y-14057598D01*
X10535463Y-14057598D02*
X10535463Y-14086169D01*
X10535463Y-14086169D02*
X10525939Y-14124265D01*
X10525939Y-14124265D02*
X10516415Y-14143312D01*
X10516415Y-14143312D02*
X10497367Y-14162360D01*
X10497367Y-14162360D02*
X10468796Y-14171884D01*
X10468796Y-14171884D02*
X10421177Y-14171884D01*
X10621177Y-14171884D02*
X10621177Y-14038550D01*
X10621177Y-14076646D02*
X10630701Y-14057598D01*
X10630701Y-14057598D02*
X10640224Y-14048074D01*
X10640224Y-14048074D02*
X10659272Y-14038550D01*
X10659272Y-14038550D02*
X10678320Y-14038550D01*
X10744986Y-14171884D02*
X10744986Y-14038550D01*
X10744986Y-13971884D02*
X10735463Y-13981408D01*
X10735463Y-13981408D02*
X10744986Y-13990931D01*
X10744986Y-13990931D02*
X10754510Y-13981408D01*
X10754510Y-13981408D02*
X10744986Y-13971884D01*
X10744986Y-13971884D02*
X10744986Y-13990931D01*
X10868796Y-14171884D02*
X10849748Y-14162360D01*
X10849748Y-14162360D02*
X10840224Y-14143312D01*
X10840224Y-14143312D02*
X10840224Y-13971884D01*
X10973558Y-14171884D02*
X10954510Y-14162360D01*
X10954510Y-14162360D02*
X10944986Y-14143312D01*
X10944986Y-14143312D02*
X10944986Y-13971884D01*
X11202129Y-14171884D02*
X11202129Y-13971884D01*
X11202129Y-13971884D02*
X11268796Y-14114741D01*
X11268796Y-14114741D02*
X11335462Y-13971884D01*
X11335462Y-13971884D02*
X11335462Y-14171884D01*
X11516415Y-14171884D02*
X11516415Y-14067122D01*
X11516415Y-14067122D02*
X11506891Y-14048074D01*
X11506891Y-14048074D02*
X11487843Y-14038550D01*
X11487843Y-14038550D02*
X11449748Y-14038550D01*
X11449748Y-14038550D02*
X11430701Y-14048074D01*
X11516415Y-14162360D02*
X11497367Y-14171884D01*
X11497367Y-14171884D02*
X11449748Y-14171884D01*
X11449748Y-14171884D02*
X11430701Y-14162360D01*
X11430701Y-14162360D02*
X11421177Y-14143312D01*
X11421177Y-14143312D02*
X11421177Y-14124265D01*
X11421177Y-14124265D02*
X11430701Y-14105217D01*
X11430701Y-14105217D02*
X11449748Y-14095693D01*
X11449748Y-14095693D02*
X11497367Y-14095693D01*
X11497367Y-14095693D02*
X11516415Y-14086169D01*
X11611653Y-14038550D02*
X11611653Y-14238550D01*
X11611653Y-14048074D02*
X11630701Y-14038550D01*
X11630701Y-14038550D02*
X11668796Y-14038550D01*
X11668796Y-14038550D02*
X11687843Y-14048074D01*
X11687843Y-14048074D02*
X11697367Y-14057598D01*
X11697367Y-14057598D02*
X11706891Y-14076646D01*
X11706891Y-14076646D02*
X11706891Y-14133788D01*
X11706891Y-14133788D02*
X11697367Y-14152836D01*
X11697367Y-14152836D02*
X11687843Y-14162360D01*
X11687843Y-14162360D02*
X11668796Y-14171884D01*
X11668796Y-14171884D02*
X11630701Y-14171884D01*
X11630701Y-14171884D02*
X11611653Y-14162360D01*
X11792605Y-14152836D02*
X11802129Y-14162360D01*
X11802129Y-14162360D02*
X11792605Y-14171884D01*
X11792605Y-14171884D02*
X11783082Y-14162360D01*
X11783082Y-14162360D02*
X11792605Y-14152836D01*
X11792605Y-14152836D02*
X11792605Y-14171884D01*
X11792605Y-14048074D02*
X11802129Y-14057598D01*
X11802129Y-14057598D02*
X11792605Y-14067122D01*
X11792605Y-14067122D02*
X11783082Y-14057598D01*
X11783082Y-14057598D02*
X11792605Y-14048074D01*
X11792605Y-14048074D02*
X11792605Y-14067122D01*
M02*
