%TF.GenerationSoftware,KiCad,Pcbnew,7.0.11-7.0.11~ubuntu22.04.1*%
%TF.CreationDate,2024-05-31T20:37:16-03:00*%
%TF.ProjectId,Fonte_corrente_bipolar_V01,466f6e74-655f-4636-9f72-72656e74655f,v02*%
%TF.SameCoordinates,Original*%
%TF.FileFunction,Drillmap*%
%TF.FilePolarity,Positive*%
%FSLAX45Y45*%
G04 Gerber Fmt 4.5, Leading zero omitted, Abs format (unit mm)*
G04 Created by KiCad (PCBNEW 7.0.11-7.0.11~ubuntu22.04.1) date 2024-05-31 20:37:16*
%MOMM*%
%LPD*%
G01*
G04 APERTURE LIST*
%ADD10C,0.150000*%
%ADD11C,0.200000*%
%ADD12C,0.100000*%
%ADD13C,0.102000*%
%ADD14C,0.110000*%
G04 APERTURE END LIST*
D10*
X10185400Y-3835400D02*
X10185400Y-13835380D01*
X19185382Y-13835380D02*
X10185400Y-13835380D01*
X19185400Y-3835400D02*
X10185400Y-3835400D01*
X19185400Y-13835400D02*
X19185400Y-3835400D01*
D11*
D12*
X11524810Y-11246270D02*
X11604810Y-11326270D01*
X11604810Y-11246270D02*
X11524810Y-11326270D01*
X13292400Y-13074170D02*
X13372400Y-13154170D01*
X13372400Y-13074170D02*
X13292400Y-13154170D01*
X14932940Y-8601900D02*
X15012940Y-8681900D01*
X15012940Y-8601900D02*
X14932940Y-8681900D01*
X17516070Y-9952870D02*
X17596070Y-10032870D01*
X17596070Y-9952870D02*
X17516070Y-10032870D01*
X17570960Y-11652790D02*
X17650960Y-11732790D01*
X17650960Y-11652790D02*
X17570960Y-11732790D01*
X18067700Y-7884480D02*
X18147700Y-7964480D01*
X18147700Y-7884480D02*
X18067700Y-7964480D01*
X11328000Y-12400000D02*
G75*
G03*
X11248000Y-12400000I-40000J0D01*
G01*
X11248000Y-12400000D02*
G75*
G03*
X11328000Y-12400000I40000J0D01*
G01*
X11328000Y-13162000D02*
G75*
G03*
X11248000Y-13162000I-40000J0D01*
G01*
X11248000Y-13162000D02*
G75*
G03*
X11328000Y-13162000I40000J0D01*
G01*
X11381000Y-9598000D02*
G75*
G03*
X11301000Y-9598000I-40000J0D01*
G01*
X11301000Y-9598000D02*
G75*
G03*
X11381000Y-9598000I40000J0D01*
G01*
X11400000Y-10048000D02*
G75*
G03*
X11320000Y-10048000I-40000J0D01*
G01*
X11320000Y-10048000D02*
G75*
G03*
X11400000Y-10048000I40000J0D01*
G01*
X11400000Y-10810000D02*
G75*
G03*
X11320000Y-10810000I-40000J0D01*
G01*
X11320000Y-10810000D02*
G75*
G03*
X11400000Y-10810000I40000J0D01*
G01*
X11654000Y-10048000D02*
G75*
G03*
X11574000Y-10048000I-40000J0D01*
G01*
X11574000Y-10048000D02*
G75*
G03*
X11654000Y-10048000I40000J0D01*
G01*
X11654000Y-10810000D02*
G75*
G03*
X11574000Y-10810000I-40000J0D01*
G01*
X11574000Y-10810000D02*
G75*
G03*
X11654000Y-10810000I40000J0D01*
G01*
X11778000Y-11700000D02*
G75*
G03*
X11698000Y-11700000I-40000J0D01*
G01*
X11698000Y-11700000D02*
G75*
G03*
X11778000Y-11700000I40000J0D01*
G01*
X11778000Y-12338000D02*
G75*
G03*
X11698000Y-12338000I-40000J0D01*
G01*
X11698000Y-12338000D02*
G75*
G03*
X11778000Y-12338000I40000J0D01*
G01*
X11778000Y-12592000D02*
G75*
G03*
X11698000Y-12592000I-40000J0D01*
G01*
X11698000Y-12592000D02*
G75*
G03*
X11778000Y-12592000I40000J0D01*
G01*
X11778000Y-12846000D02*
G75*
G03*
X11698000Y-12846000I-40000J0D01*
G01*
X11698000Y-12846000D02*
G75*
G03*
X11778000Y-12846000I40000J0D01*
G01*
X11778000Y-13100000D02*
G75*
G03*
X11698000Y-13100000I-40000J0D01*
G01*
X11698000Y-13100000D02*
G75*
G03*
X11778000Y-13100000I40000J0D01*
G01*
X11908000Y-10048000D02*
G75*
G03*
X11828000Y-10048000I-40000J0D01*
G01*
X11828000Y-10048000D02*
G75*
G03*
X11908000Y-10048000I40000J0D01*
G01*
X11908000Y-10810000D02*
G75*
G03*
X11828000Y-10810000I-40000J0D01*
G01*
X11828000Y-10810000D02*
G75*
G03*
X11908000Y-10810000I40000J0D01*
G01*
X11990000Y-5780000D02*
G75*
G03*
X11910000Y-5780000I-40000J0D01*
G01*
X11910000Y-5780000D02*
G75*
G03*
X11990000Y-5780000I40000J0D01*
G01*
X11990000Y-6542000D02*
G75*
G03*
X11910000Y-6542000I-40000J0D01*
G01*
X11910000Y-6542000D02*
G75*
G03*
X11990000Y-6542000I40000J0D01*
G01*
X12143000Y-9598000D02*
G75*
G03*
X12063000Y-9598000I-40000J0D01*
G01*
X12063000Y-9598000D02*
G75*
G03*
X12143000Y-9598000I40000J0D01*
G01*
X12162000Y-10048000D02*
G75*
G03*
X12082000Y-10048000I-40000J0D01*
G01*
X12082000Y-10048000D02*
G75*
G03*
X12162000Y-10048000I40000J0D01*
G01*
X12162000Y-10810000D02*
G75*
G03*
X12082000Y-10810000I-40000J0D01*
G01*
X12082000Y-10810000D02*
G75*
G03*
X12162000Y-10810000I40000J0D01*
G01*
X12529000Y-8001000D02*
G75*
G03*
X12449000Y-8001000I-40000J0D01*
G01*
X12449000Y-8001000D02*
G75*
G03*
X12529000Y-8001000I40000J0D01*
G01*
X12540000Y-11700000D02*
G75*
G03*
X12460000Y-11700000I-40000J0D01*
G01*
X12460000Y-11700000D02*
G75*
G03*
X12540000Y-11700000I40000J0D01*
G01*
X12540000Y-12338000D02*
G75*
G03*
X12460000Y-12338000I-40000J0D01*
G01*
X12460000Y-12338000D02*
G75*
G03*
X12540000Y-12338000I40000J0D01*
G01*
X12540000Y-12592000D02*
G75*
G03*
X12460000Y-12592000I-40000J0D01*
G01*
X12460000Y-12592000D02*
G75*
G03*
X12540000Y-12592000I40000J0D01*
G01*
X12540000Y-12846000D02*
G75*
G03*
X12460000Y-12846000I-40000J0D01*
G01*
X12460000Y-12846000D02*
G75*
G03*
X12540000Y-12846000I40000J0D01*
G01*
X12540000Y-13100000D02*
G75*
G03*
X12460000Y-13100000I-40000J0D01*
G01*
X12460000Y-13100000D02*
G75*
G03*
X12540000Y-13100000I40000J0D01*
G01*
X12570000Y-6360000D02*
G75*
G03*
X12490000Y-6360000I-40000J0D01*
G01*
X12490000Y-6360000D02*
G75*
G03*
X12570000Y-6360000I40000J0D01*
G01*
X12570000Y-7122000D02*
G75*
G03*
X12490000Y-7122000I-40000J0D01*
G01*
X12490000Y-7122000D02*
G75*
G03*
X12570000Y-7122000I40000J0D01*
G01*
X12662000Y-10067000D02*
G75*
G03*
X12582000Y-10067000I-40000J0D01*
G01*
X12582000Y-10067000D02*
G75*
G03*
X12662000Y-10067000I40000J0D01*
G01*
X12662000Y-10829000D02*
G75*
G03*
X12582000Y-10829000I-40000J0D01*
G01*
X12582000Y-10829000D02*
G75*
G03*
X12662000Y-10829000I40000J0D01*
G01*
X12758000Y-4200000D02*
G75*
G03*
X12678000Y-4200000I-40000J0D01*
G01*
X12678000Y-4200000D02*
G75*
G03*
X12758000Y-4200000I40000J0D01*
G01*
X12989000Y-7381000D02*
G75*
G03*
X12909000Y-7381000I-40000J0D01*
G01*
X12909000Y-7381000D02*
G75*
G03*
X12989000Y-7381000I40000J0D01*
G01*
X13188000Y-4740000D02*
G75*
G03*
X13108000Y-4740000I-40000J0D01*
G01*
X13108000Y-4740000D02*
G75*
G03*
X13188000Y-4740000I40000J0D01*
G01*
X13224000Y-8570000D02*
G75*
G03*
X13144000Y-8570000I-40000J0D01*
G01*
X13144000Y-8570000D02*
G75*
G03*
X13224000Y-8570000I40000J0D01*
G01*
X13224000Y-9586000D02*
G75*
G03*
X13144000Y-9586000I-40000J0D01*
G01*
X13144000Y-9586000D02*
G75*
G03*
X13224000Y-9586000I40000J0D01*
G01*
X13270000Y-6140000D02*
G75*
G03*
X13190000Y-6140000I-40000J0D01*
G01*
X13190000Y-6140000D02*
G75*
G03*
X13270000Y-6140000I40000J0D01*
G01*
X13270000Y-6902000D02*
G75*
G03*
X13190000Y-6902000I-40000J0D01*
G01*
X13190000Y-6902000D02*
G75*
G03*
X13270000Y-6902000I40000J0D01*
G01*
X13291000Y-8001000D02*
G75*
G03*
X13211000Y-8001000I-40000J0D01*
G01*
X13211000Y-8001000D02*
G75*
G03*
X13291000Y-8001000I40000J0D01*
G01*
X13520000Y-4200000D02*
G75*
G03*
X13440000Y-4200000I-40000J0D01*
G01*
X13440000Y-4200000D02*
G75*
G03*
X13520000Y-4200000I40000J0D01*
G01*
X13624000Y-9086000D02*
G75*
G03*
X13544000Y-9086000I-40000J0D01*
G01*
X13544000Y-9086000D02*
G75*
G03*
X13624000Y-9086000I40000J0D01*
G01*
X13624000Y-9848000D02*
G75*
G03*
X13544000Y-9848000I-40000J0D01*
G01*
X13544000Y-9848000D02*
G75*
G03*
X13624000Y-9848000I40000J0D01*
G01*
X13674000Y-10436000D02*
G75*
G03*
X13594000Y-10436000I-40000J0D01*
G01*
X13594000Y-10436000D02*
G75*
G03*
X13674000Y-10436000I40000J0D01*
G01*
X13751000Y-7381000D02*
G75*
G03*
X13671000Y-7381000I-40000J0D01*
G01*
X13671000Y-7381000D02*
G75*
G03*
X13751000Y-7381000I40000J0D01*
G01*
X13810000Y-5880000D02*
G75*
G03*
X13730000Y-5880000I-40000J0D01*
G01*
X13730000Y-5880000D02*
G75*
G03*
X13810000Y-5880000I40000J0D01*
G01*
X13810000Y-6642000D02*
G75*
G03*
X13730000Y-6642000I-40000J0D01*
G01*
X13730000Y-6642000D02*
G75*
G03*
X13810000Y-6642000I40000J0D01*
G01*
X13924000Y-10436000D02*
G75*
G03*
X13844000Y-10436000I-40000J0D01*
G01*
X13844000Y-10436000D02*
G75*
G03*
X13924000Y-10436000I40000J0D01*
G01*
X13950000Y-4740000D02*
G75*
G03*
X13870000Y-4740000I-40000J0D01*
G01*
X13870000Y-4740000D02*
G75*
G03*
X13950000Y-4740000I40000J0D01*
G01*
X14074000Y-9086000D02*
G75*
G03*
X13994000Y-9086000I-40000J0D01*
G01*
X13994000Y-9086000D02*
G75*
G03*
X14074000Y-9086000I40000J0D01*
G01*
X14074000Y-9848000D02*
G75*
G03*
X13994000Y-9848000I-40000J0D01*
G01*
X13994000Y-9848000D02*
G75*
G03*
X14074000Y-9848000I40000J0D01*
G01*
X14249000Y-6380000D02*
G75*
G03*
X14169000Y-6380000I-40000J0D01*
G01*
X14169000Y-6380000D02*
G75*
G03*
X14249000Y-6380000I40000J0D01*
G01*
X14249000Y-6634000D02*
G75*
G03*
X14169000Y-6634000I-40000J0D01*
G01*
X14169000Y-6634000D02*
G75*
G03*
X14249000Y-6634000I40000J0D01*
G01*
X14249000Y-6888000D02*
G75*
G03*
X14169000Y-6888000I-40000J0D01*
G01*
X14169000Y-6888000D02*
G75*
G03*
X14249000Y-6888000I40000J0D01*
G01*
X14249000Y-7142000D02*
G75*
G03*
X14169000Y-7142000I-40000J0D01*
G01*
X14169000Y-7142000D02*
G75*
G03*
X14249000Y-7142000I40000J0D01*
G01*
X14474000Y-8597000D02*
G75*
G03*
X14394000Y-8597000I-40000J0D01*
G01*
X14394000Y-8597000D02*
G75*
G03*
X14474000Y-8597000I40000J0D01*
G01*
X14474000Y-9359000D02*
G75*
G03*
X14394000Y-9359000I-40000J0D01*
G01*
X14394000Y-9359000D02*
G75*
G03*
X14474000Y-9359000I40000J0D01*
G01*
X14474000Y-9828000D02*
G75*
G03*
X14394000Y-9828000I-40000J0D01*
G01*
X14394000Y-9828000D02*
G75*
G03*
X14474000Y-9828000I40000J0D01*
G01*
X14474000Y-10844000D02*
G75*
G03*
X14394000Y-10844000I-40000J0D01*
G01*
X14394000Y-10844000D02*
G75*
G03*
X14474000Y-10844000I40000J0D01*
G01*
X14790000Y-9378000D02*
G75*
G03*
X14710000Y-9378000I-40000J0D01*
G01*
X14710000Y-9378000D02*
G75*
G03*
X14790000Y-9378000I40000J0D01*
G01*
X14962890Y-10787700D02*
G75*
G03*
X14882890Y-10787700I-40000J0D01*
G01*
X14882890Y-10787700D02*
G75*
G03*
X14962890Y-10787700I40000J0D01*
G01*
X14962890Y-11041700D02*
G75*
G03*
X14882890Y-11041700I-40000J0D01*
G01*
X14882890Y-11041700D02*
G75*
G03*
X14962890Y-11041700I40000J0D01*
G01*
X14962890Y-11295700D02*
G75*
G03*
X14882890Y-11295700I-40000J0D01*
G01*
X14882890Y-11295700D02*
G75*
G03*
X14962890Y-11295700I40000J0D01*
G01*
X14962890Y-11549700D02*
G75*
G03*
X14882890Y-11549700I-40000J0D01*
G01*
X14882890Y-11549700D02*
G75*
G03*
X14962890Y-11549700I40000J0D01*
G01*
X15011000Y-6380000D02*
G75*
G03*
X14931000Y-6380000I-40000J0D01*
G01*
X14931000Y-6380000D02*
G75*
G03*
X15011000Y-6380000I40000J0D01*
G01*
X15011000Y-6634000D02*
G75*
G03*
X14931000Y-6634000I-40000J0D01*
G01*
X14931000Y-6634000D02*
G75*
G03*
X15011000Y-6634000I40000J0D01*
G01*
X15011000Y-6888000D02*
G75*
G03*
X14931000Y-6888000I-40000J0D01*
G01*
X14931000Y-6888000D02*
G75*
G03*
X15011000Y-6888000I40000J0D01*
G01*
X15011000Y-7142000D02*
G75*
G03*
X14931000Y-7142000I-40000J0D01*
G01*
X14931000Y-7142000D02*
G75*
G03*
X15011000Y-7142000I40000J0D01*
G01*
X15040000Y-9378000D02*
G75*
G03*
X14960000Y-9378000I-40000J0D01*
G01*
X14960000Y-9378000D02*
G75*
G03*
X15040000Y-9378000I40000J0D01*
G01*
X15259000Y-4770000D02*
G75*
G03*
X15179000Y-4770000I-40000J0D01*
G01*
X15179000Y-4770000D02*
G75*
G03*
X15259000Y-4770000I40000J0D01*
G01*
X15530000Y-5880000D02*
G75*
G03*
X15450000Y-5880000I-40000J0D01*
G01*
X15450000Y-5880000D02*
G75*
G03*
X15530000Y-5880000I40000J0D01*
G01*
X15530000Y-6642000D02*
G75*
G03*
X15450000Y-6642000I-40000J0D01*
G01*
X15450000Y-6642000D02*
G75*
G03*
X15530000Y-6642000I40000J0D01*
G01*
X15540000Y-12310000D02*
G75*
G03*
X15460000Y-12310000I-40000J0D01*
G01*
X15460000Y-12310000D02*
G75*
G03*
X15540000Y-12310000I40000J0D01*
G01*
X15639000Y-7381000D02*
G75*
G03*
X15559000Y-7381000I-40000J0D01*
G01*
X15559000Y-7381000D02*
G75*
G03*
X15639000Y-7381000I40000J0D01*
G01*
X15724890Y-10787700D02*
G75*
G03*
X15644890Y-10787700I-40000J0D01*
G01*
X15644890Y-10787700D02*
G75*
G03*
X15724890Y-10787700I40000J0D01*
G01*
X15724890Y-11041700D02*
G75*
G03*
X15644890Y-11041700I-40000J0D01*
G01*
X15644890Y-11041700D02*
G75*
G03*
X15724890Y-11041700I40000J0D01*
G01*
X15724890Y-11295700D02*
G75*
G03*
X15644890Y-11295700I-40000J0D01*
G01*
X15644890Y-11295700D02*
G75*
G03*
X15724890Y-11295700I40000J0D01*
G01*
X15724890Y-11549700D02*
G75*
G03*
X15644890Y-11549700I-40000J0D01*
G01*
X15644890Y-11549700D02*
G75*
G03*
X15724890Y-11549700I40000J0D01*
G01*
X15788000Y-4180000D02*
G75*
G03*
X15708000Y-4180000I-40000J0D01*
G01*
X15708000Y-4180000D02*
G75*
G03*
X15788000Y-4180000I40000J0D01*
G01*
X15790000Y-12310000D02*
G75*
G03*
X15710000Y-12310000I-40000J0D01*
G01*
X15710000Y-12310000D02*
G75*
G03*
X15790000Y-12310000I40000J0D01*
G01*
X15840000Y-7938000D02*
G75*
G03*
X15760000Y-7938000I-40000J0D01*
G01*
X15760000Y-7938000D02*
G75*
G03*
X15840000Y-7938000I40000J0D01*
G01*
X15840000Y-8700000D02*
G75*
G03*
X15760000Y-8700000I-40000J0D01*
G01*
X15760000Y-8700000D02*
G75*
G03*
X15840000Y-8700000I40000J0D01*
G01*
X16021000Y-4770000D02*
G75*
G03*
X15941000Y-4770000I-40000J0D01*
G01*
X15941000Y-4770000D02*
G75*
G03*
X16021000Y-4770000I40000J0D01*
G01*
X16140000Y-6119000D02*
G75*
G03*
X16060000Y-6119000I-40000J0D01*
G01*
X16060000Y-6119000D02*
G75*
G03*
X16140000Y-6119000I40000J0D01*
G01*
X16140000Y-6881000D02*
G75*
G03*
X16060000Y-6881000I-40000J0D01*
G01*
X16060000Y-6881000D02*
G75*
G03*
X16140000Y-6881000I40000J0D01*
G01*
X16244510Y-11279000D02*
G75*
G03*
X16164510Y-11279000I-40000J0D01*
G01*
X16164510Y-11279000D02*
G75*
G03*
X16244510Y-11279000I40000J0D01*
G01*
X16244510Y-12041000D02*
G75*
G03*
X16164510Y-12041000I-40000J0D01*
G01*
X16164510Y-12041000D02*
G75*
G03*
X16244510Y-12041000I40000J0D01*
G01*
X16340000Y-7938000D02*
G75*
G03*
X16260000Y-7938000I-40000J0D01*
G01*
X16260000Y-7938000D02*
G75*
G03*
X16340000Y-7938000I40000J0D01*
G01*
X16340000Y-8700000D02*
G75*
G03*
X16260000Y-8700000I-40000J0D01*
G01*
X16260000Y-8700000D02*
G75*
G03*
X16340000Y-8700000I40000J0D01*
G01*
X16401000Y-7381000D02*
G75*
G03*
X16321000Y-7381000I-40000J0D01*
G01*
X16321000Y-7381000D02*
G75*
G03*
X16401000Y-7381000I40000J0D01*
G01*
X16550000Y-4180000D02*
G75*
G03*
X16470000Y-4180000I-40000J0D01*
G01*
X16470000Y-4180000D02*
G75*
G03*
X16550000Y-4180000I40000J0D01*
G01*
X16640000Y-5119000D02*
G75*
G03*
X16560000Y-5119000I-40000J0D01*
G01*
X16560000Y-5119000D02*
G75*
G03*
X16640000Y-5119000I40000J0D01*
G01*
X16640000Y-5881000D02*
G75*
G03*
X16560000Y-5881000I-40000J0D01*
G01*
X16560000Y-5881000D02*
G75*
G03*
X16640000Y-5881000I40000J0D01*
G01*
X16740000Y-6360000D02*
G75*
G03*
X16660000Y-6360000I-40000J0D01*
G01*
X16660000Y-6360000D02*
G75*
G03*
X16740000Y-6360000I40000J0D01*
G01*
X16740000Y-7122000D02*
G75*
G03*
X16660000Y-7122000I-40000J0D01*
G01*
X16660000Y-7122000D02*
G75*
G03*
X16740000Y-7122000I40000J0D01*
G01*
X16744510Y-11768000D02*
G75*
G03*
X16664510Y-11768000I-40000J0D01*
G01*
X16664510Y-11768000D02*
G75*
G03*
X16744510Y-11768000I40000J0D01*
G01*
X16744510Y-12530000D02*
G75*
G03*
X16664510Y-12530000I-40000J0D01*
G01*
X16664510Y-12530000D02*
G75*
G03*
X16744510Y-12530000I40000J0D01*
G01*
X16815020Y-13118000D02*
G75*
G03*
X16735020Y-13118000I-40000J0D01*
G01*
X16735020Y-13118000D02*
G75*
G03*
X16815020Y-13118000I40000J0D01*
G01*
X16840000Y-7938000D02*
G75*
G03*
X16760000Y-7938000I-40000J0D01*
G01*
X16760000Y-7938000D02*
G75*
G03*
X16840000Y-7938000I40000J0D01*
G01*
X16840000Y-8700000D02*
G75*
G03*
X16760000Y-8700000I-40000J0D01*
G01*
X16760000Y-8700000D02*
G75*
G03*
X16840000Y-8700000I40000J0D01*
G01*
X16859000Y-7500000D02*
G75*
G03*
X16779000Y-7500000I-40000J0D01*
G01*
X16779000Y-7500000D02*
G75*
G03*
X16859000Y-7500000I40000J0D01*
G01*
X17065020Y-13118000D02*
G75*
G03*
X16985020Y-13118000I-40000J0D01*
G01*
X16985020Y-13118000D02*
G75*
G03*
X17065020Y-13118000I40000J0D01*
G01*
X17178000Y-5300000D02*
G75*
G03*
X17098000Y-5300000I-40000J0D01*
G01*
X17098000Y-5300000D02*
G75*
G03*
X17178000Y-5300000I40000J0D01*
G01*
X17178000Y-5800000D02*
G75*
G03*
X17098000Y-5800000I-40000J0D01*
G01*
X17098000Y-5800000D02*
G75*
G03*
X17178000Y-5800000I40000J0D01*
G01*
X17178000Y-6300000D02*
G75*
G03*
X17098000Y-6300000I-40000J0D01*
G01*
X17098000Y-6300000D02*
G75*
G03*
X17178000Y-6300000I40000J0D01*
G01*
X17178000Y-6800000D02*
G75*
G03*
X17098000Y-6800000I-40000J0D01*
G01*
X17098000Y-6800000D02*
G75*
G03*
X17178000Y-6800000I40000J0D01*
G01*
X17194510Y-11787000D02*
G75*
G03*
X17114510Y-11787000I-40000J0D01*
G01*
X17114510Y-11787000D02*
G75*
G03*
X17194510Y-11787000I40000J0D01*
G01*
X17194510Y-12549000D02*
G75*
G03*
X17114510Y-12549000I-40000J0D01*
G01*
X17114510Y-12549000D02*
G75*
G03*
X17194510Y-12549000I40000J0D01*
G01*
X17340000Y-7938000D02*
G75*
G03*
X17260000Y-7938000I-40000J0D01*
G01*
X17260000Y-7938000D02*
G75*
G03*
X17340000Y-7938000I40000J0D01*
G01*
X17340000Y-8700000D02*
G75*
G03*
X17260000Y-8700000I-40000J0D01*
G01*
X17260000Y-8700000D02*
G75*
G03*
X17340000Y-8700000I40000J0D01*
G01*
X17621000Y-7500000D02*
G75*
G03*
X17541000Y-7500000I-40000J0D01*
G01*
X17541000Y-7500000D02*
G75*
G03*
X17621000Y-7500000I40000J0D01*
G01*
X17940000Y-5300000D02*
G75*
G03*
X17860000Y-5300000I-40000J0D01*
G01*
X17860000Y-5300000D02*
G75*
G03*
X17940000Y-5300000I40000J0D01*
G01*
X17940000Y-5800000D02*
G75*
G03*
X17860000Y-5800000I-40000J0D01*
G01*
X17860000Y-5800000D02*
G75*
G03*
X17940000Y-5800000I40000J0D01*
G01*
X17940000Y-6300000D02*
G75*
G03*
X17860000Y-6300000I-40000J0D01*
G01*
X17860000Y-6300000D02*
G75*
G03*
X17940000Y-6300000I40000J0D01*
G01*
X17940000Y-6800000D02*
G75*
G03*
X17860000Y-6800000I-40000J0D01*
G01*
X17860000Y-6800000D02*
G75*
G03*
X17940000Y-6800000I40000J0D01*
G01*
D13*
X10693400Y-4419400D02*
X10693400Y-4521400D01*
X10642400Y-4470400D02*
X10744400Y-4470400D01*
X10693400Y-4673400D02*
X10693400Y-4775400D01*
X10642400Y-4724400D02*
X10744400Y-4724400D01*
X10693400Y-4927400D02*
X10693400Y-5029400D01*
X10642400Y-4978400D02*
X10744400Y-4978400D01*
X10693400Y-5181400D02*
X10693400Y-5283400D01*
X10642400Y-5232400D02*
X10744400Y-5232400D01*
X10693400Y-5435400D02*
X10693400Y-5537400D01*
X10642400Y-5486400D02*
X10744400Y-5486400D01*
X10693400Y-5689400D02*
X10693400Y-5791400D01*
X10642400Y-5740400D02*
X10744400Y-5740400D01*
X10693400Y-5943400D02*
X10693400Y-6045400D01*
X10642400Y-5994400D02*
X10744400Y-5994400D01*
X10693400Y-6197400D02*
X10693400Y-6299400D01*
X10642400Y-6248400D02*
X10744400Y-6248400D01*
X10693400Y-6832400D02*
X10693400Y-6934400D01*
X10642400Y-6883400D02*
X10744400Y-6883400D01*
X10693400Y-7086400D02*
X10693400Y-7188400D01*
X10642400Y-7137400D02*
X10744400Y-7137400D01*
X10693400Y-7340400D02*
X10693400Y-7442400D01*
X10642400Y-7391400D02*
X10744400Y-7391400D01*
X10693400Y-7594400D02*
X10693400Y-7696400D01*
X10642400Y-7645400D02*
X10744400Y-7645400D01*
X10693400Y-7848400D02*
X10693400Y-7950400D01*
X10642400Y-7899400D02*
X10744400Y-7899400D01*
X10693400Y-8102400D02*
X10693400Y-8204400D01*
X10642400Y-8153400D02*
X10744400Y-8153400D01*
X10693400Y-8356400D02*
X10693400Y-8458400D01*
X10642400Y-8407400D02*
X10744400Y-8407400D01*
X10693400Y-8610400D02*
X10693400Y-8712400D01*
X10642400Y-8661400D02*
X10744400Y-8661400D01*
X10693400Y-8864400D02*
X10693400Y-8966400D01*
X10642400Y-8915400D02*
X10744400Y-8915400D01*
X10693400Y-9118400D02*
X10693400Y-9220400D01*
X10642400Y-9169400D02*
X10744400Y-9169400D01*
X10693400Y-9372400D02*
X10693400Y-9474400D01*
X10642400Y-9423400D02*
X10744400Y-9423400D01*
X10693400Y-9626400D02*
X10693400Y-9728400D01*
X10642400Y-9677400D02*
X10744400Y-9677400D01*
X10693400Y-9880400D02*
X10693400Y-9982400D01*
X10642400Y-9931400D02*
X10744400Y-9931400D01*
X10693400Y-10134400D02*
X10693400Y-10236400D01*
X10642400Y-10185400D02*
X10744400Y-10185400D01*
X10693400Y-10388400D02*
X10693400Y-10490400D01*
X10642400Y-10439400D02*
X10744400Y-10439400D01*
X10693400Y-10642400D02*
X10693400Y-10744400D01*
X10642400Y-10693400D02*
X10744400Y-10693400D01*
X10693400Y-10896400D02*
X10693400Y-10998400D01*
X10642400Y-10947400D02*
X10744400Y-10947400D01*
X10693400Y-11150400D02*
X10693400Y-11252400D01*
X10642400Y-11201400D02*
X10744400Y-11201400D01*
X10693400Y-11404400D02*
X10693400Y-11506400D01*
X10642400Y-11455400D02*
X10744400Y-11455400D01*
X10693400Y-11658400D02*
X10693400Y-11760400D01*
X10642400Y-11709400D02*
X10744400Y-11709400D01*
X10693400Y-11912400D02*
X10693400Y-12014400D01*
X10642400Y-11963400D02*
X10744400Y-11963400D01*
X10693400Y-12166400D02*
X10693400Y-12268400D01*
X10642400Y-12217400D02*
X10744400Y-12217400D01*
X10693400Y-12420400D02*
X10693400Y-12522400D01*
X10642400Y-12471400D02*
X10744400Y-12471400D01*
X10693400Y-12674400D02*
X10693400Y-12776400D01*
X10642400Y-12725400D02*
X10744400Y-12725400D01*
X10693400Y-12928400D02*
X10693400Y-13030400D01*
X10642400Y-12979400D02*
X10744400Y-12979400D01*
X10693400Y-13182400D02*
X10693400Y-13284400D01*
X10642400Y-13233400D02*
X10744400Y-13233400D01*
X10693400Y-13436400D02*
X10693400Y-13538400D01*
X10642400Y-13487400D02*
X10744400Y-13487400D01*
X13476000Y-5349000D02*
X13476000Y-5451000D01*
X13425000Y-5400000D02*
X13527000Y-5400000D01*
X13730000Y-5349000D02*
X13730000Y-5451000D01*
X13679000Y-5400000D02*
X13781000Y-5400000D01*
X13984000Y-5349000D02*
X13984000Y-5451000D01*
X13933000Y-5400000D02*
X14035000Y-5400000D01*
X15226000Y-5349000D02*
X15226000Y-5451000D01*
X15175000Y-5400000D02*
X15277000Y-5400000D01*
X15480000Y-5349000D02*
X15480000Y-5451000D01*
X15429000Y-5400000D02*
X15531000Y-5400000D01*
X15734000Y-5349000D02*
X15734000Y-5451000D01*
X15683000Y-5400000D02*
X15785000Y-5400000D01*
X16066000Y-9939000D02*
X16066000Y-10041000D01*
X16015000Y-9990000D02*
X16117000Y-9990000D01*
X16320000Y-9939000D02*
X16320000Y-10041000D01*
X16269000Y-9990000D02*
X16371000Y-9990000D01*
X16574000Y-9939000D02*
X16574000Y-10041000D01*
X16523000Y-9990000D02*
X16625000Y-9990000D01*
X18567400Y-4419400D02*
X18567400Y-4521400D01*
X18516400Y-4470400D02*
X18618400Y-4470400D01*
X18567400Y-4673400D02*
X18567400Y-4775400D01*
X18516400Y-4724400D02*
X18618400Y-4724400D01*
X18567400Y-4927400D02*
X18567400Y-5029400D01*
X18516400Y-4978400D02*
X18618400Y-4978400D01*
X18567400Y-5181400D02*
X18567400Y-5283400D01*
X18516400Y-5232400D02*
X18618400Y-5232400D01*
X18567400Y-5435400D02*
X18567400Y-5537400D01*
X18516400Y-5486400D02*
X18618400Y-5486400D01*
X18567400Y-5689400D02*
X18567400Y-5791400D01*
X18516400Y-5740400D02*
X18618400Y-5740400D01*
X18567400Y-5943400D02*
X18567400Y-6045400D01*
X18516400Y-5994400D02*
X18618400Y-5994400D01*
X18567400Y-6197400D02*
X18567400Y-6299400D01*
X18516400Y-6248400D02*
X18618400Y-6248400D01*
X18567400Y-6451400D02*
X18567400Y-6553400D01*
X18516400Y-6502400D02*
X18618400Y-6502400D01*
X18567400Y-6705400D02*
X18567400Y-6807400D01*
X18516400Y-6756400D02*
X18618400Y-6756400D01*
X18567400Y-6959400D02*
X18567400Y-7061400D01*
X18516400Y-7010400D02*
X18618400Y-7010400D01*
X18567400Y-7213400D02*
X18567400Y-7315400D01*
X18516400Y-7264400D02*
X18618400Y-7264400D01*
X18567400Y-7467400D02*
X18567400Y-7569400D01*
X18516400Y-7518400D02*
X18618400Y-7518400D01*
X18567400Y-7721400D02*
X18567400Y-7823400D01*
X18516400Y-7772400D02*
X18618400Y-7772400D01*
X18567400Y-7975400D02*
X18567400Y-8077400D01*
X18516400Y-8026400D02*
X18618400Y-8026400D01*
X18567400Y-8229400D02*
X18567400Y-8331400D01*
X18516400Y-8280400D02*
X18618400Y-8280400D01*
X18567400Y-8483400D02*
X18567400Y-8585400D01*
X18516400Y-8534400D02*
X18618400Y-8534400D01*
X18567400Y-8737400D02*
X18567400Y-8839400D01*
X18516400Y-8788400D02*
X18618400Y-8788400D01*
X18567400Y-8991400D02*
X18567400Y-9093400D01*
X18516400Y-9042400D02*
X18618400Y-9042400D01*
X18567400Y-9245400D02*
X18567400Y-9347400D01*
X18516400Y-9296400D02*
X18618400Y-9296400D01*
X18567400Y-9499400D02*
X18567400Y-9601400D01*
X18516400Y-9550400D02*
X18618400Y-9550400D01*
X18567400Y-9753400D02*
X18567400Y-9855400D01*
X18516400Y-9804400D02*
X18618400Y-9804400D01*
X18567400Y-10007400D02*
X18567400Y-10109400D01*
X18516400Y-10058400D02*
X18618400Y-10058400D01*
X18567400Y-10261400D02*
X18567400Y-10363400D01*
X18516400Y-10312400D02*
X18618400Y-10312400D01*
X18567400Y-10515400D02*
X18567400Y-10617400D01*
X18516400Y-10566400D02*
X18618400Y-10566400D01*
X18567400Y-10769400D02*
X18567400Y-10871400D01*
X18516400Y-10820400D02*
X18618400Y-10820400D01*
X18567400Y-11023400D02*
X18567400Y-11125400D01*
X18516400Y-11074400D02*
X18618400Y-11074400D01*
X18567400Y-11277400D02*
X18567400Y-11379400D01*
X18516400Y-11328400D02*
X18618400Y-11328400D01*
X18567400Y-11531400D02*
X18567400Y-11633400D01*
X18516400Y-11582400D02*
X18618400Y-11582400D01*
X18567400Y-11785400D02*
X18567400Y-11887400D01*
X18516400Y-11836400D02*
X18618400Y-11836400D01*
X18567400Y-12039400D02*
X18567400Y-12141400D01*
X18516400Y-12090400D02*
X18618400Y-12090400D01*
X18567400Y-12293400D02*
X18567400Y-12395400D01*
X18516400Y-12344400D02*
X18618400Y-12344400D01*
X18567400Y-12547400D02*
X18567400Y-12649400D01*
X18516400Y-12598400D02*
X18618400Y-12598400D01*
X18567400Y-12801400D02*
X18567400Y-12903400D01*
X18516400Y-12852400D02*
X18618400Y-12852400D01*
X18567400Y-13055400D02*
X18567400Y-13157400D01*
X18516400Y-13106400D02*
X18618400Y-13106400D01*
D14*
X11284891Y-4457891D02*
X11284891Y-4380109D01*
X11207109Y-4380109D01*
X11207109Y-4457891D01*
X11284891Y-4457891D01*
X11538891Y-4457891D02*
X11538891Y-4380109D01*
X11461109Y-4380109D01*
X11461109Y-4457891D01*
X11538891Y-4457891D01*
X12011391Y-4457891D02*
X12011391Y-4380109D01*
X11933609Y-4380109D01*
X11933609Y-4457891D01*
X12011391Y-4457891D01*
X12265391Y-4457891D02*
X12265391Y-4380109D01*
X12187609Y-4380109D01*
X12187609Y-4457891D01*
X12265391Y-4457891D01*
X16243401Y-12548891D02*
X16243401Y-12471109D01*
X16165619Y-12471109D01*
X16165619Y-12548891D01*
X16243401Y-12548891D01*
X16243401Y-13564891D02*
X16243401Y-13487109D01*
X16165619Y-13487109D01*
X16165619Y-13564891D01*
X16243401Y-13564891D01*
X17038891Y-4457891D02*
X17038891Y-4380109D01*
X16961109Y-4380109D01*
X16961109Y-4457891D01*
X17038891Y-4457891D01*
X17292891Y-4457891D02*
X17292891Y-4380109D01*
X17215109Y-4380109D01*
X17215109Y-4457891D01*
X17292891Y-4457891D01*
X17693401Y-11290891D02*
X17693401Y-11213109D01*
X17615619Y-11213109D01*
X17615619Y-11290891D01*
X17693401Y-11290891D01*
X17693401Y-12306891D02*
X17693401Y-12229109D01*
X17615619Y-12229109D01*
X17615619Y-12306891D01*
X17693401Y-12306891D01*
X17738891Y-4457891D02*
X17738891Y-4380109D01*
X17661109Y-4380109D01*
X17661109Y-4457891D01*
X17738891Y-4457891D01*
X17992891Y-4457891D02*
X17992891Y-4380109D01*
X17915109Y-4380109D01*
X17915109Y-4457891D01*
X17992891Y-4457891D01*
D11*
X10438677Y-14154384D02*
X10438677Y-13954384D01*
X10438677Y-13954384D02*
X10486296Y-13954384D01*
X10486296Y-13954384D02*
X10514867Y-13963908D01*
X10514867Y-13963908D02*
X10533915Y-13982955D01*
X10533915Y-13982955D02*
X10543439Y-14002003D01*
X10543439Y-14002003D02*
X10552963Y-14040098D01*
X10552963Y-14040098D02*
X10552963Y-14068669D01*
X10552963Y-14068669D02*
X10543439Y-14106765D01*
X10543439Y-14106765D02*
X10533915Y-14125812D01*
X10533915Y-14125812D02*
X10514867Y-14144860D01*
X10514867Y-14144860D02*
X10486296Y-14154384D01*
X10486296Y-14154384D02*
X10438677Y-14154384D01*
X10638677Y-14154384D02*
X10638677Y-14021050D01*
X10638677Y-14059146D02*
X10648201Y-14040098D01*
X10648201Y-14040098D02*
X10657724Y-14030574D01*
X10657724Y-14030574D02*
X10676772Y-14021050D01*
X10676772Y-14021050D02*
X10695820Y-14021050D01*
X10762486Y-14154384D02*
X10762486Y-14021050D01*
X10762486Y-13954384D02*
X10752963Y-13963908D01*
X10752963Y-13963908D02*
X10762486Y-13973431D01*
X10762486Y-13973431D02*
X10772010Y-13963908D01*
X10772010Y-13963908D02*
X10762486Y-13954384D01*
X10762486Y-13954384D02*
X10762486Y-13973431D01*
X10886296Y-14154384D02*
X10867248Y-14144860D01*
X10867248Y-14144860D02*
X10857724Y-14125812D01*
X10857724Y-14125812D02*
X10857724Y-13954384D01*
X10991058Y-14154384D02*
X10972010Y-14144860D01*
X10972010Y-14144860D02*
X10962486Y-14125812D01*
X10962486Y-14125812D02*
X10962486Y-13954384D01*
X11219629Y-14154384D02*
X11219629Y-13954384D01*
X11219629Y-13954384D02*
X11286296Y-14097241D01*
X11286296Y-14097241D02*
X11352962Y-13954384D01*
X11352962Y-13954384D02*
X11352962Y-14154384D01*
X11533915Y-14154384D02*
X11533915Y-14049622D01*
X11533915Y-14049622D02*
X11524391Y-14030574D01*
X11524391Y-14030574D02*
X11505343Y-14021050D01*
X11505343Y-14021050D02*
X11467248Y-14021050D01*
X11467248Y-14021050D02*
X11448201Y-14030574D01*
X11533915Y-14144860D02*
X11514867Y-14154384D01*
X11514867Y-14154384D02*
X11467248Y-14154384D01*
X11467248Y-14154384D02*
X11448201Y-14144860D01*
X11448201Y-14144860D02*
X11438677Y-14125812D01*
X11438677Y-14125812D02*
X11438677Y-14106765D01*
X11438677Y-14106765D02*
X11448201Y-14087717D01*
X11448201Y-14087717D02*
X11467248Y-14078193D01*
X11467248Y-14078193D02*
X11514867Y-14078193D01*
X11514867Y-14078193D02*
X11533915Y-14068669D01*
X11629153Y-14021050D02*
X11629153Y-14221050D01*
X11629153Y-14030574D02*
X11648201Y-14021050D01*
X11648201Y-14021050D02*
X11686296Y-14021050D01*
X11686296Y-14021050D02*
X11705343Y-14030574D01*
X11705343Y-14030574D02*
X11714867Y-14040098D01*
X11714867Y-14040098D02*
X11724391Y-14059146D01*
X11724391Y-14059146D02*
X11724391Y-14116288D01*
X11724391Y-14116288D02*
X11714867Y-14135336D01*
X11714867Y-14135336D02*
X11705343Y-14144860D01*
X11705343Y-14144860D02*
X11686296Y-14154384D01*
X11686296Y-14154384D02*
X11648201Y-14154384D01*
X11648201Y-14154384D02*
X11629153Y-14144860D01*
X11810105Y-14135336D02*
X11819629Y-14144860D01*
X11819629Y-14144860D02*
X11810105Y-14154384D01*
X11810105Y-14154384D02*
X11800582Y-14144860D01*
X11800582Y-14144860D02*
X11810105Y-14135336D01*
X11810105Y-14135336D02*
X11810105Y-14154384D01*
X11810105Y-14030574D02*
X11819629Y-14040098D01*
X11819629Y-14040098D02*
X11810105Y-14049622D01*
X11810105Y-14049622D02*
X11800582Y-14040098D01*
X11800582Y-14040098D02*
X11810105Y-14030574D01*
X11810105Y-14030574D02*
X11810105Y-14049622D01*
D12*
X10097900Y-14442900D02*
X10177900Y-14522900D01*
X10177900Y-14442900D02*
X10097900Y-14522900D01*
D11*
X10476772Y-14374384D02*
X10495820Y-14374384D01*
X10495820Y-14374384D02*
X10514867Y-14383908D01*
X10514867Y-14383908D02*
X10524391Y-14393431D01*
X10524391Y-14393431D02*
X10533915Y-14412479D01*
X10533915Y-14412479D02*
X10543439Y-14450574D01*
X10543439Y-14450574D02*
X10543439Y-14498193D01*
X10543439Y-14498193D02*
X10533915Y-14536288D01*
X10533915Y-14536288D02*
X10524391Y-14555336D01*
X10524391Y-14555336D02*
X10514867Y-14564860D01*
X10514867Y-14564860D02*
X10495820Y-14574384D01*
X10495820Y-14574384D02*
X10476772Y-14574384D01*
X10476772Y-14574384D02*
X10457724Y-14564860D01*
X10457724Y-14564860D02*
X10448201Y-14555336D01*
X10448201Y-14555336D02*
X10438677Y-14536288D01*
X10438677Y-14536288D02*
X10429153Y-14498193D01*
X10429153Y-14498193D02*
X10429153Y-14450574D01*
X10429153Y-14450574D02*
X10438677Y-14412479D01*
X10438677Y-14412479D02*
X10448201Y-14393431D01*
X10448201Y-14393431D02*
X10457724Y-14383908D01*
X10457724Y-14383908D02*
X10476772Y-14374384D01*
X10629153Y-14555336D02*
X10638677Y-14564860D01*
X10638677Y-14564860D02*
X10629153Y-14574384D01*
X10629153Y-14574384D02*
X10619629Y-14564860D01*
X10619629Y-14564860D02*
X10629153Y-14555336D01*
X10629153Y-14555336D02*
X10629153Y-14574384D01*
X10752963Y-14460098D02*
X10733915Y-14450574D01*
X10733915Y-14450574D02*
X10724391Y-14441050D01*
X10724391Y-14441050D02*
X10714867Y-14422003D01*
X10714867Y-14422003D02*
X10714867Y-14412479D01*
X10714867Y-14412479D02*
X10724391Y-14393431D01*
X10724391Y-14393431D02*
X10733915Y-14383908D01*
X10733915Y-14383908D02*
X10752963Y-14374384D01*
X10752963Y-14374384D02*
X10791058Y-14374384D01*
X10791058Y-14374384D02*
X10810105Y-14383908D01*
X10810105Y-14383908D02*
X10819629Y-14393431D01*
X10819629Y-14393431D02*
X10829153Y-14412479D01*
X10829153Y-14412479D02*
X10829153Y-14422003D01*
X10829153Y-14422003D02*
X10819629Y-14441050D01*
X10819629Y-14441050D02*
X10810105Y-14450574D01*
X10810105Y-14450574D02*
X10791058Y-14460098D01*
X10791058Y-14460098D02*
X10752963Y-14460098D01*
X10752963Y-14460098D02*
X10733915Y-14469622D01*
X10733915Y-14469622D02*
X10724391Y-14479146D01*
X10724391Y-14479146D02*
X10714867Y-14498193D01*
X10714867Y-14498193D02*
X10714867Y-14536288D01*
X10714867Y-14536288D02*
X10724391Y-14555336D01*
X10724391Y-14555336D02*
X10733915Y-14564860D01*
X10733915Y-14564860D02*
X10752963Y-14574384D01*
X10752963Y-14574384D02*
X10791058Y-14574384D01*
X10791058Y-14574384D02*
X10810105Y-14564860D01*
X10810105Y-14564860D02*
X10819629Y-14555336D01*
X10819629Y-14555336D02*
X10829153Y-14536288D01*
X10829153Y-14536288D02*
X10829153Y-14498193D01*
X10829153Y-14498193D02*
X10819629Y-14479146D01*
X10819629Y-14479146D02*
X10810105Y-14469622D01*
X10810105Y-14469622D02*
X10791058Y-14460098D01*
X10952963Y-14374384D02*
X10972010Y-14374384D01*
X10972010Y-14374384D02*
X10991058Y-14383908D01*
X10991058Y-14383908D02*
X11000582Y-14393431D01*
X11000582Y-14393431D02*
X11010105Y-14412479D01*
X11010105Y-14412479D02*
X11019629Y-14450574D01*
X11019629Y-14450574D02*
X11019629Y-14498193D01*
X11019629Y-14498193D02*
X11010105Y-14536288D01*
X11010105Y-14536288D02*
X11000582Y-14555336D01*
X11000582Y-14555336D02*
X10991058Y-14564860D01*
X10991058Y-14564860D02*
X10972010Y-14574384D01*
X10972010Y-14574384D02*
X10952963Y-14574384D01*
X10952963Y-14574384D02*
X10933915Y-14564860D01*
X10933915Y-14564860D02*
X10924391Y-14555336D01*
X10924391Y-14555336D02*
X10914867Y-14536288D01*
X10914867Y-14536288D02*
X10905344Y-14498193D01*
X10905344Y-14498193D02*
X10905344Y-14450574D01*
X10905344Y-14450574D02*
X10914867Y-14412479D01*
X10914867Y-14412479D02*
X10924391Y-14393431D01*
X10924391Y-14393431D02*
X10933915Y-14383908D01*
X10933915Y-14383908D02*
X10952963Y-14374384D01*
X11143439Y-14374384D02*
X11162486Y-14374384D01*
X11162486Y-14374384D02*
X11181534Y-14383908D01*
X11181534Y-14383908D02*
X11191058Y-14393431D01*
X11191058Y-14393431D02*
X11200582Y-14412479D01*
X11200582Y-14412479D02*
X11210105Y-14450574D01*
X11210105Y-14450574D02*
X11210105Y-14498193D01*
X11210105Y-14498193D02*
X11200582Y-14536288D01*
X11200582Y-14536288D02*
X11191058Y-14555336D01*
X11191058Y-14555336D02*
X11181534Y-14564860D01*
X11181534Y-14564860D02*
X11162486Y-14574384D01*
X11162486Y-14574384D02*
X11143439Y-14574384D01*
X11143439Y-14574384D02*
X11124391Y-14564860D01*
X11124391Y-14564860D02*
X11114867Y-14555336D01*
X11114867Y-14555336D02*
X11105344Y-14536288D01*
X11105344Y-14536288D02*
X11095820Y-14498193D01*
X11095820Y-14498193D02*
X11095820Y-14450574D01*
X11095820Y-14450574D02*
X11105344Y-14412479D01*
X11105344Y-14412479D02*
X11114867Y-14393431D01*
X11114867Y-14393431D02*
X11124391Y-14383908D01*
X11124391Y-14383908D02*
X11143439Y-14374384D01*
X11295820Y-14574384D02*
X11295820Y-14441050D01*
X11295820Y-14460098D02*
X11305343Y-14450574D01*
X11305343Y-14450574D02*
X11324391Y-14441050D01*
X11324391Y-14441050D02*
X11352963Y-14441050D01*
X11352963Y-14441050D02*
X11372010Y-14450574D01*
X11372010Y-14450574D02*
X11381534Y-14469622D01*
X11381534Y-14469622D02*
X11381534Y-14574384D01*
X11381534Y-14469622D02*
X11391058Y-14450574D01*
X11391058Y-14450574D02*
X11410105Y-14441050D01*
X11410105Y-14441050D02*
X11438677Y-14441050D01*
X11438677Y-14441050D02*
X11457724Y-14450574D01*
X11457724Y-14450574D02*
X11467248Y-14469622D01*
X11467248Y-14469622D02*
X11467248Y-14574384D01*
X11562486Y-14574384D02*
X11562486Y-14441050D01*
X11562486Y-14460098D02*
X11572010Y-14450574D01*
X11572010Y-14450574D02*
X11591058Y-14441050D01*
X11591058Y-14441050D02*
X11619629Y-14441050D01*
X11619629Y-14441050D02*
X11638677Y-14450574D01*
X11638677Y-14450574D02*
X11648201Y-14469622D01*
X11648201Y-14469622D02*
X11648201Y-14574384D01*
X11648201Y-14469622D02*
X11657724Y-14450574D01*
X11657724Y-14450574D02*
X11676772Y-14441050D01*
X11676772Y-14441050D02*
X11705343Y-14441050D01*
X11705343Y-14441050D02*
X11724391Y-14450574D01*
X11724391Y-14450574D02*
X11733915Y-14469622D01*
X11733915Y-14469622D02*
X11733915Y-14574384D01*
X12124391Y-14364860D02*
X11952963Y-14622003D01*
X12381534Y-14374384D02*
X12400582Y-14374384D01*
X12400582Y-14374384D02*
X12419629Y-14383908D01*
X12419629Y-14383908D02*
X12429153Y-14393431D01*
X12429153Y-14393431D02*
X12438677Y-14412479D01*
X12438677Y-14412479D02*
X12448201Y-14450574D01*
X12448201Y-14450574D02*
X12448201Y-14498193D01*
X12448201Y-14498193D02*
X12438677Y-14536288D01*
X12438677Y-14536288D02*
X12429153Y-14555336D01*
X12429153Y-14555336D02*
X12419629Y-14564860D01*
X12419629Y-14564860D02*
X12400582Y-14574384D01*
X12400582Y-14574384D02*
X12381534Y-14574384D01*
X12381534Y-14574384D02*
X12362486Y-14564860D01*
X12362486Y-14564860D02*
X12352963Y-14555336D01*
X12352963Y-14555336D02*
X12343439Y-14536288D01*
X12343439Y-14536288D02*
X12333915Y-14498193D01*
X12333915Y-14498193D02*
X12333915Y-14450574D01*
X12333915Y-14450574D02*
X12343439Y-14412479D01*
X12343439Y-14412479D02*
X12352963Y-14393431D01*
X12352963Y-14393431D02*
X12362486Y-14383908D01*
X12362486Y-14383908D02*
X12381534Y-14374384D01*
X12533915Y-14555336D02*
X12543439Y-14564860D01*
X12543439Y-14564860D02*
X12533915Y-14574384D01*
X12533915Y-14574384D02*
X12524391Y-14564860D01*
X12524391Y-14564860D02*
X12533915Y-14555336D01*
X12533915Y-14555336D02*
X12533915Y-14574384D01*
X12667248Y-14374384D02*
X12686296Y-14374384D01*
X12686296Y-14374384D02*
X12705344Y-14383908D01*
X12705344Y-14383908D02*
X12714867Y-14393431D01*
X12714867Y-14393431D02*
X12724391Y-14412479D01*
X12724391Y-14412479D02*
X12733915Y-14450574D01*
X12733915Y-14450574D02*
X12733915Y-14498193D01*
X12733915Y-14498193D02*
X12724391Y-14536288D01*
X12724391Y-14536288D02*
X12714867Y-14555336D01*
X12714867Y-14555336D02*
X12705344Y-14564860D01*
X12705344Y-14564860D02*
X12686296Y-14574384D01*
X12686296Y-14574384D02*
X12667248Y-14574384D01*
X12667248Y-14574384D02*
X12648201Y-14564860D01*
X12648201Y-14564860D02*
X12638677Y-14555336D01*
X12638677Y-14555336D02*
X12629153Y-14536288D01*
X12629153Y-14536288D02*
X12619629Y-14498193D01*
X12619629Y-14498193D02*
X12619629Y-14450574D01*
X12619629Y-14450574D02*
X12629153Y-14412479D01*
X12629153Y-14412479D02*
X12638677Y-14393431D01*
X12638677Y-14393431D02*
X12648201Y-14383908D01*
X12648201Y-14383908D02*
X12667248Y-14374384D01*
X12800582Y-14374384D02*
X12924391Y-14374384D01*
X12924391Y-14374384D02*
X12857725Y-14450574D01*
X12857725Y-14450574D02*
X12886296Y-14450574D01*
X12886296Y-14450574D02*
X12905344Y-14460098D01*
X12905344Y-14460098D02*
X12914867Y-14469622D01*
X12914867Y-14469622D02*
X12924391Y-14488669D01*
X12924391Y-14488669D02*
X12924391Y-14536288D01*
X12924391Y-14536288D02*
X12914867Y-14555336D01*
X12914867Y-14555336D02*
X12905344Y-14564860D01*
X12905344Y-14564860D02*
X12886296Y-14574384D01*
X12886296Y-14574384D02*
X12829153Y-14574384D01*
X12829153Y-14574384D02*
X12810106Y-14564860D01*
X12810106Y-14564860D02*
X12800582Y-14555336D01*
X13114867Y-14574384D02*
X13000582Y-14574384D01*
X13057725Y-14574384D02*
X13057725Y-14374384D01*
X13057725Y-14374384D02*
X13038677Y-14402955D01*
X13038677Y-14402955D02*
X13019629Y-14422003D01*
X13019629Y-14422003D02*
X13000582Y-14431527D01*
X13295820Y-14374384D02*
X13200582Y-14374384D01*
X13200582Y-14374384D02*
X13191058Y-14469622D01*
X13191058Y-14469622D02*
X13200582Y-14460098D01*
X13200582Y-14460098D02*
X13219629Y-14450574D01*
X13219629Y-14450574D02*
X13267248Y-14450574D01*
X13267248Y-14450574D02*
X13286296Y-14460098D01*
X13286296Y-14460098D02*
X13295820Y-14469622D01*
X13295820Y-14469622D02*
X13305344Y-14488669D01*
X13305344Y-14488669D02*
X13305344Y-14536288D01*
X13305344Y-14536288D02*
X13295820Y-14555336D01*
X13295820Y-14555336D02*
X13286296Y-14564860D01*
X13286296Y-14564860D02*
X13267248Y-14574384D01*
X13267248Y-14574384D02*
X13219629Y-14574384D01*
X13219629Y-14574384D02*
X13200582Y-14564860D01*
X13200582Y-14564860D02*
X13191058Y-14555336D01*
X13381534Y-14374384D02*
X13381534Y-14412479D01*
X13457725Y-14374384D02*
X13457725Y-14412479D01*
X13752963Y-14650574D02*
X13743439Y-14641050D01*
X13743439Y-14641050D02*
X13724391Y-14612479D01*
X13724391Y-14612479D02*
X13714868Y-14593431D01*
X13714868Y-14593431D02*
X13705344Y-14564860D01*
X13705344Y-14564860D02*
X13695820Y-14517241D01*
X13695820Y-14517241D02*
X13695820Y-14479146D01*
X13695820Y-14479146D02*
X13705344Y-14431527D01*
X13705344Y-14431527D02*
X13714868Y-14402955D01*
X13714868Y-14402955D02*
X13724391Y-14383908D01*
X13724391Y-14383908D02*
X13743439Y-14355336D01*
X13743439Y-14355336D02*
X13752963Y-14345812D01*
X13914868Y-14374384D02*
X13876772Y-14374384D01*
X13876772Y-14374384D02*
X13857725Y-14383908D01*
X13857725Y-14383908D02*
X13848201Y-14393431D01*
X13848201Y-14393431D02*
X13829153Y-14422003D01*
X13829153Y-14422003D02*
X13819629Y-14460098D01*
X13819629Y-14460098D02*
X13819629Y-14536288D01*
X13819629Y-14536288D02*
X13829153Y-14555336D01*
X13829153Y-14555336D02*
X13838677Y-14564860D01*
X13838677Y-14564860D02*
X13857725Y-14574384D01*
X13857725Y-14574384D02*
X13895820Y-14574384D01*
X13895820Y-14574384D02*
X13914868Y-14564860D01*
X13914868Y-14564860D02*
X13924391Y-14555336D01*
X13924391Y-14555336D02*
X13933915Y-14536288D01*
X13933915Y-14536288D02*
X13933915Y-14488669D01*
X13933915Y-14488669D02*
X13924391Y-14469622D01*
X13924391Y-14469622D02*
X13914868Y-14460098D01*
X13914868Y-14460098D02*
X13895820Y-14450574D01*
X13895820Y-14450574D02*
X13857725Y-14450574D01*
X13857725Y-14450574D02*
X13838677Y-14460098D01*
X13838677Y-14460098D02*
X13829153Y-14469622D01*
X13829153Y-14469622D02*
X13819629Y-14488669D01*
X14172010Y-14574384D02*
X14172010Y-14374384D01*
X14257725Y-14574384D02*
X14257725Y-14469622D01*
X14257725Y-14469622D02*
X14248201Y-14450574D01*
X14248201Y-14450574D02*
X14229153Y-14441050D01*
X14229153Y-14441050D02*
X14200582Y-14441050D01*
X14200582Y-14441050D02*
X14181534Y-14450574D01*
X14181534Y-14450574D02*
X14172010Y-14460098D01*
X14381534Y-14574384D02*
X14362487Y-14564860D01*
X14362487Y-14564860D02*
X14352963Y-14555336D01*
X14352963Y-14555336D02*
X14343439Y-14536288D01*
X14343439Y-14536288D02*
X14343439Y-14479146D01*
X14343439Y-14479146D02*
X14352963Y-14460098D01*
X14352963Y-14460098D02*
X14362487Y-14450574D01*
X14362487Y-14450574D02*
X14381534Y-14441050D01*
X14381534Y-14441050D02*
X14410106Y-14441050D01*
X14410106Y-14441050D02*
X14429153Y-14450574D01*
X14429153Y-14450574D02*
X14438677Y-14460098D01*
X14438677Y-14460098D02*
X14448201Y-14479146D01*
X14448201Y-14479146D02*
X14448201Y-14536288D01*
X14448201Y-14536288D02*
X14438677Y-14555336D01*
X14438677Y-14555336D02*
X14429153Y-14564860D01*
X14429153Y-14564860D02*
X14410106Y-14574384D01*
X14410106Y-14574384D02*
X14381534Y-14574384D01*
X14562487Y-14574384D02*
X14543439Y-14564860D01*
X14543439Y-14564860D02*
X14533915Y-14545812D01*
X14533915Y-14545812D02*
X14533915Y-14374384D01*
X14714868Y-14564860D02*
X14695820Y-14574384D01*
X14695820Y-14574384D02*
X14657725Y-14574384D01*
X14657725Y-14574384D02*
X14638677Y-14564860D01*
X14638677Y-14564860D02*
X14629153Y-14545812D01*
X14629153Y-14545812D02*
X14629153Y-14469622D01*
X14629153Y-14469622D02*
X14638677Y-14450574D01*
X14638677Y-14450574D02*
X14657725Y-14441050D01*
X14657725Y-14441050D02*
X14695820Y-14441050D01*
X14695820Y-14441050D02*
X14714868Y-14450574D01*
X14714868Y-14450574D02*
X14724391Y-14469622D01*
X14724391Y-14469622D02*
X14724391Y-14488669D01*
X14724391Y-14488669D02*
X14629153Y-14507717D01*
X14800582Y-14564860D02*
X14819630Y-14574384D01*
X14819630Y-14574384D02*
X14857725Y-14574384D01*
X14857725Y-14574384D02*
X14876772Y-14564860D01*
X14876772Y-14564860D02*
X14886296Y-14545812D01*
X14886296Y-14545812D02*
X14886296Y-14536288D01*
X14886296Y-14536288D02*
X14876772Y-14517241D01*
X14876772Y-14517241D02*
X14857725Y-14507717D01*
X14857725Y-14507717D02*
X14829153Y-14507717D01*
X14829153Y-14507717D02*
X14810106Y-14498193D01*
X14810106Y-14498193D02*
X14800582Y-14479146D01*
X14800582Y-14479146D02*
X14800582Y-14469622D01*
X14800582Y-14469622D02*
X14810106Y-14450574D01*
X14810106Y-14450574D02*
X14829153Y-14441050D01*
X14829153Y-14441050D02*
X14857725Y-14441050D01*
X14857725Y-14441050D02*
X14876772Y-14450574D01*
X14952963Y-14650574D02*
X14962487Y-14641050D01*
X14962487Y-14641050D02*
X14981534Y-14612479D01*
X14981534Y-14612479D02*
X14991058Y-14593431D01*
X14991058Y-14593431D02*
X15000582Y-14564860D01*
X15000582Y-14564860D02*
X15010106Y-14517241D01*
X15010106Y-14517241D02*
X15010106Y-14479146D01*
X15010106Y-14479146D02*
X15000582Y-14431527D01*
X15000582Y-14431527D02*
X14991058Y-14402955D01*
X14991058Y-14402955D02*
X14981534Y-14383908D01*
X14981534Y-14383908D02*
X14962487Y-14355336D01*
X14962487Y-14355336D02*
X14952963Y-14345812D01*
D12*
X10177900Y-14746900D02*
G75*
G03*
X10097900Y-14746900I-40000J0D01*
G01*
X10097900Y-14746900D02*
G75*
G03*
X10177900Y-14746900I40000J0D01*
G01*
D11*
X10476772Y-14638384D02*
X10495820Y-14638384D01*
X10495820Y-14638384D02*
X10514867Y-14647908D01*
X10514867Y-14647908D02*
X10524391Y-14657431D01*
X10524391Y-14657431D02*
X10533915Y-14676479D01*
X10533915Y-14676479D02*
X10543439Y-14714574D01*
X10543439Y-14714574D02*
X10543439Y-14762193D01*
X10543439Y-14762193D02*
X10533915Y-14800288D01*
X10533915Y-14800288D02*
X10524391Y-14819336D01*
X10524391Y-14819336D02*
X10514867Y-14828860D01*
X10514867Y-14828860D02*
X10495820Y-14838384D01*
X10495820Y-14838384D02*
X10476772Y-14838384D01*
X10476772Y-14838384D02*
X10457724Y-14828860D01*
X10457724Y-14828860D02*
X10448201Y-14819336D01*
X10448201Y-14819336D02*
X10438677Y-14800288D01*
X10438677Y-14800288D02*
X10429153Y-14762193D01*
X10429153Y-14762193D02*
X10429153Y-14714574D01*
X10429153Y-14714574D02*
X10438677Y-14676479D01*
X10438677Y-14676479D02*
X10448201Y-14657431D01*
X10448201Y-14657431D02*
X10457724Y-14647908D01*
X10457724Y-14647908D02*
X10476772Y-14638384D01*
X10629153Y-14819336D02*
X10638677Y-14828860D01*
X10638677Y-14828860D02*
X10629153Y-14838384D01*
X10629153Y-14838384D02*
X10619629Y-14828860D01*
X10619629Y-14828860D02*
X10629153Y-14819336D01*
X10629153Y-14819336D02*
X10629153Y-14838384D01*
X10752963Y-14724098D02*
X10733915Y-14714574D01*
X10733915Y-14714574D02*
X10724391Y-14705050D01*
X10724391Y-14705050D02*
X10714867Y-14686003D01*
X10714867Y-14686003D02*
X10714867Y-14676479D01*
X10714867Y-14676479D02*
X10724391Y-14657431D01*
X10724391Y-14657431D02*
X10733915Y-14647908D01*
X10733915Y-14647908D02*
X10752963Y-14638384D01*
X10752963Y-14638384D02*
X10791058Y-14638384D01*
X10791058Y-14638384D02*
X10810105Y-14647908D01*
X10810105Y-14647908D02*
X10819629Y-14657431D01*
X10819629Y-14657431D02*
X10829153Y-14676479D01*
X10829153Y-14676479D02*
X10829153Y-14686003D01*
X10829153Y-14686003D02*
X10819629Y-14705050D01*
X10819629Y-14705050D02*
X10810105Y-14714574D01*
X10810105Y-14714574D02*
X10791058Y-14724098D01*
X10791058Y-14724098D02*
X10752963Y-14724098D01*
X10752963Y-14724098D02*
X10733915Y-14733622D01*
X10733915Y-14733622D02*
X10724391Y-14743146D01*
X10724391Y-14743146D02*
X10714867Y-14762193D01*
X10714867Y-14762193D02*
X10714867Y-14800288D01*
X10714867Y-14800288D02*
X10724391Y-14819336D01*
X10724391Y-14819336D02*
X10733915Y-14828860D01*
X10733915Y-14828860D02*
X10752963Y-14838384D01*
X10752963Y-14838384D02*
X10791058Y-14838384D01*
X10791058Y-14838384D02*
X10810105Y-14828860D01*
X10810105Y-14828860D02*
X10819629Y-14819336D01*
X10819629Y-14819336D02*
X10829153Y-14800288D01*
X10829153Y-14800288D02*
X10829153Y-14762193D01*
X10829153Y-14762193D02*
X10819629Y-14743146D01*
X10819629Y-14743146D02*
X10810105Y-14733622D01*
X10810105Y-14733622D02*
X10791058Y-14724098D01*
X10952963Y-14638384D02*
X10972010Y-14638384D01*
X10972010Y-14638384D02*
X10991058Y-14647908D01*
X10991058Y-14647908D02*
X11000582Y-14657431D01*
X11000582Y-14657431D02*
X11010105Y-14676479D01*
X11010105Y-14676479D02*
X11019629Y-14714574D01*
X11019629Y-14714574D02*
X11019629Y-14762193D01*
X11019629Y-14762193D02*
X11010105Y-14800288D01*
X11010105Y-14800288D02*
X11000582Y-14819336D01*
X11000582Y-14819336D02*
X10991058Y-14828860D01*
X10991058Y-14828860D02*
X10972010Y-14838384D01*
X10972010Y-14838384D02*
X10952963Y-14838384D01*
X10952963Y-14838384D02*
X10933915Y-14828860D01*
X10933915Y-14828860D02*
X10924391Y-14819336D01*
X10924391Y-14819336D02*
X10914867Y-14800288D01*
X10914867Y-14800288D02*
X10905344Y-14762193D01*
X10905344Y-14762193D02*
X10905344Y-14714574D01*
X10905344Y-14714574D02*
X10914867Y-14676479D01*
X10914867Y-14676479D02*
X10924391Y-14657431D01*
X10924391Y-14657431D02*
X10933915Y-14647908D01*
X10933915Y-14647908D02*
X10952963Y-14638384D01*
X11143439Y-14638384D02*
X11162486Y-14638384D01*
X11162486Y-14638384D02*
X11181534Y-14647908D01*
X11181534Y-14647908D02*
X11191058Y-14657431D01*
X11191058Y-14657431D02*
X11200582Y-14676479D01*
X11200582Y-14676479D02*
X11210105Y-14714574D01*
X11210105Y-14714574D02*
X11210105Y-14762193D01*
X11210105Y-14762193D02*
X11200582Y-14800288D01*
X11200582Y-14800288D02*
X11191058Y-14819336D01*
X11191058Y-14819336D02*
X11181534Y-14828860D01*
X11181534Y-14828860D02*
X11162486Y-14838384D01*
X11162486Y-14838384D02*
X11143439Y-14838384D01*
X11143439Y-14838384D02*
X11124391Y-14828860D01*
X11124391Y-14828860D02*
X11114867Y-14819336D01*
X11114867Y-14819336D02*
X11105344Y-14800288D01*
X11105344Y-14800288D02*
X11095820Y-14762193D01*
X11095820Y-14762193D02*
X11095820Y-14714574D01*
X11095820Y-14714574D02*
X11105344Y-14676479D01*
X11105344Y-14676479D02*
X11114867Y-14657431D01*
X11114867Y-14657431D02*
X11124391Y-14647908D01*
X11124391Y-14647908D02*
X11143439Y-14638384D01*
X11295820Y-14838384D02*
X11295820Y-14705050D01*
X11295820Y-14724098D02*
X11305343Y-14714574D01*
X11305343Y-14714574D02*
X11324391Y-14705050D01*
X11324391Y-14705050D02*
X11352963Y-14705050D01*
X11352963Y-14705050D02*
X11372010Y-14714574D01*
X11372010Y-14714574D02*
X11381534Y-14733622D01*
X11381534Y-14733622D02*
X11381534Y-14838384D01*
X11381534Y-14733622D02*
X11391058Y-14714574D01*
X11391058Y-14714574D02*
X11410105Y-14705050D01*
X11410105Y-14705050D02*
X11438677Y-14705050D01*
X11438677Y-14705050D02*
X11457724Y-14714574D01*
X11457724Y-14714574D02*
X11467248Y-14733622D01*
X11467248Y-14733622D02*
X11467248Y-14838384D01*
X11562486Y-14838384D02*
X11562486Y-14705050D01*
X11562486Y-14724098D02*
X11572010Y-14714574D01*
X11572010Y-14714574D02*
X11591058Y-14705050D01*
X11591058Y-14705050D02*
X11619629Y-14705050D01*
X11619629Y-14705050D02*
X11638677Y-14714574D01*
X11638677Y-14714574D02*
X11648201Y-14733622D01*
X11648201Y-14733622D02*
X11648201Y-14838384D01*
X11648201Y-14733622D02*
X11657724Y-14714574D01*
X11657724Y-14714574D02*
X11676772Y-14705050D01*
X11676772Y-14705050D02*
X11705343Y-14705050D01*
X11705343Y-14705050D02*
X11724391Y-14714574D01*
X11724391Y-14714574D02*
X11733915Y-14733622D01*
X11733915Y-14733622D02*
X11733915Y-14838384D01*
X12124391Y-14628860D02*
X11952963Y-14886003D01*
X12381534Y-14638384D02*
X12400582Y-14638384D01*
X12400582Y-14638384D02*
X12419629Y-14647908D01*
X12419629Y-14647908D02*
X12429153Y-14657431D01*
X12429153Y-14657431D02*
X12438677Y-14676479D01*
X12438677Y-14676479D02*
X12448201Y-14714574D01*
X12448201Y-14714574D02*
X12448201Y-14762193D01*
X12448201Y-14762193D02*
X12438677Y-14800288D01*
X12438677Y-14800288D02*
X12429153Y-14819336D01*
X12429153Y-14819336D02*
X12419629Y-14828860D01*
X12419629Y-14828860D02*
X12400582Y-14838384D01*
X12400582Y-14838384D02*
X12381534Y-14838384D01*
X12381534Y-14838384D02*
X12362486Y-14828860D01*
X12362486Y-14828860D02*
X12352963Y-14819336D01*
X12352963Y-14819336D02*
X12343439Y-14800288D01*
X12343439Y-14800288D02*
X12333915Y-14762193D01*
X12333915Y-14762193D02*
X12333915Y-14714574D01*
X12333915Y-14714574D02*
X12343439Y-14676479D01*
X12343439Y-14676479D02*
X12352963Y-14657431D01*
X12352963Y-14657431D02*
X12362486Y-14647908D01*
X12362486Y-14647908D02*
X12381534Y-14638384D01*
X12533915Y-14819336D02*
X12543439Y-14828860D01*
X12543439Y-14828860D02*
X12533915Y-14838384D01*
X12533915Y-14838384D02*
X12524391Y-14828860D01*
X12524391Y-14828860D02*
X12533915Y-14819336D01*
X12533915Y-14819336D02*
X12533915Y-14838384D01*
X12667248Y-14638384D02*
X12686296Y-14638384D01*
X12686296Y-14638384D02*
X12705344Y-14647908D01*
X12705344Y-14647908D02*
X12714867Y-14657431D01*
X12714867Y-14657431D02*
X12724391Y-14676479D01*
X12724391Y-14676479D02*
X12733915Y-14714574D01*
X12733915Y-14714574D02*
X12733915Y-14762193D01*
X12733915Y-14762193D02*
X12724391Y-14800288D01*
X12724391Y-14800288D02*
X12714867Y-14819336D01*
X12714867Y-14819336D02*
X12705344Y-14828860D01*
X12705344Y-14828860D02*
X12686296Y-14838384D01*
X12686296Y-14838384D02*
X12667248Y-14838384D01*
X12667248Y-14838384D02*
X12648201Y-14828860D01*
X12648201Y-14828860D02*
X12638677Y-14819336D01*
X12638677Y-14819336D02*
X12629153Y-14800288D01*
X12629153Y-14800288D02*
X12619629Y-14762193D01*
X12619629Y-14762193D02*
X12619629Y-14714574D01*
X12619629Y-14714574D02*
X12629153Y-14676479D01*
X12629153Y-14676479D02*
X12638677Y-14657431D01*
X12638677Y-14657431D02*
X12648201Y-14647908D01*
X12648201Y-14647908D02*
X12667248Y-14638384D01*
X12800582Y-14638384D02*
X12924391Y-14638384D01*
X12924391Y-14638384D02*
X12857725Y-14714574D01*
X12857725Y-14714574D02*
X12886296Y-14714574D01*
X12886296Y-14714574D02*
X12905344Y-14724098D01*
X12905344Y-14724098D02*
X12914867Y-14733622D01*
X12914867Y-14733622D02*
X12924391Y-14752669D01*
X12924391Y-14752669D02*
X12924391Y-14800288D01*
X12924391Y-14800288D02*
X12914867Y-14819336D01*
X12914867Y-14819336D02*
X12905344Y-14828860D01*
X12905344Y-14828860D02*
X12886296Y-14838384D01*
X12886296Y-14838384D02*
X12829153Y-14838384D01*
X12829153Y-14838384D02*
X12810106Y-14828860D01*
X12810106Y-14828860D02*
X12800582Y-14819336D01*
X13114867Y-14838384D02*
X13000582Y-14838384D01*
X13057725Y-14838384D02*
X13057725Y-14638384D01*
X13057725Y-14638384D02*
X13038677Y-14666955D01*
X13038677Y-14666955D02*
X13019629Y-14686003D01*
X13019629Y-14686003D02*
X13000582Y-14695527D01*
X13295820Y-14638384D02*
X13200582Y-14638384D01*
X13200582Y-14638384D02*
X13191058Y-14733622D01*
X13191058Y-14733622D02*
X13200582Y-14724098D01*
X13200582Y-14724098D02*
X13219629Y-14714574D01*
X13219629Y-14714574D02*
X13267248Y-14714574D01*
X13267248Y-14714574D02*
X13286296Y-14724098D01*
X13286296Y-14724098D02*
X13295820Y-14733622D01*
X13295820Y-14733622D02*
X13305344Y-14752669D01*
X13305344Y-14752669D02*
X13305344Y-14800288D01*
X13305344Y-14800288D02*
X13295820Y-14819336D01*
X13295820Y-14819336D02*
X13286296Y-14828860D01*
X13286296Y-14828860D02*
X13267248Y-14838384D01*
X13267248Y-14838384D02*
X13219629Y-14838384D01*
X13219629Y-14838384D02*
X13200582Y-14828860D01*
X13200582Y-14828860D02*
X13191058Y-14819336D01*
X13381534Y-14638384D02*
X13381534Y-14676479D01*
X13457725Y-14638384D02*
X13457725Y-14676479D01*
X13752963Y-14914574D02*
X13743439Y-14905050D01*
X13743439Y-14905050D02*
X13724391Y-14876479D01*
X13724391Y-14876479D02*
X13714868Y-14857431D01*
X13714868Y-14857431D02*
X13705344Y-14828860D01*
X13705344Y-14828860D02*
X13695820Y-14781241D01*
X13695820Y-14781241D02*
X13695820Y-14743146D01*
X13695820Y-14743146D02*
X13705344Y-14695527D01*
X13705344Y-14695527D02*
X13714868Y-14666955D01*
X13714868Y-14666955D02*
X13724391Y-14647908D01*
X13724391Y-14647908D02*
X13743439Y-14619336D01*
X13743439Y-14619336D02*
X13752963Y-14609812D01*
X13933915Y-14838384D02*
X13819629Y-14838384D01*
X13876772Y-14838384D02*
X13876772Y-14638384D01*
X13876772Y-14638384D02*
X13857725Y-14666955D01*
X13857725Y-14666955D02*
X13838677Y-14686003D01*
X13838677Y-14686003D02*
X13819629Y-14695527D01*
X14124391Y-14838384D02*
X14010106Y-14838384D01*
X14067248Y-14838384D02*
X14067248Y-14638384D01*
X14067248Y-14638384D02*
X14048201Y-14666955D01*
X14048201Y-14666955D02*
X14029153Y-14686003D01*
X14029153Y-14686003D02*
X14010106Y-14695527D01*
X14200582Y-14657431D02*
X14210106Y-14647908D01*
X14210106Y-14647908D02*
X14229153Y-14638384D01*
X14229153Y-14638384D02*
X14276772Y-14638384D01*
X14276772Y-14638384D02*
X14295820Y-14647908D01*
X14295820Y-14647908D02*
X14305344Y-14657431D01*
X14305344Y-14657431D02*
X14314868Y-14676479D01*
X14314868Y-14676479D02*
X14314868Y-14695527D01*
X14314868Y-14695527D02*
X14305344Y-14724098D01*
X14305344Y-14724098D02*
X14191058Y-14838384D01*
X14191058Y-14838384D02*
X14314868Y-14838384D01*
X14552963Y-14838384D02*
X14552963Y-14638384D01*
X14638677Y-14838384D02*
X14638677Y-14733622D01*
X14638677Y-14733622D02*
X14629153Y-14714574D01*
X14629153Y-14714574D02*
X14610106Y-14705050D01*
X14610106Y-14705050D02*
X14581534Y-14705050D01*
X14581534Y-14705050D02*
X14562487Y-14714574D01*
X14562487Y-14714574D02*
X14552963Y-14724098D01*
X14762487Y-14838384D02*
X14743439Y-14828860D01*
X14743439Y-14828860D02*
X14733915Y-14819336D01*
X14733915Y-14819336D02*
X14724391Y-14800288D01*
X14724391Y-14800288D02*
X14724391Y-14743146D01*
X14724391Y-14743146D02*
X14733915Y-14724098D01*
X14733915Y-14724098D02*
X14743439Y-14714574D01*
X14743439Y-14714574D02*
X14762487Y-14705050D01*
X14762487Y-14705050D02*
X14791058Y-14705050D01*
X14791058Y-14705050D02*
X14810106Y-14714574D01*
X14810106Y-14714574D02*
X14819630Y-14724098D01*
X14819630Y-14724098D02*
X14829153Y-14743146D01*
X14829153Y-14743146D02*
X14829153Y-14800288D01*
X14829153Y-14800288D02*
X14819630Y-14819336D01*
X14819630Y-14819336D02*
X14810106Y-14828860D01*
X14810106Y-14828860D02*
X14791058Y-14838384D01*
X14791058Y-14838384D02*
X14762487Y-14838384D01*
X14943439Y-14838384D02*
X14924391Y-14828860D01*
X14924391Y-14828860D02*
X14914868Y-14809812D01*
X14914868Y-14809812D02*
X14914868Y-14638384D01*
X15095820Y-14828860D02*
X15076772Y-14838384D01*
X15076772Y-14838384D02*
X15038677Y-14838384D01*
X15038677Y-14838384D02*
X15019630Y-14828860D01*
X15019630Y-14828860D02*
X15010106Y-14809812D01*
X15010106Y-14809812D02*
X15010106Y-14733622D01*
X15010106Y-14733622D02*
X15019630Y-14714574D01*
X15019630Y-14714574D02*
X15038677Y-14705050D01*
X15038677Y-14705050D02*
X15076772Y-14705050D01*
X15076772Y-14705050D02*
X15095820Y-14714574D01*
X15095820Y-14714574D02*
X15105344Y-14733622D01*
X15105344Y-14733622D02*
X15105344Y-14752669D01*
X15105344Y-14752669D02*
X15010106Y-14771717D01*
X15181534Y-14828860D02*
X15200582Y-14838384D01*
X15200582Y-14838384D02*
X15238677Y-14838384D01*
X15238677Y-14838384D02*
X15257725Y-14828860D01*
X15257725Y-14828860D02*
X15267249Y-14809812D01*
X15267249Y-14809812D02*
X15267249Y-14800288D01*
X15267249Y-14800288D02*
X15257725Y-14781241D01*
X15257725Y-14781241D02*
X15238677Y-14771717D01*
X15238677Y-14771717D02*
X15210106Y-14771717D01*
X15210106Y-14771717D02*
X15191058Y-14762193D01*
X15191058Y-14762193D02*
X15181534Y-14743146D01*
X15181534Y-14743146D02*
X15181534Y-14733622D01*
X15181534Y-14733622D02*
X15191058Y-14714574D01*
X15191058Y-14714574D02*
X15210106Y-14705050D01*
X15210106Y-14705050D02*
X15238677Y-14705050D01*
X15238677Y-14705050D02*
X15257725Y-14714574D01*
X15333915Y-14914574D02*
X15343439Y-14905050D01*
X15343439Y-14905050D02*
X15362487Y-14876479D01*
X15362487Y-14876479D02*
X15372011Y-14857431D01*
X15372011Y-14857431D02*
X15381534Y-14828860D01*
X15381534Y-14828860D02*
X15391058Y-14781241D01*
X15391058Y-14781241D02*
X15391058Y-14743146D01*
X15391058Y-14743146D02*
X15381534Y-14695527D01*
X15381534Y-14695527D02*
X15372011Y-14666955D01*
X15372011Y-14666955D02*
X15362487Y-14647908D01*
X15362487Y-14647908D02*
X15343439Y-14619336D01*
X15343439Y-14619336D02*
X15333915Y-14609812D01*
D13*
X10126900Y-14959900D02*
X10126900Y-15061900D01*
X10075900Y-15010900D02*
X10177900Y-15010900D01*
D11*
X10543439Y-15102384D02*
X10429153Y-15102384D01*
X10486296Y-15102384D02*
X10486296Y-14902384D01*
X10486296Y-14902384D02*
X10467248Y-14930955D01*
X10467248Y-14930955D02*
X10448201Y-14950003D01*
X10448201Y-14950003D02*
X10429153Y-14959527D01*
X10629153Y-15083336D02*
X10638677Y-15092860D01*
X10638677Y-15092860D02*
X10629153Y-15102384D01*
X10629153Y-15102384D02*
X10619629Y-15092860D01*
X10619629Y-15092860D02*
X10629153Y-15083336D01*
X10629153Y-15083336D02*
X10629153Y-15102384D01*
X10762486Y-14902384D02*
X10781534Y-14902384D01*
X10781534Y-14902384D02*
X10800582Y-14911908D01*
X10800582Y-14911908D02*
X10810105Y-14921431D01*
X10810105Y-14921431D02*
X10819629Y-14940479D01*
X10819629Y-14940479D02*
X10829153Y-14978574D01*
X10829153Y-14978574D02*
X10829153Y-15026193D01*
X10829153Y-15026193D02*
X10819629Y-15064288D01*
X10819629Y-15064288D02*
X10810105Y-15083336D01*
X10810105Y-15083336D02*
X10800582Y-15092860D01*
X10800582Y-15092860D02*
X10781534Y-15102384D01*
X10781534Y-15102384D02*
X10762486Y-15102384D01*
X10762486Y-15102384D02*
X10743439Y-15092860D01*
X10743439Y-15092860D02*
X10733915Y-15083336D01*
X10733915Y-15083336D02*
X10724391Y-15064288D01*
X10724391Y-15064288D02*
X10714867Y-15026193D01*
X10714867Y-15026193D02*
X10714867Y-14978574D01*
X10714867Y-14978574D02*
X10724391Y-14940479D01*
X10724391Y-14940479D02*
X10733915Y-14921431D01*
X10733915Y-14921431D02*
X10743439Y-14911908D01*
X10743439Y-14911908D02*
X10762486Y-14902384D01*
X10905344Y-14921431D02*
X10914867Y-14911908D01*
X10914867Y-14911908D02*
X10933915Y-14902384D01*
X10933915Y-14902384D02*
X10981534Y-14902384D01*
X10981534Y-14902384D02*
X11000582Y-14911908D01*
X11000582Y-14911908D02*
X11010105Y-14921431D01*
X11010105Y-14921431D02*
X11019629Y-14940479D01*
X11019629Y-14940479D02*
X11019629Y-14959527D01*
X11019629Y-14959527D02*
X11010105Y-14988098D01*
X11010105Y-14988098D02*
X10895820Y-15102384D01*
X10895820Y-15102384D02*
X11019629Y-15102384D01*
X11143439Y-14902384D02*
X11162486Y-14902384D01*
X11162486Y-14902384D02*
X11181534Y-14911908D01*
X11181534Y-14911908D02*
X11191058Y-14921431D01*
X11191058Y-14921431D02*
X11200582Y-14940479D01*
X11200582Y-14940479D02*
X11210105Y-14978574D01*
X11210105Y-14978574D02*
X11210105Y-15026193D01*
X11210105Y-15026193D02*
X11200582Y-15064288D01*
X11200582Y-15064288D02*
X11191058Y-15083336D01*
X11191058Y-15083336D02*
X11181534Y-15092860D01*
X11181534Y-15092860D02*
X11162486Y-15102384D01*
X11162486Y-15102384D02*
X11143439Y-15102384D01*
X11143439Y-15102384D02*
X11124391Y-15092860D01*
X11124391Y-15092860D02*
X11114867Y-15083336D01*
X11114867Y-15083336D02*
X11105344Y-15064288D01*
X11105344Y-15064288D02*
X11095820Y-15026193D01*
X11095820Y-15026193D02*
X11095820Y-14978574D01*
X11095820Y-14978574D02*
X11105344Y-14940479D01*
X11105344Y-14940479D02*
X11114867Y-14921431D01*
X11114867Y-14921431D02*
X11124391Y-14911908D01*
X11124391Y-14911908D02*
X11143439Y-14902384D01*
X11295820Y-15102384D02*
X11295820Y-14969050D01*
X11295820Y-14988098D02*
X11305343Y-14978574D01*
X11305343Y-14978574D02*
X11324391Y-14969050D01*
X11324391Y-14969050D02*
X11352963Y-14969050D01*
X11352963Y-14969050D02*
X11372010Y-14978574D01*
X11372010Y-14978574D02*
X11381534Y-14997622D01*
X11381534Y-14997622D02*
X11381534Y-15102384D01*
X11381534Y-14997622D02*
X11391058Y-14978574D01*
X11391058Y-14978574D02*
X11410105Y-14969050D01*
X11410105Y-14969050D02*
X11438677Y-14969050D01*
X11438677Y-14969050D02*
X11457724Y-14978574D01*
X11457724Y-14978574D02*
X11467248Y-14997622D01*
X11467248Y-14997622D02*
X11467248Y-15102384D01*
X11562486Y-15102384D02*
X11562486Y-14969050D01*
X11562486Y-14988098D02*
X11572010Y-14978574D01*
X11572010Y-14978574D02*
X11591058Y-14969050D01*
X11591058Y-14969050D02*
X11619629Y-14969050D01*
X11619629Y-14969050D02*
X11638677Y-14978574D01*
X11638677Y-14978574D02*
X11648201Y-14997622D01*
X11648201Y-14997622D02*
X11648201Y-15102384D01*
X11648201Y-14997622D02*
X11657724Y-14978574D01*
X11657724Y-14978574D02*
X11676772Y-14969050D01*
X11676772Y-14969050D02*
X11705343Y-14969050D01*
X11705343Y-14969050D02*
X11724391Y-14978574D01*
X11724391Y-14978574D02*
X11733915Y-14997622D01*
X11733915Y-14997622D02*
X11733915Y-15102384D01*
X12124391Y-14892860D02*
X11952963Y-15150003D01*
X12381534Y-14902384D02*
X12400582Y-14902384D01*
X12400582Y-14902384D02*
X12419629Y-14911908D01*
X12419629Y-14911908D02*
X12429153Y-14921431D01*
X12429153Y-14921431D02*
X12438677Y-14940479D01*
X12438677Y-14940479D02*
X12448201Y-14978574D01*
X12448201Y-14978574D02*
X12448201Y-15026193D01*
X12448201Y-15026193D02*
X12438677Y-15064288D01*
X12438677Y-15064288D02*
X12429153Y-15083336D01*
X12429153Y-15083336D02*
X12419629Y-15092860D01*
X12419629Y-15092860D02*
X12400582Y-15102384D01*
X12400582Y-15102384D02*
X12381534Y-15102384D01*
X12381534Y-15102384D02*
X12362486Y-15092860D01*
X12362486Y-15092860D02*
X12352963Y-15083336D01*
X12352963Y-15083336D02*
X12343439Y-15064288D01*
X12343439Y-15064288D02*
X12333915Y-15026193D01*
X12333915Y-15026193D02*
X12333915Y-14978574D01*
X12333915Y-14978574D02*
X12343439Y-14940479D01*
X12343439Y-14940479D02*
X12352963Y-14921431D01*
X12352963Y-14921431D02*
X12362486Y-14911908D01*
X12362486Y-14911908D02*
X12381534Y-14902384D01*
X12533915Y-15083336D02*
X12543439Y-15092860D01*
X12543439Y-15092860D02*
X12533915Y-15102384D01*
X12533915Y-15102384D02*
X12524391Y-15092860D01*
X12524391Y-15092860D02*
X12533915Y-15083336D01*
X12533915Y-15083336D02*
X12533915Y-15102384D01*
X12667248Y-14902384D02*
X12686296Y-14902384D01*
X12686296Y-14902384D02*
X12705344Y-14911908D01*
X12705344Y-14911908D02*
X12714867Y-14921431D01*
X12714867Y-14921431D02*
X12724391Y-14940479D01*
X12724391Y-14940479D02*
X12733915Y-14978574D01*
X12733915Y-14978574D02*
X12733915Y-15026193D01*
X12733915Y-15026193D02*
X12724391Y-15064288D01*
X12724391Y-15064288D02*
X12714867Y-15083336D01*
X12714867Y-15083336D02*
X12705344Y-15092860D01*
X12705344Y-15092860D02*
X12686296Y-15102384D01*
X12686296Y-15102384D02*
X12667248Y-15102384D01*
X12667248Y-15102384D02*
X12648201Y-15092860D01*
X12648201Y-15092860D02*
X12638677Y-15083336D01*
X12638677Y-15083336D02*
X12629153Y-15064288D01*
X12629153Y-15064288D02*
X12619629Y-15026193D01*
X12619629Y-15026193D02*
X12619629Y-14978574D01*
X12619629Y-14978574D02*
X12629153Y-14940479D01*
X12629153Y-14940479D02*
X12638677Y-14921431D01*
X12638677Y-14921431D02*
X12648201Y-14911908D01*
X12648201Y-14911908D02*
X12667248Y-14902384D01*
X12905344Y-14969050D02*
X12905344Y-15102384D01*
X12857725Y-14892860D02*
X12810106Y-15035717D01*
X12810106Y-15035717D02*
X12933915Y-15035717D01*
X13048201Y-14902384D02*
X13067248Y-14902384D01*
X13067248Y-14902384D02*
X13086296Y-14911908D01*
X13086296Y-14911908D02*
X13095820Y-14921431D01*
X13095820Y-14921431D02*
X13105344Y-14940479D01*
X13105344Y-14940479D02*
X13114867Y-14978574D01*
X13114867Y-14978574D02*
X13114867Y-15026193D01*
X13114867Y-15026193D02*
X13105344Y-15064288D01*
X13105344Y-15064288D02*
X13095820Y-15083336D01*
X13095820Y-15083336D02*
X13086296Y-15092860D01*
X13086296Y-15092860D02*
X13067248Y-15102384D01*
X13067248Y-15102384D02*
X13048201Y-15102384D01*
X13048201Y-15102384D02*
X13029153Y-15092860D01*
X13029153Y-15092860D02*
X13019629Y-15083336D01*
X13019629Y-15083336D02*
X13010106Y-15064288D01*
X13010106Y-15064288D02*
X13000582Y-15026193D01*
X13000582Y-15026193D02*
X13000582Y-14978574D01*
X13000582Y-14978574D02*
X13010106Y-14940479D01*
X13010106Y-14940479D02*
X13019629Y-14921431D01*
X13019629Y-14921431D02*
X13029153Y-14911908D01*
X13029153Y-14911908D02*
X13048201Y-14902384D01*
X13191058Y-14921431D02*
X13200582Y-14911908D01*
X13200582Y-14911908D02*
X13219629Y-14902384D01*
X13219629Y-14902384D02*
X13267248Y-14902384D01*
X13267248Y-14902384D02*
X13286296Y-14911908D01*
X13286296Y-14911908D02*
X13295820Y-14921431D01*
X13295820Y-14921431D02*
X13305344Y-14940479D01*
X13305344Y-14940479D02*
X13305344Y-14959527D01*
X13305344Y-14959527D02*
X13295820Y-14988098D01*
X13295820Y-14988098D02*
X13181534Y-15102384D01*
X13181534Y-15102384D02*
X13305344Y-15102384D01*
X13381534Y-14902384D02*
X13381534Y-14940479D01*
X13457725Y-14902384D02*
X13457725Y-14940479D01*
X13752963Y-15178574D02*
X13743439Y-15169050D01*
X13743439Y-15169050D02*
X13724391Y-15140479D01*
X13724391Y-15140479D02*
X13714868Y-15121431D01*
X13714868Y-15121431D02*
X13705344Y-15092860D01*
X13705344Y-15092860D02*
X13695820Y-15045241D01*
X13695820Y-15045241D02*
X13695820Y-15007146D01*
X13695820Y-15007146D02*
X13705344Y-14959527D01*
X13705344Y-14959527D02*
X13714868Y-14930955D01*
X13714868Y-14930955D02*
X13724391Y-14911908D01*
X13724391Y-14911908D02*
X13743439Y-14883336D01*
X13743439Y-14883336D02*
X13752963Y-14873812D01*
X13810106Y-14902384D02*
X13943439Y-14902384D01*
X13943439Y-14902384D02*
X13857725Y-15102384D01*
X14029153Y-15102384D02*
X14067248Y-15102384D01*
X14067248Y-15102384D02*
X14086296Y-15092860D01*
X14086296Y-15092860D02*
X14095820Y-15083336D01*
X14095820Y-15083336D02*
X14114868Y-15054765D01*
X14114868Y-15054765D02*
X14124391Y-15016669D01*
X14124391Y-15016669D02*
X14124391Y-14940479D01*
X14124391Y-14940479D02*
X14114868Y-14921431D01*
X14114868Y-14921431D02*
X14105344Y-14911908D01*
X14105344Y-14911908D02*
X14086296Y-14902384D01*
X14086296Y-14902384D02*
X14048201Y-14902384D01*
X14048201Y-14902384D02*
X14029153Y-14911908D01*
X14029153Y-14911908D02*
X14019629Y-14921431D01*
X14019629Y-14921431D02*
X14010106Y-14940479D01*
X14010106Y-14940479D02*
X14010106Y-14988098D01*
X14010106Y-14988098D02*
X14019629Y-15007146D01*
X14019629Y-15007146D02*
X14029153Y-15016669D01*
X14029153Y-15016669D02*
X14048201Y-15026193D01*
X14048201Y-15026193D02*
X14086296Y-15026193D01*
X14086296Y-15026193D02*
X14105344Y-15016669D01*
X14105344Y-15016669D02*
X14114868Y-15007146D01*
X14114868Y-15007146D02*
X14124391Y-14988098D01*
X14362487Y-15102384D02*
X14362487Y-14902384D01*
X14448201Y-15102384D02*
X14448201Y-14997622D01*
X14448201Y-14997622D02*
X14438677Y-14978574D01*
X14438677Y-14978574D02*
X14419630Y-14969050D01*
X14419630Y-14969050D02*
X14391058Y-14969050D01*
X14391058Y-14969050D02*
X14372010Y-14978574D01*
X14372010Y-14978574D02*
X14362487Y-14988098D01*
X14572010Y-15102384D02*
X14552963Y-15092860D01*
X14552963Y-15092860D02*
X14543439Y-15083336D01*
X14543439Y-15083336D02*
X14533915Y-15064288D01*
X14533915Y-15064288D02*
X14533915Y-15007146D01*
X14533915Y-15007146D02*
X14543439Y-14988098D01*
X14543439Y-14988098D02*
X14552963Y-14978574D01*
X14552963Y-14978574D02*
X14572010Y-14969050D01*
X14572010Y-14969050D02*
X14600582Y-14969050D01*
X14600582Y-14969050D02*
X14619630Y-14978574D01*
X14619630Y-14978574D02*
X14629153Y-14988098D01*
X14629153Y-14988098D02*
X14638677Y-15007146D01*
X14638677Y-15007146D02*
X14638677Y-15064288D01*
X14638677Y-15064288D02*
X14629153Y-15083336D01*
X14629153Y-15083336D02*
X14619630Y-15092860D01*
X14619630Y-15092860D02*
X14600582Y-15102384D01*
X14600582Y-15102384D02*
X14572010Y-15102384D01*
X14752963Y-15102384D02*
X14733915Y-15092860D01*
X14733915Y-15092860D02*
X14724391Y-15073812D01*
X14724391Y-15073812D02*
X14724391Y-14902384D01*
X14905344Y-15092860D02*
X14886296Y-15102384D01*
X14886296Y-15102384D02*
X14848201Y-15102384D01*
X14848201Y-15102384D02*
X14829153Y-15092860D01*
X14829153Y-15092860D02*
X14819630Y-15073812D01*
X14819630Y-15073812D02*
X14819630Y-14997622D01*
X14819630Y-14997622D02*
X14829153Y-14978574D01*
X14829153Y-14978574D02*
X14848201Y-14969050D01*
X14848201Y-14969050D02*
X14886296Y-14969050D01*
X14886296Y-14969050D02*
X14905344Y-14978574D01*
X14905344Y-14978574D02*
X14914868Y-14997622D01*
X14914868Y-14997622D02*
X14914868Y-15016669D01*
X14914868Y-15016669D02*
X14819630Y-15035717D01*
X14991058Y-15092860D02*
X15010106Y-15102384D01*
X15010106Y-15102384D02*
X15048201Y-15102384D01*
X15048201Y-15102384D02*
X15067249Y-15092860D01*
X15067249Y-15092860D02*
X15076772Y-15073812D01*
X15076772Y-15073812D02*
X15076772Y-15064288D01*
X15076772Y-15064288D02*
X15067249Y-15045241D01*
X15067249Y-15045241D02*
X15048201Y-15035717D01*
X15048201Y-15035717D02*
X15019630Y-15035717D01*
X15019630Y-15035717D02*
X15000582Y-15026193D01*
X15000582Y-15026193D02*
X14991058Y-15007146D01*
X14991058Y-15007146D02*
X14991058Y-14997622D01*
X14991058Y-14997622D02*
X15000582Y-14978574D01*
X15000582Y-14978574D02*
X15019630Y-14969050D01*
X15019630Y-14969050D02*
X15048201Y-14969050D01*
X15048201Y-14969050D02*
X15067249Y-14978574D01*
X15143439Y-15178574D02*
X15152963Y-15169050D01*
X15152963Y-15169050D02*
X15172011Y-15140479D01*
X15172011Y-15140479D02*
X15181534Y-15121431D01*
X15181534Y-15121431D02*
X15191058Y-15092860D01*
X15191058Y-15092860D02*
X15200582Y-15045241D01*
X15200582Y-15045241D02*
X15200582Y-15007146D01*
X15200582Y-15007146D02*
X15191058Y-14959527D01*
X15191058Y-14959527D02*
X15181534Y-14930955D01*
X15181534Y-14930955D02*
X15172011Y-14911908D01*
X15172011Y-14911908D02*
X15152963Y-14883336D01*
X15152963Y-14883336D02*
X15143439Y-14873812D01*
D14*
X10161791Y-15313791D02*
X10161791Y-15236009D01*
X10084009Y-15236009D01*
X10084009Y-15313791D01*
X10161791Y-15313791D01*
D11*
X10543439Y-15366384D02*
X10429153Y-15366384D01*
X10486296Y-15366384D02*
X10486296Y-15166384D01*
X10486296Y-15166384D02*
X10467248Y-15194955D01*
X10467248Y-15194955D02*
X10448201Y-15214003D01*
X10448201Y-15214003D02*
X10429153Y-15223527D01*
X10629153Y-15347336D02*
X10638677Y-15356860D01*
X10638677Y-15356860D02*
X10629153Y-15366384D01*
X10629153Y-15366384D02*
X10619629Y-15356860D01*
X10619629Y-15356860D02*
X10629153Y-15347336D01*
X10629153Y-15347336D02*
X10629153Y-15366384D01*
X10829153Y-15366384D02*
X10714867Y-15366384D01*
X10772010Y-15366384D02*
X10772010Y-15166384D01*
X10772010Y-15166384D02*
X10752963Y-15194955D01*
X10752963Y-15194955D02*
X10733915Y-15214003D01*
X10733915Y-15214003D02*
X10714867Y-15223527D01*
X10952963Y-15166384D02*
X10972010Y-15166384D01*
X10972010Y-15166384D02*
X10991058Y-15175908D01*
X10991058Y-15175908D02*
X11000582Y-15185431D01*
X11000582Y-15185431D02*
X11010105Y-15204479D01*
X11010105Y-15204479D02*
X11019629Y-15242574D01*
X11019629Y-15242574D02*
X11019629Y-15290193D01*
X11019629Y-15290193D02*
X11010105Y-15328288D01*
X11010105Y-15328288D02*
X11000582Y-15347336D01*
X11000582Y-15347336D02*
X10991058Y-15356860D01*
X10991058Y-15356860D02*
X10972010Y-15366384D01*
X10972010Y-15366384D02*
X10952963Y-15366384D01*
X10952963Y-15366384D02*
X10933915Y-15356860D01*
X10933915Y-15356860D02*
X10924391Y-15347336D01*
X10924391Y-15347336D02*
X10914867Y-15328288D01*
X10914867Y-15328288D02*
X10905344Y-15290193D01*
X10905344Y-15290193D02*
X10905344Y-15242574D01*
X10905344Y-15242574D02*
X10914867Y-15204479D01*
X10914867Y-15204479D02*
X10924391Y-15185431D01*
X10924391Y-15185431D02*
X10933915Y-15175908D01*
X10933915Y-15175908D02*
X10952963Y-15166384D01*
X11143439Y-15166384D02*
X11162486Y-15166384D01*
X11162486Y-15166384D02*
X11181534Y-15175908D01*
X11181534Y-15175908D02*
X11191058Y-15185431D01*
X11191058Y-15185431D02*
X11200582Y-15204479D01*
X11200582Y-15204479D02*
X11210105Y-15242574D01*
X11210105Y-15242574D02*
X11210105Y-15290193D01*
X11210105Y-15290193D02*
X11200582Y-15328288D01*
X11200582Y-15328288D02*
X11191058Y-15347336D01*
X11191058Y-15347336D02*
X11181534Y-15356860D01*
X11181534Y-15356860D02*
X11162486Y-15366384D01*
X11162486Y-15366384D02*
X11143439Y-15366384D01*
X11143439Y-15366384D02*
X11124391Y-15356860D01*
X11124391Y-15356860D02*
X11114867Y-15347336D01*
X11114867Y-15347336D02*
X11105344Y-15328288D01*
X11105344Y-15328288D02*
X11095820Y-15290193D01*
X11095820Y-15290193D02*
X11095820Y-15242574D01*
X11095820Y-15242574D02*
X11105344Y-15204479D01*
X11105344Y-15204479D02*
X11114867Y-15185431D01*
X11114867Y-15185431D02*
X11124391Y-15175908D01*
X11124391Y-15175908D02*
X11143439Y-15166384D01*
X11295820Y-15366384D02*
X11295820Y-15233050D01*
X11295820Y-15252098D02*
X11305343Y-15242574D01*
X11305343Y-15242574D02*
X11324391Y-15233050D01*
X11324391Y-15233050D02*
X11352963Y-15233050D01*
X11352963Y-15233050D02*
X11372010Y-15242574D01*
X11372010Y-15242574D02*
X11381534Y-15261622D01*
X11381534Y-15261622D02*
X11381534Y-15366384D01*
X11381534Y-15261622D02*
X11391058Y-15242574D01*
X11391058Y-15242574D02*
X11410105Y-15233050D01*
X11410105Y-15233050D02*
X11438677Y-15233050D01*
X11438677Y-15233050D02*
X11457724Y-15242574D01*
X11457724Y-15242574D02*
X11467248Y-15261622D01*
X11467248Y-15261622D02*
X11467248Y-15366384D01*
X11562486Y-15366384D02*
X11562486Y-15233050D01*
X11562486Y-15252098D02*
X11572010Y-15242574D01*
X11572010Y-15242574D02*
X11591058Y-15233050D01*
X11591058Y-15233050D02*
X11619629Y-15233050D01*
X11619629Y-15233050D02*
X11638677Y-15242574D01*
X11638677Y-15242574D02*
X11648201Y-15261622D01*
X11648201Y-15261622D02*
X11648201Y-15366384D01*
X11648201Y-15261622D02*
X11657724Y-15242574D01*
X11657724Y-15242574D02*
X11676772Y-15233050D01*
X11676772Y-15233050D02*
X11705343Y-15233050D01*
X11705343Y-15233050D02*
X11724391Y-15242574D01*
X11724391Y-15242574D02*
X11733915Y-15261622D01*
X11733915Y-15261622D02*
X11733915Y-15366384D01*
X12124391Y-15156860D02*
X11952963Y-15414003D01*
X12381534Y-15166384D02*
X12400582Y-15166384D01*
X12400582Y-15166384D02*
X12419629Y-15175908D01*
X12419629Y-15175908D02*
X12429153Y-15185431D01*
X12429153Y-15185431D02*
X12438677Y-15204479D01*
X12438677Y-15204479D02*
X12448201Y-15242574D01*
X12448201Y-15242574D02*
X12448201Y-15290193D01*
X12448201Y-15290193D02*
X12438677Y-15328288D01*
X12438677Y-15328288D02*
X12429153Y-15347336D01*
X12429153Y-15347336D02*
X12419629Y-15356860D01*
X12419629Y-15356860D02*
X12400582Y-15366384D01*
X12400582Y-15366384D02*
X12381534Y-15366384D01*
X12381534Y-15366384D02*
X12362486Y-15356860D01*
X12362486Y-15356860D02*
X12352963Y-15347336D01*
X12352963Y-15347336D02*
X12343439Y-15328288D01*
X12343439Y-15328288D02*
X12333915Y-15290193D01*
X12333915Y-15290193D02*
X12333915Y-15242574D01*
X12333915Y-15242574D02*
X12343439Y-15204479D01*
X12343439Y-15204479D02*
X12352963Y-15185431D01*
X12352963Y-15185431D02*
X12362486Y-15175908D01*
X12362486Y-15175908D02*
X12381534Y-15166384D01*
X12533915Y-15347336D02*
X12543439Y-15356860D01*
X12543439Y-15356860D02*
X12533915Y-15366384D01*
X12533915Y-15366384D02*
X12524391Y-15356860D01*
X12524391Y-15356860D02*
X12533915Y-15347336D01*
X12533915Y-15347336D02*
X12533915Y-15366384D01*
X12667248Y-15166384D02*
X12686296Y-15166384D01*
X12686296Y-15166384D02*
X12705344Y-15175908D01*
X12705344Y-15175908D02*
X12714867Y-15185431D01*
X12714867Y-15185431D02*
X12724391Y-15204479D01*
X12724391Y-15204479D02*
X12733915Y-15242574D01*
X12733915Y-15242574D02*
X12733915Y-15290193D01*
X12733915Y-15290193D02*
X12724391Y-15328288D01*
X12724391Y-15328288D02*
X12714867Y-15347336D01*
X12714867Y-15347336D02*
X12705344Y-15356860D01*
X12705344Y-15356860D02*
X12686296Y-15366384D01*
X12686296Y-15366384D02*
X12667248Y-15366384D01*
X12667248Y-15366384D02*
X12648201Y-15356860D01*
X12648201Y-15356860D02*
X12638677Y-15347336D01*
X12638677Y-15347336D02*
X12629153Y-15328288D01*
X12629153Y-15328288D02*
X12619629Y-15290193D01*
X12619629Y-15290193D02*
X12619629Y-15242574D01*
X12619629Y-15242574D02*
X12629153Y-15204479D01*
X12629153Y-15204479D02*
X12638677Y-15185431D01*
X12638677Y-15185431D02*
X12648201Y-15175908D01*
X12648201Y-15175908D02*
X12667248Y-15166384D01*
X12905344Y-15233050D02*
X12905344Y-15366384D01*
X12857725Y-15156860D02*
X12810106Y-15299717D01*
X12810106Y-15299717D02*
X12933915Y-15299717D01*
X12991058Y-15166384D02*
X13114867Y-15166384D01*
X13114867Y-15166384D02*
X13048201Y-15242574D01*
X13048201Y-15242574D02*
X13076772Y-15242574D01*
X13076772Y-15242574D02*
X13095820Y-15252098D01*
X13095820Y-15252098D02*
X13105344Y-15261622D01*
X13105344Y-15261622D02*
X13114867Y-15280669D01*
X13114867Y-15280669D02*
X13114867Y-15328288D01*
X13114867Y-15328288D02*
X13105344Y-15347336D01*
X13105344Y-15347336D02*
X13095820Y-15356860D01*
X13095820Y-15356860D02*
X13076772Y-15366384D01*
X13076772Y-15366384D02*
X13019629Y-15366384D01*
X13019629Y-15366384D02*
X13000582Y-15356860D01*
X13000582Y-15356860D02*
X12991058Y-15347336D01*
X13181534Y-15166384D02*
X13305344Y-15166384D01*
X13305344Y-15166384D02*
X13238677Y-15242574D01*
X13238677Y-15242574D02*
X13267248Y-15242574D01*
X13267248Y-15242574D02*
X13286296Y-15252098D01*
X13286296Y-15252098D02*
X13295820Y-15261622D01*
X13295820Y-15261622D02*
X13305344Y-15280669D01*
X13305344Y-15280669D02*
X13305344Y-15328288D01*
X13305344Y-15328288D02*
X13295820Y-15347336D01*
X13295820Y-15347336D02*
X13286296Y-15356860D01*
X13286296Y-15356860D02*
X13267248Y-15366384D01*
X13267248Y-15366384D02*
X13210106Y-15366384D01*
X13210106Y-15366384D02*
X13191058Y-15356860D01*
X13191058Y-15356860D02*
X13181534Y-15347336D01*
X13381534Y-15166384D02*
X13381534Y-15204479D01*
X13457725Y-15166384D02*
X13457725Y-15204479D01*
X13752963Y-15442574D02*
X13743439Y-15433050D01*
X13743439Y-15433050D02*
X13724391Y-15404479D01*
X13724391Y-15404479D02*
X13714868Y-15385431D01*
X13714868Y-15385431D02*
X13705344Y-15356860D01*
X13705344Y-15356860D02*
X13695820Y-15309241D01*
X13695820Y-15309241D02*
X13695820Y-15271146D01*
X13695820Y-15271146D02*
X13705344Y-15223527D01*
X13705344Y-15223527D02*
X13714868Y-15194955D01*
X13714868Y-15194955D02*
X13724391Y-15175908D01*
X13724391Y-15175908D02*
X13743439Y-15147336D01*
X13743439Y-15147336D02*
X13752963Y-15137812D01*
X13933915Y-15366384D02*
X13819629Y-15366384D01*
X13876772Y-15366384D02*
X13876772Y-15166384D01*
X13876772Y-15166384D02*
X13857725Y-15194955D01*
X13857725Y-15194955D02*
X13838677Y-15214003D01*
X13838677Y-15214003D02*
X13819629Y-15223527D01*
X14010106Y-15185431D02*
X14019629Y-15175908D01*
X14019629Y-15175908D02*
X14038677Y-15166384D01*
X14038677Y-15166384D02*
X14086296Y-15166384D01*
X14086296Y-15166384D02*
X14105344Y-15175908D01*
X14105344Y-15175908D02*
X14114868Y-15185431D01*
X14114868Y-15185431D02*
X14124391Y-15204479D01*
X14124391Y-15204479D02*
X14124391Y-15223527D01*
X14124391Y-15223527D02*
X14114868Y-15252098D01*
X14114868Y-15252098D02*
X14000582Y-15366384D01*
X14000582Y-15366384D02*
X14124391Y-15366384D01*
X14362487Y-15366384D02*
X14362487Y-15166384D01*
X14448201Y-15366384D02*
X14448201Y-15261622D01*
X14448201Y-15261622D02*
X14438677Y-15242574D01*
X14438677Y-15242574D02*
X14419630Y-15233050D01*
X14419630Y-15233050D02*
X14391058Y-15233050D01*
X14391058Y-15233050D02*
X14372010Y-15242574D01*
X14372010Y-15242574D02*
X14362487Y-15252098D01*
X14572010Y-15366384D02*
X14552963Y-15356860D01*
X14552963Y-15356860D02*
X14543439Y-15347336D01*
X14543439Y-15347336D02*
X14533915Y-15328288D01*
X14533915Y-15328288D02*
X14533915Y-15271146D01*
X14533915Y-15271146D02*
X14543439Y-15252098D01*
X14543439Y-15252098D02*
X14552963Y-15242574D01*
X14552963Y-15242574D02*
X14572010Y-15233050D01*
X14572010Y-15233050D02*
X14600582Y-15233050D01*
X14600582Y-15233050D02*
X14619630Y-15242574D01*
X14619630Y-15242574D02*
X14629153Y-15252098D01*
X14629153Y-15252098D02*
X14638677Y-15271146D01*
X14638677Y-15271146D02*
X14638677Y-15328288D01*
X14638677Y-15328288D02*
X14629153Y-15347336D01*
X14629153Y-15347336D02*
X14619630Y-15356860D01*
X14619630Y-15356860D02*
X14600582Y-15366384D01*
X14600582Y-15366384D02*
X14572010Y-15366384D01*
X14752963Y-15366384D02*
X14733915Y-15356860D01*
X14733915Y-15356860D02*
X14724391Y-15337812D01*
X14724391Y-15337812D02*
X14724391Y-15166384D01*
X14905344Y-15356860D02*
X14886296Y-15366384D01*
X14886296Y-15366384D02*
X14848201Y-15366384D01*
X14848201Y-15366384D02*
X14829153Y-15356860D01*
X14829153Y-15356860D02*
X14819630Y-15337812D01*
X14819630Y-15337812D02*
X14819630Y-15261622D01*
X14819630Y-15261622D02*
X14829153Y-15242574D01*
X14829153Y-15242574D02*
X14848201Y-15233050D01*
X14848201Y-15233050D02*
X14886296Y-15233050D01*
X14886296Y-15233050D02*
X14905344Y-15242574D01*
X14905344Y-15242574D02*
X14914868Y-15261622D01*
X14914868Y-15261622D02*
X14914868Y-15280669D01*
X14914868Y-15280669D02*
X14819630Y-15299717D01*
X14991058Y-15356860D02*
X15010106Y-15366384D01*
X15010106Y-15366384D02*
X15048201Y-15366384D01*
X15048201Y-15366384D02*
X15067249Y-15356860D01*
X15067249Y-15356860D02*
X15076772Y-15337812D01*
X15076772Y-15337812D02*
X15076772Y-15328288D01*
X15076772Y-15328288D02*
X15067249Y-15309241D01*
X15067249Y-15309241D02*
X15048201Y-15299717D01*
X15048201Y-15299717D02*
X15019630Y-15299717D01*
X15019630Y-15299717D02*
X15000582Y-15290193D01*
X15000582Y-15290193D02*
X14991058Y-15271146D01*
X14991058Y-15271146D02*
X14991058Y-15261622D01*
X14991058Y-15261622D02*
X15000582Y-15242574D01*
X15000582Y-15242574D02*
X15019630Y-15233050D01*
X15019630Y-15233050D02*
X15048201Y-15233050D01*
X15048201Y-15233050D02*
X15067249Y-15242574D01*
X15143439Y-15442574D02*
X15152963Y-15433050D01*
X15152963Y-15433050D02*
X15172011Y-15404479D01*
X15172011Y-15404479D02*
X15181534Y-15385431D01*
X15181534Y-15385431D02*
X15191058Y-15356860D01*
X15191058Y-15356860D02*
X15200582Y-15309241D01*
X15200582Y-15309241D02*
X15200582Y-15271146D01*
X15200582Y-15271146D02*
X15191058Y-15223527D01*
X15191058Y-15223527D02*
X15181534Y-15194955D01*
X15181534Y-15194955D02*
X15172011Y-15175908D01*
X15172011Y-15175908D02*
X15152963Y-15147336D01*
X15152963Y-15147336D02*
X15143439Y-15137812D01*
M02*
