G04 #@! TF.GenerationSoftware,KiCad,Pcbnew,9.0.0-9.0.0-2~ubuntu24.04.1*
G04 #@! TF.CreationDate,2025-03-11T16:45:08-03:00*
G04 #@! TF.ProjectId,Signal_generator_AD9850_V01a,5369676e-616c-45f6-9765-6e657261746f,V01a*
G04 #@! TF.SameCoordinates,Original*
G04 #@! TF.FileFunction,Copper,L1,Top*
G04 #@! TF.FilePolarity,Positive*
%FSLAX46Y46*%
G04 Gerber Fmt 4.6, Leading zero omitted, Abs format (unit mm)*
G04 Created by KiCad (PCBNEW 9.0.0-9.0.0-2~ubuntu24.04.1) date 2025-03-11 16:45:08*
%MOMM*%
%LPD*%
G01*
G04 APERTURE LIST*
G04 #@! TA.AperFunction,ComponentPad*
%ADD10R,2.500000X1.800000*%
G04 #@! TD*
G04 #@! TA.AperFunction,ComponentPad*
%ADD11O,2.500000X1.800000*%
G04 #@! TD*
G04 #@! TA.AperFunction,ComponentPad*
%ADD12R,2.250000X1.727200*%
G04 #@! TD*
G04 #@! TA.AperFunction,ComponentPad*
%ADD13O,2.250000X1.727200*%
G04 #@! TD*
G04 #@! TA.AperFunction,ComponentPad*
%ADD14O,1.727200X1.727200*%
G04 #@! TD*
G04 #@! TA.AperFunction,ComponentPad*
%ADD15C,1.600000*%
G04 #@! TD*
G04 #@! TA.AperFunction,ComponentPad*
%ADD16O,1.800000X2.000000*%
G04 #@! TD*
G04 #@! TA.AperFunction,ViaPad*
%ADD17C,1.000000*%
G04 #@! TD*
G04 #@! TA.AperFunction,Conductor*
%ADD18C,1.270000*%
G04 #@! TD*
G04 APERTURE END LIST*
D10*
G04 #@! TO.P,U1-AD9850,1,vcc*
G04 #@! TO.N,+5V*
X158830000Y-70660000D03*
D11*
G04 #@! TO.P,U1-AD9850,2,CLK*
G04 #@! TO.N,Net-(U1-AD9850-CLK)*
X158830000Y-73200000D03*
G04 #@! TO.P,U1-AD9850,3,UD*
G04 #@! TO.N,Net-(U1-AD9850-UD)*
X158830000Y-75740000D03*
G04 #@! TO.P,U1-AD9850,4,Serial_Data_(D7)*
G04 #@! TO.N,Net-(U1-AD9850-Serial_Data_(D7))*
X158830000Y-78280000D03*
G04 #@! TO.P,U1-AD9850,5,RESET*
G04 #@! TO.N,Net-(U1-AD9850-RESET)*
X158830000Y-80820000D03*
G04 #@! TO.P,U1-AD9850,6,GND*
G04 #@! TO.N,Earth*
X158830000Y-83360000D03*
G04 #@! TO.P,U1-AD9850,7,SQ_1*
G04 #@! TO.N,unconnected-(U1-AD9850-SQ_1-Pad7)*
X158830000Y-85900000D03*
G04 #@! TO.P,U1-AD9850,8,SQ_2*
G04 #@! TO.N,unconnected-(U1-AD9850-SQ_2-Pad8)*
X158830000Y-88440000D03*
G04 #@! TO.P,U1-AD9850,9,Sine_1*
G04 #@! TO.N,sin_AD1*
X158830000Y-90980000D03*
G04 #@! TO.P,U1-AD9850,10,Sine_2*
G04 #@! TO.N,sin_AD2*
X158830000Y-93520000D03*
D10*
G04 #@! TO.P,U1-AD9850,11,vcc*
G04 #@! TO.N,+5V*
X179830000Y-70650000D03*
D11*
G04 #@! TO.P,U1-AD9850,12,D0*
G04 #@! TO.N,unconnected-(U1-AD9850-D0-Pad12)*
X179830000Y-73190000D03*
G04 #@! TO.P,U1-AD9850,13,D1*
G04 #@! TO.N,unconnected-(U1-AD9850-D1-Pad13)*
X179830000Y-75730000D03*
G04 #@! TO.P,U1-AD9850,14,D2*
G04 #@! TO.N,unconnected-(U1-AD9850-D2-Pad14)*
X179830000Y-78270000D03*
G04 #@! TO.P,U1-AD9850,15,D3*
G04 #@! TO.N,unconnected-(U1-AD9850-D3-Pad15)*
X179830000Y-80810000D03*
G04 #@! TO.P,U1-AD9850,16,D4*
G04 #@! TO.N,unconnected-(U1-AD9850-D4-Pad16)*
X179830000Y-83350000D03*
G04 #@! TO.P,U1-AD9850,17,D5*
G04 #@! TO.N,unconnected-(U1-AD9850-D5-Pad17)*
X179830000Y-85890000D03*
G04 #@! TO.P,U1-AD9850,18,D6*
G04 #@! TO.N,unconnected-(U1-AD9850-D6-Pad18)*
X179830000Y-88430000D03*
G04 #@! TO.P,U1-AD9850,19,D7*
G04 #@! TO.N,unconnected-(U1-AD9850-D7-Pad19)*
X179830000Y-90970000D03*
G04 #@! TO.P,U1-AD9850,20,GND*
G04 #@! TO.N,Earth*
X179830000Y-93510000D03*
G04 #@! TD*
D12*
G04 #@! TO.P,U2,1,VBAT*
G04 #@! TO.N,unconnected-(U2-VBAT-Pad1)*
X149040000Y-124840000D03*
D13*
G04 #@! TO.P,U2,2,PC13_LED*
G04 #@! TO.N,unconnected-(U2-PC13_LED-Pad2)*
X149040000Y-122300000D03*
G04 #@! TO.P,U2,3,PC14*
G04 #@! TO.N,Net-(U1-AD9850-CLK)*
X149040000Y-119760000D03*
G04 #@! TO.P,U2,4,PC15*
G04 #@! TO.N,Net-(U1-AD9850-UD)*
X149040000Y-117220000D03*
G04 #@! TO.P,U2,5,PA0*
G04 #@! TO.N,Net-(U1-AD9850-Serial_Data_(D7))*
X149040000Y-114680000D03*
G04 #@! TO.P,U2,6,PA1*
G04 #@! TO.N,Net-(U1-AD9850-RESET)*
X149040000Y-112140000D03*
G04 #@! TO.P,U2,7,PA2_TX2*
G04 #@! TO.N,unconnected-(U2-PA2_TX2-Pad7)*
X149040000Y-109600000D03*
G04 #@! TO.P,U2,8,PA3_RX2*
G04 #@! TO.N,unconnected-(U2-PA3_RX2-Pad8)*
X149040000Y-107060000D03*
G04 #@! TO.P,U2,9,PA4*
G04 #@! TO.N,Ampl1*
X149040000Y-104520000D03*
G04 #@! TO.P,U2,10,PA5_SCK1*
G04 #@! TO.N,Ampl2*
X149040000Y-101980000D03*
G04 #@! TO.P,U2,11,PA6_MISO1*
G04 #@! TO.N,unconnected-(U2-PA6_MISO1-Pad11)*
X149040000Y-99440000D03*
G04 #@! TO.P,U2,12,PA7_MOSI1*
G04 #@! TO.N,unconnected-(U2-PA7_MOSI1-Pad12)*
X149040000Y-96900000D03*
G04 #@! TO.P,U2,13,PB0*
G04 #@! TO.N,unconnected-(U2-PB0-Pad13)*
X149040000Y-94360000D03*
G04 #@! TO.P,U2,14,PB1*
G04 #@! TO.N,unconnected-(U2-PB1-Pad14)*
X149040000Y-91820000D03*
G04 #@! TO.P,U2,15,PB10_SCL2*
G04 #@! TO.N,unconnected-(U2-PB10_SCL2-Pad15)*
X149040000Y-89280000D03*
G04 #@! TO.P,U2,16,PB11_SDA2*
G04 #@! TO.N,unconnected-(U2-PB11_SDA2-Pad16)*
X149040000Y-86740000D03*
G04 #@! TO.P,U2,17,NRST*
G04 #@! TO.N,unconnected-(U2-NRST-Pad17)*
X149040000Y-84200000D03*
G04 #@! TO.P,U2,18,VCC3V3*
G04 #@! TO.N,Net-(J4-Pin_1)*
X149040000Y-81660000D03*
G04 #@! TO.P,U2,19,GND*
G04 #@! TO.N,unconnected-(U2-GND-Pad19)*
X149040000Y-79120000D03*
G04 #@! TO.P,U2,20,GND*
G04 #@! TO.N,Earth*
X149040000Y-76580000D03*
G04 #@! TO.P,U2,21,PB12*
G04 #@! TO.N,unconnected-(U2-PB12-Pad21)*
X133800000Y-76580000D03*
G04 #@! TO.P,U2,22,PB13_SCK2*
G04 #@! TO.N,unconnected-(U2-PB13_SCK2-Pad22)*
X133800000Y-79120000D03*
G04 #@! TO.P,U2,23,PB14_MISO2*
G04 #@! TO.N,unconnected-(U2-PB14_MISO2-Pad23)*
X133800000Y-81660000D03*
G04 #@! TO.P,U2,24,PB15_MOSI2*
G04 #@! TO.N,unconnected-(U2-PB15_MOSI2-Pad24)*
X133800000Y-84200000D03*
G04 #@! TO.P,U2,25,PA8*
G04 #@! TO.N,unconnected-(U2-PA8-Pad25)*
X133800000Y-86740000D03*
G04 #@! TO.P,U2,26,PA9_TX1*
G04 #@! TO.N,unconnected-(U2-PA9_TX1-Pad26)*
X133800000Y-89280000D03*
G04 #@! TO.P,U2,27,PA10_RX1*
G04 #@! TO.N,unconnected-(U2-PA10_RX1-Pad27)*
X133800000Y-91820000D03*
G04 #@! TO.P,U2,28,PA11_USB_D-*
G04 #@! TO.N,unconnected-(U2-PA11_USB_D--Pad28)*
X133800000Y-94360000D03*
G04 #@! TO.P,U2,29,PA12_USBD+*
G04 #@! TO.N,unconnected-(U2-PA12_USBD+-Pad29)*
X133800000Y-96900000D03*
G04 #@! TO.P,U2,30,PA15*
G04 #@! TO.N,unconnected-(U2-PA15-Pad30)*
X133800000Y-99440000D03*
G04 #@! TO.P,U2,31,PB3*
G04 #@! TO.N,unconnected-(U2-PB3-Pad31)*
X133800000Y-101980000D03*
G04 #@! TO.P,U2,32,PB4*
G04 #@! TO.N,unconnected-(U2-PB4-Pad32)*
X133800000Y-104520000D03*
G04 #@! TO.P,U2,33,PB5*
G04 #@! TO.N,unconnected-(U2-PB5-Pad33)*
X133800000Y-107060000D03*
G04 #@! TO.P,U2,34,PB6_SCL1*
G04 #@! TO.N,SCL1*
X133800000Y-109600000D03*
G04 #@! TO.P,U2,35,PB7_SDA1*
G04 #@! TO.N,SDA1*
X133800000Y-112140000D03*
G04 #@! TO.P,U2,36,PB8*
G04 #@! TO.N,unconnected-(U2-PB8-Pad36)*
X133800000Y-114680000D03*
G04 #@! TO.P,U2,37,PB9*
G04 #@! TO.N,unconnected-(U2-PB9-Pad37)*
X133800000Y-117220000D03*
G04 #@! TO.P,U2,38,5V_USB*
G04 #@! TO.N,unconnected-(U2-5V_USB-Pad38)*
X133800000Y-119760000D03*
G04 #@! TO.P,U2,39,GND*
G04 #@! TO.N,unconnected-(U2-GND-Pad39)*
X133800000Y-122300000D03*
G04 #@! TO.P,U2,40,VCC3V3*
G04 #@! TO.N,unconnected-(U2-VCC3V3-Pad40)*
X133800000Y-124890800D03*
D14*
G04 #@! TO.P,U2,41,PA14_SWCLK*
G04 #@! TO.N,unconnected-(U2-PA14_SWCLK-Pad41)*
X140140000Y-121030000D03*
G04 #@! TO.P,U2,42,PA13_SWDIO*
G04 #@! TO.N,unconnected-(U2-PA13_SWDIO-Pad42)*
X142680000Y-121030000D03*
G04 #@! TD*
D11*
G04 #@! TO.P,J3,1,Pin_1*
G04 #@! TO.N,+5V*
X185420000Y-57150000D03*
G04 #@! TO.P,J3,2,Pin_2*
G04 #@! TO.N,-5V*
X185420000Y-59690000D03*
G04 #@! TO.P,J3,3,Pin_3*
G04 #@! TO.N,Earth*
X185420000Y-62230000D03*
G04 #@! TO.P,J3,4,Pin_4*
X185420000Y-64770000D03*
G04 #@! TO.P,J3,5,Pin_5*
G04 #@! TO.N,+3.3V*
X185420000Y-67310000D03*
G04 #@! TO.P,J3,6,Pin_6*
G04 #@! TO.N,Earth*
X185420000Y-69850000D03*
G04 #@! TO.P,J3,7,Pin_7*
X185420000Y-72390000D03*
G04 #@! TO.P,J3,8,Pin_8*
G04 #@! TO.N,unconnected-(J3-Pin_8-Pad8)*
X185420000Y-74930000D03*
G04 #@! TO.P,J3,9,Pin_9*
G04 #@! TO.N,unconnected-(J3-Pin_9-Pad9)*
X185420000Y-77470000D03*
G04 #@! TO.P,J3,10,Pin_10*
G04 #@! TO.N,unconnected-(J3-Pin_10-Pad10)*
X185420000Y-80010000D03*
G04 #@! TO.P,J3,11,Pin_11*
G04 #@! TO.N,unconnected-(J3-Pin_11-Pad11)*
X185420000Y-82550000D03*
G04 #@! TO.P,J3,12,Pin_12*
G04 #@! TO.N,unconnected-(J3-Pin_12-Pad12)*
X185420000Y-85090000D03*
G04 #@! TO.P,J3,13,Pin_13*
G04 #@! TO.N,unconnected-(J3-Pin_13-Pad13)*
X185420000Y-87630000D03*
G04 #@! TO.P,J3,14,Pin_14*
G04 #@! TO.N,unconnected-(J3-Pin_14-Pad14)*
X185420000Y-90170000D03*
G04 #@! TO.P,J3,15,Pin_15*
G04 #@! TO.N,unconnected-(J3-Pin_15-Pad15)*
X185420000Y-92710000D03*
G04 #@! TO.P,J3,16,Pin_16*
G04 #@! TO.N,Earth*
X185420000Y-95250000D03*
G04 #@! TO.P,J3,17,Pin_17*
G04 #@! TO.N,CS1*
X185420000Y-97790000D03*
G04 #@! TO.P,J3,18,Pin_18*
G04 #@! TO.N,CS0*
X185420000Y-100330000D03*
G04 #@! TO.P,J3,19,Pin_19*
G04 #@! TO.N,SPI_clk*
X185420000Y-102870000D03*
G04 #@! TO.P,J3,20,Pin_20*
G04 #@! TO.N,SPI_CIPO*
X185420000Y-105410000D03*
G04 #@! TO.P,J3,21,Pin_21*
G04 #@! TO.N,SPI_COPI*
X185420000Y-107950000D03*
G04 #@! TO.P,J3,22,Pin_22*
G04 #@! TO.N,Earth*
X185420000Y-110490000D03*
G04 #@! TO.P,J3,23,Pin_23*
G04 #@! TO.N,SCL4*
X185420000Y-113030000D03*
G04 #@! TO.P,J3,24,Pin_24*
G04 #@! TO.N,SDA4*
X185420000Y-115570000D03*
G04 #@! TO.P,J3,25,Pin_25*
G04 #@! TO.N,Earth*
X185420000Y-118110000D03*
G04 #@! TO.P,J3,26,Pin_26*
G04 #@! TO.N,SCL3*
X185420000Y-120650000D03*
G04 #@! TO.P,J3,27,Pin_27*
G04 #@! TO.N,SDA3*
X185420000Y-123190000D03*
G04 #@! TO.P,J3,28,Pin_28*
G04 #@! TO.N,Earth*
X185420000Y-125730000D03*
G04 #@! TO.P,J3,29,Pin_29*
G04 #@! TO.N,SCL2*
X185420000Y-128270000D03*
G04 #@! TO.P,J3,30,Pin_30*
G04 #@! TO.N,SDA2*
X185420000Y-130810000D03*
G04 #@! TO.P,J3,31,Pin_31*
G04 #@! TO.N,Earth*
X185420000Y-133350000D03*
G04 #@! TO.P,J3,32,Pin_32*
G04 #@! TO.N,SCL1*
X185420000Y-135890000D03*
G04 #@! TO.P,J3,33,Pin_33*
G04 #@! TO.N,SDA1*
X185420000Y-138430000D03*
G04 #@! TO.P,J3,34,Pin_34*
G04 #@! TO.N,Earth*
X185420000Y-140970000D03*
G04 #@! TO.P,J3,35,Pin_35*
G04 #@! TO.N,SINCD*
X185420000Y-143510000D03*
G04 #@! TD*
D10*
G04 #@! TO.P,J1,1,Pin_1*
G04 #@! TO.N,VCC*
X106680000Y-57150000D03*
D11*
G04 #@! TO.P,J1,2,Pin_2*
G04 #@! TO.N,VEE*
X106680000Y-59690000D03*
G04 #@! TO.P,J1,3,Pin_3*
G04 #@! TO.N,Earth*
X106680000Y-62230000D03*
G04 #@! TO.P,J1,4,Pin_4*
X106680000Y-64770000D03*
G04 #@! TO.P,J1,5,Pin_5*
G04 #@! TO.N,+9V*
X106680000Y-67310000D03*
G04 #@! TO.P,J1,6,Pin_6*
G04 #@! TO.N,Earth*
X106680000Y-69850000D03*
G04 #@! TO.P,J1,7,Pin_7*
X106680000Y-72390000D03*
G04 #@! TO.P,J1,8,Pin_8*
G04 #@! TO.N,-9V*
X106680000Y-74930000D03*
G04 #@! TD*
D15*
G04 #@! TO.P,C4,1*
G04 #@! TO.N,sin_AD2*
X120140300Y-142630000D03*
G04 #@! TO.P,C4,2*
G04 #@! TO.N,Sin2*
X120140300Y-140130000D03*
G04 #@! TD*
D11*
G04 #@! TO.P,J2,1,Pin_1*
G04 #@! TO.N,unconnected-(J2-Pin_1-Pad1)*
X106680000Y-81280000D03*
G04 #@! TO.P,J2,2,Pin_2*
G04 #@! TO.N,unconnected-(J2-Pin_2-Pad2)*
X106680000Y-83820000D03*
G04 #@! TO.P,J2,3,Pin_3*
G04 #@! TO.N,unconnected-(J2-Pin_3-Pad3)*
X106680000Y-86360000D03*
G04 #@! TO.P,J2,4,Pin_4*
G04 #@! TO.N,unconnected-(J2-Pin_4-Pad4)*
X106680000Y-88900000D03*
G04 #@! TO.P,J2,5,Pin_5*
G04 #@! TO.N,unconnected-(J2-Pin_5-Pad5)*
X106680000Y-91440000D03*
G04 #@! TO.P,J2,6,Pin_6*
G04 #@! TO.N,unconnected-(J2-Pin_6-Pad6)*
X106680000Y-93980000D03*
G04 #@! TO.P,J2,7,Pin_7*
G04 #@! TO.N,unconnected-(J2-Pin_7-Pad7)*
X106680000Y-96520000D03*
G04 #@! TO.P,J2,8,Pin_8*
G04 #@! TO.N,unconnected-(J2-Pin_8-Pad8)*
X106680000Y-99060000D03*
G04 #@! TO.P,J2,9,Pin_9*
G04 #@! TO.N,unconnected-(J2-Pin_9-Pad9)*
X106680000Y-101600000D03*
G04 #@! TO.P,J2,10,Pin_10*
G04 #@! TO.N,unconnected-(J2-Pin_10-Pad10)*
X106680000Y-104140000D03*
G04 #@! TO.P,J2,11,Pin_11*
G04 #@! TO.N,Earth*
X106680000Y-106680000D03*
G04 #@! TO.P,J2,12,Pin_12*
G04 #@! TO.N,I1*
X106680000Y-109220000D03*
G04 #@! TO.P,J2,13,Pin_13*
G04 #@! TO.N,Earth*
X106680000Y-111760000D03*
G04 #@! TO.P,J2,14,Pin_14*
G04 #@! TO.N,I2*
X106680000Y-114300000D03*
G04 #@! TO.P,J2,15,Pin_15*
G04 #@! TO.N,Earth*
X106680000Y-116840000D03*
G04 #@! TO.P,J2,16,Pin_16*
G04 #@! TO.N,Ampl1*
X106680000Y-119380000D03*
G04 #@! TO.P,J2,17,Pin_17*
G04 #@! TO.N,Earth*
X106680000Y-121920000D03*
G04 #@! TO.P,J2,18,Pin_18*
G04 #@! TO.N,Ampl2*
X106680000Y-124460000D03*
G04 #@! TO.P,J2,19,Pin_19*
G04 #@! TO.N,Earth*
X106680000Y-127000000D03*
G04 #@! TO.P,J2,20,Pin_20*
G04 #@! TO.N,Sin1*
X106680000Y-129540000D03*
G04 #@! TO.P,J2,21,Pin_21*
G04 #@! TO.N,Earth*
X106680000Y-132080000D03*
G04 #@! TO.P,J2,22,Pin_22*
G04 #@! TO.N,Sin2*
X106680000Y-134620000D03*
G04 #@! TO.P,J2,23,Pin_23*
G04 #@! TO.N,Earth*
X106680000Y-137160000D03*
G04 #@! TO.P,J2,24,Pin_24*
G04 #@! TO.N,SinA*
X106680000Y-139700000D03*
G04 #@! TO.P,J2,25,Pin_25*
G04 #@! TO.N,Earth*
X106680000Y-142240000D03*
G04 #@! TO.P,J2,26,Pin_26*
G04 #@! TO.N,SinB*
X106680000Y-144780000D03*
G04 #@! TO.P,J2,27,Pin_27*
G04 #@! TO.N,Earth*
X106680000Y-147320000D03*
G04 #@! TD*
D15*
G04 #@! TO.P,R11,1*
G04 #@! TO.N,Sin1*
X115140300Y-137490000D03*
G04 #@! TO.P,R11,2*
G04 #@! TO.N,Earth*
X115140300Y-129870000D03*
G04 #@! TD*
G04 #@! TO.P,C3,1*
G04 #@! TO.N,sin_AD1*
X115140300Y-142730000D03*
G04 #@! TO.P,C3,2*
G04 #@! TO.N,Sin1*
X115140300Y-140230000D03*
G04 #@! TD*
D16*
G04 #@! TO.P,J4,1,Pin_1*
G04 #@! TO.N,Net-(J4-Pin_1)*
X172660000Y-147400000D03*
G04 #@! TO.P,J4,2,Pin_2*
G04 #@! TO.N,+3.3V*
X175200000Y-147400000D03*
G04 #@! TD*
D15*
G04 #@! TO.P,R12,1*
G04 #@! TO.N,Sin2*
X120240300Y-137490000D03*
G04 #@! TO.P,R12,2*
G04 #@! TO.N,Earth*
X120240300Y-129870000D03*
G04 #@! TD*
D17*
G04 #@! TO.N,SCL1*
X130400000Y-134800000D03*
G04 #@! TO.N,SDA1*
X187900000Y-148500000D03*
X137105500Y-145666200D03*
G04 #@! TO.N,sin_AD1*
X161648100Y-90745200D03*
X156205800Y-143853500D03*
G04 #@! TO.N,sin_AD2*
X156095100Y-138971200D03*
G04 #@! TO.N,Net-(J4-Pin_1)*
X162749700Y-100799200D03*
G04 #@! TO.N,Net-(U1-AD9850-Serial_Data_(D7))*
X156085000Y-83107500D03*
G04 #@! TD*
D18*
G04 #@! TO.N,+5V*
X185420000Y-57150000D02*
X182900000Y-57150000D01*
X179830000Y-70650000D02*
X179830000Y-60220000D01*
X179830000Y-60220000D02*
X182900000Y-57150000D01*
G04 #@! TO.N,+3.3V*
X182900000Y-141870000D02*
X177370000Y-147400000D01*
X182900000Y-68300000D02*
X182900000Y-141870000D01*
X183890000Y-67310000D02*
X182900000Y-68300000D01*
X177370000Y-147400000D02*
X175200000Y-147400000D01*
X185420000Y-67310000D02*
X183890000Y-67310000D01*
G04 #@! TO.N,Sin1*
X115140300Y-137490000D02*
X115140300Y-140230000D01*
X106680000Y-129540000D02*
X109540000Y-129540000D01*
X110500000Y-132849700D02*
X115140300Y-137490000D01*
X110500000Y-130500000D02*
X110500000Y-132849700D01*
X109540000Y-129540000D02*
X110500000Y-130500000D01*
G04 #@! TO.N,Sin2*
X120140300Y-137590000D02*
X120140300Y-140130000D01*
X120240300Y-137490000D02*
X120140300Y-137590000D01*
G04 #@! TO.N,SCL1*
X131405000Y-109600000D02*
X133800000Y-109600000D01*
X130400000Y-110605000D02*
X131405000Y-109600000D01*
X130400000Y-134800000D02*
X130400000Y-110605000D01*
G04 #@! TO.N,SDA1*
X137105500Y-145666200D02*
X137105500Y-113050500D01*
X187940000Y-147127600D02*
X187940000Y-139740000D01*
X187900000Y-148500000D02*
X187900000Y-147167600D01*
X133800000Y-112140000D02*
X136195000Y-112140000D01*
X137105500Y-113050500D02*
X136195000Y-112140000D01*
X186630000Y-138430000D02*
X185420000Y-138430000D01*
X187900000Y-147167600D02*
X187940000Y-147127600D01*
X187940000Y-139740000D02*
X186630000Y-138430000D01*
G04 #@! TO.N,sin_AD1*
X161648100Y-99395300D02*
X160978000Y-100065400D01*
X160978000Y-100065400D02*
X160978000Y-139081300D01*
X160978000Y-139081300D02*
X156205800Y-143853500D01*
X161648100Y-90745200D02*
X161648100Y-99395300D01*
G04 #@! TO.N,sin_AD2*
X156095100Y-138971200D02*
X156095100Y-98424900D01*
X156095100Y-98424900D02*
X158830000Y-95690000D01*
X158830000Y-93520000D02*
X158830000Y-95690000D01*
G04 #@! TO.N,Net-(J4-Pin_1)*
X172660000Y-110709500D02*
X162749700Y-100799200D01*
X172660000Y-147400000D02*
X172660000Y-110709500D01*
G04 #@! TO.N,Net-(U1-AD9850-CLK)*
X144864800Y-117979800D02*
X146645000Y-119760000D01*
X158830000Y-73200000D02*
X156310000Y-73200000D01*
X149040000Y-119760000D02*
X146645000Y-119760000D01*
X156310000Y-73200000D02*
X155899100Y-72789100D01*
X144864800Y-75108800D02*
X144864800Y-117979800D01*
X155899100Y-72789100D02*
X147184500Y-72789100D01*
X147184500Y-72789100D02*
X144864800Y-75108800D01*
G04 #@! TO.N,Net-(U1-AD9850-UD)*
X158830000Y-75740000D02*
X151783100Y-75740000D01*
X150610400Y-74567300D02*
X147943200Y-74567300D01*
X149040000Y-117220000D02*
X146645000Y-117220000D01*
X146645000Y-75865500D02*
X146645000Y-117220000D01*
X151783100Y-75740000D02*
X150610400Y-74567300D01*
X147943200Y-74567300D02*
X146645000Y-75865500D01*
G04 #@! TO.N,Net-(U1-AD9850-Serial_Data_(D7))*
X156085000Y-83107500D02*
X153505900Y-85686600D01*
X149040000Y-114680000D02*
X151435000Y-114680000D01*
X153505900Y-85686600D02*
X153505900Y-112609100D01*
X153505900Y-112609100D02*
X151435000Y-114680000D01*
G04 #@! TO.N,Net-(U1-AD9850-RESET)*
X156310000Y-80820000D02*
X155867000Y-80820000D01*
X151435000Y-85252000D02*
X151435000Y-112140000D01*
X155867000Y-80820000D02*
X151435000Y-85252000D01*
X158830000Y-80820000D02*
X156310000Y-80820000D01*
X149040000Y-112140000D02*
X151435000Y-112140000D01*
G04 #@! TD*
G04 #@! TA.AperFunction,Conductor*
G04 #@! TO.N,Earth*
G36*
X184232385Y-139552551D02*
G01*
X184335978Y-139627815D01*
X184464375Y-139693237D01*
X184532393Y-139727895D01*
X184532396Y-139727896D01*
X184637221Y-139761955D01*
X184742049Y-139796015D01*
X184959778Y-139830500D01*
X184959779Y-139830500D01*
X185880221Y-139830500D01*
X185880222Y-139830500D01*
X186097951Y-139796015D01*
X186246245Y-139747831D01*
X186316085Y-139745837D01*
X186372243Y-139778082D01*
X186768181Y-140174020D01*
X186801666Y-140235343D01*
X186804500Y-140261701D01*
X186804500Y-142287130D01*
X186784815Y-142354169D01*
X186732011Y-142399924D01*
X186662853Y-142409868D01*
X186607615Y-142387449D01*
X186504021Y-142312184D01*
X186307606Y-142212104D01*
X186307603Y-142212103D01*
X186097952Y-142143985D01*
X185989086Y-142126742D01*
X185880222Y-142109500D01*
X184959778Y-142109500D01*
X184887201Y-142120995D01*
X184742047Y-142143985D01*
X184532396Y-142212103D01*
X184532393Y-142212104D01*
X184335974Y-142312187D01*
X184157641Y-142441752D01*
X184151445Y-142447948D01*
X184144782Y-142451585D01*
X184140379Y-142457764D01*
X184114548Y-142468092D01*
X184090120Y-142481430D01*
X184082548Y-142480888D01*
X184075504Y-142483705D01*
X184048189Y-142478428D01*
X184020428Y-142476442D01*
X184014352Y-142471893D01*
X184006902Y-142470454D01*
X183986770Y-142451243D01*
X183964497Y-142434567D01*
X183961845Y-142427457D01*
X183956355Y-142422218D01*
X183949806Y-142395174D01*
X183940083Y-142369102D01*
X183941285Y-142359986D01*
X183939911Y-142354311D01*
X183944125Y-142338451D01*
X183946605Y-142319657D01*
X183949402Y-142311586D01*
X183952309Y-142305881D01*
X183965853Y-142264193D01*
X184007541Y-142135897D01*
X184023073Y-142037824D01*
X184035500Y-141959370D01*
X184035500Y-139652869D01*
X184055185Y-139585830D01*
X184107989Y-139540075D01*
X184177147Y-139530131D01*
X184232385Y-139552551D01*
G37*
G04 #@! TD.AperFunction*
G04 #@! TA.AperFunction,Conductor*
G36*
X150155738Y-75722485D02*
G01*
X150176379Y-75739118D01*
X151043371Y-76606111D01*
X151076637Y-76630280D01*
X151093272Y-76642366D01*
X151140619Y-76676766D01*
X151187968Y-76711167D01*
X151347219Y-76792309D01*
X151347221Y-76792310D01*
X151396271Y-76808247D01*
X151517203Y-76847540D01*
X151693734Y-76875500D01*
X157619918Y-76875500D01*
X157640335Y-76881495D01*
X157661583Y-76882709D01*
X157683060Y-76894040D01*
X157686957Y-76895185D01*
X157692799Y-76899179D01*
X157700229Y-76904576D01*
X157707251Y-76909678D01*
X157749919Y-76965006D01*
X157755901Y-77034619D01*
X157723298Y-77096415D01*
X157707255Y-77110317D01*
X157567641Y-77211752D01*
X157567636Y-77211756D01*
X157411756Y-77367636D01*
X157411752Y-77367641D01*
X157282187Y-77545974D01*
X157182104Y-77742393D01*
X157182103Y-77742396D01*
X157113985Y-77952047D01*
X157103857Y-78015996D01*
X157079500Y-78169778D01*
X157079500Y-78390222D01*
X157083600Y-78416107D01*
X157113985Y-78607952D01*
X157182103Y-78817603D01*
X157182104Y-78817606D01*
X157193677Y-78840318D01*
X157281482Y-79012643D01*
X157282187Y-79014025D01*
X157411752Y-79192358D01*
X157411756Y-79192363D01*
X157567636Y-79348243D01*
X157567641Y-79348247D01*
X157707255Y-79449682D01*
X157724431Y-79471956D01*
X157744040Y-79492133D01*
X157745483Y-79499256D01*
X157749921Y-79505011D01*
X157752328Y-79533038D01*
X157757915Y-79560611D01*
X157755278Y-79567383D01*
X157755900Y-79574625D01*
X157742771Y-79599506D01*
X157732566Y-79625720D01*
X157725125Y-79632951D01*
X157723295Y-79636420D01*
X157707255Y-79650318D01*
X157692803Y-79660818D01*
X157626997Y-79684298D01*
X157619918Y-79684500D01*
X155777630Y-79684500D01*
X155601102Y-79712459D01*
X155519287Y-79739042D01*
X155431120Y-79767690D01*
X155431118Y-79767690D01*
X155431118Y-79767691D01*
X155368689Y-79799499D01*
X155368690Y-79799500D01*
X155271867Y-79848833D01*
X155167713Y-79924507D01*
X155167712Y-79924508D01*
X155127271Y-79953889D01*
X150877181Y-84203980D01*
X150815858Y-84237465D01*
X150746166Y-84232481D01*
X150690233Y-84190609D01*
X150665816Y-84125145D01*
X150665500Y-84116299D01*
X150665500Y-84092643D01*
X150654272Y-84021752D01*
X150631911Y-83880573D01*
X150588776Y-83747815D01*
X150565562Y-83676369D01*
X150565561Y-83676366D01*
X150497800Y-83543379D01*
X150468083Y-83485056D01*
X150341877Y-83311349D01*
X150190051Y-83159523D01*
X150016344Y-83033317D01*
X150016343Y-83033316D01*
X150012402Y-83030453D01*
X150013805Y-83028521D01*
X149973478Y-82984073D01*
X149961958Y-82915160D01*
X149989525Y-82850958D01*
X150013109Y-82830521D01*
X150012402Y-82829547D01*
X150036012Y-82812393D01*
X150190051Y-82700477D01*
X150341877Y-82548651D01*
X150468083Y-82374944D01*
X150565561Y-82183633D01*
X150631911Y-81979427D01*
X150665500Y-81767357D01*
X150665500Y-81552643D01*
X150631911Y-81340573D01*
X150588776Y-81207815D01*
X150565562Y-81136369D01*
X150565561Y-81136366D01*
X150515892Y-81038888D01*
X150468083Y-80945056D01*
X150341877Y-80771349D01*
X150190051Y-80619523D01*
X150016344Y-80493317D01*
X150016343Y-80493316D01*
X150012402Y-80490453D01*
X150013805Y-80488521D01*
X149973478Y-80444073D01*
X149961958Y-80375160D01*
X149989525Y-80310958D01*
X150013109Y-80290521D01*
X150012402Y-80289547D01*
X150016344Y-80286683D01*
X150190051Y-80160477D01*
X150341877Y-80008651D01*
X150468083Y-79834944D01*
X150565561Y-79643633D01*
X150631911Y-79439427D01*
X150665500Y-79227357D01*
X150665500Y-79012643D01*
X150631911Y-78800573D01*
X150588776Y-78667815D01*
X150565562Y-78596369D01*
X150565561Y-78596366D01*
X150515892Y-78498888D01*
X150468083Y-78405056D01*
X150341877Y-78231349D01*
X150190051Y-78079523D01*
X150016344Y-77953317D01*
X150013855Y-77952049D01*
X149825033Y-77855838D01*
X149825030Y-77855837D01*
X149620828Y-77789489D01*
X149503828Y-77770958D01*
X149408757Y-77755900D01*
X148671243Y-77755900D01*
X148600553Y-77767096D01*
X148459171Y-77789489D01*
X148254969Y-77855837D01*
X148254966Y-77855838D01*
X148063652Y-77953319D01*
X147977385Y-78015996D01*
X147911579Y-78039476D01*
X147843525Y-78023651D01*
X147794830Y-77973545D01*
X147780500Y-77915678D01*
X147780500Y-76387201D01*
X147800185Y-76320162D01*
X147816819Y-76299520D01*
X148377220Y-75739119D01*
X148438543Y-75705634D01*
X148464901Y-75702800D01*
X150088699Y-75702800D01*
X150155738Y-75722485D01*
G37*
G04 #@! TD.AperFunction*
G04 #@! TA.AperFunction,Conductor*
G36*
X122943039Y-52019685D02*
G01*
X122988794Y-52072489D01*
X123000000Y-52124000D01*
X123000000Y-56300000D01*
X129000000Y-56300000D01*
X129000000Y-52124000D01*
X129019685Y-52056961D01*
X129072489Y-52011206D01*
X129124000Y-52000000D01*
X190876000Y-52000000D01*
X190943039Y-52019685D01*
X190988794Y-52072489D01*
X191000000Y-52124000D01*
X191000000Y-149876000D01*
X190980315Y-149943039D01*
X190927511Y-149988794D01*
X190876000Y-150000000D01*
X129124000Y-150000000D01*
X129056961Y-149980315D01*
X129011206Y-149927511D01*
X129000000Y-149876000D01*
X129000000Y-110515635D01*
X129264500Y-110515635D01*
X129264500Y-134889365D01*
X129292460Y-135065898D01*
X129292460Y-135065901D01*
X129347689Y-135235878D01*
X129347691Y-135235881D01*
X129428833Y-135395132D01*
X129533889Y-135539728D01*
X129660272Y-135666111D01*
X129804868Y-135771167D01*
X129964119Y-135852309D01*
X129964121Y-135852310D01*
X130122670Y-135903825D01*
X130134103Y-135907540D01*
X130310634Y-135935500D01*
X130310635Y-135935500D01*
X130489365Y-135935500D01*
X130489366Y-135935500D01*
X130665897Y-135907540D01*
X130665900Y-135907539D01*
X130665901Y-135907539D01*
X130835878Y-135852310D01*
X130835878Y-135852309D01*
X130835881Y-135852309D01*
X130995132Y-135771167D01*
X131139728Y-135666111D01*
X131266111Y-135539728D01*
X131371167Y-135395132D01*
X131452309Y-135235881D01*
X131507540Y-135065897D01*
X131535500Y-134889366D01*
X131535500Y-111126701D01*
X131555185Y-111059662D01*
X131571819Y-111039020D01*
X131839020Y-110771819D01*
X131900343Y-110738334D01*
X131926701Y-110735500D01*
X132740446Y-110735500D01*
X132760802Y-110741477D01*
X132781986Y-110742665D01*
X132803558Y-110754031D01*
X132807485Y-110755185D01*
X132813219Y-110759101D01*
X132813327Y-110759179D01*
X132813330Y-110759180D01*
X132823656Y-110766683D01*
X132823733Y-110766722D01*
X132827705Y-110769601D01*
X132846269Y-110793620D01*
X132866630Y-110816152D01*
X132867429Y-110820997D01*
X132870433Y-110824883D01*
X132873065Y-110855130D01*
X132878011Y-110885089D01*
X132876064Y-110889597D01*
X132876490Y-110894489D01*
X132862352Y-110921355D01*
X132850315Y-110949235D01*
X132845474Y-110953428D01*
X132843953Y-110956321D01*
X132838713Y-110959287D01*
X132826914Y-110969511D01*
X132827598Y-110970453D01*
X132823656Y-110973316D01*
X132823656Y-110973317D01*
X132649949Y-111099523D01*
X132649947Y-111099525D01*
X132649946Y-111099525D01*
X132498125Y-111251346D01*
X132498125Y-111251347D01*
X132498123Y-111251349D01*
X132443922Y-111325949D01*
X132371917Y-111425055D01*
X132274438Y-111616366D01*
X132274437Y-111616369D01*
X132208089Y-111820571D01*
X132174500Y-112032643D01*
X132174500Y-112247356D01*
X132208089Y-112459428D01*
X132274437Y-112663630D01*
X132274438Y-112663633D01*
X132336075Y-112784601D01*
X132371917Y-112854944D01*
X132498123Y-113028651D01*
X132649949Y-113180477D01*
X132813216Y-113299098D01*
X132827598Y-113309547D01*
X132826224Y-113311437D01*
X132866630Y-113356152D01*
X132878011Y-113425089D01*
X132850315Y-113489235D01*
X132826914Y-113509511D01*
X132827598Y-113510453D01*
X132823656Y-113513316D01*
X132823656Y-113513317D01*
X132649949Y-113639523D01*
X132649947Y-113639525D01*
X132649946Y-113639525D01*
X132498125Y-113791346D01*
X132498125Y-113791347D01*
X132498123Y-113791349D01*
X132443922Y-113865949D01*
X132371917Y-113965055D01*
X132274438Y-114156366D01*
X132274437Y-114156369D01*
X132208089Y-114360571D01*
X132174500Y-114572643D01*
X132174500Y-114787356D01*
X132208089Y-114999428D01*
X132274437Y-115203630D01*
X132274438Y-115203633D01*
X132358312Y-115368243D01*
X132371917Y-115394944D01*
X132498123Y-115568651D01*
X132649949Y-115720477D01*
X132797187Y-115827452D01*
X132827598Y-115849547D01*
X132826224Y-115851437D01*
X132866630Y-115896152D01*
X132878011Y-115965089D01*
X132850315Y-116029235D01*
X132826914Y-116049511D01*
X132827598Y-116050453D01*
X132823656Y-116053316D01*
X132823656Y-116053317D01*
X132649949Y-116179523D01*
X132649947Y-116179525D01*
X132649946Y-116179525D01*
X132498125Y-116331346D01*
X132498125Y-116331347D01*
X132498123Y-116331349D01*
X132443922Y-116405949D01*
X132371917Y-116505055D01*
X132274438Y-116696366D01*
X132274437Y-116696369D01*
X132208089Y-116900571D01*
X132174500Y-117112643D01*
X132174500Y-117327356D01*
X132208089Y-117539428D01*
X132274437Y-117743630D01*
X132274438Y-117743633D01*
X132349238Y-117890434D01*
X132371917Y-117934944D01*
X132498123Y-118108651D01*
X132649949Y-118260477D01*
X132823656Y-118386683D01*
X132827598Y-118389547D01*
X132826224Y-118391437D01*
X132866630Y-118436152D01*
X132878011Y-118505089D01*
X132850315Y-118569235D01*
X132826914Y-118589511D01*
X132827598Y-118590453D01*
X132823656Y-118593316D01*
X132823656Y-118593317D01*
X132649949Y-118719523D01*
X132649947Y-118719525D01*
X132649946Y-118719525D01*
X132498125Y-118871346D01*
X132498125Y-118871347D01*
X132498123Y-118871349D01*
X132443922Y-118945949D01*
X132371917Y-119045055D01*
X132274438Y-119236366D01*
X132274437Y-119236369D01*
X132208089Y-119440571D01*
X132174500Y-119652643D01*
X132174500Y-119867356D01*
X132208089Y-120079428D01*
X132274437Y-120283630D01*
X132274438Y-120283633D01*
X132358312Y-120448243D01*
X132371917Y-120474944D01*
X132498123Y-120648651D01*
X132649949Y-120800477D01*
X132823656Y-120926683D01*
X132827598Y-120929547D01*
X132826224Y-120931437D01*
X132866630Y-120976152D01*
X132878011Y-121045089D01*
X132850315Y-121109235D01*
X132826914Y-121129511D01*
X132827598Y-121130453D01*
X132823656Y-121133316D01*
X132823656Y-121133317D01*
X132649949Y-121259523D01*
X132649947Y-121259525D01*
X132649946Y-121259525D01*
X132498125Y-121411346D01*
X132498125Y-121411347D01*
X132498123Y-121411349D01*
X132443922Y-121485949D01*
X132371917Y-121585055D01*
X132274438Y-121776366D01*
X132274437Y-121776369D01*
X132208089Y-121980571D01*
X132174500Y-122192643D01*
X132174500Y-122407356D01*
X132208089Y-122619428D01*
X132274437Y-122823630D01*
X132274438Y-122823633D01*
X132371917Y-123014944D01*
X132498123Y-123188651D01*
X132649949Y-123340477D01*
X132780229Y-123435131D01*
X132823657Y-123466684D01*
X132859439Y-123484916D01*
X132910234Y-123532890D01*
X132927029Y-123600711D01*
X132904491Y-123666846D01*
X132859439Y-123705884D01*
X132823657Y-123724115D01*
X132702136Y-123812406D01*
X132649949Y-123850323D01*
X132649947Y-123850325D01*
X132649946Y-123850325D01*
X132498125Y-124002146D01*
X132498125Y-124002147D01*
X132498123Y-124002149D01*
X132443922Y-124076749D01*
X132371917Y-124175855D01*
X132274438Y-124367166D01*
X132274437Y-124367169D01*
X132208089Y-124571371D01*
X132174500Y-124783443D01*
X132174500Y-124998156D01*
X132208089Y-125210228D01*
X132274437Y-125414430D01*
X132274438Y-125414433D01*
X132332428Y-125528243D01*
X132371917Y-125605744D01*
X132498123Y-125779451D01*
X132649949Y-125931277D01*
X132823656Y-126057483D01*
X132917488Y-126105292D01*
X133014966Y-126154961D01*
X133014969Y-126154962D01*
X133117070Y-126188136D01*
X133219173Y-126221311D01*
X133431243Y-126254900D01*
X133431244Y-126254900D01*
X134168756Y-126254900D01*
X134168757Y-126254900D01*
X134380827Y-126221311D01*
X134585033Y-126154961D01*
X134776344Y-126057483D01*
X134950051Y-125931277D01*
X135101877Y-125779451D01*
X135228083Y-125605744D01*
X135325561Y-125414433D01*
X135391911Y-125210227D01*
X135425500Y-124998157D01*
X135425500Y-124783443D01*
X135391911Y-124571373D01*
X135358736Y-124469270D01*
X135325562Y-124367169D01*
X135325561Y-124367166D01*
X135228082Y-124175855D01*
X135101877Y-124002149D01*
X134950051Y-123850323D01*
X134863197Y-123787220D01*
X134776342Y-123724115D01*
X134740562Y-123705885D01*
X134689765Y-123657911D01*
X134672970Y-123590090D01*
X134695507Y-123523955D01*
X134740562Y-123484915D01*
X134776342Y-123466684D01*
X134776341Y-123466684D01*
X134776344Y-123466683D01*
X134950051Y-123340477D01*
X135101877Y-123188651D01*
X135228083Y-123014944D01*
X135325561Y-122823633D01*
X135391911Y-122619427D01*
X135425500Y-122407357D01*
X135425500Y-122192643D01*
X135391911Y-121980573D01*
X135348776Y-121847815D01*
X135325562Y-121776369D01*
X135325561Y-121776366D01*
X135275892Y-121678888D01*
X135228083Y-121585056D01*
X135101877Y-121411349D01*
X134950051Y-121259523D01*
X134776344Y-121133317D01*
X134776343Y-121133316D01*
X134772402Y-121130453D01*
X134773805Y-121128521D01*
X134733478Y-121084073D01*
X134721958Y-121015160D01*
X134749525Y-120950958D01*
X134773109Y-120930521D01*
X134772402Y-120929547D01*
X134776344Y-120926683D01*
X134950051Y-120800477D01*
X135101877Y-120648651D01*
X135228083Y-120474944D01*
X135325561Y-120283633D01*
X135391911Y-120079427D01*
X135425500Y-119867357D01*
X135425500Y-119652643D01*
X135391911Y-119440573D01*
X135325561Y-119236367D01*
X135325561Y-119236366D01*
X135228082Y-119045055D01*
X135101877Y-118871349D01*
X134950051Y-118719523D01*
X134776344Y-118593317D01*
X134776343Y-118593316D01*
X134772402Y-118590453D01*
X134773805Y-118588521D01*
X134733478Y-118544073D01*
X134721958Y-118475160D01*
X134749525Y-118410958D01*
X134773109Y-118390521D01*
X134772402Y-118389547D01*
X134776344Y-118386683D01*
X134950051Y-118260477D01*
X135101877Y-118108651D01*
X135228083Y-117934944D01*
X135325561Y-117743633D01*
X135391911Y-117539427D01*
X135425500Y-117327357D01*
X135425500Y-117112643D01*
X135391911Y-116900573D01*
X135325561Y-116696367D01*
X135325561Y-116696366D01*
X135275892Y-116598888D01*
X135228083Y-116505056D01*
X135101877Y-116331349D01*
X134950051Y-116179523D01*
X134776344Y-116053317D01*
X134776343Y-116053316D01*
X134772402Y-116050453D01*
X134773805Y-116048521D01*
X134733478Y-116004073D01*
X134721958Y-115935160D01*
X134749525Y-115870958D01*
X134773109Y-115850521D01*
X134772402Y-115849547D01*
X134802813Y-115827452D01*
X134950051Y-115720477D01*
X135101877Y-115568651D01*
X135228083Y-115394944D01*
X135325561Y-115203633D01*
X135391911Y-114999427D01*
X135425500Y-114787357D01*
X135425500Y-114572643D01*
X135391911Y-114360573D01*
X135348776Y-114227815D01*
X135325562Y-114156369D01*
X135325561Y-114156366D01*
X135275892Y-114058888D01*
X135228083Y-113965056D01*
X135101877Y-113791349D01*
X134950051Y-113639523D01*
X134776344Y-113513317D01*
X134776343Y-113513316D01*
X134772402Y-113510453D01*
X134773805Y-113508521D01*
X134758279Y-113491408D01*
X134735331Y-113467741D01*
X134734910Y-113465651D01*
X134733478Y-113464073D01*
X134728042Y-113431558D01*
X134721534Y-113399247D01*
X134722309Y-113397262D01*
X134721958Y-113395160D01*
X134734961Y-113364876D01*
X134746958Y-113334167D01*
X134748890Y-113332435D01*
X134749525Y-113330958D01*
X134772297Y-113309598D01*
X134776259Y-113306726D01*
X134776344Y-113306683D01*
X134786784Y-113299098D01*
X134819541Y-113287452D01*
X134852474Y-113275702D01*
X134852605Y-113275698D01*
X134852617Y-113275694D01*
X134852631Y-113275697D01*
X134859554Y-113275500D01*
X135673299Y-113275500D01*
X135740338Y-113295185D01*
X135760980Y-113311819D01*
X135933681Y-113484520D01*
X135967166Y-113545843D01*
X135970000Y-113572201D01*
X135970000Y-145755565D01*
X135997960Y-145932098D01*
X135997960Y-145932101D01*
X136053189Y-146102078D01*
X136053191Y-146102081D01*
X136134333Y-146261332D01*
X136239389Y-146405928D01*
X136365772Y-146532311D01*
X136510368Y-146637367D01*
X136669619Y-146718509D01*
X136669621Y-146718510D01*
X136804690Y-146762396D01*
X136839603Y-146773740D01*
X137016134Y-146801700D01*
X137016135Y-146801700D01*
X137194865Y-146801700D01*
X137194866Y-146801700D01*
X137371397Y-146773740D01*
X137371400Y-146773739D01*
X137371401Y-146773739D01*
X137541378Y-146718510D01*
X137541378Y-146718509D01*
X137541381Y-146718509D01*
X137700632Y-146637367D01*
X137845228Y-146532311D01*
X137971611Y-146405928D01*
X138076667Y-146261332D01*
X138157809Y-146102081D01*
X138165667Y-146077896D01*
X138213039Y-145932101D01*
X138213039Y-145932100D01*
X138213040Y-145932097D01*
X138241000Y-145755566D01*
X138241000Y-120922643D01*
X138775900Y-120922643D01*
X138775900Y-121137356D01*
X138809489Y-121349428D01*
X138875837Y-121553630D01*
X138875838Y-121553633D01*
X138959712Y-121718243D01*
X138973317Y-121744944D01*
X139099523Y-121918651D01*
X139251349Y-122070477D01*
X139425056Y-122196683D01*
X139517711Y-122243893D01*
X139616366Y-122294161D01*
X139616369Y-122294162D01*
X139718470Y-122327336D01*
X139820573Y-122360511D01*
X140032643Y-122394100D01*
X140032644Y-122394100D01*
X140247356Y-122394100D01*
X140247357Y-122394100D01*
X140459427Y-122360511D01*
X140663633Y-122294161D01*
X140854944Y-122196683D01*
X141028651Y-122070477D01*
X141180477Y-121918651D01*
X141306683Y-121744944D01*
X141306683Y-121744943D01*
X141309547Y-121741002D01*
X141311478Y-121742405D01*
X141355927Y-121702078D01*
X141424840Y-121690558D01*
X141489042Y-121718125D01*
X141509478Y-121741709D01*
X141510453Y-121741002D01*
X141513316Y-121744943D01*
X141513317Y-121744944D01*
X141639523Y-121918651D01*
X141791349Y-122070477D01*
X141965056Y-122196683D01*
X142057711Y-122243893D01*
X142156366Y-122294161D01*
X142156369Y-122294162D01*
X142258470Y-122327336D01*
X142360573Y-122360511D01*
X142572643Y-122394100D01*
X142572644Y-122394100D01*
X142787356Y-122394100D01*
X142787357Y-122394100D01*
X142999427Y-122360511D01*
X143203633Y-122294161D01*
X143394944Y-122196683D01*
X143568651Y-122070477D01*
X143720477Y-121918651D01*
X143846683Y-121744944D01*
X143944161Y-121553633D01*
X144010511Y-121349427D01*
X144044100Y-121137357D01*
X144044100Y-120922643D01*
X144010511Y-120710573D01*
X143944161Y-120506367D01*
X143944161Y-120506366D01*
X143850245Y-120322047D01*
X143846683Y-120315056D01*
X143720477Y-120141349D01*
X143568651Y-119989523D01*
X143394944Y-119863317D01*
X143203633Y-119765838D01*
X143203630Y-119765837D01*
X142999428Y-119699489D01*
X142893392Y-119682694D01*
X142787357Y-119665900D01*
X142572643Y-119665900D01*
X142501953Y-119677096D01*
X142360571Y-119699489D01*
X142156369Y-119765837D01*
X142156366Y-119765838D01*
X141965055Y-119863317D01*
X141890338Y-119917603D01*
X141791349Y-119989523D01*
X141791347Y-119989525D01*
X141791346Y-119989525D01*
X141639525Y-120141346D01*
X141639525Y-120141347D01*
X141639523Y-120141349D01*
X141529803Y-120292365D01*
X141510453Y-120318998D01*
X141508562Y-120317624D01*
X141463848Y-120358030D01*
X141394911Y-120369411D01*
X141330765Y-120341715D01*
X141310488Y-120318314D01*
X141309547Y-120318998D01*
X141290197Y-120292365D01*
X141180477Y-120141349D01*
X141028651Y-119989523D01*
X140854944Y-119863317D01*
X140663633Y-119765838D01*
X140663630Y-119765837D01*
X140459428Y-119699489D01*
X140353392Y-119682694D01*
X140247357Y-119665900D01*
X140032643Y-119665900D01*
X139961953Y-119677096D01*
X139820571Y-119699489D01*
X139616369Y-119765837D01*
X139616366Y-119765838D01*
X139425055Y-119863317D01*
X139350338Y-119917603D01*
X139251349Y-119989523D01*
X139251347Y-119989525D01*
X139251346Y-119989525D01*
X139099525Y-120141346D01*
X139099525Y-120141347D01*
X139099523Y-120141349D01*
X139045322Y-120215949D01*
X138973317Y-120315055D01*
X138875838Y-120506366D01*
X138875837Y-120506369D01*
X138809489Y-120710571D01*
X138775900Y-120922643D01*
X138241000Y-120922643D01*
X138241000Y-112961134D01*
X138213040Y-112784603D01*
X138213039Y-112784599D01*
X138213039Y-112784598D01*
X138157810Y-112614621D01*
X138157808Y-112614618D01*
X138109463Y-112519734D01*
X138076667Y-112455368D01*
X137995174Y-112343203D01*
X137995174Y-112343202D01*
X137995172Y-112343201D01*
X137971611Y-112310771D01*
X136934728Y-111273889D01*
X136790132Y-111168833D01*
X136630881Y-111087691D01*
X136630875Y-111087688D01*
X136589194Y-111074146D01*
X136481089Y-111039020D01*
X136460897Y-111032459D01*
X136460895Y-111032458D01*
X136460894Y-111032458D01*
X136284370Y-111004500D01*
X136284366Y-111004500D01*
X134859554Y-111004500D01*
X134839201Y-110998523D01*
X134818018Y-110997337D01*
X134796441Y-110985968D01*
X134792515Y-110984815D01*
X134786784Y-110980902D01*
X134786753Y-110980879D01*
X134776344Y-110973317D01*
X134776259Y-110973273D01*
X134772297Y-110970402D01*
X134753800Y-110946471D01*
X134733478Y-110924073D01*
X134732647Y-110919105D01*
X134729568Y-110915121D01*
X134726945Y-110884997D01*
X134721958Y-110855160D01*
X134723945Y-110850530D01*
X134723509Y-110845514D01*
X134737593Y-110818746D01*
X134749525Y-110790958D01*
X134754468Y-110786674D01*
X134756043Y-110783682D01*
X134761464Y-110780611D01*
X134773109Y-110770521D01*
X134772402Y-110769547D01*
X134776344Y-110766683D01*
X134950051Y-110640477D01*
X135101877Y-110488651D01*
X135228083Y-110314944D01*
X135325561Y-110123633D01*
X135391911Y-109919427D01*
X135425500Y-109707357D01*
X135425500Y-109492643D01*
X135391911Y-109280573D01*
X135325561Y-109076367D01*
X135325561Y-109076366D01*
X135275892Y-108978888D01*
X135228083Y-108885056D01*
X135101877Y-108711349D01*
X134950051Y-108559523D01*
X134776344Y-108433317D01*
X134776343Y-108433316D01*
X134772402Y-108430453D01*
X134773805Y-108428521D01*
X134733478Y-108384073D01*
X134721958Y-108315160D01*
X134749525Y-108250958D01*
X134773109Y-108230521D01*
X134772402Y-108229547D01*
X134776344Y-108226683D01*
X134950051Y-108100477D01*
X135101877Y-107948651D01*
X135228083Y-107774944D01*
X135325561Y-107583633D01*
X135391911Y-107379427D01*
X135425500Y-107167357D01*
X135425500Y-106952643D01*
X135391911Y-106740573D01*
X135348776Y-106607815D01*
X135325562Y-106536369D01*
X135325561Y-106536366D01*
X135275892Y-106438888D01*
X135228083Y-106345056D01*
X135101877Y-106171349D01*
X134950051Y-106019523D01*
X134776344Y-105893317D01*
X134776343Y-105893316D01*
X134772402Y-105890453D01*
X134773805Y-105888521D01*
X134733478Y-105844073D01*
X134721958Y-105775160D01*
X134749525Y-105710958D01*
X134773109Y-105690521D01*
X134772402Y-105689547D01*
X134776344Y-105686683D01*
X134950051Y-105560477D01*
X135101877Y-105408651D01*
X135228083Y-105234944D01*
X135325561Y-105043633D01*
X135391911Y-104839427D01*
X135425500Y-104627357D01*
X135425500Y-104412643D01*
X135391911Y-104200573D01*
X135348776Y-104067815D01*
X135325562Y-103996369D01*
X135325561Y-103996366D01*
X135275892Y-103898888D01*
X135228083Y-103805056D01*
X135101877Y-103631349D01*
X134950051Y-103479523D01*
X134776344Y-103353317D01*
X134776343Y-103353316D01*
X134772402Y-103350453D01*
X134773805Y-103348521D01*
X134733478Y-103304073D01*
X134721958Y-103235160D01*
X134749525Y-103170958D01*
X134773109Y-103150521D01*
X134772402Y-103149547D01*
X134776344Y-103146683D01*
X134950051Y-103020477D01*
X135101877Y-102868651D01*
X135228083Y-102694944D01*
X135325561Y-102503633D01*
X135391911Y-102299427D01*
X135425500Y-102087357D01*
X135425500Y-101872643D01*
X135391911Y-101660573D01*
X135348776Y-101527815D01*
X135325562Y-101456369D01*
X135325561Y-101456366D01*
X135275892Y-101358888D01*
X135228083Y-101265056D01*
X135101877Y-101091349D01*
X134950051Y-100939523D01*
X134776344Y-100813317D01*
X134776343Y-100813316D01*
X134772402Y-100810453D01*
X134773805Y-100808521D01*
X134733478Y-100764073D01*
X134721958Y-100695160D01*
X134749525Y-100630958D01*
X134773109Y-100610521D01*
X134772402Y-100609547D01*
X134776344Y-100606683D01*
X134950051Y-100480477D01*
X135101877Y-100328651D01*
X135228083Y-100154944D01*
X135325561Y-99963633D01*
X135391911Y-99759427D01*
X135425500Y-99547357D01*
X135425500Y-99332643D01*
X135391911Y-99120573D01*
X135348776Y-98987815D01*
X135325562Y-98916369D01*
X135325561Y-98916366D01*
X135275892Y-98818888D01*
X135228083Y-98725056D01*
X135101877Y-98551349D01*
X134950051Y-98399523D01*
X134776344Y-98273317D01*
X134776343Y-98273316D01*
X134772402Y-98270453D01*
X134773805Y-98268521D01*
X134733478Y-98224073D01*
X134721958Y-98155160D01*
X134749525Y-98090958D01*
X134773109Y-98070521D01*
X134772402Y-98069547D01*
X134776344Y-98066683D01*
X134950051Y-97940477D01*
X135101877Y-97788651D01*
X135228083Y-97614944D01*
X135325561Y-97423633D01*
X135391911Y-97219427D01*
X135425500Y-97007357D01*
X135425500Y-96792643D01*
X135391911Y-96580573D01*
X135341033Y-96423985D01*
X135325562Y-96376369D01*
X135325561Y-96376366D01*
X135228082Y-96185055D01*
X135101877Y-96011349D01*
X134950051Y-95859523D01*
X134776344Y-95733317D01*
X134776343Y-95733316D01*
X134772402Y-95730453D01*
X134773805Y-95728521D01*
X134733478Y-95684073D01*
X134721958Y-95615160D01*
X134749525Y-95550958D01*
X134773109Y-95530521D01*
X134772402Y-95529547D01*
X134776344Y-95526683D01*
X134950051Y-95400477D01*
X135101877Y-95248651D01*
X135228083Y-95074944D01*
X135325561Y-94883633D01*
X135391911Y-94679427D01*
X135425500Y-94467357D01*
X135425500Y-94252643D01*
X135391911Y-94040573D01*
X135325561Y-93836367D01*
X135325561Y-93836366D01*
X135275892Y-93738888D01*
X135228083Y-93645056D01*
X135101877Y-93471349D01*
X134950051Y-93319523D01*
X134776344Y-93193317D01*
X134776343Y-93193316D01*
X134772402Y-93190453D01*
X134773805Y-93188521D01*
X134733478Y-93144073D01*
X134721958Y-93075160D01*
X134749525Y-93010958D01*
X134773109Y-92990521D01*
X134772402Y-92989547D01*
X134776344Y-92986683D01*
X134950051Y-92860477D01*
X135101877Y-92708651D01*
X135228083Y-92534944D01*
X135325561Y-92343633D01*
X135391911Y-92139427D01*
X135425500Y-91927357D01*
X135425500Y-91712643D01*
X135391911Y-91500573D01*
X135348776Y-91367815D01*
X135325562Y-91296369D01*
X135325561Y-91296366D01*
X135275892Y-91198888D01*
X135228083Y-91105056D01*
X135101877Y-90931349D01*
X134950051Y-90779523D01*
X134776344Y-90653317D01*
X134776343Y-90653316D01*
X134772402Y-90650453D01*
X134773805Y-90648521D01*
X134733478Y-90604073D01*
X134721958Y-90535160D01*
X134749525Y-90470958D01*
X134773109Y-90450521D01*
X134772402Y-90449547D01*
X134776344Y-90446683D01*
X134950051Y-90320477D01*
X135101877Y-90168651D01*
X135228083Y-89994944D01*
X135325561Y-89803633D01*
X135391911Y-89599427D01*
X135425500Y-89387357D01*
X135425500Y-89172643D01*
X135391911Y-88960573D01*
X135348776Y-88827815D01*
X135325562Y-88756369D01*
X135325561Y-88756366D01*
X135275892Y-88658888D01*
X135228083Y-88565056D01*
X135101877Y-88391349D01*
X134950051Y-88239523D01*
X134776344Y-88113317D01*
X134776343Y-88113316D01*
X134772402Y-88110453D01*
X134773805Y-88108521D01*
X134733478Y-88064073D01*
X134721958Y-87995160D01*
X134749525Y-87930958D01*
X134773109Y-87910521D01*
X134772402Y-87909547D01*
X134776344Y-87906683D01*
X134950051Y-87780477D01*
X135101877Y-87628651D01*
X135228083Y-87454944D01*
X135325561Y-87263633D01*
X135391911Y-87059427D01*
X135425500Y-86847357D01*
X135425500Y-86632643D01*
X135391911Y-86420573D01*
X135348776Y-86287815D01*
X135325562Y-86216369D01*
X135325561Y-86216366D01*
X135275892Y-86118888D01*
X135228083Y-86025056D01*
X135101877Y-85851349D01*
X134950051Y-85699523D01*
X134776344Y-85573317D01*
X134776343Y-85573316D01*
X134772402Y-85570453D01*
X134773805Y-85568521D01*
X134733478Y-85524073D01*
X134721958Y-85455160D01*
X134749525Y-85390958D01*
X134773109Y-85370521D01*
X134772402Y-85369547D01*
X134776344Y-85366683D01*
X134950051Y-85240477D01*
X135101877Y-85088651D01*
X135228083Y-84914944D01*
X135325561Y-84723633D01*
X135391911Y-84519427D01*
X135425500Y-84307357D01*
X135425500Y-84092643D01*
X135391911Y-83880573D01*
X135348776Y-83747815D01*
X135325562Y-83676369D01*
X135325561Y-83676366D01*
X135257800Y-83543379D01*
X135228083Y-83485056D01*
X135101877Y-83311349D01*
X134950051Y-83159523D01*
X134776344Y-83033317D01*
X134776343Y-83033316D01*
X134772402Y-83030453D01*
X134773805Y-83028521D01*
X134733478Y-82984073D01*
X134721958Y-82915160D01*
X134749525Y-82850958D01*
X134773109Y-82830521D01*
X134772402Y-82829547D01*
X134796012Y-82812393D01*
X134950051Y-82700477D01*
X135101877Y-82548651D01*
X135228083Y-82374944D01*
X135325561Y-82183633D01*
X135391911Y-81979427D01*
X135425500Y-81767357D01*
X135425500Y-81552643D01*
X135391911Y-81340573D01*
X135348776Y-81207815D01*
X135325562Y-81136369D01*
X135325561Y-81136366D01*
X135275892Y-81038888D01*
X135228083Y-80945056D01*
X135101877Y-80771349D01*
X134950051Y-80619523D01*
X134776344Y-80493317D01*
X134776343Y-80493316D01*
X134772402Y-80490453D01*
X134773805Y-80488521D01*
X134733478Y-80444073D01*
X134721958Y-80375160D01*
X134749525Y-80310958D01*
X134773109Y-80290521D01*
X134772402Y-80289547D01*
X134776344Y-80286683D01*
X134950051Y-80160477D01*
X135101877Y-80008651D01*
X135228083Y-79834944D01*
X135325561Y-79643633D01*
X135391911Y-79439427D01*
X135425500Y-79227357D01*
X135425500Y-79012643D01*
X135391911Y-78800573D01*
X135348776Y-78667815D01*
X135325562Y-78596369D01*
X135325561Y-78596366D01*
X135275892Y-78498888D01*
X135228083Y-78405056D01*
X135101877Y-78231349D01*
X134950051Y-78079523D01*
X134776344Y-77953317D01*
X134776343Y-77953316D01*
X134772402Y-77950453D01*
X134773805Y-77948521D01*
X134733478Y-77904073D01*
X134721958Y-77835160D01*
X134749525Y-77770958D01*
X134773109Y-77750521D01*
X134772402Y-77749547D01*
X134776344Y-77746683D01*
X134950051Y-77620477D01*
X135101877Y-77468651D01*
X135228083Y-77294944D01*
X135325561Y-77103633D01*
X135391911Y-76899427D01*
X135425500Y-76687357D01*
X135425500Y-76472643D01*
X135391911Y-76260573D01*
X135348775Y-76127812D01*
X135325562Y-76056369D01*
X135325561Y-76056366D01*
X135275892Y-75958888D01*
X135228083Y-75865056D01*
X135101877Y-75691349D01*
X134950051Y-75539523D01*
X134776344Y-75413317D01*
X134773855Y-75412049D01*
X134585033Y-75315838D01*
X134585030Y-75315837D01*
X134380828Y-75249489D01*
X134274792Y-75232694D01*
X134168757Y-75215900D01*
X133431243Y-75215900D01*
X133360553Y-75227096D01*
X133219171Y-75249489D01*
X133014969Y-75315837D01*
X133014966Y-75315838D01*
X132823655Y-75413317D01*
X132748938Y-75467603D01*
X132649949Y-75539523D01*
X132649947Y-75539525D01*
X132649946Y-75539525D01*
X132498125Y-75691346D01*
X132498125Y-75691347D01*
X132498123Y-75691349D01*
X132463416Y-75739119D01*
X132371917Y-75865055D01*
X132274438Y-76056366D01*
X132274437Y-76056369D01*
X132208089Y-76260571D01*
X132174500Y-76472643D01*
X132174500Y-76687356D01*
X132208089Y-76899428D01*
X132274437Y-77103630D01*
X132274438Y-77103633D01*
X132371917Y-77294944D01*
X132498123Y-77468651D01*
X132649949Y-77620477D01*
X132823656Y-77746683D01*
X132827598Y-77749547D01*
X132826224Y-77751437D01*
X132866630Y-77796152D01*
X132878011Y-77865089D01*
X132850315Y-77929235D01*
X132826914Y-77949511D01*
X132827598Y-77950453D01*
X132823656Y-77953316D01*
X132823656Y-77953317D01*
X132649949Y-78079523D01*
X132649947Y-78079525D01*
X132649946Y-78079525D01*
X132498125Y-78231346D01*
X132498125Y-78231347D01*
X132498123Y-78231349D01*
X132443922Y-78305949D01*
X132371917Y-78405055D01*
X132274438Y-78596366D01*
X132274437Y-78596369D01*
X132208089Y-78800571D01*
X132174500Y-79012643D01*
X132174500Y-79227356D01*
X132208089Y-79439428D01*
X132274437Y-79643630D01*
X132274438Y-79643633D01*
X132353857Y-79799499D01*
X132371917Y-79834944D01*
X132498123Y-80008651D01*
X132649949Y-80160477D01*
X132823656Y-80286683D01*
X132827598Y-80289547D01*
X132826224Y-80291437D01*
X132866630Y-80336152D01*
X132878011Y-80405089D01*
X132850315Y-80469235D01*
X132826914Y-80489511D01*
X132827598Y-80490453D01*
X132823656Y-80493316D01*
X132823656Y-80493317D01*
X132649949Y-80619523D01*
X132649947Y-80619525D01*
X132649946Y-80619525D01*
X132498125Y-80771346D01*
X132498125Y-80771347D01*
X132498123Y-80771349D01*
X132443922Y-80845949D01*
X132371917Y-80945055D01*
X132274438Y-81136366D01*
X132274437Y-81136369D01*
X132208089Y-81340571D01*
X132174500Y-81552643D01*
X132174500Y-81767356D01*
X132208089Y-81979428D01*
X132274437Y-82183630D01*
X132274438Y-82183633D01*
X132358312Y-82348243D01*
X132371917Y-82374944D01*
X132498123Y-82548651D01*
X132649949Y-82700477D01*
X132803988Y-82812393D01*
X132827598Y-82829547D01*
X132826224Y-82831437D01*
X132866630Y-82876152D01*
X132878011Y-82945089D01*
X132850315Y-83009235D01*
X132826914Y-83029511D01*
X132827598Y-83030453D01*
X132823656Y-83033316D01*
X132823656Y-83033317D01*
X132649949Y-83159523D01*
X132649947Y-83159525D01*
X132649946Y-83159525D01*
X132498125Y-83311346D01*
X132498125Y-83311347D01*
X132498123Y-83311349D01*
X132453047Y-83373391D01*
X132371917Y-83485055D01*
X132274438Y-83676366D01*
X132274437Y-83676369D01*
X132208089Y-83880571D01*
X132174500Y-84092643D01*
X132174500Y-84307356D01*
X132208089Y-84519428D01*
X132274437Y-84723630D01*
X132274438Y-84723633D01*
X132358312Y-84888243D01*
X132371917Y-84914944D01*
X132498123Y-85088651D01*
X132649949Y-85240477D01*
X132823656Y-85366683D01*
X132827598Y-85369547D01*
X132826224Y-85371437D01*
X132866630Y-85416152D01*
X132878011Y-85485089D01*
X132850315Y-85549235D01*
X132826914Y-85569511D01*
X132827598Y-85570453D01*
X132823656Y-85573316D01*
X132823656Y-85573317D01*
X132649949Y-85699523D01*
X132649947Y-85699525D01*
X132649946Y-85699525D01*
X132498125Y-85851346D01*
X132498125Y-85851347D01*
X132498123Y-85851349D01*
X132443922Y-85925949D01*
X132371917Y-86025055D01*
X132274438Y-86216366D01*
X132274437Y-86216369D01*
X132208089Y-86420571D01*
X132174500Y-86632643D01*
X132174500Y-86847356D01*
X132208089Y-87059428D01*
X132274437Y-87263630D01*
X132274438Y-87263633D01*
X132358312Y-87428243D01*
X132371917Y-87454944D01*
X132498123Y-87628651D01*
X132649949Y-87780477D01*
X132823656Y-87906683D01*
X132827598Y-87909547D01*
X132826224Y-87911437D01*
X132866630Y-87956152D01*
X132878011Y-88025089D01*
X132850315Y-88089235D01*
X132826914Y-88109511D01*
X132827598Y-88110453D01*
X132823656Y-88113316D01*
X132823656Y-88113317D01*
X132649949Y-88239523D01*
X132649947Y-88239525D01*
X132649946Y-88239525D01*
X132498125Y-88391346D01*
X132498125Y-88391347D01*
X132498123Y-88391349D01*
X132443922Y-88465949D01*
X132371917Y-88565055D01*
X132274438Y-88756366D01*
X132274437Y-88756369D01*
X132208089Y-88960571D01*
X132174500Y-89172643D01*
X132174500Y-89387356D01*
X132208089Y-89599428D01*
X132274437Y-89803630D01*
X132274438Y-89803633D01*
X132358312Y-89968243D01*
X132371917Y-89994944D01*
X132498123Y-90168651D01*
X132649949Y-90320477D01*
X132823656Y-90446683D01*
X132827598Y-90449547D01*
X132826224Y-90451437D01*
X132866630Y-90496152D01*
X132878011Y-90565089D01*
X132850315Y-90629235D01*
X132826914Y-90649511D01*
X132827598Y-90650453D01*
X132823656Y-90653316D01*
X132823656Y-90653317D01*
X132649949Y-90779523D01*
X132649947Y-90779525D01*
X132649946Y-90779525D01*
X132498125Y-90931346D01*
X132498125Y-90931347D01*
X132498123Y-90931349D01*
X132443922Y-91005949D01*
X132371917Y-91105055D01*
X132274438Y-91296366D01*
X132274437Y-91296369D01*
X132208089Y-91500571D01*
X132174500Y-91712643D01*
X132174500Y-91927356D01*
X132208089Y-92139428D01*
X132274437Y-92343630D01*
X132274438Y-92343633D01*
X132358312Y-92508243D01*
X132371917Y-92534944D01*
X132498123Y-92708651D01*
X132649949Y-92860477D01*
X132823656Y-92986683D01*
X132827598Y-92989547D01*
X132826224Y-92991437D01*
X132866630Y-93036152D01*
X132878011Y-93105089D01*
X132850315Y-93169235D01*
X132826914Y-93189511D01*
X132827598Y-93190453D01*
X132823656Y-93193316D01*
X132823656Y-93193317D01*
X132649949Y-93319523D01*
X132649947Y-93319525D01*
X132649946Y-93319525D01*
X132498125Y-93471346D01*
X132498125Y-93471347D01*
X132498123Y-93471349D01*
X132443922Y-93545949D01*
X132371917Y-93645055D01*
X132274438Y-93836366D01*
X132274437Y-93836369D01*
X132208089Y-94040571D01*
X132174500Y-94252643D01*
X132174500Y-94467356D01*
X132208089Y-94679428D01*
X132274437Y-94883630D01*
X132274438Y-94883633D01*
X132358312Y-95048243D01*
X132371917Y-95074944D01*
X132498123Y-95248651D01*
X132649949Y-95400477D01*
X132823656Y-95526683D01*
X132827598Y-95529547D01*
X132826224Y-95531437D01*
X132866630Y-95576152D01*
X132878011Y-95645089D01*
X132850315Y-95709235D01*
X132826914Y-95729511D01*
X132827598Y-95730453D01*
X132823656Y-95733316D01*
X132823656Y-95733317D01*
X132649949Y-95859523D01*
X132649947Y-95859525D01*
X132649946Y-95859525D01*
X132498125Y-96011346D01*
X132498125Y-96011347D01*
X132498123Y-96011349D01*
X132443922Y-96085949D01*
X132371917Y-96185055D01*
X132274438Y-96376366D01*
X132274437Y-96376369D01*
X132208089Y-96580571D01*
X132174500Y-96792643D01*
X132174500Y-97007356D01*
X132208089Y-97219428D01*
X132274437Y-97423630D01*
X132274438Y-97423633D01*
X132358312Y-97588243D01*
X132371917Y-97614944D01*
X132498123Y-97788651D01*
X132649949Y-97940477D01*
X132723141Y-97993654D01*
X132827598Y-98069547D01*
X132826224Y-98071437D01*
X132866630Y-98116152D01*
X132878011Y-98185089D01*
X132850315Y-98249235D01*
X132826914Y-98269511D01*
X132827598Y-98270453D01*
X132823656Y-98273316D01*
X132823656Y-98273317D01*
X132649949Y-98399523D01*
X132649947Y-98399525D01*
X132649946Y-98399525D01*
X132498125Y-98551346D01*
X132498125Y-98551347D01*
X132498123Y-98551349D01*
X132443922Y-98625949D01*
X132371917Y-98725055D01*
X132274438Y-98916366D01*
X132274437Y-98916369D01*
X132208089Y-99120571D01*
X132174500Y-99332643D01*
X132174500Y-99547356D01*
X132208089Y-99759428D01*
X132274437Y-99963630D01*
X132274438Y-99963633D01*
X132358312Y-100128243D01*
X132371917Y-100154944D01*
X132498123Y-100328651D01*
X132649949Y-100480477D01*
X132823656Y-100606683D01*
X132827598Y-100609547D01*
X132826224Y-100611437D01*
X132866630Y-100656152D01*
X132878011Y-100725089D01*
X132850315Y-100789235D01*
X132826914Y-100809511D01*
X132827598Y-100810453D01*
X132823656Y-100813316D01*
X132823656Y-100813317D01*
X132649949Y-100939523D01*
X132649947Y-100939525D01*
X132649946Y-100939525D01*
X132498125Y-101091346D01*
X132498125Y-101091347D01*
X132498123Y-101091349D01*
X132443922Y-101165949D01*
X132371917Y-101265055D01*
X132274438Y-101456366D01*
X132274437Y-101456369D01*
X132208089Y-101660571D01*
X132174500Y-101872643D01*
X132174500Y-102087356D01*
X132208089Y-102299428D01*
X132274437Y-102503630D01*
X132274438Y-102503633D01*
X132358312Y-102668243D01*
X132371917Y-102694944D01*
X132498123Y-102868651D01*
X132649949Y-103020477D01*
X132823656Y-103146683D01*
X132827598Y-103149547D01*
X132826224Y-103151437D01*
X132866630Y-103196152D01*
X132878011Y-103265089D01*
X132850315Y-103329235D01*
X132826914Y-103349511D01*
X132827598Y-103350453D01*
X132823656Y-103353316D01*
X132823656Y-103353317D01*
X132649949Y-103479523D01*
X132649947Y-103479525D01*
X132649946Y-103479525D01*
X132498125Y-103631346D01*
X132498125Y-103631347D01*
X132498123Y-103631349D01*
X132443922Y-103705949D01*
X132371917Y-103805055D01*
X132274438Y-103996366D01*
X132274437Y-103996369D01*
X132208089Y-104200571D01*
X132174500Y-104412643D01*
X132174500Y-104627356D01*
X132208089Y-104839428D01*
X132274437Y-105043630D01*
X132274438Y-105043633D01*
X132358312Y-105208243D01*
X132371917Y-105234944D01*
X132498123Y-105408651D01*
X132649949Y-105560477D01*
X132823656Y-105686683D01*
X132827598Y-105689547D01*
X132826224Y-105691437D01*
X132866630Y-105736152D01*
X132878011Y-105805089D01*
X132850315Y-105869235D01*
X132826914Y-105889511D01*
X132827598Y-105890453D01*
X132823656Y-105893316D01*
X132823656Y-105893317D01*
X132649949Y-106019523D01*
X132649947Y-106019525D01*
X132649946Y-106019525D01*
X132498125Y-106171346D01*
X132498125Y-106171347D01*
X132498123Y-106171349D01*
X132443922Y-106245949D01*
X132371917Y-106345055D01*
X132274438Y-106536366D01*
X132274437Y-106536369D01*
X132208089Y-106740571D01*
X132174500Y-106952643D01*
X132174500Y-107167356D01*
X132208089Y-107379428D01*
X132274437Y-107583630D01*
X132274438Y-107583633D01*
X132371917Y-107774944D01*
X132498123Y-107948651D01*
X132649949Y-108100477D01*
X132823656Y-108226683D01*
X132827598Y-108229547D01*
X132826224Y-108231437D01*
X132841814Y-108248690D01*
X132864666Y-108272256D01*
X132865112Y-108274472D01*
X132866630Y-108276152D01*
X132871981Y-108308568D01*
X132878465Y-108340749D01*
X132877642Y-108342855D01*
X132878011Y-108345089D01*
X132864984Y-108375258D01*
X132853043Y-108405830D01*
X132850988Y-108407674D01*
X132850315Y-108409235D01*
X132827705Y-108430399D01*
X132823732Y-108433278D01*
X132823656Y-108433317D01*
X132814506Y-108439964D01*
X132813860Y-108440433D01*
X132813332Y-108440818D01*
X132813329Y-108440818D01*
X132813219Y-108440899D01*
X132780669Y-108452472D01*
X132747526Y-108464298D01*
X132747399Y-108464301D01*
X132747387Y-108464306D01*
X132747371Y-108464302D01*
X132740446Y-108464500D01*
X131315630Y-108464500D01*
X131139102Y-108492459D01*
X131057287Y-108519042D01*
X130969120Y-108547690D01*
X130969118Y-108547690D01*
X130969118Y-108547691D01*
X130945897Y-108559523D01*
X130809867Y-108628833D01*
X130665270Y-108733890D01*
X129533890Y-109865270D01*
X129428833Y-110009867D01*
X129347243Y-110169997D01*
X129346184Y-110173754D01*
X129292459Y-110339101D01*
X129292457Y-110339110D01*
X129268774Y-110488649D01*
X129268774Y-110488651D01*
X129264500Y-110515635D01*
X129000000Y-110515635D01*
X129000000Y-75019434D01*
X143729300Y-75019434D01*
X143729300Y-75023080D01*
X143729300Y-118069170D01*
X143757258Y-118245694D01*
X143778724Y-118311758D01*
X143812492Y-118415685D01*
X143893633Y-118574932D01*
X143949961Y-118652460D01*
X143949960Y-118652460D01*
X143994832Y-118714220D01*
X143998689Y-118719528D01*
X145778889Y-120499728D01*
X145905272Y-120626111D01*
X146001669Y-120696148D01*
X146049869Y-120731168D01*
X146106890Y-120760221D01*
X146209119Y-120812309D01*
X146250802Y-120825851D01*
X146250804Y-120825853D01*
X146250805Y-120825853D01*
X146282880Y-120836275D01*
X146379103Y-120867541D01*
X146454759Y-120879523D01*
X146555630Y-120895500D01*
X146555634Y-120895500D01*
X147980446Y-120895500D01*
X148000802Y-120901477D01*
X148021986Y-120902665D01*
X148043558Y-120914031D01*
X148047485Y-120915185D01*
X148053219Y-120919101D01*
X148053327Y-120919179D01*
X148053330Y-120919180D01*
X148063656Y-120926683D01*
X148063733Y-120926722D01*
X148067705Y-120929601D01*
X148086269Y-120953620D01*
X148106630Y-120976152D01*
X148107429Y-120980997D01*
X148110433Y-120984883D01*
X148113065Y-121015130D01*
X148118011Y-121045089D01*
X148116064Y-121049597D01*
X148116490Y-121054489D01*
X148102352Y-121081355D01*
X148090315Y-121109235D01*
X148085474Y-121113428D01*
X148083953Y-121116321D01*
X148078713Y-121119287D01*
X148066914Y-121129511D01*
X148067598Y-121130453D01*
X148063656Y-121133316D01*
X148063656Y-121133317D01*
X147889949Y-121259523D01*
X147889947Y-121259525D01*
X147889946Y-121259525D01*
X147738125Y-121411346D01*
X147738125Y-121411347D01*
X147738123Y-121411349D01*
X147683922Y-121485949D01*
X147611917Y-121585055D01*
X147514438Y-121776366D01*
X147514437Y-121776369D01*
X147448089Y-121980571D01*
X147414500Y-122192643D01*
X147414500Y-122407356D01*
X147448089Y-122619428D01*
X147514437Y-122823630D01*
X147514438Y-122823633D01*
X147611917Y-123014944D01*
X147738123Y-123188651D01*
X147738125Y-123188653D01*
X147834423Y-123284951D01*
X147867908Y-123346274D01*
X147862924Y-123415966D01*
X147821052Y-123471899D01*
X147790075Y-123488814D01*
X147672671Y-123532602D01*
X147672664Y-123532606D01*
X147557455Y-123618852D01*
X147557452Y-123618855D01*
X147471206Y-123734064D01*
X147471202Y-123734071D01*
X147420908Y-123868917D01*
X147415159Y-123922394D01*
X147414501Y-123928523D01*
X147414500Y-123928535D01*
X147414500Y-125751470D01*
X147414501Y-125751476D01*
X147420908Y-125811083D01*
X147471202Y-125945928D01*
X147471206Y-125945935D01*
X147557452Y-126061144D01*
X147557455Y-126061147D01*
X147672664Y-126147393D01*
X147672671Y-126147397D01*
X147807517Y-126197691D01*
X147807516Y-126197691D01*
X147814444Y-126198435D01*
X147867127Y-126204100D01*
X150212872Y-126204099D01*
X150272483Y-126197691D01*
X150407331Y-126147396D01*
X150522546Y-126061146D01*
X150608796Y-125945931D01*
X150659091Y-125811083D01*
X150665500Y-125751473D01*
X150665499Y-123928528D01*
X150659091Y-123868917D01*
X150608796Y-123734069D01*
X150608795Y-123734068D01*
X150608793Y-123734064D01*
X150522547Y-123618855D01*
X150522544Y-123618852D01*
X150407335Y-123532606D01*
X150407328Y-123532602D01*
X150289924Y-123488814D01*
X150233990Y-123446943D01*
X150209573Y-123381479D01*
X150224424Y-123313206D01*
X150245570Y-123284957D01*
X150341877Y-123188651D01*
X150468083Y-123014944D01*
X150565561Y-122823633D01*
X150631911Y-122619427D01*
X150665500Y-122407357D01*
X150665500Y-122192643D01*
X150631911Y-121980573D01*
X150588776Y-121847815D01*
X150565562Y-121776369D01*
X150565561Y-121776366D01*
X150515892Y-121678888D01*
X150468083Y-121585056D01*
X150341877Y-121411349D01*
X150190051Y-121259523D01*
X150016344Y-121133317D01*
X150016343Y-121133316D01*
X150012402Y-121130453D01*
X150013805Y-121128521D01*
X149973478Y-121084073D01*
X149961958Y-121015160D01*
X149989525Y-120950958D01*
X150013109Y-120930521D01*
X150012402Y-120929547D01*
X150016344Y-120926683D01*
X150190051Y-120800477D01*
X150341877Y-120648651D01*
X150468083Y-120474944D01*
X150565561Y-120283633D01*
X150631911Y-120079427D01*
X150665500Y-119867357D01*
X150665500Y-119652643D01*
X150631911Y-119440573D01*
X150565561Y-119236367D01*
X150565561Y-119236366D01*
X150468082Y-119045055D01*
X150341877Y-118871349D01*
X150190051Y-118719523D01*
X150016344Y-118593317D01*
X150016343Y-118593316D01*
X150012402Y-118590453D01*
X150013805Y-118588521D01*
X149973478Y-118544073D01*
X149961958Y-118475160D01*
X149989525Y-118410958D01*
X150013109Y-118390521D01*
X150012402Y-118389547D01*
X150016344Y-118386683D01*
X150190051Y-118260477D01*
X150341877Y-118108651D01*
X150468083Y-117934944D01*
X150565561Y-117743633D01*
X150631911Y-117539427D01*
X150665500Y-117327357D01*
X150665500Y-117112643D01*
X150631911Y-116900573D01*
X150565561Y-116696367D01*
X150565561Y-116696366D01*
X150515892Y-116598888D01*
X150468083Y-116505056D01*
X150341877Y-116331349D01*
X150190051Y-116179523D01*
X150016344Y-116053317D01*
X150016343Y-116053316D01*
X150012402Y-116050453D01*
X150013805Y-116048521D01*
X149998279Y-116031408D01*
X149975331Y-116007741D01*
X149974910Y-116005651D01*
X149973478Y-116004073D01*
X149968042Y-115971558D01*
X149961534Y-115939247D01*
X149962309Y-115937262D01*
X149961958Y-115935160D01*
X149974961Y-115904876D01*
X149986958Y-115874167D01*
X149988890Y-115872435D01*
X149989525Y-115870958D01*
X150012297Y-115849598D01*
X150016259Y-115846726D01*
X150016344Y-115846683D01*
X150026784Y-115839098D01*
X150059541Y-115827452D01*
X150092474Y-115815702D01*
X150092605Y-115815698D01*
X150092617Y-115815694D01*
X150092631Y-115815697D01*
X150099554Y-115815500D01*
X151524370Y-115815500D01*
X151602824Y-115803073D01*
X151700897Y-115787541D01*
X151829193Y-115745853D01*
X151870881Y-115732309D01*
X152030132Y-115651167D01*
X152174728Y-115546111D01*
X152301111Y-115419728D01*
X154372011Y-113348828D01*
X154402631Y-113306683D01*
X154477067Y-113204232D01*
X154558209Y-113044981D01*
X154572140Y-113002105D01*
X154613441Y-112874997D01*
X154640833Y-112702047D01*
X154641400Y-112698470D01*
X154641400Y-98335530D01*
X154959600Y-98335530D01*
X154959600Y-139060565D01*
X154987560Y-139237098D01*
X154987560Y-139237101D01*
X155042789Y-139407078D01*
X155042791Y-139407081D01*
X155123933Y-139566332D01*
X155228989Y-139710928D01*
X155355372Y-139837311D01*
X155499968Y-139942367D01*
X155659219Y-140023509D01*
X155659221Y-140023510D01*
X155817770Y-140075025D01*
X155829203Y-140078740D01*
X156005734Y-140106700D01*
X156005735Y-140106700D01*
X156184465Y-140106700D01*
X156184466Y-140106700D01*
X156360997Y-140078740D01*
X156361000Y-140078739D01*
X156361001Y-140078739D01*
X156530978Y-140023510D01*
X156530978Y-140023509D01*
X156530981Y-140023509D01*
X156690232Y-139942367D01*
X156834828Y-139837311D01*
X156961211Y-139710928D01*
X157066267Y-139566332D01*
X157147409Y-139407081D01*
X157158792Y-139372047D01*
X157202639Y-139237101D01*
X157202639Y-139237100D01*
X157202640Y-139237097D01*
X157230600Y-139060566D01*
X157230600Y-98946601D01*
X157250285Y-98879562D01*
X157266919Y-98858920D01*
X159696111Y-96429728D01*
X159700284Y-96423985D01*
X159710606Y-96409778D01*
X159801167Y-96285132D01*
X159882309Y-96125881D01*
X159919523Y-96011349D01*
X159937541Y-95955897D01*
X159949523Y-95880240D01*
X159965500Y-95779370D01*
X159965500Y-94743595D01*
X159985185Y-94676556D01*
X160016614Y-94643277D01*
X160092365Y-94588242D01*
X160248242Y-94432365D01*
X160288281Y-94377256D01*
X160343611Y-94334589D01*
X160413224Y-94328610D01*
X160475019Y-94361215D01*
X160509377Y-94422053D01*
X160512600Y-94450140D01*
X160512600Y-98873599D01*
X160492915Y-98940638D01*
X160476281Y-98961280D01*
X160111891Y-99325669D01*
X160111890Y-99325670D01*
X160006833Y-99470267D01*
X159925243Y-99630397D01*
X159924184Y-99634154D01*
X159870459Y-99799501D01*
X159870457Y-99799510D01*
X159849302Y-99933088D01*
X159849302Y-99933089D01*
X159842500Y-99976034D01*
X159842500Y-138559599D01*
X159822815Y-138626638D01*
X159806181Y-138647280D01*
X155339691Y-143113769D01*
X155339691Y-143113770D01*
X155339689Y-143113772D01*
X155294571Y-143175870D01*
X155234633Y-143258368D01*
X155153492Y-143417615D01*
X155134126Y-143477219D01*
X155098259Y-143587603D01*
X155098258Y-143587606D01*
X155098258Y-143587608D01*
X155070300Y-143764129D01*
X155070300Y-143942870D01*
X155098258Y-144119391D01*
X155098259Y-144119397D01*
X155138224Y-144242393D01*
X155153492Y-144289384D01*
X155221246Y-144422358D01*
X155234633Y-144448631D01*
X155339689Y-144593228D01*
X155466072Y-144719611D01*
X155610669Y-144824667D01*
X155685909Y-144863003D01*
X155769915Y-144905807D01*
X155769917Y-144905807D01*
X155769920Y-144905809D01*
X155939903Y-144961041D01*
X156037975Y-144976573D01*
X156116430Y-144989000D01*
X156116434Y-144989000D01*
X156295170Y-144989000D01*
X156365778Y-144977816D01*
X156471697Y-144961041D01*
X156641680Y-144905809D01*
X156800931Y-144824667D01*
X156945528Y-144719611D01*
X161844111Y-139821028D01*
X161902301Y-139740937D01*
X161949167Y-139676432D01*
X162030309Y-139517181D01*
X162044306Y-139474104D01*
X162044307Y-139474102D01*
X162076147Y-139376107D01*
X162085541Y-139347197D01*
X162102978Y-139237101D01*
X162113500Y-139170670D01*
X162113500Y-102068201D01*
X162133185Y-102001162D01*
X162185989Y-101955407D01*
X162255147Y-101945463D01*
X162318703Y-101974488D01*
X162325181Y-101980520D01*
X171488181Y-111143520D01*
X171521666Y-111204843D01*
X171524500Y-111231201D01*
X171524500Y-146439918D01*
X171504815Y-146506957D01*
X171500818Y-146512803D01*
X171462187Y-146565974D01*
X171362104Y-146762393D01*
X171362103Y-146762396D01*
X171293985Y-146972047D01*
X171259500Y-147189778D01*
X171259500Y-147610221D01*
X171293985Y-147827952D01*
X171362103Y-148037603D01*
X171362104Y-148037606D01*
X171414139Y-148139728D01*
X171457129Y-148224100D01*
X171462187Y-148234025D01*
X171591752Y-148412358D01*
X171591756Y-148412363D01*
X171747636Y-148568243D01*
X171747641Y-148568247D01*
X171903192Y-148681260D01*
X171925978Y-148697815D01*
X172054375Y-148763237D01*
X172122393Y-148797895D01*
X172122396Y-148797896D01*
X172227221Y-148831955D01*
X172332049Y-148866015D01*
X172549778Y-148900500D01*
X172549779Y-148900500D01*
X172770221Y-148900500D01*
X172770222Y-148900500D01*
X172987951Y-148866015D01*
X173197606Y-148797895D01*
X173394022Y-148697815D01*
X173572365Y-148568242D01*
X173728242Y-148412365D01*
X173758174Y-148371167D01*
X173829682Y-148272745D01*
X173885011Y-148230079D01*
X173954625Y-148224100D01*
X174016420Y-148256705D01*
X174030318Y-148272745D01*
X174131752Y-148412358D01*
X174131756Y-148412363D01*
X174287636Y-148568243D01*
X174287641Y-148568247D01*
X174443192Y-148681260D01*
X174465978Y-148697815D01*
X174594375Y-148763237D01*
X174662393Y-148797895D01*
X174662396Y-148797896D01*
X174767221Y-148831955D01*
X174872049Y-148866015D01*
X175089778Y-148900500D01*
X175089779Y-148900500D01*
X175310221Y-148900500D01*
X175310222Y-148900500D01*
X175527951Y-148866015D01*
X175737606Y-148797895D01*
X175934022Y-148697815D01*
X176112365Y-148568242D01*
X176112379Y-148568227D01*
X176115903Y-148565219D01*
X176179661Y-148536641D01*
X176196446Y-148535500D01*
X177459370Y-148535500D01*
X177537824Y-148523073D01*
X177635897Y-148507541D01*
X177764193Y-148465853D01*
X177805881Y-148452309D01*
X177965132Y-148371167D01*
X178109728Y-148266111D01*
X178236111Y-148139728D01*
X183601489Y-142774349D01*
X183662810Y-142740866D01*
X183732502Y-142745850D01*
X183788435Y-142787722D01*
X183812852Y-142853186D01*
X183799653Y-142918326D01*
X183772107Y-142972388D01*
X183772103Y-142972396D01*
X183703985Y-143182047D01*
X183669500Y-143399778D01*
X183669500Y-143620221D01*
X183703985Y-143837952D01*
X183772103Y-144047603D01*
X183772104Y-144047606D01*
X183840122Y-144181096D01*
X183871355Y-144242394D01*
X183872187Y-144244025D01*
X184001752Y-144422358D01*
X184001756Y-144422363D01*
X184157636Y-144578243D01*
X184157641Y-144578247D01*
X184313192Y-144691260D01*
X184335978Y-144707815D01*
X184464375Y-144773237D01*
X184532393Y-144807895D01*
X184532396Y-144807896D01*
X184637221Y-144841955D01*
X184742049Y-144876015D01*
X184959778Y-144910500D01*
X184959779Y-144910500D01*
X185880221Y-144910500D01*
X185880222Y-144910500D01*
X186097951Y-144876015D01*
X186307606Y-144807895D01*
X186504022Y-144707815D01*
X186607615Y-144632551D01*
X186673421Y-144609071D01*
X186741475Y-144624896D01*
X186790170Y-144675002D01*
X186804500Y-144732869D01*
X186804500Y-146845005D01*
X186798432Y-146883321D01*
X186792458Y-146901707D01*
X186764500Y-147078229D01*
X186764500Y-148589365D01*
X186792460Y-148765898D01*
X186792460Y-148765901D01*
X186847689Y-148935878D01*
X186847691Y-148935881D01*
X186928833Y-149095132D01*
X187033889Y-149239728D01*
X187160272Y-149366111D01*
X187304868Y-149471167D01*
X187464119Y-149552309D01*
X187464121Y-149552310D01*
X187622670Y-149603825D01*
X187634103Y-149607540D01*
X187810634Y-149635500D01*
X187810635Y-149635500D01*
X187989365Y-149635500D01*
X187989366Y-149635500D01*
X188165897Y-149607540D01*
X188165900Y-149607539D01*
X188165901Y-149607539D01*
X188335878Y-149552310D01*
X188335878Y-149552309D01*
X188335881Y-149552309D01*
X188495132Y-149471167D01*
X188639728Y-149366111D01*
X188766111Y-149239728D01*
X188871167Y-149095132D01*
X188952309Y-148935881D01*
X189007540Y-148765897D01*
X189035500Y-148589366D01*
X189035500Y-147450194D01*
X189041569Y-147411876D01*
X189047541Y-147393497D01*
X189059523Y-147317840D01*
X189075500Y-147216970D01*
X189075500Y-139650631D01*
X189068903Y-139608984D01*
X189068903Y-139608981D01*
X189047541Y-139474104D01*
X189047540Y-139474102D01*
X189019156Y-139386745D01*
X188993815Y-139308754D01*
X188992754Y-139304993D01*
X188992309Y-139304119D01*
X188911167Y-139144868D01*
X188806111Y-139000272D01*
X188679728Y-138873889D01*
X187369728Y-137563889D01*
X187306065Y-137517635D01*
X187225132Y-137458833D01*
X187065881Y-137377691D01*
X187065875Y-137377688D01*
X187016845Y-137361758D01*
X186953927Y-137341314D01*
X186895897Y-137322459D01*
X186895895Y-137322458D01*
X186895894Y-137322458D01*
X186719370Y-137294500D01*
X186719366Y-137294500D01*
X186630082Y-137294500D01*
X186609663Y-137288504D01*
X186588416Y-137287290D01*
X186566941Y-137275959D01*
X186563043Y-137274815D01*
X186557200Y-137270820D01*
X186542747Y-137260320D01*
X186500079Y-137204992D01*
X186494098Y-137135379D01*
X186526702Y-137073583D01*
X186542736Y-137059687D01*
X186682365Y-136958242D01*
X186838242Y-136802365D01*
X186967815Y-136624022D01*
X187067895Y-136427606D01*
X187136015Y-136217951D01*
X187170500Y-136000222D01*
X187170500Y-135779778D01*
X187136015Y-135562049D01*
X187067895Y-135352394D01*
X187067895Y-135352393D01*
X187008528Y-135235881D01*
X186967815Y-135155978D01*
X186902371Y-135065901D01*
X186838247Y-134977641D01*
X186838243Y-134977636D01*
X186682363Y-134821756D01*
X186682358Y-134821752D01*
X186504025Y-134692187D01*
X186504024Y-134692186D01*
X186504022Y-134692185D01*
X186441096Y-134660122D01*
X186307606Y-134592104D01*
X186307603Y-134592103D01*
X186097952Y-134523985D01*
X185989086Y-134506742D01*
X185880222Y-134489500D01*
X184959778Y-134489500D01*
X184887201Y-134500995D01*
X184742047Y-134523985D01*
X184532396Y-134592103D01*
X184532393Y-134592104D01*
X184335978Y-134692184D01*
X184232385Y-134767449D01*
X184166578Y-134790928D01*
X184098524Y-134775102D01*
X184049830Y-134724996D01*
X184035500Y-134667130D01*
X184035500Y-132032869D01*
X184055185Y-131965830D01*
X184107989Y-131920075D01*
X184177147Y-131910131D01*
X184232385Y-131932551D01*
X184335978Y-132007815D01*
X184464375Y-132073237D01*
X184532393Y-132107895D01*
X184532396Y-132107896D01*
X184637221Y-132141955D01*
X184742049Y-132176015D01*
X184959778Y-132210500D01*
X184959779Y-132210500D01*
X185880221Y-132210500D01*
X185880222Y-132210500D01*
X186097951Y-132176015D01*
X186307606Y-132107895D01*
X186504022Y-132007815D01*
X186682365Y-131878242D01*
X186838242Y-131722365D01*
X186967815Y-131544022D01*
X187067895Y-131347606D01*
X187136015Y-131137951D01*
X187170500Y-130920222D01*
X187170500Y-130699778D01*
X187136015Y-130482049D01*
X187067895Y-130272394D01*
X187067895Y-130272393D01*
X187033237Y-130204375D01*
X186967815Y-130075978D01*
X186951260Y-130053192D01*
X186838247Y-129897641D01*
X186838243Y-129897636D01*
X186682363Y-129741756D01*
X186682358Y-129741752D01*
X186542745Y-129640318D01*
X186500079Y-129584989D01*
X186494100Y-129515375D01*
X186526705Y-129453580D01*
X186542745Y-129439682D01*
X186682358Y-129338247D01*
X186682356Y-129338247D01*
X186682365Y-129338242D01*
X186838242Y-129182365D01*
X186967815Y-129004022D01*
X187067895Y-128807606D01*
X187136015Y-128597951D01*
X187170500Y-128380222D01*
X187170500Y-128159778D01*
X187136015Y-127942049D01*
X187067895Y-127732394D01*
X187067895Y-127732393D01*
X187033237Y-127664375D01*
X186967815Y-127535978D01*
X186951260Y-127513192D01*
X186838247Y-127357641D01*
X186838243Y-127357636D01*
X186682363Y-127201756D01*
X186682358Y-127201752D01*
X186504025Y-127072187D01*
X186504024Y-127072186D01*
X186504022Y-127072185D01*
X186441096Y-127040122D01*
X186307606Y-126972104D01*
X186307603Y-126972103D01*
X186097952Y-126903985D01*
X185989086Y-126886742D01*
X185880222Y-126869500D01*
X184959778Y-126869500D01*
X184887201Y-126880995D01*
X184742047Y-126903985D01*
X184532396Y-126972103D01*
X184532393Y-126972104D01*
X184335978Y-127072184D01*
X184232385Y-127147449D01*
X184166578Y-127170928D01*
X184098524Y-127155102D01*
X184049830Y-127104996D01*
X184035500Y-127047130D01*
X184035500Y-124412869D01*
X184055185Y-124345830D01*
X184107989Y-124300075D01*
X184177147Y-124290131D01*
X184232385Y-124312551D01*
X184335978Y-124387815D01*
X184464375Y-124453237D01*
X184532393Y-124487895D01*
X184532396Y-124487896D01*
X184637221Y-124521955D01*
X184742049Y-124556015D01*
X184959778Y-124590500D01*
X184959779Y-124590500D01*
X185880221Y-124590500D01*
X185880222Y-124590500D01*
X186097951Y-124556015D01*
X186307606Y-124487895D01*
X186504022Y-124387815D01*
X186682365Y-124258242D01*
X186838242Y-124102365D01*
X186967815Y-123924022D01*
X187067895Y-123727606D01*
X187136015Y-123517951D01*
X187170500Y-123300222D01*
X187170500Y-123079778D01*
X187136015Y-122862049D01*
X187067895Y-122652394D01*
X187067895Y-122652393D01*
X187033237Y-122584375D01*
X186967815Y-122455978D01*
X186898454Y-122360510D01*
X186838247Y-122277641D01*
X186838243Y-122277636D01*
X186682363Y-122121756D01*
X186682358Y-122121752D01*
X186542745Y-122020318D01*
X186500079Y-121964989D01*
X186494100Y-121895375D01*
X186526705Y-121833580D01*
X186542745Y-121819682D01*
X186682358Y-121718247D01*
X186682356Y-121718247D01*
X186682365Y-121718242D01*
X186838242Y-121562365D01*
X186967815Y-121384022D01*
X187067895Y-121187606D01*
X187136015Y-120977951D01*
X187170500Y-120760222D01*
X187170500Y-120539778D01*
X187136015Y-120322049D01*
X187077303Y-120141349D01*
X187067896Y-120112396D01*
X187067895Y-120112393D01*
X187005288Y-119989523D01*
X186967815Y-119915978D01*
X186929555Y-119863317D01*
X186838247Y-119737641D01*
X186838243Y-119737636D01*
X186682363Y-119581756D01*
X186682358Y-119581752D01*
X186504025Y-119452187D01*
X186504024Y-119452186D01*
X186504022Y-119452185D01*
X186441096Y-119420122D01*
X186307606Y-119352104D01*
X186307603Y-119352103D01*
X186097952Y-119283985D01*
X185989086Y-119266742D01*
X185880222Y-119249500D01*
X184959778Y-119249500D01*
X184887201Y-119260995D01*
X184742047Y-119283985D01*
X184532396Y-119352103D01*
X184532393Y-119352104D01*
X184335978Y-119452184D01*
X184232385Y-119527449D01*
X184166578Y-119550928D01*
X184098524Y-119535102D01*
X184049830Y-119484996D01*
X184035500Y-119427130D01*
X184035500Y-116792869D01*
X184055185Y-116725830D01*
X184107989Y-116680075D01*
X184177147Y-116670131D01*
X184232385Y-116692551D01*
X184237640Y-116696369D01*
X184335978Y-116767815D01*
X184464375Y-116833237D01*
X184532393Y-116867895D01*
X184532396Y-116867896D01*
X184632962Y-116900571D01*
X184742049Y-116936015D01*
X184959778Y-116970500D01*
X184959779Y-116970500D01*
X185880221Y-116970500D01*
X185880222Y-116970500D01*
X186097951Y-116936015D01*
X186307606Y-116867895D01*
X186504022Y-116767815D01*
X186682365Y-116638242D01*
X186838242Y-116482365D01*
X186967815Y-116304022D01*
X187067895Y-116107606D01*
X187136015Y-115897951D01*
X187170500Y-115680222D01*
X187170500Y-115459778D01*
X187136015Y-115242049D01*
X187067895Y-115032394D01*
X187067895Y-115032393D01*
X187033237Y-114964375D01*
X186967815Y-114835978D01*
X186932489Y-114787356D01*
X186838247Y-114657641D01*
X186838243Y-114657636D01*
X186682363Y-114501756D01*
X186682358Y-114501752D01*
X186542745Y-114400318D01*
X186500079Y-114344989D01*
X186494100Y-114275375D01*
X186526705Y-114213580D01*
X186542745Y-114199682D01*
X186682358Y-114098247D01*
X186682356Y-114098247D01*
X186682365Y-114098242D01*
X186838242Y-113942365D01*
X186967815Y-113764022D01*
X187067895Y-113567606D01*
X187136015Y-113357951D01*
X187170500Y-113140222D01*
X187170500Y-112919778D01*
X187136015Y-112702049D01*
X187067895Y-112492394D01*
X187067895Y-112492393D01*
X187033237Y-112424375D01*
X186967815Y-112295978D01*
X186932489Y-112247356D01*
X186838247Y-112117641D01*
X186838243Y-112117636D01*
X186682363Y-111961756D01*
X186682358Y-111961752D01*
X186504025Y-111832187D01*
X186504024Y-111832186D01*
X186504022Y-111832185D01*
X186441096Y-111800122D01*
X186307606Y-111732104D01*
X186307603Y-111732103D01*
X186097952Y-111663985D01*
X185989086Y-111646742D01*
X185880222Y-111629500D01*
X184959778Y-111629500D01*
X184887201Y-111640995D01*
X184742047Y-111663985D01*
X184532396Y-111732103D01*
X184532393Y-111732104D01*
X184335978Y-111832184D01*
X184232385Y-111907449D01*
X184166578Y-111930928D01*
X184098524Y-111915102D01*
X184049830Y-111864996D01*
X184035500Y-111807130D01*
X184035500Y-109172869D01*
X184055185Y-109105830D01*
X184107989Y-109060075D01*
X184177147Y-109050131D01*
X184232385Y-109072551D01*
X184237640Y-109076369D01*
X184335978Y-109147815D01*
X184464375Y-109213237D01*
X184532393Y-109247895D01*
X184532396Y-109247896D01*
X184632962Y-109280571D01*
X184742049Y-109316015D01*
X184959778Y-109350500D01*
X184959779Y-109350500D01*
X185880221Y-109350500D01*
X185880222Y-109350500D01*
X186097951Y-109316015D01*
X186307606Y-109247895D01*
X186504022Y-109147815D01*
X186682365Y-109018242D01*
X186838242Y-108862365D01*
X186967815Y-108684022D01*
X187067895Y-108487606D01*
X187136015Y-108277951D01*
X187170500Y-108060222D01*
X187170500Y-107839778D01*
X187136015Y-107622049D01*
X187067895Y-107412394D01*
X187067895Y-107412393D01*
X187033237Y-107344375D01*
X186967815Y-107215978D01*
X186932489Y-107167356D01*
X186838247Y-107037641D01*
X186838243Y-107037636D01*
X186682363Y-106881756D01*
X186682358Y-106881752D01*
X186542745Y-106780318D01*
X186500079Y-106724989D01*
X186494100Y-106655375D01*
X186526705Y-106593580D01*
X186542745Y-106579682D01*
X186682358Y-106478247D01*
X186682356Y-106478247D01*
X186682365Y-106478242D01*
X186838242Y-106322365D01*
X186967815Y-106144022D01*
X187067895Y-105947606D01*
X187136015Y-105737951D01*
X187170500Y-105520222D01*
X187170500Y-105299778D01*
X187136015Y-105082049D01*
X187067895Y-104872394D01*
X187067895Y-104872393D01*
X187033237Y-104804375D01*
X186967815Y-104675978D01*
X186932489Y-104627356D01*
X186838247Y-104497641D01*
X186838243Y-104497636D01*
X186682363Y-104341756D01*
X186682358Y-104341752D01*
X186542745Y-104240318D01*
X186500079Y-104184989D01*
X186494100Y-104115375D01*
X186526705Y-104053580D01*
X186542745Y-104039682D01*
X186682358Y-103938247D01*
X186682356Y-103938247D01*
X186682365Y-103938242D01*
X186838242Y-103782365D01*
X186967815Y-103604022D01*
X187067895Y-103407606D01*
X187136015Y-103197951D01*
X187170500Y-102980222D01*
X187170500Y-102759778D01*
X187136015Y-102542049D01*
X187067895Y-102332394D01*
X187067895Y-102332393D01*
X187033237Y-102264375D01*
X186967815Y-102135978D01*
X186932489Y-102087356D01*
X186838247Y-101957641D01*
X186838243Y-101957636D01*
X186682363Y-101801756D01*
X186682358Y-101801752D01*
X186542745Y-101700318D01*
X186500079Y-101644989D01*
X186494100Y-101575375D01*
X186526705Y-101513580D01*
X186542745Y-101499682D01*
X186682358Y-101398247D01*
X186682356Y-101398247D01*
X186682365Y-101398242D01*
X186838242Y-101242365D01*
X186967815Y-101064022D01*
X187067895Y-100867606D01*
X187136015Y-100657951D01*
X187170500Y-100440222D01*
X187170500Y-100219778D01*
X187136015Y-100002049D01*
X187067895Y-99792394D01*
X187067895Y-99792393D01*
X187001046Y-99661197D01*
X186967815Y-99595978D01*
X186918624Y-99528272D01*
X186838247Y-99417641D01*
X186838243Y-99417636D01*
X186682363Y-99261756D01*
X186682358Y-99261752D01*
X186542745Y-99160318D01*
X186500079Y-99104989D01*
X186494100Y-99035375D01*
X186526705Y-98973580D01*
X186542745Y-98959682D01*
X186682358Y-98858247D01*
X186682356Y-98858247D01*
X186682365Y-98858242D01*
X186838242Y-98702365D01*
X186967815Y-98524022D01*
X187067895Y-98327606D01*
X187068426Y-98325974D01*
X187117206Y-98175839D01*
X187136015Y-98117951D01*
X187170500Y-97900222D01*
X187170500Y-97679778D01*
X187136015Y-97462049D01*
X187067895Y-97252394D01*
X187067895Y-97252393D01*
X187033237Y-97184375D01*
X186967815Y-97055978D01*
X186932489Y-97007356D01*
X186838247Y-96877641D01*
X186838243Y-96877636D01*
X186682363Y-96721756D01*
X186682358Y-96721752D01*
X186504025Y-96592187D01*
X186504024Y-96592186D01*
X186504022Y-96592185D01*
X186441096Y-96560122D01*
X186307606Y-96492104D01*
X186307603Y-96492103D01*
X186097952Y-96423985D01*
X185989086Y-96406742D01*
X185880222Y-96389500D01*
X184959778Y-96389500D01*
X184887201Y-96400995D01*
X184742047Y-96423985D01*
X184532396Y-96492103D01*
X184532393Y-96492104D01*
X184335978Y-96592184D01*
X184232385Y-96667449D01*
X184166578Y-96690928D01*
X184098524Y-96675102D01*
X184049830Y-96624996D01*
X184035500Y-96567130D01*
X184035500Y-93932869D01*
X184055185Y-93865830D01*
X184107989Y-93820075D01*
X184177147Y-93810131D01*
X184232385Y-93832551D01*
X184237640Y-93836369D01*
X184335978Y-93907815D01*
X184464375Y-93973237D01*
X184532393Y-94007895D01*
X184532396Y-94007896D01*
X184632962Y-94040571D01*
X184742049Y-94076015D01*
X184959778Y-94110500D01*
X184959779Y-94110500D01*
X185880221Y-94110500D01*
X185880222Y-94110500D01*
X186097951Y-94076015D01*
X186307606Y-94007895D01*
X186504022Y-93907815D01*
X186682365Y-93778242D01*
X186838242Y-93622365D01*
X186967815Y-93444022D01*
X187067895Y-93247606D01*
X187136015Y-93037951D01*
X187170500Y-92820222D01*
X187170500Y-92599778D01*
X187136015Y-92382049D01*
X187078493Y-92205012D01*
X187067896Y-92172396D01*
X187067895Y-92172393D01*
X187004636Y-92048243D01*
X186967815Y-91975978D01*
X186899800Y-91882363D01*
X186838247Y-91797641D01*
X186838243Y-91797636D01*
X186682363Y-91641756D01*
X186682358Y-91641752D01*
X186542745Y-91540318D01*
X186500079Y-91484989D01*
X186494100Y-91415375D01*
X186526705Y-91353580D01*
X186542745Y-91339682D01*
X186682358Y-91238247D01*
X186682356Y-91238247D01*
X186682365Y-91238242D01*
X186838242Y-91082365D01*
X186967815Y-90904022D01*
X187067895Y-90707606D01*
X187136015Y-90497951D01*
X187170500Y-90280222D01*
X187170500Y-90059778D01*
X187136015Y-89842049D01*
X187089861Y-89700000D01*
X187067896Y-89632396D01*
X187067895Y-89632393D01*
X187004636Y-89508243D01*
X186967815Y-89435978D01*
X186899800Y-89342363D01*
X186838247Y-89257641D01*
X186838243Y-89257636D01*
X186682363Y-89101756D01*
X186682358Y-89101752D01*
X186542745Y-89000318D01*
X186500079Y-88944989D01*
X186494100Y-88875375D01*
X186526705Y-88813580D01*
X186542745Y-88799682D01*
X186682358Y-88698247D01*
X186682356Y-88698247D01*
X186682365Y-88698242D01*
X186838242Y-88542365D01*
X186967815Y-88364022D01*
X187067895Y-88167606D01*
X187136015Y-87957951D01*
X187170500Y-87740222D01*
X187170500Y-87519778D01*
X187136015Y-87302049D01*
X187075244Y-87115012D01*
X187067896Y-87092396D01*
X187067895Y-87092393D01*
X187004636Y-86968243D01*
X186967815Y-86895978D01*
X186899800Y-86802363D01*
X186838247Y-86717641D01*
X186838243Y-86717636D01*
X186682363Y-86561756D01*
X186682358Y-86561752D01*
X186542745Y-86460318D01*
X186500079Y-86404989D01*
X186494100Y-86335375D01*
X186526705Y-86273580D01*
X186542745Y-86259682D01*
X186682358Y-86158247D01*
X186682356Y-86158247D01*
X186682365Y-86158242D01*
X186838242Y-86002365D01*
X186967815Y-85824022D01*
X187067895Y-85627606D01*
X187136015Y-85417951D01*
X187170500Y-85200222D01*
X187170500Y-84979778D01*
X187136015Y-84762049D01*
X187067895Y-84552394D01*
X187067895Y-84552393D01*
X187033237Y-84484375D01*
X186967815Y-84355978D01*
X186899800Y-84262363D01*
X186838247Y-84177641D01*
X186838243Y-84177636D01*
X186682363Y-84021756D01*
X186682358Y-84021752D01*
X186542745Y-83920318D01*
X186500079Y-83864989D01*
X186494100Y-83795375D01*
X186526705Y-83733580D01*
X186542745Y-83719682D01*
X186682358Y-83618247D01*
X186682356Y-83618247D01*
X186682365Y-83618242D01*
X186838242Y-83462365D01*
X186967815Y-83284022D01*
X187067895Y-83087606D01*
X187136015Y-82877951D01*
X187170500Y-82660222D01*
X187170500Y-82439778D01*
X187136015Y-82222049D01*
X187081860Y-82055375D01*
X187067896Y-82012396D01*
X187067895Y-82012393D01*
X187004636Y-81888243D01*
X186967815Y-81815978D01*
X186899800Y-81722363D01*
X186838247Y-81637641D01*
X186838243Y-81637636D01*
X186682363Y-81481756D01*
X186682358Y-81481752D01*
X186542745Y-81380318D01*
X186500079Y-81324989D01*
X186494100Y-81255375D01*
X186526705Y-81193580D01*
X186542745Y-81179682D01*
X186682358Y-81078247D01*
X186682356Y-81078247D01*
X186682365Y-81078242D01*
X186838242Y-80922365D01*
X186967815Y-80744022D01*
X187067895Y-80547606D01*
X187136015Y-80337951D01*
X187170500Y-80120222D01*
X187170500Y-79899778D01*
X187136015Y-79682049D01*
X187075244Y-79495012D01*
X187067896Y-79472396D01*
X187067895Y-79472393D01*
X187004636Y-79348243D01*
X186967815Y-79275978D01*
X186899800Y-79182363D01*
X186838247Y-79097641D01*
X186838243Y-79097636D01*
X186682363Y-78941756D01*
X186682358Y-78941752D01*
X186542745Y-78840318D01*
X186500079Y-78784989D01*
X186494100Y-78715375D01*
X186526705Y-78653580D01*
X186542745Y-78639682D01*
X186682358Y-78538247D01*
X186682356Y-78538247D01*
X186682365Y-78538242D01*
X186838242Y-78382365D01*
X186967815Y-78204022D01*
X187067895Y-78007606D01*
X187136015Y-77797951D01*
X187170500Y-77580222D01*
X187170500Y-77359778D01*
X187136015Y-77142049D01*
X187075244Y-76955012D01*
X187067896Y-76932396D01*
X187067895Y-76932393D01*
X187004636Y-76808243D01*
X186967815Y-76735978D01*
X186907062Y-76652358D01*
X186838247Y-76557641D01*
X186838243Y-76557636D01*
X186682363Y-76401756D01*
X186682358Y-76401752D01*
X186542745Y-76300318D01*
X186500079Y-76244989D01*
X186494100Y-76175375D01*
X186526705Y-76113580D01*
X186542745Y-76099682D01*
X186682358Y-75998247D01*
X186682356Y-75998247D01*
X186682365Y-75998242D01*
X186838242Y-75842365D01*
X186967815Y-75664022D01*
X187067895Y-75467606D01*
X187136015Y-75257951D01*
X187170500Y-75040222D01*
X187170500Y-74819778D01*
X187136015Y-74602049D01*
X187075244Y-74415012D01*
X187067896Y-74392396D01*
X187067895Y-74392393D01*
X187004636Y-74268243D01*
X186967815Y-74195978D01*
X186907062Y-74112358D01*
X186838247Y-74017641D01*
X186838243Y-74017636D01*
X186682363Y-73861756D01*
X186682358Y-73861752D01*
X186504025Y-73732187D01*
X186504024Y-73732186D01*
X186504022Y-73732185D01*
X186441096Y-73700122D01*
X186307606Y-73632104D01*
X186307603Y-73632103D01*
X186097952Y-73563985D01*
X185898765Y-73532437D01*
X185880222Y-73529500D01*
X184959778Y-73529500D01*
X184941235Y-73532437D01*
X184742047Y-73563985D01*
X184532396Y-73632103D01*
X184532393Y-73632104D01*
X184335978Y-73732184D01*
X184232385Y-73807449D01*
X184166578Y-73830928D01*
X184098524Y-73815102D01*
X184049830Y-73764996D01*
X184035500Y-73707130D01*
X184035500Y-68821700D01*
X184044144Y-68792259D01*
X184050668Y-68762273D01*
X184054422Y-68757257D01*
X184055185Y-68754661D01*
X184071815Y-68734023D01*
X184247131Y-68558706D01*
X184308452Y-68525223D01*
X184378143Y-68530207D01*
X184391105Y-68535904D01*
X184532393Y-68607895D01*
X184532396Y-68607896D01*
X184637221Y-68641955D01*
X184742049Y-68676015D01*
X184959778Y-68710500D01*
X184959779Y-68710500D01*
X185880221Y-68710500D01*
X185880222Y-68710500D01*
X186097951Y-68676015D01*
X186307606Y-68607895D01*
X186504022Y-68507815D01*
X186682365Y-68378242D01*
X186838242Y-68222365D01*
X186967815Y-68044022D01*
X187067895Y-67847606D01*
X187136015Y-67637951D01*
X187170500Y-67420222D01*
X187170500Y-67199778D01*
X187136015Y-66982049D01*
X187067895Y-66772394D01*
X187067895Y-66772393D01*
X187033237Y-66704375D01*
X186967815Y-66575978D01*
X186871848Y-66443890D01*
X186838247Y-66397641D01*
X186838241Y-66397634D01*
X186682363Y-66241756D01*
X186682358Y-66241752D01*
X186504025Y-66112187D01*
X186504024Y-66112186D01*
X186504022Y-66112185D01*
X186441096Y-66080122D01*
X186307606Y-66012104D01*
X186307603Y-66012103D01*
X186097952Y-65943985D01*
X185989086Y-65926742D01*
X185880222Y-65909500D01*
X184959778Y-65909500D01*
X184887201Y-65920995D01*
X184742047Y-65943985D01*
X184532396Y-66012103D01*
X184532393Y-66012104D01*
X184335974Y-66112187D01*
X184282803Y-66150818D01*
X184216997Y-66174298D01*
X184209918Y-66174500D01*
X183800634Y-66174500D01*
X183741790Y-66183820D01*
X183624101Y-66202460D01*
X183624098Y-66202460D01*
X183454121Y-66257689D01*
X183454118Y-66257691D01*
X183294867Y-66338833D01*
X183213936Y-66397634D01*
X183213935Y-66397634D01*
X183150275Y-66443885D01*
X183150269Y-66443890D01*
X182160272Y-67433889D01*
X182033891Y-67560269D01*
X182033890Y-67560270D01*
X181928833Y-67704867D01*
X181847243Y-67864997D01*
X181846184Y-67868754D01*
X181792458Y-68034105D01*
X181792458Y-68034107D01*
X181769968Y-68176110D01*
X181769968Y-68176111D01*
X181764500Y-68210634D01*
X181764500Y-69465734D01*
X181744815Y-69532773D01*
X181692011Y-69578528D01*
X181622853Y-69588472D01*
X181559297Y-69559447D01*
X181528558Y-69515174D01*
X181528047Y-69515454D01*
X181525449Y-69510697D01*
X181524319Y-69509069D01*
X181523798Y-69507673D01*
X181523793Y-69507664D01*
X181437547Y-69392455D01*
X181437544Y-69392452D01*
X181322335Y-69306206D01*
X181322328Y-69306202D01*
X181187482Y-69255908D01*
X181187483Y-69255908D01*
X181127883Y-69249501D01*
X181127881Y-69249500D01*
X181127873Y-69249500D01*
X181127865Y-69249500D01*
X181089500Y-69249500D01*
X181022461Y-69229815D01*
X180976706Y-69177011D01*
X180965500Y-69125500D01*
X180965500Y-60741701D01*
X180985185Y-60674662D01*
X181001819Y-60654020D01*
X183334020Y-58321819D01*
X183395343Y-58288334D01*
X183421701Y-58285500D01*
X184209918Y-58285500D01*
X184230335Y-58291495D01*
X184251583Y-58292709D01*
X184273060Y-58304040D01*
X184276957Y-58305185D01*
X184282799Y-58309179D01*
X184290229Y-58314576D01*
X184297251Y-58319678D01*
X184339919Y-58375006D01*
X184345901Y-58444619D01*
X184313298Y-58506415D01*
X184297255Y-58520317D01*
X184157641Y-58621752D01*
X184157636Y-58621756D01*
X184001756Y-58777636D01*
X184001752Y-58777641D01*
X183872187Y-58955974D01*
X183772104Y-59152393D01*
X183772103Y-59152396D01*
X183703985Y-59362047D01*
X183669500Y-59579778D01*
X183669500Y-59800221D01*
X183703985Y-60017952D01*
X183772103Y-60227603D01*
X183772104Y-60227606D01*
X183872187Y-60424025D01*
X184001752Y-60602358D01*
X184001756Y-60602363D01*
X184157636Y-60758243D01*
X184157641Y-60758247D01*
X184313192Y-60871260D01*
X184335978Y-60887815D01*
X184464375Y-60953237D01*
X184532393Y-60987895D01*
X184532396Y-60987896D01*
X184637221Y-61021955D01*
X184742049Y-61056015D01*
X184959778Y-61090500D01*
X184959779Y-61090500D01*
X185880221Y-61090500D01*
X185880222Y-61090500D01*
X186097951Y-61056015D01*
X186307606Y-60987895D01*
X186504022Y-60887815D01*
X186682365Y-60758242D01*
X186838242Y-60602365D01*
X186967815Y-60424022D01*
X187067895Y-60227606D01*
X187136015Y-60017951D01*
X187170500Y-59800222D01*
X187170500Y-59579778D01*
X187136015Y-59362049D01*
X187067895Y-59152394D01*
X187067895Y-59152393D01*
X187033237Y-59084375D01*
X186967815Y-58955978D01*
X186951260Y-58933192D01*
X186838247Y-58777641D01*
X186838243Y-58777636D01*
X186682363Y-58621756D01*
X186682358Y-58621752D01*
X186542745Y-58520318D01*
X186500079Y-58464989D01*
X186494100Y-58395375D01*
X186526705Y-58333580D01*
X186542745Y-58319682D01*
X186682358Y-58218247D01*
X186682356Y-58218247D01*
X186682365Y-58218242D01*
X186838242Y-58062365D01*
X186967815Y-57884022D01*
X187067895Y-57687606D01*
X187136015Y-57477951D01*
X187170500Y-57260222D01*
X187170500Y-57039778D01*
X187136015Y-56822049D01*
X187067895Y-56612394D01*
X187067895Y-56612393D01*
X187033237Y-56544375D01*
X186967815Y-56415978D01*
X186871848Y-56283890D01*
X186838247Y-56237641D01*
X186838242Y-56237635D01*
X186682363Y-56081756D01*
X186682358Y-56081752D01*
X186504025Y-55952187D01*
X186504024Y-55952186D01*
X186504022Y-55952185D01*
X186386791Y-55892452D01*
X186307606Y-55852104D01*
X186307603Y-55852103D01*
X186097952Y-55783985D01*
X185989086Y-55766742D01*
X185880222Y-55749500D01*
X184959778Y-55749500D01*
X184887201Y-55760995D01*
X184742047Y-55783985D01*
X184532396Y-55852103D01*
X184532393Y-55852104D01*
X184335974Y-55952187D01*
X184282803Y-55990818D01*
X184216997Y-56014298D01*
X184209918Y-56014500D01*
X182810630Y-56014500D01*
X182634106Y-56042458D01*
X182513155Y-56081758D01*
X182464121Y-56097689D01*
X182464118Y-56097691D01*
X182304867Y-56178833D01*
X182223935Y-56237635D01*
X182160270Y-56283890D01*
X178963890Y-59480270D01*
X178858833Y-59624867D01*
X178777243Y-59784997D01*
X178776184Y-59788754D01*
X178722459Y-59954101D01*
X178722458Y-59954109D01*
X178712346Y-60017952D01*
X178694500Y-60130628D01*
X178694500Y-69125500D01*
X178674815Y-69192539D01*
X178622011Y-69238294D01*
X178570503Y-69249500D01*
X178532131Y-69249500D01*
X178532123Y-69249501D01*
X178472516Y-69255908D01*
X178337671Y-69306202D01*
X178337664Y-69306206D01*
X178222455Y-69392452D01*
X178222452Y-69392455D01*
X178136206Y-69507664D01*
X178136202Y-69507671D01*
X178085908Y-69642517D01*
X178079501Y-69702116D01*
X178079500Y-69702135D01*
X178079500Y-71597870D01*
X178079501Y-71597876D01*
X178085908Y-71657483D01*
X178136202Y-71792328D01*
X178136206Y-71792335D01*
X178222452Y-71907544D01*
X178222455Y-71907547D01*
X178337664Y-71993793D01*
X178337671Y-71993797D01*
X178417580Y-72023601D01*
X178473514Y-72065472D01*
X178497931Y-72130936D01*
X178483080Y-72199209D01*
X178461929Y-72227463D01*
X178411756Y-72277636D01*
X178411752Y-72277641D01*
X178282187Y-72455974D01*
X178182104Y-72652393D01*
X178182103Y-72652396D01*
X178113985Y-72862047D01*
X178079500Y-73079778D01*
X178079500Y-73300221D01*
X178113985Y-73517952D01*
X178182103Y-73727603D01*
X178182104Y-73727606D01*
X178282187Y-73924025D01*
X178411752Y-74102358D01*
X178411756Y-74102363D01*
X178567636Y-74258243D01*
X178567641Y-74258247D01*
X178707254Y-74359682D01*
X178749920Y-74415012D01*
X178755899Y-74484625D01*
X178723293Y-74546420D01*
X178707254Y-74560318D01*
X178567641Y-74661752D01*
X178567636Y-74661756D01*
X178411756Y-74817636D01*
X178411752Y-74817641D01*
X178282187Y-74995974D01*
X178182104Y-75192393D01*
X178182103Y-75192396D01*
X178113985Y-75402047D01*
X178103602Y-75467603D01*
X178079500Y-75619778D01*
X178079500Y-75840222D01*
X178081084Y-75850221D01*
X178113985Y-76057952D01*
X178182103Y-76267603D01*
X178182104Y-76267606D01*
X178282187Y-76464025D01*
X178411752Y-76642358D01*
X178411756Y-76642363D01*
X178567636Y-76798243D01*
X178567641Y-76798247D01*
X178707254Y-76899682D01*
X178749920Y-76955012D01*
X178755899Y-77024625D01*
X178723293Y-77086420D01*
X178707254Y-77100318D01*
X178567641Y-77201752D01*
X178567636Y-77201756D01*
X178411756Y-77357636D01*
X178411752Y-77357641D01*
X178282187Y-77535974D01*
X178182104Y-77732393D01*
X178182103Y-77732396D01*
X178113985Y-77942047D01*
X178103602Y-78007603D01*
X178079500Y-78159778D01*
X178079500Y-78380222D01*
X178081084Y-78390221D01*
X178113985Y-78597952D01*
X178182103Y-78807603D01*
X178182104Y-78807606D01*
X178282187Y-79004025D01*
X178411752Y-79182358D01*
X178411756Y-79182363D01*
X178567636Y-79338243D01*
X178567641Y-79338247D01*
X178707254Y-79439682D01*
X178749920Y-79495012D01*
X178755899Y-79564625D01*
X178723293Y-79626420D01*
X178707254Y-79640318D01*
X178567641Y-79741752D01*
X178567636Y-79741756D01*
X178411756Y-79897636D01*
X178411752Y-79897641D01*
X178282187Y-80075974D01*
X178182104Y-80272393D01*
X178182103Y-80272396D01*
X178113985Y-80482047D01*
X178103602Y-80547603D01*
X178079500Y-80699778D01*
X178079500Y-80920222D01*
X178081084Y-80930221D01*
X178113985Y-81137952D01*
X178182103Y-81347603D01*
X178182104Y-81347606D01*
X178282187Y-81544025D01*
X178411752Y-81722358D01*
X178411756Y-81722363D01*
X178567636Y-81878243D01*
X178567641Y-81878247D01*
X178707254Y-81979682D01*
X178749920Y-82035012D01*
X178755899Y-82104625D01*
X178723293Y-82166420D01*
X178707254Y-82180318D01*
X178567641Y-82281752D01*
X178567636Y-82281756D01*
X178411756Y-82437636D01*
X178411752Y-82437641D01*
X178282187Y-82615974D01*
X178182104Y-82812393D01*
X178182103Y-82812396D01*
X178113985Y-83022047D01*
X178103602Y-83087603D01*
X178079500Y-83239778D01*
X178079500Y-83460222D01*
X178083433Y-83485055D01*
X178113985Y-83677952D01*
X178182103Y-83887603D01*
X178182104Y-83887606D01*
X178282187Y-84084025D01*
X178411752Y-84262358D01*
X178411756Y-84262363D01*
X178567636Y-84418243D01*
X178567641Y-84418247D01*
X178707254Y-84519682D01*
X178749920Y-84575012D01*
X178755899Y-84644625D01*
X178723293Y-84706420D01*
X178707254Y-84720318D01*
X178567641Y-84821752D01*
X178567636Y-84821756D01*
X178411756Y-84977636D01*
X178411752Y-84977641D01*
X178282187Y-85155974D01*
X178182104Y-85352393D01*
X178182103Y-85352396D01*
X178113985Y-85562047D01*
X178103602Y-85627603D01*
X178079500Y-85779778D01*
X178079500Y-86000222D01*
X178081084Y-86010221D01*
X178113985Y-86217952D01*
X178182103Y-86427603D01*
X178182104Y-86427606D01*
X178282187Y-86624025D01*
X178411752Y-86802358D01*
X178411756Y-86802363D01*
X178567636Y-86958243D01*
X178567641Y-86958247D01*
X178707254Y-87059682D01*
X178749920Y-87115012D01*
X178755899Y-87184625D01*
X178723293Y-87246420D01*
X178707254Y-87260318D01*
X178567641Y-87361752D01*
X178567636Y-87361756D01*
X178411756Y-87517636D01*
X178411752Y-87517641D01*
X178282187Y-87695974D01*
X178182104Y-87892393D01*
X178182103Y-87892396D01*
X178113985Y-88102047D01*
X178103602Y-88167603D01*
X178079500Y-88319778D01*
X178079500Y-88540222D01*
X178081084Y-88550221D01*
X178113985Y-88757952D01*
X178182103Y-88967603D01*
X178182104Y-88967606D01*
X178282187Y-89164025D01*
X178411752Y-89342358D01*
X178411756Y-89342363D01*
X178567636Y-89498243D01*
X178567641Y-89498247D01*
X178707254Y-89599682D01*
X178749920Y-89655012D01*
X178755899Y-89724625D01*
X178723293Y-89786420D01*
X178707254Y-89800318D01*
X178567641Y-89901752D01*
X178567636Y-89901756D01*
X178411756Y-90057636D01*
X178411752Y-90057641D01*
X178282187Y-90235974D01*
X178182104Y-90432393D01*
X178182103Y-90432396D01*
X178113985Y-90642047D01*
X178103602Y-90707603D01*
X178079500Y-90859778D01*
X178079500Y-91080222D01*
X178081084Y-91090221D01*
X178113985Y-91297952D01*
X178182103Y-91507603D01*
X178182104Y-91507606D01*
X178282187Y-91704025D01*
X178411752Y-91882358D01*
X178411756Y-91882363D01*
X178567636Y-92038243D01*
X178567641Y-92038247D01*
X178706905Y-92139427D01*
X178745978Y-92167815D01*
X178858945Y-92225375D01*
X178942393Y-92267895D01*
X178942396Y-92267896D01*
X179025782Y-92294989D01*
X179152049Y-92336015D01*
X179369778Y-92370500D01*
X179369779Y-92370500D01*
X180290221Y-92370500D01*
X180290222Y-92370500D01*
X180507951Y-92336015D01*
X180717606Y-92267895D01*
X180914022Y-92167815D01*
X181092365Y-92038242D01*
X181248242Y-91882365D01*
X181377815Y-91704022D01*
X181477895Y-91507606D01*
X181499861Y-91440000D01*
X181522569Y-91370113D01*
X181562006Y-91312437D01*
X181626364Y-91285238D01*
X181695211Y-91297152D01*
X181746687Y-91344396D01*
X181764500Y-91408430D01*
X181764500Y-141348299D01*
X181744815Y-141415338D01*
X181728181Y-141435980D01*
X176935980Y-146228181D01*
X176874657Y-146261666D01*
X176848299Y-146264500D01*
X176196446Y-146264500D01*
X176129407Y-146244815D01*
X176115903Y-146234781D01*
X176112372Y-146231765D01*
X176112365Y-146231758D01*
X176112356Y-146231751D01*
X176112352Y-146231748D01*
X175934025Y-146102187D01*
X175934024Y-146102186D01*
X175934022Y-146102185D01*
X175871096Y-146070122D01*
X175737606Y-146002104D01*
X175737603Y-146002103D01*
X175527952Y-145933985D01*
X175419086Y-145916742D01*
X175310222Y-145899500D01*
X175089778Y-145899500D01*
X175017201Y-145910995D01*
X174872047Y-145933985D01*
X174662396Y-146002103D01*
X174662393Y-146002104D01*
X174465974Y-146102187D01*
X174287641Y-146231752D01*
X174287636Y-146231756D01*
X174131756Y-146387636D01*
X174131752Y-146387641D01*
X174030317Y-146527255D01*
X174008040Y-146544433D01*
X173987861Y-146564042D01*
X173980740Y-146565484D01*
X173974987Y-146569921D01*
X173946958Y-146572328D01*
X173919382Y-146577915D01*
X173912611Y-146575278D01*
X173905374Y-146575900D01*
X173880493Y-146562771D01*
X173854274Y-146552562D01*
X173847044Y-146545122D01*
X173843579Y-146543294D01*
X173829678Y-146527251D01*
X173819179Y-146512799D01*
X173795702Y-146446991D01*
X173795500Y-146439918D01*
X173795500Y-110620134D01*
X173790096Y-110586015D01*
X173790096Y-110586014D01*
X173774676Y-110488653D01*
X173767541Y-110443603D01*
X173717062Y-110288247D01*
X173713815Y-110278254D01*
X173712754Y-110274493D01*
X173712309Y-110273619D01*
X173631167Y-110114368D01*
X173526111Y-109969772D01*
X173399728Y-109843389D01*
X163489428Y-99933089D01*
X163344831Y-99828033D01*
X163185584Y-99746892D01*
X163015591Y-99691657D01*
X162879768Y-99670145D01*
X162816633Y-99640215D01*
X162779702Y-99580904D01*
X162776693Y-99528275D01*
X162783600Y-99484666D01*
X162783600Y-99305933D01*
X162783600Y-90655834D01*
X162755640Y-90479303D01*
X162755639Y-90479299D01*
X162755639Y-90479298D01*
X162700410Y-90309321D01*
X162700408Y-90309318D01*
X162685583Y-90280221D01*
X162619267Y-90150068D01*
X162514211Y-90005472D01*
X162387828Y-89879089D01*
X162243232Y-89774033D01*
X162083981Y-89692891D01*
X162083978Y-89692889D01*
X161913999Y-89637660D01*
X161761963Y-89613580D01*
X161737466Y-89609700D01*
X161558734Y-89609700D01*
X161534237Y-89613580D01*
X161382201Y-89637660D01*
X161382198Y-89637660D01*
X161212221Y-89692889D01*
X161212218Y-89692891D01*
X161052967Y-89774033D01*
X160908370Y-89879090D01*
X160781990Y-90005470D01*
X160676933Y-90150067D01*
X160613424Y-90274710D01*
X160565449Y-90325506D01*
X160497628Y-90342301D01*
X160431493Y-90319763D01*
X160392454Y-90274710D01*
X160377815Y-90245978D01*
X160377813Y-90245975D01*
X160377812Y-90245973D01*
X160248247Y-90067641D01*
X160248243Y-90067636D01*
X160092363Y-89911756D01*
X160092358Y-89911752D01*
X159952745Y-89810318D01*
X159910079Y-89754989D01*
X159904100Y-89685375D01*
X159936705Y-89623580D01*
X159952745Y-89609682D01*
X160092358Y-89508247D01*
X160092356Y-89508247D01*
X160092365Y-89508242D01*
X160248242Y-89352365D01*
X160377815Y-89174022D01*
X160477895Y-88977606D01*
X160546015Y-88767951D01*
X160580500Y-88550222D01*
X160580500Y-88329778D01*
X160546015Y-88112049D01*
X160487176Y-87930958D01*
X160477896Y-87902396D01*
X160477895Y-87902393D01*
X160441901Y-87831752D01*
X160377815Y-87705978D01*
X160355300Y-87674989D01*
X160248247Y-87527641D01*
X160248243Y-87527636D01*
X160092363Y-87371756D01*
X160092358Y-87371752D01*
X159952745Y-87270318D01*
X159910079Y-87214989D01*
X159904100Y-87145375D01*
X159936705Y-87083580D01*
X159952745Y-87069682D01*
X160092358Y-86968247D01*
X160092356Y-86968247D01*
X160092365Y-86968242D01*
X160248242Y-86812365D01*
X160377815Y-86634022D01*
X160477895Y-86437606D01*
X160546015Y-86227951D01*
X160580500Y-86010222D01*
X160580500Y-85789778D01*
X160546015Y-85572049D01*
X160487176Y-85390958D01*
X160477896Y-85362396D01*
X160477895Y-85362393D01*
X160441901Y-85291752D01*
X160377815Y-85165978D01*
X160355300Y-85134989D01*
X160248247Y-84987641D01*
X160248243Y-84987636D01*
X160092363Y-84831756D01*
X160092358Y-84831752D01*
X159914025Y-84702187D01*
X159914024Y-84702186D01*
X159914022Y-84702185D01*
X159841022Y-84664989D01*
X159717606Y-84602104D01*
X159717603Y-84602103D01*
X159507952Y-84533985D01*
X159399086Y-84516742D01*
X159290222Y-84499500D01*
X158369778Y-84499500D01*
X158297201Y-84510995D01*
X158152047Y-84533985D01*
X157942396Y-84602103D01*
X157942393Y-84602104D01*
X157745974Y-84702187D01*
X157567641Y-84831752D01*
X157567636Y-84831756D01*
X157411756Y-84987636D01*
X157411752Y-84987641D01*
X157282187Y-85165974D01*
X157182104Y-85362393D01*
X157182103Y-85362396D01*
X157113985Y-85572047D01*
X157093795Y-85699523D01*
X157079500Y-85789778D01*
X157079500Y-86010222D01*
X157082957Y-86032047D01*
X157113985Y-86227952D01*
X157182103Y-86437603D01*
X157182104Y-86437606D01*
X157245361Y-86561752D01*
X157281482Y-86632643D01*
X157282187Y-86634025D01*
X157411752Y-86812358D01*
X157411756Y-86812363D01*
X157567636Y-86968243D01*
X157567641Y-86968247D01*
X157707254Y-87069682D01*
X157749920Y-87125012D01*
X157755899Y-87194625D01*
X157723293Y-87256420D01*
X157707254Y-87270318D01*
X157567641Y-87371752D01*
X157567636Y-87371756D01*
X157411756Y-87527636D01*
X157411752Y-87527641D01*
X157282187Y-87705974D01*
X157182104Y-87902393D01*
X157182103Y-87902396D01*
X157113985Y-88112047D01*
X157093795Y-88239523D01*
X157079500Y-88329778D01*
X157079500Y-88550222D01*
X157082957Y-88572047D01*
X157113985Y-88767952D01*
X157182103Y-88977603D01*
X157182104Y-88977606D01*
X157245361Y-89101752D01*
X157281482Y-89172643D01*
X157282187Y-89174025D01*
X157411752Y-89352358D01*
X157411756Y-89352363D01*
X157567636Y-89508243D01*
X157567641Y-89508247D01*
X157707254Y-89609682D01*
X157749920Y-89665012D01*
X157755899Y-89734625D01*
X157723293Y-89796420D01*
X157707254Y-89810318D01*
X157567641Y-89911752D01*
X157567636Y-89911756D01*
X157411756Y-90067636D01*
X157411752Y-90067641D01*
X157282187Y-90245974D01*
X157182104Y-90442393D01*
X157182103Y-90442396D01*
X157113985Y-90652047D01*
X157093795Y-90779523D01*
X157079500Y-90869778D01*
X157079500Y-91090222D01*
X157082957Y-91112047D01*
X157113985Y-91307952D01*
X157182103Y-91517603D01*
X157182104Y-91517606D01*
X157245361Y-91641752D01*
X157281482Y-91712643D01*
X157282187Y-91714025D01*
X157411752Y-91892358D01*
X157411756Y-91892363D01*
X157567636Y-92048243D01*
X157567641Y-92048247D01*
X157707254Y-92149682D01*
X157749920Y-92205012D01*
X157755899Y-92274625D01*
X157723293Y-92336420D01*
X157707254Y-92350318D01*
X157567641Y-92451752D01*
X157567636Y-92451756D01*
X157411756Y-92607636D01*
X157411752Y-92607641D01*
X157282187Y-92785974D01*
X157182104Y-92982393D01*
X157182103Y-92982396D01*
X157113985Y-93192047D01*
X157093795Y-93319523D01*
X157079500Y-93409778D01*
X157079500Y-93630222D01*
X157082957Y-93652047D01*
X157113985Y-93847952D01*
X157182103Y-94057603D01*
X157182104Y-94057606D01*
X157209056Y-94110500D01*
X157281482Y-94252643D01*
X157282187Y-94254025D01*
X157411752Y-94432358D01*
X157411756Y-94432363D01*
X157567638Y-94588245D01*
X157619334Y-94625803D01*
X157643384Y-94643276D01*
X157686051Y-94698605D01*
X157694500Y-94743595D01*
X157694500Y-95168299D01*
X157674815Y-95235338D01*
X157658181Y-95255980D01*
X155228991Y-97685169D01*
X155228990Y-97685170D01*
X155123933Y-97829767D01*
X155042343Y-97989897D01*
X155041284Y-97993654D01*
X154987559Y-98159001D01*
X154987558Y-98159008D01*
X154960856Y-98327601D01*
X154959600Y-98335530D01*
X154641400Y-98335530D01*
X154641400Y-86208301D01*
X154661085Y-86141262D01*
X154677719Y-86120620D01*
X155794759Y-85003580D01*
X156951111Y-83847229D01*
X156951113Y-83847225D01*
X156951116Y-83847223D01*
X157056163Y-83702636D01*
X157056162Y-83702636D01*
X157056166Y-83702632D01*
X157137309Y-83543381D01*
X157192541Y-83373397D01*
X157213704Y-83239778D01*
X157220500Y-83196870D01*
X157220500Y-83018129D01*
X157206520Y-82929868D01*
X157192541Y-82841603D01*
X157137309Y-82671620D01*
X157056166Y-82512369D01*
X157056164Y-82512366D01*
X157056163Y-82512364D01*
X156951116Y-82367777D01*
X156824728Y-82241389D01*
X156739982Y-82179818D01*
X156697317Y-82124489D01*
X156691338Y-82054876D01*
X156723943Y-81993080D01*
X156784782Y-81958723D01*
X156812868Y-81955500D01*
X157619918Y-81955500D01*
X157686957Y-81975185D01*
X157692803Y-81979182D01*
X157712621Y-81993580D01*
X157745978Y-82017815D01*
X157868022Y-82080000D01*
X157942393Y-82117895D01*
X157942396Y-82117896D01*
X157964227Y-82124989D01*
X158152049Y-82186015D01*
X158369778Y-82220500D01*
X158369779Y-82220500D01*
X159290221Y-82220500D01*
X159290222Y-82220500D01*
X159507951Y-82186015D01*
X159717606Y-82117895D01*
X159914022Y-82017815D01*
X160092365Y-81888242D01*
X160248242Y-81732365D01*
X160377815Y-81554022D01*
X160477895Y-81357606D01*
X160546015Y-81147951D01*
X160580500Y-80930222D01*
X160580500Y-80709778D01*
X160546015Y-80492049D01*
X160487176Y-80310958D01*
X160477896Y-80282396D01*
X160477895Y-80282393D01*
X160441901Y-80211752D01*
X160377815Y-80085978D01*
X160361260Y-80063192D01*
X160248247Y-79907641D01*
X160248243Y-79907636D01*
X160092363Y-79751756D01*
X160092358Y-79751752D01*
X159952745Y-79650318D01*
X159910079Y-79594989D01*
X159904100Y-79525375D01*
X159936705Y-79463580D01*
X159952745Y-79449682D01*
X160092358Y-79348247D01*
X160092356Y-79348247D01*
X160092365Y-79348242D01*
X160248242Y-79192365D01*
X160377815Y-79014022D01*
X160477895Y-78817606D01*
X160546015Y-78607951D01*
X160580500Y-78390222D01*
X160580500Y-78169778D01*
X160546015Y-77952049D01*
X160487176Y-77770958D01*
X160477896Y-77742396D01*
X160477895Y-77742393D01*
X160443237Y-77674375D01*
X160377815Y-77545978D01*
X160361260Y-77523192D01*
X160248247Y-77367641D01*
X160248243Y-77367636D01*
X160092363Y-77211756D01*
X160092358Y-77211752D01*
X159952745Y-77110318D01*
X159910079Y-77054989D01*
X159904100Y-76985375D01*
X159936705Y-76923580D01*
X159952745Y-76909682D01*
X160092358Y-76808247D01*
X160092356Y-76808247D01*
X160092365Y-76808242D01*
X160248242Y-76652365D01*
X160377815Y-76474022D01*
X160477895Y-76277606D01*
X160546015Y-76067951D01*
X160580500Y-75850222D01*
X160580500Y-75629778D01*
X160546015Y-75412049D01*
X160493197Y-75249489D01*
X160477896Y-75202396D01*
X160477895Y-75202393D01*
X160395263Y-75040222D01*
X160377815Y-75005978D01*
X160259338Y-74842907D01*
X160248247Y-74827641D01*
X160248243Y-74827636D01*
X160092363Y-74671756D01*
X160092358Y-74671752D01*
X159952745Y-74570318D01*
X159910079Y-74514989D01*
X159904100Y-74445375D01*
X159936705Y-74383580D01*
X159952745Y-74369682D01*
X160092358Y-74268247D01*
X160092356Y-74268247D01*
X160092365Y-74268242D01*
X160248242Y-74112365D01*
X160377815Y-73934022D01*
X160477895Y-73737606D01*
X160546015Y-73527951D01*
X160580500Y-73310222D01*
X160580500Y-73089778D01*
X160546015Y-72872049D01*
X160477895Y-72662394D01*
X160477895Y-72662393D01*
X160443237Y-72594375D01*
X160377815Y-72465978D01*
X160361260Y-72443192D01*
X160248247Y-72287641D01*
X160248243Y-72287636D01*
X160198071Y-72237464D01*
X160164586Y-72176141D01*
X160169570Y-72106449D01*
X160211442Y-72050516D01*
X160242420Y-72033601D01*
X160322326Y-72003798D01*
X160322326Y-72003797D01*
X160322331Y-72003796D01*
X160437546Y-71917546D01*
X160523796Y-71802331D01*
X160574091Y-71667483D01*
X160580500Y-71607873D01*
X160580499Y-69712128D01*
X160574091Y-69652517D01*
X160570361Y-69642517D01*
X160523797Y-69517671D01*
X160523793Y-69517664D01*
X160437547Y-69402455D01*
X160437544Y-69402452D01*
X160322335Y-69316206D01*
X160322328Y-69316202D01*
X160187482Y-69265908D01*
X160187483Y-69265908D01*
X160127883Y-69259501D01*
X160127881Y-69259500D01*
X160127873Y-69259500D01*
X160127864Y-69259500D01*
X157532129Y-69259500D01*
X157532123Y-69259501D01*
X157472516Y-69265908D01*
X157337671Y-69316202D01*
X157337664Y-69316206D01*
X157222455Y-69402452D01*
X157222452Y-69402455D01*
X157136206Y-69517664D01*
X157136202Y-69517671D01*
X157085908Y-69652517D01*
X157080576Y-69702116D01*
X157079501Y-69712123D01*
X157079500Y-69712135D01*
X157079500Y-71607870D01*
X157079501Y-71607876D01*
X157085908Y-71667483D01*
X157136202Y-71802328D01*
X157136204Y-71802331D01*
X157184008Y-71866189D01*
X157208426Y-71931652D01*
X157193575Y-71999925D01*
X157144170Y-72049331D01*
X157084742Y-72064500D01*
X156831701Y-72064500D01*
X156764662Y-72044815D01*
X156744020Y-72028181D01*
X156638827Y-71922988D01*
X156596320Y-71892105D01*
X156494232Y-71817933D01*
X156334981Y-71736791D01*
X156334975Y-71736788D01*
X156293294Y-71723246D01*
X156226553Y-71701560D01*
X156164997Y-71681559D01*
X156164995Y-71681558D01*
X156164994Y-71681558D01*
X155988470Y-71653600D01*
X155988466Y-71653600D01*
X147273866Y-71653600D01*
X147095134Y-71653600D01*
X147095130Y-71653600D01*
X146918608Y-71681558D01*
X146918606Y-71681558D01*
X146918603Y-71681559D01*
X146833611Y-71709175D01*
X146748614Y-71736792D01*
X146589366Y-71817934D01*
X146505616Y-71878781D01*
X146505615Y-71878780D01*
X146444776Y-71922984D01*
X146444767Y-71922991D01*
X144125072Y-74242689D01*
X143998691Y-74369069D01*
X143998690Y-74369070D01*
X143893633Y-74513667D01*
X143812490Y-74672918D01*
X143798945Y-74714604D01*
X143798946Y-74714605D01*
X143757258Y-74842906D01*
X143757257Y-74842907D01*
X143733214Y-74994715D01*
X143733207Y-74994765D01*
X143733015Y-74995978D01*
X143729300Y-75019434D01*
X129000000Y-75019434D01*
X129000000Y-62400000D01*
X123000000Y-62400000D01*
X123000000Y-149876000D01*
X122980315Y-149943039D01*
X122927511Y-149988794D01*
X122876000Y-150000000D01*
X103124000Y-150000000D01*
X103056961Y-149980315D01*
X103011206Y-149927511D01*
X103000000Y-149876000D01*
X103000000Y-144669778D01*
X104929500Y-144669778D01*
X104929500Y-144890222D01*
X104931969Y-144905809D01*
X104963985Y-145107952D01*
X105032103Y-145317603D01*
X105032104Y-145317606D01*
X105132187Y-145514025D01*
X105261752Y-145692358D01*
X105261756Y-145692363D01*
X105417636Y-145848243D01*
X105417641Y-145848247D01*
X105535651Y-145933985D01*
X105595978Y-145977815D01*
X105724375Y-146043237D01*
X105792393Y-146077895D01*
X105792396Y-146077896D01*
X105866832Y-146102081D01*
X106002049Y-146146015D01*
X106219778Y-146180500D01*
X106219779Y-146180500D01*
X107140221Y-146180500D01*
X107140222Y-146180500D01*
X107357951Y-146146015D01*
X107567606Y-146077895D01*
X107764022Y-145977815D01*
X107942365Y-145848242D01*
X108098242Y-145692365D01*
X108227815Y-145514022D01*
X108327895Y-145317606D01*
X108396015Y-145107951D01*
X108430500Y-144890222D01*
X108430500Y-144669778D01*
X108396015Y-144452049D01*
X108343163Y-144289384D01*
X108327896Y-144242396D01*
X108327895Y-144242393D01*
X108265221Y-144119391D01*
X108227815Y-144045978D01*
X108152903Y-143942870D01*
X108098247Y-143867641D01*
X108098243Y-143867636D01*
X107942363Y-143711756D01*
X107942358Y-143711752D01*
X107764025Y-143582187D01*
X107764024Y-143582186D01*
X107764022Y-143582185D01*
X107701096Y-143550122D01*
X107567606Y-143482104D01*
X107567603Y-143482103D01*
X107357952Y-143413985D01*
X107249086Y-143396742D01*
X107140222Y-143379500D01*
X106219778Y-143379500D01*
X106147201Y-143390995D01*
X106002047Y-143413985D01*
X105792396Y-143482103D01*
X105792393Y-143482104D01*
X105595974Y-143582187D01*
X105417641Y-143711752D01*
X105417636Y-143711756D01*
X105261756Y-143867636D01*
X105261752Y-143867641D01*
X105132187Y-144045974D01*
X105032104Y-144242393D01*
X105032103Y-144242396D01*
X104963985Y-144452047D01*
X104963985Y-144452049D01*
X104929500Y-144669778D01*
X103000000Y-144669778D01*
X103000000Y-139589778D01*
X104929500Y-139589778D01*
X104929500Y-139810222D01*
X104946742Y-139919086D01*
X104963985Y-140027952D01*
X105032103Y-140237603D01*
X105032104Y-140237606D01*
X105132187Y-140434025D01*
X105261752Y-140612358D01*
X105261756Y-140612363D01*
X105417636Y-140768243D01*
X105417641Y-140768247D01*
X105477326Y-140811610D01*
X105595978Y-140897815D01*
X105724375Y-140963237D01*
X105792393Y-140997895D01*
X105792396Y-140997896D01*
X105897221Y-141031955D01*
X106002049Y-141066015D01*
X106219778Y-141100500D01*
X106219779Y-141100500D01*
X107140221Y-141100500D01*
X107140222Y-141100500D01*
X107357951Y-141066015D01*
X107567606Y-140997895D01*
X107764022Y-140897815D01*
X107942365Y-140768242D01*
X108098242Y-140612365D01*
X108227815Y-140434022D01*
X108327895Y-140237606D01*
X108396015Y-140027951D01*
X108430500Y-139810222D01*
X108430500Y-139589778D01*
X108396015Y-139372049D01*
X108361955Y-139267221D01*
X108327896Y-139162396D01*
X108327895Y-139162393D01*
X108276010Y-139060565D01*
X108227815Y-138965978D01*
X108160909Y-138873889D01*
X108098247Y-138787641D01*
X108098243Y-138787636D01*
X107942363Y-138631756D01*
X107942358Y-138631752D01*
X107764025Y-138502187D01*
X107764024Y-138502186D01*
X107764022Y-138502185D01*
X107701096Y-138470122D01*
X107567606Y-138402104D01*
X107567603Y-138402103D01*
X107357952Y-138333985D01*
X107249086Y-138316742D01*
X107140222Y-138299500D01*
X106219778Y-138299500D01*
X106147201Y-138310995D01*
X106002047Y-138333985D01*
X105792396Y-138402103D01*
X105792393Y-138402104D01*
X105595974Y-138502187D01*
X105417641Y-138631752D01*
X105417636Y-138631756D01*
X105261756Y-138787636D01*
X105261752Y-138787641D01*
X105132187Y-138965974D01*
X105032104Y-139162393D01*
X105032103Y-139162396D01*
X104963985Y-139372047D01*
X104963985Y-139372049D01*
X104929500Y-139589778D01*
X103000000Y-139589778D01*
X103000000Y-134509778D01*
X104929500Y-134509778D01*
X104929500Y-134730221D01*
X104963985Y-134947952D01*
X105032103Y-135157603D01*
X105032104Y-135157606D01*
X105100122Y-135291096D01*
X105131355Y-135352394D01*
X105132187Y-135354025D01*
X105261752Y-135532358D01*
X105261756Y-135532363D01*
X105417636Y-135688243D01*
X105417641Y-135688247D01*
X105531771Y-135771166D01*
X105595978Y-135817815D01*
X105663676Y-135852309D01*
X105792393Y-135917895D01*
X105792396Y-135917896D01*
X105846577Y-135935500D01*
X106002049Y-135986015D01*
X106219778Y-136020500D01*
X106219779Y-136020500D01*
X107140221Y-136020500D01*
X107140222Y-136020500D01*
X107357951Y-135986015D01*
X107567606Y-135917895D01*
X107764022Y-135817815D01*
X107942365Y-135688242D01*
X108098242Y-135532365D01*
X108227815Y-135354022D01*
X108327895Y-135157606D01*
X108396015Y-134947951D01*
X108430500Y-134730222D01*
X108430500Y-134509778D01*
X108396015Y-134292049D01*
X108327895Y-134082394D01*
X108327895Y-134082393D01*
X108293237Y-134014375D01*
X108227815Y-133885978D01*
X108211260Y-133863192D01*
X108098247Y-133707641D01*
X108098243Y-133707636D01*
X107942363Y-133551756D01*
X107942358Y-133551752D01*
X107764025Y-133422187D01*
X107764024Y-133422186D01*
X107764022Y-133422185D01*
X107701096Y-133390122D01*
X107567606Y-133322104D01*
X107567603Y-133322103D01*
X107357952Y-133253985D01*
X107249086Y-133236742D01*
X107140222Y-133219500D01*
X106219778Y-133219500D01*
X106147201Y-133230995D01*
X106002047Y-133253985D01*
X105792396Y-133322103D01*
X105792393Y-133322104D01*
X105595974Y-133422187D01*
X105417641Y-133551752D01*
X105417636Y-133551756D01*
X105261756Y-133707636D01*
X105261752Y-133707641D01*
X105132187Y-133885974D01*
X105032104Y-134082393D01*
X105032103Y-134082396D01*
X104963985Y-134292047D01*
X104929500Y-134509778D01*
X103000000Y-134509778D01*
X103000000Y-129429778D01*
X104929500Y-129429778D01*
X104929500Y-129650221D01*
X104963985Y-129867952D01*
X105032103Y-130077603D01*
X105032104Y-130077606D01*
X105100122Y-130211096D01*
X105131355Y-130272394D01*
X105132187Y-130274025D01*
X105261752Y-130452358D01*
X105261756Y-130452363D01*
X105417636Y-130608243D01*
X105417641Y-130608247D01*
X105510208Y-130675500D01*
X105595978Y-130737815D01*
X105724375Y-130803237D01*
X105792393Y-130837895D01*
X105792396Y-130837896D01*
X105897221Y-130871955D01*
X106002049Y-130906015D01*
X106219778Y-130940500D01*
X106219779Y-130940500D01*
X107140221Y-130940500D01*
X107140222Y-130940500D01*
X107357951Y-130906015D01*
X107567606Y-130837895D01*
X107764022Y-130737815D01*
X107799803Y-130711819D01*
X107817197Y-130699182D01*
X107883003Y-130675702D01*
X107890082Y-130675500D01*
X109018299Y-130675500D01*
X109085338Y-130695185D01*
X109105980Y-130711819D01*
X109328181Y-130934020D01*
X109361666Y-130995343D01*
X109364500Y-131021701D01*
X109364500Y-132939070D01*
X109392458Y-133115593D01*
X109426220Y-133219501D01*
X109447689Y-133285578D01*
X109528833Y-133444832D01*
X109606519Y-133551757D01*
X109633888Y-133589427D01*
X109633891Y-133589430D01*
X113866572Y-137822112D01*
X113896821Y-137871473D01*
X113935080Y-137989219D01*
X113991284Y-138099525D01*
X113991285Y-138099526D01*
X114004800Y-138155821D01*
X114004800Y-139564177D01*
X113991285Y-139620472D01*
X113935081Y-139730776D01*
X113871822Y-139925465D01*
X113839800Y-140127648D01*
X113839800Y-140332351D01*
X113871822Y-140534534D01*
X113935081Y-140729223D01*
X114028015Y-140911613D01*
X114148328Y-141077213D01*
X114293086Y-141221971D01*
X114458688Y-141342286D01*
X114512128Y-141369516D01*
X114562923Y-141417490D01*
X114579718Y-141485312D01*
X114557180Y-141551446D01*
X114512128Y-141590484D01*
X114458688Y-141617713D01*
X114293086Y-141738028D01*
X114148328Y-141882786D01*
X114028015Y-142048386D01*
X113935081Y-142230776D01*
X113871822Y-142425465D01*
X113839800Y-142627648D01*
X113839800Y-142832351D01*
X113871822Y-143034534D01*
X113935081Y-143229223D01*
X113977060Y-143311610D01*
X114021984Y-143399778D01*
X114028015Y-143411613D01*
X114148328Y-143577213D01*
X114293086Y-143721971D01*
X114448049Y-143834556D01*
X114458690Y-143842287D01*
X114568969Y-143898477D01*
X114641076Y-143935218D01*
X114641078Y-143935218D01*
X114641081Y-143935220D01*
X114745437Y-143969127D01*
X114835765Y-143998477D01*
X114936857Y-144014488D01*
X115037948Y-144030500D01*
X115037949Y-144030500D01*
X115242651Y-144030500D01*
X115242652Y-144030500D01*
X115444834Y-143998477D01*
X115639519Y-143935220D01*
X115821910Y-143842287D01*
X115929486Y-143764129D01*
X115987513Y-143721971D01*
X115987515Y-143721968D01*
X115987519Y-143721966D01*
X116132266Y-143577219D01*
X116132268Y-143577215D01*
X116132271Y-143577213D01*
X116201370Y-143482105D01*
X116252587Y-143411610D01*
X116345520Y-143229219D01*
X116408777Y-143034534D01*
X116440800Y-142832352D01*
X116440800Y-142627648D01*
X116417555Y-142480888D01*
X116408777Y-142425465D01*
X116345518Y-142230776D01*
X116301295Y-142143985D01*
X116252587Y-142048390D01*
X116187908Y-141959366D01*
X116132271Y-141882786D01*
X115987513Y-141738028D01*
X115821913Y-141617715D01*
X115821912Y-141617714D01*
X115821910Y-141617713D01*
X115768471Y-141590484D01*
X115717676Y-141542510D01*
X115700881Y-141474689D01*
X115723418Y-141408554D01*
X115768472Y-141369515D01*
X115821910Y-141342287D01*
X115922073Y-141269515D01*
X115987513Y-141221971D01*
X115987515Y-141221968D01*
X115987519Y-141221966D01*
X116132266Y-141077219D01*
X116132268Y-141077215D01*
X116132271Y-141077213D01*
X116189898Y-140997895D01*
X116252587Y-140911610D01*
X116345520Y-140729219D01*
X116408777Y-140534534D01*
X116440800Y-140332352D01*
X116440800Y-140127648D01*
X116424961Y-140027648D01*
X118839800Y-140027648D01*
X118839800Y-140232351D01*
X118871822Y-140434534D01*
X118935081Y-140629223D01*
X118998991Y-140754653D01*
X119005918Y-140768247D01*
X119028015Y-140811613D01*
X119148328Y-140977213D01*
X119293086Y-141121971D01*
X119458688Y-141242286D01*
X119512128Y-141269516D01*
X119562923Y-141317490D01*
X119579718Y-141385312D01*
X119557180Y-141451446D01*
X119512128Y-141490484D01*
X119458688Y-141517713D01*
X119293086Y-141638028D01*
X119148328Y-141782786D01*
X119028015Y-141948386D01*
X118935081Y-142130776D01*
X118871822Y-142325465D01*
X118839800Y-142527648D01*
X118839800Y-142732351D01*
X118871822Y-142934534D01*
X118935081Y-143129223D01*
X119028015Y-143311613D01*
X119148328Y-143477213D01*
X119293086Y-143621971D01*
X119416667Y-143711756D01*
X119458690Y-143742287D01*
X119574907Y-143801503D01*
X119641076Y-143835218D01*
X119641078Y-143835218D01*
X119641081Y-143835220D01*
X119740844Y-143867635D01*
X119835765Y-143898477D01*
X119936857Y-143914488D01*
X120037948Y-143930500D01*
X120037949Y-143930500D01*
X120242651Y-143930500D01*
X120242652Y-143930500D01*
X120444834Y-143898477D01*
X120639519Y-143835220D01*
X120821910Y-143742287D01*
X120914890Y-143674732D01*
X120987513Y-143621971D01*
X120987515Y-143621968D01*
X120987519Y-143621966D01*
X121132266Y-143477219D01*
X121132268Y-143477215D01*
X121132271Y-143477213D01*
X121203262Y-143379500D01*
X121252587Y-143311610D01*
X121345520Y-143129219D01*
X121408777Y-142934534D01*
X121440800Y-142732352D01*
X121440800Y-142527648D01*
X121428753Y-142451585D01*
X121408777Y-142325465D01*
X121349810Y-142143985D01*
X121345520Y-142130781D01*
X121345518Y-142130778D01*
X121345518Y-142130776D01*
X121311803Y-142064607D01*
X121252587Y-141948390D01*
X121244856Y-141937749D01*
X121132271Y-141782786D01*
X120987513Y-141638028D01*
X120821913Y-141517715D01*
X120821912Y-141517714D01*
X120821910Y-141517713D01*
X120768471Y-141490484D01*
X120717676Y-141442510D01*
X120700881Y-141374689D01*
X120723418Y-141308554D01*
X120768472Y-141269515D01*
X120821910Y-141242287D01*
X120914890Y-141174732D01*
X120987513Y-141121971D01*
X120987515Y-141121968D01*
X120987519Y-141121966D01*
X121132266Y-140977219D01*
X121132268Y-140977215D01*
X121132271Y-140977213D01*
X121189958Y-140897812D01*
X121252587Y-140811610D01*
X121345520Y-140629219D01*
X121408777Y-140434534D01*
X121440800Y-140232352D01*
X121440800Y-140027648D01*
X121427293Y-139942367D01*
X121408777Y-139825465D01*
X121352697Y-139652869D01*
X121345520Y-139630781D01*
X121345518Y-139630778D01*
X121345518Y-139630776D01*
X121289315Y-139520472D01*
X121275800Y-139464177D01*
X121275800Y-138317588D01*
X121295485Y-138250549D01*
X121299467Y-138244723D01*
X121352587Y-138171610D01*
X121445520Y-137989219D01*
X121508777Y-137794534D01*
X121540800Y-137592352D01*
X121540800Y-137387648D01*
X121508777Y-137185466D01*
X121445520Y-136990781D01*
X121445518Y-136990778D01*
X121445518Y-136990776D01*
X121411803Y-136924607D01*
X121352587Y-136808390D01*
X121344856Y-136797749D01*
X121232271Y-136642786D01*
X121087513Y-136498028D01*
X120921913Y-136377715D01*
X120921912Y-136377714D01*
X120921910Y-136377713D01*
X120864953Y-136348691D01*
X120739523Y-136284781D01*
X120544834Y-136221522D01*
X120370295Y-136193878D01*
X120342652Y-136189500D01*
X120137948Y-136189500D01*
X120113629Y-136193351D01*
X119935765Y-136221522D01*
X119741076Y-136284781D01*
X119558686Y-136377715D01*
X119393086Y-136498028D01*
X119248328Y-136642786D01*
X119128015Y-136808386D01*
X119035081Y-136990776D01*
X118971822Y-137185465D01*
X118939800Y-137387648D01*
X118939800Y-137592351D01*
X118971822Y-137794530D01*
X118998731Y-137877347D01*
X119004800Y-137915665D01*
X119004800Y-139464177D01*
X118991285Y-139520472D01*
X118935081Y-139630776D01*
X118871822Y-139825465D01*
X118839800Y-140027648D01*
X116424961Y-140027648D01*
X116408777Y-139925466D01*
X116345520Y-139730781D01*
X116345518Y-139730778D01*
X116345518Y-139730776D01*
X116289315Y-139620472D01*
X116275800Y-139564177D01*
X116275800Y-138155821D01*
X116289316Y-138099525D01*
X116345517Y-137989225D01*
X116345518Y-137989223D01*
X116345520Y-137989219D01*
X116408777Y-137794534D01*
X116440800Y-137592352D01*
X116440800Y-137387648D01*
X116408777Y-137185466D01*
X116345520Y-136990781D01*
X116345518Y-136990778D01*
X116345518Y-136990776D01*
X116311803Y-136924607D01*
X116252587Y-136808390D01*
X116244856Y-136797749D01*
X116132271Y-136642786D01*
X115987513Y-136498028D01*
X115821913Y-136377715D01*
X115821912Y-136377714D01*
X115821910Y-136377713D01*
X115764953Y-136348691D01*
X115639523Y-136284781D01*
X115521774Y-136246522D01*
X115472412Y-136216272D01*
X111671819Y-132415679D01*
X111638334Y-132354356D01*
X111635500Y-132327998D01*
X111635500Y-130410637D01*
X111635499Y-130410628D01*
X111634785Y-130406116D01*
X111613606Y-130272396D01*
X111607541Y-130234103D01*
X111553815Y-130068754D01*
X111552754Y-130064993D01*
X111471166Y-129904867D01*
X111465916Y-129897641D01*
X111366111Y-129760272D01*
X111239728Y-129633889D01*
X110279728Y-128673889D01*
X110216065Y-128627635D01*
X110135132Y-128568833D01*
X109975881Y-128487691D01*
X109975875Y-128487688D01*
X109926845Y-128471758D01*
X109863927Y-128451314D01*
X109805897Y-128432459D01*
X109805895Y-128432458D01*
X109805894Y-128432458D01*
X109629370Y-128404500D01*
X109629366Y-128404500D01*
X107890082Y-128404500D01*
X107823043Y-128384815D01*
X107817197Y-128380818D01*
X107764025Y-128342187D01*
X107764024Y-128342186D01*
X107764022Y-128342185D01*
X107701096Y-128310122D01*
X107567606Y-128242104D01*
X107567603Y-128242103D01*
X107357952Y-128173985D01*
X107249086Y-128156742D01*
X107140222Y-128139500D01*
X106219778Y-128139500D01*
X106147201Y-128150995D01*
X106002047Y-128173985D01*
X105792396Y-128242103D01*
X105792393Y-128242104D01*
X105595974Y-128342187D01*
X105417641Y-128471752D01*
X105417636Y-128471756D01*
X105261758Y-128627635D01*
X105261752Y-128627641D01*
X105132187Y-128805974D01*
X105032104Y-129002393D01*
X105032103Y-129002396D01*
X104963985Y-129212047D01*
X104929500Y-129429778D01*
X103000000Y-129429778D01*
X103000000Y-124349778D01*
X104929500Y-124349778D01*
X104929500Y-124570221D01*
X104963985Y-124787952D01*
X105032103Y-124997603D01*
X105032104Y-124997606D01*
X105132187Y-125194025D01*
X105261752Y-125372358D01*
X105261756Y-125372363D01*
X105417636Y-125528243D01*
X105417641Y-125528247D01*
X105524308Y-125605744D01*
X105595978Y-125657815D01*
X105724375Y-125723237D01*
X105792393Y-125757895D01*
X105792396Y-125757896D01*
X105897221Y-125791955D01*
X106002049Y-125826015D01*
X106219778Y-125860500D01*
X106219779Y-125860500D01*
X107140221Y-125860500D01*
X107140222Y-125860500D01*
X107357951Y-125826015D01*
X107567606Y-125757895D01*
X107764022Y-125657815D01*
X107942365Y-125528242D01*
X108098242Y-125372365D01*
X108227815Y-125194022D01*
X108327895Y-124997606D01*
X108396015Y-124787951D01*
X108430500Y-124570222D01*
X108430500Y-124349778D01*
X108396015Y-124132049D01*
X108353808Y-124002146D01*
X108327896Y-123922396D01*
X108327895Y-123922393D01*
X108291173Y-123850323D01*
X108227815Y-123725978D01*
X108178362Y-123657911D01*
X108098247Y-123547641D01*
X108098243Y-123547636D01*
X107942363Y-123391756D01*
X107942358Y-123391752D01*
X107764025Y-123262187D01*
X107764024Y-123262186D01*
X107764022Y-123262185D01*
X107701096Y-123230122D01*
X107567606Y-123162104D01*
X107567603Y-123162103D01*
X107357952Y-123093985D01*
X107249086Y-123076742D01*
X107140222Y-123059500D01*
X106219778Y-123059500D01*
X106147201Y-123070995D01*
X106002047Y-123093985D01*
X105792396Y-123162103D01*
X105792393Y-123162104D01*
X105595974Y-123262187D01*
X105417641Y-123391752D01*
X105417636Y-123391756D01*
X105261756Y-123547636D01*
X105261752Y-123547641D01*
X105132187Y-123725974D01*
X105032104Y-123922393D01*
X105032103Y-123922396D01*
X104963985Y-124132047D01*
X104929500Y-124349778D01*
X103000000Y-124349778D01*
X103000000Y-119269778D01*
X104929500Y-119269778D01*
X104929500Y-119490221D01*
X104963985Y-119707952D01*
X105032103Y-119917603D01*
X105032104Y-119917606D01*
X105100122Y-120051096D01*
X105131355Y-120112394D01*
X105132187Y-120114025D01*
X105261752Y-120292358D01*
X105261756Y-120292363D01*
X105417636Y-120448243D01*
X105417641Y-120448247D01*
X105497640Y-120506369D01*
X105595978Y-120577815D01*
X105724375Y-120643237D01*
X105792393Y-120677895D01*
X105792396Y-120677896D01*
X105892962Y-120710571D01*
X106002049Y-120746015D01*
X106219778Y-120780500D01*
X106219779Y-120780500D01*
X107140221Y-120780500D01*
X107140222Y-120780500D01*
X107357951Y-120746015D01*
X107567606Y-120677895D01*
X107764022Y-120577815D01*
X107942365Y-120448242D01*
X108098242Y-120292365D01*
X108227815Y-120114022D01*
X108327895Y-119917606D01*
X108396015Y-119707951D01*
X108430500Y-119490222D01*
X108430500Y-119269778D01*
X108396015Y-119052049D01*
X108337303Y-118871349D01*
X108327896Y-118842396D01*
X108327895Y-118842393D01*
X108265287Y-118719521D01*
X108227815Y-118645978D01*
X108185823Y-118588181D01*
X108098247Y-118467641D01*
X108098242Y-118467635D01*
X107942363Y-118311756D01*
X107942358Y-118311752D01*
X107764025Y-118182187D01*
X107764024Y-118182186D01*
X107764022Y-118182185D01*
X107701096Y-118150122D01*
X107567606Y-118082104D01*
X107567603Y-118082103D01*
X107357952Y-118013985D01*
X107249086Y-117996742D01*
X107140222Y-117979500D01*
X106219778Y-117979500D01*
X106147201Y-117990995D01*
X106002047Y-118013985D01*
X105792396Y-118082103D01*
X105792393Y-118082104D01*
X105595974Y-118182187D01*
X105417641Y-118311752D01*
X105417636Y-118311756D01*
X105261758Y-118467635D01*
X105261752Y-118467641D01*
X105132187Y-118645974D01*
X105032104Y-118842393D01*
X105032103Y-118842396D01*
X104963985Y-119052047D01*
X104929500Y-119269778D01*
X103000000Y-119269778D01*
X103000000Y-114189778D01*
X104929500Y-114189778D01*
X104929500Y-114410221D01*
X104963985Y-114627952D01*
X105032103Y-114837603D01*
X105032104Y-114837606D01*
X105100122Y-114971096D01*
X105131355Y-115032394D01*
X105132187Y-115034025D01*
X105261752Y-115212358D01*
X105261756Y-115212363D01*
X105417636Y-115368243D01*
X105417641Y-115368247D01*
X105543624Y-115459778D01*
X105595978Y-115497815D01*
X105724375Y-115563237D01*
X105792393Y-115597895D01*
X105792396Y-115597896D01*
X105897221Y-115631955D01*
X106002049Y-115666015D01*
X106219778Y-115700500D01*
X106219779Y-115700500D01*
X107140221Y-115700500D01*
X107140222Y-115700500D01*
X107357951Y-115666015D01*
X107567606Y-115597895D01*
X107764022Y-115497815D01*
X107942365Y-115368242D01*
X108098242Y-115212365D01*
X108227815Y-115034022D01*
X108327895Y-114837606D01*
X108396015Y-114627951D01*
X108430500Y-114410222D01*
X108430500Y-114189778D01*
X108396015Y-113972049D01*
X108337303Y-113791349D01*
X108327896Y-113762396D01*
X108327895Y-113762393D01*
X108265288Y-113639523D01*
X108227815Y-113565978D01*
X108173637Y-113491408D01*
X108098247Y-113387641D01*
X108098243Y-113387636D01*
X107942363Y-113231756D01*
X107942358Y-113231752D01*
X107764025Y-113102187D01*
X107764024Y-113102186D01*
X107764022Y-113102185D01*
X107701096Y-113070122D01*
X107567606Y-113002104D01*
X107567603Y-113002103D01*
X107357952Y-112933985D01*
X107249086Y-112916742D01*
X107140222Y-112899500D01*
X106219778Y-112899500D01*
X106147201Y-112910995D01*
X106002047Y-112933985D01*
X105792396Y-113002103D01*
X105792393Y-113002104D01*
X105595974Y-113102187D01*
X105417641Y-113231752D01*
X105417636Y-113231756D01*
X105261756Y-113387636D01*
X105261752Y-113387641D01*
X105132187Y-113565974D01*
X105032104Y-113762393D01*
X105032103Y-113762396D01*
X104963985Y-113972047D01*
X104929500Y-114189778D01*
X103000000Y-114189778D01*
X103000000Y-109109778D01*
X104929500Y-109109778D01*
X104929500Y-109330221D01*
X104963985Y-109547952D01*
X105032103Y-109757603D01*
X105032104Y-109757606D01*
X105075814Y-109843389D01*
X105114558Y-109919428D01*
X105132187Y-109954025D01*
X105261752Y-110132358D01*
X105261756Y-110132363D01*
X105417636Y-110288243D01*
X105417641Y-110288247D01*
X105487649Y-110339110D01*
X105595978Y-110417815D01*
X105724375Y-110483237D01*
X105792393Y-110517895D01*
X105792396Y-110517896D01*
X105897221Y-110551955D01*
X106002049Y-110586015D01*
X106219778Y-110620500D01*
X106219779Y-110620500D01*
X107140221Y-110620500D01*
X107140222Y-110620500D01*
X107357951Y-110586015D01*
X107567606Y-110517895D01*
X107764022Y-110417815D01*
X107942365Y-110288242D01*
X108098242Y-110132365D01*
X108227815Y-109954022D01*
X108327895Y-109757606D01*
X108396015Y-109547951D01*
X108430500Y-109330222D01*
X108430500Y-109109778D01*
X108396015Y-108892049D01*
X108344627Y-108733890D01*
X108327896Y-108682396D01*
X108327895Y-108682393D01*
X108265288Y-108559523D01*
X108227815Y-108485978D01*
X108186070Y-108428521D01*
X108098247Y-108307641D01*
X108098243Y-108307636D01*
X107942363Y-108151756D01*
X107942358Y-108151752D01*
X107764025Y-108022187D01*
X107764024Y-108022186D01*
X107764022Y-108022185D01*
X107701096Y-107990122D01*
X107567606Y-107922104D01*
X107567603Y-107922103D01*
X107357952Y-107853985D01*
X107249086Y-107836742D01*
X107140222Y-107819500D01*
X106219778Y-107819500D01*
X106147201Y-107830995D01*
X106002047Y-107853985D01*
X105792396Y-107922103D01*
X105792393Y-107922104D01*
X105595974Y-108022187D01*
X105417641Y-108151752D01*
X105417636Y-108151756D01*
X105261756Y-108307636D01*
X105261752Y-108307641D01*
X105132187Y-108485974D01*
X105032104Y-108682393D01*
X105032103Y-108682396D01*
X104963985Y-108892047D01*
X104929500Y-109109778D01*
X103000000Y-109109778D01*
X103000000Y-81169778D01*
X104929500Y-81169778D01*
X104929500Y-81390221D01*
X104963985Y-81607952D01*
X105032103Y-81817603D01*
X105032104Y-81817606D01*
X105100122Y-81951096D01*
X105131355Y-82012394D01*
X105132187Y-82014025D01*
X105261752Y-82192358D01*
X105261756Y-82192363D01*
X105417636Y-82348243D01*
X105417641Y-82348247D01*
X105557254Y-82449682D01*
X105599920Y-82505012D01*
X105605899Y-82574625D01*
X105573293Y-82636420D01*
X105557254Y-82650318D01*
X105417641Y-82751752D01*
X105417636Y-82751756D01*
X105261756Y-82907636D01*
X105261752Y-82907641D01*
X105132187Y-83085974D01*
X105032104Y-83282393D01*
X105032103Y-83282396D01*
X104963985Y-83492047D01*
X104929500Y-83709778D01*
X104929500Y-83930221D01*
X104963985Y-84147952D01*
X105032103Y-84357603D01*
X105032104Y-84357606D01*
X105063001Y-84418243D01*
X105131355Y-84552394D01*
X105132187Y-84554025D01*
X105261752Y-84732358D01*
X105261756Y-84732363D01*
X105417636Y-84888243D01*
X105417641Y-84888247D01*
X105557254Y-84989682D01*
X105599920Y-85045012D01*
X105605899Y-85114625D01*
X105573293Y-85176420D01*
X105557254Y-85190318D01*
X105417641Y-85291752D01*
X105417636Y-85291756D01*
X105261756Y-85447636D01*
X105261752Y-85447641D01*
X105132187Y-85625974D01*
X105032104Y-85822393D01*
X105032103Y-85822396D01*
X104963985Y-86032047D01*
X104929500Y-86249778D01*
X104929500Y-86470221D01*
X104963985Y-86687952D01*
X105032103Y-86897603D01*
X105032104Y-86897606D01*
X105100122Y-87031096D01*
X105131355Y-87092394D01*
X105132187Y-87094025D01*
X105261752Y-87272358D01*
X105261756Y-87272363D01*
X105417636Y-87428243D01*
X105417641Y-87428247D01*
X105557254Y-87529682D01*
X105599920Y-87585012D01*
X105605899Y-87654625D01*
X105573293Y-87716420D01*
X105557254Y-87730318D01*
X105417641Y-87831752D01*
X105417636Y-87831756D01*
X105261756Y-87987636D01*
X105261752Y-87987641D01*
X105132187Y-88165974D01*
X105032104Y-88362393D01*
X105032103Y-88362396D01*
X104963985Y-88572047D01*
X104929500Y-88789778D01*
X104929500Y-89010221D01*
X104963985Y-89227952D01*
X105032103Y-89437603D01*
X105032104Y-89437606D01*
X105100122Y-89571096D01*
X105131355Y-89632394D01*
X105132187Y-89634025D01*
X105261752Y-89812358D01*
X105261756Y-89812363D01*
X105417636Y-89968243D01*
X105417641Y-89968247D01*
X105557254Y-90069682D01*
X105599920Y-90125012D01*
X105605899Y-90194625D01*
X105573293Y-90256420D01*
X105557254Y-90270318D01*
X105417641Y-90371752D01*
X105417636Y-90371756D01*
X105261756Y-90527636D01*
X105261752Y-90527641D01*
X105132187Y-90705974D01*
X105032104Y-90902393D01*
X105032103Y-90902396D01*
X104963985Y-91112047D01*
X104929500Y-91329778D01*
X104929500Y-91550221D01*
X104963985Y-91767952D01*
X105032103Y-91977603D01*
X105032104Y-91977606D01*
X105100122Y-92111096D01*
X105131355Y-92172394D01*
X105132187Y-92174025D01*
X105261752Y-92352358D01*
X105261756Y-92352363D01*
X105417636Y-92508243D01*
X105417641Y-92508247D01*
X105557254Y-92609682D01*
X105599920Y-92665012D01*
X105605899Y-92734625D01*
X105573293Y-92796420D01*
X105557254Y-92810318D01*
X105417641Y-92911752D01*
X105417636Y-92911756D01*
X105261756Y-93067636D01*
X105261752Y-93067641D01*
X105132187Y-93245974D01*
X105032104Y-93442393D01*
X105032103Y-93442396D01*
X104963985Y-93652047D01*
X104929500Y-93869778D01*
X104929500Y-94090221D01*
X104963985Y-94307952D01*
X105032103Y-94517603D01*
X105032104Y-94517606D01*
X105096138Y-94643276D01*
X105114558Y-94679428D01*
X105132187Y-94714025D01*
X105261752Y-94892358D01*
X105261756Y-94892363D01*
X105417636Y-95048243D01*
X105417641Y-95048247D01*
X105557254Y-95149682D01*
X105599920Y-95205012D01*
X105605899Y-95274625D01*
X105573293Y-95336420D01*
X105557254Y-95350318D01*
X105417641Y-95451752D01*
X105417636Y-95451756D01*
X105261756Y-95607636D01*
X105261752Y-95607641D01*
X105132187Y-95785974D01*
X105032104Y-95982393D01*
X105032103Y-95982396D01*
X104963985Y-96192047D01*
X104929500Y-96409778D01*
X104929500Y-96630221D01*
X104963985Y-96847952D01*
X105032103Y-97057603D01*
X105032104Y-97057606D01*
X105100122Y-97191096D01*
X105131355Y-97252394D01*
X105132187Y-97254025D01*
X105261752Y-97432358D01*
X105261756Y-97432363D01*
X105417636Y-97588243D01*
X105417641Y-97588247D01*
X105557254Y-97689682D01*
X105599920Y-97745012D01*
X105605899Y-97814625D01*
X105573293Y-97876420D01*
X105557254Y-97890318D01*
X105417641Y-97991752D01*
X105417636Y-97991756D01*
X105261756Y-98147636D01*
X105261752Y-98147641D01*
X105132187Y-98325974D01*
X105032104Y-98522393D01*
X105032103Y-98522396D01*
X104963985Y-98732047D01*
X104929500Y-98949778D01*
X104929500Y-99170221D01*
X104963985Y-99387952D01*
X105032103Y-99597603D01*
X105032104Y-99597606D01*
X105080027Y-99691657D01*
X105131355Y-99792394D01*
X105132187Y-99794025D01*
X105261752Y-99972358D01*
X105261756Y-99972363D01*
X105417636Y-100128243D01*
X105417641Y-100128247D01*
X105557254Y-100229682D01*
X105599920Y-100285012D01*
X105605899Y-100354625D01*
X105573293Y-100416420D01*
X105557254Y-100430318D01*
X105417641Y-100531752D01*
X105417636Y-100531756D01*
X105261756Y-100687636D01*
X105261752Y-100687641D01*
X105132187Y-100865974D01*
X105032104Y-101062393D01*
X105032103Y-101062396D01*
X104963985Y-101272047D01*
X104929500Y-101489778D01*
X104929500Y-101710221D01*
X104963985Y-101927952D01*
X105032103Y-102137603D01*
X105032104Y-102137606D01*
X105100122Y-102271096D01*
X105131355Y-102332394D01*
X105132187Y-102334025D01*
X105261752Y-102512358D01*
X105261756Y-102512363D01*
X105417636Y-102668243D01*
X105417641Y-102668247D01*
X105557254Y-102769682D01*
X105599920Y-102825012D01*
X105605899Y-102894625D01*
X105573293Y-102956420D01*
X105557254Y-102970318D01*
X105417641Y-103071752D01*
X105417636Y-103071756D01*
X105261756Y-103227636D01*
X105261752Y-103227641D01*
X105132187Y-103405974D01*
X105032104Y-103602393D01*
X105032103Y-103602396D01*
X104963985Y-103812047D01*
X104929500Y-104029778D01*
X104929500Y-104250221D01*
X104963985Y-104467952D01*
X105032103Y-104677603D01*
X105032104Y-104677606D01*
X105100122Y-104811096D01*
X105131355Y-104872394D01*
X105132187Y-104874025D01*
X105261752Y-105052358D01*
X105261756Y-105052363D01*
X105417636Y-105208243D01*
X105417641Y-105208247D01*
X105454387Y-105234944D01*
X105595978Y-105337815D01*
X105724375Y-105403237D01*
X105792393Y-105437895D01*
X105792396Y-105437896D01*
X105897221Y-105471955D01*
X106002049Y-105506015D01*
X106219778Y-105540500D01*
X106219779Y-105540500D01*
X107140221Y-105540500D01*
X107140222Y-105540500D01*
X107357951Y-105506015D01*
X107567606Y-105437895D01*
X107764022Y-105337815D01*
X107942365Y-105208242D01*
X108098242Y-105052365D01*
X108227815Y-104874022D01*
X108327895Y-104677606D01*
X108396015Y-104467951D01*
X108430500Y-104250222D01*
X108430500Y-104029778D01*
X108396015Y-103812049D01*
X108337303Y-103631349D01*
X108327896Y-103602396D01*
X108327895Y-103602393D01*
X108265288Y-103479523D01*
X108227815Y-103405978D01*
X108186070Y-103348521D01*
X108098247Y-103227641D01*
X108098243Y-103227636D01*
X107942363Y-103071756D01*
X107942358Y-103071752D01*
X107802745Y-102970318D01*
X107760079Y-102914989D01*
X107754100Y-102845375D01*
X107786705Y-102783580D01*
X107802745Y-102769682D01*
X107942358Y-102668247D01*
X107942356Y-102668247D01*
X107942365Y-102668242D01*
X108098242Y-102512365D01*
X108227815Y-102334022D01*
X108327895Y-102137606D01*
X108396015Y-101927951D01*
X108430500Y-101710222D01*
X108430500Y-101489778D01*
X108396015Y-101272049D01*
X108337303Y-101091349D01*
X108327896Y-101062396D01*
X108327895Y-101062393D01*
X108265288Y-100939523D01*
X108227815Y-100865978D01*
X108186070Y-100808521D01*
X108098247Y-100687641D01*
X108098243Y-100687636D01*
X107942363Y-100531756D01*
X107942358Y-100531752D01*
X107802745Y-100430318D01*
X107760079Y-100374989D01*
X107754100Y-100305375D01*
X107786705Y-100243580D01*
X107802745Y-100229682D01*
X107942358Y-100128247D01*
X107942356Y-100128247D01*
X107942365Y-100128242D01*
X108098242Y-99972365D01*
X108227815Y-99794022D01*
X108327895Y-99597606D01*
X108396015Y-99387951D01*
X108430500Y-99170222D01*
X108430500Y-98949778D01*
X108396015Y-98732049D01*
X108337303Y-98551349D01*
X108327896Y-98522396D01*
X108327895Y-98522393D01*
X108265288Y-98399523D01*
X108227815Y-98325978D01*
X108186070Y-98268521D01*
X108098247Y-98147641D01*
X108098243Y-98147636D01*
X107942363Y-97991756D01*
X107942358Y-97991752D01*
X107802745Y-97890318D01*
X107760079Y-97834989D01*
X107754100Y-97765375D01*
X107786705Y-97703580D01*
X107802745Y-97689682D01*
X107942358Y-97588247D01*
X107942356Y-97588247D01*
X107942365Y-97588242D01*
X108098242Y-97432365D01*
X108227815Y-97254022D01*
X108327895Y-97057606D01*
X108396015Y-96847951D01*
X108430500Y-96630222D01*
X108430500Y-96409778D01*
X108396015Y-96192049D01*
X108337303Y-96011349D01*
X108327896Y-95982396D01*
X108327895Y-95982393D01*
X108265288Y-95859523D01*
X108227815Y-95785978D01*
X108186070Y-95728521D01*
X108098247Y-95607641D01*
X108098243Y-95607636D01*
X107942363Y-95451756D01*
X107942358Y-95451752D01*
X107802745Y-95350318D01*
X107760079Y-95294989D01*
X107754100Y-95225375D01*
X107786705Y-95163580D01*
X107802745Y-95149682D01*
X107942358Y-95048247D01*
X107942356Y-95048247D01*
X107942365Y-95048242D01*
X108098242Y-94892365D01*
X108227815Y-94714022D01*
X108327895Y-94517606D01*
X108396015Y-94307951D01*
X108430500Y-94090222D01*
X108430500Y-93869778D01*
X108396015Y-93652049D01*
X108337303Y-93471349D01*
X108327896Y-93442396D01*
X108327895Y-93442393D01*
X108265288Y-93319523D01*
X108227815Y-93245978D01*
X108186070Y-93188521D01*
X108098247Y-93067641D01*
X108098243Y-93067636D01*
X107942363Y-92911756D01*
X107942358Y-92911752D01*
X107802745Y-92810318D01*
X107760079Y-92754989D01*
X107754100Y-92685375D01*
X107786705Y-92623580D01*
X107802745Y-92609682D01*
X107942358Y-92508247D01*
X107942356Y-92508247D01*
X107942365Y-92508242D01*
X108098242Y-92352365D01*
X108227815Y-92174022D01*
X108327895Y-91977606D01*
X108396015Y-91767951D01*
X108430500Y-91550222D01*
X108430500Y-91329778D01*
X108396015Y-91112049D01*
X108337303Y-90931349D01*
X108327896Y-90902396D01*
X108327895Y-90902393D01*
X108265288Y-90779523D01*
X108227815Y-90705978D01*
X108211260Y-90683192D01*
X108098247Y-90527641D01*
X108098243Y-90527636D01*
X107942363Y-90371756D01*
X107942358Y-90371752D01*
X107802745Y-90270318D01*
X107760079Y-90214989D01*
X107754100Y-90145375D01*
X107786705Y-90083580D01*
X107802745Y-90069682D01*
X107942358Y-89968247D01*
X107942356Y-89968247D01*
X107942365Y-89968242D01*
X108098242Y-89812365D01*
X108227815Y-89634022D01*
X108327895Y-89437606D01*
X108396015Y-89227951D01*
X108430500Y-89010222D01*
X108430500Y-88789778D01*
X108396015Y-88572049D01*
X108337303Y-88391349D01*
X108327896Y-88362396D01*
X108327895Y-88362393D01*
X108265288Y-88239523D01*
X108227815Y-88165978D01*
X108186070Y-88108521D01*
X108098247Y-87987641D01*
X108098243Y-87987636D01*
X107942363Y-87831756D01*
X107942358Y-87831752D01*
X107802745Y-87730318D01*
X107760079Y-87674989D01*
X107754100Y-87605375D01*
X107786705Y-87543580D01*
X107802745Y-87529682D01*
X107942358Y-87428247D01*
X107942356Y-87428247D01*
X107942365Y-87428242D01*
X108098242Y-87272365D01*
X108227815Y-87094022D01*
X108327895Y-86897606D01*
X108396015Y-86687951D01*
X108430500Y-86470222D01*
X108430500Y-86249778D01*
X108396015Y-86032049D01*
X108337303Y-85851349D01*
X108327896Y-85822396D01*
X108327895Y-85822393D01*
X108265288Y-85699523D01*
X108227815Y-85625978D01*
X108186070Y-85568521D01*
X108098247Y-85447641D01*
X108098243Y-85447636D01*
X107942363Y-85291756D01*
X107942358Y-85291752D01*
X107802745Y-85190318D01*
X107760079Y-85134989D01*
X107754100Y-85065375D01*
X107786705Y-85003580D01*
X107802745Y-84989682D01*
X107942358Y-84888247D01*
X107942356Y-84888247D01*
X107942365Y-84888242D01*
X108098242Y-84732365D01*
X108227815Y-84554022D01*
X108327895Y-84357606D01*
X108396015Y-84147951D01*
X108430500Y-83930222D01*
X108430500Y-83709778D01*
X108396015Y-83492049D01*
X108337303Y-83311349D01*
X108327896Y-83282396D01*
X108327895Y-83282393D01*
X108265288Y-83159523D01*
X108227815Y-83085978D01*
X108186070Y-83028521D01*
X108098247Y-82907641D01*
X108098243Y-82907636D01*
X107942363Y-82751756D01*
X107942358Y-82751752D01*
X107802745Y-82650318D01*
X107760079Y-82594989D01*
X107754100Y-82525375D01*
X107786705Y-82463580D01*
X107802745Y-82449682D01*
X107942358Y-82348247D01*
X107942356Y-82348247D01*
X107942365Y-82348242D01*
X108098242Y-82192365D01*
X108227815Y-82014022D01*
X108327895Y-81817606D01*
X108396015Y-81607951D01*
X108430500Y-81390222D01*
X108430500Y-81169778D01*
X108396015Y-80952049D01*
X108337303Y-80771349D01*
X108327896Y-80742396D01*
X108327895Y-80742393D01*
X108265288Y-80619523D01*
X108227815Y-80545978D01*
X108186070Y-80488521D01*
X108098247Y-80367641D01*
X108098243Y-80367636D01*
X107942363Y-80211756D01*
X107942358Y-80211752D01*
X107764025Y-80082187D01*
X107764024Y-80082186D01*
X107764022Y-80082185D01*
X107701096Y-80050122D01*
X107567606Y-79982104D01*
X107567603Y-79982103D01*
X107357952Y-79913985D01*
X107249086Y-79896742D01*
X107140222Y-79879500D01*
X106219778Y-79879500D01*
X106147201Y-79890995D01*
X106002047Y-79913985D01*
X105792396Y-79982103D01*
X105792393Y-79982104D01*
X105595974Y-80082187D01*
X105417641Y-80211752D01*
X105417636Y-80211756D01*
X105261756Y-80367636D01*
X105261752Y-80367641D01*
X105132187Y-80545974D01*
X105032104Y-80742393D01*
X105032103Y-80742396D01*
X104963985Y-80952047D01*
X104929500Y-81169778D01*
X103000000Y-81169778D01*
X103000000Y-74819778D01*
X104929500Y-74819778D01*
X104929500Y-75040221D01*
X104963985Y-75257952D01*
X105032103Y-75467603D01*
X105032104Y-75467606D01*
X105132187Y-75664025D01*
X105261752Y-75842358D01*
X105261756Y-75842363D01*
X105417636Y-75998243D01*
X105417641Y-75998247D01*
X105513583Y-76067952D01*
X105595978Y-76127815D01*
X105675689Y-76168430D01*
X105792393Y-76227895D01*
X105792396Y-76227896D01*
X105892962Y-76260571D01*
X106002049Y-76296015D01*
X106219778Y-76330500D01*
X106219779Y-76330500D01*
X107140221Y-76330500D01*
X107140222Y-76330500D01*
X107357951Y-76296015D01*
X107567606Y-76227895D01*
X107764022Y-76127815D01*
X107942365Y-75998242D01*
X108098242Y-75842365D01*
X108227815Y-75664022D01*
X108327895Y-75467606D01*
X108396015Y-75257951D01*
X108430500Y-75040222D01*
X108430500Y-74819778D01*
X108396015Y-74602049D01*
X108335244Y-74415012D01*
X108327896Y-74392396D01*
X108327895Y-74392393D01*
X108264636Y-74268243D01*
X108227815Y-74195978D01*
X108167062Y-74112358D01*
X108098247Y-74017641D01*
X108098243Y-74017636D01*
X107942363Y-73861756D01*
X107942358Y-73861752D01*
X107764025Y-73732187D01*
X107764024Y-73732186D01*
X107764022Y-73732185D01*
X107701096Y-73700122D01*
X107567606Y-73632104D01*
X107567603Y-73632103D01*
X107357952Y-73563985D01*
X107158765Y-73532437D01*
X107140222Y-73529500D01*
X106219778Y-73529500D01*
X106201235Y-73532437D01*
X106002047Y-73563985D01*
X105792396Y-73632103D01*
X105792393Y-73632104D01*
X105595974Y-73732187D01*
X105417641Y-73861752D01*
X105417636Y-73861756D01*
X105261756Y-74017636D01*
X105261752Y-74017641D01*
X105132187Y-74195974D01*
X105032104Y-74392393D01*
X105032103Y-74392396D01*
X104963985Y-74602047D01*
X104929500Y-74819778D01*
X103000000Y-74819778D01*
X103000000Y-67199778D01*
X104929500Y-67199778D01*
X104929500Y-67420221D01*
X104963985Y-67637952D01*
X105032103Y-67847603D01*
X105032104Y-67847606D01*
X105132187Y-68044025D01*
X105261752Y-68222358D01*
X105261756Y-68222363D01*
X105417636Y-68378243D01*
X105417641Y-68378247D01*
X105573192Y-68491260D01*
X105595978Y-68507815D01*
X105724375Y-68573237D01*
X105792393Y-68607895D01*
X105792396Y-68607896D01*
X105897221Y-68641955D01*
X106002049Y-68676015D01*
X106219778Y-68710500D01*
X106219779Y-68710500D01*
X107140221Y-68710500D01*
X107140222Y-68710500D01*
X107357951Y-68676015D01*
X107567606Y-68607895D01*
X107764022Y-68507815D01*
X107942365Y-68378242D01*
X108098242Y-68222365D01*
X108227815Y-68044022D01*
X108327895Y-67847606D01*
X108396015Y-67637951D01*
X108430500Y-67420222D01*
X108430500Y-67199778D01*
X108396015Y-66982049D01*
X108327895Y-66772394D01*
X108327895Y-66772393D01*
X108293237Y-66704375D01*
X108227815Y-66575978D01*
X108131848Y-66443890D01*
X108098247Y-66397641D01*
X108098241Y-66397634D01*
X107942363Y-66241756D01*
X107942358Y-66241752D01*
X107764025Y-66112187D01*
X107764024Y-66112186D01*
X107764022Y-66112185D01*
X107701096Y-66080122D01*
X107567606Y-66012104D01*
X107567603Y-66012103D01*
X107357952Y-65943985D01*
X107249086Y-65926742D01*
X107140222Y-65909500D01*
X106219778Y-65909500D01*
X106147201Y-65920995D01*
X106002047Y-65943985D01*
X105792396Y-66012103D01*
X105792393Y-66012104D01*
X105595974Y-66112187D01*
X105417641Y-66241752D01*
X105417636Y-66241756D01*
X105261759Y-66397634D01*
X105261752Y-66397641D01*
X105132187Y-66575974D01*
X105032104Y-66772393D01*
X105032103Y-66772396D01*
X104963985Y-66982047D01*
X104929500Y-67199778D01*
X103000000Y-67199778D01*
X103000000Y-56202135D01*
X104929500Y-56202135D01*
X104929500Y-58097870D01*
X104929501Y-58097876D01*
X104935908Y-58157483D01*
X104986202Y-58292328D01*
X104986206Y-58292335D01*
X105072452Y-58407544D01*
X105072455Y-58407547D01*
X105187664Y-58493793D01*
X105187671Y-58493797D01*
X105267580Y-58523601D01*
X105323514Y-58565472D01*
X105347931Y-58630936D01*
X105333080Y-58699209D01*
X105311929Y-58727463D01*
X105261756Y-58777636D01*
X105261752Y-58777641D01*
X105132187Y-58955974D01*
X105032104Y-59152393D01*
X105032103Y-59152396D01*
X104963985Y-59362047D01*
X104929500Y-59579778D01*
X104929500Y-59800221D01*
X104963985Y-60017952D01*
X105032103Y-60227603D01*
X105032104Y-60227606D01*
X105132187Y-60424025D01*
X105261752Y-60602358D01*
X105261756Y-60602363D01*
X105417636Y-60758243D01*
X105417641Y-60758247D01*
X105573192Y-60871260D01*
X105595978Y-60887815D01*
X105724375Y-60953237D01*
X105792393Y-60987895D01*
X105792396Y-60987896D01*
X105897221Y-61021955D01*
X106002049Y-61056015D01*
X106219778Y-61090500D01*
X106219779Y-61090500D01*
X107140221Y-61090500D01*
X107140222Y-61090500D01*
X107357951Y-61056015D01*
X107567606Y-60987895D01*
X107764022Y-60887815D01*
X107942365Y-60758242D01*
X108098242Y-60602365D01*
X108227815Y-60424022D01*
X108327895Y-60227606D01*
X108396015Y-60017951D01*
X108430500Y-59800222D01*
X108430500Y-59579778D01*
X108396015Y-59362049D01*
X108327895Y-59152394D01*
X108327895Y-59152393D01*
X108293237Y-59084375D01*
X108227815Y-58955978D01*
X108211260Y-58933192D01*
X108098247Y-58777641D01*
X108098243Y-58777636D01*
X108048071Y-58727464D01*
X108014586Y-58666141D01*
X108019570Y-58596449D01*
X108061442Y-58540516D01*
X108092420Y-58523601D01*
X108172326Y-58493798D01*
X108172326Y-58493797D01*
X108172331Y-58493796D01*
X108287546Y-58407546D01*
X108373796Y-58292331D01*
X108424091Y-58157483D01*
X108430500Y-58097873D01*
X108430499Y-56202128D01*
X108424091Y-56142517D01*
X108407371Y-56097689D01*
X108373797Y-56007671D01*
X108373793Y-56007664D01*
X108287547Y-55892455D01*
X108287544Y-55892452D01*
X108172335Y-55806206D01*
X108172328Y-55806202D01*
X108037482Y-55755908D01*
X108037483Y-55755908D01*
X107977883Y-55749501D01*
X107977881Y-55749500D01*
X107977873Y-55749500D01*
X107977864Y-55749500D01*
X105382129Y-55749500D01*
X105382123Y-55749501D01*
X105322516Y-55755908D01*
X105187671Y-55806202D01*
X105187664Y-55806206D01*
X105072455Y-55892452D01*
X105072452Y-55892455D01*
X104986206Y-56007664D01*
X104986202Y-56007671D01*
X104935908Y-56142517D01*
X104932004Y-56178833D01*
X104929501Y-56202123D01*
X104929500Y-56202135D01*
X103000000Y-56202135D01*
X103000000Y-52124000D01*
X103019685Y-52056961D01*
X103072489Y-52011206D01*
X103124000Y-52000000D01*
X122876000Y-52000000D01*
X122943039Y-52019685D01*
G37*
G04 #@! TD.AperFunction*
G04 #@! TD*
G04 #@! TA.AperFunction,NonConductor*
G36*
X155406838Y-73933244D02*
G01*
X155436825Y-73939768D01*
X155441840Y-73943522D01*
X155444437Y-73944285D01*
X155465079Y-73960919D01*
X155570271Y-74066111D01*
X155582448Y-74074958D01*
X155620172Y-74102366D01*
X155666852Y-74136281D01*
X155714868Y-74171167D01*
X155874119Y-74252309D01*
X155874121Y-74252310D01*
X155923171Y-74268247D01*
X156044103Y-74307540D01*
X156220634Y-74335500D01*
X157619918Y-74335500D01*
X157640338Y-74341496D01*
X157661588Y-74342711D01*
X157683058Y-74354040D01*
X157686957Y-74355185D01*
X157692803Y-74359182D01*
X157707255Y-74369682D01*
X157749921Y-74425012D01*
X157755900Y-74494625D01*
X157723294Y-74556420D01*
X157707255Y-74570318D01*
X157692803Y-74580818D01*
X157626997Y-74604298D01*
X157619918Y-74604500D01*
X152304802Y-74604500D01*
X152237763Y-74584815D01*
X152217121Y-74568181D01*
X152002980Y-74354040D01*
X151785219Y-74136280D01*
X151751735Y-74074958D01*
X151756719Y-74005267D01*
X151798590Y-73949333D01*
X151864055Y-73924916D01*
X151872901Y-73924600D01*
X155377398Y-73924600D01*
X155406838Y-73933244D01*
G37*
G04 #@! TD.AperFunction*
G04 #@! TA.AperFunction,NonConductor*
G36*
X151001338Y-113295185D02*
G01*
X151047093Y-113347989D01*
X151057037Y-113417147D01*
X151028012Y-113480703D01*
X151021980Y-113487181D01*
X151000980Y-113508181D01*
X150939657Y-113541666D01*
X150913299Y-113544500D01*
X150099554Y-113544500D01*
X150079201Y-113538523D01*
X150058018Y-113537337D01*
X150036441Y-113525968D01*
X150032515Y-113524815D01*
X150026784Y-113520902D01*
X150026697Y-113520839D01*
X150016344Y-113513317D01*
X150016259Y-113513273D01*
X150012297Y-113510402D01*
X149993800Y-113486471D01*
X149973478Y-113464073D01*
X149972647Y-113459105D01*
X149969568Y-113455121D01*
X149966945Y-113424997D01*
X149961958Y-113395160D01*
X149963945Y-113390530D01*
X149963509Y-113385514D01*
X149977593Y-113358746D01*
X149989525Y-113330958D01*
X149994468Y-113326674D01*
X149996043Y-113323682D01*
X150001464Y-113320611D01*
X150013109Y-113310521D01*
X150012402Y-113309547D01*
X150026668Y-113299182D01*
X150092474Y-113275702D01*
X150099554Y-113275500D01*
X150934299Y-113275500D01*
X151001338Y-113295185D01*
G37*
G04 #@! TD.AperFunction*
G04 #@! TA.AperFunction,NonConductor*
G36*
X148047485Y-118375185D02*
G01*
X148053326Y-118379178D01*
X148063656Y-118386683D01*
X148067598Y-118389547D01*
X148066224Y-118391437D01*
X148081814Y-118408690D01*
X148104666Y-118432256D01*
X148105112Y-118434472D01*
X148106630Y-118436152D01*
X148111981Y-118468568D01*
X148118465Y-118500749D01*
X148117642Y-118502855D01*
X148118011Y-118505089D01*
X148104984Y-118535258D01*
X148093043Y-118565830D01*
X148090988Y-118567674D01*
X148090315Y-118569235D01*
X148067705Y-118590399D01*
X148063732Y-118593278D01*
X148063656Y-118593317D01*
X148054506Y-118599964D01*
X148053860Y-118600433D01*
X148053332Y-118600818D01*
X148053329Y-118600818D01*
X148053219Y-118600899D01*
X148020669Y-118612472D01*
X147987526Y-118624298D01*
X147987399Y-118624301D01*
X147987387Y-118624306D01*
X147987371Y-118624302D01*
X147980446Y-118624500D01*
X147166701Y-118624500D01*
X147099662Y-118604815D01*
X147079020Y-118588181D01*
X147058020Y-118567181D01*
X147024535Y-118505858D01*
X147029519Y-118436166D01*
X147071391Y-118380233D01*
X147136855Y-118355816D01*
X147145701Y-118355500D01*
X147980446Y-118355500D01*
X148047485Y-118375185D01*
G37*
G04 #@! TD.AperFunction*
G04 #@! TA.AperFunction,NonConductor*
G36*
X181699924Y-71725431D02*
G01*
X181749331Y-71774835D01*
X181764500Y-71834265D01*
X181764500Y-72751569D01*
X181744815Y-72818608D01*
X181692011Y-72864363D01*
X181622853Y-72874307D01*
X181559297Y-72845282D01*
X181522569Y-72789887D01*
X181477896Y-72652396D01*
X181477895Y-72652393D01*
X181443237Y-72584375D01*
X181377815Y-72455978D01*
X181255512Y-72287641D01*
X181248247Y-72277641D01*
X181248243Y-72277636D01*
X181198071Y-72227464D01*
X181164586Y-72166141D01*
X181169570Y-72096449D01*
X181211442Y-72040516D01*
X181242420Y-72023601D01*
X181322326Y-71993798D01*
X181322326Y-71993797D01*
X181322331Y-71993796D01*
X181437546Y-71907546D01*
X181523796Y-71792331D01*
X181524317Y-71790933D01*
X181525210Y-71789739D01*
X181528047Y-71784546D01*
X181528793Y-71784953D01*
X181566187Y-71735000D01*
X181631651Y-71710581D01*
X181699924Y-71725431D01*
G37*
G04 #@! TD.AperFunction*
G04 #@! TA.AperFunction,NonConductor*
G36*
X181695211Y-73517152D02*
G01*
X181746687Y-73564396D01*
X181764500Y-73628430D01*
X181764500Y-75291569D01*
X181744815Y-75358608D01*
X181692011Y-75404363D01*
X181622853Y-75414307D01*
X181559297Y-75385282D01*
X181522569Y-75329887D01*
X181477896Y-75192396D01*
X181477895Y-75192393D01*
X181443237Y-75124375D01*
X181377815Y-74995978D01*
X181361260Y-74973192D01*
X181248247Y-74817641D01*
X181248243Y-74817636D01*
X181092363Y-74661756D01*
X181092358Y-74661752D01*
X180952745Y-74560318D01*
X180910079Y-74504989D01*
X180904100Y-74435375D01*
X180936705Y-74373580D01*
X180952745Y-74359682D01*
X181092358Y-74258247D01*
X181092356Y-74258247D01*
X181092365Y-74258242D01*
X181248242Y-74102365D01*
X181377815Y-73924022D01*
X181477895Y-73727606D01*
X181508925Y-73632104D01*
X181522569Y-73590113D01*
X181562006Y-73532437D01*
X181626364Y-73505238D01*
X181695211Y-73517152D01*
G37*
G04 #@! TD.AperFunction*
G04 #@! TA.AperFunction,NonConductor*
G36*
X181695211Y-76057152D02*
G01*
X181746687Y-76104396D01*
X181764500Y-76168430D01*
X181764500Y-77831569D01*
X181744815Y-77898608D01*
X181692011Y-77944363D01*
X181622853Y-77954307D01*
X181559297Y-77925282D01*
X181522569Y-77869887D01*
X181477896Y-77732396D01*
X181477895Y-77732393D01*
X181420868Y-77620474D01*
X181377815Y-77535978D01*
X181328900Y-77468652D01*
X181248247Y-77357641D01*
X181248243Y-77357636D01*
X181092363Y-77201756D01*
X181092358Y-77201752D01*
X180952745Y-77100318D01*
X180910079Y-77044989D01*
X180904100Y-76975375D01*
X180936705Y-76913580D01*
X180952745Y-76899682D01*
X181092358Y-76798247D01*
X181092356Y-76798247D01*
X181092365Y-76798242D01*
X181248242Y-76642365D01*
X181377815Y-76464022D01*
X181477895Y-76267606D01*
X181485244Y-76244989D01*
X181522569Y-76130113D01*
X181562006Y-76072437D01*
X181626364Y-76045238D01*
X181695211Y-76057152D01*
G37*
G04 #@! TD.AperFunction*
G04 #@! TA.AperFunction,NonConductor*
G36*
X181695211Y-78597152D02*
G01*
X181746687Y-78644396D01*
X181764500Y-78708430D01*
X181764500Y-80371569D01*
X181744815Y-80438608D01*
X181692011Y-80484363D01*
X181622853Y-80494307D01*
X181559297Y-80465282D01*
X181522569Y-80409887D01*
X181477896Y-80272396D01*
X181477895Y-80272393D01*
X181420868Y-80160474D01*
X181377815Y-80075978D01*
X181328900Y-80008652D01*
X181248247Y-79897641D01*
X181248243Y-79897636D01*
X181092363Y-79741756D01*
X181092358Y-79741752D01*
X180952745Y-79640318D01*
X180910079Y-79584989D01*
X180904100Y-79515375D01*
X180936705Y-79453580D01*
X180952745Y-79439682D01*
X181092358Y-79338247D01*
X181092356Y-79338247D01*
X181092365Y-79338242D01*
X181248242Y-79182365D01*
X181377815Y-79004022D01*
X181477895Y-78807606D01*
X181499861Y-78740000D01*
X181522569Y-78670113D01*
X181562006Y-78612437D01*
X181626364Y-78585238D01*
X181695211Y-78597152D01*
G37*
G04 #@! TD.AperFunction*
G04 #@! TA.AperFunction,NonConductor*
G36*
X181695211Y-81137152D02*
G01*
X181746687Y-81184396D01*
X181764500Y-81248430D01*
X181764500Y-82911569D01*
X181744815Y-82978608D01*
X181692011Y-83024363D01*
X181622853Y-83034307D01*
X181559297Y-83005282D01*
X181522569Y-82949887D01*
X181477896Y-82812396D01*
X181477895Y-82812393D01*
X181420868Y-82700474D01*
X181377815Y-82615978D01*
X181359688Y-82591028D01*
X181248247Y-82437641D01*
X181248243Y-82437636D01*
X181092363Y-82281756D01*
X181092358Y-82281752D01*
X180952745Y-82180318D01*
X180910079Y-82124989D01*
X180904100Y-82055375D01*
X180936705Y-81993580D01*
X180952745Y-81979682D01*
X181092358Y-81878247D01*
X181092356Y-81878247D01*
X181092365Y-81878242D01*
X181248242Y-81722365D01*
X181377815Y-81544022D01*
X181477895Y-81347606D01*
X181499861Y-81280000D01*
X181522569Y-81210113D01*
X181562006Y-81152437D01*
X181626364Y-81125238D01*
X181695211Y-81137152D01*
G37*
G04 #@! TD.AperFunction*
G04 #@! TA.AperFunction,NonConductor*
G36*
X181695211Y-83677152D02*
G01*
X181746687Y-83724396D01*
X181764500Y-83788430D01*
X181764500Y-85451569D01*
X181744815Y-85518608D01*
X181692011Y-85564363D01*
X181622853Y-85574307D01*
X181559297Y-85545282D01*
X181522569Y-85489887D01*
X181477896Y-85352396D01*
X181477895Y-85352393D01*
X181420868Y-85240474D01*
X181377815Y-85155978D01*
X181355366Y-85125079D01*
X181248247Y-84977641D01*
X181248243Y-84977636D01*
X181092363Y-84821756D01*
X181092358Y-84821752D01*
X180952745Y-84720318D01*
X180910079Y-84664989D01*
X180904100Y-84595375D01*
X180936705Y-84533580D01*
X180952745Y-84519682D01*
X181092358Y-84418247D01*
X181092356Y-84418247D01*
X181092365Y-84418242D01*
X181248242Y-84262365D01*
X181377815Y-84084022D01*
X181477895Y-83887606D01*
X181499861Y-83820000D01*
X181522569Y-83750113D01*
X181562006Y-83692437D01*
X181626364Y-83665238D01*
X181695211Y-83677152D01*
G37*
G04 #@! TD.AperFunction*
G04 #@! TA.AperFunction,NonConductor*
G36*
X181695211Y-86217152D02*
G01*
X181746687Y-86264396D01*
X181764500Y-86328430D01*
X181764500Y-87991569D01*
X181744815Y-88058608D01*
X181692011Y-88104363D01*
X181622853Y-88114307D01*
X181559297Y-88085282D01*
X181522569Y-88029887D01*
X181477896Y-87892396D01*
X181477895Y-87892393D01*
X181420868Y-87780474D01*
X181377815Y-87695978D01*
X181359688Y-87671028D01*
X181248247Y-87517641D01*
X181248243Y-87517636D01*
X181092363Y-87361756D01*
X181092358Y-87361752D01*
X180952745Y-87260318D01*
X180910079Y-87204989D01*
X180904100Y-87135375D01*
X180936705Y-87073580D01*
X180952745Y-87059682D01*
X181092358Y-86958247D01*
X181092356Y-86958247D01*
X181092365Y-86958242D01*
X181248242Y-86802365D01*
X181377815Y-86624022D01*
X181477895Y-86427606D01*
X181499861Y-86360000D01*
X181522569Y-86290113D01*
X181562006Y-86232437D01*
X181626364Y-86205238D01*
X181695211Y-86217152D01*
G37*
G04 #@! TD.AperFunction*
G04 #@! TA.AperFunction,NonConductor*
G36*
X181695211Y-88757152D02*
G01*
X181746687Y-88804396D01*
X181764500Y-88868430D01*
X181764500Y-90531569D01*
X181744815Y-90598608D01*
X181692011Y-90644363D01*
X181622853Y-90654307D01*
X181559297Y-90625282D01*
X181522569Y-90569887D01*
X181477896Y-90432396D01*
X181477895Y-90432393D01*
X181420506Y-90319763D01*
X181377815Y-90235978D01*
X181359688Y-90211028D01*
X181248247Y-90057641D01*
X181248243Y-90057636D01*
X181092363Y-89901756D01*
X181092358Y-89901752D01*
X180952745Y-89800318D01*
X180910079Y-89744989D01*
X180904100Y-89675375D01*
X180936705Y-89613580D01*
X180952745Y-89599682D01*
X181092358Y-89498247D01*
X181092356Y-89498247D01*
X181092365Y-89498242D01*
X181248242Y-89342365D01*
X181377815Y-89164022D01*
X181477895Y-88967606D01*
X181499861Y-88900000D01*
X181522569Y-88830113D01*
X181562006Y-88772437D01*
X181626364Y-88745238D01*
X181695211Y-88757152D01*
G37*
G04 #@! TD.AperFunction*
G04 #@! TA.AperFunction,NonConductor*
G36*
X160475019Y-91821215D02*
G01*
X160509377Y-91882053D01*
X160512600Y-91910140D01*
X160512600Y-92589859D01*
X160492915Y-92656898D01*
X160440111Y-92702653D01*
X160370953Y-92712597D01*
X160307397Y-92683572D01*
X160288282Y-92662744D01*
X160248247Y-92607641D01*
X160248243Y-92607636D01*
X160092363Y-92451756D01*
X160092358Y-92451752D01*
X159952745Y-92350318D01*
X159910079Y-92294989D01*
X159904100Y-92225375D01*
X159936705Y-92163580D01*
X159952745Y-92149682D01*
X160092358Y-92048247D01*
X160092356Y-92048247D01*
X160092365Y-92048242D01*
X160248242Y-91892365D01*
X160255509Y-91882363D01*
X160288281Y-91837256D01*
X160343611Y-91794589D01*
X160413224Y-91788610D01*
X160475019Y-91821215D01*
G37*
G04 #@! TD.AperFunction*
M02*
