M48
; DRILL file {KiCad 9.0.0-9.0.0-2~ubuntu24.04.1} date 2025-03-11T16:45:08-0300
; FORMAT={-:-/ absolute / metric / decimal}
; #@! TF.CreationDate,2025-03-11T16:45:08-03:00
; #@! TF.GenerationSoftware,Kicad,Pcbnew,9.0.0-9.0.0-2~ubuntu24.04.1
; #@! TF.FileFunction,Plated,1,2,PTH
FMAT,2
METRIC
; #@! TA.AperFunction,Plated,PTH,ViaDrill
T1C0.600
; #@! TA.AperFunction,Plated,PTH,ComponentDrill
T2C0.800
; #@! TA.AperFunction,Plated,PTH,ComponentDrill
T3C1.016
; #@! TA.AperFunction,Plated,PTH,ComponentDrill
T4C1.020
%
G90
G05
T1
X130.4Y-134.8
X137.106Y-145.666
X156.085Y-83.108
X156.095Y-138.971
X156.206Y-143.853
X161.648Y-90.745
X162.75Y-100.799
X187.9Y-148.5
T2
X115.14Y-129.87
X115.14Y-137.49
X115.14Y-140.23
X115.14Y-142.73
X120.14Y-140.13
X120.14Y-142.63
X120.24Y-129.87
X120.24Y-137.49
T3
X133.8Y-76.58
X133.8Y-79.12
X133.8Y-81.66
X133.8Y-84.2
X133.8Y-86.74
X133.8Y-89.28
X133.8Y-91.82
X133.8Y-94.36
X133.8Y-96.9
X133.8Y-99.44
X133.8Y-101.98
X133.8Y-104.52
X133.8Y-107.06
X133.8Y-109.6
X133.8Y-112.14
X133.8Y-114.68
X133.8Y-117.22
X133.8Y-119.76
X133.8Y-122.3
X133.8Y-124.891
X140.14Y-121.03
X142.68Y-121.03
X149.04Y-76.58
X149.04Y-79.12
X149.04Y-81.66
X149.04Y-84.2
X149.04Y-86.74
X149.04Y-89.28
X149.04Y-91.82
X149.04Y-94.36
X149.04Y-96.9
X149.04Y-99.44
X149.04Y-101.98
X149.04Y-104.52
X149.04Y-107.06
X149.04Y-109.6
X149.04Y-112.14
X149.04Y-114.68
X149.04Y-117.22
X149.04Y-119.76
X149.04Y-122.3
X149.04Y-124.84
T4
X106.68Y-57.15
X106.68Y-59.69
X106.68Y-62.23
X106.68Y-64.77
X106.68Y-67.31
X106.68Y-69.85
X106.68Y-72.39
X106.68Y-74.93
X106.68Y-81.28
X106.68Y-83.82
X106.68Y-86.36
X106.68Y-88.9
X106.68Y-91.44
X106.68Y-93.98
X106.68Y-96.52
X106.68Y-99.06
X106.68Y-101.6
X106.68Y-104.14
X106.68Y-106.68
X106.68Y-109.22
X106.68Y-111.76
X106.68Y-114.3
X106.68Y-116.84
X106.68Y-119.38
X106.68Y-121.92
X106.68Y-124.46
X106.68Y-127.0
X106.68Y-129.54
X106.68Y-132.08
X106.68Y-134.62
X106.68Y-137.16
X106.68Y-139.7
X106.68Y-142.24
X106.68Y-144.78
X106.68Y-147.32
X158.83Y-70.66
X158.83Y-73.2
X158.83Y-75.74
X158.83Y-78.28
X158.83Y-80.82
X158.83Y-83.36
X158.83Y-85.9
X158.83Y-88.44
X158.83Y-90.98
X158.83Y-93.52
X172.66Y-147.4
X175.2Y-147.4
X179.83Y-70.65
X179.83Y-73.19
X179.83Y-75.73
X179.83Y-78.27
X179.83Y-80.81
X179.83Y-83.35
X179.83Y-85.89
X179.83Y-88.43
X179.83Y-90.97
X179.83Y-93.51
X185.42Y-57.15
X185.42Y-59.69
X185.42Y-62.23
X185.42Y-64.77
X185.42Y-67.31
X185.42Y-69.85
X185.42Y-72.39
X185.42Y-74.93
X185.42Y-77.47
X185.42Y-80.01
X185.42Y-82.55
X185.42Y-85.09
X185.42Y-87.63
X185.42Y-90.17
X185.42Y-92.71
X185.42Y-95.25
X185.42Y-97.79
X185.42Y-100.33
X185.42Y-102.87
X185.42Y-105.41
X185.42Y-107.95
X185.42Y-110.49
X185.42Y-113.03
X185.42Y-115.57
X185.42Y-118.11
X185.42Y-120.65
X185.42Y-123.19
X185.42Y-125.73
X185.42Y-128.27
X185.42Y-130.81
X185.42Y-133.35
X185.42Y-135.89
X185.42Y-138.43
X185.42Y-140.97
X185.42Y-143.51
M30
