%TF.GenerationSoftware,KiCad,Pcbnew,7.0.5-7.0.5~ubuntu20.04.1*%
%TF.CreationDate,2023-08-01T16:37:57-03:00*%
%TF.ProjectId,condicionamento_BIA_v02,636f6e64-6963-4696-9f6e-616d656e746f,v01*%
%TF.SameCoordinates,Original*%
%TF.FileFunction,Drillmap*%
%TF.FilePolarity,Positive*%
%FSLAX45Y45*%
G04 Gerber Fmt 4.5, Leading zero omitted, Abs format (unit mm)*
G04 Created by KiCad (PCBNEW 7.0.5-7.0.5~ubuntu20.04.1) date 2023-08-01 16:37:57*
%MOMM*%
%LPD*%
G01*
G04 APERTURE LIST*
%ADD10C,0.500000*%
%ADD11C,0.200000*%
%ADD12C,0.080000*%
%ADD13C,0.081280*%
%ADD14C,0.100000*%
%ADD15C,0.101600*%
G04 APERTURE END LIST*
D10*
X19160000Y-5080000D02*
X10160000Y-5080000D01*
X19160000Y-15080000D02*
X19160000Y-5080000D01*
X19159982Y-15079980D02*
X10160000Y-15079980D01*
X10160000Y-5080000D02*
X10160000Y-15079980D01*
D11*
D12*
X10960000Y-5888450D02*
X11040000Y-5968450D01*
X11040000Y-5888450D02*
X10960000Y-5968450D01*
X11014068Y-14815932D02*
X11094068Y-14895932D01*
X11094068Y-14815932D02*
X11014068Y-14895932D01*
X11244910Y-7505090D02*
X11324910Y-7585090D01*
X11324910Y-7505090D02*
X11244910Y-7585090D01*
X11410000Y-9060000D02*
X11490000Y-9140000D01*
X11490000Y-9060000D02*
X11410000Y-9140000D01*
X12285000Y-9060000D02*
X12365000Y-9140000D01*
X12365000Y-9060000D02*
X12285000Y-9140000D01*
X12560000Y-9410000D02*
X12640000Y-9490000D01*
X12640000Y-9410000D02*
X12560000Y-9490000D01*
X12640000Y-7210000D02*
X12720000Y-7290000D01*
X12720000Y-7210000D02*
X12640000Y-7290000D01*
X12660000Y-7500000D02*
X12740000Y-7580000D01*
X12740000Y-7500000D02*
X12660000Y-7580000D01*
X12750000Y-9060000D02*
X12830000Y-9140000D01*
X12830000Y-9060000D02*
X12750000Y-9140000D01*
X13130000Y-7210000D02*
X13210000Y-7290000D01*
X13210000Y-7210000D02*
X13130000Y-7290000D01*
X13270000Y-9410000D02*
X13350000Y-9490000D01*
X13350000Y-9410000D02*
X13270000Y-9490000D01*
X13340000Y-7210000D02*
X13420000Y-7290000D01*
X13420000Y-7210000D02*
X13340000Y-7290000D01*
X13340000Y-8860000D02*
X13420000Y-8940000D01*
X13420000Y-8860000D02*
X13340000Y-8940000D01*
X13340000Y-9060000D02*
X13420000Y-9140000D01*
X13420000Y-9060000D02*
X13340000Y-9140000D01*
X13573450Y-5900000D02*
X13653450Y-5980000D01*
X13653450Y-5900000D02*
X13573450Y-5980000D01*
X13950000Y-12170000D02*
X14030000Y-12250000D01*
X14030000Y-12170000D02*
X13950000Y-12250000D01*
X14163500Y-11900000D02*
X14243500Y-11980000D01*
X14243500Y-11900000D02*
X14163500Y-11980000D01*
X14170000Y-13710000D02*
X14250000Y-13790000D01*
X14250000Y-13710000D02*
X14170000Y-13790000D01*
X14670000Y-14120000D02*
X14750000Y-14200000D01*
X14750000Y-14120000D02*
X14670000Y-14200000D01*
X15480000Y-11700000D02*
X15560000Y-11780000D01*
X15560000Y-11700000D02*
X15480000Y-11780000D01*
X15480000Y-11910000D02*
X15560000Y-11990000D01*
X15560000Y-11910000D02*
X15480000Y-11990000D01*
X15734450Y-12181000D02*
X15814450Y-12261000D01*
X15814450Y-12181000D02*
X15734450Y-12261000D01*
X15820000Y-14130000D02*
X15900000Y-14210000D01*
X15900000Y-14130000D02*
X15820000Y-14210000D01*
X15820000Y-14790000D02*
X15900000Y-14870000D01*
X15900000Y-14790000D02*
X15820000Y-14870000D01*
X16180000Y-11690000D02*
X16260000Y-11770000D01*
X16260000Y-11690000D02*
X16180000Y-11770000D01*
X16260000Y-13710000D02*
X16340000Y-13790000D01*
X16340000Y-13710000D02*
X16260000Y-13790000D01*
X16620000Y-12190000D02*
X16700000Y-12270000D01*
X16700000Y-12190000D02*
X16620000Y-12270000D01*
X16620000Y-13390000D02*
X16700000Y-13470000D01*
X16700000Y-13390000D02*
X16620000Y-13470000D01*
X16760000Y-14310000D02*
X16840000Y-14390000D01*
X16840000Y-14310000D02*
X16760000Y-14390000D01*
X17360000Y-13560000D02*
X17440000Y-13640000D01*
X17440000Y-13560000D02*
X17360000Y-13640000D01*
X17570000Y-12460000D02*
X17650000Y-12540000D01*
X17650000Y-12460000D02*
X17570000Y-12540000D01*
X17570000Y-13196550D02*
X17650000Y-13276550D01*
X17650000Y-13196550D02*
X17570000Y-13276550D01*
X17573450Y-13810000D02*
X17653450Y-13890000D01*
X17653450Y-13810000D02*
X17573450Y-13890000D01*
X18003450Y-14310000D02*
X18083450Y-14390000D01*
X18083450Y-14310000D02*
X18003450Y-14390000D01*
X18026550Y-11950000D02*
X18106550Y-12030000D01*
X18106550Y-11950000D02*
X18026550Y-12030000D01*
X18030000Y-12880000D02*
X18110000Y-12960000D01*
X18110000Y-12880000D02*
X18030000Y-12960000D01*
X18085000Y-13810000D02*
X18165000Y-13890000D01*
X18165000Y-13810000D02*
X18085000Y-13890000D01*
X18235000Y-13535000D02*
X18315000Y-13615000D01*
X18315000Y-13535000D02*
X18235000Y-13615000D01*
X10708000Y-5715000D02*
G75*
G03*
X10708000Y-5715000I-40000J0D01*
G01*
X10708000Y-5969000D02*
G75*
G03*
X10708000Y-5969000I-40000J0D01*
G01*
X10708000Y-6223000D02*
G75*
G03*
X10708000Y-6223000I-40000J0D01*
G01*
X10708000Y-6477000D02*
G75*
G03*
X10708000Y-6477000I-40000J0D01*
G01*
X10708000Y-6731000D02*
G75*
G03*
X10708000Y-6731000I-40000J0D01*
G01*
X10708000Y-6985000D02*
G75*
G03*
X10708000Y-6985000I-40000J0D01*
G01*
X10708000Y-7239000D02*
G75*
G03*
X10708000Y-7239000I-40000J0D01*
G01*
X10708000Y-7493000D02*
G75*
G03*
X10708000Y-7493000I-40000J0D01*
G01*
X10708000Y-8128000D02*
G75*
G03*
X10708000Y-8128000I-40000J0D01*
G01*
X10708000Y-8382000D02*
G75*
G03*
X10708000Y-8382000I-40000J0D01*
G01*
X10708000Y-8636000D02*
G75*
G03*
X10708000Y-8636000I-40000J0D01*
G01*
X10708000Y-8890000D02*
G75*
G03*
X10708000Y-8890000I-40000J0D01*
G01*
X10708000Y-9144000D02*
G75*
G03*
X10708000Y-9144000I-40000J0D01*
G01*
X10708000Y-9398000D02*
G75*
G03*
X10708000Y-9398000I-40000J0D01*
G01*
X10708000Y-9652000D02*
G75*
G03*
X10708000Y-9652000I-40000J0D01*
G01*
X10708000Y-9906000D02*
G75*
G03*
X10708000Y-9906000I-40000J0D01*
G01*
X10708000Y-10160000D02*
G75*
G03*
X10708000Y-10160000I-40000J0D01*
G01*
X10708000Y-10414000D02*
G75*
G03*
X10708000Y-10414000I-40000J0D01*
G01*
X10708000Y-10668000D02*
G75*
G03*
X10708000Y-10668000I-40000J0D01*
G01*
X10708000Y-10922000D02*
G75*
G03*
X10708000Y-10922000I-40000J0D01*
G01*
X10708000Y-11176000D02*
G75*
G03*
X10708000Y-11176000I-40000J0D01*
G01*
X10708000Y-11430000D02*
G75*
G03*
X10708000Y-11430000I-40000J0D01*
G01*
X10708000Y-11684000D02*
G75*
G03*
X10708000Y-11684000I-40000J0D01*
G01*
X10708000Y-11938000D02*
G75*
G03*
X10708000Y-11938000I-40000J0D01*
G01*
X10708000Y-12192000D02*
G75*
G03*
X10708000Y-12192000I-40000J0D01*
G01*
X10708000Y-12446000D02*
G75*
G03*
X10708000Y-12446000I-40000J0D01*
G01*
X10708000Y-12700000D02*
G75*
G03*
X10708000Y-12700000I-40000J0D01*
G01*
X10708000Y-12954000D02*
G75*
G03*
X10708000Y-12954000I-40000J0D01*
G01*
X10708000Y-13208000D02*
G75*
G03*
X10708000Y-13208000I-40000J0D01*
G01*
X10708000Y-13462000D02*
G75*
G03*
X10708000Y-13462000I-40000J0D01*
G01*
X10708000Y-13716000D02*
G75*
G03*
X10708000Y-13716000I-40000J0D01*
G01*
X10708000Y-13970000D02*
G75*
G03*
X10708000Y-13970000I-40000J0D01*
G01*
X10708000Y-14224000D02*
G75*
G03*
X10708000Y-14224000I-40000J0D01*
G01*
X10708000Y-14478000D02*
G75*
G03*
X10708000Y-14478000I-40000J0D01*
G01*
X10708000Y-14732000D02*
G75*
G03*
X10708000Y-14732000I-40000J0D01*
G01*
X11699000Y-8425000D02*
G75*
G03*
X11699000Y-8425000I-40000J0D01*
G01*
X11699000Y-8775000D02*
G75*
G03*
X11699000Y-8775000I-40000J0D01*
G01*
X11726000Y-6775000D02*
G75*
G03*
X11726000Y-6775000I-40000J0D01*
G01*
X11732000Y-7100000D02*
G75*
G03*
X11732000Y-7100000I-40000J0D01*
G01*
X11732000Y-7369000D02*
G75*
G03*
X11732000Y-7369000I-40000J0D01*
G01*
X11732000Y-8131000D02*
G75*
G03*
X11732000Y-8131000I-40000J0D01*
G01*
X12100000Y-6340000D02*
G75*
G03*
X12100000Y-6340000I-40000J0D01*
G01*
X12120000Y-7970000D02*
G75*
G03*
X12120000Y-7970000I-40000J0D01*
G01*
X12350000Y-6340000D02*
G75*
G03*
X12350000Y-6340000I-40000J0D01*
G01*
X12370000Y-7970000D02*
G75*
G03*
X12370000Y-7970000I-40000J0D01*
G01*
X12488000Y-6775000D02*
G75*
G03*
X12488000Y-6775000I-40000J0D01*
G01*
X12494000Y-7100000D02*
G75*
G03*
X12494000Y-7100000I-40000J0D01*
G01*
X12715000Y-8425000D02*
G75*
G03*
X12715000Y-8425000I-40000J0D01*
G01*
X12715000Y-8775000D02*
G75*
G03*
X12715000Y-8775000I-40000J0D01*
G01*
X13799000Y-8700000D02*
G75*
G03*
X13799000Y-8700000I-40000J0D01*
G01*
X13799000Y-9075000D02*
G75*
G03*
X13799000Y-9075000I-40000J0D01*
G01*
X14026000Y-7000000D02*
G75*
G03*
X14026000Y-7000000I-40000J0D01*
G01*
X14026000Y-7350000D02*
G75*
G03*
X14026000Y-7350000I-40000J0D01*
G01*
X14027511Y-6450000D02*
G75*
G03*
X14027511Y-6450000I-40000J0D01*
G01*
X14052511Y-8100000D02*
G75*
G03*
X14052511Y-8100000I-40000J0D01*
G01*
X14277511Y-6450000D02*
G75*
G03*
X14277511Y-6450000I-40000J0D01*
G01*
X14302511Y-8100000D02*
G75*
G03*
X14302511Y-8100000I-40000J0D01*
G01*
X14788000Y-7000000D02*
G75*
G03*
X14788000Y-7000000I-40000J0D01*
G01*
X14788000Y-7350000D02*
G75*
G03*
X14788000Y-7350000I-40000J0D01*
G01*
X14807000Y-7619000D02*
G75*
G03*
X14807000Y-7619000I-40000J0D01*
G01*
X14807000Y-8381000D02*
G75*
G03*
X14807000Y-8381000I-40000J0D01*
G01*
X14815000Y-8700000D02*
G75*
G03*
X14815000Y-8700000I-40000J0D01*
G01*
X14815000Y-9075000D02*
G75*
G03*
X14815000Y-9075000I-40000J0D01*
G01*
X16980000Y-11459000D02*
G75*
G03*
X16980000Y-11459000I-40000J0D01*
G01*
X16980000Y-12221000D02*
G75*
G03*
X16980000Y-12221000I-40000J0D01*
G01*
X17500000Y-10950000D02*
G75*
G03*
X17500000Y-10950000I-40000J0D01*
G01*
X17500000Y-11712000D02*
G75*
G03*
X17500000Y-11712000I-40000J0D01*
G01*
X18709000Y-5715000D02*
G75*
G03*
X18709000Y-5715000I-40000J0D01*
G01*
X18709000Y-5969000D02*
G75*
G03*
X18709000Y-5969000I-40000J0D01*
G01*
X18709000Y-6223000D02*
G75*
G03*
X18709000Y-6223000I-40000J0D01*
G01*
X18709000Y-6477000D02*
G75*
G03*
X18709000Y-6477000I-40000J0D01*
G01*
X18709000Y-6731000D02*
G75*
G03*
X18709000Y-6731000I-40000J0D01*
G01*
X18709000Y-6985000D02*
G75*
G03*
X18709000Y-6985000I-40000J0D01*
G01*
X18709000Y-7239000D02*
G75*
G03*
X18709000Y-7239000I-40000J0D01*
G01*
X18709000Y-7493000D02*
G75*
G03*
X18709000Y-7493000I-40000J0D01*
G01*
X18709000Y-7747000D02*
G75*
G03*
X18709000Y-7747000I-40000J0D01*
G01*
X18709000Y-8001000D02*
G75*
G03*
X18709000Y-8001000I-40000J0D01*
G01*
X18709000Y-8255000D02*
G75*
G03*
X18709000Y-8255000I-40000J0D01*
G01*
X18709000Y-8509000D02*
G75*
G03*
X18709000Y-8509000I-40000J0D01*
G01*
X18709000Y-8763000D02*
G75*
G03*
X18709000Y-8763000I-40000J0D01*
G01*
X18709000Y-9017000D02*
G75*
G03*
X18709000Y-9017000I-40000J0D01*
G01*
X18709000Y-9271000D02*
G75*
G03*
X18709000Y-9271000I-40000J0D01*
G01*
X18709000Y-9525000D02*
G75*
G03*
X18709000Y-9525000I-40000J0D01*
G01*
X18709000Y-9779000D02*
G75*
G03*
X18709000Y-9779000I-40000J0D01*
G01*
X18709000Y-10033000D02*
G75*
G03*
X18709000Y-10033000I-40000J0D01*
G01*
X18709000Y-10287000D02*
G75*
G03*
X18709000Y-10287000I-40000J0D01*
G01*
X18709000Y-10541000D02*
G75*
G03*
X18709000Y-10541000I-40000J0D01*
G01*
X18709000Y-10795000D02*
G75*
G03*
X18709000Y-10795000I-40000J0D01*
G01*
X18709000Y-11049000D02*
G75*
G03*
X18709000Y-11049000I-40000J0D01*
G01*
X18709000Y-11303000D02*
G75*
G03*
X18709000Y-11303000I-40000J0D01*
G01*
X18709000Y-11557000D02*
G75*
G03*
X18709000Y-11557000I-40000J0D01*
G01*
X18709000Y-11811000D02*
G75*
G03*
X18709000Y-11811000I-40000J0D01*
G01*
X18709000Y-12065000D02*
G75*
G03*
X18709000Y-12065000I-40000J0D01*
G01*
X18709000Y-12319000D02*
G75*
G03*
X18709000Y-12319000I-40000J0D01*
G01*
X18709000Y-12573000D02*
G75*
G03*
X18709000Y-12573000I-40000J0D01*
G01*
X18709000Y-12827000D02*
G75*
G03*
X18709000Y-12827000I-40000J0D01*
G01*
X18709000Y-13081000D02*
G75*
G03*
X18709000Y-13081000I-40000J0D01*
G01*
X18709000Y-13335000D02*
G75*
G03*
X18709000Y-13335000I-40000J0D01*
G01*
X18709000Y-13589000D02*
G75*
G03*
X18709000Y-13589000I-40000J0D01*
G01*
X18709000Y-13843000D02*
G75*
G03*
X18709000Y-13843000I-40000J0D01*
G01*
X18709000Y-14097000D02*
G75*
G03*
X18709000Y-14097000I-40000J0D01*
G01*
X18709000Y-14351000D02*
G75*
G03*
X18709000Y-14351000I-40000J0D01*
G01*
D13*
X12867000Y-6147360D02*
X12867000Y-6228640D01*
X12826360Y-6188000D02*
X12907640Y-6188000D01*
X12867000Y-6401360D02*
X12867000Y-6482640D01*
X12826360Y-6442000D02*
X12907640Y-6442000D01*
X12867000Y-6655360D02*
X12867000Y-6736640D01*
X12826360Y-6696000D02*
X12907640Y-6696000D01*
X12867000Y-6909360D02*
X12867000Y-6990640D01*
X12826360Y-6950000D02*
X12907640Y-6950000D01*
X13629000Y-6147360D02*
X13629000Y-6228640D01*
X13588360Y-6188000D02*
X13669640Y-6188000D01*
X13629000Y-6401360D02*
X13629000Y-6482640D01*
X13588360Y-6442000D02*
X13669640Y-6442000D01*
X13629000Y-6655360D02*
X13629000Y-6736640D01*
X13588360Y-6696000D02*
X13669640Y-6696000D01*
X13629000Y-6909360D02*
X13629000Y-6990640D01*
X13588360Y-6950000D02*
X13669640Y-6950000D01*
D14*
X11215356Y-8395356D02*
X11215356Y-8324644D01*
X11144644Y-8324644D01*
X11144644Y-8395356D01*
X11215356Y-8395356D01*
X11215356Y-8649356D02*
X11215356Y-8578644D01*
X11144644Y-8578644D01*
X11144644Y-8649356D01*
X11215356Y-8649356D01*
X11215356Y-8903356D02*
X11215356Y-8832644D01*
X11144644Y-8832644D01*
X11144644Y-8903356D01*
X11215356Y-8903356D01*
X11360356Y-6985356D02*
X11360356Y-6914644D01*
X11289644Y-6914644D01*
X11289644Y-6985356D01*
X11360356Y-6985356D01*
X12652356Y-5685356D02*
X12652356Y-5614644D01*
X12581644Y-5614644D01*
X12581644Y-5685356D01*
X12652356Y-5685356D01*
X13181356Y-5522856D02*
X13181356Y-5452144D01*
X13110644Y-5452144D01*
X13110644Y-5522856D01*
X13181356Y-5522856D01*
X13435356Y-5522856D02*
X13435356Y-5452144D01*
X13364644Y-5452144D01*
X13364644Y-5522856D01*
X13435356Y-5522856D01*
X13875356Y-5695356D02*
X13875356Y-5624644D01*
X13804644Y-5624644D01*
X13804644Y-5695356D01*
X13875356Y-5695356D01*
X14305356Y-14675356D02*
X14305356Y-14604644D01*
X14234644Y-14604644D01*
X14234644Y-14675356D01*
X14305356Y-14675356D01*
X14559356Y-14675356D02*
X14559356Y-14604644D01*
X14488644Y-14604644D01*
X14488644Y-14675356D01*
X14559356Y-14675356D01*
X14813356Y-14675356D02*
X14813356Y-14604644D01*
X14742644Y-14604644D01*
X14742644Y-14675356D01*
X14813356Y-14675356D01*
X15067356Y-14675356D02*
X15067356Y-14604644D01*
X14996644Y-14604644D01*
X14996644Y-14675356D01*
X15067356Y-14675356D01*
X15135356Y-7185356D02*
X15135356Y-7114644D01*
X15064644Y-7114644D01*
X15064644Y-7185356D01*
X15135356Y-7185356D01*
X16413356Y-14695356D02*
X16413356Y-14624644D01*
X16342644Y-14624644D01*
X16342644Y-14695356D01*
X16413356Y-14695356D01*
X16667356Y-14695356D02*
X16667356Y-14624644D01*
X16596644Y-14624644D01*
X16596644Y-14695356D01*
X16667356Y-14695356D01*
X16921356Y-14695356D02*
X16921356Y-14624644D01*
X16850644Y-14624644D01*
X16850644Y-14695356D01*
X16921356Y-14695356D01*
X17175356Y-14695356D02*
X17175356Y-14624644D01*
X17104644Y-14624644D01*
X17104644Y-14695356D01*
X17175356Y-14695356D01*
X18555356Y-14855356D02*
X18555356Y-14784644D01*
X18484644Y-14784644D01*
X18484644Y-14855356D01*
X18555356Y-14855356D01*
X18809356Y-14855356D02*
X18809356Y-14784644D01*
X18738644Y-14784644D01*
X18738644Y-14855356D01*
X18809356Y-14855356D01*
D15*
X11926000Y-9873800D02*
X11976800Y-9823000D01*
X11926000Y-9772200D01*
X11875200Y-9823000D01*
X11926000Y-9873800D01*
X11926000Y-10127800D02*
X11976800Y-10077000D01*
X11926000Y-10026200D01*
X11875200Y-10077000D01*
X11926000Y-10127800D01*
X11926000Y-10381800D02*
X11976800Y-10331000D01*
X11926000Y-10280200D01*
X11875200Y-10331000D01*
X11926000Y-10381800D01*
X11926000Y-10635800D02*
X11976800Y-10585000D01*
X11926000Y-10534200D01*
X11875200Y-10585000D01*
X11926000Y-10635800D01*
X11926000Y-10889800D02*
X11976800Y-10839000D01*
X11926000Y-10788200D01*
X11875200Y-10839000D01*
X11926000Y-10889800D01*
X11926000Y-11143800D02*
X11976800Y-11093000D01*
X11926000Y-11042200D01*
X11875200Y-11093000D01*
X11926000Y-11143800D01*
X11926000Y-11397800D02*
X11976800Y-11347000D01*
X11926000Y-11296200D01*
X11875200Y-11347000D01*
X11926000Y-11397800D01*
X11926000Y-11651800D02*
X11976800Y-11601000D01*
X11926000Y-11550200D01*
X11875200Y-11601000D01*
X11926000Y-11651800D01*
X11926000Y-11905800D02*
X11976800Y-11855000D01*
X11926000Y-11804200D01*
X11875200Y-11855000D01*
X11926000Y-11905800D01*
X11926000Y-12159800D02*
X11976800Y-12109000D01*
X11926000Y-12058200D01*
X11875200Y-12109000D01*
X11926000Y-12159800D01*
X11926000Y-12413800D02*
X11976800Y-12363000D01*
X11926000Y-12312200D01*
X11875200Y-12363000D01*
X11926000Y-12413800D01*
X11926000Y-12667800D02*
X11976800Y-12617000D01*
X11926000Y-12566200D01*
X11875200Y-12617000D01*
X11926000Y-12667800D01*
X11926000Y-12921800D02*
X11976800Y-12871000D01*
X11926000Y-12820200D01*
X11875200Y-12871000D01*
X11926000Y-12921800D01*
X11926000Y-13175800D02*
X11976800Y-13125000D01*
X11926000Y-13074200D01*
X11875200Y-13125000D01*
X11926000Y-13175800D01*
X11926000Y-13429800D02*
X11976800Y-13379000D01*
X11926000Y-13328200D01*
X11875200Y-13379000D01*
X11926000Y-13429800D01*
X11926000Y-13683800D02*
X11976800Y-13633000D01*
X11926000Y-13582200D01*
X11875200Y-13633000D01*
X11926000Y-13683800D01*
X11926000Y-13937800D02*
X11976800Y-13887000D01*
X11926000Y-13836200D01*
X11875200Y-13887000D01*
X11926000Y-13937800D01*
X11926000Y-14191800D02*
X11976800Y-14141000D01*
X11926000Y-14090200D01*
X11875200Y-14141000D01*
X11926000Y-14191800D01*
X11926000Y-14445800D02*
X11976800Y-14395000D01*
X11926000Y-14344200D01*
X11875200Y-14395000D01*
X11926000Y-14445800D01*
X11926000Y-14699800D02*
X11976800Y-14649000D01*
X11926000Y-14598200D01*
X11875200Y-14649000D01*
X11926000Y-14699800D01*
X12562000Y-10254800D02*
X12612800Y-10204000D01*
X12562000Y-10153200D01*
X12511200Y-10204000D01*
X12562000Y-10254800D01*
X12816000Y-10254800D02*
X12866800Y-10204000D01*
X12816000Y-10153200D01*
X12765200Y-10204000D01*
X12816000Y-10254800D01*
X13450000Y-9868720D02*
X13500800Y-9817920D01*
X13450000Y-9767120D01*
X13399200Y-9817920D01*
X13450000Y-9868720D01*
X13450000Y-10127800D02*
X13500800Y-10077000D01*
X13450000Y-10026200D01*
X13399200Y-10077000D01*
X13450000Y-10127800D01*
X13450000Y-10381800D02*
X13500800Y-10331000D01*
X13450000Y-10280200D01*
X13399200Y-10331000D01*
X13450000Y-10381800D01*
X13450000Y-10635800D02*
X13500800Y-10585000D01*
X13450000Y-10534200D01*
X13399200Y-10585000D01*
X13450000Y-10635800D01*
X13450000Y-10889800D02*
X13500800Y-10839000D01*
X13450000Y-10788200D01*
X13399200Y-10839000D01*
X13450000Y-10889800D01*
X13450000Y-11143800D02*
X13500800Y-11093000D01*
X13450000Y-11042200D01*
X13399200Y-11093000D01*
X13450000Y-11143800D01*
X13450000Y-11397800D02*
X13500800Y-11347000D01*
X13450000Y-11296200D01*
X13399200Y-11347000D01*
X13450000Y-11397800D01*
X13450000Y-11651800D02*
X13500800Y-11601000D01*
X13450000Y-11550200D01*
X13399200Y-11601000D01*
X13450000Y-11651800D01*
X13450000Y-11905800D02*
X13500800Y-11855000D01*
X13450000Y-11804200D01*
X13399200Y-11855000D01*
X13450000Y-11905800D01*
X13450000Y-12159800D02*
X13500800Y-12109000D01*
X13450000Y-12058200D01*
X13399200Y-12109000D01*
X13450000Y-12159800D01*
X13450000Y-12413800D02*
X13500800Y-12363000D01*
X13450000Y-12312200D01*
X13399200Y-12363000D01*
X13450000Y-12413800D01*
X13450000Y-12667800D02*
X13500800Y-12617000D01*
X13450000Y-12566200D01*
X13399200Y-12617000D01*
X13450000Y-12667800D01*
X13450000Y-12921800D02*
X13500800Y-12871000D01*
X13450000Y-12820200D01*
X13399200Y-12871000D01*
X13450000Y-12921800D01*
X13450000Y-13175800D02*
X13500800Y-13125000D01*
X13450000Y-13074200D01*
X13399200Y-13125000D01*
X13450000Y-13175800D01*
X13450000Y-13429800D02*
X13500800Y-13379000D01*
X13450000Y-13328200D01*
X13399200Y-13379000D01*
X13450000Y-13429800D01*
X13450000Y-13683800D02*
X13500800Y-13633000D01*
X13450000Y-13582200D01*
X13399200Y-13633000D01*
X13450000Y-13683800D01*
X13450000Y-13937800D02*
X13500800Y-13887000D01*
X13450000Y-13836200D01*
X13399200Y-13887000D01*
X13450000Y-13937800D01*
X13450000Y-14191800D02*
X13500800Y-14141000D01*
X13450000Y-14090200D01*
X13399200Y-14141000D01*
X13450000Y-14191800D01*
X13450000Y-14445800D02*
X13500800Y-14395000D01*
X13450000Y-14344200D01*
X13399200Y-14395000D01*
X13450000Y-14445800D01*
X13450000Y-14699800D02*
X13500800Y-14649000D01*
X13450000Y-14598200D01*
X13399200Y-14649000D01*
X13450000Y-14699800D01*
X16225000Y-5694800D02*
X16275800Y-5644000D01*
X16225000Y-5593200D01*
X16174200Y-5644000D01*
X16225000Y-5694800D01*
X16225000Y-5948800D02*
X16275800Y-5898000D01*
X16225000Y-5847200D01*
X16174200Y-5898000D01*
X16225000Y-5948800D01*
X16225000Y-6202800D02*
X16275800Y-6152000D01*
X16225000Y-6101200D01*
X16174200Y-6152000D01*
X16225000Y-6202800D01*
X16225000Y-6456800D02*
X16275800Y-6406000D01*
X16225000Y-6355200D01*
X16174200Y-6406000D01*
X16225000Y-6456800D01*
X16225000Y-6710800D02*
X16275800Y-6660000D01*
X16225000Y-6609200D01*
X16174200Y-6660000D01*
X16225000Y-6710800D01*
X16225000Y-6964800D02*
X16275800Y-6914000D01*
X16225000Y-6863200D01*
X16174200Y-6914000D01*
X16225000Y-6964800D01*
X16225000Y-7218800D02*
X16275800Y-7168000D01*
X16225000Y-7117200D01*
X16174200Y-7168000D01*
X16225000Y-7218800D01*
X16225000Y-7472800D02*
X16275800Y-7422000D01*
X16225000Y-7371200D01*
X16174200Y-7422000D01*
X16225000Y-7472800D01*
X16225000Y-7726800D02*
X16275800Y-7676000D01*
X16225000Y-7625200D01*
X16174200Y-7676000D01*
X16225000Y-7726800D01*
X16225000Y-7980800D02*
X16275800Y-7930000D01*
X16225000Y-7879200D01*
X16174200Y-7930000D01*
X16225000Y-7980800D01*
X16225000Y-8234800D02*
X16275800Y-8184000D01*
X16225000Y-8133200D01*
X16174200Y-8184000D01*
X16225000Y-8234800D01*
X16225000Y-8488800D02*
X16275800Y-8438000D01*
X16225000Y-8387200D01*
X16174200Y-8438000D01*
X16225000Y-8488800D01*
X16225000Y-8742800D02*
X16275800Y-8692000D01*
X16225000Y-8641200D01*
X16174200Y-8692000D01*
X16225000Y-8742800D01*
X16225000Y-8996800D02*
X16275800Y-8946000D01*
X16225000Y-8895200D01*
X16174200Y-8946000D01*
X16225000Y-8996800D01*
X16225000Y-9250800D02*
X16275800Y-9200000D01*
X16225000Y-9149200D01*
X16174200Y-9200000D01*
X16225000Y-9250800D01*
X16225000Y-9504800D02*
X16275800Y-9454000D01*
X16225000Y-9403200D01*
X16174200Y-9454000D01*
X16225000Y-9504800D01*
X16225000Y-9758800D02*
X16275800Y-9708000D01*
X16225000Y-9657200D01*
X16174200Y-9708000D01*
X16225000Y-9758800D01*
X16225000Y-10012800D02*
X16275800Y-9962000D01*
X16225000Y-9911200D01*
X16174200Y-9962000D01*
X16225000Y-10012800D01*
X16225000Y-10266800D02*
X16275800Y-10216000D01*
X16225000Y-10165200D01*
X16174200Y-10216000D01*
X16225000Y-10266800D01*
X16225000Y-10525880D02*
X16275800Y-10475080D01*
X16225000Y-10424280D01*
X16174200Y-10475080D01*
X16225000Y-10525880D01*
X16859000Y-10139800D02*
X16909800Y-10089000D01*
X16859000Y-10038200D01*
X16808200Y-10089000D01*
X16859000Y-10139800D01*
X17113000Y-10139800D02*
X17163800Y-10089000D01*
X17113000Y-10038200D01*
X17062200Y-10089000D01*
X17113000Y-10139800D01*
X17749000Y-5694800D02*
X17799800Y-5644000D01*
X17749000Y-5593200D01*
X17698200Y-5644000D01*
X17749000Y-5694800D01*
X17749000Y-5948800D02*
X17799800Y-5898000D01*
X17749000Y-5847200D01*
X17698200Y-5898000D01*
X17749000Y-5948800D01*
X17749000Y-6202800D02*
X17799800Y-6152000D01*
X17749000Y-6101200D01*
X17698200Y-6152000D01*
X17749000Y-6202800D01*
X17749000Y-6456800D02*
X17799800Y-6406000D01*
X17749000Y-6355200D01*
X17698200Y-6406000D01*
X17749000Y-6456800D01*
X17749000Y-6710800D02*
X17799800Y-6660000D01*
X17749000Y-6609200D01*
X17698200Y-6660000D01*
X17749000Y-6710800D01*
X17749000Y-6964800D02*
X17799800Y-6914000D01*
X17749000Y-6863200D01*
X17698200Y-6914000D01*
X17749000Y-6964800D01*
X17749000Y-7218800D02*
X17799800Y-7168000D01*
X17749000Y-7117200D01*
X17698200Y-7168000D01*
X17749000Y-7218800D01*
X17749000Y-7472800D02*
X17799800Y-7422000D01*
X17749000Y-7371200D01*
X17698200Y-7422000D01*
X17749000Y-7472800D01*
X17749000Y-7726800D02*
X17799800Y-7676000D01*
X17749000Y-7625200D01*
X17698200Y-7676000D01*
X17749000Y-7726800D01*
X17749000Y-7980800D02*
X17799800Y-7930000D01*
X17749000Y-7879200D01*
X17698200Y-7930000D01*
X17749000Y-7980800D01*
X17749000Y-8234800D02*
X17799800Y-8184000D01*
X17749000Y-8133200D01*
X17698200Y-8184000D01*
X17749000Y-8234800D01*
X17749000Y-8488800D02*
X17799800Y-8438000D01*
X17749000Y-8387200D01*
X17698200Y-8438000D01*
X17749000Y-8488800D01*
X17749000Y-8742800D02*
X17799800Y-8692000D01*
X17749000Y-8641200D01*
X17698200Y-8692000D01*
X17749000Y-8742800D01*
X17749000Y-8996800D02*
X17799800Y-8946000D01*
X17749000Y-8895200D01*
X17698200Y-8946000D01*
X17749000Y-8996800D01*
X17749000Y-9250800D02*
X17799800Y-9200000D01*
X17749000Y-9149200D01*
X17698200Y-9200000D01*
X17749000Y-9250800D01*
X17749000Y-9504800D02*
X17799800Y-9454000D01*
X17749000Y-9403200D01*
X17698200Y-9454000D01*
X17749000Y-9504800D01*
X17749000Y-9758800D02*
X17799800Y-9708000D01*
X17749000Y-9657200D01*
X17698200Y-9708000D01*
X17749000Y-9758800D01*
X17749000Y-10012800D02*
X17799800Y-9962000D01*
X17749000Y-9911200D01*
X17698200Y-9962000D01*
X17749000Y-10012800D01*
X17749000Y-10266800D02*
X17799800Y-10216000D01*
X17749000Y-10165200D01*
X17698200Y-10216000D01*
X17749000Y-10266800D01*
X17749000Y-10520800D02*
X17799800Y-10470000D01*
X17749000Y-10419200D01*
X17698200Y-10470000D01*
X17749000Y-10520800D01*
D11*
X10395777Y-15416484D02*
X10395777Y-15216484D01*
X10395777Y-15216484D02*
X10443396Y-15216484D01*
X10443396Y-15216484D02*
X10471967Y-15226008D01*
X10471967Y-15226008D02*
X10491015Y-15245055D01*
X10491015Y-15245055D02*
X10500539Y-15264103D01*
X10500539Y-15264103D02*
X10510063Y-15302198D01*
X10510063Y-15302198D02*
X10510063Y-15330769D01*
X10510063Y-15330769D02*
X10500539Y-15368865D01*
X10500539Y-15368865D02*
X10491015Y-15387912D01*
X10491015Y-15387912D02*
X10471967Y-15406960D01*
X10471967Y-15406960D02*
X10443396Y-15416484D01*
X10443396Y-15416484D02*
X10395777Y-15416484D01*
X10595777Y-15416484D02*
X10595777Y-15283150D01*
X10595777Y-15321246D02*
X10605301Y-15302198D01*
X10605301Y-15302198D02*
X10614824Y-15292674D01*
X10614824Y-15292674D02*
X10633872Y-15283150D01*
X10633872Y-15283150D02*
X10652920Y-15283150D01*
X10719586Y-15416484D02*
X10719586Y-15283150D01*
X10719586Y-15216484D02*
X10710063Y-15226008D01*
X10710063Y-15226008D02*
X10719586Y-15235531D01*
X10719586Y-15235531D02*
X10729110Y-15226008D01*
X10729110Y-15226008D02*
X10719586Y-15216484D01*
X10719586Y-15216484D02*
X10719586Y-15235531D01*
X10843396Y-15416484D02*
X10824348Y-15406960D01*
X10824348Y-15406960D02*
X10814824Y-15387912D01*
X10814824Y-15387912D02*
X10814824Y-15216484D01*
X10948158Y-15416484D02*
X10929110Y-15406960D01*
X10929110Y-15406960D02*
X10919586Y-15387912D01*
X10919586Y-15387912D02*
X10919586Y-15216484D01*
X11176729Y-15416484D02*
X11176729Y-15216484D01*
X11176729Y-15216484D02*
X11243396Y-15359341D01*
X11243396Y-15359341D02*
X11310062Y-15216484D01*
X11310062Y-15216484D02*
X11310062Y-15416484D01*
X11491015Y-15416484D02*
X11491015Y-15311722D01*
X11491015Y-15311722D02*
X11481491Y-15292674D01*
X11481491Y-15292674D02*
X11462443Y-15283150D01*
X11462443Y-15283150D02*
X11424348Y-15283150D01*
X11424348Y-15283150D02*
X11405301Y-15292674D01*
X11491015Y-15406960D02*
X11471967Y-15416484D01*
X11471967Y-15416484D02*
X11424348Y-15416484D01*
X11424348Y-15416484D02*
X11405301Y-15406960D01*
X11405301Y-15406960D02*
X11395777Y-15387912D01*
X11395777Y-15387912D02*
X11395777Y-15368865D01*
X11395777Y-15368865D02*
X11405301Y-15349817D01*
X11405301Y-15349817D02*
X11424348Y-15340293D01*
X11424348Y-15340293D02*
X11471967Y-15340293D01*
X11471967Y-15340293D02*
X11491015Y-15330769D01*
X11586253Y-15283150D02*
X11586253Y-15483150D01*
X11586253Y-15292674D02*
X11605301Y-15283150D01*
X11605301Y-15283150D02*
X11643396Y-15283150D01*
X11643396Y-15283150D02*
X11662443Y-15292674D01*
X11662443Y-15292674D02*
X11671967Y-15302198D01*
X11671967Y-15302198D02*
X11681491Y-15321246D01*
X11681491Y-15321246D02*
X11681491Y-15378388D01*
X11681491Y-15378388D02*
X11671967Y-15397436D01*
X11671967Y-15397436D02*
X11662443Y-15406960D01*
X11662443Y-15406960D02*
X11643396Y-15416484D01*
X11643396Y-15416484D02*
X11605301Y-15416484D01*
X11605301Y-15416484D02*
X11586253Y-15406960D01*
X11767205Y-15397436D02*
X11776729Y-15406960D01*
X11776729Y-15406960D02*
X11767205Y-15416484D01*
X11767205Y-15416484D02*
X11757682Y-15406960D01*
X11757682Y-15406960D02*
X11767205Y-15397436D01*
X11767205Y-15397436D02*
X11767205Y-15416484D01*
X11767205Y-15292674D02*
X11776729Y-15302198D01*
X11776729Y-15302198D02*
X11767205Y-15311722D01*
X11767205Y-15311722D02*
X11757682Y-15302198D01*
X11757682Y-15302198D02*
X11767205Y-15292674D01*
X11767205Y-15292674D02*
X11767205Y-15311722D01*
D12*
X10055000Y-15705000D02*
X10135000Y-15785000D01*
X10135000Y-15705000D02*
X10055000Y-15785000D01*
D11*
X10433872Y-15636484D02*
X10452920Y-15636484D01*
X10452920Y-15636484D02*
X10471967Y-15646008D01*
X10471967Y-15646008D02*
X10481491Y-15655531D01*
X10481491Y-15655531D02*
X10491015Y-15674579D01*
X10491015Y-15674579D02*
X10500539Y-15712674D01*
X10500539Y-15712674D02*
X10500539Y-15760293D01*
X10500539Y-15760293D02*
X10491015Y-15798388D01*
X10491015Y-15798388D02*
X10481491Y-15817436D01*
X10481491Y-15817436D02*
X10471967Y-15826960D01*
X10471967Y-15826960D02*
X10452920Y-15836484D01*
X10452920Y-15836484D02*
X10433872Y-15836484D01*
X10433872Y-15836484D02*
X10414824Y-15826960D01*
X10414824Y-15826960D02*
X10405301Y-15817436D01*
X10405301Y-15817436D02*
X10395777Y-15798388D01*
X10395777Y-15798388D02*
X10386253Y-15760293D01*
X10386253Y-15760293D02*
X10386253Y-15712674D01*
X10386253Y-15712674D02*
X10395777Y-15674579D01*
X10395777Y-15674579D02*
X10405301Y-15655531D01*
X10405301Y-15655531D02*
X10414824Y-15646008D01*
X10414824Y-15646008D02*
X10433872Y-15636484D01*
X10586253Y-15817436D02*
X10595777Y-15826960D01*
X10595777Y-15826960D02*
X10586253Y-15836484D01*
X10586253Y-15836484D02*
X10576729Y-15826960D01*
X10576729Y-15826960D02*
X10586253Y-15817436D01*
X10586253Y-15817436D02*
X10586253Y-15836484D01*
X10710063Y-15722198D02*
X10691015Y-15712674D01*
X10691015Y-15712674D02*
X10681491Y-15703150D01*
X10681491Y-15703150D02*
X10671967Y-15684103D01*
X10671967Y-15684103D02*
X10671967Y-15674579D01*
X10671967Y-15674579D02*
X10681491Y-15655531D01*
X10681491Y-15655531D02*
X10691015Y-15646008D01*
X10691015Y-15646008D02*
X10710063Y-15636484D01*
X10710063Y-15636484D02*
X10748158Y-15636484D01*
X10748158Y-15636484D02*
X10767205Y-15646008D01*
X10767205Y-15646008D02*
X10776729Y-15655531D01*
X10776729Y-15655531D02*
X10786253Y-15674579D01*
X10786253Y-15674579D02*
X10786253Y-15684103D01*
X10786253Y-15684103D02*
X10776729Y-15703150D01*
X10776729Y-15703150D02*
X10767205Y-15712674D01*
X10767205Y-15712674D02*
X10748158Y-15722198D01*
X10748158Y-15722198D02*
X10710063Y-15722198D01*
X10710063Y-15722198D02*
X10691015Y-15731722D01*
X10691015Y-15731722D02*
X10681491Y-15741246D01*
X10681491Y-15741246D02*
X10671967Y-15760293D01*
X10671967Y-15760293D02*
X10671967Y-15798388D01*
X10671967Y-15798388D02*
X10681491Y-15817436D01*
X10681491Y-15817436D02*
X10691015Y-15826960D01*
X10691015Y-15826960D02*
X10710063Y-15836484D01*
X10710063Y-15836484D02*
X10748158Y-15836484D01*
X10748158Y-15836484D02*
X10767205Y-15826960D01*
X10767205Y-15826960D02*
X10776729Y-15817436D01*
X10776729Y-15817436D02*
X10786253Y-15798388D01*
X10786253Y-15798388D02*
X10786253Y-15760293D01*
X10786253Y-15760293D02*
X10776729Y-15741246D01*
X10776729Y-15741246D02*
X10767205Y-15731722D01*
X10767205Y-15731722D02*
X10748158Y-15722198D01*
X10910063Y-15636484D02*
X10929110Y-15636484D01*
X10929110Y-15636484D02*
X10948158Y-15646008D01*
X10948158Y-15646008D02*
X10957682Y-15655531D01*
X10957682Y-15655531D02*
X10967205Y-15674579D01*
X10967205Y-15674579D02*
X10976729Y-15712674D01*
X10976729Y-15712674D02*
X10976729Y-15760293D01*
X10976729Y-15760293D02*
X10967205Y-15798388D01*
X10967205Y-15798388D02*
X10957682Y-15817436D01*
X10957682Y-15817436D02*
X10948158Y-15826960D01*
X10948158Y-15826960D02*
X10929110Y-15836484D01*
X10929110Y-15836484D02*
X10910063Y-15836484D01*
X10910063Y-15836484D02*
X10891015Y-15826960D01*
X10891015Y-15826960D02*
X10881491Y-15817436D01*
X10881491Y-15817436D02*
X10871967Y-15798388D01*
X10871967Y-15798388D02*
X10862444Y-15760293D01*
X10862444Y-15760293D02*
X10862444Y-15712674D01*
X10862444Y-15712674D02*
X10871967Y-15674579D01*
X10871967Y-15674579D02*
X10881491Y-15655531D01*
X10881491Y-15655531D02*
X10891015Y-15646008D01*
X10891015Y-15646008D02*
X10910063Y-15636484D01*
X11100539Y-15636484D02*
X11119586Y-15636484D01*
X11119586Y-15636484D02*
X11138634Y-15646008D01*
X11138634Y-15646008D02*
X11148158Y-15655531D01*
X11148158Y-15655531D02*
X11157682Y-15674579D01*
X11157682Y-15674579D02*
X11167205Y-15712674D01*
X11167205Y-15712674D02*
X11167205Y-15760293D01*
X11167205Y-15760293D02*
X11157682Y-15798388D01*
X11157682Y-15798388D02*
X11148158Y-15817436D01*
X11148158Y-15817436D02*
X11138634Y-15826960D01*
X11138634Y-15826960D02*
X11119586Y-15836484D01*
X11119586Y-15836484D02*
X11100539Y-15836484D01*
X11100539Y-15836484D02*
X11081491Y-15826960D01*
X11081491Y-15826960D02*
X11071967Y-15817436D01*
X11071967Y-15817436D02*
X11062444Y-15798388D01*
X11062444Y-15798388D02*
X11052920Y-15760293D01*
X11052920Y-15760293D02*
X11052920Y-15712674D01*
X11052920Y-15712674D02*
X11062444Y-15674579D01*
X11062444Y-15674579D02*
X11071967Y-15655531D01*
X11071967Y-15655531D02*
X11081491Y-15646008D01*
X11081491Y-15646008D02*
X11100539Y-15636484D01*
X11252920Y-15836484D02*
X11252920Y-15703150D01*
X11252920Y-15722198D02*
X11262443Y-15712674D01*
X11262443Y-15712674D02*
X11281491Y-15703150D01*
X11281491Y-15703150D02*
X11310063Y-15703150D01*
X11310063Y-15703150D02*
X11329110Y-15712674D01*
X11329110Y-15712674D02*
X11338634Y-15731722D01*
X11338634Y-15731722D02*
X11338634Y-15836484D01*
X11338634Y-15731722D02*
X11348158Y-15712674D01*
X11348158Y-15712674D02*
X11367205Y-15703150D01*
X11367205Y-15703150D02*
X11395777Y-15703150D01*
X11395777Y-15703150D02*
X11414824Y-15712674D01*
X11414824Y-15712674D02*
X11424348Y-15731722D01*
X11424348Y-15731722D02*
X11424348Y-15836484D01*
X11519586Y-15836484D02*
X11519586Y-15703150D01*
X11519586Y-15722198D02*
X11529110Y-15712674D01*
X11529110Y-15712674D02*
X11548158Y-15703150D01*
X11548158Y-15703150D02*
X11576729Y-15703150D01*
X11576729Y-15703150D02*
X11595777Y-15712674D01*
X11595777Y-15712674D02*
X11605301Y-15731722D01*
X11605301Y-15731722D02*
X11605301Y-15836484D01*
X11605301Y-15731722D02*
X11614824Y-15712674D01*
X11614824Y-15712674D02*
X11633872Y-15703150D01*
X11633872Y-15703150D02*
X11662443Y-15703150D01*
X11662443Y-15703150D02*
X11681491Y-15712674D01*
X11681491Y-15712674D02*
X11691015Y-15731722D01*
X11691015Y-15731722D02*
X11691015Y-15836484D01*
X12081491Y-15626960D02*
X11910063Y-15884103D01*
X12338634Y-15636484D02*
X12357682Y-15636484D01*
X12357682Y-15636484D02*
X12376729Y-15646008D01*
X12376729Y-15646008D02*
X12386253Y-15655531D01*
X12386253Y-15655531D02*
X12395777Y-15674579D01*
X12395777Y-15674579D02*
X12405301Y-15712674D01*
X12405301Y-15712674D02*
X12405301Y-15760293D01*
X12405301Y-15760293D02*
X12395777Y-15798388D01*
X12395777Y-15798388D02*
X12386253Y-15817436D01*
X12386253Y-15817436D02*
X12376729Y-15826960D01*
X12376729Y-15826960D02*
X12357682Y-15836484D01*
X12357682Y-15836484D02*
X12338634Y-15836484D01*
X12338634Y-15836484D02*
X12319586Y-15826960D01*
X12319586Y-15826960D02*
X12310063Y-15817436D01*
X12310063Y-15817436D02*
X12300539Y-15798388D01*
X12300539Y-15798388D02*
X12291015Y-15760293D01*
X12291015Y-15760293D02*
X12291015Y-15712674D01*
X12291015Y-15712674D02*
X12300539Y-15674579D01*
X12300539Y-15674579D02*
X12310063Y-15655531D01*
X12310063Y-15655531D02*
X12319586Y-15646008D01*
X12319586Y-15646008D02*
X12338634Y-15636484D01*
X12491015Y-15817436D02*
X12500539Y-15826960D01*
X12500539Y-15826960D02*
X12491015Y-15836484D01*
X12491015Y-15836484D02*
X12481491Y-15826960D01*
X12481491Y-15826960D02*
X12491015Y-15817436D01*
X12491015Y-15817436D02*
X12491015Y-15836484D01*
X12624348Y-15636484D02*
X12643396Y-15636484D01*
X12643396Y-15636484D02*
X12662444Y-15646008D01*
X12662444Y-15646008D02*
X12671967Y-15655531D01*
X12671967Y-15655531D02*
X12681491Y-15674579D01*
X12681491Y-15674579D02*
X12691015Y-15712674D01*
X12691015Y-15712674D02*
X12691015Y-15760293D01*
X12691015Y-15760293D02*
X12681491Y-15798388D01*
X12681491Y-15798388D02*
X12671967Y-15817436D01*
X12671967Y-15817436D02*
X12662444Y-15826960D01*
X12662444Y-15826960D02*
X12643396Y-15836484D01*
X12643396Y-15836484D02*
X12624348Y-15836484D01*
X12624348Y-15836484D02*
X12605301Y-15826960D01*
X12605301Y-15826960D02*
X12595777Y-15817436D01*
X12595777Y-15817436D02*
X12586253Y-15798388D01*
X12586253Y-15798388D02*
X12576729Y-15760293D01*
X12576729Y-15760293D02*
X12576729Y-15712674D01*
X12576729Y-15712674D02*
X12586253Y-15674579D01*
X12586253Y-15674579D02*
X12595777Y-15655531D01*
X12595777Y-15655531D02*
X12605301Y-15646008D01*
X12605301Y-15646008D02*
X12624348Y-15636484D01*
X12757682Y-15636484D02*
X12881491Y-15636484D01*
X12881491Y-15636484D02*
X12814825Y-15712674D01*
X12814825Y-15712674D02*
X12843396Y-15712674D01*
X12843396Y-15712674D02*
X12862444Y-15722198D01*
X12862444Y-15722198D02*
X12871967Y-15731722D01*
X12871967Y-15731722D02*
X12881491Y-15750769D01*
X12881491Y-15750769D02*
X12881491Y-15798388D01*
X12881491Y-15798388D02*
X12871967Y-15817436D01*
X12871967Y-15817436D02*
X12862444Y-15826960D01*
X12862444Y-15826960D02*
X12843396Y-15836484D01*
X12843396Y-15836484D02*
X12786253Y-15836484D01*
X12786253Y-15836484D02*
X12767206Y-15826960D01*
X12767206Y-15826960D02*
X12757682Y-15817436D01*
X13071967Y-15836484D02*
X12957682Y-15836484D01*
X13014825Y-15836484D02*
X13014825Y-15636484D01*
X13014825Y-15636484D02*
X12995777Y-15665055D01*
X12995777Y-15665055D02*
X12976729Y-15684103D01*
X12976729Y-15684103D02*
X12957682Y-15693627D01*
X13252920Y-15636484D02*
X13157682Y-15636484D01*
X13157682Y-15636484D02*
X13148158Y-15731722D01*
X13148158Y-15731722D02*
X13157682Y-15722198D01*
X13157682Y-15722198D02*
X13176729Y-15712674D01*
X13176729Y-15712674D02*
X13224348Y-15712674D01*
X13224348Y-15712674D02*
X13243396Y-15722198D01*
X13243396Y-15722198D02*
X13252920Y-15731722D01*
X13252920Y-15731722D02*
X13262444Y-15750769D01*
X13262444Y-15750769D02*
X13262444Y-15798388D01*
X13262444Y-15798388D02*
X13252920Y-15817436D01*
X13252920Y-15817436D02*
X13243396Y-15826960D01*
X13243396Y-15826960D02*
X13224348Y-15836484D01*
X13224348Y-15836484D02*
X13176729Y-15836484D01*
X13176729Y-15836484D02*
X13157682Y-15826960D01*
X13157682Y-15826960D02*
X13148158Y-15817436D01*
X13338634Y-15636484D02*
X13338634Y-15674579D01*
X13414825Y-15636484D02*
X13414825Y-15674579D01*
X13710063Y-15912674D02*
X13700539Y-15903150D01*
X13700539Y-15903150D02*
X13681491Y-15874579D01*
X13681491Y-15874579D02*
X13671968Y-15855531D01*
X13671968Y-15855531D02*
X13662444Y-15826960D01*
X13662444Y-15826960D02*
X13652920Y-15779341D01*
X13652920Y-15779341D02*
X13652920Y-15741246D01*
X13652920Y-15741246D02*
X13662444Y-15693627D01*
X13662444Y-15693627D02*
X13671968Y-15665055D01*
X13671968Y-15665055D02*
X13681491Y-15646008D01*
X13681491Y-15646008D02*
X13700539Y-15617436D01*
X13700539Y-15617436D02*
X13710063Y-15607912D01*
X13767206Y-15636484D02*
X13891015Y-15636484D01*
X13891015Y-15636484D02*
X13824348Y-15712674D01*
X13824348Y-15712674D02*
X13852920Y-15712674D01*
X13852920Y-15712674D02*
X13871968Y-15722198D01*
X13871968Y-15722198D02*
X13881491Y-15731722D01*
X13881491Y-15731722D02*
X13891015Y-15750769D01*
X13891015Y-15750769D02*
X13891015Y-15798388D01*
X13891015Y-15798388D02*
X13881491Y-15817436D01*
X13881491Y-15817436D02*
X13871968Y-15826960D01*
X13871968Y-15826960D02*
X13852920Y-15836484D01*
X13852920Y-15836484D02*
X13795777Y-15836484D01*
X13795777Y-15836484D02*
X13776729Y-15826960D01*
X13776729Y-15826960D02*
X13767206Y-15817436D01*
X14005301Y-15722198D02*
X13986253Y-15712674D01*
X13986253Y-15712674D02*
X13976729Y-15703150D01*
X13976729Y-15703150D02*
X13967206Y-15684103D01*
X13967206Y-15684103D02*
X13967206Y-15674579D01*
X13967206Y-15674579D02*
X13976729Y-15655531D01*
X13976729Y-15655531D02*
X13986253Y-15646008D01*
X13986253Y-15646008D02*
X14005301Y-15636484D01*
X14005301Y-15636484D02*
X14043396Y-15636484D01*
X14043396Y-15636484D02*
X14062444Y-15646008D01*
X14062444Y-15646008D02*
X14071968Y-15655531D01*
X14071968Y-15655531D02*
X14081491Y-15674579D01*
X14081491Y-15674579D02*
X14081491Y-15684103D01*
X14081491Y-15684103D02*
X14071968Y-15703150D01*
X14071968Y-15703150D02*
X14062444Y-15712674D01*
X14062444Y-15712674D02*
X14043396Y-15722198D01*
X14043396Y-15722198D02*
X14005301Y-15722198D01*
X14005301Y-15722198D02*
X13986253Y-15731722D01*
X13986253Y-15731722D02*
X13976729Y-15741246D01*
X13976729Y-15741246D02*
X13967206Y-15760293D01*
X13967206Y-15760293D02*
X13967206Y-15798388D01*
X13967206Y-15798388D02*
X13976729Y-15817436D01*
X13976729Y-15817436D02*
X13986253Y-15826960D01*
X13986253Y-15826960D02*
X14005301Y-15836484D01*
X14005301Y-15836484D02*
X14043396Y-15836484D01*
X14043396Y-15836484D02*
X14062444Y-15826960D01*
X14062444Y-15826960D02*
X14071968Y-15817436D01*
X14071968Y-15817436D02*
X14081491Y-15798388D01*
X14081491Y-15798388D02*
X14081491Y-15760293D01*
X14081491Y-15760293D02*
X14071968Y-15741246D01*
X14071968Y-15741246D02*
X14062444Y-15731722D01*
X14062444Y-15731722D02*
X14043396Y-15722198D01*
X14319587Y-15836484D02*
X14319587Y-15636484D01*
X14405301Y-15836484D02*
X14405301Y-15731722D01*
X14405301Y-15731722D02*
X14395777Y-15712674D01*
X14395777Y-15712674D02*
X14376730Y-15703150D01*
X14376730Y-15703150D02*
X14348158Y-15703150D01*
X14348158Y-15703150D02*
X14329110Y-15712674D01*
X14329110Y-15712674D02*
X14319587Y-15722198D01*
X14529110Y-15836484D02*
X14510063Y-15826960D01*
X14510063Y-15826960D02*
X14500539Y-15817436D01*
X14500539Y-15817436D02*
X14491015Y-15798388D01*
X14491015Y-15798388D02*
X14491015Y-15741246D01*
X14491015Y-15741246D02*
X14500539Y-15722198D01*
X14500539Y-15722198D02*
X14510063Y-15712674D01*
X14510063Y-15712674D02*
X14529110Y-15703150D01*
X14529110Y-15703150D02*
X14557682Y-15703150D01*
X14557682Y-15703150D02*
X14576730Y-15712674D01*
X14576730Y-15712674D02*
X14586253Y-15722198D01*
X14586253Y-15722198D02*
X14595777Y-15741246D01*
X14595777Y-15741246D02*
X14595777Y-15798388D01*
X14595777Y-15798388D02*
X14586253Y-15817436D01*
X14586253Y-15817436D02*
X14576730Y-15826960D01*
X14576730Y-15826960D02*
X14557682Y-15836484D01*
X14557682Y-15836484D02*
X14529110Y-15836484D01*
X14710063Y-15836484D02*
X14691015Y-15826960D01*
X14691015Y-15826960D02*
X14681491Y-15807912D01*
X14681491Y-15807912D02*
X14681491Y-15636484D01*
X14862444Y-15826960D02*
X14843396Y-15836484D01*
X14843396Y-15836484D02*
X14805301Y-15836484D01*
X14805301Y-15836484D02*
X14786253Y-15826960D01*
X14786253Y-15826960D02*
X14776730Y-15807912D01*
X14776730Y-15807912D02*
X14776730Y-15731722D01*
X14776730Y-15731722D02*
X14786253Y-15712674D01*
X14786253Y-15712674D02*
X14805301Y-15703150D01*
X14805301Y-15703150D02*
X14843396Y-15703150D01*
X14843396Y-15703150D02*
X14862444Y-15712674D01*
X14862444Y-15712674D02*
X14871968Y-15731722D01*
X14871968Y-15731722D02*
X14871968Y-15750769D01*
X14871968Y-15750769D02*
X14776730Y-15769817D01*
X14948158Y-15826960D02*
X14967206Y-15836484D01*
X14967206Y-15836484D02*
X15005301Y-15836484D01*
X15005301Y-15836484D02*
X15024349Y-15826960D01*
X15024349Y-15826960D02*
X15033872Y-15807912D01*
X15033872Y-15807912D02*
X15033872Y-15798388D01*
X15033872Y-15798388D02*
X15024349Y-15779341D01*
X15024349Y-15779341D02*
X15005301Y-15769817D01*
X15005301Y-15769817D02*
X14976730Y-15769817D01*
X14976730Y-15769817D02*
X14957682Y-15760293D01*
X14957682Y-15760293D02*
X14948158Y-15741246D01*
X14948158Y-15741246D02*
X14948158Y-15731722D01*
X14948158Y-15731722D02*
X14957682Y-15712674D01*
X14957682Y-15712674D02*
X14976730Y-15703150D01*
X14976730Y-15703150D02*
X15005301Y-15703150D01*
X15005301Y-15703150D02*
X15024349Y-15712674D01*
X15100539Y-15912674D02*
X15110063Y-15903150D01*
X15110063Y-15903150D02*
X15129111Y-15874579D01*
X15129111Y-15874579D02*
X15138634Y-15855531D01*
X15138634Y-15855531D02*
X15148158Y-15826960D01*
X15148158Y-15826960D02*
X15157682Y-15779341D01*
X15157682Y-15779341D02*
X15157682Y-15741246D01*
X15157682Y-15741246D02*
X15148158Y-15693627D01*
X15148158Y-15693627D02*
X15138634Y-15665055D01*
X15138634Y-15665055D02*
X15129111Y-15646008D01*
X15129111Y-15646008D02*
X15110063Y-15617436D01*
X15110063Y-15617436D02*
X15100539Y-15607912D01*
D12*
X10135000Y-16009000D02*
G75*
G03*
X10135000Y-16009000I-40000J0D01*
G01*
D11*
X10433872Y-15900484D02*
X10452920Y-15900484D01*
X10452920Y-15900484D02*
X10471967Y-15910008D01*
X10471967Y-15910008D02*
X10481491Y-15919531D01*
X10481491Y-15919531D02*
X10491015Y-15938579D01*
X10491015Y-15938579D02*
X10500539Y-15976674D01*
X10500539Y-15976674D02*
X10500539Y-16024293D01*
X10500539Y-16024293D02*
X10491015Y-16062388D01*
X10491015Y-16062388D02*
X10481491Y-16081436D01*
X10481491Y-16081436D02*
X10471967Y-16090960D01*
X10471967Y-16090960D02*
X10452920Y-16100484D01*
X10452920Y-16100484D02*
X10433872Y-16100484D01*
X10433872Y-16100484D02*
X10414824Y-16090960D01*
X10414824Y-16090960D02*
X10405301Y-16081436D01*
X10405301Y-16081436D02*
X10395777Y-16062388D01*
X10395777Y-16062388D02*
X10386253Y-16024293D01*
X10386253Y-16024293D02*
X10386253Y-15976674D01*
X10386253Y-15976674D02*
X10395777Y-15938579D01*
X10395777Y-15938579D02*
X10405301Y-15919531D01*
X10405301Y-15919531D02*
X10414824Y-15910008D01*
X10414824Y-15910008D02*
X10433872Y-15900484D01*
X10586253Y-16081436D02*
X10595777Y-16090960D01*
X10595777Y-16090960D02*
X10586253Y-16100484D01*
X10586253Y-16100484D02*
X10576729Y-16090960D01*
X10576729Y-16090960D02*
X10586253Y-16081436D01*
X10586253Y-16081436D02*
X10586253Y-16100484D01*
X10710063Y-15986198D02*
X10691015Y-15976674D01*
X10691015Y-15976674D02*
X10681491Y-15967150D01*
X10681491Y-15967150D02*
X10671967Y-15948103D01*
X10671967Y-15948103D02*
X10671967Y-15938579D01*
X10671967Y-15938579D02*
X10681491Y-15919531D01*
X10681491Y-15919531D02*
X10691015Y-15910008D01*
X10691015Y-15910008D02*
X10710063Y-15900484D01*
X10710063Y-15900484D02*
X10748158Y-15900484D01*
X10748158Y-15900484D02*
X10767205Y-15910008D01*
X10767205Y-15910008D02*
X10776729Y-15919531D01*
X10776729Y-15919531D02*
X10786253Y-15938579D01*
X10786253Y-15938579D02*
X10786253Y-15948103D01*
X10786253Y-15948103D02*
X10776729Y-15967150D01*
X10776729Y-15967150D02*
X10767205Y-15976674D01*
X10767205Y-15976674D02*
X10748158Y-15986198D01*
X10748158Y-15986198D02*
X10710063Y-15986198D01*
X10710063Y-15986198D02*
X10691015Y-15995722D01*
X10691015Y-15995722D02*
X10681491Y-16005246D01*
X10681491Y-16005246D02*
X10671967Y-16024293D01*
X10671967Y-16024293D02*
X10671967Y-16062388D01*
X10671967Y-16062388D02*
X10681491Y-16081436D01*
X10681491Y-16081436D02*
X10691015Y-16090960D01*
X10691015Y-16090960D02*
X10710063Y-16100484D01*
X10710063Y-16100484D02*
X10748158Y-16100484D01*
X10748158Y-16100484D02*
X10767205Y-16090960D01*
X10767205Y-16090960D02*
X10776729Y-16081436D01*
X10776729Y-16081436D02*
X10786253Y-16062388D01*
X10786253Y-16062388D02*
X10786253Y-16024293D01*
X10786253Y-16024293D02*
X10776729Y-16005246D01*
X10776729Y-16005246D02*
X10767205Y-15995722D01*
X10767205Y-15995722D02*
X10748158Y-15986198D01*
X10910063Y-15900484D02*
X10929110Y-15900484D01*
X10929110Y-15900484D02*
X10948158Y-15910008D01*
X10948158Y-15910008D02*
X10957682Y-15919531D01*
X10957682Y-15919531D02*
X10967205Y-15938579D01*
X10967205Y-15938579D02*
X10976729Y-15976674D01*
X10976729Y-15976674D02*
X10976729Y-16024293D01*
X10976729Y-16024293D02*
X10967205Y-16062388D01*
X10967205Y-16062388D02*
X10957682Y-16081436D01*
X10957682Y-16081436D02*
X10948158Y-16090960D01*
X10948158Y-16090960D02*
X10929110Y-16100484D01*
X10929110Y-16100484D02*
X10910063Y-16100484D01*
X10910063Y-16100484D02*
X10891015Y-16090960D01*
X10891015Y-16090960D02*
X10881491Y-16081436D01*
X10881491Y-16081436D02*
X10871967Y-16062388D01*
X10871967Y-16062388D02*
X10862444Y-16024293D01*
X10862444Y-16024293D02*
X10862444Y-15976674D01*
X10862444Y-15976674D02*
X10871967Y-15938579D01*
X10871967Y-15938579D02*
X10881491Y-15919531D01*
X10881491Y-15919531D02*
X10891015Y-15910008D01*
X10891015Y-15910008D02*
X10910063Y-15900484D01*
X11100539Y-15900484D02*
X11119586Y-15900484D01*
X11119586Y-15900484D02*
X11138634Y-15910008D01*
X11138634Y-15910008D02*
X11148158Y-15919531D01*
X11148158Y-15919531D02*
X11157682Y-15938579D01*
X11157682Y-15938579D02*
X11167205Y-15976674D01*
X11167205Y-15976674D02*
X11167205Y-16024293D01*
X11167205Y-16024293D02*
X11157682Y-16062388D01*
X11157682Y-16062388D02*
X11148158Y-16081436D01*
X11148158Y-16081436D02*
X11138634Y-16090960D01*
X11138634Y-16090960D02*
X11119586Y-16100484D01*
X11119586Y-16100484D02*
X11100539Y-16100484D01*
X11100539Y-16100484D02*
X11081491Y-16090960D01*
X11081491Y-16090960D02*
X11071967Y-16081436D01*
X11071967Y-16081436D02*
X11062444Y-16062388D01*
X11062444Y-16062388D02*
X11052920Y-16024293D01*
X11052920Y-16024293D02*
X11052920Y-15976674D01*
X11052920Y-15976674D02*
X11062444Y-15938579D01*
X11062444Y-15938579D02*
X11071967Y-15919531D01*
X11071967Y-15919531D02*
X11081491Y-15910008D01*
X11081491Y-15910008D02*
X11100539Y-15900484D01*
X11252920Y-16100484D02*
X11252920Y-15967150D01*
X11252920Y-15986198D02*
X11262443Y-15976674D01*
X11262443Y-15976674D02*
X11281491Y-15967150D01*
X11281491Y-15967150D02*
X11310063Y-15967150D01*
X11310063Y-15967150D02*
X11329110Y-15976674D01*
X11329110Y-15976674D02*
X11338634Y-15995722D01*
X11338634Y-15995722D02*
X11338634Y-16100484D01*
X11338634Y-15995722D02*
X11348158Y-15976674D01*
X11348158Y-15976674D02*
X11367205Y-15967150D01*
X11367205Y-15967150D02*
X11395777Y-15967150D01*
X11395777Y-15967150D02*
X11414824Y-15976674D01*
X11414824Y-15976674D02*
X11424348Y-15995722D01*
X11424348Y-15995722D02*
X11424348Y-16100484D01*
X11519586Y-16100484D02*
X11519586Y-15967150D01*
X11519586Y-15986198D02*
X11529110Y-15976674D01*
X11529110Y-15976674D02*
X11548158Y-15967150D01*
X11548158Y-15967150D02*
X11576729Y-15967150D01*
X11576729Y-15967150D02*
X11595777Y-15976674D01*
X11595777Y-15976674D02*
X11605301Y-15995722D01*
X11605301Y-15995722D02*
X11605301Y-16100484D01*
X11605301Y-15995722D02*
X11614824Y-15976674D01*
X11614824Y-15976674D02*
X11633872Y-15967150D01*
X11633872Y-15967150D02*
X11662443Y-15967150D01*
X11662443Y-15967150D02*
X11681491Y-15976674D01*
X11681491Y-15976674D02*
X11691015Y-15995722D01*
X11691015Y-15995722D02*
X11691015Y-16100484D01*
X12081491Y-15890960D02*
X11910063Y-16148103D01*
X12338634Y-15900484D02*
X12357682Y-15900484D01*
X12357682Y-15900484D02*
X12376729Y-15910008D01*
X12376729Y-15910008D02*
X12386253Y-15919531D01*
X12386253Y-15919531D02*
X12395777Y-15938579D01*
X12395777Y-15938579D02*
X12405301Y-15976674D01*
X12405301Y-15976674D02*
X12405301Y-16024293D01*
X12405301Y-16024293D02*
X12395777Y-16062388D01*
X12395777Y-16062388D02*
X12386253Y-16081436D01*
X12386253Y-16081436D02*
X12376729Y-16090960D01*
X12376729Y-16090960D02*
X12357682Y-16100484D01*
X12357682Y-16100484D02*
X12338634Y-16100484D01*
X12338634Y-16100484D02*
X12319586Y-16090960D01*
X12319586Y-16090960D02*
X12310063Y-16081436D01*
X12310063Y-16081436D02*
X12300539Y-16062388D01*
X12300539Y-16062388D02*
X12291015Y-16024293D01*
X12291015Y-16024293D02*
X12291015Y-15976674D01*
X12291015Y-15976674D02*
X12300539Y-15938579D01*
X12300539Y-15938579D02*
X12310063Y-15919531D01*
X12310063Y-15919531D02*
X12319586Y-15910008D01*
X12319586Y-15910008D02*
X12338634Y-15900484D01*
X12491015Y-16081436D02*
X12500539Y-16090960D01*
X12500539Y-16090960D02*
X12491015Y-16100484D01*
X12491015Y-16100484D02*
X12481491Y-16090960D01*
X12481491Y-16090960D02*
X12491015Y-16081436D01*
X12491015Y-16081436D02*
X12491015Y-16100484D01*
X12624348Y-15900484D02*
X12643396Y-15900484D01*
X12643396Y-15900484D02*
X12662444Y-15910008D01*
X12662444Y-15910008D02*
X12671967Y-15919531D01*
X12671967Y-15919531D02*
X12681491Y-15938579D01*
X12681491Y-15938579D02*
X12691015Y-15976674D01*
X12691015Y-15976674D02*
X12691015Y-16024293D01*
X12691015Y-16024293D02*
X12681491Y-16062388D01*
X12681491Y-16062388D02*
X12671967Y-16081436D01*
X12671967Y-16081436D02*
X12662444Y-16090960D01*
X12662444Y-16090960D02*
X12643396Y-16100484D01*
X12643396Y-16100484D02*
X12624348Y-16100484D01*
X12624348Y-16100484D02*
X12605301Y-16090960D01*
X12605301Y-16090960D02*
X12595777Y-16081436D01*
X12595777Y-16081436D02*
X12586253Y-16062388D01*
X12586253Y-16062388D02*
X12576729Y-16024293D01*
X12576729Y-16024293D02*
X12576729Y-15976674D01*
X12576729Y-15976674D02*
X12586253Y-15938579D01*
X12586253Y-15938579D02*
X12595777Y-15919531D01*
X12595777Y-15919531D02*
X12605301Y-15910008D01*
X12605301Y-15910008D02*
X12624348Y-15900484D01*
X12757682Y-15900484D02*
X12881491Y-15900484D01*
X12881491Y-15900484D02*
X12814825Y-15976674D01*
X12814825Y-15976674D02*
X12843396Y-15976674D01*
X12843396Y-15976674D02*
X12862444Y-15986198D01*
X12862444Y-15986198D02*
X12871967Y-15995722D01*
X12871967Y-15995722D02*
X12881491Y-16014769D01*
X12881491Y-16014769D02*
X12881491Y-16062388D01*
X12881491Y-16062388D02*
X12871967Y-16081436D01*
X12871967Y-16081436D02*
X12862444Y-16090960D01*
X12862444Y-16090960D02*
X12843396Y-16100484D01*
X12843396Y-16100484D02*
X12786253Y-16100484D01*
X12786253Y-16100484D02*
X12767206Y-16090960D01*
X12767206Y-16090960D02*
X12757682Y-16081436D01*
X13071967Y-16100484D02*
X12957682Y-16100484D01*
X13014825Y-16100484D02*
X13014825Y-15900484D01*
X13014825Y-15900484D02*
X12995777Y-15929055D01*
X12995777Y-15929055D02*
X12976729Y-15948103D01*
X12976729Y-15948103D02*
X12957682Y-15957627D01*
X13252920Y-15900484D02*
X13157682Y-15900484D01*
X13157682Y-15900484D02*
X13148158Y-15995722D01*
X13148158Y-15995722D02*
X13157682Y-15986198D01*
X13157682Y-15986198D02*
X13176729Y-15976674D01*
X13176729Y-15976674D02*
X13224348Y-15976674D01*
X13224348Y-15976674D02*
X13243396Y-15986198D01*
X13243396Y-15986198D02*
X13252920Y-15995722D01*
X13252920Y-15995722D02*
X13262444Y-16014769D01*
X13262444Y-16014769D02*
X13262444Y-16062388D01*
X13262444Y-16062388D02*
X13252920Y-16081436D01*
X13252920Y-16081436D02*
X13243396Y-16090960D01*
X13243396Y-16090960D02*
X13224348Y-16100484D01*
X13224348Y-16100484D02*
X13176729Y-16100484D01*
X13176729Y-16100484D02*
X13157682Y-16090960D01*
X13157682Y-16090960D02*
X13148158Y-16081436D01*
X13338634Y-15900484D02*
X13338634Y-15938579D01*
X13414825Y-15900484D02*
X13414825Y-15938579D01*
X13710063Y-16176674D02*
X13700539Y-16167150D01*
X13700539Y-16167150D02*
X13681491Y-16138579D01*
X13681491Y-16138579D02*
X13671968Y-16119531D01*
X13671968Y-16119531D02*
X13662444Y-16090960D01*
X13662444Y-16090960D02*
X13652920Y-16043341D01*
X13652920Y-16043341D02*
X13652920Y-16005246D01*
X13652920Y-16005246D02*
X13662444Y-15957627D01*
X13662444Y-15957627D02*
X13671968Y-15929055D01*
X13671968Y-15929055D02*
X13681491Y-15910008D01*
X13681491Y-15910008D02*
X13700539Y-15881436D01*
X13700539Y-15881436D02*
X13710063Y-15871912D01*
X13891015Y-16100484D02*
X13776729Y-16100484D01*
X13833872Y-16100484D02*
X13833872Y-15900484D01*
X13833872Y-15900484D02*
X13814825Y-15929055D01*
X13814825Y-15929055D02*
X13795777Y-15948103D01*
X13795777Y-15948103D02*
X13776729Y-15957627D01*
X14014825Y-15900484D02*
X14033872Y-15900484D01*
X14033872Y-15900484D02*
X14052920Y-15910008D01*
X14052920Y-15910008D02*
X14062444Y-15919531D01*
X14062444Y-15919531D02*
X14071968Y-15938579D01*
X14071968Y-15938579D02*
X14081491Y-15976674D01*
X14081491Y-15976674D02*
X14081491Y-16024293D01*
X14081491Y-16024293D02*
X14071968Y-16062388D01*
X14071968Y-16062388D02*
X14062444Y-16081436D01*
X14062444Y-16081436D02*
X14052920Y-16090960D01*
X14052920Y-16090960D02*
X14033872Y-16100484D01*
X14033872Y-16100484D02*
X14014825Y-16100484D01*
X14014825Y-16100484D02*
X13995777Y-16090960D01*
X13995777Y-16090960D02*
X13986253Y-16081436D01*
X13986253Y-16081436D02*
X13976729Y-16062388D01*
X13976729Y-16062388D02*
X13967206Y-16024293D01*
X13967206Y-16024293D02*
X13967206Y-15976674D01*
X13967206Y-15976674D02*
X13976729Y-15938579D01*
X13976729Y-15938579D02*
X13986253Y-15919531D01*
X13986253Y-15919531D02*
X13995777Y-15910008D01*
X13995777Y-15910008D02*
X14014825Y-15900484D01*
X14157682Y-15919531D02*
X14167206Y-15910008D01*
X14167206Y-15910008D02*
X14186253Y-15900484D01*
X14186253Y-15900484D02*
X14233872Y-15900484D01*
X14233872Y-15900484D02*
X14252920Y-15910008D01*
X14252920Y-15910008D02*
X14262444Y-15919531D01*
X14262444Y-15919531D02*
X14271968Y-15938579D01*
X14271968Y-15938579D02*
X14271968Y-15957627D01*
X14271968Y-15957627D02*
X14262444Y-15986198D01*
X14262444Y-15986198D02*
X14148158Y-16100484D01*
X14148158Y-16100484D02*
X14271968Y-16100484D01*
X14510063Y-16100484D02*
X14510063Y-15900484D01*
X14595777Y-16100484D02*
X14595777Y-15995722D01*
X14595777Y-15995722D02*
X14586253Y-15976674D01*
X14586253Y-15976674D02*
X14567206Y-15967150D01*
X14567206Y-15967150D02*
X14538634Y-15967150D01*
X14538634Y-15967150D02*
X14519587Y-15976674D01*
X14519587Y-15976674D02*
X14510063Y-15986198D01*
X14719587Y-16100484D02*
X14700539Y-16090960D01*
X14700539Y-16090960D02*
X14691015Y-16081436D01*
X14691015Y-16081436D02*
X14681491Y-16062388D01*
X14681491Y-16062388D02*
X14681491Y-16005246D01*
X14681491Y-16005246D02*
X14691015Y-15986198D01*
X14691015Y-15986198D02*
X14700539Y-15976674D01*
X14700539Y-15976674D02*
X14719587Y-15967150D01*
X14719587Y-15967150D02*
X14748158Y-15967150D01*
X14748158Y-15967150D02*
X14767206Y-15976674D01*
X14767206Y-15976674D02*
X14776730Y-15986198D01*
X14776730Y-15986198D02*
X14786253Y-16005246D01*
X14786253Y-16005246D02*
X14786253Y-16062388D01*
X14786253Y-16062388D02*
X14776730Y-16081436D01*
X14776730Y-16081436D02*
X14767206Y-16090960D01*
X14767206Y-16090960D02*
X14748158Y-16100484D01*
X14748158Y-16100484D02*
X14719587Y-16100484D01*
X14900539Y-16100484D02*
X14881491Y-16090960D01*
X14881491Y-16090960D02*
X14871968Y-16071912D01*
X14871968Y-16071912D02*
X14871968Y-15900484D01*
X15052920Y-16090960D02*
X15033872Y-16100484D01*
X15033872Y-16100484D02*
X14995777Y-16100484D01*
X14995777Y-16100484D02*
X14976730Y-16090960D01*
X14976730Y-16090960D02*
X14967206Y-16071912D01*
X14967206Y-16071912D02*
X14967206Y-15995722D01*
X14967206Y-15995722D02*
X14976730Y-15976674D01*
X14976730Y-15976674D02*
X14995777Y-15967150D01*
X14995777Y-15967150D02*
X15033872Y-15967150D01*
X15033872Y-15967150D02*
X15052920Y-15976674D01*
X15052920Y-15976674D02*
X15062444Y-15995722D01*
X15062444Y-15995722D02*
X15062444Y-16014769D01*
X15062444Y-16014769D02*
X14967206Y-16033817D01*
X15138634Y-16090960D02*
X15157682Y-16100484D01*
X15157682Y-16100484D02*
X15195777Y-16100484D01*
X15195777Y-16100484D02*
X15214825Y-16090960D01*
X15214825Y-16090960D02*
X15224349Y-16071912D01*
X15224349Y-16071912D02*
X15224349Y-16062388D01*
X15224349Y-16062388D02*
X15214825Y-16043341D01*
X15214825Y-16043341D02*
X15195777Y-16033817D01*
X15195777Y-16033817D02*
X15167206Y-16033817D01*
X15167206Y-16033817D02*
X15148158Y-16024293D01*
X15148158Y-16024293D02*
X15138634Y-16005246D01*
X15138634Y-16005246D02*
X15138634Y-15995722D01*
X15138634Y-15995722D02*
X15148158Y-15976674D01*
X15148158Y-15976674D02*
X15167206Y-15967150D01*
X15167206Y-15967150D02*
X15195777Y-15967150D01*
X15195777Y-15967150D02*
X15214825Y-15976674D01*
X15291015Y-16176674D02*
X15300539Y-16167150D01*
X15300539Y-16167150D02*
X15319587Y-16138579D01*
X15319587Y-16138579D02*
X15329111Y-16119531D01*
X15329111Y-16119531D02*
X15338634Y-16090960D01*
X15338634Y-16090960D02*
X15348158Y-16043341D01*
X15348158Y-16043341D02*
X15348158Y-16005246D01*
X15348158Y-16005246D02*
X15338634Y-15957627D01*
X15338634Y-15957627D02*
X15329111Y-15929055D01*
X15329111Y-15929055D02*
X15319587Y-15910008D01*
X15319587Y-15910008D02*
X15300539Y-15881436D01*
X15300539Y-15881436D02*
X15291015Y-15871912D01*
D13*
X10094360Y-16232360D02*
X10094360Y-16313640D01*
X10053720Y-16273000D02*
X10135000Y-16273000D01*
D11*
X10433872Y-16164484D02*
X10452920Y-16164484D01*
X10452920Y-16164484D02*
X10471967Y-16174008D01*
X10471967Y-16174008D02*
X10481491Y-16183531D01*
X10481491Y-16183531D02*
X10491015Y-16202579D01*
X10491015Y-16202579D02*
X10500539Y-16240674D01*
X10500539Y-16240674D02*
X10500539Y-16288293D01*
X10500539Y-16288293D02*
X10491015Y-16326388D01*
X10491015Y-16326388D02*
X10481491Y-16345436D01*
X10481491Y-16345436D02*
X10471967Y-16354960D01*
X10471967Y-16354960D02*
X10452920Y-16364484D01*
X10452920Y-16364484D02*
X10433872Y-16364484D01*
X10433872Y-16364484D02*
X10414824Y-16354960D01*
X10414824Y-16354960D02*
X10405301Y-16345436D01*
X10405301Y-16345436D02*
X10395777Y-16326388D01*
X10395777Y-16326388D02*
X10386253Y-16288293D01*
X10386253Y-16288293D02*
X10386253Y-16240674D01*
X10386253Y-16240674D02*
X10395777Y-16202579D01*
X10395777Y-16202579D02*
X10405301Y-16183531D01*
X10405301Y-16183531D02*
X10414824Y-16174008D01*
X10414824Y-16174008D02*
X10433872Y-16164484D01*
X10586253Y-16345436D02*
X10595777Y-16354960D01*
X10595777Y-16354960D02*
X10586253Y-16364484D01*
X10586253Y-16364484D02*
X10576729Y-16354960D01*
X10576729Y-16354960D02*
X10586253Y-16345436D01*
X10586253Y-16345436D02*
X10586253Y-16364484D01*
X10710063Y-16250198D02*
X10691015Y-16240674D01*
X10691015Y-16240674D02*
X10681491Y-16231150D01*
X10681491Y-16231150D02*
X10671967Y-16212103D01*
X10671967Y-16212103D02*
X10671967Y-16202579D01*
X10671967Y-16202579D02*
X10681491Y-16183531D01*
X10681491Y-16183531D02*
X10691015Y-16174008D01*
X10691015Y-16174008D02*
X10710063Y-16164484D01*
X10710063Y-16164484D02*
X10748158Y-16164484D01*
X10748158Y-16164484D02*
X10767205Y-16174008D01*
X10767205Y-16174008D02*
X10776729Y-16183531D01*
X10776729Y-16183531D02*
X10786253Y-16202579D01*
X10786253Y-16202579D02*
X10786253Y-16212103D01*
X10786253Y-16212103D02*
X10776729Y-16231150D01*
X10776729Y-16231150D02*
X10767205Y-16240674D01*
X10767205Y-16240674D02*
X10748158Y-16250198D01*
X10748158Y-16250198D02*
X10710063Y-16250198D01*
X10710063Y-16250198D02*
X10691015Y-16259722D01*
X10691015Y-16259722D02*
X10681491Y-16269246D01*
X10681491Y-16269246D02*
X10671967Y-16288293D01*
X10671967Y-16288293D02*
X10671967Y-16326388D01*
X10671967Y-16326388D02*
X10681491Y-16345436D01*
X10681491Y-16345436D02*
X10691015Y-16354960D01*
X10691015Y-16354960D02*
X10710063Y-16364484D01*
X10710063Y-16364484D02*
X10748158Y-16364484D01*
X10748158Y-16364484D02*
X10767205Y-16354960D01*
X10767205Y-16354960D02*
X10776729Y-16345436D01*
X10776729Y-16345436D02*
X10786253Y-16326388D01*
X10786253Y-16326388D02*
X10786253Y-16288293D01*
X10786253Y-16288293D02*
X10776729Y-16269246D01*
X10776729Y-16269246D02*
X10767205Y-16259722D01*
X10767205Y-16259722D02*
X10748158Y-16250198D01*
X10976729Y-16364484D02*
X10862444Y-16364484D01*
X10919586Y-16364484D02*
X10919586Y-16164484D01*
X10919586Y-16164484D02*
X10900539Y-16193055D01*
X10900539Y-16193055D02*
X10881491Y-16212103D01*
X10881491Y-16212103D02*
X10862444Y-16221627D01*
X11043396Y-16164484D02*
X11167205Y-16164484D01*
X11167205Y-16164484D02*
X11100539Y-16240674D01*
X11100539Y-16240674D02*
X11129110Y-16240674D01*
X11129110Y-16240674D02*
X11148158Y-16250198D01*
X11148158Y-16250198D02*
X11157682Y-16259722D01*
X11157682Y-16259722D02*
X11167205Y-16278769D01*
X11167205Y-16278769D02*
X11167205Y-16326388D01*
X11167205Y-16326388D02*
X11157682Y-16345436D01*
X11157682Y-16345436D02*
X11148158Y-16354960D01*
X11148158Y-16354960D02*
X11129110Y-16364484D01*
X11129110Y-16364484D02*
X11071967Y-16364484D01*
X11071967Y-16364484D02*
X11052920Y-16354960D01*
X11052920Y-16354960D02*
X11043396Y-16345436D01*
X11252920Y-16364484D02*
X11252920Y-16231150D01*
X11252920Y-16250198D02*
X11262443Y-16240674D01*
X11262443Y-16240674D02*
X11281491Y-16231150D01*
X11281491Y-16231150D02*
X11310063Y-16231150D01*
X11310063Y-16231150D02*
X11329110Y-16240674D01*
X11329110Y-16240674D02*
X11338634Y-16259722D01*
X11338634Y-16259722D02*
X11338634Y-16364484D01*
X11338634Y-16259722D02*
X11348158Y-16240674D01*
X11348158Y-16240674D02*
X11367205Y-16231150D01*
X11367205Y-16231150D02*
X11395777Y-16231150D01*
X11395777Y-16231150D02*
X11414824Y-16240674D01*
X11414824Y-16240674D02*
X11424348Y-16259722D01*
X11424348Y-16259722D02*
X11424348Y-16364484D01*
X11519586Y-16364484D02*
X11519586Y-16231150D01*
X11519586Y-16250198D02*
X11529110Y-16240674D01*
X11529110Y-16240674D02*
X11548158Y-16231150D01*
X11548158Y-16231150D02*
X11576729Y-16231150D01*
X11576729Y-16231150D02*
X11595777Y-16240674D01*
X11595777Y-16240674D02*
X11605301Y-16259722D01*
X11605301Y-16259722D02*
X11605301Y-16364484D01*
X11605301Y-16259722D02*
X11614824Y-16240674D01*
X11614824Y-16240674D02*
X11633872Y-16231150D01*
X11633872Y-16231150D02*
X11662443Y-16231150D01*
X11662443Y-16231150D02*
X11681491Y-16240674D01*
X11681491Y-16240674D02*
X11691015Y-16259722D01*
X11691015Y-16259722D02*
X11691015Y-16364484D01*
X12081491Y-16154960D02*
X11910063Y-16412103D01*
X12338634Y-16164484D02*
X12357682Y-16164484D01*
X12357682Y-16164484D02*
X12376729Y-16174008D01*
X12376729Y-16174008D02*
X12386253Y-16183531D01*
X12386253Y-16183531D02*
X12395777Y-16202579D01*
X12395777Y-16202579D02*
X12405301Y-16240674D01*
X12405301Y-16240674D02*
X12405301Y-16288293D01*
X12405301Y-16288293D02*
X12395777Y-16326388D01*
X12395777Y-16326388D02*
X12386253Y-16345436D01*
X12386253Y-16345436D02*
X12376729Y-16354960D01*
X12376729Y-16354960D02*
X12357682Y-16364484D01*
X12357682Y-16364484D02*
X12338634Y-16364484D01*
X12338634Y-16364484D02*
X12319586Y-16354960D01*
X12319586Y-16354960D02*
X12310063Y-16345436D01*
X12310063Y-16345436D02*
X12300539Y-16326388D01*
X12300539Y-16326388D02*
X12291015Y-16288293D01*
X12291015Y-16288293D02*
X12291015Y-16240674D01*
X12291015Y-16240674D02*
X12300539Y-16202579D01*
X12300539Y-16202579D02*
X12310063Y-16183531D01*
X12310063Y-16183531D02*
X12319586Y-16174008D01*
X12319586Y-16174008D02*
X12338634Y-16164484D01*
X12491015Y-16345436D02*
X12500539Y-16354960D01*
X12500539Y-16354960D02*
X12491015Y-16364484D01*
X12491015Y-16364484D02*
X12481491Y-16354960D01*
X12481491Y-16354960D02*
X12491015Y-16345436D01*
X12491015Y-16345436D02*
X12491015Y-16364484D01*
X12624348Y-16164484D02*
X12643396Y-16164484D01*
X12643396Y-16164484D02*
X12662444Y-16174008D01*
X12662444Y-16174008D02*
X12671967Y-16183531D01*
X12671967Y-16183531D02*
X12681491Y-16202579D01*
X12681491Y-16202579D02*
X12691015Y-16240674D01*
X12691015Y-16240674D02*
X12691015Y-16288293D01*
X12691015Y-16288293D02*
X12681491Y-16326388D01*
X12681491Y-16326388D02*
X12671967Y-16345436D01*
X12671967Y-16345436D02*
X12662444Y-16354960D01*
X12662444Y-16354960D02*
X12643396Y-16364484D01*
X12643396Y-16364484D02*
X12624348Y-16364484D01*
X12624348Y-16364484D02*
X12605301Y-16354960D01*
X12605301Y-16354960D02*
X12595777Y-16345436D01*
X12595777Y-16345436D02*
X12586253Y-16326388D01*
X12586253Y-16326388D02*
X12576729Y-16288293D01*
X12576729Y-16288293D02*
X12576729Y-16240674D01*
X12576729Y-16240674D02*
X12586253Y-16202579D01*
X12586253Y-16202579D02*
X12595777Y-16183531D01*
X12595777Y-16183531D02*
X12605301Y-16174008D01*
X12605301Y-16174008D02*
X12624348Y-16164484D01*
X12757682Y-16164484D02*
X12881491Y-16164484D01*
X12881491Y-16164484D02*
X12814825Y-16240674D01*
X12814825Y-16240674D02*
X12843396Y-16240674D01*
X12843396Y-16240674D02*
X12862444Y-16250198D01*
X12862444Y-16250198D02*
X12871967Y-16259722D01*
X12871967Y-16259722D02*
X12881491Y-16278769D01*
X12881491Y-16278769D02*
X12881491Y-16326388D01*
X12881491Y-16326388D02*
X12871967Y-16345436D01*
X12871967Y-16345436D02*
X12862444Y-16354960D01*
X12862444Y-16354960D02*
X12843396Y-16364484D01*
X12843396Y-16364484D02*
X12786253Y-16364484D01*
X12786253Y-16364484D02*
X12767206Y-16354960D01*
X12767206Y-16354960D02*
X12757682Y-16345436D01*
X12957682Y-16183531D02*
X12967206Y-16174008D01*
X12967206Y-16174008D02*
X12986253Y-16164484D01*
X12986253Y-16164484D02*
X13033872Y-16164484D01*
X13033872Y-16164484D02*
X13052920Y-16174008D01*
X13052920Y-16174008D02*
X13062444Y-16183531D01*
X13062444Y-16183531D02*
X13071967Y-16202579D01*
X13071967Y-16202579D02*
X13071967Y-16221627D01*
X13071967Y-16221627D02*
X13062444Y-16250198D01*
X13062444Y-16250198D02*
X12948158Y-16364484D01*
X12948158Y-16364484D02*
X13071967Y-16364484D01*
X13195777Y-16164484D02*
X13214825Y-16164484D01*
X13214825Y-16164484D02*
X13233872Y-16174008D01*
X13233872Y-16174008D02*
X13243396Y-16183531D01*
X13243396Y-16183531D02*
X13252920Y-16202579D01*
X13252920Y-16202579D02*
X13262444Y-16240674D01*
X13262444Y-16240674D02*
X13262444Y-16288293D01*
X13262444Y-16288293D02*
X13252920Y-16326388D01*
X13252920Y-16326388D02*
X13243396Y-16345436D01*
X13243396Y-16345436D02*
X13233872Y-16354960D01*
X13233872Y-16354960D02*
X13214825Y-16364484D01*
X13214825Y-16364484D02*
X13195777Y-16364484D01*
X13195777Y-16364484D02*
X13176729Y-16354960D01*
X13176729Y-16354960D02*
X13167206Y-16345436D01*
X13167206Y-16345436D02*
X13157682Y-16326388D01*
X13157682Y-16326388D02*
X13148158Y-16288293D01*
X13148158Y-16288293D02*
X13148158Y-16240674D01*
X13148158Y-16240674D02*
X13157682Y-16202579D01*
X13157682Y-16202579D02*
X13167206Y-16183531D01*
X13167206Y-16183531D02*
X13176729Y-16174008D01*
X13176729Y-16174008D02*
X13195777Y-16164484D01*
X13338634Y-16164484D02*
X13338634Y-16202579D01*
X13414825Y-16164484D02*
X13414825Y-16202579D01*
X13710063Y-16440674D02*
X13700539Y-16431150D01*
X13700539Y-16431150D02*
X13681491Y-16402579D01*
X13681491Y-16402579D02*
X13671968Y-16383531D01*
X13671968Y-16383531D02*
X13662444Y-16354960D01*
X13662444Y-16354960D02*
X13652920Y-16307341D01*
X13652920Y-16307341D02*
X13652920Y-16269246D01*
X13652920Y-16269246D02*
X13662444Y-16221627D01*
X13662444Y-16221627D02*
X13671968Y-16193055D01*
X13671968Y-16193055D02*
X13681491Y-16174008D01*
X13681491Y-16174008D02*
X13700539Y-16145436D01*
X13700539Y-16145436D02*
X13710063Y-16135912D01*
X13814825Y-16250198D02*
X13795777Y-16240674D01*
X13795777Y-16240674D02*
X13786253Y-16231150D01*
X13786253Y-16231150D02*
X13776729Y-16212103D01*
X13776729Y-16212103D02*
X13776729Y-16202579D01*
X13776729Y-16202579D02*
X13786253Y-16183531D01*
X13786253Y-16183531D02*
X13795777Y-16174008D01*
X13795777Y-16174008D02*
X13814825Y-16164484D01*
X13814825Y-16164484D02*
X13852920Y-16164484D01*
X13852920Y-16164484D02*
X13871968Y-16174008D01*
X13871968Y-16174008D02*
X13881491Y-16183531D01*
X13881491Y-16183531D02*
X13891015Y-16202579D01*
X13891015Y-16202579D02*
X13891015Y-16212103D01*
X13891015Y-16212103D02*
X13881491Y-16231150D01*
X13881491Y-16231150D02*
X13871968Y-16240674D01*
X13871968Y-16240674D02*
X13852920Y-16250198D01*
X13852920Y-16250198D02*
X13814825Y-16250198D01*
X13814825Y-16250198D02*
X13795777Y-16259722D01*
X13795777Y-16259722D02*
X13786253Y-16269246D01*
X13786253Y-16269246D02*
X13776729Y-16288293D01*
X13776729Y-16288293D02*
X13776729Y-16326388D01*
X13776729Y-16326388D02*
X13786253Y-16345436D01*
X13786253Y-16345436D02*
X13795777Y-16354960D01*
X13795777Y-16354960D02*
X13814825Y-16364484D01*
X13814825Y-16364484D02*
X13852920Y-16364484D01*
X13852920Y-16364484D02*
X13871968Y-16354960D01*
X13871968Y-16354960D02*
X13881491Y-16345436D01*
X13881491Y-16345436D02*
X13891015Y-16326388D01*
X13891015Y-16326388D02*
X13891015Y-16288293D01*
X13891015Y-16288293D02*
X13881491Y-16269246D01*
X13881491Y-16269246D02*
X13871968Y-16259722D01*
X13871968Y-16259722D02*
X13852920Y-16250198D01*
X14129110Y-16364484D02*
X14129110Y-16164484D01*
X14214825Y-16364484D02*
X14214825Y-16259722D01*
X14214825Y-16259722D02*
X14205301Y-16240674D01*
X14205301Y-16240674D02*
X14186253Y-16231150D01*
X14186253Y-16231150D02*
X14157682Y-16231150D01*
X14157682Y-16231150D02*
X14138634Y-16240674D01*
X14138634Y-16240674D02*
X14129110Y-16250198D01*
X14338634Y-16364484D02*
X14319587Y-16354960D01*
X14319587Y-16354960D02*
X14310063Y-16345436D01*
X14310063Y-16345436D02*
X14300539Y-16326388D01*
X14300539Y-16326388D02*
X14300539Y-16269246D01*
X14300539Y-16269246D02*
X14310063Y-16250198D01*
X14310063Y-16250198D02*
X14319587Y-16240674D01*
X14319587Y-16240674D02*
X14338634Y-16231150D01*
X14338634Y-16231150D02*
X14367206Y-16231150D01*
X14367206Y-16231150D02*
X14386253Y-16240674D01*
X14386253Y-16240674D02*
X14395777Y-16250198D01*
X14395777Y-16250198D02*
X14405301Y-16269246D01*
X14405301Y-16269246D02*
X14405301Y-16326388D01*
X14405301Y-16326388D02*
X14395777Y-16345436D01*
X14395777Y-16345436D02*
X14386253Y-16354960D01*
X14386253Y-16354960D02*
X14367206Y-16364484D01*
X14367206Y-16364484D02*
X14338634Y-16364484D01*
X14519587Y-16364484D02*
X14500539Y-16354960D01*
X14500539Y-16354960D02*
X14491015Y-16335912D01*
X14491015Y-16335912D02*
X14491015Y-16164484D01*
X14671968Y-16354960D02*
X14652920Y-16364484D01*
X14652920Y-16364484D02*
X14614825Y-16364484D01*
X14614825Y-16364484D02*
X14595777Y-16354960D01*
X14595777Y-16354960D02*
X14586253Y-16335912D01*
X14586253Y-16335912D02*
X14586253Y-16259722D01*
X14586253Y-16259722D02*
X14595777Y-16240674D01*
X14595777Y-16240674D02*
X14614825Y-16231150D01*
X14614825Y-16231150D02*
X14652920Y-16231150D01*
X14652920Y-16231150D02*
X14671968Y-16240674D01*
X14671968Y-16240674D02*
X14681491Y-16259722D01*
X14681491Y-16259722D02*
X14681491Y-16278769D01*
X14681491Y-16278769D02*
X14586253Y-16297817D01*
X14757682Y-16354960D02*
X14776730Y-16364484D01*
X14776730Y-16364484D02*
X14814825Y-16364484D01*
X14814825Y-16364484D02*
X14833872Y-16354960D01*
X14833872Y-16354960D02*
X14843396Y-16335912D01*
X14843396Y-16335912D02*
X14843396Y-16326388D01*
X14843396Y-16326388D02*
X14833872Y-16307341D01*
X14833872Y-16307341D02*
X14814825Y-16297817D01*
X14814825Y-16297817D02*
X14786253Y-16297817D01*
X14786253Y-16297817D02*
X14767206Y-16288293D01*
X14767206Y-16288293D02*
X14757682Y-16269246D01*
X14757682Y-16269246D02*
X14757682Y-16259722D01*
X14757682Y-16259722D02*
X14767206Y-16240674D01*
X14767206Y-16240674D02*
X14786253Y-16231150D01*
X14786253Y-16231150D02*
X14814825Y-16231150D01*
X14814825Y-16231150D02*
X14833872Y-16240674D01*
X14910063Y-16440674D02*
X14919587Y-16431150D01*
X14919587Y-16431150D02*
X14938634Y-16402579D01*
X14938634Y-16402579D02*
X14948158Y-16383531D01*
X14948158Y-16383531D02*
X14957682Y-16354960D01*
X14957682Y-16354960D02*
X14967206Y-16307341D01*
X14967206Y-16307341D02*
X14967206Y-16269246D01*
X14967206Y-16269246D02*
X14957682Y-16221627D01*
X14957682Y-16221627D02*
X14948158Y-16193055D01*
X14948158Y-16193055D02*
X14938634Y-16174008D01*
X14938634Y-16174008D02*
X14919587Y-16145436D01*
X14919587Y-16145436D02*
X14910063Y-16135912D01*
D14*
X10120356Y-16572356D02*
X10120356Y-16501644D01*
X10049644Y-16501644D01*
X10049644Y-16572356D01*
X10120356Y-16572356D01*
D11*
X10500539Y-16628484D02*
X10386253Y-16628484D01*
X10443396Y-16628484D02*
X10443396Y-16428484D01*
X10443396Y-16428484D02*
X10424348Y-16457055D01*
X10424348Y-16457055D02*
X10405301Y-16476103D01*
X10405301Y-16476103D02*
X10386253Y-16485627D01*
X10586253Y-16609436D02*
X10595777Y-16618960D01*
X10595777Y-16618960D02*
X10586253Y-16628484D01*
X10586253Y-16628484D02*
X10576729Y-16618960D01*
X10576729Y-16618960D02*
X10586253Y-16609436D01*
X10586253Y-16609436D02*
X10586253Y-16628484D01*
X10719586Y-16428484D02*
X10738634Y-16428484D01*
X10738634Y-16428484D02*
X10757682Y-16438008D01*
X10757682Y-16438008D02*
X10767205Y-16447531D01*
X10767205Y-16447531D02*
X10776729Y-16466579D01*
X10776729Y-16466579D02*
X10786253Y-16504674D01*
X10786253Y-16504674D02*
X10786253Y-16552293D01*
X10786253Y-16552293D02*
X10776729Y-16590388D01*
X10776729Y-16590388D02*
X10767205Y-16609436D01*
X10767205Y-16609436D02*
X10757682Y-16618960D01*
X10757682Y-16618960D02*
X10738634Y-16628484D01*
X10738634Y-16628484D02*
X10719586Y-16628484D01*
X10719586Y-16628484D02*
X10700539Y-16618960D01*
X10700539Y-16618960D02*
X10691015Y-16609436D01*
X10691015Y-16609436D02*
X10681491Y-16590388D01*
X10681491Y-16590388D02*
X10671967Y-16552293D01*
X10671967Y-16552293D02*
X10671967Y-16504674D01*
X10671967Y-16504674D02*
X10681491Y-16466579D01*
X10681491Y-16466579D02*
X10691015Y-16447531D01*
X10691015Y-16447531D02*
X10700539Y-16438008D01*
X10700539Y-16438008D02*
X10719586Y-16428484D01*
X10910063Y-16428484D02*
X10929110Y-16428484D01*
X10929110Y-16428484D02*
X10948158Y-16438008D01*
X10948158Y-16438008D02*
X10957682Y-16447531D01*
X10957682Y-16447531D02*
X10967205Y-16466579D01*
X10967205Y-16466579D02*
X10976729Y-16504674D01*
X10976729Y-16504674D02*
X10976729Y-16552293D01*
X10976729Y-16552293D02*
X10967205Y-16590388D01*
X10967205Y-16590388D02*
X10957682Y-16609436D01*
X10957682Y-16609436D02*
X10948158Y-16618960D01*
X10948158Y-16618960D02*
X10929110Y-16628484D01*
X10929110Y-16628484D02*
X10910063Y-16628484D01*
X10910063Y-16628484D02*
X10891015Y-16618960D01*
X10891015Y-16618960D02*
X10881491Y-16609436D01*
X10881491Y-16609436D02*
X10871967Y-16590388D01*
X10871967Y-16590388D02*
X10862444Y-16552293D01*
X10862444Y-16552293D02*
X10862444Y-16504674D01*
X10862444Y-16504674D02*
X10871967Y-16466579D01*
X10871967Y-16466579D02*
X10881491Y-16447531D01*
X10881491Y-16447531D02*
X10891015Y-16438008D01*
X10891015Y-16438008D02*
X10910063Y-16428484D01*
X11100539Y-16428484D02*
X11119586Y-16428484D01*
X11119586Y-16428484D02*
X11138634Y-16438008D01*
X11138634Y-16438008D02*
X11148158Y-16447531D01*
X11148158Y-16447531D02*
X11157682Y-16466579D01*
X11157682Y-16466579D02*
X11167205Y-16504674D01*
X11167205Y-16504674D02*
X11167205Y-16552293D01*
X11167205Y-16552293D02*
X11157682Y-16590388D01*
X11157682Y-16590388D02*
X11148158Y-16609436D01*
X11148158Y-16609436D02*
X11138634Y-16618960D01*
X11138634Y-16618960D02*
X11119586Y-16628484D01*
X11119586Y-16628484D02*
X11100539Y-16628484D01*
X11100539Y-16628484D02*
X11081491Y-16618960D01*
X11081491Y-16618960D02*
X11071967Y-16609436D01*
X11071967Y-16609436D02*
X11062444Y-16590388D01*
X11062444Y-16590388D02*
X11052920Y-16552293D01*
X11052920Y-16552293D02*
X11052920Y-16504674D01*
X11052920Y-16504674D02*
X11062444Y-16466579D01*
X11062444Y-16466579D02*
X11071967Y-16447531D01*
X11071967Y-16447531D02*
X11081491Y-16438008D01*
X11081491Y-16438008D02*
X11100539Y-16428484D01*
X11252920Y-16628484D02*
X11252920Y-16495150D01*
X11252920Y-16514198D02*
X11262443Y-16504674D01*
X11262443Y-16504674D02*
X11281491Y-16495150D01*
X11281491Y-16495150D02*
X11310063Y-16495150D01*
X11310063Y-16495150D02*
X11329110Y-16504674D01*
X11329110Y-16504674D02*
X11338634Y-16523722D01*
X11338634Y-16523722D02*
X11338634Y-16628484D01*
X11338634Y-16523722D02*
X11348158Y-16504674D01*
X11348158Y-16504674D02*
X11367205Y-16495150D01*
X11367205Y-16495150D02*
X11395777Y-16495150D01*
X11395777Y-16495150D02*
X11414824Y-16504674D01*
X11414824Y-16504674D02*
X11424348Y-16523722D01*
X11424348Y-16523722D02*
X11424348Y-16628484D01*
X11519586Y-16628484D02*
X11519586Y-16495150D01*
X11519586Y-16514198D02*
X11529110Y-16504674D01*
X11529110Y-16504674D02*
X11548158Y-16495150D01*
X11548158Y-16495150D02*
X11576729Y-16495150D01*
X11576729Y-16495150D02*
X11595777Y-16504674D01*
X11595777Y-16504674D02*
X11605301Y-16523722D01*
X11605301Y-16523722D02*
X11605301Y-16628484D01*
X11605301Y-16523722D02*
X11614824Y-16504674D01*
X11614824Y-16504674D02*
X11633872Y-16495150D01*
X11633872Y-16495150D02*
X11662443Y-16495150D01*
X11662443Y-16495150D02*
X11681491Y-16504674D01*
X11681491Y-16504674D02*
X11691015Y-16523722D01*
X11691015Y-16523722D02*
X11691015Y-16628484D01*
X12081491Y-16418960D02*
X11910063Y-16676103D01*
X12338634Y-16428484D02*
X12357682Y-16428484D01*
X12357682Y-16428484D02*
X12376729Y-16438008D01*
X12376729Y-16438008D02*
X12386253Y-16447531D01*
X12386253Y-16447531D02*
X12395777Y-16466579D01*
X12395777Y-16466579D02*
X12405301Y-16504674D01*
X12405301Y-16504674D02*
X12405301Y-16552293D01*
X12405301Y-16552293D02*
X12395777Y-16590388D01*
X12395777Y-16590388D02*
X12386253Y-16609436D01*
X12386253Y-16609436D02*
X12376729Y-16618960D01*
X12376729Y-16618960D02*
X12357682Y-16628484D01*
X12357682Y-16628484D02*
X12338634Y-16628484D01*
X12338634Y-16628484D02*
X12319586Y-16618960D01*
X12319586Y-16618960D02*
X12310063Y-16609436D01*
X12310063Y-16609436D02*
X12300539Y-16590388D01*
X12300539Y-16590388D02*
X12291015Y-16552293D01*
X12291015Y-16552293D02*
X12291015Y-16504674D01*
X12291015Y-16504674D02*
X12300539Y-16466579D01*
X12300539Y-16466579D02*
X12310063Y-16447531D01*
X12310063Y-16447531D02*
X12319586Y-16438008D01*
X12319586Y-16438008D02*
X12338634Y-16428484D01*
X12491015Y-16609436D02*
X12500539Y-16618960D01*
X12500539Y-16618960D02*
X12491015Y-16628484D01*
X12491015Y-16628484D02*
X12481491Y-16618960D01*
X12481491Y-16618960D02*
X12491015Y-16609436D01*
X12491015Y-16609436D02*
X12491015Y-16628484D01*
X12624348Y-16428484D02*
X12643396Y-16428484D01*
X12643396Y-16428484D02*
X12662444Y-16438008D01*
X12662444Y-16438008D02*
X12671967Y-16447531D01*
X12671967Y-16447531D02*
X12681491Y-16466579D01*
X12681491Y-16466579D02*
X12691015Y-16504674D01*
X12691015Y-16504674D02*
X12691015Y-16552293D01*
X12691015Y-16552293D02*
X12681491Y-16590388D01*
X12681491Y-16590388D02*
X12671967Y-16609436D01*
X12671967Y-16609436D02*
X12662444Y-16618960D01*
X12662444Y-16618960D02*
X12643396Y-16628484D01*
X12643396Y-16628484D02*
X12624348Y-16628484D01*
X12624348Y-16628484D02*
X12605301Y-16618960D01*
X12605301Y-16618960D02*
X12595777Y-16609436D01*
X12595777Y-16609436D02*
X12586253Y-16590388D01*
X12586253Y-16590388D02*
X12576729Y-16552293D01*
X12576729Y-16552293D02*
X12576729Y-16504674D01*
X12576729Y-16504674D02*
X12586253Y-16466579D01*
X12586253Y-16466579D02*
X12595777Y-16447531D01*
X12595777Y-16447531D02*
X12605301Y-16438008D01*
X12605301Y-16438008D02*
X12624348Y-16428484D01*
X12757682Y-16428484D02*
X12881491Y-16428484D01*
X12881491Y-16428484D02*
X12814825Y-16504674D01*
X12814825Y-16504674D02*
X12843396Y-16504674D01*
X12843396Y-16504674D02*
X12862444Y-16514198D01*
X12862444Y-16514198D02*
X12871967Y-16523722D01*
X12871967Y-16523722D02*
X12881491Y-16542769D01*
X12881491Y-16542769D02*
X12881491Y-16590388D01*
X12881491Y-16590388D02*
X12871967Y-16609436D01*
X12871967Y-16609436D02*
X12862444Y-16618960D01*
X12862444Y-16618960D02*
X12843396Y-16628484D01*
X12843396Y-16628484D02*
X12786253Y-16628484D01*
X12786253Y-16628484D02*
X12767206Y-16618960D01*
X12767206Y-16618960D02*
X12757682Y-16609436D01*
X12976729Y-16628484D02*
X13014825Y-16628484D01*
X13014825Y-16628484D02*
X13033872Y-16618960D01*
X13033872Y-16618960D02*
X13043396Y-16609436D01*
X13043396Y-16609436D02*
X13062444Y-16580865D01*
X13062444Y-16580865D02*
X13071967Y-16542769D01*
X13071967Y-16542769D02*
X13071967Y-16466579D01*
X13071967Y-16466579D02*
X13062444Y-16447531D01*
X13062444Y-16447531D02*
X13052920Y-16438008D01*
X13052920Y-16438008D02*
X13033872Y-16428484D01*
X13033872Y-16428484D02*
X12995777Y-16428484D01*
X12995777Y-16428484D02*
X12976729Y-16438008D01*
X12976729Y-16438008D02*
X12967206Y-16447531D01*
X12967206Y-16447531D02*
X12957682Y-16466579D01*
X12957682Y-16466579D02*
X12957682Y-16514198D01*
X12957682Y-16514198D02*
X12967206Y-16533246D01*
X12967206Y-16533246D02*
X12976729Y-16542769D01*
X12976729Y-16542769D02*
X12995777Y-16552293D01*
X12995777Y-16552293D02*
X13033872Y-16552293D01*
X13033872Y-16552293D02*
X13052920Y-16542769D01*
X13052920Y-16542769D02*
X13062444Y-16533246D01*
X13062444Y-16533246D02*
X13071967Y-16514198D01*
X13243396Y-16495150D02*
X13243396Y-16628484D01*
X13195777Y-16418960D02*
X13148158Y-16561817D01*
X13148158Y-16561817D02*
X13271967Y-16561817D01*
X13338634Y-16428484D02*
X13338634Y-16466579D01*
X13414825Y-16428484D02*
X13414825Y-16466579D01*
X13710063Y-16704674D02*
X13700539Y-16695150D01*
X13700539Y-16695150D02*
X13681491Y-16666579D01*
X13681491Y-16666579D02*
X13671968Y-16647531D01*
X13671968Y-16647531D02*
X13662444Y-16618960D01*
X13662444Y-16618960D02*
X13652920Y-16571341D01*
X13652920Y-16571341D02*
X13652920Y-16533246D01*
X13652920Y-16533246D02*
X13662444Y-16485627D01*
X13662444Y-16485627D02*
X13671968Y-16457055D01*
X13671968Y-16457055D02*
X13681491Y-16438008D01*
X13681491Y-16438008D02*
X13700539Y-16409436D01*
X13700539Y-16409436D02*
X13710063Y-16399912D01*
X13891015Y-16628484D02*
X13776729Y-16628484D01*
X13833872Y-16628484D02*
X13833872Y-16428484D01*
X13833872Y-16428484D02*
X13814825Y-16457055D01*
X13814825Y-16457055D02*
X13795777Y-16476103D01*
X13795777Y-16476103D02*
X13776729Y-16485627D01*
X13986253Y-16628484D02*
X14024348Y-16628484D01*
X14024348Y-16628484D02*
X14043396Y-16618960D01*
X14043396Y-16618960D02*
X14052920Y-16609436D01*
X14052920Y-16609436D02*
X14071968Y-16580865D01*
X14071968Y-16580865D02*
X14081491Y-16542769D01*
X14081491Y-16542769D02*
X14081491Y-16466579D01*
X14081491Y-16466579D02*
X14071968Y-16447531D01*
X14071968Y-16447531D02*
X14062444Y-16438008D01*
X14062444Y-16438008D02*
X14043396Y-16428484D01*
X14043396Y-16428484D02*
X14005301Y-16428484D01*
X14005301Y-16428484D02*
X13986253Y-16438008D01*
X13986253Y-16438008D02*
X13976729Y-16447531D01*
X13976729Y-16447531D02*
X13967206Y-16466579D01*
X13967206Y-16466579D02*
X13967206Y-16514198D01*
X13967206Y-16514198D02*
X13976729Y-16533246D01*
X13976729Y-16533246D02*
X13986253Y-16542769D01*
X13986253Y-16542769D02*
X14005301Y-16552293D01*
X14005301Y-16552293D02*
X14043396Y-16552293D01*
X14043396Y-16552293D02*
X14062444Y-16542769D01*
X14062444Y-16542769D02*
X14071968Y-16533246D01*
X14071968Y-16533246D02*
X14081491Y-16514198D01*
X14319587Y-16628484D02*
X14319587Y-16428484D01*
X14405301Y-16628484D02*
X14405301Y-16523722D01*
X14405301Y-16523722D02*
X14395777Y-16504674D01*
X14395777Y-16504674D02*
X14376730Y-16495150D01*
X14376730Y-16495150D02*
X14348158Y-16495150D01*
X14348158Y-16495150D02*
X14329110Y-16504674D01*
X14329110Y-16504674D02*
X14319587Y-16514198D01*
X14529110Y-16628484D02*
X14510063Y-16618960D01*
X14510063Y-16618960D02*
X14500539Y-16609436D01*
X14500539Y-16609436D02*
X14491015Y-16590388D01*
X14491015Y-16590388D02*
X14491015Y-16533246D01*
X14491015Y-16533246D02*
X14500539Y-16514198D01*
X14500539Y-16514198D02*
X14510063Y-16504674D01*
X14510063Y-16504674D02*
X14529110Y-16495150D01*
X14529110Y-16495150D02*
X14557682Y-16495150D01*
X14557682Y-16495150D02*
X14576730Y-16504674D01*
X14576730Y-16504674D02*
X14586253Y-16514198D01*
X14586253Y-16514198D02*
X14595777Y-16533246D01*
X14595777Y-16533246D02*
X14595777Y-16590388D01*
X14595777Y-16590388D02*
X14586253Y-16609436D01*
X14586253Y-16609436D02*
X14576730Y-16618960D01*
X14576730Y-16618960D02*
X14557682Y-16628484D01*
X14557682Y-16628484D02*
X14529110Y-16628484D01*
X14710063Y-16628484D02*
X14691015Y-16618960D01*
X14691015Y-16618960D02*
X14681491Y-16599912D01*
X14681491Y-16599912D02*
X14681491Y-16428484D01*
X14862444Y-16618960D02*
X14843396Y-16628484D01*
X14843396Y-16628484D02*
X14805301Y-16628484D01*
X14805301Y-16628484D02*
X14786253Y-16618960D01*
X14786253Y-16618960D02*
X14776730Y-16599912D01*
X14776730Y-16599912D02*
X14776730Y-16523722D01*
X14776730Y-16523722D02*
X14786253Y-16504674D01*
X14786253Y-16504674D02*
X14805301Y-16495150D01*
X14805301Y-16495150D02*
X14843396Y-16495150D01*
X14843396Y-16495150D02*
X14862444Y-16504674D01*
X14862444Y-16504674D02*
X14871968Y-16523722D01*
X14871968Y-16523722D02*
X14871968Y-16542769D01*
X14871968Y-16542769D02*
X14776730Y-16561817D01*
X14948158Y-16618960D02*
X14967206Y-16628484D01*
X14967206Y-16628484D02*
X15005301Y-16628484D01*
X15005301Y-16628484D02*
X15024349Y-16618960D01*
X15024349Y-16618960D02*
X15033872Y-16599912D01*
X15033872Y-16599912D02*
X15033872Y-16590388D01*
X15033872Y-16590388D02*
X15024349Y-16571341D01*
X15024349Y-16571341D02*
X15005301Y-16561817D01*
X15005301Y-16561817D02*
X14976730Y-16561817D01*
X14976730Y-16561817D02*
X14957682Y-16552293D01*
X14957682Y-16552293D02*
X14948158Y-16533246D01*
X14948158Y-16533246D02*
X14948158Y-16523722D01*
X14948158Y-16523722D02*
X14957682Y-16504674D01*
X14957682Y-16504674D02*
X14976730Y-16495150D01*
X14976730Y-16495150D02*
X15005301Y-16495150D01*
X15005301Y-16495150D02*
X15024349Y-16504674D01*
X15100539Y-16704674D02*
X15110063Y-16695150D01*
X15110063Y-16695150D02*
X15129111Y-16666579D01*
X15129111Y-16666579D02*
X15138634Y-16647531D01*
X15138634Y-16647531D02*
X15148158Y-16618960D01*
X15148158Y-16618960D02*
X15157682Y-16571341D01*
X15157682Y-16571341D02*
X15157682Y-16533246D01*
X15157682Y-16533246D02*
X15148158Y-16485627D01*
X15148158Y-16485627D02*
X15138634Y-16457055D01*
X15138634Y-16457055D02*
X15129111Y-16438008D01*
X15129111Y-16438008D02*
X15110063Y-16409436D01*
X15110063Y-16409436D02*
X15100539Y-16399912D01*
D15*
X10084200Y-16851800D02*
X10135000Y-16801000D01*
X10084200Y-16750200D01*
X10033400Y-16801000D01*
X10084200Y-16851800D01*
D11*
X10500539Y-16892484D02*
X10386253Y-16892484D01*
X10443396Y-16892484D02*
X10443396Y-16692484D01*
X10443396Y-16692484D02*
X10424348Y-16721055D01*
X10424348Y-16721055D02*
X10405301Y-16740103D01*
X10405301Y-16740103D02*
X10386253Y-16749627D01*
X10586253Y-16873436D02*
X10595777Y-16882960D01*
X10595777Y-16882960D02*
X10586253Y-16892484D01*
X10586253Y-16892484D02*
X10576729Y-16882960D01*
X10576729Y-16882960D02*
X10586253Y-16873436D01*
X10586253Y-16873436D02*
X10586253Y-16892484D01*
X10719586Y-16692484D02*
X10738634Y-16692484D01*
X10738634Y-16692484D02*
X10757682Y-16702008D01*
X10757682Y-16702008D02*
X10767205Y-16711531D01*
X10767205Y-16711531D02*
X10776729Y-16730579D01*
X10776729Y-16730579D02*
X10786253Y-16768674D01*
X10786253Y-16768674D02*
X10786253Y-16816293D01*
X10786253Y-16816293D02*
X10776729Y-16854389D01*
X10776729Y-16854389D02*
X10767205Y-16873436D01*
X10767205Y-16873436D02*
X10757682Y-16882960D01*
X10757682Y-16882960D02*
X10738634Y-16892484D01*
X10738634Y-16892484D02*
X10719586Y-16892484D01*
X10719586Y-16892484D02*
X10700539Y-16882960D01*
X10700539Y-16882960D02*
X10691015Y-16873436D01*
X10691015Y-16873436D02*
X10681491Y-16854389D01*
X10681491Y-16854389D02*
X10671967Y-16816293D01*
X10671967Y-16816293D02*
X10671967Y-16768674D01*
X10671967Y-16768674D02*
X10681491Y-16730579D01*
X10681491Y-16730579D02*
X10691015Y-16711531D01*
X10691015Y-16711531D02*
X10700539Y-16702008D01*
X10700539Y-16702008D02*
X10719586Y-16692484D01*
X10976729Y-16892484D02*
X10862444Y-16892484D01*
X10919586Y-16892484D02*
X10919586Y-16692484D01*
X10919586Y-16692484D02*
X10900539Y-16721055D01*
X10900539Y-16721055D02*
X10881491Y-16740103D01*
X10881491Y-16740103D02*
X10862444Y-16749627D01*
X11148158Y-16692484D02*
X11110063Y-16692484D01*
X11110063Y-16692484D02*
X11091015Y-16702008D01*
X11091015Y-16702008D02*
X11081491Y-16711531D01*
X11081491Y-16711531D02*
X11062444Y-16740103D01*
X11062444Y-16740103D02*
X11052920Y-16778198D01*
X11052920Y-16778198D02*
X11052920Y-16854389D01*
X11052920Y-16854389D02*
X11062444Y-16873436D01*
X11062444Y-16873436D02*
X11071967Y-16882960D01*
X11071967Y-16882960D02*
X11091015Y-16892484D01*
X11091015Y-16892484D02*
X11129110Y-16892484D01*
X11129110Y-16892484D02*
X11148158Y-16882960D01*
X11148158Y-16882960D02*
X11157682Y-16873436D01*
X11157682Y-16873436D02*
X11167205Y-16854389D01*
X11167205Y-16854389D02*
X11167205Y-16806770D01*
X11167205Y-16806770D02*
X11157682Y-16787722D01*
X11157682Y-16787722D02*
X11148158Y-16778198D01*
X11148158Y-16778198D02*
X11129110Y-16768674D01*
X11129110Y-16768674D02*
X11091015Y-16768674D01*
X11091015Y-16768674D02*
X11071967Y-16778198D01*
X11071967Y-16778198D02*
X11062444Y-16787722D01*
X11062444Y-16787722D02*
X11052920Y-16806770D01*
X11252920Y-16892484D02*
X11252920Y-16759150D01*
X11252920Y-16778198D02*
X11262443Y-16768674D01*
X11262443Y-16768674D02*
X11281491Y-16759150D01*
X11281491Y-16759150D02*
X11310063Y-16759150D01*
X11310063Y-16759150D02*
X11329110Y-16768674D01*
X11329110Y-16768674D02*
X11338634Y-16787722D01*
X11338634Y-16787722D02*
X11338634Y-16892484D01*
X11338634Y-16787722D02*
X11348158Y-16768674D01*
X11348158Y-16768674D02*
X11367205Y-16759150D01*
X11367205Y-16759150D02*
X11395777Y-16759150D01*
X11395777Y-16759150D02*
X11414824Y-16768674D01*
X11414824Y-16768674D02*
X11424348Y-16787722D01*
X11424348Y-16787722D02*
X11424348Y-16892484D01*
X11519586Y-16892484D02*
X11519586Y-16759150D01*
X11519586Y-16778198D02*
X11529110Y-16768674D01*
X11529110Y-16768674D02*
X11548158Y-16759150D01*
X11548158Y-16759150D02*
X11576729Y-16759150D01*
X11576729Y-16759150D02*
X11595777Y-16768674D01*
X11595777Y-16768674D02*
X11605301Y-16787722D01*
X11605301Y-16787722D02*
X11605301Y-16892484D01*
X11605301Y-16787722D02*
X11614824Y-16768674D01*
X11614824Y-16768674D02*
X11633872Y-16759150D01*
X11633872Y-16759150D02*
X11662443Y-16759150D01*
X11662443Y-16759150D02*
X11681491Y-16768674D01*
X11681491Y-16768674D02*
X11691015Y-16787722D01*
X11691015Y-16787722D02*
X11691015Y-16892484D01*
X12081491Y-16682960D02*
X11910063Y-16940103D01*
X12338634Y-16692484D02*
X12357682Y-16692484D01*
X12357682Y-16692484D02*
X12376729Y-16702008D01*
X12376729Y-16702008D02*
X12386253Y-16711531D01*
X12386253Y-16711531D02*
X12395777Y-16730579D01*
X12395777Y-16730579D02*
X12405301Y-16768674D01*
X12405301Y-16768674D02*
X12405301Y-16816293D01*
X12405301Y-16816293D02*
X12395777Y-16854389D01*
X12395777Y-16854389D02*
X12386253Y-16873436D01*
X12386253Y-16873436D02*
X12376729Y-16882960D01*
X12376729Y-16882960D02*
X12357682Y-16892484D01*
X12357682Y-16892484D02*
X12338634Y-16892484D01*
X12338634Y-16892484D02*
X12319586Y-16882960D01*
X12319586Y-16882960D02*
X12310063Y-16873436D01*
X12310063Y-16873436D02*
X12300539Y-16854389D01*
X12300539Y-16854389D02*
X12291015Y-16816293D01*
X12291015Y-16816293D02*
X12291015Y-16768674D01*
X12291015Y-16768674D02*
X12300539Y-16730579D01*
X12300539Y-16730579D02*
X12310063Y-16711531D01*
X12310063Y-16711531D02*
X12319586Y-16702008D01*
X12319586Y-16702008D02*
X12338634Y-16692484D01*
X12491015Y-16873436D02*
X12500539Y-16882960D01*
X12500539Y-16882960D02*
X12491015Y-16892484D01*
X12491015Y-16892484D02*
X12481491Y-16882960D01*
X12481491Y-16882960D02*
X12491015Y-16873436D01*
X12491015Y-16873436D02*
X12491015Y-16892484D01*
X12624348Y-16692484D02*
X12643396Y-16692484D01*
X12643396Y-16692484D02*
X12662444Y-16702008D01*
X12662444Y-16702008D02*
X12671967Y-16711531D01*
X12671967Y-16711531D02*
X12681491Y-16730579D01*
X12681491Y-16730579D02*
X12691015Y-16768674D01*
X12691015Y-16768674D02*
X12691015Y-16816293D01*
X12691015Y-16816293D02*
X12681491Y-16854389D01*
X12681491Y-16854389D02*
X12671967Y-16873436D01*
X12671967Y-16873436D02*
X12662444Y-16882960D01*
X12662444Y-16882960D02*
X12643396Y-16892484D01*
X12643396Y-16892484D02*
X12624348Y-16892484D01*
X12624348Y-16892484D02*
X12605301Y-16882960D01*
X12605301Y-16882960D02*
X12595777Y-16873436D01*
X12595777Y-16873436D02*
X12586253Y-16854389D01*
X12586253Y-16854389D02*
X12576729Y-16816293D01*
X12576729Y-16816293D02*
X12576729Y-16768674D01*
X12576729Y-16768674D02*
X12586253Y-16730579D01*
X12586253Y-16730579D02*
X12595777Y-16711531D01*
X12595777Y-16711531D02*
X12605301Y-16702008D01*
X12605301Y-16702008D02*
X12624348Y-16692484D01*
X12862444Y-16759150D02*
X12862444Y-16892484D01*
X12814825Y-16682960D02*
X12767206Y-16825817D01*
X12767206Y-16825817D02*
X12891015Y-16825817D01*
X13005301Y-16692484D02*
X13024348Y-16692484D01*
X13024348Y-16692484D02*
X13043396Y-16702008D01*
X13043396Y-16702008D02*
X13052920Y-16711531D01*
X13052920Y-16711531D02*
X13062444Y-16730579D01*
X13062444Y-16730579D02*
X13071967Y-16768674D01*
X13071967Y-16768674D02*
X13071967Y-16816293D01*
X13071967Y-16816293D02*
X13062444Y-16854389D01*
X13062444Y-16854389D02*
X13052920Y-16873436D01*
X13052920Y-16873436D02*
X13043396Y-16882960D01*
X13043396Y-16882960D02*
X13024348Y-16892484D01*
X13024348Y-16892484D02*
X13005301Y-16892484D01*
X13005301Y-16892484D02*
X12986253Y-16882960D01*
X12986253Y-16882960D02*
X12976729Y-16873436D01*
X12976729Y-16873436D02*
X12967206Y-16854389D01*
X12967206Y-16854389D02*
X12957682Y-16816293D01*
X12957682Y-16816293D02*
X12957682Y-16768674D01*
X12957682Y-16768674D02*
X12967206Y-16730579D01*
X12967206Y-16730579D02*
X12976729Y-16711531D01*
X12976729Y-16711531D02*
X12986253Y-16702008D01*
X12986253Y-16702008D02*
X13005301Y-16692484D01*
X13195777Y-16692484D02*
X13214825Y-16692484D01*
X13214825Y-16692484D02*
X13233872Y-16702008D01*
X13233872Y-16702008D02*
X13243396Y-16711531D01*
X13243396Y-16711531D02*
X13252920Y-16730579D01*
X13252920Y-16730579D02*
X13262444Y-16768674D01*
X13262444Y-16768674D02*
X13262444Y-16816293D01*
X13262444Y-16816293D02*
X13252920Y-16854389D01*
X13252920Y-16854389D02*
X13243396Y-16873436D01*
X13243396Y-16873436D02*
X13233872Y-16882960D01*
X13233872Y-16882960D02*
X13214825Y-16892484D01*
X13214825Y-16892484D02*
X13195777Y-16892484D01*
X13195777Y-16892484D02*
X13176729Y-16882960D01*
X13176729Y-16882960D02*
X13167206Y-16873436D01*
X13167206Y-16873436D02*
X13157682Y-16854389D01*
X13157682Y-16854389D02*
X13148158Y-16816293D01*
X13148158Y-16816293D02*
X13148158Y-16768674D01*
X13148158Y-16768674D02*
X13157682Y-16730579D01*
X13157682Y-16730579D02*
X13167206Y-16711531D01*
X13167206Y-16711531D02*
X13176729Y-16702008D01*
X13176729Y-16702008D02*
X13195777Y-16692484D01*
X13338634Y-16692484D02*
X13338634Y-16730579D01*
X13414825Y-16692484D02*
X13414825Y-16730579D01*
X13710063Y-16968674D02*
X13700539Y-16959150D01*
X13700539Y-16959150D02*
X13681491Y-16930579D01*
X13681491Y-16930579D02*
X13671968Y-16911531D01*
X13671968Y-16911531D02*
X13662444Y-16882960D01*
X13662444Y-16882960D02*
X13652920Y-16835341D01*
X13652920Y-16835341D02*
X13652920Y-16797246D01*
X13652920Y-16797246D02*
X13662444Y-16749627D01*
X13662444Y-16749627D02*
X13671968Y-16721055D01*
X13671968Y-16721055D02*
X13681491Y-16702008D01*
X13681491Y-16702008D02*
X13700539Y-16673436D01*
X13700539Y-16673436D02*
X13710063Y-16663912D01*
X13814825Y-16778198D02*
X13795777Y-16768674D01*
X13795777Y-16768674D02*
X13786253Y-16759150D01*
X13786253Y-16759150D02*
X13776729Y-16740103D01*
X13776729Y-16740103D02*
X13776729Y-16730579D01*
X13776729Y-16730579D02*
X13786253Y-16711531D01*
X13786253Y-16711531D02*
X13795777Y-16702008D01*
X13795777Y-16702008D02*
X13814825Y-16692484D01*
X13814825Y-16692484D02*
X13852920Y-16692484D01*
X13852920Y-16692484D02*
X13871968Y-16702008D01*
X13871968Y-16702008D02*
X13881491Y-16711531D01*
X13881491Y-16711531D02*
X13891015Y-16730579D01*
X13891015Y-16730579D02*
X13891015Y-16740103D01*
X13891015Y-16740103D02*
X13881491Y-16759150D01*
X13881491Y-16759150D02*
X13871968Y-16768674D01*
X13871968Y-16768674D02*
X13852920Y-16778198D01*
X13852920Y-16778198D02*
X13814825Y-16778198D01*
X13814825Y-16778198D02*
X13795777Y-16787722D01*
X13795777Y-16787722D02*
X13786253Y-16797246D01*
X13786253Y-16797246D02*
X13776729Y-16816293D01*
X13776729Y-16816293D02*
X13776729Y-16854389D01*
X13776729Y-16854389D02*
X13786253Y-16873436D01*
X13786253Y-16873436D02*
X13795777Y-16882960D01*
X13795777Y-16882960D02*
X13814825Y-16892484D01*
X13814825Y-16892484D02*
X13852920Y-16892484D01*
X13852920Y-16892484D02*
X13871968Y-16882960D01*
X13871968Y-16882960D02*
X13881491Y-16873436D01*
X13881491Y-16873436D02*
X13891015Y-16854389D01*
X13891015Y-16854389D02*
X13891015Y-16816293D01*
X13891015Y-16816293D02*
X13881491Y-16797246D01*
X13881491Y-16797246D02*
X13871968Y-16787722D01*
X13871968Y-16787722D02*
X13852920Y-16778198D01*
X14062444Y-16759150D02*
X14062444Y-16892484D01*
X14014825Y-16682960D02*
X13967206Y-16825817D01*
X13967206Y-16825817D02*
X14091015Y-16825817D01*
X14319587Y-16892484D02*
X14319587Y-16692484D01*
X14405301Y-16892484D02*
X14405301Y-16787722D01*
X14405301Y-16787722D02*
X14395777Y-16768674D01*
X14395777Y-16768674D02*
X14376730Y-16759150D01*
X14376730Y-16759150D02*
X14348158Y-16759150D01*
X14348158Y-16759150D02*
X14329110Y-16768674D01*
X14329110Y-16768674D02*
X14319587Y-16778198D01*
X14529110Y-16892484D02*
X14510063Y-16882960D01*
X14510063Y-16882960D02*
X14500539Y-16873436D01*
X14500539Y-16873436D02*
X14491015Y-16854389D01*
X14491015Y-16854389D02*
X14491015Y-16797246D01*
X14491015Y-16797246D02*
X14500539Y-16778198D01*
X14500539Y-16778198D02*
X14510063Y-16768674D01*
X14510063Y-16768674D02*
X14529110Y-16759150D01*
X14529110Y-16759150D02*
X14557682Y-16759150D01*
X14557682Y-16759150D02*
X14576730Y-16768674D01*
X14576730Y-16768674D02*
X14586253Y-16778198D01*
X14586253Y-16778198D02*
X14595777Y-16797246D01*
X14595777Y-16797246D02*
X14595777Y-16854389D01*
X14595777Y-16854389D02*
X14586253Y-16873436D01*
X14586253Y-16873436D02*
X14576730Y-16882960D01*
X14576730Y-16882960D02*
X14557682Y-16892484D01*
X14557682Y-16892484D02*
X14529110Y-16892484D01*
X14710063Y-16892484D02*
X14691015Y-16882960D01*
X14691015Y-16882960D02*
X14681491Y-16863912D01*
X14681491Y-16863912D02*
X14681491Y-16692484D01*
X14862444Y-16882960D02*
X14843396Y-16892484D01*
X14843396Y-16892484D02*
X14805301Y-16892484D01*
X14805301Y-16892484D02*
X14786253Y-16882960D01*
X14786253Y-16882960D02*
X14776730Y-16863912D01*
X14776730Y-16863912D02*
X14776730Y-16787722D01*
X14776730Y-16787722D02*
X14786253Y-16768674D01*
X14786253Y-16768674D02*
X14805301Y-16759150D01*
X14805301Y-16759150D02*
X14843396Y-16759150D01*
X14843396Y-16759150D02*
X14862444Y-16768674D01*
X14862444Y-16768674D02*
X14871968Y-16787722D01*
X14871968Y-16787722D02*
X14871968Y-16806770D01*
X14871968Y-16806770D02*
X14776730Y-16825817D01*
X14948158Y-16882960D02*
X14967206Y-16892484D01*
X14967206Y-16892484D02*
X15005301Y-16892484D01*
X15005301Y-16892484D02*
X15024349Y-16882960D01*
X15024349Y-16882960D02*
X15033872Y-16863912D01*
X15033872Y-16863912D02*
X15033872Y-16854389D01*
X15033872Y-16854389D02*
X15024349Y-16835341D01*
X15024349Y-16835341D02*
X15005301Y-16825817D01*
X15005301Y-16825817D02*
X14976730Y-16825817D01*
X14976730Y-16825817D02*
X14957682Y-16816293D01*
X14957682Y-16816293D02*
X14948158Y-16797246D01*
X14948158Y-16797246D02*
X14948158Y-16787722D01*
X14948158Y-16787722D02*
X14957682Y-16768674D01*
X14957682Y-16768674D02*
X14976730Y-16759150D01*
X14976730Y-16759150D02*
X15005301Y-16759150D01*
X15005301Y-16759150D02*
X15024349Y-16768674D01*
X15100539Y-16968674D02*
X15110063Y-16959150D01*
X15110063Y-16959150D02*
X15129111Y-16930579D01*
X15129111Y-16930579D02*
X15138634Y-16911531D01*
X15138634Y-16911531D02*
X15148158Y-16882960D01*
X15148158Y-16882960D02*
X15157682Y-16835341D01*
X15157682Y-16835341D02*
X15157682Y-16797246D01*
X15157682Y-16797246D02*
X15148158Y-16749627D01*
X15148158Y-16749627D02*
X15138634Y-16721055D01*
X15138634Y-16721055D02*
X15129111Y-16702008D01*
X15129111Y-16702008D02*
X15110063Y-16673436D01*
X15110063Y-16673436D02*
X15100539Y-16663912D01*
M02*
