%TF.GenerationSoftware,KiCad,Pcbnew,7.0.10-7.0.10~ubuntu20.04.1*%
%TF.CreationDate,2024-05-27T18:29:16-03:00*%
%TF.ProjectId,Fonte_corrente_mono_V02,466f6e74-655f-4636-9f72-72656e74655f,v02*%
%TF.SameCoordinates,Original*%
%TF.FileFunction,Drillmap*%
%TF.FilePolarity,Positive*%
%FSLAX45Y45*%
G04 Gerber Fmt 4.5, Leading zero omitted, Abs format (unit mm)*
G04 Created by KiCad (PCBNEW 7.0.10-7.0.10~ubuntu20.04.1) date 2024-05-27 18:29:16*
%MOMM*%
%LPD*%
G01*
G04 APERTURE LIST*
%ADD10C,0.500000*%
%ADD11C,0.200000*%
%ADD12C,0.100000*%
%ADD13C,0.102000*%
G04 APERTURE END LIST*
D10*
X10185400Y-3835400D02*
X10185400Y-13835380D01*
X19185382Y-13835380D02*
X10185400Y-13835380D01*
X19185400Y-3835400D02*
X10185400Y-3835400D01*
X19185400Y-13835400D02*
X19185400Y-3835400D01*
D11*
D12*
X13059580Y-10236360D02*
X13139580Y-10316360D01*
X13139580Y-10236360D02*
X13059580Y-10316360D01*
X11406500Y-13398500D02*
G75*
G03*
X11326500Y-13398500I-40000J0D01*
G01*
X11326500Y-13398500D02*
G75*
G03*
X11406500Y-13398500I40000J0D01*
G01*
X11475400Y-8935400D02*
G75*
G03*
X11395400Y-8935400I-40000J0D01*
G01*
X11395400Y-8935400D02*
G75*
G03*
X11475400Y-8935400I40000J0D01*
G01*
X11475400Y-9697400D02*
G75*
G03*
X11395400Y-9697400I-40000J0D01*
G01*
X11395400Y-9697400D02*
G75*
G03*
X11475400Y-9697400I40000J0D01*
G01*
X11660500Y-13398500D02*
G75*
G03*
X11580500Y-13398500I-40000J0D01*
G01*
X11580500Y-13398500D02*
G75*
G03*
X11660500Y-13398500I40000J0D01*
G01*
X11914400Y-10655400D02*
G75*
G03*
X11834400Y-10655400I-40000J0D01*
G01*
X11834400Y-10655400D02*
G75*
G03*
X11914400Y-10655400I40000J0D01*
G01*
X11914500Y-11391900D02*
G75*
G03*
X11834500Y-11391900I-40000J0D01*
G01*
X11834500Y-11391900D02*
G75*
G03*
X11914500Y-11391900I40000J0D01*
G01*
X11914500Y-11645900D02*
G75*
G03*
X11834500Y-11645900I-40000J0D01*
G01*
X11834500Y-11645900D02*
G75*
G03*
X11914500Y-11645900I40000J0D01*
G01*
X11914500Y-11899900D02*
G75*
G03*
X11834500Y-11899900I-40000J0D01*
G01*
X11834500Y-11899900D02*
G75*
G03*
X11914500Y-11899900I40000J0D01*
G01*
X11914500Y-12153900D02*
G75*
G03*
X11834500Y-12153900I-40000J0D01*
G01*
X11834500Y-12153900D02*
G75*
G03*
X11914500Y-12153900I40000J0D01*
G01*
X11914500Y-13398500D02*
G75*
G03*
X11834500Y-13398500I-40000J0D01*
G01*
X11834500Y-13398500D02*
G75*
G03*
X11914500Y-13398500I40000J0D01*
G01*
X11915400Y-8885400D02*
G75*
G03*
X11835400Y-8885400I-40000J0D01*
G01*
X11835400Y-8885400D02*
G75*
G03*
X11915400Y-8885400I40000J0D01*
G01*
X11915400Y-9139400D02*
G75*
G03*
X11835400Y-9139400I-40000J0D01*
G01*
X11835400Y-9139400D02*
G75*
G03*
X11915400Y-9139400I40000J0D01*
G01*
X11915400Y-9393400D02*
G75*
G03*
X11835400Y-9393400I-40000J0D01*
G01*
X11835400Y-9393400D02*
G75*
G03*
X11915400Y-9393400I40000J0D01*
G01*
X11915400Y-9647400D02*
G75*
G03*
X11835400Y-9647400I-40000J0D01*
G01*
X11835400Y-9647400D02*
G75*
G03*
X11915400Y-9647400I40000J0D01*
G01*
X11990700Y-5524500D02*
G75*
G03*
X11910700Y-5524500I-40000J0D01*
G01*
X11910700Y-5524500D02*
G75*
G03*
X11990700Y-5524500I40000J0D01*
G01*
X12224400Y-8255400D02*
G75*
G03*
X12144400Y-8255400I-40000J0D01*
G01*
X12144400Y-8255400D02*
G75*
G03*
X12224400Y-8255400I40000J0D01*
G01*
X12308200Y-6070600D02*
G75*
G03*
X12228200Y-6070600I-40000J0D01*
G01*
X12228200Y-6070600D02*
G75*
G03*
X12308200Y-6070600I40000J0D01*
G01*
X12676400Y-10655400D02*
G75*
G03*
X12596400Y-10655400I-40000J0D01*
G01*
X12596400Y-10655400D02*
G75*
G03*
X12676400Y-10655400I40000J0D01*
G01*
X12676500Y-11391900D02*
G75*
G03*
X12596500Y-11391900I-40000J0D01*
G01*
X12596500Y-11391900D02*
G75*
G03*
X12676500Y-11391900I40000J0D01*
G01*
X12676500Y-11645900D02*
G75*
G03*
X12596500Y-11645900I-40000J0D01*
G01*
X12596500Y-11645900D02*
G75*
G03*
X12676500Y-11645900I40000J0D01*
G01*
X12676500Y-11899900D02*
G75*
G03*
X12596500Y-11899900I-40000J0D01*
G01*
X12596500Y-11899900D02*
G75*
G03*
X12676500Y-11899900I40000J0D01*
G01*
X12676500Y-12153900D02*
G75*
G03*
X12596500Y-12153900I-40000J0D01*
G01*
X12596500Y-12153900D02*
G75*
G03*
X12676500Y-12153900I40000J0D01*
G01*
X12677400Y-8885400D02*
G75*
G03*
X12597400Y-8885400I-40000J0D01*
G01*
X12597400Y-8885400D02*
G75*
G03*
X12677400Y-8885400I40000J0D01*
G01*
X12677400Y-9139400D02*
G75*
G03*
X12597400Y-9139400I-40000J0D01*
G01*
X12597400Y-9139400D02*
G75*
G03*
X12677400Y-9139400I40000J0D01*
G01*
X12677400Y-9393400D02*
G75*
G03*
X12597400Y-9393400I-40000J0D01*
G01*
X12597400Y-9393400D02*
G75*
G03*
X12677400Y-9393400I40000J0D01*
G01*
X12677400Y-9647400D02*
G75*
G03*
X12597400Y-9647400I-40000J0D01*
G01*
X12597400Y-9647400D02*
G75*
G03*
X12677400Y-9647400I40000J0D01*
G01*
X12752700Y-5524500D02*
G75*
G03*
X12672700Y-5524500I-40000J0D01*
G01*
X12672700Y-5524500D02*
G75*
G03*
X12752700Y-5524500I40000J0D01*
G01*
X12917800Y-5181600D02*
G75*
G03*
X12837800Y-5181600I-40000J0D01*
G01*
X12837800Y-5181600D02*
G75*
G03*
X12917800Y-5181600I40000J0D01*
G01*
X12986400Y-8255400D02*
G75*
G03*
X12906400Y-8255400I-40000J0D01*
G01*
X12906400Y-8255400D02*
G75*
G03*
X12986400Y-8255400I40000J0D01*
G01*
X13070200Y-6070600D02*
G75*
G03*
X12990200Y-6070600I-40000J0D01*
G01*
X12990200Y-6070600D02*
G75*
G03*
X13070200Y-6070600I40000J0D01*
G01*
X13134400Y-12155400D02*
G75*
G03*
X13054400Y-12155400I-40000J0D01*
G01*
X13054400Y-12155400D02*
G75*
G03*
X13134400Y-12155400I40000J0D01*
G01*
X13205400Y-10864400D02*
G75*
G03*
X13125400Y-10864400I-40000J0D01*
G01*
X13125400Y-10864400D02*
G75*
G03*
X13205400Y-10864400I40000J0D01*
G01*
X13205400Y-11626400D02*
G75*
G03*
X13125400Y-11626400I-40000J0D01*
G01*
X13125400Y-11626400D02*
G75*
G03*
X13205400Y-11626400I40000J0D01*
G01*
X13404400Y-12825400D02*
G75*
G03*
X13324400Y-12825400I-40000J0D01*
G01*
X13324400Y-12825400D02*
G75*
G03*
X13404400Y-12825400I40000J0D01*
G01*
X13654400Y-5626100D02*
G75*
G03*
X13574400Y-5626100I-40000J0D01*
G01*
X13574400Y-5626100D02*
G75*
G03*
X13654400Y-5626100I40000J0D01*
G01*
X13679800Y-5181600D02*
G75*
G03*
X13599800Y-5181600I-40000J0D01*
G01*
X13599800Y-5181600D02*
G75*
G03*
X13679800Y-5181600I40000J0D01*
G01*
X13885400Y-10234400D02*
G75*
G03*
X13805400Y-10234400I-40000J0D01*
G01*
X13805400Y-10234400D02*
G75*
G03*
X13885400Y-10234400I40000J0D01*
G01*
X13885400Y-10996400D02*
G75*
G03*
X13805400Y-10996400I-40000J0D01*
G01*
X13805400Y-10996400D02*
G75*
G03*
X13885400Y-10996400I40000J0D01*
G01*
X13896400Y-12155400D02*
G75*
G03*
X13816400Y-12155400I-40000J0D01*
G01*
X13816400Y-12155400D02*
G75*
G03*
X13896400Y-12155400I40000J0D01*
G01*
X14166400Y-12825400D02*
G75*
G03*
X14086400Y-12825400I-40000J0D01*
G01*
X14086400Y-12825400D02*
G75*
G03*
X14166400Y-12825400I40000J0D01*
G01*
X14416400Y-5626100D02*
G75*
G03*
X14336400Y-5626100I-40000J0D01*
G01*
X14336400Y-5626100D02*
G75*
G03*
X14416400Y-5626100I40000J0D01*
G01*
X14435400Y-11314400D02*
G75*
G03*
X14355400Y-11314400I-40000J0D01*
G01*
X14355400Y-11314400D02*
G75*
G03*
X14435400Y-11314400I40000J0D01*
G01*
X14435400Y-12076400D02*
G75*
G03*
X14355400Y-12076400I-40000J0D01*
G01*
X14355400Y-12076400D02*
G75*
G03*
X14435400Y-12076400I40000J0D01*
G01*
X14822800Y-6007100D02*
G75*
G03*
X14742800Y-6007100I-40000J0D01*
G01*
X14742800Y-6007100D02*
G75*
G03*
X14822800Y-6007100I40000J0D01*
G01*
X14822800Y-6261100D02*
G75*
G03*
X14742800Y-6261100I-40000J0D01*
G01*
X14742800Y-6261100D02*
G75*
G03*
X14822800Y-6261100I40000J0D01*
G01*
X14822800Y-6515100D02*
G75*
G03*
X14742800Y-6515100I-40000J0D01*
G01*
X14742800Y-6515100D02*
G75*
G03*
X14822800Y-6515100I40000J0D01*
G01*
X14822800Y-6769100D02*
G75*
G03*
X14742800Y-6769100I-40000J0D01*
G01*
X14742800Y-6769100D02*
G75*
G03*
X14822800Y-6769100I40000J0D01*
G01*
X14990000Y-4260000D02*
G75*
G03*
X14910000Y-4260000I-40000J0D01*
G01*
X14910000Y-4260000D02*
G75*
G03*
X14990000Y-4260000I40000J0D01*
G01*
X15244000Y-4260000D02*
G75*
G03*
X15164000Y-4260000I-40000J0D01*
G01*
X15164000Y-4260000D02*
G75*
G03*
X15244000Y-4260000I40000J0D01*
G01*
X15490000Y-8438000D02*
G75*
G03*
X15410000Y-8438000I-40000J0D01*
G01*
X15410000Y-8438000D02*
G75*
G03*
X15490000Y-8438000I40000J0D01*
G01*
X15490000Y-9200000D02*
G75*
G03*
X15410000Y-9200000I-40000J0D01*
G01*
X15410000Y-9200000D02*
G75*
G03*
X15490000Y-9200000I40000J0D01*
G01*
X15498000Y-4260000D02*
G75*
G03*
X15418000Y-4260000I-40000J0D01*
G01*
X15418000Y-4260000D02*
G75*
G03*
X15498000Y-4260000I40000J0D01*
G01*
X15584800Y-6007100D02*
G75*
G03*
X15504800Y-6007100I-40000J0D01*
G01*
X15504800Y-6007100D02*
G75*
G03*
X15584800Y-6007100I40000J0D01*
G01*
X15584800Y-6261100D02*
G75*
G03*
X15504800Y-6261100I-40000J0D01*
G01*
X15504800Y-6261100D02*
G75*
G03*
X15584800Y-6261100I40000J0D01*
G01*
X15584800Y-6515100D02*
G75*
G03*
X15504800Y-6515100I-40000J0D01*
G01*
X15504800Y-6515100D02*
G75*
G03*
X15584800Y-6515100I40000J0D01*
G01*
X15584800Y-6769100D02*
G75*
G03*
X15504800Y-6769100I-40000J0D01*
G01*
X15504800Y-6769100D02*
G75*
G03*
X15584800Y-6769100I40000J0D01*
G01*
X16040000Y-6500000D02*
G75*
G03*
X15960000Y-6500000I-40000J0D01*
G01*
X15960000Y-6500000D02*
G75*
G03*
X16040000Y-6500000I40000J0D01*
G01*
X16065400Y-4944400D02*
G75*
G03*
X15985400Y-4944400I-40000J0D01*
G01*
X15985400Y-4944400D02*
G75*
G03*
X16065400Y-4944400I40000J0D01*
G01*
X16065400Y-5706400D02*
G75*
G03*
X15985400Y-5706400I-40000J0D01*
G01*
X15985400Y-5706400D02*
G75*
G03*
X16065400Y-5706400I40000J0D01*
G01*
X16140000Y-7238000D02*
G75*
G03*
X16060000Y-7238000I-40000J0D01*
G01*
X16060000Y-7238000D02*
G75*
G03*
X16140000Y-7238000I40000J0D01*
G01*
X16140000Y-8000000D02*
G75*
G03*
X16060000Y-8000000I-40000J0D01*
G01*
X16060000Y-8000000D02*
G75*
G03*
X16140000Y-8000000I40000J0D01*
G01*
X16140000Y-8438000D02*
G75*
G03*
X16060000Y-8438000I-40000J0D01*
G01*
X16060000Y-8438000D02*
G75*
G03*
X16140000Y-8438000I40000J0D01*
G01*
X16140000Y-9200000D02*
G75*
G03*
X16060000Y-9200000I-40000J0D01*
G01*
X16060000Y-9200000D02*
G75*
G03*
X16140000Y-9200000I40000J0D01*
G01*
X16290000Y-6500000D02*
G75*
G03*
X16210000Y-6500000I-40000J0D01*
G01*
X16210000Y-6500000D02*
G75*
G03*
X16290000Y-6500000I40000J0D01*
G01*
X16494890Y-4445400D02*
G75*
G03*
X16414890Y-4445400I-40000J0D01*
G01*
X16414890Y-4445400D02*
G75*
G03*
X16494890Y-4445400I40000J0D01*
G01*
X16534400Y-5600000D02*
G75*
G03*
X16454400Y-5600000I-40000J0D01*
G01*
X16454400Y-5600000D02*
G75*
G03*
X16534400Y-5600000I40000J0D01*
G01*
X16740000Y-7238000D02*
G75*
G03*
X16660000Y-7238000I-40000J0D01*
G01*
X16660000Y-7238000D02*
G75*
G03*
X16740000Y-7238000I40000J0D01*
G01*
X16740000Y-8000000D02*
G75*
G03*
X16660000Y-8000000I-40000J0D01*
G01*
X16660000Y-8000000D02*
G75*
G03*
X16740000Y-8000000I40000J0D01*
G01*
X16740000Y-8438000D02*
G75*
G03*
X16660000Y-8438000I-40000J0D01*
G01*
X16660000Y-8438000D02*
G75*
G03*
X16740000Y-8438000I40000J0D01*
G01*
X16740000Y-9200000D02*
G75*
G03*
X16660000Y-9200000I-40000J0D01*
G01*
X16660000Y-9200000D02*
G75*
G03*
X16740000Y-9200000I40000J0D01*
G01*
X16744890Y-4445400D02*
G75*
G03*
X16664890Y-4445400I-40000J0D01*
G01*
X16664890Y-4445400D02*
G75*
G03*
X16744890Y-4445400I40000J0D01*
G01*
X16787400Y-6700000D02*
G75*
G03*
X16707400Y-6700000I-40000J0D01*
G01*
X16707400Y-6700000D02*
G75*
G03*
X16787400Y-6700000I40000J0D01*
G01*
X16797400Y-6200000D02*
G75*
G03*
X16717400Y-6200000I-40000J0D01*
G01*
X16717400Y-6200000D02*
G75*
G03*
X16797400Y-6200000I40000J0D01*
G01*
X16874400Y-5135400D02*
G75*
G03*
X16794400Y-5135400I-40000J0D01*
G01*
X16794400Y-5135400D02*
G75*
G03*
X16874400Y-5135400I40000J0D01*
G01*
X17296400Y-5600000D02*
G75*
G03*
X17216400Y-5600000I-40000J0D01*
G01*
X17216400Y-5600000D02*
G75*
G03*
X17296400Y-5600000I40000J0D01*
G01*
X17340000Y-7238000D02*
G75*
G03*
X17260000Y-7238000I-40000J0D01*
G01*
X17260000Y-7238000D02*
G75*
G03*
X17340000Y-7238000I40000J0D01*
G01*
X17340000Y-8000000D02*
G75*
G03*
X17260000Y-8000000I-40000J0D01*
G01*
X17260000Y-8000000D02*
G75*
G03*
X17340000Y-8000000I40000J0D01*
G01*
X17340000Y-8438000D02*
G75*
G03*
X17260000Y-8438000I-40000J0D01*
G01*
X17260000Y-8438000D02*
G75*
G03*
X17340000Y-8438000I40000J0D01*
G01*
X17340000Y-9200000D02*
G75*
G03*
X17260000Y-9200000I-40000J0D01*
G01*
X17260000Y-9200000D02*
G75*
G03*
X17340000Y-9200000I40000J0D01*
G01*
X17636400Y-5135400D02*
G75*
G03*
X17556400Y-5135400I-40000J0D01*
G01*
X17556400Y-5135400D02*
G75*
G03*
X17636400Y-5135400I40000J0D01*
G01*
X17803400Y-6700000D02*
G75*
G03*
X17723400Y-6700000I-40000J0D01*
G01*
X17723400Y-6700000D02*
G75*
G03*
X17803400Y-6700000I40000J0D01*
G01*
X17813400Y-6200000D02*
G75*
G03*
X17733400Y-6200000I-40000J0D01*
G01*
X17733400Y-6200000D02*
G75*
G03*
X17813400Y-6200000I40000J0D01*
G01*
X17940000Y-7238000D02*
G75*
G03*
X17860000Y-7238000I-40000J0D01*
G01*
X17860000Y-7238000D02*
G75*
G03*
X17940000Y-7238000I40000J0D01*
G01*
X17940000Y-8000000D02*
G75*
G03*
X17860000Y-8000000I-40000J0D01*
G01*
X17860000Y-8000000D02*
G75*
G03*
X17940000Y-8000000I40000J0D01*
G01*
X11400000Y-4355000D02*
X11400000Y-4445000D01*
X11355000Y-4400000D02*
X11445000Y-4400000D01*
X11654000Y-4355000D02*
X11654000Y-4445000D01*
X11609000Y-4400000D02*
X11699000Y-4400000D01*
X12100000Y-4355000D02*
X12100000Y-4445000D01*
X12055000Y-4400000D02*
X12145000Y-4400000D01*
X12354000Y-4355000D02*
X12354000Y-4445000D01*
X12309000Y-4400000D02*
X12399000Y-4400000D01*
X12800000Y-4355000D02*
X12800000Y-4445000D01*
X12755000Y-4400000D02*
X12845000Y-4400000D01*
X13054000Y-4355000D02*
X13054000Y-4445000D01*
X13009000Y-4400000D02*
X13099000Y-4400000D01*
X13500000Y-4355000D02*
X13500000Y-4445000D01*
X13455000Y-4400000D02*
X13545000Y-4400000D01*
X13754000Y-4355000D02*
X13754000Y-4445000D01*
X13709000Y-4400000D02*
X13799000Y-4400000D01*
D13*
X10729463Y-4506463D02*
X10729463Y-4434337D01*
X10657337Y-4434337D01*
X10657337Y-4506463D01*
X10729463Y-4506463D01*
X10729463Y-4760463D02*
X10729463Y-4688337D01*
X10657337Y-4688337D01*
X10657337Y-4760463D01*
X10729463Y-4760463D01*
X10729463Y-5014463D02*
X10729463Y-4942337D01*
X10657337Y-4942337D01*
X10657337Y-5014463D01*
X10729463Y-5014463D01*
X10729463Y-5268463D02*
X10729463Y-5196337D01*
X10657337Y-5196337D01*
X10657337Y-5268463D01*
X10729463Y-5268463D01*
X10729463Y-5522463D02*
X10729463Y-5450337D01*
X10657337Y-5450337D01*
X10657337Y-5522463D01*
X10729463Y-5522463D01*
X10729463Y-5776463D02*
X10729463Y-5704337D01*
X10657337Y-5704337D01*
X10657337Y-5776463D01*
X10729463Y-5776463D01*
X10729463Y-6030463D02*
X10729463Y-5958337D01*
X10657337Y-5958337D01*
X10657337Y-6030463D01*
X10729463Y-6030463D01*
X10729463Y-6284463D02*
X10729463Y-6212337D01*
X10657337Y-6212337D01*
X10657337Y-6284463D01*
X10729463Y-6284463D01*
X10729463Y-6919463D02*
X10729463Y-6847337D01*
X10657337Y-6847337D01*
X10657337Y-6919463D01*
X10729463Y-6919463D01*
X10729463Y-7173463D02*
X10729463Y-7101337D01*
X10657337Y-7101337D01*
X10657337Y-7173463D01*
X10729463Y-7173463D01*
X10729463Y-7427463D02*
X10729463Y-7355337D01*
X10657337Y-7355337D01*
X10657337Y-7427463D01*
X10729463Y-7427463D01*
X10729463Y-7681463D02*
X10729463Y-7609337D01*
X10657337Y-7609337D01*
X10657337Y-7681463D01*
X10729463Y-7681463D01*
X10729463Y-7935463D02*
X10729463Y-7863337D01*
X10657337Y-7863337D01*
X10657337Y-7935463D01*
X10729463Y-7935463D01*
X10729463Y-8189463D02*
X10729463Y-8117337D01*
X10657337Y-8117337D01*
X10657337Y-8189463D01*
X10729463Y-8189463D01*
X10729463Y-8443463D02*
X10729463Y-8371337D01*
X10657337Y-8371337D01*
X10657337Y-8443463D01*
X10729463Y-8443463D01*
X10729463Y-8697463D02*
X10729463Y-8625337D01*
X10657337Y-8625337D01*
X10657337Y-8697463D01*
X10729463Y-8697463D01*
X10729463Y-8951463D02*
X10729463Y-8879337D01*
X10657337Y-8879337D01*
X10657337Y-8951463D01*
X10729463Y-8951463D01*
X10729463Y-9205463D02*
X10729463Y-9133337D01*
X10657337Y-9133337D01*
X10657337Y-9205463D01*
X10729463Y-9205463D01*
X10729463Y-9459463D02*
X10729463Y-9387337D01*
X10657337Y-9387337D01*
X10657337Y-9459463D01*
X10729463Y-9459463D01*
X10729463Y-9713463D02*
X10729463Y-9641337D01*
X10657337Y-9641337D01*
X10657337Y-9713463D01*
X10729463Y-9713463D01*
X10729463Y-9967463D02*
X10729463Y-9895337D01*
X10657337Y-9895337D01*
X10657337Y-9967463D01*
X10729463Y-9967463D01*
X10729463Y-10221463D02*
X10729463Y-10149337D01*
X10657337Y-10149337D01*
X10657337Y-10221463D01*
X10729463Y-10221463D01*
X10729463Y-10475463D02*
X10729463Y-10403337D01*
X10657337Y-10403337D01*
X10657337Y-10475463D01*
X10729463Y-10475463D01*
X10729463Y-10729463D02*
X10729463Y-10657337D01*
X10657337Y-10657337D01*
X10657337Y-10729463D01*
X10729463Y-10729463D01*
X10729463Y-10983463D02*
X10729463Y-10911337D01*
X10657337Y-10911337D01*
X10657337Y-10983463D01*
X10729463Y-10983463D01*
X10729463Y-11237463D02*
X10729463Y-11165337D01*
X10657337Y-11165337D01*
X10657337Y-11237463D01*
X10729463Y-11237463D01*
X10729463Y-11491463D02*
X10729463Y-11419337D01*
X10657337Y-11419337D01*
X10657337Y-11491463D01*
X10729463Y-11491463D01*
X10729463Y-11745463D02*
X10729463Y-11673337D01*
X10657337Y-11673337D01*
X10657337Y-11745463D01*
X10729463Y-11745463D01*
X10729463Y-11999463D02*
X10729463Y-11927337D01*
X10657337Y-11927337D01*
X10657337Y-11999463D01*
X10729463Y-11999463D01*
X10729463Y-12253463D02*
X10729463Y-12181337D01*
X10657337Y-12181337D01*
X10657337Y-12253463D01*
X10729463Y-12253463D01*
X10729463Y-12507463D02*
X10729463Y-12435337D01*
X10657337Y-12435337D01*
X10657337Y-12507463D01*
X10729463Y-12507463D01*
X10729463Y-12761463D02*
X10729463Y-12689337D01*
X10657337Y-12689337D01*
X10657337Y-12761463D01*
X10729463Y-12761463D01*
X10729463Y-13015463D02*
X10729463Y-12943337D01*
X10657337Y-12943337D01*
X10657337Y-13015463D01*
X10729463Y-13015463D01*
X10729463Y-13269463D02*
X10729463Y-13197337D01*
X10657337Y-13197337D01*
X10657337Y-13269463D01*
X10729463Y-13269463D01*
X10729463Y-13523463D02*
X10729463Y-13451337D01*
X10657337Y-13451337D01*
X10657337Y-13523463D01*
X10729463Y-13523463D01*
X18603463Y-4506463D02*
X18603463Y-4434337D01*
X18531337Y-4434337D01*
X18531337Y-4506463D01*
X18603463Y-4506463D01*
X18603463Y-4760463D02*
X18603463Y-4688337D01*
X18531337Y-4688337D01*
X18531337Y-4760463D01*
X18603463Y-4760463D01*
X18603463Y-5014463D02*
X18603463Y-4942337D01*
X18531337Y-4942337D01*
X18531337Y-5014463D01*
X18603463Y-5014463D01*
X18603463Y-5268463D02*
X18603463Y-5196337D01*
X18531337Y-5196337D01*
X18531337Y-5268463D01*
X18603463Y-5268463D01*
X18603463Y-5522463D02*
X18603463Y-5450337D01*
X18531337Y-5450337D01*
X18531337Y-5522463D01*
X18603463Y-5522463D01*
X18603463Y-5776463D02*
X18603463Y-5704337D01*
X18531337Y-5704337D01*
X18531337Y-5776463D01*
X18603463Y-5776463D01*
X18603463Y-6030463D02*
X18603463Y-5958337D01*
X18531337Y-5958337D01*
X18531337Y-6030463D01*
X18603463Y-6030463D01*
X18603463Y-6284463D02*
X18603463Y-6212337D01*
X18531337Y-6212337D01*
X18531337Y-6284463D01*
X18603463Y-6284463D01*
X18603463Y-6538463D02*
X18603463Y-6466337D01*
X18531337Y-6466337D01*
X18531337Y-6538463D01*
X18603463Y-6538463D01*
X18603463Y-6792463D02*
X18603463Y-6720337D01*
X18531337Y-6720337D01*
X18531337Y-6792463D01*
X18603463Y-6792463D01*
X18603463Y-7046463D02*
X18603463Y-6974337D01*
X18531337Y-6974337D01*
X18531337Y-7046463D01*
X18603463Y-7046463D01*
X18603463Y-7300463D02*
X18603463Y-7228337D01*
X18531337Y-7228337D01*
X18531337Y-7300463D01*
X18603463Y-7300463D01*
X18603463Y-7554463D02*
X18603463Y-7482337D01*
X18531337Y-7482337D01*
X18531337Y-7554463D01*
X18603463Y-7554463D01*
X18603463Y-7808463D02*
X18603463Y-7736337D01*
X18531337Y-7736337D01*
X18531337Y-7808463D01*
X18603463Y-7808463D01*
X18603463Y-8062463D02*
X18603463Y-7990337D01*
X18531337Y-7990337D01*
X18531337Y-8062463D01*
X18603463Y-8062463D01*
X18603463Y-8316463D02*
X18603463Y-8244337D01*
X18531337Y-8244337D01*
X18531337Y-8316463D01*
X18603463Y-8316463D01*
X18603463Y-8570463D02*
X18603463Y-8498337D01*
X18531337Y-8498337D01*
X18531337Y-8570463D01*
X18603463Y-8570463D01*
X18603463Y-8824463D02*
X18603463Y-8752337D01*
X18531337Y-8752337D01*
X18531337Y-8824463D01*
X18603463Y-8824463D01*
X18603463Y-9078463D02*
X18603463Y-9006337D01*
X18531337Y-9006337D01*
X18531337Y-9078463D01*
X18603463Y-9078463D01*
X18603463Y-9332463D02*
X18603463Y-9260337D01*
X18531337Y-9260337D01*
X18531337Y-9332463D01*
X18603463Y-9332463D01*
X18603463Y-9586463D02*
X18603463Y-9514337D01*
X18531337Y-9514337D01*
X18531337Y-9586463D01*
X18603463Y-9586463D01*
X18603463Y-9840463D02*
X18603463Y-9768337D01*
X18531337Y-9768337D01*
X18531337Y-9840463D01*
X18603463Y-9840463D01*
X18603463Y-10094463D02*
X18603463Y-10022337D01*
X18531337Y-10022337D01*
X18531337Y-10094463D01*
X18603463Y-10094463D01*
X18603463Y-10348463D02*
X18603463Y-10276337D01*
X18531337Y-10276337D01*
X18531337Y-10348463D01*
X18603463Y-10348463D01*
X18603463Y-10602463D02*
X18603463Y-10530337D01*
X18531337Y-10530337D01*
X18531337Y-10602463D01*
X18603463Y-10602463D01*
X18603463Y-10856463D02*
X18603463Y-10784337D01*
X18531337Y-10784337D01*
X18531337Y-10856463D01*
X18603463Y-10856463D01*
X18603463Y-11110463D02*
X18603463Y-11038337D01*
X18531337Y-11038337D01*
X18531337Y-11110463D01*
X18603463Y-11110463D01*
X18603463Y-11364463D02*
X18603463Y-11292337D01*
X18531337Y-11292337D01*
X18531337Y-11364463D01*
X18603463Y-11364463D01*
X18603463Y-11618463D02*
X18603463Y-11546337D01*
X18531337Y-11546337D01*
X18531337Y-11618463D01*
X18603463Y-11618463D01*
X18603463Y-11872463D02*
X18603463Y-11800337D01*
X18531337Y-11800337D01*
X18531337Y-11872463D01*
X18603463Y-11872463D01*
X18603463Y-12126463D02*
X18603463Y-12054337D01*
X18531337Y-12054337D01*
X18531337Y-12126463D01*
X18603463Y-12126463D01*
X18603463Y-12380463D02*
X18603463Y-12308337D01*
X18531337Y-12308337D01*
X18531337Y-12380463D01*
X18603463Y-12380463D01*
X18603463Y-12634463D02*
X18603463Y-12562337D01*
X18531337Y-12562337D01*
X18531337Y-12634463D01*
X18603463Y-12634463D01*
X18603463Y-12888463D02*
X18603463Y-12816337D01*
X18531337Y-12816337D01*
X18531337Y-12888463D01*
X18603463Y-12888463D01*
X18603463Y-13142463D02*
X18603463Y-13070337D01*
X18531337Y-13070337D01*
X18531337Y-13142463D01*
X18603463Y-13142463D01*
D11*
X10421177Y-14171884D02*
X10421177Y-13971884D01*
X10421177Y-13971884D02*
X10468796Y-13971884D01*
X10468796Y-13971884D02*
X10497367Y-13981408D01*
X10497367Y-13981408D02*
X10516415Y-14000455D01*
X10516415Y-14000455D02*
X10525939Y-14019503D01*
X10525939Y-14019503D02*
X10535463Y-14057598D01*
X10535463Y-14057598D02*
X10535463Y-14086169D01*
X10535463Y-14086169D02*
X10525939Y-14124265D01*
X10525939Y-14124265D02*
X10516415Y-14143312D01*
X10516415Y-14143312D02*
X10497367Y-14162360D01*
X10497367Y-14162360D02*
X10468796Y-14171884D01*
X10468796Y-14171884D02*
X10421177Y-14171884D01*
X10621177Y-14171884D02*
X10621177Y-14038550D01*
X10621177Y-14076646D02*
X10630701Y-14057598D01*
X10630701Y-14057598D02*
X10640224Y-14048074D01*
X10640224Y-14048074D02*
X10659272Y-14038550D01*
X10659272Y-14038550D02*
X10678320Y-14038550D01*
X10744986Y-14171884D02*
X10744986Y-14038550D01*
X10744986Y-13971884D02*
X10735463Y-13981408D01*
X10735463Y-13981408D02*
X10744986Y-13990931D01*
X10744986Y-13990931D02*
X10754510Y-13981408D01*
X10754510Y-13981408D02*
X10744986Y-13971884D01*
X10744986Y-13971884D02*
X10744986Y-13990931D01*
X10868796Y-14171884D02*
X10849748Y-14162360D01*
X10849748Y-14162360D02*
X10840224Y-14143312D01*
X10840224Y-14143312D02*
X10840224Y-13971884D01*
X10973558Y-14171884D02*
X10954510Y-14162360D01*
X10954510Y-14162360D02*
X10944986Y-14143312D01*
X10944986Y-14143312D02*
X10944986Y-13971884D01*
X11202129Y-14171884D02*
X11202129Y-13971884D01*
X11202129Y-13971884D02*
X11268796Y-14114741D01*
X11268796Y-14114741D02*
X11335462Y-13971884D01*
X11335462Y-13971884D02*
X11335462Y-14171884D01*
X11516415Y-14171884D02*
X11516415Y-14067122D01*
X11516415Y-14067122D02*
X11506891Y-14048074D01*
X11506891Y-14048074D02*
X11487843Y-14038550D01*
X11487843Y-14038550D02*
X11449748Y-14038550D01*
X11449748Y-14038550D02*
X11430701Y-14048074D01*
X11516415Y-14162360D02*
X11497367Y-14171884D01*
X11497367Y-14171884D02*
X11449748Y-14171884D01*
X11449748Y-14171884D02*
X11430701Y-14162360D01*
X11430701Y-14162360D02*
X11421177Y-14143312D01*
X11421177Y-14143312D02*
X11421177Y-14124265D01*
X11421177Y-14124265D02*
X11430701Y-14105217D01*
X11430701Y-14105217D02*
X11449748Y-14095693D01*
X11449748Y-14095693D02*
X11497367Y-14095693D01*
X11497367Y-14095693D02*
X11516415Y-14086169D01*
X11611653Y-14038550D02*
X11611653Y-14238550D01*
X11611653Y-14048074D02*
X11630701Y-14038550D01*
X11630701Y-14038550D02*
X11668796Y-14038550D01*
X11668796Y-14038550D02*
X11687843Y-14048074D01*
X11687843Y-14048074D02*
X11697367Y-14057598D01*
X11697367Y-14057598D02*
X11706891Y-14076646D01*
X11706891Y-14076646D02*
X11706891Y-14133788D01*
X11706891Y-14133788D02*
X11697367Y-14152836D01*
X11697367Y-14152836D02*
X11687843Y-14162360D01*
X11687843Y-14162360D02*
X11668796Y-14171884D01*
X11668796Y-14171884D02*
X11630701Y-14171884D01*
X11630701Y-14171884D02*
X11611653Y-14162360D01*
X11792605Y-14152836D02*
X11802129Y-14162360D01*
X11802129Y-14162360D02*
X11792605Y-14171884D01*
X11792605Y-14171884D02*
X11783082Y-14162360D01*
X11783082Y-14162360D02*
X11792605Y-14152836D01*
X11792605Y-14152836D02*
X11792605Y-14171884D01*
X11792605Y-14048074D02*
X11802129Y-14057598D01*
X11802129Y-14057598D02*
X11792605Y-14067122D01*
X11792605Y-14067122D02*
X11783082Y-14057598D01*
X11783082Y-14057598D02*
X11792605Y-14048074D01*
X11792605Y-14048074D02*
X11792605Y-14067122D01*
D12*
X10080400Y-14460400D02*
X10160400Y-14540400D01*
X10160400Y-14460400D02*
X10080400Y-14540400D01*
D11*
X10459272Y-14391884D02*
X10478320Y-14391884D01*
X10478320Y-14391884D02*
X10497367Y-14401408D01*
X10497367Y-14401408D02*
X10506891Y-14410931D01*
X10506891Y-14410931D02*
X10516415Y-14429979D01*
X10516415Y-14429979D02*
X10525939Y-14468074D01*
X10525939Y-14468074D02*
X10525939Y-14515693D01*
X10525939Y-14515693D02*
X10516415Y-14553788D01*
X10516415Y-14553788D02*
X10506891Y-14572836D01*
X10506891Y-14572836D02*
X10497367Y-14582360D01*
X10497367Y-14582360D02*
X10478320Y-14591884D01*
X10478320Y-14591884D02*
X10459272Y-14591884D01*
X10459272Y-14591884D02*
X10440224Y-14582360D01*
X10440224Y-14582360D02*
X10430701Y-14572836D01*
X10430701Y-14572836D02*
X10421177Y-14553788D01*
X10421177Y-14553788D02*
X10411653Y-14515693D01*
X10411653Y-14515693D02*
X10411653Y-14468074D01*
X10411653Y-14468074D02*
X10421177Y-14429979D01*
X10421177Y-14429979D02*
X10430701Y-14410931D01*
X10430701Y-14410931D02*
X10440224Y-14401408D01*
X10440224Y-14401408D02*
X10459272Y-14391884D01*
X10611653Y-14572836D02*
X10621177Y-14582360D01*
X10621177Y-14582360D02*
X10611653Y-14591884D01*
X10611653Y-14591884D02*
X10602129Y-14582360D01*
X10602129Y-14582360D02*
X10611653Y-14572836D01*
X10611653Y-14572836D02*
X10611653Y-14591884D01*
X10735463Y-14477598D02*
X10716415Y-14468074D01*
X10716415Y-14468074D02*
X10706891Y-14458550D01*
X10706891Y-14458550D02*
X10697367Y-14439503D01*
X10697367Y-14439503D02*
X10697367Y-14429979D01*
X10697367Y-14429979D02*
X10706891Y-14410931D01*
X10706891Y-14410931D02*
X10716415Y-14401408D01*
X10716415Y-14401408D02*
X10735463Y-14391884D01*
X10735463Y-14391884D02*
X10773558Y-14391884D01*
X10773558Y-14391884D02*
X10792605Y-14401408D01*
X10792605Y-14401408D02*
X10802129Y-14410931D01*
X10802129Y-14410931D02*
X10811653Y-14429979D01*
X10811653Y-14429979D02*
X10811653Y-14439503D01*
X10811653Y-14439503D02*
X10802129Y-14458550D01*
X10802129Y-14458550D02*
X10792605Y-14468074D01*
X10792605Y-14468074D02*
X10773558Y-14477598D01*
X10773558Y-14477598D02*
X10735463Y-14477598D01*
X10735463Y-14477598D02*
X10716415Y-14487122D01*
X10716415Y-14487122D02*
X10706891Y-14496646D01*
X10706891Y-14496646D02*
X10697367Y-14515693D01*
X10697367Y-14515693D02*
X10697367Y-14553788D01*
X10697367Y-14553788D02*
X10706891Y-14572836D01*
X10706891Y-14572836D02*
X10716415Y-14582360D01*
X10716415Y-14582360D02*
X10735463Y-14591884D01*
X10735463Y-14591884D02*
X10773558Y-14591884D01*
X10773558Y-14591884D02*
X10792605Y-14582360D01*
X10792605Y-14582360D02*
X10802129Y-14572836D01*
X10802129Y-14572836D02*
X10811653Y-14553788D01*
X10811653Y-14553788D02*
X10811653Y-14515693D01*
X10811653Y-14515693D02*
X10802129Y-14496646D01*
X10802129Y-14496646D02*
X10792605Y-14487122D01*
X10792605Y-14487122D02*
X10773558Y-14477598D01*
X10935463Y-14391884D02*
X10954510Y-14391884D01*
X10954510Y-14391884D02*
X10973558Y-14401408D01*
X10973558Y-14401408D02*
X10983082Y-14410931D01*
X10983082Y-14410931D02*
X10992605Y-14429979D01*
X10992605Y-14429979D02*
X11002129Y-14468074D01*
X11002129Y-14468074D02*
X11002129Y-14515693D01*
X11002129Y-14515693D02*
X10992605Y-14553788D01*
X10992605Y-14553788D02*
X10983082Y-14572836D01*
X10983082Y-14572836D02*
X10973558Y-14582360D01*
X10973558Y-14582360D02*
X10954510Y-14591884D01*
X10954510Y-14591884D02*
X10935463Y-14591884D01*
X10935463Y-14591884D02*
X10916415Y-14582360D01*
X10916415Y-14582360D02*
X10906891Y-14572836D01*
X10906891Y-14572836D02*
X10897367Y-14553788D01*
X10897367Y-14553788D02*
X10887844Y-14515693D01*
X10887844Y-14515693D02*
X10887844Y-14468074D01*
X10887844Y-14468074D02*
X10897367Y-14429979D01*
X10897367Y-14429979D02*
X10906891Y-14410931D01*
X10906891Y-14410931D02*
X10916415Y-14401408D01*
X10916415Y-14401408D02*
X10935463Y-14391884D01*
X11125939Y-14391884D02*
X11144986Y-14391884D01*
X11144986Y-14391884D02*
X11164034Y-14401408D01*
X11164034Y-14401408D02*
X11173558Y-14410931D01*
X11173558Y-14410931D02*
X11183082Y-14429979D01*
X11183082Y-14429979D02*
X11192605Y-14468074D01*
X11192605Y-14468074D02*
X11192605Y-14515693D01*
X11192605Y-14515693D02*
X11183082Y-14553788D01*
X11183082Y-14553788D02*
X11173558Y-14572836D01*
X11173558Y-14572836D02*
X11164034Y-14582360D01*
X11164034Y-14582360D02*
X11144986Y-14591884D01*
X11144986Y-14591884D02*
X11125939Y-14591884D01*
X11125939Y-14591884D02*
X11106891Y-14582360D01*
X11106891Y-14582360D02*
X11097367Y-14572836D01*
X11097367Y-14572836D02*
X11087844Y-14553788D01*
X11087844Y-14553788D02*
X11078320Y-14515693D01*
X11078320Y-14515693D02*
X11078320Y-14468074D01*
X11078320Y-14468074D02*
X11087844Y-14429979D01*
X11087844Y-14429979D02*
X11097367Y-14410931D01*
X11097367Y-14410931D02*
X11106891Y-14401408D01*
X11106891Y-14401408D02*
X11125939Y-14391884D01*
X11278320Y-14591884D02*
X11278320Y-14458550D01*
X11278320Y-14477598D02*
X11287843Y-14468074D01*
X11287843Y-14468074D02*
X11306891Y-14458550D01*
X11306891Y-14458550D02*
X11335463Y-14458550D01*
X11335463Y-14458550D02*
X11354510Y-14468074D01*
X11354510Y-14468074D02*
X11364034Y-14487122D01*
X11364034Y-14487122D02*
X11364034Y-14591884D01*
X11364034Y-14487122D02*
X11373558Y-14468074D01*
X11373558Y-14468074D02*
X11392605Y-14458550D01*
X11392605Y-14458550D02*
X11421177Y-14458550D01*
X11421177Y-14458550D02*
X11440224Y-14468074D01*
X11440224Y-14468074D02*
X11449748Y-14487122D01*
X11449748Y-14487122D02*
X11449748Y-14591884D01*
X11544986Y-14591884D02*
X11544986Y-14458550D01*
X11544986Y-14477598D02*
X11554510Y-14468074D01*
X11554510Y-14468074D02*
X11573558Y-14458550D01*
X11573558Y-14458550D02*
X11602129Y-14458550D01*
X11602129Y-14458550D02*
X11621177Y-14468074D01*
X11621177Y-14468074D02*
X11630701Y-14487122D01*
X11630701Y-14487122D02*
X11630701Y-14591884D01*
X11630701Y-14487122D02*
X11640224Y-14468074D01*
X11640224Y-14468074D02*
X11659272Y-14458550D01*
X11659272Y-14458550D02*
X11687843Y-14458550D01*
X11687843Y-14458550D02*
X11706891Y-14468074D01*
X11706891Y-14468074D02*
X11716415Y-14487122D01*
X11716415Y-14487122D02*
X11716415Y-14591884D01*
X12106891Y-14382360D02*
X11935463Y-14639503D01*
X12364034Y-14391884D02*
X12383082Y-14391884D01*
X12383082Y-14391884D02*
X12402129Y-14401408D01*
X12402129Y-14401408D02*
X12411653Y-14410931D01*
X12411653Y-14410931D02*
X12421177Y-14429979D01*
X12421177Y-14429979D02*
X12430701Y-14468074D01*
X12430701Y-14468074D02*
X12430701Y-14515693D01*
X12430701Y-14515693D02*
X12421177Y-14553788D01*
X12421177Y-14553788D02*
X12411653Y-14572836D01*
X12411653Y-14572836D02*
X12402129Y-14582360D01*
X12402129Y-14582360D02*
X12383082Y-14591884D01*
X12383082Y-14591884D02*
X12364034Y-14591884D01*
X12364034Y-14591884D02*
X12344986Y-14582360D01*
X12344986Y-14582360D02*
X12335463Y-14572836D01*
X12335463Y-14572836D02*
X12325939Y-14553788D01*
X12325939Y-14553788D02*
X12316415Y-14515693D01*
X12316415Y-14515693D02*
X12316415Y-14468074D01*
X12316415Y-14468074D02*
X12325939Y-14429979D01*
X12325939Y-14429979D02*
X12335463Y-14410931D01*
X12335463Y-14410931D02*
X12344986Y-14401408D01*
X12344986Y-14401408D02*
X12364034Y-14391884D01*
X12516415Y-14572836D02*
X12525939Y-14582360D01*
X12525939Y-14582360D02*
X12516415Y-14591884D01*
X12516415Y-14591884D02*
X12506891Y-14582360D01*
X12506891Y-14582360D02*
X12516415Y-14572836D01*
X12516415Y-14572836D02*
X12516415Y-14591884D01*
X12649748Y-14391884D02*
X12668796Y-14391884D01*
X12668796Y-14391884D02*
X12687844Y-14401408D01*
X12687844Y-14401408D02*
X12697367Y-14410931D01*
X12697367Y-14410931D02*
X12706891Y-14429979D01*
X12706891Y-14429979D02*
X12716415Y-14468074D01*
X12716415Y-14468074D02*
X12716415Y-14515693D01*
X12716415Y-14515693D02*
X12706891Y-14553788D01*
X12706891Y-14553788D02*
X12697367Y-14572836D01*
X12697367Y-14572836D02*
X12687844Y-14582360D01*
X12687844Y-14582360D02*
X12668796Y-14591884D01*
X12668796Y-14591884D02*
X12649748Y-14591884D01*
X12649748Y-14591884D02*
X12630701Y-14582360D01*
X12630701Y-14582360D02*
X12621177Y-14572836D01*
X12621177Y-14572836D02*
X12611653Y-14553788D01*
X12611653Y-14553788D02*
X12602129Y-14515693D01*
X12602129Y-14515693D02*
X12602129Y-14468074D01*
X12602129Y-14468074D02*
X12611653Y-14429979D01*
X12611653Y-14429979D02*
X12621177Y-14410931D01*
X12621177Y-14410931D02*
X12630701Y-14401408D01*
X12630701Y-14401408D02*
X12649748Y-14391884D01*
X12783082Y-14391884D02*
X12906891Y-14391884D01*
X12906891Y-14391884D02*
X12840225Y-14468074D01*
X12840225Y-14468074D02*
X12868796Y-14468074D01*
X12868796Y-14468074D02*
X12887844Y-14477598D01*
X12887844Y-14477598D02*
X12897367Y-14487122D01*
X12897367Y-14487122D02*
X12906891Y-14506169D01*
X12906891Y-14506169D02*
X12906891Y-14553788D01*
X12906891Y-14553788D02*
X12897367Y-14572836D01*
X12897367Y-14572836D02*
X12887844Y-14582360D01*
X12887844Y-14582360D02*
X12868796Y-14591884D01*
X12868796Y-14591884D02*
X12811653Y-14591884D01*
X12811653Y-14591884D02*
X12792606Y-14582360D01*
X12792606Y-14582360D02*
X12783082Y-14572836D01*
X13097367Y-14591884D02*
X12983082Y-14591884D01*
X13040225Y-14591884D02*
X13040225Y-14391884D01*
X13040225Y-14391884D02*
X13021177Y-14420455D01*
X13021177Y-14420455D02*
X13002129Y-14439503D01*
X13002129Y-14439503D02*
X12983082Y-14449027D01*
X13278320Y-14391884D02*
X13183082Y-14391884D01*
X13183082Y-14391884D02*
X13173558Y-14487122D01*
X13173558Y-14487122D02*
X13183082Y-14477598D01*
X13183082Y-14477598D02*
X13202129Y-14468074D01*
X13202129Y-14468074D02*
X13249748Y-14468074D01*
X13249748Y-14468074D02*
X13268796Y-14477598D01*
X13268796Y-14477598D02*
X13278320Y-14487122D01*
X13278320Y-14487122D02*
X13287844Y-14506169D01*
X13287844Y-14506169D02*
X13287844Y-14553788D01*
X13287844Y-14553788D02*
X13278320Y-14572836D01*
X13278320Y-14572836D02*
X13268796Y-14582360D01*
X13268796Y-14582360D02*
X13249748Y-14591884D01*
X13249748Y-14591884D02*
X13202129Y-14591884D01*
X13202129Y-14591884D02*
X13183082Y-14582360D01*
X13183082Y-14582360D02*
X13173558Y-14572836D01*
X13364034Y-14391884D02*
X13364034Y-14429979D01*
X13440225Y-14391884D02*
X13440225Y-14429979D01*
X13735463Y-14668074D02*
X13725939Y-14658550D01*
X13725939Y-14658550D02*
X13706891Y-14629979D01*
X13706891Y-14629979D02*
X13697368Y-14610931D01*
X13697368Y-14610931D02*
X13687844Y-14582360D01*
X13687844Y-14582360D02*
X13678320Y-14534741D01*
X13678320Y-14534741D02*
X13678320Y-14496646D01*
X13678320Y-14496646D02*
X13687844Y-14449027D01*
X13687844Y-14449027D02*
X13697368Y-14420455D01*
X13697368Y-14420455D02*
X13706891Y-14401408D01*
X13706891Y-14401408D02*
X13725939Y-14372836D01*
X13725939Y-14372836D02*
X13735463Y-14363312D01*
X13916415Y-14591884D02*
X13802129Y-14591884D01*
X13859272Y-14591884D02*
X13859272Y-14391884D01*
X13859272Y-14391884D02*
X13840225Y-14420455D01*
X13840225Y-14420455D02*
X13821177Y-14439503D01*
X13821177Y-14439503D02*
X13802129Y-14449027D01*
X14154510Y-14591884D02*
X14154510Y-14391884D01*
X14240225Y-14591884D02*
X14240225Y-14487122D01*
X14240225Y-14487122D02*
X14230701Y-14468074D01*
X14230701Y-14468074D02*
X14211653Y-14458550D01*
X14211653Y-14458550D02*
X14183082Y-14458550D01*
X14183082Y-14458550D02*
X14164034Y-14468074D01*
X14164034Y-14468074D02*
X14154510Y-14477598D01*
X14364034Y-14591884D02*
X14344987Y-14582360D01*
X14344987Y-14582360D02*
X14335463Y-14572836D01*
X14335463Y-14572836D02*
X14325939Y-14553788D01*
X14325939Y-14553788D02*
X14325939Y-14496646D01*
X14325939Y-14496646D02*
X14335463Y-14477598D01*
X14335463Y-14477598D02*
X14344987Y-14468074D01*
X14344987Y-14468074D02*
X14364034Y-14458550D01*
X14364034Y-14458550D02*
X14392606Y-14458550D01*
X14392606Y-14458550D02*
X14411653Y-14468074D01*
X14411653Y-14468074D02*
X14421177Y-14477598D01*
X14421177Y-14477598D02*
X14430701Y-14496646D01*
X14430701Y-14496646D02*
X14430701Y-14553788D01*
X14430701Y-14553788D02*
X14421177Y-14572836D01*
X14421177Y-14572836D02*
X14411653Y-14582360D01*
X14411653Y-14582360D02*
X14392606Y-14591884D01*
X14392606Y-14591884D02*
X14364034Y-14591884D01*
X14544987Y-14591884D02*
X14525939Y-14582360D01*
X14525939Y-14582360D02*
X14516415Y-14563312D01*
X14516415Y-14563312D02*
X14516415Y-14391884D01*
X14697368Y-14582360D02*
X14678320Y-14591884D01*
X14678320Y-14591884D02*
X14640225Y-14591884D01*
X14640225Y-14591884D02*
X14621177Y-14582360D01*
X14621177Y-14582360D02*
X14611653Y-14563312D01*
X14611653Y-14563312D02*
X14611653Y-14487122D01*
X14611653Y-14487122D02*
X14621177Y-14468074D01*
X14621177Y-14468074D02*
X14640225Y-14458550D01*
X14640225Y-14458550D02*
X14678320Y-14458550D01*
X14678320Y-14458550D02*
X14697368Y-14468074D01*
X14697368Y-14468074D02*
X14706891Y-14487122D01*
X14706891Y-14487122D02*
X14706891Y-14506169D01*
X14706891Y-14506169D02*
X14611653Y-14525217D01*
X14773558Y-14668074D02*
X14783082Y-14658550D01*
X14783082Y-14658550D02*
X14802130Y-14629979D01*
X14802130Y-14629979D02*
X14811653Y-14610931D01*
X14811653Y-14610931D02*
X14821177Y-14582360D01*
X14821177Y-14582360D02*
X14830701Y-14534741D01*
X14830701Y-14534741D02*
X14830701Y-14496646D01*
X14830701Y-14496646D02*
X14821177Y-14449027D01*
X14821177Y-14449027D02*
X14811653Y-14420455D01*
X14811653Y-14420455D02*
X14802130Y-14401408D01*
X14802130Y-14401408D02*
X14783082Y-14372836D01*
X14783082Y-14372836D02*
X14773558Y-14363312D01*
D12*
X10160400Y-14764400D02*
G75*
G03*
X10080400Y-14764400I-40000J0D01*
G01*
X10080400Y-14764400D02*
G75*
G03*
X10160400Y-14764400I40000J0D01*
G01*
D11*
X10459272Y-14655884D02*
X10478320Y-14655884D01*
X10478320Y-14655884D02*
X10497367Y-14665408D01*
X10497367Y-14665408D02*
X10506891Y-14674931D01*
X10506891Y-14674931D02*
X10516415Y-14693979D01*
X10516415Y-14693979D02*
X10525939Y-14732074D01*
X10525939Y-14732074D02*
X10525939Y-14779693D01*
X10525939Y-14779693D02*
X10516415Y-14817788D01*
X10516415Y-14817788D02*
X10506891Y-14836836D01*
X10506891Y-14836836D02*
X10497367Y-14846360D01*
X10497367Y-14846360D02*
X10478320Y-14855884D01*
X10478320Y-14855884D02*
X10459272Y-14855884D01*
X10459272Y-14855884D02*
X10440224Y-14846360D01*
X10440224Y-14846360D02*
X10430701Y-14836836D01*
X10430701Y-14836836D02*
X10421177Y-14817788D01*
X10421177Y-14817788D02*
X10411653Y-14779693D01*
X10411653Y-14779693D02*
X10411653Y-14732074D01*
X10411653Y-14732074D02*
X10421177Y-14693979D01*
X10421177Y-14693979D02*
X10430701Y-14674931D01*
X10430701Y-14674931D02*
X10440224Y-14665408D01*
X10440224Y-14665408D02*
X10459272Y-14655884D01*
X10611653Y-14836836D02*
X10621177Y-14846360D01*
X10621177Y-14846360D02*
X10611653Y-14855884D01*
X10611653Y-14855884D02*
X10602129Y-14846360D01*
X10602129Y-14846360D02*
X10611653Y-14836836D01*
X10611653Y-14836836D02*
X10611653Y-14855884D01*
X10735463Y-14741598D02*
X10716415Y-14732074D01*
X10716415Y-14732074D02*
X10706891Y-14722550D01*
X10706891Y-14722550D02*
X10697367Y-14703503D01*
X10697367Y-14703503D02*
X10697367Y-14693979D01*
X10697367Y-14693979D02*
X10706891Y-14674931D01*
X10706891Y-14674931D02*
X10716415Y-14665408D01*
X10716415Y-14665408D02*
X10735463Y-14655884D01*
X10735463Y-14655884D02*
X10773558Y-14655884D01*
X10773558Y-14655884D02*
X10792605Y-14665408D01*
X10792605Y-14665408D02*
X10802129Y-14674931D01*
X10802129Y-14674931D02*
X10811653Y-14693979D01*
X10811653Y-14693979D02*
X10811653Y-14703503D01*
X10811653Y-14703503D02*
X10802129Y-14722550D01*
X10802129Y-14722550D02*
X10792605Y-14732074D01*
X10792605Y-14732074D02*
X10773558Y-14741598D01*
X10773558Y-14741598D02*
X10735463Y-14741598D01*
X10735463Y-14741598D02*
X10716415Y-14751122D01*
X10716415Y-14751122D02*
X10706891Y-14760646D01*
X10706891Y-14760646D02*
X10697367Y-14779693D01*
X10697367Y-14779693D02*
X10697367Y-14817788D01*
X10697367Y-14817788D02*
X10706891Y-14836836D01*
X10706891Y-14836836D02*
X10716415Y-14846360D01*
X10716415Y-14846360D02*
X10735463Y-14855884D01*
X10735463Y-14855884D02*
X10773558Y-14855884D01*
X10773558Y-14855884D02*
X10792605Y-14846360D01*
X10792605Y-14846360D02*
X10802129Y-14836836D01*
X10802129Y-14836836D02*
X10811653Y-14817788D01*
X10811653Y-14817788D02*
X10811653Y-14779693D01*
X10811653Y-14779693D02*
X10802129Y-14760646D01*
X10802129Y-14760646D02*
X10792605Y-14751122D01*
X10792605Y-14751122D02*
X10773558Y-14741598D01*
X10935463Y-14655884D02*
X10954510Y-14655884D01*
X10954510Y-14655884D02*
X10973558Y-14665408D01*
X10973558Y-14665408D02*
X10983082Y-14674931D01*
X10983082Y-14674931D02*
X10992605Y-14693979D01*
X10992605Y-14693979D02*
X11002129Y-14732074D01*
X11002129Y-14732074D02*
X11002129Y-14779693D01*
X11002129Y-14779693D02*
X10992605Y-14817788D01*
X10992605Y-14817788D02*
X10983082Y-14836836D01*
X10983082Y-14836836D02*
X10973558Y-14846360D01*
X10973558Y-14846360D02*
X10954510Y-14855884D01*
X10954510Y-14855884D02*
X10935463Y-14855884D01*
X10935463Y-14855884D02*
X10916415Y-14846360D01*
X10916415Y-14846360D02*
X10906891Y-14836836D01*
X10906891Y-14836836D02*
X10897367Y-14817788D01*
X10897367Y-14817788D02*
X10887844Y-14779693D01*
X10887844Y-14779693D02*
X10887844Y-14732074D01*
X10887844Y-14732074D02*
X10897367Y-14693979D01*
X10897367Y-14693979D02*
X10906891Y-14674931D01*
X10906891Y-14674931D02*
X10916415Y-14665408D01*
X10916415Y-14665408D02*
X10935463Y-14655884D01*
X11125939Y-14655884D02*
X11144986Y-14655884D01*
X11144986Y-14655884D02*
X11164034Y-14665408D01*
X11164034Y-14665408D02*
X11173558Y-14674931D01*
X11173558Y-14674931D02*
X11183082Y-14693979D01*
X11183082Y-14693979D02*
X11192605Y-14732074D01*
X11192605Y-14732074D02*
X11192605Y-14779693D01*
X11192605Y-14779693D02*
X11183082Y-14817788D01*
X11183082Y-14817788D02*
X11173558Y-14836836D01*
X11173558Y-14836836D02*
X11164034Y-14846360D01*
X11164034Y-14846360D02*
X11144986Y-14855884D01*
X11144986Y-14855884D02*
X11125939Y-14855884D01*
X11125939Y-14855884D02*
X11106891Y-14846360D01*
X11106891Y-14846360D02*
X11097367Y-14836836D01*
X11097367Y-14836836D02*
X11087844Y-14817788D01*
X11087844Y-14817788D02*
X11078320Y-14779693D01*
X11078320Y-14779693D02*
X11078320Y-14732074D01*
X11078320Y-14732074D02*
X11087844Y-14693979D01*
X11087844Y-14693979D02*
X11097367Y-14674931D01*
X11097367Y-14674931D02*
X11106891Y-14665408D01*
X11106891Y-14665408D02*
X11125939Y-14655884D01*
X11278320Y-14855884D02*
X11278320Y-14722550D01*
X11278320Y-14741598D02*
X11287843Y-14732074D01*
X11287843Y-14732074D02*
X11306891Y-14722550D01*
X11306891Y-14722550D02*
X11335463Y-14722550D01*
X11335463Y-14722550D02*
X11354510Y-14732074D01*
X11354510Y-14732074D02*
X11364034Y-14751122D01*
X11364034Y-14751122D02*
X11364034Y-14855884D01*
X11364034Y-14751122D02*
X11373558Y-14732074D01*
X11373558Y-14732074D02*
X11392605Y-14722550D01*
X11392605Y-14722550D02*
X11421177Y-14722550D01*
X11421177Y-14722550D02*
X11440224Y-14732074D01*
X11440224Y-14732074D02*
X11449748Y-14751122D01*
X11449748Y-14751122D02*
X11449748Y-14855884D01*
X11544986Y-14855884D02*
X11544986Y-14722550D01*
X11544986Y-14741598D02*
X11554510Y-14732074D01*
X11554510Y-14732074D02*
X11573558Y-14722550D01*
X11573558Y-14722550D02*
X11602129Y-14722550D01*
X11602129Y-14722550D02*
X11621177Y-14732074D01*
X11621177Y-14732074D02*
X11630701Y-14751122D01*
X11630701Y-14751122D02*
X11630701Y-14855884D01*
X11630701Y-14751122D02*
X11640224Y-14732074D01*
X11640224Y-14732074D02*
X11659272Y-14722550D01*
X11659272Y-14722550D02*
X11687843Y-14722550D01*
X11687843Y-14722550D02*
X11706891Y-14732074D01*
X11706891Y-14732074D02*
X11716415Y-14751122D01*
X11716415Y-14751122D02*
X11716415Y-14855884D01*
X12106891Y-14646360D02*
X11935463Y-14903503D01*
X12364034Y-14655884D02*
X12383082Y-14655884D01*
X12383082Y-14655884D02*
X12402129Y-14665408D01*
X12402129Y-14665408D02*
X12411653Y-14674931D01*
X12411653Y-14674931D02*
X12421177Y-14693979D01*
X12421177Y-14693979D02*
X12430701Y-14732074D01*
X12430701Y-14732074D02*
X12430701Y-14779693D01*
X12430701Y-14779693D02*
X12421177Y-14817788D01*
X12421177Y-14817788D02*
X12411653Y-14836836D01*
X12411653Y-14836836D02*
X12402129Y-14846360D01*
X12402129Y-14846360D02*
X12383082Y-14855884D01*
X12383082Y-14855884D02*
X12364034Y-14855884D01*
X12364034Y-14855884D02*
X12344986Y-14846360D01*
X12344986Y-14846360D02*
X12335463Y-14836836D01*
X12335463Y-14836836D02*
X12325939Y-14817788D01*
X12325939Y-14817788D02*
X12316415Y-14779693D01*
X12316415Y-14779693D02*
X12316415Y-14732074D01*
X12316415Y-14732074D02*
X12325939Y-14693979D01*
X12325939Y-14693979D02*
X12335463Y-14674931D01*
X12335463Y-14674931D02*
X12344986Y-14665408D01*
X12344986Y-14665408D02*
X12364034Y-14655884D01*
X12516415Y-14836836D02*
X12525939Y-14846360D01*
X12525939Y-14846360D02*
X12516415Y-14855884D01*
X12516415Y-14855884D02*
X12506891Y-14846360D01*
X12506891Y-14846360D02*
X12516415Y-14836836D01*
X12516415Y-14836836D02*
X12516415Y-14855884D01*
X12649748Y-14655884D02*
X12668796Y-14655884D01*
X12668796Y-14655884D02*
X12687844Y-14665408D01*
X12687844Y-14665408D02*
X12697367Y-14674931D01*
X12697367Y-14674931D02*
X12706891Y-14693979D01*
X12706891Y-14693979D02*
X12716415Y-14732074D01*
X12716415Y-14732074D02*
X12716415Y-14779693D01*
X12716415Y-14779693D02*
X12706891Y-14817788D01*
X12706891Y-14817788D02*
X12697367Y-14836836D01*
X12697367Y-14836836D02*
X12687844Y-14846360D01*
X12687844Y-14846360D02*
X12668796Y-14855884D01*
X12668796Y-14855884D02*
X12649748Y-14855884D01*
X12649748Y-14855884D02*
X12630701Y-14846360D01*
X12630701Y-14846360D02*
X12621177Y-14836836D01*
X12621177Y-14836836D02*
X12611653Y-14817788D01*
X12611653Y-14817788D02*
X12602129Y-14779693D01*
X12602129Y-14779693D02*
X12602129Y-14732074D01*
X12602129Y-14732074D02*
X12611653Y-14693979D01*
X12611653Y-14693979D02*
X12621177Y-14674931D01*
X12621177Y-14674931D02*
X12630701Y-14665408D01*
X12630701Y-14665408D02*
X12649748Y-14655884D01*
X12783082Y-14655884D02*
X12906891Y-14655884D01*
X12906891Y-14655884D02*
X12840225Y-14732074D01*
X12840225Y-14732074D02*
X12868796Y-14732074D01*
X12868796Y-14732074D02*
X12887844Y-14741598D01*
X12887844Y-14741598D02*
X12897367Y-14751122D01*
X12897367Y-14751122D02*
X12906891Y-14770169D01*
X12906891Y-14770169D02*
X12906891Y-14817788D01*
X12906891Y-14817788D02*
X12897367Y-14836836D01*
X12897367Y-14836836D02*
X12887844Y-14846360D01*
X12887844Y-14846360D02*
X12868796Y-14855884D01*
X12868796Y-14855884D02*
X12811653Y-14855884D01*
X12811653Y-14855884D02*
X12792606Y-14846360D01*
X12792606Y-14846360D02*
X12783082Y-14836836D01*
X13097367Y-14855884D02*
X12983082Y-14855884D01*
X13040225Y-14855884D02*
X13040225Y-14655884D01*
X13040225Y-14655884D02*
X13021177Y-14684455D01*
X13021177Y-14684455D02*
X13002129Y-14703503D01*
X13002129Y-14703503D02*
X12983082Y-14713027D01*
X13278320Y-14655884D02*
X13183082Y-14655884D01*
X13183082Y-14655884D02*
X13173558Y-14751122D01*
X13173558Y-14751122D02*
X13183082Y-14741598D01*
X13183082Y-14741598D02*
X13202129Y-14732074D01*
X13202129Y-14732074D02*
X13249748Y-14732074D01*
X13249748Y-14732074D02*
X13268796Y-14741598D01*
X13268796Y-14741598D02*
X13278320Y-14751122D01*
X13278320Y-14751122D02*
X13287844Y-14770169D01*
X13287844Y-14770169D02*
X13287844Y-14817788D01*
X13287844Y-14817788D02*
X13278320Y-14836836D01*
X13278320Y-14836836D02*
X13268796Y-14846360D01*
X13268796Y-14846360D02*
X13249748Y-14855884D01*
X13249748Y-14855884D02*
X13202129Y-14855884D01*
X13202129Y-14855884D02*
X13183082Y-14846360D01*
X13183082Y-14846360D02*
X13173558Y-14836836D01*
X13364034Y-14655884D02*
X13364034Y-14693979D01*
X13440225Y-14655884D02*
X13440225Y-14693979D01*
X13735463Y-14932074D02*
X13725939Y-14922550D01*
X13725939Y-14922550D02*
X13706891Y-14893979D01*
X13706891Y-14893979D02*
X13697368Y-14874931D01*
X13697368Y-14874931D02*
X13687844Y-14846360D01*
X13687844Y-14846360D02*
X13678320Y-14798741D01*
X13678320Y-14798741D02*
X13678320Y-14760646D01*
X13678320Y-14760646D02*
X13687844Y-14713027D01*
X13687844Y-14713027D02*
X13697368Y-14684455D01*
X13697368Y-14684455D02*
X13706891Y-14665408D01*
X13706891Y-14665408D02*
X13725939Y-14636836D01*
X13725939Y-14636836D02*
X13735463Y-14627312D01*
X13840225Y-14741598D02*
X13821177Y-14732074D01*
X13821177Y-14732074D02*
X13811653Y-14722550D01*
X13811653Y-14722550D02*
X13802129Y-14703503D01*
X13802129Y-14703503D02*
X13802129Y-14693979D01*
X13802129Y-14693979D02*
X13811653Y-14674931D01*
X13811653Y-14674931D02*
X13821177Y-14665408D01*
X13821177Y-14665408D02*
X13840225Y-14655884D01*
X13840225Y-14655884D02*
X13878320Y-14655884D01*
X13878320Y-14655884D02*
X13897368Y-14665408D01*
X13897368Y-14665408D02*
X13906891Y-14674931D01*
X13906891Y-14674931D02*
X13916415Y-14693979D01*
X13916415Y-14693979D02*
X13916415Y-14703503D01*
X13916415Y-14703503D02*
X13906891Y-14722550D01*
X13906891Y-14722550D02*
X13897368Y-14732074D01*
X13897368Y-14732074D02*
X13878320Y-14741598D01*
X13878320Y-14741598D02*
X13840225Y-14741598D01*
X13840225Y-14741598D02*
X13821177Y-14751122D01*
X13821177Y-14751122D02*
X13811653Y-14760646D01*
X13811653Y-14760646D02*
X13802129Y-14779693D01*
X13802129Y-14779693D02*
X13802129Y-14817788D01*
X13802129Y-14817788D02*
X13811653Y-14836836D01*
X13811653Y-14836836D02*
X13821177Y-14846360D01*
X13821177Y-14846360D02*
X13840225Y-14855884D01*
X13840225Y-14855884D02*
X13878320Y-14855884D01*
X13878320Y-14855884D02*
X13897368Y-14846360D01*
X13897368Y-14846360D02*
X13906891Y-14836836D01*
X13906891Y-14836836D02*
X13916415Y-14817788D01*
X13916415Y-14817788D02*
X13916415Y-14779693D01*
X13916415Y-14779693D02*
X13906891Y-14760646D01*
X13906891Y-14760646D02*
X13897368Y-14751122D01*
X13897368Y-14751122D02*
X13878320Y-14741598D01*
X14087844Y-14722550D02*
X14087844Y-14855884D01*
X14040225Y-14646360D02*
X13992606Y-14789217D01*
X13992606Y-14789217D02*
X14116415Y-14789217D01*
X14344987Y-14855884D02*
X14344987Y-14655884D01*
X14430701Y-14855884D02*
X14430701Y-14751122D01*
X14430701Y-14751122D02*
X14421177Y-14732074D01*
X14421177Y-14732074D02*
X14402130Y-14722550D01*
X14402130Y-14722550D02*
X14373558Y-14722550D01*
X14373558Y-14722550D02*
X14354510Y-14732074D01*
X14354510Y-14732074D02*
X14344987Y-14741598D01*
X14554510Y-14855884D02*
X14535463Y-14846360D01*
X14535463Y-14846360D02*
X14525939Y-14836836D01*
X14525939Y-14836836D02*
X14516415Y-14817788D01*
X14516415Y-14817788D02*
X14516415Y-14760646D01*
X14516415Y-14760646D02*
X14525939Y-14741598D01*
X14525939Y-14741598D02*
X14535463Y-14732074D01*
X14535463Y-14732074D02*
X14554510Y-14722550D01*
X14554510Y-14722550D02*
X14583082Y-14722550D01*
X14583082Y-14722550D02*
X14602130Y-14732074D01*
X14602130Y-14732074D02*
X14611653Y-14741598D01*
X14611653Y-14741598D02*
X14621177Y-14760646D01*
X14621177Y-14760646D02*
X14621177Y-14817788D01*
X14621177Y-14817788D02*
X14611653Y-14836836D01*
X14611653Y-14836836D02*
X14602130Y-14846360D01*
X14602130Y-14846360D02*
X14583082Y-14855884D01*
X14583082Y-14855884D02*
X14554510Y-14855884D01*
X14735463Y-14855884D02*
X14716415Y-14846360D01*
X14716415Y-14846360D02*
X14706891Y-14827312D01*
X14706891Y-14827312D02*
X14706891Y-14655884D01*
X14887844Y-14846360D02*
X14868796Y-14855884D01*
X14868796Y-14855884D02*
X14830701Y-14855884D01*
X14830701Y-14855884D02*
X14811653Y-14846360D01*
X14811653Y-14846360D02*
X14802130Y-14827312D01*
X14802130Y-14827312D02*
X14802130Y-14751122D01*
X14802130Y-14751122D02*
X14811653Y-14732074D01*
X14811653Y-14732074D02*
X14830701Y-14722550D01*
X14830701Y-14722550D02*
X14868796Y-14722550D01*
X14868796Y-14722550D02*
X14887844Y-14732074D01*
X14887844Y-14732074D02*
X14897368Y-14751122D01*
X14897368Y-14751122D02*
X14897368Y-14770169D01*
X14897368Y-14770169D02*
X14802130Y-14789217D01*
X14973558Y-14846360D02*
X14992606Y-14855884D01*
X14992606Y-14855884D02*
X15030701Y-14855884D01*
X15030701Y-14855884D02*
X15049749Y-14846360D01*
X15049749Y-14846360D02*
X15059272Y-14827312D01*
X15059272Y-14827312D02*
X15059272Y-14817788D01*
X15059272Y-14817788D02*
X15049749Y-14798741D01*
X15049749Y-14798741D02*
X15030701Y-14789217D01*
X15030701Y-14789217D02*
X15002130Y-14789217D01*
X15002130Y-14789217D02*
X14983082Y-14779693D01*
X14983082Y-14779693D02*
X14973558Y-14760646D01*
X14973558Y-14760646D02*
X14973558Y-14751122D01*
X14973558Y-14751122D02*
X14983082Y-14732074D01*
X14983082Y-14732074D02*
X15002130Y-14722550D01*
X15002130Y-14722550D02*
X15030701Y-14722550D01*
X15030701Y-14722550D02*
X15049749Y-14732074D01*
X15125939Y-14932074D02*
X15135463Y-14922550D01*
X15135463Y-14922550D02*
X15154511Y-14893979D01*
X15154511Y-14893979D02*
X15164034Y-14874931D01*
X15164034Y-14874931D02*
X15173558Y-14846360D01*
X15173558Y-14846360D02*
X15183082Y-14798741D01*
X15183082Y-14798741D02*
X15183082Y-14760646D01*
X15183082Y-14760646D02*
X15173558Y-14713027D01*
X15173558Y-14713027D02*
X15164034Y-14684455D01*
X15164034Y-14684455D02*
X15154511Y-14665408D01*
X15154511Y-14665408D02*
X15135463Y-14636836D01*
X15135463Y-14636836D02*
X15125939Y-14627312D01*
D12*
X10115400Y-14983400D02*
X10115400Y-15073400D01*
X10070400Y-15028400D02*
X10160400Y-15028400D01*
D11*
X10459272Y-14919884D02*
X10478320Y-14919884D01*
X10478320Y-14919884D02*
X10497367Y-14929408D01*
X10497367Y-14929408D02*
X10506891Y-14938931D01*
X10506891Y-14938931D02*
X10516415Y-14957979D01*
X10516415Y-14957979D02*
X10525939Y-14996074D01*
X10525939Y-14996074D02*
X10525939Y-15043693D01*
X10525939Y-15043693D02*
X10516415Y-15081788D01*
X10516415Y-15081788D02*
X10506891Y-15100836D01*
X10506891Y-15100836D02*
X10497367Y-15110360D01*
X10497367Y-15110360D02*
X10478320Y-15119884D01*
X10478320Y-15119884D02*
X10459272Y-15119884D01*
X10459272Y-15119884D02*
X10440224Y-15110360D01*
X10440224Y-15110360D02*
X10430701Y-15100836D01*
X10430701Y-15100836D02*
X10421177Y-15081788D01*
X10421177Y-15081788D02*
X10411653Y-15043693D01*
X10411653Y-15043693D02*
X10411653Y-14996074D01*
X10411653Y-14996074D02*
X10421177Y-14957979D01*
X10421177Y-14957979D02*
X10430701Y-14938931D01*
X10430701Y-14938931D02*
X10440224Y-14929408D01*
X10440224Y-14929408D02*
X10459272Y-14919884D01*
X10611653Y-15100836D02*
X10621177Y-15110360D01*
X10621177Y-15110360D02*
X10611653Y-15119884D01*
X10611653Y-15119884D02*
X10602129Y-15110360D01*
X10602129Y-15110360D02*
X10611653Y-15100836D01*
X10611653Y-15100836D02*
X10611653Y-15119884D01*
X10716415Y-15119884D02*
X10754510Y-15119884D01*
X10754510Y-15119884D02*
X10773558Y-15110360D01*
X10773558Y-15110360D02*
X10783082Y-15100836D01*
X10783082Y-15100836D02*
X10802129Y-15072265D01*
X10802129Y-15072265D02*
X10811653Y-15034169D01*
X10811653Y-15034169D02*
X10811653Y-14957979D01*
X10811653Y-14957979D02*
X10802129Y-14938931D01*
X10802129Y-14938931D02*
X10792605Y-14929408D01*
X10792605Y-14929408D02*
X10773558Y-14919884D01*
X10773558Y-14919884D02*
X10735463Y-14919884D01*
X10735463Y-14919884D02*
X10716415Y-14929408D01*
X10716415Y-14929408D02*
X10706891Y-14938931D01*
X10706891Y-14938931D02*
X10697367Y-14957979D01*
X10697367Y-14957979D02*
X10697367Y-15005598D01*
X10697367Y-15005598D02*
X10706891Y-15024646D01*
X10706891Y-15024646D02*
X10716415Y-15034169D01*
X10716415Y-15034169D02*
X10735463Y-15043693D01*
X10735463Y-15043693D02*
X10773558Y-15043693D01*
X10773558Y-15043693D02*
X10792605Y-15034169D01*
X10792605Y-15034169D02*
X10802129Y-15024646D01*
X10802129Y-15024646D02*
X10811653Y-15005598D01*
X10935463Y-14919884D02*
X10954510Y-14919884D01*
X10954510Y-14919884D02*
X10973558Y-14929408D01*
X10973558Y-14929408D02*
X10983082Y-14938931D01*
X10983082Y-14938931D02*
X10992605Y-14957979D01*
X10992605Y-14957979D02*
X11002129Y-14996074D01*
X11002129Y-14996074D02*
X11002129Y-15043693D01*
X11002129Y-15043693D02*
X10992605Y-15081788D01*
X10992605Y-15081788D02*
X10983082Y-15100836D01*
X10983082Y-15100836D02*
X10973558Y-15110360D01*
X10973558Y-15110360D02*
X10954510Y-15119884D01*
X10954510Y-15119884D02*
X10935463Y-15119884D01*
X10935463Y-15119884D02*
X10916415Y-15110360D01*
X10916415Y-15110360D02*
X10906891Y-15100836D01*
X10906891Y-15100836D02*
X10897367Y-15081788D01*
X10897367Y-15081788D02*
X10887844Y-15043693D01*
X10887844Y-15043693D02*
X10887844Y-14996074D01*
X10887844Y-14996074D02*
X10897367Y-14957979D01*
X10897367Y-14957979D02*
X10906891Y-14938931D01*
X10906891Y-14938931D02*
X10916415Y-14929408D01*
X10916415Y-14929408D02*
X10935463Y-14919884D01*
X11125939Y-14919884D02*
X11144986Y-14919884D01*
X11144986Y-14919884D02*
X11164034Y-14929408D01*
X11164034Y-14929408D02*
X11173558Y-14938931D01*
X11173558Y-14938931D02*
X11183082Y-14957979D01*
X11183082Y-14957979D02*
X11192605Y-14996074D01*
X11192605Y-14996074D02*
X11192605Y-15043693D01*
X11192605Y-15043693D02*
X11183082Y-15081788D01*
X11183082Y-15081788D02*
X11173558Y-15100836D01*
X11173558Y-15100836D02*
X11164034Y-15110360D01*
X11164034Y-15110360D02*
X11144986Y-15119884D01*
X11144986Y-15119884D02*
X11125939Y-15119884D01*
X11125939Y-15119884D02*
X11106891Y-15110360D01*
X11106891Y-15110360D02*
X11097367Y-15100836D01*
X11097367Y-15100836D02*
X11087844Y-15081788D01*
X11087844Y-15081788D02*
X11078320Y-15043693D01*
X11078320Y-15043693D02*
X11078320Y-14996074D01*
X11078320Y-14996074D02*
X11087844Y-14957979D01*
X11087844Y-14957979D02*
X11097367Y-14938931D01*
X11097367Y-14938931D02*
X11106891Y-14929408D01*
X11106891Y-14929408D02*
X11125939Y-14919884D01*
X11278320Y-15119884D02*
X11278320Y-14986550D01*
X11278320Y-15005598D02*
X11287843Y-14996074D01*
X11287843Y-14996074D02*
X11306891Y-14986550D01*
X11306891Y-14986550D02*
X11335463Y-14986550D01*
X11335463Y-14986550D02*
X11354510Y-14996074D01*
X11354510Y-14996074D02*
X11364034Y-15015122D01*
X11364034Y-15015122D02*
X11364034Y-15119884D01*
X11364034Y-15015122D02*
X11373558Y-14996074D01*
X11373558Y-14996074D02*
X11392605Y-14986550D01*
X11392605Y-14986550D02*
X11421177Y-14986550D01*
X11421177Y-14986550D02*
X11440224Y-14996074D01*
X11440224Y-14996074D02*
X11449748Y-15015122D01*
X11449748Y-15015122D02*
X11449748Y-15119884D01*
X11544986Y-15119884D02*
X11544986Y-14986550D01*
X11544986Y-15005598D02*
X11554510Y-14996074D01*
X11554510Y-14996074D02*
X11573558Y-14986550D01*
X11573558Y-14986550D02*
X11602129Y-14986550D01*
X11602129Y-14986550D02*
X11621177Y-14996074D01*
X11621177Y-14996074D02*
X11630701Y-15015122D01*
X11630701Y-15015122D02*
X11630701Y-15119884D01*
X11630701Y-15015122D02*
X11640224Y-14996074D01*
X11640224Y-14996074D02*
X11659272Y-14986550D01*
X11659272Y-14986550D02*
X11687843Y-14986550D01*
X11687843Y-14986550D02*
X11706891Y-14996074D01*
X11706891Y-14996074D02*
X11716415Y-15015122D01*
X11716415Y-15015122D02*
X11716415Y-15119884D01*
X12106891Y-14910360D02*
X11935463Y-15167503D01*
X12364034Y-14919884D02*
X12383082Y-14919884D01*
X12383082Y-14919884D02*
X12402129Y-14929408D01*
X12402129Y-14929408D02*
X12411653Y-14938931D01*
X12411653Y-14938931D02*
X12421177Y-14957979D01*
X12421177Y-14957979D02*
X12430701Y-14996074D01*
X12430701Y-14996074D02*
X12430701Y-15043693D01*
X12430701Y-15043693D02*
X12421177Y-15081788D01*
X12421177Y-15081788D02*
X12411653Y-15100836D01*
X12411653Y-15100836D02*
X12402129Y-15110360D01*
X12402129Y-15110360D02*
X12383082Y-15119884D01*
X12383082Y-15119884D02*
X12364034Y-15119884D01*
X12364034Y-15119884D02*
X12344986Y-15110360D01*
X12344986Y-15110360D02*
X12335463Y-15100836D01*
X12335463Y-15100836D02*
X12325939Y-15081788D01*
X12325939Y-15081788D02*
X12316415Y-15043693D01*
X12316415Y-15043693D02*
X12316415Y-14996074D01*
X12316415Y-14996074D02*
X12325939Y-14957979D01*
X12325939Y-14957979D02*
X12335463Y-14938931D01*
X12335463Y-14938931D02*
X12344986Y-14929408D01*
X12344986Y-14929408D02*
X12364034Y-14919884D01*
X12516415Y-15100836D02*
X12525939Y-15110360D01*
X12525939Y-15110360D02*
X12516415Y-15119884D01*
X12516415Y-15119884D02*
X12506891Y-15110360D01*
X12506891Y-15110360D02*
X12516415Y-15100836D01*
X12516415Y-15100836D02*
X12516415Y-15119884D01*
X12649748Y-14919884D02*
X12668796Y-14919884D01*
X12668796Y-14919884D02*
X12687844Y-14929408D01*
X12687844Y-14929408D02*
X12697367Y-14938931D01*
X12697367Y-14938931D02*
X12706891Y-14957979D01*
X12706891Y-14957979D02*
X12716415Y-14996074D01*
X12716415Y-14996074D02*
X12716415Y-15043693D01*
X12716415Y-15043693D02*
X12706891Y-15081788D01*
X12706891Y-15081788D02*
X12697367Y-15100836D01*
X12697367Y-15100836D02*
X12687844Y-15110360D01*
X12687844Y-15110360D02*
X12668796Y-15119884D01*
X12668796Y-15119884D02*
X12649748Y-15119884D01*
X12649748Y-15119884D02*
X12630701Y-15110360D01*
X12630701Y-15110360D02*
X12621177Y-15100836D01*
X12621177Y-15100836D02*
X12611653Y-15081788D01*
X12611653Y-15081788D02*
X12602129Y-15043693D01*
X12602129Y-15043693D02*
X12602129Y-14996074D01*
X12602129Y-14996074D02*
X12611653Y-14957979D01*
X12611653Y-14957979D02*
X12621177Y-14938931D01*
X12621177Y-14938931D02*
X12630701Y-14929408D01*
X12630701Y-14929408D02*
X12649748Y-14919884D01*
X12783082Y-14919884D02*
X12906891Y-14919884D01*
X12906891Y-14919884D02*
X12840225Y-14996074D01*
X12840225Y-14996074D02*
X12868796Y-14996074D01*
X12868796Y-14996074D02*
X12887844Y-15005598D01*
X12887844Y-15005598D02*
X12897367Y-15015122D01*
X12897367Y-15015122D02*
X12906891Y-15034169D01*
X12906891Y-15034169D02*
X12906891Y-15081788D01*
X12906891Y-15081788D02*
X12897367Y-15100836D01*
X12897367Y-15100836D02*
X12887844Y-15110360D01*
X12887844Y-15110360D02*
X12868796Y-15119884D01*
X12868796Y-15119884D02*
X12811653Y-15119884D01*
X12811653Y-15119884D02*
X12792606Y-15110360D01*
X12792606Y-15110360D02*
X12783082Y-15100836D01*
X13087844Y-14919884D02*
X12992606Y-14919884D01*
X12992606Y-14919884D02*
X12983082Y-15015122D01*
X12983082Y-15015122D02*
X12992606Y-15005598D01*
X12992606Y-15005598D02*
X13011653Y-14996074D01*
X13011653Y-14996074D02*
X13059272Y-14996074D01*
X13059272Y-14996074D02*
X13078320Y-15005598D01*
X13078320Y-15005598D02*
X13087844Y-15015122D01*
X13087844Y-15015122D02*
X13097367Y-15034169D01*
X13097367Y-15034169D02*
X13097367Y-15081788D01*
X13097367Y-15081788D02*
X13087844Y-15100836D01*
X13087844Y-15100836D02*
X13078320Y-15110360D01*
X13078320Y-15110360D02*
X13059272Y-15119884D01*
X13059272Y-15119884D02*
X13011653Y-15119884D01*
X13011653Y-15119884D02*
X12992606Y-15110360D01*
X12992606Y-15110360D02*
X12983082Y-15100836D01*
X13268796Y-14986550D02*
X13268796Y-15119884D01*
X13221177Y-14910360D02*
X13173558Y-15053217D01*
X13173558Y-15053217D02*
X13297367Y-15053217D01*
X13364034Y-14919884D02*
X13364034Y-14957979D01*
X13440225Y-14919884D02*
X13440225Y-14957979D01*
X13735463Y-15196074D02*
X13725939Y-15186550D01*
X13725939Y-15186550D02*
X13706891Y-15157979D01*
X13706891Y-15157979D02*
X13697368Y-15138931D01*
X13697368Y-15138931D02*
X13687844Y-15110360D01*
X13687844Y-15110360D02*
X13678320Y-15062741D01*
X13678320Y-15062741D02*
X13678320Y-15024646D01*
X13678320Y-15024646D02*
X13687844Y-14977027D01*
X13687844Y-14977027D02*
X13697368Y-14948455D01*
X13697368Y-14948455D02*
X13706891Y-14929408D01*
X13706891Y-14929408D02*
X13725939Y-14900836D01*
X13725939Y-14900836D02*
X13735463Y-14891312D01*
X13840225Y-15005598D02*
X13821177Y-14996074D01*
X13821177Y-14996074D02*
X13811653Y-14986550D01*
X13811653Y-14986550D02*
X13802129Y-14967503D01*
X13802129Y-14967503D02*
X13802129Y-14957979D01*
X13802129Y-14957979D02*
X13811653Y-14938931D01*
X13811653Y-14938931D02*
X13821177Y-14929408D01*
X13821177Y-14929408D02*
X13840225Y-14919884D01*
X13840225Y-14919884D02*
X13878320Y-14919884D01*
X13878320Y-14919884D02*
X13897368Y-14929408D01*
X13897368Y-14929408D02*
X13906891Y-14938931D01*
X13906891Y-14938931D02*
X13916415Y-14957979D01*
X13916415Y-14957979D02*
X13916415Y-14967503D01*
X13916415Y-14967503D02*
X13906891Y-14986550D01*
X13906891Y-14986550D02*
X13897368Y-14996074D01*
X13897368Y-14996074D02*
X13878320Y-15005598D01*
X13878320Y-15005598D02*
X13840225Y-15005598D01*
X13840225Y-15005598D02*
X13821177Y-15015122D01*
X13821177Y-15015122D02*
X13811653Y-15024646D01*
X13811653Y-15024646D02*
X13802129Y-15043693D01*
X13802129Y-15043693D02*
X13802129Y-15081788D01*
X13802129Y-15081788D02*
X13811653Y-15100836D01*
X13811653Y-15100836D02*
X13821177Y-15110360D01*
X13821177Y-15110360D02*
X13840225Y-15119884D01*
X13840225Y-15119884D02*
X13878320Y-15119884D01*
X13878320Y-15119884D02*
X13897368Y-15110360D01*
X13897368Y-15110360D02*
X13906891Y-15100836D01*
X13906891Y-15100836D02*
X13916415Y-15081788D01*
X13916415Y-15081788D02*
X13916415Y-15043693D01*
X13916415Y-15043693D02*
X13906891Y-15024646D01*
X13906891Y-15024646D02*
X13897368Y-15015122D01*
X13897368Y-15015122D02*
X13878320Y-15005598D01*
X14154510Y-15119884D02*
X14154510Y-14919884D01*
X14240225Y-15119884D02*
X14240225Y-15015122D01*
X14240225Y-15015122D02*
X14230701Y-14996074D01*
X14230701Y-14996074D02*
X14211653Y-14986550D01*
X14211653Y-14986550D02*
X14183082Y-14986550D01*
X14183082Y-14986550D02*
X14164034Y-14996074D01*
X14164034Y-14996074D02*
X14154510Y-15005598D01*
X14364034Y-15119884D02*
X14344987Y-15110360D01*
X14344987Y-15110360D02*
X14335463Y-15100836D01*
X14335463Y-15100836D02*
X14325939Y-15081788D01*
X14325939Y-15081788D02*
X14325939Y-15024646D01*
X14325939Y-15024646D02*
X14335463Y-15005598D01*
X14335463Y-15005598D02*
X14344987Y-14996074D01*
X14344987Y-14996074D02*
X14364034Y-14986550D01*
X14364034Y-14986550D02*
X14392606Y-14986550D01*
X14392606Y-14986550D02*
X14411653Y-14996074D01*
X14411653Y-14996074D02*
X14421177Y-15005598D01*
X14421177Y-15005598D02*
X14430701Y-15024646D01*
X14430701Y-15024646D02*
X14430701Y-15081788D01*
X14430701Y-15081788D02*
X14421177Y-15100836D01*
X14421177Y-15100836D02*
X14411653Y-15110360D01*
X14411653Y-15110360D02*
X14392606Y-15119884D01*
X14392606Y-15119884D02*
X14364034Y-15119884D01*
X14544987Y-15119884D02*
X14525939Y-15110360D01*
X14525939Y-15110360D02*
X14516415Y-15091312D01*
X14516415Y-15091312D02*
X14516415Y-14919884D01*
X14697368Y-15110360D02*
X14678320Y-15119884D01*
X14678320Y-15119884D02*
X14640225Y-15119884D01*
X14640225Y-15119884D02*
X14621177Y-15110360D01*
X14621177Y-15110360D02*
X14611653Y-15091312D01*
X14611653Y-15091312D02*
X14611653Y-15015122D01*
X14611653Y-15015122D02*
X14621177Y-14996074D01*
X14621177Y-14996074D02*
X14640225Y-14986550D01*
X14640225Y-14986550D02*
X14678320Y-14986550D01*
X14678320Y-14986550D02*
X14697368Y-14996074D01*
X14697368Y-14996074D02*
X14706891Y-15015122D01*
X14706891Y-15015122D02*
X14706891Y-15034169D01*
X14706891Y-15034169D02*
X14611653Y-15053217D01*
X14783082Y-15110360D02*
X14802130Y-15119884D01*
X14802130Y-15119884D02*
X14840225Y-15119884D01*
X14840225Y-15119884D02*
X14859272Y-15110360D01*
X14859272Y-15110360D02*
X14868796Y-15091312D01*
X14868796Y-15091312D02*
X14868796Y-15081788D01*
X14868796Y-15081788D02*
X14859272Y-15062741D01*
X14859272Y-15062741D02*
X14840225Y-15053217D01*
X14840225Y-15053217D02*
X14811653Y-15053217D01*
X14811653Y-15053217D02*
X14792606Y-15043693D01*
X14792606Y-15043693D02*
X14783082Y-15024646D01*
X14783082Y-15024646D02*
X14783082Y-15015122D01*
X14783082Y-15015122D02*
X14792606Y-14996074D01*
X14792606Y-14996074D02*
X14811653Y-14986550D01*
X14811653Y-14986550D02*
X14840225Y-14986550D01*
X14840225Y-14986550D02*
X14859272Y-14996074D01*
X14935463Y-15196074D02*
X14944987Y-15186550D01*
X14944987Y-15186550D02*
X14964034Y-15157979D01*
X14964034Y-15157979D02*
X14973558Y-15138931D01*
X14973558Y-15138931D02*
X14983082Y-15110360D01*
X14983082Y-15110360D02*
X14992606Y-15062741D01*
X14992606Y-15062741D02*
X14992606Y-15024646D01*
X14992606Y-15024646D02*
X14983082Y-14977027D01*
X14983082Y-14977027D02*
X14973558Y-14948455D01*
X14973558Y-14948455D02*
X14964034Y-14929408D01*
X14964034Y-14929408D02*
X14944987Y-14900836D01*
X14944987Y-14900836D02*
X14935463Y-14891312D01*
D13*
X10145463Y-15328463D02*
X10145463Y-15256337D01*
X10073337Y-15256337D01*
X10073337Y-15328463D01*
X10145463Y-15328463D01*
D11*
X10525939Y-15383884D02*
X10411653Y-15383884D01*
X10468796Y-15383884D02*
X10468796Y-15183884D01*
X10468796Y-15183884D02*
X10449748Y-15212455D01*
X10449748Y-15212455D02*
X10430701Y-15231503D01*
X10430701Y-15231503D02*
X10411653Y-15241027D01*
X10611653Y-15364836D02*
X10621177Y-15374360D01*
X10621177Y-15374360D02*
X10611653Y-15383884D01*
X10611653Y-15383884D02*
X10602129Y-15374360D01*
X10602129Y-15374360D02*
X10611653Y-15364836D01*
X10611653Y-15364836D02*
X10611653Y-15383884D01*
X10744986Y-15183884D02*
X10764034Y-15183884D01*
X10764034Y-15183884D02*
X10783082Y-15193408D01*
X10783082Y-15193408D02*
X10792605Y-15202931D01*
X10792605Y-15202931D02*
X10802129Y-15221979D01*
X10802129Y-15221979D02*
X10811653Y-15260074D01*
X10811653Y-15260074D02*
X10811653Y-15307693D01*
X10811653Y-15307693D02*
X10802129Y-15345788D01*
X10802129Y-15345788D02*
X10792605Y-15364836D01*
X10792605Y-15364836D02*
X10783082Y-15374360D01*
X10783082Y-15374360D02*
X10764034Y-15383884D01*
X10764034Y-15383884D02*
X10744986Y-15383884D01*
X10744986Y-15383884D02*
X10725939Y-15374360D01*
X10725939Y-15374360D02*
X10716415Y-15364836D01*
X10716415Y-15364836D02*
X10706891Y-15345788D01*
X10706891Y-15345788D02*
X10697367Y-15307693D01*
X10697367Y-15307693D02*
X10697367Y-15260074D01*
X10697367Y-15260074D02*
X10706891Y-15221979D01*
X10706891Y-15221979D02*
X10716415Y-15202931D01*
X10716415Y-15202931D02*
X10725939Y-15193408D01*
X10725939Y-15193408D02*
X10744986Y-15183884D01*
X10887844Y-15202931D02*
X10897367Y-15193408D01*
X10897367Y-15193408D02*
X10916415Y-15183884D01*
X10916415Y-15183884D02*
X10964034Y-15183884D01*
X10964034Y-15183884D02*
X10983082Y-15193408D01*
X10983082Y-15193408D02*
X10992605Y-15202931D01*
X10992605Y-15202931D02*
X11002129Y-15221979D01*
X11002129Y-15221979D02*
X11002129Y-15241027D01*
X11002129Y-15241027D02*
X10992605Y-15269598D01*
X10992605Y-15269598D02*
X10878320Y-15383884D01*
X10878320Y-15383884D02*
X11002129Y-15383884D01*
X11125939Y-15183884D02*
X11144986Y-15183884D01*
X11144986Y-15183884D02*
X11164034Y-15193408D01*
X11164034Y-15193408D02*
X11173558Y-15202931D01*
X11173558Y-15202931D02*
X11183082Y-15221979D01*
X11183082Y-15221979D02*
X11192605Y-15260074D01*
X11192605Y-15260074D02*
X11192605Y-15307693D01*
X11192605Y-15307693D02*
X11183082Y-15345788D01*
X11183082Y-15345788D02*
X11173558Y-15364836D01*
X11173558Y-15364836D02*
X11164034Y-15374360D01*
X11164034Y-15374360D02*
X11144986Y-15383884D01*
X11144986Y-15383884D02*
X11125939Y-15383884D01*
X11125939Y-15383884D02*
X11106891Y-15374360D01*
X11106891Y-15374360D02*
X11097367Y-15364836D01*
X11097367Y-15364836D02*
X11087844Y-15345788D01*
X11087844Y-15345788D02*
X11078320Y-15307693D01*
X11078320Y-15307693D02*
X11078320Y-15260074D01*
X11078320Y-15260074D02*
X11087844Y-15221979D01*
X11087844Y-15221979D02*
X11097367Y-15202931D01*
X11097367Y-15202931D02*
X11106891Y-15193408D01*
X11106891Y-15193408D02*
X11125939Y-15183884D01*
X11278320Y-15383884D02*
X11278320Y-15250550D01*
X11278320Y-15269598D02*
X11287843Y-15260074D01*
X11287843Y-15260074D02*
X11306891Y-15250550D01*
X11306891Y-15250550D02*
X11335463Y-15250550D01*
X11335463Y-15250550D02*
X11354510Y-15260074D01*
X11354510Y-15260074D02*
X11364034Y-15279122D01*
X11364034Y-15279122D02*
X11364034Y-15383884D01*
X11364034Y-15279122D02*
X11373558Y-15260074D01*
X11373558Y-15260074D02*
X11392605Y-15250550D01*
X11392605Y-15250550D02*
X11421177Y-15250550D01*
X11421177Y-15250550D02*
X11440224Y-15260074D01*
X11440224Y-15260074D02*
X11449748Y-15279122D01*
X11449748Y-15279122D02*
X11449748Y-15383884D01*
X11544986Y-15383884D02*
X11544986Y-15250550D01*
X11544986Y-15269598D02*
X11554510Y-15260074D01*
X11554510Y-15260074D02*
X11573558Y-15250550D01*
X11573558Y-15250550D02*
X11602129Y-15250550D01*
X11602129Y-15250550D02*
X11621177Y-15260074D01*
X11621177Y-15260074D02*
X11630701Y-15279122D01*
X11630701Y-15279122D02*
X11630701Y-15383884D01*
X11630701Y-15279122D02*
X11640224Y-15260074D01*
X11640224Y-15260074D02*
X11659272Y-15250550D01*
X11659272Y-15250550D02*
X11687843Y-15250550D01*
X11687843Y-15250550D02*
X11706891Y-15260074D01*
X11706891Y-15260074D02*
X11716415Y-15279122D01*
X11716415Y-15279122D02*
X11716415Y-15383884D01*
X12106891Y-15174360D02*
X11935463Y-15431503D01*
X12364034Y-15183884D02*
X12383082Y-15183884D01*
X12383082Y-15183884D02*
X12402129Y-15193408D01*
X12402129Y-15193408D02*
X12411653Y-15202931D01*
X12411653Y-15202931D02*
X12421177Y-15221979D01*
X12421177Y-15221979D02*
X12430701Y-15260074D01*
X12430701Y-15260074D02*
X12430701Y-15307693D01*
X12430701Y-15307693D02*
X12421177Y-15345788D01*
X12421177Y-15345788D02*
X12411653Y-15364836D01*
X12411653Y-15364836D02*
X12402129Y-15374360D01*
X12402129Y-15374360D02*
X12383082Y-15383884D01*
X12383082Y-15383884D02*
X12364034Y-15383884D01*
X12364034Y-15383884D02*
X12344986Y-15374360D01*
X12344986Y-15374360D02*
X12335463Y-15364836D01*
X12335463Y-15364836D02*
X12325939Y-15345788D01*
X12325939Y-15345788D02*
X12316415Y-15307693D01*
X12316415Y-15307693D02*
X12316415Y-15260074D01*
X12316415Y-15260074D02*
X12325939Y-15221979D01*
X12325939Y-15221979D02*
X12335463Y-15202931D01*
X12335463Y-15202931D02*
X12344986Y-15193408D01*
X12344986Y-15193408D02*
X12364034Y-15183884D01*
X12516415Y-15364836D02*
X12525939Y-15374360D01*
X12525939Y-15374360D02*
X12516415Y-15383884D01*
X12516415Y-15383884D02*
X12506891Y-15374360D01*
X12506891Y-15374360D02*
X12516415Y-15364836D01*
X12516415Y-15364836D02*
X12516415Y-15383884D01*
X12649748Y-15183884D02*
X12668796Y-15183884D01*
X12668796Y-15183884D02*
X12687844Y-15193408D01*
X12687844Y-15193408D02*
X12697367Y-15202931D01*
X12697367Y-15202931D02*
X12706891Y-15221979D01*
X12706891Y-15221979D02*
X12716415Y-15260074D01*
X12716415Y-15260074D02*
X12716415Y-15307693D01*
X12716415Y-15307693D02*
X12706891Y-15345788D01*
X12706891Y-15345788D02*
X12697367Y-15364836D01*
X12697367Y-15364836D02*
X12687844Y-15374360D01*
X12687844Y-15374360D02*
X12668796Y-15383884D01*
X12668796Y-15383884D02*
X12649748Y-15383884D01*
X12649748Y-15383884D02*
X12630701Y-15374360D01*
X12630701Y-15374360D02*
X12621177Y-15364836D01*
X12621177Y-15364836D02*
X12611653Y-15345788D01*
X12611653Y-15345788D02*
X12602129Y-15307693D01*
X12602129Y-15307693D02*
X12602129Y-15260074D01*
X12602129Y-15260074D02*
X12611653Y-15221979D01*
X12611653Y-15221979D02*
X12621177Y-15202931D01*
X12621177Y-15202931D02*
X12630701Y-15193408D01*
X12630701Y-15193408D02*
X12649748Y-15183884D01*
X12887844Y-15250550D02*
X12887844Y-15383884D01*
X12840225Y-15174360D02*
X12792606Y-15317217D01*
X12792606Y-15317217D02*
X12916415Y-15317217D01*
X13030701Y-15183884D02*
X13049748Y-15183884D01*
X13049748Y-15183884D02*
X13068796Y-15193408D01*
X13068796Y-15193408D02*
X13078320Y-15202931D01*
X13078320Y-15202931D02*
X13087844Y-15221979D01*
X13087844Y-15221979D02*
X13097367Y-15260074D01*
X13097367Y-15260074D02*
X13097367Y-15307693D01*
X13097367Y-15307693D02*
X13087844Y-15345788D01*
X13087844Y-15345788D02*
X13078320Y-15364836D01*
X13078320Y-15364836D02*
X13068796Y-15374360D01*
X13068796Y-15374360D02*
X13049748Y-15383884D01*
X13049748Y-15383884D02*
X13030701Y-15383884D01*
X13030701Y-15383884D02*
X13011653Y-15374360D01*
X13011653Y-15374360D02*
X13002129Y-15364836D01*
X13002129Y-15364836D02*
X12992606Y-15345788D01*
X12992606Y-15345788D02*
X12983082Y-15307693D01*
X12983082Y-15307693D02*
X12983082Y-15260074D01*
X12983082Y-15260074D02*
X12992606Y-15221979D01*
X12992606Y-15221979D02*
X13002129Y-15202931D01*
X13002129Y-15202931D02*
X13011653Y-15193408D01*
X13011653Y-15193408D02*
X13030701Y-15183884D01*
X13173558Y-15202931D02*
X13183082Y-15193408D01*
X13183082Y-15193408D02*
X13202129Y-15183884D01*
X13202129Y-15183884D02*
X13249748Y-15183884D01*
X13249748Y-15183884D02*
X13268796Y-15193408D01*
X13268796Y-15193408D02*
X13278320Y-15202931D01*
X13278320Y-15202931D02*
X13287844Y-15221979D01*
X13287844Y-15221979D02*
X13287844Y-15241027D01*
X13287844Y-15241027D02*
X13278320Y-15269598D01*
X13278320Y-15269598D02*
X13164034Y-15383884D01*
X13164034Y-15383884D02*
X13287844Y-15383884D01*
X13364034Y-15183884D02*
X13364034Y-15221979D01*
X13440225Y-15183884D02*
X13440225Y-15221979D01*
X13735463Y-15460074D02*
X13725939Y-15450550D01*
X13725939Y-15450550D02*
X13706891Y-15421979D01*
X13706891Y-15421979D02*
X13697368Y-15402931D01*
X13697368Y-15402931D02*
X13687844Y-15374360D01*
X13687844Y-15374360D02*
X13678320Y-15326741D01*
X13678320Y-15326741D02*
X13678320Y-15288646D01*
X13678320Y-15288646D02*
X13687844Y-15241027D01*
X13687844Y-15241027D02*
X13697368Y-15212455D01*
X13697368Y-15212455D02*
X13706891Y-15193408D01*
X13706891Y-15193408D02*
X13725939Y-15164836D01*
X13725939Y-15164836D02*
X13735463Y-15155312D01*
X13792606Y-15183884D02*
X13925939Y-15183884D01*
X13925939Y-15183884D02*
X13840225Y-15383884D01*
X14040225Y-15183884D02*
X14059272Y-15183884D01*
X14059272Y-15183884D02*
X14078320Y-15193408D01*
X14078320Y-15193408D02*
X14087844Y-15202931D01*
X14087844Y-15202931D02*
X14097368Y-15221979D01*
X14097368Y-15221979D02*
X14106891Y-15260074D01*
X14106891Y-15260074D02*
X14106891Y-15307693D01*
X14106891Y-15307693D02*
X14097368Y-15345788D01*
X14097368Y-15345788D02*
X14087844Y-15364836D01*
X14087844Y-15364836D02*
X14078320Y-15374360D01*
X14078320Y-15374360D02*
X14059272Y-15383884D01*
X14059272Y-15383884D02*
X14040225Y-15383884D01*
X14040225Y-15383884D02*
X14021177Y-15374360D01*
X14021177Y-15374360D02*
X14011653Y-15364836D01*
X14011653Y-15364836D02*
X14002129Y-15345788D01*
X14002129Y-15345788D02*
X13992606Y-15307693D01*
X13992606Y-15307693D02*
X13992606Y-15260074D01*
X13992606Y-15260074D02*
X14002129Y-15221979D01*
X14002129Y-15221979D02*
X14011653Y-15202931D01*
X14011653Y-15202931D02*
X14021177Y-15193408D01*
X14021177Y-15193408D02*
X14040225Y-15183884D01*
X14344987Y-15383884D02*
X14344987Y-15183884D01*
X14430701Y-15383884D02*
X14430701Y-15279122D01*
X14430701Y-15279122D02*
X14421177Y-15260074D01*
X14421177Y-15260074D02*
X14402130Y-15250550D01*
X14402130Y-15250550D02*
X14373558Y-15250550D01*
X14373558Y-15250550D02*
X14354510Y-15260074D01*
X14354510Y-15260074D02*
X14344987Y-15269598D01*
X14554510Y-15383884D02*
X14535463Y-15374360D01*
X14535463Y-15374360D02*
X14525939Y-15364836D01*
X14525939Y-15364836D02*
X14516415Y-15345788D01*
X14516415Y-15345788D02*
X14516415Y-15288646D01*
X14516415Y-15288646D02*
X14525939Y-15269598D01*
X14525939Y-15269598D02*
X14535463Y-15260074D01*
X14535463Y-15260074D02*
X14554510Y-15250550D01*
X14554510Y-15250550D02*
X14583082Y-15250550D01*
X14583082Y-15250550D02*
X14602130Y-15260074D01*
X14602130Y-15260074D02*
X14611653Y-15269598D01*
X14611653Y-15269598D02*
X14621177Y-15288646D01*
X14621177Y-15288646D02*
X14621177Y-15345788D01*
X14621177Y-15345788D02*
X14611653Y-15364836D01*
X14611653Y-15364836D02*
X14602130Y-15374360D01*
X14602130Y-15374360D02*
X14583082Y-15383884D01*
X14583082Y-15383884D02*
X14554510Y-15383884D01*
X14735463Y-15383884D02*
X14716415Y-15374360D01*
X14716415Y-15374360D02*
X14706891Y-15355312D01*
X14706891Y-15355312D02*
X14706891Y-15183884D01*
X14887844Y-15374360D02*
X14868796Y-15383884D01*
X14868796Y-15383884D02*
X14830701Y-15383884D01*
X14830701Y-15383884D02*
X14811653Y-15374360D01*
X14811653Y-15374360D02*
X14802130Y-15355312D01*
X14802130Y-15355312D02*
X14802130Y-15279122D01*
X14802130Y-15279122D02*
X14811653Y-15260074D01*
X14811653Y-15260074D02*
X14830701Y-15250550D01*
X14830701Y-15250550D02*
X14868796Y-15250550D01*
X14868796Y-15250550D02*
X14887844Y-15260074D01*
X14887844Y-15260074D02*
X14897368Y-15279122D01*
X14897368Y-15279122D02*
X14897368Y-15298169D01*
X14897368Y-15298169D02*
X14802130Y-15317217D01*
X14973558Y-15374360D02*
X14992606Y-15383884D01*
X14992606Y-15383884D02*
X15030701Y-15383884D01*
X15030701Y-15383884D02*
X15049749Y-15374360D01*
X15049749Y-15374360D02*
X15059272Y-15355312D01*
X15059272Y-15355312D02*
X15059272Y-15345788D01*
X15059272Y-15345788D02*
X15049749Y-15326741D01*
X15049749Y-15326741D02*
X15030701Y-15317217D01*
X15030701Y-15317217D02*
X15002130Y-15317217D01*
X15002130Y-15317217D02*
X14983082Y-15307693D01*
X14983082Y-15307693D02*
X14973558Y-15288646D01*
X14973558Y-15288646D02*
X14973558Y-15279122D01*
X14973558Y-15279122D02*
X14983082Y-15260074D01*
X14983082Y-15260074D02*
X15002130Y-15250550D01*
X15002130Y-15250550D02*
X15030701Y-15250550D01*
X15030701Y-15250550D02*
X15049749Y-15260074D01*
X15125939Y-15460074D02*
X15135463Y-15450550D01*
X15135463Y-15450550D02*
X15154511Y-15421979D01*
X15154511Y-15421979D02*
X15164034Y-15402931D01*
X15164034Y-15402931D02*
X15173558Y-15374360D01*
X15173558Y-15374360D02*
X15183082Y-15326741D01*
X15183082Y-15326741D02*
X15183082Y-15288646D01*
X15183082Y-15288646D02*
X15173558Y-15241027D01*
X15173558Y-15241027D02*
X15164034Y-15212455D01*
X15164034Y-15212455D02*
X15154511Y-15193408D01*
X15154511Y-15193408D02*
X15135463Y-15164836D01*
X15135463Y-15164836D02*
X15125939Y-15155312D01*
M02*
