%TF.GenerationSoftware,KiCad,Pcbnew,7.0.11-7.0.11~ubuntu22.04.1*%
%TF.CreationDate,2024-05-31T20:38:37-03:00*%
%TF.ProjectId,Fonte_corrente_mono_V02,466f6e74-655f-4636-9f72-72656e74655f,v02*%
%TF.SameCoordinates,Original*%
%TF.FileFunction,Drillmap*%
%TF.FilePolarity,Positive*%
%FSLAX45Y45*%
G04 Gerber Fmt 4.5, Leading zero omitted, Abs format (unit mm)*
G04 Created by KiCad (PCBNEW 7.0.11-7.0.11~ubuntu22.04.1) date 2024-05-31 20:38:37*
%MOMM*%
%LPD*%
G01*
G04 APERTURE LIST*
%ADD10C,0.150000*%
%ADD11C,0.200000*%
G04 APERTURE END LIST*
D10*
X10185400Y-3835400D02*
X10185400Y-13835380D01*
X19185382Y-13835380D02*
X10185400Y-13835380D01*
X19185400Y-3835400D02*
X10185400Y-3835400D01*
X19185400Y-13835400D02*
X19185400Y-3835400D01*
D11*
X10438677Y-14154384D02*
X10438677Y-13954384D01*
X10438677Y-13954384D02*
X10486296Y-13954384D01*
X10486296Y-13954384D02*
X10514867Y-13963908D01*
X10514867Y-13963908D02*
X10533915Y-13982955D01*
X10533915Y-13982955D02*
X10543439Y-14002003D01*
X10543439Y-14002003D02*
X10552963Y-14040098D01*
X10552963Y-14040098D02*
X10552963Y-14068669D01*
X10552963Y-14068669D02*
X10543439Y-14106765D01*
X10543439Y-14106765D02*
X10533915Y-14125812D01*
X10533915Y-14125812D02*
X10514867Y-14144860D01*
X10514867Y-14144860D02*
X10486296Y-14154384D01*
X10486296Y-14154384D02*
X10438677Y-14154384D01*
X10638677Y-14154384D02*
X10638677Y-14021050D01*
X10638677Y-14059146D02*
X10648201Y-14040098D01*
X10648201Y-14040098D02*
X10657724Y-14030574D01*
X10657724Y-14030574D02*
X10676772Y-14021050D01*
X10676772Y-14021050D02*
X10695820Y-14021050D01*
X10762486Y-14154384D02*
X10762486Y-14021050D01*
X10762486Y-13954384D02*
X10752963Y-13963908D01*
X10752963Y-13963908D02*
X10762486Y-13973431D01*
X10762486Y-13973431D02*
X10772010Y-13963908D01*
X10772010Y-13963908D02*
X10762486Y-13954384D01*
X10762486Y-13954384D02*
X10762486Y-13973431D01*
X10886296Y-14154384D02*
X10867248Y-14144860D01*
X10867248Y-14144860D02*
X10857724Y-14125812D01*
X10857724Y-14125812D02*
X10857724Y-13954384D01*
X10991058Y-14154384D02*
X10972010Y-14144860D01*
X10972010Y-14144860D02*
X10962486Y-14125812D01*
X10962486Y-14125812D02*
X10962486Y-13954384D01*
X11219629Y-14154384D02*
X11219629Y-13954384D01*
X11219629Y-13954384D02*
X11286296Y-14097241D01*
X11286296Y-14097241D02*
X11352962Y-13954384D01*
X11352962Y-13954384D02*
X11352962Y-14154384D01*
X11533915Y-14154384D02*
X11533915Y-14049622D01*
X11533915Y-14049622D02*
X11524391Y-14030574D01*
X11524391Y-14030574D02*
X11505343Y-14021050D01*
X11505343Y-14021050D02*
X11467248Y-14021050D01*
X11467248Y-14021050D02*
X11448201Y-14030574D01*
X11533915Y-14144860D02*
X11514867Y-14154384D01*
X11514867Y-14154384D02*
X11467248Y-14154384D01*
X11467248Y-14154384D02*
X11448201Y-14144860D01*
X11448201Y-14144860D02*
X11438677Y-14125812D01*
X11438677Y-14125812D02*
X11438677Y-14106765D01*
X11438677Y-14106765D02*
X11448201Y-14087717D01*
X11448201Y-14087717D02*
X11467248Y-14078193D01*
X11467248Y-14078193D02*
X11514867Y-14078193D01*
X11514867Y-14078193D02*
X11533915Y-14068669D01*
X11629153Y-14021050D02*
X11629153Y-14221050D01*
X11629153Y-14030574D02*
X11648201Y-14021050D01*
X11648201Y-14021050D02*
X11686296Y-14021050D01*
X11686296Y-14021050D02*
X11705343Y-14030574D01*
X11705343Y-14030574D02*
X11714867Y-14040098D01*
X11714867Y-14040098D02*
X11724391Y-14059146D01*
X11724391Y-14059146D02*
X11724391Y-14116288D01*
X11724391Y-14116288D02*
X11714867Y-14135336D01*
X11714867Y-14135336D02*
X11705343Y-14144860D01*
X11705343Y-14144860D02*
X11686296Y-14154384D01*
X11686296Y-14154384D02*
X11648201Y-14154384D01*
X11648201Y-14154384D02*
X11629153Y-14144860D01*
X11810105Y-14135336D02*
X11819629Y-14144860D01*
X11819629Y-14144860D02*
X11810105Y-14154384D01*
X11810105Y-14154384D02*
X11800582Y-14144860D01*
X11800582Y-14144860D02*
X11810105Y-14135336D01*
X11810105Y-14135336D02*
X11810105Y-14154384D01*
X11810105Y-14030574D02*
X11819629Y-14040098D01*
X11819629Y-14040098D02*
X11810105Y-14049622D01*
X11810105Y-14049622D02*
X11800582Y-14040098D01*
X11800582Y-14040098D02*
X11810105Y-14030574D01*
X11810105Y-14030574D02*
X11810105Y-14049622D01*
M02*
