M48
; DRILL file {KiCad 7.0.10-7.0.10~ubuntu20.04.1} date seg 27 mai 2024 18:29:13
; FORMAT={-:-/ absolute / metric / decimal}
; #@! TF.CreationDate,2024-05-27T18:29:13-03:00
; #@! TF.GenerationSoftware,Kicad,Pcbnew,7.0.10-7.0.10~ubuntu20.04.1
; #@! TF.FileFunction,Plated,1,2,PTH
FMAT,2
METRIC
; #@! TA.AperFunction,Plated,PTH,ViaDrill
T1C0.800
; #@! TA.AperFunction,Plated,PTH,ComponentDrill
T2C0.800
; #@! TA.AperFunction,Plated,PTH,ComponentDrill
T3C0.900
; #@! TA.AperFunction,Plated,PTH,ComponentDrill
T4C1.020
%
G90
G05
T1
X130.996Y-102.764
T2
X113.665Y-133.985
X114.354Y-89.354
X114.354Y-96.974
X116.205Y-133.985
X118.744Y-106.554
X118.745Y-113.919
X118.745Y-116.459
X118.745Y-118.999
X118.745Y-121.539
X118.745Y-133.985
X118.754Y-88.854
X118.754Y-91.394
X118.754Y-93.934
X118.754Y-96.474
X119.507Y-55.245
X121.844Y-82.554
X122.682Y-60.706
X126.364Y-106.554
X126.365Y-113.919
X126.365Y-116.459
X126.365Y-118.999
X126.365Y-121.539
X126.374Y-88.854
X126.374Y-91.394
X126.374Y-93.934
X126.374Y-96.474
X127.127Y-55.245
X128.778Y-51.816
X129.464Y-82.554
X130.302Y-60.706
X130.944Y-121.554
X131.654Y-108.644
X131.654Y-116.264
X133.644Y-128.254
X136.144Y-56.261
X136.398Y-51.816
X138.454Y-102.344
X138.454Y-109.964
X138.564Y-121.554
X141.264Y-128.254
X143.764Y-56.261
X143.954Y-113.144
X143.954Y-120.764
X147.828Y-60.071
X147.828Y-62.611
X147.828Y-65.151
X147.828Y-67.691
X149.5Y-42.6
X152.04Y-42.6
X154.5Y-84.38
X154.5Y-92.0
X154.58Y-42.6
X155.448Y-60.071
X155.448Y-62.611
X155.448Y-65.151
X155.448Y-67.691
X160.0Y-65.0
X160.254Y-49.444
X160.254Y-57.064
X161.0Y-72.38
X161.0Y-80.0
X161.0Y-84.38
X161.0Y-92.0
X162.5Y-65.0
X164.549Y-44.454
X164.944Y-56.0
X167.0Y-72.38
X167.0Y-80.0
X167.0Y-84.38
X167.0Y-92.0
X167.049Y-44.454
X167.474Y-67.0
X167.574Y-62.0
X168.344Y-51.354
X172.564Y-56.0
X173.0Y-72.38
X173.0Y-80.0
X173.0Y-84.38
X173.0Y-92.0
X175.964Y-51.354
X177.634Y-67.0
X177.734Y-62.0
X179.0Y-72.38
X179.0Y-80.0
T3
X114.0Y-44.0
X116.54Y-44.0
X121.0Y-44.0
X123.54Y-44.0
X128.0Y-44.0
X130.54Y-44.0
X135.0Y-44.0
X137.54Y-44.0
T4
X106.934Y-44.704
X106.934Y-47.244
X106.934Y-49.784
X106.934Y-52.324
X106.934Y-54.864
X106.934Y-57.404
X106.934Y-59.944
X106.934Y-62.484
X106.934Y-68.834
X106.934Y-71.374
X106.934Y-73.914
X106.934Y-76.454
X106.934Y-78.994
X106.934Y-81.534
X106.934Y-84.074
X106.934Y-86.614
X106.934Y-89.154
X106.934Y-91.694
X106.934Y-94.234
X106.934Y-96.774
X106.934Y-99.314
X106.934Y-101.854
X106.934Y-104.394
X106.934Y-106.934
X106.934Y-109.474
X106.934Y-112.014
X106.934Y-114.554
X106.934Y-117.094
X106.934Y-119.634
X106.934Y-122.174
X106.934Y-124.714
X106.934Y-127.254
X106.934Y-129.794
X106.934Y-132.334
X106.934Y-134.874
X185.674Y-44.704
X185.674Y-47.244
X185.674Y-49.784
X185.674Y-52.324
X185.674Y-54.864
X185.674Y-57.404
X185.674Y-59.944
X185.674Y-62.484
X185.674Y-65.024
X185.674Y-67.564
X185.674Y-70.104
X185.674Y-72.644
X185.674Y-75.184
X185.674Y-77.724
X185.674Y-80.264
X185.674Y-82.804
X185.674Y-85.344
X185.674Y-87.884
X185.674Y-90.424
X185.674Y-92.964
X185.674Y-95.504
X185.674Y-98.044
X185.674Y-100.584
X185.674Y-103.124
X185.674Y-105.664
X185.674Y-108.204
X185.674Y-110.744
X185.674Y-113.284
X185.674Y-115.824
X185.674Y-118.364
X185.674Y-120.904
X185.674Y-123.444
X185.674Y-125.984
X185.674Y-128.524
X185.674Y-131.064
M30
