M48
; DRILL file {KiCad 7.0.5-4d25ed1034~172~ubuntu22.04.1} date Thu 22 Jun 2023 18:42:14 -03
; FORMAT={-:-/ absolute / metric / decimal}
; #@! TF.CreationDate,2023-06-22T18:42:14-03:00
; #@! TF.GenerationSoftware,Kicad,Pcbnew,7.0.5-4d25ed1034~172~ubuntu22.04.1
; #@! TF.FileFunction,Plated,1,2,PTH
FMAT,2
METRIC
; #@! TA.AperFunction,Plated,PTH,ViaDrill
T1C0.800
%
G90
G05
T1
X133.5Y-143.0
X140.5Y-143.0
X114.34Y-66.04
X116.84Y-66.04
X121.96Y-66.04
X123.6Y-135.8
X124.46Y-66.04
X126.1Y-135.8
X136.8Y-120.6
X139.3Y-120.6
X149.195Y-68.58
X151.695Y-68.58
X153.1Y-112.6
X155.6Y-112.6
X157.48Y-68.58
X159.98Y-68.58
X162.6Y-74.93
X165.1Y-74.93
X174.03Y-67.31
X174.991Y-122.4
X176.53Y-67.31
X177.491Y-122.4
X177.8Y-133.985
X180.3Y-133.985
X124.46Y-146.6
X127.0Y-146.6
X110.998Y-62.23
X110.998Y-83.312
X120.65Y-128.651
X120.65Y-137.16
X128.524Y-124.46
X128.778Y-134.493
X129.54Y-62.23
X129.54Y-77.978
X129.54Y-88.265
X146.05Y-80.01
X152.654Y-137.033
X153.67Y-80.01
X160.02Y-74.803
X160.02Y-90.17
X162.56Y-63.5
X174.687Y-137.033
X175.26Y-63.5
X106.68Y-57.15
X106.68Y-59.69
X106.68Y-62.23
X106.68Y-64.77
X106.68Y-67.31
X106.68Y-69.85
X106.68Y-72.39
X106.68Y-74.93
X106.68Y-81.28
X106.68Y-83.82
X106.68Y-86.36
X106.68Y-88.9
X106.68Y-91.44
X106.68Y-93.98
X106.68Y-96.52
X106.68Y-99.06
X106.68Y-101.6
X106.68Y-104.14
X106.68Y-106.68
X106.68Y-109.22
X106.68Y-111.76
X106.68Y-114.3
X106.68Y-116.84
X106.68Y-119.38
X106.68Y-121.92
X106.68Y-124.46
X106.68Y-127.0
X106.68Y-129.54
X106.68Y-132.08
X106.68Y-134.62
X106.68Y-137.16
X106.68Y-139.7
X106.68Y-142.24
X106.68Y-144.78
X106.68Y-147.32
X186.69Y-57.15
X186.69Y-59.69
X186.69Y-62.23
X186.69Y-64.77
X186.69Y-67.31
X186.69Y-69.85
X186.69Y-72.39
X186.69Y-74.93
X186.69Y-77.47
X186.69Y-80.01
X186.69Y-82.55
X186.69Y-85.09
X186.69Y-87.63
X186.69Y-90.17
X186.69Y-92.71
X186.69Y-95.25
X186.69Y-97.79
X186.69Y-100.33
X186.69Y-102.87
X186.69Y-105.41
X186.69Y-107.95
X186.69Y-110.49
X186.69Y-113.03
X186.69Y-115.57
X186.69Y-118.11
X186.69Y-120.65
X186.69Y-123.19
X186.69Y-125.73
X186.69Y-128.27
X186.69Y-130.81
X186.69Y-133.35
X186.69Y-135.89
X186.69Y-138.43
X186.69Y-140.97
X186.69Y-143.51
X114.3Y-58.42
X116.84Y-58.42
X119.38Y-58.42
X120.65Y-75.184
X120.65Y-85.344
X129.54Y-58.42
X131.572Y-68.961
X132.08Y-58.42
X134.62Y-58.42
X138.756Y-61.777
X139.7Y-72.39
X139.7Y-82.55
X153.65Y-139.8
X155.35Y-143.5
X157.05Y-139.8
X157.48Y-58.42
X157.48Y-80.01
X157.48Y-90.17
X158.75Y-143.5
X160.02Y-58.42
X160.45Y-139.8
X162.56Y-58.42
X172.72Y-58.42
X174.951Y-143.855
X175.26Y-58.42
X177.491Y-143.855
X177.8Y-58.42
X180.031Y-143.855
X114.2Y-112.44
X114.2Y-132.76
X116.0Y-98.6
X122.174Y-111.379
X136.32Y-98.6
X142.494Y-111.379
X142.84Y-127.0
X148.082Y-90.805
X148.082Y-111.125
X163.16Y-127.0
X170.053Y-93.345
X170.053Y-113.665
G00X113.0Y-139.7
M15
G01X115.6Y-139.7
M16
G05
G00X113.2Y-146.0
M15
G01X115.4Y-146.0
M16
G05
G00X119.1Y-141.5
M15
G01X119.1Y-143.7
M16
G05
M30
