M48
; DRILL file {KiCad 7.0.11-7.0.11~ubuntu22.04.1} date qui 25 jul 2024 22:55:14
; FORMAT={-:-/ absolute / metric / decimal}
; #@! TF.CreationDate,2024-07-25T22:55:14-03:00
; #@! TF.GenerationSoftware,Kicad,Pcbnew,7.0.11-7.0.11~ubuntu22.04.1
; #@! TF.FileFunction,Plated,1,2,PTH
FMAT,2
METRIC
; #@! TA.AperFunction,Plated,PTH,ViaDrill
T1C0.600
; #@! TA.AperFunction,Plated,PTH,ComponentDrill
T2C0.800
; #@! TA.AperFunction,Plated,PTH,ComponentDrill
T3C0.813
; #@! TA.AperFunction,Plated,PTH,ComponentDrill
T4C1.000
; #@! TA.AperFunction,Plated,PTH,ComponentDrill
T5C1.100
%
G90
G05
T1
X211.131Y-88.98
T2
X203.08Y-95.3
X203.1Y-98.5
X203.8Y-84.39
X203.8Y-92.01
X206.0Y-102.6
X206.0Y-110.22
X207.0Y-84.39
X207.0Y-92.01
X210.2Y-84.39
X210.2Y-92.01
X210.7Y-95.3
X210.7Y-102.6
X210.7Y-110.22
X210.72Y-98.5
X214.1Y-102.81
X214.1Y-105.35
X214.1Y-107.89
X214.1Y-110.43
X214.49Y-97.4
X221.72Y-102.81
X221.72Y-105.35
X221.72Y-107.89
X221.72Y-110.43
X222.11Y-97.4
X222.99Y-84.8
X223.395Y-89.5
X225.05Y-93.49
X225.05Y-101.11
X225.895Y-89.5
X228.25Y-93.49
X228.25Y-101.11
X230.6Y-88.195
X230.6Y-90.695
X230.61Y-84.8
T3
X213.0Y-84.46
X213.0Y-87.0
X213.0Y-89.54
X213.0Y-92.08
X220.62Y-84.46
X220.62Y-87.0
X220.62Y-89.54
X220.62Y-92.08
T4
X199.25Y-84.64
X199.25Y-87.18
X199.25Y-89.72
X199.25Y-92.26
X199.25Y-94.8
X199.25Y-97.34
X199.25Y-99.88
X199.25Y-104.895
X199.25Y-107.435
X199.25Y-109.975
X236.65Y-84.97
X236.65Y-87.51
X236.65Y-90.05
X236.65Y-92.59
X236.65Y-95.13
T5
X225.208Y-109.592
X229.658Y-109.892
X232.392Y-102.408
X236.842Y-102.708
M30
