%TF.GenerationSoftware,KiCad,Pcbnew,7.0.10-7.0.10~ubuntu20.04.1*%
%TF.CreationDate,2024-06-13T14:44:52-03:00*%
%TF.ProjectId,Fonte_corrente_mono_V01b_compacto,466f6e74-655f-4636-9f72-72656e74655f,rev?*%
%TF.SameCoordinates,Original*%
%TF.FileFunction,Drillmap*%
%TF.FilePolarity,Positive*%
%FSLAX45Y45*%
G04 Gerber Fmt 4.5, Leading zero omitted, Abs format (unit mm)*
G04 Created by KiCad (PCBNEW 7.0.10-7.0.10~ubuntu20.04.1) date 2024-06-13 14:44:52*
%MOMM*%
%LPD*%
G01*
G04 APERTURE LIST*
%ADD10C,0.150000*%
%ADD11C,0.200000*%
%ADD12C,0.100000*%
%ADD13C,0.110000*%
G04 APERTURE END LIST*
D10*
X19520000Y-11230000D02*
X24020000Y-11230000D01*
X19520000Y-8230000D02*
X24020000Y-8230000D01*
X19520000Y-11230000D02*
X19520000Y-8230000D01*
X24020000Y-11230000D02*
X24020000Y-8230000D01*
D11*
D12*
X21083150Y-8867950D02*
X21143150Y-8927950D01*
X21143150Y-8867950D02*
X21083150Y-8927950D01*
X20348000Y-9530000D02*
G75*
G03*
X20268000Y-9530000I-40000J0D01*
G01*
X20268000Y-9530000D02*
G75*
G03*
X20348000Y-9530000I40000J0D01*
G01*
X20350000Y-9850000D02*
G75*
G03*
X20270000Y-9850000I-40000J0D01*
G01*
X20270000Y-9850000D02*
G75*
G03*
X20350000Y-9850000I40000J0D01*
G01*
X20420000Y-8439000D02*
G75*
G03*
X20340000Y-8439000I-40000J0D01*
G01*
X20340000Y-8439000D02*
G75*
G03*
X20420000Y-8439000I40000J0D01*
G01*
X20420000Y-9201000D02*
G75*
G03*
X20340000Y-9201000I-40000J0D01*
G01*
X20340000Y-9201000D02*
G75*
G03*
X20420000Y-9201000I40000J0D01*
G01*
X20640000Y-10260000D02*
G75*
G03*
X20560000Y-10260000I-40000J0D01*
G01*
X20560000Y-10260000D02*
G75*
G03*
X20640000Y-10260000I40000J0D01*
G01*
X20640000Y-11022000D02*
G75*
G03*
X20560000Y-11022000I-40000J0D01*
G01*
X20560000Y-11022000D02*
G75*
G03*
X20640000Y-11022000I40000J0D01*
G01*
X20740000Y-8439000D02*
G75*
G03*
X20660000Y-8439000I-40000J0D01*
G01*
X20660000Y-8439000D02*
G75*
G03*
X20740000Y-8439000I40000J0D01*
G01*
X20740000Y-9201000D02*
G75*
G03*
X20660000Y-9201000I-40000J0D01*
G01*
X20660000Y-9201000D02*
G75*
G03*
X20740000Y-9201000I40000J0D01*
G01*
X21060000Y-8439000D02*
G75*
G03*
X20980000Y-8439000I-40000J0D01*
G01*
X20980000Y-8439000D02*
G75*
G03*
X21060000Y-8439000I40000J0D01*
G01*
X21060000Y-9201000D02*
G75*
G03*
X20980000Y-9201000I-40000J0D01*
G01*
X20980000Y-9201000D02*
G75*
G03*
X21060000Y-9201000I40000J0D01*
G01*
X21110000Y-9530000D02*
G75*
G03*
X21030000Y-9530000I-40000J0D01*
G01*
X21030000Y-9530000D02*
G75*
G03*
X21110000Y-9530000I40000J0D01*
G01*
X21110000Y-10260000D02*
G75*
G03*
X21030000Y-10260000I-40000J0D01*
G01*
X21030000Y-10260000D02*
G75*
G03*
X21110000Y-10260000I40000J0D01*
G01*
X21110000Y-11022000D02*
G75*
G03*
X21030000Y-11022000I-40000J0D01*
G01*
X21030000Y-11022000D02*
G75*
G03*
X21110000Y-11022000I40000J0D01*
G01*
X21112000Y-9850000D02*
G75*
G03*
X21032000Y-9850000I-40000J0D01*
G01*
X21032000Y-9850000D02*
G75*
G03*
X21112000Y-9850000I40000J0D01*
G01*
X21450000Y-10281000D02*
G75*
G03*
X21370000Y-10281000I-40000J0D01*
G01*
X21370000Y-10281000D02*
G75*
G03*
X21450000Y-10281000I40000J0D01*
G01*
X21450000Y-10535000D02*
G75*
G03*
X21370000Y-10535000I-40000J0D01*
G01*
X21370000Y-10535000D02*
G75*
G03*
X21450000Y-10535000I40000J0D01*
G01*
X21450000Y-10789000D02*
G75*
G03*
X21370000Y-10789000I-40000J0D01*
G01*
X21370000Y-10789000D02*
G75*
G03*
X21450000Y-10789000I40000J0D01*
G01*
X21450000Y-11043000D02*
G75*
G03*
X21370000Y-11043000I-40000J0D01*
G01*
X21370000Y-11043000D02*
G75*
G03*
X21450000Y-11043000I40000J0D01*
G01*
X21489000Y-9740000D02*
G75*
G03*
X21409000Y-9740000I-40000J0D01*
G01*
X21409000Y-9740000D02*
G75*
G03*
X21489000Y-9740000I40000J0D01*
G01*
X22212000Y-10281000D02*
G75*
G03*
X22132000Y-10281000I-40000J0D01*
G01*
X22132000Y-10281000D02*
G75*
G03*
X22212000Y-10281000I40000J0D01*
G01*
X22212000Y-10535000D02*
G75*
G03*
X22132000Y-10535000I-40000J0D01*
G01*
X22132000Y-10535000D02*
G75*
G03*
X22212000Y-10535000I40000J0D01*
G01*
X22212000Y-10789000D02*
G75*
G03*
X22132000Y-10789000I-40000J0D01*
G01*
X22132000Y-10789000D02*
G75*
G03*
X22212000Y-10789000I40000J0D01*
G01*
X22212000Y-11043000D02*
G75*
G03*
X22132000Y-11043000I-40000J0D01*
G01*
X22132000Y-11043000D02*
G75*
G03*
X22212000Y-11043000I40000J0D01*
G01*
X22251000Y-9740000D02*
G75*
G03*
X22171000Y-9740000I-40000J0D01*
G01*
X22171000Y-9740000D02*
G75*
G03*
X22251000Y-9740000I40000J0D01*
G01*
X22339000Y-8480000D02*
G75*
G03*
X22259000Y-8480000I-40000J0D01*
G01*
X22259000Y-8480000D02*
G75*
G03*
X22339000Y-8480000I40000J0D01*
G01*
X22379490Y-8950000D02*
G75*
G03*
X22299490Y-8950000I-40000J0D01*
G01*
X22299490Y-8950000D02*
G75*
G03*
X22379490Y-8950000I40000J0D01*
G01*
X22545000Y-9349000D02*
G75*
G03*
X22465000Y-9349000I-40000J0D01*
G01*
X22465000Y-9349000D02*
G75*
G03*
X22545000Y-9349000I40000J0D01*
G01*
X22545000Y-10111000D02*
G75*
G03*
X22465000Y-10111000I-40000J0D01*
G01*
X22465000Y-10111000D02*
G75*
G03*
X22545000Y-10111000I40000J0D01*
G01*
X22629490Y-8950000D02*
G75*
G03*
X22549490Y-8950000I-40000J0D01*
G01*
X22549490Y-8950000D02*
G75*
G03*
X22629490Y-8950000I40000J0D01*
G01*
X22865000Y-9349000D02*
G75*
G03*
X22785000Y-9349000I-40000J0D01*
G01*
X22785000Y-9349000D02*
G75*
G03*
X22865000Y-9349000I40000J0D01*
G01*
X22865000Y-10111000D02*
G75*
G03*
X22785000Y-10111000I-40000J0D01*
G01*
X22785000Y-10111000D02*
G75*
G03*
X22865000Y-10111000I40000J0D01*
G01*
X23100000Y-8819490D02*
G75*
G03*
X23020000Y-8819490I-40000J0D01*
G01*
X23020000Y-8819490D02*
G75*
G03*
X23100000Y-8819490I40000J0D01*
G01*
X23100000Y-9069490D02*
G75*
G03*
X23020000Y-9069490I-40000J0D01*
G01*
X23020000Y-9069490D02*
G75*
G03*
X23100000Y-9069490I40000J0D01*
G01*
X23101000Y-8480000D02*
G75*
G03*
X23021000Y-8480000I-40000J0D01*
G01*
X23021000Y-8480000D02*
G75*
G03*
X23101000Y-8480000I40000J0D01*
G01*
X21300000Y-8405360D02*
X21300000Y-8486640D01*
X21259360Y-8446000D02*
X21340640Y-8446000D01*
X21300000Y-8659360D02*
X21300000Y-8740640D01*
X21259360Y-8700000D02*
X21340640Y-8700000D01*
X21300000Y-8913360D02*
X21300000Y-8994640D01*
X21259360Y-8954000D02*
X21340640Y-8954000D01*
X21300000Y-9167360D02*
X21300000Y-9248640D01*
X21259360Y-9208000D02*
X21340640Y-9208000D01*
X22062000Y-8405360D02*
X22062000Y-8486640D01*
X22021360Y-8446000D02*
X22102640Y-8446000D01*
X22062000Y-8659360D02*
X22062000Y-8740640D01*
X22021360Y-8700000D02*
X22102640Y-8700000D01*
X22062000Y-8913360D02*
X22062000Y-8994640D01*
X22021360Y-8954000D02*
X22102640Y-8954000D01*
X22062000Y-9167360D02*
X22062000Y-9248640D01*
X22021360Y-9208000D02*
X22102640Y-9208000D01*
X19960356Y-8499356D02*
X19960356Y-8428644D01*
X19889644Y-8428644D01*
X19889644Y-8499356D01*
X19960356Y-8499356D01*
X19960356Y-8753356D02*
X19960356Y-8682644D01*
X19889644Y-8682644D01*
X19889644Y-8753356D01*
X19960356Y-8753356D01*
X19960356Y-9007356D02*
X19960356Y-8936644D01*
X19889644Y-8936644D01*
X19889644Y-9007356D01*
X19960356Y-9007356D01*
X19960356Y-9261356D02*
X19960356Y-9190644D01*
X19889644Y-9190644D01*
X19889644Y-9261356D01*
X19960356Y-9261356D01*
X19960356Y-9515356D02*
X19960356Y-9444644D01*
X19889644Y-9444644D01*
X19889644Y-9515356D01*
X19960356Y-9515356D01*
X19960356Y-9769356D02*
X19960356Y-9698644D01*
X19889644Y-9698644D01*
X19889644Y-9769356D01*
X19960356Y-9769356D01*
X19960356Y-10023356D02*
X19960356Y-9952644D01*
X19889644Y-9952644D01*
X19889644Y-10023356D01*
X19960356Y-10023356D01*
X19960356Y-10524856D02*
X19960356Y-10454144D01*
X19889644Y-10454144D01*
X19889644Y-10524856D01*
X19960356Y-10524856D01*
X19960356Y-10778856D02*
X19960356Y-10708144D01*
X19889644Y-10708144D01*
X19889644Y-10778856D01*
X19960356Y-10778856D01*
X19960356Y-11032856D02*
X19960356Y-10962144D01*
X19889644Y-10962144D01*
X19889644Y-11032856D01*
X19960356Y-11032856D01*
X23700356Y-8532356D02*
X23700356Y-8461644D01*
X23629644Y-8461644D01*
X23629644Y-8532356D01*
X23700356Y-8532356D01*
X23700356Y-8786356D02*
X23700356Y-8715644D01*
X23629644Y-8715644D01*
X23629644Y-8786356D01*
X23700356Y-8786356D01*
X23700356Y-9040356D02*
X23700356Y-8969644D01*
X23629644Y-8969644D01*
X23629644Y-9040356D01*
X23700356Y-9040356D01*
X23700356Y-9294356D02*
X23700356Y-9223644D01*
X23629644Y-9223644D01*
X23629644Y-9294356D01*
X23700356Y-9294356D01*
X23700356Y-9548356D02*
X23700356Y-9477644D01*
X23629644Y-9477644D01*
X23629644Y-9548356D01*
X23700356Y-9548356D01*
D13*
X22520789Y-11014211D02*
X22575789Y-10959211D01*
X22520789Y-10904211D01*
X22465789Y-10959211D01*
X22520789Y-11014211D01*
X22965790Y-11044210D02*
X23020790Y-10989210D01*
X22965790Y-10934210D01*
X22910790Y-10989210D01*
X22965790Y-11044210D01*
X23239210Y-10295790D02*
X23294210Y-10240790D01*
X23239210Y-10185790D01*
X23184210Y-10240790D01*
X23239210Y-10295790D01*
X23684210Y-10325790D02*
X23739210Y-10270790D01*
X23684210Y-10215790D01*
X23629210Y-10270790D01*
X23684210Y-10325790D01*
D11*
X19773277Y-11548984D02*
X19773277Y-11348984D01*
X19773277Y-11348984D02*
X19820896Y-11348984D01*
X19820896Y-11348984D02*
X19849467Y-11358508D01*
X19849467Y-11358508D02*
X19868515Y-11377555D01*
X19868515Y-11377555D02*
X19878039Y-11396603D01*
X19878039Y-11396603D02*
X19887563Y-11434698D01*
X19887563Y-11434698D02*
X19887563Y-11463269D01*
X19887563Y-11463269D02*
X19878039Y-11501365D01*
X19878039Y-11501365D02*
X19868515Y-11520412D01*
X19868515Y-11520412D02*
X19849467Y-11539460D01*
X19849467Y-11539460D02*
X19820896Y-11548984D01*
X19820896Y-11548984D02*
X19773277Y-11548984D01*
X19973277Y-11548984D02*
X19973277Y-11415650D01*
X19973277Y-11453746D02*
X19982801Y-11434698D01*
X19982801Y-11434698D02*
X19992324Y-11425174D01*
X19992324Y-11425174D02*
X20011372Y-11415650D01*
X20011372Y-11415650D02*
X20030420Y-11415650D01*
X20097086Y-11548984D02*
X20097086Y-11415650D01*
X20097086Y-11348984D02*
X20087563Y-11358508D01*
X20087563Y-11358508D02*
X20097086Y-11368031D01*
X20097086Y-11368031D02*
X20106610Y-11358508D01*
X20106610Y-11358508D02*
X20097086Y-11348984D01*
X20097086Y-11348984D02*
X20097086Y-11368031D01*
X20220896Y-11548984D02*
X20201848Y-11539460D01*
X20201848Y-11539460D02*
X20192324Y-11520412D01*
X20192324Y-11520412D02*
X20192324Y-11348984D01*
X20325658Y-11548984D02*
X20306610Y-11539460D01*
X20306610Y-11539460D02*
X20297086Y-11520412D01*
X20297086Y-11520412D02*
X20297086Y-11348984D01*
X20554229Y-11548984D02*
X20554229Y-11348984D01*
X20554229Y-11348984D02*
X20620896Y-11491841D01*
X20620896Y-11491841D02*
X20687563Y-11348984D01*
X20687563Y-11348984D02*
X20687563Y-11548984D01*
X20868515Y-11548984D02*
X20868515Y-11444222D01*
X20868515Y-11444222D02*
X20858991Y-11425174D01*
X20858991Y-11425174D02*
X20839944Y-11415650D01*
X20839944Y-11415650D02*
X20801848Y-11415650D01*
X20801848Y-11415650D02*
X20782801Y-11425174D01*
X20868515Y-11539460D02*
X20849467Y-11548984D01*
X20849467Y-11548984D02*
X20801848Y-11548984D01*
X20801848Y-11548984D02*
X20782801Y-11539460D01*
X20782801Y-11539460D02*
X20773277Y-11520412D01*
X20773277Y-11520412D02*
X20773277Y-11501365D01*
X20773277Y-11501365D02*
X20782801Y-11482317D01*
X20782801Y-11482317D02*
X20801848Y-11472793D01*
X20801848Y-11472793D02*
X20849467Y-11472793D01*
X20849467Y-11472793D02*
X20868515Y-11463269D01*
X20963753Y-11415650D02*
X20963753Y-11615650D01*
X20963753Y-11425174D02*
X20982801Y-11415650D01*
X20982801Y-11415650D02*
X21020896Y-11415650D01*
X21020896Y-11415650D02*
X21039944Y-11425174D01*
X21039944Y-11425174D02*
X21049467Y-11434698D01*
X21049467Y-11434698D02*
X21058991Y-11453746D01*
X21058991Y-11453746D02*
X21058991Y-11510888D01*
X21058991Y-11510888D02*
X21049467Y-11529936D01*
X21049467Y-11529936D02*
X21039944Y-11539460D01*
X21039944Y-11539460D02*
X21020896Y-11548984D01*
X21020896Y-11548984D02*
X20982801Y-11548984D01*
X20982801Y-11548984D02*
X20963753Y-11539460D01*
X21144705Y-11529936D02*
X21154229Y-11539460D01*
X21154229Y-11539460D02*
X21144705Y-11548984D01*
X21144705Y-11548984D02*
X21135182Y-11539460D01*
X21135182Y-11539460D02*
X21144705Y-11529936D01*
X21144705Y-11529936D02*
X21144705Y-11548984D01*
X21144705Y-11425174D02*
X21154229Y-11434698D01*
X21154229Y-11434698D02*
X21144705Y-11444222D01*
X21144705Y-11444222D02*
X21135182Y-11434698D01*
X21135182Y-11434698D02*
X21144705Y-11425174D01*
X21144705Y-11425174D02*
X21144705Y-11444222D01*
D12*
X19452500Y-11847500D02*
X19512500Y-11907500D01*
X19512500Y-11847500D02*
X19452500Y-11907500D01*
D11*
X19811372Y-11768984D02*
X19830420Y-11768984D01*
X19830420Y-11768984D02*
X19849467Y-11778508D01*
X19849467Y-11778508D02*
X19858991Y-11788031D01*
X19858991Y-11788031D02*
X19868515Y-11807079D01*
X19868515Y-11807079D02*
X19878039Y-11845174D01*
X19878039Y-11845174D02*
X19878039Y-11892793D01*
X19878039Y-11892793D02*
X19868515Y-11930888D01*
X19868515Y-11930888D02*
X19858991Y-11949936D01*
X19858991Y-11949936D02*
X19849467Y-11959460D01*
X19849467Y-11959460D02*
X19830420Y-11968984D01*
X19830420Y-11968984D02*
X19811372Y-11968984D01*
X19811372Y-11968984D02*
X19792324Y-11959460D01*
X19792324Y-11959460D02*
X19782801Y-11949936D01*
X19782801Y-11949936D02*
X19773277Y-11930888D01*
X19773277Y-11930888D02*
X19763753Y-11892793D01*
X19763753Y-11892793D02*
X19763753Y-11845174D01*
X19763753Y-11845174D02*
X19773277Y-11807079D01*
X19773277Y-11807079D02*
X19782801Y-11788031D01*
X19782801Y-11788031D02*
X19792324Y-11778508D01*
X19792324Y-11778508D02*
X19811372Y-11768984D01*
X19963753Y-11949936D02*
X19973277Y-11959460D01*
X19973277Y-11959460D02*
X19963753Y-11968984D01*
X19963753Y-11968984D02*
X19954229Y-11959460D01*
X19954229Y-11959460D02*
X19963753Y-11949936D01*
X19963753Y-11949936D02*
X19963753Y-11968984D01*
X20144705Y-11768984D02*
X20106610Y-11768984D01*
X20106610Y-11768984D02*
X20087563Y-11778508D01*
X20087563Y-11778508D02*
X20078039Y-11788031D01*
X20078039Y-11788031D02*
X20058991Y-11816603D01*
X20058991Y-11816603D02*
X20049467Y-11854698D01*
X20049467Y-11854698D02*
X20049467Y-11930888D01*
X20049467Y-11930888D02*
X20058991Y-11949936D01*
X20058991Y-11949936D02*
X20068515Y-11959460D01*
X20068515Y-11959460D02*
X20087563Y-11968984D01*
X20087563Y-11968984D02*
X20125658Y-11968984D01*
X20125658Y-11968984D02*
X20144705Y-11959460D01*
X20144705Y-11959460D02*
X20154229Y-11949936D01*
X20154229Y-11949936D02*
X20163753Y-11930888D01*
X20163753Y-11930888D02*
X20163753Y-11883269D01*
X20163753Y-11883269D02*
X20154229Y-11864222D01*
X20154229Y-11864222D02*
X20144705Y-11854698D01*
X20144705Y-11854698D02*
X20125658Y-11845174D01*
X20125658Y-11845174D02*
X20087563Y-11845174D01*
X20087563Y-11845174D02*
X20068515Y-11854698D01*
X20068515Y-11854698D02*
X20058991Y-11864222D01*
X20058991Y-11864222D02*
X20049467Y-11883269D01*
X20287563Y-11768984D02*
X20306610Y-11768984D01*
X20306610Y-11768984D02*
X20325658Y-11778508D01*
X20325658Y-11778508D02*
X20335182Y-11788031D01*
X20335182Y-11788031D02*
X20344705Y-11807079D01*
X20344705Y-11807079D02*
X20354229Y-11845174D01*
X20354229Y-11845174D02*
X20354229Y-11892793D01*
X20354229Y-11892793D02*
X20344705Y-11930888D01*
X20344705Y-11930888D02*
X20335182Y-11949936D01*
X20335182Y-11949936D02*
X20325658Y-11959460D01*
X20325658Y-11959460D02*
X20306610Y-11968984D01*
X20306610Y-11968984D02*
X20287563Y-11968984D01*
X20287563Y-11968984D02*
X20268515Y-11959460D01*
X20268515Y-11959460D02*
X20258991Y-11949936D01*
X20258991Y-11949936D02*
X20249467Y-11930888D01*
X20249467Y-11930888D02*
X20239944Y-11892793D01*
X20239944Y-11892793D02*
X20239944Y-11845174D01*
X20239944Y-11845174D02*
X20249467Y-11807079D01*
X20249467Y-11807079D02*
X20258991Y-11788031D01*
X20258991Y-11788031D02*
X20268515Y-11778508D01*
X20268515Y-11778508D02*
X20287563Y-11768984D01*
X20478039Y-11768984D02*
X20497086Y-11768984D01*
X20497086Y-11768984D02*
X20516134Y-11778508D01*
X20516134Y-11778508D02*
X20525658Y-11788031D01*
X20525658Y-11788031D02*
X20535182Y-11807079D01*
X20535182Y-11807079D02*
X20544705Y-11845174D01*
X20544705Y-11845174D02*
X20544705Y-11892793D01*
X20544705Y-11892793D02*
X20535182Y-11930888D01*
X20535182Y-11930888D02*
X20525658Y-11949936D01*
X20525658Y-11949936D02*
X20516134Y-11959460D01*
X20516134Y-11959460D02*
X20497086Y-11968984D01*
X20497086Y-11968984D02*
X20478039Y-11968984D01*
X20478039Y-11968984D02*
X20458991Y-11959460D01*
X20458991Y-11959460D02*
X20449467Y-11949936D01*
X20449467Y-11949936D02*
X20439944Y-11930888D01*
X20439944Y-11930888D02*
X20430420Y-11892793D01*
X20430420Y-11892793D02*
X20430420Y-11845174D01*
X20430420Y-11845174D02*
X20439944Y-11807079D01*
X20439944Y-11807079D02*
X20449467Y-11788031D01*
X20449467Y-11788031D02*
X20458991Y-11778508D01*
X20458991Y-11778508D02*
X20478039Y-11768984D01*
X20630420Y-11968984D02*
X20630420Y-11835650D01*
X20630420Y-11854698D02*
X20639944Y-11845174D01*
X20639944Y-11845174D02*
X20658991Y-11835650D01*
X20658991Y-11835650D02*
X20687563Y-11835650D01*
X20687563Y-11835650D02*
X20706610Y-11845174D01*
X20706610Y-11845174D02*
X20716134Y-11864222D01*
X20716134Y-11864222D02*
X20716134Y-11968984D01*
X20716134Y-11864222D02*
X20725658Y-11845174D01*
X20725658Y-11845174D02*
X20744705Y-11835650D01*
X20744705Y-11835650D02*
X20773277Y-11835650D01*
X20773277Y-11835650D02*
X20792325Y-11845174D01*
X20792325Y-11845174D02*
X20801848Y-11864222D01*
X20801848Y-11864222D02*
X20801848Y-11968984D01*
X20897086Y-11968984D02*
X20897086Y-11835650D01*
X20897086Y-11854698D02*
X20906610Y-11845174D01*
X20906610Y-11845174D02*
X20925658Y-11835650D01*
X20925658Y-11835650D02*
X20954229Y-11835650D01*
X20954229Y-11835650D02*
X20973277Y-11845174D01*
X20973277Y-11845174D02*
X20982801Y-11864222D01*
X20982801Y-11864222D02*
X20982801Y-11968984D01*
X20982801Y-11864222D02*
X20992325Y-11845174D01*
X20992325Y-11845174D02*
X21011372Y-11835650D01*
X21011372Y-11835650D02*
X21039944Y-11835650D01*
X21039944Y-11835650D02*
X21058991Y-11845174D01*
X21058991Y-11845174D02*
X21068515Y-11864222D01*
X21068515Y-11864222D02*
X21068515Y-11968984D01*
X21458991Y-11759460D02*
X21287563Y-12016603D01*
X21716134Y-11768984D02*
X21735182Y-11768984D01*
X21735182Y-11768984D02*
X21754229Y-11778508D01*
X21754229Y-11778508D02*
X21763753Y-11788031D01*
X21763753Y-11788031D02*
X21773277Y-11807079D01*
X21773277Y-11807079D02*
X21782801Y-11845174D01*
X21782801Y-11845174D02*
X21782801Y-11892793D01*
X21782801Y-11892793D02*
X21773277Y-11930888D01*
X21773277Y-11930888D02*
X21763753Y-11949936D01*
X21763753Y-11949936D02*
X21754229Y-11959460D01*
X21754229Y-11959460D02*
X21735182Y-11968984D01*
X21735182Y-11968984D02*
X21716134Y-11968984D01*
X21716134Y-11968984D02*
X21697087Y-11959460D01*
X21697087Y-11959460D02*
X21687563Y-11949936D01*
X21687563Y-11949936D02*
X21678039Y-11930888D01*
X21678039Y-11930888D02*
X21668515Y-11892793D01*
X21668515Y-11892793D02*
X21668515Y-11845174D01*
X21668515Y-11845174D02*
X21678039Y-11807079D01*
X21678039Y-11807079D02*
X21687563Y-11788031D01*
X21687563Y-11788031D02*
X21697087Y-11778508D01*
X21697087Y-11778508D02*
X21716134Y-11768984D01*
X21868515Y-11949936D02*
X21878039Y-11959460D01*
X21878039Y-11959460D02*
X21868515Y-11968984D01*
X21868515Y-11968984D02*
X21858991Y-11959460D01*
X21858991Y-11959460D02*
X21868515Y-11949936D01*
X21868515Y-11949936D02*
X21868515Y-11968984D01*
X22001848Y-11768984D02*
X22020896Y-11768984D01*
X22020896Y-11768984D02*
X22039944Y-11778508D01*
X22039944Y-11778508D02*
X22049468Y-11788031D01*
X22049468Y-11788031D02*
X22058991Y-11807079D01*
X22058991Y-11807079D02*
X22068515Y-11845174D01*
X22068515Y-11845174D02*
X22068515Y-11892793D01*
X22068515Y-11892793D02*
X22058991Y-11930888D01*
X22058991Y-11930888D02*
X22049468Y-11949936D01*
X22049468Y-11949936D02*
X22039944Y-11959460D01*
X22039944Y-11959460D02*
X22020896Y-11968984D01*
X22020896Y-11968984D02*
X22001848Y-11968984D01*
X22001848Y-11968984D02*
X21982801Y-11959460D01*
X21982801Y-11959460D02*
X21973277Y-11949936D01*
X21973277Y-11949936D02*
X21963753Y-11930888D01*
X21963753Y-11930888D02*
X21954229Y-11892793D01*
X21954229Y-11892793D02*
X21954229Y-11845174D01*
X21954229Y-11845174D02*
X21963753Y-11807079D01*
X21963753Y-11807079D02*
X21973277Y-11788031D01*
X21973277Y-11788031D02*
X21982801Y-11778508D01*
X21982801Y-11778508D02*
X22001848Y-11768984D01*
X22144706Y-11788031D02*
X22154229Y-11778508D01*
X22154229Y-11778508D02*
X22173277Y-11768984D01*
X22173277Y-11768984D02*
X22220896Y-11768984D01*
X22220896Y-11768984D02*
X22239944Y-11778508D01*
X22239944Y-11778508D02*
X22249468Y-11788031D01*
X22249468Y-11788031D02*
X22258991Y-11807079D01*
X22258991Y-11807079D02*
X22258991Y-11826127D01*
X22258991Y-11826127D02*
X22249468Y-11854698D01*
X22249468Y-11854698D02*
X22135182Y-11968984D01*
X22135182Y-11968984D02*
X22258991Y-11968984D01*
X22325658Y-11768984D02*
X22449467Y-11768984D01*
X22449467Y-11768984D02*
X22382801Y-11845174D01*
X22382801Y-11845174D02*
X22411372Y-11845174D01*
X22411372Y-11845174D02*
X22430420Y-11854698D01*
X22430420Y-11854698D02*
X22439944Y-11864222D01*
X22439944Y-11864222D02*
X22449467Y-11883269D01*
X22449467Y-11883269D02*
X22449467Y-11930888D01*
X22449467Y-11930888D02*
X22439944Y-11949936D01*
X22439944Y-11949936D02*
X22430420Y-11959460D01*
X22430420Y-11959460D02*
X22411372Y-11968984D01*
X22411372Y-11968984D02*
X22354229Y-11968984D01*
X22354229Y-11968984D02*
X22335182Y-11959460D01*
X22335182Y-11959460D02*
X22325658Y-11949936D01*
X22620896Y-11768984D02*
X22582801Y-11768984D01*
X22582801Y-11768984D02*
X22563753Y-11778508D01*
X22563753Y-11778508D02*
X22554229Y-11788031D01*
X22554229Y-11788031D02*
X22535182Y-11816603D01*
X22535182Y-11816603D02*
X22525658Y-11854698D01*
X22525658Y-11854698D02*
X22525658Y-11930888D01*
X22525658Y-11930888D02*
X22535182Y-11949936D01*
X22535182Y-11949936D02*
X22544706Y-11959460D01*
X22544706Y-11959460D02*
X22563753Y-11968984D01*
X22563753Y-11968984D02*
X22601848Y-11968984D01*
X22601848Y-11968984D02*
X22620896Y-11959460D01*
X22620896Y-11959460D02*
X22630420Y-11949936D01*
X22630420Y-11949936D02*
X22639944Y-11930888D01*
X22639944Y-11930888D02*
X22639944Y-11883269D01*
X22639944Y-11883269D02*
X22630420Y-11864222D01*
X22630420Y-11864222D02*
X22620896Y-11854698D01*
X22620896Y-11854698D02*
X22601848Y-11845174D01*
X22601848Y-11845174D02*
X22563753Y-11845174D01*
X22563753Y-11845174D02*
X22544706Y-11854698D01*
X22544706Y-11854698D02*
X22535182Y-11864222D01*
X22535182Y-11864222D02*
X22525658Y-11883269D01*
X22716134Y-11768984D02*
X22716134Y-11807079D01*
X22792325Y-11768984D02*
X22792325Y-11807079D01*
X23087563Y-12045174D02*
X23078039Y-12035650D01*
X23078039Y-12035650D02*
X23058991Y-12007079D01*
X23058991Y-12007079D02*
X23049468Y-11988031D01*
X23049468Y-11988031D02*
X23039944Y-11959460D01*
X23039944Y-11959460D02*
X23030420Y-11911841D01*
X23030420Y-11911841D02*
X23030420Y-11873746D01*
X23030420Y-11873746D02*
X23039944Y-11826127D01*
X23039944Y-11826127D02*
X23049468Y-11797555D01*
X23049468Y-11797555D02*
X23058991Y-11778508D01*
X23058991Y-11778508D02*
X23078039Y-11749936D01*
X23078039Y-11749936D02*
X23087563Y-11740412D01*
X23268515Y-11968984D02*
X23154229Y-11968984D01*
X23211372Y-11968984D02*
X23211372Y-11768984D01*
X23211372Y-11768984D02*
X23192325Y-11797555D01*
X23192325Y-11797555D02*
X23173277Y-11816603D01*
X23173277Y-11816603D02*
X23154229Y-11826127D01*
X23506610Y-11968984D02*
X23506610Y-11768984D01*
X23592325Y-11968984D02*
X23592325Y-11864222D01*
X23592325Y-11864222D02*
X23582801Y-11845174D01*
X23582801Y-11845174D02*
X23563753Y-11835650D01*
X23563753Y-11835650D02*
X23535182Y-11835650D01*
X23535182Y-11835650D02*
X23516134Y-11845174D01*
X23516134Y-11845174D02*
X23506610Y-11854698D01*
X23716134Y-11968984D02*
X23697087Y-11959460D01*
X23697087Y-11959460D02*
X23687563Y-11949936D01*
X23687563Y-11949936D02*
X23678039Y-11930888D01*
X23678039Y-11930888D02*
X23678039Y-11873746D01*
X23678039Y-11873746D02*
X23687563Y-11854698D01*
X23687563Y-11854698D02*
X23697087Y-11845174D01*
X23697087Y-11845174D02*
X23716134Y-11835650D01*
X23716134Y-11835650D02*
X23744706Y-11835650D01*
X23744706Y-11835650D02*
X23763753Y-11845174D01*
X23763753Y-11845174D02*
X23773277Y-11854698D01*
X23773277Y-11854698D02*
X23782801Y-11873746D01*
X23782801Y-11873746D02*
X23782801Y-11930888D01*
X23782801Y-11930888D02*
X23773277Y-11949936D01*
X23773277Y-11949936D02*
X23763753Y-11959460D01*
X23763753Y-11959460D02*
X23744706Y-11968984D01*
X23744706Y-11968984D02*
X23716134Y-11968984D01*
X23897087Y-11968984D02*
X23878039Y-11959460D01*
X23878039Y-11959460D02*
X23868515Y-11940412D01*
X23868515Y-11940412D02*
X23868515Y-11768984D01*
X24049468Y-11959460D02*
X24030420Y-11968984D01*
X24030420Y-11968984D02*
X23992325Y-11968984D01*
X23992325Y-11968984D02*
X23973277Y-11959460D01*
X23973277Y-11959460D02*
X23963753Y-11940412D01*
X23963753Y-11940412D02*
X23963753Y-11864222D01*
X23963753Y-11864222D02*
X23973277Y-11845174D01*
X23973277Y-11845174D02*
X23992325Y-11835650D01*
X23992325Y-11835650D02*
X24030420Y-11835650D01*
X24030420Y-11835650D02*
X24049468Y-11845174D01*
X24049468Y-11845174D02*
X24058991Y-11864222D01*
X24058991Y-11864222D02*
X24058991Y-11883269D01*
X24058991Y-11883269D02*
X23963753Y-11902317D01*
X24125658Y-12045174D02*
X24135182Y-12035650D01*
X24135182Y-12035650D02*
X24154230Y-12007079D01*
X24154230Y-12007079D02*
X24163753Y-11988031D01*
X24163753Y-11988031D02*
X24173277Y-11959460D01*
X24173277Y-11959460D02*
X24182801Y-11911841D01*
X24182801Y-11911841D02*
X24182801Y-11873746D01*
X24182801Y-11873746D02*
X24173277Y-11826127D01*
X24173277Y-11826127D02*
X24163753Y-11797555D01*
X24163753Y-11797555D02*
X24154230Y-11778508D01*
X24154230Y-11778508D02*
X24135182Y-11749936D01*
X24135182Y-11749936D02*
X24125658Y-11740412D01*
D12*
X19512500Y-12141500D02*
G75*
G03*
X19432500Y-12141500I-40000J0D01*
G01*
X19432500Y-12141500D02*
G75*
G03*
X19512500Y-12141500I40000J0D01*
G01*
D11*
X19811372Y-12032984D02*
X19830420Y-12032984D01*
X19830420Y-12032984D02*
X19849467Y-12042508D01*
X19849467Y-12042508D02*
X19858991Y-12052031D01*
X19858991Y-12052031D02*
X19868515Y-12071079D01*
X19868515Y-12071079D02*
X19878039Y-12109174D01*
X19878039Y-12109174D02*
X19878039Y-12156793D01*
X19878039Y-12156793D02*
X19868515Y-12194888D01*
X19868515Y-12194888D02*
X19858991Y-12213936D01*
X19858991Y-12213936D02*
X19849467Y-12223460D01*
X19849467Y-12223460D02*
X19830420Y-12232984D01*
X19830420Y-12232984D02*
X19811372Y-12232984D01*
X19811372Y-12232984D02*
X19792324Y-12223460D01*
X19792324Y-12223460D02*
X19782801Y-12213936D01*
X19782801Y-12213936D02*
X19773277Y-12194888D01*
X19773277Y-12194888D02*
X19763753Y-12156793D01*
X19763753Y-12156793D02*
X19763753Y-12109174D01*
X19763753Y-12109174D02*
X19773277Y-12071079D01*
X19773277Y-12071079D02*
X19782801Y-12052031D01*
X19782801Y-12052031D02*
X19792324Y-12042508D01*
X19792324Y-12042508D02*
X19811372Y-12032984D01*
X19963753Y-12213936D02*
X19973277Y-12223460D01*
X19973277Y-12223460D02*
X19963753Y-12232984D01*
X19963753Y-12232984D02*
X19954229Y-12223460D01*
X19954229Y-12223460D02*
X19963753Y-12213936D01*
X19963753Y-12213936D02*
X19963753Y-12232984D01*
X20087563Y-12118698D02*
X20068515Y-12109174D01*
X20068515Y-12109174D02*
X20058991Y-12099650D01*
X20058991Y-12099650D02*
X20049467Y-12080603D01*
X20049467Y-12080603D02*
X20049467Y-12071079D01*
X20049467Y-12071079D02*
X20058991Y-12052031D01*
X20058991Y-12052031D02*
X20068515Y-12042508D01*
X20068515Y-12042508D02*
X20087563Y-12032984D01*
X20087563Y-12032984D02*
X20125658Y-12032984D01*
X20125658Y-12032984D02*
X20144705Y-12042508D01*
X20144705Y-12042508D02*
X20154229Y-12052031D01*
X20154229Y-12052031D02*
X20163753Y-12071079D01*
X20163753Y-12071079D02*
X20163753Y-12080603D01*
X20163753Y-12080603D02*
X20154229Y-12099650D01*
X20154229Y-12099650D02*
X20144705Y-12109174D01*
X20144705Y-12109174D02*
X20125658Y-12118698D01*
X20125658Y-12118698D02*
X20087563Y-12118698D01*
X20087563Y-12118698D02*
X20068515Y-12128222D01*
X20068515Y-12128222D02*
X20058991Y-12137746D01*
X20058991Y-12137746D02*
X20049467Y-12156793D01*
X20049467Y-12156793D02*
X20049467Y-12194888D01*
X20049467Y-12194888D02*
X20058991Y-12213936D01*
X20058991Y-12213936D02*
X20068515Y-12223460D01*
X20068515Y-12223460D02*
X20087563Y-12232984D01*
X20087563Y-12232984D02*
X20125658Y-12232984D01*
X20125658Y-12232984D02*
X20144705Y-12223460D01*
X20144705Y-12223460D02*
X20154229Y-12213936D01*
X20154229Y-12213936D02*
X20163753Y-12194888D01*
X20163753Y-12194888D02*
X20163753Y-12156793D01*
X20163753Y-12156793D02*
X20154229Y-12137746D01*
X20154229Y-12137746D02*
X20144705Y-12128222D01*
X20144705Y-12128222D02*
X20125658Y-12118698D01*
X20287563Y-12032984D02*
X20306610Y-12032984D01*
X20306610Y-12032984D02*
X20325658Y-12042508D01*
X20325658Y-12042508D02*
X20335182Y-12052031D01*
X20335182Y-12052031D02*
X20344705Y-12071079D01*
X20344705Y-12071079D02*
X20354229Y-12109174D01*
X20354229Y-12109174D02*
X20354229Y-12156793D01*
X20354229Y-12156793D02*
X20344705Y-12194888D01*
X20344705Y-12194888D02*
X20335182Y-12213936D01*
X20335182Y-12213936D02*
X20325658Y-12223460D01*
X20325658Y-12223460D02*
X20306610Y-12232984D01*
X20306610Y-12232984D02*
X20287563Y-12232984D01*
X20287563Y-12232984D02*
X20268515Y-12223460D01*
X20268515Y-12223460D02*
X20258991Y-12213936D01*
X20258991Y-12213936D02*
X20249467Y-12194888D01*
X20249467Y-12194888D02*
X20239944Y-12156793D01*
X20239944Y-12156793D02*
X20239944Y-12109174D01*
X20239944Y-12109174D02*
X20249467Y-12071079D01*
X20249467Y-12071079D02*
X20258991Y-12052031D01*
X20258991Y-12052031D02*
X20268515Y-12042508D01*
X20268515Y-12042508D02*
X20287563Y-12032984D01*
X20478039Y-12032984D02*
X20497086Y-12032984D01*
X20497086Y-12032984D02*
X20516134Y-12042508D01*
X20516134Y-12042508D02*
X20525658Y-12052031D01*
X20525658Y-12052031D02*
X20535182Y-12071079D01*
X20535182Y-12071079D02*
X20544705Y-12109174D01*
X20544705Y-12109174D02*
X20544705Y-12156793D01*
X20544705Y-12156793D02*
X20535182Y-12194888D01*
X20535182Y-12194888D02*
X20525658Y-12213936D01*
X20525658Y-12213936D02*
X20516134Y-12223460D01*
X20516134Y-12223460D02*
X20497086Y-12232984D01*
X20497086Y-12232984D02*
X20478039Y-12232984D01*
X20478039Y-12232984D02*
X20458991Y-12223460D01*
X20458991Y-12223460D02*
X20449467Y-12213936D01*
X20449467Y-12213936D02*
X20439944Y-12194888D01*
X20439944Y-12194888D02*
X20430420Y-12156793D01*
X20430420Y-12156793D02*
X20430420Y-12109174D01*
X20430420Y-12109174D02*
X20439944Y-12071079D01*
X20439944Y-12071079D02*
X20449467Y-12052031D01*
X20449467Y-12052031D02*
X20458991Y-12042508D01*
X20458991Y-12042508D02*
X20478039Y-12032984D01*
X20630420Y-12232984D02*
X20630420Y-12099650D01*
X20630420Y-12118698D02*
X20639944Y-12109174D01*
X20639944Y-12109174D02*
X20658991Y-12099650D01*
X20658991Y-12099650D02*
X20687563Y-12099650D01*
X20687563Y-12099650D02*
X20706610Y-12109174D01*
X20706610Y-12109174D02*
X20716134Y-12128222D01*
X20716134Y-12128222D02*
X20716134Y-12232984D01*
X20716134Y-12128222D02*
X20725658Y-12109174D01*
X20725658Y-12109174D02*
X20744705Y-12099650D01*
X20744705Y-12099650D02*
X20773277Y-12099650D01*
X20773277Y-12099650D02*
X20792325Y-12109174D01*
X20792325Y-12109174D02*
X20801848Y-12128222D01*
X20801848Y-12128222D02*
X20801848Y-12232984D01*
X20897086Y-12232984D02*
X20897086Y-12099650D01*
X20897086Y-12118698D02*
X20906610Y-12109174D01*
X20906610Y-12109174D02*
X20925658Y-12099650D01*
X20925658Y-12099650D02*
X20954229Y-12099650D01*
X20954229Y-12099650D02*
X20973277Y-12109174D01*
X20973277Y-12109174D02*
X20982801Y-12128222D01*
X20982801Y-12128222D02*
X20982801Y-12232984D01*
X20982801Y-12128222D02*
X20992325Y-12109174D01*
X20992325Y-12109174D02*
X21011372Y-12099650D01*
X21011372Y-12099650D02*
X21039944Y-12099650D01*
X21039944Y-12099650D02*
X21058991Y-12109174D01*
X21058991Y-12109174D02*
X21068515Y-12128222D01*
X21068515Y-12128222D02*
X21068515Y-12232984D01*
X21458991Y-12023460D02*
X21287563Y-12280603D01*
X21716134Y-12032984D02*
X21735182Y-12032984D01*
X21735182Y-12032984D02*
X21754229Y-12042508D01*
X21754229Y-12042508D02*
X21763753Y-12052031D01*
X21763753Y-12052031D02*
X21773277Y-12071079D01*
X21773277Y-12071079D02*
X21782801Y-12109174D01*
X21782801Y-12109174D02*
X21782801Y-12156793D01*
X21782801Y-12156793D02*
X21773277Y-12194888D01*
X21773277Y-12194888D02*
X21763753Y-12213936D01*
X21763753Y-12213936D02*
X21754229Y-12223460D01*
X21754229Y-12223460D02*
X21735182Y-12232984D01*
X21735182Y-12232984D02*
X21716134Y-12232984D01*
X21716134Y-12232984D02*
X21697087Y-12223460D01*
X21697087Y-12223460D02*
X21687563Y-12213936D01*
X21687563Y-12213936D02*
X21678039Y-12194888D01*
X21678039Y-12194888D02*
X21668515Y-12156793D01*
X21668515Y-12156793D02*
X21668515Y-12109174D01*
X21668515Y-12109174D02*
X21678039Y-12071079D01*
X21678039Y-12071079D02*
X21687563Y-12052031D01*
X21687563Y-12052031D02*
X21697087Y-12042508D01*
X21697087Y-12042508D02*
X21716134Y-12032984D01*
X21868515Y-12213936D02*
X21878039Y-12223460D01*
X21878039Y-12223460D02*
X21868515Y-12232984D01*
X21868515Y-12232984D02*
X21858991Y-12223460D01*
X21858991Y-12223460D02*
X21868515Y-12213936D01*
X21868515Y-12213936D02*
X21868515Y-12232984D01*
X22001848Y-12032984D02*
X22020896Y-12032984D01*
X22020896Y-12032984D02*
X22039944Y-12042508D01*
X22039944Y-12042508D02*
X22049468Y-12052031D01*
X22049468Y-12052031D02*
X22058991Y-12071079D01*
X22058991Y-12071079D02*
X22068515Y-12109174D01*
X22068515Y-12109174D02*
X22068515Y-12156793D01*
X22068515Y-12156793D02*
X22058991Y-12194888D01*
X22058991Y-12194888D02*
X22049468Y-12213936D01*
X22049468Y-12213936D02*
X22039944Y-12223460D01*
X22039944Y-12223460D02*
X22020896Y-12232984D01*
X22020896Y-12232984D02*
X22001848Y-12232984D01*
X22001848Y-12232984D02*
X21982801Y-12223460D01*
X21982801Y-12223460D02*
X21973277Y-12213936D01*
X21973277Y-12213936D02*
X21963753Y-12194888D01*
X21963753Y-12194888D02*
X21954229Y-12156793D01*
X21954229Y-12156793D02*
X21954229Y-12109174D01*
X21954229Y-12109174D02*
X21963753Y-12071079D01*
X21963753Y-12071079D02*
X21973277Y-12052031D01*
X21973277Y-12052031D02*
X21982801Y-12042508D01*
X21982801Y-12042508D02*
X22001848Y-12032984D01*
X22135182Y-12032984D02*
X22258991Y-12032984D01*
X22258991Y-12032984D02*
X22192325Y-12109174D01*
X22192325Y-12109174D02*
X22220896Y-12109174D01*
X22220896Y-12109174D02*
X22239944Y-12118698D01*
X22239944Y-12118698D02*
X22249468Y-12128222D01*
X22249468Y-12128222D02*
X22258991Y-12147269D01*
X22258991Y-12147269D02*
X22258991Y-12194888D01*
X22258991Y-12194888D02*
X22249468Y-12213936D01*
X22249468Y-12213936D02*
X22239944Y-12223460D01*
X22239944Y-12223460D02*
X22220896Y-12232984D01*
X22220896Y-12232984D02*
X22163753Y-12232984D01*
X22163753Y-12232984D02*
X22144706Y-12223460D01*
X22144706Y-12223460D02*
X22135182Y-12213936D01*
X22449467Y-12232984D02*
X22335182Y-12232984D01*
X22392325Y-12232984D02*
X22392325Y-12032984D01*
X22392325Y-12032984D02*
X22373277Y-12061555D01*
X22373277Y-12061555D02*
X22354229Y-12080603D01*
X22354229Y-12080603D02*
X22335182Y-12090127D01*
X22630420Y-12032984D02*
X22535182Y-12032984D01*
X22535182Y-12032984D02*
X22525658Y-12128222D01*
X22525658Y-12128222D02*
X22535182Y-12118698D01*
X22535182Y-12118698D02*
X22554229Y-12109174D01*
X22554229Y-12109174D02*
X22601848Y-12109174D01*
X22601848Y-12109174D02*
X22620896Y-12118698D01*
X22620896Y-12118698D02*
X22630420Y-12128222D01*
X22630420Y-12128222D02*
X22639944Y-12147269D01*
X22639944Y-12147269D02*
X22639944Y-12194888D01*
X22639944Y-12194888D02*
X22630420Y-12213936D01*
X22630420Y-12213936D02*
X22620896Y-12223460D01*
X22620896Y-12223460D02*
X22601848Y-12232984D01*
X22601848Y-12232984D02*
X22554229Y-12232984D01*
X22554229Y-12232984D02*
X22535182Y-12223460D01*
X22535182Y-12223460D02*
X22525658Y-12213936D01*
X22716134Y-12032984D02*
X22716134Y-12071079D01*
X22792325Y-12032984D02*
X22792325Y-12071079D01*
X23087563Y-12309174D02*
X23078039Y-12299650D01*
X23078039Y-12299650D02*
X23058991Y-12271079D01*
X23058991Y-12271079D02*
X23049468Y-12252031D01*
X23049468Y-12252031D02*
X23039944Y-12223460D01*
X23039944Y-12223460D02*
X23030420Y-12175841D01*
X23030420Y-12175841D02*
X23030420Y-12137746D01*
X23030420Y-12137746D02*
X23039944Y-12090127D01*
X23039944Y-12090127D02*
X23049468Y-12061555D01*
X23049468Y-12061555D02*
X23058991Y-12042508D01*
X23058991Y-12042508D02*
X23078039Y-12013936D01*
X23078039Y-12013936D02*
X23087563Y-12004412D01*
X23144706Y-12032984D02*
X23268515Y-12032984D01*
X23268515Y-12032984D02*
X23201848Y-12109174D01*
X23201848Y-12109174D02*
X23230420Y-12109174D01*
X23230420Y-12109174D02*
X23249468Y-12118698D01*
X23249468Y-12118698D02*
X23258991Y-12128222D01*
X23258991Y-12128222D02*
X23268515Y-12147269D01*
X23268515Y-12147269D02*
X23268515Y-12194888D01*
X23268515Y-12194888D02*
X23258991Y-12213936D01*
X23258991Y-12213936D02*
X23249468Y-12223460D01*
X23249468Y-12223460D02*
X23230420Y-12232984D01*
X23230420Y-12232984D02*
X23173277Y-12232984D01*
X23173277Y-12232984D02*
X23154229Y-12223460D01*
X23154229Y-12223460D02*
X23144706Y-12213936D01*
X23439944Y-12099650D02*
X23439944Y-12232984D01*
X23392325Y-12023460D02*
X23344706Y-12166317D01*
X23344706Y-12166317D02*
X23468515Y-12166317D01*
X23697087Y-12232984D02*
X23697087Y-12032984D01*
X23782801Y-12232984D02*
X23782801Y-12128222D01*
X23782801Y-12128222D02*
X23773277Y-12109174D01*
X23773277Y-12109174D02*
X23754230Y-12099650D01*
X23754230Y-12099650D02*
X23725658Y-12099650D01*
X23725658Y-12099650D02*
X23706610Y-12109174D01*
X23706610Y-12109174D02*
X23697087Y-12118698D01*
X23906610Y-12232984D02*
X23887563Y-12223460D01*
X23887563Y-12223460D02*
X23878039Y-12213936D01*
X23878039Y-12213936D02*
X23868515Y-12194888D01*
X23868515Y-12194888D02*
X23868515Y-12137746D01*
X23868515Y-12137746D02*
X23878039Y-12118698D01*
X23878039Y-12118698D02*
X23887563Y-12109174D01*
X23887563Y-12109174D02*
X23906610Y-12099650D01*
X23906610Y-12099650D02*
X23935182Y-12099650D01*
X23935182Y-12099650D02*
X23954230Y-12109174D01*
X23954230Y-12109174D02*
X23963753Y-12118698D01*
X23963753Y-12118698D02*
X23973277Y-12137746D01*
X23973277Y-12137746D02*
X23973277Y-12194888D01*
X23973277Y-12194888D02*
X23963753Y-12213936D01*
X23963753Y-12213936D02*
X23954230Y-12223460D01*
X23954230Y-12223460D02*
X23935182Y-12232984D01*
X23935182Y-12232984D02*
X23906610Y-12232984D01*
X24087563Y-12232984D02*
X24068515Y-12223460D01*
X24068515Y-12223460D02*
X24058991Y-12204412D01*
X24058991Y-12204412D02*
X24058991Y-12032984D01*
X24239944Y-12223460D02*
X24220896Y-12232984D01*
X24220896Y-12232984D02*
X24182801Y-12232984D01*
X24182801Y-12232984D02*
X24163753Y-12223460D01*
X24163753Y-12223460D02*
X24154230Y-12204412D01*
X24154230Y-12204412D02*
X24154230Y-12128222D01*
X24154230Y-12128222D02*
X24163753Y-12109174D01*
X24163753Y-12109174D02*
X24182801Y-12099650D01*
X24182801Y-12099650D02*
X24220896Y-12099650D01*
X24220896Y-12099650D02*
X24239944Y-12109174D01*
X24239944Y-12109174D02*
X24249468Y-12128222D01*
X24249468Y-12128222D02*
X24249468Y-12147269D01*
X24249468Y-12147269D02*
X24154230Y-12166317D01*
X24325658Y-12223460D02*
X24344706Y-12232984D01*
X24344706Y-12232984D02*
X24382801Y-12232984D01*
X24382801Y-12232984D02*
X24401849Y-12223460D01*
X24401849Y-12223460D02*
X24411372Y-12204412D01*
X24411372Y-12204412D02*
X24411372Y-12194888D01*
X24411372Y-12194888D02*
X24401849Y-12175841D01*
X24401849Y-12175841D02*
X24382801Y-12166317D01*
X24382801Y-12166317D02*
X24354230Y-12166317D01*
X24354230Y-12166317D02*
X24335182Y-12156793D01*
X24335182Y-12156793D02*
X24325658Y-12137746D01*
X24325658Y-12137746D02*
X24325658Y-12128222D01*
X24325658Y-12128222D02*
X24335182Y-12109174D01*
X24335182Y-12109174D02*
X24354230Y-12099650D01*
X24354230Y-12099650D02*
X24382801Y-12099650D01*
X24382801Y-12099650D02*
X24401849Y-12109174D01*
X24478039Y-12309174D02*
X24487563Y-12299650D01*
X24487563Y-12299650D02*
X24506611Y-12271079D01*
X24506611Y-12271079D02*
X24516134Y-12252031D01*
X24516134Y-12252031D02*
X24525658Y-12223460D01*
X24525658Y-12223460D02*
X24535182Y-12175841D01*
X24535182Y-12175841D02*
X24535182Y-12137746D01*
X24535182Y-12137746D02*
X24525658Y-12090127D01*
X24525658Y-12090127D02*
X24516134Y-12061555D01*
X24516134Y-12061555D02*
X24506611Y-12042508D01*
X24506611Y-12042508D02*
X24487563Y-12013936D01*
X24487563Y-12013936D02*
X24478039Y-12004412D01*
D12*
X19471860Y-12364860D02*
X19471860Y-12446140D01*
X19431220Y-12405500D02*
X19512500Y-12405500D01*
D11*
X19811372Y-12296984D02*
X19830420Y-12296984D01*
X19830420Y-12296984D02*
X19849467Y-12306508D01*
X19849467Y-12306508D02*
X19858991Y-12316031D01*
X19858991Y-12316031D02*
X19868515Y-12335079D01*
X19868515Y-12335079D02*
X19878039Y-12373174D01*
X19878039Y-12373174D02*
X19878039Y-12420793D01*
X19878039Y-12420793D02*
X19868515Y-12458888D01*
X19868515Y-12458888D02*
X19858991Y-12477936D01*
X19858991Y-12477936D02*
X19849467Y-12487460D01*
X19849467Y-12487460D02*
X19830420Y-12496984D01*
X19830420Y-12496984D02*
X19811372Y-12496984D01*
X19811372Y-12496984D02*
X19792324Y-12487460D01*
X19792324Y-12487460D02*
X19782801Y-12477936D01*
X19782801Y-12477936D02*
X19773277Y-12458888D01*
X19773277Y-12458888D02*
X19763753Y-12420793D01*
X19763753Y-12420793D02*
X19763753Y-12373174D01*
X19763753Y-12373174D02*
X19773277Y-12335079D01*
X19773277Y-12335079D02*
X19782801Y-12316031D01*
X19782801Y-12316031D02*
X19792324Y-12306508D01*
X19792324Y-12306508D02*
X19811372Y-12296984D01*
X19963753Y-12477936D02*
X19973277Y-12487460D01*
X19973277Y-12487460D02*
X19963753Y-12496984D01*
X19963753Y-12496984D02*
X19954229Y-12487460D01*
X19954229Y-12487460D02*
X19963753Y-12477936D01*
X19963753Y-12477936D02*
X19963753Y-12496984D01*
X20087563Y-12382698D02*
X20068515Y-12373174D01*
X20068515Y-12373174D02*
X20058991Y-12363650D01*
X20058991Y-12363650D02*
X20049467Y-12344603D01*
X20049467Y-12344603D02*
X20049467Y-12335079D01*
X20049467Y-12335079D02*
X20058991Y-12316031D01*
X20058991Y-12316031D02*
X20068515Y-12306508D01*
X20068515Y-12306508D02*
X20087563Y-12296984D01*
X20087563Y-12296984D02*
X20125658Y-12296984D01*
X20125658Y-12296984D02*
X20144705Y-12306508D01*
X20144705Y-12306508D02*
X20154229Y-12316031D01*
X20154229Y-12316031D02*
X20163753Y-12335079D01*
X20163753Y-12335079D02*
X20163753Y-12344603D01*
X20163753Y-12344603D02*
X20154229Y-12363650D01*
X20154229Y-12363650D02*
X20144705Y-12373174D01*
X20144705Y-12373174D02*
X20125658Y-12382698D01*
X20125658Y-12382698D02*
X20087563Y-12382698D01*
X20087563Y-12382698D02*
X20068515Y-12392222D01*
X20068515Y-12392222D02*
X20058991Y-12401746D01*
X20058991Y-12401746D02*
X20049467Y-12420793D01*
X20049467Y-12420793D02*
X20049467Y-12458888D01*
X20049467Y-12458888D02*
X20058991Y-12477936D01*
X20058991Y-12477936D02*
X20068515Y-12487460D01*
X20068515Y-12487460D02*
X20087563Y-12496984D01*
X20087563Y-12496984D02*
X20125658Y-12496984D01*
X20125658Y-12496984D02*
X20144705Y-12487460D01*
X20144705Y-12487460D02*
X20154229Y-12477936D01*
X20154229Y-12477936D02*
X20163753Y-12458888D01*
X20163753Y-12458888D02*
X20163753Y-12420793D01*
X20163753Y-12420793D02*
X20154229Y-12401746D01*
X20154229Y-12401746D02*
X20144705Y-12392222D01*
X20144705Y-12392222D02*
X20125658Y-12382698D01*
X20354229Y-12496984D02*
X20239944Y-12496984D01*
X20297086Y-12496984D02*
X20297086Y-12296984D01*
X20297086Y-12296984D02*
X20278039Y-12325555D01*
X20278039Y-12325555D02*
X20258991Y-12344603D01*
X20258991Y-12344603D02*
X20239944Y-12354127D01*
X20420896Y-12296984D02*
X20544705Y-12296984D01*
X20544705Y-12296984D02*
X20478039Y-12373174D01*
X20478039Y-12373174D02*
X20506610Y-12373174D01*
X20506610Y-12373174D02*
X20525658Y-12382698D01*
X20525658Y-12382698D02*
X20535182Y-12392222D01*
X20535182Y-12392222D02*
X20544705Y-12411269D01*
X20544705Y-12411269D02*
X20544705Y-12458888D01*
X20544705Y-12458888D02*
X20535182Y-12477936D01*
X20535182Y-12477936D02*
X20525658Y-12487460D01*
X20525658Y-12487460D02*
X20506610Y-12496984D01*
X20506610Y-12496984D02*
X20449467Y-12496984D01*
X20449467Y-12496984D02*
X20430420Y-12487460D01*
X20430420Y-12487460D02*
X20420896Y-12477936D01*
X20630420Y-12496984D02*
X20630420Y-12363650D01*
X20630420Y-12382698D02*
X20639944Y-12373174D01*
X20639944Y-12373174D02*
X20658991Y-12363650D01*
X20658991Y-12363650D02*
X20687563Y-12363650D01*
X20687563Y-12363650D02*
X20706610Y-12373174D01*
X20706610Y-12373174D02*
X20716134Y-12392222D01*
X20716134Y-12392222D02*
X20716134Y-12496984D01*
X20716134Y-12392222D02*
X20725658Y-12373174D01*
X20725658Y-12373174D02*
X20744705Y-12363650D01*
X20744705Y-12363650D02*
X20773277Y-12363650D01*
X20773277Y-12363650D02*
X20792325Y-12373174D01*
X20792325Y-12373174D02*
X20801848Y-12392222D01*
X20801848Y-12392222D02*
X20801848Y-12496984D01*
X20897086Y-12496984D02*
X20897086Y-12363650D01*
X20897086Y-12382698D02*
X20906610Y-12373174D01*
X20906610Y-12373174D02*
X20925658Y-12363650D01*
X20925658Y-12363650D02*
X20954229Y-12363650D01*
X20954229Y-12363650D02*
X20973277Y-12373174D01*
X20973277Y-12373174D02*
X20982801Y-12392222D01*
X20982801Y-12392222D02*
X20982801Y-12496984D01*
X20982801Y-12392222D02*
X20992325Y-12373174D01*
X20992325Y-12373174D02*
X21011372Y-12363650D01*
X21011372Y-12363650D02*
X21039944Y-12363650D01*
X21039944Y-12363650D02*
X21058991Y-12373174D01*
X21058991Y-12373174D02*
X21068515Y-12392222D01*
X21068515Y-12392222D02*
X21068515Y-12496984D01*
X21458991Y-12287460D02*
X21287563Y-12544603D01*
X21716134Y-12296984D02*
X21735182Y-12296984D01*
X21735182Y-12296984D02*
X21754229Y-12306508D01*
X21754229Y-12306508D02*
X21763753Y-12316031D01*
X21763753Y-12316031D02*
X21773277Y-12335079D01*
X21773277Y-12335079D02*
X21782801Y-12373174D01*
X21782801Y-12373174D02*
X21782801Y-12420793D01*
X21782801Y-12420793D02*
X21773277Y-12458888D01*
X21773277Y-12458888D02*
X21763753Y-12477936D01*
X21763753Y-12477936D02*
X21754229Y-12487460D01*
X21754229Y-12487460D02*
X21735182Y-12496984D01*
X21735182Y-12496984D02*
X21716134Y-12496984D01*
X21716134Y-12496984D02*
X21697087Y-12487460D01*
X21697087Y-12487460D02*
X21687563Y-12477936D01*
X21687563Y-12477936D02*
X21678039Y-12458888D01*
X21678039Y-12458888D02*
X21668515Y-12420793D01*
X21668515Y-12420793D02*
X21668515Y-12373174D01*
X21668515Y-12373174D02*
X21678039Y-12335079D01*
X21678039Y-12335079D02*
X21687563Y-12316031D01*
X21687563Y-12316031D02*
X21697087Y-12306508D01*
X21697087Y-12306508D02*
X21716134Y-12296984D01*
X21868515Y-12477936D02*
X21878039Y-12487460D01*
X21878039Y-12487460D02*
X21868515Y-12496984D01*
X21868515Y-12496984D02*
X21858991Y-12487460D01*
X21858991Y-12487460D02*
X21868515Y-12477936D01*
X21868515Y-12477936D02*
X21868515Y-12496984D01*
X22001848Y-12296984D02*
X22020896Y-12296984D01*
X22020896Y-12296984D02*
X22039944Y-12306508D01*
X22039944Y-12306508D02*
X22049468Y-12316031D01*
X22049468Y-12316031D02*
X22058991Y-12335079D01*
X22058991Y-12335079D02*
X22068515Y-12373174D01*
X22068515Y-12373174D02*
X22068515Y-12420793D01*
X22068515Y-12420793D02*
X22058991Y-12458888D01*
X22058991Y-12458888D02*
X22049468Y-12477936D01*
X22049468Y-12477936D02*
X22039944Y-12487460D01*
X22039944Y-12487460D02*
X22020896Y-12496984D01*
X22020896Y-12496984D02*
X22001848Y-12496984D01*
X22001848Y-12496984D02*
X21982801Y-12487460D01*
X21982801Y-12487460D02*
X21973277Y-12477936D01*
X21973277Y-12477936D02*
X21963753Y-12458888D01*
X21963753Y-12458888D02*
X21954229Y-12420793D01*
X21954229Y-12420793D02*
X21954229Y-12373174D01*
X21954229Y-12373174D02*
X21963753Y-12335079D01*
X21963753Y-12335079D02*
X21973277Y-12316031D01*
X21973277Y-12316031D02*
X21982801Y-12306508D01*
X21982801Y-12306508D02*
X22001848Y-12296984D01*
X22135182Y-12296984D02*
X22258991Y-12296984D01*
X22258991Y-12296984D02*
X22192325Y-12373174D01*
X22192325Y-12373174D02*
X22220896Y-12373174D01*
X22220896Y-12373174D02*
X22239944Y-12382698D01*
X22239944Y-12382698D02*
X22249468Y-12392222D01*
X22249468Y-12392222D02*
X22258991Y-12411269D01*
X22258991Y-12411269D02*
X22258991Y-12458888D01*
X22258991Y-12458888D02*
X22249468Y-12477936D01*
X22249468Y-12477936D02*
X22239944Y-12487460D01*
X22239944Y-12487460D02*
X22220896Y-12496984D01*
X22220896Y-12496984D02*
X22163753Y-12496984D01*
X22163753Y-12496984D02*
X22144706Y-12487460D01*
X22144706Y-12487460D02*
X22135182Y-12477936D01*
X22335182Y-12316031D02*
X22344706Y-12306508D01*
X22344706Y-12306508D02*
X22363753Y-12296984D01*
X22363753Y-12296984D02*
X22411372Y-12296984D01*
X22411372Y-12296984D02*
X22430420Y-12306508D01*
X22430420Y-12306508D02*
X22439944Y-12316031D01*
X22439944Y-12316031D02*
X22449467Y-12335079D01*
X22449467Y-12335079D02*
X22449467Y-12354127D01*
X22449467Y-12354127D02*
X22439944Y-12382698D01*
X22439944Y-12382698D02*
X22325658Y-12496984D01*
X22325658Y-12496984D02*
X22449467Y-12496984D01*
X22573277Y-12296984D02*
X22592325Y-12296984D01*
X22592325Y-12296984D02*
X22611372Y-12306508D01*
X22611372Y-12306508D02*
X22620896Y-12316031D01*
X22620896Y-12316031D02*
X22630420Y-12335079D01*
X22630420Y-12335079D02*
X22639944Y-12373174D01*
X22639944Y-12373174D02*
X22639944Y-12420793D01*
X22639944Y-12420793D02*
X22630420Y-12458888D01*
X22630420Y-12458888D02*
X22620896Y-12477936D01*
X22620896Y-12477936D02*
X22611372Y-12487460D01*
X22611372Y-12487460D02*
X22592325Y-12496984D01*
X22592325Y-12496984D02*
X22573277Y-12496984D01*
X22573277Y-12496984D02*
X22554229Y-12487460D01*
X22554229Y-12487460D02*
X22544706Y-12477936D01*
X22544706Y-12477936D02*
X22535182Y-12458888D01*
X22535182Y-12458888D02*
X22525658Y-12420793D01*
X22525658Y-12420793D02*
X22525658Y-12373174D01*
X22525658Y-12373174D02*
X22535182Y-12335079D01*
X22535182Y-12335079D02*
X22544706Y-12316031D01*
X22544706Y-12316031D02*
X22554229Y-12306508D01*
X22554229Y-12306508D02*
X22573277Y-12296984D01*
X22716134Y-12296984D02*
X22716134Y-12335079D01*
X22792325Y-12296984D02*
X22792325Y-12335079D01*
X23087563Y-12573174D02*
X23078039Y-12563650D01*
X23078039Y-12563650D02*
X23058991Y-12535079D01*
X23058991Y-12535079D02*
X23049468Y-12516031D01*
X23049468Y-12516031D02*
X23039944Y-12487460D01*
X23039944Y-12487460D02*
X23030420Y-12439841D01*
X23030420Y-12439841D02*
X23030420Y-12401746D01*
X23030420Y-12401746D02*
X23039944Y-12354127D01*
X23039944Y-12354127D02*
X23049468Y-12325555D01*
X23049468Y-12325555D02*
X23058991Y-12306508D01*
X23058991Y-12306508D02*
X23078039Y-12277936D01*
X23078039Y-12277936D02*
X23087563Y-12268412D01*
X23192325Y-12382698D02*
X23173277Y-12373174D01*
X23173277Y-12373174D02*
X23163753Y-12363650D01*
X23163753Y-12363650D02*
X23154229Y-12344603D01*
X23154229Y-12344603D02*
X23154229Y-12335079D01*
X23154229Y-12335079D02*
X23163753Y-12316031D01*
X23163753Y-12316031D02*
X23173277Y-12306508D01*
X23173277Y-12306508D02*
X23192325Y-12296984D01*
X23192325Y-12296984D02*
X23230420Y-12296984D01*
X23230420Y-12296984D02*
X23249468Y-12306508D01*
X23249468Y-12306508D02*
X23258991Y-12316031D01*
X23258991Y-12316031D02*
X23268515Y-12335079D01*
X23268515Y-12335079D02*
X23268515Y-12344603D01*
X23268515Y-12344603D02*
X23258991Y-12363650D01*
X23258991Y-12363650D02*
X23249468Y-12373174D01*
X23249468Y-12373174D02*
X23230420Y-12382698D01*
X23230420Y-12382698D02*
X23192325Y-12382698D01*
X23192325Y-12382698D02*
X23173277Y-12392222D01*
X23173277Y-12392222D02*
X23163753Y-12401746D01*
X23163753Y-12401746D02*
X23154229Y-12420793D01*
X23154229Y-12420793D02*
X23154229Y-12458888D01*
X23154229Y-12458888D02*
X23163753Y-12477936D01*
X23163753Y-12477936D02*
X23173277Y-12487460D01*
X23173277Y-12487460D02*
X23192325Y-12496984D01*
X23192325Y-12496984D02*
X23230420Y-12496984D01*
X23230420Y-12496984D02*
X23249468Y-12487460D01*
X23249468Y-12487460D02*
X23258991Y-12477936D01*
X23258991Y-12477936D02*
X23268515Y-12458888D01*
X23268515Y-12458888D02*
X23268515Y-12420793D01*
X23268515Y-12420793D02*
X23258991Y-12401746D01*
X23258991Y-12401746D02*
X23249468Y-12392222D01*
X23249468Y-12392222D02*
X23230420Y-12382698D01*
X23506610Y-12496984D02*
X23506610Y-12296984D01*
X23592325Y-12496984D02*
X23592325Y-12392222D01*
X23592325Y-12392222D02*
X23582801Y-12373174D01*
X23582801Y-12373174D02*
X23563753Y-12363650D01*
X23563753Y-12363650D02*
X23535182Y-12363650D01*
X23535182Y-12363650D02*
X23516134Y-12373174D01*
X23516134Y-12373174D02*
X23506610Y-12382698D01*
X23716134Y-12496984D02*
X23697087Y-12487460D01*
X23697087Y-12487460D02*
X23687563Y-12477936D01*
X23687563Y-12477936D02*
X23678039Y-12458888D01*
X23678039Y-12458888D02*
X23678039Y-12401746D01*
X23678039Y-12401746D02*
X23687563Y-12382698D01*
X23687563Y-12382698D02*
X23697087Y-12373174D01*
X23697087Y-12373174D02*
X23716134Y-12363650D01*
X23716134Y-12363650D02*
X23744706Y-12363650D01*
X23744706Y-12363650D02*
X23763753Y-12373174D01*
X23763753Y-12373174D02*
X23773277Y-12382698D01*
X23773277Y-12382698D02*
X23782801Y-12401746D01*
X23782801Y-12401746D02*
X23782801Y-12458888D01*
X23782801Y-12458888D02*
X23773277Y-12477936D01*
X23773277Y-12477936D02*
X23763753Y-12487460D01*
X23763753Y-12487460D02*
X23744706Y-12496984D01*
X23744706Y-12496984D02*
X23716134Y-12496984D01*
X23897087Y-12496984D02*
X23878039Y-12487460D01*
X23878039Y-12487460D02*
X23868515Y-12468412D01*
X23868515Y-12468412D02*
X23868515Y-12296984D01*
X24049468Y-12487460D02*
X24030420Y-12496984D01*
X24030420Y-12496984D02*
X23992325Y-12496984D01*
X23992325Y-12496984D02*
X23973277Y-12487460D01*
X23973277Y-12487460D02*
X23963753Y-12468412D01*
X23963753Y-12468412D02*
X23963753Y-12392222D01*
X23963753Y-12392222D02*
X23973277Y-12373174D01*
X23973277Y-12373174D02*
X23992325Y-12363650D01*
X23992325Y-12363650D02*
X24030420Y-12363650D01*
X24030420Y-12363650D02*
X24049468Y-12373174D01*
X24049468Y-12373174D02*
X24058991Y-12392222D01*
X24058991Y-12392222D02*
X24058991Y-12411269D01*
X24058991Y-12411269D02*
X23963753Y-12430317D01*
X24135182Y-12487460D02*
X24154230Y-12496984D01*
X24154230Y-12496984D02*
X24192325Y-12496984D01*
X24192325Y-12496984D02*
X24211372Y-12487460D01*
X24211372Y-12487460D02*
X24220896Y-12468412D01*
X24220896Y-12468412D02*
X24220896Y-12458888D01*
X24220896Y-12458888D02*
X24211372Y-12439841D01*
X24211372Y-12439841D02*
X24192325Y-12430317D01*
X24192325Y-12430317D02*
X24163753Y-12430317D01*
X24163753Y-12430317D02*
X24144706Y-12420793D01*
X24144706Y-12420793D02*
X24135182Y-12401746D01*
X24135182Y-12401746D02*
X24135182Y-12392222D01*
X24135182Y-12392222D02*
X24144706Y-12373174D01*
X24144706Y-12373174D02*
X24163753Y-12363650D01*
X24163753Y-12363650D02*
X24192325Y-12363650D01*
X24192325Y-12363650D02*
X24211372Y-12373174D01*
X24287563Y-12573174D02*
X24297087Y-12563650D01*
X24297087Y-12563650D02*
X24316134Y-12535079D01*
X24316134Y-12535079D02*
X24325658Y-12516031D01*
X24325658Y-12516031D02*
X24335182Y-12487460D01*
X24335182Y-12487460D02*
X24344706Y-12439841D01*
X24344706Y-12439841D02*
X24344706Y-12401746D01*
X24344706Y-12401746D02*
X24335182Y-12354127D01*
X24335182Y-12354127D02*
X24325658Y-12325555D01*
X24325658Y-12325555D02*
X24316134Y-12306508D01*
X24316134Y-12306508D02*
X24297087Y-12277936D01*
X24297087Y-12277936D02*
X24287563Y-12268412D01*
D12*
X19497856Y-12704856D02*
X19497856Y-12634144D01*
X19427144Y-12634144D01*
X19427144Y-12704856D01*
X19497856Y-12704856D01*
D11*
X19878039Y-12760984D02*
X19763753Y-12760984D01*
X19820896Y-12760984D02*
X19820896Y-12560984D01*
X19820896Y-12560984D02*
X19801848Y-12589555D01*
X19801848Y-12589555D02*
X19782801Y-12608603D01*
X19782801Y-12608603D02*
X19763753Y-12618127D01*
X19963753Y-12741936D02*
X19973277Y-12751460D01*
X19973277Y-12751460D02*
X19963753Y-12760984D01*
X19963753Y-12760984D02*
X19954229Y-12751460D01*
X19954229Y-12751460D02*
X19963753Y-12741936D01*
X19963753Y-12741936D02*
X19963753Y-12760984D01*
X20097086Y-12560984D02*
X20116134Y-12560984D01*
X20116134Y-12560984D02*
X20135182Y-12570508D01*
X20135182Y-12570508D02*
X20144705Y-12580031D01*
X20144705Y-12580031D02*
X20154229Y-12599079D01*
X20154229Y-12599079D02*
X20163753Y-12637174D01*
X20163753Y-12637174D02*
X20163753Y-12684793D01*
X20163753Y-12684793D02*
X20154229Y-12722888D01*
X20154229Y-12722888D02*
X20144705Y-12741936D01*
X20144705Y-12741936D02*
X20135182Y-12751460D01*
X20135182Y-12751460D02*
X20116134Y-12760984D01*
X20116134Y-12760984D02*
X20097086Y-12760984D01*
X20097086Y-12760984D02*
X20078039Y-12751460D01*
X20078039Y-12751460D02*
X20068515Y-12741936D01*
X20068515Y-12741936D02*
X20058991Y-12722888D01*
X20058991Y-12722888D02*
X20049467Y-12684793D01*
X20049467Y-12684793D02*
X20049467Y-12637174D01*
X20049467Y-12637174D02*
X20058991Y-12599079D01*
X20058991Y-12599079D02*
X20068515Y-12580031D01*
X20068515Y-12580031D02*
X20078039Y-12570508D01*
X20078039Y-12570508D02*
X20097086Y-12560984D01*
X20287563Y-12560984D02*
X20306610Y-12560984D01*
X20306610Y-12560984D02*
X20325658Y-12570508D01*
X20325658Y-12570508D02*
X20335182Y-12580031D01*
X20335182Y-12580031D02*
X20344705Y-12599079D01*
X20344705Y-12599079D02*
X20354229Y-12637174D01*
X20354229Y-12637174D02*
X20354229Y-12684793D01*
X20354229Y-12684793D02*
X20344705Y-12722888D01*
X20344705Y-12722888D02*
X20335182Y-12741936D01*
X20335182Y-12741936D02*
X20325658Y-12751460D01*
X20325658Y-12751460D02*
X20306610Y-12760984D01*
X20306610Y-12760984D02*
X20287563Y-12760984D01*
X20287563Y-12760984D02*
X20268515Y-12751460D01*
X20268515Y-12751460D02*
X20258991Y-12741936D01*
X20258991Y-12741936D02*
X20249467Y-12722888D01*
X20249467Y-12722888D02*
X20239944Y-12684793D01*
X20239944Y-12684793D02*
X20239944Y-12637174D01*
X20239944Y-12637174D02*
X20249467Y-12599079D01*
X20249467Y-12599079D02*
X20258991Y-12580031D01*
X20258991Y-12580031D02*
X20268515Y-12570508D01*
X20268515Y-12570508D02*
X20287563Y-12560984D01*
X20478039Y-12560984D02*
X20497086Y-12560984D01*
X20497086Y-12560984D02*
X20516134Y-12570508D01*
X20516134Y-12570508D02*
X20525658Y-12580031D01*
X20525658Y-12580031D02*
X20535182Y-12599079D01*
X20535182Y-12599079D02*
X20544705Y-12637174D01*
X20544705Y-12637174D02*
X20544705Y-12684793D01*
X20544705Y-12684793D02*
X20535182Y-12722888D01*
X20535182Y-12722888D02*
X20525658Y-12741936D01*
X20525658Y-12741936D02*
X20516134Y-12751460D01*
X20516134Y-12751460D02*
X20497086Y-12760984D01*
X20497086Y-12760984D02*
X20478039Y-12760984D01*
X20478039Y-12760984D02*
X20458991Y-12751460D01*
X20458991Y-12751460D02*
X20449467Y-12741936D01*
X20449467Y-12741936D02*
X20439944Y-12722888D01*
X20439944Y-12722888D02*
X20430420Y-12684793D01*
X20430420Y-12684793D02*
X20430420Y-12637174D01*
X20430420Y-12637174D02*
X20439944Y-12599079D01*
X20439944Y-12599079D02*
X20449467Y-12580031D01*
X20449467Y-12580031D02*
X20458991Y-12570508D01*
X20458991Y-12570508D02*
X20478039Y-12560984D01*
X20630420Y-12760984D02*
X20630420Y-12627650D01*
X20630420Y-12646698D02*
X20639944Y-12637174D01*
X20639944Y-12637174D02*
X20658991Y-12627650D01*
X20658991Y-12627650D02*
X20687563Y-12627650D01*
X20687563Y-12627650D02*
X20706610Y-12637174D01*
X20706610Y-12637174D02*
X20716134Y-12656222D01*
X20716134Y-12656222D02*
X20716134Y-12760984D01*
X20716134Y-12656222D02*
X20725658Y-12637174D01*
X20725658Y-12637174D02*
X20744705Y-12627650D01*
X20744705Y-12627650D02*
X20773277Y-12627650D01*
X20773277Y-12627650D02*
X20792325Y-12637174D01*
X20792325Y-12637174D02*
X20801848Y-12656222D01*
X20801848Y-12656222D02*
X20801848Y-12760984D01*
X20897086Y-12760984D02*
X20897086Y-12627650D01*
X20897086Y-12646698D02*
X20906610Y-12637174D01*
X20906610Y-12637174D02*
X20925658Y-12627650D01*
X20925658Y-12627650D02*
X20954229Y-12627650D01*
X20954229Y-12627650D02*
X20973277Y-12637174D01*
X20973277Y-12637174D02*
X20982801Y-12656222D01*
X20982801Y-12656222D02*
X20982801Y-12760984D01*
X20982801Y-12656222D02*
X20992325Y-12637174D01*
X20992325Y-12637174D02*
X21011372Y-12627650D01*
X21011372Y-12627650D02*
X21039944Y-12627650D01*
X21039944Y-12627650D02*
X21058991Y-12637174D01*
X21058991Y-12637174D02*
X21068515Y-12656222D01*
X21068515Y-12656222D02*
X21068515Y-12760984D01*
X21458991Y-12551460D02*
X21287563Y-12808603D01*
X21716134Y-12560984D02*
X21735182Y-12560984D01*
X21735182Y-12560984D02*
X21754229Y-12570508D01*
X21754229Y-12570508D02*
X21763753Y-12580031D01*
X21763753Y-12580031D02*
X21773277Y-12599079D01*
X21773277Y-12599079D02*
X21782801Y-12637174D01*
X21782801Y-12637174D02*
X21782801Y-12684793D01*
X21782801Y-12684793D02*
X21773277Y-12722888D01*
X21773277Y-12722888D02*
X21763753Y-12741936D01*
X21763753Y-12741936D02*
X21754229Y-12751460D01*
X21754229Y-12751460D02*
X21735182Y-12760984D01*
X21735182Y-12760984D02*
X21716134Y-12760984D01*
X21716134Y-12760984D02*
X21697087Y-12751460D01*
X21697087Y-12751460D02*
X21687563Y-12741936D01*
X21687563Y-12741936D02*
X21678039Y-12722888D01*
X21678039Y-12722888D02*
X21668515Y-12684793D01*
X21668515Y-12684793D02*
X21668515Y-12637174D01*
X21668515Y-12637174D02*
X21678039Y-12599079D01*
X21678039Y-12599079D02*
X21687563Y-12580031D01*
X21687563Y-12580031D02*
X21697087Y-12570508D01*
X21697087Y-12570508D02*
X21716134Y-12560984D01*
X21868515Y-12741936D02*
X21878039Y-12751460D01*
X21878039Y-12751460D02*
X21868515Y-12760984D01*
X21868515Y-12760984D02*
X21858991Y-12751460D01*
X21858991Y-12751460D02*
X21868515Y-12741936D01*
X21868515Y-12741936D02*
X21868515Y-12760984D01*
X22001848Y-12560984D02*
X22020896Y-12560984D01*
X22020896Y-12560984D02*
X22039944Y-12570508D01*
X22039944Y-12570508D02*
X22049468Y-12580031D01*
X22049468Y-12580031D02*
X22058991Y-12599079D01*
X22058991Y-12599079D02*
X22068515Y-12637174D01*
X22068515Y-12637174D02*
X22068515Y-12684793D01*
X22068515Y-12684793D02*
X22058991Y-12722888D01*
X22058991Y-12722888D02*
X22049468Y-12741936D01*
X22049468Y-12741936D02*
X22039944Y-12751460D01*
X22039944Y-12751460D02*
X22020896Y-12760984D01*
X22020896Y-12760984D02*
X22001848Y-12760984D01*
X22001848Y-12760984D02*
X21982801Y-12751460D01*
X21982801Y-12751460D02*
X21973277Y-12741936D01*
X21973277Y-12741936D02*
X21963753Y-12722888D01*
X21963753Y-12722888D02*
X21954229Y-12684793D01*
X21954229Y-12684793D02*
X21954229Y-12637174D01*
X21954229Y-12637174D02*
X21963753Y-12599079D01*
X21963753Y-12599079D02*
X21973277Y-12580031D01*
X21973277Y-12580031D02*
X21982801Y-12570508D01*
X21982801Y-12570508D02*
X22001848Y-12560984D01*
X22135182Y-12560984D02*
X22258991Y-12560984D01*
X22258991Y-12560984D02*
X22192325Y-12637174D01*
X22192325Y-12637174D02*
X22220896Y-12637174D01*
X22220896Y-12637174D02*
X22239944Y-12646698D01*
X22239944Y-12646698D02*
X22249468Y-12656222D01*
X22249468Y-12656222D02*
X22258991Y-12675269D01*
X22258991Y-12675269D02*
X22258991Y-12722888D01*
X22258991Y-12722888D02*
X22249468Y-12741936D01*
X22249468Y-12741936D02*
X22239944Y-12751460D01*
X22239944Y-12751460D02*
X22220896Y-12760984D01*
X22220896Y-12760984D02*
X22163753Y-12760984D01*
X22163753Y-12760984D02*
X22144706Y-12751460D01*
X22144706Y-12751460D02*
X22135182Y-12741936D01*
X22354229Y-12760984D02*
X22392325Y-12760984D01*
X22392325Y-12760984D02*
X22411372Y-12751460D01*
X22411372Y-12751460D02*
X22420896Y-12741936D01*
X22420896Y-12741936D02*
X22439944Y-12713365D01*
X22439944Y-12713365D02*
X22449467Y-12675269D01*
X22449467Y-12675269D02*
X22449467Y-12599079D01*
X22449467Y-12599079D02*
X22439944Y-12580031D01*
X22439944Y-12580031D02*
X22430420Y-12570508D01*
X22430420Y-12570508D02*
X22411372Y-12560984D01*
X22411372Y-12560984D02*
X22373277Y-12560984D01*
X22373277Y-12560984D02*
X22354229Y-12570508D01*
X22354229Y-12570508D02*
X22344706Y-12580031D01*
X22344706Y-12580031D02*
X22335182Y-12599079D01*
X22335182Y-12599079D02*
X22335182Y-12646698D01*
X22335182Y-12646698D02*
X22344706Y-12665746D01*
X22344706Y-12665746D02*
X22354229Y-12675269D01*
X22354229Y-12675269D02*
X22373277Y-12684793D01*
X22373277Y-12684793D02*
X22411372Y-12684793D01*
X22411372Y-12684793D02*
X22430420Y-12675269D01*
X22430420Y-12675269D02*
X22439944Y-12665746D01*
X22439944Y-12665746D02*
X22449467Y-12646698D01*
X22620896Y-12627650D02*
X22620896Y-12760984D01*
X22573277Y-12551460D02*
X22525658Y-12694317D01*
X22525658Y-12694317D02*
X22649467Y-12694317D01*
X22716134Y-12560984D02*
X22716134Y-12599079D01*
X22792325Y-12560984D02*
X22792325Y-12599079D01*
X23087563Y-12837174D02*
X23078039Y-12827650D01*
X23078039Y-12827650D02*
X23058991Y-12799079D01*
X23058991Y-12799079D02*
X23049468Y-12780031D01*
X23049468Y-12780031D02*
X23039944Y-12751460D01*
X23039944Y-12751460D02*
X23030420Y-12703841D01*
X23030420Y-12703841D02*
X23030420Y-12665746D01*
X23030420Y-12665746D02*
X23039944Y-12618127D01*
X23039944Y-12618127D02*
X23049468Y-12589555D01*
X23049468Y-12589555D02*
X23058991Y-12570508D01*
X23058991Y-12570508D02*
X23078039Y-12541936D01*
X23078039Y-12541936D02*
X23087563Y-12532412D01*
X23268515Y-12760984D02*
X23154229Y-12760984D01*
X23211372Y-12760984D02*
X23211372Y-12560984D01*
X23211372Y-12560984D02*
X23192325Y-12589555D01*
X23192325Y-12589555D02*
X23173277Y-12608603D01*
X23173277Y-12608603D02*
X23154229Y-12618127D01*
X23449468Y-12560984D02*
X23354229Y-12560984D01*
X23354229Y-12560984D02*
X23344706Y-12656222D01*
X23344706Y-12656222D02*
X23354229Y-12646698D01*
X23354229Y-12646698D02*
X23373277Y-12637174D01*
X23373277Y-12637174D02*
X23420896Y-12637174D01*
X23420896Y-12637174D02*
X23439944Y-12646698D01*
X23439944Y-12646698D02*
X23449468Y-12656222D01*
X23449468Y-12656222D02*
X23458991Y-12675269D01*
X23458991Y-12675269D02*
X23458991Y-12722888D01*
X23458991Y-12722888D02*
X23449468Y-12741936D01*
X23449468Y-12741936D02*
X23439944Y-12751460D01*
X23439944Y-12751460D02*
X23420896Y-12760984D01*
X23420896Y-12760984D02*
X23373277Y-12760984D01*
X23373277Y-12760984D02*
X23354229Y-12751460D01*
X23354229Y-12751460D02*
X23344706Y-12741936D01*
X23697087Y-12760984D02*
X23697087Y-12560984D01*
X23782801Y-12760984D02*
X23782801Y-12656222D01*
X23782801Y-12656222D02*
X23773277Y-12637174D01*
X23773277Y-12637174D02*
X23754230Y-12627650D01*
X23754230Y-12627650D02*
X23725658Y-12627650D01*
X23725658Y-12627650D02*
X23706610Y-12637174D01*
X23706610Y-12637174D02*
X23697087Y-12646698D01*
X23906610Y-12760984D02*
X23887563Y-12751460D01*
X23887563Y-12751460D02*
X23878039Y-12741936D01*
X23878039Y-12741936D02*
X23868515Y-12722888D01*
X23868515Y-12722888D02*
X23868515Y-12665746D01*
X23868515Y-12665746D02*
X23878039Y-12646698D01*
X23878039Y-12646698D02*
X23887563Y-12637174D01*
X23887563Y-12637174D02*
X23906610Y-12627650D01*
X23906610Y-12627650D02*
X23935182Y-12627650D01*
X23935182Y-12627650D02*
X23954230Y-12637174D01*
X23954230Y-12637174D02*
X23963753Y-12646698D01*
X23963753Y-12646698D02*
X23973277Y-12665746D01*
X23973277Y-12665746D02*
X23973277Y-12722888D01*
X23973277Y-12722888D02*
X23963753Y-12741936D01*
X23963753Y-12741936D02*
X23954230Y-12751460D01*
X23954230Y-12751460D02*
X23935182Y-12760984D01*
X23935182Y-12760984D02*
X23906610Y-12760984D01*
X24087563Y-12760984D02*
X24068515Y-12751460D01*
X24068515Y-12751460D02*
X24058991Y-12732412D01*
X24058991Y-12732412D02*
X24058991Y-12560984D01*
X24239944Y-12751460D02*
X24220896Y-12760984D01*
X24220896Y-12760984D02*
X24182801Y-12760984D01*
X24182801Y-12760984D02*
X24163753Y-12751460D01*
X24163753Y-12751460D02*
X24154230Y-12732412D01*
X24154230Y-12732412D02*
X24154230Y-12656222D01*
X24154230Y-12656222D02*
X24163753Y-12637174D01*
X24163753Y-12637174D02*
X24182801Y-12627650D01*
X24182801Y-12627650D02*
X24220896Y-12627650D01*
X24220896Y-12627650D02*
X24239944Y-12637174D01*
X24239944Y-12637174D02*
X24249468Y-12656222D01*
X24249468Y-12656222D02*
X24249468Y-12675269D01*
X24249468Y-12675269D02*
X24154230Y-12694317D01*
X24325658Y-12751460D02*
X24344706Y-12760984D01*
X24344706Y-12760984D02*
X24382801Y-12760984D01*
X24382801Y-12760984D02*
X24401849Y-12751460D01*
X24401849Y-12751460D02*
X24411372Y-12732412D01*
X24411372Y-12732412D02*
X24411372Y-12722888D01*
X24411372Y-12722888D02*
X24401849Y-12703841D01*
X24401849Y-12703841D02*
X24382801Y-12694317D01*
X24382801Y-12694317D02*
X24354230Y-12694317D01*
X24354230Y-12694317D02*
X24335182Y-12684793D01*
X24335182Y-12684793D02*
X24325658Y-12665746D01*
X24325658Y-12665746D02*
X24325658Y-12656222D01*
X24325658Y-12656222D02*
X24335182Y-12637174D01*
X24335182Y-12637174D02*
X24354230Y-12627650D01*
X24354230Y-12627650D02*
X24382801Y-12627650D01*
X24382801Y-12627650D02*
X24401849Y-12637174D01*
X24478039Y-12837174D02*
X24487563Y-12827650D01*
X24487563Y-12827650D02*
X24506611Y-12799079D01*
X24506611Y-12799079D02*
X24516134Y-12780031D01*
X24516134Y-12780031D02*
X24525658Y-12751460D01*
X24525658Y-12751460D02*
X24535182Y-12703841D01*
X24535182Y-12703841D02*
X24535182Y-12665746D01*
X24535182Y-12665746D02*
X24525658Y-12618127D01*
X24525658Y-12618127D02*
X24516134Y-12589555D01*
X24516134Y-12589555D02*
X24506611Y-12570508D01*
X24506611Y-12570508D02*
X24487563Y-12541936D01*
X24487563Y-12541936D02*
X24478039Y-12532412D01*
D13*
X19457500Y-12988500D02*
X19512500Y-12933500D01*
X19457500Y-12878500D01*
X19402500Y-12933500D01*
X19457500Y-12988500D01*
D11*
X19878039Y-13024984D02*
X19763753Y-13024984D01*
X19820896Y-13024984D02*
X19820896Y-12824984D01*
X19820896Y-12824984D02*
X19801848Y-12853555D01*
X19801848Y-12853555D02*
X19782801Y-12872603D01*
X19782801Y-12872603D02*
X19763753Y-12882127D01*
X19963753Y-13005936D02*
X19973277Y-13015460D01*
X19973277Y-13015460D02*
X19963753Y-13024984D01*
X19963753Y-13024984D02*
X19954229Y-13015460D01*
X19954229Y-13015460D02*
X19963753Y-13005936D01*
X19963753Y-13005936D02*
X19963753Y-13024984D01*
X20163753Y-13024984D02*
X20049467Y-13024984D01*
X20106610Y-13024984D02*
X20106610Y-12824984D01*
X20106610Y-12824984D02*
X20087563Y-12853555D01*
X20087563Y-12853555D02*
X20068515Y-12872603D01*
X20068515Y-12872603D02*
X20049467Y-12882127D01*
X20287563Y-12824984D02*
X20306610Y-12824984D01*
X20306610Y-12824984D02*
X20325658Y-12834508D01*
X20325658Y-12834508D02*
X20335182Y-12844031D01*
X20335182Y-12844031D02*
X20344705Y-12863079D01*
X20344705Y-12863079D02*
X20354229Y-12901174D01*
X20354229Y-12901174D02*
X20354229Y-12948793D01*
X20354229Y-12948793D02*
X20344705Y-12986888D01*
X20344705Y-12986888D02*
X20335182Y-13005936D01*
X20335182Y-13005936D02*
X20325658Y-13015460D01*
X20325658Y-13015460D02*
X20306610Y-13024984D01*
X20306610Y-13024984D02*
X20287563Y-13024984D01*
X20287563Y-13024984D02*
X20268515Y-13015460D01*
X20268515Y-13015460D02*
X20258991Y-13005936D01*
X20258991Y-13005936D02*
X20249467Y-12986888D01*
X20249467Y-12986888D02*
X20239944Y-12948793D01*
X20239944Y-12948793D02*
X20239944Y-12901174D01*
X20239944Y-12901174D02*
X20249467Y-12863079D01*
X20249467Y-12863079D02*
X20258991Y-12844031D01*
X20258991Y-12844031D02*
X20268515Y-12834508D01*
X20268515Y-12834508D02*
X20287563Y-12824984D01*
X20478039Y-12824984D02*
X20497086Y-12824984D01*
X20497086Y-12824984D02*
X20516134Y-12834508D01*
X20516134Y-12834508D02*
X20525658Y-12844031D01*
X20525658Y-12844031D02*
X20535182Y-12863079D01*
X20535182Y-12863079D02*
X20544705Y-12901174D01*
X20544705Y-12901174D02*
X20544705Y-12948793D01*
X20544705Y-12948793D02*
X20535182Y-12986888D01*
X20535182Y-12986888D02*
X20525658Y-13005936D01*
X20525658Y-13005936D02*
X20516134Y-13015460D01*
X20516134Y-13015460D02*
X20497086Y-13024984D01*
X20497086Y-13024984D02*
X20478039Y-13024984D01*
X20478039Y-13024984D02*
X20458991Y-13015460D01*
X20458991Y-13015460D02*
X20449467Y-13005936D01*
X20449467Y-13005936D02*
X20439944Y-12986888D01*
X20439944Y-12986888D02*
X20430420Y-12948793D01*
X20430420Y-12948793D02*
X20430420Y-12901174D01*
X20430420Y-12901174D02*
X20439944Y-12863079D01*
X20439944Y-12863079D02*
X20449467Y-12844031D01*
X20449467Y-12844031D02*
X20458991Y-12834508D01*
X20458991Y-12834508D02*
X20478039Y-12824984D01*
X20630420Y-13024984D02*
X20630420Y-12891650D01*
X20630420Y-12910698D02*
X20639944Y-12901174D01*
X20639944Y-12901174D02*
X20658991Y-12891650D01*
X20658991Y-12891650D02*
X20687563Y-12891650D01*
X20687563Y-12891650D02*
X20706610Y-12901174D01*
X20706610Y-12901174D02*
X20716134Y-12920222D01*
X20716134Y-12920222D02*
X20716134Y-13024984D01*
X20716134Y-12920222D02*
X20725658Y-12901174D01*
X20725658Y-12901174D02*
X20744705Y-12891650D01*
X20744705Y-12891650D02*
X20773277Y-12891650D01*
X20773277Y-12891650D02*
X20792325Y-12901174D01*
X20792325Y-12901174D02*
X20801848Y-12920222D01*
X20801848Y-12920222D02*
X20801848Y-13024984D01*
X20897086Y-13024984D02*
X20897086Y-12891650D01*
X20897086Y-12910698D02*
X20906610Y-12901174D01*
X20906610Y-12901174D02*
X20925658Y-12891650D01*
X20925658Y-12891650D02*
X20954229Y-12891650D01*
X20954229Y-12891650D02*
X20973277Y-12901174D01*
X20973277Y-12901174D02*
X20982801Y-12920222D01*
X20982801Y-12920222D02*
X20982801Y-13024984D01*
X20982801Y-12920222D02*
X20992325Y-12901174D01*
X20992325Y-12901174D02*
X21011372Y-12891650D01*
X21011372Y-12891650D02*
X21039944Y-12891650D01*
X21039944Y-12891650D02*
X21058991Y-12901174D01*
X21058991Y-12901174D02*
X21068515Y-12920222D01*
X21068515Y-12920222D02*
X21068515Y-13024984D01*
X21458991Y-12815460D02*
X21287563Y-13072603D01*
X21716134Y-12824984D02*
X21735182Y-12824984D01*
X21735182Y-12824984D02*
X21754229Y-12834508D01*
X21754229Y-12834508D02*
X21763753Y-12844031D01*
X21763753Y-12844031D02*
X21773277Y-12863079D01*
X21773277Y-12863079D02*
X21782801Y-12901174D01*
X21782801Y-12901174D02*
X21782801Y-12948793D01*
X21782801Y-12948793D02*
X21773277Y-12986888D01*
X21773277Y-12986888D02*
X21763753Y-13005936D01*
X21763753Y-13005936D02*
X21754229Y-13015460D01*
X21754229Y-13015460D02*
X21735182Y-13024984D01*
X21735182Y-13024984D02*
X21716134Y-13024984D01*
X21716134Y-13024984D02*
X21697087Y-13015460D01*
X21697087Y-13015460D02*
X21687563Y-13005936D01*
X21687563Y-13005936D02*
X21678039Y-12986888D01*
X21678039Y-12986888D02*
X21668515Y-12948793D01*
X21668515Y-12948793D02*
X21668515Y-12901174D01*
X21668515Y-12901174D02*
X21678039Y-12863079D01*
X21678039Y-12863079D02*
X21687563Y-12844031D01*
X21687563Y-12844031D02*
X21697087Y-12834508D01*
X21697087Y-12834508D02*
X21716134Y-12824984D01*
X21868515Y-13005936D02*
X21878039Y-13015460D01*
X21878039Y-13015460D02*
X21868515Y-13024984D01*
X21868515Y-13024984D02*
X21858991Y-13015460D01*
X21858991Y-13015460D02*
X21868515Y-13005936D01*
X21868515Y-13005936D02*
X21868515Y-13024984D01*
X22001848Y-12824984D02*
X22020896Y-12824984D01*
X22020896Y-12824984D02*
X22039944Y-12834508D01*
X22039944Y-12834508D02*
X22049468Y-12844031D01*
X22049468Y-12844031D02*
X22058991Y-12863079D01*
X22058991Y-12863079D02*
X22068515Y-12901174D01*
X22068515Y-12901174D02*
X22068515Y-12948793D01*
X22068515Y-12948793D02*
X22058991Y-12986888D01*
X22058991Y-12986888D02*
X22049468Y-13005936D01*
X22049468Y-13005936D02*
X22039944Y-13015460D01*
X22039944Y-13015460D02*
X22020896Y-13024984D01*
X22020896Y-13024984D02*
X22001848Y-13024984D01*
X22001848Y-13024984D02*
X21982801Y-13015460D01*
X21982801Y-13015460D02*
X21973277Y-13005936D01*
X21973277Y-13005936D02*
X21963753Y-12986888D01*
X21963753Y-12986888D02*
X21954229Y-12948793D01*
X21954229Y-12948793D02*
X21954229Y-12901174D01*
X21954229Y-12901174D02*
X21963753Y-12863079D01*
X21963753Y-12863079D02*
X21973277Y-12844031D01*
X21973277Y-12844031D02*
X21982801Y-12834508D01*
X21982801Y-12834508D02*
X22001848Y-12824984D01*
X22239944Y-12891650D02*
X22239944Y-13024984D01*
X22192325Y-12815460D02*
X22144706Y-12958317D01*
X22144706Y-12958317D02*
X22268515Y-12958317D01*
X22325658Y-12824984D02*
X22449467Y-12824984D01*
X22449467Y-12824984D02*
X22382801Y-12901174D01*
X22382801Y-12901174D02*
X22411372Y-12901174D01*
X22411372Y-12901174D02*
X22430420Y-12910698D01*
X22430420Y-12910698D02*
X22439944Y-12920222D01*
X22439944Y-12920222D02*
X22449467Y-12939269D01*
X22449467Y-12939269D02*
X22449467Y-12986888D01*
X22449467Y-12986888D02*
X22439944Y-13005936D01*
X22439944Y-13005936D02*
X22430420Y-13015460D01*
X22430420Y-13015460D02*
X22411372Y-13024984D01*
X22411372Y-13024984D02*
X22354229Y-13024984D01*
X22354229Y-13024984D02*
X22335182Y-13015460D01*
X22335182Y-13015460D02*
X22325658Y-13005936D01*
X22516134Y-12824984D02*
X22639944Y-12824984D01*
X22639944Y-12824984D02*
X22573277Y-12901174D01*
X22573277Y-12901174D02*
X22601848Y-12901174D01*
X22601848Y-12901174D02*
X22620896Y-12910698D01*
X22620896Y-12910698D02*
X22630420Y-12920222D01*
X22630420Y-12920222D02*
X22639944Y-12939269D01*
X22639944Y-12939269D02*
X22639944Y-12986888D01*
X22639944Y-12986888D02*
X22630420Y-13005936D01*
X22630420Y-13005936D02*
X22620896Y-13015460D01*
X22620896Y-13015460D02*
X22601848Y-13024984D01*
X22601848Y-13024984D02*
X22544706Y-13024984D01*
X22544706Y-13024984D02*
X22525658Y-13015460D01*
X22525658Y-13015460D02*
X22516134Y-13005936D01*
X22716134Y-12824984D02*
X22716134Y-12863079D01*
X22792325Y-12824984D02*
X22792325Y-12863079D01*
X23087563Y-13101174D02*
X23078039Y-13091650D01*
X23078039Y-13091650D02*
X23058991Y-13063079D01*
X23058991Y-13063079D02*
X23049468Y-13044031D01*
X23049468Y-13044031D02*
X23039944Y-13015460D01*
X23039944Y-13015460D02*
X23030420Y-12967841D01*
X23030420Y-12967841D02*
X23030420Y-12929746D01*
X23030420Y-12929746D02*
X23039944Y-12882127D01*
X23039944Y-12882127D02*
X23049468Y-12853555D01*
X23049468Y-12853555D02*
X23058991Y-12834508D01*
X23058991Y-12834508D02*
X23078039Y-12805936D01*
X23078039Y-12805936D02*
X23087563Y-12796412D01*
X23249468Y-12891650D02*
X23249468Y-13024984D01*
X23201848Y-12815460D02*
X23154229Y-12958317D01*
X23154229Y-12958317D02*
X23278039Y-12958317D01*
X23506610Y-13024984D02*
X23506610Y-12824984D01*
X23592325Y-13024984D02*
X23592325Y-12920222D01*
X23592325Y-12920222D02*
X23582801Y-12901174D01*
X23582801Y-12901174D02*
X23563753Y-12891650D01*
X23563753Y-12891650D02*
X23535182Y-12891650D01*
X23535182Y-12891650D02*
X23516134Y-12901174D01*
X23516134Y-12901174D02*
X23506610Y-12910698D01*
X23716134Y-13024984D02*
X23697087Y-13015460D01*
X23697087Y-13015460D02*
X23687563Y-13005936D01*
X23687563Y-13005936D02*
X23678039Y-12986888D01*
X23678039Y-12986888D02*
X23678039Y-12929746D01*
X23678039Y-12929746D02*
X23687563Y-12910698D01*
X23687563Y-12910698D02*
X23697087Y-12901174D01*
X23697087Y-12901174D02*
X23716134Y-12891650D01*
X23716134Y-12891650D02*
X23744706Y-12891650D01*
X23744706Y-12891650D02*
X23763753Y-12901174D01*
X23763753Y-12901174D02*
X23773277Y-12910698D01*
X23773277Y-12910698D02*
X23782801Y-12929746D01*
X23782801Y-12929746D02*
X23782801Y-12986888D01*
X23782801Y-12986888D02*
X23773277Y-13005936D01*
X23773277Y-13005936D02*
X23763753Y-13015460D01*
X23763753Y-13015460D02*
X23744706Y-13024984D01*
X23744706Y-13024984D02*
X23716134Y-13024984D01*
X23897087Y-13024984D02*
X23878039Y-13015460D01*
X23878039Y-13015460D02*
X23868515Y-12996412D01*
X23868515Y-12996412D02*
X23868515Y-12824984D01*
X24049468Y-13015460D02*
X24030420Y-13024984D01*
X24030420Y-13024984D02*
X23992325Y-13024984D01*
X23992325Y-13024984D02*
X23973277Y-13015460D01*
X23973277Y-13015460D02*
X23963753Y-12996412D01*
X23963753Y-12996412D02*
X23963753Y-12920222D01*
X23963753Y-12920222D02*
X23973277Y-12901174D01*
X23973277Y-12901174D02*
X23992325Y-12891650D01*
X23992325Y-12891650D02*
X24030420Y-12891650D01*
X24030420Y-12891650D02*
X24049468Y-12901174D01*
X24049468Y-12901174D02*
X24058991Y-12920222D01*
X24058991Y-12920222D02*
X24058991Y-12939269D01*
X24058991Y-12939269D02*
X23963753Y-12958317D01*
X24135182Y-13015460D02*
X24154230Y-13024984D01*
X24154230Y-13024984D02*
X24192325Y-13024984D01*
X24192325Y-13024984D02*
X24211372Y-13015460D01*
X24211372Y-13015460D02*
X24220896Y-12996412D01*
X24220896Y-12996412D02*
X24220896Y-12986888D01*
X24220896Y-12986888D02*
X24211372Y-12967841D01*
X24211372Y-12967841D02*
X24192325Y-12958317D01*
X24192325Y-12958317D02*
X24163753Y-12958317D01*
X24163753Y-12958317D02*
X24144706Y-12948793D01*
X24144706Y-12948793D02*
X24135182Y-12929746D01*
X24135182Y-12929746D02*
X24135182Y-12920222D01*
X24135182Y-12920222D02*
X24144706Y-12901174D01*
X24144706Y-12901174D02*
X24163753Y-12891650D01*
X24163753Y-12891650D02*
X24192325Y-12891650D01*
X24192325Y-12891650D02*
X24211372Y-12901174D01*
X24287563Y-13101174D02*
X24297087Y-13091650D01*
X24297087Y-13091650D02*
X24316134Y-13063079D01*
X24316134Y-13063079D02*
X24325658Y-13044031D01*
X24325658Y-13044031D02*
X24335182Y-13015460D01*
X24335182Y-13015460D02*
X24344706Y-12967841D01*
X24344706Y-12967841D02*
X24344706Y-12929746D01*
X24344706Y-12929746D02*
X24335182Y-12882127D01*
X24335182Y-12882127D02*
X24325658Y-12853555D01*
X24325658Y-12853555D02*
X24316134Y-12834508D01*
X24316134Y-12834508D02*
X24297087Y-12805936D01*
X24297087Y-12805936D02*
X24287563Y-12796412D01*
M02*
