G04 #@! TF.GenerationSoftware,KiCad,Pcbnew,7.0.10-7.0.10~ubuntu20.04.1*
G04 #@! TF.CreationDate,2024-07-25T13:55:33-03:00*
G04 #@! TF.ProjectId,Condicionamento_compacto_V01b,436f6e64-6963-4696-9f6e-616d656e746f,rev?*
G04 #@! TF.SameCoordinates,Original*
G04 #@! TF.FileFunction,Copper,L1,Top*
G04 #@! TF.FilePolarity,Positive*
%FSLAX46Y46*%
G04 Gerber Fmt 4.6, Leading zero omitted, Abs format (unit mm)*
G04 Created by KiCad (PCBNEW 7.0.10-7.0.10~ubuntu20.04.1) date 2024-07-25 13:55:33*
%MOMM*%
%LPD*%
G01*
G04 APERTURE LIST*
G04 Aperture macros list*
%AMRotRect*
0 Rectangle, with rotation*
0 The origin of the aperture is its center*
0 $1 length*
0 $2 width*
0 $3 Rotation angle, in degrees counterclockwise*
0 Add horizontal line*
21,1,$1,$2,0,0,$3*%
G04 Aperture macros list end*
G04 #@! TA.AperFunction,ComponentPad*
%ADD10R,1.700000X1.700000*%
G04 #@! TD*
G04 #@! TA.AperFunction,ComponentPad*
%ADD11O,1.700000X1.700000*%
G04 #@! TD*
G04 #@! TA.AperFunction,ComponentPad*
%ADD12C,1.600000*%
G04 #@! TD*
G04 #@! TA.AperFunction,ComponentPad*
%ADD13R,1.600000X1.600000*%
G04 #@! TD*
G04 #@! TA.AperFunction,ComponentPad*
%ADD14O,1.600000X1.600000*%
G04 #@! TD*
G04 #@! TA.AperFunction,ComponentPad*
%ADD15O,2.200000X2.200000*%
G04 #@! TD*
G04 #@! TA.AperFunction,ComponentPad*
%ADD16R,2.200000X2.200000*%
G04 #@! TD*
G04 #@! TA.AperFunction,ComponentPad*
%ADD17RotRect,1.600000X1.600000X315.000000*%
G04 #@! TD*
G04 #@! TA.AperFunction,SMDPad,CuDef*
%ADD18R,0.431800X1.524000*%
G04 #@! TD*
G04 #@! TA.AperFunction,ViaPad*
%ADD19C,1.000000*%
G04 #@! TD*
G04 #@! TA.AperFunction,Conductor*
%ADD20C,0.500000*%
G04 #@! TD*
G04 #@! TA.AperFunction,Conductor*
%ADD21C,0.431600*%
G04 #@! TD*
G04 APERTURE END LIST*
D10*
X72775000Y-103025000D03*
D11*
X72775000Y-100485000D03*
D12*
X78400000Y-100950000D03*
D13*
X80900000Y-100950000D03*
D14*
X105110000Y-108600000D03*
D12*
X97490000Y-108600000D03*
D15*
X103650000Y-91920000D03*
D16*
X103650000Y-102080000D03*
D12*
X80567767Y-94167767D03*
D17*
X78800000Y-92400000D03*
D10*
X110500000Y-92760000D03*
D11*
X110500000Y-95300000D03*
X110500000Y-97840000D03*
X110500000Y-100380000D03*
X110500000Y-102920000D03*
X110500000Y-105460000D03*
X110500000Y-108000000D03*
X110500000Y-110540000D03*
D14*
X87300000Y-102610000D03*
D12*
X87300000Y-94990000D03*
D14*
X97570000Y-102150000D03*
D12*
X89950000Y-102150000D03*
D14*
X89355100Y-112560000D03*
D12*
X89355100Y-104940000D03*
D15*
X95280000Y-92200000D03*
D16*
X85120000Y-92200000D03*
D12*
X93750000Y-107800000D03*
D13*
X93750000Y-105300000D03*
D15*
X100350000Y-91920000D03*
D16*
X100350000Y-102080000D03*
D12*
X91900000Y-96300000D03*
D13*
X91900000Y-98800000D03*
D15*
X92470000Y-112050000D03*
D16*
X102630000Y-112050000D03*
D11*
X72780000Y-91620000D03*
X72780000Y-94160000D03*
D10*
X72780000Y-96700000D03*
D14*
X97590000Y-105250000D03*
D12*
X105210000Y-105250000D03*
D11*
X72775000Y-111930000D03*
X72775000Y-109390000D03*
D10*
X72775000Y-106850000D03*
D14*
X84100000Y-94980000D03*
D12*
X84100000Y-102600000D03*
D18*
X80325001Y-111071700D03*
X80974999Y-111071700D03*
X81625001Y-111071700D03*
X82274999Y-111071700D03*
X82274999Y-106728300D03*
X81625001Y-106728300D03*
X80974999Y-106728300D03*
X80325001Y-106728300D03*
D19*
X76255700Y-100822300D03*
D20*
X80325000Y-106728300D02*
X80325000Y-107531700D01*
D21*
X80325000Y-107576200D02*
X80325000Y-107531700D01*
X81003700Y-108254900D02*
X80325000Y-107576200D01*
X81876500Y-108254900D02*
X81003700Y-108254900D01*
D20*
X84161600Y-110540000D02*
X110500000Y-110540000D01*
X81876500Y-108254900D02*
X84161600Y-110540000D01*
X111789600Y-109289600D02*
X110500000Y-108000000D01*
X111789600Y-111030300D02*
X111789600Y-109289600D01*
X109268000Y-113551900D02*
X111789600Y-111030300D01*
X91833300Y-113551900D02*
X109268000Y-113551900D01*
X90865200Y-112583800D02*
X91833300Y-113551900D01*
X90865200Y-112360700D02*
X90865200Y-112583800D01*
X89704700Y-111200200D02*
X90865200Y-112360700D01*
X82403500Y-111200200D02*
X89704700Y-111200200D01*
X82275000Y-111071700D02*
X82403500Y-111200200D01*
D21*
X81625000Y-110234600D02*
X81625000Y-111071700D01*
D20*
X81625000Y-110153300D02*
X74496700Y-103025000D01*
X81625000Y-110234600D02*
X81625000Y-110153300D01*
X74496700Y-103025000D02*
X72775000Y-103025000D01*
X76255700Y-101266000D02*
X74496700Y-103025000D01*
X76255700Y-100822300D02*
X76255700Y-101266000D01*
X72775000Y-100485000D02*
X72775000Y-99135000D01*
X106956500Y-100033500D02*
X82275000Y-100033500D01*
X109150000Y-97840000D02*
X106956500Y-100033500D01*
X82275000Y-106728300D02*
X82275000Y-100033500D01*
X71528100Y-97888100D02*
X72775000Y-99135000D01*
X71528100Y-93641300D02*
X71528100Y-97888100D01*
X72277900Y-92891500D02*
X71528100Y-93641300D01*
X75133000Y-92891500D02*
X72277900Y-92891500D01*
X82275000Y-100033500D02*
X75133000Y-92891500D01*
X110500000Y-97840000D02*
X109150000Y-97840000D01*
X98171000Y-93491000D02*
X96880000Y-92200000D01*
X108419000Y-93491000D02*
X98171000Y-93491000D01*
X109150000Y-92760000D02*
X108419000Y-93491000D01*
X110500000Y-92760000D02*
X109150000Y-92760000D01*
X95280000Y-92200000D02*
X96880000Y-92200000D01*
X98680000Y-102150000D02*
X98750000Y-102080000D01*
X97570000Y-102150000D02*
X98680000Y-102150000D01*
X100350000Y-102080000D02*
X98750000Y-102080000D01*
D21*
X81625000Y-106728300D02*
X81056200Y-106728300D01*
X81056200Y-106728300D02*
X80975000Y-106728300D01*
D20*
X81056200Y-103606200D02*
X78400000Y-100950000D01*
X81056200Y-106728300D02*
X81056200Y-103606200D01*
X74150000Y-96700000D02*
X72780000Y-96700000D01*
X78400000Y-100950000D02*
X74150000Y-96700000D01*
X79620000Y-99650000D02*
X80900000Y-99650000D01*
X74130000Y-94160000D02*
X79620000Y-99650000D01*
X72780000Y-94160000D02*
X74130000Y-94160000D01*
X80900000Y-100950000D02*
X80900000Y-99650000D01*
X85990000Y-102600000D02*
X86000000Y-102610000D01*
X84100000Y-102600000D02*
X85990000Y-102600000D01*
X87300000Y-102610000D02*
X86000000Y-102610000D01*
X89060000Y-102150000D02*
X88600000Y-102610000D01*
X89950000Y-102150000D02*
X89060000Y-102150000D01*
X87300000Y-102610000D02*
X88600000Y-102610000D01*
X80975000Y-111071700D02*
X80325000Y-111071700D01*
X77084700Y-109809700D02*
X74125000Y-106850000D01*
X80325000Y-109809700D02*
X77084700Y-109809700D01*
X80325000Y-111071700D02*
X80325000Y-109809700D01*
X72775000Y-106850000D02*
X74125000Y-106850000D01*
X72775000Y-109390000D02*
X74125000Y-109390000D01*
X77295000Y-112560000D02*
X74125000Y-109390000D01*
X88055100Y-112560000D02*
X77295000Y-112560000D01*
X89355100Y-112560000D02*
X88055100Y-112560000D01*
X101860000Y-108600000D02*
X105210000Y-105250000D01*
X97490000Y-108600000D02*
X101860000Y-108600000D01*
X95100000Y-105250000D02*
X95050000Y-105300000D01*
X97590000Y-105250000D02*
X95100000Y-105250000D01*
X93750000Y-105300000D02*
X95050000Y-105300000D01*
X103248300Y-105250000D02*
X97590000Y-105250000D01*
X109388300Y-99110000D02*
X103248300Y-105250000D01*
X111071000Y-99110000D02*
X109388300Y-99110000D01*
X111776000Y-98405000D02*
X111071000Y-99110000D01*
X111776000Y-96576000D02*
X111776000Y-98405000D01*
X110500000Y-95300000D02*
X111776000Y-96576000D01*
G04 #@! TA.AperFunction,Conductor*
G36*
X71305703Y-98727517D02*
G01*
X71312181Y-98733549D01*
X71876686Y-99298054D01*
X71910171Y-99359377D01*
X71905187Y-99429069D01*
X71876687Y-99473416D01*
X71736503Y-99613600D01*
X71600965Y-99807169D01*
X71600964Y-99807171D01*
X71501098Y-100021335D01*
X71501094Y-100021344D01*
X71439938Y-100249586D01*
X71439936Y-100249596D01*
X71419341Y-100484999D01*
X71419341Y-100485000D01*
X71439936Y-100720403D01*
X71439938Y-100720413D01*
X71501094Y-100948655D01*
X71501096Y-100948659D01*
X71501097Y-100948663D01*
X71562085Y-101079451D01*
X71600965Y-101162830D01*
X71600967Y-101162834D01*
X71706598Y-101313689D01*
X71736501Y-101356396D01*
X71736506Y-101356402D01*
X71858430Y-101478326D01*
X71891915Y-101539649D01*
X71886931Y-101609341D01*
X71845059Y-101665274D01*
X71814083Y-101682189D01*
X71682669Y-101731203D01*
X71682664Y-101731206D01*
X71567455Y-101817452D01*
X71567452Y-101817455D01*
X71481206Y-101932664D01*
X71481202Y-101932671D01*
X71430908Y-102067517D01*
X71424501Y-102127116D01*
X71424500Y-102127135D01*
X71424500Y-103922870D01*
X71424501Y-103922876D01*
X71430908Y-103982483D01*
X71481202Y-104117328D01*
X71481206Y-104117335D01*
X71567452Y-104232544D01*
X71567455Y-104232547D01*
X71682664Y-104318793D01*
X71682671Y-104318797D01*
X71817517Y-104369091D01*
X71817516Y-104369091D01*
X71824444Y-104369835D01*
X71877127Y-104375500D01*
X73672872Y-104375499D01*
X73732483Y-104369091D01*
X73867331Y-104318796D01*
X73982546Y-104232546D01*
X74068796Y-104117331D01*
X74119091Y-103982483D01*
X74119092Y-103982470D01*
X74120272Y-103977478D01*
X74154840Y-103916759D01*
X74216748Y-103884367D01*
X74286340Y-103890587D01*
X74328633Y-103918301D01*
X79257852Y-108847519D01*
X79291337Y-108908842D01*
X79286353Y-108978534D01*
X79244481Y-109034467D01*
X79179017Y-109058884D01*
X79170171Y-109059200D01*
X77446929Y-109059200D01*
X77379890Y-109039515D01*
X77359248Y-109022881D01*
X74700729Y-106364361D01*
X74688949Y-106350730D01*
X74674610Y-106331470D01*
X74636651Y-106299619D01*
X74628686Y-106292318D01*
X74624780Y-106288411D01*
X74600443Y-106269168D01*
X74597647Y-106266890D01*
X74540214Y-106218698D01*
X74534180Y-106214729D01*
X74534212Y-106214680D01*
X74527853Y-106210628D01*
X74527822Y-106210679D01*
X74521680Y-106206891D01*
X74521678Y-106206890D01*
X74521677Y-106206889D01*
X74453688Y-106175184D01*
X74450447Y-106173615D01*
X74399183Y-106147870D01*
X74383433Y-106139960D01*
X74383431Y-106139959D01*
X74383430Y-106139959D01*
X74376645Y-106137489D01*
X74376665Y-106137433D01*
X74369549Y-106134959D01*
X74369531Y-106135015D01*
X74362674Y-106132743D01*
X74289210Y-106117573D01*
X74285692Y-106116793D01*
X74220904Y-106101439D01*
X74160211Y-106066826D01*
X74127866Y-106004894D01*
X74125499Y-105980781D01*
X74125499Y-105952129D01*
X74125498Y-105952123D01*
X74125497Y-105952116D01*
X74119091Y-105892517D01*
X74068796Y-105757669D01*
X74068795Y-105757668D01*
X74068793Y-105757664D01*
X73982547Y-105642455D01*
X73982544Y-105642452D01*
X73867335Y-105556206D01*
X73867328Y-105556202D01*
X73732482Y-105505908D01*
X73732483Y-105505908D01*
X73672883Y-105499501D01*
X73672881Y-105499500D01*
X73672873Y-105499500D01*
X73672864Y-105499500D01*
X71877129Y-105499500D01*
X71877123Y-105499501D01*
X71817516Y-105505908D01*
X71682671Y-105556202D01*
X71682664Y-105556206D01*
X71567455Y-105642452D01*
X71567452Y-105642455D01*
X71481206Y-105757664D01*
X71481202Y-105757671D01*
X71430908Y-105892517D01*
X71424501Y-105952116D01*
X71424501Y-105952123D01*
X71424500Y-105952135D01*
X71424500Y-107747870D01*
X71424501Y-107747876D01*
X71430908Y-107807483D01*
X71481202Y-107942328D01*
X71481206Y-107942335D01*
X71567452Y-108057544D01*
X71567455Y-108057547D01*
X71682664Y-108143793D01*
X71682671Y-108143797D01*
X71814081Y-108192810D01*
X71870015Y-108234681D01*
X71894432Y-108300145D01*
X71879580Y-108368418D01*
X71858430Y-108396673D01*
X71736503Y-108518600D01*
X71600965Y-108712169D01*
X71600964Y-108712171D01*
X71501098Y-108926335D01*
X71501094Y-108926344D01*
X71439938Y-109154586D01*
X71439936Y-109154596D01*
X71419341Y-109389999D01*
X71419341Y-109390000D01*
X71439936Y-109625403D01*
X71439938Y-109625413D01*
X71501094Y-109853655D01*
X71501096Y-109853659D01*
X71501097Y-109853663D01*
X71600965Y-110067830D01*
X71600967Y-110067834D01*
X71709281Y-110222521D01*
X71736505Y-110261401D01*
X71903599Y-110428495D01*
X71984689Y-110485275D01*
X72097165Y-110564032D01*
X72097167Y-110564033D01*
X72097170Y-110564035D01*
X72311337Y-110663903D01*
X72539592Y-110725063D01*
X72727918Y-110741539D01*
X72774999Y-110745659D01*
X72775000Y-110745659D01*
X72775001Y-110745659D01*
X72814234Y-110742226D01*
X73010408Y-110725063D01*
X73238663Y-110663903D01*
X73452830Y-110564035D01*
X73646401Y-110428495D01*
X73786583Y-110288313D01*
X73847906Y-110254828D01*
X73917598Y-110259812D01*
X73961945Y-110288313D01*
X76719270Y-113045638D01*
X76731051Y-113059270D01*
X76745388Y-113078528D01*
X76783337Y-113110372D01*
X76791310Y-113117679D01*
X76795217Y-113121586D01*
X76795223Y-113121591D01*
X76819537Y-113140816D01*
X76822318Y-113143080D01*
X76849956Y-113166271D01*
X76879789Y-113191305D01*
X76885818Y-113195270D01*
X76885785Y-113195319D01*
X76892147Y-113199372D01*
X76892179Y-113199321D01*
X76898319Y-113203108D01*
X76898323Y-113203111D01*
X76936977Y-113221135D01*
X76966320Y-113234819D01*
X76969566Y-113236391D01*
X77036562Y-113270038D01*
X77043357Y-113272511D01*
X77043336Y-113272567D01*
X77050457Y-113275043D01*
X77050476Y-113274986D01*
X77057319Y-113277253D01*
X77057327Y-113277257D01*
X77130895Y-113292447D01*
X77134228Y-113293186D01*
X77207279Y-113310500D01*
X77207281Y-113310500D01*
X77207285Y-113310501D01*
X77214453Y-113311339D01*
X77214446Y-113311398D01*
X77221944Y-113312164D01*
X77221950Y-113312105D01*
X77229139Y-113312734D01*
X77229143Y-113312733D01*
X77229144Y-113312734D01*
X77304130Y-113310552D01*
X77307737Y-113310500D01*
X87967379Y-113310500D01*
X88228437Y-113310500D01*
X88295476Y-113330185D01*
X88330012Y-113363377D01*
X88355054Y-113399141D01*
X88515958Y-113560045D01*
X88515961Y-113560047D01*
X88702366Y-113690568D01*
X88857949Y-113763118D01*
X88910388Y-113809291D01*
X88929540Y-113876484D01*
X88909324Y-113943365D01*
X88856159Y-113988700D01*
X88805544Y-113999500D01*
X71224500Y-113999500D01*
X71157461Y-113979815D01*
X71111706Y-113927011D01*
X71100500Y-113875500D01*
X71100500Y-98821230D01*
X71120185Y-98754191D01*
X71172989Y-98708436D01*
X71242147Y-98698492D01*
X71305703Y-98727517D01*
G37*
G04 #@! TD.AperFunction*
G04 #@! TA.AperFunction,Conductor*
G36*
X115042539Y-90020185D02*
G01*
X115088294Y-90072989D01*
X115099500Y-90124500D01*
X115099500Y-113875500D01*
X115079815Y-113942539D01*
X115027011Y-113988294D01*
X114975500Y-113999500D01*
X110181130Y-113999500D01*
X110114091Y-113979815D01*
X110068336Y-113927011D01*
X110058392Y-113857853D01*
X110087417Y-113794297D01*
X110093449Y-113787819D01*
X110637419Y-113243849D01*
X112275242Y-111606024D01*
X112288871Y-111594247D01*
X112308130Y-111579910D01*
X112339960Y-111541976D01*
X112347277Y-111533991D01*
X112351187Y-111530081D01*
X112351187Y-111530080D01*
X112351191Y-111530077D01*
X112370433Y-111505738D01*
X112372669Y-111502993D01*
X112420902Y-111445514D01*
X112420907Y-111445503D01*
X112424874Y-111439475D01*
X112424925Y-111439508D01*
X112428972Y-111433156D01*
X112428920Y-111433124D01*
X112432708Y-111426980D01*
X112432711Y-111426977D01*
X112464421Y-111358973D01*
X112465962Y-111355788D01*
X112499640Y-111288733D01*
X112499643Y-111288717D01*
X112502109Y-111281946D01*
X112502167Y-111281967D01*
X112504643Y-111274846D01*
X112504586Y-111274828D01*
X112506856Y-111267977D01*
X112511404Y-111245949D01*
X112522047Y-111194402D01*
X112522779Y-111191098D01*
X112540100Y-111118021D01*
X112540100Y-111118012D01*
X112540938Y-111110848D01*
X112540998Y-111110855D01*
X112541764Y-111103355D01*
X112541705Y-111103350D01*
X112542334Y-111096160D01*
X112540152Y-111021169D01*
X112540100Y-111017562D01*
X112540100Y-109353305D01*
X112541409Y-109335335D01*
X112541729Y-109333147D01*
X112544889Y-109311577D01*
X112544661Y-109308974D01*
X112540572Y-109262230D01*
X112540100Y-109251422D01*
X112540100Y-109245896D01*
X112540100Y-109245891D01*
X112536501Y-109215109D01*
X112536136Y-109211529D01*
X112529599Y-109136801D01*
X112528139Y-109129729D01*
X112528197Y-109129716D01*
X112526565Y-109122357D01*
X112526506Y-109122372D01*
X112524841Y-109115351D01*
X112524841Y-109115345D01*
X112499169Y-109044812D01*
X112498021Y-109041509D01*
X112474414Y-108970266D01*
X112474410Y-108970259D01*
X112471360Y-108963718D01*
X112471415Y-108963691D01*
X112468133Y-108956913D01*
X112468080Y-108956940D01*
X112464835Y-108950480D01*
X112423625Y-108887823D01*
X112421686Y-108884781D01*
X112413433Y-108871401D01*
X112382312Y-108820945D01*
X112382311Y-108820944D01*
X112382310Y-108820942D01*
X112377834Y-108815282D01*
X112377881Y-108815244D01*
X112373119Y-108809399D01*
X112373074Y-108809438D01*
X112368431Y-108803905D01*
X112313873Y-108752432D01*
X112311286Y-108749919D01*
X111872869Y-108311502D01*
X111839384Y-108250179D01*
X111837022Y-108213013D01*
X111855659Y-108000000D01*
X111855659Y-107999999D01*
X111850614Y-107942335D01*
X111835063Y-107764592D01*
X111773903Y-107536337D01*
X111674035Y-107322171D01*
X111668570Y-107314365D01*
X111538494Y-107128597D01*
X111371402Y-106961506D01*
X111371396Y-106961501D01*
X111185842Y-106831575D01*
X111142217Y-106776998D01*
X111135023Y-106707500D01*
X111166546Y-106645145D01*
X111185842Y-106628425D01*
X111306703Y-106543797D01*
X111371401Y-106498495D01*
X111538495Y-106331401D01*
X111674035Y-106137830D01*
X111773903Y-105923663D01*
X111835063Y-105695408D01*
X111855659Y-105460000D01*
X111835063Y-105224592D01*
X111773903Y-104996337D01*
X111674035Y-104782171D01*
X111625821Y-104713313D01*
X111538494Y-104588597D01*
X111371402Y-104421506D01*
X111371395Y-104421501D01*
X111356195Y-104410858D01*
X111296546Y-104369091D01*
X111177834Y-104285967D01*
X111177830Y-104285965D01*
X111100602Y-104249953D01*
X110963663Y-104186097D01*
X110963659Y-104186096D01*
X110963655Y-104186094D01*
X110735413Y-104124938D01*
X110735403Y-104124936D01*
X110500001Y-104104341D01*
X110499999Y-104104341D01*
X110264596Y-104124936D01*
X110264586Y-104124938D01*
X110036344Y-104186094D01*
X110036335Y-104186098D01*
X109822171Y-104285964D01*
X109822169Y-104285965D01*
X109628597Y-104421505D01*
X109461505Y-104588597D01*
X109325965Y-104782169D01*
X109325964Y-104782171D01*
X109226098Y-104996335D01*
X109226094Y-104996344D01*
X109164938Y-105224586D01*
X109164936Y-105224596D01*
X109144341Y-105459999D01*
X109144341Y-105460000D01*
X109164936Y-105695403D01*
X109164938Y-105695413D01*
X109226094Y-105923655D01*
X109226096Y-105923659D01*
X109226097Y-105923663D01*
X109307050Y-106097266D01*
X109325965Y-106137830D01*
X109325967Y-106137834D01*
X109401334Y-106245468D01*
X109439261Y-106299634D01*
X109461501Y-106331395D01*
X109461506Y-106331402D01*
X109628597Y-106498493D01*
X109628603Y-106498498D01*
X109814158Y-106628425D01*
X109857783Y-106683002D01*
X109864977Y-106752500D01*
X109833454Y-106814855D01*
X109814158Y-106831575D01*
X109628597Y-106961505D01*
X109461505Y-107128597D01*
X109325965Y-107322169D01*
X109325964Y-107322171D01*
X109226098Y-107536335D01*
X109226094Y-107536344D01*
X109164938Y-107764586D01*
X109164936Y-107764596D01*
X109144341Y-107999999D01*
X109144341Y-108000000D01*
X109164936Y-108235403D01*
X109164938Y-108235413D01*
X109226094Y-108463655D01*
X109226096Y-108463659D01*
X109226097Y-108463663D01*
X109289671Y-108599998D01*
X109325965Y-108677830D01*
X109325967Y-108677834D01*
X109378202Y-108752432D01*
X109439261Y-108839634D01*
X109461501Y-108871395D01*
X109461506Y-108871402D01*
X109628597Y-109038493D01*
X109628603Y-109038498D01*
X109814158Y-109168425D01*
X109857783Y-109223002D01*
X109864977Y-109292500D01*
X109833454Y-109354855D01*
X109814158Y-109371575D01*
X109628597Y-109501505D01*
X109461506Y-109668596D01*
X109413874Y-109736623D01*
X109359297Y-109780248D01*
X109312299Y-109789500D01*
X98439049Y-109789500D01*
X98372010Y-109769815D01*
X98326255Y-109717011D01*
X98316311Y-109647853D01*
X98345336Y-109584297D01*
X98351368Y-109577819D01*
X98490045Y-109439141D01*
X98490047Y-109439139D01*
X98515088Y-109403377D01*
X98569665Y-109359752D01*
X98616663Y-109350500D01*
X101796295Y-109350500D01*
X101814265Y-109351809D01*
X101838023Y-109355289D01*
X101887369Y-109350971D01*
X101898176Y-109350500D01*
X101903704Y-109350500D01*
X101903709Y-109350500D01*
X101934556Y-109346893D01*
X101938030Y-109346539D01*
X102012797Y-109339999D01*
X102012805Y-109339996D01*
X102019866Y-109338539D01*
X102019878Y-109338598D01*
X102027243Y-109336965D01*
X102027229Y-109336906D01*
X102034249Y-109335241D01*
X102034255Y-109335241D01*
X102104779Y-109309572D01*
X102108117Y-109308412D01*
X102179334Y-109284814D01*
X102179342Y-109284808D01*
X102185882Y-109281760D01*
X102185908Y-109281816D01*
X102192690Y-109278532D01*
X102192663Y-109278478D01*
X102199113Y-109275238D01*
X102199117Y-109275237D01*
X102261837Y-109233984D01*
X102264732Y-109232140D01*
X102328656Y-109192712D01*
X102328662Y-109192705D01*
X102334325Y-109188229D01*
X102334362Y-109188277D01*
X102340204Y-109183518D01*
X102340164Y-109183471D01*
X102345686Y-109178835D01*
X102345696Y-109178830D01*
X102397185Y-109124253D01*
X102399632Y-109121734D01*
X104944652Y-106576714D01*
X105005973Y-106543231D01*
X105043135Y-106540869D01*
X105186366Y-106553400D01*
X105209999Y-106555468D01*
X105210000Y-106555468D01*
X105210002Y-106555468D01*
X105266673Y-106550509D01*
X105436692Y-106535635D01*
X105656496Y-106476739D01*
X105862734Y-106380568D01*
X106049139Y-106250047D01*
X106210047Y-106089139D01*
X106340568Y-105902734D01*
X106436739Y-105696496D01*
X106495635Y-105476692D01*
X106515468Y-105250000D01*
X106513245Y-105224596D01*
X106495635Y-105023313D01*
X106495635Y-105023308D01*
X106436739Y-104803504D01*
X106340568Y-104597266D01*
X106210047Y-104410861D01*
X106210045Y-104410858D01*
X106049141Y-104249954D01*
X105862734Y-104119432D01*
X105862732Y-104119431D01*
X105830371Y-104104341D01*
X105735092Y-104059911D01*
X105682654Y-104013740D01*
X105663502Y-103946546D01*
X105683718Y-103879665D01*
X105699812Y-103859854D01*
X108966435Y-100593231D01*
X109027756Y-100559748D01*
X109097448Y-100564732D01*
X109153381Y-100606604D01*
X109173889Y-100648821D01*
X109226094Y-100843655D01*
X109226096Y-100843659D01*
X109226097Y-100843663D01*
X109306097Y-101015223D01*
X109325965Y-101057830D01*
X109325967Y-101057834D01*
X109419177Y-101190951D01*
X109461505Y-101251401D01*
X109628599Y-101418495D01*
X109715625Y-101479431D01*
X109822165Y-101554032D01*
X109822167Y-101554033D01*
X109822170Y-101554035D01*
X110036337Y-101653903D01*
X110264592Y-101715063D01*
X110449057Y-101731202D01*
X110499999Y-101735659D01*
X110500000Y-101735659D01*
X110500001Y-101735659D01*
X110550897Y-101731206D01*
X110735408Y-101715063D01*
X110963663Y-101653903D01*
X111177830Y-101554035D01*
X111371401Y-101418495D01*
X111538495Y-101251401D01*
X111674035Y-101057830D01*
X111773903Y-100843663D01*
X111835063Y-100615408D01*
X111855659Y-100380000D01*
X111835063Y-100144592D01*
X111773903Y-99916337D01*
X111674035Y-99702171D01*
X111674031Y-99702166D01*
X111672626Y-99699731D01*
X111672331Y-99698517D01*
X111671747Y-99697264D01*
X111671998Y-99697146D01*
X111656147Y-99631832D01*
X111678993Y-99565803D01*
X111692321Y-99550045D01*
X112261641Y-98980724D01*
X112275260Y-98968954D01*
X112294530Y-98954610D01*
X112326372Y-98916661D01*
X112333671Y-98908694D01*
X112337591Y-98904776D01*
X112356853Y-98880413D01*
X112359076Y-98877686D01*
X112407300Y-98820216D01*
X112407302Y-98820214D01*
X112407304Y-98820209D01*
X112411274Y-98814175D01*
X112411325Y-98814208D01*
X112415369Y-98807860D01*
X112415317Y-98807828D01*
X112419106Y-98801682D01*
X112419111Y-98801677D01*
X112450832Y-98733647D01*
X112452358Y-98730496D01*
X112486040Y-98663433D01*
X112486041Y-98663428D01*
X112488508Y-98656650D01*
X112488566Y-98656671D01*
X112491043Y-98649544D01*
X112490986Y-98649526D01*
X112493256Y-98642676D01*
X112502515Y-98597832D01*
X112508439Y-98569139D01*
X112509187Y-98565762D01*
X112526500Y-98492721D01*
X112526500Y-98492717D01*
X112526501Y-98492713D01*
X112527339Y-98485548D01*
X112527398Y-98485554D01*
X112528164Y-98478054D01*
X112528105Y-98478049D01*
X112528734Y-98470859D01*
X112526552Y-98395869D01*
X112526500Y-98392262D01*
X112526500Y-96639705D01*
X112527809Y-96621736D01*
X112528313Y-96618288D01*
X112531289Y-96597977D01*
X112528841Y-96570000D01*
X112526972Y-96548630D01*
X112526500Y-96537822D01*
X112526500Y-96532296D01*
X112526500Y-96532291D01*
X112522901Y-96501509D01*
X112522536Y-96497929D01*
X112515999Y-96423201D01*
X112514539Y-96416129D01*
X112514597Y-96416116D01*
X112512965Y-96408757D01*
X112512906Y-96408772D01*
X112511241Y-96401751D01*
X112511241Y-96401745D01*
X112485569Y-96331212D01*
X112484421Y-96327909D01*
X112460814Y-96256666D01*
X112460810Y-96256659D01*
X112457760Y-96250118D01*
X112457815Y-96250091D01*
X112454533Y-96243313D01*
X112454480Y-96243340D01*
X112451235Y-96236880D01*
X112410025Y-96174223D01*
X112408086Y-96171181D01*
X112390283Y-96142318D01*
X112368712Y-96107345D01*
X112368711Y-96107344D01*
X112368710Y-96107342D01*
X112364234Y-96101682D01*
X112364281Y-96101644D01*
X112359519Y-96095799D01*
X112359474Y-96095838D01*
X112354831Y-96090305D01*
X112300273Y-96038832D01*
X112297686Y-96036319D01*
X111872869Y-95611502D01*
X111839384Y-95550179D01*
X111837022Y-95513013D01*
X111840503Y-95473235D01*
X111855659Y-95300000D01*
X111835063Y-95064592D01*
X111773903Y-94836337D01*
X111674035Y-94622171D01*
X111668498Y-94614264D01*
X111538496Y-94428600D01*
X111504349Y-94394453D01*
X111416567Y-94306671D01*
X111383084Y-94245351D01*
X111388068Y-94175659D01*
X111429939Y-94119725D01*
X111460915Y-94102810D01*
X111592331Y-94053796D01*
X111707546Y-93967546D01*
X111793796Y-93852331D01*
X111844091Y-93717483D01*
X111850500Y-93657873D01*
X111850499Y-91862128D01*
X111844091Y-91802517D01*
X111806125Y-91700726D01*
X111793797Y-91667671D01*
X111793793Y-91667664D01*
X111707547Y-91552455D01*
X111707544Y-91552452D01*
X111592335Y-91466206D01*
X111592328Y-91466202D01*
X111457482Y-91415908D01*
X111457483Y-91415908D01*
X111397883Y-91409501D01*
X111397881Y-91409500D01*
X111397873Y-91409500D01*
X111397864Y-91409500D01*
X109602129Y-91409500D01*
X109602123Y-91409501D01*
X109542516Y-91415908D01*
X109407671Y-91466202D01*
X109407664Y-91466206D01*
X109292455Y-91552452D01*
X109292452Y-91552455D01*
X109206206Y-91667664D01*
X109206202Y-91667671D01*
X109155908Y-91802517D01*
X109149501Y-91862116D01*
X109149501Y-91862123D01*
X109149500Y-91862135D01*
X109149500Y-91893052D01*
X109129815Y-91960091D01*
X109077011Y-92005846D01*
X109036309Y-92016580D01*
X108997200Y-92020001D01*
X108990134Y-92021461D01*
X108990122Y-92021404D01*
X108982753Y-92023038D01*
X108982767Y-92023095D01*
X108975739Y-92024760D01*
X108905271Y-92050408D01*
X108901867Y-92051591D01*
X108830668Y-92075184D01*
X108824122Y-92078237D01*
X108824097Y-92078185D01*
X108817308Y-92081471D01*
X108817334Y-92081522D01*
X108810886Y-92084760D01*
X108748228Y-92125970D01*
X108745191Y-92127905D01*
X108681344Y-92167288D01*
X108675677Y-92171769D01*
X108675641Y-92171723D01*
X108669798Y-92176484D01*
X108669835Y-92176528D01*
X108664310Y-92181164D01*
X108664304Y-92181169D01*
X108664304Y-92181170D01*
X108637400Y-92209686D01*
X108612848Y-92235709D01*
X108610336Y-92238294D01*
X108144451Y-92704181D01*
X108083128Y-92737666D01*
X108056770Y-92740500D01*
X105228086Y-92740500D01*
X105161047Y-92720815D01*
X105115292Y-92668011D01*
X105105348Y-92598853D01*
X105113525Y-92569047D01*
X105176873Y-92416110D01*
X105180741Y-92400000D01*
X105235683Y-92171148D01*
X105255449Y-91920000D01*
X105235683Y-91668852D01*
X105176873Y-91423889D01*
X105170913Y-91409500D01*
X105080466Y-91191140D01*
X104948839Y-90976346D01*
X104948838Y-90976343D01*
X104884625Y-90901160D01*
X104785224Y-90784776D01*
X104634683Y-90656202D01*
X104593656Y-90621161D01*
X104593653Y-90621160D01*
X104378859Y-90489533D01*
X104146110Y-90393126D01*
X103901151Y-90334317D01*
X103650000Y-90314551D01*
X103398848Y-90334317D01*
X103153889Y-90393126D01*
X102921140Y-90489533D01*
X102706346Y-90621160D01*
X102706343Y-90621161D01*
X102514776Y-90784776D01*
X102351161Y-90976343D01*
X102351160Y-90976346D01*
X102219533Y-91191140D01*
X102123126Y-91423889D01*
X102064317Y-91668848D01*
X102044551Y-91920000D01*
X102064317Y-92171151D01*
X102123126Y-92416110D01*
X102186475Y-92569047D01*
X102193944Y-92638517D01*
X102162669Y-92700996D01*
X102102580Y-92736648D01*
X102071914Y-92740500D01*
X98533229Y-92740500D01*
X98466190Y-92720815D01*
X98445548Y-92704181D01*
X97958053Y-92216686D01*
X97455729Y-91714361D01*
X97443949Y-91700730D01*
X97429610Y-91681470D01*
X97391651Y-91649619D01*
X97383686Y-91642318D01*
X97379780Y-91638411D01*
X97355443Y-91619168D01*
X97352647Y-91616890D01*
X97295214Y-91568698D01*
X97289180Y-91564729D01*
X97289212Y-91564680D01*
X97282853Y-91560628D01*
X97282822Y-91560679D01*
X97276680Y-91556891D01*
X97276678Y-91556890D01*
X97276677Y-91556889D01*
X97208688Y-91525184D01*
X97205447Y-91523615D01*
X97174530Y-91508088D01*
X97138433Y-91489960D01*
X97138431Y-91489959D01*
X97138430Y-91489959D01*
X97131645Y-91487489D01*
X97131665Y-91487433D01*
X97124549Y-91484959D01*
X97124531Y-91485015D01*
X97117674Y-91482743D01*
X97044210Y-91467573D01*
X97040693Y-91466793D01*
X96967718Y-91449499D01*
X96960547Y-91448661D01*
X96960553Y-91448601D01*
X96953055Y-91447835D01*
X96953050Y-91447895D01*
X96945860Y-91447265D01*
X96870870Y-91449448D01*
X96867263Y-91449500D01*
X96766647Y-91449500D01*
X96699608Y-91429815D01*
X96660919Y-91390289D01*
X96578837Y-91256343D01*
X96578836Y-91256341D01*
X96415224Y-91064776D01*
X96288571Y-90956604D01*
X96223656Y-90901161D01*
X96223653Y-90901160D01*
X96008859Y-90769533D01*
X95776110Y-90673126D01*
X95531151Y-90614317D01*
X95280000Y-90594551D01*
X95028848Y-90614317D01*
X94783889Y-90673126D01*
X94551140Y-90769533D01*
X94336346Y-90901160D01*
X94336343Y-90901161D01*
X94144776Y-91064776D01*
X93981161Y-91256343D01*
X93981160Y-91256346D01*
X93849533Y-91471140D01*
X93753126Y-91703889D01*
X93694317Y-91948848D01*
X93674551Y-92200000D01*
X93694317Y-92451151D01*
X93753126Y-92696110D01*
X93849533Y-92928859D01*
X93981160Y-93143653D01*
X93981161Y-93143656D01*
X93981164Y-93143659D01*
X94144776Y-93335224D01*
X94293066Y-93461875D01*
X94336343Y-93498838D01*
X94336346Y-93498839D01*
X94551140Y-93630466D01*
X94770381Y-93721278D01*
X94783889Y-93726873D01*
X95028852Y-93785683D01*
X95280000Y-93805449D01*
X95531148Y-93785683D01*
X95776111Y-93726873D01*
X96008859Y-93630466D01*
X96223659Y-93498836D01*
X96415224Y-93335224D01*
X96576226Y-93146715D01*
X96634732Y-93108521D01*
X96704600Y-93108022D01*
X96758197Y-93139565D01*
X97595270Y-93976638D01*
X97607051Y-93990270D01*
X97621388Y-94009528D01*
X97621389Y-94009529D01*
X97621390Y-94009530D01*
X97633234Y-94019468D01*
X97659337Y-94041372D01*
X97667310Y-94048679D01*
X97671217Y-94052586D01*
X97671223Y-94052591D01*
X97695537Y-94071816D01*
X97698318Y-94074080D01*
X97725956Y-94097271D01*
X97755789Y-94122305D01*
X97761818Y-94126270D01*
X97761785Y-94126319D01*
X97768147Y-94130372D01*
X97768179Y-94130321D01*
X97774319Y-94134108D01*
X97774323Y-94134111D01*
X97812977Y-94152135D01*
X97842320Y-94165819D01*
X97845566Y-94167391D01*
X97912562Y-94201038D01*
X97919357Y-94203511D01*
X97919336Y-94203567D01*
X97926455Y-94206042D01*
X97926474Y-94205986D01*
X97933324Y-94208255D01*
X97933327Y-94208257D01*
X98006842Y-94223435D01*
X98010290Y-94224200D01*
X98032814Y-94229539D01*
X98083274Y-94241499D01*
X98083275Y-94241499D01*
X98083279Y-94241500D01*
X98083283Y-94241500D01*
X98090452Y-94242338D01*
X98090444Y-94242397D01*
X98097945Y-94243164D01*
X98097951Y-94243105D01*
X98105140Y-94243734D01*
X98105144Y-94243733D01*
X98105145Y-94243734D01*
X98180131Y-94241552D01*
X98183738Y-94241500D01*
X108355295Y-94241500D01*
X108373265Y-94242809D01*
X108397023Y-94246289D01*
X108446369Y-94241971D01*
X108457176Y-94241500D01*
X108462704Y-94241500D01*
X108462709Y-94241500D01*
X108493556Y-94237893D01*
X108497030Y-94237539D01*
X108571797Y-94230999D01*
X108571805Y-94230996D01*
X108578866Y-94229539D01*
X108578878Y-94229598D01*
X108586243Y-94227965D01*
X108586229Y-94227906D01*
X108593249Y-94226241D01*
X108593255Y-94226241D01*
X108663779Y-94200572D01*
X108667117Y-94199412D01*
X108738334Y-94175814D01*
X108738342Y-94175808D01*
X108744882Y-94172760D01*
X108744908Y-94172816D01*
X108751690Y-94169532D01*
X108751663Y-94169478D01*
X108758113Y-94166238D01*
X108758117Y-94166237D01*
X108820837Y-94124984D01*
X108823732Y-94123140D01*
X108887656Y-94083712D01*
X108887662Y-94083705D01*
X108893325Y-94079229D01*
X108893362Y-94079277D01*
X108899204Y-94074518D01*
X108899164Y-94074471D01*
X108904686Y-94069835D01*
X108904696Y-94069830D01*
X108956187Y-94015251D01*
X108958632Y-94012734D01*
X109067699Y-93903667D01*
X109129020Y-93870184D01*
X109198712Y-93875168D01*
X109254643Y-93917038D01*
X109292454Y-93967546D01*
X109326312Y-93992892D01*
X109407664Y-94053793D01*
X109407671Y-94053797D01*
X109539081Y-94102810D01*
X109595015Y-94144681D01*
X109619432Y-94210145D01*
X109604580Y-94278418D01*
X109583430Y-94306673D01*
X109461503Y-94428600D01*
X109325965Y-94622169D01*
X109325964Y-94622171D01*
X109226098Y-94836335D01*
X109226094Y-94836344D01*
X109164938Y-95064586D01*
X109164936Y-95064596D01*
X109144341Y-95299999D01*
X109144341Y-95300000D01*
X109164936Y-95535403D01*
X109164938Y-95535413D01*
X109226094Y-95763655D01*
X109226096Y-95763659D01*
X109226097Y-95763663D01*
X109320818Y-95966793D01*
X109325965Y-95977830D01*
X109325967Y-95977834D01*
X109461501Y-96171395D01*
X109461506Y-96171402D01*
X109628597Y-96338493D01*
X109628603Y-96338498D01*
X109814158Y-96468425D01*
X109857783Y-96523002D01*
X109864977Y-96592500D01*
X109833454Y-96654855D01*
X109814158Y-96671575D01*
X109628597Y-96801505D01*
X109461506Y-96968596D01*
X109413874Y-97036623D01*
X109359297Y-97080248D01*
X109312299Y-97089500D01*
X109213705Y-97089500D01*
X109195735Y-97088191D01*
X109171972Y-97084710D01*
X109125642Y-97088764D01*
X109122632Y-97089028D01*
X109111826Y-97089500D01*
X109106284Y-97089500D01*
X109075484Y-97093100D01*
X109071899Y-97093466D01*
X108997200Y-97100001D01*
X108990133Y-97101461D01*
X108990121Y-97101404D01*
X108982754Y-97103038D01*
X108982768Y-97103094D01*
X108975745Y-97104758D01*
X108905270Y-97130407D01*
X108901870Y-97131589D01*
X108830666Y-97155185D01*
X108824119Y-97158238D01*
X108824094Y-97158186D01*
X108817314Y-97161468D01*
X108817340Y-97161520D01*
X108810882Y-97164763D01*
X108748235Y-97205966D01*
X108745199Y-97207900D01*
X108681346Y-97247287D01*
X108675677Y-97251770D01*
X108675641Y-97251724D01*
X108669798Y-97256484D01*
X108669835Y-97256528D01*
X108664310Y-97261164D01*
X108612831Y-97315727D01*
X108610319Y-97318312D01*
X106681951Y-99246681D01*
X106620628Y-99280166D01*
X106594270Y-99283000D01*
X93324500Y-99283000D01*
X93257461Y-99263315D01*
X93211706Y-99210511D01*
X93200500Y-99159000D01*
X93200499Y-97952129D01*
X93200498Y-97952123D01*
X93200497Y-97952116D01*
X93194091Y-97892517D01*
X93176593Y-97845603D01*
X93143797Y-97757671D01*
X93143793Y-97757664D01*
X93057547Y-97642455D01*
X93057544Y-97642452D01*
X92942335Y-97556206D01*
X92942328Y-97556202D01*
X92807482Y-97505908D01*
X92807483Y-97505908D01*
X92747883Y-97499501D01*
X92747881Y-97499500D01*
X92747873Y-97499500D01*
X92747864Y-97499500D01*
X91052129Y-97499500D01*
X91052123Y-97499501D01*
X90992516Y-97505908D01*
X90857671Y-97556202D01*
X90857664Y-97556206D01*
X90742455Y-97642452D01*
X90742452Y-97642455D01*
X90656206Y-97757664D01*
X90656202Y-97757671D01*
X90605908Y-97892517D01*
X90599501Y-97952116D01*
X90599500Y-97952127D01*
X90599500Y-98597832D01*
X90599501Y-99159000D01*
X90579816Y-99226039D01*
X90527013Y-99271794D01*
X90475501Y-99283000D01*
X82637230Y-99283000D01*
X82570191Y-99263315D01*
X82549549Y-99246681D01*
X75708729Y-92405861D01*
X75703664Y-92400000D01*
X77162983Y-92400000D01*
X77183463Y-92542455D01*
X77183464Y-92542459D01*
X77243250Y-92673370D01*
X77243251Y-92673371D01*
X77243252Y-92673373D01*
X77280871Y-92720056D01*
X77280874Y-92720059D01*
X77280879Y-92720065D01*
X78182993Y-93622177D01*
X78479944Y-93919128D01*
X78526627Y-93956748D01*
X78526628Y-93956748D01*
X78526630Y-93956750D01*
X78657540Y-94016535D01*
X78657541Y-94016535D01*
X78657543Y-94016536D01*
X78800000Y-94037017D01*
X78942457Y-94016536D01*
X79073373Y-93956748D01*
X79073376Y-93956745D01*
X79079970Y-93952673D01*
X79081325Y-93954866D01*
X79134298Y-93932908D01*
X79203061Y-93945295D01*
X79254211Y-93992892D01*
X79271508Y-94060587D01*
X79271114Y-94067000D01*
X79262299Y-94167763D01*
X79262299Y-94167768D01*
X79282131Y-94394453D01*
X79282133Y-94394464D01*
X79341025Y-94614255D01*
X79341028Y-94614264D01*
X79437198Y-94820499D01*
X79437199Y-94820501D01*
X79567721Y-95006908D01*
X79728625Y-95167812D01*
X79728628Y-95167814D01*
X79915033Y-95298335D01*
X80121271Y-95394506D01*
X80341075Y-95453402D01*
X80502997Y-95467568D01*
X80567765Y-95473235D01*
X80567767Y-95473235D01*
X80567769Y-95473235D01*
X80624440Y-95468276D01*
X80794459Y-95453402D01*
X81014263Y-95394506D01*
X81220501Y-95298335D01*
X81406906Y-95167814D01*
X81567814Y-95006906D01*
X81698335Y-94820501D01*
X81794506Y-94614263D01*
X81853402Y-94394459D01*
X81873235Y-94167767D01*
X81870290Y-94134111D01*
X81863264Y-94053796D01*
X81853402Y-93941075D01*
X81794506Y-93721271D01*
X81698335Y-93515033D01*
X81581296Y-93347883D01*
X81581287Y-93347870D01*
X83519500Y-93347870D01*
X83519501Y-93347876D01*
X83525908Y-93407483D01*
X83576202Y-93542328D01*
X83576206Y-93542335D01*
X83662452Y-93657544D01*
X83662455Y-93657547D01*
X83777664Y-93743793D01*
X83777671Y-93743797D01*
X83912517Y-93794091D01*
X83912516Y-93794091D01*
X83919444Y-93794835D01*
X83972127Y-93800500D01*
X86267872Y-93800499D01*
X86327483Y-93794091D01*
X86327484Y-93794090D01*
X86333610Y-93792643D01*
X86403380Y-93796380D01*
X86460054Y-93837243D01*
X86485638Y-93902260D01*
X86472010Y-93970788D01*
X86449814Y-94000999D01*
X86299951Y-94150862D01*
X86169432Y-94337265D01*
X86169431Y-94337267D01*
X86073261Y-94543502D01*
X86073258Y-94543511D01*
X86014366Y-94763302D01*
X86014364Y-94763313D01*
X85994532Y-94989998D01*
X85994532Y-94990001D01*
X86014364Y-95216686D01*
X86014366Y-95216697D01*
X86073258Y-95436488D01*
X86073261Y-95436497D01*
X86169431Y-95642732D01*
X86169432Y-95642734D01*
X86299954Y-95829141D01*
X86460858Y-95990045D01*
X86460861Y-95990047D01*
X86647266Y-96120568D01*
X86853504Y-96216739D01*
X87073308Y-96275635D01*
X87235230Y-96289801D01*
X87299998Y-96295468D01*
X87300000Y-96295468D01*
X87300002Y-96295468D01*
X87356673Y-96290509D01*
X87526692Y-96275635D01*
X87746496Y-96216739D01*
X87952734Y-96120568D01*
X88139139Y-95990047D01*
X88300047Y-95829139D01*
X88430568Y-95642734D01*
X88526739Y-95436496D01*
X88585635Y-95216692D01*
X88605468Y-94990000D01*
X88585635Y-94763308D01*
X88526739Y-94543504D01*
X88430568Y-94337266D01*
X88313459Y-94170016D01*
X88300045Y-94150858D01*
X88139141Y-93989954D01*
X87952734Y-93859432D01*
X87952732Y-93859431D01*
X87746497Y-93763261D01*
X87746488Y-93763258D01*
X87526697Y-93704366D01*
X87526693Y-93704365D01*
X87526692Y-93704365D01*
X87526691Y-93704364D01*
X87526686Y-93704364D01*
X87300002Y-93684532D01*
X87299998Y-93684532D01*
X87073313Y-93704364D01*
X87073302Y-93704366D01*
X86853511Y-93763258D01*
X86853497Y-93763263D01*
X86755692Y-93808871D01*
X86686615Y-93819363D01*
X86622831Y-93790843D01*
X86584592Y-93732366D01*
X86584038Y-93662499D01*
X86604019Y-93622181D01*
X86663796Y-93542331D01*
X86714091Y-93407483D01*
X86720500Y-93347873D01*
X86720499Y-91052128D01*
X86714091Y-90992517D01*
X86708058Y-90976343D01*
X86663797Y-90857671D01*
X86663793Y-90857664D01*
X86577547Y-90742455D01*
X86577544Y-90742452D01*
X86462335Y-90656206D01*
X86462328Y-90656202D01*
X86327482Y-90605908D01*
X86327483Y-90605908D01*
X86267883Y-90599501D01*
X86267881Y-90599500D01*
X86267873Y-90599500D01*
X86267864Y-90599500D01*
X83972129Y-90599500D01*
X83972123Y-90599501D01*
X83912516Y-90605908D01*
X83777671Y-90656202D01*
X83777664Y-90656206D01*
X83662455Y-90742452D01*
X83662452Y-90742455D01*
X83576206Y-90857664D01*
X83576202Y-90857671D01*
X83525908Y-90992517D01*
X83519501Y-91052116D01*
X83519501Y-91052123D01*
X83519500Y-91052135D01*
X83519500Y-93347870D01*
X81581287Y-93347870D01*
X81567812Y-93328625D01*
X81406908Y-93167721D01*
X81220501Y-93037199D01*
X81220499Y-93037198D01*
X81014264Y-92941028D01*
X81014255Y-92941025D01*
X80794464Y-92882133D01*
X80794460Y-92882132D01*
X80794459Y-92882132D01*
X80794458Y-92882131D01*
X80794453Y-92882131D01*
X80567769Y-92862299D01*
X80567764Y-92862299D01*
X80467000Y-92871114D01*
X80398501Y-92857347D01*
X80348318Y-92808731D01*
X80332385Y-92740703D01*
X80353717Y-92680614D01*
X80352673Y-92679969D01*
X80355668Y-92675120D01*
X80355761Y-92674859D01*
X80356119Y-92674389D01*
X80356750Y-92673369D01*
X80416535Y-92542459D01*
X80416534Y-92542459D01*
X80416536Y-92542457D01*
X80437017Y-92400000D01*
X80416536Y-92257543D01*
X80416500Y-92257465D01*
X80356749Y-92126629D01*
X80356748Y-92126628D01*
X80356748Y-92126627D01*
X80319129Y-92079944D01*
X80319124Y-92079939D01*
X80319120Y-92079934D01*
X79120063Y-90880879D01*
X79120056Y-90880872D01*
X79073373Y-90843252D01*
X79073371Y-90843251D01*
X79073369Y-90843249D01*
X78942459Y-90783464D01*
X78942455Y-90783463D01*
X78800000Y-90762983D01*
X78657544Y-90783463D01*
X78657540Y-90783464D01*
X78526629Y-90843250D01*
X78479934Y-90880879D01*
X77280879Y-92079936D01*
X77280873Y-92079942D01*
X77280872Y-92079944D01*
X77276991Y-92084760D01*
X77243251Y-92126628D01*
X77243249Y-92126630D01*
X77183464Y-92257540D01*
X77183463Y-92257544D01*
X77162983Y-92400000D01*
X75703664Y-92400000D01*
X75696949Y-92392230D01*
X75682610Y-92372970D01*
X75644651Y-92341119D01*
X75636686Y-92333818D01*
X75632780Y-92329911D01*
X75608443Y-92310668D01*
X75605647Y-92308390D01*
X75548214Y-92260198D01*
X75542180Y-92256229D01*
X75542212Y-92256180D01*
X75535853Y-92252128D01*
X75535822Y-92252179D01*
X75529680Y-92248391D01*
X75529678Y-92248390D01*
X75529677Y-92248389D01*
X75461688Y-92216684D01*
X75458447Y-92215115D01*
X75427530Y-92199588D01*
X75391433Y-92181460D01*
X75391431Y-92181459D01*
X75391430Y-92181459D01*
X75384645Y-92178989D01*
X75384665Y-92178933D01*
X75377549Y-92176459D01*
X75377531Y-92176515D01*
X75370674Y-92174243D01*
X75297210Y-92159073D01*
X75293693Y-92158293D01*
X75220718Y-92140999D01*
X75213547Y-92140161D01*
X75213553Y-92140101D01*
X75206055Y-92139335D01*
X75206050Y-92139395D01*
X75198860Y-92138765D01*
X75123870Y-92140948D01*
X75120263Y-92141000D01*
X72341605Y-92141000D01*
X72323635Y-92139691D01*
X72299872Y-92136210D01*
X72253542Y-92140264D01*
X72250532Y-92140528D01*
X72239726Y-92141000D01*
X72234184Y-92141000D01*
X72203384Y-92144600D01*
X72199799Y-92144966D01*
X72125100Y-92151501D01*
X72118033Y-92152961D01*
X72118021Y-92152904D01*
X72110654Y-92154538D01*
X72110668Y-92154594D01*
X72103645Y-92156258D01*
X72033170Y-92181907D01*
X72029770Y-92183089D01*
X71958566Y-92206685D01*
X71952019Y-92209738D01*
X71951994Y-92209686D01*
X71945210Y-92212970D01*
X71945236Y-92213021D01*
X71938784Y-92216261D01*
X71876136Y-92257465D01*
X71873096Y-92259402D01*
X71809247Y-92298785D01*
X71803582Y-92303265D01*
X71803546Y-92303219D01*
X71797698Y-92307984D01*
X71797735Y-92308028D01*
X71792210Y-92312664D01*
X71792204Y-92312669D01*
X71792204Y-92312670D01*
X71768633Y-92337653D01*
X71740748Y-92367209D01*
X71738236Y-92369794D01*
X71312181Y-92795850D01*
X71250858Y-92829335D01*
X71181167Y-92824351D01*
X71125233Y-92782480D01*
X71100816Y-92717015D01*
X71100500Y-92708169D01*
X71100500Y-90124500D01*
X71120185Y-90057461D01*
X71172989Y-90011706D01*
X71224500Y-90000500D01*
X114975500Y-90000500D01*
X115042539Y-90020185D01*
G37*
G04 #@! TD.AperFunction*
G04 #@! TA.AperFunction,Conductor*
G36*
X100972539Y-111310185D02*
G01*
X101018294Y-111362989D01*
X101029500Y-111414500D01*
X101029501Y-112677400D01*
X101009816Y-112744439D01*
X100957013Y-112790194D01*
X100905501Y-112801400D01*
X92195530Y-112801400D01*
X92128491Y-112781715D01*
X92107849Y-112765081D01*
X91642340Y-112299572D01*
X91608855Y-112238249D01*
X91606493Y-112222706D01*
X91605199Y-112207903D01*
X91605198Y-112207901D01*
X91605198Y-112207897D01*
X91603739Y-112200832D01*
X91603796Y-112200820D01*
X91602164Y-112193458D01*
X91602106Y-112193472D01*
X91600441Y-112186451D01*
X91600441Y-112186445D01*
X91574769Y-112115912D01*
X91573621Y-112112609D01*
X91550014Y-112041366D01*
X91550010Y-112041359D01*
X91546960Y-112034818D01*
X91547015Y-112034791D01*
X91543733Y-112028013D01*
X91543680Y-112028040D01*
X91540435Y-112021580D01*
X91499225Y-111958923D01*
X91497286Y-111955881D01*
X91468789Y-111909680D01*
X91457912Y-111892045D01*
X91457911Y-111892044D01*
X91457910Y-111892042D01*
X91453434Y-111886382D01*
X91453481Y-111886344D01*
X91448719Y-111880499D01*
X91448674Y-111880538D01*
X91444031Y-111875005D01*
X91389473Y-111823532D01*
X91386886Y-111821019D01*
X91068048Y-111502181D01*
X91034563Y-111440858D01*
X91039547Y-111371166D01*
X91081419Y-111315233D01*
X91146883Y-111290816D01*
X91155729Y-111290500D01*
X100905500Y-111290500D01*
X100972539Y-111310185D01*
G37*
G04 #@! TD.AperFunction*
G04 #@! TA.AperFunction,Conductor*
G36*
X96929863Y-100803685D02*
G01*
X96975618Y-100856489D01*
X96985562Y-100925647D01*
X96956537Y-100989203D01*
X96921386Y-101015735D01*
X96921957Y-101016724D01*
X96917265Y-101019432D01*
X96730858Y-101149954D01*
X96569954Y-101310858D01*
X96439432Y-101497265D01*
X96439431Y-101497267D01*
X96343261Y-101703502D01*
X96343258Y-101703511D01*
X96284366Y-101923302D01*
X96284364Y-101923313D01*
X96264532Y-102149998D01*
X96264532Y-102150001D01*
X96284364Y-102376686D01*
X96284366Y-102376697D01*
X96343258Y-102596488D01*
X96343261Y-102596497D01*
X96439431Y-102802732D01*
X96439432Y-102802734D01*
X96569954Y-102989141D01*
X96730858Y-103150045D01*
X96730861Y-103150047D01*
X96917266Y-103280568D01*
X97123504Y-103376739D01*
X97123509Y-103376740D01*
X97123511Y-103376741D01*
X97162911Y-103387298D01*
X97343308Y-103435635D01*
X97497682Y-103449141D01*
X97569998Y-103455468D01*
X97570000Y-103455468D01*
X97570002Y-103455468D01*
X97626673Y-103450509D01*
X97796692Y-103435635D01*
X98016496Y-103376739D01*
X98222734Y-103280568D01*
X98409139Y-103150047D01*
X98537820Y-103021365D01*
X98599141Y-102987882D01*
X98668833Y-102992866D01*
X98724767Y-103034737D01*
X98749184Y-103100201D01*
X98749500Y-103109047D01*
X98749500Y-103227869D01*
X98749501Y-103227876D01*
X98755908Y-103287483D01*
X98806202Y-103422328D01*
X98806206Y-103422335D01*
X98892452Y-103537544D01*
X98892455Y-103537547D01*
X99007664Y-103623793D01*
X99007671Y-103623797D01*
X99142517Y-103674091D01*
X99142516Y-103674091D01*
X99149444Y-103674835D01*
X99202127Y-103680500D01*
X101497872Y-103680499D01*
X101557483Y-103674091D01*
X101692331Y-103623796D01*
X101807546Y-103537546D01*
X101868990Y-103455468D01*
X101899112Y-103415231D01*
X101901382Y-103416930D01*
X101940565Y-103377743D01*
X102008837Y-103362886D01*
X102074303Y-103387298D01*
X102099443Y-103416311D01*
X102100888Y-103415231D01*
X102192452Y-103537544D01*
X102192455Y-103537547D01*
X102307664Y-103623793D01*
X102307671Y-103623797D01*
X102442517Y-103674091D01*
X102442516Y-103674091D01*
X102449444Y-103674835D01*
X102502127Y-103680500D01*
X103457070Y-103680499D01*
X103524109Y-103700183D01*
X103569864Y-103752987D01*
X103579808Y-103822146D01*
X103550783Y-103885702D01*
X103544751Y-103892180D01*
X102973751Y-104463181D01*
X102912428Y-104496666D01*
X102886070Y-104499500D01*
X98716663Y-104499500D01*
X98649624Y-104479815D01*
X98615088Y-104446623D01*
X98590045Y-104410858D01*
X98429141Y-104249954D01*
X98242734Y-104119432D01*
X98242732Y-104119431D01*
X98036497Y-104023261D01*
X98036488Y-104023258D01*
X97816697Y-103964366D01*
X97816693Y-103964365D01*
X97816692Y-103964365D01*
X97816691Y-103964364D01*
X97816686Y-103964364D01*
X97590002Y-103944532D01*
X97589998Y-103944532D01*
X97363313Y-103964364D01*
X97363302Y-103964366D01*
X97143511Y-104023258D01*
X97143502Y-104023261D01*
X96937267Y-104119431D01*
X96937265Y-104119432D01*
X96750858Y-104249954D01*
X96589954Y-104410858D01*
X96564912Y-104446623D01*
X96510335Y-104490248D01*
X96463337Y-104499500D01*
X95166977Y-104499500D01*
X95099938Y-104479815D01*
X95054183Y-104427011D01*
X95046733Y-104399865D01*
X95045876Y-104400068D01*
X95044092Y-104392520D01*
X94993797Y-104257671D01*
X94993793Y-104257664D01*
X94907547Y-104142455D01*
X94907544Y-104142452D01*
X94792335Y-104056206D01*
X94792328Y-104056202D01*
X94657482Y-104005908D01*
X94657483Y-104005908D01*
X94597883Y-103999501D01*
X94597881Y-103999500D01*
X94597873Y-103999500D01*
X94597864Y-103999500D01*
X92902129Y-103999500D01*
X92902123Y-103999501D01*
X92842516Y-104005908D01*
X92707671Y-104056202D01*
X92707664Y-104056206D01*
X92592455Y-104142452D01*
X92592452Y-104142455D01*
X92506206Y-104257664D01*
X92506202Y-104257671D01*
X92455908Y-104392517D01*
X92449501Y-104452116D01*
X92449500Y-104452135D01*
X92449500Y-106147870D01*
X92449501Y-106147876D01*
X92455908Y-106207483D01*
X92506202Y-106342328D01*
X92506206Y-106342335D01*
X92592452Y-106457544D01*
X92592455Y-106457547D01*
X92707664Y-106543793D01*
X92707671Y-106543797D01*
X92842517Y-106594091D01*
X92842516Y-106594091D01*
X92849444Y-106594835D01*
X92902127Y-106600500D01*
X94597872Y-106600499D01*
X94657483Y-106594091D01*
X94792331Y-106543796D01*
X94907546Y-106457546D01*
X94993796Y-106342331D01*
X95044091Y-106207483D01*
X95044282Y-106205703D01*
X95049862Y-106153809D01*
X95076600Y-106089258D01*
X95133992Y-106049410D01*
X95162336Y-106043538D01*
X95202797Y-106039999D01*
X95202800Y-106039997D01*
X95209866Y-106038539D01*
X95209878Y-106038598D01*
X95217243Y-106036965D01*
X95217229Y-106036906D01*
X95224249Y-106035241D01*
X95224255Y-106035241D01*
X95294757Y-106009580D01*
X95298128Y-106008409D01*
X95303012Y-106006791D01*
X95342007Y-106000500D01*
X96463337Y-106000500D01*
X96530376Y-106020185D01*
X96564912Y-106053377D01*
X96589954Y-106089141D01*
X96750858Y-106250045D01*
X96776585Y-106268059D01*
X96937266Y-106380568D01*
X97143504Y-106476739D01*
X97363308Y-106535635D01*
X97525230Y-106549801D01*
X97589998Y-106555468D01*
X97590000Y-106555468D01*
X97590002Y-106555468D01*
X97646673Y-106550509D01*
X97816692Y-106535635D01*
X98036496Y-106476739D01*
X98242734Y-106380568D01*
X98429139Y-106250047D01*
X98590047Y-106089139D01*
X98615088Y-106053377D01*
X98669665Y-106009752D01*
X98716663Y-106000500D01*
X103098769Y-106000500D01*
X103165808Y-106020185D01*
X103211563Y-106072989D01*
X103221507Y-106142147D01*
X103192482Y-106205703D01*
X103186450Y-106212181D01*
X101585451Y-107813181D01*
X101524128Y-107846666D01*
X101497770Y-107849500D01*
X98616663Y-107849500D01*
X98549624Y-107829815D01*
X98515088Y-107796623D01*
X98490045Y-107760858D01*
X98329141Y-107599954D01*
X98142734Y-107469432D01*
X98142732Y-107469431D01*
X97936497Y-107373261D01*
X97936488Y-107373258D01*
X97716697Y-107314366D01*
X97716693Y-107314365D01*
X97716692Y-107314365D01*
X97716691Y-107314364D01*
X97716686Y-107314364D01*
X97490002Y-107294532D01*
X97489998Y-107294532D01*
X97263313Y-107314364D01*
X97263302Y-107314366D01*
X97043511Y-107373258D01*
X97043502Y-107373261D01*
X96837267Y-107469431D01*
X96837265Y-107469432D01*
X96650858Y-107599954D01*
X96489954Y-107760858D01*
X96359432Y-107947265D01*
X96359431Y-107947267D01*
X96263261Y-108153502D01*
X96263258Y-108153511D01*
X96204366Y-108373302D01*
X96204364Y-108373313D01*
X96184532Y-108599998D01*
X96184532Y-108600001D01*
X96204364Y-108826686D01*
X96204366Y-108826697D01*
X96263258Y-109046488D01*
X96263261Y-109046497D01*
X96359431Y-109252732D01*
X96359432Y-109252734D01*
X96489954Y-109439141D01*
X96628632Y-109577819D01*
X96662117Y-109639142D01*
X96657133Y-109708834D01*
X96615261Y-109764767D01*
X96549797Y-109789184D01*
X96540951Y-109789500D01*
X84523829Y-109789500D01*
X84456790Y-109769815D01*
X84436148Y-109753181D01*
X82767984Y-108085017D01*
X82734499Y-108023694D01*
X82739483Y-107954002D01*
X82781353Y-107898070D01*
X82848445Y-107847846D01*
X82934695Y-107732631D01*
X82984990Y-107597783D01*
X82991399Y-107538173D01*
X82991398Y-106974395D01*
X82994741Y-106945798D01*
X83025499Y-106816026D01*
X83025500Y-106816017D01*
X83025500Y-104940001D01*
X88049632Y-104940001D01*
X88069464Y-105166686D01*
X88069466Y-105166697D01*
X88128358Y-105386488D01*
X88128361Y-105386497D01*
X88224531Y-105592732D01*
X88224532Y-105592734D01*
X88355054Y-105779141D01*
X88515958Y-105940045D01*
X88515961Y-105940047D01*
X88702366Y-106070568D01*
X88908604Y-106166739D01*
X88908609Y-106166740D01*
X88908611Y-106166741D01*
X88937285Y-106174424D01*
X89128408Y-106225635D01*
X89290330Y-106239801D01*
X89355098Y-106245468D01*
X89355100Y-106245468D01*
X89355102Y-106245468D01*
X89411773Y-106240509D01*
X89581792Y-106225635D01*
X89801596Y-106166739D01*
X90007834Y-106070568D01*
X90194239Y-105940047D01*
X90355147Y-105779139D01*
X90485668Y-105592734D01*
X90581839Y-105386496D01*
X90640735Y-105166692D01*
X90660568Y-104940000D01*
X90640735Y-104713308D01*
X90582686Y-104496666D01*
X90581841Y-104493511D01*
X90581838Y-104493502D01*
X90559978Y-104446623D01*
X90485668Y-104287266D01*
X90355147Y-104100861D01*
X90355145Y-104100858D01*
X90194241Y-103939954D01*
X90007834Y-103809432D01*
X90007832Y-103809431D01*
X89801597Y-103713261D01*
X89801591Y-103713259D01*
X89665436Y-103676777D01*
X89625219Y-103652263D01*
X89610521Y-103656962D01*
X89586043Y-103655114D01*
X89581796Y-103654365D01*
X89355102Y-103634532D01*
X89355098Y-103634532D01*
X89128413Y-103654364D01*
X89128402Y-103654366D01*
X88908611Y-103713258D01*
X88908602Y-103713261D01*
X88702367Y-103809431D01*
X88702365Y-103809432D01*
X88515958Y-103939954D01*
X88355054Y-104100858D01*
X88224532Y-104287265D01*
X88224531Y-104287267D01*
X88128361Y-104493502D01*
X88128358Y-104493511D01*
X88069466Y-104713302D01*
X88069464Y-104713313D01*
X88049632Y-104939998D01*
X88049632Y-104940001D01*
X83025500Y-104940001D01*
X83025500Y-103664049D01*
X83045185Y-103597010D01*
X83097989Y-103551255D01*
X83167147Y-103541311D01*
X83230703Y-103570336D01*
X83237181Y-103576368D01*
X83260858Y-103600045D01*
X83260861Y-103600047D01*
X83447266Y-103730568D01*
X83653504Y-103826739D01*
X83873308Y-103885635D01*
X84035230Y-103899801D01*
X84099998Y-103905468D01*
X84100000Y-103905468D01*
X84100002Y-103905468D01*
X84156673Y-103900509D01*
X84326692Y-103885635D01*
X84546496Y-103826739D01*
X84752734Y-103730568D01*
X84939139Y-103600047D01*
X85100047Y-103439139D01*
X85125088Y-103403377D01*
X85179665Y-103359752D01*
X85226663Y-103350500D01*
X85855591Y-103350500D01*
X85884186Y-103353842D01*
X85889349Y-103355065D01*
X85912279Y-103360500D01*
X85912283Y-103360500D01*
X85919453Y-103361339D01*
X85919446Y-103361397D01*
X85926946Y-103362163D01*
X85926952Y-103362104D01*
X85934141Y-103362733D01*
X85934143Y-103362732D01*
X85934144Y-103362733D01*
X86009111Y-103360552D01*
X86012717Y-103360500D01*
X86173337Y-103360500D01*
X86240376Y-103380185D01*
X86274912Y-103413377D01*
X86299954Y-103449141D01*
X86460858Y-103610045D01*
X86507693Y-103642839D01*
X86647266Y-103740568D01*
X86853504Y-103836739D01*
X87073308Y-103895635D01*
X87235230Y-103909801D01*
X87299998Y-103915468D01*
X87300000Y-103915468D01*
X87300002Y-103915468D01*
X87356673Y-103910509D01*
X87526692Y-103895635D01*
X87746496Y-103836739D01*
X87952734Y-103740568D01*
X88139139Y-103610047D01*
X88300047Y-103449139D01*
X88322600Y-103416930D01*
X88325088Y-103413377D01*
X88379665Y-103369752D01*
X88426663Y-103360500D01*
X88536295Y-103360500D01*
X88554265Y-103361809D01*
X88578023Y-103365289D01*
X88627369Y-103360971D01*
X88638176Y-103360500D01*
X88643704Y-103360500D01*
X88643709Y-103360500D01*
X88674556Y-103356893D01*
X88678030Y-103356539D01*
X88752797Y-103349999D01*
X88752805Y-103349996D01*
X88759866Y-103348539D01*
X88759878Y-103348598D01*
X88767243Y-103346965D01*
X88767229Y-103346906D01*
X88774249Y-103345241D01*
X88774255Y-103345241D01*
X88844779Y-103319572D01*
X88848117Y-103318412D01*
X88919334Y-103294814D01*
X88919342Y-103294808D01*
X88925882Y-103291760D01*
X88925908Y-103291816D01*
X88932690Y-103288532D01*
X88932663Y-103288478D01*
X88939113Y-103285238D01*
X88939117Y-103285237D01*
X89001837Y-103243984D01*
X89004749Y-103242129D01*
X89061672Y-103207019D01*
X89129063Y-103188580D01*
X89195726Y-103209503D01*
X89197870Y-103210971D01*
X89297266Y-103280568D01*
X89503504Y-103376739D01*
X89503509Y-103376740D01*
X89503511Y-103376741D01*
X89542911Y-103387298D01*
X89639662Y-103413222D01*
X89679879Y-103437735D01*
X89694579Y-103433037D01*
X89719066Y-103434887D01*
X89723302Y-103435633D01*
X89723308Y-103435635D01*
X89906528Y-103451664D01*
X89949998Y-103455468D01*
X89950000Y-103455468D01*
X89950002Y-103455468D01*
X90006673Y-103450509D01*
X90176692Y-103435635D01*
X90396496Y-103376739D01*
X90602734Y-103280568D01*
X90789139Y-103150047D01*
X90950047Y-102989139D01*
X91080568Y-102802734D01*
X91176739Y-102596496D01*
X91235635Y-102376692D01*
X91255468Y-102150000D01*
X91235635Y-101923308D01*
X91176739Y-101703504D01*
X91080568Y-101497266D01*
X90950047Y-101310861D01*
X90950045Y-101310858D01*
X90789141Y-101149954D01*
X90602734Y-101019432D01*
X90598043Y-101016724D01*
X90598909Y-101015223D01*
X90552329Y-100974205D01*
X90533180Y-100907010D01*
X90553399Y-100840130D01*
X90606566Y-100794798D01*
X90657176Y-100784000D01*
X96862824Y-100784000D01*
X96929863Y-100803685D01*
G37*
G04 #@! TD.AperFunction*
M02*
