G04 #@! TF.GenerationSoftware,KiCad,Pcbnew,7.0.10-7.0.10~ubuntu20.04.1*
G04 #@! TF.CreationDate,2024-06-13T14:39:58-03:00*
G04 #@! TF.ProjectId,Condicionamento_compacto_V01b,436f6e64-6963-4696-9f6e-616d656e746f,rev?*
G04 #@! TF.SameCoordinates,Original*
G04 #@! TF.FileFunction,Soldermask,Bot*
G04 #@! TF.FilePolarity,Negative*
%FSLAX46Y46*%
G04 Gerber Fmt 4.6, Leading zero omitted, Abs format (unit mm)*
G04 Created by KiCad (PCBNEW 7.0.10-7.0.10~ubuntu20.04.1) date 2024-06-13 14:39:58*
%MOMM*%
%LPD*%
G01*
G04 APERTURE LIST*
%ADD10R,1.700000X1.700000*%
%ADD11O,1.700000X1.700000*%
%ADD12R,1.600000X1.600000*%
%ADD13C,1.600000*%
%ADD14O,1.600000X1.600000*%
%ADD15R,2.200000X2.200000*%
%ADD16O,2.200000X2.200000*%
G04 APERTURE END LIST*
D10*
X130100000Y-103225000D03*
D11*
X130100000Y-100685000D03*
D12*
X136300000Y-96400000D03*
D13*
X133800000Y-96400000D03*
X139800000Y-98200000D03*
D14*
X139800000Y-90580000D03*
D10*
X130050000Y-110450000D03*
D11*
X130050000Y-112990000D03*
X130050000Y-115530000D03*
D13*
X143590000Y-110500000D03*
D14*
X151210000Y-110500000D03*
D10*
X130150000Y-92625000D03*
D11*
X130150000Y-90085000D03*
X130150000Y-87545000D03*
D15*
X154000000Y-115480000D03*
D16*
X154000000Y-105320000D03*
D12*
X148700000Y-94400000D03*
D13*
X148700000Y-91900000D03*
D15*
X157100000Y-98180000D03*
D16*
X157100000Y-88020000D03*
D12*
X148100000Y-104900000D03*
D13*
X148100000Y-107400000D03*
D15*
X143820000Y-87800000D03*
D16*
X153980000Y-87800000D03*
D13*
X140900000Y-102390000D03*
D14*
X140900000Y-110010000D03*
D13*
X145690000Y-98200000D03*
D14*
X153310000Y-98200000D03*
D13*
X143000000Y-90590000D03*
D14*
X143000000Y-98210000D03*
D10*
X162300000Y-93020000D03*
D11*
X162300000Y-95560000D03*
X162300000Y-98100000D03*
X162300000Y-100640000D03*
X162300000Y-103180000D03*
X162300000Y-105720000D03*
X162300000Y-108260000D03*
X162300000Y-110800000D03*
D12*
X140505100Y-113900000D03*
D13*
X138005100Y-113900000D03*
D15*
X144220000Y-101600000D03*
D16*
X154380000Y-101600000D03*
D13*
X143590000Y-114700000D03*
D14*
X151210000Y-114700000D03*
M02*
