M48
; DRILL file {KiCad 7.0.10-7.0.10~ubuntu20.04.1} date qui 13 jun 2024 14:40:11
; FORMAT={-:-/ absolute / metric / decimal}
; #@! TF.CreationDate,2024-06-13T14:40:11-03:00
; #@! TF.GenerationSoftware,Kicad,Pcbnew,7.0.10-7.0.10~ubuntu20.04.1
; #@! TF.FileFunction,Plated,1,2,PTH
FMAT,2
METRIC
; #@! TA.AperFunction,Plated,PTH,ComponentDrill
T1C0.800
; #@! TA.AperFunction,Plated,PTH,ComponentDrill
T2C1.000
; #@! TA.AperFunction,Plated,PTH,ComponentDrill
T3C1.100
%
G90
G05
T1
X133.8Y-96.4
X136.3Y-96.4
X138.005Y-113.9
X139.8Y-90.58
X139.8Y-98.2
X140.505Y-113.9
X140.9Y-102.39
X140.9Y-110.01
X143.0Y-90.59
X143.0Y-98.21
X143.59Y-110.5
X143.59Y-114.7
X145.69Y-98.2
X148.1Y-104.9
X148.1Y-107.4
X148.7Y-91.9
X148.7Y-94.4
X151.21Y-110.5
X151.21Y-114.7
X153.31Y-98.2
T2
X130.05Y-110.45
X130.05Y-112.99
X130.05Y-115.53
X130.1Y-100.685
X130.1Y-103.225
X130.15Y-87.545
X130.15Y-90.085
X130.15Y-92.625
X162.3Y-93.02
X162.3Y-95.56
X162.3Y-98.1
X162.3Y-100.64
X162.3Y-103.18
X162.3Y-105.72
X162.3Y-108.26
X162.3Y-110.8
T3
X143.82Y-87.8
X144.22Y-101.6
X153.98Y-87.8
X154.0Y-105.32
X154.0Y-115.48
X154.38Y-101.6
X157.1Y-88.02
X157.1Y-98.18
M30
