M48
; DRILL file {KiCad 7.0.10-7.0.10~ubuntu20.04.1} date qui 25 jul 2024 13:55:46
; FORMAT={-:-/ absolute / metric / decimal}
; #@! TF.CreationDate,2024-07-25T13:55:46-03:00
; #@! TF.GenerationSoftware,Kicad,Pcbnew,7.0.10-7.0.10~ubuntu20.04.1
; #@! TF.FileFunction,Plated,1,2,PTH
FMAT,2
METRIC
; #@! TA.AperFunction,Plated,PTH,ViaDrill
T1C0.600
; #@! TA.AperFunction,Plated,PTH,ComponentDrill
T2C0.800
; #@! TA.AperFunction,Plated,PTH,ComponentDrill
T3C1.000
; #@! TA.AperFunction,Plated,PTH,ComponentDrill
T4C1.100
%
G90
G05
T1
X76.256Y-100.822
T2
X78.4Y-100.95
X78.8Y-92.4
X80.568Y-94.168
X80.9Y-100.95
X84.1Y-94.98
X84.1Y-102.6
X87.3Y-94.99
X87.3Y-102.61
X89.355Y-104.94
X89.355Y-112.56
X89.95Y-102.15
X91.9Y-96.3
X91.9Y-98.8
X93.75Y-105.3
X93.75Y-107.8
X97.49Y-108.6
X97.57Y-102.15
X97.59Y-105.25
X105.11Y-108.6
X105.21Y-105.25
T3
X72.775Y-100.485
X72.775Y-103.025
X72.775Y-106.85
X72.775Y-109.39
X72.775Y-111.93
X72.78Y-91.62
X72.78Y-94.16
X72.78Y-96.7
X110.5Y-92.76
X110.5Y-95.3
X110.5Y-97.84
X110.5Y-100.38
X110.5Y-102.92
X110.5Y-105.46
X110.5Y-108.0
X110.5Y-110.54
T4
X85.12Y-92.2
X92.47Y-112.05
X95.28Y-92.2
X100.35Y-91.92
X100.35Y-102.08
X102.63Y-112.05
X103.65Y-91.92
X103.65Y-102.08
M30
