G04 #@! TF.GenerationSoftware,KiCad,Pcbnew,7.0.10-7.0.10~ubuntu20.04.1*
G04 #@! TF.CreationDate,2024-06-13T14:39:58-03:00*
G04 #@! TF.ProjectId,Condicionamento_compacto_V01b,436f6e64-6963-4696-9f6e-616d656e746f,rev?*
G04 #@! TF.SameCoordinates,Original*
G04 #@! TF.FileFunction,Legend,Top*
G04 #@! TF.FilePolarity,Positive*
%FSLAX46Y46*%
G04 Gerber Fmt 4.6, Leading zero omitted, Abs format (unit mm)*
G04 Created by KiCad (PCBNEW 7.0.10-7.0.10~ubuntu20.04.1) date 2024-06-13 14:39:58*
%MOMM*%
%LPD*%
G01*
G04 APERTURE LIST*
%ADD10C,0.100000*%
%ADD11C,0.150000*%
%ADD12C,0.120000*%
%ADD13C,0.152400*%
%ADD14R,1.700000X1.700000*%
%ADD15O,1.700000X1.700000*%
%ADD16R,1.600000X1.600000*%
%ADD17C,1.600000*%
%ADD18O,1.600000X1.600000*%
%ADD19R,0.431800X1.524000*%
%ADD20R,2.200000X2.200000*%
%ADD21O,2.200000X2.200000*%
G04 APERTURE END LIST*
D10*
X132377693Y-87070038D02*
X132282455Y-87022419D01*
X132282455Y-87022419D02*
X132139598Y-87022419D01*
X132139598Y-87022419D02*
X131996741Y-87070038D01*
X131996741Y-87070038D02*
X131901503Y-87165276D01*
X131901503Y-87165276D02*
X131853884Y-87260514D01*
X131853884Y-87260514D02*
X131806265Y-87450990D01*
X131806265Y-87450990D02*
X131806265Y-87593847D01*
X131806265Y-87593847D02*
X131853884Y-87784323D01*
X131853884Y-87784323D02*
X131901503Y-87879561D01*
X131901503Y-87879561D02*
X131996741Y-87974800D01*
X131996741Y-87974800D02*
X132139598Y-88022419D01*
X132139598Y-88022419D02*
X132234836Y-88022419D01*
X132234836Y-88022419D02*
X132377693Y-87974800D01*
X132377693Y-87974800D02*
X132425312Y-87927180D01*
X132425312Y-87927180D02*
X132425312Y-87593847D01*
X132425312Y-87593847D02*
X132234836Y-87593847D01*
X132853884Y-88022419D02*
X132853884Y-87022419D01*
X132853884Y-87022419D02*
X133425312Y-88022419D01*
X133425312Y-88022419D02*
X133425312Y-87022419D01*
X133901503Y-88022419D02*
X133901503Y-87022419D01*
X133901503Y-87022419D02*
X134139598Y-87022419D01*
X134139598Y-87022419D02*
X134282455Y-87070038D01*
X134282455Y-87070038D02*
X134377693Y-87165276D01*
X134377693Y-87165276D02*
X134425312Y-87260514D01*
X134425312Y-87260514D02*
X134472931Y-87450990D01*
X134472931Y-87450990D02*
X134472931Y-87593847D01*
X134472931Y-87593847D02*
X134425312Y-87784323D01*
X134425312Y-87784323D02*
X134377693Y-87879561D01*
X134377693Y-87879561D02*
X134282455Y-87974800D01*
X134282455Y-87974800D02*
X134139598Y-88022419D01*
X134139598Y-88022419D02*
X133901503Y-88022419D01*
X164427693Y-102620038D02*
X164332455Y-102572419D01*
X164332455Y-102572419D02*
X164189598Y-102572419D01*
X164189598Y-102572419D02*
X164046741Y-102620038D01*
X164046741Y-102620038D02*
X163951503Y-102715276D01*
X163951503Y-102715276D02*
X163903884Y-102810514D01*
X163903884Y-102810514D02*
X163856265Y-103000990D01*
X163856265Y-103000990D02*
X163856265Y-103143847D01*
X163856265Y-103143847D02*
X163903884Y-103334323D01*
X163903884Y-103334323D02*
X163951503Y-103429561D01*
X163951503Y-103429561D02*
X164046741Y-103524800D01*
X164046741Y-103524800D02*
X164189598Y-103572419D01*
X164189598Y-103572419D02*
X164284836Y-103572419D01*
X164284836Y-103572419D02*
X164427693Y-103524800D01*
X164427693Y-103524800D02*
X164475312Y-103477180D01*
X164475312Y-103477180D02*
X164475312Y-103143847D01*
X164475312Y-103143847D02*
X164284836Y-103143847D01*
X164903884Y-103572419D02*
X164903884Y-102572419D01*
X164903884Y-102572419D02*
X165475312Y-103572419D01*
X165475312Y-103572419D02*
X165475312Y-102572419D01*
X165951503Y-103572419D02*
X165951503Y-102572419D01*
X165951503Y-102572419D02*
X166189598Y-102572419D01*
X166189598Y-102572419D02*
X166332455Y-102620038D01*
X166332455Y-102620038D02*
X166427693Y-102715276D01*
X166427693Y-102715276D02*
X166475312Y-102810514D01*
X166475312Y-102810514D02*
X166522931Y-103000990D01*
X166522931Y-103000990D02*
X166522931Y-103143847D01*
X166522931Y-103143847D02*
X166475312Y-103334323D01*
X166475312Y-103334323D02*
X166427693Y-103429561D01*
X166427693Y-103429561D02*
X166332455Y-103524800D01*
X166332455Y-103524800D02*
X166189598Y-103572419D01*
X166189598Y-103572419D02*
X165951503Y-103572419D01*
X164094360Y-94972419D02*
X164284836Y-94972419D01*
X164284836Y-94972419D02*
X164380074Y-95020038D01*
X164380074Y-95020038D02*
X164475312Y-95115276D01*
X164475312Y-95115276D02*
X164522931Y-95305752D01*
X164522931Y-95305752D02*
X164522931Y-95639085D01*
X164522931Y-95639085D02*
X164475312Y-95829561D01*
X164475312Y-95829561D02*
X164380074Y-95924800D01*
X164380074Y-95924800D02*
X164284836Y-95972419D01*
X164284836Y-95972419D02*
X164094360Y-95972419D01*
X164094360Y-95972419D02*
X163999122Y-95924800D01*
X163999122Y-95924800D02*
X163903884Y-95829561D01*
X163903884Y-95829561D02*
X163856265Y-95639085D01*
X163856265Y-95639085D02*
X163856265Y-95305752D01*
X163856265Y-95305752D02*
X163903884Y-95115276D01*
X163903884Y-95115276D02*
X163999122Y-95020038D01*
X163999122Y-95020038D02*
X164094360Y-94972419D01*
X165380074Y-95305752D02*
X165380074Y-95972419D01*
X164951503Y-95305752D02*
X164951503Y-95829561D01*
X164951503Y-95829561D02*
X164999122Y-95924800D01*
X164999122Y-95924800D02*
X165094360Y-95972419D01*
X165094360Y-95972419D02*
X165237217Y-95972419D01*
X165237217Y-95972419D02*
X165332455Y-95924800D01*
X165332455Y-95924800D02*
X165380074Y-95877180D01*
X165713408Y-95305752D02*
X166094360Y-95305752D01*
X165856265Y-94972419D02*
X165856265Y-95829561D01*
X165856265Y-95829561D02*
X165903884Y-95924800D01*
X165903884Y-95924800D02*
X165999122Y-95972419D01*
X165999122Y-95972419D02*
X166094360Y-95972419D01*
X166951503Y-95972419D02*
X166380075Y-95972419D01*
X166665789Y-95972419D02*
X166665789Y-94972419D01*
X166665789Y-94972419D02*
X166570551Y-95115276D01*
X166570551Y-95115276D02*
X166475313Y-95210514D01*
X166475313Y-95210514D02*
X166380075Y-95258133D01*
X132003884Y-112555752D02*
X132003884Y-113222419D01*
X132003884Y-112650990D02*
X132051503Y-112603371D01*
X132051503Y-112603371D02*
X132146741Y-112555752D01*
X132146741Y-112555752D02*
X132289598Y-112555752D01*
X132289598Y-112555752D02*
X132384836Y-112603371D01*
X132384836Y-112603371D02*
X132432455Y-112698609D01*
X132432455Y-112698609D02*
X132432455Y-113222419D01*
X133051503Y-113222419D02*
X132956265Y-113174800D01*
X132956265Y-113174800D02*
X132908646Y-113127180D01*
X132908646Y-113127180D02*
X132861027Y-113031942D01*
X132861027Y-113031942D02*
X132861027Y-112746228D01*
X132861027Y-112746228D02*
X132908646Y-112650990D01*
X132908646Y-112650990D02*
X132956265Y-112603371D01*
X132956265Y-112603371D02*
X133051503Y-112555752D01*
X133051503Y-112555752D02*
X133194360Y-112555752D01*
X133194360Y-112555752D02*
X133289598Y-112603371D01*
X133289598Y-112603371D02*
X133337217Y-112650990D01*
X133337217Y-112650990D02*
X133384836Y-112746228D01*
X133384836Y-112746228D02*
X133384836Y-113031942D01*
X133384836Y-113031942D02*
X133337217Y-113127180D01*
X133337217Y-113127180D02*
X133289598Y-113174800D01*
X133289598Y-113174800D02*
X133194360Y-113222419D01*
X133194360Y-113222419D02*
X133051503Y-113222419D01*
X133241979Y-112174800D02*
X133099122Y-112317657D01*
X133765789Y-112317657D02*
X133813408Y-112270038D01*
X133813408Y-112270038D02*
X133908646Y-112222419D01*
X133908646Y-112222419D02*
X134146741Y-112222419D01*
X134146741Y-112222419D02*
X134241979Y-112270038D01*
X134241979Y-112270038D02*
X134289598Y-112317657D01*
X134289598Y-112317657D02*
X134337217Y-112412895D01*
X134337217Y-112412895D02*
X134337217Y-112508133D01*
X134337217Y-112508133D02*
X134289598Y-112650990D01*
X134289598Y-112650990D02*
X133718170Y-113222419D01*
X133718170Y-113222419D02*
X134337217Y-113222419D01*
X164103884Y-100972419D02*
X164103884Y-99972419D01*
X164580074Y-100305752D02*
X164580074Y-100972419D01*
X164580074Y-100400990D02*
X164627693Y-100353371D01*
X164627693Y-100353371D02*
X164722931Y-100305752D01*
X164722931Y-100305752D02*
X164865788Y-100305752D01*
X164865788Y-100305752D02*
X164961026Y-100353371D01*
X164961026Y-100353371D02*
X165008645Y-100448609D01*
X165008645Y-100448609D02*
X165008645Y-100972419D01*
X166008645Y-100972419D02*
X165437217Y-100972419D01*
X165722931Y-100972419D02*
X165722931Y-99972419D01*
X165722931Y-99972419D02*
X165627693Y-100115276D01*
X165627693Y-100115276D02*
X165532455Y-100210514D01*
X165532455Y-100210514D02*
X165437217Y-100258133D01*
X129528884Y-98498609D02*
X129862217Y-98498609D01*
X130005074Y-99022419D02*
X129528884Y-99022419D01*
X129528884Y-99022419D02*
X129528884Y-98022419D01*
X129528884Y-98022419D02*
X130005074Y-98022419D01*
X130386027Y-98117657D02*
X130433646Y-98070038D01*
X130433646Y-98070038D02*
X130528884Y-98022419D01*
X130528884Y-98022419D02*
X130766979Y-98022419D01*
X130766979Y-98022419D02*
X130862217Y-98070038D01*
X130862217Y-98070038D02*
X130909836Y-98117657D01*
X130909836Y-98117657D02*
X130957455Y-98212895D01*
X130957455Y-98212895D02*
X130957455Y-98308133D01*
X130957455Y-98308133D02*
X130909836Y-98450990D01*
X130909836Y-98450990D02*
X130338408Y-99022419D01*
X130338408Y-99022419D02*
X130957455Y-99022419D01*
X164103884Y-98472419D02*
X164103884Y-97472419D01*
X164580074Y-97805752D02*
X164580074Y-98472419D01*
X164580074Y-97900990D02*
X164627693Y-97853371D01*
X164627693Y-97853371D02*
X164722931Y-97805752D01*
X164722931Y-97805752D02*
X164865788Y-97805752D01*
X164865788Y-97805752D02*
X164961026Y-97853371D01*
X164961026Y-97853371D02*
X165008645Y-97948609D01*
X165008645Y-97948609D02*
X165008645Y-98472419D01*
X165437217Y-97567657D02*
X165484836Y-97520038D01*
X165484836Y-97520038D02*
X165580074Y-97472419D01*
X165580074Y-97472419D02*
X165818169Y-97472419D01*
X165818169Y-97472419D02*
X165913407Y-97520038D01*
X165913407Y-97520038D02*
X165961026Y-97567657D01*
X165961026Y-97567657D02*
X166008645Y-97662895D01*
X166008645Y-97662895D02*
X166008645Y-97758133D01*
X166008645Y-97758133D02*
X165961026Y-97900990D01*
X165961026Y-97900990D02*
X165389598Y-98472419D01*
X165389598Y-98472419D02*
X166008645Y-98472419D01*
X132103884Y-89755752D02*
X132103884Y-90422419D01*
X132103884Y-89850990D02*
X132151503Y-89803371D01*
X132151503Y-89803371D02*
X132246741Y-89755752D01*
X132246741Y-89755752D02*
X132389598Y-89755752D01*
X132389598Y-89755752D02*
X132484836Y-89803371D01*
X132484836Y-89803371D02*
X132532455Y-89898609D01*
X132532455Y-89898609D02*
X132532455Y-90422419D01*
X133151503Y-90422419D02*
X133056265Y-90374800D01*
X133056265Y-90374800D02*
X133008646Y-90327180D01*
X133008646Y-90327180D02*
X132961027Y-90231942D01*
X132961027Y-90231942D02*
X132961027Y-89946228D01*
X132961027Y-89946228D02*
X133008646Y-89850990D01*
X133008646Y-89850990D02*
X133056265Y-89803371D01*
X133056265Y-89803371D02*
X133151503Y-89755752D01*
X133151503Y-89755752D02*
X133294360Y-89755752D01*
X133294360Y-89755752D02*
X133389598Y-89803371D01*
X133389598Y-89803371D02*
X133437217Y-89850990D01*
X133437217Y-89850990D02*
X133484836Y-89946228D01*
X133484836Y-89946228D02*
X133484836Y-90231942D01*
X133484836Y-90231942D02*
X133437217Y-90327180D01*
X133437217Y-90327180D02*
X133389598Y-90374800D01*
X133389598Y-90374800D02*
X133294360Y-90422419D01*
X133294360Y-90422419D02*
X133151503Y-90422419D01*
X133341979Y-89374800D02*
X133199122Y-89517657D01*
X134341979Y-89755752D02*
X134341979Y-90422419D01*
X134103884Y-89374800D02*
X133865789Y-90089085D01*
X133865789Y-90089085D02*
X134484836Y-90089085D01*
X163803884Y-110791466D02*
X164565789Y-110791466D01*
X164184836Y-111172419D02*
X164184836Y-110410514D01*
X165089598Y-111172419D02*
X165280074Y-111172419D01*
X165280074Y-111172419D02*
X165375312Y-111124800D01*
X165375312Y-111124800D02*
X165422931Y-111077180D01*
X165422931Y-111077180D02*
X165518169Y-110934323D01*
X165518169Y-110934323D02*
X165565788Y-110743847D01*
X165565788Y-110743847D02*
X165565788Y-110362895D01*
X165565788Y-110362895D02*
X165518169Y-110267657D01*
X165518169Y-110267657D02*
X165470550Y-110220038D01*
X165470550Y-110220038D02*
X165375312Y-110172419D01*
X165375312Y-110172419D02*
X165184836Y-110172419D01*
X165184836Y-110172419D02*
X165089598Y-110220038D01*
X165089598Y-110220038D02*
X165041979Y-110267657D01*
X165041979Y-110267657D02*
X164994360Y-110362895D01*
X164994360Y-110362895D02*
X164994360Y-110600990D01*
X164994360Y-110600990D02*
X165041979Y-110696228D01*
X165041979Y-110696228D02*
X165089598Y-110743847D01*
X165089598Y-110743847D02*
X165184836Y-110791466D01*
X165184836Y-110791466D02*
X165375312Y-110791466D01*
X165375312Y-110791466D02*
X165470550Y-110743847D01*
X165470550Y-110743847D02*
X165518169Y-110696228D01*
X165518169Y-110696228D02*
X165565788Y-110600990D01*
X165851503Y-110172419D02*
X166184836Y-111172419D01*
X166184836Y-111172419D02*
X166518169Y-110172419D01*
X132153884Y-92305752D02*
X132153884Y-92972419D01*
X132153884Y-92400990D02*
X132201503Y-92353371D01*
X132201503Y-92353371D02*
X132296741Y-92305752D01*
X132296741Y-92305752D02*
X132439598Y-92305752D01*
X132439598Y-92305752D02*
X132534836Y-92353371D01*
X132534836Y-92353371D02*
X132582455Y-92448609D01*
X132582455Y-92448609D02*
X132582455Y-92972419D01*
X133201503Y-92972419D02*
X133106265Y-92924800D01*
X133106265Y-92924800D02*
X133058646Y-92877180D01*
X133058646Y-92877180D02*
X133011027Y-92781942D01*
X133011027Y-92781942D02*
X133011027Y-92496228D01*
X133011027Y-92496228D02*
X133058646Y-92400990D01*
X133058646Y-92400990D02*
X133106265Y-92353371D01*
X133106265Y-92353371D02*
X133201503Y-92305752D01*
X133201503Y-92305752D02*
X133344360Y-92305752D01*
X133344360Y-92305752D02*
X133439598Y-92353371D01*
X133439598Y-92353371D02*
X133487217Y-92400990D01*
X133487217Y-92400990D02*
X133534836Y-92496228D01*
X133534836Y-92496228D02*
X133534836Y-92781942D01*
X133534836Y-92781942D02*
X133487217Y-92877180D01*
X133487217Y-92877180D02*
X133439598Y-92924800D01*
X133439598Y-92924800D02*
X133344360Y-92972419D01*
X133344360Y-92972419D02*
X133201503Y-92972419D01*
X133391979Y-91924800D02*
X133249122Y-92067657D01*
X133868170Y-91972419D02*
X134487217Y-91972419D01*
X134487217Y-91972419D02*
X134153884Y-92353371D01*
X134153884Y-92353371D02*
X134296741Y-92353371D01*
X134296741Y-92353371D02*
X134391979Y-92400990D01*
X134391979Y-92400990D02*
X134439598Y-92448609D01*
X134439598Y-92448609D02*
X134487217Y-92543847D01*
X134487217Y-92543847D02*
X134487217Y-92781942D01*
X134487217Y-92781942D02*
X134439598Y-92877180D01*
X134439598Y-92877180D02*
X134391979Y-92924800D01*
X134391979Y-92924800D02*
X134296741Y-92972419D01*
X134296741Y-92972419D02*
X134011027Y-92972419D01*
X134011027Y-92972419D02*
X133915789Y-92924800D01*
X133915789Y-92924800D02*
X133868170Y-92877180D01*
X158709523Y-115382704D02*
X158671427Y-115420800D01*
X158671427Y-115420800D02*
X158557142Y-115458895D01*
X158557142Y-115458895D02*
X158480951Y-115458895D01*
X158480951Y-115458895D02*
X158366665Y-115420800D01*
X158366665Y-115420800D02*
X158290475Y-115344609D01*
X158290475Y-115344609D02*
X158252380Y-115268419D01*
X158252380Y-115268419D02*
X158214284Y-115116038D01*
X158214284Y-115116038D02*
X158214284Y-115001752D01*
X158214284Y-115001752D02*
X158252380Y-114849371D01*
X158252380Y-114849371D02*
X158290475Y-114773180D01*
X158290475Y-114773180D02*
X158366665Y-114696990D01*
X158366665Y-114696990D02*
X158480951Y-114658895D01*
X158480951Y-114658895D02*
X158557142Y-114658895D01*
X158557142Y-114658895D02*
X158671427Y-114696990D01*
X158671427Y-114696990D02*
X158709523Y-114735085D01*
X159014284Y-115420800D02*
X159128570Y-115458895D01*
X159128570Y-115458895D02*
X159319046Y-115458895D01*
X159319046Y-115458895D02*
X159395237Y-115420800D01*
X159395237Y-115420800D02*
X159433332Y-115382704D01*
X159433332Y-115382704D02*
X159471427Y-115306514D01*
X159471427Y-115306514D02*
X159471427Y-115230323D01*
X159471427Y-115230323D02*
X159433332Y-115154133D01*
X159433332Y-115154133D02*
X159395237Y-115116038D01*
X159395237Y-115116038D02*
X159319046Y-115077942D01*
X159319046Y-115077942D02*
X159166665Y-115039847D01*
X159166665Y-115039847D02*
X159090475Y-115001752D01*
X159090475Y-115001752D02*
X159052380Y-114963657D01*
X159052380Y-114963657D02*
X159014284Y-114887466D01*
X159014284Y-114887466D02*
X159014284Y-114811276D01*
X159014284Y-114811276D02*
X159052380Y-114735085D01*
X159052380Y-114735085D02*
X159090475Y-114696990D01*
X159090475Y-114696990D02*
X159166665Y-114658895D01*
X159166665Y-114658895D02*
X159357142Y-114658895D01*
X159357142Y-114658895D02*
X159471427Y-114696990D01*
X159814285Y-115154133D02*
X160423809Y-115154133D01*
X161261904Y-115382704D02*
X161223808Y-115420800D01*
X161223808Y-115420800D02*
X161109523Y-115458895D01*
X161109523Y-115458895D02*
X161033332Y-115458895D01*
X161033332Y-115458895D02*
X160919046Y-115420800D01*
X160919046Y-115420800D02*
X160842856Y-115344609D01*
X160842856Y-115344609D02*
X160804761Y-115268419D01*
X160804761Y-115268419D02*
X160766665Y-115116038D01*
X160766665Y-115116038D02*
X160766665Y-115001752D01*
X160766665Y-115001752D02*
X160804761Y-114849371D01*
X160804761Y-114849371D02*
X160842856Y-114773180D01*
X160842856Y-114773180D02*
X160919046Y-114696990D01*
X160919046Y-114696990D02*
X161033332Y-114658895D01*
X161033332Y-114658895D02*
X161109523Y-114658895D01*
X161109523Y-114658895D02*
X161223808Y-114696990D01*
X161223808Y-114696990D02*
X161261904Y-114735085D01*
X161719046Y-115458895D02*
X161642856Y-115420800D01*
X161642856Y-115420800D02*
X161604761Y-115382704D01*
X161604761Y-115382704D02*
X161566665Y-115306514D01*
X161566665Y-115306514D02*
X161566665Y-115077942D01*
X161566665Y-115077942D02*
X161604761Y-115001752D01*
X161604761Y-115001752D02*
X161642856Y-114963657D01*
X161642856Y-114963657D02*
X161719046Y-114925561D01*
X161719046Y-114925561D02*
X161833332Y-114925561D01*
X161833332Y-114925561D02*
X161909523Y-114963657D01*
X161909523Y-114963657D02*
X161947618Y-115001752D01*
X161947618Y-115001752D02*
X161985713Y-115077942D01*
X161985713Y-115077942D02*
X161985713Y-115306514D01*
X161985713Y-115306514D02*
X161947618Y-115382704D01*
X161947618Y-115382704D02*
X161909523Y-115420800D01*
X161909523Y-115420800D02*
X161833332Y-115458895D01*
X161833332Y-115458895D02*
X161719046Y-115458895D01*
X162328571Y-115458895D02*
X162328571Y-114925561D01*
X162328571Y-115001752D02*
X162366666Y-114963657D01*
X162366666Y-114963657D02*
X162442856Y-114925561D01*
X162442856Y-114925561D02*
X162557142Y-114925561D01*
X162557142Y-114925561D02*
X162633333Y-114963657D01*
X162633333Y-114963657D02*
X162671428Y-115039847D01*
X162671428Y-115039847D02*
X162671428Y-115458895D01*
X162671428Y-115039847D02*
X162709523Y-114963657D01*
X162709523Y-114963657D02*
X162785714Y-114925561D01*
X162785714Y-114925561D02*
X162899999Y-114925561D01*
X162899999Y-114925561D02*
X162976190Y-114963657D01*
X162976190Y-114963657D02*
X163014285Y-115039847D01*
X163014285Y-115039847D02*
X163014285Y-115458895D01*
X163395238Y-114925561D02*
X163395238Y-115725561D01*
X163395238Y-114963657D02*
X163471428Y-114925561D01*
X163471428Y-114925561D02*
X163623809Y-114925561D01*
X163623809Y-114925561D02*
X163700000Y-114963657D01*
X163700000Y-114963657D02*
X163738095Y-115001752D01*
X163738095Y-115001752D02*
X163776190Y-115077942D01*
X163776190Y-115077942D02*
X163776190Y-115306514D01*
X163776190Y-115306514D02*
X163738095Y-115382704D01*
X163738095Y-115382704D02*
X163700000Y-115420800D01*
X163700000Y-115420800D02*
X163623809Y-115458895D01*
X163623809Y-115458895D02*
X163471428Y-115458895D01*
X163471428Y-115458895D02*
X163395238Y-115420800D01*
X164461905Y-115458895D02*
X164461905Y-115039847D01*
X164461905Y-115039847D02*
X164423810Y-114963657D01*
X164423810Y-114963657D02*
X164347619Y-114925561D01*
X164347619Y-114925561D02*
X164195238Y-114925561D01*
X164195238Y-114925561D02*
X164119048Y-114963657D01*
X164461905Y-115420800D02*
X164385714Y-115458895D01*
X164385714Y-115458895D02*
X164195238Y-115458895D01*
X164195238Y-115458895D02*
X164119048Y-115420800D01*
X164119048Y-115420800D02*
X164080952Y-115344609D01*
X164080952Y-115344609D02*
X164080952Y-115268419D01*
X164080952Y-115268419D02*
X164119048Y-115192228D01*
X164119048Y-115192228D02*
X164195238Y-115154133D01*
X164195238Y-115154133D02*
X164385714Y-115154133D01*
X164385714Y-115154133D02*
X164461905Y-115116038D01*
X165185715Y-115420800D02*
X165109524Y-115458895D01*
X165109524Y-115458895D02*
X164957143Y-115458895D01*
X164957143Y-115458895D02*
X164880953Y-115420800D01*
X164880953Y-115420800D02*
X164842858Y-115382704D01*
X164842858Y-115382704D02*
X164804762Y-115306514D01*
X164804762Y-115306514D02*
X164804762Y-115077942D01*
X164804762Y-115077942D02*
X164842858Y-115001752D01*
X164842858Y-115001752D02*
X164880953Y-114963657D01*
X164880953Y-114963657D02*
X164957143Y-114925561D01*
X164957143Y-114925561D02*
X165109524Y-114925561D01*
X165109524Y-114925561D02*
X165185715Y-114963657D01*
X158290475Y-115946895D02*
X158557142Y-116746895D01*
X158557142Y-116746895D02*
X158823808Y-115946895D01*
X159242856Y-115946895D02*
X159319046Y-115946895D01*
X159319046Y-115946895D02*
X159395237Y-115984990D01*
X159395237Y-115984990D02*
X159433332Y-116023085D01*
X159433332Y-116023085D02*
X159471427Y-116099276D01*
X159471427Y-116099276D02*
X159509522Y-116251657D01*
X159509522Y-116251657D02*
X159509522Y-116442133D01*
X159509522Y-116442133D02*
X159471427Y-116594514D01*
X159471427Y-116594514D02*
X159433332Y-116670704D01*
X159433332Y-116670704D02*
X159395237Y-116708800D01*
X159395237Y-116708800D02*
X159319046Y-116746895D01*
X159319046Y-116746895D02*
X159242856Y-116746895D01*
X159242856Y-116746895D02*
X159166665Y-116708800D01*
X159166665Y-116708800D02*
X159128570Y-116670704D01*
X159128570Y-116670704D02*
X159090475Y-116594514D01*
X159090475Y-116594514D02*
X159052379Y-116442133D01*
X159052379Y-116442133D02*
X159052379Y-116251657D01*
X159052379Y-116251657D02*
X159090475Y-116099276D01*
X159090475Y-116099276D02*
X159128570Y-116023085D01*
X159128570Y-116023085D02*
X159166665Y-115984990D01*
X159166665Y-115984990D02*
X159242856Y-115946895D01*
X160271427Y-116746895D02*
X159814284Y-116746895D01*
X160042856Y-116746895D02*
X160042856Y-115946895D01*
X160042856Y-115946895D02*
X159966665Y-116061180D01*
X159966665Y-116061180D02*
X159890475Y-116137371D01*
X159890475Y-116137371D02*
X159814284Y-116175466D01*
X160614285Y-116746895D02*
X160614285Y-115946895D01*
X160614285Y-116251657D02*
X160690475Y-116213561D01*
X160690475Y-116213561D02*
X160842856Y-116213561D01*
X160842856Y-116213561D02*
X160919047Y-116251657D01*
X160919047Y-116251657D02*
X160957142Y-116289752D01*
X160957142Y-116289752D02*
X160995237Y-116365942D01*
X160995237Y-116365942D02*
X160995237Y-116594514D01*
X160995237Y-116594514D02*
X160957142Y-116670704D01*
X160957142Y-116670704D02*
X160919047Y-116708800D01*
X160919047Y-116708800D02*
X160842856Y-116746895D01*
X160842856Y-116746895D02*
X160690475Y-116746895D01*
X160690475Y-116746895D02*
X160614285Y-116708800D01*
X161338095Y-116442133D02*
X161947619Y-116442133D01*
X162290475Y-116023085D02*
X162328571Y-115984990D01*
X162328571Y-115984990D02*
X162404761Y-115946895D01*
X162404761Y-115946895D02*
X162595237Y-115946895D01*
X162595237Y-115946895D02*
X162671428Y-115984990D01*
X162671428Y-115984990D02*
X162709523Y-116023085D01*
X162709523Y-116023085D02*
X162747618Y-116099276D01*
X162747618Y-116099276D02*
X162747618Y-116175466D01*
X162747618Y-116175466D02*
X162709523Y-116289752D01*
X162709523Y-116289752D02*
X162252380Y-116746895D01*
X162252380Y-116746895D02*
X162747618Y-116746895D01*
X163242857Y-115946895D02*
X163319047Y-115946895D01*
X163319047Y-115946895D02*
X163395238Y-115984990D01*
X163395238Y-115984990D02*
X163433333Y-116023085D01*
X163433333Y-116023085D02*
X163471428Y-116099276D01*
X163471428Y-116099276D02*
X163509523Y-116251657D01*
X163509523Y-116251657D02*
X163509523Y-116442133D01*
X163509523Y-116442133D02*
X163471428Y-116594514D01*
X163471428Y-116594514D02*
X163433333Y-116670704D01*
X163433333Y-116670704D02*
X163395238Y-116708800D01*
X163395238Y-116708800D02*
X163319047Y-116746895D01*
X163319047Y-116746895D02*
X163242857Y-116746895D01*
X163242857Y-116746895D02*
X163166666Y-116708800D01*
X163166666Y-116708800D02*
X163128571Y-116670704D01*
X163128571Y-116670704D02*
X163090476Y-116594514D01*
X163090476Y-116594514D02*
X163052380Y-116442133D01*
X163052380Y-116442133D02*
X163052380Y-116251657D01*
X163052380Y-116251657D02*
X163090476Y-116099276D01*
X163090476Y-116099276D02*
X163128571Y-116023085D01*
X163128571Y-116023085D02*
X163166666Y-115984990D01*
X163166666Y-115984990D02*
X163242857Y-115946895D01*
X163814285Y-116023085D02*
X163852381Y-115984990D01*
X163852381Y-115984990D02*
X163928571Y-115946895D01*
X163928571Y-115946895D02*
X164119047Y-115946895D01*
X164119047Y-115946895D02*
X164195238Y-115984990D01*
X164195238Y-115984990D02*
X164233333Y-116023085D01*
X164233333Y-116023085D02*
X164271428Y-116099276D01*
X164271428Y-116099276D02*
X164271428Y-116175466D01*
X164271428Y-116175466D02*
X164233333Y-116289752D01*
X164233333Y-116289752D02*
X163776190Y-116746895D01*
X163776190Y-116746895D02*
X164271428Y-116746895D01*
X164957143Y-116213561D02*
X164957143Y-116746895D01*
X164766667Y-115908800D02*
X164576190Y-116480228D01*
X164576190Y-116480228D02*
X165071429Y-116480228D01*
X163861027Y-105172419D02*
X164194360Y-106172419D01*
X164194360Y-106172419D02*
X164527693Y-105172419D01*
X164861027Y-106172419D02*
X164861027Y-105505752D01*
X164861027Y-105696228D02*
X164908646Y-105600990D01*
X164908646Y-105600990D02*
X164956265Y-105553371D01*
X164956265Y-105553371D02*
X165051503Y-105505752D01*
X165051503Y-105505752D02*
X165146741Y-105505752D01*
X165861027Y-106124800D02*
X165765789Y-106172419D01*
X165765789Y-106172419D02*
X165575313Y-106172419D01*
X165575313Y-106172419D02*
X165480075Y-106124800D01*
X165480075Y-106124800D02*
X165432456Y-106029561D01*
X165432456Y-106029561D02*
X165432456Y-105648609D01*
X165432456Y-105648609D02*
X165480075Y-105553371D01*
X165480075Y-105553371D02*
X165575313Y-105505752D01*
X165575313Y-105505752D02*
X165765789Y-105505752D01*
X165765789Y-105505752D02*
X165861027Y-105553371D01*
X165861027Y-105553371D02*
X165908646Y-105648609D01*
X165908646Y-105648609D02*
X165908646Y-105743847D01*
X165908646Y-105743847D02*
X165432456Y-105839085D01*
X166194361Y-105505752D02*
X166575313Y-105505752D01*
X166337218Y-106172419D02*
X166337218Y-105315276D01*
X166337218Y-105315276D02*
X166384837Y-105220038D01*
X166384837Y-105220038D02*
X166480075Y-105172419D01*
X166480075Y-105172419D02*
X166575313Y-105172419D01*
X129528884Y-105298609D02*
X129862217Y-105298609D01*
X130005074Y-105822419D02*
X129528884Y-105822419D01*
X129528884Y-105822419D02*
X129528884Y-104822419D01*
X129528884Y-104822419D02*
X130005074Y-104822419D01*
X130957455Y-105822419D02*
X130386027Y-105822419D01*
X130671741Y-105822419D02*
X130671741Y-104822419D01*
X130671741Y-104822419D02*
X130576503Y-104965276D01*
X130576503Y-104965276D02*
X130481265Y-105060514D01*
X130481265Y-105060514D02*
X130386027Y-105108133D01*
X164094360Y-92372419D02*
X164284836Y-92372419D01*
X164284836Y-92372419D02*
X164380074Y-92420038D01*
X164380074Y-92420038D02*
X164475312Y-92515276D01*
X164475312Y-92515276D02*
X164522931Y-92705752D01*
X164522931Y-92705752D02*
X164522931Y-93039085D01*
X164522931Y-93039085D02*
X164475312Y-93229561D01*
X164475312Y-93229561D02*
X164380074Y-93324800D01*
X164380074Y-93324800D02*
X164284836Y-93372419D01*
X164284836Y-93372419D02*
X164094360Y-93372419D01*
X164094360Y-93372419D02*
X163999122Y-93324800D01*
X163999122Y-93324800D02*
X163903884Y-93229561D01*
X163903884Y-93229561D02*
X163856265Y-93039085D01*
X163856265Y-93039085D02*
X163856265Y-92705752D01*
X163856265Y-92705752D02*
X163903884Y-92515276D01*
X163903884Y-92515276D02*
X163999122Y-92420038D01*
X163999122Y-92420038D02*
X164094360Y-92372419D01*
X165380074Y-92705752D02*
X165380074Y-93372419D01*
X164951503Y-92705752D02*
X164951503Y-93229561D01*
X164951503Y-93229561D02*
X164999122Y-93324800D01*
X164999122Y-93324800D02*
X165094360Y-93372419D01*
X165094360Y-93372419D02*
X165237217Y-93372419D01*
X165237217Y-93372419D02*
X165332455Y-93324800D01*
X165332455Y-93324800D02*
X165380074Y-93277180D01*
X165713408Y-92705752D02*
X166094360Y-92705752D01*
X165856265Y-92372419D02*
X165856265Y-93229561D01*
X165856265Y-93229561D02*
X165903884Y-93324800D01*
X165903884Y-93324800D02*
X165999122Y-93372419D01*
X165999122Y-93372419D02*
X166094360Y-93372419D01*
X166380075Y-92467657D02*
X166427694Y-92420038D01*
X166427694Y-92420038D02*
X166522932Y-92372419D01*
X166522932Y-92372419D02*
X166761027Y-92372419D01*
X166761027Y-92372419D02*
X166856265Y-92420038D01*
X166856265Y-92420038D02*
X166903884Y-92467657D01*
X166903884Y-92467657D02*
X166951503Y-92562895D01*
X166951503Y-92562895D02*
X166951503Y-92658133D01*
X166951503Y-92658133D02*
X166903884Y-92800990D01*
X166903884Y-92800990D02*
X166332456Y-93372419D01*
X166332456Y-93372419D02*
X166951503Y-93372419D01*
X132003884Y-110105752D02*
X132003884Y-110772419D01*
X132003884Y-110200990D02*
X132051503Y-110153371D01*
X132051503Y-110153371D02*
X132146741Y-110105752D01*
X132146741Y-110105752D02*
X132289598Y-110105752D01*
X132289598Y-110105752D02*
X132384836Y-110153371D01*
X132384836Y-110153371D02*
X132432455Y-110248609D01*
X132432455Y-110248609D02*
X132432455Y-110772419D01*
X133051503Y-110772419D02*
X132956265Y-110724800D01*
X132956265Y-110724800D02*
X132908646Y-110677180D01*
X132908646Y-110677180D02*
X132861027Y-110581942D01*
X132861027Y-110581942D02*
X132861027Y-110296228D01*
X132861027Y-110296228D02*
X132908646Y-110200990D01*
X132908646Y-110200990D02*
X132956265Y-110153371D01*
X132956265Y-110153371D02*
X133051503Y-110105752D01*
X133051503Y-110105752D02*
X133194360Y-110105752D01*
X133194360Y-110105752D02*
X133289598Y-110153371D01*
X133289598Y-110153371D02*
X133337217Y-110200990D01*
X133337217Y-110200990D02*
X133384836Y-110296228D01*
X133384836Y-110296228D02*
X133384836Y-110581942D01*
X133384836Y-110581942D02*
X133337217Y-110677180D01*
X133337217Y-110677180D02*
X133289598Y-110724800D01*
X133289598Y-110724800D02*
X133194360Y-110772419D01*
X133194360Y-110772419D02*
X133051503Y-110772419D01*
X133241979Y-109724800D02*
X133099122Y-109867657D01*
X134337217Y-110772419D02*
X133765789Y-110772419D01*
X134051503Y-110772419D02*
X134051503Y-109772419D01*
X134051503Y-109772419D02*
X133956265Y-109915276D01*
X133956265Y-109915276D02*
X133861027Y-110010514D01*
X133861027Y-110010514D02*
X133765789Y-110058133D01*
X132327693Y-115120038D02*
X132232455Y-115072419D01*
X132232455Y-115072419D02*
X132089598Y-115072419D01*
X132089598Y-115072419D02*
X131946741Y-115120038D01*
X131946741Y-115120038D02*
X131851503Y-115215276D01*
X131851503Y-115215276D02*
X131803884Y-115310514D01*
X131803884Y-115310514D02*
X131756265Y-115500990D01*
X131756265Y-115500990D02*
X131756265Y-115643847D01*
X131756265Y-115643847D02*
X131803884Y-115834323D01*
X131803884Y-115834323D02*
X131851503Y-115929561D01*
X131851503Y-115929561D02*
X131946741Y-116024800D01*
X131946741Y-116024800D02*
X132089598Y-116072419D01*
X132089598Y-116072419D02*
X132184836Y-116072419D01*
X132184836Y-116072419D02*
X132327693Y-116024800D01*
X132327693Y-116024800D02*
X132375312Y-115977180D01*
X132375312Y-115977180D02*
X132375312Y-115643847D01*
X132375312Y-115643847D02*
X132184836Y-115643847D01*
X132803884Y-116072419D02*
X132803884Y-115072419D01*
X132803884Y-115072419D02*
X133375312Y-116072419D01*
X133375312Y-116072419D02*
X133375312Y-115072419D01*
X133851503Y-116072419D02*
X133851503Y-115072419D01*
X133851503Y-115072419D02*
X134089598Y-115072419D01*
X134089598Y-115072419D02*
X134232455Y-115120038D01*
X134232455Y-115120038D02*
X134327693Y-115215276D01*
X134327693Y-115215276D02*
X134375312Y-115310514D01*
X134375312Y-115310514D02*
X134422931Y-115500990D01*
X134422931Y-115500990D02*
X134422931Y-115643847D01*
X134422931Y-115643847D02*
X134375312Y-115834323D01*
X134375312Y-115834323D02*
X134327693Y-115929561D01*
X134327693Y-115929561D02*
X134232455Y-116024800D01*
X134232455Y-116024800D02*
X134089598Y-116072419D01*
X134089598Y-116072419D02*
X133851503Y-116072419D01*
X163803884Y-108291466D02*
X164565789Y-108291466D01*
X165089598Y-108672419D02*
X165280074Y-108672419D01*
X165280074Y-108672419D02*
X165375312Y-108624800D01*
X165375312Y-108624800D02*
X165422931Y-108577180D01*
X165422931Y-108577180D02*
X165518169Y-108434323D01*
X165518169Y-108434323D02*
X165565788Y-108243847D01*
X165565788Y-108243847D02*
X165565788Y-107862895D01*
X165565788Y-107862895D02*
X165518169Y-107767657D01*
X165518169Y-107767657D02*
X165470550Y-107720038D01*
X165470550Y-107720038D02*
X165375312Y-107672419D01*
X165375312Y-107672419D02*
X165184836Y-107672419D01*
X165184836Y-107672419D02*
X165089598Y-107720038D01*
X165089598Y-107720038D02*
X165041979Y-107767657D01*
X165041979Y-107767657D02*
X164994360Y-107862895D01*
X164994360Y-107862895D02*
X164994360Y-108100990D01*
X164994360Y-108100990D02*
X165041979Y-108196228D01*
X165041979Y-108196228D02*
X165089598Y-108243847D01*
X165089598Y-108243847D02*
X165184836Y-108291466D01*
X165184836Y-108291466D02*
X165375312Y-108291466D01*
X165375312Y-108291466D02*
X165470550Y-108243847D01*
X165470550Y-108243847D02*
X165518169Y-108196228D01*
X165518169Y-108196228D02*
X165565788Y-108100990D01*
X165851503Y-107672419D02*
X166184836Y-108672419D01*
X166184836Y-108672419D02*
X166518169Y-107672419D01*
D11*
X131779819Y-102283333D02*
X132494104Y-102283333D01*
X132494104Y-102283333D02*
X132636961Y-102330952D01*
X132636961Y-102330952D02*
X132732200Y-102426190D01*
X132732200Y-102426190D02*
X132779819Y-102569047D01*
X132779819Y-102569047D02*
X132779819Y-102664285D01*
X131875057Y-101854761D02*
X131827438Y-101807142D01*
X131827438Y-101807142D02*
X131779819Y-101711904D01*
X131779819Y-101711904D02*
X131779819Y-101473809D01*
X131779819Y-101473809D02*
X131827438Y-101378571D01*
X131827438Y-101378571D02*
X131875057Y-101330952D01*
X131875057Y-101330952D02*
X131970295Y-101283333D01*
X131970295Y-101283333D02*
X132065533Y-101283333D01*
X132065533Y-101283333D02*
X132208390Y-101330952D01*
X132208390Y-101330952D02*
X132779819Y-101902380D01*
X132779819Y-101902380D02*
X132779819Y-101283333D01*
X136328220Y-100059580D02*
X136280601Y-100107200D01*
X136280601Y-100107200D02*
X136137744Y-100154819D01*
X136137744Y-100154819D02*
X136042506Y-100154819D01*
X136042506Y-100154819D02*
X135899649Y-100107200D01*
X135899649Y-100107200D02*
X135804411Y-100011961D01*
X135804411Y-100011961D02*
X135756792Y-99916723D01*
X135756792Y-99916723D02*
X135709173Y-99726247D01*
X135709173Y-99726247D02*
X135709173Y-99583390D01*
X135709173Y-99583390D02*
X135756792Y-99392914D01*
X135756792Y-99392914D02*
X135804411Y-99297676D01*
X135804411Y-99297676D02*
X135899649Y-99202438D01*
X135899649Y-99202438D02*
X136042506Y-99154819D01*
X136042506Y-99154819D02*
X136137744Y-99154819D01*
X136137744Y-99154819D02*
X136280601Y-99202438D01*
X136280601Y-99202438D02*
X136328220Y-99250057D01*
X136661554Y-99154819D02*
X137280601Y-99154819D01*
X137280601Y-99154819D02*
X136947268Y-99535771D01*
X136947268Y-99535771D02*
X137090125Y-99535771D01*
X137090125Y-99535771D02*
X137185363Y-99583390D01*
X137185363Y-99583390D02*
X137232982Y-99631009D01*
X137232982Y-99631009D02*
X137280601Y-99726247D01*
X137280601Y-99726247D02*
X137280601Y-99964342D01*
X137280601Y-99964342D02*
X137232982Y-100059580D01*
X137232982Y-100059580D02*
X137185363Y-100107200D01*
X137185363Y-100107200D02*
X137090125Y-100154819D01*
X137090125Y-100154819D02*
X136804411Y-100154819D01*
X136804411Y-100154819D02*
X136709173Y-100107200D01*
X136709173Y-100107200D02*
X136661554Y-100059580D01*
X138154819Y-92566666D02*
X137678628Y-92899999D01*
X138154819Y-93138094D02*
X137154819Y-93138094D01*
X137154819Y-93138094D02*
X137154819Y-92757142D01*
X137154819Y-92757142D02*
X137202438Y-92661904D01*
X137202438Y-92661904D02*
X137250057Y-92614285D01*
X137250057Y-92614285D02*
X137345295Y-92566666D01*
X137345295Y-92566666D02*
X137488152Y-92566666D01*
X137488152Y-92566666D02*
X137583390Y-92614285D01*
X137583390Y-92614285D02*
X137631009Y-92661904D01*
X137631009Y-92661904D02*
X137678628Y-92757142D01*
X137678628Y-92757142D02*
X137678628Y-93138094D01*
X137154819Y-91661904D02*
X137154819Y-92138094D01*
X137154819Y-92138094D02*
X137631009Y-92185713D01*
X137631009Y-92185713D02*
X137583390Y-92138094D01*
X137583390Y-92138094D02*
X137535771Y-92042856D01*
X137535771Y-92042856D02*
X137535771Y-91804761D01*
X137535771Y-91804761D02*
X137583390Y-91709523D01*
X137583390Y-91709523D02*
X137631009Y-91661904D01*
X137631009Y-91661904D02*
X137726247Y-91614285D01*
X137726247Y-91614285D02*
X137964342Y-91614285D01*
X137964342Y-91614285D02*
X138059580Y-91661904D01*
X138059580Y-91661904D02*
X138107200Y-91709523D01*
X138107200Y-91709523D02*
X138154819Y-91804761D01*
X138154819Y-91804761D02*
X138154819Y-92042856D01*
X138154819Y-92042856D02*
X138107200Y-92138094D01*
X138107200Y-92138094D02*
X138059580Y-92185713D01*
X129716666Y-107574819D02*
X129716666Y-108289104D01*
X129716666Y-108289104D02*
X129669047Y-108431961D01*
X129669047Y-108431961D02*
X129573809Y-108527200D01*
X129573809Y-108527200D02*
X129430952Y-108574819D01*
X129430952Y-108574819D02*
X129335714Y-108574819D01*
X130097619Y-107574819D02*
X130716666Y-107574819D01*
X130716666Y-107574819D02*
X130383333Y-107955771D01*
X130383333Y-107955771D02*
X130526190Y-107955771D01*
X130526190Y-107955771D02*
X130621428Y-108003390D01*
X130621428Y-108003390D02*
X130669047Y-108051009D01*
X130669047Y-108051009D02*
X130716666Y-108146247D01*
X130716666Y-108146247D02*
X130716666Y-108384342D01*
X130716666Y-108384342D02*
X130669047Y-108479580D01*
X130669047Y-108479580D02*
X130621428Y-108527200D01*
X130621428Y-108527200D02*
X130526190Y-108574819D01*
X130526190Y-108574819D02*
X130240476Y-108574819D01*
X130240476Y-108574819D02*
X130145238Y-108527200D01*
X130145238Y-108527200D02*
X130097619Y-108479580D01*
X147433333Y-113054819D02*
X147100000Y-112578628D01*
X146861905Y-113054819D02*
X146861905Y-112054819D01*
X146861905Y-112054819D02*
X147242857Y-112054819D01*
X147242857Y-112054819D02*
X147338095Y-112102438D01*
X147338095Y-112102438D02*
X147385714Y-112150057D01*
X147385714Y-112150057D02*
X147433333Y-112245295D01*
X147433333Y-112245295D02*
X147433333Y-112388152D01*
X147433333Y-112388152D02*
X147385714Y-112483390D01*
X147385714Y-112483390D02*
X147338095Y-112531009D01*
X147338095Y-112531009D02*
X147242857Y-112578628D01*
X147242857Y-112578628D02*
X146861905Y-112578628D01*
X148385714Y-113054819D02*
X147814286Y-113054819D01*
X148100000Y-113054819D02*
X148100000Y-112054819D01*
X148100000Y-112054819D02*
X148004762Y-112197676D01*
X148004762Y-112197676D02*
X147909524Y-112292914D01*
X147909524Y-112292914D02*
X147814286Y-112340533D01*
X129816666Y-94409819D02*
X129816666Y-95124104D01*
X129816666Y-95124104D02*
X129769047Y-95266961D01*
X129769047Y-95266961D02*
X129673809Y-95362200D01*
X129673809Y-95362200D02*
X129530952Y-95409819D01*
X129530952Y-95409819D02*
X129435714Y-95409819D01*
X130721428Y-94743152D02*
X130721428Y-95409819D01*
X130483333Y-94362200D02*
X130245238Y-95076485D01*
X130245238Y-95076485D02*
X130864285Y-95076485D01*
X133804819Y-108964285D02*
X134614342Y-108964285D01*
X134614342Y-108964285D02*
X134709580Y-108916666D01*
X134709580Y-108916666D02*
X134757200Y-108869047D01*
X134757200Y-108869047D02*
X134804819Y-108773809D01*
X134804819Y-108773809D02*
X134804819Y-108583333D01*
X134804819Y-108583333D02*
X134757200Y-108488095D01*
X134757200Y-108488095D02*
X134709580Y-108440476D01*
X134709580Y-108440476D02*
X134614342Y-108392857D01*
X134614342Y-108392857D02*
X133804819Y-108392857D01*
X134804819Y-107392857D02*
X134804819Y-107964285D01*
X134804819Y-107678571D02*
X133804819Y-107678571D01*
X133804819Y-107678571D02*
X133947676Y-107773809D01*
X133947676Y-107773809D02*
X134042914Y-107869047D01*
X134042914Y-107869047D02*
X134090533Y-107964285D01*
X134423866Y-106964285D02*
X134423866Y-106202381D01*
X134709580Y-105154762D02*
X134757200Y-105202381D01*
X134757200Y-105202381D02*
X134804819Y-105345238D01*
X134804819Y-105345238D02*
X134804819Y-105440476D01*
X134804819Y-105440476D02*
X134757200Y-105583333D01*
X134757200Y-105583333D02*
X134661961Y-105678571D01*
X134661961Y-105678571D02*
X134566723Y-105726190D01*
X134566723Y-105726190D02*
X134376247Y-105773809D01*
X134376247Y-105773809D02*
X134233390Y-105773809D01*
X134233390Y-105773809D02*
X134042914Y-105726190D01*
X134042914Y-105726190D02*
X133947676Y-105678571D01*
X133947676Y-105678571D02*
X133852438Y-105583333D01*
X133852438Y-105583333D02*
X133804819Y-105440476D01*
X133804819Y-105440476D02*
X133804819Y-105345238D01*
X133804819Y-105345238D02*
X133852438Y-105202381D01*
X133852438Y-105202381D02*
X133900057Y-105154762D01*
X134804819Y-104583333D02*
X134757200Y-104678571D01*
X134757200Y-104678571D02*
X134709580Y-104726190D01*
X134709580Y-104726190D02*
X134614342Y-104773809D01*
X134614342Y-104773809D02*
X134328628Y-104773809D01*
X134328628Y-104773809D02*
X134233390Y-104726190D01*
X134233390Y-104726190D02*
X134185771Y-104678571D01*
X134185771Y-104678571D02*
X134138152Y-104583333D01*
X134138152Y-104583333D02*
X134138152Y-104440476D01*
X134138152Y-104440476D02*
X134185771Y-104345238D01*
X134185771Y-104345238D02*
X134233390Y-104297619D01*
X134233390Y-104297619D02*
X134328628Y-104250000D01*
X134328628Y-104250000D02*
X134614342Y-104250000D01*
X134614342Y-104250000D02*
X134709580Y-104297619D01*
X134709580Y-104297619D02*
X134757200Y-104345238D01*
X134757200Y-104345238D02*
X134804819Y-104440476D01*
X134804819Y-104440476D02*
X134804819Y-104583333D01*
X134138152Y-103821428D02*
X134804819Y-103821428D01*
X134233390Y-103821428D02*
X134185771Y-103773809D01*
X134185771Y-103773809D02*
X134138152Y-103678571D01*
X134138152Y-103678571D02*
X134138152Y-103535714D01*
X134138152Y-103535714D02*
X134185771Y-103440476D01*
X134185771Y-103440476D02*
X134281009Y-103392857D01*
X134281009Y-103392857D02*
X134804819Y-103392857D01*
X134804819Y-102488095D02*
X133804819Y-102488095D01*
X134757200Y-102488095D02*
X134804819Y-102583333D01*
X134804819Y-102583333D02*
X134804819Y-102773809D01*
X134804819Y-102773809D02*
X134757200Y-102869047D01*
X134757200Y-102869047D02*
X134709580Y-102916666D01*
X134709580Y-102916666D02*
X134614342Y-102964285D01*
X134614342Y-102964285D02*
X134328628Y-102964285D01*
X134328628Y-102964285D02*
X134233390Y-102916666D01*
X134233390Y-102916666D02*
X134185771Y-102869047D01*
X134185771Y-102869047D02*
X134138152Y-102773809D01*
X134138152Y-102773809D02*
X134138152Y-102583333D01*
X134138152Y-102583333D02*
X134185771Y-102488095D01*
X134804819Y-101488095D02*
X134804819Y-102059523D01*
X134804819Y-101773809D02*
X133804819Y-101773809D01*
X133804819Y-101773809D02*
X133947676Y-101869047D01*
X133947676Y-101869047D02*
X134042914Y-101964285D01*
X134042914Y-101964285D02*
X134090533Y-102059523D01*
X156854819Y-111038094D02*
X155854819Y-111038094D01*
X155854819Y-111038094D02*
X155854819Y-110799999D01*
X155854819Y-110799999D02*
X155902438Y-110657142D01*
X155902438Y-110657142D02*
X155997676Y-110561904D01*
X155997676Y-110561904D02*
X156092914Y-110514285D01*
X156092914Y-110514285D02*
X156283390Y-110466666D01*
X156283390Y-110466666D02*
X156426247Y-110466666D01*
X156426247Y-110466666D02*
X156616723Y-110514285D01*
X156616723Y-110514285D02*
X156711961Y-110561904D01*
X156711961Y-110561904D02*
X156807200Y-110657142D01*
X156807200Y-110657142D02*
X156854819Y-110799999D01*
X156854819Y-110799999D02*
X156854819Y-111038094D01*
X155950057Y-110085713D02*
X155902438Y-110038094D01*
X155902438Y-110038094D02*
X155854819Y-109942856D01*
X155854819Y-109942856D02*
X155854819Y-109704761D01*
X155854819Y-109704761D02*
X155902438Y-109609523D01*
X155902438Y-109609523D02*
X155950057Y-109561904D01*
X155950057Y-109561904D02*
X156045295Y-109514285D01*
X156045295Y-109514285D02*
X156140533Y-109514285D01*
X156140533Y-109514285D02*
X156283390Y-109561904D01*
X156283390Y-109561904D02*
X156854819Y-110133332D01*
X156854819Y-110133332D02*
X156854819Y-109514285D01*
X151633333Y-91559580D02*
X151585714Y-91607200D01*
X151585714Y-91607200D02*
X151442857Y-91654819D01*
X151442857Y-91654819D02*
X151347619Y-91654819D01*
X151347619Y-91654819D02*
X151204762Y-91607200D01*
X151204762Y-91607200D02*
X151109524Y-91511961D01*
X151109524Y-91511961D02*
X151061905Y-91416723D01*
X151061905Y-91416723D02*
X151014286Y-91226247D01*
X151014286Y-91226247D02*
X151014286Y-91083390D01*
X151014286Y-91083390D02*
X151061905Y-90892914D01*
X151061905Y-90892914D02*
X151109524Y-90797676D01*
X151109524Y-90797676D02*
X151204762Y-90702438D01*
X151204762Y-90702438D02*
X151347619Y-90654819D01*
X151347619Y-90654819D02*
X151442857Y-90654819D01*
X151442857Y-90654819D02*
X151585714Y-90702438D01*
X151585714Y-90702438D02*
X151633333Y-90750057D01*
X152490476Y-90988152D02*
X152490476Y-91654819D01*
X152252381Y-90607200D02*
X152014286Y-91321485D01*
X152014286Y-91321485D02*
X152633333Y-91321485D01*
X159954819Y-93638094D02*
X158954819Y-93638094D01*
X158954819Y-93638094D02*
X158954819Y-93399999D01*
X158954819Y-93399999D02*
X159002438Y-93257142D01*
X159002438Y-93257142D02*
X159097676Y-93161904D01*
X159097676Y-93161904D02*
X159192914Y-93114285D01*
X159192914Y-93114285D02*
X159383390Y-93066666D01*
X159383390Y-93066666D02*
X159526247Y-93066666D01*
X159526247Y-93066666D02*
X159716723Y-93114285D01*
X159716723Y-93114285D02*
X159811961Y-93161904D01*
X159811961Y-93161904D02*
X159907200Y-93257142D01*
X159907200Y-93257142D02*
X159954819Y-93399999D01*
X159954819Y-93399999D02*
X159954819Y-93638094D01*
X159288152Y-92209523D02*
X159954819Y-92209523D01*
X158907200Y-92447618D02*
X159621485Y-92685713D01*
X159621485Y-92685713D02*
X159621485Y-92066666D01*
X151859580Y-106366666D02*
X151907200Y-106414285D01*
X151907200Y-106414285D02*
X151954819Y-106557142D01*
X151954819Y-106557142D02*
X151954819Y-106652380D01*
X151954819Y-106652380D02*
X151907200Y-106795237D01*
X151907200Y-106795237D02*
X151811961Y-106890475D01*
X151811961Y-106890475D02*
X151716723Y-106938094D01*
X151716723Y-106938094D02*
X151526247Y-106985713D01*
X151526247Y-106985713D02*
X151383390Y-106985713D01*
X151383390Y-106985713D02*
X151192914Y-106938094D01*
X151192914Y-106938094D02*
X151097676Y-106890475D01*
X151097676Y-106890475D02*
X151002438Y-106795237D01*
X151002438Y-106795237D02*
X150954819Y-106652380D01*
X150954819Y-106652380D02*
X150954819Y-106557142D01*
X150954819Y-106557142D02*
X151002438Y-106414285D01*
X151002438Y-106414285D02*
X151050057Y-106366666D01*
X151954819Y-105414285D02*
X151954819Y-105985713D01*
X151954819Y-105699999D02*
X150954819Y-105699999D01*
X150954819Y-105699999D02*
X151097676Y-105795237D01*
X151097676Y-105795237D02*
X151192914Y-105890475D01*
X151192914Y-105890475D02*
X151240533Y-105985713D01*
X152161905Y-86554819D02*
X152161905Y-85554819D01*
X152161905Y-85554819D02*
X152400000Y-85554819D01*
X152400000Y-85554819D02*
X152542857Y-85602438D01*
X152542857Y-85602438D02*
X152638095Y-85697676D01*
X152638095Y-85697676D02*
X152685714Y-85792914D01*
X152685714Y-85792914D02*
X152733333Y-85983390D01*
X152733333Y-85983390D02*
X152733333Y-86126247D01*
X152733333Y-86126247D02*
X152685714Y-86316723D01*
X152685714Y-86316723D02*
X152638095Y-86411961D01*
X152638095Y-86411961D02*
X152542857Y-86507200D01*
X152542857Y-86507200D02*
X152400000Y-86554819D01*
X152400000Y-86554819D02*
X152161905Y-86554819D01*
X153066667Y-85554819D02*
X153685714Y-85554819D01*
X153685714Y-85554819D02*
X153352381Y-85935771D01*
X153352381Y-85935771D02*
X153495238Y-85935771D01*
X153495238Y-85935771D02*
X153590476Y-85983390D01*
X153590476Y-85983390D02*
X153638095Y-86031009D01*
X153638095Y-86031009D02*
X153685714Y-86126247D01*
X153685714Y-86126247D02*
X153685714Y-86364342D01*
X153685714Y-86364342D02*
X153638095Y-86459580D01*
X153638095Y-86459580D02*
X153590476Y-86507200D01*
X153590476Y-86507200D02*
X153495238Y-86554819D01*
X153495238Y-86554819D02*
X153209524Y-86554819D01*
X153209524Y-86554819D02*
X153114286Y-86507200D01*
X153114286Y-86507200D02*
X153066667Y-86459580D01*
X143724819Y-106366666D02*
X143248628Y-106699999D01*
X143724819Y-106938094D02*
X142724819Y-106938094D01*
X142724819Y-106938094D02*
X142724819Y-106557142D01*
X142724819Y-106557142D02*
X142772438Y-106461904D01*
X142772438Y-106461904D02*
X142820057Y-106414285D01*
X142820057Y-106414285D02*
X142915295Y-106366666D01*
X142915295Y-106366666D02*
X143058152Y-106366666D01*
X143058152Y-106366666D02*
X143153390Y-106414285D01*
X143153390Y-106414285D02*
X143201009Y-106461904D01*
X143201009Y-106461904D02*
X143248628Y-106557142D01*
X143248628Y-106557142D02*
X143248628Y-106938094D01*
X142820057Y-105985713D02*
X142772438Y-105938094D01*
X142772438Y-105938094D02*
X142724819Y-105842856D01*
X142724819Y-105842856D02*
X142724819Y-105604761D01*
X142724819Y-105604761D02*
X142772438Y-105509523D01*
X142772438Y-105509523D02*
X142820057Y-105461904D01*
X142820057Y-105461904D02*
X142915295Y-105414285D01*
X142915295Y-105414285D02*
X143010533Y-105414285D01*
X143010533Y-105414285D02*
X143153390Y-105461904D01*
X143153390Y-105461904D02*
X143724819Y-106033332D01*
X143724819Y-106033332D02*
X143724819Y-105414285D01*
X151533333Y-96654819D02*
X151200000Y-96178628D01*
X150961905Y-96654819D02*
X150961905Y-95654819D01*
X150961905Y-95654819D02*
X151342857Y-95654819D01*
X151342857Y-95654819D02*
X151438095Y-95702438D01*
X151438095Y-95702438D02*
X151485714Y-95750057D01*
X151485714Y-95750057D02*
X151533333Y-95845295D01*
X151533333Y-95845295D02*
X151533333Y-95988152D01*
X151533333Y-95988152D02*
X151485714Y-96083390D01*
X151485714Y-96083390D02*
X151438095Y-96131009D01*
X151438095Y-96131009D02*
X151342857Y-96178628D01*
X151342857Y-96178628D02*
X150961905Y-96178628D01*
X152104762Y-96083390D02*
X152009524Y-96035771D01*
X152009524Y-96035771D02*
X151961905Y-95988152D01*
X151961905Y-95988152D02*
X151914286Y-95892914D01*
X151914286Y-95892914D02*
X151914286Y-95845295D01*
X151914286Y-95845295D02*
X151961905Y-95750057D01*
X151961905Y-95750057D02*
X152009524Y-95702438D01*
X152009524Y-95702438D02*
X152104762Y-95654819D01*
X152104762Y-95654819D02*
X152295238Y-95654819D01*
X152295238Y-95654819D02*
X152390476Y-95702438D01*
X152390476Y-95702438D02*
X152438095Y-95750057D01*
X152438095Y-95750057D02*
X152485714Y-95845295D01*
X152485714Y-95845295D02*
X152485714Y-95892914D01*
X152485714Y-95892914D02*
X152438095Y-95988152D01*
X152438095Y-95988152D02*
X152390476Y-96035771D01*
X152390476Y-96035771D02*
X152295238Y-96083390D01*
X152295238Y-96083390D02*
X152104762Y-96083390D01*
X152104762Y-96083390D02*
X152009524Y-96131009D01*
X152009524Y-96131009D02*
X151961905Y-96178628D01*
X151961905Y-96178628D02*
X151914286Y-96273866D01*
X151914286Y-96273866D02*
X151914286Y-96464342D01*
X151914286Y-96464342D02*
X151961905Y-96559580D01*
X151961905Y-96559580D02*
X152009524Y-96607200D01*
X152009524Y-96607200D02*
X152104762Y-96654819D01*
X152104762Y-96654819D02*
X152295238Y-96654819D01*
X152295238Y-96654819D02*
X152390476Y-96607200D01*
X152390476Y-96607200D02*
X152438095Y-96559580D01*
X152438095Y-96559580D02*
X152485714Y-96464342D01*
X152485714Y-96464342D02*
X152485714Y-96273866D01*
X152485714Y-96273866D02*
X152438095Y-96178628D01*
X152438095Y-96178628D02*
X152390476Y-96131009D01*
X152390476Y-96131009D02*
X152295238Y-96083390D01*
X145824819Y-94566666D02*
X145348628Y-94899999D01*
X145824819Y-95138094D02*
X144824819Y-95138094D01*
X144824819Y-95138094D02*
X144824819Y-94757142D01*
X144824819Y-94757142D02*
X144872438Y-94661904D01*
X144872438Y-94661904D02*
X144920057Y-94614285D01*
X144920057Y-94614285D02*
X145015295Y-94566666D01*
X145015295Y-94566666D02*
X145158152Y-94566666D01*
X145158152Y-94566666D02*
X145253390Y-94614285D01*
X145253390Y-94614285D02*
X145301009Y-94661904D01*
X145301009Y-94661904D02*
X145348628Y-94757142D01*
X145348628Y-94757142D02*
X145348628Y-95138094D01*
X145158152Y-93709523D02*
X145824819Y-93709523D01*
X144777200Y-93947618D02*
X145491485Y-94185713D01*
X145491485Y-94185713D02*
X145491485Y-93566666D01*
X161966666Y-89704819D02*
X161966666Y-90419104D01*
X161966666Y-90419104D02*
X161919047Y-90561961D01*
X161919047Y-90561961D02*
X161823809Y-90657200D01*
X161823809Y-90657200D02*
X161680952Y-90704819D01*
X161680952Y-90704819D02*
X161585714Y-90704819D01*
X162966666Y-90704819D02*
X162395238Y-90704819D01*
X162680952Y-90704819D02*
X162680952Y-89704819D01*
X162680952Y-89704819D02*
X162585714Y-89847676D01*
X162585714Y-89847676D02*
X162490476Y-89942914D01*
X162490476Y-89942914D02*
X162395238Y-89990533D01*
X140938433Y-117359580D02*
X140890814Y-117407200D01*
X140890814Y-117407200D02*
X140747957Y-117454819D01*
X140747957Y-117454819D02*
X140652719Y-117454819D01*
X140652719Y-117454819D02*
X140509862Y-117407200D01*
X140509862Y-117407200D02*
X140414624Y-117311961D01*
X140414624Y-117311961D02*
X140367005Y-117216723D01*
X140367005Y-117216723D02*
X140319386Y-117026247D01*
X140319386Y-117026247D02*
X140319386Y-116883390D01*
X140319386Y-116883390D02*
X140367005Y-116692914D01*
X140367005Y-116692914D02*
X140414624Y-116597676D01*
X140414624Y-116597676D02*
X140509862Y-116502438D01*
X140509862Y-116502438D02*
X140652719Y-116454819D01*
X140652719Y-116454819D02*
X140747957Y-116454819D01*
X140747957Y-116454819D02*
X140890814Y-116502438D01*
X140890814Y-116502438D02*
X140938433Y-116550057D01*
X141319386Y-116550057D02*
X141367005Y-116502438D01*
X141367005Y-116502438D02*
X141462243Y-116454819D01*
X141462243Y-116454819D02*
X141700338Y-116454819D01*
X141700338Y-116454819D02*
X141795576Y-116502438D01*
X141795576Y-116502438D02*
X141843195Y-116550057D01*
X141843195Y-116550057D02*
X141890814Y-116645295D01*
X141890814Y-116645295D02*
X141890814Y-116740533D01*
X141890814Y-116740533D02*
X141843195Y-116883390D01*
X141843195Y-116883390D02*
X141271767Y-117454819D01*
X141271767Y-117454819D02*
X141890814Y-117454819D01*
X152261905Y-103954819D02*
X152261905Y-102954819D01*
X152261905Y-102954819D02*
X152500000Y-102954819D01*
X152500000Y-102954819D02*
X152642857Y-103002438D01*
X152642857Y-103002438D02*
X152738095Y-103097676D01*
X152738095Y-103097676D02*
X152785714Y-103192914D01*
X152785714Y-103192914D02*
X152833333Y-103383390D01*
X152833333Y-103383390D02*
X152833333Y-103526247D01*
X152833333Y-103526247D02*
X152785714Y-103716723D01*
X152785714Y-103716723D02*
X152738095Y-103811961D01*
X152738095Y-103811961D02*
X152642857Y-103907200D01*
X152642857Y-103907200D02*
X152500000Y-103954819D01*
X152500000Y-103954819D02*
X152261905Y-103954819D01*
X153785714Y-103954819D02*
X153214286Y-103954819D01*
X153500000Y-103954819D02*
X153500000Y-102954819D01*
X153500000Y-102954819D02*
X153404762Y-103097676D01*
X153404762Y-103097676D02*
X153309524Y-103192914D01*
X153309524Y-103192914D02*
X153214286Y-103240533D01*
X147333333Y-117354819D02*
X147000000Y-116878628D01*
X146761905Y-117354819D02*
X146761905Y-116354819D01*
X146761905Y-116354819D02*
X147142857Y-116354819D01*
X147142857Y-116354819D02*
X147238095Y-116402438D01*
X147238095Y-116402438D02*
X147285714Y-116450057D01*
X147285714Y-116450057D02*
X147333333Y-116545295D01*
X147333333Y-116545295D02*
X147333333Y-116688152D01*
X147333333Y-116688152D02*
X147285714Y-116783390D01*
X147285714Y-116783390D02*
X147238095Y-116831009D01*
X147238095Y-116831009D02*
X147142857Y-116878628D01*
X147142857Y-116878628D02*
X146761905Y-116878628D01*
X147666667Y-116354819D02*
X148285714Y-116354819D01*
X148285714Y-116354819D02*
X147952381Y-116735771D01*
X147952381Y-116735771D02*
X148095238Y-116735771D01*
X148095238Y-116735771D02*
X148190476Y-116783390D01*
X148190476Y-116783390D02*
X148238095Y-116831009D01*
X148238095Y-116831009D02*
X148285714Y-116926247D01*
X148285714Y-116926247D02*
X148285714Y-117164342D01*
X148285714Y-117164342D02*
X148238095Y-117259580D01*
X148238095Y-117259580D02*
X148190476Y-117307200D01*
X148190476Y-117307200D02*
X148095238Y-117354819D01*
X148095238Y-117354819D02*
X147809524Y-117354819D01*
X147809524Y-117354819D02*
X147714286Y-117307200D01*
X147714286Y-117307200D02*
X147666667Y-117259580D01*
D12*
X131430000Y-104555000D02*
X130100000Y-104555000D01*
X131430000Y-103225000D02*
X131430000Y-104555000D01*
X131430000Y-101955000D02*
X131430000Y-99355000D01*
X131430000Y-101955000D02*
X128770000Y-101955000D01*
X131430000Y-99355000D02*
X128770000Y-99355000D01*
X128770000Y-101955000D02*
X128770000Y-99355000D01*
X137854775Y-97875000D02*
X137354775Y-97875000D01*
X137604775Y-98125000D02*
X137604775Y-97625000D01*
X135050000Y-98980000D02*
X135050000Y-93820000D01*
X135010000Y-98980000D02*
X135010000Y-93820000D01*
X134970000Y-98979000D02*
X134970000Y-93821000D01*
X134930000Y-98978000D02*
X134930000Y-93822000D01*
X134890000Y-98976000D02*
X134890000Y-93824000D01*
X134850000Y-98973000D02*
X134850000Y-93827000D01*
X134810000Y-98969000D02*
X134810000Y-97440000D01*
X134810000Y-95360000D02*
X134810000Y-93831000D01*
X134770000Y-98965000D02*
X134770000Y-97440000D01*
X134770000Y-95360000D02*
X134770000Y-93835000D01*
X134730000Y-98961000D02*
X134730000Y-97440000D01*
X134730000Y-95360000D02*
X134730000Y-93839000D01*
X134690000Y-98956000D02*
X134690000Y-97440000D01*
X134690000Y-95360000D02*
X134690000Y-93844000D01*
X134650000Y-98950000D02*
X134650000Y-97440000D01*
X134650000Y-95360000D02*
X134650000Y-93850000D01*
X134610000Y-98943000D02*
X134610000Y-97440000D01*
X134610000Y-95360000D02*
X134610000Y-93857000D01*
X134570000Y-98936000D02*
X134570000Y-97440000D01*
X134570000Y-95360000D02*
X134570000Y-93864000D01*
X134530000Y-98928000D02*
X134530000Y-97440000D01*
X134530000Y-95360000D02*
X134530000Y-93872000D01*
X134490000Y-98920000D02*
X134490000Y-97440000D01*
X134490000Y-95360000D02*
X134490000Y-93880000D01*
X134450000Y-98911000D02*
X134450000Y-97440000D01*
X134450000Y-95360000D02*
X134450000Y-93889000D01*
X134410000Y-98901000D02*
X134410000Y-97440000D01*
X134410000Y-95360000D02*
X134410000Y-93899000D01*
X134370000Y-98891000D02*
X134370000Y-97440000D01*
X134370000Y-95360000D02*
X134370000Y-93909000D01*
X134329000Y-98880000D02*
X134329000Y-97440000D01*
X134329000Y-95360000D02*
X134329000Y-93920000D01*
X134289000Y-98868000D02*
X134289000Y-97440000D01*
X134289000Y-95360000D02*
X134289000Y-93932000D01*
X134249000Y-98855000D02*
X134249000Y-97440000D01*
X134249000Y-95360000D02*
X134249000Y-93945000D01*
X134209000Y-98842000D02*
X134209000Y-97440000D01*
X134209000Y-95360000D02*
X134209000Y-93958000D01*
X134169000Y-98828000D02*
X134169000Y-97440000D01*
X134169000Y-95360000D02*
X134169000Y-93972000D01*
X134129000Y-98814000D02*
X134129000Y-97440000D01*
X134129000Y-95360000D02*
X134129000Y-93986000D01*
X134089000Y-98798000D02*
X134089000Y-97440000D01*
X134089000Y-95360000D02*
X134089000Y-94002000D01*
X134049000Y-98782000D02*
X134049000Y-97440000D01*
X134049000Y-95360000D02*
X134049000Y-94018000D01*
X134009000Y-98765000D02*
X134009000Y-97440000D01*
X134009000Y-95360000D02*
X134009000Y-94035000D01*
X133969000Y-98748000D02*
X133969000Y-97440000D01*
X133969000Y-95360000D02*
X133969000Y-94052000D01*
X133929000Y-98729000D02*
X133929000Y-97440000D01*
X133929000Y-95360000D02*
X133929000Y-94071000D01*
X133889000Y-98710000D02*
X133889000Y-97440000D01*
X133889000Y-95360000D02*
X133889000Y-94090000D01*
X133849000Y-98690000D02*
X133849000Y-97440000D01*
X133849000Y-95360000D02*
X133849000Y-94110000D01*
X133809000Y-98668000D02*
X133809000Y-97440000D01*
X133809000Y-95360000D02*
X133809000Y-94132000D01*
X133769000Y-98647000D02*
X133769000Y-97440000D01*
X133769000Y-95360000D02*
X133769000Y-94153000D01*
X133729000Y-98624000D02*
X133729000Y-97440000D01*
X133729000Y-95360000D02*
X133729000Y-94176000D01*
X133689000Y-98600000D02*
X133689000Y-97440000D01*
X133689000Y-95360000D02*
X133689000Y-94200000D01*
X133649000Y-98575000D02*
X133649000Y-97440000D01*
X133649000Y-95360000D02*
X133649000Y-94225000D01*
X133609000Y-98549000D02*
X133609000Y-97440000D01*
X133609000Y-95360000D02*
X133609000Y-94251000D01*
X133569000Y-98522000D02*
X133569000Y-97440000D01*
X133569000Y-95360000D02*
X133569000Y-94278000D01*
X133529000Y-98495000D02*
X133529000Y-97440000D01*
X133529000Y-95360000D02*
X133529000Y-94305000D01*
X133489000Y-98465000D02*
X133489000Y-97440000D01*
X133489000Y-95360000D02*
X133489000Y-94335000D01*
X133449000Y-98435000D02*
X133449000Y-97440000D01*
X133449000Y-95360000D02*
X133449000Y-94365000D01*
X133409000Y-98404000D02*
X133409000Y-97440000D01*
X133409000Y-95360000D02*
X133409000Y-94396000D01*
X133369000Y-98371000D02*
X133369000Y-97440000D01*
X133369000Y-95360000D02*
X133369000Y-94429000D01*
X133329000Y-98337000D02*
X133329000Y-97440000D01*
X133329000Y-95360000D02*
X133329000Y-94463000D01*
X133289000Y-98301000D02*
X133289000Y-97440000D01*
X133289000Y-95360000D02*
X133289000Y-94499000D01*
X133249000Y-98264000D02*
X133249000Y-97440000D01*
X133249000Y-95360000D02*
X133249000Y-94536000D01*
X133209000Y-98226000D02*
X133209000Y-97440000D01*
X133209000Y-95360000D02*
X133209000Y-94574000D01*
X133169000Y-98185000D02*
X133169000Y-97440000D01*
X133169000Y-95360000D02*
X133169000Y-94615000D01*
X133129000Y-98143000D02*
X133129000Y-97440000D01*
X133129000Y-95360000D02*
X133129000Y-94657000D01*
X133089000Y-98099000D02*
X133089000Y-97440000D01*
X133089000Y-95360000D02*
X133089000Y-94701000D01*
X133049000Y-98053000D02*
X133049000Y-97440000D01*
X133049000Y-95360000D02*
X133049000Y-94747000D01*
X133009000Y-98005000D02*
X133009000Y-97440000D01*
X133009000Y-95360000D02*
X133009000Y-94795000D01*
X132969000Y-97954000D02*
X132969000Y-97440000D01*
X132969000Y-95360000D02*
X132969000Y-94846000D01*
X132929000Y-97900000D02*
X132929000Y-97440000D01*
X132929000Y-95360000D02*
X132929000Y-94900000D01*
X132889000Y-97843000D02*
X132889000Y-97440000D01*
X132889000Y-95360000D02*
X132889000Y-94957000D01*
X132849000Y-97783000D02*
X132849000Y-97440000D01*
X132849000Y-95360000D02*
X132849000Y-95017000D01*
X132809000Y-97719000D02*
X132809000Y-97440000D01*
X132809000Y-95360000D02*
X132809000Y-95081000D01*
X132769000Y-97651000D02*
X132769000Y-97440000D01*
X132769000Y-95360000D02*
X132769000Y-95149000D01*
X132729000Y-97578000D02*
X132729000Y-95222000D01*
X132689000Y-97498000D02*
X132689000Y-95302000D01*
X132649000Y-97411000D02*
X132649000Y-95389000D01*
X132609000Y-97315000D02*
X132609000Y-95485000D01*
X132569000Y-97205000D02*
X132569000Y-95595000D01*
X132529000Y-97077000D02*
X132529000Y-95723000D01*
X132489000Y-96918000D02*
X132489000Y-95882000D01*
X132449000Y-96684000D02*
X132449000Y-96116000D01*
X137670000Y-96400000D02*
G75*
G03*
X132430000Y-96400000I-2620000J0D01*
G01*
X132430000Y-96400000D02*
G75*
G03*
X137670000Y-96400000I2620000J0D01*
G01*
X138430000Y-97660000D02*
X138430000Y-91120000D01*
X138760000Y-97660000D02*
X138430000Y-97660000D01*
X140840000Y-97660000D02*
X141170000Y-97660000D01*
X141170000Y-97660000D02*
X141170000Y-91120000D01*
X138430000Y-91120000D02*
X138760000Y-91120000D01*
X141170000Y-91120000D02*
X140840000Y-91120000D01*
X128720000Y-109120000D02*
X130050000Y-109120000D01*
X128720000Y-110450000D02*
X128720000Y-109120000D01*
X128720000Y-111720000D02*
X128720000Y-116860000D01*
X128720000Y-111720000D02*
X131380000Y-111720000D01*
X128720000Y-116860000D02*
X131380000Y-116860000D01*
X131380000Y-111720000D02*
X131380000Y-116860000D01*
X144130000Y-109130000D02*
X150670000Y-109130000D01*
X144130000Y-109460000D02*
X144130000Y-109130000D01*
X144130000Y-111540000D02*
X144130000Y-111870000D01*
X144130000Y-111870000D02*
X150670000Y-111870000D01*
X150670000Y-109130000D02*
X150670000Y-109460000D01*
X150670000Y-111870000D02*
X150670000Y-111540000D01*
X131480000Y-93955000D02*
X130150000Y-93955000D01*
X131480000Y-92625000D02*
X131480000Y-93955000D01*
X131480000Y-91355000D02*
X131480000Y-86215000D01*
X131480000Y-91355000D02*
X128820000Y-91355000D01*
X131480000Y-86215000D02*
X128820000Y-86215000D01*
X128820000Y-91355000D02*
X128820000Y-86215000D01*
D13*
X135272800Y-107627200D02*
X135476361Y-107627200D01*
X138523639Y-107627200D02*
X138727200Y-107627200D01*
X138727200Y-107627200D02*
X138727200Y-104172800D01*
X135272800Y-104172800D02*
X135272800Y-107627200D01*
X135476361Y-104172800D02*
X135272800Y-104172800D01*
X138727200Y-104172800D02*
X138523639Y-104172800D01*
D12*
X154000000Y-114140000D02*
X154000000Y-113120000D01*
X152530000Y-113120000D02*
X155470000Y-113120000D01*
X155470000Y-113120000D02*
X155470000Y-107680000D01*
X152530000Y-112340000D02*
X155470000Y-112340000D01*
X152530000Y-112220000D02*
X155470000Y-112220000D01*
X152530000Y-112100000D02*
X155470000Y-112100000D01*
X152530000Y-107680000D02*
X152530000Y-113120000D01*
X155470000Y-107680000D02*
X152530000Y-107680000D01*
X154000000Y-106660000D02*
X154000000Y-107680000D01*
X147225000Y-95954775D02*
X147225000Y-95454775D01*
X146975000Y-95704775D02*
X147475000Y-95704775D01*
X146120000Y-93150000D02*
X151280000Y-93150000D01*
X146120000Y-93110000D02*
X151280000Y-93110000D01*
X146121000Y-93070000D02*
X151279000Y-93070000D01*
X146122000Y-93030000D02*
X151278000Y-93030000D01*
X146124000Y-92990000D02*
X151276000Y-92990000D01*
X146127000Y-92950000D02*
X151273000Y-92950000D01*
X146131000Y-92910000D02*
X147660000Y-92910000D01*
X149740000Y-92910000D02*
X151269000Y-92910000D01*
X146135000Y-92870000D02*
X147660000Y-92870000D01*
X149740000Y-92870000D02*
X151265000Y-92870000D01*
X146139000Y-92830000D02*
X147660000Y-92830000D01*
X149740000Y-92830000D02*
X151261000Y-92830000D01*
X146144000Y-92790000D02*
X147660000Y-92790000D01*
X149740000Y-92790000D02*
X151256000Y-92790000D01*
X146150000Y-92750000D02*
X147660000Y-92750000D01*
X149740000Y-92750000D02*
X151250000Y-92750000D01*
X146157000Y-92710000D02*
X147660000Y-92710000D01*
X149740000Y-92710000D02*
X151243000Y-92710000D01*
X146164000Y-92670000D02*
X147660000Y-92670000D01*
X149740000Y-92670000D02*
X151236000Y-92670000D01*
X146172000Y-92630000D02*
X147660000Y-92630000D01*
X149740000Y-92630000D02*
X151228000Y-92630000D01*
X146180000Y-92590000D02*
X147660000Y-92590000D01*
X149740000Y-92590000D02*
X151220000Y-92590000D01*
X146189000Y-92550000D02*
X147660000Y-92550000D01*
X149740000Y-92550000D02*
X151211000Y-92550000D01*
X146199000Y-92510000D02*
X147660000Y-92510000D01*
X149740000Y-92510000D02*
X151201000Y-92510000D01*
X146209000Y-92470000D02*
X147660000Y-92470000D01*
X149740000Y-92470000D02*
X151191000Y-92470000D01*
X146220000Y-92429000D02*
X147660000Y-92429000D01*
X149740000Y-92429000D02*
X151180000Y-92429000D01*
X146232000Y-92389000D02*
X147660000Y-92389000D01*
X149740000Y-92389000D02*
X151168000Y-92389000D01*
X146245000Y-92349000D02*
X147660000Y-92349000D01*
X149740000Y-92349000D02*
X151155000Y-92349000D01*
X146258000Y-92309000D02*
X147660000Y-92309000D01*
X149740000Y-92309000D02*
X151142000Y-92309000D01*
X146272000Y-92269000D02*
X147660000Y-92269000D01*
X149740000Y-92269000D02*
X151128000Y-92269000D01*
X146286000Y-92229000D02*
X147660000Y-92229000D01*
X149740000Y-92229000D02*
X151114000Y-92229000D01*
X146302000Y-92189000D02*
X147660000Y-92189000D01*
X149740000Y-92189000D02*
X151098000Y-92189000D01*
X146318000Y-92149000D02*
X147660000Y-92149000D01*
X149740000Y-92149000D02*
X151082000Y-92149000D01*
X146335000Y-92109000D02*
X147660000Y-92109000D01*
X149740000Y-92109000D02*
X151065000Y-92109000D01*
X146352000Y-92069000D02*
X147660000Y-92069000D01*
X149740000Y-92069000D02*
X151048000Y-92069000D01*
X146371000Y-92029000D02*
X147660000Y-92029000D01*
X149740000Y-92029000D02*
X151029000Y-92029000D01*
X146390000Y-91989000D02*
X147660000Y-91989000D01*
X149740000Y-91989000D02*
X151010000Y-91989000D01*
X146410000Y-91949000D02*
X147660000Y-91949000D01*
X149740000Y-91949000D02*
X150990000Y-91949000D01*
X146432000Y-91909000D02*
X147660000Y-91909000D01*
X149740000Y-91909000D02*
X150968000Y-91909000D01*
X146453000Y-91869000D02*
X147660000Y-91869000D01*
X149740000Y-91869000D02*
X150947000Y-91869000D01*
X146476000Y-91829000D02*
X147660000Y-91829000D01*
X149740000Y-91829000D02*
X150924000Y-91829000D01*
X146500000Y-91789000D02*
X147660000Y-91789000D01*
X149740000Y-91789000D02*
X150900000Y-91789000D01*
X146525000Y-91749000D02*
X147660000Y-91749000D01*
X149740000Y-91749000D02*
X150875000Y-91749000D01*
X146551000Y-91709000D02*
X147660000Y-91709000D01*
X149740000Y-91709000D02*
X150849000Y-91709000D01*
X146578000Y-91669000D02*
X147660000Y-91669000D01*
X149740000Y-91669000D02*
X150822000Y-91669000D01*
X146605000Y-91629000D02*
X147660000Y-91629000D01*
X149740000Y-91629000D02*
X150795000Y-91629000D01*
X146635000Y-91589000D02*
X147660000Y-91589000D01*
X149740000Y-91589000D02*
X150765000Y-91589000D01*
X146665000Y-91549000D02*
X147660000Y-91549000D01*
X149740000Y-91549000D02*
X150735000Y-91549000D01*
X146696000Y-91509000D02*
X147660000Y-91509000D01*
X149740000Y-91509000D02*
X150704000Y-91509000D01*
X146729000Y-91469000D02*
X147660000Y-91469000D01*
X149740000Y-91469000D02*
X150671000Y-91469000D01*
X146763000Y-91429000D02*
X147660000Y-91429000D01*
X149740000Y-91429000D02*
X150637000Y-91429000D01*
X146799000Y-91389000D02*
X147660000Y-91389000D01*
X149740000Y-91389000D02*
X150601000Y-91389000D01*
X146836000Y-91349000D02*
X147660000Y-91349000D01*
X149740000Y-91349000D02*
X150564000Y-91349000D01*
X146874000Y-91309000D02*
X147660000Y-91309000D01*
X149740000Y-91309000D02*
X150526000Y-91309000D01*
X146915000Y-91269000D02*
X147660000Y-91269000D01*
X149740000Y-91269000D02*
X150485000Y-91269000D01*
X146957000Y-91229000D02*
X147660000Y-91229000D01*
X149740000Y-91229000D02*
X150443000Y-91229000D01*
X147001000Y-91189000D02*
X147660000Y-91189000D01*
X149740000Y-91189000D02*
X150399000Y-91189000D01*
X147047000Y-91149000D02*
X147660000Y-91149000D01*
X149740000Y-91149000D02*
X150353000Y-91149000D01*
X147095000Y-91109000D02*
X147660000Y-91109000D01*
X149740000Y-91109000D02*
X150305000Y-91109000D01*
X147146000Y-91069000D02*
X147660000Y-91069000D01*
X149740000Y-91069000D02*
X150254000Y-91069000D01*
X147200000Y-91029000D02*
X147660000Y-91029000D01*
X149740000Y-91029000D02*
X150200000Y-91029000D01*
X147257000Y-90989000D02*
X147660000Y-90989000D01*
X149740000Y-90989000D02*
X150143000Y-90989000D01*
X147317000Y-90949000D02*
X147660000Y-90949000D01*
X149740000Y-90949000D02*
X150083000Y-90949000D01*
X147381000Y-90909000D02*
X147660000Y-90909000D01*
X149740000Y-90909000D02*
X150019000Y-90909000D01*
X147449000Y-90869000D02*
X147660000Y-90869000D01*
X149740000Y-90869000D02*
X149951000Y-90869000D01*
X147522000Y-90829000D02*
X149878000Y-90829000D01*
X147602000Y-90789000D02*
X149798000Y-90789000D01*
X147689000Y-90749000D02*
X149711000Y-90749000D01*
X147785000Y-90709000D02*
X149615000Y-90709000D01*
X147895000Y-90669000D02*
X149505000Y-90669000D01*
X148023000Y-90629000D02*
X149377000Y-90629000D01*
X148182000Y-90589000D02*
X149218000Y-90589000D01*
X148416000Y-90549000D02*
X148984000Y-90549000D01*
X151320000Y-93150000D02*
G75*
G03*
X146080000Y-93150000I-2620000J0D01*
G01*
X146080000Y-93150000D02*
G75*
G03*
X151320000Y-93150000I2620000J0D01*
G01*
X157100000Y-96840000D02*
X157100000Y-95820000D01*
X155630000Y-95820000D02*
X158570000Y-95820000D01*
X158570000Y-95820000D02*
X158570000Y-90380000D01*
X155630000Y-95040000D02*
X158570000Y-95040000D01*
X155630000Y-94920000D02*
X158570000Y-94920000D01*
X155630000Y-94800000D02*
X158570000Y-94800000D01*
X155630000Y-90380000D02*
X155630000Y-95820000D01*
X158570000Y-90380000D02*
X155630000Y-90380000D01*
X157100000Y-89360000D02*
X157100000Y-90380000D01*
X149575000Y-103345225D02*
X149575000Y-103845225D01*
X149825000Y-103595225D02*
X149325000Y-103595225D01*
X150680000Y-106150000D02*
X145520000Y-106150000D01*
X150680000Y-106190000D02*
X145520000Y-106190000D01*
X150679000Y-106230000D02*
X145521000Y-106230000D01*
X150678000Y-106270000D02*
X145522000Y-106270000D01*
X150676000Y-106310000D02*
X145524000Y-106310000D01*
X150673000Y-106350000D02*
X145527000Y-106350000D01*
X150669000Y-106390000D02*
X149140000Y-106390000D01*
X147060000Y-106390000D02*
X145531000Y-106390000D01*
X150665000Y-106430000D02*
X149140000Y-106430000D01*
X147060000Y-106430000D02*
X145535000Y-106430000D01*
X150661000Y-106470000D02*
X149140000Y-106470000D01*
X147060000Y-106470000D02*
X145539000Y-106470000D01*
X150656000Y-106510000D02*
X149140000Y-106510000D01*
X147060000Y-106510000D02*
X145544000Y-106510000D01*
X150650000Y-106550000D02*
X149140000Y-106550000D01*
X147060000Y-106550000D02*
X145550000Y-106550000D01*
X150643000Y-106590000D02*
X149140000Y-106590000D01*
X147060000Y-106590000D02*
X145557000Y-106590000D01*
X150636000Y-106630000D02*
X149140000Y-106630000D01*
X147060000Y-106630000D02*
X145564000Y-106630000D01*
X150628000Y-106670000D02*
X149140000Y-106670000D01*
X147060000Y-106670000D02*
X145572000Y-106670000D01*
X150620000Y-106710000D02*
X149140000Y-106710000D01*
X147060000Y-106710000D02*
X145580000Y-106710000D01*
X150611000Y-106750000D02*
X149140000Y-106750000D01*
X147060000Y-106750000D02*
X145589000Y-106750000D01*
X150601000Y-106790000D02*
X149140000Y-106790000D01*
X147060000Y-106790000D02*
X145599000Y-106790000D01*
X150591000Y-106830000D02*
X149140000Y-106830000D01*
X147060000Y-106830000D02*
X145609000Y-106830000D01*
X150580000Y-106871000D02*
X149140000Y-106871000D01*
X147060000Y-106871000D02*
X145620000Y-106871000D01*
X150568000Y-106911000D02*
X149140000Y-106911000D01*
X147060000Y-106911000D02*
X145632000Y-106911000D01*
X150555000Y-106951000D02*
X149140000Y-106951000D01*
X147060000Y-106951000D02*
X145645000Y-106951000D01*
X150542000Y-106991000D02*
X149140000Y-106991000D01*
X147060000Y-106991000D02*
X145658000Y-106991000D01*
X150528000Y-107031000D02*
X149140000Y-107031000D01*
X147060000Y-107031000D02*
X145672000Y-107031000D01*
X150514000Y-107071000D02*
X149140000Y-107071000D01*
X147060000Y-107071000D02*
X145686000Y-107071000D01*
X150498000Y-107111000D02*
X149140000Y-107111000D01*
X147060000Y-107111000D02*
X145702000Y-107111000D01*
X150482000Y-107151000D02*
X149140000Y-107151000D01*
X147060000Y-107151000D02*
X145718000Y-107151000D01*
X150465000Y-107191000D02*
X149140000Y-107191000D01*
X147060000Y-107191000D02*
X145735000Y-107191000D01*
X150448000Y-107231000D02*
X149140000Y-107231000D01*
X147060000Y-107231000D02*
X145752000Y-107231000D01*
X150429000Y-107271000D02*
X149140000Y-107271000D01*
X147060000Y-107271000D02*
X145771000Y-107271000D01*
X150410000Y-107311000D02*
X149140000Y-107311000D01*
X147060000Y-107311000D02*
X145790000Y-107311000D01*
X150390000Y-107351000D02*
X149140000Y-107351000D01*
X147060000Y-107351000D02*
X145810000Y-107351000D01*
X150368000Y-107391000D02*
X149140000Y-107391000D01*
X147060000Y-107391000D02*
X145832000Y-107391000D01*
X150347000Y-107431000D02*
X149140000Y-107431000D01*
X147060000Y-107431000D02*
X145853000Y-107431000D01*
X150324000Y-107471000D02*
X149140000Y-107471000D01*
X147060000Y-107471000D02*
X145876000Y-107471000D01*
X150300000Y-107511000D02*
X149140000Y-107511000D01*
X147060000Y-107511000D02*
X145900000Y-107511000D01*
X150275000Y-107551000D02*
X149140000Y-107551000D01*
X147060000Y-107551000D02*
X145925000Y-107551000D01*
X150249000Y-107591000D02*
X149140000Y-107591000D01*
X147060000Y-107591000D02*
X145951000Y-107591000D01*
X150222000Y-107631000D02*
X149140000Y-107631000D01*
X147060000Y-107631000D02*
X145978000Y-107631000D01*
X150195000Y-107671000D02*
X149140000Y-107671000D01*
X147060000Y-107671000D02*
X146005000Y-107671000D01*
X150165000Y-107711000D02*
X149140000Y-107711000D01*
X147060000Y-107711000D02*
X146035000Y-107711000D01*
X150135000Y-107751000D02*
X149140000Y-107751000D01*
X147060000Y-107751000D02*
X146065000Y-107751000D01*
X150104000Y-107791000D02*
X149140000Y-107791000D01*
X147060000Y-107791000D02*
X146096000Y-107791000D01*
X150071000Y-107831000D02*
X149140000Y-107831000D01*
X147060000Y-107831000D02*
X146129000Y-107831000D01*
X150037000Y-107871000D02*
X149140000Y-107871000D01*
X147060000Y-107871000D02*
X146163000Y-107871000D01*
X150001000Y-107911000D02*
X149140000Y-107911000D01*
X147060000Y-107911000D02*
X146199000Y-107911000D01*
X149964000Y-107951000D02*
X149140000Y-107951000D01*
X147060000Y-107951000D02*
X146236000Y-107951000D01*
X149926000Y-107991000D02*
X149140000Y-107991000D01*
X147060000Y-107991000D02*
X146274000Y-107991000D01*
X149885000Y-108031000D02*
X149140000Y-108031000D01*
X147060000Y-108031000D02*
X146315000Y-108031000D01*
X149843000Y-108071000D02*
X149140000Y-108071000D01*
X147060000Y-108071000D02*
X146357000Y-108071000D01*
X149799000Y-108111000D02*
X149140000Y-108111000D01*
X147060000Y-108111000D02*
X146401000Y-108111000D01*
X149753000Y-108151000D02*
X149140000Y-108151000D01*
X147060000Y-108151000D02*
X146447000Y-108151000D01*
X149705000Y-108191000D02*
X149140000Y-108191000D01*
X147060000Y-108191000D02*
X146495000Y-108191000D01*
X149654000Y-108231000D02*
X149140000Y-108231000D01*
X147060000Y-108231000D02*
X146546000Y-108231000D01*
X149600000Y-108271000D02*
X149140000Y-108271000D01*
X147060000Y-108271000D02*
X146600000Y-108271000D01*
X149543000Y-108311000D02*
X149140000Y-108311000D01*
X147060000Y-108311000D02*
X146657000Y-108311000D01*
X149483000Y-108351000D02*
X149140000Y-108351000D01*
X147060000Y-108351000D02*
X146717000Y-108351000D01*
X149419000Y-108391000D02*
X149140000Y-108391000D01*
X147060000Y-108391000D02*
X146781000Y-108391000D01*
X149351000Y-108431000D02*
X149140000Y-108431000D01*
X147060000Y-108431000D02*
X146849000Y-108431000D01*
X149278000Y-108471000D02*
X146922000Y-108471000D01*
X149198000Y-108511000D02*
X147002000Y-108511000D01*
X149111000Y-108551000D02*
X147089000Y-108551000D01*
X149015000Y-108591000D02*
X147185000Y-108591000D01*
X148905000Y-108631000D02*
X147295000Y-108631000D01*
X148777000Y-108671000D02*
X147423000Y-108671000D01*
X148618000Y-108711000D02*
X147582000Y-108711000D01*
X148384000Y-108751000D02*
X147816000Y-108751000D01*
X150720000Y-106150000D02*
G75*
G03*
X145480000Y-106150000I-2620000J0D01*
G01*
X145480000Y-106150000D02*
G75*
G03*
X150720000Y-106150000I2620000J0D01*
G01*
X145160000Y-87800000D02*
X146180000Y-87800000D01*
X146180000Y-86330000D02*
X146180000Y-89270000D01*
X146180000Y-89270000D02*
X151620000Y-89270000D01*
X146960000Y-86330000D02*
X146960000Y-89270000D01*
X147080000Y-86330000D02*
X147080000Y-89270000D01*
X147200000Y-86330000D02*
X147200000Y-89270000D01*
X151620000Y-86330000D02*
X146180000Y-86330000D01*
X151620000Y-89270000D02*
X151620000Y-86330000D01*
X152640000Y-87800000D02*
X151620000Y-87800000D01*
X142270000Y-102930000D02*
X142270000Y-109470000D01*
X141940000Y-102930000D02*
X142270000Y-102930000D01*
X139860000Y-102930000D02*
X139530000Y-102930000D01*
X139530000Y-102930000D02*
X139530000Y-109470000D01*
X142270000Y-109470000D02*
X141940000Y-109470000D01*
X139530000Y-109470000D02*
X139860000Y-109470000D01*
X146230000Y-96830000D02*
X152770000Y-96830000D01*
X146230000Y-97160000D02*
X146230000Y-96830000D01*
X146230000Y-99240000D02*
X146230000Y-99570000D01*
X146230000Y-99570000D02*
X152770000Y-99570000D01*
X152770000Y-96830000D02*
X152770000Y-97160000D01*
X152770000Y-99570000D02*
X152770000Y-99240000D01*
X144370000Y-91130000D02*
X144370000Y-97670000D01*
X144040000Y-91130000D02*
X144370000Y-91130000D01*
X141960000Y-91130000D02*
X141630000Y-91130000D01*
X141630000Y-91130000D02*
X141630000Y-97670000D01*
X144370000Y-97670000D02*
X144040000Y-97670000D01*
X141630000Y-97670000D02*
X141960000Y-97670000D01*
X160970000Y-94290000D02*
X160970000Y-112130000D01*
X160970000Y-94290000D02*
X163630000Y-94290000D01*
X160970000Y-112130000D02*
X163630000Y-112130000D01*
X162300000Y-91690000D02*
X163630000Y-91690000D01*
X163630000Y-91690000D02*
X163630000Y-93020000D01*
X163630000Y-94290000D02*
X163630000Y-112130000D01*
X142059875Y-115375000D02*
X141559875Y-115375000D01*
X141809875Y-115625000D02*
X141809875Y-115125000D01*
X139255100Y-116480000D02*
X139255100Y-111320000D01*
X139215100Y-116480000D02*
X139215100Y-111320000D01*
X139175100Y-116479000D02*
X139175100Y-111321000D01*
X139135100Y-116478000D02*
X139135100Y-111322000D01*
X139095100Y-116476000D02*
X139095100Y-111324000D01*
X139055100Y-116473000D02*
X139055100Y-111327000D01*
X139015100Y-116469000D02*
X139015100Y-114940000D01*
X139015100Y-112860000D02*
X139015100Y-111331000D01*
X138975100Y-116465000D02*
X138975100Y-114940000D01*
X138975100Y-112860000D02*
X138975100Y-111335000D01*
X138935100Y-116461000D02*
X138935100Y-114940000D01*
X138935100Y-112860000D02*
X138935100Y-111339000D01*
X138895100Y-116456000D02*
X138895100Y-114940000D01*
X138895100Y-112860000D02*
X138895100Y-111344000D01*
X138855100Y-116450000D02*
X138855100Y-114940000D01*
X138855100Y-112860000D02*
X138855100Y-111350000D01*
X138815100Y-116443000D02*
X138815100Y-114940000D01*
X138815100Y-112860000D02*
X138815100Y-111357000D01*
X138775100Y-116436000D02*
X138775100Y-114940000D01*
X138775100Y-112860000D02*
X138775100Y-111364000D01*
X138735100Y-116428000D02*
X138735100Y-114940000D01*
X138735100Y-112860000D02*
X138735100Y-111372000D01*
X138695100Y-116420000D02*
X138695100Y-114940000D01*
X138695100Y-112860000D02*
X138695100Y-111380000D01*
X138655100Y-116411000D02*
X138655100Y-114940000D01*
X138655100Y-112860000D02*
X138655100Y-111389000D01*
X138615100Y-116401000D02*
X138615100Y-114940000D01*
X138615100Y-112860000D02*
X138615100Y-111399000D01*
X138575100Y-116391000D02*
X138575100Y-114940000D01*
X138575100Y-112860000D02*
X138575100Y-111409000D01*
X138534100Y-116380000D02*
X138534100Y-114940000D01*
X138534100Y-112860000D02*
X138534100Y-111420000D01*
X138494100Y-116368000D02*
X138494100Y-114940000D01*
X138494100Y-112860000D02*
X138494100Y-111432000D01*
X138454100Y-116355000D02*
X138454100Y-114940000D01*
X138454100Y-112860000D02*
X138454100Y-111445000D01*
X138414100Y-116342000D02*
X138414100Y-114940000D01*
X138414100Y-112860000D02*
X138414100Y-111458000D01*
X138374100Y-116328000D02*
X138374100Y-114940000D01*
X138374100Y-112860000D02*
X138374100Y-111472000D01*
X138334100Y-116314000D02*
X138334100Y-114940000D01*
X138334100Y-112860000D02*
X138334100Y-111486000D01*
X138294100Y-116298000D02*
X138294100Y-114940000D01*
X138294100Y-112860000D02*
X138294100Y-111502000D01*
X138254100Y-116282000D02*
X138254100Y-114940000D01*
X138254100Y-112860000D02*
X138254100Y-111518000D01*
X138214100Y-116265000D02*
X138214100Y-114940000D01*
X138214100Y-112860000D02*
X138214100Y-111535000D01*
X138174100Y-116248000D02*
X138174100Y-114940000D01*
X138174100Y-112860000D02*
X138174100Y-111552000D01*
X138134100Y-116229000D02*
X138134100Y-114940000D01*
X138134100Y-112860000D02*
X138134100Y-111571000D01*
X138094100Y-116210000D02*
X138094100Y-114940000D01*
X138094100Y-112860000D02*
X138094100Y-111590000D01*
X138054100Y-116190000D02*
X138054100Y-114940000D01*
X138054100Y-112860000D02*
X138054100Y-111610000D01*
X138014100Y-116168000D02*
X138014100Y-114940000D01*
X138014100Y-112860000D02*
X138014100Y-111632000D01*
X137974100Y-116147000D02*
X137974100Y-114940000D01*
X137974100Y-112860000D02*
X137974100Y-111653000D01*
X137934100Y-116124000D02*
X137934100Y-114940000D01*
X137934100Y-112860000D02*
X137934100Y-111676000D01*
X137894100Y-116100000D02*
X137894100Y-114940000D01*
X137894100Y-112860000D02*
X137894100Y-111700000D01*
X137854100Y-116075000D02*
X137854100Y-114940000D01*
X137854100Y-112860000D02*
X137854100Y-111725000D01*
X137814100Y-116049000D02*
X137814100Y-114940000D01*
X137814100Y-112860000D02*
X137814100Y-111751000D01*
X137774100Y-116022000D02*
X137774100Y-114940000D01*
X137774100Y-112860000D02*
X137774100Y-111778000D01*
X137734100Y-115995000D02*
X137734100Y-114940000D01*
X137734100Y-112860000D02*
X137734100Y-111805000D01*
X137694100Y-115965000D02*
X137694100Y-114940000D01*
X137694100Y-112860000D02*
X137694100Y-111835000D01*
X137654100Y-115935000D02*
X137654100Y-114940000D01*
X137654100Y-112860000D02*
X137654100Y-111865000D01*
X137614100Y-115904000D02*
X137614100Y-114940000D01*
X137614100Y-112860000D02*
X137614100Y-111896000D01*
X137574100Y-115871000D02*
X137574100Y-114940000D01*
X137574100Y-112860000D02*
X137574100Y-111929000D01*
X137534100Y-115837000D02*
X137534100Y-114940000D01*
X137534100Y-112860000D02*
X137534100Y-111963000D01*
X137494100Y-115801000D02*
X137494100Y-114940000D01*
X137494100Y-112860000D02*
X137494100Y-111999000D01*
X137454100Y-115764000D02*
X137454100Y-114940000D01*
X137454100Y-112860000D02*
X137454100Y-112036000D01*
X137414100Y-115726000D02*
X137414100Y-114940000D01*
X137414100Y-112860000D02*
X137414100Y-112074000D01*
X137374100Y-115685000D02*
X137374100Y-114940000D01*
X137374100Y-112860000D02*
X137374100Y-112115000D01*
X137334100Y-115643000D02*
X137334100Y-114940000D01*
X137334100Y-112860000D02*
X137334100Y-112157000D01*
X137294100Y-115599000D02*
X137294100Y-114940000D01*
X137294100Y-112860000D02*
X137294100Y-112201000D01*
X137254100Y-115553000D02*
X137254100Y-114940000D01*
X137254100Y-112860000D02*
X137254100Y-112247000D01*
X137214100Y-115505000D02*
X137214100Y-114940000D01*
X137214100Y-112860000D02*
X137214100Y-112295000D01*
X137174100Y-115454000D02*
X137174100Y-114940000D01*
X137174100Y-112860000D02*
X137174100Y-112346000D01*
X137134100Y-115400000D02*
X137134100Y-114940000D01*
X137134100Y-112860000D02*
X137134100Y-112400000D01*
X137094100Y-115343000D02*
X137094100Y-114940000D01*
X137094100Y-112860000D02*
X137094100Y-112457000D01*
X137054100Y-115283000D02*
X137054100Y-114940000D01*
X137054100Y-112860000D02*
X137054100Y-112517000D01*
X137014100Y-115219000D02*
X137014100Y-114940000D01*
X137014100Y-112860000D02*
X137014100Y-112581000D01*
X136974100Y-115151000D02*
X136974100Y-114940000D01*
X136974100Y-112860000D02*
X136974100Y-112649000D01*
X136934100Y-115078000D02*
X136934100Y-112722000D01*
X136894100Y-114998000D02*
X136894100Y-112802000D01*
X136854100Y-114911000D02*
X136854100Y-112889000D01*
X136814100Y-114815000D02*
X136814100Y-112985000D01*
X136774100Y-114705000D02*
X136774100Y-113095000D01*
X136734100Y-114577000D02*
X136734100Y-113223000D01*
X136694100Y-114418000D02*
X136694100Y-113382000D01*
X136654100Y-114184000D02*
X136654100Y-113616000D01*
X141875100Y-113900000D02*
G75*
G03*
X136635100Y-113900000I-2620000J0D01*
G01*
X136635100Y-113900000D02*
G75*
G03*
X141875100Y-113900000I2620000J0D01*
G01*
X145560000Y-101600000D02*
X146580000Y-101600000D01*
X146580000Y-100130000D02*
X146580000Y-103070000D01*
X146580000Y-103070000D02*
X152020000Y-103070000D01*
X147360000Y-100130000D02*
X147360000Y-103070000D01*
X147480000Y-100130000D02*
X147480000Y-103070000D01*
X147600000Y-100130000D02*
X147600000Y-103070000D01*
X152020000Y-100130000D02*
X146580000Y-100130000D01*
X152020000Y-103070000D02*
X152020000Y-100130000D01*
X153040000Y-101600000D02*
X152020000Y-101600000D01*
X144130000Y-113330000D02*
X150670000Y-113330000D01*
X144130000Y-113660000D02*
X144130000Y-113330000D01*
X144130000Y-115740000D02*
X144130000Y-116070000D01*
X144130000Y-116070000D02*
X150670000Y-116070000D01*
X150670000Y-113330000D02*
X150670000Y-113660000D01*
X150670000Y-116070000D02*
X150670000Y-115740000D01*
%LPC*%
D14*
X130100000Y-103225000D03*
D15*
X130100000Y-100685000D03*
D16*
X136300000Y-96400000D03*
D17*
X133800000Y-96400000D03*
X139800000Y-98200000D03*
D18*
X139800000Y-90580000D03*
D14*
X130050000Y-110450000D03*
D15*
X130050000Y-112990000D03*
X130050000Y-115530000D03*
D17*
X143590000Y-110500000D03*
D18*
X151210000Y-110500000D03*
D14*
X130150000Y-92625000D03*
D15*
X130150000Y-90085000D03*
X130150000Y-87545000D03*
D19*
X136025001Y-108071700D03*
X136674999Y-108071700D03*
X137325001Y-108071700D03*
X137974999Y-108071700D03*
X137974999Y-103728300D03*
X137325001Y-103728300D03*
X136674999Y-103728300D03*
X136025001Y-103728300D03*
D20*
X154000000Y-115480000D03*
D21*
X154000000Y-105320000D03*
D16*
X148700000Y-94400000D03*
D17*
X148700000Y-91900000D03*
D20*
X157100000Y-98180000D03*
D21*
X157100000Y-88020000D03*
D16*
X148100000Y-104900000D03*
D17*
X148100000Y-107400000D03*
D20*
X143820000Y-87800000D03*
D21*
X153980000Y-87800000D03*
D17*
X140900000Y-102390000D03*
D18*
X140900000Y-110010000D03*
D17*
X145690000Y-98200000D03*
D18*
X153310000Y-98200000D03*
D17*
X143000000Y-90590000D03*
D18*
X143000000Y-98210000D03*
D14*
X162300000Y-93020000D03*
D15*
X162300000Y-95560000D03*
X162300000Y-98100000D03*
X162300000Y-100640000D03*
X162300000Y-103180000D03*
X162300000Y-105720000D03*
X162300000Y-108260000D03*
X162300000Y-110800000D03*
D16*
X140505100Y-113900000D03*
D17*
X138005100Y-113900000D03*
D20*
X144220000Y-101600000D03*
D21*
X154380000Y-101600000D03*
D17*
X143590000Y-114700000D03*
D18*
X151210000Y-114700000D03*
%LPD*%
M02*
