G04 #@! TF.GenerationSoftware,KiCad,Pcbnew,7.0.10-7.0.10~ubuntu20.04.1*
G04 #@! TF.CreationDate,2024-06-13T14:39:58-03:00*
G04 #@! TF.ProjectId,Condicionamento_compacto_V01b,436f6e64-6963-4696-9f6e-616d656e746f,rev?*
G04 #@! TF.SameCoordinates,Original*
G04 #@! TF.FileFunction,Legend,Bot*
G04 #@! TF.FilePolarity,Positive*
%FSLAX46Y46*%
G04 Gerber Fmt 4.6, Leading zero omitted, Abs format (unit mm)*
G04 Created by KiCad (PCBNEW 7.0.10-7.0.10~ubuntu20.04.1) date 2024-06-13 14:39:58*
%MOMM*%
%LPD*%
G01*
G04 APERTURE LIST*
%ADD10C,0.150000*%
%ADD11R,1.700000X1.700000*%
%ADD12O,1.700000X1.700000*%
%ADD13R,1.600000X1.600000*%
%ADD14C,1.600000*%
%ADD15O,1.600000X1.600000*%
%ADD16R,2.200000X2.200000*%
%ADD17O,2.200000X2.200000*%
G04 APERTURE END LIST*
D10*
X135649228Y-101312969D02*
X135577800Y-101241541D01*
X135577800Y-101241541D02*
X135506371Y-101027255D01*
X135506371Y-101027255D02*
X135506371Y-100884398D01*
X135506371Y-100884398D02*
X135577800Y-100670112D01*
X135577800Y-100670112D02*
X135720657Y-100527255D01*
X135720657Y-100527255D02*
X135863514Y-100455826D01*
X135863514Y-100455826D02*
X136149228Y-100384398D01*
X136149228Y-100384398D02*
X136363514Y-100384398D01*
X136363514Y-100384398D02*
X136649228Y-100455826D01*
X136649228Y-100455826D02*
X136792085Y-100527255D01*
X136792085Y-100527255D02*
X136934942Y-100670112D01*
X136934942Y-100670112D02*
X137006371Y-100884398D01*
X137006371Y-100884398D02*
X137006371Y-101027255D01*
X137006371Y-101027255D02*
X136934942Y-101241541D01*
X136934942Y-101241541D02*
X136863514Y-101312969D01*
X135577800Y-101884398D02*
X135506371Y-102098684D01*
X135506371Y-102098684D02*
X135506371Y-102455826D01*
X135506371Y-102455826D02*
X135577800Y-102598684D01*
X135577800Y-102598684D02*
X135649228Y-102670112D01*
X135649228Y-102670112D02*
X135792085Y-102741541D01*
X135792085Y-102741541D02*
X135934942Y-102741541D01*
X135934942Y-102741541D02*
X136077800Y-102670112D01*
X136077800Y-102670112D02*
X136149228Y-102598684D01*
X136149228Y-102598684D02*
X136220657Y-102455826D01*
X136220657Y-102455826D02*
X136292085Y-102170112D01*
X136292085Y-102170112D02*
X136363514Y-102027255D01*
X136363514Y-102027255D02*
X136434942Y-101955826D01*
X136434942Y-101955826D02*
X136577800Y-101884398D01*
X136577800Y-101884398D02*
X136720657Y-101884398D01*
X136720657Y-101884398D02*
X136863514Y-101955826D01*
X136863514Y-101955826D02*
X136934942Y-102027255D01*
X136934942Y-102027255D02*
X137006371Y-102170112D01*
X137006371Y-102170112D02*
X137006371Y-102527255D01*
X137006371Y-102527255D02*
X136934942Y-102741541D01*
X136077800Y-103384397D02*
X136077800Y-104527255D01*
X135649228Y-106098683D02*
X135577800Y-106027255D01*
X135577800Y-106027255D02*
X135506371Y-105812969D01*
X135506371Y-105812969D02*
X135506371Y-105670112D01*
X135506371Y-105670112D02*
X135577800Y-105455826D01*
X135577800Y-105455826D02*
X135720657Y-105312969D01*
X135720657Y-105312969D02*
X135863514Y-105241540D01*
X135863514Y-105241540D02*
X136149228Y-105170112D01*
X136149228Y-105170112D02*
X136363514Y-105170112D01*
X136363514Y-105170112D02*
X136649228Y-105241540D01*
X136649228Y-105241540D02*
X136792085Y-105312969D01*
X136792085Y-105312969D02*
X136934942Y-105455826D01*
X136934942Y-105455826D02*
X137006371Y-105670112D01*
X137006371Y-105670112D02*
X137006371Y-105812969D01*
X137006371Y-105812969D02*
X136934942Y-106027255D01*
X136934942Y-106027255D02*
X136863514Y-106098683D01*
X135506371Y-106955826D02*
X135577800Y-106812969D01*
X135577800Y-106812969D02*
X135649228Y-106741540D01*
X135649228Y-106741540D02*
X135792085Y-106670112D01*
X135792085Y-106670112D02*
X136220657Y-106670112D01*
X136220657Y-106670112D02*
X136363514Y-106741540D01*
X136363514Y-106741540D02*
X136434942Y-106812969D01*
X136434942Y-106812969D02*
X136506371Y-106955826D01*
X136506371Y-106955826D02*
X136506371Y-107170112D01*
X136506371Y-107170112D02*
X136434942Y-107312969D01*
X136434942Y-107312969D02*
X136363514Y-107384398D01*
X136363514Y-107384398D02*
X136220657Y-107455826D01*
X136220657Y-107455826D02*
X135792085Y-107455826D01*
X135792085Y-107455826D02*
X135649228Y-107384398D01*
X135649228Y-107384398D02*
X135577800Y-107312969D01*
X135577800Y-107312969D02*
X135506371Y-107170112D01*
X135506371Y-107170112D02*
X135506371Y-106955826D01*
X135506371Y-108098683D02*
X136506371Y-108098683D01*
X136363514Y-108098683D02*
X136434942Y-108170112D01*
X136434942Y-108170112D02*
X136506371Y-108312969D01*
X136506371Y-108312969D02*
X136506371Y-108527255D01*
X136506371Y-108527255D02*
X136434942Y-108670112D01*
X136434942Y-108670112D02*
X136292085Y-108741541D01*
X136292085Y-108741541D02*
X135506371Y-108741541D01*
X136292085Y-108741541D02*
X136434942Y-108812969D01*
X136434942Y-108812969D02*
X136506371Y-108955826D01*
X136506371Y-108955826D02*
X136506371Y-109170112D01*
X136506371Y-109170112D02*
X136434942Y-109312969D01*
X136434942Y-109312969D02*
X136292085Y-109384398D01*
X136292085Y-109384398D02*
X135506371Y-109384398D01*
X136506371Y-110098683D02*
X135006371Y-110098683D01*
X136434942Y-110098683D02*
X136506371Y-110241541D01*
X136506371Y-110241541D02*
X136506371Y-110527255D01*
X136506371Y-110527255D02*
X136434942Y-110670112D01*
X136434942Y-110670112D02*
X136363514Y-110741541D01*
X136363514Y-110741541D02*
X136220657Y-110812969D01*
X136220657Y-110812969D02*
X135792085Y-110812969D01*
X135792085Y-110812969D02*
X135649228Y-110741541D01*
X135649228Y-110741541D02*
X135577800Y-110670112D01*
X135577800Y-110670112D02*
X135506371Y-110527255D01*
X135506371Y-110527255D02*
X135506371Y-110241541D01*
X135506371Y-110241541D02*
X135577800Y-110098683D01*
X135506371Y-112098684D02*
X136292085Y-112098684D01*
X136292085Y-112098684D02*
X136434942Y-112027255D01*
X136434942Y-112027255D02*
X136506371Y-111884398D01*
X136506371Y-111884398D02*
X136506371Y-111598684D01*
X136506371Y-111598684D02*
X136434942Y-111455826D01*
X135577800Y-112098684D02*
X135506371Y-111955826D01*
X135506371Y-111955826D02*
X135506371Y-111598684D01*
X135506371Y-111598684D02*
X135577800Y-111455826D01*
X135577800Y-111455826D02*
X135720657Y-111384398D01*
X135720657Y-111384398D02*
X135863514Y-111384398D01*
X135863514Y-111384398D02*
X136006371Y-111455826D01*
X136006371Y-111455826D02*
X136077800Y-111598684D01*
X136077800Y-111598684D02*
X136077800Y-111955826D01*
X136077800Y-111955826D02*
X136149228Y-112098684D01*
X135577800Y-113455827D02*
X135506371Y-113312969D01*
X135506371Y-113312969D02*
X135506371Y-113027255D01*
X135506371Y-113027255D02*
X135577800Y-112884398D01*
X135577800Y-112884398D02*
X135649228Y-112812969D01*
X135649228Y-112812969D02*
X135792085Y-112741541D01*
X135792085Y-112741541D02*
X136220657Y-112741541D01*
X136220657Y-112741541D02*
X136363514Y-112812969D01*
X136363514Y-112812969D02*
X136434942Y-112884398D01*
X136434942Y-112884398D02*
X136506371Y-113027255D01*
X136506371Y-113027255D02*
X136506371Y-113312969D01*
X136506371Y-113312969D02*
X136434942Y-113455827D01*
X134591371Y-100241541D02*
X133091371Y-100741541D01*
X133091371Y-100741541D02*
X134591371Y-101241541D01*
X134591371Y-102027255D02*
X134591371Y-102170112D01*
X134591371Y-102170112D02*
X134519942Y-102312969D01*
X134519942Y-102312969D02*
X134448514Y-102384398D01*
X134448514Y-102384398D02*
X134305657Y-102455826D01*
X134305657Y-102455826D02*
X134019942Y-102527255D01*
X134019942Y-102527255D02*
X133662800Y-102527255D01*
X133662800Y-102527255D02*
X133377085Y-102455826D01*
X133377085Y-102455826D02*
X133234228Y-102384398D01*
X133234228Y-102384398D02*
X133162800Y-102312969D01*
X133162800Y-102312969D02*
X133091371Y-102170112D01*
X133091371Y-102170112D02*
X133091371Y-102027255D01*
X133091371Y-102027255D02*
X133162800Y-101884398D01*
X133162800Y-101884398D02*
X133234228Y-101812969D01*
X133234228Y-101812969D02*
X133377085Y-101741540D01*
X133377085Y-101741540D02*
X133662800Y-101670112D01*
X133662800Y-101670112D02*
X134019942Y-101670112D01*
X134019942Y-101670112D02*
X134305657Y-101741540D01*
X134305657Y-101741540D02*
X134448514Y-101812969D01*
X134448514Y-101812969D02*
X134519942Y-101884398D01*
X134519942Y-101884398D02*
X134591371Y-102027255D01*
X133091371Y-103955826D02*
X133091371Y-103098683D01*
X133091371Y-103527254D02*
X134591371Y-103527254D01*
X134591371Y-103527254D02*
X134377085Y-103384397D01*
X134377085Y-103384397D02*
X134234228Y-103241540D01*
X134234228Y-103241540D02*
X134162800Y-103098683D01*
X133091371Y-104598682D02*
X134591371Y-104598682D01*
X134019942Y-104598682D02*
X134091371Y-104741540D01*
X134091371Y-104741540D02*
X134091371Y-105027254D01*
X134091371Y-105027254D02*
X134019942Y-105170111D01*
X134019942Y-105170111D02*
X133948514Y-105241540D01*
X133948514Y-105241540D02*
X133805657Y-105312968D01*
X133805657Y-105312968D02*
X133377085Y-105312968D01*
X133377085Y-105312968D02*
X133234228Y-105241540D01*
X133234228Y-105241540D02*
X133162800Y-105170111D01*
X133162800Y-105170111D02*
X133091371Y-105027254D01*
X133091371Y-105027254D02*
X133091371Y-104741540D01*
X133091371Y-104741540D02*
X133162800Y-104598682D01*
X133662800Y-105955825D02*
X133662800Y-107098683D01*
X134448514Y-107741540D02*
X134519942Y-107812968D01*
X134519942Y-107812968D02*
X134591371Y-107955826D01*
X134591371Y-107955826D02*
X134591371Y-108312968D01*
X134591371Y-108312968D02*
X134519942Y-108455826D01*
X134519942Y-108455826D02*
X134448514Y-108527254D01*
X134448514Y-108527254D02*
X134305657Y-108598683D01*
X134305657Y-108598683D02*
X134162800Y-108598683D01*
X134162800Y-108598683D02*
X133948514Y-108527254D01*
X133948514Y-108527254D02*
X133091371Y-107670111D01*
X133091371Y-107670111D02*
X133091371Y-108598683D01*
X134591371Y-109527254D02*
X134591371Y-109670111D01*
X134591371Y-109670111D02*
X134519942Y-109812968D01*
X134519942Y-109812968D02*
X134448514Y-109884397D01*
X134448514Y-109884397D02*
X134305657Y-109955825D01*
X134305657Y-109955825D02*
X134019942Y-110027254D01*
X134019942Y-110027254D02*
X133662800Y-110027254D01*
X133662800Y-110027254D02*
X133377085Y-109955825D01*
X133377085Y-109955825D02*
X133234228Y-109884397D01*
X133234228Y-109884397D02*
X133162800Y-109812968D01*
X133162800Y-109812968D02*
X133091371Y-109670111D01*
X133091371Y-109670111D02*
X133091371Y-109527254D01*
X133091371Y-109527254D02*
X133162800Y-109384397D01*
X133162800Y-109384397D02*
X133234228Y-109312968D01*
X133234228Y-109312968D02*
X133377085Y-109241539D01*
X133377085Y-109241539D02*
X133662800Y-109170111D01*
X133662800Y-109170111D02*
X134019942Y-109170111D01*
X134019942Y-109170111D02*
X134305657Y-109241539D01*
X134305657Y-109241539D02*
X134448514Y-109312968D01*
X134448514Y-109312968D02*
X134519942Y-109384397D01*
X134519942Y-109384397D02*
X134591371Y-109527254D01*
X134448514Y-110598682D02*
X134519942Y-110670110D01*
X134519942Y-110670110D02*
X134591371Y-110812968D01*
X134591371Y-110812968D02*
X134591371Y-111170110D01*
X134591371Y-111170110D02*
X134519942Y-111312968D01*
X134519942Y-111312968D02*
X134448514Y-111384396D01*
X134448514Y-111384396D02*
X134305657Y-111455825D01*
X134305657Y-111455825D02*
X134162800Y-111455825D01*
X134162800Y-111455825D02*
X133948514Y-111384396D01*
X133948514Y-111384396D02*
X133091371Y-110527253D01*
X133091371Y-110527253D02*
X133091371Y-111455825D01*
X134091371Y-112741539D02*
X133091371Y-112741539D01*
X134662800Y-112384396D02*
X133591371Y-112027253D01*
X133591371Y-112027253D02*
X133591371Y-112955824D01*
X164631009Y-103319047D02*
X164631009Y-102985714D01*
X165154819Y-102842857D02*
X165154819Y-103319047D01*
X165154819Y-103319047D02*
X164154819Y-103319047D01*
X164154819Y-103319047D02*
X164154819Y-102842857D01*
X164488152Y-102414285D02*
X165154819Y-102414285D01*
X164583390Y-102414285D02*
X164535771Y-102366666D01*
X164535771Y-102366666D02*
X164488152Y-102271428D01*
X164488152Y-102271428D02*
X164488152Y-102128571D01*
X164488152Y-102128571D02*
X164535771Y-102033333D01*
X164535771Y-102033333D02*
X164631009Y-101985714D01*
X164631009Y-101985714D02*
X165154819Y-101985714D01*
X164488152Y-101652380D02*
X164488152Y-101271428D01*
X164154819Y-101509523D02*
X165011961Y-101509523D01*
X165011961Y-101509523D02*
X165107200Y-101461904D01*
X165107200Y-101461904D02*
X165154819Y-101366666D01*
X165154819Y-101366666D02*
X165154819Y-101271428D01*
X165154819Y-100938094D02*
X164488152Y-100938094D01*
X164678628Y-100938094D02*
X164583390Y-100890475D01*
X164583390Y-100890475D02*
X164535771Y-100842856D01*
X164535771Y-100842856D02*
X164488152Y-100747618D01*
X164488152Y-100747618D02*
X164488152Y-100652380D01*
X165154819Y-99890475D02*
X164631009Y-99890475D01*
X164631009Y-99890475D02*
X164535771Y-99938094D01*
X164535771Y-99938094D02*
X164488152Y-100033332D01*
X164488152Y-100033332D02*
X164488152Y-100223808D01*
X164488152Y-100223808D02*
X164535771Y-100319046D01*
X165107200Y-99890475D02*
X165154819Y-99985713D01*
X165154819Y-99985713D02*
X165154819Y-100223808D01*
X165154819Y-100223808D02*
X165107200Y-100319046D01*
X165107200Y-100319046D02*
X165011961Y-100366665D01*
X165011961Y-100366665D02*
X164916723Y-100366665D01*
X164916723Y-100366665D02*
X164821485Y-100319046D01*
X164821485Y-100319046D02*
X164773866Y-100223808D01*
X164773866Y-100223808D02*
X164773866Y-99985713D01*
X164773866Y-99985713D02*
X164726247Y-99890475D01*
X165154819Y-98985713D02*
X164154819Y-98985713D01*
X165107200Y-98985713D02*
X165154819Y-99080951D01*
X165154819Y-99080951D02*
X165154819Y-99271427D01*
X165154819Y-99271427D02*
X165107200Y-99366665D01*
X165107200Y-99366665D02*
X165059580Y-99414284D01*
X165059580Y-99414284D02*
X164964342Y-99461903D01*
X164964342Y-99461903D02*
X164678628Y-99461903D01*
X164678628Y-99461903D02*
X164583390Y-99414284D01*
X164583390Y-99414284D02*
X164535771Y-99366665D01*
X164535771Y-99366665D02*
X164488152Y-99271427D01*
X164488152Y-99271427D02*
X164488152Y-99080951D01*
X164488152Y-99080951D02*
X164535771Y-98985713D01*
X165154819Y-98080951D02*
X164631009Y-98080951D01*
X164631009Y-98080951D02*
X164535771Y-98128570D01*
X164535771Y-98128570D02*
X164488152Y-98223808D01*
X164488152Y-98223808D02*
X164488152Y-98414284D01*
X164488152Y-98414284D02*
X164535771Y-98509522D01*
X165107200Y-98080951D02*
X165154819Y-98176189D01*
X165154819Y-98176189D02*
X165154819Y-98414284D01*
X165154819Y-98414284D02*
X165107200Y-98509522D01*
X165107200Y-98509522D02*
X165011961Y-98557141D01*
X165011961Y-98557141D02*
X164916723Y-98557141D01*
X164916723Y-98557141D02*
X164821485Y-98509522D01*
X164821485Y-98509522D02*
X164773866Y-98414284D01*
X164773866Y-98414284D02*
X164773866Y-98176189D01*
X164773866Y-98176189D02*
X164726247Y-98080951D01*
X128159580Y-103490476D02*
X128207200Y-103538095D01*
X128207200Y-103538095D02*
X128254819Y-103680952D01*
X128254819Y-103680952D02*
X128254819Y-103776190D01*
X128254819Y-103776190D02*
X128207200Y-103919047D01*
X128207200Y-103919047D02*
X128111961Y-104014285D01*
X128111961Y-104014285D02*
X128016723Y-104061904D01*
X128016723Y-104061904D02*
X127826247Y-104109523D01*
X127826247Y-104109523D02*
X127683390Y-104109523D01*
X127683390Y-104109523D02*
X127492914Y-104061904D01*
X127492914Y-104061904D02*
X127397676Y-104014285D01*
X127397676Y-104014285D02*
X127302438Y-103919047D01*
X127302438Y-103919047D02*
X127254819Y-103776190D01*
X127254819Y-103776190D02*
X127254819Y-103680952D01*
X127254819Y-103680952D02*
X127302438Y-103538095D01*
X127302438Y-103538095D02*
X127350057Y-103490476D01*
X128254819Y-102633333D02*
X127731009Y-102633333D01*
X127731009Y-102633333D02*
X127635771Y-102680952D01*
X127635771Y-102680952D02*
X127588152Y-102776190D01*
X127588152Y-102776190D02*
X127588152Y-102966666D01*
X127588152Y-102966666D02*
X127635771Y-103061904D01*
X128207200Y-102633333D02*
X128254819Y-102728571D01*
X128254819Y-102728571D02*
X128254819Y-102966666D01*
X128254819Y-102966666D02*
X128207200Y-103061904D01*
X128207200Y-103061904D02*
X128111961Y-103109523D01*
X128111961Y-103109523D02*
X128016723Y-103109523D01*
X128016723Y-103109523D02*
X127921485Y-103061904D01*
X127921485Y-103061904D02*
X127873866Y-102966666D01*
X127873866Y-102966666D02*
X127873866Y-102728571D01*
X127873866Y-102728571D02*
X127826247Y-102633333D01*
X127588152Y-102157142D02*
X128254819Y-102157142D01*
X127683390Y-102157142D02*
X127635771Y-102109523D01*
X127635771Y-102109523D02*
X127588152Y-102014285D01*
X127588152Y-102014285D02*
X127588152Y-101871428D01*
X127588152Y-101871428D02*
X127635771Y-101776190D01*
X127635771Y-101776190D02*
X127731009Y-101728571D01*
X127731009Y-101728571D02*
X128254819Y-101728571D01*
X128254819Y-100823809D02*
X127731009Y-100823809D01*
X127731009Y-100823809D02*
X127635771Y-100871428D01*
X127635771Y-100871428D02*
X127588152Y-100966666D01*
X127588152Y-100966666D02*
X127588152Y-101157142D01*
X127588152Y-101157142D02*
X127635771Y-101252380D01*
X128207200Y-100823809D02*
X128254819Y-100919047D01*
X128254819Y-100919047D02*
X128254819Y-101157142D01*
X128254819Y-101157142D02*
X128207200Y-101252380D01*
X128207200Y-101252380D02*
X128111961Y-101299999D01*
X128111961Y-101299999D02*
X128016723Y-101299999D01*
X128016723Y-101299999D02*
X127921485Y-101252380D01*
X127921485Y-101252380D02*
X127873866Y-101157142D01*
X127873866Y-101157142D02*
X127873866Y-100919047D01*
X127873866Y-100919047D02*
X127826247Y-100823809D01*
X128254819Y-100347618D02*
X127588152Y-100347618D01*
X127254819Y-100347618D02*
X127302438Y-100395237D01*
X127302438Y-100395237D02*
X127350057Y-100347618D01*
X127350057Y-100347618D02*
X127302438Y-100299999D01*
X127302438Y-100299999D02*
X127254819Y-100347618D01*
X127254819Y-100347618D02*
X127350057Y-100347618D01*
X128207200Y-99919047D02*
X128254819Y-99823809D01*
X128254819Y-99823809D02*
X128254819Y-99633333D01*
X128254819Y-99633333D02*
X128207200Y-99538095D01*
X128207200Y-99538095D02*
X128111961Y-99490476D01*
X128111961Y-99490476D02*
X128064342Y-99490476D01*
X128064342Y-99490476D02*
X127969104Y-99538095D01*
X127969104Y-99538095D02*
X127921485Y-99633333D01*
X127921485Y-99633333D02*
X127921485Y-99776190D01*
X127921485Y-99776190D02*
X127873866Y-99871428D01*
X127873866Y-99871428D02*
X127778628Y-99919047D01*
X127778628Y-99919047D02*
X127731009Y-99919047D01*
X127731009Y-99919047D02*
X127635771Y-99871428D01*
X127635771Y-99871428D02*
X127588152Y-99776190D01*
X127588152Y-99776190D02*
X127588152Y-99633333D01*
X127588152Y-99633333D02*
X127635771Y-99538095D01*
%LPC*%
D11*
X130100000Y-103225000D03*
D12*
X130100000Y-100685000D03*
D13*
X136300000Y-96400000D03*
D14*
X133800000Y-96400000D03*
X139800000Y-98200000D03*
D15*
X139800000Y-90580000D03*
D11*
X130050000Y-110450000D03*
D12*
X130050000Y-112990000D03*
X130050000Y-115530000D03*
D14*
X143590000Y-110500000D03*
D15*
X151210000Y-110500000D03*
D11*
X130150000Y-92625000D03*
D12*
X130150000Y-90085000D03*
X130150000Y-87545000D03*
D16*
X154000000Y-115480000D03*
D17*
X154000000Y-105320000D03*
D13*
X148700000Y-94400000D03*
D14*
X148700000Y-91900000D03*
D16*
X157100000Y-98180000D03*
D17*
X157100000Y-88020000D03*
D13*
X148100000Y-104900000D03*
D14*
X148100000Y-107400000D03*
D16*
X143820000Y-87800000D03*
D17*
X153980000Y-87800000D03*
D14*
X140900000Y-102390000D03*
D15*
X140900000Y-110010000D03*
D14*
X145690000Y-98200000D03*
D15*
X153310000Y-98200000D03*
D14*
X143000000Y-90590000D03*
D15*
X143000000Y-98210000D03*
D11*
X162300000Y-93020000D03*
D12*
X162300000Y-95560000D03*
X162300000Y-98100000D03*
X162300000Y-100640000D03*
X162300000Y-103180000D03*
X162300000Y-105720000D03*
X162300000Y-108260000D03*
X162300000Y-110800000D03*
D13*
X140505100Y-113900000D03*
D14*
X138005100Y-113900000D03*
D16*
X144220000Y-101600000D03*
D17*
X154380000Y-101600000D03*
D14*
X143590000Y-114700000D03*
D15*
X151210000Y-114700000D03*
%LPD*%
M02*
