%TF.GenerationSoftware,KiCad,Pcbnew,7.0.6-7.0.6~ubuntu22.04.1*%
%TF.CreationDate,2023-07-14T22:02:38-03:00*%
%TF.ProjectId,Fonte_corrente_mono,466f6e74-655f-4636-9f72-72656e74655f,v01*%
%TF.SameCoordinates,Original*%
%TF.FileFunction,Copper,L2,Bot*%
%TF.FilePolarity,Positive*%
%FSLAX46Y46*%
G04 Gerber Fmt 4.6, Leading zero omitted, Abs format (unit mm)*
G04 Created by KiCad (PCBNEW 7.0.6-7.0.6~ubuntu22.04.1) date 2023-07-14 22:02:38*
%MOMM*%
%LPD*%
G01*
G04 APERTURE LIST*
%ADD10C,0.300000*%
%TA.AperFunction,NonConductor*%
%ADD11C,0.300000*%
%TD*%
%TA.AperFunction,ComponentPad*%
%ADD12C,2.000000*%
%TD*%
%TA.AperFunction,ComponentPad*%
%ADD13C,2.500000*%
%TD*%
%TA.AperFunction,ComponentPad*%
%ADD14R,2.000000X2.500000*%
%TD*%
%TA.AperFunction,ComponentPad*%
%ADD15R,2.000000X2.000000*%
%TD*%
%TA.AperFunction,ComponentPad*%
%ADD16O,2.000000X2.000000*%
%TD*%
%TA.AperFunction,ComponentPad*%
%ADD17R,2.500000X2.000000*%
%TD*%
%TA.AperFunction,ComponentPad*%
%ADD18R,2.500000X7.000000*%
%TD*%
%TA.AperFunction,ViaPad*%
%ADD19C,2.000000*%
%TD*%
%TA.AperFunction,Conductor*%
%ADD20C,1.270000*%
%TD*%
G04 APERTURE END LIST*
D10*
D11*
X180695489Y-144185114D02*
X181195489Y-144185114D01*
X181195489Y-144970828D02*
X181195489Y-143470828D01*
X181195489Y-143470828D02*
X180481203Y-143470828D01*
X179695489Y-144970828D02*
X179838346Y-144899400D01*
X179838346Y-144899400D02*
X179909775Y-144827971D01*
X179909775Y-144827971D02*
X179981203Y-144685114D01*
X179981203Y-144685114D02*
X179981203Y-144256542D01*
X179981203Y-144256542D02*
X179909775Y-144113685D01*
X179909775Y-144113685D02*
X179838346Y-144042257D01*
X179838346Y-144042257D02*
X179695489Y-143970828D01*
X179695489Y-143970828D02*
X179481203Y-143970828D01*
X179481203Y-143970828D02*
X179338346Y-144042257D01*
X179338346Y-144042257D02*
X179266918Y-144113685D01*
X179266918Y-144113685D02*
X179195489Y-144256542D01*
X179195489Y-144256542D02*
X179195489Y-144685114D01*
X179195489Y-144685114D02*
X179266918Y-144827971D01*
X179266918Y-144827971D02*
X179338346Y-144899400D01*
X179338346Y-144899400D02*
X179481203Y-144970828D01*
X179481203Y-144970828D02*
X179695489Y-144970828D01*
X178552632Y-143970828D02*
X178552632Y-144970828D01*
X178552632Y-144113685D02*
X178481203Y-144042257D01*
X178481203Y-144042257D02*
X178338346Y-143970828D01*
X178338346Y-143970828D02*
X178124060Y-143970828D01*
X178124060Y-143970828D02*
X177981203Y-144042257D01*
X177981203Y-144042257D02*
X177909775Y-144185114D01*
X177909775Y-144185114D02*
X177909775Y-144970828D01*
X177409774Y-143970828D02*
X176838346Y-143970828D01*
X177195489Y-143470828D02*
X177195489Y-144756542D01*
X177195489Y-144756542D02*
X177124060Y-144899400D01*
X177124060Y-144899400D02*
X176981203Y-144970828D01*
X176981203Y-144970828D02*
X176838346Y-144970828D01*
X175766917Y-144899400D02*
X175909774Y-144970828D01*
X175909774Y-144970828D02*
X176195489Y-144970828D01*
X176195489Y-144970828D02*
X176338346Y-144899400D01*
X176338346Y-144899400D02*
X176409774Y-144756542D01*
X176409774Y-144756542D02*
X176409774Y-144185114D01*
X176409774Y-144185114D02*
X176338346Y-144042257D01*
X176338346Y-144042257D02*
X176195489Y-143970828D01*
X176195489Y-143970828D02*
X175909774Y-143970828D01*
X175909774Y-143970828D02*
X175766917Y-144042257D01*
X175766917Y-144042257D02*
X175695489Y-144185114D01*
X175695489Y-144185114D02*
X175695489Y-144327971D01*
X175695489Y-144327971D02*
X176409774Y-144470828D01*
X173266918Y-144970828D02*
X173266918Y-143470828D01*
X173266918Y-144899400D02*
X173409775Y-144970828D01*
X173409775Y-144970828D02*
X173695489Y-144970828D01*
X173695489Y-144970828D02*
X173838346Y-144899400D01*
X173838346Y-144899400D02*
X173909775Y-144827971D01*
X173909775Y-144827971D02*
X173981203Y-144685114D01*
X173981203Y-144685114D02*
X173981203Y-144256542D01*
X173981203Y-144256542D02*
X173909775Y-144113685D01*
X173909775Y-144113685D02*
X173838346Y-144042257D01*
X173838346Y-144042257D02*
X173695489Y-143970828D01*
X173695489Y-143970828D02*
X173409775Y-143970828D01*
X173409775Y-143970828D02*
X173266918Y-144042257D01*
X171981203Y-144899400D02*
X172124060Y-144970828D01*
X172124060Y-144970828D02*
X172409775Y-144970828D01*
X172409775Y-144970828D02*
X172552632Y-144899400D01*
X172552632Y-144899400D02*
X172624060Y-144756542D01*
X172624060Y-144756542D02*
X172624060Y-144185114D01*
X172624060Y-144185114D02*
X172552632Y-144042257D01*
X172552632Y-144042257D02*
X172409775Y-143970828D01*
X172409775Y-143970828D02*
X172124060Y-143970828D01*
X172124060Y-143970828D02*
X171981203Y-144042257D01*
X171981203Y-144042257D02*
X171909775Y-144185114D01*
X171909775Y-144185114D02*
X171909775Y-144327971D01*
X171909775Y-144327971D02*
X172624060Y-144470828D01*
X169481204Y-144899400D02*
X169624061Y-144970828D01*
X169624061Y-144970828D02*
X169909775Y-144970828D01*
X169909775Y-144970828D02*
X170052632Y-144899400D01*
X170052632Y-144899400D02*
X170124061Y-144827971D01*
X170124061Y-144827971D02*
X170195489Y-144685114D01*
X170195489Y-144685114D02*
X170195489Y-144256542D01*
X170195489Y-144256542D02*
X170124061Y-144113685D01*
X170124061Y-144113685D02*
X170052632Y-144042257D01*
X170052632Y-144042257D02*
X169909775Y-143970828D01*
X169909775Y-143970828D02*
X169624061Y-143970828D01*
X169624061Y-143970828D02*
X169481204Y-144042257D01*
X168624061Y-144970828D02*
X168766918Y-144899400D01*
X168766918Y-144899400D02*
X168838347Y-144827971D01*
X168838347Y-144827971D02*
X168909775Y-144685114D01*
X168909775Y-144685114D02*
X168909775Y-144256542D01*
X168909775Y-144256542D02*
X168838347Y-144113685D01*
X168838347Y-144113685D02*
X168766918Y-144042257D01*
X168766918Y-144042257D02*
X168624061Y-143970828D01*
X168624061Y-143970828D02*
X168409775Y-143970828D01*
X168409775Y-143970828D02*
X168266918Y-144042257D01*
X168266918Y-144042257D02*
X168195490Y-144113685D01*
X168195490Y-144113685D02*
X168124061Y-144256542D01*
X168124061Y-144256542D02*
X168124061Y-144685114D01*
X168124061Y-144685114D02*
X168195490Y-144827971D01*
X168195490Y-144827971D02*
X168266918Y-144899400D01*
X168266918Y-144899400D02*
X168409775Y-144970828D01*
X168409775Y-144970828D02*
X168624061Y-144970828D01*
X167481204Y-144970828D02*
X167481204Y-143970828D01*
X167481204Y-144256542D02*
X167409775Y-144113685D01*
X167409775Y-144113685D02*
X167338347Y-144042257D01*
X167338347Y-144042257D02*
X167195489Y-143970828D01*
X167195489Y-143970828D02*
X167052632Y-143970828D01*
X166552633Y-144970828D02*
X166552633Y-143970828D01*
X166552633Y-144256542D02*
X166481204Y-144113685D01*
X166481204Y-144113685D02*
X166409776Y-144042257D01*
X166409776Y-144042257D02*
X166266918Y-143970828D01*
X166266918Y-143970828D02*
X166124061Y-143970828D01*
X165052633Y-144899400D02*
X165195490Y-144970828D01*
X165195490Y-144970828D02*
X165481205Y-144970828D01*
X165481205Y-144970828D02*
X165624062Y-144899400D01*
X165624062Y-144899400D02*
X165695490Y-144756542D01*
X165695490Y-144756542D02*
X165695490Y-144185114D01*
X165695490Y-144185114D02*
X165624062Y-144042257D01*
X165624062Y-144042257D02*
X165481205Y-143970828D01*
X165481205Y-143970828D02*
X165195490Y-143970828D01*
X165195490Y-143970828D02*
X165052633Y-144042257D01*
X165052633Y-144042257D02*
X164981205Y-144185114D01*
X164981205Y-144185114D02*
X164981205Y-144327971D01*
X164981205Y-144327971D02*
X165695490Y-144470828D01*
X164338348Y-143970828D02*
X164338348Y-144970828D01*
X164338348Y-144113685D02*
X164266919Y-144042257D01*
X164266919Y-144042257D02*
X164124062Y-143970828D01*
X164124062Y-143970828D02*
X163909776Y-143970828D01*
X163909776Y-143970828D02*
X163766919Y-144042257D01*
X163766919Y-144042257D02*
X163695491Y-144185114D01*
X163695491Y-144185114D02*
X163695491Y-144970828D01*
X163195490Y-143970828D02*
X162624062Y-143970828D01*
X162981205Y-143470828D02*
X162981205Y-144756542D01*
X162981205Y-144756542D02*
X162909776Y-144899400D01*
X162909776Y-144899400D02*
X162766919Y-144970828D01*
X162766919Y-144970828D02*
X162624062Y-144970828D01*
X161552633Y-144899400D02*
X161695490Y-144970828D01*
X161695490Y-144970828D02*
X161981205Y-144970828D01*
X161981205Y-144970828D02*
X162124062Y-144899400D01*
X162124062Y-144899400D02*
X162195490Y-144756542D01*
X162195490Y-144756542D02*
X162195490Y-144185114D01*
X162195490Y-144185114D02*
X162124062Y-144042257D01*
X162124062Y-144042257D02*
X161981205Y-143970828D01*
X161981205Y-143970828D02*
X161695490Y-143970828D01*
X161695490Y-143970828D02*
X161552633Y-144042257D01*
X161552633Y-144042257D02*
X161481205Y-144185114D01*
X161481205Y-144185114D02*
X161481205Y-144327971D01*
X161481205Y-144327971D02*
X162195490Y-144470828D01*
X159695491Y-144970828D02*
X159695491Y-143970828D01*
X159695491Y-144113685D02*
X159624062Y-144042257D01*
X159624062Y-144042257D02*
X159481205Y-143970828D01*
X159481205Y-143970828D02*
X159266919Y-143970828D01*
X159266919Y-143970828D02*
X159124062Y-144042257D01*
X159124062Y-144042257D02*
X159052634Y-144185114D01*
X159052634Y-144185114D02*
X159052634Y-144970828D01*
X159052634Y-144185114D02*
X158981205Y-144042257D01*
X158981205Y-144042257D02*
X158838348Y-143970828D01*
X158838348Y-143970828D02*
X158624062Y-143970828D01*
X158624062Y-143970828D02*
X158481205Y-144042257D01*
X158481205Y-144042257D02*
X158409776Y-144185114D01*
X158409776Y-144185114D02*
X158409776Y-144970828D01*
X157481205Y-144970828D02*
X157624062Y-144899400D01*
X157624062Y-144899400D02*
X157695491Y-144827971D01*
X157695491Y-144827971D02*
X157766919Y-144685114D01*
X157766919Y-144685114D02*
X157766919Y-144256542D01*
X157766919Y-144256542D02*
X157695491Y-144113685D01*
X157695491Y-144113685D02*
X157624062Y-144042257D01*
X157624062Y-144042257D02*
X157481205Y-143970828D01*
X157481205Y-143970828D02*
X157266919Y-143970828D01*
X157266919Y-143970828D02*
X157124062Y-144042257D01*
X157124062Y-144042257D02*
X157052634Y-144113685D01*
X157052634Y-144113685D02*
X156981205Y-144256542D01*
X156981205Y-144256542D02*
X156981205Y-144685114D01*
X156981205Y-144685114D02*
X157052634Y-144827971D01*
X157052634Y-144827971D02*
X157124062Y-144899400D01*
X157124062Y-144899400D02*
X157266919Y-144970828D01*
X157266919Y-144970828D02*
X157481205Y-144970828D01*
X156338348Y-143970828D02*
X156338348Y-144970828D01*
X156338348Y-144113685D02*
X156266919Y-144042257D01*
X156266919Y-144042257D02*
X156124062Y-143970828D01*
X156124062Y-143970828D02*
X155909776Y-143970828D01*
X155909776Y-143970828D02*
X155766919Y-144042257D01*
X155766919Y-144042257D02*
X155695491Y-144185114D01*
X155695491Y-144185114D02*
X155695491Y-144970828D01*
X154766919Y-144970828D02*
X154909776Y-144899400D01*
X154909776Y-144899400D02*
X154981205Y-144827971D01*
X154981205Y-144827971D02*
X155052633Y-144685114D01*
X155052633Y-144685114D02*
X155052633Y-144256542D01*
X155052633Y-144256542D02*
X154981205Y-144113685D01*
X154981205Y-144113685D02*
X154909776Y-144042257D01*
X154909776Y-144042257D02*
X154766919Y-143970828D01*
X154766919Y-143970828D02*
X154552633Y-143970828D01*
X154552633Y-143970828D02*
X154409776Y-144042257D01*
X154409776Y-144042257D02*
X154338348Y-144113685D01*
X154338348Y-144113685D02*
X154266919Y-144256542D01*
X154266919Y-144256542D02*
X154266919Y-144685114D01*
X154266919Y-144685114D02*
X154338348Y-144827971D01*
X154338348Y-144827971D02*
X154409776Y-144899400D01*
X154409776Y-144899400D02*
X154552633Y-144970828D01*
X154552633Y-144970828D02*
X154766919Y-144970828D01*
X153624062Y-143970828D02*
X153624062Y-145470828D01*
X153624062Y-144042257D02*
X153481205Y-143970828D01*
X153481205Y-143970828D02*
X153195490Y-143970828D01*
X153195490Y-143970828D02*
X153052633Y-144042257D01*
X153052633Y-144042257D02*
X152981205Y-144113685D01*
X152981205Y-144113685D02*
X152909776Y-144256542D01*
X152909776Y-144256542D02*
X152909776Y-144685114D01*
X152909776Y-144685114D02*
X152981205Y-144827971D01*
X152981205Y-144827971D02*
X153052633Y-144899400D01*
X153052633Y-144899400D02*
X153195490Y-144970828D01*
X153195490Y-144970828D02*
X153481205Y-144970828D01*
X153481205Y-144970828D02*
X153624062Y-144899400D01*
X152052633Y-144970828D02*
X152195490Y-144899400D01*
X152195490Y-144899400D02*
X152266919Y-144827971D01*
X152266919Y-144827971D02*
X152338347Y-144685114D01*
X152338347Y-144685114D02*
X152338347Y-144256542D01*
X152338347Y-144256542D02*
X152266919Y-144113685D01*
X152266919Y-144113685D02*
X152195490Y-144042257D01*
X152195490Y-144042257D02*
X152052633Y-143970828D01*
X152052633Y-143970828D02*
X151838347Y-143970828D01*
X151838347Y-143970828D02*
X151695490Y-144042257D01*
X151695490Y-144042257D02*
X151624062Y-144113685D01*
X151624062Y-144113685D02*
X151552633Y-144256542D01*
X151552633Y-144256542D02*
X151552633Y-144685114D01*
X151552633Y-144685114D02*
X151624062Y-144827971D01*
X151624062Y-144827971D02*
X151695490Y-144899400D01*
X151695490Y-144899400D02*
X151838347Y-144970828D01*
X151838347Y-144970828D02*
X152052633Y-144970828D01*
X150695490Y-144970828D02*
X150838347Y-144899400D01*
X150838347Y-144899400D02*
X150909776Y-144756542D01*
X150909776Y-144756542D02*
X150909776Y-143470828D01*
X149481205Y-144970828D02*
X149481205Y-144185114D01*
X149481205Y-144185114D02*
X149552633Y-144042257D01*
X149552633Y-144042257D02*
X149695490Y-143970828D01*
X149695490Y-143970828D02*
X149981205Y-143970828D01*
X149981205Y-143970828D02*
X150124062Y-144042257D01*
X149481205Y-144899400D02*
X149624062Y-144970828D01*
X149624062Y-144970828D02*
X149981205Y-144970828D01*
X149981205Y-144970828D02*
X150124062Y-144899400D01*
X150124062Y-144899400D02*
X150195490Y-144756542D01*
X150195490Y-144756542D02*
X150195490Y-144613685D01*
X150195490Y-144613685D02*
X150124062Y-144470828D01*
X150124062Y-144470828D02*
X149981205Y-144399400D01*
X149981205Y-144399400D02*
X149624062Y-144399400D01*
X149624062Y-144399400D02*
X149481205Y-144327971D01*
X148766919Y-144970828D02*
X148766919Y-143970828D01*
X148766919Y-144256542D02*
X148695490Y-144113685D01*
X148695490Y-144113685D02*
X148624062Y-144042257D01*
X148624062Y-144042257D02*
X148481204Y-143970828D01*
X148481204Y-143970828D02*
X148338347Y-143970828D01*
X181195489Y-147385828D02*
X181195489Y-145885828D01*
X181195489Y-146600114D02*
X180338346Y-146600114D01*
X180338346Y-147385828D02*
X180338346Y-145885828D01*
X179409774Y-147385828D02*
X179552631Y-147314400D01*
X179552631Y-147314400D02*
X179624060Y-147242971D01*
X179624060Y-147242971D02*
X179695488Y-147100114D01*
X179695488Y-147100114D02*
X179695488Y-146671542D01*
X179695488Y-146671542D02*
X179624060Y-146528685D01*
X179624060Y-146528685D02*
X179552631Y-146457257D01*
X179552631Y-146457257D02*
X179409774Y-146385828D01*
X179409774Y-146385828D02*
X179195488Y-146385828D01*
X179195488Y-146385828D02*
X179052631Y-146457257D01*
X179052631Y-146457257D02*
X178981203Y-146528685D01*
X178981203Y-146528685D02*
X178909774Y-146671542D01*
X178909774Y-146671542D02*
X178909774Y-147100114D01*
X178909774Y-147100114D02*
X178981203Y-147242971D01*
X178981203Y-147242971D02*
X179052631Y-147314400D01*
X179052631Y-147314400D02*
X179195488Y-147385828D01*
X179195488Y-147385828D02*
X179409774Y-147385828D01*
X178409774Y-146385828D02*
X178124060Y-147385828D01*
X178124060Y-147385828D02*
X177838345Y-146671542D01*
X177838345Y-146671542D02*
X177552631Y-147385828D01*
X177552631Y-147385828D02*
X177266917Y-146385828D01*
X176481202Y-147385828D02*
X176624059Y-147314400D01*
X176624059Y-147314400D02*
X176695488Y-147171542D01*
X176695488Y-147171542D02*
X176695488Y-145885828D01*
X175266917Y-147385828D02*
X175266917Y-146600114D01*
X175266917Y-146600114D02*
X175338345Y-146457257D01*
X175338345Y-146457257D02*
X175481202Y-146385828D01*
X175481202Y-146385828D02*
X175766917Y-146385828D01*
X175766917Y-146385828D02*
X175909774Y-146457257D01*
X175266917Y-147314400D02*
X175409774Y-147385828D01*
X175409774Y-147385828D02*
X175766917Y-147385828D01*
X175766917Y-147385828D02*
X175909774Y-147314400D01*
X175909774Y-147314400D02*
X175981202Y-147171542D01*
X175981202Y-147171542D02*
X175981202Y-147028685D01*
X175981202Y-147028685D02*
X175909774Y-146885828D01*
X175909774Y-146885828D02*
X175766917Y-146814400D01*
X175766917Y-146814400D02*
X175409774Y-146814400D01*
X175409774Y-146814400D02*
X175266917Y-146742971D01*
X174552631Y-146385828D02*
X174552631Y-147385828D01*
X174552631Y-146528685D02*
X174481202Y-146457257D01*
X174481202Y-146457257D02*
X174338345Y-146385828D01*
X174338345Y-146385828D02*
X174124059Y-146385828D01*
X174124059Y-146385828D02*
X173981202Y-146457257D01*
X173981202Y-146457257D02*
X173909774Y-146600114D01*
X173909774Y-146600114D02*
X173909774Y-147385828D01*
X172552631Y-147385828D02*
X172552631Y-145885828D01*
X172552631Y-147314400D02*
X172695488Y-147385828D01*
X172695488Y-147385828D02*
X172981202Y-147385828D01*
X172981202Y-147385828D02*
X173124059Y-147314400D01*
X173124059Y-147314400D02*
X173195488Y-147242971D01*
X173195488Y-147242971D02*
X173266916Y-147100114D01*
X173266916Y-147100114D02*
X173266916Y-146671542D01*
X173266916Y-146671542D02*
X173195488Y-146528685D01*
X173195488Y-146528685D02*
X173124059Y-146457257D01*
X173124059Y-146457257D02*
X172981202Y-146385828D01*
X172981202Y-146385828D02*
X172695488Y-146385828D01*
X172695488Y-146385828D02*
X172552631Y-146457257D01*
X170052631Y-147385828D02*
X170052631Y-146600114D01*
X170052631Y-146600114D02*
X170124059Y-146457257D01*
X170124059Y-146457257D02*
X170266916Y-146385828D01*
X170266916Y-146385828D02*
X170552631Y-146385828D01*
X170552631Y-146385828D02*
X170695488Y-146457257D01*
X170052631Y-147314400D02*
X170195488Y-147385828D01*
X170195488Y-147385828D02*
X170552631Y-147385828D01*
X170552631Y-147385828D02*
X170695488Y-147314400D01*
X170695488Y-147314400D02*
X170766916Y-147171542D01*
X170766916Y-147171542D02*
X170766916Y-147028685D01*
X170766916Y-147028685D02*
X170695488Y-146885828D01*
X170695488Y-146885828D02*
X170552631Y-146814400D01*
X170552631Y-146814400D02*
X170195488Y-146814400D01*
X170195488Y-146814400D02*
X170052631Y-146742971D01*
X169338345Y-146385828D02*
X169338345Y-147885828D01*
X169338345Y-146457257D02*
X169195488Y-146385828D01*
X169195488Y-146385828D02*
X168909773Y-146385828D01*
X168909773Y-146385828D02*
X168766916Y-146457257D01*
X168766916Y-146457257D02*
X168695488Y-146528685D01*
X168695488Y-146528685D02*
X168624059Y-146671542D01*
X168624059Y-146671542D02*
X168624059Y-147100114D01*
X168624059Y-147100114D02*
X168695488Y-147242971D01*
X168695488Y-147242971D02*
X168766916Y-147314400D01*
X168766916Y-147314400D02*
X168909773Y-147385828D01*
X168909773Y-147385828D02*
X169195488Y-147385828D01*
X169195488Y-147385828D02*
X169338345Y-147314400D01*
X167409773Y-147314400D02*
X167552630Y-147385828D01*
X167552630Y-147385828D02*
X167838345Y-147385828D01*
X167838345Y-147385828D02*
X167981202Y-147314400D01*
X167981202Y-147314400D02*
X168052630Y-147171542D01*
X168052630Y-147171542D02*
X168052630Y-146600114D01*
X168052630Y-146600114D02*
X167981202Y-146457257D01*
X167981202Y-146457257D02*
X167838345Y-146385828D01*
X167838345Y-146385828D02*
X167552630Y-146385828D01*
X167552630Y-146385828D02*
X167409773Y-146457257D01*
X167409773Y-146457257D02*
X167338345Y-146600114D01*
X167338345Y-146600114D02*
X167338345Y-146742971D01*
X167338345Y-146742971D02*
X168052630Y-146885828D01*
X166695488Y-147385828D02*
X166695488Y-146385828D01*
X166695488Y-146671542D02*
X166624059Y-146528685D01*
X166624059Y-146528685D02*
X166552631Y-146457257D01*
X166552631Y-146457257D02*
X166409773Y-146385828D01*
X166409773Y-146385828D02*
X166266916Y-146385828D01*
X165981202Y-146385828D02*
X165409774Y-146385828D01*
X165766917Y-147385828D02*
X165766917Y-146100114D01*
X165766917Y-146100114D02*
X165695488Y-145957257D01*
X165695488Y-145957257D02*
X165552631Y-145885828D01*
X165552631Y-145885828D02*
X165409774Y-145885828D01*
X164338345Y-147314400D02*
X164481202Y-147385828D01*
X164481202Y-147385828D02*
X164766917Y-147385828D01*
X164766917Y-147385828D02*
X164909774Y-147314400D01*
X164909774Y-147314400D02*
X164981202Y-147171542D01*
X164981202Y-147171542D02*
X164981202Y-146600114D01*
X164981202Y-146600114D02*
X164909774Y-146457257D01*
X164909774Y-146457257D02*
X164766917Y-146385828D01*
X164766917Y-146385828D02*
X164481202Y-146385828D01*
X164481202Y-146385828D02*
X164338345Y-146457257D01*
X164338345Y-146457257D02*
X164266917Y-146600114D01*
X164266917Y-146600114D02*
X164266917Y-146742971D01*
X164266917Y-146742971D02*
X164981202Y-146885828D01*
X163624060Y-147385828D02*
X163624060Y-146385828D01*
X163624060Y-145885828D02*
X163695488Y-145957257D01*
X163695488Y-145957257D02*
X163624060Y-146028685D01*
X163624060Y-146028685D02*
X163552631Y-145957257D01*
X163552631Y-145957257D02*
X163624060Y-145885828D01*
X163624060Y-145885828D02*
X163624060Y-146028685D01*
X162266917Y-147314400D02*
X162409774Y-147385828D01*
X162409774Y-147385828D02*
X162695488Y-147385828D01*
X162695488Y-147385828D02*
X162838345Y-147314400D01*
X162838345Y-147314400D02*
X162909774Y-147242971D01*
X162909774Y-147242971D02*
X162981202Y-147100114D01*
X162981202Y-147100114D02*
X162981202Y-146671542D01*
X162981202Y-146671542D02*
X162909774Y-146528685D01*
X162909774Y-146528685D02*
X162838345Y-146457257D01*
X162838345Y-146457257D02*
X162695488Y-146385828D01*
X162695488Y-146385828D02*
X162409774Y-146385828D01*
X162409774Y-146385828D02*
X162266917Y-146457257D01*
X162552631Y-147457257D02*
X162409774Y-147528685D01*
X162409774Y-147528685D02*
X162338345Y-147671542D01*
X162338345Y-147671542D02*
X162409774Y-147814400D01*
X162409774Y-147814400D02*
X162552631Y-147885828D01*
X162552631Y-147885828D02*
X162766917Y-147885828D01*
X161409774Y-147385828D02*
X161552631Y-147314400D01*
X161552631Y-147314400D02*
X161624060Y-147242971D01*
X161624060Y-147242971D02*
X161695488Y-147100114D01*
X161695488Y-147100114D02*
X161695488Y-146671542D01*
X161695488Y-146671542D02*
X161624060Y-146528685D01*
X161624060Y-146528685D02*
X161552631Y-146457257D01*
X161552631Y-146457257D02*
X161409774Y-146385828D01*
X161409774Y-146385828D02*
X161195488Y-146385828D01*
X161195488Y-146385828D02*
X161052631Y-146457257D01*
X161052631Y-146457257D02*
X160981203Y-146528685D01*
X160981203Y-146528685D02*
X160909774Y-146671542D01*
X160909774Y-146671542D02*
X160909774Y-147100114D01*
X160909774Y-147100114D02*
X160981203Y-147242971D01*
X160981203Y-147242971D02*
X161052631Y-147314400D01*
X161052631Y-147314400D02*
X161195488Y-147385828D01*
X161195488Y-147385828D02*
X161409774Y-147385828D01*
X159624060Y-147385828D02*
X159624060Y-146600114D01*
X159624060Y-146600114D02*
X159695488Y-146457257D01*
X159695488Y-146457257D02*
X159838345Y-146385828D01*
X159838345Y-146385828D02*
X160124060Y-146385828D01*
X160124060Y-146385828D02*
X160266917Y-146457257D01*
X159624060Y-147314400D02*
X159766917Y-147385828D01*
X159766917Y-147385828D02*
X160124060Y-147385828D01*
X160124060Y-147385828D02*
X160266917Y-147314400D01*
X160266917Y-147314400D02*
X160338345Y-147171542D01*
X160338345Y-147171542D02*
X160338345Y-147028685D01*
X160338345Y-147028685D02*
X160266917Y-146885828D01*
X160266917Y-146885828D02*
X160124060Y-146814400D01*
X160124060Y-146814400D02*
X159766917Y-146814400D01*
X159766917Y-146814400D02*
X159624060Y-146742971D01*
X158266917Y-147385828D02*
X158266917Y-145885828D01*
X158266917Y-147314400D02*
X158409774Y-147385828D01*
X158409774Y-147385828D02*
X158695488Y-147385828D01*
X158695488Y-147385828D02*
X158838345Y-147314400D01*
X158838345Y-147314400D02*
X158909774Y-147242971D01*
X158909774Y-147242971D02*
X158981202Y-147100114D01*
X158981202Y-147100114D02*
X158981202Y-146671542D01*
X158981202Y-146671542D02*
X158909774Y-146528685D01*
X158909774Y-146528685D02*
X158838345Y-146457257D01*
X158838345Y-146457257D02*
X158695488Y-146385828D01*
X158695488Y-146385828D02*
X158409774Y-146385828D01*
X158409774Y-146385828D02*
X158266917Y-146457257D01*
X156909774Y-147385828D02*
X156909774Y-146600114D01*
X156909774Y-146600114D02*
X156981202Y-146457257D01*
X156981202Y-146457257D02*
X157124059Y-146385828D01*
X157124059Y-146385828D02*
X157409774Y-146385828D01*
X157409774Y-146385828D02*
X157552631Y-146457257D01*
X156909774Y-147314400D02*
X157052631Y-147385828D01*
X157052631Y-147385828D02*
X157409774Y-147385828D01*
X157409774Y-147385828D02*
X157552631Y-147314400D01*
X157552631Y-147314400D02*
X157624059Y-147171542D01*
X157624059Y-147171542D02*
X157624059Y-147028685D01*
X157624059Y-147028685D02*
X157552631Y-146885828D01*
X157552631Y-146885828D02*
X157409774Y-146814400D01*
X157409774Y-146814400D02*
X157052631Y-146814400D01*
X157052631Y-146814400D02*
X156909774Y-146742971D01*
X181338346Y-148800828D02*
X180981203Y-149800828D01*
X180981203Y-149800828D02*
X180624060Y-148800828D01*
X179766917Y-148300828D02*
X179624060Y-148300828D01*
X179624060Y-148300828D02*
X179481203Y-148372257D01*
X179481203Y-148372257D02*
X179409775Y-148443685D01*
X179409775Y-148443685D02*
X179338346Y-148586542D01*
X179338346Y-148586542D02*
X179266917Y-148872257D01*
X179266917Y-148872257D02*
X179266917Y-149229400D01*
X179266917Y-149229400D02*
X179338346Y-149515114D01*
X179338346Y-149515114D02*
X179409775Y-149657971D01*
X179409775Y-149657971D02*
X179481203Y-149729400D01*
X179481203Y-149729400D02*
X179624060Y-149800828D01*
X179624060Y-149800828D02*
X179766917Y-149800828D01*
X179766917Y-149800828D02*
X179909775Y-149729400D01*
X179909775Y-149729400D02*
X179981203Y-149657971D01*
X179981203Y-149657971D02*
X180052632Y-149515114D01*
X180052632Y-149515114D02*
X180124060Y-149229400D01*
X180124060Y-149229400D02*
X180124060Y-148872257D01*
X180124060Y-148872257D02*
X180052632Y-148586542D01*
X180052632Y-148586542D02*
X179981203Y-148443685D01*
X179981203Y-148443685D02*
X179909775Y-148372257D01*
X179909775Y-148372257D02*
X179766917Y-148300828D01*
X177838346Y-149800828D02*
X178695489Y-149800828D01*
X178266918Y-149800828D02*
X178266918Y-148300828D01*
X178266918Y-148300828D02*
X178409775Y-148515114D01*
X178409775Y-148515114D02*
X178552632Y-148657971D01*
X178552632Y-148657971D02*
X178695489Y-148729400D01*
X176052633Y-149229400D02*
X174909776Y-149229400D01*
X173124061Y-148443685D02*
X173052633Y-148372257D01*
X173052633Y-148372257D02*
X172909776Y-148300828D01*
X172909776Y-148300828D02*
X172552633Y-148300828D01*
X172552633Y-148300828D02*
X172409776Y-148372257D01*
X172409776Y-148372257D02*
X172338347Y-148443685D01*
X172338347Y-148443685D02*
X172266918Y-148586542D01*
X172266918Y-148586542D02*
X172266918Y-148729400D01*
X172266918Y-148729400D02*
X172338347Y-148943685D01*
X172338347Y-148943685D02*
X173195490Y-149800828D01*
X173195490Y-149800828D02*
X172266918Y-149800828D01*
X171338347Y-148300828D02*
X171195490Y-148300828D01*
X171195490Y-148300828D02*
X171052633Y-148372257D01*
X171052633Y-148372257D02*
X170981205Y-148443685D01*
X170981205Y-148443685D02*
X170909776Y-148586542D01*
X170909776Y-148586542D02*
X170838347Y-148872257D01*
X170838347Y-148872257D02*
X170838347Y-149229400D01*
X170838347Y-149229400D02*
X170909776Y-149515114D01*
X170909776Y-149515114D02*
X170981205Y-149657971D01*
X170981205Y-149657971D02*
X171052633Y-149729400D01*
X171052633Y-149729400D02*
X171195490Y-149800828D01*
X171195490Y-149800828D02*
X171338347Y-149800828D01*
X171338347Y-149800828D02*
X171481205Y-149729400D01*
X171481205Y-149729400D02*
X171552633Y-149657971D01*
X171552633Y-149657971D02*
X171624062Y-149515114D01*
X171624062Y-149515114D02*
X171695490Y-149229400D01*
X171695490Y-149229400D02*
X171695490Y-148872257D01*
X171695490Y-148872257D02*
X171624062Y-148586542D01*
X171624062Y-148586542D02*
X171552633Y-148443685D01*
X171552633Y-148443685D02*
X171481205Y-148372257D01*
X171481205Y-148372257D02*
X171338347Y-148300828D01*
X170266919Y-148443685D02*
X170195491Y-148372257D01*
X170195491Y-148372257D02*
X170052634Y-148300828D01*
X170052634Y-148300828D02*
X169695491Y-148300828D01*
X169695491Y-148300828D02*
X169552634Y-148372257D01*
X169552634Y-148372257D02*
X169481205Y-148443685D01*
X169481205Y-148443685D02*
X169409776Y-148586542D01*
X169409776Y-148586542D02*
X169409776Y-148729400D01*
X169409776Y-148729400D02*
X169481205Y-148943685D01*
X169481205Y-148943685D02*
X170338348Y-149800828D01*
X170338348Y-149800828D02*
X169409776Y-149800828D01*
X168909777Y-148300828D02*
X167981205Y-148300828D01*
X167981205Y-148300828D02*
X168481205Y-148872257D01*
X168481205Y-148872257D02*
X168266920Y-148872257D01*
X168266920Y-148872257D02*
X168124063Y-148943685D01*
X168124063Y-148943685D02*
X168052634Y-149015114D01*
X168052634Y-149015114D02*
X167981205Y-149157971D01*
X167981205Y-149157971D02*
X167981205Y-149515114D01*
X167981205Y-149515114D02*
X168052634Y-149657971D01*
X168052634Y-149657971D02*
X168124063Y-149729400D01*
X168124063Y-149729400D02*
X168266920Y-149800828D01*
X168266920Y-149800828D02*
X168695491Y-149800828D01*
X168695491Y-149800828D02*
X168838348Y-149729400D01*
X168838348Y-149729400D02*
X168909777Y-149657971D01*
D12*
%TO.P,J1,1,Pin_1*%
%TO.N,+3.3V*%
X173770000Y-95145000D03*
%TO.P,J1,2,Pin_2*%
%TO.N,Net-(D1-K)*%
X176310000Y-95145000D03*
%TO.P,J1,3,Pin_3*%
%TO.N,+5V*%
X178850000Y-95145000D03*
%TD*%
D13*
%TO.P,R12,1*%
%TO.N,n\u00F32*%
X156203000Y-127145000D03*
%TO.P,R12,2*%
%TO.N,Ampl1*%
X163823000Y-127145000D03*
%TD*%
%TO.P,Rsentinela1,1*%
%TO.N,out_corrente*%
X118800000Y-130860000D03*
%TO.P,Rsentinela1,2*%
%TO.N,I1*%
X118800000Y-123240000D03*
%TD*%
D12*
%TO.P,C4,1*%
%TO.N,Ampl1*%
X154235888Y-134395000D03*
D14*
%TO.P,C4,2*%
%TO.N,Earth*%
X156735888Y-134395000D03*
%TD*%
D15*
%TO.P,U2,1,Rg*%
%TO.N,Net-(RganhoINA1-Pad1)*%
X124750000Y-123250000D03*
D12*
%TO.P,U2,2,-*%
%TO.N,I1*%
X124750000Y-125790000D03*
%TO.P,U2,3,+*%
%TO.N,out_corrente*%
X124750000Y-128330000D03*
%TO.P,U2,4,V-*%
%TO.N,-9V*%
X124750000Y-130870000D03*
%TO.P,U2,5,Ref*%
%TO.N,Earth*%
X132370000Y-130870000D03*
%TO.P,U2,6*%
%TO.N,V_INA*%
X132370000Y-128330000D03*
%TO.P,U2,7,V+*%
%TO.N,+9V*%
X132370000Y-125790000D03*
%TO.P,U2,8,Rg*%
%TO.N,Net-(RganhoINA1-Pad2)*%
X132370000Y-123250000D03*
%TD*%
%TO.P,J4,1,Pin_1*%
%TO.N,SINC*%
X186690000Y-57150000D03*
%TO.P,J4,2,Pin_2*%
%TO.N,SPI_COPI*%
X186690000Y-59690000D03*
%TO.P,J4,3,Pin_3*%
%TO.N,SPI_CIPO*%
X186690000Y-62230000D03*
%TO.P,J4,4,Pin_4*%
%TO.N,SPI_clk*%
X186690000Y-64770000D03*
%TO.P,J4,5,Pin_5*%
%TO.N,CS (AD9833)*%
X186690000Y-67310000D03*
%TO.P,J4,6,Pin_6*%
%TO.N,CS (X9c10x)*%
X186690000Y-69850000D03*
%TO.P,J4,7,Pin_7*%
%TO.N,unconnected-(J4-Pin_7-Pad7)*%
X186690000Y-72390000D03*
%TO.P,J4,8,Pin_8*%
%TO.N,unconnected-(J4-Pin_8-Pad8)*%
X186690000Y-74930000D03*
%TO.P,J4,9,Pin_9*%
%TO.N,unconnected-(J4-Pin_9-Pad9)*%
X186690000Y-77470000D03*
%TO.P,J4,10,Pin_10*%
%TO.N,unconnected-(J4-Pin_10-Pad10)*%
X186690000Y-80010000D03*
%TO.P,J4,11,Pin_11*%
%TO.N,unconnected-(J4-Pin_11-Pad11)*%
X186690000Y-82550000D03*
%TO.P,J4,12,Pin_12*%
%TO.N,unconnected-(J4-Pin_12-Pad12)*%
X186690000Y-85090000D03*
%TO.P,J4,13,Pin_13*%
%TO.N,unconnected-(J4-Pin_13-Pad13)*%
X186690000Y-87630000D03*
%TO.P,J4,14,Pin_14*%
%TO.N,unconnected-(J4-Pin_14-Pad14)*%
X186690000Y-90170000D03*
%TO.P,J4,15,Pin_15*%
%TO.N,unconnected-(J4-Pin_15-Pad15)*%
X186690000Y-92710000D03*
%TO.P,J4,16,Pin_16*%
%TO.N,unconnected-(J4-Pin_16-Pad16)*%
X186690000Y-95250000D03*
%TO.P,J4,17,Pin_17*%
%TO.N,unconnected-(J4-Pin_17-Pad17)*%
X186690000Y-97790000D03*
%TO.P,J4,18,Pin_18*%
%TO.N,unconnected-(J4-Pin_18-Pad18)*%
X186690000Y-100330000D03*
%TO.P,J4,19,Pin_19*%
%TO.N,unconnected-(J4-Pin_19-Pad19)*%
X186690000Y-102870000D03*
%TO.P,J4,20,Pin_20*%
%TO.N,unconnected-(J4-Pin_20-Pad20)*%
X186690000Y-105410000D03*
%TO.P,J4,21,Pin_21*%
%TO.N,unconnected-(J4-Pin_21-Pad21)*%
X186690000Y-107950000D03*
%TO.P,J4,22,Pin_22*%
%TO.N,unconnected-(J4-Pin_22-Pad22)*%
X186690000Y-110490000D03*
%TO.P,J4,23,Pin_23*%
%TO.N,unconnected-(J4-Pin_23-Pad23)*%
X186690000Y-113030000D03*
%TO.P,J4,24,Pin_24*%
%TO.N,unconnected-(J4-Pin_24-Pad24)*%
X186690000Y-115570000D03*
%TO.P,J4,25,Pin_25*%
%TO.N,unconnected-(J4-Pin_25-Pad25)*%
X186690000Y-118110000D03*
%TO.P,J4,26,Pin_26*%
%TO.N,unconnected-(J4-Pin_26-Pad26)*%
X186690000Y-120650000D03*
%TO.P,J4,27,Pin_27*%
%TO.N,unconnected-(J4-Pin_27-Pad27)*%
X186690000Y-123190000D03*
%TO.P,J4,28,Pin_28*%
%TO.N,unconnected-(J4-Pin_28-Pad28)*%
X186690000Y-125730000D03*
%TO.P,J4,29,Pin_29*%
%TO.N,unconnected-(J4-Pin_29-Pad29)*%
X186690000Y-128270000D03*
%TO.P,J4,30,Pin_30*%
%TO.N,SCL3*%
X186690000Y-130810000D03*
%TO.P,J4,31,Pin_31*%
%TO.N,SDA3*%
X186690000Y-133350000D03*
%TO.P,J4,32,Pin_32*%
%TO.N,SCL2*%
X186690000Y-135890000D03*
%TO.P,J4,33,Pin_33*%
%TO.N,SDA2*%
X186690000Y-138430000D03*
%TO.P,J4,34,Pin_34*%
%TO.N,SCL1*%
X186690000Y-140970000D03*
%TO.P,J4,35,Pin_35*%
%TO.N,SDA1*%
X186690000Y-143510000D03*
%TD*%
D15*
%TO.P,U3-cond1,1,OUT1*%
%TO.N,unconnected-(U3-cond1-OUT1-Pad1)*%
X141725000Y-111443000D03*
D12*
%TO.P,U3-cond1,2,-IN1*%
%TO.N,unconnected-(U3-cond1--IN1-Pad2)*%
X141725000Y-113983000D03*
%TO.P,U3-cond1,3,+IN1*%
%TO.N,unconnected-(U3-cond1-+IN1-Pad3)*%
X141725000Y-116523000D03*
%TO.P,U3-cond1,4,V-*%
%TO.N,-9V*%
X141725000Y-119063000D03*
%TO.P,U3-cond1,5,+IN2*%
%TO.N,V_INA*%
X149345000Y-119063000D03*
%TO.P,U3-cond1,6,-IN2*%
%TO.N,n\u00F31*%
X149345000Y-116523000D03*
%TO.P,U3-cond1,7,OUT2*%
X149345000Y-113983000D03*
%TO.P,U3-cond1,8,V+*%
%TO.N,+9V*%
X149345000Y-111443000D03*
%TD*%
D13*
%TO.P,R10,1*%
%TO.N,Net-(D1-K)*%
X163569000Y-114999000D03*
%TO.P,R10,2*%
%TO.N,n\u00F32*%
X171189000Y-114999000D03*
%TD*%
%TO.P,R1,1*%
%TO.N,Net-(U1-howland1--IN2)*%
X129500000Y-79500000D03*
%TO.P,R1,2*%
%TO.N,out_buffer*%
X121880000Y-79500000D03*
%TD*%
D15*
%TO.P,J2,1,Pin_1*%
%TO.N,Earth*%
X106680000Y-57150000D03*
D16*
%TO.P,J2,2,Pin_2*%
%TO.N,VCC*%
X106680000Y-59690000D03*
%TO.P,J2,3,Pin_3*%
%TO.N,VEE*%
X106680000Y-62230000D03*
%TO.P,J2,4,Pin_4*%
%TO.N,+9V*%
X106680000Y-64770000D03*
%TO.P,J2,5,Pin_5*%
%TO.N,-9V*%
X106680000Y-67310000D03*
%TO.P,J2,6,Pin_6*%
%TO.N,+5V*%
X106680000Y-69850000D03*
%TO.P,J2,7,Pin_7*%
%TO.N,-5V*%
X106680000Y-72390000D03*
%TO.P,J2,8,Pin_8*%
%TO.N,+3.3V*%
X106680000Y-74930000D03*
%TD*%
%TO.P,J3,1,Pin_1*%
%TO.N,unconnected-(J3-Pin_1-Pad1)*%
X106680000Y-81280000D03*
D12*
%TO.P,J3,2,Pin_2*%
%TO.N,unconnected-(J3-Pin_2-Pad2)*%
X106680000Y-83820000D03*
%TO.P,J3,3,Pin_3*%
%TO.N,unconnected-(J3-Pin_3-Pad3)*%
X106680000Y-86360000D03*
%TO.P,J3,4,Pin_4*%
%TO.N,unconnected-(J3-Pin_4-Pad4)*%
X106680000Y-88900000D03*
%TO.P,J3,5,Pin_5*%
%TO.N,unconnected-(J3-Pin_5-Pad5)*%
X106680000Y-91440000D03*
%TO.P,J3,6,Pin_6*%
%TO.N,unconnected-(J3-Pin_6-Pad6)*%
X106680000Y-93980000D03*
%TO.P,J3,7,Pin_7*%
%TO.N,unconnected-(J3-Pin_7-Pad7)*%
X106680000Y-96520000D03*
%TO.P,J3,8,Pin_8*%
%TO.N,unconnected-(J3-Pin_8-Pad8)*%
X106680000Y-99060000D03*
%TO.P,J3,9,Pin_9*%
%TO.N,unconnected-(J3-Pin_9-Pad9)*%
X106680000Y-101600000D03*
%TO.P,J3,10,Pin_10*%
%TO.N,unconnected-(J3-Pin_10-Pad10)*%
X106680000Y-104140000D03*
%TO.P,J3,11,Pin_11*%
%TO.N,unconnected-(J3-Pin_11-Pad11)*%
X106680000Y-106680000D03*
%TO.P,J3,12,Pin_12*%
%TO.N,unconnected-(J3-Pin_12-Pad12)*%
X106680000Y-109220000D03*
%TO.P,J3,13,Pin_13*%
%TO.N,unconnected-(J3-Pin_13-Pad13)*%
X106680000Y-111760000D03*
%TO.P,J3,14,Pin_14*%
%TO.N,unconnected-(J3-Pin_14-Pad14)*%
X106680000Y-114300000D03*
%TO.P,J3,15,Pin_15*%
%TO.N,unconnected-(J3-Pin_15-Pad15)*%
X106680000Y-116840000D03*
%TO.P,J3,16,Pin_16*%
%TO.N,unconnected-(J3-Pin_16-Pad16)*%
X106680000Y-119380000D03*
%TO.P,J3,17,Pin_17*%
%TO.N,unconnected-(J3-Pin_17-Pad17)*%
X106680000Y-121920000D03*
%TO.P,J3,18,Pin_18*%
%TO.N,unconnected-(J3-Pin_18-Pad18)*%
X106680000Y-124460000D03*
%TO.P,J3,19,Pin_19*%
%TO.N,unconnected-(J3-Pin_19-Pad19)*%
X106680000Y-127000000D03*
%TO.P,J3,20,Pin_20*%
%TO.N,I1*%
X106680000Y-129540000D03*
%TO.P,J3,21,Pin_21*%
%TO.N,I2*%
X106680000Y-132080000D03*
%TO.P,J3,22,Pin_22*%
%TO.N,Ampl1*%
X106680000Y-134620000D03*
%TO.P,J3,23,Pin_23*%
%TO.N,Ampl2*%
X106680000Y-137160000D03*
%TO.P,J3,24,Pin_24*%
%TO.N,Sin1*%
X106680000Y-139700000D03*
%TO.P,J3,25,Pin_25*%
%TO.N,Sin2*%
X106680000Y-142240000D03*
%TO.P,J3,26,Pin_26*%
%TO.N,SinA*%
X106680000Y-144780000D03*
%TO.P,J3,27,Pin_27*%
%TO.N,SinB*%
X106680000Y-147320000D03*
%TD*%
D13*
%TO.P,RganhoINA1,1*%
%TO.N,Net-(RganhoINA1-Pad1)*%
X124740000Y-117300000D03*
%TO.P,RganhoINA1,2*%
%TO.N,Net-(RganhoINA1-Pad2)*%
X132360000Y-117300000D03*
%TD*%
D12*
%TO.P,C3,1*%
%TO.N,n\u00F31*%
X156295000Y-113939888D03*
D17*
%TO.P,C3,2*%
%TO.N,n\u00F32*%
X156295000Y-116439888D03*
%TD*%
D14*
%TO.P,D2,1,K*%
%TO.N,Ampl1*%
X155920000Y-139750000D03*
D13*
%TO.P,D2,2,A*%
%TO.N,Earth*%
X166080000Y-139750000D03*
%TD*%
D18*
%TO.P,SW_kcd1,1,1*%
%TO.N,Net-(U1-howland1-+IN1)*%
X122050000Y-142250000D03*
%TO.P,SW_kcd1,2,1a*%
%TO.N,Sin1*%
X115250000Y-142250000D03*
%TO.P,SW_kcd1,3,1b*%
%TO.N,SinA*%
X128650000Y-142250000D03*
%TD*%
D13*
%TO.P,R4,1*%
%TO.N,Net-(R3-Pad2)*%
X133060000Y-94500000D03*
%TO.P,R4,2*%
%TO.N,Earth*%
X125440000Y-94500000D03*
%TD*%
%TO.P,R6,1*%
%TO.N,Net-(U1-howland1-OUT2)*%
X151750000Y-70130000D03*
%TO.P,R6,2*%
%TO.N,out_corrente*%
X151750000Y-77750000D03*
%TD*%
%TO.P,R2,1*%
%TO.N,Net-(U1-howland1--IN2)*%
X140000000Y-77810000D03*
%TO.P,R2,2*%
%TO.N,Net-(U1-howland1-OUT2)*%
X140000000Y-70190000D03*
%TD*%
D14*
%TO.P,D1,1,K*%
%TO.N,Net-(D1-K)*%
X176375000Y-122645000D03*
D13*
%TO.P,D1,2,A*%
%TO.N,Ampl1*%
X166215000Y-122645000D03*
%TD*%
%TO.P,R11,1*%
%TO.N,n\u00F32*%
X169750000Y-129690000D03*
%TO.P,R11,2*%
%TO.N,Earth*%
X169750000Y-137310000D03*
%TD*%
%TO.P,R3,1*%
%TO.N,Net-(U1-howland1-+IN2)*%
X125500000Y-87000000D03*
%TO.P,R3,2*%
%TO.N,Net-(R3-Pad2)*%
X133120000Y-87000000D03*
%TD*%
D15*
%TO.P,U1-howland1,1,OUT1*%
%TO.N,out_buffer*%
X122440000Y-65690000D03*
D12*
%TO.P,U1-howland1,2,-IN1*%
X122440000Y-68230000D03*
%TO.P,U1-howland1,3,+IN1*%
%TO.N,Net-(U1-howland1-+IN1)*%
X122440000Y-70770000D03*
%TO.P,U1-howland1,4,V-*%
%TO.N,-9V*%
X122440000Y-73310000D03*
%TO.P,U1-howland1,5,+IN2*%
%TO.N,Net-(U1-howland1-+IN2)*%
X130060000Y-73310000D03*
%TO.P,U1-howland1,6,-IN2*%
%TO.N,Net-(U1-howland1--IN2)*%
X130060000Y-70770000D03*
%TO.P,U1-howland1,7,OUT2*%
%TO.N,Net-(U1-howland1-OUT2)*%
X130060000Y-68230000D03*
%TO.P,U1-howland1,8,V+*%
%TO.N,+9V*%
X130060000Y-65690000D03*
%TD*%
D13*
%TO.P,R5,1*%
%TO.N,Net-(U1-howland1-+IN2)*%
X151750000Y-91000000D03*
%TO.P,R5,2*%
%TO.N,out_corrente*%
X151750000Y-83380000D03*
%TD*%
D19*
%TO.N,+9V*%
X149500000Y-107250000D03*
X110250000Y-60000000D03*
X130250000Y-60000000D03*
X149500000Y-101000000D03*
%TO.N,-9V*%
X126750000Y-110000000D03*
X133250000Y-110000000D03*
%TO.N,+3.3V*%
X180000000Y-103000000D03*
X174000000Y-103000000D03*
%TO.N,SinA*%
X110000000Y-144750000D03*
X110000000Y-137250000D03*
%TO.N,out_corrente*%
X152400000Y-121500000D03*
X152400000Y-101250000D03*
%TD*%
D20*
%TO.N,out_corrente*%
X118800000Y-130860000D02*
X121690000Y-133750000D01*
X121690000Y-133750000D02*
X145750000Y-133750000D01*
X145750000Y-133750000D02*
X152400000Y-127100000D01*
X152400000Y-127100000D02*
X152400000Y-121500000D01*
%TO.N,Ampl1*%
X106680000Y-134620000D02*
X120056842Y-134620000D01*
X120056842Y-134620000D02*
X120956842Y-135520000D01*
X120956842Y-135520000D02*
X135020000Y-135520000D01*
X135020000Y-135520000D02*
X135750000Y-136250000D01*
X135750000Y-136250000D02*
X154235888Y-136250000D01*
%TO.N,Earth*%
X106680000Y-57150000D02*
X153900000Y-57150000D01*
X153900000Y-57150000D02*
X161799000Y-65049000D01*
X161799000Y-65049000D02*
X161799000Y-99451000D01*
X161799000Y-99451000D02*
X157000000Y-104250000D01*
X157000000Y-104250000D02*
X155426764Y-104250000D01*
%TO.N,+9V*%
X149500000Y-101000000D02*
X149500000Y-99500000D01*
X149500000Y-99500000D02*
X155500000Y-93500000D01*
X155500000Y-93500000D02*
X155500000Y-88250000D01*
X155000000Y-68000000D02*
X152690000Y-65690000D01*
X155500000Y-88250000D02*
X154500000Y-87250000D01*
X154500000Y-87250000D02*
X145750000Y-87250000D01*
X153500000Y-74250000D02*
X155000000Y-72750000D01*
X145750000Y-87250000D02*
X145750000Y-75250000D01*
X146750000Y-74250000D02*
X153500000Y-74250000D01*
X145750000Y-75250000D02*
X146750000Y-74250000D01*
X152690000Y-65690000D02*
X130060000Y-65690000D01*
X155000000Y-72750000D02*
X155000000Y-68000000D01*
%TO.N,Net-(U1-howland1--IN2)*%
X130060000Y-70770000D02*
X132960000Y-70770000D01*
X132960000Y-70770000D02*
X136250000Y-74060000D01*
X136250000Y-74060000D02*
X136250000Y-77810000D01*
%TO.N,+3.3V*%
X180000000Y-103000000D02*
X183000000Y-100000000D01*
X183000000Y-100000000D02*
X183000000Y-67250000D01*
X174000000Y-103000000D02*
X174000000Y-95375000D01*
X174000000Y-95375000D02*
X173770000Y-95145000D01*
%TO.N,Net-(D1-K)*%
X176375000Y-122645000D02*
X176310000Y-122580000D01*
X176310000Y-122580000D02*
X176310000Y-95145000D01*
%TO.N,+9V*%
X130060000Y-60190000D02*
X130250000Y-60000000D01*
X149500000Y-107250000D02*
X149500000Y-111288000D01*
X149345000Y-111443000D02*
X147057000Y-111443000D01*
X130060000Y-65690000D02*
X130060000Y-60190000D01*
X149500000Y-111288000D02*
X149345000Y-111443000D01*
X109250000Y-64750000D02*
X109250000Y-61000000D01*
X109250000Y-61000000D02*
X110250000Y-60000000D01*
X147057000Y-111443000D02*
X146000000Y-112500000D01*
X142710000Y-125790000D02*
X132370000Y-125790000D01*
X106680000Y-64770000D02*
X106980000Y-64770000D01*
X106980000Y-64770000D02*
X107000000Y-64750000D01*
X107000000Y-64750000D02*
X109250000Y-64750000D01*
X146000000Y-122500000D02*
X142710000Y-125790000D01*
X146000000Y-112500000D02*
X146000000Y-122500000D01*
%TO.N,-9V*%
X124750000Y-74370000D02*
X124750000Y-82500000D01*
X122440000Y-73310000D02*
X123690000Y-73310000D01*
X125880000Y-130870000D02*
X124750000Y-130870000D01*
X124750000Y-82500000D02*
X124000000Y-82500000D01*
X127480000Y-129270000D02*
X125880000Y-130870000D01*
X121250000Y-95000000D02*
X126750000Y-100500000D01*
X126750000Y-100500000D02*
X126750000Y-110000000D01*
X124750000Y-59500000D02*
X115375000Y-59500000D01*
X137250000Y-119000000D02*
X137313000Y-119063000D01*
X123690000Y-73310000D02*
X124750000Y-74370000D01*
X124000000Y-82500000D02*
X121250000Y-85250000D01*
X111440000Y-63435000D02*
X111440000Y-67310000D01*
X115375000Y-59500000D02*
X111440000Y-63435000D01*
X127480000Y-129270000D02*
X127480000Y-110730000D01*
X127000000Y-61750000D02*
X124750000Y-59500000D01*
X111440000Y-67310000D02*
X106680000Y-67310000D01*
X137313000Y-119063000D02*
X141725000Y-119063000D01*
X133250000Y-110000000D02*
X137250000Y-114000000D01*
X127480000Y-110730000D02*
X126750000Y-110000000D01*
X127000000Y-70000000D02*
X127000000Y-61750000D01*
X121250000Y-85250000D02*
X121250000Y-95000000D01*
X137250000Y-114000000D02*
X137250000Y-119000000D01*
X123690000Y-73310000D02*
X127000000Y-70000000D01*
%TO.N,+5V*%
X104505000Y-68877081D02*
X105477919Y-69850000D01*
X178850000Y-95145000D02*
X178850000Y-68100000D01*
X105505000Y-54250000D02*
X104505000Y-55250000D01*
X163000000Y-54250000D02*
X105505000Y-54250000D01*
X105477919Y-69850000D02*
X106680000Y-69850000D01*
X104505000Y-55250000D02*
X104505000Y-68877081D01*
X178850000Y-68100000D02*
X165000000Y-54250000D01*
X165000000Y-54250000D02*
X163000000Y-54250000D01*
%TO.N,+3.3V*%
X174020000Y-102980000D02*
X174000000Y-103000000D01*
X103915000Y-74930000D02*
X106680000Y-74930000D01*
X104315000Y-51935000D02*
X102735000Y-53515000D01*
X102735000Y-53515000D02*
X102735000Y-73750000D01*
X183000000Y-67250000D02*
X167685000Y-51935000D01*
X102735000Y-73750000D02*
X103915000Y-74930000D01*
X167685000Y-51935000D02*
X104315000Y-51935000D01*
%TO.N,Earth*%
X160795000Y-134395000D02*
X156735888Y-134395000D01*
X129250000Y-130750000D02*
X129250000Y-97810000D01*
X173750000Y-112750000D02*
X172750000Y-111750000D01*
X160795000Y-134465000D02*
X160795000Y-134395000D01*
X169750000Y-137310000D02*
X173750000Y-133310000D01*
X173750000Y-133310000D02*
X173750000Y-112750000D01*
X169350748Y-111750000D02*
X168500000Y-112600748D01*
X156750000Y-104250000D02*
X155426764Y-104250000D01*
X161000000Y-117750000D02*
X160750000Y-117500000D01*
X165750000Y-117750000D02*
X161000000Y-117750000D01*
X168500000Y-112600748D02*
X168500000Y-115000000D01*
X160750000Y-117500000D02*
X160750000Y-108250000D01*
X166080000Y-139750000D02*
X160795000Y-134465000D01*
X167310000Y-139750000D02*
X169750000Y-137310000D01*
X129250000Y-97810000D02*
X125940000Y-94500000D01*
X160750000Y-108250000D02*
X156750000Y-104250000D01*
X166080000Y-139750000D02*
X167310000Y-139750000D01*
X129370000Y-130870000D02*
X129250000Y-130750000D01*
X132370000Y-130870000D02*
X129370000Y-130870000D01*
X168500000Y-115000000D02*
X165750000Y-117750000D01*
X172750000Y-111750000D02*
X169350748Y-111750000D01*
X155426764Y-104250000D02*
X129500000Y-104250000D01*
%TO.N,I1*%
X118800000Y-123240000D02*
X112500000Y-129540000D01*
X112500000Y-129540000D02*
X106680000Y-129540000D01*
X124750000Y-125790000D02*
X121350000Y-125790000D01*
X121350000Y-125790000D02*
X118800000Y-123240000D01*
%TO.N,Ampl1*%
X155920000Y-139750000D02*
X155920000Y-139184112D01*
X154795000Y-130145000D02*
X154235888Y-130704112D01*
X163823000Y-127145000D02*
X161545000Y-127145000D01*
X155920000Y-139184112D02*
X154235888Y-137500000D01*
X163823000Y-127145000D02*
X163823000Y-125037000D01*
X154235888Y-130704112D02*
X154235888Y-134395000D01*
X154235888Y-137500000D02*
X154235888Y-136250000D01*
X154235888Y-136250000D02*
X154235888Y-134395000D01*
X158545000Y-130145000D02*
X154795000Y-130145000D01*
X161545000Y-127145000D02*
X158545000Y-130145000D01*
X163823000Y-125037000D02*
X166215000Y-122645000D01*
%TO.N,Sin1*%
X115250000Y-142250000D02*
X112700000Y-139700000D01*
X112700000Y-139700000D02*
X106680000Y-139700000D01*
%TO.N,SinA*%
X124110000Y-137290000D02*
X110040000Y-137290000D01*
X106710000Y-144750000D02*
X106680000Y-144780000D01*
X110040000Y-137290000D02*
X110000000Y-137250000D01*
X128650000Y-141830000D02*
X124110000Y-137290000D01*
X110000000Y-144750000D02*
X106710000Y-144750000D01*
X128650000Y-142250000D02*
X128650000Y-141830000D01*
%TO.N,n\u00F31*%
X149345000Y-116523000D02*
X149345000Y-113983000D01*
X156251888Y-113983000D02*
X156295000Y-113939888D01*
X149345000Y-113983000D02*
X156251888Y-113983000D01*
%TO.N,n\u00F32*%
X156295000Y-116439888D02*
X156295000Y-127053000D01*
X156295000Y-116439888D02*
X159855112Y-120000000D01*
X156295000Y-127053000D02*
X156203000Y-127145000D01*
X169440000Y-120000000D02*
X171045000Y-118395000D01*
X171045000Y-118395000D02*
X171045000Y-115143000D01*
X159855112Y-120000000D02*
X169440000Y-120000000D01*
X169750000Y-120310000D02*
X169440000Y-120000000D01*
X171045000Y-115143000D02*
X171189000Y-114999000D01*
X169750000Y-129690000D02*
X169750000Y-120310000D01*
%TO.N,Net-(U1-howland1--IN2)*%
X140000000Y-77810000D02*
X131190000Y-77810000D01*
X131190000Y-77810000D02*
X129500000Y-79500000D01*
%TO.N,out_buffer*%
X118060000Y-65690000D02*
X122440000Y-65690000D01*
X117750000Y-77000000D02*
X117750000Y-66000000D01*
X122440000Y-65690000D02*
X122440000Y-68230000D01*
X117750000Y-66000000D02*
X118060000Y-65690000D01*
X121880000Y-79500000D02*
X120250000Y-79500000D01*
X120250000Y-79500000D02*
X117750000Y-77000000D01*
%TO.N,Net-(U1-howland1-OUT2)*%
X137190000Y-70190000D02*
X135230000Y-68230000D01*
X135230000Y-68230000D02*
X130060000Y-68230000D01*
X140000000Y-70190000D02*
X151690000Y-70190000D01*
X151690000Y-70190000D02*
X151750000Y-70130000D01*
X140000000Y-70190000D02*
X137190000Y-70190000D01*
%TO.N,Net-(U1-howland1-+IN2)*%
X127000000Y-73370000D02*
X127250000Y-73370000D01*
X127000000Y-83000000D02*
X127000000Y-85250000D01*
X135500000Y-83000000D02*
X127250000Y-83000000D01*
X151750000Y-91000000D02*
X143500000Y-91000000D01*
X127000000Y-85500000D02*
X125500000Y-87000000D01*
X127000000Y-73370000D02*
X127000000Y-83000000D01*
X127060000Y-73310000D02*
X127000000Y-73370000D01*
X127000000Y-85250000D02*
X127000000Y-85500000D01*
X143500000Y-91000000D02*
X135500000Y-83000000D01*
X130060000Y-73310000D02*
X127060000Y-73310000D01*
%TO.N,Net-(R3-Pad2)*%
X133120000Y-87000000D02*
X133120000Y-94440000D01*
X133120000Y-94440000D02*
X133060000Y-94500000D01*
%TO.N,out_corrente*%
X121330000Y-128330000D02*
X118800000Y-130860000D01*
X159500000Y-92500000D02*
X159500000Y-86250000D01*
X151750000Y-77750000D02*
X151750000Y-83380000D01*
X124750000Y-128330000D02*
X121330000Y-128330000D01*
X156630000Y-83380000D02*
X151750000Y-83380000D01*
X152400000Y-99600000D02*
X159500000Y-92500000D01*
X159500000Y-86250000D02*
X156630000Y-83380000D01*
X152400000Y-101250000D02*
X152400000Y-99600000D01*
%TO.N,Net-(RganhoINA1-Pad1)*%
X124750000Y-117310000D02*
X124740000Y-117300000D01*
X124750000Y-123250000D02*
X124750000Y-117310000D01*
%TO.N,Net-(RganhoINA1-Pad2)*%
X132370000Y-123250000D02*
X132370000Y-117310000D01*
X132370000Y-117310000D02*
X132360000Y-117300000D01*
%TO.N,Net-(U1-howland1-+IN1)*%
X113750000Y-67496842D02*
X119496842Y-61750000D01*
X122050000Y-142250000D02*
X114635200Y-149664800D01*
X125000000Y-69000000D02*
X123230000Y-70770000D01*
X103250000Y-149664800D02*
X103250000Y-78000000D01*
X114635200Y-149664800D02*
X103250000Y-149664800D01*
X124000000Y-61750000D02*
X125000000Y-62750000D01*
X111500000Y-78000000D02*
X113750000Y-75750000D01*
X113750000Y-75750000D02*
X113750000Y-67496842D01*
X123230000Y-70770000D02*
X122440000Y-70770000D01*
X125000000Y-62750000D02*
X125000000Y-69000000D01*
X119496842Y-61750000D02*
X124000000Y-61750000D01*
X103250000Y-78000000D02*
X111500000Y-78000000D01*
%TO.N,Net-(D1-K)*%
X167250000Y-94250000D02*
X170000000Y-91500000D01*
X170000000Y-91500000D02*
X175250000Y-91500000D01*
X175250000Y-91500000D02*
X176310000Y-92560000D01*
X167250000Y-111318000D02*
X167250000Y-94250000D01*
X163569000Y-114999000D02*
X167250000Y-111318000D01*
X176310000Y-92560000D02*
X176310000Y-95145000D01*
%TO.N,V_INA*%
X146170000Y-128330000D02*
X149345000Y-125155000D01*
X132370000Y-128330000D02*
X146170000Y-128330000D01*
X149345000Y-119063000D02*
X149345000Y-125155000D01*
%TD*%
M02*
