M48
; DRILL file {KiCad 9.0.0-9.0.0-2~ubuntu24.04.1} date 2025-03-11T17:34:29-0300
; FORMAT={-:-/ absolute / metric / decimal}
; #@! TF.CreationDate,2025-03-11T17:34:29-03:00
; #@! TF.GenerationSoftware,Kicad,Pcbnew,9.0.0-9.0.0-2~ubuntu24.04.1
; #@! TF.FileFunction,Plated,1,2,PTH
FMAT,2
METRIC
; #@! TA.AperFunction,Plated,PTH,ViaDrill
T1C0.300
; #@! TA.AperFunction,Plated,PTH,ComponentDrill
T2C0.800
; #@! TA.AperFunction,Plated,PTH,ComponentDrill
T3C0.900
; #@! TA.AperFunction,Plated,PTH,ComponentDrill
T4C1.000
; #@! TA.AperFunction,Plated,PTH,ComponentDrill
T5C1.016
; #@! TA.AperFunction,Plated,PTH,ComponentDrill
T6C1.020
; #@! TA.AperFunction,Plated,PTH,ComponentDrill
T7C1.100
%
G90
G05
T1
X102.251Y-100.36
X102.251Y-138.465
X102.993Y-55.136
X102.993Y-113.028
X103.785Y-53.073
X103.785Y-143.51
X104.148Y-69.855
X104.447Y-148.088
X104.676Y-110.508
X106.2Y-52.0
X106.6Y-77.8
X108.318Y-149.773
X108.439Y-106.908
X108.446Y-114.932
X108.447Y-137.826
X108.643Y-105.22
X109.043Y-61.631
X110.0Y-148.8
X110.258Y-91.271
X110.659Y-111.951
X111.257Y-114.261
X111.659Y-116.708
X111.973Y-61.004
X111.978Y-93.763
X113.6Y-139.6
X113.971Y-130.908
X114.367Y-116.708
X114.579Y-113.196
X115.496Y-72.866
X115.781Y-62.219
X115.781Y-65.83
X115.84Y-139.208
X116.53Y-136.811
X116.777Y-135.518
X116.882Y-133.403
X117.264Y-134.767
X117.507Y-60.036
X117.522Y-65.927
X117.522Y-82.147
X117.553Y-141.121
X117.82Y-101.285
X118.015Y-103.049
X118.289Y-137.271
X118.439Y-91.271
X118.617Y-100.817
X119.302Y-109.427
X119.576Y-142.29
X119.689Y-71.015
X120.59Y-90.756
X120.694Y-97.32
X121.179Y-139.588
X121.2Y-67.2
X121.2Y-69.6
X122.701Y-143.604
X122.947Y-60.123
X123.0Y-126.8
X123.882Y-139.982
X124.0Y-67.2
X124.14Y-76.012
X124.583Y-81.236
X124.6Y-104.8
X124.606Y-87.039
X124.657Y-82.588
X125.0Y-107.8
X125.052Y-61.358
X125.26Y-97.32
X125.4Y-64.0
X125.4Y-126.8
X126.056Y-91.198
X126.665Y-88.191
X127.446Y-79.047
X128.0Y-126.8
X128.2Y-137.6
X128.72Y-113.655
X130.214Y-91.628
X130.4Y-137.2
X130.465Y-149.773
X130.51Y-127.172
X130.52Y-61.635
X130.537Y-102.66
X130.673Y-106.41
X131.165Y-72.18
X131.224Y-100.12
X131.719Y-122.635
X131.735Y-124.214
X131.744Y-89.96
X131.928Y-87.719
X132.02Y-78.566
X132.8Y-137.8
X133.2Y-125.6
X133.425Y-71.015
X133.842Y-60.951
X133.924Y-118.087
X134.227Y-72.18
X134.4Y-136.6
X134.451Y-80.491
X134.644Y-85.188
X135.098Y-61.46
X135.267Y-113.667
X135.59Y-130.26
X135.6Y-125.6
X135.858Y-82.317
X136.063Y-117.795
X136.318Y-80.97
X136.602Y-149.774
X137.797Y-133.018
X138.13Y-116.375
X138.6Y-137.2
X139.404Y-124.262
X140.148Y-122.048
X140.383Y-72.802
X141.321Y-77.961
X141.36Y-69.742
X141.562Y-88.349
X141.592Y-139.648
X142.0Y-66.8
X142.13Y-74.72
X142.876Y-122.65
X143.005Y-63.826
X143.4Y-140.6
X144.123Y-122.128
X144.345Y-65.927
X145.658Y-94.909
X145.75Y-142.327
X146.985Y-116.976
X147.02Y-130.81
X147.6Y-67.0
X148.06Y-149.164
X148.197Y-91.248
X148.241Y-87.632
X148.4Y-141.0
X148.745Y-94.441
X150.154Y-53.347
X150.329Y-79.539
X150.702Y-139.449
X151.005Y-89.338
X151.017Y-81.656
X151.618Y-80.716
X152.4Y-139.6
X154.925Y-65.825
X155.265Y-100.12
X155.8Y-142.6
X156.179Y-106.47
X157.2Y-141.6
X157.286Y-98.66
X157.584Y-116.976
X158.6Y-140.0
X159.598Y-116.375
X160.216Y-111.951
X161.061Y-113.196
X161.2Y-127.4
X161.854Y-52.392
X162.155Y-138.43
X163.06Y-132.751
X163.104Y-52.739
X163.598Y-111.544
X163.599Y-76.362
X164.126Y-114.292
X165.2Y-122.8
X165.525Y-140.175
X165.6Y-94.8
X166.299Y-53.347
X166.637Y-91.545
X167.176Y-78.425
X167.9Y-133.034
X169.0Y-68.6
X169.0Y-96.0
X169.83Y-108.714
X170.0Y-101.8
X172.044Y-80.876
X172.588Y-77.863
X173.672Y-87.119
X174.2Y-107.8
X175.0Y-92.4
X175.0Y-96.8
X176.0Y-114.2
X176.073Y-73.225
X180.2Y-74.8
X180.975Y-82.2
X182.392Y-130.3
X182.913Y-60.453
X182.913Y-129.198
X183.644Y-136.214
T2
X165.029Y-55.7
X167.529Y-55.7
X173.2Y-118.1
X175.8Y-122.3
X175.8Y-124.8
X179.9Y-127.8
X179.9Y-130.3
X180.671Y-53.4
X180.82Y-118.1
X183.171Y-53.4
T3
X177.4Y-134.0
X177.4Y-136.54
T4
X110.315Y-144.15
X110.315Y-146.69
X110.36Y-54.9
X110.36Y-57.44
X112.855Y-144.15
X112.855Y-146.69
X112.9Y-54.9
X112.9Y-57.44
X115.395Y-146.69
X115.395Y-144.15
X115.44Y-57.44
X115.44Y-54.9
X117.935Y-144.15
X117.935Y-146.69
X117.98Y-54.9
X117.98Y-57.44
X119.84Y-74.339
X119.84Y-76.879
X119.84Y-79.419
X119.84Y-81.959
X119.84Y-84.499
X119.84Y-87.039
X119.84Y-89.579
X119.84Y-92.119
X120.475Y-144.15
X120.475Y-146.69
X120.52Y-54.9
X120.52Y-57.44
X122.38Y-74.339
X122.38Y-76.879
X122.38Y-79.419
X122.38Y-81.959
X122.38Y-84.499
X122.38Y-87.039
X122.38Y-89.579
X122.38Y-92.119
X124.115Y-144.15
X124.115Y-146.69
X124.125Y-54.9
X124.125Y-57.44
X126.655Y-144.15
X126.655Y-146.69
X126.665Y-54.9
X126.665Y-57.44
X129.195Y-146.69
X129.195Y-144.15
X129.205Y-57.44
X129.205Y-54.9
X131.735Y-144.15
X131.735Y-146.69
X131.745Y-54.9
X131.745Y-57.44
X134.275Y-144.15
X134.275Y-146.69
X134.285Y-54.9
X134.285Y-57.44
X137.9Y-144.16
X137.9Y-146.7
X137.925Y-54.91
X137.925Y-57.45
X138.949Y-126.02
X138.949Y-128.56
X140.44Y-144.16
X140.44Y-146.7
X140.465Y-54.91
X140.465Y-57.45
X141.489Y-126.02
X141.489Y-128.56
X142.98Y-146.7
X142.98Y-144.16
X143.005Y-57.45
X143.005Y-54.91
X143.84Y-74.459
X143.84Y-76.999
X143.84Y-79.539
X143.84Y-82.079
X143.84Y-84.619
X143.84Y-87.159
X143.84Y-89.699
X143.84Y-92.239
X144.029Y-126.02
X144.029Y-128.56
X145.52Y-144.16
X145.52Y-146.7
X145.545Y-54.91
X145.545Y-57.45
X146.38Y-74.459
X146.38Y-76.999
X146.38Y-79.539
X146.38Y-82.079
X146.38Y-84.619
X146.38Y-87.159
X146.38Y-89.699
X146.38Y-92.239
X146.569Y-126.02
X146.569Y-128.56
X148.06Y-144.16
X148.06Y-146.7
X148.085Y-54.91
X148.085Y-57.45
X149.109Y-126.02
X149.109Y-128.56
X151.649Y-126.02
X151.649Y-128.56
X151.7Y-144.16
X151.7Y-146.7
X151.76Y-54.9
X151.76Y-57.44
X154.189Y-126.02
X154.189Y-128.56
X154.24Y-144.16
X154.24Y-146.7
X154.3Y-54.9
X154.3Y-57.44
X156.729Y-126.02
X156.729Y-128.56
X156.78Y-146.7
X156.78Y-144.16
X156.84Y-57.44
X156.84Y-54.9
X159.32Y-144.16
X159.32Y-146.7
X159.38Y-54.9
X159.38Y-57.44
X161.86Y-144.16
X161.86Y-146.7
X161.92Y-54.9
X161.92Y-57.44
X168.34Y-74.419
X168.34Y-76.959
X168.34Y-79.499
X168.34Y-82.039
X168.34Y-84.579
X168.34Y-87.119
X168.34Y-89.659
X168.34Y-92.199
X170.88Y-74.419
X170.88Y-76.959
X170.88Y-79.499
X170.88Y-82.039
X170.88Y-84.579
X170.88Y-87.119
X170.88Y-89.659
X170.88Y-92.199
T5
X113.65Y-62.02
X113.65Y-64.56
X113.65Y-67.1
X113.65Y-69.64
X113.65Y-72.18
X113.65Y-74.72
X113.65Y-77.26
X113.65Y-79.8
X113.65Y-82.34
X113.65Y-84.88
X113.65Y-87.42
X113.65Y-89.96
X113.65Y-92.5
X113.65Y-95.04
X113.65Y-97.58
X113.65Y-100.12
X113.65Y-102.66
X113.65Y-105.2
X113.65Y-107.74
X113.65Y-110.331
X119.99Y-106.47
X120.35Y-119.44
X120.35Y-134.68
X122.53Y-106.47
X122.89Y-119.44
X122.89Y-134.68
X125.43Y-119.44
X125.43Y-134.68
X127.97Y-119.44
X127.97Y-134.68
X128.89Y-62.02
X128.89Y-64.56
X128.89Y-67.1
X128.89Y-69.64
X128.89Y-72.18
X128.89Y-74.72
X128.89Y-77.26
X128.89Y-79.8
X128.89Y-82.34
X128.89Y-84.88
X128.89Y-87.42
X128.89Y-89.96
X128.89Y-92.5
X128.89Y-95.04
X128.89Y-97.58
X128.89Y-100.12
X128.89Y-102.66
X128.89Y-105.2
X128.89Y-107.74
X128.89Y-110.28
X130.51Y-119.44
X130.51Y-134.68
X133.05Y-119.44
X133.05Y-134.68
X135.59Y-119.44
X135.59Y-134.68
X137.955Y-62.02
X137.955Y-64.56
X137.955Y-67.1
X137.955Y-69.64
X137.955Y-72.18
X137.955Y-74.72
X137.955Y-77.26
X137.955Y-79.8
X137.955Y-82.34
X137.955Y-84.88
X137.955Y-87.42
X137.955Y-89.96
X137.955Y-92.5
X137.955Y-95.04
X137.955Y-97.58
X137.955Y-100.12
X137.955Y-102.66
X137.955Y-105.2
X137.955Y-107.74
X137.955Y-110.331
X138.13Y-119.44
X138.13Y-134.68
X140.67Y-119.44
X140.67Y-134.68
X143.21Y-119.44
X143.21Y-134.68
X144.295Y-106.47
X145.75Y-119.44
X145.75Y-134.68
X146.835Y-106.47
X148.29Y-119.44
X148.29Y-134.68
X150.83Y-119.44
X150.83Y-134.68
X153.195Y-62.02
X153.195Y-64.56
X153.195Y-67.1
X153.195Y-69.64
X153.195Y-72.18
X153.195Y-74.72
X153.195Y-77.26
X153.195Y-79.8
X153.195Y-82.34
X153.195Y-84.88
X153.195Y-87.42
X153.195Y-89.96
X153.195Y-92.5
X153.195Y-95.04
X153.195Y-97.58
X153.195Y-100.12
X153.195Y-102.66
X153.195Y-105.2
X153.195Y-107.74
X153.195Y-110.28
X153.37Y-119.44
X153.37Y-134.68
X155.91Y-119.44
X155.91Y-134.68
X158.45Y-119.44
X158.45Y-134.68
X160.99Y-119.44
X160.99Y-134.68
X162.26Y-62.02
X162.26Y-64.56
X162.26Y-67.1
X162.26Y-69.64
X162.26Y-72.18
X162.26Y-74.72
X162.26Y-77.26
X162.26Y-79.8
X162.26Y-82.34
X162.26Y-84.88
X162.26Y-87.42
X162.26Y-89.96
X162.26Y-92.5
X162.26Y-95.04
X162.26Y-97.58
X162.26Y-100.12
X162.26Y-102.66
X162.26Y-105.2
X162.26Y-107.74
X162.26Y-110.331
X163.53Y-119.44
X163.53Y-134.68
X164.8Y-125.8
X164.8Y-128.34
X166.07Y-119.44
X166.07Y-134.68
X168.6Y-106.47
X168.61Y-119.44
X168.661Y-134.68
X171.14Y-106.47
X177.5Y-62.02
X177.5Y-64.56
X177.5Y-67.1
X177.5Y-69.64
X177.5Y-72.18
X177.5Y-74.72
X177.5Y-77.26
X177.5Y-79.8
X177.5Y-82.34
X177.5Y-84.88
X177.5Y-87.42
X177.5Y-89.96
X177.5Y-92.5
X177.5Y-95.04
X177.5Y-97.58
X177.5Y-100.12
X177.5Y-102.66
X177.5Y-105.2
X177.5Y-107.74
X177.5Y-110.28
T6
X106.68Y-57.15
X106.68Y-59.69
X106.68Y-62.23
X106.68Y-64.77
X106.68Y-67.31
X106.68Y-69.85
X106.68Y-72.39
X106.68Y-74.93
X106.68Y-81.28
X106.68Y-83.82
X106.68Y-86.36
X106.68Y-88.9
X106.68Y-91.44
X106.68Y-93.98
X106.68Y-96.52
X106.68Y-99.06
X106.68Y-101.6
X106.68Y-104.14
X106.68Y-106.68
X106.68Y-109.22
X106.68Y-111.76
X106.68Y-114.3
X106.68Y-116.84
X106.68Y-119.38
X106.68Y-121.92
X106.68Y-124.46
X106.68Y-127.0
X106.68Y-129.54
X106.68Y-132.08
X106.68Y-134.62
X106.68Y-137.16
X106.68Y-139.7
X106.68Y-142.24
X106.68Y-144.78
X106.68Y-147.32
X185.42Y-57.15
X185.42Y-59.69
X185.42Y-62.23
X185.42Y-64.77
X185.42Y-67.31
X185.42Y-69.85
X185.42Y-72.39
X185.42Y-74.93
X185.42Y-77.47
X185.42Y-80.01
X185.42Y-82.55
X185.42Y-85.09
X185.42Y-87.63
X185.42Y-90.17
X185.42Y-92.71
X185.42Y-95.25
X185.42Y-97.79
X185.42Y-100.33
X185.42Y-102.87
X185.42Y-105.41
X185.42Y-107.95
X185.42Y-110.49
X185.42Y-113.03
X185.42Y-115.57
X185.42Y-118.11
X185.42Y-120.65
X185.42Y-123.19
X185.42Y-125.73
X185.42Y-128.27
X185.42Y-130.81
X185.42Y-133.35
X185.42Y-135.89
X185.42Y-138.43
X185.42Y-140.97
X185.42Y-143.51
T7
X112.7Y-125.82
X112.7Y-135.98
X166.0Y-142.3
X167.7Y-146.0
X169.4Y-142.3
X171.1Y-146.0
X171.52Y-54.0
X172.8Y-142.3
X174.06Y-54.0
X176.6Y-54.0
M30
