G04 #@! TF.GenerationSoftware,KiCad,Pcbnew,7.0.7-7.0.7~ubuntu22.04.1*
G04 #@! TF.CreationDate,2023-08-25T15:09:43-03:00*
G04 #@! TF.ProjectId,Fonte_tensao_LM675_v05,466f6e74-655f-4746-956e-73616f5f4c4d,v02*
G04 #@! TF.SameCoordinates,Original*
G04 #@! TF.FileFunction,Copper,L2,Bot*
G04 #@! TF.FilePolarity,Positive*
%FSLAX46Y46*%
G04 Gerber Fmt 4.6, Leading zero omitted, Abs format (unit mm)*
G04 Created by KiCad (PCBNEW 7.0.7-7.0.7~ubuntu22.04.1) date 2023-08-25 15:09:43*
%MOMM*%
%LPD*%
G01*
G04 APERTURE LIST*
G04 #@! TA.AperFunction,ComponentPad*
%ADD10O,2.000000X1.600000*%
G04 #@! TD*
G04 #@! TA.AperFunction,ComponentPad*
%ADD11O,1.600000X2.000000*%
G04 #@! TD*
G04 #@! TA.AperFunction,ComponentPad*
%ADD12R,1.600000X2.000000*%
G04 #@! TD*
G04 #@! TA.AperFunction,ComponentPad*
%ADD13R,2.000000X1.600000*%
G04 #@! TD*
G04 #@! TA.AperFunction,ComponentPad*
%ADD14R,7.000000X2.500000*%
G04 #@! TD*
G04 #@! TA.AperFunction,ComponentPad*
%ADD15R,1.800000X1.800000*%
G04 #@! TD*
G04 #@! TA.AperFunction,ComponentPad*
%ADD16O,1.800000X2.000000*%
G04 #@! TD*
G04 #@! TA.AperFunction,ComponentPad*
%ADD17O,2.500000X1.800000*%
G04 #@! TD*
G04 #@! TA.AperFunction,ComponentPad*
%ADD18R,2.500000X1.800000*%
G04 #@! TD*
G04 #@! TA.AperFunction,ComponentPad*
%ADD19R,4.600000X2.000000*%
G04 #@! TD*
G04 #@! TA.AperFunction,ComponentPad*
%ADD20O,4.200000X2.000000*%
G04 #@! TD*
G04 #@! TA.AperFunction,ComponentPad*
%ADD21O,2.000000X4.200000*%
G04 #@! TD*
G04 #@! TA.AperFunction,ViaPad*
%ADD22C,1.800000*%
G04 #@! TD*
G04 #@! TA.AperFunction,Conductor*
%ADD23C,1.270000*%
G04 #@! TD*
G04 APERTURE END LIST*
D10*
X173200000Y-79080000D03*
X173200000Y-68920000D03*
X115200000Y-67450000D03*
X115200000Y-64950000D03*
X117600000Y-78610000D03*
X117600000Y-70990000D03*
D11*
X127750000Y-55750000D03*
X130290000Y-55750000D03*
X132830000Y-55750000D03*
D10*
X111600000Y-70990000D03*
X111600000Y-78610000D03*
D11*
X136228900Y-62400000D03*
D12*
X133728900Y-62400000D03*
D10*
X168800000Y-141428900D03*
D13*
X168800000Y-138928900D03*
D10*
X169800000Y-59900000D03*
D13*
X169800000Y-62400000D03*
D10*
X123800000Y-70990000D03*
X123800000Y-78610000D03*
D11*
X111800000Y-60950000D03*
X113500000Y-57250000D03*
X115200000Y-60950000D03*
X116900000Y-57250000D03*
X118600000Y-60950000D03*
D10*
X130000000Y-78610000D03*
X130000000Y-70990000D03*
D14*
X158600000Y-63700000D03*
X158600000Y-70500000D03*
D15*
X160225000Y-143000000D03*
D16*
X162765000Y-143000000D03*
D17*
X185420000Y-57150000D03*
X185420000Y-59690000D03*
X185420000Y-62230000D03*
X185420000Y-64770000D03*
X185420000Y-67310000D03*
X185420000Y-69850000D03*
X185420000Y-72390000D03*
X185420000Y-74930000D03*
X185420000Y-77470000D03*
X185420000Y-80010000D03*
X185420000Y-82550000D03*
X185420000Y-85090000D03*
X185420000Y-87630000D03*
X185420000Y-90170000D03*
X185420000Y-92710000D03*
X185420000Y-95250000D03*
X185420000Y-97790000D03*
X185420000Y-100330000D03*
X185420000Y-102870000D03*
X185420000Y-105410000D03*
X185420000Y-107950000D03*
X185420000Y-110490000D03*
X185420000Y-113030000D03*
X185420000Y-115570000D03*
X185420000Y-118110000D03*
X185420000Y-120650000D03*
X185420000Y-123190000D03*
X185420000Y-125730000D03*
X185420000Y-128270000D03*
X185420000Y-130810000D03*
X185420000Y-133350000D03*
X185420000Y-135890000D03*
X185420000Y-138430000D03*
X185420000Y-140970000D03*
X185420000Y-143510000D03*
D10*
X174800000Y-141428900D03*
D13*
X174800000Y-138928900D03*
D10*
X128650000Y-138571100D03*
D13*
X128650000Y-141071100D03*
D11*
X131200000Y-145000000D03*
X128660000Y-145000000D03*
X126120000Y-145000000D03*
D15*
X153500000Y-143000000D03*
D16*
X156040000Y-143000000D03*
D11*
X126171100Y-62400000D03*
D12*
X128671100Y-62400000D03*
D18*
X106680000Y-57150000D03*
D17*
X106680000Y-59690000D03*
X106680000Y-62230000D03*
X106680000Y-64770000D03*
X106680000Y-67310000D03*
X106680000Y-69850000D03*
X106680000Y-72390000D03*
X106680000Y-74930000D03*
X106680000Y-81280000D03*
X106680000Y-83820000D03*
X106680000Y-86360000D03*
X106680000Y-88900000D03*
X106680000Y-91440000D03*
X106680000Y-93980000D03*
X106680000Y-96520000D03*
X106680000Y-99060000D03*
X106680000Y-101600000D03*
X106680000Y-104140000D03*
X106680000Y-106680000D03*
X106680000Y-109220000D03*
X106680000Y-111760000D03*
X106680000Y-114300000D03*
X106680000Y-116840000D03*
X106680000Y-119380000D03*
X106680000Y-121920000D03*
X106680000Y-124460000D03*
X106680000Y-127000000D03*
X106680000Y-129540000D03*
X106680000Y-132080000D03*
X106680000Y-134620000D03*
X106680000Y-137160000D03*
X106680000Y-139700000D03*
X106680000Y-142240000D03*
X106680000Y-144780000D03*
X106680000Y-147320000D03*
D11*
X128930000Y-133800000D03*
X118770000Y-133800000D03*
X140320000Y-131800000D03*
X150480000Y-131800000D03*
X175790000Y-145000000D03*
X173250000Y-145000000D03*
X170710000Y-145000000D03*
D10*
X176800000Y-59750000D03*
X176800000Y-62250000D03*
X162694700Y-126581200D03*
X162694700Y-134201200D03*
X147600000Y-140300000D03*
D13*
X147600000Y-137800000D03*
D11*
X110990000Y-83800000D03*
X118610000Y-83800000D03*
X145680000Y-71600000D03*
X135520000Y-71600000D03*
X169910000Y-55695000D03*
X172450000Y-55695000D03*
X174990000Y-55695000D03*
X142050000Y-140000000D03*
X139550000Y-140000000D03*
D10*
X119600000Y-142400000D03*
D13*
X119600000Y-144900000D03*
D11*
X148565100Y-145000000D03*
X146025100Y-145000000D03*
X143485100Y-145000000D03*
D19*
X145873400Y-65255400D03*
D20*
X145873400Y-58955400D03*
D21*
X141073400Y-62355400D03*
D10*
X156000000Y-126630000D03*
X156000000Y-134250000D03*
D22*
X103797100Y-76619100D03*
X122843800Y-56102500D03*
D23*
X174990000Y-53832000D02*
X174990000Y-55695000D01*
X108204000Y-67310000D02*
X109200000Y-66314000D01*
X174244000Y-53086000D02*
X174990000Y-53832000D01*
X113538000Y-53086000D02*
X174244000Y-53086000D01*
X109200000Y-57424000D02*
X113538000Y-53086000D01*
X106680000Y-67310000D02*
X108204000Y-67310000D01*
X109200000Y-66314000D02*
X109200000Y-57424000D01*
X106680000Y-74930000D02*
X129820000Y-74930000D01*
X129820000Y-74930000D02*
X133150000Y-71600000D01*
X135520000Y-71600000D02*
X133150000Y-71600000D01*
X169164000Y-73152000D02*
X118770000Y-123546000D01*
X185420000Y-59690000D02*
X182372000Y-59690000D01*
X180340000Y-61722000D02*
X180340000Y-67564000D01*
X174752000Y-73152000D02*
X169164000Y-73152000D01*
X118770000Y-123546000D02*
X118770000Y-133800000D01*
X180340000Y-67564000D02*
X174752000Y-73152000D01*
X182372000Y-59690000D02*
X180340000Y-61722000D01*
X164592000Y-69088000D02*
X164592000Y-63038000D01*
X158600000Y-70500000D02*
X163180000Y-70500000D01*
X165601100Y-140300000D02*
X166730000Y-141428900D01*
X156215000Y-70500000D02*
X153830000Y-70500000D01*
X164649300Y-140300000D02*
X165601100Y-140300000D01*
X169910000Y-55695000D02*
X169910000Y-59790000D01*
X167730000Y-59900000D02*
X169800000Y-59900000D01*
X125790200Y-68999800D02*
X152329800Y-68999800D01*
X164592000Y-63038000D02*
X167730000Y-59900000D01*
X169910000Y-59790000D02*
X169800000Y-59900000D01*
X168800000Y-141428900D02*
X166730000Y-141428900D01*
X165250000Y-139699300D02*
X164649300Y-140300000D01*
X162694700Y-126581200D02*
X165250000Y-129136500D01*
X123800000Y-70990000D02*
X125790200Y-68999800D01*
X147600000Y-140300000D02*
X164649300Y-140300000D01*
X165250000Y-129136500D02*
X165250000Y-139699300D01*
X163180000Y-70500000D02*
X164592000Y-69088000D01*
X152329800Y-68999800D02*
X153830000Y-70500000D01*
X156215000Y-70500000D02*
X158600000Y-70500000D01*
X151144200Y-142814200D02*
X129540000Y-142814200D01*
X145873400Y-58955400D02*
X130290000Y-58955400D01*
X151330000Y-143000000D02*
X151144200Y-142814200D01*
X130290000Y-60781100D02*
X128671100Y-62400000D01*
X126857500Y-64950000D02*
X115200000Y-64950000D01*
X128671100Y-62400000D02*
X128671100Y-63136400D01*
X128660000Y-145000000D02*
X128660000Y-141081100D01*
X153500000Y-143000000D02*
X151330000Y-143000000D01*
X128660000Y-141081100D02*
X128650000Y-141071100D01*
X129540000Y-142814200D02*
X128650000Y-141924200D01*
X130290000Y-58955400D02*
X130290000Y-55750000D01*
X128650000Y-141924200D02*
X128650000Y-141071100D01*
X130290000Y-58955400D02*
X130290000Y-60781100D01*
X128671100Y-63136400D02*
X126857500Y-64950000D01*
X123800000Y-78610000D02*
X130000000Y-78610000D01*
X111800000Y-70790000D02*
X111800000Y-60950000D01*
X111600000Y-70990000D02*
X111800000Y-70790000D01*
X103797100Y-76619100D02*
X105788000Y-78610000D01*
X121597300Y-54856000D02*
X122843800Y-56102500D01*
X105788000Y-78610000D02*
X111600000Y-78610000D01*
X113500000Y-57250000D02*
X115894000Y-54856000D01*
X115894000Y-54856000D02*
X121597300Y-54856000D01*
X158600000Y-63700000D02*
X153830000Y-63700000D01*
X145873400Y-65255400D02*
X152274600Y-65255400D01*
X152274600Y-65255400D02*
X153830000Y-63700000D01*
G04 #@! TA.AperFunction,Conductor*
G36*
X190443039Y-52089685D02*
G01*
X190488794Y-52142489D01*
X190500000Y-52194000D01*
X190500000Y-149736000D01*
X190480315Y-149803039D01*
X190427511Y-149848794D01*
X190376000Y-149860000D01*
X115694000Y-149860000D01*
X115626961Y-149840315D01*
X115581206Y-149787511D01*
X115570000Y-149736000D01*
X115570000Y-145747870D01*
X118099500Y-145747870D01*
X118099501Y-145747876D01*
X118105908Y-145807483D01*
X118156202Y-145942328D01*
X118156206Y-145942335D01*
X118242452Y-146057544D01*
X118242455Y-146057547D01*
X118357664Y-146143793D01*
X118357671Y-146143797D01*
X118492517Y-146194091D01*
X118492516Y-146194091D01*
X118499444Y-146194835D01*
X118552127Y-146200500D01*
X120647872Y-146200499D01*
X120707483Y-146194091D01*
X120842331Y-146143796D01*
X120957546Y-146057546D01*
X121043796Y-145942331D01*
X121094091Y-145807483D01*
X121100500Y-145747873D01*
X121100500Y-145256784D01*
X124819500Y-145256784D01*
X124834364Y-145426687D01*
X124834366Y-145426697D01*
X124893258Y-145646488D01*
X124893261Y-145646497D01*
X124989431Y-145852732D01*
X124989432Y-145852734D01*
X125119954Y-146039141D01*
X125280858Y-146200045D01*
X125281508Y-146200500D01*
X125467266Y-146330568D01*
X125673504Y-146426739D01*
X125893308Y-146485635D01*
X126055230Y-146499801D01*
X126119998Y-146505468D01*
X126120000Y-146505468D01*
X126120002Y-146505468D01*
X126176672Y-146500509D01*
X126346692Y-146485635D01*
X126566496Y-146426739D01*
X126772734Y-146330568D01*
X126959139Y-146200047D01*
X127120047Y-146039139D01*
X127250568Y-145852734D01*
X127277618Y-145794724D01*
X127323790Y-145742285D01*
X127390983Y-145723133D01*
X127457865Y-145743348D01*
X127502381Y-145794724D01*
X127502396Y-145794755D01*
X127529429Y-145852728D01*
X127529432Y-145852734D01*
X127659954Y-146039141D01*
X127820858Y-146200045D01*
X127821508Y-146200500D01*
X128007266Y-146330568D01*
X128213504Y-146426739D01*
X128433308Y-146485635D01*
X128595230Y-146499801D01*
X128659998Y-146505468D01*
X128660000Y-146505468D01*
X128660002Y-146505468D01*
X128716673Y-146500509D01*
X128886692Y-146485635D01*
X129106496Y-146426739D01*
X129312734Y-146330568D01*
X129499139Y-146200047D01*
X129660047Y-146039139D01*
X129790568Y-145852734D01*
X129886739Y-145646496D01*
X129945635Y-145426692D01*
X129960500Y-145256784D01*
X129960500Y-144743216D01*
X129945635Y-144573308D01*
X129897614Y-144394091D01*
X129886741Y-144353511D01*
X129886740Y-144353510D01*
X129886739Y-144353504D01*
X129817619Y-144205276D01*
X129807118Y-144182756D01*
X129795500Y-144130351D01*
X129795500Y-144073700D01*
X129815185Y-144006661D01*
X129867989Y-143960906D01*
X129919500Y-143949700D01*
X142254668Y-143949700D01*
X142321707Y-143969385D01*
X142367462Y-144022189D01*
X142377406Y-144091347D01*
X142357150Y-144142529D01*
X142357238Y-144142580D01*
X142356896Y-144143170D01*
X142356243Y-144144823D01*
X142354532Y-144147265D01*
X142354531Y-144147267D01*
X142258361Y-144353502D01*
X142258358Y-144353511D01*
X142199466Y-144573302D01*
X142199464Y-144573312D01*
X142184600Y-144743216D01*
X142184600Y-145256784D01*
X142199464Y-145426687D01*
X142199466Y-145426697D01*
X142258358Y-145646488D01*
X142258361Y-145646497D01*
X142354531Y-145852732D01*
X142354532Y-145852734D01*
X142485054Y-146039141D01*
X142645958Y-146200045D01*
X142646608Y-146200500D01*
X142832366Y-146330568D01*
X143038604Y-146426739D01*
X143258408Y-146485635D01*
X143420330Y-146499801D01*
X143485098Y-146505468D01*
X143485100Y-146505468D01*
X143485102Y-146505468D01*
X143541773Y-146500509D01*
X143711792Y-146485635D01*
X143931596Y-146426739D01*
X144137834Y-146330568D01*
X144324239Y-146200047D01*
X144485147Y-146039139D01*
X144615668Y-145852734D01*
X144711839Y-145646496D01*
X144770735Y-145426692D01*
X144785600Y-145256784D01*
X144785600Y-144743216D01*
X144770735Y-144573308D01*
X144722714Y-144394091D01*
X144711841Y-144353511D01*
X144711838Y-144353502D01*
X144708244Y-144345795D01*
X144615668Y-144147266D01*
X144613956Y-144144821D01*
X144613535Y-144143573D01*
X144612962Y-144142580D01*
X144613161Y-144142464D01*
X144591630Y-144078617D01*
X144608640Y-144010850D01*
X144659588Y-143963037D01*
X144715532Y-143949700D01*
X147334668Y-143949700D01*
X147401707Y-143969385D01*
X147447462Y-144022189D01*
X147457406Y-144091347D01*
X147437150Y-144142529D01*
X147437238Y-144142580D01*
X147436896Y-144143170D01*
X147436243Y-144144823D01*
X147434532Y-144147265D01*
X147434531Y-144147267D01*
X147338361Y-144353502D01*
X147338358Y-144353511D01*
X147279466Y-144573302D01*
X147279464Y-144573312D01*
X147264600Y-144743216D01*
X147264600Y-145256784D01*
X147279464Y-145426687D01*
X147279466Y-145426697D01*
X147338358Y-145646488D01*
X147338361Y-145646497D01*
X147434531Y-145852732D01*
X147434532Y-145852734D01*
X147565054Y-146039141D01*
X147725958Y-146200045D01*
X147726608Y-146200500D01*
X147912366Y-146330568D01*
X148118604Y-146426739D01*
X148338408Y-146485635D01*
X148500330Y-146499801D01*
X148565098Y-146505468D01*
X148565100Y-146505468D01*
X148565102Y-146505468D01*
X148621772Y-146500509D01*
X148791792Y-146485635D01*
X149011596Y-146426739D01*
X149217834Y-146330568D01*
X149404239Y-146200047D01*
X149565147Y-146039139D01*
X149695668Y-145852734D01*
X149791839Y-145646496D01*
X149850735Y-145426692D01*
X149865600Y-145256784D01*
X169409500Y-145256784D01*
X169424364Y-145426687D01*
X169424366Y-145426697D01*
X169483258Y-145646488D01*
X169483261Y-145646497D01*
X169579431Y-145852732D01*
X169579432Y-145852734D01*
X169709954Y-146039141D01*
X169870858Y-146200045D01*
X169871508Y-146200500D01*
X170057266Y-146330568D01*
X170263504Y-146426739D01*
X170483308Y-146485635D01*
X170645230Y-146499801D01*
X170709998Y-146505468D01*
X170710000Y-146505468D01*
X170710002Y-146505468D01*
X170766672Y-146500509D01*
X170936692Y-146485635D01*
X171156496Y-146426739D01*
X171362734Y-146330568D01*
X171549139Y-146200047D01*
X171710047Y-146039139D01*
X171840568Y-145852734D01*
X171867618Y-145794724D01*
X171913790Y-145742285D01*
X171980983Y-145723133D01*
X172047865Y-145743348D01*
X172092381Y-145794724D01*
X172092396Y-145794755D01*
X172119429Y-145852728D01*
X172119432Y-145852734D01*
X172249954Y-146039141D01*
X172410858Y-146200045D01*
X172411508Y-146200500D01*
X172597266Y-146330568D01*
X172803504Y-146426739D01*
X173023308Y-146485635D01*
X173185230Y-146499801D01*
X173249998Y-146505468D01*
X173250000Y-146505468D01*
X173250002Y-146505468D01*
X173306672Y-146500509D01*
X173476692Y-146485635D01*
X173696496Y-146426739D01*
X173902734Y-146330568D01*
X174089139Y-146200047D01*
X174250047Y-146039139D01*
X174380568Y-145852734D01*
X174476739Y-145646496D01*
X174535635Y-145426692D01*
X174550500Y-145256784D01*
X174550500Y-144743216D01*
X174535635Y-144573308D01*
X174487614Y-144394091D01*
X174476741Y-144353511D01*
X174476738Y-144353502D01*
X174473144Y-144345795D01*
X174380568Y-144147266D01*
X174250047Y-143960861D01*
X174250045Y-143960858D01*
X174089141Y-143799954D01*
X173902734Y-143669432D01*
X173902732Y-143669431D01*
X173696497Y-143573261D01*
X173696488Y-143573258D01*
X173476697Y-143514366D01*
X173476693Y-143514365D01*
X173476692Y-143514365D01*
X173476691Y-143514364D01*
X173476686Y-143514364D01*
X173250002Y-143494532D01*
X173249998Y-143494532D01*
X173023313Y-143514364D01*
X173023302Y-143514366D01*
X172803511Y-143573258D01*
X172803502Y-143573261D01*
X172597267Y-143669431D01*
X172597265Y-143669432D01*
X172410858Y-143799954D01*
X172249954Y-143960858D01*
X172119432Y-144147265D01*
X172119431Y-144147267D01*
X172092382Y-144205275D01*
X172046209Y-144257714D01*
X171979016Y-144276866D01*
X171912135Y-144256650D01*
X171867618Y-144205275D01*
X171857117Y-144182756D01*
X171840568Y-144147266D01*
X171710047Y-143960861D01*
X171710045Y-143960858D01*
X171549141Y-143799954D01*
X171362734Y-143669432D01*
X171362732Y-143669431D01*
X171156497Y-143573261D01*
X171156488Y-143573258D01*
X170936697Y-143514366D01*
X170936693Y-143514365D01*
X170936692Y-143514365D01*
X170936691Y-143514364D01*
X170936686Y-143514364D01*
X170710002Y-143494532D01*
X170709998Y-143494532D01*
X170483313Y-143514364D01*
X170483302Y-143514366D01*
X170263511Y-143573258D01*
X170263502Y-143573261D01*
X170057267Y-143669431D01*
X170057265Y-143669432D01*
X169870858Y-143799954D01*
X169709954Y-143960858D01*
X169579432Y-144147265D01*
X169579431Y-144147267D01*
X169483261Y-144353502D01*
X169483258Y-144353511D01*
X169424366Y-144573302D01*
X169424364Y-144573312D01*
X169409500Y-144743216D01*
X169409500Y-145256784D01*
X149865600Y-145256784D01*
X149865600Y-144743216D01*
X149850735Y-144573308D01*
X149802714Y-144394091D01*
X149791841Y-144353511D01*
X149791838Y-144353502D01*
X149788244Y-144345795D01*
X149695668Y-144147266D01*
X149693956Y-144144821D01*
X149693535Y-144143573D01*
X149692962Y-144142580D01*
X149693161Y-144142464D01*
X149671630Y-144078617D01*
X149688640Y-144010850D01*
X149739588Y-143963037D01*
X149795532Y-143949700D01*
X150668264Y-143949700D01*
X150727689Y-143964867D01*
X150748276Y-143976108D01*
X150752070Y-143978358D01*
X150807317Y-144013863D01*
X150841761Y-144027652D01*
X150848415Y-144030788D01*
X150880977Y-144048568D01*
X150943536Y-144068565D01*
X150947674Y-144070053D01*
X151008638Y-144094460D01*
X151045070Y-144101482D01*
X151052199Y-144103301D01*
X151077338Y-144111337D01*
X151087534Y-144114597D01*
X151152723Y-144122391D01*
X151157098Y-144123073D01*
X151221567Y-144135499D01*
X151221568Y-144135499D01*
X151221573Y-144135500D01*
X151258663Y-144135500D01*
X151266030Y-144135939D01*
X151268677Y-144136255D01*
X151302855Y-144140342D01*
X151368348Y-144135657D01*
X151372770Y-144135500D01*
X152089021Y-144135500D01*
X152156060Y-144155185D01*
X152188286Y-144185187D01*
X152242454Y-144257546D01*
X152242680Y-144257715D01*
X152357664Y-144343793D01*
X152357671Y-144343797D01*
X152492517Y-144394091D01*
X152492516Y-144394091D01*
X152499444Y-144394835D01*
X152552127Y-144400500D01*
X154447872Y-144400499D01*
X154507483Y-144394091D01*
X154642331Y-144343796D01*
X154757546Y-144257546D01*
X154843796Y-144142331D01*
X154846293Y-144135633D01*
X154888162Y-144079699D01*
X154953625Y-144055279D01*
X155021899Y-144070128D01*
X155052000Y-144093163D01*
X155103854Y-144147267D01*
X155111379Y-144155118D01*
X155303053Y-144296879D01*
X155515926Y-144404207D01*
X155743877Y-144474016D01*
X155980346Y-144504298D01*
X156218532Y-144494180D01*
X156451581Y-144443954D01*
X156672790Y-144355064D01*
X156875795Y-144230069D01*
X157054755Y-144072564D01*
X157204523Y-143887080D01*
X157320790Y-143678954D01*
X157400211Y-143454171D01*
X157421250Y-143331467D01*
X157440499Y-143219209D01*
X157440500Y-143219198D01*
X157440500Y-142840498D01*
X157425347Y-142662463D01*
X157365275Y-142431751D01*
X157267080Y-142214519D01*
X157267075Y-142214511D01*
X157133586Y-142017006D01*
X157133582Y-142017001D01*
X157133579Y-142016997D01*
X156968621Y-141844882D01*
X156956376Y-141835826D01*
X156885500Y-141783406D01*
X156776947Y-141703121D01*
X156711696Y-141670222D01*
X156660698Y-141622465D01*
X156643614Y-141554716D01*
X156665871Y-141488486D01*
X156720401Y-141444802D01*
X156767522Y-141435500D01*
X162034465Y-141435500D01*
X162101504Y-141455185D01*
X162147259Y-141507989D01*
X162157203Y-141577147D01*
X162128178Y-141640703D01*
X162099482Y-141665087D01*
X161973832Y-141742453D01*
X161929203Y-141769932D01*
X161750245Y-141927435D01*
X161677929Y-142016997D01*
X161600477Y-142112920D01*
X161600475Y-142112922D01*
X161600476Y-142112922D01*
X161484210Y-142321044D01*
X161404788Y-142545829D01*
X161364500Y-142780790D01*
X161364500Y-143159502D01*
X161379652Y-143337536D01*
X161439724Y-143568248D01*
X161537919Y-143785480D01*
X161537924Y-143785488D01*
X161671413Y-143982993D01*
X161671418Y-143982998D01*
X161671421Y-143983003D01*
X161836379Y-144155118D01*
X162028053Y-144296879D01*
X162240926Y-144404207D01*
X162468877Y-144474016D01*
X162705346Y-144504298D01*
X162943532Y-144494180D01*
X163176581Y-144443954D01*
X163397790Y-144355064D01*
X163600795Y-144230069D01*
X163779755Y-144072564D01*
X163929523Y-143887080D01*
X164045790Y-143678954D01*
X164125211Y-143454171D01*
X164125867Y-143450346D01*
X183665702Y-143450346D01*
X183675819Y-143688528D01*
X183675819Y-143688532D01*
X183726045Y-143921580D01*
X183814935Y-144142788D01*
X183814936Y-144142790D01*
X183938700Y-144343796D01*
X183939932Y-144345796D01*
X184079431Y-144504298D01*
X184097436Y-144524755D01*
X184282920Y-144674523D01*
X184491046Y-144790790D01*
X184715829Y-144870211D01*
X184950790Y-144910499D01*
X184950798Y-144910499D01*
X184950800Y-144910500D01*
X184950801Y-144910500D01*
X185829502Y-144910500D01*
X186007536Y-144895347D01*
X186007539Y-144895346D01*
X186007541Y-144895346D01*
X186238249Y-144835275D01*
X186370973Y-144775279D01*
X186455480Y-144737080D01*
X186455481Y-144737078D01*
X186455486Y-144737077D01*
X186653003Y-144603579D01*
X186825118Y-144438621D01*
X186966879Y-144246947D01*
X187074207Y-144034074D01*
X187144016Y-143806123D01*
X187174298Y-143569654D01*
X187164180Y-143331468D01*
X187113954Y-143098419D01*
X187025064Y-142877210D01*
X186900069Y-142674205D01*
X186742564Y-142495245D01*
X186557080Y-142345477D01*
X186440255Y-142280214D01*
X186348955Y-142229210D01*
X186124170Y-142149788D01*
X185889209Y-142109500D01*
X185889200Y-142109500D01*
X185010503Y-142109500D01*
X185010498Y-142109500D01*
X184832463Y-142124652D01*
X184601751Y-142184724D01*
X184384519Y-142282919D01*
X184384511Y-142282924D01*
X184187006Y-142416413D01*
X184186997Y-142416421D01*
X184014881Y-142581379D01*
X183873123Y-142773050D01*
X183873120Y-142773054D01*
X183765796Y-142985920D01*
X183765793Y-142985926D01*
X183695983Y-143213878D01*
X183665702Y-143450346D01*
X164125867Y-143450346D01*
X164146250Y-143331467D01*
X164165499Y-143219209D01*
X164165500Y-143219198D01*
X164165500Y-142840498D01*
X164150347Y-142662463D01*
X164090275Y-142431751D01*
X163992080Y-142214519D01*
X163992075Y-142214511D01*
X163858586Y-142017006D01*
X163858582Y-142017001D01*
X163858579Y-142016997D01*
X163693621Y-141844882D01*
X163681376Y-141835826D01*
X163610500Y-141783406D01*
X163501947Y-141703121D01*
X163436696Y-141670222D01*
X163385698Y-141622465D01*
X163368614Y-141554716D01*
X163390871Y-141488486D01*
X163445401Y-141444802D01*
X163492522Y-141435500D01*
X164540873Y-141435500D01*
X164544138Y-141435500D01*
X164564702Y-141437216D01*
X164567926Y-141437759D01*
X164660756Y-141435549D01*
X164662819Y-141435500D01*
X165079399Y-141435500D01*
X165146438Y-141455185D01*
X165167080Y-141471819D01*
X165852717Y-142157456D01*
X165866042Y-142173208D01*
X165867943Y-142175877D01*
X165877222Y-142184724D01*
X165936642Y-142241382D01*
X165965323Y-142270063D01*
X165965335Y-142270074D01*
X165974058Y-142277276D01*
X165977368Y-142280214D01*
X165993141Y-142295252D01*
X166024888Y-142325523D01*
X166042430Y-142336797D01*
X166056083Y-142345572D01*
X166062041Y-142349922D01*
X166086667Y-142370254D01*
X166090648Y-142373541D01*
X166148284Y-142405012D01*
X166152085Y-142407268D01*
X166207317Y-142442763D01*
X166241761Y-142456552D01*
X166248415Y-142459688D01*
X166280977Y-142477468D01*
X166343536Y-142497465D01*
X166347674Y-142498953D01*
X166408638Y-142523360D01*
X166445070Y-142530382D01*
X166452199Y-142532201D01*
X166477338Y-142540237D01*
X166487534Y-142543497D01*
X166552723Y-142551291D01*
X166557098Y-142551973D01*
X166621567Y-142564399D01*
X166621568Y-142564399D01*
X166621573Y-142564400D01*
X166658663Y-142564400D01*
X166666030Y-142564839D01*
X166668677Y-142565155D01*
X166702855Y-142569242D01*
X166768348Y-142564557D01*
X166772770Y-142564400D01*
X167930353Y-142564400D01*
X167982757Y-142576017D01*
X168153504Y-142655639D01*
X168153509Y-142655640D01*
X168153511Y-142655641D01*
X168206415Y-142669816D01*
X168373308Y-142714535D01*
X168543216Y-142729400D01*
X169056784Y-142729400D01*
X169226692Y-142714535D01*
X169446496Y-142655639D01*
X169652734Y-142559468D01*
X169839139Y-142428947D01*
X170000047Y-142268039D01*
X170130568Y-142081634D01*
X170226739Y-141875396D01*
X170285635Y-141655592D01*
X170305468Y-141428901D01*
X173294532Y-141428901D01*
X173314364Y-141655586D01*
X173314366Y-141655597D01*
X173373258Y-141875388D01*
X173373261Y-141875397D01*
X173469431Y-142081632D01*
X173469432Y-142081634D01*
X173599954Y-142268041D01*
X173760858Y-142428945D01*
X173770531Y-142435718D01*
X173947266Y-142559468D01*
X174153504Y-142655639D01*
X174153509Y-142655640D01*
X174153511Y-142655641D01*
X174206415Y-142669816D01*
X174373308Y-142714535D01*
X174543216Y-142729400D01*
X175056784Y-142729400D01*
X175226692Y-142714535D01*
X175446496Y-142655639D01*
X175652734Y-142559468D01*
X175839139Y-142428947D01*
X176000047Y-142268039D01*
X176130568Y-142081634D01*
X176226739Y-141875396D01*
X176285635Y-141655592D01*
X176305468Y-141428900D01*
X176285635Y-141202208D01*
X176226739Y-140982404D01*
X176130568Y-140776166D01*
X176000047Y-140589761D01*
X176000045Y-140589758D01*
X175839141Y-140428854D01*
X175652734Y-140298332D01*
X175652732Y-140298331D01*
X175446497Y-140202161D01*
X175446488Y-140202158D01*
X175226697Y-140143266D01*
X175226687Y-140143264D01*
X175056784Y-140128400D01*
X174543216Y-140128400D01*
X174373312Y-140143264D01*
X174373302Y-140143266D01*
X174153511Y-140202158D01*
X174153502Y-140202161D01*
X173947267Y-140298331D01*
X173947265Y-140298332D01*
X173760858Y-140428854D01*
X173599954Y-140589758D01*
X173469432Y-140776165D01*
X173469431Y-140776167D01*
X173373261Y-140982402D01*
X173373258Y-140982411D01*
X173314366Y-141202202D01*
X173314364Y-141202213D01*
X173294532Y-141428898D01*
X173294532Y-141428901D01*
X170305468Y-141428901D01*
X170305468Y-141428900D01*
X170285635Y-141202208D01*
X170226739Y-140982404D01*
X170130568Y-140776166D01*
X170000047Y-140589761D01*
X170000045Y-140589758D01*
X169839141Y-140428854D01*
X169652734Y-140298332D01*
X169652732Y-140298331D01*
X169446497Y-140202161D01*
X169446488Y-140202158D01*
X169226697Y-140143266D01*
X169226687Y-140143264D01*
X169056784Y-140128400D01*
X168543216Y-140128400D01*
X168373312Y-140143264D01*
X168373302Y-140143266D01*
X168153511Y-140202158D01*
X168153502Y-140202161D01*
X167982758Y-140281782D01*
X167930353Y-140293400D01*
X167251701Y-140293400D01*
X167184662Y-140273715D01*
X167164020Y-140257081D01*
X166478378Y-139571438D01*
X166465054Y-139555687D01*
X166463157Y-139553023D01*
X166463153Y-139553019D01*
X166423930Y-139515620D01*
X166388995Y-139455111D01*
X166385500Y-139425877D01*
X166385500Y-138370346D01*
X183665702Y-138370346D01*
X183675819Y-138608528D01*
X183675819Y-138608532D01*
X183726045Y-138841580D01*
X183795477Y-139014365D01*
X183814936Y-139062790D01*
X183939931Y-139265795D01*
X184097436Y-139444755D01*
X184282920Y-139594523D01*
X184491046Y-139710790D01*
X184678461Y-139777008D01*
X184715829Y-139790211D01*
X184950790Y-139830499D01*
X184950798Y-139830499D01*
X184950800Y-139830500D01*
X184950801Y-139830500D01*
X185829502Y-139830500D01*
X186007536Y-139815347D01*
X186007539Y-139815346D01*
X186007541Y-139815346D01*
X186238249Y-139755275D01*
X186370973Y-139695279D01*
X186455480Y-139657080D01*
X186455481Y-139657078D01*
X186455486Y-139657077D01*
X186653003Y-139523579D01*
X186825118Y-139358621D01*
X186966879Y-139166947D01*
X187074207Y-138954074D01*
X187144016Y-138726123D01*
X187174298Y-138489654D01*
X187164180Y-138251468D01*
X187113954Y-138018419D01*
X187025064Y-137797210D01*
X186900069Y-137594205D01*
X186742564Y-137415245D01*
X186557080Y-137265477D01*
X186557074Y-137265474D01*
X186557071Y-137265471D01*
X186557057Y-137265463D01*
X186557051Y-137265457D01*
X186552709Y-137262522D01*
X186553306Y-137261638D01*
X186508134Y-137215580D01*
X186493947Y-137147165D01*
X186518999Y-137081942D01*
X186548099Y-137054481D01*
X186653003Y-136983579D01*
X186825118Y-136818621D01*
X186966879Y-136626947D01*
X187074207Y-136414074D01*
X187144016Y-136186123D01*
X187174298Y-135949654D01*
X187164180Y-135711468D01*
X187113954Y-135478419D01*
X187025064Y-135257210D01*
X186900069Y-135054205D01*
X186742564Y-134875245D01*
X186557080Y-134725477D01*
X186426865Y-134652734D01*
X186348955Y-134609210D01*
X186124170Y-134529788D01*
X185889209Y-134489500D01*
X185889200Y-134489500D01*
X185010503Y-134489500D01*
X185010498Y-134489500D01*
X184832463Y-134504652D01*
X184601751Y-134564724D01*
X184384519Y-134662919D01*
X184384511Y-134662924D01*
X184187006Y-134796413D01*
X184186997Y-134796421D01*
X184014881Y-134961379D01*
X183873123Y-135153050D01*
X183873120Y-135153054D01*
X183765796Y-135365920D01*
X183765793Y-135365926D01*
X183695983Y-135593878D01*
X183665702Y-135830346D01*
X183675819Y-136068528D01*
X183675819Y-136068532D01*
X183726045Y-136301580D01*
X183814935Y-136522788D01*
X183814936Y-136522790D01*
X183939931Y-136725795D01*
X184097436Y-136904755D01*
X184282920Y-137054523D01*
X184282935Y-137054531D01*
X184282942Y-137054538D01*
X184287291Y-137057478D01*
X184286693Y-137058362D01*
X184331861Y-137104411D01*
X184346053Y-137172824D01*
X184321005Y-137238050D01*
X184291897Y-137265520D01*
X184187007Y-137336413D01*
X184186997Y-137336421D01*
X184014881Y-137501379D01*
X183873123Y-137693050D01*
X183873120Y-137693054D01*
X183765796Y-137905920D01*
X183765793Y-137905926D01*
X183695983Y-138133878D01*
X183665702Y-138370346D01*
X166385500Y-138370346D01*
X166385500Y-130750346D01*
X183665702Y-130750346D01*
X183675819Y-130988528D01*
X183675819Y-130988532D01*
X183726045Y-131221580D01*
X183787017Y-131373312D01*
X183814936Y-131442790D01*
X183939931Y-131645795D01*
X184097436Y-131824755D01*
X184282920Y-131974523D01*
X184491046Y-132090790D01*
X184616951Y-132135275D01*
X184715829Y-132170211D01*
X184950790Y-132210499D01*
X184950798Y-132210499D01*
X184950800Y-132210500D01*
X184950801Y-132210500D01*
X185829502Y-132210500D01*
X186007536Y-132195347D01*
X186007539Y-132195346D01*
X186007541Y-132195346D01*
X186238249Y-132135275D01*
X186370973Y-132075279D01*
X186455480Y-132037080D01*
X186455481Y-132037078D01*
X186455486Y-132037077D01*
X186653003Y-131903579D01*
X186825118Y-131738621D01*
X186966879Y-131546947D01*
X187074207Y-131334074D01*
X187144016Y-131106123D01*
X187174298Y-130869654D01*
X187164180Y-130631468D01*
X187113954Y-130398419D01*
X187025064Y-130177210D01*
X186900069Y-129974205D01*
X186742564Y-129795245D01*
X186557080Y-129645477D01*
X186557074Y-129645474D01*
X186557071Y-129645471D01*
X186557057Y-129645463D01*
X186557051Y-129645457D01*
X186552709Y-129642522D01*
X186553306Y-129641638D01*
X186508134Y-129595580D01*
X186493947Y-129527165D01*
X186518999Y-129461942D01*
X186548099Y-129434481D01*
X186653003Y-129363579D01*
X186825118Y-129198621D01*
X186966879Y-129006947D01*
X187074207Y-128794074D01*
X187144016Y-128566123D01*
X187174298Y-128329654D01*
X187164180Y-128091468D01*
X187113954Y-127858419D01*
X187025064Y-127637210D01*
X186900069Y-127434205D01*
X186742564Y-127255245D01*
X186557080Y-127105477D01*
X186443130Y-127041820D01*
X186348955Y-126989210D01*
X186124170Y-126909788D01*
X185889209Y-126869500D01*
X185889200Y-126869500D01*
X185010503Y-126869500D01*
X185010498Y-126869500D01*
X184832463Y-126884652D01*
X184601751Y-126944724D01*
X184384519Y-127042919D01*
X184384511Y-127042924D01*
X184187006Y-127176413D01*
X184186997Y-127176421D01*
X184014881Y-127341379D01*
X183873123Y-127533050D01*
X183873120Y-127533054D01*
X183765796Y-127745920D01*
X183765793Y-127745926D01*
X183695983Y-127973878D01*
X183665702Y-128210346D01*
X183675819Y-128448528D01*
X183675819Y-128448532D01*
X183726045Y-128681580D01*
X183795932Y-128855498D01*
X183814936Y-128902790D01*
X183939931Y-129105795D01*
X184097436Y-129284755D01*
X184282920Y-129434523D01*
X184282935Y-129434531D01*
X184282942Y-129434538D01*
X184287291Y-129437478D01*
X184286693Y-129438362D01*
X184331861Y-129484411D01*
X184346053Y-129552824D01*
X184321005Y-129618050D01*
X184291897Y-129645520D01*
X184187007Y-129716413D01*
X184186997Y-129716421D01*
X184014881Y-129881379D01*
X183873123Y-130073050D01*
X183873120Y-130073054D01*
X183765796Y-130285920D01*
X183765793Y-130285926D01*
X183695983Y-130513878D01*
X183665702Y-130750346D01*
X166385500Y-130750346D01*
X166385500Y-129241662D01*
X166387218Y-129221095D01*
X166387757Y-129217885D01*
X166387759Y-129217874D01*
X166385500Y-129122982D01*
X166385500Y-129082409D01*
X166384423Y-129071135D01*
X166384160Y-129066723D01*
X166382598Y-129001081D01*
X166374716Y-128964847D01*
X166373578Y-128957555D01*
X166370053Y-128920637D01*
X166370052Y-128920636D01*
X166370052Y-128920628D01*
X166351546Y-128857604D01*
X166350460Y-128853346D01*
X166336502Y-128789183D01*
X166321900Y-128755085D01*
X166319408Y-128748154D01*
X166308957Y-128712558D01*
X166278863Y-128654185D01*
X166276983Y-128650195D01*
X166251137Y-128589837D01*
X166230343Y-128559114D01*
X166226587Y-128552785D01*
X166209588Y-128519810D01*
X166209587Y-128519808D01*
X166209584Y-128519804D01*
X166185923Y-128489718D01*
X166168995Y-128468192D01*
X166166390Y-128464625D01*
X166155498Y-128448532D01*
X166129589Y-128410250D01*
X166103356Y-128384017D01*
X166098465Y-128378505D01*
X166075538Y-128349351D01*
X166033498Y-128312923D01*
X166025907Y-128306345D01*
X166022667Y-128303328D01*
X164222457Y-126503117D01*
X164188972Y-126441794D01*
X164186611Y-126426250D01*
X164180335Y-126354508D01*
X164121439Y-126134704D01*
X164025268Y-125928466D01*
X163927539Y-125788893D01*
X163894745Y-125742058D01*
X163733841Y-125581154D01*
X163547434Y-125450632D01*
X163547432Y-125450631D01*
X163341197Y-125354461D01*
X163341188Y-125354458D01*
X163121397Y-125295566D01*
X163121387Y-125295564D01*
X162951484Y-125280700D01*
X162437916Y-125280700D01*
X162268012Y-125295564D01*
X162268002Y-125295566D01*
X162048211Y-125354458D01*
X162048202Y-125354461D01*
X161841967Y-125450631D01*
X161841965Y-125450632D01*
X161655558Y-125581154D01*
X161494654Y-125742058D01*
X161364132Y-125928465D01*
X161364131Y-125928467D01*
X161267961Y-126134702D01*
X161267958Y-126134711D01*
X161209066Y-126354502D01*
X161209064Y-126354513D01*
X161189232Y-126581198D01*
X161189232Y-126581201D01*
X161209064Y-126807886D01*
X161209066Y-126807897D01*
X161267958Y-127027688D01*
X161267961Y-127027697D01*
X161364131Y-127233932D01*
X161364132Y-127233934D01*
X161494654Y-127420341D01*
X161655558Y-127581245D01*
X161655561Y-127581247D01*
X161841966Y-127711768D01*
X162048204Y-127807939D01*
X162268008Y-127866835D01*
X162339744Y-127873110D01*
X162404812Y-127898561D01*
X162416618Y-127908957D01*
X164078182Y-129570521D01*
X164111666Y-129631842D01*
X164114500Y-129658200D01*
X164114499Y-133283264D01*
X164094814Y-133350303D01*
X164042010Y-133396058D01*
X163972852Y-133406002D01*
X163909296Y-133376977D01*
X163895505Y-133362964D01*
X163894744Y-133362057D01*
X163733841Y-133201154D01*
X163547434Y-133070632D01*
X163547432Y-133070631D01*
X163341197Y-132974461D01*
X163341188Y-132974458D01*
X163121397Y-132915566D01*
X163121387Y-132915564D01*
X162951484Y-132900700D01*
X162437916Y-132900700D01*
X162268012Y-132915564D01*
X162268002Y-132915566D01*
X162048211Y-132974458D01*
X162048202Y-132974461D01*
X161841967Y-133070631D01*
X161841965Y-133070632D01*
X161655558Y-133201154D01*
X161494654Y-133362058D01*
X161364132Y-133548465D01*
X161364131Y-133548467D01*
X161267961Y-133754702D01*
X161267958Y-133754711D01*
X161209066Y-133974502D01*
X161209064Y-133974513D01*
X161189232Y-134201198D01*
X161189232Y-134201201D01*
X161209064Y-134427886D01*
X161209066Y-134427897D01*
X161267958Y-134647688D01*
X161267961Y-134647697D01*
X161364131Y-134853932D01*
X161364132Y-134853934D01*
X161494654Y-135040341D01*
X161655558Y-135201245D01*
X161655561Y-135201247D01*
X161841966Y-135331768D01*
X162048204Y-135427939D01*
X162268008Y-135486835D01*
X162437916Y-135501700D01*
X162951484Y-135501700D01*
X163121392Y-135486835D01*
X163341196Y-135427939D01*
X163547434Y-135331768D01*
X163733839Y-135201247D01*
X163894747Y-135040339D01*
X163894752Y-135040330D01*
X163895507Y-135039433D01*
X163895946Y-135039140D01*
X163898576Y-135036511D01*
X163899104Y-135037039D01*
X163953677Y-135000729D01*
X164023538Y-134999617D01*
X164082910Y-135036452D01*
X164112942Y-135099538D01*
X164114500Y-135119135D01*
X164114500Y-139040500D01*
X164094815Y-139107539D01*
X164042011Y-139153294D01*
X163990500Y-139164500D01*
X148469647Y-139164500D01*
X148417242Y-139152882D01*
X148246497Y-139073261D01*
X148246488Y-139073258D01*
X148026697Y-139014366D01*
X148026687Y-139014364D01*
X147856784Y-138999500D01*
X147343216Y-138999500D01*
X147173312Y-139014364D01*
X147173302Y-139014366D01*
X146953511Y-139073258D01*
X146953502Y-139073261D01*
X146747267Y-139169431D01*
X146747265Y-139169432D01*
X146560858Y-139299954D01*
X146399954Y-139460858D01*
X146269432Y-139647265D01*
X146269431Y-139647267D01*
X146173261Y-139853502D01*
X146173258Y-139853511D01*
X146114366Y-140073302D01*
X146114364Y-140073313D01*
X146094532Y-140299998D01*
X146094532Y-140300001D01*
X146114364Y-140526686D01*
X146114366Y-140526697D01*
X146173258Y-140746488D01*
X146173261Y-140746497D01*
X146269431Y-140952732D01*
X146269432Y-140952734D01*
X146399954Y-141139141D01*
X146560858Y-141300045D01*
X146560861Y-141300047D01*
X146747266Y-141430568D01*
X146772466Y-141442319D01*
X146824903Y-141488491D01*
X146844055Y-141555685D01*
X146823839Y-141622566D01*
X146770673Y-141667900D01*
X146720059Y-141678700D01*
X142498039Y-141678700D01*
X142431000Y-141659015D01*
X142385245Y-141606211D01*
X142375301Y-141537053D01*
X142404326Y-141473497D01*
X142463104Y-141435723D01*
X142465946Y-141434925D01*
X142488438Y-141428898D01*
X142496496Y-141426739D01*
X142702734Y-141330568D01*
X142889139Y-141200047D01*
X143050047Y-141039139D01*
X143180568Y-140852734D01*
X143276739Y-140646496D01*
X143335635Y-140426692D01*
X143350500Y-140256784D01*
X143350500Y-139743216D01*
X143335635Y-139573308D01*
X143276739Y-139353504D01*
X143180568Y-139147266D01*
X143050047Y-138960861D01*
X143050045Y-138960858D01*
X142889141Y-138799954D01*
X142702734Y-138669432D01*
X142702732Y-138669431D01*
X142496497Y-138573261D01*
X142496488Y-138573258D01*
X142276697Y-138514366D01*
X142276693Y-138514365D01*
X142276692Y-138514365D01*
X142276691Y-138514364D01*
X142276686Y-138514364D01*
X142050002Y-138494532D01*
X142049998Y-138494532D01*
X141823313Y-138514364D01*
X141823302Y-138514366D01*
X141603511Y-138573258D01*
X141603502Y-138573261D01*
X141397267Y-138669431D01*
X141397265Y-138669432D01*
X141210858Y-138799954D01*
X141049954Y-138960858D01*
X140919432Y-139147265D01*
X140919431Y-139147267D01*
X140823261Y-139353502D01*
X140823258Y-139353511D01*
X140764366Y-139573302D01*
X140764364Y-139573312D01*
X140749500Y-139743216D01*
X140749500Y-140256784D01*
X140764364Y-140426687D01*
X140764366Y-140426697D01*
X140823258Y-140646488D01*
X140823261Y-140646497D01*
X140919431Y-140852732D01*
X140919432Y-140852734D01*
X141049954Y-141039141D01*
X141210858Y-141200045D01*
X141210861Y-141200047D01*
X141397266Y-141330568D01*
X141603504Y-141426739D01*
X141603509Y-141426740D01*
X141603511Y-141426741D01*
X141634054Y-141434925D01*
X141693714Y-141471290D01*
X141724244Y-141534136D01*
X141715950Y-141603512D01*
X141671465Y-141657390D01*
X141604913Y-141678665D01*
X141601961Y-141678700D01*
X130274500Y-141678700D01*
X130207461Y-141659015D01*
X130161706Y-141606211D01*
X130150500Y-141554700D01*
X130150499Y-140223229D01*
X130150498Y-140223223D01*
X130150497Y-140223216D01*
X130144091Y-140163617D01*
X130136500Y-140143265D01*
X130093797Y-140028771D01*
X130093793Y-140028764D01*
X130007547Y-139913555D01*
X130007544Y-139913552D01*
X129892335Y-139827306D01*
X129892328Y-139827302D01*
X129757482Y-139777008D01*
X129757483Y-139777008D01*
X129697883Y-139770601D01*
X129697881Y-139770600D01*
X129697873Y-139770600D01*
X129697864Y-139770600D01*
X127602129Y-139770600D01*
X127602123Y-139770601D01*
X127542516Y-139777008D01*
X127407671Y-139827302D01*
X127407664Y-139827306D01*
X127292455Y-139913552D01*
X127292452Y-139913555D01*
X127206206Y-140028764D01*
X127206202Y-140028771D01*
X127155908Y-140163617D01*
X127149501Y-140223216D01*
X127149501Y-140223223D01*
X127149500Y-140223235D01*
X127149500Y-141918970D01*
X127149501Y-141918976D01*
X127155908Y-141978583D01*
X127206202Y-142113428D01*
X127206206Y-142113435D01*
X127292452Y-142228644D01*
X127292455Y-142228647D01*
X127407664Y-142314893D01*
X127407669Y-142314896D01*
X127443832Y-142328384D01*
X127499766Y-142370254D01*
X127524184Y-142435718D01*
X127524500Y-142444566D01*
X127524500Y-144130351D01*
X127512881Y-144182758D01*
X127502380Y-144205276D01*
X127456206Y-144257715D01*
X127389012Y-144276865D01*
X127322131Y-144256648D01*
X127277617Y-144205273D01*
X127267117Y-144182756D01*
X127250568Y-144147266D01*
X127120047Y-143960861D01*
X127120045Y-143960858D01*
X126959141Y-143799954D01*
X126772734Y-143669432D01*
X126772732Y-143669431D01*
X126566497Y-143573261D01*
X126566488Y-143573258D01*
X126346697Y-143514366D01*
X126346693Y-143514365D01*
X126346692Y-143514365D01*
X126346691Y-143514364D01*
X126346686Y-143514364D01*
X126120002Y-143494532D01*
X126119998Y-143494532D01*
X125893313Y-143514364D01*
X125893302Y-143514366D01*
X125673511Y-143573258D01*
X125673502Y-143573261D01*
X125467267Y-143669431D01*
X125467265Y-143669432D01*
X125280858Y-143799954D01*
X125119954Y-143960858D01*
X124989432Y-144147265D01*
X124989431Y-144147267D01*
X124893261Y-144353502D01*
X124893258Y-144353511D01*
X124834366Y-144573302D01*
X124834364Y-144573312D01*
X124819500Y-144743216D01*
X124819500Y-145256784D01*
X121100500Y-145256784D01*
X121100499Y-144052128D01*
X121094091Y-143992517D01*
X121090542Y-143983002D01*
X121043797Y-143857671D01*
X121043793Y-143857664D01*
X120957547Y-143742455D01*
X120957544Y-143742452D01*
X120842335Y-143656206D01*
X120842328Y-143656202D01*
X120707482Y-143605908D01*
X120707483Y-143605908D01*
X120647883Y-143599501D01*
X120647881Y-143599500D01*
X120647873Y-143599500D01*
X120647864Y-143599500D01*
X118552129Y-143599500D01*
X118552123Y-143599501D01*
X118492516Y-143605908D01*
X118357671Y-143656202D01*
X118357664Y-143656206D01*
X118242455Y-143742452D01*
X118242452Y-143742455D01*
X118156206Y-143857664D01*
X118156202Y-143857671D01*
X118105908Y-143992517D01*
X118099501Y-144052116D01*
X118099501Y-144052123D01*
X118099500Y-144052135D01*
X118099500Y-145747870D01*
X115570000Y-145747870D01*
X115570000Y-101724000D01*
X115589685Y-101656961D01*
X115642489Y-101611206D01*
X115694000Y-101600000D01*
X138810797Y-101600000D01*
X138877836Y-101619685D01*
X138923591Y-101672489D01*
X138933535Y-101741647D01*
X138904510Y-101805203D01*
X138898478Y-101811681D01*
X118041436Y-122668722D01*
X118025689Y-122682043D01*
X118023028Y-122683937D01*
X117957537Y-122752622D01*
X117928842Y-122781316D01*
X117928838Y-122781321D01*
X117921615Y-122790067D01*
X117918681Y-122793372D01*
X117873378Y-122840886D01*
X117873376Y-122840889D01*
X117853326Y-122872085D01*
X117848977Y-122878041D01*
X117825358Y-122906648D01*
X117793888Y-122964280D01*
X117791630Y-122968086D01*
X117756137Y-123023316D01*
X117742354Y-123057742D01*
X117739211Y-123064414D01*
X117721432Y-123096976D01*
X117721432Y-123096977D01*
X117701435Y-123159527D01*
X117699939Y-123163690D01*
X117675541Y-123224634D01*
X117675539Y-123224641D01*
X117668519Y-123261057D01*
X117666695Y-123268203D01*
X117655402Y-123303535D01*
X117647607Y-123368729D01*
X117646925Y-123373102D01*
X117634500Y-123437571D01*
X117634500Y-123474662D01*
X117634061Y-123482029D01*
X117629658Y-123518851D01*
X117629658Y-123518856D01*
X117634342Y-123584344D01*
X117634500Y-123588769D01*
X117634500Y-132930351D01*
X117622882Y-132982756D01*
X117543262Y-133153502D01*
X117543258Y-133153511D01*
X117484366Y-133373302D01*
X117484364Y-133373312D01*
X117469500Y-133543216D01*
X117469500Y-134056784D01*
X117484364Y-134226687D01*
X117484366Y-134226697D01*
X117543258Y-134446488D01*
X117543261Y-134446497D01*
X117639431Y-134652732D01*
X117639432Y-134652734D01*
X117769954Y-134839141D01*
X117930858Y-135000045D01*
X117930861Y-135000047D01*
X118117266Y-135130568D01*
X118323504Y-135226739D01*
X118543308Y-135285635D01*
X118705230Y-135299801D01*
X118769998Y-135305468D01*
X118770000Y-135305468D01*
X118770002Y-135305468D01*
X118826673Y-135300509D01*
X118996692Y-135285635D01*
X119216496Y-135226739D01*
X119422734Y-135130568D01*
X119609139Y-135000047D01*
X119770047Y-134839139D01*
X119900568Y-134652734D01*
X119996739Y-134446496D01*
X120049389Y-134250001D01*
X154494532Y-134250001D01*
X154514364Y-134476686D01*
X154514366Y-134476697D01*
X154573258Y-134696488D01*
X154573261Y-134696497D01*
X154669431Y-134902732D01*
X154669432Y-134902734D01*
X154799954Y-135089141D01*
X154960858Y-135250045D01*
X154964778Y-135252790D01*
X155147266Y-135380568D01*
X155353504Y-135476739D01*
X155353509Y-135476740D01*
X155353511Y-135476741D01*
X155391183Y-135486835D01*
X155573308Y-135535635D01*
X155743216Y-135550500D01*
X156256784Y-135550500D01*
X156426692Y-135535635D01*
X156646496Y-135476739D01*
X156852734Y-135380568D01*
X157039139Y-135250047D01*
X157200047Y-135089139D01*
X157330568Y-134902734D01*
X157426739Y-134696496D01*
X157485635Y-134476692D01*
X157505468Y-134250000D01*
X157485635Y-134023308D01*
X157426739Y-133803504D01*
X157330568Y-133597266D01*
X157200047Y-133410861D01*
X157200045Y-133410858D01*
X157039141Y-133249954D01*
X156852734Y-133119432D01*
X156852732Y-133119431D01*
X156646497Y-133023261D01*
X156646488Y-133023258D01*
X156426697Y-132964366D01*
X156426687Y-132964364D01*
X156256784Y-132949500D01*
X155743216Y-132949500D01*
X155573312Y-132964364D01*
X155573302Y-132964366D01*
X155353511Y-133023258D01*
X155353502Y-133023261D01*
X155147267Y-133119431D01*
X155147265Y-133119432D01*
X154960858Y-133249954D01*
X154799954Y-133410858D01*
X154669432Y-133597265D01*
X154669431Y-133597267D01*
X154573261Y-133803502D01*
X154573258Y-133803511D01*
X154514366Y-134023302D01*
X154514364Y-134023313D01*
X154494532Y-134249998D01*
X154494532Y-134250001D01*
X120049389Y-134250001D01*
X120055635Y-134226692D01*
X120070500Y-134056784D01*
X120070500Y-133543216D01*
X120055635Y-133373308D01*
X119996739Y-133153504D01*
X119937670Y-133026832D01*
X119917118Y-132982756D01*
X119905500Y-132930351D01*
X119905500Y-132056784D01*
X139019500Y-132056784D01*
X139034364Y-132226687D01*
X139034366Y-132226697D01*
X139093258Y-132446488D01*
X139093261Y-132446497D01*
X139189431Y-132652732D01*
X139189432Y-132652734D01*
X139319954Y-132839141D01*
X139480858Y-133000045D01*
X139480861Y-133000047D01*
X139667266Y-133130568D01*
X139873504Y-133226739D01*
X140093308Y-133285635D01*
X140255230Y-133299801D01*
X140319998Y-133305468D01*
X140320000Y-133305468D01*
X140320002Y-133305468D01*
X140376673Y-133300509D01*
X140546692Y-133285635D01*
X140766496Y-133226739D01*
X140972734Y-133130568D01*
X141159139Y-133000047D01*
X141320047Y-132839139D01*
X141450568Y-132652734D01*
X141546739Y-132446496D01*
X141605635Y-132226692D01*
X141620500Y-132056784D01*
X141620500Y-131543216D01*
X141605635Y-131373308D01*
X141546739Y-131153504D01*
X141450568Y-130947266D01*
X141324402Y-130767080D01*
X141320045Y-130760858D01*
X141159141Y-130599954D01*
X140972734Y-130469432D01*
X140972732Y-130469431D01*
X140766497Y-130373261D01*
X140766488Y-130373258D01*
X140546697Y-130314366D01*
X140546693Y-130314365D01*
X140546692Y-130314365D01*
X140546691Y-130314364D01*
X140546686Y-130314364D01*
X140320002Y-130294532D01*
X140319998Y-130294532D01*
X140093313Y-130314364D01*
X140093302Y-130314366D01*
X139873511Y-130373258D01*
X139873502Y-130373261D01*
X139667267Y-130469431D01*
X139667265Y-130469432D01*
X139480858Y-130599954D01*
X139319954Y-130760858D01*
X139189432Y-130947265D01*
X139189431Y-130947267D01*
X139093261Y-131153502D01*
X139093258Y-131153511D01*
X139034366Y-131373302D01*
X139034364Y-131373312D01*
X139019500Y-131543216D01*
X139019500Y-132056784D01*
X119905500Y-132056784D01*
X119905500Y-126630001D01*
X154494532Y-126630001D01*
X154514364Y-126856686D01*
X154514366Y-126856697D01*
X154573258Y-127076488D01*
X154573261Y-127076497D01*
X154669431Y-127282732D01*
X154669432Y-127282734D01*
X154799954Y-127469141D01*
X154960858Y-127630045D01*
X154960861Y-127630047D01*
X155147266Y-127760568D01*
X155353504Y-127856739D01*
X155353509Y-127856740D01*
X155353511Y-127856741D01*
X155391179Y-127866834D01*
X155573308Y-127915635D01*
X155743216Y-127930500D01*
X156256784Y-127930500D01*
X156426692Y-127915635D01*
X156646496Y-127856739D01*
X156852734Y-127760568D01*
X157039139Y-127630047D01*
X157200047Y-127469139D01*
X157330568Y-127282734D01*
X157426739Y-127076496D01*
X157485635Y-126856692D01*
X157505468Y-126630000D01*
X157485635Y-126403308D01*
X157426739Y-126183504D01*
X157330568Y-125977266D01*
X157200047Y-125790861D01*
X157200045Y-125790858D01*
X157039141Y-125629954D01*
X156852734Y-125499432D01*
X156852732Y-125499431D01*
X156646497Y-125403261D01*
X156646488Y-125403258D01*
X156426697Y-125344366D01*
X156426687Y-125344364D01*
X156256784Y-125329500D01*
X155743216Y-125329500D01*
X155573312Y-125344364D01*
X155573302Y-125344366D01*
X155353511Y-125403258D01*
X155353502Y-125403261D01*
X155147267Y-125499431D01*
X155147265Y-125499432D01*
X154960858Y-125629954D01*
X154799954Y-125790858D01*
X154669432Y-125977265D01*
X154669431Y-125977267D01*
X154573261Y-126183502D01*
X154573258Y-126183511D01*
X154514366Y-126403302D01*
X154514364Y-126403313D01*
X154494532Y-126629998D01*
X154494532Y-126630001D01*
X119905500Y-126630001D01*
X119905500Y-124067701D01*
X119925185Y-124000662D01*
X119941819Y-123980020D01*
X120791493Y-123130346D01*
X183665702Y-123130346D01*
X183675819Y-123368528D01*
X183675819Y-123368532D01*
X183726045Y-123601580D01*
X183774858Y-123723053D01*
X183814936Y-123822790D01*
X183939931Y-124025795D01*
X184097436Y-124204755D01*
X184282920Y-124354523D01*
X184491046Y-124470790D01*
X184715829Y-124550211D01*
X184950790Y-124590499D01*
X184950798Y-124590499D01*
X184950800Y-124590500D01*
X184950801Y-124590500D01*
X185829502Y-124590500D01*
X186007536Y-124575347D01*
X186007539Y-124575346D01*
X186007541Y-124575346D01*
X186238249Y-124515275D01*
X186370973Y-124455279D01*
X186455480Y-124417080D01*
X186455481Y-124417078D01*
X186455486Y-124417077D01*
X186653003Y-124283579D01*
X186825118Y-124118621D01*
X186966879Y-123926947D01*
X187074207Y-123714074D01*
X187144016Y-123486123D01*
X187174298Y-123249654D01*
X187173235Y-123224641D01*
X187164180Y-123011471D01*
X187164180Y-123011467D01*
X187113954Y-122778419D01*
X187075990Y-122683943D01*
X187025064Y-122557210D01*
X186900069Y-122354205D01*
X186742564Y-122175245D01*
X186557080Y-122025477D01*
X186557074Y-122025474D01*
X186557071Y-122025471D01*
X186557057Y-122025463D01*
X186557051Y-122025457D01*
X186552709Y-122022522D01*
X186553306Y-122021638D01*
X186508134Y-121975580D01*
X186493947Y-121907165D01*
X186518999Y-121841942D01*
X186548099Y-121814481D01*
X186653003Y-121743579D01*
X186825118Y-121578621D01*
X186966879Y-121386947D01*
X187074207Y-121174074D01*
X187144016Y-120946123D01*
X187174298Y-120709654D01*
X187164180Y-120471468D01*
X187113954Y-120238419D01*
X187025064Y-120017210D01*
X186900069Y-119814205D01*
X186742564Y-119635245D01*
X186557080Y-119485477D01*
X186443130Y-119421820D01*
X186348955Y-119369210D01*
X186124170Y-119289788D01*
X185889209Y-119249500D01*
X185889200Y-119249500D01*
X185010503Y-119249500D01*
X185010498Y-119249500D01*
X184832463Y-119264652D01*
X184601751Y-119324724D01*
X184384519Y-119422919D01*
X184384511Y-119422924D01*
X184187006Y-119556413D01*
X184186997Y-119556421D01*
X184014881Y-119721379D01*
X183873123Y-119913050D01*
X183873120Y-119913054D01*
X183765796Y-120125920D01*
X183765793Y-120125926D01*
X183695983Y-120353878D01*
X183665702Y-120590346D01*
X183675819Y-120828528D01*
X183675819Y-120828532D01*
X183726045Y-121061580D01*
X183814935Y-121282788D01*
X183814936Y-121282790D01*
X183939931Y-121485795D01*
X184097436Y-121664755D01*
X184282920Y-121814523D01*
X184282935Y-121814531D01*
X184282942Y-121814538D01*
X184287291Y-121817478D01*
X184286693Y-121818362D01*
X184331861Y-121864411D01*
X184346053Y-121932824D01*
X184321005Y-121998050D01*
X184291897Y-122025520D01*
X184187007Y-122096413D01*
X184186997Y-122096421D01*
X184014881Y-122261379D01*
X183873123Y-122453050D01*
X183873120Y-122453054D01*
X183765796Y-122665920D01*
X183765793Y-122665926D01*
X183695983Y-122893878D01*
X183665702Y-123130346D01*
X120791493Y-123130346D01*
X128411493Y-115510346D01*
X183665702Y-115510346D01*
X183675819Y-115748528D01*
X183675819Y-115748532D01*
X183726045Y-115981580D01*
X183814935Y-116202788D01*
X183814936Y-116202790D01*
X183939931Y-116405795D01*
X184097436Y-116584755D01*
X184282920Y-116734523D01*
X184491046Y-116850790D01*
X184616951Y-116895275D01*
X184715829Y-116930211D01*
X184950790Y-116970499D01*
X184950798Y-116970499D01*
X184950800Y-116970500D01*
X184950801Y-116970500D01*
X185829502Y-116970500D01*
X186007536Y-116955347D01*
X186007539Y-116955346D01*
X186007541Y-116955346D01*
X186238249Y-116895275D01*
X186370973Y-116835279D01*
X186455480Y-116797080D01*
X186455481Y-116797078D01*
X186455486Y-116797077D01*
X186653003Y-116663579D01*
X186825118Y-116498621D01*
X186966879Y-116306947D01*
X187074207Y-116094074D01*
X187144016Y-115866123D01*
X187174298Y-115629654D01*
X187164180Y-115391468D01*
X187113954Y-115158419D01*
X187025064Y-114937210D01*
X186900069Y-114734205D01*
X186742564Y-114555245D01*
X186557080Y-114405477D01*
X186557074Y-114405474D01*
X186557071Y-114405471D01*
X186557057Y-114405463D01*
X186557051Y-114405457D01*
X186552709Y-114402522D01*
X186553306Y-114401638D01*
X186508134Y-114355580D01*
X186493947Y-114287165D01*
X186518999Y-114221942D01*
X186548099Y-114194481D01*
X186653003Y-114123579D01*
X186825118Y-113958621D01*
X186966879Y-113766947D01*
X187074207Y-113554074D01*
X187144016Y-113326123D01*
X187174298Y-113089654D01*
X187164180Y-112851468D01*
X187113954Y-112618419D01*
X187025064Y-112397210D01*
X186900069Y-112194205D01*
X186742564Y-112015245D01*
X186557080Y-111865477D01*
X186443130Y-111801820D01*
X186348955Y-111749210D01*
X186124170Y-111669788D01*
X185889209Y-111629500D01*
X185889200Y-111629500D01*
X185010503Y-111629500D01*
X185010498Y-111629500D01*
X184832463Y-111644652D01*
X184601751Y-111704724D01*
X184384519Y-111802919D01*
X184384511Y-111802924D01*
X184187006Y-111936413D01*
X184186997Y-111936421D01*
X184014881Y-112101379D01*
X183873123Y-112293050D01*
X183873120Y-112293054D01*
X183765796Y-112505920D01*
X183765793Y-112505926D01*
X183695983Y-112733878D01*
X183665702Y-112970346D01*
X183675819Y-113208528D01*
X183675819Y-113208532D01*
X183726045Y-113441580D01*
X183774858Y-113563053D01*
X183814936Y-113662790D01*
X183939931Y-113865795D01*
X184097436Y-114044755D01*
X184282920Y-114194523D01*
X184282935Y-114194531D01*
X184282942Y-114194538D01*
X184287291Y-114197478D01*
X184286693Y-114198362D01*
X184331861Y-114244411D01*
X184346053Y-114312824D01*
X184321005Y-114378050D01*
X184291897Y-114405520D01*
X184187007Y-114476413D01*
X184186997Y-114476421D01*
X184014881Y-114641379D01*
X183873123Y-114833050D01*
X183873120Y-114833054D01*
X183765796Y-115045920D01*
X183765793Y-115045926D01*
X183695983Y-115273878D01*
X183665702Y-115510346D01*
X128411493Y-115510346D01*
X136031493Y-107890346D01*
X183665702Y-107890346D01*
X183675819Y-108128528D01*
X183675819Y-108128532D01*
X183726045Y-108361580D01*
X183774858Y-108483053D01*
X183814936Y-108582790D01*
X183939931Y-108785795D01*
X184097436Y-108964755D01*
X184282920Y-109114523D01*
X184491046Y-109230790D01*
X184715829Y-109310211D01*
X184950790Y-109350499D01*
X184950798Y-109350499D01*
X184950800Y-109350500D01*
X184950801Y-109350500D01*
X185829502Y-109350500D01*
X186007536Y-109335347D01*
X186007539Y-109335346D01*
X186007541Y-109335346D01*
X186238249Y-109275275D01*
X186370973Y-109215279D01*
X186455480Y-109177080D01*
X186455481Y-109177078D01*
X186455486Y-109177077D01*
X186653003Y-109043579D01*
X186825118Y-108878621D01*
X186966879Y-108686947D01*
X187074207Y-108474074D01*
X187144016Y-108246123D01*
X187174298Y-108009654D01*
X187164180Y-107771468D01*
X187113954Y-107538419D01*
X187025064Y-107317210D01*
X186900069Y-107114205D01*
X186742564Y-106935245D01*
X186557080Y-106785477D01*
X186557074Y-106785474D01*
X186557071Y-106785471D01*
X186557057Y-106785463D01*
X186557051Y-106785457D01*
X186552709Y-106782522D01*
X186553306Y-106781638D01*
X186508134Y-106735580D01*
X186493947Y-106667165D01*
X186518999Y-106601942D01*
X186548099Y-106574481D01*
X186653003Y-106503579D01*
X186825118Y-106338621D01*
X186966879Y-106146947D01*
X187074207Y-105934074D01*
X187144016Y-105706123D01*
X187174298Y-105469654D01*
X187164180Y-105231468D01*
X187113954Y-104998419D01*
X187025064Y-104777210D01*
X186900069Y-104574205D01*
X186742564Y-104395245D01*
X186557080Y-104245477D01*
X186557074Y-104245474D01*
X186557071Y-104245471D01*
X186557057Y-104245463D01*
X186557051Y-104245457D01*
X186552709Y-104242522D01*
X186553306Y-104241638D01*
X186508134Y-104195580D01*
X186493947Y-104127165D01*
X186518999Y-104061942D01*
X186548099Y-104034481D01*
X186653003Y-103963579D01*
X186825118Y-103798621D01*
X186966879Y-103606947D01*
X187074207Y-103394074D01*
X187144016Y-103166123D01*
X187174298Y-102929654D01*
X187164180Y-102691468D01*
X187113954Y-102458419D01*
X187025064Y-102237210D01*
X186900069Y-102034205D01*
X186742564Y-101855245D01*
X186557080Y-101705477D01*
X186557074Y-101705474D01*
X186557071Y-101705471D01*
X186557057Y-101705463D01*
X186557051Y-101705457D01*
X186552709Y-101702522D01*
X186553306Y-101701638D01*
X186508134Y-101655580D01*
X186493947Y-101587165D01*
X186518999Y-101521942D01*
X186548099Y-101494481D01*
X186653003Y-101423579D01*
X186825118Y-101258621D01*
X186966879Y-101066947D01*
X187074207Y-100854074D01*
X187144016Y-100626123D01*
X187174298Y-100389654D01*
X187164180Y-100151468D01*
X187113954Y-99918419D01*
X187025064Y-99697210D01*
X186900069Y-99494205D01*
X186742564Y-99315245D01*
X186557080Y-99165477D01*
X186557074Y-99165474D01*
X186557071Y-99165471D01*
X186557057Y-99165463D01*
X186557051Y-99165457D01*
X186552709Y-99162522D01*
X186553306Y-99161638D01*
X186508134Y-99115580D01*
X186493947Y-99047165D01*
X186518999Y-98981942D01*
X186548099Y-98954481D01*
X186653003Y-98883579D01*
X186825118Y-98718621D01*
X186966879Y-98526947D01*
X187074207Y-98314074D01*
X187144016Y-98086123D01*
X187174298Y-97849654D01*
X187164180Y-97611468D01*
X187113954Y-97378419D01*
X187025064Y-97157210D01*
X186900069Y-96954205D01*
X186742564Y-96775245D01*
X186557080Y-96625477D01*
X186443130Y-96561820D01*
X186348955Y-96509210D01*
X186124170Y-96429788D01*
X185889209Y-96389500D01*
X185889200Y-96389500D01*
X185010503Y-96389500D01*
X185010498Y-96389500D01*
X184832463Y-96404652D01*
X184601751Y-96464724D01*
X184384519Y-96562919D01*
X184384511Y-96562924D01*
X184187006Y-96696413D01*
X184186997Y-96696421D01*
X184014881Y-96861379D01*
X183873123Y-97053050D01*
X183873120Y-97053054D01*
X183765796Y-97265920D01*
X183765793Y-97265926D01*
X183695983Y-97493878D01*
X183665702Y-97730346D01*
X183675819Y-97968528D01*
X183675819Y-97968532D01*
X183726045Y-98201580D01*
X183774858Y-98323053D01*
X183814936Y-98422790D01*
X183939931Y-98625795D01*
X184097436Y-98804755D01*
X184282920Y-98954523D01*
X184282935Y-98954531D01*
X184282942Y-98954538D01*
X184287291Y-98957478D01*
X184286693Y-98958362D01*
X184331861Y-99004411D01*
X184346053Y-99072824D01*
X184321005Y-99138050D01*
X184291897Y-99165520D01*
X184187007Y-99236413D01*
X184186997Y-99236421D01*
X184014881Y-99401379D01*
X183873123Y-99593050D01*
X183873120Y-99593054D01*
X183765796Y-99805920D01*
X183765793Y-99805926D01*
X183695983Y-100033878D01*
X183665702Y-100270346D01*
X183675819Y-100508528D01*
X183675819Y-100508532D01*
X183726045Y-100741580D01*
X183774858Y-100863053D01*
X183814936Y-100962790D01*
X183939931Y-101165795D01*
X184097436Y-101344755D01*
X184282920Y-101494523D01*
X184282935Y-101494531D01*
X184282942Y-101494538D01*
X184287291Y-101497478D01*
X184286693Y-101498362D01*
X184331861Y-101544411D01*
X184346053Y-101612824D01*
X184321005Y-101678050D01*
X184291897Y-101705520D01*
X184187007Y-101776413D01*
X184186997Y-101776421D01*
X184014881Y-101941379D01*
X183873123Y-102133050D01*
X183873120Y-102133054D01*
X183765796Y-102345920D01*
X183765793Y-102345926D01*
X183695983Y-102573878D01*
X183665702Y-102810346D01*
X183675819Y-103048528D01*
X183675819Y-103048532D01*
X183726045Y-103281580D01*
X183774858Y-103403053D01*
X183814936Y-103502790D01*
X183939931Y-103705795D01*
X184097436Y-103884755D01*
X184282920Y-104034523D01*
X184282935Y-104034531D01*
X184282942Y-104034538D01*
X184287291Y-104037478D01*
X184286693Y-104038362D01*
X184331861Y-104084411D01*
X184346053Y-104152824D01*
X184321005Y-104218050D01*
X184291897Y-104245520D01*
X184187007Y-104316413D01*
X184186997Y-104316421D01*
X184014881Y-104481379D01*
X183873123Y-104673050D01*
X183873120Y-104673054D01*
X183765796Y-104885920D01*
X183765793Y-104885926D01*
X183695983Y-105113878D01*
X183665702Y-105350346D01*
X183675819Y-105588528D01*
X183675819Y-105588532D01*
X183726045Y-105821580D01*
X183814935Y-106042788D01*
X183814936Y-106042790D01*
X183939931Y-106245795D01*
X184097436Y-106424755D01*
X184282920Y-106574523D01*
X184282935Y-106574531D01*
X184282942Y-106574538D01*
X184287291Y-106577478D01*
X184286693Y-106578362D01*
X184331861Y-106624411D01*
X184346053Y-106692824D01*
X184321005Y-106758050D01*
X184291897Y-106785520D01*
X184187007Y-106856413D01*
X184186997Y-106856421D01*
X184014881Y-107021379D01*
X183873123Y-107213050D01*
X183873120Y-107213054D01*
X183765796Y-107425920D01*
X183765793Y-107425926D01*
X183695983Y-107653878D01*
X183665702Y-107890346D01*
X136031493Y-107890346D01*
X142285520Y-101636319D01*
X142346843Y-101602834D01*
X142373201Y-101600000D01*
X147320000Y-101600000D01*
X147320000Y-100330000D01*
X143891201Y-100330000D01*
X143824162Y-100310315D01*
X143778407Y-100257511D01*
X143768463Y-100188353D01*
X143797488Y-100124797D01*
X143803520Y-100118319D01*
X144783790Y-99138050D01*
X151271494Y-92650346D01*
X183665702Y-92650346D01*
X183675819Y-92888528D01*
X183675819Y-92888532D01*
X183726045Y-93121580D01*
X183774858Y-93243053D01*
X183814936Y-93342790D01*
X183939931Y-93545795D01*
X184097436Y-93724755D01*
X184282920Y-93874523D01*
X184491046Y-93990790D01*
X184715829Y-94070211D01*
X184950790Y-94110499D01*
X184950798Y-94110499D01*
X184950800Y-94110500D01*
X184950801Y-94110500D01*
X185829502Y-94110500D01*
X186007536Y-94095347D01*
X186007539Y-94095346D01*
X186007541Y-94095346D01*
X186238249Y-94035275D01*
X186370973Y-93975279D01*
X186455480Y-93937080D01*
X186455481Y-93937078D01*
X186455486Y-93937077D01*
X186653003Y-93803579D01*
X186825118Y-93638621D01*
X186966879Y-93446947D01*
X187074207Y-93234074D01*
X187144016Y-93006123D01*
X187174298Y-92769654D01*
X187164180Y-92531468D01*
X187113954Y-92298419D01*
X187025064Y-92077210D01*
X186900069Y-91874205D01*
X186742564Y-91695245D01*
X186557080Y-91545477D01*
X186557074Y-91545474D01*
X186557071Y-91545471D01*
X186557057Y-91545463D01*
X186557051Y-91545457D01*
X186552709Y-91542522D01*
X186553306Y-91541638D01*
X186508134Y-91495580D01*
X186493947Y-91427165D01*
X186518999Y-91361942D01*
X186548099Y-91334481D01*
X186653003Y-91263579D01*
X186825118Y-91098621D01*
X186966879Y-90906947D01*
X187074207Y-90694074D01*
X187144016Y-90466123D01*
X187174298Y-90229654D01*
X187164180Y-89991468D01*
X187113954Y-89758419D01*
X187025064Y-89537210D01*
X186900069Y-89334205D01*
X186742564Y-89155245D01*
X186557080Y-89005477D01*
X186557074Y-89005474D01*
X186557071Y-89005471D01*
X186557057Y-89005463D01*
X186557051Y-89005457D01*
X186552709Y-89002522D01*
X186553306Y-89001638D01*
X186508134Y-88955580D01*
X186493947Y-88887165D01*
X186518999Y-88821942D01*
X186548099Y-88794481D01*
X186653003Y-88723579D01*
X186825118Y-88558621D01*
X186966879Y-88366947D01*
X187074207Y-88154074D01*
X187144016Y-87926123D01*
X187174298Y-87689654D01*
X187164180Y-87451468D01*
X187113954Y-87218419D01*
X187025064Y-86997210D01*
X186900069Y-86794205D01*
X186742564Y-86615245D01*
X186557080Y-86465477D01*
X186557074Y-86465474D01*
X186557071Y-86465471D01*
X186557057Y-86465463D01*
X186557051Y-86465457D01*
X186552709Y-86462522D01*
X186553306Y-86461638D01*
X186508134Y-86415580D01*
X186493947Y-86347165D01*
X186518999Y-86281942D01*
X186548099Y-86254481D01*
X186653003Y-86183579D01*
X186825118Y-86018621D01*
X186966879Y-85826947D01*
X187074207Y-85614074D01*
X187144016Y-85386123D01*
X187174298Y-85149654D01*
X187164180Y-84911468D01*
X187113954Y-84678419D01*
X187025064Y-84457210D01*
X186900069Y-84254205D01*
X186742564Y-84075245D01*
X186557080Y-83925477D01*
X186557074Y-83925474D01*
X186557071Y-83925471D01*
X186557057Y-83925463D01*
X186557051Y-83925457D01*
X186552709Y-83922522D01*
X186553306Y-83921638D01*
X186508134Y-83875580D01*
X186493947Y-83807165D01*
X186518999Y-83741942D01*
X186548099Y-83714481D01*
X186653003Y-83643579D01*
X186825118Y-83478621D01*
X186966879Y-83286947D01*
X187074207Y-83074074D01*
X187144016Y-82846123D01*
X187174298Y-82609654D01*
X187164180Y-82371468D01*
X187151873Y-82314365D01*
X187113954Y-82138419D01*
X187025064Y-81917211D01*
X187025064Y-81917210D01*
X186900069Y-81714205D01*
X186742564Y-81535245D01*
X186557080Y-81385477D01*
X186557074Y-81385474D01*
X186557071Y-81385471D01*
X186557057Y-81385463D01*
X186557051Y-81385457D01*
X186552709Y-81382522D01*
X186553306Y-81381638D01*
X186508134Y-81335580D01*
X186493947Y-81267165D01*
X186518999Y-81201942D01*
X186548099Y-81174481D01*
X186653003Y-81103579D01*
X186825118Y-80938621D01*
X186966879Y-80746947D01*
X187074207Y-80534074D01*
X187144016Y-80306123D01*
X187174298Y-80069654D01*
X187164180Y-79831468D01*
X187146580Y-79749806D01*
X187113954Y-79598419D01*
X187058246Y-79459786D01*
X187025064Y-79377210D01*
X186900069Y-79174205D01*
X186742564Y-78995245D01*
X186557080Y-78845477D01*
X186557074Y-78845474D01*
X186557071Y-78845471D01*
X186557057Y-78845463D01*
X186557051Y-78845457D01*
X186552709Y-78842522D01*
X186553306Y-78841638D01*
X186508134Y-78795580D01*
X186493947Y-78727165D01*
X186518999Y-78661942D01*
X186548099Y-78634481D01*
X186653003Y-78563579D01*
X186825118Y-78398621D01*
X186966879Y-78206947D01*
X187074207Y-77994074D01*
X187144016Y-77766123D01*
X187174298Y-77529654D01*
X187172284Y-77482253D01*
X187164180Y-77291471D01*
X187164180Y-77291467D01*
X187113954Y-77058419D01*
X187025064Y-76837211D01*
X187025064Y-76837210D01*
X186900069Y-76634205D01*
X186742564Y-76455245D01*
X186557080Y-76305477D01*
X186557074Y-76305474D01*
X186557071Y-76305471D01*
X186557057Y-76305463D01*
X186557051Y-76305457D01*
X186552709Y-76302522D01*
X186553306Y-76301638D01*
X186508134Y-76255580D01*
X186493947Y-76187165D01*
X186518999Y-76121942D01*
X186548099Y-76094481D01*
X186653003Y-76023579D01*
X186825118Y-75858621D01*
X186966879Y-75666947D01*
X187074207Y-75454074D01*
X187144016Y-75226123D01*
X187174298Y-74989654D01*
X187164180Y-74751468D01*
X187113954Y-74518419D01*
X187025064Y-74297210D01*
X186900069Y-74094205D01*
X186742564Y-73915245D01*
X186557080Y-73765477D01*
X186443130Y-73701820D01*
X186348955Y-73649210D01*
X186124170Y-73569788D01*
X185889209Y-73529500D01*
X185889200Y-73529500D01*
X185010503Y-73529500D01*
X185010498Y-73529500D01*
X184832463Y-73544652D01*
X184601751Y-73604724D01*
X184384519Y-73702919D01*
X184384511Y-73702924D01*
X184187006Y-73836413D01*
X184186997Y-73836421D01*
X184014881Y-74001379D01*
X183873123Y-74193050D01*
X183873120Y-74193054D01*
X183765796Y-74405920D01*
X183765793Y-74405926D01*
X183695983Y-74633878D01*
X183665702Y-74870346D01*
X183675819Y-75108528D01*
X183675819Y-75108532D01*
X183726045Y-75341580D01*
X183814935Y-75562788D01*
X183814936Y-75562790D01*
X183934561Y-75757074D01*
X183939932Y-75765796D01*
X184041213Y-75880874D01*
X184097436Y-75944755D01*
X184282920Y-76094523D01*
X184282935Y-76094531D01*
X184282942Y-76094538D01*
X184287291Y-76097478D01*
X184286693Y-76098362D01*
X184331861Y-76144411D01*
X184346053Y-76212824D01*
X184321005Y-76278050D01*
X184291897Y-76305520D01*
X184187007Y-76376413D01*
X184186997Y-76376421D01*
X184014881Y-76541379D01*
X183873123Y-76733050D01*
X183873120Y-76733054D01*
X183765796Y-76945920D01*
X183765793Y-76945926D01*
X183695983Y-77173878D01*
X183665702Y-77410346D01*
X183675819Y-77648528D01*
X183675819Y-77648532D01*
X183726045Y-77881580D01*
X183814935Y-78102788D01*
X183814936Y-78102790D01*
X183939931Y-78305795D01*
X184097436Y-78484755D01*
X184282920Y-78634523D01*
X184282935Y-78634531D01*
X184282942Y-78634538D01*
X184287291Y-78637478D01*
X184286693Y-78638362D01*
X184331861Y-78684411D01*
X184346053Y-78752824D01*
X184321005Y-78818050D01*
X184291897Y-78845520D01*
X184187007Y-78916413D01*
X184186997Y-78916421D01*
X184014881Y-79081379D01*
X183873123Y-79273050D01*
X183873120Y-79273054D01*
X183765796Y-79485920D01*
X183765793Y-79485926D01*
X183695983Y-79713878D01*
X183665702Y-79950346D01*
X183675819Y-80188528D01*
X183675819Y-80188532D01*
X183726045Y-80421580D01*
X183774858Y-80543053D01*
X183814936Y-80642790D01*
X183939931Y-80845795D01*
X184097436Y-81024755D01*
X184282920Y-81174523D01*
X184282935Y-81174531D01*
X184282942Y-81174538D01*
X184287291Y-81177478D01*
X184286693Y-81178362D01*
X184331861Y-81224411D01*
X184346053Y-81292824D01*
X184321005Y-81358050D01*
X184291897Y-81385520D01*
X184187007Y-81456413D01*
X184186997Y-81456421D01*
X184014881Y-81621379D01*
X183873123Y-81813050D01*
X183873120Y-81813054D01*
X183765796Y-82025920D01*
X183765793Y-82025926D01*
X183695983Y-82253878D01*
X183665702Y-82490346D01*
X183675819Y-82728528D01*
X183675819Y-82728532D01*
X183726045Y-82961580D01*
X183814935Y-83182788D01*
X183814936Y-83182790D01*
X183939931Y-83385795D01*
X184097436Y-83564755D01*
X184282920Y-83714523D01*
X184282935Y-83714531D01*
X184282942Y-83714538D01*
X184287291Y-83717478D01*
X184286693Y-83718362D01*
X184331861Y-83764411D01*
X184346053Y-83832824D01*
X184321005Y-83898050D01*
X184291897Y-83925520D01*
X184187007Y-83996413D01*
X184186997Y-83996421D01*
X184014881Y-84161379D01*
X183873123Y-84353050D01*
X183873120Y-84353054D01*
X183765796Y-84565920D01*
X183765793Y-84565926D01*
X183695983Y-84793878D01*
X183665702Y-85030346D01*
X183675819Y-85268528D01*
X183675819Y-85268532D01*
X183726045Y-85501580D01*
X183774858Y-85623053D01*
X183814936Y-85722790D01*
X183939931Y-85925795D01*
X184097436Y-86104755D01*
X184282920Y-86254523D01*
X184282935Y-86254531D01*
X184282942Y-86254538D01*
X184287291Y-86257478D01*
X184286693Y-86258362D01*
X184331861Y-86304411D01*
X184346053Y-86372824D01*
X184321005Y-86438050D01*
X184291897Y-86465520D01*
X184187007Y-86536413D01*
X184186997Y-86536421D01*
X184014881Y-86701379D01*
X183873123Y-86893050D01*
X183873120Y-86893054D01*
X183765796Y-87105920D01*
X183765793Y-87105926D01*
X183695983Y-87333878D01*
X183665702Y-87570346D01*
X183675819Y-87808528D01*
X183675819Y-87808532D01*
X183726045Y-88041580D01*
X183774858Y-88163053D01*
X183814936Y-88262790D01*
X183939931Y-88465795D01*
X184097436Y-88644755D01*
X184282920Y-88794523D01*
X184282935Y-88794531D01*
X184282942Y-88794538D01*
X184287291Y-88797478D01*
X184286693Y-88798362D01*
X184331861Y-88844411D01*
X184346053Y-88912824D01*
X184321005Y-88978050D01*
X184291897Y-89005520D01*
X184187007Y-89076413D01*
X184186997Y-89076421D01*
X184014881Y-89241379D01*
X183873123Y-89433050D01*
X183873120Y-89433054D01*
X183765796Y-89645920D01*
X183765793Y-89645926D01*
X183695983Y-89873878D01*
X183665702Y-90110346D01*
X183675819Y-90348528D01*
X183675819Y-90348532D01*
X183726045Y-90581580D01*
X183774858Y-90703053D01*
X183814936Y-90802790D01*
X183939931Y-91005795D01*
X184097436Y-91184755D01*
X184282920Y-91334523D01*
X184282935Y-91334531D01*
X184282942Y-91334538D01*
X184287291Y-91337478D01*
X184286693Y-91338362D01*
X184331861Y-91384411D01*
X184346053Y-91452824D01*
X184321005Y-91518050D01*
X184291897Y-91545520D01*
X184187007Y-91616413D01*
X184186997Y-91616421D01*
X184014881Y-91781379D01*
X183873123Y-91973050D01*
X183873120Y-91973054D01*
X183765796Y-92185920D01*
X183765793Y-92185926D01*
X183695983Y-92413878D01*
X183665702Y-92650346D01*
X151271494Y-92650346D01*
X164841838Y-79080001D01*
X171694532Y-79080001D01*
X171714364Y-79306686D01*
X171714366Y-79306697D01*
X171773258Y-79526488D01*
X171773261Y-79526497D01*
X171869431Y-79732732D01*
X171869432Y-79732734D01*
X171999954Y-79919141D01*
X172160858Y-80080045D01*
X172160861Y-80080047D01*
X172347266Y-80210568D01*
X172553504Y-80306739D01*
X172773308Y-80365635D01*
X172943216Y-80380500D01*
X173456784Y-80380500D01*
X173626692Y-80365635D01*
X173846496Y-80306739D01*
X174052734Y-80210568D01*
X174239139Y-80080047D01*
X174400047Y-79919139D01*
X174530568Y-79732734D01*
X174626739Y-79526496D01*
X174685635Y-79306692D01*
X174705468Y-79080000D01*
X174685635Y-78853308D01*
X174626739Y-78633504D01*
X174530568Y-78427266D01*
X174400047Y-78240861D01*
X174400045Y-78240858D01*
X174239141Y-78079954D01*
X174052734Y-77949432D01*
X174052732Y-77949431D01*
X173846497Y-77853261D01*
X173846488Y-77853258D01*
X173626697Y-77794366D01*
X173626687Y-77794364D01*
X173456784Y-77779500D01*
X172943216Y-77779500D01*
X172773312Y-77794364D01*
X172773302Y-77794366D01*
X172553511Y-77853258D01*
X172553502Y-77853261D01*
X172347267Y-77949431D01*
X172347265Y-77949432D01*
X172160858Y-78079954D01*
X171999954Y-78240858D01*
X171869432Y-78427265D01*
X171869431Y-78427267D01*
X171773261Y-78633502D01*
X171773258Y-78633511D01*
X171714366Y-78853302D01*
X171714364Y-78853313D01*
X171694532Y-79079998D01*
X171694532Y-79080001D01*
X164841838Y-79080001D01*
X169598020Y-74323819D01*
X169659344Y-74290334D01*
X169685702Y-74287500D01*
X174646838Y-74287500D01*
X174667402Y-74289216D01*
X174670626Y-74289759D01*
X174763456Y-74287549D01*
X174765519Y-74287500D01*
X174806082Y-74287500D01*
X174806091Y-74287500D01*
X174806100Y-74287499D01*
X174806102Y-74287499D01*
X174806803Y-74287431D01*
X174817369Y-74286422D01*
X174821763Y-74286160D01*
X174887419Y-74284598D01*
X174913148Y-74279000D01*
X174923653Y-74276716D01*
X174930945Y-74275578D01*
X174931320Y-74275542D01*
X174967872Y-74272052D01*
X175030900Y-74253544D01*
X175035145Y-74252461D01*
X175099317Y-74238502D01*
X175133405Y-74223903D01*
X175140343Y-74221409D01*
X175175942Y-74210957D01*
X175221502Y-74187467D01*
X175234307Y-74180867D01*
X175238314Y-74178979D01*
X175298663Y-74153137D01*
X175329380Y-74132346D01*
X175335730Y-74128579D01*
X175336830Y-74128011D01*
X175368690Y-74111588D01*
X175420313Y-74070989D01*
X175423870Y-74068393D01*
X175478250Y-74031589D01*
X175504475Y-74005362D01*
X175509992Y-74000465D01*
X175539149Y-73977538D01*
X175582162Y-73927897D01*
X175585143Y-73924694D01*
X181068563Y-68441275D01*
X181084319Y-68427949D01*
X181086977Y-68426057D01*
X181152461Y-68357378D01*
X181181168Y-68328672D01*
X181188393Y-68319919D01*
X181191296Y-68316648D01*
X181236623Y-68269112D01*
X181256680Y-68237900D01*
X181261009Y-68231972D01*
X181284641Y-68203352D01*
X181316122Y-68145696D01*
X181318360Y-68141925D01*
X181353863Y-68086683D01*
X181367645Y-68052253D01*
X181370782Y-68045593D01*
X181388568Y-68013024D01*
X181408573Y-67950440D01*
X181410048Y-67946338D01*
X181434460Y-67885362D01*
X181441480Y-67848937D01*
X181443306Y-67841784D01*
X181454597Y-67806466D01*
X181462391Y-67741268D01*
X181463069Y-67736919D01*
X181475500Y-67672427D01*
X181475500Y-67635321D01*
X181475936Y-67627988D01*
X181480342Y-67591145D01*
X181475658Y-67525653D01*
X181475500Y-67521229D01*
X181475500Y-67250346D01*
X183665702Y-67250346D01*
X183675819Y-67488528D01*
X183675819Y-67488532D01*
X183726045Y-67721580D01*
X183814935Y-67942788D01*
X183814936Y-67942790D01*
X183939931Y-68145795D01*
X184097436Y-68324755D01*
X184282920Y-68474523D01*
X184491046Y-68590790D01*
X184567093Y-68617659D01*
X184715829Y-68670211D01*
X184950790Y-68710499D01*
X184950798Y-68710499D01*
X184950800Y-68710500D01*
X184950801Y-68710500D01*
X185829502Y-68710500D01*
X186007536Y-68695347D01*
X186007539Y-68695346D01*
X186007541Y-68695346D01*
X186238249Y-68635275D01*
X186390845Y-68566297D01*
X186455480Y-68537080D01*
X186455481Y-68537078D01*
X186455486Y-68537077D01*
X186653003Y-68403579D01*
X186825118Y-68238621D01*
X186966879Y-68046947D01*
X187074207Y-67834074D01*
X187144016Y-67606123D01*
X187174298Y-67369654D01*
X187164180Y-67131468D01*
X187159410Y-67109337D01*
X187113954Y-66898419D01*
X187111336Y-66891903D01*
X187025064Y-66677210D01*
X186900069Y-66474205D01*
X186742564Y-66295245D01*
X186557080Y-66145477D01*
X186403496Y-66059679D01*
X186348955Y-66029210D01*
X186124170Y-65949788D01*
X185889209Y-65909500D01*
X185889200Y-65909500D01*
X185010503Y-65909500D01*
X185010498Y-65909500D01*
X184832463Y-65924652D01*
X184601751Y-65984724D01*
X184384519Y-66082919D01*
X184384511Y-66082924D01*
X184187006Y-66216413D01*
X184186997Y-66216421D01*
X184014881Y-66381379D01*
X183873123Y-66573050D01*
X183873120Y-66573054D01*
X183765796Y-66785920D01*
X183765793Y-66785926D01*
X183695983Y-67013878D01*
X183665702Y-67250346D01*
X181475500Y-67250346D01*
X181475500Y-62243701D01*
X181495185Y-62176662D01*
X181511819Y-62156020D01*
X182806021Y-60861819D01*
X182867344Y-60828334D01*
X182893702Y-60825500D01*
X184203164Y-60825500D01*
X184270203Y-60845185D01*
X184281058Y-60853019D01*
X184282920Y-60854523D01*
X184447352Y-60946381D01*
X184488507Y-60969372D01*
X184491046Y-60970790D01*
X184660231Y-61030567D01*
X184715829Y-61050211D01*
X184950790Y-61090499D01*
X184950798Y-61090499D01*
X184950800Y-61090500D01*
X184950801Y-61090500D01*
X185829502Y-61090500D01*
X186007536Y-61075347D01*
X186007539Y-61075346D01*
X186007541Y-61075346D01*
X186238249Y-61015275D01*
X186429948Y-60928621D01*
X186455480Y-60917080D01*
X186455481Y-60917078D01*
X186455486Y-60917077D01*
X186615658Y-60808820D01*
X186652993Y-60783586D01*
X186652994Y-60783584D01*
X186653003Y-60783579D01*
X186825118Y-60618621D01*
X186966879Y-60426947D01*
X187074207Y-60214074D01*
X187144016Y-59986123D01*
X187174298Y-59749654D01*
X187164180Y-59511468D01*
X187151687Y-59453502D01*
X187113954Y-59278419D01*
X187052616Y-59125775D01*
X187025064Y-59057210D01*
X186900069Y-58854205D01*
X186742564Y-58675245D01*
X186557080Y-58525477D01*
X186557074Y-58525474D01*
X186557071Y-58525471D01*
X186557057Y-58525463D01*
X186557051Y-58525457D01*
X186552709Y-58522522D01*
X186553306Y-58521638D01*
X186508134Y-58475580D01*
X186493947Y-58407165D01*
X186518999Y-58341942D01*
X186548099Y-58314481D01*
X186653003Y-58243579D01*
X186825118Y-58078621D01*
X186966879Y-57886947D01*
X187074207Y-57674074D01*
X187144016Y-57446123D01*
X187174298Y-57209654D01*
X187164180Y-56971468D01*
X187162925Y-56965647D01*
X187113954Y-56738419D01*
X187059739Y-56603502D01*
X187025064Y-56517210D01*
X186900069Y-56314205D01*
X186742564Y-56135245D01*
X186557080Y-55985477D01*
X186438853Y-55919431D01*
X186348955Y-55869210D01*
X186124170Y-55789788D01*
X185889209Y-55749500D01*
X185889200Y-55749500D01*
X185010503Y-55749500D01*
X185010498Y-55749500D01*
X184832463Y-55764652D01*
X184601751Y-55824724D01*
X184384519Y-55922919D01*
X184384511Y-55922924D01*
X184187006Y-56056413D01*
X184186997Y-56056421D01*
X184014881Y-56221379D01*
X183873123Y-56413050D01*
X183873120Y-56413054D01*
X183765796Y-56625920D01*
X183765793Y-56625926D01*
X183695983Y-56853878D01*
X183665702Y-57090346D01*
X183675819Y-57328528D01*
X183675819Y-57328532D01*
X183726045Y-57561580D01*
X183808685Y-57767234D01*
X183814936Y-57782790D01*
X183915244Y-57945701D01*
X183939932Y-57985796D01*
X184042850Y-58102734D01*
X184097436Y-58164755D01*
X184282920Y-58314523D01*
X184282935Y-58314531D01*
X184282942Y-58314538D01*
X184287291Y-58317478D01*
X184286693Y-58318362D01*
X184331861Y-58364411D01*
X184346053Y-58432824D01*
X184321005Y-58498050D01*
X184291904Y-58525515D01*
X184280491Y-58533230D01*
X184213927Y-58554467D01*
X184211047Y-58554500D01*
X182477162Y-58554500D01*
X182456597Y-58552783D01*
X182453376Y-58552241D01*
X182453374Y-58552241D01*
X182390112Y-58553746D01*
X182358481Y-58554500D01*
X182317909Y-58554500D01*
X182306630Y-58555576D01*
X182302225Y-58555838D01*
X182236579Y-58557402D01*
X182200338Y-58565285D01*
X182193055Y-58566420D01*
X182184679Y-58567220D01*
X182156134Y-58569946D01*
X182156125Y-58569948D01*
X182093119Y-58588447D01*
X182088833Y-58589541D01*
X182024686Y-58603497D01*
X182024673Y-58603501D01*
X181990594Y-58618094D01*
X181983652Y-58620590D01*
X181948063Y-58631040D01*
X181889688Y-58661133D01*
X181885684Y-58663020D01*
X181825337Y-58688863D01*
X181817041Y-58694477D01*
X181794621Y-58709651D01*
X181788276Y-58713415D01*
X181755312Y-58730410D01*
X181703695Y-58771001D01*
X181700121Y-58773611D01*
X181645759Y-58810403D01*
X181645750Y-58810410D01*
X181619518Y-58836641D01*
X181614001Y-58841537D01*
X181584853Y-58864459D01*
X181541846Y-58914091D01*
X181538830Y-58917330D01*
X179611437Y-60844721D01*
X179595695Y-60858039D01*
X179593025Y-60859940D01*
X179593024Y-60859941D01*
X179573358Y-60880567D01*
X179527538Y-60928621D01*
X179517971Y-60938187D01*
X179498842Y-60957316D01*
X179498838Y-60957321D01*
X179491615Y-60966067D01*
X179488681Y-60969372D01*
X179443378Y-61016886D01*
X179443376Y-61016889D01*
X179423326Y-61048085D01*
X179418977Y-61054041D01*
X179395358Y-61082648D01*
X179363888Y-61140280D01*
X179361630Y-61144086D01*
X179326137Y-61199316D01*
X179312354Y-61233742D01*
X179309211Y-61240414D01*
X179291432Y-61272976D01*
X179291432Y-61272977D01*
X179271435Y-61335527D01*
X179269939Y-61339690D01*
X179245541Y-61400634D01*
X179245539Y-61400641D01*
X179238519Y-61437057D01*
X179236695Y-61444203D01*
X179225402Y-61479535D01*
X179217607Y-61544729D01*
X179216925Y-61549102D01*
X179204500Y-61613571D01*
X179204500Y-61650662D01*
X179204061Y-61658029D01*
X179199658Y-61694851D01*
X179199658Y-61694856D01*
X179204342Y-61760344D01*
X179204500Y-61764769D01*
X179204500Y-67042298D01*
X179184815Y-67109337D01*
X179168181Y-67129979D01*
X174317979Y-71980181D01*
X174256656Y-72013666D01*
X174230298Y-72016500D01*
X169269162Y-72016500D01*
X169248595Y-72014782D01*
X169245385Y-72014242D01*
X169245376Y-72014241D01*
X169245374Y-72014241D01*
X169150501Y-72016500D01*
X169109909Y-72016500D01*
X169105142Y-72016954D01*
X169098628Y-72017576D01*
X169094215Y-72017839D01*
X169031018Y-72019344D01*
X169028581Y-72019403D01*
X169028580Y-72019403D01*
X169028571Y-72019404D01*
X168992339Y-72027285D01*
X168985050Y-72028422D01*
X168948132Y-72031947D01*
X168948128Y-72031947D01*
X168948128Y-72031948D01*
X168934517Y-72035944D01*
X168885117Y-72050449D01*
X168880828Y-72051544D01*
X168816689Y-72065496D01*
X168816680Y-72065499D01*
X168782593Y-72080095D01*
X168775652Y-72082590D01*
X168740063Y-72093040D01*
X168681688Y-72123133D01*
X168677684Y-72125020D01*
X168617337Y-72150863D01*
X168609041Y-72156477D01*
X168586621Y-72171651D01*
X168580276Y-72175415D01*
X168547312Y-72192410D01*
X168495695Y-72233001D01*
X168492121Y-72235611D01*
X168437759Y-72272403D01*
X168437750Y-72272410D01*
X168411518Y-72298641D01*
X168406001Y-72303537D01*
X168376853Y-72326459D01*
X168333845Y-72376092D01*
X168330829Y-72379331D01*
X140416478Y-100293681D01*
X140355155Y-100327166D01*
X140328797Y-100330000D01*
X114300000Y-100330000D01*
X114300000Y-149736000D01*
X114280315Y-149803039D01*
X114227511Y-149848794D01*
X114176000Y-149860000D01*
X102994000Y-149860000D01*
X102926961Y-149840315D01*
X102881206Y-149787511D01*
X102870000Y-149736000D01*
X102870000Y-144720346D01*
X104925702Y-144720346D01*
X104935819Y-144958528D01*
X104935819Y-144958532D01*
X104986045Y-145191580D01*
X105074935Y-145412788D01*
X105074936Y-145412790D01*
X105119423Y-145485042D01*
X105199932Y-145615796D01*
X105357409Y-145794725D01*
X105357436Y-145794755D01*
X105542920Y-145944523D01*
X105751046Y-146060790D01*
X105876951Y-146105275D01*
X105975829Y-146140211D01*
X106210790Y-146180499D01*
X106210798Y-146180499D01*
X106210800Y-146180500D01*
X106210801Y-146180500D01*
X107089502Y-146180500D01*
X107267536Y-146165347D01*
X107267539Y-146165346D01*
X107267541Y-146165346D01*
X107498249Y-146105275D01*
X107644557Y-146039139D01*
X107715480Y-146007080D01*
X107715481Y-146007078D01*
X107715486Y-146007077D01*
X107913003Y-145873579D01*
X108085118Y-145708621D01*
X108226879Y-145516947D01*
X108334207Y-145304074D01*
X108404016Y-145076123D01*
X108434298Y-144839654D01*
X108424180Y-144601468D01*
X108405535Y-144514957D01*
X108373954Y-144368419D01*
X108364058Y-144343793D01*
X108285064Y-144147210D01*
X108160069Y-143944205D01*
X108002564Y-143765245D01*
X107817080Y-143615477D01*
X107703130Y-143551820D01*
X107608955Y-143499210D01*
X107384170Y-143419788D01*
X107149209Y-143379500D01*
X107149200Y-143379500D01*
X106270503Y-143379500D01*
X106270498Y-143379500D01*
X106092463Y-143394652D01*
X105861751Y-143454724D01*
X105644519Y-143552919D01*
X105644511Y-143552924D01*
X105447006Y-143686413D01*
X105446997Y-143686421D01*
X105274881Y-143851379D01*
X105133123Y-144043050D01*
X105133120Y-144043054D01*
X105025796Y-144255920D01*
X105025793Y-144255926D01*
X104955983Y-144483878D01*
X104925702Y-144720346D01*
X102870000Y-144720346D01*
X102870000Y-139640346D01*
X104925702Y-139640346D01*
X104935819Y-139878528D01*
X104935819Y-139878532D01*
X104986045Y-140111580D01*
X105061089Y-140298331D01*
X105074936Y-140332790D01*
X105199931Y-140535795D01*
X105357436Y-140714755D01*
X105542920Y-140864523D01*
X105751046Y-140980790D01*
X105876951Y-141025275D01*
X105975829Y-141060211D01*
X106210790Y-141100499D01*
X106210798Y-141100499D01*
X106210800Y-141100500D01*
X106210801Y-141100500D01*
X107089502Y-141100500D01*
X107267536Y-141085347D01*
X107267539Y-141085346D01*
X107267541Y-141085346D01*
X107498249Y-141025275D01*
X107658731Y-140952732D01*
X107715480Y-140927080D01*
X107715481Y-140927078D01*
X107715486Y-140927077D01*
X107913003Y-140793579D01*
X108085118Y-140628621D01*
X108226879Y-140436947D01*
X108334207Y-140224074D01*
X108404016Y-139996123D01*
X108434298Y-139759654D01*
X108424180Y-139521468D01*
X108387980Y-139353502D01*
X108373954Y-139288419D01*
X108328748Y-139175920D01*
X108285064Y-139067210D01*
X108160069Y-138864205D01*
X108002564Y-138685245D01*
X107817080Y-138535477D01*
X107703130Y-138471820D01*
X107608955Y-138419210D01*
X107384170Y-138339788D01*
X107149209Y-138299500D01*
X107149200Y-138299500D01*
X106270503Y-138299500D01*
X106270498Y-138299500D01*
X106092463Y-138314652D01*
X105861751Y-138374724D01*
X105644519Y-138472919D01*
X105644511Y-138472924D01*
X105447006Y-138606413D01*
X105446997Y-138606421D01*
X105274881Y-138771379D01*
X105133123Y-138963050D01*
X105133120Y-138963054D01*
X105025796Y-139175920D01*
X105025793Y-139175926D01*
X104955983Y-139403878D01*
X104925702Y-139640346D01*
X102870000Y-139640346D01*
X102870000Y-134560346D01*
X104925702Y-134560346D01*
X104935819Y-134798528D01*
X104935819Y-134798532D01*
X104986045Y-135031580D01*
X105073833Y-135250045D01*
X105074936Y-135252790D01*
X105199931Y-135455795D01*
X105357436Y-135634755D01*
X105542920Y-135784523D01*
X105751046Y-135900790D01*
X105975828Y-135980210D01*
X105975829Y-135980211D01*
X106210790Y-136020499D01*
X106210798Y-136020499D01*
X106210800Y-136020500D01*
X106210801Y-136020500D01*
X107089502Y-136020500D01*
X107267536Y-136005347D01*
X107267539Y-136005346D01*
X107267541Y-136005346D01*
X107498249Y-135945275D01*
X107630973Y-135885279D01*
X107715480Y-135847080D01*
X107715481Y-135847078D01*
X107715486Y-135847077D01*
X107913003Y-135713579D01*
X108085118Y-135548621D01*
X108226879Y-135356947D01*
X108334207Y-135144074D01*
X108404016Y-134916123D01*
X108434298Y-134679654D01*
X108433154Y-134652734D01*
X108426220Y-134489500D01*
X108424180Y-134441468D01*
X108373954Y-134208419D01*
X108285064Y-133987210D01*
X108160069Y-133784205D01*
X108002564Y-133605245D01*
X107817080Y-133455477D01*
X107669981Y-133373302D01*
X107608955Y-133339210D01*
X107384170Y-133259788D01*
X107149209Y-133219500D01*
X107149200Y-133219500D01*
X106270503Y-133219500D01*
X106270498Y-133219500D01*
X106092463Y-133234652D01*
X105861751Y-133294724D01*
X105644519Y-133392919D01*
X105644511Y-133392924D01*
X105447006Y-133526413D01*
X105446997Y-133526421D01*
X105274881Y-133691379D01*
X105133123Y-133883050D01*
X105133120Y-133883054D01*
X105025796Y-134095920D01*
X105025793Y-134095926D01*
X104955983Y-134323878D01*
X104925702Y-134560346D01*
X102870000Y-134560346D01*
X102870000Y-129480346D01*
X104925702Y-129480346D01*
X104935819Y-129718528D01*
X104935819Y-129718532D01*
X104986045Y-129951580D01*
X105034858Y-130073053D01*
X105074936Y-130172790D01*
X105199931Y-130375795D01*
X105357436Y-130554755D01*
X105542920Y-130704523D01*
X105751046Y-130820790D01*
X105975828Y-130900211D01*
X105975829Y-130900211D01*
X106210790Y-130940499D01*
X106210798Y-130940499D01*
X106210800Y-130940500D01*
X106210801Y-130940500D01*
X107089502Y-130940500D01*
X107267536Y-130925347D01*
X107267539Y-130925346D01*
X107267541Y-130925346D01*
X107498249Y-130865275D01*
X107630973Y-130805279D01*
X107715480Y-130767080D01*
X107715481Y-130767078D01*
X107715486Y-130767077D01*
X107913003Y-130633579D01*
X108085118Y-130468621D01*
X108226879Y-130276947D01*
X108334207Y-130064074D01*
X108404016Y-129836123D01*
X108434298Y-129599654D01*
X108424180Y-129361468D01*
X108393235Y-129217885D01*
X108373954Y-129128419D01*
X108325142Y-129006947D01*
X108285064Y-128907210D01*
X108160069Y-128704205D01*
X108002564Y-128525245D01*
X107817080Y-128375477D01*
X107687928Y-128303328D01*
X107608955Y-128259210D01*
X107384170Y-128179788D01*
X107149209Y-128139500D01*
X107149200Y-128139500D01*
X106270503Y-128139500D01*
X106270498Y-128139500D01*
X106092463Y-128154652D01*
X105861751Y-128214724D01*
X105644519Y-128312919D01*
X105644511Y-128312924D01*
X105447006Y-128446413D01*
X105446997Y-128446421D01*
X105274881Y-128611379D01*
X105133123Y-128803050D01*
X105133120Y-128803054D01*
X105025796Y-129015920D01*
X105025793Y-129015926D01*
X104955983Y-129243878D01*
X104925702Y-129480346D01*
X102870000Y-129480346D01*
X102870000Y-124400346D01*
X104925702Y-124400346D01*
X104935819Y-124638528D01*
X104935819Y-124638532D01*
X104986045Y-124871580D01*
X105074935Y-125092788D01*
X105074936Y-125092790D01*
X105199931Y-125295795D01*
X105357436Y-125474755D01*
X105542920Y-125624523D01*
X105751046Y-125740790D01*
X105876951Y-125785275D01*
X105975829Y-125820211D01*
X106210790Y-125860499D01*
X106210798Y-125860499D01*
X106210800Y-125860500D01*
X106210801Y-125860500D01*
X107089502Y-125860500D01*
X107267536Y-125845347D01*
X107267539Y-125845346D01*
X107267541Y-125845346D01*
X107498249Y-125785275D01*
X107630973Y-125725279D01*
X107715480Y-125687080D01*
X107715481Y-125687078D01*
X107715486Y-125687077D01*
X107913003Y-125553579D01*
X108085118Y-125388621D01*
X108226879Y-125196947D01*
X108334207Y-124984074D01*
X108404016Y-124756123D01*
X108434298Y-124519654D01*
X108424180Y-124281468D01*
X108373954Y-124048419D01*
X108285064Y-123827210D01*
X108160069Y-123624205D01*
X108002564Y-123445245D01*
X107817080Y-123295477D01*
X107690266Y-123224634D01*
X107608955Y-123179210D01*
X107384170Y-123099788D01*
X107149209Y-123059500D01*
X107149200Y-123059500D01*
X106270503Y-123059500D01*
X106270498Y-123059500D01*
X106092463Y-123074652D01*
X105861751Y-123134724D01*
X105644519Y-123232919D01*
X105644511Y-123232924D01*
X105447006Y-123366413D01*
X105446997Y-123366421D01*
X105274881Y-123531379D01*
X105133123Y-123723050D01*
X105133120Y-123723054D01*
X105025796Y-123935920D01*
X105025793Y-123935926D01*
X104955983Y-124163878D01*
X104925702Y-124400346D01*
X102870000Y-124400346D01*
X102870000Y-119320346D01*
X104925702Y-119320346D01*
X104935819Y-119558528D01*
X104935819Y-119558532D01*
X104986045Y-119791580D01*
X105034858Y-119913053D01*
X105074936Y-120012790D01*
X105199931Y-120215795D01*
X105357436Y-120394755D01*
X105542920Y-120544523D01*
X105751046Y-120660790D01*
X105975828Y-120740211D01*
X105975829Y-120740211D01*
X106210790Y-120780499D01*
X106210798Y-120780499D01*
X106210800Y-120780500D01*
X106210801Y-120780500D01*
X107089502Y-120780500D01*
X107267536Y-120765347D01*
X107267539Y-120765346D01*
X107267541Y-120765346D01*
X107498249Y-120705275D01*
X107630973Y-120645279D01*
X107715480Y-120607080D01*
X107715481Y-120607078D01*
X107715486Y-120607077D01*
X107913003Y-120473579D01*
X108085118Y-120308621D01*
X108226879Y-120116947D01*
X108334207Y-119904074D01*
X108404016Y-119676123D01*
X108434298Y-119439654D01*
X108424180Y-119201468D01*
X108373954Y-118968419D01*
X108285064Y-118747210D01*
X108160069Y-118544205D01*
X108002564Y-118365245D01*
X107817080Y-118215477D01*
X107703130Y-118151820D01*
X107608955Y-118099210D01*
X107384170Y-118019788D01*
X107149209Y-117979500D01*
X107149200Y-117979500D01*
X106270503Y-117979500D01*
X106270498Y-117979500D01*
X106092463Y-117994652D01*
X105861751Y-118054724D01*
X105644519Y-118152919D01*
X105644511Y-118152924D01*
X105447006Y-118286413D01*
X105446997Y-118286421D01*
X105274881Y-118451379D01*
X105133123Y-118643050D01*
X105133120Y-118643054D01*
X105025796Y-118855920D01*
X105025793Y-118855926D01*
X104955983Y-119083878D01*
X104925702Y-119320346D01*
X102870000Y-119320346D01*
X102870000Y-114240346D01*
X104925702Y-114240346D01*
X104935819Y-114478528D01*
X104935819Y-114478532D01*
X104986045Y-114711580D01*
X105034858Y-114833053D01*
X105074936Y-114932790D01*
X105199931Y-115135795D01*
X105357436Y-115314755D01*
X105542920Y-115464523D01*
X105751046Y-115580790D01*
X105975828Y-115660210D01*
X105975829Y-115660211D01*
X106210790Y-115700499D01*
X106210798Y-115700499D01*
X106210800Y-115700500D01*
X106210801Y-115700500D01*
X107089502Y-115700500D01*
X107267536Y-115685347D01*
X107267539Y-115685346D01*
X107267541Y-115685346D01*
X107498249Y-115625275D01*
X107630973Y-115565279D01*
X107715480Y-115527080D01*
X107715481Y-115527078D01*
X107715486Y-115527077D01*
X107913003Y-115393579D01*
X108085118Y-115228621D01*
X108226879Y-115036947D01*
X108334207Y-114824074D01*
X108404016Y-114596123D01*
X108434298Y-114359654D01*
X108424180Y-114121468D01*
X108373954Y-113888419D01*
X108285064Y-113667210D01*
X108160069Y-113464205D01*
X108002564Y-113285245D01*
X107817080Y-113135477D01*
X107703130Y-113071820D01*
X107608955Y-113019210D01*
X107384170Y-112939788D01*
X107149209Y-112899500D01*
X107149200Y-112899500D01*
X106270503Y-112899500D01*
X106270498Y-112899500D01*
X106092463Y-112914652D01*
X105861751Y-112974724D01*
X105644519Y-113072919D01*
X105644511Y-113072924D01*
X105447006Y-113206413D01*
X105446997Y-113206421D01*
X105274881Y-113371379D01*
X105133123Y-113563050D01*
X105133120Y-113563054D01*
X105025796Y-113775920D01*
X105025793Y-113775926D01*
X104955983Y-114003878D01*
X104925702Y-114240346D01*
X102870000Y-114240346D01*
X102870000Y-109160346D01*
X104925702Y-109160346D01*
X104935819Y-109398528D01*
X104935819Y-109398532D01*
X104986045Y-109631580D01*
X105074935Y-109852788D01*
X105074936Y-109852790D01*
X105199931Y-110055795D01*
X105357436Y-110234755D01*
X105542920Y-110384523D01*
X105751046Y-110500790D01*
X105876951Y-110545275D01*
X105975829Y-110580211D01*
X106210790Y-110620499D01*
X106210798Y-110620499D01*
X106210800Y-110620500D01*
X106210801Y-110620500D01*
X107089502Y-110620500D01*
X107267536Y-110605347D01*
X107267539Y-110605346D01*
X107267541Y-110605346D01*
X107498249Y-110545275D01*
X107630973Y-110485279D01*
X107715480Y-110447080D01*
X107715481Y-110447078D01*
X107715486Y-110447077D01*
X107913003Y-110313579D01*
X108085118Y-110148621D01*
X108226879Y-109956947D01*
X108334207Y-109744074D01*
X108404016Y-109516123D01*
X108434298Y-109279654D01*
X108424180Y-109041468D01*
X108373954Y-108808419D01*
X108285064Y-108587210D01*
X108160069Y-108384205D01*
X108002564Y-108205245D01*
X107817080Y-108055477D01*
X107703130Y-107991820D01*
X107608955Y-107939210D01*
X107384170Y-107859788D01*
X107149209Y-107819500D01*
X107149200Y-107819500D01*
X106270503Y-107819500D01*
X106270498Y-107819500D01*
X106092463Y-107834652D01*
X105861751Y-107894724D01*
X105644519Y-107992919D01*
X105644511Y-107992924D01*
X105447006Y-108126413D01*
X105446997Y-108126421D01*
X105274881Y-108291379D01*
X105133123Y-108483050D01*
X105133120Y-108483054D01*
X105025796Y-108695920D01*
X105025793Y-108695926D01*
X104955983Y-108923878D01*
X104925702Y-109160346D01*
X102870000Y-109160346D01*
X102870000Y-77917907D01*
X102889685Y-77850868D01*
X102942489Y-77805113D01*
X103011647Y-77795169D01*
X103053015Y-77808851D01*
X103232597Y-77906036D01*
X103452119Y-77981398D01*
X103534693Y-77995176D01*
X103597577Y-78025625D01*
X103601965Y-78029804D01*
X104910717Y-79338556D01*
X104924042Y-79354308D01*
X104925943Y-79356977D01*
X104947163Y-79377210D01*
X104994642Y-79422482D01*
X105023323Y-79451163D01*
X105023335Y-79451174D01*
X105032058Y-79458376D01*
X105035368Y-79461314D01*
X105051141Y-79476352D01*
X105082888Y-79506623D01*
X105100430Y-79517897D01*
X105114083Y-79526672D01*
X105120041Y-79531022D01*
X105148644Y-79554638D01*
X105148648Y-79554641D01*
X105206284Y-79586112D01*
X105210085Y-79588368D01*
X105265317Y-79623863D01*
X105299761Y-79637652D01*
X105306415Y-79640788D01*
X105338977Y-79658568D01*
X105401536Y-79678565D01*
X105405674Y-79680053D01*
X105466638Y-79704460D01*
X105503070Y-79711482D01*
X105510199Y-79713301D01*
X105535338Y-79721337D01*
X105545534Y-79724597D01*
X105610723Y-79732391D01*
X105615098Y-79733073D01*
X105679567Y-79745499D01*
X105679568Y-79745499D01*
X105679573Y-79745500D01*
X105716662Y-79745500D01*
X105724028Y-79745939D01*
X105735266Y-79747282D01*
X105756378Y-79749806D01*
X105820606Y-79777308D01*
X105859770Y-79835169D01*
X105861435Y-79905019D01*
X105825072Y-79964681D01*
X105792735Y-79985921D01*
X105644519Y-80052919D01*
X105644511Y-80052924D01*
X105447006Y-80186413D01*
X105446997Y-80186421D01*
X105274881Y-80351379D01*
X105133123Y-80543050D01*
X105133120Y-80543054D01*
X105025796Y-80755920D01*
X105025793Y-80755926D01*
X104955983Y-80983878D01*
X104925702Y-81220346D01*
X104935819Y-81458528D01*
X104935819Y-81458532D01*
X104986045Y-81691580D01*
X105034858Y-81813053D01*
X105074936Y-81912790D01*
X105199931Y-82115795D01*
X105357436Y-82294755D01*
X105542920Y-82444523D01*
X105542935Y-82444531D01*
X105542942Y-82444538D01*
X105547291Y-82447478D01*
X105546693Y-82448362D01*
X105591861Y-82494411D01*
X105606053Y-82562824D01*
X105581005Y-82628050D01*
X105551897Y-82655520D01*
X105447007Y-82726413D01*
X105446997Y-82726421D01*
X105274881Y-82891379D01*
X105133123Y-83083050D01*
X105133120Y-83083054D01*
X105025796Y-83295920D01*
X105025793Y-83295926D01*
X104955983Y-83523878D01*
X104925702Y-83760346D01*
X104935819Y-83998528D01*
X104935819Y-83998532D01*
X104986045Y-84231580D01*
X105072407Y-84446496D01*
X105074936Y-84452790D01*
X105199931Y-84655795D01*
X105357436Y-84834755D01*
X105542920Y-84984523D01*
X105542935Y-84984531D01*
X105542942Y-84984538D01*
X105547291Y-84987478D01*
X105546693Y-84988362D01*
X105591861Y-85034411D01*
X105606053Y-85102824D01*
X105581005Y-85168050D01*
X105551897Y-85195520D01*
X105447007Y-85266413D01*
X105446997Y-85266421D01*
X105274881Y-85431379D01*
X105133123Y-85623050D01*
X105133120Y-85623054D01*
X105025796Y-85835920D01*
X105025793Y-85835926D01*
X104955983Y-86063878D01*
X104925702Y-86300346D01*
X104935819Y-86538528D01*
X104935819Y-86538532D01*
X104986045Y-86771580D01*
X105034858Y-86893053D01*
X105074936Y-86992790D01*
X105199931Y-87195795D01*
X105357436Y-87374755D01*
X105542920Y-87524523D01*
X105542935Y-87524531D01*
X105542942Y-87524538D01*
X105547291Y-87527478D01*
X105546693Y-87528362D01*
X105591861Y-87574411D01*
X105606053Y-87642824D01*
X105581005Y-87708050D01*
X105551897Y-87735520D01*
X105447007Y-87806413D01*
X105446997Y-87806421D01*
X105274881Y-87971379D01*
X105133123Y-88163050D01*
X105133120Y-88163054D01*
X105025796Y-88375920D01*
X105025793Y-88375926D01*
X104955983Y-88603878D01*
X104925702Y-88840346D01*
X104935819Y-89078528D01*
X104935819Y-89078532D01*
X104986045Y-89311580D01*
X105034858Y-89433053D01*
X105074936Y-89532790D01*
X105199931Y-89735795D01*
X105357436Y-89914755D01*
X105542920Y-90064523D01*
X105542935Y-90064531D01*
X105542942Y-90064538D01*
X105547291Y-90067478D01*
X105546693Y-90068362D01*
X105591861Y-90114411D01*
X105606053Y-90182824D01*
X105581005Y-90248050D01*
X105551897Y-90275520D01*
X105447007Y-90346413D01*
X105446997Y-90346421D01*
X105274881Y-90511379D01*
X105133123Y-90703050D01*
X105133120Y-90703054D01*
X105025796Y-90915920D01*
X105025793Y-90915926D01*
X104955983Y-91143878D01*
X104925702Y-91380346D01*
X104935819Y-91618528D01*
X104935819Y-91618532D01*
X104986045Y-91851580D01*
X105034858Y-91973053D01*
X105074936Y-92072790D01*
X105199931Y-92275795D01*
X105357436Y-92454755D01*
X105542920Y-92604523D01*
X105542935Y-92604531D01*
X105542942Y-92604538D01*
X105547291Y-92607478D01*
X105546693Y-92608362D01*
X105591861Y-92654411D01*
X105606053Y-92722824D01*
X105581005Y-92788050D01*
X105551897Y-92815520D01*
X105447007Y-92886413D01*
X105446997Y-92886421D01*
X105274881Y-93051379D01*
X105133123Y-93243050D01*
X105133120Y-93243054D01*
X105025796Y-93455920D01*
X105025793Y-93455926D01*
X104955983Y-93683878D01*
X104925702Y-93920346D01*
X104935819Y-94158528D01*
X104935819Y-94158532D01*
X104986045Y-94391580D01*
X105074935Y-94612788D01*
X105074936Y-94612790D01*
X105199931Y-94815795D01*
X105357436Y-94994755D01*
X105542920Y-95144523D01*
X105542935Y-95144531D01*
X105542942Y-95144538D01*
X105547291Y-95147478D01*
X105546693Y-95148362D01*
X105591861Y-95194411D01*
X105606053Y-95262824D01*
X105581005Y-95328050D01*
X105551897Y-95355520D01*
X105447007Y-95426413D01*
X105446997Y-95426421D01*
X105274881Y-95591379D01*
X105133123Y-95783050D01*
X105133120Y-95783054D01*
X105025796Y-95995920D01*
X105025793Y-95995926D01*
X104955983Y-96223878D01*
X104925702Y-96460346D01*
X104935819Y-96698528D01*
X104935819Y-96698532D01*
X104986045Y-96931580D01*
X105034858Y-97053053D01*
X105074936Y-97152790D01*
X105199931Y-97355795D01*
X105357436Y-97534755D01*
X105542920Y-97684523D01*
X105542935Y-97684531D01*
X105542942Y-97684538D01*
X105547291Y-97687478D01*
X105546693Y-97688362D01*
X105591861Y-97734411D01*
X105606053Y-97802824D01*
X105581005Y-97868050D01*
X105551897Y-97895520D01*
X105447007Y-97966413D01*
X105446997Y-97966421D01*
X105274881Y-98131379D01*
X105133123Y-98323050D01*
X105133120Y-98323054D01*
X105025796Y-98535920D01*
X105025793Y-98535926D01*
X104955983Y-98763878D01*
X104925702Y-99000346D01*
X104935819Y-99238528D01*
X104935819Y-99238532D01*
X104986045Y-99471580D01*
X105034858Y-99593053D01*
X105074936Y-99692790D01*
X105199931Y-99895795D01*
X105357436Y-100074755D01*
X105542920Y-100224523D01*
X105542935Y-100224531D01*
X105542942Y-100224538D01*
X105547291Y-100227478D01*
X105546693Y-100228362D01*
X105591861Y-100274411D01*
X105606053Y-100342824D01*
X105581005Y-100408050D01*
X105551897Y-100435520D01*
X105447007Y-100506413D01*
X105446997Y-100506421D01*
X105274881Y-100671379D01*
X105133123Y-100863050D01*
X105133120Y-100863054D01*
X105025796Y-101075920D01*
X105025793Y-101075926D01*
X104955983Y-101303878D01*
X104925702Y-101540346D01*
X104935819Y-101778528D01*
X104935819Y-101778532D01*
X104986045Y-102011580D01*
X105034858Y-102133053D01*
X105074936Y-102232790D01*
X105199931Y-102435795D01*
X105357436Y-102614755D01*
X105542920Y-102764523D01*
X105542935Y-102764531D01*
X105542942Y-102764538D01*
X105547291Y-102767478D01*
X105546693Y-102768362D01*
X105591861Y-102814411D01*
X105606053Y-102882824D01*
X105581005Y-102948050D01*
X105551897Y-102975520D01*
X105447007Y-103046413D01*
X105446997Y-103046421D01*
X105274881Y-103211379D01*
X105133123Y-103403050D01*
X105133120Y-103403054D01*
X105025796Y-103615920D01*
X105025793Y-103615926D01*
X104955983Y-103843878D01*
X104925702Y-104080346D01*
X104935819Y-104318528D01*
X104935819Y-104318532D01*
X104986045Y-104551580D01*
X105034858Y-104673053D01*
X105074936Y-104772790D01*
X105199931Y-104975795D01*
X105357436Y-105154755D01*
X105542920Y-105304523D01*
X105751046Y-105420790D01*
X105975829Y-105500211D01*
X106210790Y-105540499D01*
X106210798Y-105540499D01*
X106210800Y-105540500D01*
X106210801Y-105540500D01*
X107089502Y-105540500D01*
X107267536Y-105525347D01*
X107267539Y-105525346D01*
X107267541Y-105525346D01*
X107498249Y-105465275D01*
X107630973Y-105405279D01*
X107715480Y-105367080D01*
X107715481Y-105367078D01*
X107715486Y-105367077D01*
X107913003Y-105233579D01*
X108085118Y-105068621D01*
X108226879Y-104876947D01*
X108334207Y-104664074D01*
X108404016Y-104436123D01*
X108434298Y-104199654D01*
X108424180Y-103961468D01*
X108373954Y-103728419D01*
X108285064Y-103507210D01*
X108160069Y-103304205D01*
X108002564Y-103125245D01*
X107817080Y-102975477D01*
X107817074Y-102975474D01*
X107817071Y-102975471D01*
X107817057Y-102975463D01*
X107817051Y-102975457D01*
X107812709Y-102972522D01*
X107813306Y-102971638D01*
X107768134Y-102925580D01*
X107753947Y-102857165D01*
X107778999Y-102791942D01*
X107808099Y-102764481D01*
X107913003Y-102693579D01*
X108085118Y-102528621D01*
X108226879Y-102336947D01*
X108334207Y-102124074D01*
X108404016Y-101896123D01*
X108434298Y-101659654D01*
X108424180Y-101421468D01*
X108373954Y-101188419D01*
X108285064Y-100967210D01*
X108160069Y-100764205D01*
X108002564Y-100585245D01*
X107817080Y-100435477D01*
X107817074Y-100435474D01*
X107817071Y-100435471D01*
X107817057Y-100435463D01*
X107817051Y-100435457D01*
X107812709Y-100432522D01*
X107813306Y-100431638D01*
X107768134Y-100385580D01*
X107753947Y-100317165D01*
X107778999Y-100251942D01*
X107808099Y-100224481D01*
X107913003Y-100153579D01*
X108085118Y-99988621D01*
X108226879Y-99796947D01*
X108334207Y-99584074D01*
X108404016Y-99356123D01*
X108434298Y-99119654D01*
X108424180Y-98881468D01*
X108373954Y-98648419D01*
X108285064Y-98427210D01*
X108160069Y-98224205D01*
X108002564Y-98045245D01*
X107817080Y-97895477D01*
X107817074Y-97895474D01*
X107817071Y-97895471D01*
X107817057Y-97895463D01*
X107817051Y-97895457D01*
X107812709Y-97892522D01*
X107813306Y-97891638D01*
X107768134Y-97845580D01*
X107753947Y-97777165D01*
X107778999Y-97711942D01*
X107808099Y-97684481D01*
X107913003Y-97613579D01*
X108085118Y-97448621D01*
X108226879Y-97256947D01*
X108334207Y-97044074D01*
X108404016Y-96816123D01*
X108434298Y-96579654D01*
X108424180Y-96341468D01*
X108373954Y-96108419D01*
X108285064Y-95887210D01*
X108160069Y-95684205D01*
X108002564Y-95505245D01*
X107817080Y-95355477D01*
X107817074Y-95355474D01*
X107817071Y-95355471D01*
X107817057Y-95355463D01*
X107817051Y-95355457D01*
X107812709Y-95352522D01*
X107813306Y-95351638D01*
X107768134Y-95305580D01*
X107753947Y-95237165D01*
X107778999Y-95171942D01*
X107808099Y-95144481D01*
X107913003Y-95073579D01*
X108085118Y-94908621D01*
X108226879Y-94716947D01*
X108334207Y-94504074D01*
X108404016Y-94276123D01*
X108434298Y-94039654D01*
X108424180Y-93801468D01*
X108373954Y-93568419D01*
X108285064Y-93347210D01*
X108160069Y-93144205D01*
X108002564Y-92965245D01*
X107817080Y-92815477D01*
X107817074Y-92815474D01*
X107817071Y-92815471D01*
X107817057Y-92815463D01*
X107817051Y-92815457D01*
X107812709Y-92812522D01*
X107813306Y-92811638D01*
X107768134Y-92765580D01*
X107753947Y-92697165D01*
X107778999Y-92631942D01*
X107808099Y-92604481D01*
X107913003Y-92533579D01*
X108085118Y-92368621D01*
X108226879Y-92176947D01*
X108334207Y-91964074D01*
X108404016Y-91736123D01*
X108434298Y-91499654D01*
X108424180Y-91261468D01*
X108373954Y-91028419D01*
X108285064Y-90807210D01*
X108160069Y-90604205D01*
X108002564Y-90425245D01*
X107817080Y-90275477D01*
X107817074Y-90275474D01*
X107817071Y-90275471D01*
X107817057Y-90275463D01*
X107817051Y-90275457D01*
X107812709Y-90272522D01*
X107813306Y-90271638D01*
X107768134Y-90225580D01*
X107753947Y-90157165D01*
X107778999Y-90091942D01*
X107808099Y-90064481D01*
X107913003Y-89993579D01*
X108085118Y-89828621D01*
X108226879Y-89636947D01*
X108334207Y-89424074D01*
X108404016Y-89196123D01*
X108434298Y-88959654D01*
X108424180Y-88721468D01*
X108373954Y-88488419D01*
X108285064Y-88267210D01*
X108160069Y-88064205D01*
X108002564Y-87885245D01*
X107817080Y-87735477D01*
X107817074Y-87735474D01*
X107817071Y-87735471D01*
X107817057Y-87735463D01*
X107817051Y-87735457D01*
X107812709Y-87732522D01*
X107813306Y-87731638D01*
X107768134Y-87685580D01*
X107753947Y-87617165D01*
X107778999Y-87551942D01*
X107808099Y-87524481D01*
X107913003Y-87453579D01*
X108085118Y-87288621D01*
X108226879Y-87096947D01*
X108334207Y-86884074D01*
X108404016Y-86656123D01*
X108434298Y-86419654D01*
X108424180Y-86181468D01*
X108373954Y-85948419D01*
X108285064Y-85727210D01*
X108160069Y-85524205D01*
X108002564Y-85345245D01*
X107817080Y-85195477D01*
X107817074Y-85195474D01*
X107817071Y-85195471D01*
X107817057Y-85195463D01*
X107817051Y-85195457D01*
X107812709Y-85192522D01*
X107813306Y-85191638D01*
X107768134Y-85145580D01*
X107753947Y-85077165D01*
X107778999Y-85011942D01*
X107808099Y-84984481D01*
X107913003Y-84913579D01*
X108085118Y-84748621D01*
X108226879Y-84556947D01*
X108334207Y-84344074D01*
X108404016Y-84116123D01*
X108411615Y-84056784D01*
X109689500Y-84056784D01*
X109704364Y-84226687D01*
X109704366Y-84226697D01*
X109763258Y-84446488D01*
X109763261Y-84446497D01*
X109859431Y-84652732D01*
X109859432Y-84652734D01*
X109989954Y-84839141D01*
X110150858Y-85000045D01*
X110150861Y-85000047D01*
X110337266Y-85130568D01*
X110543504Y-85226739D01*
X110763308Y-85285635D01*
X110925230Y-85299801D01*
X110989998Y-85305468D01*
X110990000Y-85305468D01*
X110990002Y-85305468D01*
X111046672Y-85300509D01*
X111216692Y-85285635D01*
X111436496Y-85226739D01*
X111642734Y-85130568D01*
X111829139Y-85000047D01*
X111990047Y-84839139D01*
X112120568Y-84652734D01*
X112216739Y-84446496D01*
X112275635Y-84226692D01*
X112290500Y-84056784D01*
X112290500Y-83543216D01*
X112275635Y-83373308D01*
X112216739Y-83153504D01*
X112120568Y-82947266D01*
X111990047Y-82760861D01*
X111990045Y-82760858D01*
X111829141Y-82599954D01*
X111642734Y-82469432D01*
X111642732Y-82469431D01*
X111436497Y-82373261D01*
X111436488Y-82373258D01*
X111216697Y-82314366D01*
X111216693Y-82314365D01*
X111216692Y-82314365D01*
X111216691Y-82314364D01*
X111216686Y-82314364D01*
X110990002Y-82294532D01*
X110989998Y-82294532D01*
X110763313Y-82314364D01*
X110763302Y-82314366D01*
X110543511Y-82373258D01*
X110543502Y-82373261D01*
X110337267Y-82469431D01*
X110337265Y-82469432D01*
X110150858Y-82599954D01*
X109989954Y-82760858D01*
X109859432Y-82947265D01*
X109859431Y-82947267D01*
X109763261Y-83153502D01*
X109763258Y-83153511D01*
X109704366Y-83373302D01*
X109704364Y-83373312D01*
X109689500Y-83543216D01*
X109689500Y-84056784D01*
X108411615Y-84056784D01*
X108434298Y-83879654D01*
X108424180Y-83641468D01*
X108373954Y-83408419D01*
X108285064Y-83187210D01*
X108160069Y-82984205D01*
X108002564Y-82805245D01*
X107817080Y-82655477D01*
X107817074Y-82655474D01*
X107817071Y-82655471D01*
X107817057Y-82655463D01*
X107817051Y-82655457D01*
X107812709Y-82652522D01*
X107813306Y-82651638D01*
X107768134Y-82605580D01*
X107753947Y-82537165D01*
X107778999Y-82471942D01*
X107808099Y-82444481D01*
X107913003Y-82373579D01*
X108085118Y-82208621D01*
X108226879Y-82016947D01*
X108334207Y-81804074D01*
X108404016Y-81576123D01*
X108434298Y-81339654D01*
X108424180Y-81101468D01*
X108373954Y-80868419D01*
X108285064Y-80647210D01*
X108160069Y-80444205D01*
X108002564Y-80265245D01*
X107817080Y-80115477D01*
X107691169Y-80045138D01*
X107608953Y-79999209D01*
X107572746Y-79986417D01*
X107516093Y-79945523D01*
X107490543Y-79880493D01*
X107504207Y-79811972D01*
X107552747Y-79761716D01*
X107614055Y-79745500D01*
X110730353Y-79745500D01*
X110782757Y-79757117D01*
X110953504Y-79836739D01*
X111173308Y-79895635D01*
X111343216Y-79910500D01*
X111856784Y-79910500D01*
X112026692Y-79895635D01*
X112246496Y-79836739D01*
X112452734Y-79740568D01*
X112639139Y-79610047D01*
X112800047Y-79449139D01*
X112930568Y-79262734D01*
X113026739Y-79056496D01*
X113085635Y-78836692D01*
X113105468Y-78610001D01*
X122294532Y-78610001D01*
X122314364Y-78836686D01*
X122314366Y-78836697D01*
X122373258Y-79056488D01*
X122373261Y-79056497D01*
X122469431Y-79262732D01*
X122469432Y-79262734D01*
X122599954Y-79449141D01*
X122760858Y-79610045D01*
X122760861Y-79610047D01*
X122947266Y-79740568D01*
X123153504Y-79836739D01*
X123373308Y-79895635D01*
X123543216Y-79910500D01*
X124056784Y-79910500D01*
X124226692Y-79895635D01*
X124446496Y-79836739D01*
X124617242Y-79757117D01*
X124669647Y-79745500D01*
X129130353Y-79745500D01*
X129182757Y-79757117D01*
X129353504Y-79836739D01*
X129573308Y-79895635D01*
X129743216Y-79910500D01*
X130256784Y-79910500D01*
X130426692Y-79895635D01*
X130646496Y-79836739D01*
X130852734Y-79740568D01*
X131039139Y-79610047D01*
X131200047Y-79449139D01*
X131330568Y-79262734D01*
X131426739Y-79056496D01*
X131485635Y-78836692D01*
X131505468Y-78610000D01*
X131485635Y-78383308D01*
X131426739Y-78163504D01*
X131330568Y-77957266D01*
X131217348Y-77795570D01*
X131200045Y-77770858D01*
X131039141Y-77609954D01*
X130852734Y-77479432D01*
X130852732Y-77479431D01*
X130646497Y-77383261D01*
X130646488Y-77383258D01*
X130426697Y-77324366D01*
X130426687Y-77324364D01*
X130256784Y-77309500D01*
X129743216Y-77309500D01*
X129573312Y-77324364D01*
X129573302Y-77324366D01*
X129353511Y-77383258D01*
X129353502Y-77383261D01*
X129182758Y-77462882D01*
X129130353Y-77474500D01*
X124669647Y-77474500D01*
X124617242Y-77462882D01*
X124446497Y-77383261D01*
X124446488Y-77383258D01*
X124226697Y-77324366D01*
X124226687Y-77324364D01*
X124056784Y-77309500D01*
X123543216Y-77309500D01*
X123373312Y-77324364D01*
X123373302Y-77324366D01*
X123153511Y-77383258D01*
X123153502Y-77383261D01*
X122947267Y-77479431D01*
X122947265Y-77479432D01*
X122760858Y-77609954D01*
X122599954Y-77770858D01*
X122469432Y-77957265D01*
X122469431Y-77957267D01*
X122373261Y-78163502D01*
X122373258Y-78163511D01*
X122314366Y-78383302D01*
X122314364Y-78383313D01*
X122294532Y-78609998D01*
X122294532Y-78610001D01*
X113105468Y-78610001D01*
X113105468Y-78610000D01*
X113085635Y-78383308D01*
X113026739Y-78163504D01*
X112930568Y-77957266D01*
X112817348Y-77795570D01*
X112800045Y-77770858D01*
X112639141Y-77609954D01*
X112452734Y-77479432D01*
X112452732Y-77479431D01*
X112246497Y-77383261D01*
X112246488Y-77383258D01*
X112026697Y-77324366D01*
X112026687Y-77324364D01*
X111856784Y-77309500D01*
X111343216Y-77309500D01*
X111173312Y-77324364D01*
X111173302Y-77324366D01*
X110953511Y-77383258D01*
X110953502Y-77383261D01*
X110782758Y-77462882D01*
X110730353Y-77474500D01*
X106309701Y-77474500D01*
X106242662Y-77454815D01*
X106222020Y-77438181D01*
X105211310Y-76427471D01*
X105178786Y-76370232D01*
X105126257Y-76162800D01*
X105065189Y-76023579D01*
X105033025Y-75950252D01*
X105031399Y-75947764D01*
X105031046Y-75946595D01*
X105030584Y-75945741D01*
X105030759Y-75945645D01*
X105011211Y-75880874D01*
X105030390Y-75813688D01*
X105082848Y-75767537D01*
X105151930Y-75757074D01*
X105215702Y-75785620D01*
X105228290Y-75798017D01*
X105301213Y-75880874D01*
X105357436Y-75944755D01*
X105542920Y-76094523D01*
X105751046Y-76210790D01*
X105876951Y-76255275D01*
X105975829Y-76290211D01*
X106210790Y-76330499D01*
X106210798Y-76330499D01*
X106210800Y-76330500D01*
X106210801Y-76330500D01*
X107089502Y-76330500D01*
X107267536Y-76315347D01*
X107267539Y-76315346D01*
X107267541Y-76315346D01*
X107498249Y-76255275D01*
X107648924Y-76187165D01*
X107715480Y-76157080D01*
X107715481Y-76157078D01*
X107715486Y-76157077D01*
X107819516Y-76086764D01*
X107886081Y-76065533D01*
X107888953Y-76065500D01*
X129714838Y-76065500D01*
X129735402Y-76067216D01*
X129738626Y-76067759D01*
X129832132Y-76065533D01*
X129833519Y-76065500D01*
X129874082Y-76065500D01*
X129874091Y-76065500D01*
X129874100Y-76065499D01*
X129874102Y-76065499D01*
X129874803Y-76065431D01*
X129885369Y-76064422D01*
X129889763Y-76064160D01*
X129955419Y-76062598D01*
X129981148Y-76057000D01*
X129991653Y-76054716D01*
X129998945Y-76053578D01*
X129999320Y-76053542D01*
X130035872Y-76050052D01*
X130098900Y-76031544D01*
X130103145Y-76030461D01*
X130167317Y-76016502D01*
X130201405Y-76001903D01*
X130208343Y-75999409D01*
X130243942Y-75988957D01*
X130289502Y-75965467D01*
X130302307Y-75958867D01*
X130306314Y-75956979D01*
X130366663Y-75931137D01*
X130397380Y-75910346D01*
X130403730Y-75906579D01*
X130404830Y-75906011D01*
X130436690Y-75889588D01*
X130488313Y-75848989D01*
X130491870Y-75846393D01*
X130546250Y-75809589D01*
X130572475Y-75783362D01*
X130577992Y-75778465D01*
X130607149Y-75755538D01*
X130650162Y-75705897D01*
X130653143Y-75702694D01*
X133584020Y-72771819D01*
X133645344Y-72738334D01*
X133671702Y-72735500D01*
X134564951Y-72735500D01*
X134631990Y-72755185D01*
X134652632Y-72771819D01*
X134680858Y-72800045D01*
X134680861Y-72800047D01*
X134867266Y-72930568D01*
X135073504Y-73026739D01*
X135293308Y-73085635D01*
X135455230Y-73099801D01*
X135519998Y-73105468D01*
X135520000Y-73105468D01*
X135520002Y-73105468D01*
X135576673Y-73100509D01*
X135746692Y-73085635D01*
X135966496Y-73026739D01*
X136172734Y-72930568D01*
X136359139Y-72800047D01*
X136520047Y-72639139D01*
X136650568Y-72452734D01*
X136746739Y-72246496D01*
X136805635Y-72026692D01*
X136820500Y-71856784D01*
X136820500Y-71343216D01*
X136805635Y-71173308D01*
X136756518Y-70990000D01*
X136746741Y-70953511D01*
X136746738Y-70953502D01*
X136650568Y-70747266D01*
X136527949Y-70572146D01*
X136520045Y-70560858D01*
X136359141Y-70399954D01*
X136303330Y-70360875D01*
X136259705Y-70306298D01*
X136252511Y-70236800D01*
X136284034Y-70174445D01*
X136344263Y-70139031D01*
X136374453Y-70135300D01*
X151808099Y-70135300D01*
X151875138Y-70154985D01*
X151895780Y-70171619D01*
X152952720Y-71228560D01*
X152966044Y-71244311D01*
X152967943Y-71246977D01*
X152994884Y-71272665D01*
X153036621Y-71312462D01*
X153065315Y-71341156D01*
X153065337Y-71341176D01*
X153067808Y-71343216D01*
X153074069Y-71348385D01*
X153077373Y-71351318D01*
X153124889Y-71396624D01*
X153156082Y-71416670D01*
X153162028Y-71421010D01*
X153190648Y-71444641D01*
X153190652Y-71444644D01*
X153217214Y-71459147D01*
X153248303Y-71476122D01*
X153252085Y-71478367D01*
X153307317Y-71513863D01*
X153341744Y-71527644D01*
X153348413Y-71530786D01*
X153380974Y-71548567D01*
X153380972Y-71548567D01*
X153443527Y-71568563D01*
X153447672Y-71570053D01*
X153508638Y-71594460D01*
X153545053Y-71601478D01*
X153552193Y-71603299D01*
X153587534Y-71614597D01*
X153587536Y-71614597D01*
X153587539Y-71614598D01*
X153616645Y-71618077D01*
X153652734Y-71622392D01*
X153657075Y-71623068D01*
X153721573Y-71635500D01*
X153758662Y-71635500D01*
X153766029Y-71635939D01*
X153769494Y-71636353D01*
X153802855Y-71640342D01*
X153868348Y-71635657D01*
X153872770Y-71635500D01*
X154475501Y-71635500D01*
X154542540Y-71655185D01*
X154588295Y-71707989D01*
X154599501Y-71759500D01*
X154599501Y-71797876D01*
X154605908Y-71857483D01*
X154656202Y-71992328D01*
X154656206Y-71992335D01*
X154742452Y-72107544D01*
X154742455Y-72107547D01*
X154857664Y-72193793D01*
X154857671Y-72193797D01*
X154992517Y-72244091D01*
X154992516Y-72244091D01*
X154999444Y-72244835D01*
X155052127Y-72250500D01*
X162147872Y-72250499D01*
X162207483Y-72244091D01*
X162342331Y-72193796D01*
X162457546Y-72107546D01*
X162543796Y-71992331D01*
X162594091Y-71857483D01*
X162600500Y-71797873D01*
X162600500Y-71759500D01*
X162620185Y-71692461D01*
X162672989Y-71646706D01*
X162724500Y-71635500D01*
X163074838Y-71635500D01*
X163095402Y-71637216D01*
X163098626Y-71637759D01*
X163191456Y-71635549D01*
X163193519Y-71635500D01*
X163234082Y-71635500D01*
X163234091Y-71635500D01*
X163234100Y-71635499D01*
X163234102Y-71635499D01*
X163234803Y-71635431D01*
X163245369Y-71634422D01*
X163249763Y-71634160D01*
X163315419Y-71632598D01*
X163341148Y-71627000D01*
X163351653Y-71624716D01*
X163358945Y-71623578D01*
X163364244Y-71623072D01*
X163395872Y-71620052D01*
X163458900Y-71601544D01*
X163463145Y-71600461D01*
X163527317Y-71586502D01*
X163561405Y-71571903D01*
X163568343Y-71569409D01*
X163603942Y-71558957D01*
X163649502Y-71535467D01*
X163662307Y-71528867D01*
X163666314Y-71526979D01*
X163679069Y-71521517D01*
X163726663Y-71501137D01*
X163757380Y-71480346D01*
X163763730Y-71476579D01*
X163764830Y-71476011D01*
X163796690Y-71459588D01*
X163848313Y-71418989D01*
X163851870Y-71416393D01*
X163906250Y-71379589D01*
X163932475Y-71353362D01*
X163937992Y-71348465D01*
X163967149Y-71325538D01*
X164010154Y-71275907D01*
X164013144Y-71272693D01*
X165320560Y-69965277D01*
X165336313Y-69951953D01*
X165338977Y-69950057D01*
X165404481Y-69881357D01*
X165433168Y-69852671D01*
X165440385Y-69843928D01*
X165443314Y-69840629D01*
X165488623Y-69793112D01*
X165508686Y-69761892D01*
X165513014Y-69755964D01*
X165536641Y-69727351D01*
X165568110Y-69669717D01*
X165570358Y-69665928D01*
X165605863Y-69610683D01*
X165619655Y-69576228D01*
X165622784Y-69569589D01*
X165640568Y-69537023D01*
X165660561Y-69474477D01*
X165662050Y-69470330D01*
X165686460Y-69409362D01*
X165693482Y-69372928D01*
X165695299Y-69365807D01*
X165706597Y-69330465D01*
X165714392Y-69265261D01*
X165715067Y-69260928D01*
X165727500Y-69196427D01*
X165727500Y-69159321D01*
X165727936Y-69151988D01*
X165732342Y-69115145D01*
X165727655Y-69049623D01*
X165727500Y-69045258D01*
X165727500Y-63559701D01*
X165747185Y-63492662D01*
X165763819Y-63472020D01*
X168164021Y-61071819D01*
X168225344Y-61038334D01*
X168251702Y-61035500D01*
X168930353Y-61035500D01*
X168982757Y-61047117D01*
X169153504Y-61126739D01*
X169373308Y-61185635D01*
X169543216Y-61200500D01*
X170056784Y-61200500D01*
X170226692Y-61185635D01*
X170446496Y-61126739D01*
X170652734Y-61030568D01*
X170839139Y-60900047D01*
X171000047Y-60739139D01*
X171130568Y-60552734D01*
X171226739Y-60346496D01*
X171285635Y-60126692D01*
X171305468Y-59900000D01*
X171292345Y-59750001D01*
X175294532Y-59750001D01*
X175314364Y-59976686D01*
X175314366Y-59976697D01*
X175373258Y-60196488D01*
X175373261Y-60196497D01*
X175469431Y-60402732D01*
X175469432Y-60402734D01*
X175599954Y-60589141D01*
X175760858Y-60750045D01*
X175760861Y-60750047D01*
X175947266Y-60880568D01*
X176153504Y-60976739D01*
X176373308Y-61035635D01*
X176543216Y-61050500D01*
X177056784Y-61050500D01*
X177226692Y-61035635D01*
X177446496Y-60976739D01*
X177652734Y-60880568D01*
X177839139Y-60750047D01*
X178000047Y-60589139D01*
X178130568Y-60402734D01*
X178226739Y-60196496D01*
X178285635Y-59976692D01*
X178305468Y-59750000D01*
X178305437Y-59749650D01*
X178298758Y-59673302D01*
X178285635Y-59523308D01*
X178226739Y-59303504D01*
X178130568Y-59097266D01*
X178000047Y-58910861D01*
X178000045Y-58910858D01*
X177839141Y-58749954D01*
X177652734Y-58619432D01*
X177652732Y-58619431D01*
X177446497Y-58523261D01*
X177446488Y-58523258D01*
X177226697Y-58464366D01*
X177226687Y-58464364D01*
X177056784Y-58449500D01*
X176543216Y-58449500D01*
X176373312Y-58464364D01*
X176373302Y-58464366D01*
X176153511Y-58523258D01*
X176153502Y-58523261D01*
X175947267Y-58619431D01*
X175947265Y-58619432D01*
X175760858Y-58749954D01*
X175599954Y-58910858D01*
X175469432Y-59097265D01*
X175469431Y-59097267D01*
X175373261Y-59303502D01*
X175373258Y-59303511D01*
X175314366Y-59523302D01*
X175314364Y-59523313D01*
X175294532Y-59749998D01*
X175294532Y-59750001D01*
X171292345Y-59750001D01*
X171285635Y-59673308D01*
X171240916Y-59506415D01*
X171226741Y-59453511D01*
X171226738Y-59453502D01*
X171198934Y-59393877D01*
X171130568Y-59247266D01*
X171067924Y-59157800D01*
X171045597Y-59091594D01*
X171045500Y-59086678D01*
X171045500Y-56564647D01*
X171057118Y-56512242D01*
X171066424Y-56492286D01*
X171136739Y-56341496D01*
X171195635Y-56121692D01*
X171210500Y-55951784D01*
X171210500Y-55438216D01*
X171195635Y-55268308D01*
X171136739Y-55048504D01*
X171040568Y-54842266D01*
X170910047Y-54655861D01*
X170910045Y-54655858D01*
X170749141Y-54494954D01*
X170680762Y-54447075D01*
X170637137Y-54392498D01*
X170629943Y-54323000D01*
X170661466Y-54260645D01*
X170721695Y-54225231D01*
X170751885Y-54221500D01*
X173722299Y-54221500D01*
X173789338Y-54241185D01*
X173809980Y-54257819D01*
X173818181Y-54266020D01*
X173851666Y-54327343D01*
X173854500Y-54353701D01*
X173854500Y-54825351D01*
X173842882Y-54877756D01*
X173763262Y-55048502D01*
X173763258Y-55048511D01*
X173704366Y-55268302D01*
X173704364Y-55268312D01*
X173689500Y-55438216D01*
X173689500Y-55951784D01*
X173704364Y-56121687D01*
X173704366Y-56121697D01*
X173763258Y-56341488D01*
X173763261Y-56341497D01*
X173859431Y-56547732D01*
X173859432Y-56547734D01*
X173989954Y-56734141D01*
X174150858Y-56895045D01*
X174150861Y-56895047D01*
X174337266Y-57025568D01*
X174543504Y-57121739D01*
X174763308Y-57180635D01*
X174925230Y-57194801D01*
X174989998Y-57200468D01*
X174990000Y-57200468D01*
X174990002Y-57200468D01*
X175046672Y-57195509D01*
X175216692Y-57180635D01*
X175436496Y-57121739D01*
X175642734Y-57025568D01*
X175829139Y-56895047D01*
X175990047Y-56734139D01*
X176120568Y-56547734D01*
X176216739Y-56341496D01*
X176275635Y-56121692D01*
X176290500Y-55951784D01*
X176290500Y-55438216D01*
X176275635Y-55268308D01*
X176216739Y-55048504D01*
X176146216Y-54897267D01*
X176137118Y-54877756D01*
X176125500Y-54825351D01*
X176125500Y-53937162D01*
X176127218Y-53916595D01*
X176127757Y-53913385D01*
X176127759Y-53913374D01*
X176125500Y-53818500D01*
X176125500Y-53777909D01*
X176124422Y-53766623D01*
X176124159Y-53762213D01*
X176122597Y-53696581D01*
X176114713Y-53660342D01*
X176113578Y-53653067D01*
X176110052Y-53616128D01*
X176091544Y-53553099D01*
X176090455Y-53548830D01*
X176076502Y-53484683D01*
X176076500Y-53484678D01*
X176076500Y-53484676D01*
X176061903Y-53450591D01*
X176059408Y-53443653D01*
X176048957Y-53408058D01*
X176018863Y-53349685D01*
X176016983Y-53345695D01*
X175991137Y-53285337D01*
X175970345Y-53254617D01*
X175966588Y-53248285D01*
X175949588Y-53215310D01*
X175909007Y-53163706D01*
X175906398Y-53160133D01*
X175869592Y-53105753D01*
X175869587Y-53105747D01*
X175843353Y-53079513D01*
X175838462Y-53074002D01*
X175815538Y-53044851D01*
X175815536Y-53044849D01*
X175765914Y-53001851D01*
X175762674Y-52998834D01*
X175121278Y-52357438D01*
X175107951Y-52341683D01*
X175106057Y-52339023D01*
X175106055Y-52339021D01*
X175106055Y-52339020D01*
X175048081Y-52283743D01*
X175013146Y-52223234D01*
X175016471Y-52153444D01*
X175056999Y-52096530D01*
X175121864Y-52070562D01*
X175133651Y-52070000D01*
X190376000Y-52070000D01*
X190443039Y-52089685D01*
G37*
G04 #@! TD.AperFunction*
G04 #@! TA.AperFunction,Conductor*
G36*
X112711404Y-52089685D02*
G01*
X112757159Y-52142489D01*
X112767103Y-52211647D01*
X112738078Y-52275203D01*
X112738075Y-52275206D01*
X112707851Y-52310084D01*
X112704836Y-52313323D01*
X108642180Y-56375979D01*
X108580857Y-56409464D01*
X108511165Y-56404480D01*
X108455232Y-56362608D01*
X108430815Y-56297144D01*
X108430499Y-56288298D01*
X108430499Y-56202129D01*
X108430498Y-56202123D01*
X108430497Y-56202116D01*
X108424091Y-56142517D01*
X108391979Y-56056421D01*
X108373797Y-56007671D01*
X108373793Y-56007664D01*
X108287547Y-55892455D01*
X108287544Y-55892452D01*
X108172335Y-55806206D01*
X108172328Y-55806202D01*
X108037482Y-55755908D01*
X108037483Y-55755908D01*
X107977883Y-55749501D01*
X107977881Y-55749500D01*
X107977873Y-55749500D01*
X107977864Y-55749500D01*
X105382129Y-55749500D01*
X105382123Y-55749501D01*
X105322516Y-55755908D01*
X105187671Y-55806202D01*
X105187664Y-55806206D01*
X105072455Y-55892452D01*
X105072452Y-55892455D01*
X104986206Y-56007664D01*
X104986202Y-56007671D01*
X104935908Y-56142517D01*
X104932234Y-56176697D01*
X104929501Y-56202123D01*
X104929500Y-56202135D01*
X104929500Y-58097870D01*
X104929501Y-58097876D01*
X104935908Y-58157483D01*
X104986202Y-58292328D01*
X104986206Y-58292335D01*
X105072452Y-58407544D01*
X105072455Y-58407547D01*
X105187664Y-58493793D01*
X105187671Y-58493797D01*
X105266355Y-58523144D01*
X105322288Y-58565015D01*
X105346706Y-58630479D01*
X105331855Y-58698752D01*
X105308824Y-58728847D01*
X105274882Y-58761378D01*
X105133123Y-58953050D01*
X105133120Y-58953054D01*
X105025796Y-59165920D01*
X105025793Y-59165926D01*
X104955983Y-59393878D01*
X104925702Y-59630346D01*
X104935819Y-59868528D01*
X104935819Y-59868532D01*
X104986045Y-60101580D01*
X105047316Y-60254056D01*
X105074936Y-60322790D01*
X105199931Y-60525795D01*
X105357436Y-60704755D01*
X105542920Y-60854523D01*
X105724936Y-60956204D01*
X105748507Y-60969372D01*
X105751046Y-60970790D01*
X105920231Y-61030567D01*
X105975829Y-61050211D01*
X106210790Y-61090499D01*
X106210798Y-61090499D01*
X106210800Y-61090500D01*
X106210801Y-61090500D01*
X107089502Y-61090500D01*
X107267536Y-61075347D01*
X107267539Y-61075346D01*
X107267541Y-61075346D01*
X107498249Y-61015275D01*
X107689948Y-60928621D01*
X107715480Y-60917080D01*
X107715481Y-60917078D01*
X107715486Y-60917077D01*
X107871064Y-60811924D01*
X107937628Y-60790693D01*
X108005106Y-60808820D01*
X108052071Y-60860550D01*
X108064500Y-60914660D01*
X108064500Y-65792297D01*
X108044815Y-65859336D01*
X108028181Y-65879978D01*
X107848479Y-66059679D01*
X107787156Y-66093164D01*
X107717464Y-66088180D01*
X107700324Y-66080252D01*
X107608957Y-66029211D01*
X107384170Y-65949788D01*
X107149209Y-65909500D01*
X107149200Y-65909500D01*
X106270503Y-65909500D01*
X106270498Y-65909500D01*
X106092463Y-65924652D01*
X105861751Y-65984724D01*
X105644519Y-66082919D01*
X105644511Y-66082924D01*
X105447006Y-66216413D01*
X105446997Y-66216421D01*
X105274881Y-66381379D01*
X105133123Y-66573050D01*
X105133120Y-66573054D01*
X105025796Y-66785920D01*
X105025793Y-66785926D01*
X104955983Y-67013878D01*
X104925702Y-67250346D01*
X104935819Y-67488528D01*
X104935819Y-67488532D01*
X104986045Y-67721580D01*
X105074935Y-67942788D01*
X105074936Y-67942790D01*
X105199931Y-68145795D01*
X105357436Y-68324755D01*
X105542920Y-68474523D01*
X105751046Y-68590790D01*
X105827093Y-68617659D01*
X105975829Y-68670211D01*
X106210790Y-68710499D01*
X106210798Y-68710499D01*
X106210800Y-68710500D01*
X106210801Y-68710500D01*
X107089502Y-68710500D01*
X107267536Y-68695347D01*
X107267539Y-68695346D01*
X107267541Y-68695346D01*
X107498249Y-68635275D01*
X107650845Y-68566297D01*
X107715480Y-68537080D01*
X107715481Y-68537078D01*
X107715486Y-68537077D01*
X107819516Y-68466764D01*
X107886081Y-68445533D01*
X107888953Y-68445500D01*
X108098838Y-68445500D01*
X108119402Y-68447216D01*
X108122626Y-68447759D01*
X108216132Y-68445533D01*
X108217519Y-68445500D01*
X108258082Y-68445500D01*
X108258091Y-68445500D01*
X108258100Y-68445499D01*
X108258102Y-68445499D01*
X108258803Y-68445431D01*
X108269369Y-68444422D01*
X108273763Y-68444160D01*
X108339419Y-68442598D01*
X108365148Y-68437000D01*
X108375653Y-68434716D01*
X108382945Y-68433578D01*
X108383320Y-68433542D01*
X108419872Y-68430052D01*
X108482900Y-68411544D01*
X108487145Y-68410461D01*
X108551317Y-68396502D01*
X108585405Y-68381903D01*
X108592343Y-68379409D01*
X108627942Y-68368957D01*
X108673502Y-68345467D01*
X108686307Y-68338867D01*
X108690314Y-68336979D01*
X108750663Y-68311137D01*
X108781380Y-68290346D01*
X108787730Y-68286579D01*
X108788830Y-68286011D01*
X108820690Y-68269588D01*
X108872313Y-68228989D01*
X108875870Y-68226393D01*
X108879567Y-68223891D01*
X108930250Y-68189589D01*
X108956475Y-68163362D01*
X108961992Y-68158465D01*
X108991149Y-68135538D01*
X109019186Y-68103181D01*
X109034154Y-68085907D01*
X109037144Y-68082693D01*
X109928560Y-67191277D01*
X109944313Y-67177953D01*
X109946977Y-67176057D01*
X110012481Y-67107357D01*
X110041168Y-67078671D01*
X110048383Y-67069931D01*
X110051290Y-67066655D01*
X110096623Y-67019112D01*
X110116674Y-66987912D01*
X110121027Y-66981951D01*
X110144641Y-66953352D01*
X110176121Y-66895698D01*
X110178364Y-66891919D01*
X110213863Y-66836683D01*
X110227646Y-66802253D01*
X110230785Y-66795588D01*
X110248568Y-66763023D01*
X110268561Y-66700477D01*
X110270050Y-66696330D01*
X110294460Y-66635362D01*
X110301482Y-66598928D01*
X110303299Y-66591807D01*
X110314597Y-66556465D01*
X110322392Y-66491261D01*
X110323067Y-66486928D01*
X110335500Y-66422427D01*
X110335500Y-66385336D01*
X110335939Y-66377969D01*
X110338452Y-66356950D01*
X110340342Y-66341145D01*
X110335658Y-66275653D01*
X110335500Y-66271229D01*
X110335500Y-61645943D01*
X110355185Y-61578904D01*
X110407989Y-61533149D01*
X110477147Y-61523205D01*
X110540703Y-61552230D01*
X110571882Y-61593538D01*
X110573260Y-61596494D01*
X110573261Y-61596496D01*
X110652882Y-61767242D01*
X110664500Y-61819647D01*
X110664500Y-69852833D01*
X110644815Y-69919872D01*
X110611626Y-69954406D01*
X110560862Y-69989952D01*
X110399951Y-70150862D01*
X110269432Y-70337265D01*
X110269431Y-70337267D01*
X110173261Y-70543502D01*
X110173258Y-70543511D01*
X110114366Y-70763302D01*
X110114364Y-70763313D01*
X110094532Y-70989998D01*
X110094532Y-70990001D01*
X110114364Y-71216686D01*
X110114366Y-71216697D01*
X110173258Y-71436488D01*
X110173261Y-71436497D01*
X110269431Y-71642732D01*
X110269432Y-71642734D01*
X110399954Y-71829141D01*
X110560858Y-71990045D01*
X110594593Y-72013666D01*
X110747266Y-72120568D01*
X110953504Y-72216739D01*
X111173308Y-72275635D01*
X111343216Y-72290500D01*
X111856784Y-72290500D01*
X112026692Y-72275635D01*
X112246496Y-72216739D01*
X112452734Y-72120568D01*
X112639139Y-71990047D01*
X112800047Y-71829139D01*
X112930568Y-71642734D01*
X113026739Y-71436496D01*
X113085635Y-71216692D01*
X113105468Y-70990001D01*
X116094532Y-70990001D01*
X116114364Y-71216686D01*
X116114366Y-71216697D01*
X116173258Y-71436488D01*
X116173261Y-71436497D01*
X116269431Y-71642732D01*
X116269432Y-71642734D01*
X116399954Y-71829141D01*
X116560858Y-71990045D01*
X116594593Y-72013666D01*
X116747266Y-72120568D01*
X116953504Y-72216739D01*
X117173308Y-72275635D01*
X117343216Y-72290500D01*
X117856784Y-72290500D01*
X118026692Y-72275635D01*
X118246496Y-72216739D01*
X118452734Y-72120568D01*
X118639139Y-71990047D01*
X118800047Y-71829139D01*
X118930568Y-71642734D01*
X119026739Y-71436496D01*
X119085635Y-71216692D01*
X119105468Y-70990000D01*
X119085635Y-70763308D01*
X119026739Y-70543504D01*
X118930568Y-70337266D01*
X118800047Y-70150861D01*
X118800045Y-70150858D01*
X118639141Y-69989954D01*
X118452734Y-69859432D01*
X118452732Y-69859431D01*
X118246497Y-69763261D01*
X118246488Y-69763258D01*
X118026697Y-69704366D01*
X118026687Y-69704364D01*
X117856784Y-69689500D01*
X117343216Y-69689500D01*
X117173312Y-69704364D01*
X117173302Y-69704366D01*
X116953511Y-69763258D01*
X116953502Y-69763261D01*
X116747267Y-69859431D01*
X116747265Y-69859432D01*
X116560858Y-69989954D01*
X116399954Y-70150858D01*
X116269432Y-70337265D01*
X116269431Y-70337267D01*
X116173261Y-70543502D01*
X116173258Y-70543511D01*
X116114366Y-70763302D01*
X116114364Y-70763313D01*
X116094532Y-70989998D01*
X116094532Y-70990001D01*
X113105468Y-70990001D01*
X113105468Y-70990000D01*
X113085635Y-70763308D01*
X113026739Y-70543504D01*
X112947116Y-70372753D01*
X112935500Y-70320355D01*
X112935500Y-61819642D01*
X112947115Y-61767247D01*
X113026739Y-61596496D01*
X113085635Y-61376692D01*
X113100500Y-61206784D01*
X113899500Y-61206784D01*
X113914364Y-61376687D01*
X113914366Y-61376697D01*
X113973258Y-61596488D01*
X113973261Y-61596497D01*
X114069431Y-61802732D01*
X114069432Y-61802734D01*
X114199954Y-61989141D01*
X114360858Y-62150045D01*
X114407693Y-62182839D01*
X114547266Y-62280568D01*
X114753504Y-62376739D01*
X114973308Y-62435635D01*
X115135230Y-62449801D01*
X115199998Y-62455468D01*
X115200000Y-62455468D01*
X115200002Y-62455468D01*
X115256672Y-62450509D01*
X115426692Y-62435635D01*
X115646496Y-62376739D01*
X115852734Y-62280568D01*
X116039139Y-62150047D01*
X116200047Y-61989139D01*
X116330568Y-61802734D01*
X116426739Y-61596496D01*
X116485635Y-61376692D01*
X116500500Y-61206784D01*
X117299500Y-61206784D01*
X117314364Y-61376687D01*
X117314366Y-61376697D01*
X117373258Y-61596488D01*
X117373261Y-61596497D01*
X117469431Y-61802732D01*
X117469432Y-61802734D01*
X117599954Y-61989141D01*
X117760858Y-62150045D01*
X117807693Y-62182839D01*
X117947266Y-62280568D01*
X118153504Y-62376739D01*
X118373308Y-62435635D01*
X118535230Y-62449801D01*
X118599998Y-62455468D01*
X118600000Y-62455468D01*
X118600002Y-62455468D01*
X118656673Y-62450509D01*
X118826692Y-62435635D01*
X119046496Y-62376739D01*
X119252734Y-62280568D01*
X119439139Y-62150047D01*
X119600047Y-61989139D01*
X119730568Y-61802734D01*
X119826739Y-61596496D01*
X119885635Y-61376692D01*
X119900500Y-61206784D01*
X119900500Y-60693216D01*
X119885635Y-60523308D01*
X119826739Y-60303504D01*
X119730568Y-60097266D01*
X119600047Y-59910861D01*
X119600045Y-59910858D01*
X119439141Y-59749954D01*
X119252734Y-59619432D01*
X119252732Y-59619431D01*
X119046497Y-59523261D01*
X119046488Y-59523258D01*
X118826697Y-59464366D01*
X118826693Y-59464365D01*
X118826692Y-59464365D01*
X118826691Y-59464364D01*
X118826686Y-59464364D01*
X118600002Y-59444532D01*
X118599998Y-59444532D01*
X118373313Y-59464364D01*
X118373302Y-59464366D01*
X118153511Y-59523258D01*
X118153502Y-59523261D01*
X117947267Y-59619431D01*
X117947265Y-59619432D01*
X117760858Y-59749954D01*
X117599954Y-59910858D01*
X117469432Y-60097265D01*
X117469431Y-60097267D01*
X117373261Y-60303502D01*
X117373258Y-60303511D01*
X117314366Y-60523302D01*
X117314364Y-60523312D01*
X117299500Y-60693216D01*
X117299500Y-61206784D01*
X116500500Y-61206784D01*
X116500500Y-60693216D01*
X116485635Y-60523308D01*
X116426739Y-60303504D01*
X116330568Y-60097266D01*
X116200047Y-59910861D01*
X116200045Y-59910858D01*
X116039141Y-59749954D01*
X115852734Y-59619432D01*
X115852732Y-59619431D01*
X115646497Y-59523261D01*
X115646488Y-59523258D01*
X115426697Y-59464366D01*
X115426693Y-59464365D01*
X115426692Y-59464365D01*
X115426691Y-59464364D01*
X115426686Y-59464364D01*
X115200002Y-59444532D01*
X115199998Y-59444532D01*
X114973313Y-59464364D01*
X114973302Y-59464366D01*
X114753511Y-59523258D01*
X114753502Y-59523261D01*
X114547267Y-59619431D01*
X114547265Y-59619432D01*
X114360858Y-59749954D01*
X114199954Y-59910858D01*
X114069432Y-60097265D01*
X114069431Y-60097267D01*
X113973261Y-60303502D01*
X113973258Y-60303511D01*
X113914366Y-60523302D01*
X113914364Y-60523312D01*
X113899500Y-60693216D01*
X113899500Y-61206784D01*
X113100500Y-61206784D01*
X113100500Y-60693216D01*
X113085635Y-60523308D01*
X113026739Y-60303504D01*
X112930568Y-60097266D01*
X112800047Y-59910861D01*
X112800045Y-59910858D01*
X112639141Y-59749954D01*
X112452734Y-59619432D01*
X112452732Y-59619431D01*
X112246497Y-59523261D01*
X112246488Y-59523258D01*
X112026697Y-59464366D01*
X112026693Y-59464365D01*
X112026692Y-59464365D01*
X112026691Y-59464364D01*
X112026686Y-59464364D01*
X111800002Y-59444532D01*
X111799998Y-59444532D01*
X111573313Y-59464364D01*
X111573302Y-59464366D01*
X111353511Y-59523258D01*
X111353502Y-59523261D01*
X111147267Y-59619431D01*
X111147265Y-59619432D01*
X110960858Y-59749954D01*
X110799954Y-59910858D01*
X110669432Y-60097265D01*
X110669431Y-60097267D01*
X110571882Y-60306461D01*
X110525709Y-60358900D01*
X110458516Y-60378052D01*
X110391635Y-60357836D01*
X110346300Y-60304671D01*
X110335500Y-60254056D01*
X110335500Y-57945701D01*
X110355185Y-57878662D01*
X110371819Y-57858020D01*
X113972021Y-54257819D01*
X114033344Y-54224334D01*
X114059702Y-54221500D01*
X114623299Y-54221500D01*
X114690338Y-54241185D01*
X114736093Y-54293989D01*
X114746037Y-54363147D01*
X114717012Y-54426703D01*
X114710980Y-54433181D01*
X113421917Y-55722241D01*
X113360594Y-55755726D01*
X113345045Y-55758088D01*
X113273312Y-55764364D01*
X113273302Y-55764366D01*
X113053511Y-55823258D01*
X113053502Y-55823261D01*
X112847267Y-55919431D01*
X112847265Y-55919432D01*
X112660858Y-56049954D01*
X112499954Y-56210858D01*
X112369432Y-56397265D01*
X112369431Y-56397267D01*
X112273261Y-56603502D01*
X112273258Y-56603511D01*
X112214366Y-56823302D01*
X112214364Y-56823312D01*
X112199500Y-56993216D01*
X112199500Y-57506784D01*
X112214364Y-57676687D01*
X112214366Y-57676697D01*
X112273258Y-57896488D01*
X112273261Y-57896497D01*
X112369431Y-58102732D01*
X112369432Y-58102734D01*
X112499954Y-58289141D01*
X112660858Y-58450045D01*
X112660861Y-58450047D01*
X112847266Y-58580568D01*
X113053504Y-58676739D01*
X113273308Y-58735635D01*
X113435230Y-58749801D01*
X113499998Y-58755468D01*
X113500000Y-58755468D01*
X113500002Y-58755468D01*
X113563025Y-58749954D01*
X113726692Y-58735635D01*
X113946496Y-58676739D01*
X114152734Y-58580568D01*
X114339139Y-58450047D01*
X114500047Y-58289139D01*
X114630568Y-58102734D01*
X114726739Y-57896496D01*
X114785635Y-57676692D01*
X114791910Y-57604952D01*
X114817361Y-57539886D01*
X114827749Y-57528088D01*
X116328020Y-56027819D01*
X116389344Y-55994334D01*
X116415702Y-55991500D01*
X121075599Y-55991500D01*
X121142638Y-56011185D01*
X121163280Y-56027819D01*
X121429588Y-56294127D01*
X121462112Y-56351367D01*
X121514641Y-56558795D01*
X121514641Y-56558796D01*
X121607875Y-56771348D01*
X121734816Y-56965647D01*
X121734819Y-56965651D01*
X121734821Y-56965653D01*
X121892016Y-57136413D01*
X121892019Y-57136415D01*
X121892022Y-57136418D01*
X122075165Y-57278964D01*
X122075171Y-57278968D01*
X122075174Y-57278970D01*
X122279297Y-57389436D01*
X122393287Y-57428568D01*
X122498815Y-57464797D01*
X122498817Y-57464797D01*
X122498819Y-57464798D01*
X122727751Y-57503000D01*
X122727752Y-57503000D01*
X122959848Y-57503000D01*
X122959849Y-57503000D01*
X123188781Y-57464798D01*
X123408303Y-57389436D01*
X123612426Y-57278970D01*
X123642622Y-57255468D01*
X123673929Y-57231100D01*
X123795584Y-57136413D01*
X123952779Y-56965653D01*
X124079724Y-56771349D01*
X124172957Y-56558800D01*
X124229934Y-56333805D01*
X124231558Y-56314205D01*
X124249100Y-56102506D01*
X124249100Y-56102493D01*
X124229935Y-55871202D01*
X124229933Y-55871191D01*
X124172957Y-55646199D01*
X124079724Y-55433651D01*
X123952783Y-55239352D01*
X123952780Y-55239349D01*
X123952779Y-55239347D01*
X123795584Y-55068587D01*
X123795579Y-55068583D01*
X123795577Y-55068581D01*
X123612434Y-54926035D01*
X123612428Y-54926031D01*
X123408304Y-54815564D01*
X123408295Y-54815561D01*
X123188783Y-54740202D01*
X123106204Y-54726422D01*
X123043319Y-54695971D01*
X123038933Y-54691794D01*
X122780321Y-54433181D01*
X122746836Y-54371858D01*
X122751820Y-54302166D01*
X122793692Y-54246233D01*
X122859156Y-54221816D01*
X122868002Y-54221500D01*
X129526665Y-54221500D01*
X129593704Y-54241185D01*
X129639459Y-54293989D01*
X129649403Y-54363147D01*
X129620378Y-54426703D01*
X129597790Y-54447072D01*
X129554610Y-54477307D01*
X129450858Y-54549954D01*
X129289954Y-54710858D01*
X129159432Y-54897265D01*
X129159431Y-54897267D01*
X129063261Y-55103502D01*
X129063258Y-55103511D01*
X129004366Y-55323302D01*
X129004364Y-55323312D01*
X128989500Y-55493216D01*
X128989500Y-56006784D01*
X129004364Y-56176687D01*
X129004366Y-56176697D01*
X129063258Y-56396488D01*
X129063261Y-56396497D01*
X129070982Y-56413054D01*
X129138943Y-56558796D01*
X129142882Y-56567242D01*
X129154500Y-56619647D01*
X129154500Y-58865319D01*
X129153238Y-58882964D01*
X129150627Y-58901125D01*
X129150626Y-58901125D01*
X129154429Y-58980967D01*
X129154499Y-58983917D01*
X129154500Y-60259397D01*
X129134815Y-60326436D01*
X129118181Y-60347078D01*
X128602077Y-60863181D01*
X128540754Y-60896666D01*
X128514396Y-60899500D01*
X127823229Y-60899500D01*
X127823223Y-60899501D01*
X127763616Y-60905908D01*
X127628771Y-60956202D01*
X127628764Y-60956206D01*
X127513555Y-61042452D01*
X127513552Y-61042455D01*
X127427306Y-61157664D01*
X127427302Y-61157671D01*
X127377008Y-61292517D01*
X127371937Y-61339690D01*
X127370601Y-61352123D01*
X127370600Y-61352135D01*
X127370600Y-62779697D01*
X127350915Y-62846736D01*
X127334281Y-62867378D01*
X126423479Y-63778181D01*
X126362156Y-63811666D01*
X126335798Y-63814500D01*
X116069647Y-63814500D01*
X116017242Y-63802882D01*
X115846497Y-63723261D01*
X115846488Y-63723258D01*
X115626697Y-63664366D01*
X115626687Y-63664364D01*
X115456784Y-63649500D01*
X114943216Y-63649500D01*
X114773312Y-63664364D01*
X114773302Y-63664366D01*
X114553511Y-63723258D01*
X114553502Y-63723261D01*
X114347267Y-63819431D01*
X114347265Y-63819432D01*
X114160858Y-63949954D01*
X113999954Y-64110858D01*
X113869432Y-64297265D01*
X113869431Y-64297267D01*
X113773261Y-64503502D01*
X113773258Y-64503511D01*
X113714366Y-64723302D01*
X113714364Y-64723313D01*
X113694532Y-64949998D01*
X113694532Y-64950001D01*
X113714364Y-65176686D01*
X113714366Y-65176697D01*
X113773258Y-65396488D01*
X113773261Y-65396497D01*
X113869431Y-65602732D01*
X113869432Y-65602734D01*
X113999954Y-65789141D01*
X114160858Y-65950045D01*
X114160861Y-65950047D01*
X114347266Y-66080568D01*
X114362387Y-66087619D01*
X114414825Y-66133791D01*
X114433976Y-66200985D01*
X114413760Y-66267866D01*
X114362387Y-66312380D01*
X114347266Y-66319432D01*
X114347264Y-66319433D01*
X114160858Y-66449954D01*
X113999954Y-66610858D01*
X113869432Y-66797265D01*
X113869431Y-66797267D01*
X113773261Y-67003502D01*
X113773258Y-67003511D01*
X113714366Y-67223302D01*
X113714364Y-67223313D01*
X113694532Y-67449998D01*
X113694532Y-67450001D01*
X113714364Y-67676686D01*
X113714366Y-67676697D01*
X113773258Y-67896488D01*
X113773261Y-67896497D01*
X113869431Y-68102732D01*
X113869432Y-68102734D01*
X113999954Y-68289141D01*
X114160858Y-68450045D01*
X114160861Y-68450047D01*
X114347266Y-68580568D01*
X114553504Y-68676739D01*
X114773308Y-68735635D01*
X114943216Y-68750500D01*
X115456784Y-68750500D01*
X115626692Y-68735635D01*
X115846496Y-68676739D01*
X116052734Y-68580568D01*
X116239139Y-68450047D01*
X116400047Y-68289139D01*
X116530568Y-68102734D01*
X116626739Y-67896496D01*
X116685635Y-67676692D01*
X116705468Y-67450000D01*
X116685635Y-67223308D01*
X116629519Y-67013878D01*
X116626741Y-67003511D01*
X116626738Y-67003502D01*
X116618020Y-66984806D01*
X116530568Y-66797266D01*
X116400047Y-66610861D01*
X116400045Y-66610858D01*
X116239141Y-66449954D01*
X116052734Y-66319432D01*
X116048322Y-66316885D01*
X116035341Y-66303270D01*
X143072900Y-66303270D01*
X143072901Y-66303276D01*
X143079308Y-66362883D01*
X143129602Y-66497728D01*
X143129606Y-66497735D01*
X143215852Y-66612944D01*
X143215855Y-66612947D01*
X143331064Y-66699193D01*
X143331071Y-66699197D01*
X143465917Y-66749491D01*
X143465916Y-66749491D01*
X143472844Y-66750235D01*
X143525527Y-66755900D01*
X148221272Y-66755899D01*
X148280883Y-66749491D01*
X148415731Y-66699196D01*
X148530946Y-66612946D01*
X148617196Y-66497731D01*
X148619603Y-66491278D01*
X148626955Y-66471567D01*
X148668826Y-66415633D01*
X148734291Y-66391216D01*
X148743137Y-66390900D01*
X152169438Y-66390900D01*
X152190002Y-66392616D01*
X152193226Y-66393159D01*
X152286056Y-66390949D01*
X152288119Y-66390900D01*
X152328682Y-66390900D01*
X152328691Y-66390900D01*
X152328700Y-66390899D01*
X152328702Y-66390899D01*
X152329403Y-66390831D01*
X152339969Y-66389822D01*
X152344363Y-66389560D01*
X152410019Y-66387998D01*
X152435748Y-66382400D01*
X152446253Y-66380116D01*
X152453545Y-66378978D01*
X152453920Y-66378942D01*
X152490472Y-66375452D01*
X152553500Y-66356944D01*
X152557745Y-66355861D01*
X152621917Y-66341902D01*
X152656005Y-66327303D01*
X152662943Y-66324809D01*
X152698542Y-66314357D01*
X152744102Y-66290867D01*
X152756907Y-66284267D01*
X152760914Y-66282379D01*
X152776621Y-66275653D01*
X152821263Y-66256537D01*
X152851980Y-66235746D01*
X152858330Y-66231979D01*
X152859430Y-66231411D01*
X152891290Y-66214988D01*
X152942913Y-66174389D01*
X152946470Y-66171793D01*
X153000850Y-66134989D01*
X153027075Y-66108762D01*
X153032592Y-66103865D01*
X153061749Y-66080938D01*
X153088162Y-66050455D01*
X153104754Y-66031307D01*
X153107744Y-66028093D01*
X154264019Y-64871819D01*
X154325343Y-64838334D01*
X154351701Y-64835500D01*
X154475501Y-64835500D01*
X154542540Y-64855185D01*
X154588295Y-64907989D01*
X154599501Y-64959500D01*
X154599501Y-64997876D01*
X154605908Y-65057483D01*
X154656202Y-65192328D01*
X154656206Y-65192335D01*
X154742452Y-65307544D01*
X154742455Y-65307547D01*
X154857664Y-65393793D01*
X154857671Y-65393797D01*
X154992517Y-65444091D01*
X154992516Y-65444091D01*
X154999444Y-65444835D01*
X155052127Y-65450500D01*
X162147872Y-65450499D01*
X162207483Y-65444091D01*
X162342331Y-65393796D01*
X162457546Y-65307546D01*
X162543796Y-65192331D01*
X162594091Y-65057483D01*
X162600500Y-64997873D01*
X162600499Y-62402128D01*
X162594091Y-62342517D01*
X162572777Y-62285372D01*
X162543797Y-62207671D01*
X162543793Y-62207664D01*
X162457547Y-62092455D01*
X162457544Y-62092452D01*
X162342335Y-62006206D01*
X162342328Y-62006202D01*
X162207482Y-61955908D01*
X162207483Y-61955908D01*
X162147883Y-61949501D01*
X162147881Y-61949500D01*
X162147873Y-61949500D01*
X162147864Y-61949500D01*
X155052129Y-61949500D01*
X155052123Y-61949501D01*
X154992516Y-61955908D01*
X154857671Y-62006202D01*
X154857664Y-62006206D01*
X154742455Y-62092452D01*
X154742452Y-62092455D01*
X154656206Y-62207664D01*
X154656202Y-62207671D01*
X154605908Y-62342517D01*
X154602229Y-62376741D01*
X154599501Y-62402123D01*
X154599500Y-62402135D01*
X154599500Y-62440500D01*
X154579815Y-62507539D01*
X154527011Y-62553294D01*
X154475500Y-62564500D01*
X153935162Y-62564500D01*
X153914597Y-62562783D01*
X153911376Y-62562241D01*
X153911374Y-62562241D01*
X153848112Y-62563746D01*
X153816481Y-62564500D01*
X153775909Y-62564500D01*
X153764630Y-62565576D01*
X153760225Y-62565838D01*
X153694579Y-62567402D01*
X153658338Y-62575285D01*
X153651055Y-62576420D01*
X153642679Y-62577220D01*
X153614134Y-62579946D01*
X153614125Y-62579948D01*
X153551119Y-62598447D01*
X153546833Y-62599541D01*
X153482686Y-62613497D01*
X153482673Y-62613501D01*
X153448594Y-62628094D01*
X153441652Y-62630590D01*
X153406063Y-62641040D01*
X153347688Y-62671133D01*
X153343684Y-62673020D01*
X153283337Y-62698863D01*
X153275041Y-62704477D01*
X153252621Y-62719651D01*
X153246276Y-62723415D01*
X153213312Y-62740410D01*
X153161695Y-62781001D01*
X153158121Y-62783611D01*
X153103759Y-62820403D01*
X153103750Y-62820410D01*
X153077518Y-62846641D01*
X153072001Y-62851537D01*
X153042853Y-62874459D01*
X152999846Y-62924091D01*
X152996830Y-62927330D01*
X151840579Y-64083581D01*
X151779256Y-64117066D01*
X151752898Y-64119900D01*
X148743137Y-64119900D01*
X148676098Y-64100215D01*
X148630343Y-64047411D01*
X148626955Y-64039233D01*
X148617197Y-64013071D01*
X148617193Y-64013064D01*
X148530947Y-63897855D01*
X148530944Y-63897852D01*
X148415735Y-63811606D01*
X148415728Y-63811602D01*
X148280882Y-63761308D01*
X148280883Y-63761308D01*
X148221283Y-63754901D01*
X148221281Y-63754900D01*
X148221273Y-63754900D01*
X148221264Y-63754900D01*
X143525529Y-63754900D01*
X143525523Y-63754901D01*
X143465916Y-63761308D01*
X143331071Y-63811602D01*
X143331064Y-63811606D01*
X143215855Y-63897852D01*
X143215852Y-63897855D01*
X143129606Y-64013064D01*
X143129602Y-64013071D01*
X143079308Y-64147917D01*
X143072901Y-64207516D01*
X143072900Y-64207535D01*
X143072900Y-66303270D01*
X116035341Y-66303270D01*
X116000108Y-66266316D01*
X115986888Y-66197709D01*
X116012858Y-66132845D01*
X116069774Y-66092318D01*
X116110326Y-66085500D01*
X126752338Y-66085500D01*
X126772902Y-66087216D01*
X126776126Y-66087759D01*
X126868956Y-66085549D01*
X126871019Y-66085500D01*
X126911582Y-66085500D01*
X126911591Y-66085500D01*
X126911600Y-66085499D01*
X126911602Y-66085499D01*
X126912303Y-66085431D01*
X126922869Y-66084422D01*
X126927263Y-66084160D01*
X126992919Y-66082598D01*
X127018648Y-66077000D01*
X127029153Y-66074716D01*
X127036445Y-66073578D01*
X127036820Y-66073542D01*
X127073372Y-66070052D01*
X127136400Y-66051544D01*
X127140645Y-66050461D01*
X127204817Y-66036502D01*
X127238905Y-66021903D01*
X127245843Y-66019409D01*
X127281442Y-66008957D01*
X127328446Y-65984724D01*
X127339807Y-65978867D01*
X127343814Y-65976979D01*
X127404163Y-65951137D01*
X127434880Y-65930346D01*
X127441230Y-65926579D01*
X127444968Y-65924652D01*
X127474190Y-65909588D01*
X127525813Y-65868989D01*
X127529370Y-65866393D01*
X127539797Y-65859336D01*
X127583750Y-65829589D01*
X127609975Y-65803362D01*
X127615492Y-65798465D01*
X127644649Y-65775538D01*
X127687654Y-65725907D01*
X127690644Y-65722693D01*
X129399660Y-64013677D01*
X129415413Y-64000353D01*
X129418077Y-63998457D01*
X129479283Y-63934264D01*
X129539790Y-63899329D01*
X129555773Y-63896543D01*
X129578583Y-63894091D01*
X129713428Y-63843797D01*
X129713427Y-63843797D01*
X129713431Y-63843796D01*
X129828646Y-63757546D01*
X129914896Y-63642331D01*
X129965191Y-63507483D01*
X129971600Y-63447873D01*
X129971600Y-63447870D01*
X132428400Y-63447870D01*
X132428401Y-63447876D01*
X132434808Y-63507483D01*
X132485102Y-63642328D01*
X132485106Y-63642335D01*
X132571352Y-63757544D01*
X132571355Y-63757547D01*
X132686564Y-63843793D01*
X132686571Y-63843797D01*
X132821417Y-63894091D01*
X132821416Y-63894091D01*
X132828344Y-63894835D01*
X132881027Y-63900500D01*
X134576772Y-63900499D01*
X134636383Y-63894091D01*
X134771231Y-63843796D01*
X134886446Y-63757546D01*
X134972696Y-63642331D01*
X135022991Y-63507483D01*
X135029400Y-63447873D01*
X135029399Y-61352128D01*
X135022991Y-61292517D01*
X135014354Y-61269361D01*
X134972697Y-61157671D01*
X134972693Y-61157664D01*
X134886447Y-61042455D01*
X134886444Y-61042452D01*
X134771235Y-60956206D01*
X134771228Y-60956202D01*
X134636382Y-60905908D01*
X134636383Y-60905908D01*
X134576783Y-60899501D01*
X134576781Y-60899500D01*
X134576773Y-60899500D01*
X134576764Y-60899500D01*
X132881029Y-60899500D01*
X132881023Y-60899501D01*
X132821416Y-60905908D01*
X132686571Y-60956202D01*
X132686564Y-60956206D01*
X132571355Y-61042452D01*
X132571352Y-61042455D01*
X132485106Y-61157664D01*
X132485102Y-61157671D01*
X132434808Y-61292517D01*
X132429737Y-61339690D01*
X132428401Y-61352123D01*
X132428400Y-61352135D01*
X132428400Y-63447870D01*
X129971600Y-63447870D01*
X129971599Y-62756699D01*
X129991283Y-62689661D01*
X130007913Y-62669024D01*
X131018564Y-61658374D01*
X131034317Y-61645050D01*
X131036977Y-61643157D01*
X131102461Y-61574478D01*
X131131168Y-61545772D01*
X131138393Y-61537019D01*
X131141296Y-61533748D01*
X131186623Y-61486212D01*
X131206680Y-61455000D01*
X131211009Y-61449072D01*
X131234641Y-61420452D01*
X131266122Y-61362796D01*
X131268360Y-61359025D01*
X131303863Y-61303783D01*
X131317645Y-61269353D01*
X131320782Y-61262693D01*
X131338568Y-61230124D01*
X131358573Y-61167540D01*
X131360048Y-61163438D01*
X131384460Y-61102462D01*
X131390213Y-61072605D01*
X131391480Y-61066037D01*
X131393306Y-61058884D01*
X131404597Y-61023566D01*
X131405396Y-61016889D01*
X131410195Y-60976738D01*
X131412391Y-60958368D01*
X131413069Y-60954019D01*
X131425500Y-60889527D01*
X131425500Y-60852436D01*
X131425939Y-60845069D01*
X131427940Y-60828334D01*
X131430342Y-60808245D01*
X131425658Y-60742753D01*
X131425500Y-60738329D01*
X131425500Y-60214900D01*
X131445185Y-60147861D01*
X131497989Y-60102106D01*
X131549500Y-60090900D01*
X139823218Y-60090900D01*
X139890257Y-60110585D01*
X139936012Y-60163389D01*
X139945956Y-60232547D01*
X139916931Y-60296103D01*
X139914447Y-60298883D01*
X139885236Y-60330613D01*
X139749226Y-60538793D01*
X139649336Y-60766518D01*
X139588292Y-61007575D01*
X139588290Y-61007586D01*
X139572900Y-61193335D01*
X139572900Y-63517465D01*
X139588290Y-63703213D01*
X139588292Y-63703224D01*
X139649336Y-63944281D01*
X139749226Y-64172006D01*
X139885233Y-64380182D01*
X139885236Y-64380185D01*
X140053656Y-64563138D01*
X140249891Y-64715874D01*
X140468590Y-64834228D01*
X140703786Y-64914971D01*
X140949065Y-64955900D01*
X141197735Y-64955900D01*
X141443014Y-64914971D01*
X141678210Y-64834228D01*
X141896909Y-64715874D01*
X142093144Y-64563138D01*
X142261564Y-64380185D01*
X142397573Y-64172007D01*
X142497463Y-63944281D01*
X142558508Y-63703221D01*
X142562960Y-63649500D01*
X142573900Y-63517465D01*
X142573900Y-61193335D01*
X142558509Y-61007586D01*
X142558507Y-61007575D01*
X142497463Y-60766518D01*
X142397573Y-60538793D01*
X142261563Y-60330613D01*
X142232353Y-60298883D01*
X142201430Y-60236229D01*
X142209290Y-60166803D01*
X142253437Y-60112647D01*
X142319854Y-60090956D01*
X142323582Y-60090900D01*
X143743022Y-60090900D01*
X143810061Y-60110585D01*
X143827003Y-60123668D01*
X143848615Y-60143564D01*
X143956539Y-60214074D01*
X144056793Y-60279573D01*
X144284518Y-60379463D01*
X144472020Y-60426945D01*
X144525579Y-60440508D01*
X144525581Y-60440508D01*
X144525586Y-60440509D01*
X144658776Y-60451545D01*
X144711333Y-60455900D01*
X144711335Y-60455900D01*
X147035465Y-60455900D01*
X147035467Y-60455900D01*
X147096684Y-60450827D01*
X147221213Y-60440509D01*
X147221216Y-60440508D01*
X147221221Y-60440508D01*
X147462281Y-60379463D01*
X147690007Y-60279573D01*
X147898185Y-60143564D01*
X148081138Y-59975144D01*
X148233874Y-59778909D01*
X148352228Y-59560210D01*
X148432971Y-59325014D01*
X148473900Y-59079735D01*
X148473900Y-58831065D01*
X148432971Y-58585786D01*
X148352228Y-58350590D01*
X148233874Y-58131891D01*
X148081138Y-57935656D01*
X147898185Y-57767236D01*
X147898182Y-57767233D01*
X147690006Y-57631226D01*
X147462281Y-57531336D01*
X147221224Y-57470292D01*
X147221213Y-57470290D01*
X147055948Y-57456597D01*
X147035467Y-57454900D01*
X144711333Y-57454900D01*
X144691921Y-57456508D01*
X144525586Y-57470290D01*
X144525575Y-57470292D01*
X144284518Y-57531336D01*
X144056793Y-57631226D01*
X143848617Y-57767234D01*
X143827006Y-57787129D01*
X143764351Y-57818052D01*
X143743022Y-57819900D01*
X131549500Y-57819900D01*
X131482461Y-57800215D01*
X131436706Y-57747411D01*
X131425500Y-57695900D01*
X131425500Y-56619647D01*
X131437118Y-56567242D01*
X131441057Y-56558796D01*
X131447618Y-56544724D01*
X131493791Y-56492286D01*
X131560984Y-56473134D01*
X131627865Y-56493350D01*
X131672382Y-56544725D01*
X131699431Y-56602732D01*
X131699432Y-56602734D01*
X131829954Y-56789141D01*
X131990858Y-56950045D01*
X131990861Y-56950047D01*
X132177266Y-57080568D01*
X132383504Y-57176739D01*
X132383509Y-57176740D01*
X132383511Y-57176741D01*
X132398044Y-57180635D01*
X132603308Y-57235635D01*
X132765230Y-57249801D01*
X132829998Y-57255468D01*
X132830000Y-57255468D01*
X132830002Y-57255468D01*
X132886672Y-57250509D01*
X133056692Y-57235635D01*
X133276496Y-57176739D01*
X133482734Y-57080568D01*
X133669139Y-56950047D01*
X133830047Y-56789139D01*
X133960568Y-56602734D01*
X134056739Y-56396496D01*
X134115635Y-56176692D01*
X134130500Y-56006784D01*
X134130500Y-55493216D01*
X134115635Y-55323308D01*
X134056739Y-55103504D01*
X133960568Y-54897266D01*
X133830047Y-54710861D01*
X133830045Y-54710858D01*
X133669141Y-54549954D01*
X133600607Y-54501967D01*
X133522211Y-54447073D01*
X133478587Y-54392499D01*
X133471393Y-54323001D01*
X133502915Y-54260646D01*
X133563145Y-54225231D01*
X133593335Y-54221500D01*
X169068115Y-54221500D01*
X169135154Y-54241185D01*
X169180909Y-54293989D01*
X169190853Y-54363147D01*
X169161828Y-54426703D01*
X169139238Y-54447075D01*
X169070858Y-54494954D01*
X168909954Y-54655858D01*
X168779432Y-54842265D01*
X168779431Y-54842267D01*
X168683261Y-55048502D01*
X168683258Y-55048511D01*
X168624366Y-55268302D01*
X168624364Y-55268312D01*
X168609500Y-55438216D01*
X168609500Y-55951784D01*
X168624364Y-56121687D01*
X168624366Y-56121697D01*
X168683258Y-56341488D01*
X168683261Y-56341497D01*
X168762882Y-56512242D01*
X168774500Y-56564647D01*
X168774500Y-58640500D01*
X168754815Y-58707539D01*
X168702011Y-58753294D01*
X168650500Y-58764500D01*
X167835162Y-58764500D01*
X167814595Y-58762782D01*
X167811385Y-58762242D01*
X167811376Y-58762241D01*
X167811374Y-58762241D01*
X167748112Y-58763746D01*
X167716481Y-58764500D01*
X167675909Y-58764500D01*
X167664630Y-58765576D01*
X167660225Y-58765838D01*
X167594579Y-58767402D01*
X167558338Y-58775285D01*
X167551055Y-58776420D01*
X167542679Y-58777220D01*
X167514134Y-58779946D01*
X167514125Y-58779948D01*
X167451119Y-58798447D01*
X167446833Y-58799541D01*
X167382686Y-58813497D01*
X167382673Y-58813501D01*
X167348594Y-58828094D01*
X167341652Y-58830590D01*
X167306063Y-58841040D01*
X167247688Y-58871133D01*
X167243685Y-58873020D01*
X167240958Y-58874188D01*
X167183337Y-58898863D01*
X167179995Y-58901125D01*
X167152621Y-58919651D01*
X167146276Y-58923415D01*
X167113312Y-58940410D01*
X167061695Y-58981001D01*
X167058121Y-58983611D01*
X167003759Y-59020403D01*
X167003750Y-59020410D01*
X166977518Y-59046641D01*
X166972001Y-59051537D01*
X166942853Y-59074459D01*
X166899846Y-59124091D01*
X166896830Y-59127330D01*
X163863437Y-62160721D01*
X163847695Y-62174039D01*
X163845025Y-62175940D01*
X163845024Y-62175941D01*
X163844337Y-62176662D01*
X163779538Y-62244621D01*
X163769971Y-62254187D01*
X163750842Y-62273316D01*
X163750838Y-62273321D01*
X163743615Y-62282067D01*
X163740681Y-62285372D01*
X163695378Y-62332886D01*
X163695376Y-62332889D01*
X163675326Y-62364085D01*
X163670977Y-62370041D01*
X163647358Y-62398648D01*
X163615888Y-62456280D01*
X163613630Y-62460086D01*
X163578137Y-62515316D01*
X163564354Y-62549742D01*
X163561211Y-62556414D01*
X163543432Y-62588976D01*
X163543432Y-62588977D01*
X163523435Y-62651527D01*
X163521939Y-62655690D01*
X163497541Y-62716634D01*
X163497539Y-62716641D01*
X163490519Y-62753057D01*
X163488695Y-62760203D01*
X163477402Y-62795535D01*
X163469607Y-62860729D01*
X163468925Y-62865102D01*
X163456500Y-62929571D01*
X163456500Y-62966662D01*
X163456061Y-62974029D01*
X163451658Y-63010851D01*
X163451658Y-63010856D01*
X163456342Y-63076344D01*
X163456500Y-63080769D01*
X163456500Y-68566297D01*
X163436815Y-68633336D01*
X163420181Y-68653978D01*
X162810124Y-69264035D01*
X162748801Y-69297520D01*
X162679109Y-69292536D01*
X162623176Y-69250664D01*
X162599153Y-69189607D01*
X162594091Y-69142516D01*
X162543797Y-69007671D01*
X162543793Y-69007664D01*
X162457547Y-68892455D01*
X162457544Y-68892452D01*
X162342335Y-68806206D01*
X162342328Y-68806202D01*
X162207482Y-68755908D01*
X162207483Y-68755908D01*
X162147883Y-68749501D01*
X162147881Y-68749500D01*
X162147873Y-68749500D01*
X162147864Y-68749500D01*
X155052129Y-68749500D01*
X155052123Y-68749501D01*
X154992516Y-68755908D01*
X154857671Y-68806202D01*
X154857664Y-68806206D01*
X154742455Y-68892452D01*
X154742452Y-68892455D01*
X154656206Y-69007664D01*
X154656202Y-69007671D01*
X154605908Y-69142517D01*
X154599501Y-69202116D01*
X154599500Y-69202135D01*
X154599500Y-69240500D01*
X154579815Y-69307539D01*
X154527011Y-69353294D01*
X154475500Y-69364500D01*
X154351701Y-69364500D01*
X154284662Y-69344815D01*
X154264020Y-69328181D01*
X153742045Y-68806206D01*
X153207078Y-68271238D01*
X153193754Y-68255487D01*
X153191857Y-68252823D01*
X153123178Y-68187338D01*
X153110099Y-68174259D01*
X153094478Y-68158637D01*
X153094476Y-68158635D01*
X153085738Y-68151421D01*
X153082427Y-68148482D01*
X153034916Y-68103181D01*
X153034912Y-68103177D01*
X153009251Y-68086685D01*
X153003715Y-68083127D01*
X152997758Y-68078777D01*
X152969154Y-68055161D01*
X152969154Y-68055160D01*
X152911520Y-68023689D01*
X152907719Y-68021434D01*
X152893927Y-68012571D01*
X152852483Y-67985936D01*
X152852477Y-67985934D01*
X152818049Y-67972150D01*
X152811376Y-67969006D01*
X152778829Y-67951235D01*
X152778827Y-67951234D01*
X152778823Y-67951232D01*
X152767320Y-67947554D01*
X152716276Y-67931236D01*
X152712112Y-67929740D01*
X152651162Y-67905340D01*
X152651163Y-67905340D01*
X152614739Y-67898319D01*
X152607589Y-67896494D01*
X152572266Y-67885202D01*
X152507069Y-67877407D01*
X152502696Y-67876725D01*
X152438228Y-67864300D01*
X152438227Y-67864300D01*
X152401138Y-67864300D01*
X152393771Y-67863861D01*
X152356946Y-67859458D01*
X152356945Y-67859458D01*
X152291451Y-67864142D01*
X152287030Y-67864300D01*
X125895362Y-67864300D01*
X125874797Y-67862583D01*
X125871576Y-67862041D01*
X125871574Y-67862041D01*
X125808312Y-67863546D01*
X125776681Y-67864300D01*
X125736109Y-67864300D01*
X125724830Y-67865376D01*
X125720425Y-67865638D01*
X125654779Y-67867202D01*
X125618538Y-67875085D01*
X125611255Y-67876220D01*
X125602879Y-67877020D01*
X125574334Y-67879746D01*
X125574325Y-67879748D01*
X125511319Y-67898247D01*
X125507033Y-67899341D01*
X125442886Y-67913297D01*
X125442873Y-67913301D01*
X125408794Y-67927894D01*
X125401852Y-67930390D01*
X125366263Y-67940840D01*
X125307888Y-67970933D01*
X125303885Y-67972820D01*
X125273262Y-67985934D01*
X125243537Y-67998663D01*
X125235241Y-68004277D01*
X125212821Y-68019451D01*
X125206476Y-68023215D01*
X125173512Y-68040210D01*
X125121895Y-68080801D01*
X125118321Y-68083411D01*
X125063959Y-68120203D01*
X125063950Y-68120210D01*
X125037718Y-68146441D01*
X125032201Y-68151337D01*
X125003053Y-68174259D01*
X124960046Y-68223891D01*
X124957030Y-68227130D01*
X123521917Y-69662241D01*
X123460594Y-69695726D01*
X123445045Y-69698088D01*
X123373312Y-69704364D01*
X123373302Y-69704366D01*
X123153511Y-69763258D01*
X123153502Y-69763261D01*
X122947267Y-69859431D01*
X122947265Y-69859432D01*
X122760858Y-69989954D01*
X122599954Y-70150858D01*
X122469432Y-70337265D01*
X122469431Y-70337267D01*
X122373261Y-70543502D01*
X122373258Y-70543511D01*
X122314366Y-70763302D01*
X122314364Y-70763313D01*
X122294532Y-70989998D01*
X122294532Y-70990001D01*
X122314364Y-71216686D01*
X122314366Y-71216697D01*
X122373258Y-71436488D01*
X122373261Y-71436497D01*
X122469431Y-71642732D01*
X122469432Y-71642734D01*
X122599954Y-71829141D01*
X122760858Y-71990045D01*
X122794593Y-72013666D01*
X122947266Y-72120568D01*
X123153504Y-72216739D01*
X123373308Y-72275635D01*
X123543216Y-72290500D01*
X124056784Y-72290500D01*
X124226692Y-72275635D01*
X124446496Y-72216739D01*
X124652734Y-72120568D01*
X124839139Y-71990047D01*
X125000047Y-71829139D01*
X125130568Y-71642734D01*
X125226739Y-71436496D01*
X125285635Y-71216692D01*
X125291910Y-71144952D01*
X125317361Y-71079886D01*
X125327749Y-71068088D01*
X126224220Y-70171619D01*
X126285544Y-70138134D01*
X126311902Y-70135300D01*
X128572649Y-70135300D01*
X128639688Y-70154985D01*
X128685443Y-70207789D01*
X128695387Y-70276947D01*
X128674225Y-70330419D01*
X128669433Y-70337265D01*
X128669430Y-70337269D01*
X128573261Y-70543502D01*
X128573258Y-70543511D01*
X128514366Y-70763302D01*
X128514364Y-70763313D01*
X128494532Y-70989998D01*
X128494532Y-70990001D01*
X128514364Y-71216686D01*
X128514366Y-71216697D01*
X128573258Y-71436488D01*
X128573261Y-71436497D01*
X128669431Y-71642732D01*
X128669432Y-71642734D01*
X128799954Y-71829141D01*
X128960858Y-71990045D01*
X128994593Y-72013666D01*
X129147266Y-72120568D01*
X129353504Y-72216739D01*
X129573308Y-72275635D01*
X129743216Y-72290500D01*
X130256784Y-72290500D01*
X130426692Y-72275635D01*
X130583244Y-72233687D01*
X130653091Y-72235350D01*
X130710954Y-72274512D01*
X130738458Y-72338741D01*
X130726872Y-72407643D01*
X130703016Y-72441143D01*
X129385979Y-73758181D01*
X129324656Y-73791666D01*
X129298298Y-73794500D01*
X107896836Y-73794500D01*
X107829797Y-73774815D01*
X107818940Y-73766979D01*
X107817080Y-73765477D01*
X107608955Y-73649210D01*
X107384170Y-73569788D01*
X107149209Y-73529500D01*
X107149200Y-73529500D01*
X106270503Y-73529500D01*
X106270498Y-73529500D01*
X106092463Y-73544652D01*
X105861751Y-73604724D01*
X105644519Y-73702919D01*
X105644511Y-73702924D01*
X105447006Y-73836413D01*
X105446997Y-73836421D01*
X105274881Y-74001379D01*
X105133123Y-74193050D01*
X105133120Y-74193054D01*
X105025796Y-74405920D01*
X105025793Y-74405926D01*
X104955983Y-74633878D01*
X104925702Y-74870346D01*
X104935819Y-75108528D01*
X104935819Y-75108532D01*
X104986045Y-75341580D01*
X105074935Y-75562788D01*
X105074936Y-75562790D01*
X105088726Y-75585187D01*
X105100569Y-75604420D01*
X105118956Y-75671827D01*
X105097981Y-75738474D01*
X105044304Y-75783201D01*
X104974967Y-75791808D01*
X104911983Y-75761562D01*
X104903759Y-75753427D01*
X104748884Y-75585187D01*
X104748879Y-75585183D01*
X104748877Y-75585181D01*
X104565734Y-75442635D01*
X104565728Y-75442631D01*
X104361604Y-75332164D01*
X104361595Y-75332161D01*
X104142084Y-75256802D01*
X103958220Y-75226121D01*
X103913149Y-75218600D01*
X103681051Y-75218600D01*
X103635980Y-75226121D01*
X103452115Y-75256802D01*
X103232604Y-75332161D01*
X103232590Y-75332167D01*
X103053017Y-75429347D01*
X102984689Y-75443942D01*
X102919317Y-75419279D01*
X102877656Y-75363188D01*
X102870000Y-75320292D01*
X102870000Y-52194000D01*
X102889685Y-52126961D01*
X102942489Y-52081206D01*
X102994000Y-52070000D01*
X112644365Y-52070000D01*
X112711404Y-52089685D01*
G37*
G04 #@! TD.AperFunction*
M02*
