G04 #@! TF.GenerationSoftware,KiCad,Pcbnew,7.0.7-7.0.7~ubuntu22.04.1*
G04 #@! TF.CreationDate,2023-08-25T15:09:44-03:00*
G04 #@! TF.ProjectId,Fonte_tensao_LM675_v05,466f6e74-655f-4746-956e-73616f5f4c4d,v02*
G04 #@! TF.SameCoordinates,Original*
G04 #@! TF.FileFunction,Soldermask,Top*
G04 #@! TF.FilePolarity,Negative*
%FSLAX46Y46*%
G04 Gerber Fmt 4.6, Leading zero omitted, Abs format (unit mm)*
G04 Created by KiCad (PCBNEW 7.0.7-7.0.7~ubuntu22.04.1) date 2023-08-25 15:09:44*
%MOMM*%
%LPD*%
G01*
G04 APERTURE LIST*
%ADD10O,2.000000X1.600000*%
%ADD11O,1.600000X2.000000*%
%ADD12R,1.600000X2.000000*%
%ADD13R,2.000000X1.600000*%
%ADD14R,7.000000X2.500000*%
%ADD15R,1.800000X1.800000*%
%ADD16O,1.800000X2.000000*%
%ADD17O,2.500000X1.800000*%
%ADD18R,2.500000X1.800000*%
%ADD19R,4.600000X2.000000*%
%ADD20O,4.200000X2.000000*%
%ADD21O,2.000000X4.200000*%
G04 APERTURE END LIST*
D10*
X173200000Y-79080000D03*
X173200000Y-68920000D03*
X115200000Y-67450000D03*
X115200000Y-64950000D03*
X117600000Y-78610000D03*
X117600000Y-70990000D03*
D11*
X127750000Y-55750000D03*
X130290000Y-55750000D03*
X132830000Y-55750000D03*
D10*
X111600000Y-70990000D03*
X111600000Y-78610000D03*
D11*
X136228900Y-62400000D03*
D12*
X133728900Y-62400000D03*
D10*
X168800000Y-141428900D03*
D13*
X168800000Y-138928900D03*
D10*
X169800000Y-59900000D03*
D13*
X169800000Y-62400000D03*
D10*
X123800000Y-70990000D03*
X123800000Y-78610000D03*
D11*
X111800000Y-60950000D03*
X113500000Y-57250000D03*
X115200000Y-60950000D03*
X116900000Y-57250000D03*
X118600000Y-60950000D03*
D10*
X130000000Y-78610000D03*
X130000000Y-70990000D03*
D14*
X158600000Y-63700000D03*
X158600000Y-70500000D03*
D15*
X160225000Y-143000000D03*
D16*
X162765000Y-143000000D03*
D17*
X185420000Y-57150000D03*
X185420000Y-59690000D03*
X185420000Y-62230000D03*
X185420000Y-64770000D03*
X185420000Y-67310000D03*
X185420000Y-69850000D03*
X185420000Y-72390000D03*
X185420000Y-74930000D03*
X185420000Y-77470000D03*
X185420000Y-80010000D03*
X185420000Y-82550000D03*
X185420000Y-85090000D03*
X185420000Y-87630000D03*
X185420000Y-90170000D03*
X185420000Y-92710000D03*
X185420000Y-95250000D03*
X185420000Y-97790000D03*
X185420000Y-100330000D03*
X185420000Y-102870000D03*
X185420000Y-105410000D03*
X185420000Y-107950000D03*
X185420000Y-110490000D03*
X185420000Y-113030000D03*
X185420000Y-115570000D03*
X185420000Y-118110000D03*
X185420000Y-120650000D03*
X185420000Y-123190000D03*
X185420000Y-125730000D03*
X185420000Y-128270000D03*
X185420000Y-130810000D03*
X185420000Y-133350000D03*
X185420000Y-135890000D03*
X185420000Y-138430000D03*
X185420000Y-140970000D03*
X185420000Y-143510000D03*
D10*
X174800000Y-141428900D03*
D13*
X174800000Y-138928900D03*
D10*
X128650000Y-138571100D03*
D13*
X128650000Y-141071100D03*
D11*
X131200000Y-145000000D03*
X128660000Y-145000000D03*
X126120000Y-145000000D03*
D15*
X153500000Y-143000000D03*
D16*
X156040000Y-143000000D03*
D11*
X126171100Y-62400000D03*
D12*
X128671100Y-62400000D03*
D18*
X106680000Y-57150000D03*
D17*
X106680000Y-59690000D03*
X106680000Y-62230000D03*
X106680000Y-64770000D03*
X106680000Y-67310000D03*
X106680000Y-69850000D03*
X106680000Y-72390000D03*
X106680000Y-74930000D03*
X106680000Y-81280000D03*
X106680000Y-83820000D03*
X106680000Y-86360000D03*
X106680000Y-88900000D03*
X106680000Y-91440000D03*
X106680000Y-93980000D03*
X106680000Y-96520000D03*
X106680000Y-99060000D03*
X106680000Y-101600000D03*
X106680000Y-104140000D03*
X106680000Y-106680000D03*
X106680000Y-109220000D03*
X106680000Y-111760000D03*
X106680000Y-114300000D03*
X106680000Y-116840000D03*
X106680000Y-119380000D03*
X106680000Y-121920000D03*
X106680000Y-124460000D03*
X106680000Y-127000000D03*
X106680000Y-129540000D03*
X106680000Y-132080000D03*
X106680000Y-134620000D03*
X106680000Y-137160000D03*
X106680000Y-139700000D03*
X106680000Y-142240000D03*
X106680000Y-144780000D03*
X106680000Y-147320000D03*
D11*
X128930000Y-133800000D03*
X118770000Y-133800000D03*
X140320000Y-131800000D03*
X150480000Y-131800000D03*
X175790000Y-145000000D03*
X173250000Y-145000000D03*
X170710000Y-145000000D03*
D10*
X176800000Y-59750000D03*
X176800000Y-62250000D03*
X162694700Y-126581200D03*
X162694700Y-134201200D03*
X147600000Y-140300000D03*
D13*
X147600000Y-137800000D03*
D11*
X110990000Y-83800000D03*
X118610000Y-83800000D03*
X145680000Y-71600000D03*
X135520000Y-71600000D03*
X169910000Y-55695000D03*
X172450000Y-55695000D03*
X174990000Y-55695000D03*
X142050000Y-140000000D03*
X139550000Y-140000000D03*
D10*
X119600000Y-142400000D03*
D13*
X119600000Y-144900000D03*
D11*
X148565100Y-145000000D03*
X146025100Y-145000000D03*
X143485100Y-145000000D03*
D19*
X145873400Y-65255400D03*
D20*
X145873400Y-58955400D03*
D21*
X141073400Y-62355400D03*
D10*
X156000000Y-126630000D03*
X156000000Y-134250000D03*
M02*
