G04 MADE WITH FRITZING*
G04 WWW.FRITZING.ORG*
G04 SINGLE SIDED*
G04 HOLES NOT PLATED*
G04 CONTOUR ON CENTER OF CONTOUR VECTOR*
%ASAXBY*%
%FSLAX23Y23*%
%MOIN*%
%OFA0B0*%
%SFA1.0B1.0*%
%ADD10C,0.093307*%
%ADD11C,0.088000*%
%LNMASK0*%
G90*
G70*
G54D10*
X200Y3687D03*
X200Y3587D03*
X200Y3487D03*
X200Y3387D03*
X200Y3287D03*
X200Y3187D03*
X200Y3087D03*
X200Y2987D03*
G54D11*
X200Y2737D03*
X200Y2637D03*
X200Y2537D03*
X200Y2437D03*
X200Y2337D03*
X200Y2237D03*
X200Y2137D03*
X200Y2037D03*
X200Y1937D03*
X200Y1837D03*
X200Y1737D03*
X200Y1637D03*
X200Y1537D03*
X200Y1437D03*
X200Y1337D03*
X200Y1237D03*
X200Y1137D03*
X200Y1037D03*
X200Y937D03*
X200Y837D03*
X200Y737D03*
X200Y637D03*
X200Y537D03*
X200Y437D03*
X200Y337D03*
X200Y237D03*
X200Y137D03*
X3350Y3687D03*
X3350Y3587D03*
X3350Y3487D03*
X3350Y3387D03*
X3350Y3287D03*
X3350Y3187D03*
X3350Y3087D03*
X3350Y2987D03*
X3350Y2887D03*
X3350Y2787D03*
X3350Y2687D03*
X3350Y2587D03*
X3350Y2487D03*
X3350Y2387D03*
X3350Y2287D03*
X3350Y2187D03*
X3350Y2087D03*
X3350Y1987D03*
X3350Y1887D03*
X3350Y1787D03*
X3350Y1687D03*
X3350Y1587D03*
X3350Y1487D03*
X3350Y1387D03*
X3350Y1287D03*
X3350Y1187D03*
X3350Y1087D03*
X3350Y987D03*
X3350Y887D03*
X3350Y787D03*
X3350Y687D03*
X3350Y587D03*
X3350Y487D03*
X3350Y387D03*
X3350Y287D03*
G04 End of Mask0*
M02*