; NON-PLATED HOLES START AT T1
; THROUGH (PLATED) HOLES START AT T100
M48
INCH
T100C0.043307
%
T100
X001997Y033871
X001997Y030871
X001997Y032871
X001997Y036871
X001997Y035871
X001997Y029871
X001997Y031871
X001997Y034871
X001997Y019371
X001997Y023371
X033497Y027871
X001997Y018371
X001997Y025371
X033497Y036871
X001997Y006371
X001997Y026371
X001997Y027371
X033497Y004871
X033497Y020871
X033497Y024871
X033497Y029871
X001997Y014371
X001997Y015371
X033497Y002871
X001997Y004371
X001997Y022371
X001997Y003371
X001997Y016371
X033497Y010871
X033497Y003871
X033497Y026871
X033497Y034871
X033497Y007871
X033497Y017871
X033497Y031871
X001997Y009371
X001997Y024371
X033497Y006871
X033497Y033871
X001997Y021371
X033497Y028871
X033497Y019871
X033497Y013871
X033497Y014871
X033497Y025871
X033497Y009871
X033497Y015871
X001997Y001371
X033497Y023871
X033497Y005871
X033497Y030871
X033497Y022871
X033497Y008871
X001997Y008371
X001997Y017371
X033497Y018871
X033497Y016871
X033497Y035871
X001997Y011371
X033497Y032871
X001997Y012371
X001997Y020371
X033497Y012871
X001997Y005371
X001997Y002371
X001997Y013371
X033497Y011871
X033497Y021871
X001997Y007371
X001997Y010371
M30
