%TF.GenerationSoftware,KiCad,Pcbnew,7.0.10-7.0.10~ubuntu20.04.1*%
%TF.CreationDate,2024-07-24T18:34:20-03:00*%
%TF.ProjectId,Demux_V02,44656d75-785f-4563-9032-2e6b69636164,v04*%
%TF.SameCoordinates,Original*%
%TF.FileFunction,Drillmap*%
%TF.FilePolarity,Positive*%
%FSLAX45Y45*%
G04 Gerber Fmt 4.5, Leading zero omitted, Abs format (unit mm)*
G04 Created by KiCad (PCBNEW 7.0.10-7.0.10~ubuntu20.04.1) date 2024-07-24 18:34:20*
%MOMM*%
%LPD*%
G01*
G04 APERTURE LIST*
%ADD10C,0.150000*%
%ADD11C,0.200000*%
%ADD12C,0.100000*%
%ADD13C,0.101600*%
%ADD14C,0.102000*%
G04 APERTURE END LIST*
D10*
X19000000Y-5000000D02*
X10000000Y-5000000D01*
X19000000Y-15000000D02*
X19000000Y-5000000D01*
X18999982Y-14999980D02*
X10000000Y-14999980D01*
X10000000Y-5000000D02*
X10000000Y-14999980D01*
D11*
D12*
X11260000Y-9062500D02*
X11320000Y-9122500D01*
X11320000Y-9062500D02*
X11260000Y-9122500D01*
X12007200Y-7907790D02*
X12067200Y-7967790D01*
X12067200Y-7907790D02*
X12007200Y-7967790D01*
X12217500Y-12082500D02*
X12277500Y-12142500D01*
X12277500Y-12082500D02*
X12217500Y-12142500D01*
X12811100Y-11635500D02*
X12871100Y-11695500D01*
X12871100Y-11635500D02*
X12811100Y-11695500D01*
X13090000Y-10507500D02*
X13150000Y-10567500D01*
X13150000Y-10507500D02*
X13090000Y-10567500D01*
X13103000Y-9840710D02*
X13163000Y-9900710D01*
X13163000Y-9840710D02*
X13103000Y-9900710D01*
X13423600Y-9244870D02*
X13483600Y-9304870D01*
X13483600Y-9244870D02*
X13423600Y-9304870D01*
X13750400Y-9249530D02*
X13810400Y-9309530D01*
X13810400Y-9249530D02*
X13750400Y-9309530D01*
X13985000Y-6370000D02*
X14045000Y-6430000D01*
X14045000Y-6370000D02*
X13985000Y-6430000D01*
X13997800Y-10372100D02*
X14057800Y-10432100D01*
X14057800Y-10372100D02*
X13997800Y-10432100D01*
X14215000Y-5935000D02*
X14275000Y-5995000D01*
X14275000Y-5935000D02*
X14215000Y-5995000D01*
X14260600Y-11342800D02*
X14320600Y-11402800D01*
X14320600Y-11342800D02*
X14260600Y-11402800D01*
X14328400Y-8416490D02*
X14388400Y-8476490D01*
X14388400Y-8416490D02*
X14328400Y-8476490D01*
X14387500Y-10132500D02*
X14447500Y-10192500D01*
X14447500Y-10132500D02*
X14387500Y-10192500D01*
X14431100Y-8910630D02*
X14491100Y-8970630D01*
X14491100Y-8910630D02*
X14431100Y-8970630D01*
X14750000Y-12467500D02*
X14810000Y-12527500D01*
X14810000Y-12467500D02*
X14750000Y-12527500D01*
X14885000Y-6575000D02*
X14945000Y-6635000D01*
X14945000Y-6575000D02*
X14885000Y-6635000D01*
X15082500Y-8597500D02*
X15142500Y-8657500D01*
X15142500Y-8597500D02*
X15082500Y-8657500D01*
X15090000Y-7550000D02*
X15150000Y-7610000D01*
X15150000Y-7550000D02*
X15090000Y-7610000D01*
X15135100Y-9602070D02*
X15195100Y-9662070D01*
X15195100Y-9602070D02*
X15135100Y-9662070D01*
X15335000Y-10512500D02*
X15395000Y-10572500D01*
X15395000Y-10512500D02*
X15335000Y-10572500D01*
X15385000Y-12450000D02*
X15445000Y-12510000D01*
X15445000Y-12450000D02*
X15385000Y-12510000D01*
X15392500Y-13332500D02*
X15452500Y-13392500D01*
X15452500Y-13332500D02*
X15392500Y-13392500D01*
X15395000Y-12080000D02*
X15455000Y-12140000D01*
X15455000Y-12080000D02*
X15395000Y-12140000D01*
X15413600Y-11342500D02*
X15473600Y-11402500D01*
X15473600Y-11342500D02*
X15413600Y-11402500D01*
X15447500Y-8465000D02*
X15507500Y-8525000D01*
X15507500Y-8465000D02*
X15447500Y-8525000D01*
X15652500Y-10237500D02*
X15712500Y-10297500D01*
X15712500Y-10237500D02*
X15652500Y-10297500D01*
X15685000Y-8230000D02*
X15745000Y-8290000D01*
X15745000Y-8230000D02*
X15685000Y-8290000D01*
X15982500Y-13002500D02*
X16042500Y-13062500D01*
X16042500Y-13002500D02*
X15982500Y-13062500D01*
X16035000Y-12602500D02*
X16095000Y-12662500D01*
X16095000Y-12602500D02*
X16035000Y-12662500D01*
X17347500Y-11157500D02*
X17407500Y-11217500D01*
X17407500Y-11157500D02*
X17347500Y-11217500D01*
X17580100Y-13382300D02*
X17640100Y-13442300D01*
X17640100Y-13382300D02*
X17580100Y-13442300D01*
X17610000Y-13899100D02*
X17670000Y-13959100D01*
X17670000Y-13899100D02*
X17610000Y-13959100D01*
X17682500Y-13280700D02*
X17742500Y-13340700D01*
X17742500Y-13280700D02*
X17682500Y-13340700D01*
X18135100Y-11553600D02*
X18195100Y-11613600D01*
X18195100Y-11553600D02*
X18135100Y-11613600D01*
X11077370Y-6876000D02*
G75*
G03*
X10998630Y-6876000I-39370J0D01*
G01*
X10998630Y-6876000D02*
G75*
G03*
X11077370Y-6876000I39370J0D01*
G01*
X11077370Y-7130000D02*
G75*
G03*
X10998630Y-7130000I-39370J0D01*
G01*
X10998630Y-7130000D02*
G75*
G03*
X11077370Y-7130000I39370J0D01*
G01*
X11077370Y-7384000D02*
G75*
G03*
X10998630Y-7384000I-39370J0D01*
G01*
X10998630Y-7384000D02*
G75*
G03*
X11077370Y-7384000I39370J0D01*
G01*
X11077370Y-7638000D02*
G75*
G03*
X10998630Y-7638000I-39370J0D01*
G01*
X10998630Y-7638000D02*
G75*
G03*
X11077370Y-7638000I39370J0D01*
G01*
X11077370Y-7892000D02*
G75*
G03*
X10998630Y-7892000I-39370J0D01*
G01*
X10998630Y-7892000D02*
G75*
G03*
X11077370Y-7892000I39370J0D01*
G01*
X11077370Y-8146000D02*
G75*
G03*
X10998630Y-8146000I-39370J0D01*
G01*
X10998630Y-8146000D02*
G75*
G03*
X11077370Y-8146000I39370J0D01*
G01*
X11077370Y-8400000D02*
G75*
G03*
X10998630Y-8400000I-39370J0D01*
G01*
X10998630Y-8400000D02*
G75*
G03*
X11077370Y-8400000I39370J0D01*
G01*
X11077370Y-8654000D02*
G75*
G03*
X10998630Y-8654000I-39370J0D01*
G01*
X10998630Y-8654000D02*
G75*
G03*
X11077370Y-8654000I39370J0D01*
G01*
X11839370Y-6876000D02*
G75*
G03*
X11760630Y-6876000I-39370J0D01*
G01*
X11760630Y-6876000D02*
G75*
G03*
X11839370Y-6876000I39370J0D01*
G01*
X11839370Y-7130000D02*
G75*
G03*
X11760630Y-7130000I-39370J0D01*
G01*
X11760630Y-7130000D02*
G75*
G03*
X11839370Y-7130000I39370J0D01*
G01*
X11839370Y-7384000D02*
G75*
G03*
X11760630Y-7384000I-39370J0D01*
G01*
X11760630Y-7384000D02*
G75*
G03*
X11839370Y-7384000I39370J0D01*
G01*
X11839370Y-7638000D02*
G75*
G03*
X11760630Y-7638000I-39370J0D01*
G01*
X11760630Y-7638000D02*
G75*
G03*
X11839370Y-7638000I39370J0D01*
G01*
X11839370Y-7892000D02*
G75*
G03*
X11760630Y-7892000I-39370J0D01*
G01*
X11760630Y-7892000D02*
G75*
G03*
X11839370Y-7892000I39370J0D01*
G01*
X11839370Y-8146000D02*
G75*
G03*
X11760630Y-8146000I-39370J0D01*
G01*
X11760630Y-8146000D02*
G75*
G03*
X11839370Y-8146000I39370J0D01*
G01*
X11839370Y-8400000D02*
G75*
G03*
X11760630Y-8400000I-39370J0D01*
G01*
X11760630Y-8400000D02*
G75*
G03*
X11839370Y-8400000I39370J0D01*
G01*
X11839370Y-8654000D02*
G75*
G03*
X11760630Y-8654000I-39370J0D01*
G01*
X11760630Y-8654000D02*
G75*
G03*
X11839370Y-8654000I39370J0D01*
G01*
X11839370Y-11861000D02*
G75*
G03*
X11760630Y-11861000I-39370J0D01*
G01*
X11760630Y-11861000D02*
G75*
G03*
X11839370Y-11861000I39370J0D01*
G01*
X11839370Y-12115000D02*
G75*
G03*
X11760630Y-12115000I-39370J0D01*
G01*
X11760630Y-12115000D02*
G75*
G03*
X11839370Y-12115000I39370J0D01*
G01*
X11839370Y-12369000D02*
G75*
G03*
X11760630Y-12369000I-39370J0D01*
G01*
X11760630Y-12369000D02*
G75*
G03*
X11839370Y-12369000I39370J0D01*
G01*
X11839370Y-12623000D02*
G75*
G03*
X11760630Y-12623000I-39370J0D01*
G01*
X11760630Y-12623000D02*
G75*
G03*
X11839370Y-12623000I39370J0D01*
G01*
X11839370Y-12877000D02*
G75*
G03*
X11760630Y-12877000I-39370J0D01*
G01*
X11760630Y-12877000D02*
G75*
G03*
X11839370Y-12877000I39370J0D01*
G01*
X11839370Y-13131000D02*
G75*
G03*
X11760630Y-13131000I-39370J0D01*
G01*
X11760630Y-13131000D02*
G75*
G03*
X11839370Y-13131000I39370J0D01*
G01*
X11839370Y-13385000D02*
G75*
G03*
X11760630Y-13385000I-39370J0D01*
G01*
X11760630Y-13385000D02*
G75*
G03*
X11839370Y-13385000I39370J0D01*
G01*
X11839370Y-13639000D02*
G75*
G03*
X11760630Y-13639000I-39370J0D01*
G01*
X11760630Y-13639000D02*
G75*
G03*
X11839370Y-13639000I39370J0D01*
G01*
X12277370Y-6242000D02*
G75*
G03*
X12198630Y-6242000I-39370J0D01*
G01*
X12198630Y-6242000D02*
G75*
G03*
X12277370Y-6242000I39370J0D01*
G01*
X12277370Y-6496000D02*
G75*
G03*
X12198630Y-6496000I-39370J0D01*
G01*
X12198630Y-6496000D02*
G75*
G03*
X12277370Y-6496000I39370J0D01*
G01*
X12277370Y-6750000D02*
G75*
G03*
X12198630Y-6750000I-39370J0D01*
G01*
X12198630Y-6750000D02*
G75*
G03*
X12277370Y-6750000I39370J0D01*
G01*
X12277370Y-7004000D02*
G75*
G03*
X12198630Y-7004000I-39370J0D01*
G01*
X12198630Y-7004000D02*
G75*
G03*
X12277370Y-7004000I39370J0D01*
G01*
X12277370Y-7258000D02*
G75*
G03*
X12198630Y-7258000I-39370J0D01*
G01*
X12198630Y-7258000D02*
G75*
G03*
X12277370Y-7258000I39370J0D01*
G01*
X12277370Y-7512000D02*
G75*
G03*
X12198630Y-7512000I-39370J0D01*
G01*
X12198630Y-7512000D02*
G75*
G03*
X12277370Y-7512000I39370J0D01*
G01*
X12277370Y-7766000D02*
G75*
G03*
X12198630Y-7766000I-39370J0D01*
G01*
X12198630Y-7766000D02*
G75*
G03*
X12277370Y-7766000I39370J0D01*
G01*
X12277370Y-8020000D02*
G75*
G03*
X12198630Y-8020000I-39370J0D01*
G01*
X12198630Y-8020000D02*
G75*
G03*
X12277370Y-8020000I39370J0D01*
G01*
X12601370Y-11861000D02*
G75*
G03*
X12522630Y-11861000I-39370J0D01*
G01*
X12522630Y-11861000D02*
G75*
G03*
X12601370Y-11861000I39370J0D01*
G01*
X12601370Y-12115000D02*
G75*
G03*
X12522630Y-12115000I-39370J0D01*
G01*
X12522630Y-12115000D02*
G75*
G03*
X12601370Y-12115000I39370J0D01*
G01*
X12601370Y-12369000D02*
G75*
G03*
X12522630Y-12369000I-39370J0D01*
G01*
X12522630Y-12369000D02*
G75*
G03*
X12601370Y-12369000I39370J0D01*
G01*
X12601370Y-12623000D02*
G75*
G03*
X12522630Y-12623000I-39370J0D01*
G01*
X12522630Y-12623000D02*
G75*
G03*
X12601370Y-12623000I39370J0D01*
G01*
X12601370Y-12877000D02*
G75*
G03*
X12522630Y-12877000I-39370J0D01*
G01*
X12522630Y-12877000D02*
G75*
G03*
X12601370Y-12877000I39370J0D01*
G01*
X12601370Y-13131000D02*
G75*
G03*
X12522630Y-13131000I-39370J0D01*
G01*
X12522630Y-13131000D02*
G75*
G03*
X12601370Y-13131000I39370J0D01*
G01*
X12601370Y-13385000D02*
G75*
G03*
X12522630Y-13385000I-39370J0D01*
G01*
X12522630Y-13385000D02*
G75*
G03*
X12601370Y-13385000I39370J0D01*
G01*
X12601370Y-13639000D02*
G75*
G03*
X12522630Y-13639000I-39370J0D01*
G01*
X12522630Y-13639000D02*
G75*
G03*
X12601370Y-13639000I39370J0D01*
G01*
X13039370Y-6242000D02*
G75*
G03*
X12960630Y-6242000I-39370J0D01*
G01*
X12960630Y-6242000D02*
G75*
G03*
X13039370Y-6242000I39370J0D01*
G01*
X13039370Y-6496000D02*
G75*
G03*
X12960630Y-6496000I-39370J0D01*
G01*
X12960630Y-6496000D02*
G75*
G03*
X13039370Y-6496000I39370J0D01*
G01*
X13039370Y-6750000D02*
G75*
G03*
X12960630Y-6750000I-39370J0D01*
G01*
X12960630Y-6750000D02*
G75*
G03*
X13039370Y-6750000I39370J0D01*
G01*
X13039370Y-7004000D02*
G75*
G03*
X12960630Y-7004000I-39370J0D01*
G01*
X12960630Y-7004000D02*
G75*
G03*
X13039370Y-7004000I39370J0D01*
G01*
X13039370Y-7258000D02*
G75*
G03*
X12960630Y-7258000I-39370J0D01*
G01*
X12960630Y-7258000D02*
G75*
G03*
X13039370Y-7258000I39370J0D01*
G01*
X13039370Y-7512000D02*
G75*
G03*
X12960630Y-7512000I-39370J0D01*
G01*
X12960630Y-7512000D02*
G75*
G03*
X13039370Y-7512000I39370J0D01*
G01*
X13039370Y-7766000D02*
G75*
G03*
X12960630Y-7766000I-39370J0D01*
G01*
X12960630Y-7766000D02*
G75*
G03*
X13039370Y-7766000I39370J0D01*
G01*
X13039370Y-8020000D02*
G75*
G03*
X12960630Y-8020000I-39370J0D01*
G01*
X12960630Y-8020000D02*
G75*
G03*
X13039370Y-8020000I39370J0D01*
G01*
X13058370Y-12176000D02*
G75*
G03*
X12979630Y-12176000I-39370J0D01*
G01*
X12979630Y-12176000D02*
G75*
G03*
X13058370Y-12176000I39370J0D01*
G01*
X13058370Y-12430000D02*
G75*
G03*
X12979630Y-12430000I-39370J0D01*
G01*
X12979630Y-12430000D02*
G75*
G03*
X13058370Y-12430000I39370J0D01*
G01*
X13058370Y-12684000D02*
G75*
G03*
X12979630Y-12684000I-39370J0D01*
G01*
X12979630Y-12684000D02*
G75*
G03*
X13058370Y-12684000I39370J0D01*
G01*
X13058370Y-12938000D02*
G75*
G03*
X12979630Y-12938000I-39370J0D01*
G01*
X12979630Y-12938000D02*
G75*
G03*
X13058370Y-12938000I39370J0D01*
G01*
X13058370Y-13192000D02*
G75*
G03*
X12979630Y-13192000I-39370J0D01*
G01*
X12979630Y-13192000D02*
G75*
G03*
X13058370Y-13192000I39370J0D01*
G01*
X13058370Y-13446000D02*
G75*
G03*
X12979630Y-13446000I-39370J0D01*
G01*
X12979630Y-13446000D02*
G75*
G03*
X13058370Y-13446000I39370J0D01*
G01*
X13058370Y-13700000D02*
G75*
G03*
X12979630Y-13700000I-39370J0D01*
G01*
X12979630Y-13700000D02*
G75*
G03*
X13058370Y-13700000I39370J0D01*
G01*
X13058370Y-13954000D02*
G75*
G03*
X12979630Y-13954000I-39370J0D01*
G01*
X12979630Y-13954000D02*
G75*
G03*
X13058370Y-13954000I39370J0D01*
G01*
X13477370Y-6861000D02*
G75*
G03*
X13398630Y-6861000I-39370J0D01*
G01*
X13398630Y-6861000D02*
G75*
G03*
X13477370Y-6861000I39370J0D01*
G01*
X13477370Y-7115000D02*
G75*
G03*
X13398630Y-7115000I-39370J0D01*
G01*
X13398630Y-7115000D02*
G75*
G03*
X13477370Y-7115000I39370J0D01*
G01*
X13477370Y-7369000D02*
G75*
G03*
X13398630Y-7369000I-39370J0D01*
G01*
X13398630Y-7369000D02*
G75*
G03*
X13477370Y-7369000I39370J0D01*
G01*
X13477370Y-7623000D02*
G75*
G03*
X13398630Y-7623000I-39370J0D01*
G01*
X13398630Y-7623000D02*
G75*
G03*
X13477370Y-7623000I39370J0D01*
G01*
X13477370Y-7877000D02*
G75*
G03*
X13398630Y-7877000I-39370J0D01*
G01*
X13398630Y-7877000D02*
G75*
G03*
X13477370Y-7877000I39370J0D01*
G01*
X13477370Y-8131000D02*
G75*
G03*
X13398630Y-8131000I-39370J0D01*
G01*
X13398630Y-8131000D02*
G75*
G03*
X13477370Y-8131000I39370J0D01*
G01*
X13477370Y-8385000D02*
G75*
G03*
X13398630Y-8385000I-39370J0D01*
G01*
X13398630Y-8385000D02*
G75*
G03*
X13477370Y-8385000I39370J0D01*
G01*
X13477370Y-8639000D02*
G75*
G03*
X13398630Y-8639000I-39370J0D01*
G01*
X13398630Y-8639000D02*
G75*
G03*
X13477370Y-8639000I39370J0D01*
G01*
X13820370Y-12176000D02*
G75*
G03*
X13741630Y-12176000I-39370J0D01*
G01*
X13741630Y-12176000D02*
G75*
G03*
X13820370Y-12176000I39370J0D01*
G01*
X13820370Y-12430000D02*
G75*
G03*
X13741630Y-12430000I-39370J0D01*
G01*
X13741630Y-12430000D02*
G75*
G03*
X13820370Y-12430000I39370J0D01*
G01*
X13820370Y-12684000D02*
G75*
G03*
X13741630Y-12684000I-39370J0D01*
G01*
X13741630Y-12684000D02*
G75*
G03*
X13820370Y-12684000I39370J0D01*
G01*
X13820370Y-12938000D02*
G75*
G03*
X13741630Y-12938000I-39370J0D01*
G01*
X13741630Y-12938000D02*
G75*
G03*
X13820370Y-12938000I39370J0D01*
G01*
X13820370Y-13192000D02*
G75*
G03*
X13741630Y-13192000I-39370J0D01*
G01*
X13741630Y-13192000D02*
G75*
G03*
X13820370Y-13192000I39370J0D01*
G01*
X13820370Y-13446000D02*
G75*
G03*
X13741630Y-13446000I-39370J0D01*
G01*
X13741630Y-13446000D02*
G75*
G03*
X13820370Y-13446000I39370J0D01*
G01*
X13820370Y-13700000D02*
G75*
G03*
X13741630Y-13700000I-39370J0D01*
G01*
X13741630Y-13700000D02*
G75*
G03*
X13820370Y-13700000I39370J0D01*
G01*
X13820370Y-13954000D02*
G75*
G03*
X13741630Y-13954000I-39370J0D01*
G01*
X13741630Y-13954000D02*
G75*
G03*
X13820370Y-13954000I39370J0D01*
G01*
X14239370Y-6861000D02*
G75*
G03*
X14160630Y-6861000I-39370J0D01*
G01*
X14160630Y-6861000D02*
G75*
G03*
X14239370Y-6861000I39370J0D01*
G01*
X14239370Y-7115000D02*
G75*
G03*
X14160630Y-7115000I-39370J0D01*
G01*
X14160630Y-7115000D02*
G75*
G03*
X14239370Y-7115000I39370J0D01*
G01*
X14239370Y-7369000D02*
G75*
G03*
X14160630Y-7369000I-39370J0D01*
G01*
X14160630Y-7369000D02*
G75*
G03*
X14239370Y-7369000I39370J0D01*
G01*
X14239370Y-7623000D02*
G75*
G03*
X14160630Y-7623000I-39370J0D01*
G01*
X14160630Y-7623000D02*
G75*
G03*
X14239370Y-7623000I39370J0D01*
G01*
X14239370Y-7877000D02*
G75*
G03*
X14160630Y-7877000I-39370J0D01*
G01*
X14160630Y-7877000D02*
G75*
G03*
X14239370Y-7877000I39370J0D01*
G01*
X14239370Y-8131000D02*
G75*
G03*
X14160630Y-8131000I-39370J0D01*
G01*
X14160630Y-8131000D02*
G75*
G03*
X14239370Y-8131000I39370J0D01*
G01*
X14239370Y-8385000D02*
G75*
G03*
X14160630Y-8385000I-39370J0D01*
G01*
X14160630Y-8385000D02*
G75*
G03*
X14239370Y-8385000I39370J0D01*
G01*
X14239370Y-8639000D02*
G75*
G03*
X14160630Y-8639000I-39370J0D01*
G01*
X14160630Y-8639000D02*
G75*
G03*
X14239370Y-8639000I39370J0D01*
G01*
X14439370Y-11861000D02*
G75*
G03*
X14360630Y-11861000I-39370J0D01*
G01*
X14360630Y-11861000D02*
G75*
G03*
X14439370Y-11861000I39370J0D01*
G01*
X14439370Y-12115000D02*
G75*
G03*
X14360630Y-12115000I-39370J0D01*
G01*
X14360630Y-12115000D02*
G75*
G03*
X14439370Y-12115000I39370J0D01*
G01*
X14439370Y-12369000D02*
G75*
G03*
X14360630Y-12369000I-39370J0D01*
G01*
X14360630Y-12369000D02*
G75*
G03*
X14439370Y-12369000I39370J0D01*
G01*
X14439370Y-12623000D02*
G75*
G03*
X14360630Y-12623000I-39370J0D01*
G01*
X14360630Y-12623000D02*
G75*
G03*
X14439370Y-12623000I39370J0D01*
G01*
X14439370Y-12877000D02*
G75*
G03*
X14360630Y-12877000I-39370J0D01*
G01*
X14360630Y-12877000D02*
G75*
G03*
X14439370Y-12877000I39370J0D01*
G01*
X14439370Y-13131000D02*
G75*
G03*
X14360630Y-13131000I-39370J0D01*
G01*
X14360630Y-13131000D02*
G75*
G03*
X14439370Y-13131000I39370J0D01*
G01*
X14439370Y-13385000D02*
G75*
G03*
X14360630Y-13385000I-39370J0D01*
G01*
X14360630Y-13385000D02*
G75*
G03*
X14439370Y-13385000I39370J0D01*
G01*
X14439370Y-13639000D02*
G75*
G03*
X14360630Y-13639000I-39370J0D01*
G01*
X14360630Y-13639000D02*
G75*
G03*
X14439370Y-13639000I39370J0D01*
G01*
X14758370Y-6242000D02*
G75*
G03*
X14679630Y-6242000I-39370J0D01*
G01*
X14679630Y-6242000D02*
G75*
G03*
X14758370Y-6242000I39370J0D01*
G01*
X14758370Y-6496000D02*
G75*
G03*
X14679630Y-6496000I-39370J0D01*
G01*
X14679630Y-6496000D02*
G75*
G03*
X14758370Y-6496000I39370J0D01*
G01*
X14758370Y-6750000D02*
G75*
G03*
X14679630Y-6750000I-39370J0D01*
G01*
X14679630Y-6750000D02*
G75*
G03*
X14758370Y-6750000I39370J0D01*
G01*
X14758370Y-7004000D02*
G75*
G03*
X14679630Y-7004000I-39370J0D01*
G01*
X14679630Y-7004000D02*
G75*
G03*
X14758370Y-7004000I39370J0D01*
G01*
X14758370Y-7258000D02*
G75*
G03*
X14679630Y-7258000I-39370J0D01*
G01*
X14679630Y-7258000D02*
G75*
G03*
X14758370Y-7258000I39370J0D01*
G01*
X14758370Y-7512000D02*
G75*
G03*
X14679630Y-7512000I-39370J0D01*
G01*
X14679630Y-7512000D02*
G75*
G03*
X14758370Y-7512000I39370J0D01*
G01*
X14758370Y-7766000D02*
G75*
G03*
X14679630Y-7766000I-39370J0D01*
G01*
X14679630Y-7766000D02*
G75*
G03*
X14758370Y-7766000I39370J0D01*
G01*
X14758370Y-8020000D02*
G75*
G03*
X14679630Y-8020000I-39370J0D01*
G01*
X14679630Y-8020000D02*
G75*
G03*
X14758370Y-8020000I39370J0D01*
G01*
X15201370Y-11861000D02*
G75*
G03*
X15122630Y-11861000I-39370J0D01*
G01*
X15122630Y-11861000D02*
G75*
G03*
X15201370Y-11861000I39370J0D01*
G01*
X15201370Y-12115000D02*
G75*
G03*
X15122630Y-12115000I-39370J0D01*
G01*
X15122630Y-12115000D02*
G75*
G03*
X15201370Y-12115000I39370J0D01*
G01*
X15201370Y-12369000D02*
G75*
G03*
X15122630Y-12369000I-39370J0D01*
G01*
X15122630Y-12369000D02*
G75*
G03*
X15201370Y-12369000I39370J0D01*
G01*
X15201370Y-12623000D02*
G75*
G03*
X15122630Y-12623000I-39370J0D01*
G01*
X15122630Y-12623000D02*
G75*
G03*
X15201370Y-12623000I39370J0D01*
G01*
X15201370Y-12877000D02*
G75*
G03*
X15122630Y-12877000I-39370J0D01*
G01*
X15122630Y-12877000D02*
G75*
G03*
X15201370Y-12877000I39370J0D01*
G01*
X15201370Y-13131000D02*
G75*
G03*
X15122630Y-13131000I-39370J0D01*
G01*
X15122630Y-13131000D02*
G75*
G03*
X15201370Y-13131000I39370J0D01*
G01*
X15201370Y-13385000D02*
G75*
G03*
X15122630Y-13385000I-39370J0D01*
G01*
X15122630Y-13385000D02*
G75*
G03*
X15201370Y-13385000I39370J0D01*
G01*
X15201370Y-13639000D02*
G75*
G03*
X15122630Y-13639000I-39370J0D01*
G01*
X15122630Y-13639000D02*
G75*
G03*
X15201370Y-13639000I39370J0D01*
G01*
X15520370Y-6242000D02*
G75*
G03*
X15441630Y-6242000I-39370J0D01*
G01*
X15441630Y-6242000D02*
G75*
G03*
X15520370Y-6242000I39370J0D01*
G01*
X15520370Y-6496000D02*
G75*
G03*
X15441630Y-6496000I-39370J0D01*
G01*
X15441630Y-6496000D02*
G75*
G03*
X15520370Y-6496000I39370J0D01*
G01*
X15520370Y-6750000D02*
G75*
G03*
X15441630Y-6750000I-39370J0D01*
G01*
X15441630Y-6750000D02*
G75*
G03*
X15520370Y-6750000I39370J0D01*
G01*
X15520370Y-7004000D02*
G75*
G03*
X15441630Y-7004000I-39370J0D01*
G01*
X15441630Y-7004000D02*
G75*
G03*
X15520370Y-7004000I39370J0D01*
G01*
X15520370Y-7258000D02*
G75*
G03*
X15441630Y-7258000I-39370J0D01*
G01*
X15441630Y-7258000D02*
G75*
G03*
X15520370Y-7258000I39370J0D01*
G01*
X15520370Y-7512000D02*
G75*
G03*
X15441630Y-7512000I-39370J0D01*
G01*
X15441630Y-7512000D02*
G75*
G03*
X15520370Y-7512000I39370J0D01*
G01*
X15520370Y-7766000D02*
G75*
G03*
X15441630Y-7766000I-39370J0D01*
G01*
X15441630Y-7766000D02*
G75*
G03*
X15520370Y-7766000I39370J0D01*
G01*
X15520370Y-8020000D02*
G75*
G03*
X15441630Y-8020000I-39370J0D01*
G01*
X15441630Y-8020000D02*
G75*
G03*
X15520370Y-8020000I39370J0D01*
G01*
X15739370Y-12200000D02*
G75*
G03*
X15660630Y-12200000I-39370J0D01*
G01*
X15660630Y-12200000D02*
G75*
G03*
X15739370Y-12200000I39370J0D01*
G01*
X15739370Y-12454000D02*
G75*
G03*
X15660630Y-12454000I-39370J0D01*
G01*
X15660630Y-12454000D02*
G75*
G03*
X15739370Y-12454000I39370J0D01*
G01*
X15739370Y-12708000D02*
G75*
G03*
X15660630Y-12708000I-39370J0D01*
G01*
X15660630Y-12708000D02*
G75*
G03*
X15739370Y-12708000I39370J0D01*
G01*
X15739370Y-12962000D02*
G75*
G03*
X15660630Y-12962000I-39370J0D01*
G01*
X15660630Y-12962000D02*
G75*
G03*
X15739370Y-12962000I39370J0D01*
G01*
X15739370Y-13216000D02*
G75*
G03*
X15660630Y-13216000I-39370J0D01*
G01*
X15660630Y-13216000D02*
G75*
G03*
X15739370Y-13216000I39370J0D01*
G01*
X15739370Y-13470000D02*
G75*
G03*
X15660630Y-13470000I-39370J0D01*
G01*
X15660630Y-13470000D02*
G75*
G03*
X15739370Y-13470000I39370J0D01*
G01*
X15739370Y-13724000D02*
G75*
G03*
X15660630Y-13724000I-39370J0D01*
G01*
X15660630Y-13724000D02*
G75*
G03*
X15739370Y-13724000I39370J0D01*
G01*
X15739370Y-13978000D02*
G75*
G03*
X15660630Y-13978000I-39370J0D01*
G01*
X15660630Y-13978000D02*
G75*
G03*
X15739370Y-13978000I39370J0D01*
G01*
X16077370Y-6861000D02*
G75*
G03*
X15998630Y-6861000I-39370J0D01*
G01*
X15998630Y-6861000D02*
G75*
G03*
X16077370Y-6861000I39370J0D01*
G01*
X16077370Y-7115000D02*
G75*
G03*
X15998630Y-7115000I-39370J0D01*
G01*
X15998630Y-7115000D02*
G75*
G03*
X16077370Y-7115000I39370J0D01*
G01*
X16077370Y-7369000D02*
G75*
G03*
X15998630Y-7369000I-39370J0D01*
G01*
X15998630Y-7369000D02*
G75*
G03*
X16077370Y-7369000I39370J0D01*
G01*
X16077370Y-7623000D02*
G75*
G03*
X15998630Y-7623000I-39370J0D01*
G01*
X15998630Y-7623000D02*
G75*
G03*
X16077370Y-7623000I39370J0D01*
G01*
X16077370Y-7877000D02*
G75*
G03*
X15998630Y-7877000I-39370J0D01*
G01*
X15998630Y-7877000D02*
G75*
G03*
X16077370Y-7877000I39370J0D01*
G01*
X16077370Y-8131000D02*
G75*
G03*
X15998630Y-8131000I-39370J0D01*
G01*
X15998630Y-8131000D02*
G75*
G03*
X16077370Y-8131000I39370J0D01*
G01*
X16077370Y-8385000D02*
G75*
G03*
X15998630Y-8385000I-39370J0D01*
G01*
X15998630Y-8385000D02*
G75*
G03*
X16077370Y-8385000I39370J0D01*
G01*
X16077370Y-8639000D02*
G75*
G03*
X15998630Y-8639000I-39370J0D01*
G01*
X15998630Y-8639000D02*
G75*
G03*
X16077370Y-8639000I39370J0D01*
G01*
X16501370Y-12200000D02*
G75*
G03*
X16422630Y-12200000I-39370J0D01*
G01*
X16422630Y-12200000D02*
G75*
G03*
X16501370Y-12200000I39370J0D01*
G01*
X16501370Y-12454000D02*
G75*
G03*
X16422630Y-12454000I-39370J0D01*
G01*
X16422630Y-12454000D02*
G75*
G03*
X16501370Y-12454000I39370J0D01*
G01*
X16501370Y-12708000D02*
G75*
G03*
X16422630Y-12708000I-39370J0D01*
G01*
X16422630Y-12708000D02*
G75*
G03*
X16501370Y-12708000I39370J0D01*
G01*
X16501370Y-12962000D02*
G75*
G03*
X16422630Y-12962000I-39370J0D01*
G01*
X16422630Y-12962000D02*
G75*
G03*
X16501370Y-12962000I39370J0D01*
G01*
X16501370Y-13216000D02*
G75*
G03*
X16422630Y-13216000I-39370J0D01*
G01*
X16422630Y-13216000D02*
G75*
G03*
X16501370Y-13216000I39370J0D01*
G01*
X16501370Y-13470000D02*
G75*
G03*
X16422630Y-13470000I-39370J0D01*
G01*
X16422630Y-13470000D02*
G75*
G03*
X16501370Y-13470000I39370J0D01*
G01*
X16501370Y-13724000D02*
G75*
G03*
X16422630Y-13724000I-39370J0D01*
G01*
X16422630Y-13724000D02*
G75*
G03*
X16501370Y-13724000I39370J0D01*
G01*
X16501370Y-13978000D02*
G75*
G03*
X16422630Y-13978000I-39370J0D01*
G01*
X16422630Y-13978000D02*
G75*
G03*
X16501370Y-13978000I39370J0D01*
G01*
X16839370Y-6861000D02*
G75*
G03*
X16760630Y-6861000I-39370J0D01*
G01*
X16760630Y-6861000D02*
G75*
G03*
X16839370Y-6861000I39370J0D01*
G01*
X16839370Y-7115000D02*
G75*
G03*
X16760630Y-7115000I-39370J0D01*
G01*
X16760630Y-7115000D02*
G75*
G03*
X16839370Y-7115000I39370J0D01*
G01*
X16839370Y-7369000D02*
G75*
G03*
X16760630Y-7369000I-39370J0D01*
G01*
X16760630Y-7369000D02*
G75*
G03*
X16839370Y-7369000I39370J0D01*
G01*
X16839370Y-7623000D02*
G75*
G03*
X16760630Y-7623000I-39370J0D01*
G01*
X16760630Y-7623000D02*
G75*
G03*
X16839370Y-7623000I39370J0D01*
G01*
X16839370Y-7877000D02*
G75*
G03*
X16760630Y-7877000I-39370J0D01*
G01*
X16760630Y-7877000D02*
G75*
G03*
X16839370Y-7877000I39370J0D01*
G01*
X16839370Y-8131000D02*
G75*
G03*
X16760630Y-8131000I-39370J0D01*
G01*
X16760630Y-8131000D02*
G75*
G03*
X16839370Y-8131000I39370J0D01*
G01*
X16839370Y-8385000D02*
G75*
G03*
X16760630Y-8385000I-39370J0D01*
G01*
X16760630Y-8385000D02*
G75*
G03*
X16839370Y-8385000I39370J0D01*
G01*
X16839370Y-8639000D02*
G75*
G03*
X16760630Y-8639000I-39370J0D01*
G01*
X16760630Y-8639000D02*
G75*
G03*
X16839370Y-8639000I39370J0D01*
G01*
X17139370Y-11846000D02*
G75*
G03*
X17060630Y-11846000I-39370J0D01*
G01*
X17060630Y-11846000D02*
G75*
G03*
X17139370Y-11846000I39370J0D01*
G01*
X17139370Y-12100000D02*
G75*
G03*
X17060630Y-12100000I-39370J0D01*
G01*
X17060630Y-12100000D02*
G75*
G03*
X17139370Y-12100000I39370J0D01*
G01*
X17139370Y-12354000D02*
G75*
G03*
X17060630Y-12354000I-39370J0D01*
G01*
X17060630Y-12354000D02*
G75*
G03*
X17139370Y-12354000I39370J0D01*
G01*
X17139370Y-12608000D02*
G75*
G03*
X17060630Y-12608000I-39370J0D01*
G01*
X17060630Y-12608000D02*
G75*
G03*
X17139370Y-12608000I39370J0D01*
G01*
X17139370Y-12862000D02*
G75*
G03*
X17060630Y-12862000I-39370J0D01*
G01*
X17060630Y-12862000D02*
G75*
G03*
X17139370Y-12862000I39370J0D01*
G01*
X17139370Y-13116000D02*
G75*
G03*
X17060630Y-13116000I-39370J0D01*
G01*
X17060630Y-13116000D02*
G75*
G03*
X17139370Y-13116000I39370J0D01*
G01*
X17139370Y-13370000D02*
G75*
G03*
X17060630Y-13370000I-39370J0D01*
G01*
X17060630Y-13370000D02*
G75*
G03*
X17139370Y-13370000I39370J0D01*
G01*
X17139370Y-13624000D02*
G75*
G03*
X17060630Y-13624000I-39370J0D01*
G01*
X17060630Y-13624000D02*
G75*
G03*
X17139370Y-13624000I39370J0D01*
G01*
X17901370Y-11846000D02*
G75*
G03*
X17822630Y-11846000I-39370J0D01*
G01*
X17822630Y-11846000D02*
G75*
G03*
X17901370Y-11846000I39370J0D01*
G01*
X17901370Y-12100000D02*
G75*
G03*
X17822630Y-12100000I-39370J0D01*
G01*
X17822630Y-12100000D02*
G75*
G03*
X17901370Y-12100000I39370J0D01*
G01*
X17901370Y-12354000D02*
G75*
G03*
X17822630Y-12354000I-39370J0D01*
G01*
X17822630Y-12354000D02*
G75*
G03*
X17901370Y-12354000I39370J0D01*
G01*
X17901370Y-12608000D02*
G75*
G03*
X17822630Y-12608000I-39370J0D01*
G01*
X17822630Y-12608000D02*
G75*
G03*
X17901370Y-12608000I39370J0D01*
G01*
X17901370Y-12862000D02*
G75*
G03*
X17822630Y-12862000I-39370J0D01*
G01*
X17822630Y-12862000D02*
G75*
G03*
X17901370Y-12862000I39370J0D01*
G01*
X17901370Y-13116000D02*
G75*
G03*
X17822630Y-13116000I-39370J0D01*
G01*
X17822630Y-13116000D02*
G75*
G03*
X17901370Y-13116000I39370J0D01*
G01*
X17901370Y-13370000D02*
G75*
G03*
X17822630Y-13370000I-39370J0D01*
G01*
X17822630Y-13370000D02*
G75*
G03*
X17901370Y-13370000I39370J0D01*
G01*
X17901370Y-13624000D02*
G75*
G03*
X17822630Y-13624000I-39370J0D01*
G01*
X17822630Y-13624000D02*
G75*
G03*
X17901370Y-13624000I39370J0D01*
G01*
X11000000Y-10792000D02*
X11000000Y-10892000D01*
X10950000Y-10842000D02*
X11050000Y-10842000D01*
X11000000Y-11046000D02*
X11000000Y-11146000D01*
X10950000Y-11096000D02*
X11050000Y-11096000D01*
X11000000Y-11300000D02*
X11000000Y-11400000D01*
X10950000Y-11350000D02*
X11050000Y-11350000D01*
X11000000Y-12150000D02*
X11000000Y-12250000D01*
X10950000Y-12200000D02*
X11050000Y-12200000D01*
X11000000Y-12546290D02*
X11000000Y-12646290D01*
X10950000Y-12596290D02*
X11050000Y-12596290D01*
X11000000Y-12946290D02*
X11000000Y-13046290D01*
X10950000Y-12996290D02*
X11050000Y-12996290D01*
X11254000Y-12150000D02*
X11254000Y-12250000D01*
X11204000Y-12200000D02*
X11304000Y-12200000D01*
X11254000Y-12546290D02*
X11254000Y-12646290D01*
X11204000Y-12596290D02*
X11304000Y-12596290D01*
X11254000Y-12946290D02*
X11254000Y-13046290D01*
X11204000Y-12996290D02*
X11304000Y-12996290D01*
X11546000Y-14350000D02*
X11546000Y-14450000D01*
X11496000Y-14400000D02*
X11596000Y-14400000D01*
X11546000Y-14604000D02*
X11546000Y-14704000D01*
X11496000Y-14654000D02*
X11596000Y-14654000D01*
X11558000Y-5270000D02*
X11558000Y-5370000D01*
X11508000Y-5320000D02*
X11608000Y-5320000D01*
X11558000Y-5524000D02*
X11558000Y-5624000D01*
X11508000Y-5574000D02*
X11608000Y-5574000D01*
X11800000Y-14350000D02*
X11800000Y-14450000D01*
X11750000Y-14400000D02*
X11850000Y-14400000D01*
X11800000Y-14604000D02*
X11800000Y-14704000D01*
X11750000Y-14654000D02*
X11850000Y-14654000D01*
X11812000Y-5270000D02*
X11812000Y-5370000D01*
X11762000Y-5320000D02*
X11862000Y-5320000D01*
X11812000Y-5524000D02*
X11812000Y-5624000D01*
X11762000Y-5574000D02*
X11862000Y-5574000D01*
X12054000Y-14350000D02*
X12054000Y-14450000D01*
X12004000Y-14400000D02*
X12104000Y-14400000D01*
X12054000Y-14604000D02*
X12054000Y-14704000D01*
X12004000Y-14654000D02*
X12104000Y-14654000D01*
X12066000Y-5270000D02*
X12066000Y-5370000D01*
X12016000Y-5320000D02*
X12116000Y-5320000D01*
X12066000Y-5524000D02*
X12066000Y-5624000D01*
X12016000Y-5574000D02*
X12116000Y-5574000D01*
X12308000Y-14350000D02*
X12308000Y-14450000D01*
X12258000Y-14400000D02*
X12358000Y-14400000D01*
X12308000Y-14604000D02*
X12308000Y-14704000D01*
X12258000Y-14654000D02*
X12358000Y-14654000D01*
X12320000Y-5270000D02*
X12320000Y-5370000D01*
X12270000Y-5320000D02*
X12370000Y-5320000D01*
X12320000Y-5524000D02*
X12320000Y-5624000D01*
X12270000Y-5574000D02*
X12370000Y-5574000D01*
X12562000Y-14350000D02*
X12562000Y-14450000D01*
X12512000Y-14400000D02*
X12612000Y-14400000D01*
X12562000Y-14604000D02*
X12562000Y-14704000D01*
X12512000Y-14654000D02*
X12612000Y-14654000D01*
X12574000Y-5270000D02*
X12574000Y-5370000D01*
X12524000Y-5320000D02*
X12624000Y-5320000D01*
X12574000Y-5524000D02*
X12574000Y-5624000D01*
X12524000Y-5574000D02*
X12624000Y-5574000D01*
X12816000Y-14350000D02*
X12816000Y-14450000D01*
X12766000Y-14400000D02*
X12866000Y-14400000D01*
X12816000Y-14604000D02*
X12816000Y-14704000D01*
X12766000Y-14654000D02*
X12866000Y-14654000D01*
X12828000Y-5270000D02*
X12828000Y-5370000D01*
X12778000Y-5320000D02*
X12878000Y-5320000D01*
X12828000Y-5524000D02*
X12828000Y-5624000D01*
X12778000Y-5574000D02*
X12878000Y-5574000D01*
X13070000Y-14350000D02*
X13070000Y-14450000D01*
X13020000Y-14400000D02*
X13120000Y-14400000D01*
X13070000Y-14604000D02*
X13070000Y-14704000D01*
X13020000Y-14654000D02*
X13120000Y-14654000D01*
X13082000Y-5270000D02*
X13082000Y-5370000D01*
X13032000Y-5320000D02*
X13132000Y-5320000D01*
X13082000Y-5524000D02*
X13082000Y-5624000D01*
X13032000Y-5574000D02*
X13132000Y-5574000D01*
X13324000Y-14350000D02*
X13324000Y-14450000D01*
X13274000Y-14400000D02*
X13374000Y-14400000D01*
X13324000Y-14604000D02*
X13324000Y-14704000D01*
X13274000Y-14654000D02*
X13374000Y-14654000D01*
X13336000Y-5270000D02*
X13336000Y-5370000D01*
X13286000Y-5320000D02*
X13386000Y-5320000D01*
X13336000Y-5524000D02*
X13336000Y-5624000D01*
X13286000Y-5574000D02*
X13386000Y-5574000D01*
X13578000Y-14350000D02*
X13578000Y-14450000D01*
X13528000Y-14400000D02*
X13628000Y-14400000D01*
X13578000Y-14604000D02*
X13578000Y-14704000D01*
X13528000Y-14654000D02*
X13628000Y-14654000D01*
X13590000Y-5270000D02*
X13590000Y-5370000D01*
X13540000Y-5320000D02*
X13640000Y-5320000D01*
X13590000Y-5524000D02*
X13590000Y-5624000D01*
X13540000Y-5574000D02*
X13640000Y-5574000D01*
X13832000Y-14350000D02*
X13832000Y-14450000D01*
X13782000Y-14400000D02*
X13882000Y-14400000D01*
X13832000Y-14604000D02*
X13832000Y-14704000D01*
X13782000Y-14654000D02*
X13882000Y-14654000D01*
X13844000Y-5270000D02*
X13844000Y-5370000D01*
X13794000Y-5320000D02*
X13894000Y-5320000D01*
X13844000Y-5524000D02*
X13844000Y-5624000D01*
X13794000Y-5574000D02*
X13894000Y-5574000D01*
X14086000Y-14350000D02*
X14086000Y-14450000D01*
X14036000Y-14400000D02*
X14136000Y-14400000D01*
X14086000Y-14604000D02*
X14086000Y-14704000D01*
X14036000Y-14654000D02*
X14136000Y-14654000D01*
X14098000Y-5270000D02*
X14098000Y-5370000D01*
X14048000Y-5320000D02*
X14148000Y-5320000D01*
X14098000Y-5524000D02*
X14098000Y-5624000D01*
X14048000Y-5574000D02*
X14148000Y-5574000D01*
X14340000Y-14350000D02*
X14340000Y-14450000D01*
X14290000Y-14400000D02*
X14390000Y-14400000D01*
X14340000Y-14604000D02*
X14340000Y-14704000D01*
X14290000Y-14654000D02*
X14390000Y-14654000D01*
X14352000Y-5270000D02*
X14352000Y-5370000D01*
X14302000Y-5320000D02*
X14402000Y-5320000D01*
X14352000Y-5524000D02*
X14352000Y-5624000D01*
X14302000Y-5574000D02*
X14402000Y-5574000D01*
X14594000Y-14350000D02*
X14594000Y-14450000D01*
X14544000Y-14400000D02*
X14644000Y-14400000D01*
X14594000Y-14604000D02*
X14594000Y-14704000D01*
X14544000Y-14654000D02*
X14644000Y-14654000D01*
X14606000Y-5270000D02*
X14606000Y-5370000D01*
X14556000Y-5320000D02*
X14656000Y-5320000D01*
X14606000Y-5524000D02*
X14606000Y-5624000D01*
X14556000Y-5574000D02*
X14656000Y-5574000D01*
X14848000Y-14350000D02*
X14848000Y-14450000D01*
X14798000Y-14400000D02*
X14898000Y-14400000D01*
X14848000Y-14604000D02*
X14848000Y-14704000D01*
X14798000Y-14654000D02*
X14898000Y-14654000D01*
X14860000Y-5270000D02*
X14860000Y-5370000D01*
X14810000Y-5320000D02*
X14910000Y-5320000D01*
X14860000Y-5524000D02*
X14860000Y-5624000D01*
X14810000Y-5574000D02*
X14910000Y-5574000D01*
X15102000Y-14350000D02*
X15102000Y-14450000D01*
X15052000Y-14400000D02*
X15152000Y-14400000D01*
X15102000Y-14604000D02*
X15102000Y-14704000D01*
X15052000Y-14654000D02*
X15152000Y-14654000D01*
X15114000Y-5270000D02*
X15114000Y-5370000D01*
X15064000Y-5320000D02*
X15164000Y-5320000D01*
X15114000Y-5524000D02*
X15114000Y-5624000D01*
X15064000Y-5574000D02*
X15164000Y-5574000D01*
X15356000Y-14350000D02*
X15356000Y-14450000D01*
X15306000Y-14400000D02*
X15406000Y-14400000D01*
X15356000Y-14604000D02*
X15356000Y-14704000D01*
X15306000Y-14654000D02*
X15406000Y-14654000D01*
X15368000Y-5270000D02*
X15368000Y-5370000D01*
X15318000Y-5320000D02*
X15418000Y-5320000D01*
X15368000Y-5524000D02*
X15368000Y-5624000D01*
X15318000Y-5574000D02*
X15418000Y-5574000D01*
X15610000Y-14350000D02*
X15610000Y-14450000D01*
X15560000Y-14400000D02*
X15660000Y-14400000D01*
X15610000Y-14604000D02*
X15610000Y-14704000D01*
X15560000Y-14654000D02*
X15660000Y-14654000D01*
X15622000Y-5270000D02*
X15622000Y-5370000D01*
X15572000Y-5320000D02*
X15672000Y-5320000D01*
X15622000Y-5524000D02*
X15622000Y-5624000D01*
X15572000Y-5574000D02*
X15672000Y-5574000D01*
X15864000Y-14350000D02*
X15864000Y-14450000D01*
X15814000Y-14400000D02*
X15914000Y-14400000D01*
X15864000Y-14604000D02*
X15864000Y-14704000D01*
X15814000Y-14654000D02*
X15914000Y-14654000D01*
X15876000Y-5270000D02*
X15876000Y-5370000D01*
X15826000Y-5320000D02*
X15926000Y-5320000D01*
X15876000Y-5524000D02*
X15876000Y-5624000D01*
X15826000Y-5574000D02*
X15926000Y-5574000D01*
X16118000Y-14350000D02*
X16118000Y-14450000D01*
X16068000Y-14400000D02*
X16168000Y-14400000D01*
X16118000Y-14604000D02*
X16118000Y-14704000D01*
X16068000Y-14654000D02*
X16168000Y-14654000D01*
X16130000Y-5270000D02*
X16130000Y-5370000D01*
X16080000Y-5320000D02*
X16180000Y-5320000D01*
X16130000Y-5524000D02*
X16130000Y-5624000D01*
X16080000Y-5574000D02*
X16180000Y-5574000D01*
X16372000Y-14350000D02*
X16372000Y-14450000D01*
X16322000Y-14400000D02*
X16422000Y-14400000D01*
X16372000Y-14604000D02*
X16372000Y-14704000D01*
X16322000Y-14654000D02*
X16422000Y-14654000D01*
X16384000Y-5270000D02*
X16384000Y-5370000D01*
X16334000Y-5320000D02*
X16434000Y-5320000D01*
X16384000Y-5524000D02*
X16384000Y-5624000D01*
X16334000Y-5574000D02*
X16434000Y-5574000D01*
X16626000Y-14350000D02*
X16626000Y-14450000D01*
X16576000Y-14400000D02*
X16676000Y-14400000D01*
X16626000Y-14604000D02*
X16626000Y-14704000D01*
X16576000Y-14654000D02*
X16676000Y-14654000D01*
X16638000Y-5270000D02*
X16638000Y-5370000D01*
X16588000Y-5320000D02*
X16688000Y-5320000D01*
X16638000Y-5524000D02*
X16638000Y-5624000D01*
X16588000Y-5574000D02*
X16688000Y-5574000D01*
X16880000Y-14350000D02*
X16880000Y-14450000D01*
X16830000Y-14400000D02*
X16930000Y-14400000D01*
X16880000Y-14604000D02*
X16880000Y-14704000D01*
X16830000Y-14654000D02*
X16930000Y-14654000D01*
X16892000Y-5270000D02*
X16892000Y-5370000D01*
X16842000Y-5320000D02*
X16942000Y-5320000D01*
X16892000Y-5524000D02*
X16892000Y-5624000D01*
X16842000Y-5574000D02*
X16942000Y-5574000D01*
X17134000Y-14350000D02*
X17134000Y-14450000D01*
X17084000Y-14400000D02*
X17184000Y-14400000D01*
X17134000Y-14604000D02*
X17134000Y-14704000D01*
X17084000Y-14654000D02*
X17184000Y-14654000D01*
X17146000Y-5270000D02*
X17146000Y-5370000D01*
X17096000Y-5320000D02*
X17196000Y-5320000D01*
X17146000Y-5524000D02*
X17146000Y-5624000D01*
X17096000Y-5574000D02*
X17196000Y-5574000D01*
X17346000Y-6053710D02*
X17346000Y-6153710D01*
X17296000Y-6103710D02*
X17396000Y-6103710D01*
X17346000Y-6450000D02*
X17346000Y-6550000D01*
X17296000Y-6500000D02*
X17396000Y-6500000D01*
X17346000Y-7530000D02*
X17346000Y-7630000D01*
X17296000Y-7580000D02*
X17396000Y-7580000D01*
X17346000Y-7890000D02*
X17346000Y-7990000D01*
X17296000Y-7940000D02*
X17396000Y-7940000D01*
X17346000Y-8250000D02*
X17346000Y-8350000D01*
X17296000Y-8300000D02*
X17396000Y-8300000D01*
X17347930Y-6843710D02*
X17347930Y-6943710D01*
X17297930Y-6893710D02*
X17397930Y-6893710D01*
X17388000Y-14350000D02*
X17388000Y-14450000D01*
X17338000Y-14400000D02*
X17438000Y-14400000D01*
X17388000Y-14604000D02*
X17388000Y-14704000D01*
X17338000Y-14654000D02*
X17438000Y-14654000D01*
X17400000Y-5270000D02*
X17400000Y-5370000D01*
X17350000Y-5320000D02*
X17450000Y-5320000D01*
X17400000Y-5524000D02*
X17400000Y-5624000D01*
X17350000Y-5574000D02*
X17450000Y-5574000D01*
X17600000Y-6053710D02*
X17600000Y-6153710D01*
X17550000Y-6103710D02*
X17650000Y-6103710D01*
X17600000Y-6450000D02*
X17600000Y-6550000D01*
X17550000Y-6500000D02*
X17650000Y-6500000D01*
X17600000Y-7530000D02*
X17600000Y-7630000D01*
X17550000Y-7580000D02*
X17650000Y-7580000D01*
X17600000Y-7890000D02*
X17600000Y-7990000D01*
X17550000Y-7940000D02*
X17650000Y-7940000D01*
X17600000Y-8250000D02*
X17600000Y-8350000D01*
X17550000Y-8300000D02*
X17650000Y-8300000D01*
X17601930Y-6843710D02*
X17601930Y-6943710D01*
X17551930Y-6893710D02*
X17651930Y-6893710D01*
D13*
X12026001Y-9511921D02*
X12026001Y-9440079D01*
X11954159Y-9440079D01*
X11954159Y-9511921D01*
X12026001Y-9511921D01*
X12026001Y-11035921D02*
X12026001Y-10964079D01*
X11954159Y-10964079D01*
X11954159Y-11035921D01*
X12026001Y-11035921D01*
X12280001Y-9511921D02*
X12280001Y-9440079D01*
X12208159Y-9440079D01*
X12208159Y-9511921D01*
X12280001Y-9511921D01*
X12280001Y-11035921D02*
X12280001Y-10964079D01*
X12208159Y-10964079D01*
X12208159Y-11035921D01*
X12280001Y-11035921D01*
X12534001Y-9511921D02*
X12534001Y-9440079D01*
X12462159Y-9440079D01*
X12462159Y-9511921D01*
X12534001Y-9511921D01*
X12534001Y-11035921D02*
X12534001Y-10964079D01*
X12462159Y-10964079D01*
X12462159Y-11035921D01*
X12534001Y-11035921D01*
X12788001Y-9511921D02*
X12788001Y-9440079D01*
X12716159Y-9440079D01*
X12716159Y-9511921D01*
X12788001Y-9511921D01*
X12788001Y-11035921D02*
X12788001Y-10964079D01*
X12716159Y-10964079D01*
X12716159Y-11035921D01*
X12788001Y-11035921D01*
X13042001Y-9511921D02*
X13042001Y-9440079D01*
X12970159Y-9440079D01*
X12970159Y-9511921D01*
X13042001Y-9511921D01*
X13042001Y-11035921D02*
X13042001Y-10964079D01*
X12970159Y-10964079D01*
X12970159Y-11035921D01*
X13042001Y-11035921D01*
X13296001Y-9511921D02*
X13296001Y-9440079D01*
X13224159Y-9440079D01*
X13224159Y-9511921D01*
X13296001Y-9511921D01*
X13296001Y-11035921D02*
X13296001Y-10964079D01*
X13224159Y-10964079D01*
X13224159Y-11035921D01*
X13296001Y-11035921D01*
X13550001Y-9511921D02*
X13550001Y-9440079D01*
X13478159Y-9440079D01*
X13478159Y-9511921D01*
X13550001Y-9511921D01*
X13550001Y-11035921D02*
X13550001Y-10964079D01*
X13478159Y-10964079D01*
X13478159Y-11035921D01*
X13550001Y-11035921D01*
X13804001Y-9511921D02*
X13804001Y-9440079D01*
X13732159Y-9440079D01*
X13732159Y-9511921D01*
X13804001Y-9511921D01*
X13804001Y-11035921D02*
X13804001Y-10964079D01*
X13732159Y-10964079D01*
X13732159Y-11035921D01*
X13804001Y-11035921D01*
X14058001Y-9511921D02*
X14058001Y-9440079D01*
X13986159Y-9440079D01*
X13986159Y-9511921D01*
X14058001Y-9511921D01*
X14058001Y-11035921D02*
X14058001Y-10964079D01*
X13986159Y-10964079D01*
X13986159Y-11035921D01*
X14058001Y-11035921D01*
X14312001Y-9511921D02*
X14312001Y-9440079D01*
X14240159Y-9440079D01*
X14240159Y-9511921D01*
X14312001Y-9511921D01*
X14312001Y-11035921D02*
X14312001Y-10964079D01*
X14240159Y-10964079D01*
X14240159Y-11035921D01*
X14312001Y-11035921D01*
X14566001Y-9511921D02*
X14566001Y-9440079D01*
X14494159Y-9440079D01*
X14494159Y-9511921D01*
X14566001Y-9511921D01*
X14566001Y-11035921D02*
X14566001Y-10964079D01*
X14494159Y-10964079D01*
X14494159Y-11035921D01*
X14566001Y-11035921D01*
X14820001Y-9511921D02*
X14820001Y-9440079D01*
X14748159Y-9440079D01*
X14748159Y-9511921D01*
X14820001Y-9511921D01*
X14820001Y-11035921D02*
X14820001Y-10964079D01*
X14748159Y-10964079D01*
X14748159Y-11035921D01*
X14820001Y-11035921D01*
X15074001Y-9511921D02*
X15074001Y-9440079D01*
X15002159Y-9440079D01*
X15002159Y-9511921D01*
X15074001Y-9511921D01*
X15074001Y-11035921D02*
X15074001Y-10964079D01*
X15002159Y-10964079D01*
X15002159Y-11035921D01*
X15074001Y-11035921D01*
X15328001Y-9511921D02*
X15328001Y-9440079D01*
X15256159Y-9440079D01*
X15256159Y-9511921D01*
X15328001Y-9511921D01*
X15328001Y-11035921D02*
X15328001Y-10964079D01*
X15256159Y-10964079D01*
X15256159Y-11035921D01*
X15328001Y-11035921D01*
X15582001Y-9511921D02*
X15582001Y-9440079D01*
X15510159Y-9440079D01*
X15510159Y-9511921D01*
X15582001Y-9511921D01*
X15582001Y-11035921D02*
X15582001Y-10964079D01*
X15510159Y-10964079D01*
X15510159Y-11035921D01*
X15582001Y-11035921D01*
X15836001Y-9511921D02*
X15836001Y-9440079D01*
X15764159Y-9440079D01*
X15764159Y-9511921D01*
X15836001Y-9511921D01*
X15836001Y-11035921D02*
X15836001Y-10964079D01*
X15764159Y-10964079D01*
X15764159Y-11035921D01*
X15836001Y-11035921D01*
X16090001Y-9511921D02*
X16090001Y-9440079D01*
X16018159Y-9440079D01*
X16018159Y-9511921D01*
X16090001Y-9511921D01*
X16090001Y-11035921D02*
X16090001Y-10964079D01*
X16018159Y-10964079D01*
X16018159Y-11035921D01*
X16090001Y-11035921D01*
X16344001Y-9511921D02*
X16344001Y-9440079D01*
X16272159Y-9440079D01*
X16272159Y-9511921D01*
X16344001Y-9511921D01*
X16344001Y-11035921D02*
X16344001Y-10964079D01*
X16272159Y-10964079D01*
X16272159Y-11035921D01*
X16344001Y-11035921D01*
X16471001Y-10147921D02*
X16471001Y-10076079D01*
X16399159Y-10076079D01*
X16399159Y-10147921D01*
X16471001Y-10147921D01*
X16471001Y-10401921D02*
X16471001Y-10330079D01*
X16399159Y-10330079D01*
X16399159Y-10401921D01*
X16471001Y-10401921D01*
X16598001Y-9511921D02*
X16598001Y-9440079D01*
X16526159Y-9440079D01*
X16526159Y-9511921D01*
X16598001Y-9511921D01*
X16598001Y-11035921D02*
X16598001Y-10964079D01*
X16526159Y-10964079D01*
X16526159Y-11035921D01*
X16598001Y-11035921D01*
X16852001Y-9511921D02*
X16852001Y-9440079D01*
X16780159Y-9440079D01*
X16780159Y-9511921D01*
X16852001Y-9511921D01*
X16857081Y-11035921D02*
X16857081Y-10964079D01*
X16785239Y-10964079D01*
X16785239Y-11035921D01*
X16857081Y-11035921D01*
D14*
X10508000Y-5686000D02*
X10559000Y-5635000D01*
X10508000Y-5584000D01*
X10457000Y-5635000D01*
X10508000Y-5686000D01*
X10508000Y-5940000D02*
X10559000Y-5889000D01*
X10508000Y-5838000D01*
X10457000Y-5889000D01*
X10508000Y-5940000D01*
X10508000Y-6194000D02*
X10559000Y-6143000D01*
X10508000Y-6092000D01*
X10457000Y-6143000D01*
X10508000Y-6194000D01*
X10508000Y-6448000D02*
X10559000Y-6397000D01*
X10508000Y-6346000D01*
X10457000Y-6397000D01*
X10508000Y-6448000D01*
X10508000Y-6702000D02*
X10559000Y-6651000D01*
X10508000Y-6600000D01*
X10457000Y-6651000D01*
X10508000Y-6702000D01*
X10508000Y-6956000D02*
X10559000Y-6905000D01*
X10508000Y-6854000D01*
X10457000Y-6905000D01*
X10508000Y-6956000D01*
X10508000Y-7210000D02*
X10559000Y-7159000D01*
X10508000Y-7108000D01*
X10457000Y-7159000D01*
X10508000Y-7210000D01*
X10508000Y-7464000D02*
X10559000Y-7413000D01*
X10508000Y-7362000D01*
X10457000Y-7413000D01*
X10508000Y-7464000D01*
X10508000Y-8099000D02*
X10559000Y-8048000D01*
X10508000Y-7997000D01*
X10457000Y-8048000D01*
X10508000Y-8099000D01*
X10508000Y-8353000D02*
X10559000Y-8302000D01*
X10508000Y-8251000D01*
X10457000Y-8302000D01*
X10508000Y-8353000D01*
X10508000Y-8607000D02*
X10559000Y-8556000D01*
X10508000Y-8505000D01*
X10457000Y-8556000D01*
X10508000Y-8607000D01*
X10508000Y-8861000D02*
X10559000Y-8810000D01*
X10508000Y-8759000D01*
X10457000Y-8810000D01*
X10508000Y-8861000D01*
X10508000Y-9115000D02*
X10559000Y-9064000D01*
X10508000Y-9013000D01*
X10457000Y-9064000D01*
X10508000Y-9115000D01*
X10508000Y-9369000D02*
X10559000Y-9318000D01*
X10508000Y-9267000D01*
X10457000Y-9318000D01*
X10508000Y-9369000D01*
X10508000Y-9623000D02*
X10559000Y-9572000D01*
X10508000Y-9521000D01*
X10457000Y-9572000D01*
X10508000Y-9623000D01*
X10508000Y-9877000D02*
X10559000Y-9826000D01*
X10508000Y-9775000D01*
X10457000Y-9826000D01*
X10508000Y-9877000D01*
X10508000Y-10131000D02*
X10559000Y-10080000D01*
X10508000Y-10029000D01*
X10457000Y-10080000D01*
X10508000Y-10131000D01*
X10508000Y-10385000D02*
X10559000Y-10334000D01*
X10508000Y-10283000D01*
X10457000Y-10334000D01*
X10508000Y-10385000D01*
X10508000Y-10639000D02*
X10559000Y-10588000D01*
X10508000Y-10537000D01*
X10457000Y-10588000D01*
X10508000Y-10639000D01*
X10508000Y-10893000D02*
X10559000Y-10842000D01*
X10508000Y-10791000D01*
X10457000Y-10842000D01*
X10508000Y-10893000D01*
X10508000Y-11147000D02*
X10559000Y-11096000D01*
X10508000Y-11045000D01*
X10457000Y-11096000D01*
X10508000Y-11147000D01*
X10508000Y-11401000D02*
X10559000Y-11350000D01*
X10508000Y-11299000D01*
X10457000Y-11350000D01*
X10508000Y-11401000D01*
X10508000Y-11655000D02*
X10559000Y-11604000D01*
X10508000Y-11553000D01*
X10457000Y-11604000D01*
X10508000Y-11655000D01*
X10508000Y-11909000D02*
X10559000Y-11858000D01*
X10508000Y-11807000D01*
X10457000Y-11858000D01*
X10508000Y-11909000D01*
X10508000Y-12163000D02*
X10559000Y-12112000D01*
X10508000Y-12061000D01*
X10457000Y-12112000D01*
X10508000Y-12163000D01*
X10508000Y-12417000D02*
X10559000Y-12366000D01*
X10508000Y-12315000D01*
X10457000Y-12366000D01*
X10508000Y-12417000D01*
X10508000Y-12671000D02*
X10559000Y-12620000D01*
X10508000Y-12569000D01*
X10457000Y-12620000D01*
X10508000Y-12671000D01*
X10508000Y-12925000D02*
X10559000Y-12874000D01*
X10508000Y-12823000D01*
X10457000Y-12874000D01*
X10508000Y-12925000D01*
X10508000Y-13179000D02*
X10559000Y-13128000D01*
X10508000Y-13077000D01*
X10457000Y-13128000D01*
X10508000Y-13179000D01*
X10508000Y-13433000D02*
X10559000Y-13382000D01*
X10508000Y-13331000D01*
X10457000Y-13382000D01*
X10508000Y-13433000D01*
X10508000Y-13687000D02*
X10559000Y-13636000D01*
X10508000Y-13585000D01*
X10457000Y-13636000D01*
X10508000Y-13687000D01*
X10508000Y-13941000D02*
X10559000Y-13890000D01*
X10508000Y-13839000D01*
X10457000Y-13890000D01*
X10508000Y-13941000D01*
X10508000Y-14195000D02*
X10559000Y-14144000D01*
X10508000Y-14093000D01*
X10457000Y-14144000D01*
X10508000Y-14195000D01*
X10508000Y-14449000D02*
X10559000Y-14398000D01*
X10508000Y-14347000D01*
X10457000Y-14398000D01*
X10508000Y-14449000D01*
X10508000Y-14703000D02*
X10559000Y-14652000D01*
X10508000Y-14601000D01*
X10457000Y-14652000D01*
X10508000Y-14703000D01*
X18382000Y-5686000D02*
X18433000Y-5635000D01*
X18382000Y-5584000D01*
X18331000Y-5635000D01*
X18382000Y-5686000D01*
X18382000Y-5940000D02*
X18433000Y-5889000D01*
X18382000Y-5838000D01*
X18331000Y-5889000D01*
X18382000Y-5940000D01*
X18382000Y-6194000D02*
X18433000Y-6143000D01*
X18382000Y-6092000D01*
X18331000Y-6143000D01*
X18382000Y-6194000D01*
X18382000Y-6448000D02*
X18433000Y-6397000D01*
X18382000Y-6346000D01*
X18331000Y-6397000D01*
X18382000Y-6448000D01*
X18382000Y-6702000D02*
X18433000Y-6651000D01*
X18382000Y-6600000D01*
X18331000Y-6651000D01*
X18382000Y-6702000D01*
X18382000Y-6956000D02*
X18433000Y-6905000D01*
X18382000Y-6854000D01*
X18331000Y-6905000D01*
X18382000Y-6956000D01*
X18382000Y-7210000D02*
X18433000Y-7159000D01*
X18382000Y-7108000D01*
X18331000Y-7159000D01*
X18382000Y-7210000D01*
X18382000Y-7464000D02*
X18433000Y-7413000D01*
X18382000Y-7362000D01*
X18331000Y-7413000D01*
X18382000Y-7464000D01*
X18382000Y-7718000D02*
X18433000Y-7667000D01*
X18382000Y-7616000D01*
X18331000Y-7667000D01*
X18382000Y-7718000D01*
X18382000Y-7972000D02*
X18433000Y-7921000D01*
X18382000Y-7870000D01*
X18331000Y-7921000D01*
X18382000Y-7972000D01*
X18382000Y-8226000D02*
X18433000Y-8175000D01*
X18382000Y-8124000D01*
X18331000Y-8175000D01*
X18382000Y-8226000D01*
X18382000Y-8480000D02*
X18433000Y-8429000D01*
X18382000Y-8378000D01*
X18331000Y-8429000D01*
X18382000Y-8480000D01*
X18382000Y-8734000D02*
X18433000Y-8683000D01*
X18382000Y-8632000D01*
X18331000Y-8683000D01*
X18382000Y-8734000D01*
X18382000Y-8988000D02*
X18433000Y-8937000D01*
X18382000Y-8886000D01*
X18331000Y-8937000D01*
X18382000Y-8988000D01*
X18382000Y-9242000D02*
X18433000Y-9191000D01*
X18382000Y-9140000D01*
X18331000Y-9191000D01*
X18382000Y-9242000D01*
X18382000Y-9496000D02*
X18433000Y-9445000D01*
X18382000Y-9394000D01*
X18331000Y-9445000D01*
X18382000Y-9496000D01*
X18382000Y-9750000D02*
X18433000Y-9699000D01*
X18382000Y-9648000D01*
X18331000Y-9699000D01*
X18382000Y-9750000D01*
X18382000Y-10004000D02*
X18433000Y-9953000D01*
X18382000Y-9902000D01*
X18331000Y-9953000D01*
X18382000Y-10004000D01*
X18382000Y-10258000D02*
X18433000Y-10207000D01*
X18382000Y-10156000D01*
X18331000Y-10207000D01*
X18382000Y-10258000D01*
X18382000Y-10512000D02*
X18433000Y-10461000D01*
X18382000Y-10410000D01*
X18331000Y-10461000D01*
X18382000Y-10512000D01*
X18382000Y-10766000D02*
X18433000Y-10715000D01*
X18382000Y-10664000D01*
X18331000Y-10715000D01*
X18382000Y-10766000D01*
X18382000Y-11020000D02*
X18433000Y-10969000D01*
X18382000Y-10918000D01*
X18331000Y-10969000D01*
X18382000Y-11020000D01*
X18382000Y-11274000D02*
X18433000Y-11223000D01*
X18382000Y-11172000D01*
X18331000Y-11223000D01*
X18382000Y-11274000D01*
X18382000Y-11528000D02*
X18433000Y-11477000D01*
X18382000Y-11426000D01*
X18331000Y-11477000D01*
X18382000Y-11528000D01*
X18382000Y-11782000D02*
X18433000Y-11731000D01*
X18382000Y-11680000D01*
X18331000Y-11731000D01*
X18382000Y-11782000D01*
X18382000Y-12036000D02*
X18433000Y-11985000D01*
X18382000Y-11934000D01*
X18331000Y-11985000D01*
X18382000Y-12036000D01*
X18382000Y-12290000D02*
X18433000Y-12239000D01*
X18382000Y-12188000D01*
X18331000Y-12239000D01*
X18382000Y-12290000D01*
X18382000Y-12544000D02*
X18433000Y-12493000D01*
X18382000Y-12442000D01*
X18331000Y-12493000D01*
X18382000Y-12544000D01*
X18382000Y-12798000D02*
X18433000Y-12747000D01*
X18382000Y-12696000D01*
X18331000Y-12747000D01*
X18382000Y-12798000D01*
X18382000Y-13052000D02*
X18433000Y-13001000D01*
X18382000Y-12950000D01*
X18331000Y-13001000D01*
X18382000Y-13052000D01*
X18382000Y-13306000D02*
X18433000Y-13255000D01*
X18382000Y-13204000D01*
X18331000Y-13255000D01*
X18382000Y-13306000D01*
X18382000Y-13560000D02*
X18433000Y-13509000D01*
X18382000Y-13458000D01*
X18331000Y-13509000D01*
X18382000Y-13560000D01*
X18382000Y-13814000D02*
X18433000Y-13763000D01*
X18382000Y-13712000D01*
X18331000Y-13763000D01*
X18382000Y-13814000D01*
X18382000Y-14068000D02*
X18433000Y-14017000D01*
X18382000Y-13966000D01*
X18331000Y-14017000D01*
X18382000Y-14068000D01*
X18382000Y-14322000D02*
X18433000Y-14271000D01*
X18382000Y-14220000D01*
X18331000Y-14271000D01*
X18382000Y-14322000D01*
D11*
X10253277Y-15318984D02*
X10253277Y-15118984D01*
X10253277Y-15118984D02*
X10300896Y-15118984D01*
X10300896Y-15118984D02*
X10329467Y-15128508D01*
X10329467Y-15128508D02*
X10348515Y-15147555D01*
X10348515Y-15147555D02*
X10358039Y-15166603D01*
X10358039Y-15166603D02*
X10367563Y-15204698D01*
X10367563Y-15204698D02*
X10367563Y-15233269D01*
X10367563Y-15233269D02*
X10358039Y-15271365D01*
X10358039Y-15271365D02*
X10348515Y-15290412D01*
X10348515Y-15290412D02*
X10329467Y-15309460D01*
X10329467Y-15309460D02*
X10300896Y-15318984D01*
X10300896Y-15318984D02*
X10253277Y-15318984D01*
X10453277Y-15318984D02*
X10453277Y-15185650D01*
X10453277Y-15223746D02*
X10462801Y-15204698D01*
X10462801Y-15204698D02*
X10472324Y-15195174D01*
X10472324Y-15195174D02*
X10491372Y-15185650D01*
X10491372Y-15185650D02*
X10510420Y-15185650D01*
X10577086Y-15318984D02*
X10577086Y-15185650D01*
X10577086Y-15118984D02*
X10567563Y-15128508D01*
X10567563Y-15128508D02*
X10577086Y-15138031D01*
X10577086Y-15138031D02*
X10586610Y-15128508D01*
X10586610Y-15128508D02*
X10577086Y-15118984D01*
X10577086Y-15118984D02*
X10577086Y-15138031D01*
X10700896Y-15318984D02*
X10681848Y-15309460D01*
X10681848Y-15309460D02*
X10672324Y-15290412D01*
X10672324Y-15290412D02*
X10672324Y-15118984D01*
X10805658Y-15318984D02*
X10786610Y-15309460D01*
X10786610Y-15309460D02*
X10777086Y-15290412D01*
X10777086Y-15290412D02*
X10777086Y-15118984D01*
X11034229Y-15318984D02*
X11034229Y-15118984D01*
X11034229Y-15118984D02*
X11100896Y-15261841D01*
X11100896Y-15261841D02*
X11167563Y-15118984D01*
X11167563Y-15118984D02*
X11167563Y-15318984D01*
X11348515Y-15318984D02*
X11348515Y-15214222D01*
X11348515Y-15214222D02*
X11338991Y-15195174D01*
X11338991Y-15195174D02*
X11319943Y-15185650D01*
X11319943Y-15185650D02*
X11281848Y-15185650D01*
X11281848Y-15185650D02*
X11262801Y-15195174D01*
X11348515Y-15309460D02*
X11329467Y-15318984D01*
X11329467Y-15318984D02*
X11281848Y-15318984D01*
X11281848Y-15318984D02*
X11262801Y-15309460D01*
X11262801Y-15309460D02*
X11253277Y-15290412D01*
X11253277Y-15290412D02*
X11253277Y-15271365D01*
X11253277Y-15271365D02*
X11262801Y-15252317D01*
X11262801Y-15252317D02*
X11281848Y-15242793D01*
X11281848Y-15242793D02*
X11329467Y-15242793D01*
X11329467Y-15242793D02*
X11348515Y-15233269D01*
X11443753Y-15185650D02*
X11443753Y-15385650D01*
X11443753Y-15195174D02*
X11462801Y-15185650D01*
X11462801Y-15185650D02*
X11500896Y-15185650D01*
X11500896Y-15185650D02*
X11519943Y-15195174D01*
X11519943Y-15195174D02*
X11529467Y-15204698D01*
X11529467Y-15204698D02*
X11538991Y-15223746D01*
X11538991Y-15223746D02*
X11538991Y-15280888D01*
X11538991Y-15280888D02*
X11529467Y-15299936D01*
X11529467Y-15299936D02*
X11519943Y-15309460D01*
X11519943Y-15309460D02*
X11500896Y-15318984D01*
X11500896Y-15318984D02*
X11462801Y-15318984D01*
X11462801Y-15318984D02*
X11443753Y-15309460D01*
X11624705Y-15299936D02*
X11634229Y-15309460D01*
X11634229Y-15309460D02*
X11624705Y-15318984D01*
X11624705Y-15318984D02*
X11615182Y-15309460D01*
X11615182Y-15309460D02*
X11624705Y-15299936D01*
X11624705Y-15299936D02*
X11624705Y-15318984D01*
X11624705Y-15195174D02*
X11634229Y-15204698D01*
X11634229Y-15204698D02*
X11624705Y-15214222D01*
X11624705Y-15214222D02*
X11615182Y-15204698D01*
X11615182Y-15204698D02*
X11624705Y-15195174D01*
X11624705Y-15195174D02*
X11624705Y-15214222D01*
D12*
X9932500Y-15617500D02*
X9992500Y-15677500D01*
X9992500Y-15617500D02*
X9932500Y-15677500D01*
D11*
X10291372Y-15538984D02*
X10310420Y-15538984D01*
X10310420Y-15538984D02*
X10329467Y-15548508D01*
X10329467Y-15548508D02*
X10338991Y-15558031D01*
X10338991Y-15558031D02*
X10348515Y-15577079D01*
X10348515Y-15577079D02*
X10358039Y-15615174D01*
X10358039Y-15615174D02*
X10358039Y-15662793D01*
X10358039Y-15662793D02*
X10348515Y-15700888D01*
X10348515Y-15700888D02*
X10338991Y-15719936D01*
X10338991Y-15719936D02*
X10329467Y-15729460D01*
X10329467Y-15729460D02*
X10310420Y-15738984D01*
X10310420Y-15738984D02*
X10291372Y-15738984D01*
X10291372Y-15738984D02*
X10272324Y-15729460D01*
X10272324Y-15729460D02*
X10262801Y-15719936D01*
X10262801Y-15719936D02*
X10253277Y-15700888D01*
X10253277Y-15700888D02*
X10243753Y-15662793D01*
X10243753Y-15662793D02*
X10243753Y-15615174D01*
X10243753Y-15615174D02*
X10253277Y-15577079D01*
X10253277Y-15577079D02*
X10262801Y-15558031D01*
X10262801Y-15558031D02*
X10272324Y-15548508D01*
X10272324Y-15548508D02*
X10291372Y-15538984D01*
X10443753Y-15719936D02*
X10453277Y-15729460D01*
X10453277Y-15729460D02*
X10443753Y-15738984D01*
X10443753Y-15738984D02*
X10434229Y-15729460D01*
X10434229Y-15729460D02*
X10443753Y-15719936D01*
X10443753Y-15719936D02*
X10443753Y-15738984D01*
X10624705Y-15538984D02*
X10586610Y-15538984D01*
X10586610Y-15538984D02*
X10567563Y-15548508D01*
X10567563Y-15548508D02*
X10558039Y-15558031D01*
X10558039Y-15558031D02*
X10538991Y-15586603D01*
X10538991Y-15586603D02*
X10529467Y-15624698D01*
X10529467Y-15624698D02*
X10529467Y-15700888D01*
X10529467Y-15700888D02*
X10538991Y-15719936D01*
X10538991Y-15719936D02*
X10548515Y-15729460D01*
X10548515Y-15729460D02*
X10567563Y-15738984D01*
X10567563Y-15738984D02*
X10605658Y-15738984D01*
X10605658Y-15738984D02*
X10624705Y-15729460D01*
X10624705Y-15729460D02*
X10634229Y-15719936D01*
X10634229Y-15719936D02*
X10643753Y-15700888D01*
X10643753Y-15700888D02*
X10643753Y-15653269D01*
X10643753Y-15653269D02*
X10634229Y-15634222D01*
X10634229Y-15634222D02*
X10624705Y-15624698D01*
X10624705Y-15624698D02*
X10605658Y-15615174D01*
X10605658Y-15615174D02*
X10567563Y-15615174D01*
X10567563Y-15615174D02*
X10548515Y-15624698D01*
X10548515Y-15624698D02*
X10538991Y-15634222D01*
X10538991Y-15634222D02*
X10529467Y-15653269D01*
X10767563Y-15538984D02*
X10786610Y-15538984D01*
X10786610Y-15538984D02*
X10805658Y-15548508D01*
X10805658Y-15548508D02*
X10815182Y-15558031D01*
X10815182Y-15558031D02*
X10824705Y-15577079D01*
X10824705Y-15577079D02*
X10834229Y-15615174D01*
X10834229Y-15615174D02*
X10834229Y-15662793D01*
X10834229Y-15662793D02*
X10824705Y-15700888D01*
X10824705Y-15700888D02*
X10815182Y-15719936D01*
X10815182Y-15719936D02*
X10805658Y-15729460D01*
X10805658Y-15729460D02*
X10786610Y-15738984D01*
X10786610Y-15738984D02*
X10767563Y-15738984D01*
X10767563Y-15738984D02*
X10748515Y-15729460D01*
X10748515Y-15729460D02*
X10738991Y-15719936D01*
X10738991Y-15719936D02*
X10729467Y-15700888D01*
X10729467Y-15700888D02*
X10719944Y-15662793D01*
X10719944Y-15662793D02*
X10719944Y-15615174D01*
X10719944Y-15615174D02*
X10729467Y-15577079D01*
X10729467Y-15577079D02*
X10738991Y-15558031D01*
X10738991Y-15558031D02*
X10748515Y-15548508D01*
X10748515Y-15548508D02*
X10767563Y-15538984D01*
X10958039Y-15538984D02*
X10977086Y-15538984D01*
X10977086Y-15538984D02*
X10996134Y-15548508D01*
X10996134Y-15548508D02*
X11005658Y-15558031D01*
X11005658Y-15558031D02*
X11015182Y-15577079D01*
X11015182Y-15577079D02*
X11024705Y-15615174D01*
X11024705Y-15615174D02*
X11024705Y-15662793D01*
X11024705Y-15662793D02*
X11015182Y-15700888D01*
X11015182Y-15700888D02*
X11005658Y-15719936D01*
X11005658Y-15719936D02*
X10996134Y-15729460D01*
X10996134Y-15729460D02*
X10977086Y-15738984D01*
X10977086Y-15738984D02*
X10958039Y-15738984D01*
X10958039Y-15738984D02*
X10938991Y-15729460D01*
X10938991Y-15729460D02*
X10929467Y-15719936D01*
X10929467Y-15719936D02*
X10919944Y-15700888D01*
X10919944Y-15700888D02*
X10910420Y-15662793D01*
X10910420Y-15662793D02*
X10910420Y-15615174D01*
X10910420Y-15615174D02*
X10919944Y-15577079D01*
X10919944Y-15577079D02*
X10929467Y-15558031D01*
X10929467Y-15558031D02*
X10938991Y-15548508D01*
X10938991Y-15548508D02*
X10958039Y-15538984D01*
X11110420Y-15738984D02*
X11110420Y-15605650D01*
X11110420Y-15624698D02*
X11119944Y-15615174D01*
X11119944Y-15615174D02*
X11138991Y-15605650D01*
X11138991Y-15605650D02*
X11167563Y-15605650D01*
X11167563Y-15605650D02*
X11186610Y-15615174D01*
X11186610Y-15615174D02*
X11196134Y-15634222D01*
X11196134Y-15634222D02*
X11196134Y-15738984D01*
X11196134Y-15634222D02*
X11205658Y-15615174D01*
X11205658Y-15615174D02*
X11224705Y-15605650D01*
X11224705Y-15605650D02*
X11253277Y-15605650D01*
X11253277Y-15605650D02*
X11272324Y-15615174D01*
X11272324Y-15615174D02*
X11281848Y-15634222D01*
X11281848Y-15634222D02*
X11281848Y-15738984D01*
X11377086Y-15738984D02*
X11377086Y-15605650D01*
X11377086Y-15624698D02*
X11386610Y-15615174D01*
X11386610Y-15615174D02*
X11405658Y-15605650D01*
X11405658Y-15605650D02*
X11434229Y-15605650D01*
X11434229Y-15605650D02*
X11453277Y-15615174D01*
X11453277Y-15615174D02*
X11462801Y-15634222D01*
X11462801Y-15634222D02*
X11462801Y-15738984D01*
X11462801Y-15634222D02*
X11472324Y-15615174D01*
X11472324Y-15615174D02*
X11491372Y-15605650D01*
X11491372Y-15605650D02*
X11519943Y-15605650D01*
X11519943Y-15605650D02*
X11538991Y-15615174D01*
X11538991Y-15615174D02*
X11548515Y-15634222D01*
X11548515Y-15634222D02*
X11548515Y-15738984D01*
X11938991Y-15529460D02*
X11767563Y-15786603D01*
X12196134Y-15538984D02*
X12215182Y-15538984D01*
X12215182Y-15538984D02*
X12234229Y-15548508D01*
X12234229Y-15548508D02*
X12243753Y-15558031D01*
X12243753Y-15558031D02*
X12253277Y-15577079D01*
X12253277Y-15577079D02*
X12262801Y-15615174D01*
X12262801Y-15615174D02*
X12262801Y-15662793D01*
X12262801Y-15662793D02*
X12253277Y-15700888D01*
X12253277Y-15700888D02*
X12243753Y-15719936D01*
X12243753Y-15719936D02*
X12234229Y-15729460D01*
X12234229Y-15729460D02*
X12215182Y-15738984D01*
X12215182Y-15738984D02*
X12196134Y-15738984D01*
X12196134Y-15738984D02*
X12177086Y-15729460D01*
X12177086Y-15729460D02*
X12167563Y-15719936D01*
X12167563Y-15719936D02*
X12158039Y-15700888D01*
X12158039Y-15700888D02*
X12148515Y-15662793D01*
X12148515Y-15662793D02*
X12148515Y-15615174D01*
X12148515Y-15615174D02*
X12158039Y-15577079D01*
X12158039Y-15577079D02*
X12167563Y-15558031D01*
X12167563Y-15558031D02*
X12177086Y-15548508D01*
X12177086Y-15548508D02*
X12196134Y-15538984D01*
X12348515Y-15719936D02*
X12358039Y-15729460D01*
X12358039Y-15729460D02*
X12348515Y-15738984D01*
X12348515Y-15738984D02*
X12338991Y-15729460D01*
X12338991Y-15729460D02*
X12348515Y-15719936D01*
X12348515Y-15719936D02*
X12348515Y-15738984D01*
X12481848Y-15538984D02*
X12500896Y-15538984D01*
X12500896Y-15538984D02*
X12519944Y-15548508D01*
X12519944Y-15548508D02*
X12529467Y-15558031D01*
X12529467Y-15558031D02*
X12538991Y-15577079D01*
X12538991Y-15577079D02*
X12548515Y-15615174D01*
X12548515Y-15615174D02*
X12548515Y-15662793D01*
X12548515Y-15662793D02*
X12538991Y-15700888D01*
X12538991Y-15700888D02*
X12529467Y-15719936D01*
X12529467Y-15719936D02*
X12519944Y-15729460D01*
X12519944Y-15729460D02*
X12500896Y-15738984D01*
X12500896Y-15738984D02*
X12481848Y-15738984D01*
X12481848Y-15738984D02*
X12462801Y-15729460D01*
X12462801Y-15729460D02*
X12453277Y-15719936D01*
X12453277Y-15719936D02*
X12443753Y-15700888D01*
X12443753Y-15700888D02*
X12434229Y-15662793D01*
X12434229Y-15662793D02*
X12434229Y-15615174D01*
X12434229Y-15615174D02*
X12443753Y-15577079D01*
X12443753Y-15577079D02*
X12453277Y-15558031D01*
X12453277Y-15558031D02*
X12462801Y-15548508D01*
X12462801Y-15548508D02*
X12481848Y-15538984D01*
X12624706Y-15558031D02*
X12634229Y-15548508D01*
X12634229Y-15548508D02*
X12653277Y-15538984D01*
X12653277Y-15538984D02*
X12700896Y-15538984D01*
X12700896Y-15538984D02*
X12719944Y-15548508D01*
X12719944Y-15548508D02*
X12729467Y-15558031D01*
X12729467Y-15558031D02*
X12738991Y-15577079D01*
X12738991Y-15577079D02*
X12738991Y-15596127D01*
X12738991Y-15596127D02*
X12729467Y-15624698D01*
X12729467Y-15624698D02*
X12615182Y-15738984D01*
X12615182Y-15738984D02*
X12738991Y-15738984D01*
X12805658Y-15538984D02*
X12929467Y-15538984D01*
X12929467Y-15538984D02*
X12862801Y-15615174D01*
X12862801Y-15615174D02*
X12891372Y-15615174D01*
X12891372Y-15615174D02*
X12910420Y-15624698D01*
X12910420Y-15624698D02*
X12919944Y-15634222D01*
X12919944Y-15634222D02*
X12929467Y-15653269D01*
X12929467Y-15653269D02*
X12929467Y-15700888D01*
X12929467Y-15700888D02*
X12919944Y-15719936D01*
X12919944Y-15719936D02*
X12910420Y-15729460D01*
X12910420Y-15729460D02*
X12891372Y-15738984D01*
X12891372Y-15738984D02*
X12834229Y-15738984D01*
X12834229Y-15738984D02*
X12815182Y-15729460D01*
X12815182Y-15729460D02*
X12805658Y-15719936D01*
X13100896Y-15538984D02*
X13062801Y-15538984D01*
X13062801Y-15538984D02*
X13043753Y-15548508D01*
X13043753Y-15548508D02*
X13034229Y-15558031D01*
X13034229Y-15558031D02*
X13015182Y-15586603D01*
X13015182Y-15586603D02*
X13005658Y-15624698D01*
X13005658Y-15624698D02*
X13005658Y-15700888D01*
X13005658Y-15700888D02*
X13015182Y-15719936D01*
X13015182Y-15719936D02*
X13024706Y-15729460D01*
X13024706Y-15729460D02*
X13043753Y-15738984D01*
X13043753Y-15738984D02*
X13081848Y-15738984D01*
X13081848Y-15738984D02*
X13100896Y-15729460D01*
X13100896Y-15729460D02*
X13110420Y-15719936D01*
X13110420Y-15719936D02*
X13119944Y-15700888D01*
X13119944Y-15700888D02*
X13119944Y-15653269D01*
X13119944Y-15653269D02*
X13110420Y-15634222D01*
X13110420Y-15634222D02*
X13100896Y-15624698D01*
X13100896Y-15624698D02*
X13081848Y-15615174D01*
X13081848Y-15615174D02*
X13043753Y-15615174D01*
X13043753Y-15615174D02*
X13024706Y-15624698D01*
X13024706Y-15624698D02*
X13015182Y-15634222D01*
X13015182Y-15634222D02*
X13005658Y-15653269D01*
X13196134Y-15538984D02*
X13196134Y-15577079D01*
X13272325Y-15538984D02*
X13272325Y-15577079D01*
X13567563Y-15815174D02*
X13558039Y-15805650D01*
X13558039Y-15805650D02*
X13538991Y-15777079D01*
X13538991Y-15777079D02*
X13529468Y-15758031D01*
X13529468Y-15758031D02*
X13519944Y-15729460D01*
X13519944Y-15729460D02*
X13510420Y-15681841D01*
X13510420Y-15681841D02*
X13510420Y-15643746D01*
X13510420Y-15643746D02*
X13519944Y-15596127D01*
X13519944Y-15596127D02*
X13529468Y-15567555D01*
X13529468Y-15567555D02*
X13538991Y-15548508D01*
X13538991Y-15548508D02*
X13558039Y-15519936D01*
X13558039Y-15519936D02*
X13567563Y-15510412D01*
X13624706Y-15538984D02*
X13748515Y-15538984D01*
X13748515Y-15538984D02*
X13681848Y-15615174D01*
X13681848Y-15615174D02*
X13710420Y-15615174D01*
X13710420Y-15615174D02*
X13729468Y-15624698D01*
X13729468Y-15624698D02*
X13738991Y-15634222D01*
X13738991Y-15634222D02*
X13748515Y-15653269D01*
X13748515Y-15653269D02*
X13748515Y-15700888D01*
X13748515Y-15700888D02*
X13738991Y-15719936D01*
X13738991Y-15719936D02*
X13729468Y-15729460D01*
X13729468Y-15729460D02*
X13710420Y-15738984D01*
X13710420Y-15738984D02*
X13653277Y-15738984D01*
X13653277Y-15738984D02*
X13634229Y-15729460D01*
X13634229Y-15729460D02*
X13624706Y-15719936D01*
X13929468Y-15538984D02*
X13834229Y-15538984D01*
X13834229Y-15538984D02*
X13824706Y-15634222D01*
X13824706Y-15634222D02*
X13834229Y-15624698D01*
X13834229Y-15624698D02*
X13853277Y-15615174D01*
X13853277Y-15615174D02*
X13900896Y-15615174D01*
X13900896Y-15615174D02*
X13919944Y-15624698D01*
X13919944Y-15624698D02*
X13929468Y-15634222D01*
X13929468Y-15634222D02*
X13938991Y-15653269D01*
X13938991Y-15653269D02*
X13938991Y-15700888D01*
X13938991Y-15700888D02*
X13929468Y-15719936D01*
X13929468Y-15719936D02*
X13919944Y-15729460D01*
X13919944Y-15729460D02*
X13900896Y-15738984D01*
X13900896Y-15738984D02*
X13853277Y-15738984D01*
X13853277Y-15738984D02*
X13834229Y-15729460D01*
X13834229Y-15729460D02*
X13824706Y-15719936D01*
X14177087Y-15738984D02*
X14177087Y-15538984D01*
X14262801Y-15738984D02*
X14262801Y-15634222D01*
X14262801Y-15634222D02*
X14253277Y-15615174D01*
X14253277Y-15615174D02*
X14234230Y-15605650D01*
X14234230Y-15605650D02*
X14205658Y-15605650D01*
X14205658Y-15605650D02*
X14186610Y-15615174D01*
X14186610Y-15615174D02*
X14177087Y-15624698D01*
X14386610Y-15738984D02*
X14367563Y-15729460D01*
X14367563Y-15729460D02*
X14358039Y-15719936D01*
X14358039Y-15719936D02*
X14348515Y-15700888D01*
X14348515Y-15700888D02*
X14348515Y-15643746D01*
X14348515Y-15643746D02*
X14358039Y-15624698D01*
X14358039Y-15624698D02*
X14367563Y-15615174D01*
X14367563Y-15615174D02*
X14386610Y-15605650D01*
X14386610Y-15605650D02*
X14415182Y-15605650D01*
X14415182Y-15605650D02*
X14434230Y-15615174D01*
X14434230Y-15615174D02*
X14443753Y-15624698D01*
X14443753Y-15624698D02*
X14453277Y-15643746D01*
X14453277Y-15643746D02*
X14453277Y-15700888D01*
X14453277Y-15700888D02*
X14443753Y-15719936D01*
X14443753Y-15719936D02*
X14434230Y-15729460D01*
X14434230Y-15729460D02*
X14415182Y-15738984D01*
X14415182Y-15738984D02*
X14386610Y-15738984D01*
X14567563Y-15738984D02*
X14548515Y-15729460D01*
X14548515Y-15729460D02*
X14538991Y-15710412D01*
X14538991Y-15710412D02*
X14538991Y-15538984D01*
X14719944Y-15729460D02*
X14700896Y-15738984D01*
X14700896Y-15738984D02*
X14662801Y-15738984D01*
X14662801Y-15738984D02*
X14643753Y-15729460D01*
X14643753Y-15729460D02*
X14634230Y-15710412D01*
X14634230Y-15710412D02*
X14634230Y-15634222D01*
X14634230Y-15634222D02*
X14643753Y-15615174D01*
X14643753Y-15615174D02*
X14662801Y-15605650D01*
X14662801Y-15605650D02*
X14700896Y-15605650D01*
X14700896Y-15605650D02*
X14719944Y-15615174D01*
X14719944Y-15615174D02*
X14729468Y-15634222D01*
X14729468Y-15634222D02*
X14729468Y-15653269D01*
X14729468Y-15653269D02*
X14634230Y-15672317D01*
X14805658Y-15729460D02*
X14824706Y-15738984D01*
X14824706Y-15738984D02*
X14862801Y-15738984D01*
X14862801Y-15738984D02*
X14881849Y-15729460D01*
X14881849Y-15729460D02*
X14891372Y-15710412D01*
X14891372Y-15710412D02*
X14891372Y-15700888D01*
X14891372Y-15700888D02*
X14881849Y-15681841D01*
X14881849Y-15681841D02*
X14862801Y-15672317D01*
X14862801Y-15672317D02*
X14834230Y-15672317D01*
X14834230Y-15672317D02*
X14815182Y-15662793D01*
X14815182Y-15662793D02*
X14805658Y-15643746D01*
X14805658Y-15643746D02*
X14805658Y-15634222D01*
X14805658Y-15634222D02*
X14815182Y-15615174D01*
X14815182Y-15615174D02*
X14834230Y-15605650D01*
X14834230Y-15605650D02*
X14862801Y-15605650D01*
X14862801Y-15605650D02*
X14881849Y-15615174D01*
X14958039Y-15815174D02*
X14967563Y-15805650D01*
X14967563Y-15805650D02*
X14986611Y-15777079D01*
X14986611Y-15777079D02*
X14996134Y-15758031D01*
X14996134Y-15758031D02*
X15005658Y-15729460D01*
X15005658Y-15729460D02*
X15015182Y-15681841D01*
X15015182Y-15681841D02*
X15015182Y-15643746D01*
X15015182Y-15643746D02*
X15005658Y-15596127D01*
X15005658Y-15596127D02*
X14996134Y-15567555D01*
X14996134Y-15567555D02*
X14986611Y-15548508D01*
X14986611Y-15548508D02*
X14967563Y-15519936D01*
X14967563Y-15519936D02*
X14958039Y-15510412D01*
D12*
X9992500Y-15911500D02*
G75*
G03*
X9913760Y-15911500I-39370J0D01*
G01*
X9913760Y-15911500D02*
G75*
G03*
X9992500Y-15911500I39370J0D01*
G01*
D11*
X10291372Y-15802984D02*
X10310420Y-15802984D01*
X10310420Y-15802984D02*
X10329467Y-15812508D01*
X10329467Y-15812508D02*
X10338991Y-15822031D01*
X10338991Y-15822031D02*
X10348515Y-15841079D01*
X10348515Y-15841079D02*
X10358039Y-15879174D01*
X10358039Y-15879174D02*
X10358039Y-15926793D01*
X10358039Y-15926793D02*
X10348515Y-15964888D01*
X10348515Y-15964888D02*
X10338991Y-15983936D01*
X10338991Y-15983936D02*
X10329467Y-15993460D01*
X10329467Y-15993460D02*
X10310420Y-16002984D01*
X10310420Y-16002984D02*
X10291372Y-16002984D01*
X10291372Y-16002984D02*
X10272324Y-15993460D01*
X10272324Y-15993460D02*
X10262801Y-15983936D01*
X10262801Y-15983936D02*
X10253277Y-15964888D01*
X10253277Y-15964888D02*
X10243753Y-15926793D01*
X10243753Y-15926793D02*
X10243753Y-15879174D01*
X10243753Y-15879174D02*
X10253277Y-15841079D01*
X10253277Y-15841079D02*
X10262801Y-15822031D01*
X10262801Y-15822031D02*
X10272324Y-15812508D01*
X10272324Y-15812508D02*
X10291372Y-15802984D01*
X10443753Y-15983936D02*
X10453277Y-15993460D01*
X10453277Y-15993460D02*
X10443753Y-16002984D01*
X10443753Y-16002984D02*
X10434229Y-15993460D01*
X10434229Y-15993460D02*
X10443753Y-15983936D01*
X10443753Y-15983936D02*
X10443753Y-16002984D01*
X10519944Y-15802984D02*
X10653277Y-15802984D01*
X10653277Y-15802984D02*
X10567563Y-16002984D01*
X10758039Y-15888698D02*
X10738991Y-15879174D01*
X10738991Y-15879174D02*
X10729467Y-15869650D01*
X10729467Y-15869650D02*
X10719944Y-15850603D01*
X10719944Y-15850603D02*
X10719944Y-15841079D01*
X10719944Y-15841079D02*
X10729467Y-15822031D01*
X10729467Y-15822031D02*
X10738991Y-15812508D01*
X10738991Y-15812508D02*
X10758039Y-15802984D01*
X10758039Y-15802984D02*
X10796134Y-15802984D01*
X10796134Y-15802984D02*
X10815182Y-15812508D01*
X10815182Y-15812508D02*
X10824705Y-15822031D01*
X10824705Y-15822031D02*
X10834229Y-15841079D01*
X10834229Y-15841079D02*
X10834229Y-15850603D01*
X10834229Y-15850603D02*
X10824705Y-15869650D01*
X10824705Y-15869650D02*
X10815182Y-15879174D01*
X10815182Y-15879174D02*
X10796134Y-15888698D01*
X10796134Y-15888698D02*
X10758039Y-15888698D01*
X10758039Y-15888698D02*
X10738991Y-15898222D01*
X10738991Y-15898222D02*
X10729467Y-15907746D01*
X10729467Y-15907746D02*
X10719944Y-15926793D01*
X10719944Y-15926793D02*
X10719944Y-15964888D01*
X10719944Y-15964888D02*
X10729467Y-15983936D01*
X10729467Y-15983936D02*
X10738991Y-15993460D01*
X10738991Y-15993460D02*
X10758039Y-16002984D01*
X10758039Y-16002984D02*
X10796134Y-16002984D01*
X10796134Y-16002984D02*
X10815182Y-15993460D01*
X10815182Y-15993460D02*
X10824705Y-15983936D01*
X10824705Y-15983936D02*
X10834229Y-15964888D01*
X10834229Y-15964888D02*
X10834229Y-15926793D01*
X10834229Y-15926793D02*
X10824705Y-15907746D01*
X10824705Y-15907746D02*
X10815182Y-15898222D01*
X10815182Y-15898222D02*
X10796134Y-15888698D01*
X10900896Y-15802984D02*
X11034229Y-15802984D01*
X11034229Y-15802984D02*
X10948515Y-16002984D01*
X11110420Y-16002984D02*
X11110420Y-15869650D01*
X11110420Y-15888698D02*
X11119944Y-15879174D01*
X11119944Y-15879174D02*
X11138991Y-15869650D01*
X11138991Y-15869650D02*
X11167563Y-15869650D01*
X11167563Y-15869650D02*
X11186610Y-15879174D01*
X11186610Y-15879174D02*
X11196134Y-15898222D01*
X11196134Y-15898222D02*
X11196134Y-16002984D01*
X11196134Y-15898222D02*
X11205658Y-15879174D01*
X11205658Y-15879174D02*
X11224705Y-15869650D01*
X11224705Y-15869650D02*
X11253277Y-15869650D01*
X11253277Y-15869650D02*
X11272324Y-15879174D01*
X11272324Y-15879174D02*
X11281848Y-15898222D01*
X11281848Y-15898222D02*
X11281848Y-16002984D01*
X11377086Y-16002984D02*
X11377086Y-15869650D01*
X11377086Y-15888698D02*
X11386610Y-15879174D01*
X11386610Y-15879174D02*
X11405658Y-15869650D01*
X11405658Y-15869650D02*
X11434229Y-15869650D01*
X11434229Y-15869650D02*
X11453277Y-15879174D01*
X11453277Y-15879174D02*
X11462801Y-15898222D01*
X11462801Y-15898222D02*
X11462801Y-16002984D01*
X11462801Y-15898222D02*
X11472324Y-15879174D01*
X11472324Y-15879174D02*
X11491372Y-15869650D01*
X11491372Y-15869650D02*
X11519943Y-15869650D01*
X11519943Y-15869650D02*
X11538991Y-15879174D01*
X11538991Y-15879174D02*
X11548515Y-15898222D01*
X11548515Y-15898222D02*
X11548515Y-16002984D01*
X11938991Y-15793460D02*
X11767563Y-16050603D01*
X12196134Y-15802984D02*
X12215182Y-15802984D01*
X12215182Y-15802984D02*
X12234229Y-15812508D01*
X12234229Y-15812508D02*
X12243753Y-15822031D01*
X12243753Y-15822031D02*
X12253277Y-15841079D01*
X12253277Y-15841079D02*
X12262801Y-15879174D01*
X12262801Y-15879174D02*
X12262801Y-15926793D01*
X12262801Y-15926793D02*
X12253277Y-15964888D01*
X12253277Y-15964888D02*
X12243753Y-15983936D01*
X12243753Y-15983936D02*
X12234229Y-15993460D01*
X12234229Y-15993460D02*
X12215182Y-16002984D01*
X12215182Y-16002984D02*
X12196134Y-16002984D01*
X12196134Y-16002984D02*
X12177086Y-15993460D01*
X12177086Y-15993460D02*
X12167563Y-15983936D01*
X12167563Y-15983936D02*
X12158039Y-15964888D01*
X12158039Y-15964888D02*
X12148515Y-15926793D01*
X12148515Y-15926793D02*
X12148515Y-15879174D01*
X12148515Y-15879174D02*
X12158039Y-15841079D01*
X12158039Y-15841079D02*
X12167563Y-15822031D01*
X12167563Y-15822031D02*
X12177086Y-15812508D01*
X12177086Y-15812508D02*
X12196134Y-15802984D01*
X12348515Y-15983936D02*
X12358039Y-15993460D01*
X12358039Y-15993460D02*
X12348515Y-16002984D01*
X12348515Y-16002984D02*
X12338991Y-15993460D01*
X12338991Y-15993460D02*
X12348515Y-15983936D01*
X12348515Y-15983936D02*
X12348515Y-16002984D01*
X12481848Y-15802984D02*
X12500896Y-15802984D01*
X12500896Y-15802984D02*
X12519944Y-15812508D01*
X12519944Y-15812508D02*
X12529467Y-15822031D01*
X12529467Y-15822031D02*
X12538991Y-15841079D01*
X12538991Y-15841079D02*
X12548515Y-15879174D01*
X12548515Y-15879174D02*
X12548515Y-15926793D01*
X12548515Y-15926793D02*
X12538991Y-15964888D01*
X12538991Y-15964888D02*
X12529467Y-15983936D01*
X12529467Y-15983936D02*
X12519944Y-15993460D01*
X12519944Y-15993460D02*
X12500896Y-16002984D01*
X12500896Y-16002984D02*
X12481848Y-16002984D01*
X12481848Y-16002984D02*
X12462801Y-15993460D01*
X12462801Y-15993460D02*
X12453277Y-15983936D01*
X12453277Y-15983936D02*
X12443753Y-15964888D01*
X12443753Y-15964888D02*
X12434229Y-15926793D01*
X12434229Y-15926793D02*
X12434229Y-15879174D01*
X12434229Y-15879174D02*
X12443753Y-15841079D01*
X12443753Y-15841079D02*
X12453277Y-15822031D01*
X12453277Y-15822031D02*
X12462801Y-15812508D01*
X12462801Y-15812508D02*
X12481848Y-15802984D01*
X12615182Y-15802984D02*
X12738991Y-15802984D01*
X12738991Y-15802984D02*
X12672325Y-15879174D01*
X12672325Y-15879174D02*
X12700896Y-15879174D01*
X12700896Y-15879174D02*
X12719944Y-15888698D01*
X12719944Y-15888698D02*
X12729467Y-15898222D01*
X12729467Y-15898222D02*
X12738991Y-15917269D01*
X12738991Y-15917269D02*
X12738991Y-15964888D01*
X12738991Y-15964888D02*
X12729467Y-15983936D01*
X12729467Y-15983936D02*
X12719944Y-15993460D01*
X12719944Y-15993460D02*
X12700896Y-16002984D01*
X12700896Y-16002984D02*
X12643753Y-16002984D01*
X12643753Y-16002984D02*
X12624706Y-15993460D01*
X12624706Y-15993460D02*
X12615182Y-15983936D01*
X12929467Y-16002984D02*
X12815182Y-16002984D01*
X12872325Y-16002984D02*
X12872325Y-15802984D01*
X12872325Y-15802984D02*
X12853277Y-15831555D01*
X12853277Y-15831555D02*
X12834229Y-15850603D01*
X12834229Y-15850603D02*
X12815182Y-15860127D01*
X13053277Y-15802984D02*
X13072325Y-15802984D01*
X13072325Y-15802984D02*
X13091372Y-15812508D01*
X13091372Y-15812508D02*
X13100896Y-15822031D01*
X13100896Y-15822031D02*
X13110420Y-15841079D01*
X13110420Y-15841079D02*
X13119944Y-15879174D01*
X13119944Y-15879174D02*
X13119944Y-15926793D01*
X13119944Y-15926793D02*
X13110420Y-15964888D01*
X13110420Y-15964888D02*
X13100896Y-15983936D01*
X13100896Y-15983936D02*
X13091372Y-15993460D01*
X13091372Y-15993460D02*
X13072325Y-16002984D01*
X13072325Y-16002984D02*
X13053277Y-16002984D01*
X13053277Y-16002984D02*
X13034229Y-15993460D01*
X13034229Y-15993460D02*
X13024706Y-15983936D01*
X13024706Y-15983936D02*
X13015182Y-15964888D01*
X13015182Y-15964888D02*
X13005658Y-15926793D01*
X13005658Y-15926793D02*
X13005658Y-15879174D01*
X13005658Y-15879174D02*
X13015182Y-15841079D01*
X13015182Y-15841079D02*
X13024706Y-15822031D01*
X13024706Y-15822031D02*
X13034229Y-15812508D01*
X13034229Y-15812508D02*
X13053277Y-15802984D01*
X13196134Y-15802984D02*
X13196134Y-15841079D01*
X13272325Y-15802984D02*
X13272325Y-15841079D01*
X13567563Y-16079174D02*
X13558039Y-16069650D01*
X13558039Y-16069650D02*
X13538991Y-16041079D01*
X13538991Y-16041079D02*
X13529468Y-16022031D01*
X13529468Y-16022031D02*
X13519944Y-15993460D01*
X13519944Y-15993460D02*
X13510420Y-15945841D01*
X13510420Y-15945841D02*
X13510420Y-15907746D01*
X13510420Y-15907746D02*
X13519944Y-15860127D01*
X13519944Y-15860127D02*
X13529468Y-15831555D01*
X13529468Y-15831555D02*
X13538991Y-15812508D01*
X13538991Y-15812508D02*
X13558039Y-15783936D01*
X13558039Y-15783936D02*
X13567563Y-15774412D01*
X13748515Y-16002984D02*
X13634229Y-16002984D01*
X13691372Y-16002984D02*
X13691372Y-15802984D01*
X13691372Y-15802984D02*
X13672325Y-15831555D01*
X13672325Y-15831555D02*
X13653277Y-15850603D01*
X13653277Y-15850603D02*
X13634229Y-15860127D01*
X13919944Y-15802984D02*
X13881848Y-15802984D01*
X13881848Y-15802984D02*
X13862801Y-15812508D01*
X13862801Y-15812508D02*
X13853277Y-15822031D01*
X13853277Y-15822031D02*
X13834229Y-15850603D01*
X13834229Y-15850603D02*
X13824706Y-15888698D01*
X13824706Y-15888698D02*
X13824706Y-15964888D01*
X13824706Y-15964888D02*
X13834229Y-15983936D01*
X13834229Y-15983936D02*
X13843753Y-15993460D01*
X13843753Y-15993460D02*
X13862801Y-16002984D01*
X13862801Y-16002984D02*
X13900896Y-16002984D01*
X13900896Y-16002984D02*
X13919944Y-15993460D01*
X13919944Y-15993460D02*
X13929468Y-15983936D01*
X13929468Y-15983936D02*
X13938991Y-15964888D01*
X13938991Y-15964888D02*
X13938991Y-15917269D01*
X13938991Y-15917269D02*
X13929468Y-15898222D01*
X13929468Y-15898222D02*
X13919944Y-15888698D01*
X13919944Y-15888698D02*
X13900896Y-15879174D01*
X13900896Y-15879174D02*
X13862801Y-15879174D01*
X13862801Y-15879174D02*
X13843753Y-15888698D01*
X13843753Y-15888698D02*
X13834229Y-15898222D01*
X13834229Y-15898222D02*
X13824706Y-15917269D01*
X14062801Y-15802984D02*
X14081849Y-15802984D01*
X14081849Y-15802984D02*
X14100896Y-15812508D01*
X14100896Y-15812508D02*
X14110420Y-15822031D01*
X14110420Y-15822031D02*
X14119944Y-15841079D01*
X14119944Y-15841079D02*
X14129468Y-15879174D01*
X14129468Y-15879174D02*
X14129468Y-15926793D01*
X14129468Y-15926793D02*
X14119944Y-15964888D01*
X14119944Y-15964888D02*
X14110420Y-15983936D01*
X14110420Y-15983936D02*
X14100896Y-15993460D01*
X14100896Y-15993460D02*
X14081849Y-16002984D01*
X14081849Y-16002984D02*
X14062801Y-16002984D01*
X14062801Y-16002984D02*
X14043753Y-15993460D01*
X14043753Y-15993460D02*
X14034229Y-15983936D01*
X14034229Y-15983936D02*
X14024706Y-15964888D01*
X14024706Y-15964888D02*
X14015182Y-15926793D01*
X14015182Y-15926793D02*
X14015182Y-15879174D01*
X14015182Y-15879174D02*
X14024706Y-15841079D01*
X14024706Y-15841079D02*
X14034229Y-15822031D01*
X14034229Y-15822031D02*
X14043753Y-15812508D01*
X14043753Y-15812508D02*
X14062801Y-15802984D01*
X14367563Y-16002984D02*
X14367563Y-15802984D01*
X14453277Y-16002984D02*
X14453277Y-15898222D01*
X14453277Y-15898222D02*
X14443753Y-15879174D01*
X14443753Y-15879174D02*
X14424706Y-15869650D01*
X14424706Y-15869650D02*
X14396134Y-15869650D01*
X14396134Y-15869650D02*
X14377087Y-15879174D01*
X14377087Y-15879174D02*
X14367563Y-15888698D01*
X14577087Y-16002984D02*
X14558039Y-15993460D01*
X14558039Y-15993460D02*
X14548515Y-15983936D01*
X14548515Y-15983936D02*
X14538991Y-15964888D01*
X14538991Y-15964888D02*
X14538991Y-15907746D01*
X14538991Y-15907746D02*
X14548515Y-15888698D01*
X14548515Y-15888698D02*
X14558039Y-15879174D01*
X14558039Y-15879174D02*
X14577087Y-15869650D01*
X14577087Y-15869650D02*
X14605658Y-15869650D01*
X14605658Y-15869650D02*
X14624706Y-15879174D01*
X14624706Y-15879174D02*
X14634230Y-15888698D01*
X14634230Y-15888698D02*
X14643753Y-15907746D01*
X14643753Y-15907746D02*
X14643753Y-15964888D01*
X14643753Y-15964888D02*
X14634230Y-15983936D01*
X14634230Y-15983936D02*
X14624706Y-15993460D01*
X14624706Y-15993460D02*
X14605658Y-16002984D01*
X14605658Y-16002984D02*
X14577087Y-16002984D01*
X14758039Y-16002984D02*
X14738991Y-15993460D01*
X14738991Y-15993460D02*
X14729468Y-15974412D01*
X14729468Y-15974412D02*
X14729468Y-15802984D01*
X14910420Y-15993460D02*
X14891372Y-16002984D01*
X14891372Y-16002984D02*
X14853277Y-16002984D01*
X14853277Y-16002984D02*
X14834230Y-15993460D01*
X14834230Y-15993460D02*
X14824706Y-15974412D01*
X14824706Y-15974412D02*
X14824706Y-15898222D01*
X14824706Y-15898222D02*
X14834230Y-15879174D01*
X14834230Y-15879174D02*
X14853277Y-15869650D01*
X14853277Y-15869650D02*
X14891372Y-15869650D01*
X14891372Y-15869650D02*
X14910420Y-15879174D01*
X14910420Y-15879174D02*
X14919944Y-15898222D01*
X14919944Y-15898222D02*
X14919944Y-15917269D01*
X14919944Y-15917269D02*
X14824706Y-15936317D01*
X14996134Y-15993460D02*
X15015182Y-16002984D01*
X15015182Y-16002984D02*
X15053277Y-16002984D01*
X15053277Y-16002984D02*
X15072325Y-15993460D01*
X15072325Y-15993460D02*
X15081849Y-15974412D01*
X15081849Y-15974412D02*
X15081849Y-15964888D01*
X15081849Y-15964888D02*
X15072325Y-15945841D01*
X15072325Y-15945841D02*
X15053277Y-15936317D01*
X15053277Y-15936317D02*
X15024706Y-15936317D01*
X15024706Y-15936317D02*
X15005658Y-15926793D01*
X15005658Y-15926793D02*
X14996134Y-15907746D01*
X14996134Y-15907746D02*
X14996134Y-15898222D01*
X14996134Y-15898222D02*
X15005658Y-15879174D01*
X15005658Y-15879174D02*
X15024706Y-15869650D01*
X15024706Y-15869650D02*
X15053277Y-15869650D01*
X15053277Y-15869650D02*
X15072325Y-15879174D01*
X15148515Y-16079174D02*
X15158039Y-16069650D01*
X15158039Y-16069650D02*
X15177087Y-16041079D01*
X15177087Y-16041079D02*
X15186611Y-16022031D01*
X15186611Y-16022031D02*
X15196134Y-15993460D01*
X15196134Y-15993460D02*
X15205658Y-15945841D01*
X15205658Y-15945841D02*
X15205658Y-15907746D01*
X15205658Y-15907746D02*
X15196134Y-15860127D01*
X15196134Y-15860127D02*
X15186611Y-15831555D01*
X15186611Y-15831555D02*
X15177087Y-15812508D01*
X15177087Y-15812508D02*
X15158039Y-15783936D01*
X15158039Y-15783936D02*
X15148515Y-15774412D01*
D12*
X9942500Y-16125500D02*
X9942500Y-16225500D01*
X9892500Y-16175500D02*
X9992500Y-16175500D01*
D11*
X10358039Y-16266984D02*
X10243753Y-16266984D01*
X10300896Y-16266984D02*
X10300896Y-16066984D01*
X10300896Y-16066984D02*
X10281848Y-16095555D01*
X10281848Y-16095555D02*
X10262801Y-16114603D01*
X10262801Y-16114603D02*
X10243753Y-16124127D01*
X10443753Y-16247936D02*
X10453277Y-16257460D01*
X10453277Y-16257460D02*
X10443753Y-16266984D01*
X10443753Y-16266984D02*
X10434229Y-16257460D01*
X10434229Y-16257460D02*
X10443753Y-16247936D01*
X10443753Y-16247936D02*
X10443753Y-16266984D01*
X10577086Y-16066984D02*
X10596134Y-16066984D01*
X10596134Y-16066984D02*
X10615182Y-16076508D01*
X10615182Y-16076508D02*
X10624705Y-16086031D01*
X10624705Y-16086031D02*
X10634229Y-16105079D01*
X10634229Y-16105079D02*
X10643753Y-16143174D01*
X10643753Y-16143174D02*
X10643753Y-16190793D01*
X10643753Y-16190793D02*
X10634229Y-16228888D01*
X10634229Y-16228888D02*
X10624705Y-16247936D01*
X10624705Y-16247936D02*
X10615182Y-16257460D01*
X10615182Y-16257460D02*
X10596134Y-16266984D01*
X10596134Y-16266984D02*
X10577086Y-16266984D01*
X10577086Y-16266984D02*
X10558039Y-16257460D01*
X10558039Y-16257460D02*
X10548515Y-16247936D01*
X10548515Y-16247936D02*
X10538991Y-16228888D01*
X10538991Y-16228888D02*
X10529467Y-16190793D01*
X10529467Y-16190793D02*
X10529467Y-16143174D01*
X10529467Y-16143174D02*
X10538991Y-16105079D01*
X10538991Y-16105079D02*
X10548515Y-16086031D01*
X10548515Y-16086031D02*
X10558039Y-16076508D01*
X10558039Y-16076508D02*
X10577086Y-16066984D01*
X10767563Y-16066984D02*
X10786610Y-16066984D01*
X10786610Y-16066984D02*
X10805658Y-16076508D01*
X10805658Y-16076508D02*
X10815182Y-16086031D01*
X10815182Y-16086031D02*
X10824705Y-16105079D01*
X10824705Y-16105079D02*
X10834229Y-16143174D01*
X10834229Y-16143174D02*
X10834229Y-16190793D01*
X10834229Y-16190793D02*
X10824705Y-16228888D01*
X10824705Y-16228888D02*
X10815182Y-16247936D01*
X10815182Y-16247936D02*
X10805658Y-16257460D01*
X10805658Y-16257460D02*
X10786610Y-16266984D01*
X10786610Y-16266984D02*
X10767563Y-16266984D01*
X10767563Y-16266984D02*
X10748515Y-16257460D01*
X10748515Y-16257460D02*
X10738991Y-16247936D01*
X10738991Y-16247936D02*
X10729467Y-16228888D01*
X10729467Y-16228888D02*
X10719944Y-16190793D01*
X10719944Y-16190793D02*
X10719944Y-16143174D01*
X10719944Y-16143174D02*
X10729467Y-16105079D01*
X10729467Y-16105079D02*
X10738991Y-16086031D01*
X10738991Y-16086031D02*
X10748515Y-16076508D01*
X10748515Y-16076508D02*
X10767563Y-16066984D01*
X10958039Y-16066984D02*
X10977086Y-16066984D01*
X10977086Y-16066984D02*
X10996134Y-16076508D01*
X10996134Y-16076508D02*
X11005658Y-16086031D01*
X11005658Y-16086031D02*
X11015182Y-16105079D01*
X11015182Y-16105079D02*
X11024705Y-16143174D01*
X11024705Y-16143174D02*
X11024705Y-16190793D01*
X11024705Y-16190793D02*
X11015182Y-16228888D01*
X11015182Y-16228888D02*
X11005658Y-16247936D01*
X11005658Y-16247936D02*
X10996134Y-16257460D01*
X10996134Y-16257460D02*
X10977086Y-16266984D01*
X10977086Y-16266984D02*
X10958039Y-16266984D01*
X10958039Y-16266984D02*
X10938991Y-16257460D01*
X10938991Y-16257460D02*
X10929467Y-16247936D01*
X10929467Y-16247936D02*
X10919944Y-16228888D01*
X10919944Y-16228888D02*
X10910420Y-16190793D01*
X10910420Y-16190793D02*
X10910420Y-16143174D01*
X10910420Y-16143174D02*
X10919944Y-16105079D01*
X10919944Y-16105079D02*
X10929467Y-16086031D01*
X10929467Y-16086031D02*
X10938991Y-16076508D01*
X10938991Y-16076508D02*
X10958039Y-16066984D01*
X11110420Y-16266984D02*
X11110420Y-16133650D01*
X11110420Y-16152698D02*
X11119944Y-16143174D01*
X11119944Y-16143174D02*
X11138991Y-16133650D01*
X11138991Y-16133650D02*
X11167563Y-16133650D01*
X11167563Y-16133650D02*
X11186610Y-16143174D01*
X11186610Y-16143174D02*
X11196134Y-16162222D01*
X11196134Y-16162222D02*
X11196134Y-16266984D01*
X11196134Y-16162222D02*
X11205658Y-16143174D01*
X11205658Y-16143174D02*
X11224705Y-16133650D01*
X11224705Y-16133650D02*
X11253277Y-16133650D01*
X11253277Y-16133650D02*
X11272324Y-16143174D01*
X11272324Y-16143174D02*
X11281848Y-16162222D01*
X11281848Y-16162222D02*
X11281848Y-16266984D01*
X11377086Y-16266984D02*
X11377086Y-16133650D01*
X11377086Y-16152698D02*
X11386610Y-16143174D01*
X11386610Y-16143174D02*
X11405658Y-16133650D01*
X11405658Y-16133650D02*
X11434229Y-16133650D01*
X11434229Y-16133650D02*
X11453277Y-16143174D01*
X11453277Y-16143174D02*
X11462801Y-16162222D01*
X11462801Y-16162222D02*
X11462801Y-16266984D01*
X11462801Y-16162222D02*
X11472324Y-16143174D01*
X11472324Y-16143174D02*
X11491372Y-16133650D01*
X11491372Y-16133650D02*
X11519943Y-16133650D01*
X11519943Y-16133650D02*
X11538991Y-16143174D01*
X11538991Y-16143174D02*
X11548515Y-16162222D01*
X11548515Y-16162222D02*
X11548515Y-16266984D01*
X11938991Y-16057460D02*
X11767563Y-16314603D01*
X12196134Y-16066984D02*
X12215182Y-16066984D01*
X12215182Y-16066984D02*
X12234229Y-16076508D01*
X12234229Y-16076508D02*
X12243753Y-16086031D01*
X12243753Y-16086031D02*
X12253277Y-16105079D01*
X12253277Y-16105079D02*
X12262801Y-16143174D01*
X12262801Y-16143174D02*
X12262801Y-16190793D01*
X12262801Y-16190793D02*
X12253277Y-16228888D01*
X12253277Y-16228888D02*
X12243753Y-16247936D01*
X12243753Y-16247936D02*
X12234229Y-16257460D01*
X12234229Y-16257460D02*
X12215182Y-16266984D01*
X12215182Y-16266984D02*
X12196134Y-16266984D01*
X12196134Y-16266984D02*
X12177086Y-16257460D01*
X12177086Y-16257460D02*
X12167563Y-16247936D01*
X12167563Y-16247936D02*
X12158039Y-16228888D01*
X12158039Y-16228888D02*
X12148515Y-16190793D01*
X12148515Y-16190793D02*
X12148515Y-16143174D01*
X12148515Y-16143174D02*
X12158039Y-16105079D01*
X12158039Y-16105079D02*
X12167563Y-16086031D01*
X12167563Y-16086031D02*
X12177086Y-16076508D01*
X12177086Y-16076508D02*
X12196134Y-16066984D01*
X12348515Y-16247936D02*
X12358039Y-16257460D01*
X12358039Y-16257460D02*
X12348515Y-16266984D01*
X12348515Y-16266984D02*
X12338991Y-16257460D01*
X12338991Y-16257460D02*
X12348515Y-16247936D01*
X12348515Y-16247936D02*
X12348515Y-16266984D01*
X12481848Y-16066984D02*
X12500896Y-16066984D01*
X12500896Y-16066984D02*
X12519944Y-16076508D01*
X12519944Y-16076508D02*
X12529467Y-16086031D01*
X12529467Y-16086031D02*
X12538991Y-16105079D01*
X12538991Y-16105079D02*
X12548515Y-16143174D01*
X12548515Y-16143174D02*
X12548515Y-16190793D01*
X12548515Y-16190793D02*
X12538991Y-16228888D01*
X12538991Y-16228888D02*
X12529467Y-16247936D01*
X12529467Y-16247936D02*
X12519944Y-16257460D01*
X12519944Y-16257460D02*
X12500896Y-16266984D01*
X12500896Y-16266984D02*
X12481848Y-16266984D01*
X12481848Y-16266984D02*
X12462801Y-16257460D01*
X12462801Y-16257460D02*
X12453277Y-16247936D01*
X12453277Y-16247936D02*
X12443753Y-16228888D01*
X12443753Y-16228888D02*
X12434229Y-16190793D01*
X12434229Y-16190793D02*
X12434229Y-16143174D01*
X12434229Y-16143174D02*
X12443753Y-16105079D01*
X12443753Y-16105079D02*
X12453277Y-16086031D01*
X12453277Y-16086031D02*
X12462801Y-16076508D01*
X12462801Y-16076508D02*
X12481848Y-16066984D01*
X12615182Y-16066984D02*
X12738991Y-16066984D01*
X12738991Y-16066984D02*
X12672325Y-16143174D01*
X12672325Y-16143174D02*
X12700896Y-16143174D01*
X12700896Y-16143174D02*
X12719944Y-16152698D01*
X12719944Y-16152698D02*
X12729467Y-16162222D01*
X12729467Y-16162222D02*
X12738991Y-16181269D01*
X12738991Y-16181269D02*
X12738991Y-16228888D01*
X12738991Y-16228888D02*
X12729467Y-16247936D01*
X12729467Y-16247936D02*
X12719944Y-16257460D01*
X12719944Y-16257460D02*
X12700896Y-16266984D01*
X12700896Y-16266984D02*
X12643753Y-16266984D01*
X12643753Y-16266984D02*
X12624706Y-16257460D01*
X12624706Y-16257460D02*
X12615182Y-16247936D01*
X12834229Y-16266984D02*
X12872325Y-16266984D01*
X12872325Y-16266984D02*
X12891372Y-16257460D01*
X12891372Y-16257460D02*
X12900896Y-16247936D01*
X12900896Y-16247936D02*
X12919944Y-16219365D01*
X12919944Y-16219365D02*
X12929467Y-16181269D01*
X12929467Y-16181269D02*
X12929467Y-16105079D01*
X12929467Y-16105079D02*
X12919944Y-16086031D01*
X12919944Y-16086031D02*
X12910420Y-16076508D01*
X12910420Y-16076508D02*
X12891372Y-16066984D01*
X12891372Y-16066984D02*
X12853277Y-16066984D01*
X12853277Y-16066984D02*
X12834229Y-16076508D01*
X12834229Y-16076508D02*
X12824706Y-16086031D01*
X12824706Y-16086031D02*
X12815182Y-16105079D01*
X12815182Y-16105079D02*
X12815182Y-16152698D01*
X12815182Y-16152698D02*
X12824706Y-16171746D01*
X12824706Y-16171746D02*
X12834229Y-16181269D01*
X12834229Y-16181269D02*
X12853277Y-16190793D01*
X12853277Y-16190793D02*
X12891372Y-16190793D01*
X12891372Y-16190793D02*
X12910420Y-16181269D01*
X12910420Y-16181269D02*
X12919944Y-16171746D01*
X12919944Y-16171746D02*
X12929467Y-16152698D01*
X13100896Y-16133650D02*
X13100896Y-16266984D01*
X13053277Y-16057460D02*
X13005658Y-16200317D01*
X13005658Y-16200317D02*
X13129467Y-16200317D01*
X13196134Y-16066984D02*
X13196134Y-16105079D01*
X13272325Y-16066984D02*
X13272325Y-16105079D01*
X13567563Y-16343174D02*
X13558039Y-16333650D01*
X13558039Y-16333650D02*
X13538991Y-16305079D01*
X13538991Y-16305079D02*
X13529468Y-16286031D01*
X13529468Y-16286031D02*
X13519944Y-16257460D01*
X13519944Y-16257460D02*
X13510420Y-16209841D01*
X13510420Y-16209841D02*
X13510420Y-16171746D01*
X13510420Y-16171746D02*
X13519944Y-16124127D01*
X13519944Y-16124127D02*
X13529468Y-16095555D01*
X13529468Y-16095555D02*
X13538991Y-16076508D01*
X13538991Y-16076508D02*
X13558039Y-16047936D01*
X13558039Y-16047936D02*
X13567563Y-16038412D01*
X13748515Y-16266984D02*
X13634229Y-16266984D01*
X13691372Y-16266984D02*
X13691372Y-16066984D01*
X13691372Y-16066984D02*
X13672325Y-16095555D01*
X13672325Y-16095555D02*
X13653277Y-16114603D01*
X13653277Y-16114603D02*
X13634229Y-16124127D01*
X13938991Y-16266984D02*
X13824706Y-16266984D01*
X13881848Y-16266984D02*
X13881848Y-16066984D01*
X13881848Y-16066984D02*
X13862801Y-16095555D01*
X13862801Y-16095555D02*
X13843753Y-16114603D01*
X13843753Y-16114603D02*
X13824706Y-16124127D01*
X14005658Y-16066984D02*
X14138991Y-16066984D01*
X14138991Y-16066984D02*
X14053277Y-16266984D01*
X14367563Y-16266984D02*
X14367563Y-16066984D01*
X14453277Y-16266984D02*
X14453277Y-16162222D01*
X14453277Y-16162222D02*
X14443753Y-16143174D01*
X14443753Y-16143174D02*
X14424706Y-16133650D01*
X14424706Y-16133650D02*
X14396134Y-16133650D01*
X14396134Y-16133650D02*
X14377087Y-16143174D01*
X14377087Y-16143174D02*
X14367563Y-16152698D01*
X14577087Y-16266984D02*
X14558039Y-16257460D01*
X14558039Y-16257460D02*
X14548515Y-16247936D01*
X14548515Y-16247936D02*
X14538991Y-16228888D01*
X14538991Y-16228888D02*
X14538991Y-16171746D01*
X14538991Y-16171746D02*
X14548515Y-16152698D01*
X14548515Y-16152698D02*
X14558039Y-16143174D01*
X14558039Y-16143174D02*
X14577087Y-16133650D01*
X14577087Y-16133650D02*
X14605658Y-16133650D01*
X14605658Y-16133650D02*
X14624706Y-16143174D01*
X14624706Y-16143174D02*
X14634230Y-16152698D01*
X14634230Y-16152698D02*
X14643753Y-16171746D01*
X14643753Y-16171746D02*
X14643753Y-16228888D01*
X14643753Y-16228888D02*
X14634230Y-16247936D01*
X14634230Y-16247936D02*
X14624706Y-16257460D01*
X14624706Y-16257460D02*
X14605658Y-16266984D01*
X14605658Y-16266984D02*
X14577087Y-16266984D01*
X14758039Y-16266984D02*
X14738991Y-16257460D01*
X14738991Y-16257460D02*
X14729468Y-16238412D01*
X14729468Y-16238412D02*
X14729468Y-16066984D01*
X14910420Y-16257460D02*
X14891372Y-16266984D01*
X14891372Y-16266984D02*
X14853277Y-16266984D01*
X14853277Y-16266984D02*
X14834230Y-16257460D01*
X14834230Y-16257460D02*
X14824706Y-16238412D01*
X14824706Y-16238412D02*
X14824706Y-16162222D01*
X14824706Y-16162222D02*
X14834230Y-16143174D01*
X14834230Y-16143174D02*
X14853277Y-16133650D01*
X14853277Y-16133650D02*
X14891372Y-16133650D01*
X14891372Y-16133650D02*
X14910420Y-16143174D01*
X14910420Y-16143174D02*
X14919944Y-16162222D01*
X14919944Y-16162222D02*
X14919944Y-16181269D01*
X14919944Y-16181269D02*
X14824706Y-16200317D01*
X14996134Y-16257460D02*
X15015182Y-16266984D01*
X15015182Y-16266984D02*
X15053277Y-16266984D01*
X15053277Y-16266984D02*
X15072325Y-16257460D01*
X15072325Y-16257460D02*
X15081849Y-16238412D01*
X15081849Y-16238412D02*
X15081849Y-16228888D01*
X15081849Y-16228888D02*
X15072325Y-16209841D01*
X15072325Y-16209841D02*
X15053277Y-16200317D01*
X15053277Y-16200317D02*
X15024706Y-16200317D01*
X15024706Y-16200317D02*
X15005658Y-16190793D01*
X15005658Y-16190793D02*
X14996134Y-16171746D01*
X14996134Y-16171746D02*
X14996134Y-16162222D01*
X14996134Y-16162222D02*
X15005658Y-16143174D01*
X15005658Y-16143174D02*
X15024706Y-16133650D01*
X15024706Y-16133650D02*
X15053277Y-16133650D01*
X15053277Y-16133650D02*
X15072325Y-16143174D01*
X15148515Y-16343174D02*
X15158039Y-16333650D01*
X15158039Y-16333650D02*
X15177087Y-16305079D01*
X15177087Y-16305079D02*
X15186611Y-16286031D01*
X15186611Y-16286031D02*
X15196134Y-16257460D01*
X15196134Y-16257460D02*
X15205658Y-16209841D01*
X15205658Y-16209841D02*
X15205658Y-16171746D01*
X15205658Y-16171746D02*
X15196134Y-16124127D01*
X15196134Y-16124127D02*
X15186611Y-16095555D01*
X15186611Y-16095555D02*
X15177087Y-16076508D01*
X15177087Y-16076508D02*
X15158039Y-16047936D01*
X15158039Y-16047936D02*
X15148515Y-16038412D01*
D13*
X9977621Y-16475421D02*
X9977621Y-16403579D01*
X9905779Y-16403579D01*
X9905779Y-16475421D01*
X9977621Y-16475421D01*
D11*
X10358039Y-16530984D02*
X10243753Y-16530984D01*
X10300896Y-16530984D02*
X10300896Y-16330984D01*
X10300896Y-16330984D02*
X10281848Y-16359555D01*
X10281848Y-16359555D02*
X10262801Y-16378603D01*
X10262801Y-16378603D02*
X10243753Y-16388127D01*
X10443753Y-16511936D02*
X10453277Y-16521460D01*
X10453277Y-16521460D02*
X10443753Y-16530984D01*
X10443753Y-16530984D02*
X10434229Y-16521460D01*
X10434229Y-16521460D02*
X10443753Y-16511936D01*
X10443753Y-16511936D02*
X10443753Y-16530984D01*
X10577086Y-16330984D02*
X10596134Y-16330984D01*
X10596134Y-16330984D02*
X10615182Y-16340508D01*
X10615182Y-16340508D02*
X10624705Y-16350031D01*
X10624705Y-16350031D02*
X10634229Y-16369079D01*
X10634229Y-16369079D02*
X10643753Y-16407174D01*
X10643753Y-16407174D02*
X10643753Y-16454793D01*
X10643753Y-16454793D02*
X10634229Y-16492888D01*
X10634229Y-16492888D02*
X10624705Y-16511936D01*
X10624705Y-16511936D02*
X10615182Y-16521460D01*
X10615182Y-16521460D02*
X10596134Y-16530984D01*
X10596134Y-16530984D02*
X10577086Y-16530984D01*
X10577086Y-16530984D02*
X10558039Y-16521460D01*
X10558039Y-16521460D02*
X10548515Y-16511936D01*
X10548515Y-16511936D02*
X10538991Y-16492888D01*
X10538991Y-16492888D02*
X10529467Y-16454793D01*
X10529467Y-16454793D02*
X10529467Y-16407174D01*
X10529467Y-16407174D02*
X10538991Y-16369079D01*
X10538991Y-16369079D02*
X10548515Y-16350031D01*
X10548515Y-16350031D02*
X10558039Y-16340508D01*
X10558039Y-16340508D02*
X10577086Y-16330984D01*
X10834229Y-16530984D02*
X10719944Y-16530984D01*
X10777086Y-16530984D02*
X10777086Y-16330984D01*
X10777086Y-16330984D02*
X10758039Y-16359555D01*
X10758039Y-16359555D02*
X10738991Y-16378603D01*
X10738991Y-16378603D02*
X10719944Y-16388127D01*
X11005658Y-16330984D02*
X10967563Y-16330984D01*
X10967563Y-16330984D02*
X10948515Y-16340508D01*
X10948515Y-16340508D02*
X10938991Y-16350031D01*
X10938991Y-16350031D02*
X10919944Y-16378603D01*
X10919944Y-16378603D02*
X10910420Y-16416698D01*
X10910420Y-16416698D02*
X10910420Y-16492888D01*
X10910420Y-16492888D02*
X10919944Y-16511936D01*
X10919944Y-16511936D02*
X10929467Y-16521460D01*
X10929467Y-16521460D02*
X10948515Y-16530984D01*
X10948515Y-16530984D02*
X10986610Y-16530984D01*
X10986610Y-16530984D02*
X11005658Y-16521460D01*
X11005658Y-16521460D02*
X11015182Y-16511936D01*
X11015182Y-16511936D02*
X11024705Y-16492888D01*
X11024705Y-16492888D02*
X11024705Y-16445269D01*
X11024705Y-16445269D02*
X11015182Y-16426222D01*
X11015182Y-16426222D02*
X11005658Y-16416698D01*
X11005658Y-16416698D02*
X10986610Y-16407174D01*
X10986610Y-16407174D02*
X10948515Y-16407174D01*
X10948515Y-16407174D02*
X10929467Y-16416698D01*
X10929467Y-16416698D02*
X10919944Y-16426222D01*
X10919944Y-16426222D02*
X10910420Y-16445269D01*
X11110420Y-16530984D02*
X11110420Y-16397650D01*
X11110420Y-16416698D02*
X11119944Y-16407174D01*
X11119944Y-16407174D02*
X11138991Y-16397650D01*
X11138991Y-16397650D02*
X11167563Y-16397650D01*
X11167563Y-16397650D02*
X11186610Y-16407174D01*
X11186610Y-16407174D02*
X11196134Y-16426222D01*
X11196134Y-16426222D02*
X11196134Y-16530984D01*
X11196134Y-16426222D02*
X11205658Y-16407174D01*
X11205658Y-16407174D02*
X11224705Y-16397650D01*
X11224705Y-16397650D02*
X11253277Y-16397650D01*
X11253277Y-16397650D02*
X11272324Y-16407174D01*
X11272324Y-16407174D02*
X11281848Y-16426222D01*
X11281848Y-16426222D02*
X11281848Y-16530984D01*
X11377086Y-16530984D02*
X11377086Y-16397650D01*
X11377086Y-16416698D02*
X11386610Y-16407174D01*
X11386610Y-16407174D02*
X11405658Y-16397650D01*
X11405658Y-16397650D02*
X11434229Y-16397650D01*
X11434229Y-16397650D02*
X11453277Y-16407174D01*
X11453277Y-16407174D02*
X11462801Y-16426222D01*
X11462801Y-16426222D02*
X11462801Y-16530984D01*
X11462801Y-16426222D02*
X11472324Y-16407174D01*
X11472324Y-16407174D02*
X11491372Y-16397650D01*
X11491372Y-16397650D02*
X11519943Y-16397650D01*
X11519943Y-16397650D02*
X11538991Y-16407174D01*
X11538991Y-16407174D02*
X11548515Y-16426222D01*
X11548515Y-16426222D02*
X11548515Y-16530984D01*
X11938991Y-16321460D02*
X11767563Y-16578603D01*
X12196134Y-16330984D02*
X12215182Y-16330984D01*
X12215182Y-16330984D02*
X12234229Y-16340508D01*
X12234229Y-16340508D02*
X12243753Y-16350031D01*
X12243753Y-16350031D02*
X12253277Y-16369079D01*
X12253277Y-16369079D02*
X12262801Y-16407174D01*
X12262801Y-16407174D02*
X12262801Y-16454793D01*
X12262801Y-16454793D02*
X12253277Y-16492888D01*
X12253277Y-16492888D02*
X12243753Y-16511936D01*
X12243753Y-16511936D02*
X12234229Y-16521460D01*
X12234229Y-16521460D02*
X12215182Y-16530984D01*
X12215182Y-16530984D02*
X12196134Y-16530984D01*
X12196134Y-16530984D02*
X12177086Y-16521460D01*
X12177086Y-16521460D02*
X12167563Y-16511936D01*
X12167563Y-16511936D02*
X12158039Y-16492888D01*
X12158039Y-16492888D02*
X12148515Y-16454793D01*
X12148515Y-16454793D02*
X12148515Y-16407174D01*
X12148515Y-16407174D02*
X12158039Y-16369079D01*
X12158039Y-16369079D02*
X12167563Y-16350031D01*
X12167563Y-16350031D02*
X12177086Y-16340508D01*
X12177086Y-16340508D02*
X12196134Y-16330984D01*
X12348515Y-16511936D02*
X12358039Y-16521460D01*
X12358039Y-16521460D02*
X12348515Y-16530984D01*
X12348515Y-16530984D02*
X12338991Y-16521460D01*
X12338991Y-16521460D02*
X12348515Y-16511936D01*
X12348515Y-16511936D02*
X12348515Y-16530984D01*
X12481848Y-16330984D02*
X12500896Y-16330984D01*
X12500896Y-16330984D02*
X12519944Y-16340508D01*
X12519944Y-16340508D02*
X12529467Y-16350031D01*
X12529467Y-16350031D02*
X12538991Y-16369079D01*
X12538991Y-16369079D02*
X12548515Y-16407174D01*
X12548515Y-16407174D02*
X12548515Y-16454793D01*
X12548515Y-16454793D02*
X12538991Y-16492888D01*
X12538991Y-16492888D02*
X12529467Y-16511936D01*
X12529467Y-16511936D02*
X12519944Y-16521460D01*
X12519944Y-16521460D02*
X12500896Y-16530984D01*
X12500896Y-16530984D02*
X12481848Y-16530984D01*
X12481848Y-16530984D02*
X12462801Y-16521460D01*
X12462801Y-16521460D02*
X12453277Y-16511936D01*
X12453277Y-16511936D02*
X12443753Y-16492888D01*
X12443753Y-16492888D02*
X12434229Y-16454793D01*
X12434229Y-16454793D02*
X12434229Y-16407174D01*
X12434229Y-16407174D02*
X12443753Y-16369079D01*
X12443753Y-16369079D02*
X12453277Y-16350031D01*
X12453277Y-16350031D02*
X12462801Y-16340508D01*
X12462801Y-16340508D02*
X12481848Y-16330984D01*
X12719944Y-16397650D02*
X12719944Y-16530984D01*
X12672325Y-16321460D02*
X12624706Y-16464317D01*
X12624706Y-16464317D02*
X12748515Y-16464317D01*
X12862801Y-16330984D02*
X12881848Y-16330984D01*
X12881848Y-16330984D02*
X12900896Y-16340508D01*
X12900896Y-16340508D02*
X12910420Y-16350031D01*
X12910420Y-16350031D02*
X12919944Y-16369079D01*
X12919944Y-16369079D02*
X12929467Y-16407174D01*
X12929467Y-16407174D02*
X12929467Y-16454793D01*
X12929467Y-16454793D02*
X12919944Y-16492888D01*
X12919944Y-16492888D02*
X12910420Y-16511936D01*
X12910420Y-16511936D02*
X12900896Y-16521460D01*
X12900896Y-16521460D02*
X12881848Y-16530984D01*
X12881848Y-16530984D02*
X12862801Y-16530984D01*
X12862801Y-16530984D02*
X12843753Y-16521460D01*
X12843753Y-16521460D02*
X12834229Y-16511936D01*
X12834229Y-16511936D02*
X12824706Y-16492888D01*
X12824706Y-16492888D02*
X12815182Y-16454793D01*
X12815182Y-16454793D02*
X12815182Y-16407174D01*
X12815182Y-16407174D02*
X12824706Y-16369079D01*
X12824706Y-16369079D02*
X12834229Y-16350031D01*
X12834229Y-16350031D02*
X12843753Y-16340508D01*
X12843753Y-16340508D02*
X12862801Y-16330984D01*
X13053277Y-16330984D02*
X13072325Y-16330984D01*
X13072325Y-16330984D02*
X13091372Y-16340508D01*
X13091372Y-16340508D02*
X13100896Y-16350031D01*
X13100896Y-16350031D02*
X13110420Y-16369079D01*
X13110420Y-16369079D02*
X13119944Y-16407174D01*
X13119944Y-16407174D02*
X13119944Y-16454793D01*
X13119944Y-16454793D02*
X13110420Y-16492888D01*
X13110420Y-16492888D02*
X13100896Y-16511936D01*
X13100896Y-16511936D02*
X13091372Y-16521460D01*
X13091372Y-16521460D02*
X13072325Y-16530984D01*
X13072325Y-16530984D02*
X13053277Y-16530984D01*
X13053277Y-16530984D02*
X13034229Y-16521460D01*
X13034229Y-16521460D02*
X13024706Y-16511936D01*
X13024706Y-16511936D02*
X13015182Y-16492888D01*
X13015182Y-16492888D02*
X13005658Y-16454793D01*
X13005658Y-16454793D02*
X13005658Y-16407174D01*
X13005658Y-16407174D02*
X13015182Y-16369079D01*
X13015182Y-16369079D02*
X13024706Y-16350031D01*
X13024706Y-16350031D02*
X13034229Y-16340508D01*
X13034229Y-16340508D02*
X13053277Y-16330984D01*
X13196134Y-16330984D02*
X13196134Y-16369079D01*
X13272325Y-16330984D02*
X13272325Y-16369079D01*
X13567563Y-16607174D02*
X13558039Y-16597650D01*
X13558039Y-16597650D02*
X13538991Y-16569079D01*
X13538991Y-16569079D02*
X13529468Y-16550031D01*
X13529468Y-16550031D02*
X13519944Y-16521460D01*
X13519944Y-16521460D02*
X13510420Y-16473841D01*
X13510420Y-16473841D02*
X13510420Y-16435746D01*
X13510420Y-16435746D02*
X13519944Y-16388127D01*
X13519944Y-16388127D02*
X13529468Y-16359555D01*
X13529468Y-16359555D02*
X13538991Y-16340508D01*
X13538991Y-16340508D02*
X13558039Y-16311936D01*
X13558039Y-16311936D02*
X13567563Y-16302412D01*
X13729468Y-16397650D02*
X13729468Y-16530984D01*
X13681848Y-16321460D02*
X13634229Y-16464317D01*
X13634229Y-16464317D02*
X13758039Y-16464317D01*
X13824706Y-16350031D02*
X13834229Y-16340508D01*
X13834229Y-16340508D02*
X13853277Y-16330984D01*
X13853277Y-16330984D02*
X13900896Y-16330984D01*
X13900896Y-16330984D02*
X13919944Y-16340508D01*
X13919944Y-16340508D02*
X13929468Y-16350031D01*
X13929468Y-16350031D02*
X13938991Y-16369079D01*
X13938991Y-16369079D02*
X13938991Y-16388127D01*
X13938991Y-16388127D02*
X13929468Y-16416698D01*
X13929468Y-16416698D02*
X13815182Y-16530984D01*
X13815182Y-16530984D02*
X13938991Y-16530984D01*
X14177087Y-16530984D02*
X14177087Y-16330984D01*
X14262801Y-16530984D02*
X14262801Y-16426222D01*
X14262801Y-16426222D02*
X14253277Y-16407174D01*
X14253277Y-16407174D02*
X14234230Y-16397650D01*
X14234230Y-16397650D02*
X14205658Y-16397650D01*
X14205658Y-16397650D02*
X14186610Y-16407174D01*
X14186610Y-16407174D02*
X14177087Y-16416698D01*
X14386610Y-16530984D02*
X14367563Y-16521460D01*
X14367563Y-16521460D02*
X14358039Y-16511936D01*
X14358039Y-16511936D02*
X14348515Y-16492888D01*
X14348515Y-16492888D02*
X14348515Y-16435746D01*
X14348515Y-16435746D02*
X14358039Y-16416698D01*
X14358039Y-16416698D02*
X14367563Y-16407174D01*
X14367563Y-16407174D02*
X14386610Y-16397650D01*
X14386610Y-16397650D02*
X14415182Y-16397650D01*
X14415182Y-16397650D02*
X14434230Y-16407174D01*
X14434230Y-16407174D02*
X14443753Y-16416698D01*
X14443753Y-16416698D02*
X14453277Y-16435746D01*
X14453277Y-16435746D02*
X14453277Y-16492888D01*
X14453277Y-16492888D02*
X14443753Y-16511936D01*
X14443753Y-16511936D02*
X14434230Y-16521460D01*
X14434230Y-16521460D02*
X14415182Y-16530984D01*
X14415182Y-16530984D02*
X14386610Y-16530984D01*
X14567563Y-16530984D02*
X14548515Y-16521460D01*
X14548515Y-16521460D02*
X14538991Y-16502412D01*
X14538991Y-16502412D02*
X14538991Y-16330984D01*
X14719944Y-16521460D02*
X14700896Y-16530984D01*
X14700896Y-16530984D02*
X14662801Y-16530984D01*
X14662801Y-16530984D02*
X14643753Y-16521460D01*
X14643753Y-16521460D02*
X14634230Y-16502412D01*
X14634230Y-16502412D02*
X14634230Y-16426222D01*
X14634230Y-16426222D02*
X14643753Y-16407174D01*
X14643753Y-16407174D02*
X14662801Y-16397650D01*
X14662801Y-16397650D02*
X14700896Y-16397650D01*
X14700896Y-16397650D02*
X14719944Y-16407174D01*
X14719944Y-16407174D02*
X14729468Y-16426222D01*
X14729468Y-16426222D02*
X14729468Y-16445269D01*
X14729468Y-16445269D02*
X14634230Y-16464317D01*
X14805658Y-16521460D02*
X14824706Y-16530984D01*
X14824706Y-16530984D02*
X14862801Y-16530984D01*
X14862801Y-16530984D02*
X14881849Y-16521460D01*
X14881849Y-16521460D02*
X14891372Y-16502412D01*
X14891372Y-16502412D02*
X14891372Y-16492888D01*
X14891372Y-16492888D02*
X14881849Y-16473841D01*
X14881849Y-16473841D02*
X14862801Y-16464317D01*
X14862801Y-16464317D02*
X14834230Y-16464317D01*
X14834230Y-16464317D02*
X14815182Y-16454793D01*
X14815182Y-16454793D02*
X14805658Y-16435746D01*
X14805658Y-16435746D02*
X14805658Y-16426222D01*
X14805658Y-16426222D02*
X14815182Y-16407174D01*
X14815182Y-16407174D02*
X14834230Y-16397650D01*
X14834230Y-16397650D02*
X14862801Y-16397650D01*
X14862801Y-16397650D02*
X14881849Y-16407174D01*
X14958039Y-16607174D02*
X14967563Y-16597650D01*
X14967563Y-16597650D02*
X14986611Y-16569079D01*
X14986611Y-16569079D02*
X14996134Y-16550031D01*
X14996134Y-16550031D02*
X15005658Y-16521460D01*
X15005658Y-16521460D02*
X15015182Y-16473841D01*
X15015182Y-16473841D02*
X15015182Y-16435746D01*
X15015182Y-16435746D02*
X15005658Y-16388127D01*
X15005658Y-16388127D02*
X14996134Y-16359555D01*
X14996134Y-16359555D02*
X14986611Y-16340508D01*
X14986611Y-16340508D02*
X14967563Y-16311936D01*
X14967563Y-16311936D02*
X14958039Y-16302412D01*
D14*
X9941500Y-16754500D02*
X9992500Y-16703500D01*
X9941500Y-16652500D01*
X9890500Y-16703500D01*
X9941500Y-16754500D01*
D11*
X10358039Y-16794984D02*
X10243753Y-16794984D01*
X10300896Y-16794984D02*
X10300896Y-16594984D01*
X10300896Y-16594984D02*
X10281848Y-16623555D01*
X10281848Y-16623555D02*
X10262801Y-16642603D01*
X10262801Y-16642603D02*
X10243753Y-16652127D01*
X10443753Y-16775936D02*
X10453277Y-16785460D01*
X10453277Y-16785460D02*
X10443753Y-16794984D01*
X10443753Y-16794984D02*
X10434229Y-16785460D01*
X10434229Y-16785460D02*
X10443753Y-16775936D01*
X10443753Y-16775936D02*
X10443753Y-16794984D01*
X10577086Y-16594984D02*
X10596134Y-16594984D01*
X10596134Y-16594984D02*
X10615182Y-16604508D01*
X10615182Y-16604508D02*
X10624705Y-16614031D01*
X10624705Y-16614031D02*
X10634229Y-16633079D01*
X10634229Y-16633079D02*
X10643753Y-16671174D01*
X10643753Y-16671174D02*
X10643753Y-16718793D01*
X10643753Y-16718793D02*
X10634229Y-16756888D01*
X10634229Y-16756888D02*
X10624705Y-16775936D01*
X10624705Y-16775936D02*
X10615182Y-16785460D01*
X10615182Y-16785460D02*
X10596134Y-16794984D01*
X10596134Y-16794984D02*
X10577086Y-16794984D01*
X10577086Y-16794984D02*
X10558039Y-16785460D01*
X10558039Y-16785460D02*
X10548515Y-16775936D01*
X10548515Y-16775936D02*
X10538991Y-16756888D01*
X10538991Y-16756888D02*
X10529467Y-16718793D01*
X10529467Y-16718793D02*
X10529467Y-16671174D01*
X10529467Y-16671174D02*
X10538991Y-16633079D01*
X10538991Y-16633079D02*
X10548515Y-16614031D01*
X10548515Y-16614031D02*
X10558039Y-16604508D01*
X10558039Y-16604508D02*
X10577086Y-16594984D01*
X10719944Y-16614031D02*
X10729467Y-16604508D01*
X10729467Y-16604508D02*
X10748515Y-16594984D01*
X10748515Y-16594984D02*
X10796134Y-16594984D01*
X10796134Y-16594984D02*
X10815182Y-16604508D01*
X10815182Y-16604508D02*
X10824705Y-16614031D01*
X10824705Y-16614031D02*
X10834229Y-16633079D01*
X10834229Y-16633079D02*
X10834229Y-16652127D01*
X10834229Y-16652127D02*
X10824705Y-16680698D01*
X10824705Y-16680698D02*
X10710420Y-16794984D01*
X10710420Y-16794984D02*
X10834229Y-16794984D01*
X10958039Y-16594984D02*
X10977086Y-16594984D01*
X10977086Y-16594984D02*
X10996134Y-16604508D01*
X10996134Y-16604508D02*
X11005658Y-16614031D01*
X11005658Y-16614031D02*
X11015182Y-16633079D01*
X11015182Y-16633079D02*
X11024705Y-16671174D01*
X11024705Y-16671174D02*
X11024705Y-16718793D01*
X11024705Y-16718793D02*
X11015182Y-16756888D01*
X11015182Y-16756888D02*
X11005658Y-16775936D01*
X11005658Y-16775936D02*
X10996134Y-16785460D01*
X10996134Y-16785460D02*
X10977086Y-16794984D01*
X10977086Y-16794984D02*
X10958039Y-16794984D01*
X10958039Y-16794984D02*
X10938991Y-16785460D01*
X10938991Y-16785460D02*
X10929467Y-16775936D01*
X10929467Y-16775936D02*
X10919944Y-16756888D01*
X10919944Y-16756888D02*
X10910420Y-16718793D01*
X10910420Y-16718793D02*
X10910420Y-16671174D01*
X10910420Y-16671174D02*
X10919944Y-16633079D01*
X10919944Y-16633079D02*
X10929467Y-16614031D01*
X10929467Y-16614031D02*
X10938991Y-16604508D01*
X10938991Y-16604508D02*
X10958039Y-16594984D01*
X11110420Y-16794984D02*
X11110420Y-16661650D01*
X11110420Y-16680698D02*
X11119944Y-16671174D01*
X11119944Y-16671174D02*
X11138991Y-16661650D01*
X11138991Y-16661650D02*
X11167563Y-16661650D01*
X11167563Y-16661650D02*
X11186610Y-16671174D01*
X11186610Y-16671174D02*
X11196134Y-16690222D01*
X11196134Y-16690222D02*
X11196134Y-16794984D01*
X11196134Y-16690222D02*
X11205658Y-16671174D01*
X11205658Y-16671174D02*
X11224705Y-16661650D01*
X11224705Y-16661650D02*
X11253277Y-16661650D01*
X11253277Y-16661650D02*
X11272324Y-16671174D01*
X11272324Y-16671174D02*
X11281848Y-16690222D01*
X11281848Y-16690222D02*
X11281848Y-16794984D01*
X11377086Y-16794984D02*
X11377086Y-16661650D01*
X11377086Y-16680698D02*
X11386610Y-16671174D01*
X11386610Y-16671174D02*
X11405658Y-16661650D01*
X11405658Y-16661650D02*
X11434229Y-16661650D01*
X11434229Y-16661650D02*
X11453277Y-16671174D01*
X11453277Y-16671174D02*
X11462801Y-16690222D01*
X11462801Y-16690222D02*
X11462801Y-16794984D01*
X11462801Y-16690222D02*
X11472324Y-16671174D01*
X11472324Y-16671174D02*
X11491372Y-16661650D01*
X11491372Y-16661650D02*
X11519943Y-16661650D01*
X11519943Y-16661650D02*
X11538991Y-16671174D01*
X11538991Y-16671174D02*
X11548515Y-16690222D01*
X11548515Y-16690222D02*
X11548515Y-16794984D01*
X11938991Y-16585460D02*
X11767563Y-16842603D01*
X12196134Y-16594984D02*
X12215182Y-16594984D01*
X12215182Y-16594984D02*
X12234229Y-16604508D01*
X12234229Y-16604508D02*
X12243753Y-16614031D01*
X12243753Y-16614031D02*
X12253277Y-16633079D01*
X12253277Y-16633079D02*
X12262801Y-16671174D01*
X12262801Y-16671174D02*
X12262801Y-16718793D01*
X12262801Y-16718793D02*
X12253277Y-16756888D01*
X12253277Y-16756888D02*
X12243753Y-16775936D01*
X12243753Y-16775936D02*
X12234229Y-16785460D01*
X12234229Y-16785460D02*
X12215182Y-16794984D01*
X12215182Y-16794984D02*
X12196134Y-16794984D01*
X12196134Y-16794984D02*
X12177086Y-16785460D01*
X12177086Y-16785460D02*
X12167563Y-16775936D01*
X12167563Y-16775936D02*
X12158039Y-16756888D01*
X12158039Y-16756888D02*
X12148515Y-16718793D01*
X12148515Y-16718793D02*
X12148515Y-16671174D01*
X12148515Y-16671174D02*
X12158039Y-16633079D01*
X12158039Y-16633079D02*
X12167563Y-16614031D01*
X12167563Y-16614031D02*
X12177086Y-16604508D01*
X12177086Y-16604508D02*
X12196134Y-16594984D01*
X12348515Y-16775936D02*
X12358039Y-16785460D01*
X12358039Y-16785460D02*
X12348515Y-16794984D01*
X12348515Y-16794984D02*
X12338991Y-16785460D01*
X12338991Y-16785460D02*
X12348515Y-16775936D01*
X12348515Y-16775936D02*
X12348515Y-16794984D01*
X12481848Y-16594984D02*
X12500896Y-16594984D01*
X12500896Y-16594984D02*
X12519944Y-16604508D01*
X12519944Y-16604508D02*
X12529467Y-16614031D01*
X12529467Y-16614031D02*
X12538991Y-16633079D01*
X12538991Y-16633079D02*
X12548515Y-16671174D01*
X12548515Y-16671174D02*
X12548515Y-16718793D01*
X12548515Y-16718793D02*
X12538991Y-16756888D01*
X12538991Y-16756888D02*
X12529467Y-16775936D01*
X12529467Y-16775936D02*
X12519944Y-16785460D01*
X12519944Y-16785460D02*
X12500896Y-16794984D01*
X12500896Y-16794984D02*
X12481848Y-16794984D01*
X12481848Y-16794984D02*
X12462801Y-16785460D01*
X12462801Y-16785460D02*
X12453277Y-16775936D01*
X12453277Y-16775936D02*
X12443753Y-16756888D01*
X12443753Y-16756888D02*
X12434229Y-16718793D01*
X12434229Y-16718793D02*
X12434229Y-16671174D01*
X12434229Y-16671174D02*
X12443753Y-16633079D01*
X12443753Y-16633079D02*
X12453277Y-16614031D01*
X12453277Y-16614031D02*
X12462801Y-16604508D01*
X12462801Y-16604508D02*
X12481848Y-16594984D01*
X12719944Y-16661650D02*
X12719944Y-16794984D01*
X12672325Y-16585460D02*
X12624706Y-16728317D01*
X12624706Y-16728317D02*
X12748515Y-16728317D01*
X12862801Y-16594984D02*
X12881848Y-16594984D01*
X12881848Y-16594984D02*
X12900896Y-16604508D01*
X12900896Y-16604508D02*
X12910420Y-16614031D01*
X12910420Y-16614031D02*
X12919944Y-16633079D01*
X12919944Y-16633079D02*
X12929467Y-16671174D01*
X12929467Y-16671174D02*
X12929467Y-16718793D01*
X12929467Y-16718793D02*
X12919944Y-16756888D01*
X12919944Y-16756888D02*
X12910420Y-16775936D01*
X12910420Y-16775936D02*
X12900896Y-16785460D01*
X12900896Y-16785460D02*
X12881848Y-16794984D01*
X12881848Y-16794984D02*
X12862801Y-16794984D01*
X12862801Y-16794984D02*
X12843753Y-16785460D01*
X12843753Y-16785460D02*
X12834229Y-16775936D01*
X12834229Y-16775936D02*
X12824706Y-16756888D01*
X12824706Y-16756888D02*
X12815182Y-16718793D01*
X12815182Y-16718793D02*
X12815182Y-16671174D01*
X12815182Y-16671174D02*
X12824706Y-16633079D01*
X12824706Y-16633079D02*
X12834229Y-16614031D01*
X12834229Y-16614031D02*
X12843753Y-16604508D01*
X12843753Y-16604508D02*
X12862801Y-16594984D01*
X13005658Y-16614031D02*
X13015182Y-16604508D01*
X13015182Y-16604508D02*
X13034229Y-16594984D01*
X13034229Y-16594984D02*
X13081848Y-16594984D01*
X13081848Y-16594984D02*
X13100896Y-16604508D01*
X13100896Y-16604508D02*
X13110420Y-16614031D01*
X13110420Y-16614031D02*
X13119944Y-16633079D01*
X13119944Y-16633079D02*
X13119944Y-16652127D01*
X13119944Y-16652127D02*
X13110420Y-16680698D01*
X13110420Y-16680698D02*
X12996134Y-16794984D01*
X12996134Y-16794984D02*
X13119944Y-16794984D01*
X13196134Y-16594984D02*
X13196134Y-16633079D01*
X13272325Y-16594984D02*
X13272325Y-16633079D01*
X13567563Y-16871174D02*
X13558039Y-16861650D01*
X13558039Y-16861650D02*
X13538991Y-16833079D01*
X13538991Y-16833079D02*
X13529468Y-16814031D01*
X13529468Y-16814031D02*
X13519944Y-16785460D01*
X13519944Y-16785460D02*
X13510420Y-16737841D01*
X13510420Y-16737841D02*
X13510420Y-16699746D01*
X13510420Y-16699746D02*
X13519944Y-16652127D01*
X13519944Y-16652127D02*
X13529468Y-16623555D01*
X13529468Y-16623555D02*
X13538991Y-16604508D01*
X13538991Y-16604508D02*
X13558039Y-16575936D01*
X13558039Y-16575936D02*
X13567563Y-16566412D01*
X13624706Y-16594984D02*
X13758039Y-16594984D01*
X13758039Y-16594984D02*
X13672325Y-16794984D01*
X13872325Y-16594984D02*
X13891372Y-16594984D01*
X13891372Y-16594984D02*
X13910420Y-16604508D01*
X13910420Y-16604508D02*
X13919944Y-16614031D01*
X13919944Y-16614031D02*
X13929468Y-16633079D01*
X13929468Y-16633079D02*
X13938991Y-16671174D01*
X13938991Y-16671174D02*
X13938991Y-16718793D01*
X13938991Y-16718793D02*
X13929468Y-16756888D01*
X13929468Y-16756888D02*
X13919944Y-16775936D01*
X13919944Y-16775936D02*
X13910420Y-16785460D01*
X13910420Y-16785460D02*
X13891372Y-16794984D01*
X13891372Y-16794984D02*
X13872325Y-16794984D01*
X13872325Y-16794984D02*
X13853277Y-16785460D01*
X13853277Y-16785460D02*
X13843753Y-16775936D01*
X13843753Y-16775936D02*
X13834229Y-16756888D01*
X13834229Y-16756888D02*
X13824706Y-16718793D01*
X13824706Y-16718793D02*
X13824706Y-16671174D01*
X13824706Y-16671174D02*
X13834229Y-16633079D01*
X13834229Y-16633079D02*
X13843753Y-16614031D01*
X13843753Y-16614031D02*
X13853277Y-16604508D01*
X13853277Y-16604508D02*
X13872325Y-16594984D01*
X14177087Y-16794984D02*
X14177087Y-16594984D01*
X14262801Y-16794984D02*
X14262801Y-16690222D01*
X14262801Y-16690222D02*
X14253277Y-16671174D01*
X14253277Y-16671174D02*
X14234230Y-16661650D01*
X14234230Y-16661650D02*
X14205658Y-16661650D01*
X14205658Y-16661650D02*
X14186610Y-16671174D01*
X14186610Y-16671174D02*
X14177087Y-16680698D01*
X14386610Y-16794984D02*
X14367563Y-16785460D01*
X14367563Y-16785460D02*
X14358039Y-16775936D01*
X14358039Y-16775936D02*
X14348515Y-16756888D01*
X14348515Y-16756888D02*
X14348515Y-16699746D01*
X14348515Y-16699746D02*
X14358039Y-16680698D01*
X14358039Y-16680698D02*
X14367563Y-16671174D01*
X14367563Y-16671174D02*
X14386610Y-16661650D01*
X14386610Y-16661650D02*
X14415182Y-16661650D01*
X14415182Y-16661650D02*
X14434230Y-16671174D01*
X14434230Y-16671174D02*
X14443753Y-16680698D01*
X14443753Y-16680698D02*
X14453277Y-16699746D01*
X14453277Y-16699746D02*
X14453277Y-16756888D01*
X14453277Y-16756888D02*
X14443753Y-16775936D01*
X14443753Y-16775936D02*
X14434230Y-16785460D01*
X14434230Y-16785460D02*
X14415182Y-16794984D01*
X14415182Y-16794984D02*
X14386610Y-16794984D01*
X14567563Y-16794984D02*
X14548515Y-16785460D01*
X14548515Y-16785460D02*
X14538991Y-16766412D01*
X14538991Y-16766412D02*
X14538991Y-16594984D01*
X14719944Y-16785460D02*
X14700896Y-16794984D01*
X14700896Y-16794984D02*
X14662801Y-16794984D01*
X14662801Y-16794984D02*
X14643753Y-16785460D01*
X14643753Y-16785460D02*
X14634230Y-16766412D01*
X14634230Y-16766412D02*
X14634230Y-16690222D01*
X14634230Y-16690222D02*
X14643753Y-16671174D01*
X14643753Y-16671174D02*
X14662801Y-16661650D01*
X14662801Y-16661650D02*
X14700896Y-16661650D01*
X14700896Y-16661650D02*
X14719944Y-16671174D01*
X14719944Y-16671174D02*
X14729468Y-16690222D01*
X14729468Y-16690222D02*
X14729468Y-16709269D01*
X14729468Y-16709269D02*
X14634230Y-16728317D01*
X14805658Y-16785460D02*
X14824706Y-16794984D01*
X14824706Y-16794984D02*
X14862801Y-16794984D01*
X14862801Y-16794984D02*
X14881849Y-16785460D01*
X14881849Y-16785460D02*
X14891372Y-16766412D01*
X14891372Y-16766412D02*
X14891372Y-16756888D01*
X14891372Y-16756888D02*
X14881849Y-16737841D01*
X14881849Y-16737841D02*
X14862801Y-16728317D01*
X14862801Y-16728317D02*
X14834230Y-16728317D01*
X14834230Y-16728317D02*
X14815182Y-16718793D01*
X14815182Y-16718793D02*
X14805658Y-16699746D01*
X14805658Y-16699746D02*
X14805658Y-16690222D01*
X14805658Y-16690222D02*
X14815182Y-16671174D01*
X14815182Y-16671174D02*
X14834230Y-16661650D01*
X14834230Y-16661650D02*
X14862801Y-16661650D01*
X14862801Y-16661650D02*
X14881849Y-16671174D01*
X14958039Y-16871174D02*
X14967563Y-16861650D01*
X14967563Y-16861650D02*
X14986611Y-16833079D01*
X14986611Y-16833079D02*
X14996134Y-16814031D01*
X14996134Y-16814031D02*
X15005658Y-16785460D01*
X15005658Y-16785460D02*
X15015182Y-16737841D01*
X15015182Y-16737841D02*
X15015182Y-16699746D01*
X15015182Y-16699746D02*
X15005658Y-16652127D01*
X15005658Y-16652127D02*
X14996134Y-16623555D01*
X14996134Y-16623555D02*
X14986611Y-16604508D01*
X14986611Y-16604508D02*
X14967563Y-16575936D01*
X14967563Y-16575936D02*
X14958039Y-16566412D01*
M02*
