M48
; DRILL file {KiCad 7.0.11-7.0.11~ubuntu22.04.1} date qui 25 jul 2024 22:33:55
; FORMAT={-:-/ absolute / metric / decimal}
; #@! TF.CreationDate,2024-07-25T22:33:55-03:00
; #@! TF.GenerationSoftware,Kicad,Pcbnew,7.0.11-7.0.11~ubuntu22.04.1
; #@! TF.FileFunction,Plated,1,2,PTH
FMAT,2
METRIC
; #@! TA.AperFunction,Plated,PTH,ViaDrill
T1C0.600
; #@! TA.AperFunction,Plated,PTH,ComponentDrill
T2C0.787
; #@! TA.AperFunction,Plated,PTH,ComponentDrill
T3C0.800
; #@! TA.AperFunction,Plated,PTH,ComponentDrill
T4C0.900
; #@! TA.AperFunction,Plated,PTH,ComponentDrill
T5C1.000
; #@! TA.AperFunction,Plated,PTH,ComponentDrill
T6C1.016
; #@! TA.AperFunction,Plated,PTH,ComponentDrill
T7C1.020
%
G90
G05
T1
X107.168Y-92.753
X114.09Y-81.109
X114.3Y-88.646
X114.629Y-71.59
X116.35Y-115.75
X117.951Y-108.477
X120.184Y-72.461
X120.9Y-74.574
X121.129Y-66.673
X122.1Y-103.4
X123.684Y-125.154
X123.852Y-72.567
X123.943Y-68.989
X127.36Y-61.689
X129.512Y-119.086
X131.6Y-100.3
X132.186Y-66.23
X132.588Y-118.872
X135.95Y-105.7
X140.109Y-78.141
X140.716Y-114.808
X140.95Y-134.85
X143.8Y-64.698
X144.018Y-139.446
X145.35Y-105.75
X145.866Y-76.036
X149.416Y-118.961
X151.799Y-92.661
X152.85Y-100.0
X156.403Y-89.049
X159.998Y-112.737
X161.811Y-106.19
X163.3Y-98.0
X165.092Y-72.442
X168.1Y-116.5
X169.972Y-78.4
X172.498Y-74.463
X174.5Y-130.65
X174.55Y-133.7
X174.889Y-140.901
X175.671Y-137.283
X177.8Y-141.986
X177.987Y-105.19
X178.9Y-109.85
X181.137Y-118.88
X186.69Y-147.32
T2
X110.29Y-70.71
X110.29Y-73.25
X110.29Y-75.79
X110.29Y-78.33
X110.29Y-80.87
X110.29Y-83.41
X110.29Y-85.95
X110.29Y-88.49
X117.91Y-70.71
X117.91Y-73.25
X117.91Y-75.79
X117.91Y-78.33
X117.91Y-80.87
X117.91Y-83.41
X117.91Y-85.95
X117.91Y-88.49
X118.0Y-118.61
X118.0Y-121.15
X118.0Y-123.69
X118.0Y-126.23
X118.0Y-128.77
X118.0Y-131.31
X118.0Y-133.85
X118.0Y-136.39
X122.38Y-62.42
X122.38Y-64.96
X122.38Y-67.5
X122.38Y-70.04
X122.38Y-72.58
X122.38Y-75.12
X122.38Y-77.66
X122.38Y-80.2
X125.62Y-118.61
X125.62Y-121.15
X125.62Y-123.69
X125.62Y-126.23
X125.62Y-128.77
X125.62Y-131.31
X125.62Y-133.85
X125.62Y-136.39
X130.0Y-62.42
X130.0Y-64.96
X130.0Y-67.5
X130.0Y-70.04
X130.0Y-72.58
X130.0Y-75.12
X130.0Y-77.66
X130.0Y-80.2
X130.19Y-121.76
X130.19Y-124.3
X130.19Y-126.84
X130.19Y-129.38
X130.19Y-131.92
X130.19Y-134.46
X130.19Y-137.0
X130.19Y-139.54
X134.38Y-68.61
X134.38Y-71.15
X134.38Y-73.69
X134.38Y-76.23
X134.38Y-78.77
X134.38Y-81.31
X134.38Y-83.85
X134.38Y-86.39
X137.81Y-121.76
X137.81Y-124.3
X137.81Y-126.84
X137.81Y-129.38
X137.81Y-131.92
X137.81Y-134.46
X137.81Y-137.0
X137.81Y-139.54
X142.0Y-68.61
X142.0Y-71.15
X142.0Y-73.69
X142.0Y-76.23
X142.0Y-78.77
X142.0Y-81.31
X142.0Y-83.85
X142.0Y-86.39
X144.0Y-118.61
X144.0Y-121.15
X144.0Y-123.69
X144.0Y-126.23
X144.0Y-128.77
X144.0Y-131.31
X144.0Y-133.85
X144.0Y-136.39
X147.19Y-62.42
X147.19Y-64.96
X147.19Y-67.5
X147.19Y-70.04
X147.19Y-72.58
X147.19Y-75.12
X147.19Y-77.66
X147.19Y-80.2
X151.62Y-118.61
X151.62Y-121.15
X151.62Y-123.69
X151.62Y-126.23
X151.62Y-128.77
X151.62Y-131.31
X151.62Y-133.85
X151.62Y-136.39
X154.81Y-62.42
X154.81Y-64.96
X154.81Y-67.5
X154.81Y-70.04
X154.81Y-72.58
X154.81Y-75.12
X154.81Y-77.66
X154.81Y-80.2
X157.0Y-122.0
X157.0Y-124.54
X157.0Y-127.08
X157.0Y-129.62
X157.0Y-132.16
X157.0Y-134.7
X157.0Y-137.24
X157.0Y-139.78
X160.38Y-70.16
X160.38Y-72.7
X160.38Y-75.24
X160.38Y-77.78
X160.38Y-80.32
X160.38Y-82.86
X160.38Y-85.4
X160.38Y-87.94
X164.62Y-122.0
X164.62Y-124.54
X164.62Y-127.08
X164.62Y-129.62
X164.62Y-132.16
X164.62Y-134.7
X164.62Y-137.24
X164.62Y-139.78
X168.0Y-70.16
X168.0Y-72.7
X168.0Y-75.24
X168.0Y-77.78
X168.0Y-80.32
X168.0Y-82.86
X168.0Y-85.4
X168.0Y-87.94
X171.0Y-118.46
X171.0Y-121.0
X171.0Y-123.54
X171.0Y-126.08
X171.0Y-128.62
X171.0Y-131.16
X171.0Y-133.7
X171.0Y-136.24
X178.62Y-118.46
X178.62Y-121.0
X178.62Y-123.54
X178.62Y-126.08
X178.62Y-128.62
X178.62Y-131.16
X178.62Y-133.7
X178.62Y-136.24
T3
X108.09Y-60.45
X115.71Y-60.45
X121.74Y-86.3
X129.36Y-86.3
X159.94Y-62.25
X159.94Y-65.35
X167.56Y-62.25
X167.56Y-65.35
T4
X109.41Y-65.35
X111.95Y-65.35
X115.925Y-65.35
X118.465Y-65.35
X170.61Y-65.25
X173.15Y-65.25
X177.1Y-65.25
X179.64Y-65.25
T5
X110.0Y-108.42
X110.0Y-110.96
X110.0Y-113.5
X110.0Y-122.0
X110.0Y-125.963
X110.0Y-129.963
X112.54Y-122.0
X112.54Y-125.963
X112.54Y-129.963
X115.46Y-144.0
X115.46Y-146.54
X115.58Y-53.2
X115.58Y-55.74
X118.0Y-144.0
X118.0Y-146.54
X118.12Y-53.2
X118.12Y-55.74
X120.54Y-144.0
X120.54Y-146.54
X120.66Y-53.2
X120.66Y-55.74
X123.08Y-144.0
X123.08Y-146.54
X123.2Y-53.2
X123.2Y-55.74
X125.62Y-144.0
X125.62Y-146.54
X125.74Y-53.2
X125.74Y-55.74
X128.16Y-144.0
X128.16Y-146.54
X128.28Y-53.2
X128.28Y-55.74
X130.7Y-144.0
X130.7Y-146.54
X130.82Y-53.2
X130.82Y-55.74
X133.24Y-144.0
X133.24Y-146.54
X133.36Y-53.2
X133.36Y-55.74
X135.78Y-144.0
X135.78Y-146.54
X135.9Y-53.2
X135.9Y-55.74
X138.32Y-144.0
X138.32Y-146.54
X138.44Y-53.2
X138.44Y-55.74
X140.86Y-144.0
X140.86Y-146.54
X140.98Y-53.2
X140.98Y-55.74
X143.4Y-144.0
X143.4Y-146.54
X143.52Y-53.2
X143.52Y-55.74
X145.94Y-144.0
X145.94Y-146.54
X146.06Y-53.2
X146.06Y-55.74
X148.48Y-144.0
X148.48Y-146.54
X148.6Y-53.2
X148.6Y-55.74
X151.02Y-144.0
X151.02Y-146.54
X151.14Y-53.2
X151.14Y-55.74
X153.56Y-144.0
X153.56Y-146.54
X153.68Y-53.2
X153.68Y-55.74
X156.1Y-144.0
X156.1Y-146.54
X156.22Y-53.2
X156.22Y-55.74
X158.64Y-144.0
X158.64Y-146.54
X158.76Y-53.2
X158.76Y-55.74
X161.18Y-144.0
X161.18Y-146.54
X161.3Y-53.2
X161.3Y-55.74
X163.72Y-144.0
X163.72Y-146.54
X163.84Y-53.2
X163.84Y-55.74
X166.26Y-144.0
X166.26Y-146.54
X166.38Y-53.2
X166.38Y-55.74
X168.8Y-144.0
X168.8Y-146.54
X168.92Y-53.2
X168.92Y-55.74
X171.34Y-144.0
X171.34Y-146.54
X171.46Y-53.2
X171.46Y-55.74
X173.88Y-144.0
X173.88Y-146.54
X174.0Y-53.2
X174.0Y-55.74
X175.01Y-70.5
X175.01Y-74.463
X175.01Y-85.263
X175.01Y-88.863
X175.01Y-92.463
X175.029Y-78.4
X177.55Y-70.5
X177.55Y-74.463
X177.55Y-85.263
X177.55Y-88.863
X177.55Y-92.463
X177.569Y-78.4
T6
X119.901Y-94.76
X119.901Y-110.0
X122.441Y-94.76
X122.441Y-110.0
X124.981Y-94.76
X124.981Y-110.0
X127.521Y-94.76
X127.521Y-110.0
X130.061Y-94.76
X130.061Y-110.0
X132.601Y-94.76
X132.601Y-110.0
X135.141Y-94.76
X135.141Y-110.0
X137.681Y-94.76
X137.681Y-110.0
X140.221Y-94.76
X140.221Y-110.0
X142.761Y-94.76
X142.761Y-110.0
X145.301Y-94.76
X145.301Y-110.0
X147.841Y-94.76
X147.841Y-110.0
X150.381Y-94.76
X150.381Y-110.0
X152.921Y-94.76
X152.921Y-110.0
X155.461Y-94.76
X155.461Y-110.0
X158.001Y-94.76
X158.001Y-110.0
X160.541Y-94.76
X160.541Y-110.0
X163.081Y-94.76
X163.081Y-110.0
X164.351Y-101.12
X164.351Y-103.66
X165.621Y-94.76
X165.621Y-110.0
X168.161Y-94.76
X168.212Y-110.0
T7
X105.08Y-56.35
X105.08Y-58.89
X105.08Y-61.43
X105.08Y-63.97
X105.08Y-66.51
X105.08Y-69.05
X105.08Y-71.59
X105.08Y-74.13
X105.08Y-80.48
X105.08Y-83.02
X105.08Y-85.56
X105.08Y-88.1
X105.08Y-90.64
X105.08Y-93.18
X105.08Y-95.72
X105.08Y-98.26
X105.08Y-100.8
X105.08Y-103.34
X105.08Y-105.88
X105.08Y-108.42
X105.08Y-110.96
X105.08Y-113.5
X105.08Y-116.04
X105.08Y-118.58
X105.08Y-121.12
X105.08Y-123.66
X105.08Y-126.2
X105.08Y-128.74
X105.08Y-131.28
X105.08Y-133.82
X105.08Y-136.36
X105.08Y-138.9
X105.08Y-141.44
X105.08Y-143.98
X105.08Y-146.52
X183.82Y-56.35
X183.82Y-58.89
X183.82Y-61.43
X183.82Y-63.97
X183.82Y-66.51
X183.82Y-69.05
X183.82Y-71.59
X183.82Y-74.13
X183.82Y-76.67
X183.82Y-79.21
X183.82Y-81.75
X183.82Y-84.29
X183.82Y-86.83
X183.82Y-89.37
X183.82Y-91.91
X183.82Y-94.45
X183.82Y-96.99
X183.82Y-99.53
X183.82Y-102.07
X183.82Y-104.61
X183.82Y-107.15
X183.82Y-109.69
X183.82Y-112.23
X183.82Y-114.77
X183.82Y-117.31
X183.82Y-119.85
X183.82Y-122.39
X183.82Y-124.93
X183.82Y-127.47
X183.82Y-130.01
X183.82Y-132.55
X183.82Y-135.09
X183.82Y-137.63
X183.82Y-140.17
X183.82Y-142.71
M30
