G04 #@! TF.GenerationSoftware,KiCad,Pcbnew,7.0.11-7.0.11~ubuntu22.04.1*
G04 #@! TF.CreationDate,2024-07-25T22:33:36-03:00*
G04 #@! TF.ProjectId,Demux_V02,44656d75-785f-4563-9032-2e6b69636164,v04*
G04 #@! TF.SameCoordinates,Original*
G04 #@! TF.FileFunction,Soldermask,Top*
G04 #@! TF.FilePolarity,Negative*
%FSLAX46Y46*%
G04 Gerber Fmt 4.6, Leading zero omitted, Abs format (unit mm)*
G04 Created by KiCad (PCBNEW 7.0.11-7.0.11~ubuntu22.04.1) date 2024-07-25 22:33:36*
%MOMM*%
%LPD*%
G01*
G04 APERTURE LIST*
%ADD10R,1.295400X1.295400*%
%ADD11C,1.295400*%
%ADD12R,1.700000X1.700000*%
%ADD13O,1.700000X1.700000*%
%ADD14O,2.500000X1.800000*%
%ADD15C,1.600000*%
%ADD16O,1.600000X1.600000*%
%ADD17R,2.500000X1.800000*%
%ADD18R,1.800000X1.800000*%
%ADD19C,1.800000*%
%ADD20R,1.727200X2.250000*%
%ADD21O,1.727200X2.250000*%
%ADD22O,1.727200X1.727200*%
G04 APERTURE END LIST*
D10*
X160380000Y-70160000D03*
D11*
X160380000Y-72700000D03*
X160380000Y-75240000D03*
X160380000Y-77780000D03*
X160380000Y-80320000D03*
X160380000Y-82860000D03*
X160380000Y-85400000D03*
X160380000Y-87940000D03*
X168000000Y-87940000D03*
X168000000Y-85400000D03*
X168000000Y-82860000D03*
X168000000Y-80320000D03*
X168000000Y-77780000D03*
X168000000Y-75240000D03*
X168000000Y-72700000D03*
X168000000Y-70160000D03*
D12*
X110000000Y-125962900D03*
D13*
X112540000Y-125962900D03*
D12*
X110000000Y-129962900D03*
D13*
X112540000Y-129962900D03*
D10*
X117910000Y-88490000D03*
D11*
X117910000Y-85950000D03*
X117910000Y-83410000D03*
X117910000Y-80870000D03*
X117910000Y-78330000D03*
X117910000Y-75790000D03*
X117910000Y-73250000D03*
X117910000Y-70710000D03*
X110290000Y-70710000D03*
X110290000Y-73250000D03*
X110290000Y-75790000D03*
X110290000Y-78330000D03*
X110290000Y-80870000D03*
X110290000Y-83410000D03*
X110290000Y-85950000D03*
X110290000Y-88490000D03*
D12*
X115580000Y-55740000D03*
D13*
X118120000Y-55740000D03*
X120660000Y-55740000D03*
X123200000Y-55740000D03*
X125740000Y-55740000D03*
X128280000Y-55740000D03*
X130820000Y-55740000D03*
X133360000Y-55740000D03*
X135900000Y-55740000D03*
X138440000Y-55740000D03*
X140980000Y-55740000D03*
X143520000Y-55740000D03*
X146060000Y-55740000D03*
X148600000Y-55740000D03*
X151140000Y-55740000D03*
X153680000Y-55740000D03*
X156220000Y-55740000D03*
X158760000Y-55740000D03*
X161300000Y-55740000D03*
X163840000Y-55740000D03*
X166380000Y-55740000D03*
X168920000Y-55740000D03*
X171460000Y-55740000D03*
X174000000Y-55740000D03*
X115580000Y-53200000D03*
X118120000Y-53200000D03*
X120660000Y-53200000D03*
X123200000Y-53200000D03*
X125740000Y-53200000D03*
X128280000Y-53200000D03*
X130820000Y-53200000D03*
X133360000Y-53200000D03*
X135900000Y-53200000D03*
X138440000Y-53200000D03*
X140980000Y-53200000D03*
X143520000Y-53200000D03*
X146060000Y-53200000D03*
X148600000Y-53200000D03*
X151140000Y-53200000D03*
X153680000Y-53200000D03*
X156220000Y-53200000D03*
X158760000Y-53200000D03*
X161300000Y-53200000D03*
X163840000Y-53200000D03*
X166380000Y-53200000D03*
X168920000Y-53200000D03*
X171460000Y-53200000D03*
X174000000Y-53200000D03*
D12*
X177550000Y-85262900D03*
D13*
X175010000Y-85262900D03*
D12*
X115460000Y-146540000D03*
D13*
X118000000Y-146540000D03*
X120540000Y-146540000D03*
X123080000Y-146540000D03*
X125620000Y-146540000D03*
X128160000Y-146540000D03*
X130700000Y-146540000D03*
X133240000Y-146540000D03*
X135780000Y-146540000D03*
X138320000Y-146540000D03*
X140860000Y-146540000D03*
X143400000Y-146540000D03*
X145940000Y-146540000D03*
X148480000Y-146540000D03*
X151020000Y-146540000D03*
X153560000Y-146540000D03*
X156100000Y-146540000D03*
X158640000Y-146540000D03*
X161180000Y-146540000D03*
X163720000Y-146540000D03*
X166260000Y-146540000D03*
X168800000Y-146540000D03*
X171340000Y-146540000D03*
X173880000Y-146540000D03*
X115460000Y-144000000D03*
X118000000Y-144000000D03*
X120540000Y-144000000D03*
X123080000Y-144000000D03*
X125620000Y-144000000D03*
X128160000Y-144000000D03*
X130700000Y-144000000D03*
X133240000Y-144000000D03*
X135780000Y-144000000D03*
X138320000Y-144000000D03*
X140860000Y-144000000D03*
X143400000Y-144000000D03*
X145940000Y-144000000D03*
X148480000Y-144000000D03*
X151020000Y-144000000D03*
X153560000Y-144000000D03*
X156100000Y-144000000D03*
X158640000Y-144000000D03*
X161180000Y-144000000D03*
X163720000Y-144000000D03*
X166260000Y-144000000D03*
X168800000Y-144000000D03*
X171340000Y-144000000D03*
X173880000Y-144000000D03*
D12*
X177569300Y-78400000D03*
D13*
X175029300Y-78400000D03*
D14*
X183820000Y-56350000D03*
X183820000Y-58890000D03*
X183820000Y-61430000D03*
X183820000Y-63970000D03*
X183820000Y-66510000D03*
X183820000Y-69050000D03*
X183820000Y-71590000D03*
X183820000Y-74130000D03*
X183820000Y-76670000D03*
X183820000Y-79210000D03*
X183820000Y-81750000D03*
X183820000Y-84290000D03*
X183820000Y-86830000D03*
X183820000Y-89370000D03*
X183820000Y-91910000D03*
X183820000Y-94450000D03*
X183820000Y-96990000D03*
X183820000Y-99530000D03*
X183820000Y-102070000D03*
X183820000Y-104610000D03*
X183820000Y-107150000D03*
X183820000Y-109690000D03*
X183820000Y-112230000D03*
X183820000Y-114770000D03*
X183820000Y-117310000D03*
X183820000Y-119850000D03*
X183820000Y-122390000D03*
X183820000Y-124930000D03*
X183820000Y-127470000D03*
X183820000Y-130010000D03*
X183820000Y-132550000D03*
X183820000Y-135090000D03*
X183820000Y-137630000D03*
X183820000Y-140170000D03*
X183820000Y-142710000D03*
D15*
X159940000Y-65350000D03*
D16*
X167560000Y-65350000D03*
D10*
X134380000Y-68610000D03*
D11*
X134380000Y-71150000D03*
X134380000Y-73690000D03*
X134380000Y-76230000D03*
X134380000Y-78770000D03*
X134380000Y-81310000D03*
X134380000Y-83850000D03*
X134380000Y-86390000D03*
X142000000Y-86390000D03*
X142000000Y-83850000D03*
X142000000Y-81310000D03*
X142000000Y-78770000D03*
X142000000Y-76230000D03*
X142000000Y-73690000D03*
X142000000Y-71150000D03*
X142000000Y-68610000D03*
D10*
X122380000Y-62420000D03*
D11*
X122380000Y-64960000D03*
X122380000Y-67500000D03*
X122380000Y-70040000D03*
X122380000Y-72580000D03*
X122380000Y-75120000D03*
X122380000Y-77660000D03*
X122380000Y-80200000D03*
X130000000Y-80200000D03*
X130000000Y-77660000D03*
X130000000Y-75120000D03*
X130000000Y-72580000D03*
X130000000Y-70040000D03*
X130000000Y-67500000D03*
X130000000Y-64960000D03*
X130000000Y-62420000D03*
D12*
X177550000Y-74462900D03*
D13*
X175010000Y-74462900D03*
D10*
X171000000Y-118460000D03*
D11*
X171000000Y-121000000D03*
X171000000Y-123540000D03*
X171000000Y-126080000D03*
X171000000Y-128620000D03*
X171000000Y-131160000D03*
X171000000Y-133700000D03*
X171000000Y-136240000D03*
X178620000Y-136240000D03*
X178620000Y-133700000D03*
X178620000Y-131160000D03*
X178620000Y-128620000D03*
X178620000Y-126080000D03*
X178620000Y-123540000D03*
X178620000Y-121000000D03*
X178620000Y-118460000D03*
D12*
X110000000Y-113500000D03*
D13*
X110000000Y-110960000D03*
X110000000Y-108420000D03*
D10*
X151620000Y-136390000D03*
D11*
X151620000Y-133850000D03*
X151620000Y-131310000D03*
X151620000Y-128770000D03*
X151620000Y-126230000D03*
X151620000Y-123690000D03*
X151620000Y-121150000D03*
X151620000Y-118610000D03*
X144000000Y-118610000D03*
X144000000Y-121150000D03*
X144000000Y-123690000D03*
X144000000Y-126230000D03*
X144000000Y-128770000D03*
X144000000Y-131310000D03*
X144000000Y-133850000D03*
X144000000Y-136390000D03*
D12*
X110000000Y-122000000D03*
D13*
X112540000Y-122000000D03*
D17*
X105080000Y-56350000D03*
D14*
X105080000Y-58890000D03*
X105080000Y-61430000D03*
X105080000Y-63970000D03*
X105080000Y-66510000D03*
X105080000Y-69050000D03*
X105080000Y-71590000D03*
X105080000Y-74130000D03*
X105080000Y-80480000D03*
X105080000Y-83020000D03*
X105080000Y-85560000D03*
X105080000Y-88100000D03*
X105080000Y-90640000D03*
X105080000Y-93180000D03*
X105080000Y-95720000D03*
X105080000Y-98260000D03*
X105080000Y-100800000D03*
X105080000Y-103340000D03*
X105080000Y-105880000D03*
X105080000Y-108420000D03*
X105080000Y-110960000D03*
X105080000Y-113500000D03*
X105080000Y-116040000D03*
X105080000Y-118580000D03*
X105080000Y-121120000D03*
X105080000Y-123660000D03*
X105080000Y-126200000D03*
X105080000Y-128740000D03*
X105080000Y-131280000D03*
X105080000Y-133820000D03*
X105080000Y-136360000D03*
X105080000Y-138900000D03*
X105080000Y-141440000D03*
X105080000Y-143980000D03*
X105080000Y-146520000D03*
D15*
X121740000Y-86300000D03*
D16*
X129360000Y-86300000D03*
D18*
X170610000Y-65250000D03*
D19*
X173150000Y-65250000D03*
D18*
X109410000Y-65350000D03*
D19*
X111950000Y-65350000D03*
D18*
X115925000Y-65350000D03*
D19*
X118465000Y-65350000D03*
D15*
X159940000Y-62250000D03*
D16*
X167560000Y-62250000D03*
D15*
X108090000Y-60450000D03*
D16*
X115710000Y-60450000D03*
D10*
X164620000Y-139780000D03*
D11*
X164620000Y-137240000D03*
X164620000Y-134700000D03*
X164620000Y-132160000D03*
X164620000Y-129620000D03*
X164620000Y-127080000D03*
X164620000Y-124540000D03*
X164620000Y-122000000D03*
X157000000Y-122000000D03*
X157000000Y-124540000D03*
X157000000Y-127080000D03*
X157000000Y-129620000D03*
X157000000Y-132160000D03*
X157000000Y-134700000D03*
X157000000Y-137240000D03*
X157000000Y-139780000D03*
D10*
X147190000Y-62420000D03*
D11*
X147190000Y-64960000D03*
X147190000Y-67500000D03*
X147190000Y-70040000D03*
X147190000Y-72580000D03*
X147190000Y-75120000D03*
X147190000Y-77660000D03*
X147190000Y-80200000D03*
X154810000Y-80200000D03*
X154810000Y-77660000D03*
X154810000Y-75120000D03*
X154810000Y-72580000D03*
X154810000Y-70040000D03*
X154810000Y-67500000D03*
X154810000Y-64960000D03*
X154810000Y-62420000D03*
D12*
X177550000Y-88862900D03*
D13*
X175010000Y-88862900D03*
D20*
X168160800Y-94760000D03*
D21*
X165620800Y-94760000D03*
X163080800Y-94760000D03*
X160540800Y-94760000D03*
X158000800Y-94760000D03*
X155460800Y-94760000D03*
X152920800Y-94760000D03*
X150380800Y-94760000D03*
X147840800Y-94760000D03*
X145300800Y-94760000D03*
X142760800Y-94760000D03*
X140220800Y-94760000D03*
X137680800Y-94760000D03*
X135140800Y-94760000D03*
X132600800Y-94760000D03*
X130060800Y-94760000D03*
X127520800Y-94760000D03*
X124980800Y-94760000D03*
X122440800Y-94760000D03*
X119900800Y-94760000D03*
X119900800Y-110000000D03*
X122440800Y-110000000D03*
X124980800Y-110000000D03*
X127520800Y-110000000D03*
X130060800Y-110000000D03*
X132600800Y-110000000D03*
X135140800Y-110000000D03*
X137680800Y-110000000D03*
X140220800Y-110000000D03*
X142760800Y-110000000D03*
X145300800Y-110000000D03*
X147840800Y-110000000D03*
X150380800Y-110000000D03*
X152920800Y-110000000D03*
X155460800Y-110000000D03*
X158000800Y-110000000D03*
X160540800Y-110000000D03*
X163080800Y-110000000D03*
X165620800Y-110000000D03*
X168211600Y-110000000D03*
D22*
X164350800Y-103660000D03*
X164350800Y-101120000D03*
D12*
X177550000Y-70500000D03*
D13*
X175010000Y-70500000D03*
D18*
X177100000Y-65250000D03*
D19*
X179640000Y-65250000D03*
D12*
X177550000Y-92462900D03*
D13*
X175010000Y-92462900D03*
D10*
X137810000Y-139540000D03*
D11*
X137810000Y-137000000D03*
X137810000Y-134460000D03*
X137810000Y-131920000D03*
X137810000Y-129380000D03*
X137810000Y-126840000D03*
X137810000Y-124300000D03*
X137810000Y-121760000D03*
X130190000Y-121760000D03*
X130190000Y-124300000D03*
X130190000Y-126840000D03*
X130190000Y-129380000D03*
X130190000Y-131920000D03*
X130190000Y-134460000D03*
X130190000Y-137000000D03*
X130190000Y-139540000D03*
D10*
X125620000Y-136390000D03*
D11*
X125620000Y-133850000D03*
X125620000Y-131310000D03*
X125620000Y-128770000D03*
X125620000Y-126230000D03*
X125620000Y-123690000D03*
X125620000Y-121150000D03*
X125620000Y-118610000D03*
X118000000Y-118610000D03*
X118000000Y-121150000D03*
X118000000Y-123690000D03*
X118000000Y-126230000D03*
X118000000Y-128770000D03*
X118000000Y-131310000D03*
X118000000Y-133850000D03*
X118000000Y-136390000D03*
M02*
