G04 #@! TF.GenerationSoftware,KiCad,Pcbnew,7.0.10-7.0.10~ubuntu20.04.1*
G04 #@! TF.CreationDate,2024-06-13T18:01:27-03:00*
G04 #@! TF.ProjectId,Condicionamento_compacto_V01a,436f6e64-6963-4696-9f6e-616d656e746f,rev?*
G04 #@! TF.SameCoordinates,Original*
G04 #@! TF.FileFunction,Copper,L2,Bot*
G04 #@! TF.FilePolarity,Positive*
%FSLAX46Y46*%
G04 Gerber Fmt 4.6, Leading zero omitted, Abs format (unit mm)*
G04 Created by KiCad (PCBNEW 7.0.10-7.0.10~ubuntu20.04.1) date 2024-06-13 18:01:27*
%MOMM*%
%LPD*%
G01*
G04 APERTURE LIST*
G04 Aperture macros list*
%AMRotRect*
0 Rectangle, with rotation*
0 The origin of the aperture is its center*
0 $1 length*
0 $2 width*
0 $3 Rotation angle, in degrees counterclockwise*
0 Add horizontal line*
21,1,$1,$2,0,0,$3*%
G04 Aperture macros list end*
G04 #@! TA.AperFunction,ComponentPad*
%ADD10R,1.700000X1.700000*%
G04 #@! TD*
G04 #@! TA.AperFunction,ComponentPad*
%ADD11O,1.700000X1.700000*%
G04 #@! TD*
G04 #@! TA.AperFunction,ComponentPad*
%ADD12R,1.600000X1.600000*%
G04 #@! TD*
G04 #@! TA.AperFunction,ComponentPad*
%ADD13C,1.600000*%
G04 #@! TD*
G04 #@! TA.AperFunction,ComponentPad*
%ADD14O,1.600000X1.600000*%
G04 #@! TD*
G04 #@! TA.AperFunction,ComponentPad*
%ADD15R,1.524000X1.524000*%
G04 #@! TD*
G04 #@! TA.AperFunction,ComponentPad*
%ADD16C,1.524000*%
G04 #@! TD*
G04 #@! TA.AperFunction,ComponentPad*
%ADD17R,2.200000X2.200000*%
G04 #@! TD*
G04 #@! TA.AperFunction,ComponentPad*
%ADD18O,2.200000X2.200000*%
G04 #@! TD*
G04 #@! TA.AperFunction,ComponentPad*
%ADD19RotRect,1.600000X1.600000X315.000000*%
G04 #@! TD*
G04 #@! TA.AperFunction,ViaPad*
%ADD20C,1.000000*%
G04 #@! TD*
G04 #@! TA.AperFunction,Conductor*
%ADD21C,0.500000*%
G04 #@! TD*
G04 APERTURE END LIST*
D10*
X124100000Y-98625000D03*
D11*
X124100000Y-96085000D03*
D12*
X132400000Y-96550000D03*
D13*
X129900000Y-96550000D03*
X135600000Y-98200000D03*
D14*
X135600000Y-90580000D03*
D10*
X124100000Y-102450000D03*
D11*
X124100000Y-104990000D03*
X124100000Y-107530000D03*
D13*
X156710000Y-100850000D03*
D14*
X149090000Y-100850000D03*
D10*
X124105000Y-92300000D03*
D11*
X124105000Y-89760000D03*
X124105000Y-87220000D03*
D15*
X129945100Y-108060000D03*
D16*
X132485100Y-108060000D03*
X135025100Y-108060000D03*
X137565100Y-108060000D03*
X137565100Y-100440000D03*
X135025100Y-100440000D03*
X132485100Y-100440000D03*
X129945100Y-100440000D03*
D17*
X154130000Y-107650000D03*
D18*
X143970000Y-107650000D03*
D12*
X143400000Y-94400000D03*
D13*
X143400000Y-91900000D03*
D17*
X151850000Y-97680000D03*
D18*
X151850000Y-87520000D03*
D12*
X145250000Y-100900000D03*
D13*
X145250000Y-103400000D03*
D17*
X136620000Y-87800000D03*
D18*
X146780000Y-87800000D03*
D13*
X140855100Y-100540000D03*
D14*
X140855100Y-108160000D03*
D13*
X141450000Y-97750000D03*
D14*
X149070000Y-97750000D03*
D13*
X138800000Y-90590000D03*
D14*
X138800000Y-98210000D03*
D10*
X162000000Y-88360000D03*
D11*
X162000000Y-90900000D03*
X162000000Y-93440000D03*
X162000000Y-95980000D03*
X162000000Y-98520000D03*
X162000000Y-101060000D03*
X162000000Y-103600000D03*
X162000000Y-106140000D03*
D19*
X130300000Y-88000000D03*
D13*
X132067767Y-89767767D03*
D17*
X155150000Y-97680000D03*
D18*
X155150000Y-87520000D03*
D13*
X148990000Y-104200000D03*
D14*
X156610000Y-104200000D03*
D20*
X148937000Y-94873800D03*
X130537700Y-92442000D03*
D21*
X129945100Y-108060000D02*
X128300000Y-106414900D01*
X128300000Y-106414900D02*
X128300000Y-105100000D01*
X128300000Y-105100000D02*
X125650000Y-102450000D01*
X125650000Y-102450000D02*
X124100000Y-102450000D01*
X135025100Y-108060000D02*
X133043800Y-106078700D01*
X133043800Y-106078700D02*
X131954200Y-106078700D01*
X131954200Y-106078700D02*
X127200000Y-101324500D01*
X127200000Y-101324500D02*
X127200000Y-99800000D01*
X127200000Y-99800000D02*
X126025000Y-98625000D01*
X126025000Y-98625000D02*
X124100000Y-98625000D01*
X124105000Y-89760000D02*
X125706900Y-89760000D01*
X130945000Y-94998100D02*
X125706900Y-89760000D01*
X132400000Y-94998100D02*
X130945000Y-94998100D01*
X132400000Y-96550000D02*
X132400000Y-94998100D01*
X162000000Y-103600000D02*
X160398100Y-103600000D01*
X158223000Y-105775100D02*
X160398100Y-103600000D01*
X139850000Y-105775100D02*
X158223000Y-105775100D01*
X137565100Y-108060000D02*
X139850000Y-105775100D01*
X137043300Y-106041800D02*
X135025100Y-108060000D01*
X137623700Y-106041800D02*
X137043300Y-106041800D01*
X143406400Y-100259100D02*
X137623700Y-106041800D01*
X143406400Y-100077400D02*
X143406400Y-100259100D01*
X147317700Y-96166100D02*
X143406400Y-100077400D01*
X149920200Y-96166100D02*
X147317700Y-96166100D01*
X150258200Y-95828100D02*
X149920200Y-96166100D01*
X160246200Y-95828100D02*
X150258200Y-95828100D01*
X160398100Y-95980000D02*
X160246200Y-95828100D01*
X162000000Y-95980000D02*
X160398100Y-95980000D01*
X124100000Y-96085000D02*
X125701900Y-96085000D01*
X128428700Y-98811800D02*
X125701900Y-96085000D01*
X128428700Y-101077500D02*
X128428700Y-98811800D01*
X129314800Y-101963600D02*
X128428700Y-101077500D01*
X136041500Y-101963600D02*
X129314800Y-101963600D01*
X137565100Y-100440000D02*
X136041500Y-101963600D01*
X162000000Y-101060000D02*
X160398100Y-101060000D01*
X143004700Y-98390400D02*
X140855100Y-100540000D01*
X143004700Y-96747600D02*
X143004700Y-98390400D01*
X138800000Y-92542900D02*
X143004700Y-96747600D01*
X138800000Y-90590000D02*
X138800000Y-92542900D01*
X157018100Y-97680000D02*
X155150000Y-97680000D01*
X160398100Y-101060000D02*
X157018100Y-97680000D01*
X143400000Y-94400000D02*
X144951900Y-94400000D01*
X144951900Y-94400000D02*
X146707600Y-92644300D01*
X146707600Y-92644300D02*
X148937000Y-94873800D01*
X146707500Y-92644300D02*
X146707600Y-92644300D01*
X146707500Y-91725500D02*
X146707500Y-92644300D01*
X146780000Y-91653000D02*
X146707500Y-91725500D01*
X146780000Y-87800000D02*
X146780000Y-91653000D01*
X129900000Y-97854900D02*
X129900000Y-96550000D01*
X132485100Y-100440000D02*
X129900000Y-97854900D01*
X125706900Y-92356900D02*
X125706900Y-92300000D01*
X129900000Y-96550000D02*
X125706900Y-92356900D01*
X124105000Y-92300000D02*
X125706900Y-92300000D01*
X133951900Y-96551900D02*
X133951900Y-96550000D01*
X135600000Y-98200000D02*
X133951900Y-96551900D01*
X132400000Y-96550000D02*
X133951900Y-96550000D01*
X130300000Y-92204300D02*
X130300000Y-88000000D01*
X130537700Y-92442000D02*
X130300000Y-92204300D01*
X153360000Y-104200000D02*
X156710000Y-100850000D01*
X148990000Y-104200000D02*
X153360000Y-104200000D01*
X155150000Y-87520000D02*
X157001900Y-87520000D01*
X146851900Y-100850000D02*
X146801900Y-100900000D01*
X149090000Y-100850000D02*
X146851900Y-100850000D01*
X145250000Y-100900000D02*
X146801900Y-100900000D01*
X160381900Y-90900000D02*
X157001900Y-87520000D01*
X162000000Y-90900000D02*
X160381900Y-90900000D01*
X163622600Y-92522600D02*
X162000000Y-90900000D01*
X163622600Y-106804900D02*
X163622600Y-92522600D01*
X162678000Y-107749500D02*
X163622600Y-106804900D01*
X156081400Y-107749500D02*
X162678000Y-107749500D01*
X155981900Y-107650000D02*
X156081400Y-107749500D01*
X154130000Y-107650000D02*
X155981900Y-107650000D01*
G04 #@! TA.AperFunction,Conductor*
G36*
X166542539Y-85620185D02*
G01*
X166588294Y-85672989D01*
X166599500Y-85724500D01*
X166599500Y-109475500D01*
X166579815Y-109542539D01*
X166527011Y-109588294D01*
X166475500Y-109599500D01*
X141404656Y-109599500D01*
X141337617Y-109579815D01*
X141291862Y-109527011D01*
X141281918Y-109457853D01*
X141310943Y-109394297D01*
X141352251Y-109363118D01*
X141507834Y-109290568D01*
X141694239Y-109160047D01*
X141855147Y-108999139D01*
X141985668Y-108812734D01*
X142081839Y-108606496D01*
X142140735Y-108386692D01*
X142160568Y-108160000D01*
X142140735Y-107933308D01*
X142081839Y-107713504D01*
X141985668Y-107507266D01*
X141855147Y-107320861D01*
X141855145Y-107320858D01*
X141694241Y-107159954D01*
X141507834Y-107029432D01*
X141507832Y-107029431D01*
X141301597Y-106933261D01*
X141301588Y-106933258D01*
X141081797Y-106874366D01*
X141081793Y-106874365D01*
X141081792Y-106874365D01*
X141081791Y-106874364D01*
X141081786Y-106874364D01*
X140855102Y-106854532D01*
X140855098Y-106854532D01*
X140628413Y-106874364D01*
X140628402Y-106874366D01*
X140408611Y-106933258D01*
X140408602Y-106933261D01*
X140202367Y-107029431D01*
X140202365Y-107029432D01*
X140015958Y-107159954D01*
X139855054Y-107320858D01*
X139724532Y-107507265D01*
X139724531Y-107507267D01*
X139628361Y-107713502D01*
X139628358Y-107713511D01*
X139569466Y-107933302D01*
X139569464Y-107933313D01*
X139549632Y-108159998D01*
X139549632Y-108160001D01*
X139569464Y-108386686D01*
X139569466Y-108386697D01*
X139628358Y-108606488D01*
X139628361Y-108606497D01*
X139724531Y-108812732D01*
X139724532Y-108812734D01*
X139855054Y-108999141D01*
X140015958Y-109160045D01*
X140015961Y-109160047D01*
X140202366Y-109290568D01*
X140281187Y-109327323D01*
X140357949Y-109363118D01*
X140410388Y-109409291D01*
X140429540Y-109476484D01*
X140409324Y-109543365D01*
X140356159Y-109588700D01*
X140305544Y-109599500D01*
X122724500Y-109599500D01*
X122657461Y-109579815D01*
X122611706Y-109527011D01*
X122600500Y-109475500D01*
X122600500Y-105529196D01*
X122620185Y-105462157D01*
X122672989Y-105416402D01*
X122742147Y-105406458D01*
X122805703Y-105435483D01*
X122836881Y-105476790D01*
X122888120Y-105586672D01*
X122925965Y-105667830D01*
X122925967Y-105667834D01*
X123034281Y-105822521D01*
X123061505Y-105861401D01*
X123228599Y-106028495D01*
X123300768Y-106079028D01*
X123422165Y-106164032D01*
X123422167Y-106164033D01*
X123422170Y-106164035D01*
X123636337Y-106263903D01*
X123864592Y-106325063D01*
X124052918Y-106341539D01*
X124099999Y-106345659D01*
X124100000Y-106345659D01*
X124100001Y-106345659D01*
X124139234Y-106342226D01*
X124335408Y-106325063D01*
X124563663Y-106263903D01*
X124777830Y-106164035D01*
X124971401Y-106028495D01*
X125138495Y-105861401D01*
X125274035Y-105667830D01*
X125373903Y-105453663D01*
X125435063Y-105225408D01*
X125455659Y-104990000D01*
X125454876Y-104981056D01*
X125443723Y-104853576D01*
X125435063Y-104754592D01*
X125383008Y-104560318D01*
X125373905Y-104526344D01*
X125373904Y-104526343D01*
X125373903Y-104526337D01*
X125274035Y-104312171D01*
X125195492Y-104200000D01*
X125138496Y-104118600D01*
X125138495Y-104118599D01*
X125016567Y-103996671D01*
X124983084Y-103935351D01*
X124988068Y-103865659D01*
X125029939Y-103809725D01*
X125060915Y-103792810D01*
X125192331Y-103743796D01*
X125307546Y-103657546D01*
X125393796Y-103542331D01*
X125404378Y-103513958D01*
X125446246Y-103458025D01*
X125511710Y-103433606D01*
X125579983Y-103448456D01*
X125608241Y-103469609D01*
X127513181Y-105374549D01*
X127546666Y-105435872D01*
X127549500Y-105462230D01*
X127549500Y-106351194D01*
X127548191Y-106369163D01*
X127544710Y-106392925D01*
X127549028Y-106442268D01*
X127549500Y-106453076D01*
X127549500Y-106458611D01*
X127553098Y-106489395D01*
X127553464Y-106492983D01*
X127560000Y-106567691D01*
X127561461Y-106574767D01*
X127561403Y-106574778D01*
X127563034Y-106582137D01*
X127563092Y-106582124D01*
X127564757Y-106589149D01*
X127564758Y-106589154D01*
X127564759Y-106589155D01*
X127586758Y-106649600D01*
X127590400Y-106659605D01*
X127591582Y-106663007D01*
X127615182Y-106734226D01*
X127618236Y-106740774D01*
X127618182Y-106740798D01*
X127621470Y-106747588D01*
X127621521Y-106747563D01*
X127624761Y-106754014D01*
X127665979Y-106816684D01*
X127667889Y-106819682D01*
X127689185Y-106854206D01*
X127707289Y-106883558D01*
X127711766Y-106889219D01*
X127711719Y-106889256D01*
X127716482Y-106895102D01*
X127716528Y-106895064D01*
X127721173Y-106900599D01*
X127775707Y-106952049D01*
X127778295Y-106954563D01*
X128646281Y-107822549D01*
X128679766Y-107883872D01*
X128682600Y-107910230D01*
X128682600Y-108869870D01*
X128682601Y-108869876D01*
X128689008Y-108929483D01*
X128739302Y-109064328D01*
X128739306Y-109064335D01*
X128825552Y-109179544D01*
X128825555Y-109179547D01*
X128940764Y-109265793D01*
X128940771Y-109265797D01*
X129075617Y-109316091D01*
X129075616Y-109316091D01*
X129082544Y-109316835D01*
X129135227Y-109322500D01*
X130754972Y-109322499D01*
X130814583Y-109316091D01*
X130949431Y-109265796D01*
X131064646Y-109179546D01*
X131150896Y-109064331D01*
X131201191Y-108929483D01*
X131207600Y-108869873D01*
X131207599Y-108829920D01*
X131227282Y-108762884D01*
X131280085Y-108717128D01*
X131349243Y-108707183D01*
X131412800Y-108736206D01*
X131433173Y-108758796D01*
X131514274Y-108874620D01*
X131514275Y-108874621D01*
X131670478Y-109030824D01*
X131670484Y-109030829D01*
X131851433Y-109157531D01*
X131851435Y-109157532D01*
X131851438Y-109157534D01*
X132051650Y-109250894D01*
X132265032Y-109308070D01*
X132422223Y-109321822D01*
X132485098Y-109327323D01*
X132485100Y-109327323D01*
X132485102Y-109327323D01*
X132540251Y-109322498D01*
X132705168Y-109308070D01*
X132918550Y-109250894D01*
X133118762Y-109157534D01*
X133299720Y-109030826D01*
X133455926Y-108874620D01*
X133582634Y-108693662D01*
X133642718Y-108564811D01*
X133688890Y-108512371D01*
X133756083Y-108493219D01*
X133822965Y-108513435D01*
X133867482Y-108564811D01*
X133927564Y-108693658D01*
X133927568Y-108693666D01*
X134054270Y-108874615D01*
X134054275Y-108874621D01*
X134210478Y-109030824D01*
X134210484Y-109030829D01*
X134391433Y-109157531D01*
X134391435Y-109157532D01*
X134391438Y-109157534D01*
X134591650Y-109250894D01*
X134805032Y-109308070D01*
X134962223Y-109321822D01*
X135025098Y-109327323D01*
X135025100Y-109327323D01*
X135025102Y-109327323D01*
X135080251Y-109322498D01*
X135245168Y-109308070D01*
X135458550Y-109250894D01*
X135658762Y-109157534D01*
X135839720Y-109030826D01*
X135995926Y-108874620D01*
X136122634Y-108693662D01*
X136182718Y-108564811D01*
X136228890Y-108512371D01*
X136296083Y-108493219D01*
X136362965Y-108513435D01*
X136407482Y-108564811D01*
X136467564Y-108693658D01*
X136467568Y-108693666D01*
X136594270Y-108874615D01*
X136594275Y-108874621D01*
X136750478Y-109030824D01*
X136750484Y-109030829D01*
X136931433Y-109157531D01*
X136931435Y-109157532D01*
X136931438Y-109157534D01*
X137131650Y-109250894D01*
X137345032Y-109308070D01*
X137502223Y-109321822D01*
X137565098Y-109327323D01*
X137565100Y-109327323D01*
X137565102Y-109327323D01*
X137620251Y-109322498D01*
X137785168Y-109308070D01*
X137998550Y-109250894D01*
X138198762Y-109157534D01*
X138379720Y-109030826D01*
X138535926Y-108874620D01*
X138662634Y-108693662D01*
X138755994Y-108493450D01*
X138813170Y-108280068D01*
X138832423Y-108060000D01*
X138820893Y-107928213D01*
X138834659Y-107859715D01*
X138856737Y-107829729D01*
X140124548Y-106561919D01*
X140185871Y-106528434D01*
X140212229Y-106525600D01*
X152405500Y-106525600D01*
X152472539Y-106545285D01*
X152518294Y-106598089D01*
X152529500Y-106649600D01*
X152529500Y-108797870D01*
X152529501Y-108797876D01*
X152535908Y-108857483D01*
X152586202Y-108992328D01*
X152586206Y-108992335D01*
X152672452Y-109107544D01*
X152672455Y-109107547D01*
X152787664Y-109193793D01*
X152787671Y-109193797D01*
X152922517Y-109244091D01*
X152922516Y-109244091D01*
X152929444Y-109244835D01*
X152982127Y-109250500D01*
X155277872Y-109250499D01*
X155337483Y-109244091D01*
X155472331Y-109193796D01*
X155587546Y-109107546D01*
X155673796Y-108992331D01*
X155724091Y-108857483D01*
X155730500Y-108797873D01*
X155730499Y-108595594D01*
X155750183Y-108528556D01*
X155802987Y-108482801D01*
X155872145Y-108472857D01*
X155879536Y-108474149D01*
X155917262Y-108481939D01*
X155920609Y-108482681D01*
X155993679Y-108500000D01*
X155993685Y-108500000D01*
X156000852Y-108500838D01*
X156000845Y-108500897D01*
X156008346Y-108501663D01*
X156008352Y-108501604D01*
X156015541Y-108502233D01*
X156015543Y-108502232D01*
X156015544Y-108502233D01*
X156090511Y-108500052D01*
X156094117Y-108500000D01*
X162614295Y-108500000D01*
X162632265Y-108501309D01*
X162656023Y-108504789D01*
X162705369Y-108500471D01*
X162716176Y-108500000D01*
X162721704Y-108500000D01*
X162721709Y-108500000D01*
X162752556Y-108496393D01*
X162756030Y-108496039D01*
X162830797Y-108489499D01*
X162830805Y-108489496D01*
X162837866Y-108488039D01*
X162837878Y-108488098D01*
X162845243Y-108486465D01*
X162845229Y-108486406D01*
X162852249Y-108484741D01*
X162852255Y-108484741D01*
X162922779Y-108459072D01*
X162926117Y-108457912D01*
X162997334Y-108434314D01*
X162997342Y-108434308D01*
X163003882Y-108431260D01*
X163003908Y-108431316D01*
X163010690Y-108428032D01*
X163010663Y-108427978D01*
X163017113Y-108424738D01*
X163017117Y-108424737D01*
X163079837Y-108383484D01*
X163082732Y-108381640D01*
X163146656Y-108342212D01*
X163146662Y-108342205D01*
X163152325Y-108337729D01*
X163152362Y-108337777D01*
X163158204Y-108333018D01*
X163158164Y-108332971D01*
X163163686Y-108328335D01*
X163163696Y-108328330D01*
X163215187Y-108273751D01*
X163217632Y-108271234D01*
X164108242Y-107380624D01*
X164121857Y-107368858D01*
X164141130Y-107354510D01*
X164172983Y-107316548D01*
X164180271Y-107308594D01*
X164184190Y-107304677D01*
X164203411Y-107280367D01*
X164205694Y-107277564D01*
X164228716Y-107250129D01*
X164253902Y-107220114D01*
X164253903Y-107220111D01*
X164257872Y-107214079D01*
X164257923Y-107214112D01*
X164261969Y-107207760D01*
X164261917Y-107207728D01*
X164265705Y-107201583D01*
X164265711Y-107201577D01*
X164297429Y-107133555D01*
X164298969Y-107130376D01*
X164332640Y-107063333D01*
X164332643Y-107063317D01*
X164335110Y-107056544D01*
X164335168Y-107056565D01*
X164337643Y-107049446D01*
X164337585Y-107049427D01*
X164339855Y-107042577D01*
X164342569Y-107029431D01*
X164355031Y-106969071D01*
X164355786Y-106965667D01*
X164373100Y-106892621D01*
X164373100Y-106892619D01*
X164373101Y-106892615D01*
X164373939Y-106885448D01*
X164373997Y-106885454D01*
X164374764Y-106877956D01*
X164374704Y-106877951D01*
X164375333Y-106870760D01*
X164374851Y-106854206D01*
X164373152Y-106795789D01*
X164373100Y-106792183D01*
X164373100Y-92586305D01*
X164374409Y-92568335D01*
X164374729Y-92566147D01*
X164377889Y-92544577D01*
X164376881Y-92533059D01*
X164373572Y-92495230D01*
X164373100Y-92484422D01*
X164373100Y-92478896D01*
X164373100Y-92478891D01*
X164369501Y-92448109D01*
X164369136Y-92444529D01*
X164362599Y-92369801D01*
X164361139Y-92362729D01*
X164361197Y-92362716D01*
X164359565Y-92355357D01*
X164359506Y-92355372D01*
X164357841Y-92348351D01*
X164357841Y-92348345D01*
X164332169Y-92277812D01*
X164331021Y-92274509D01*
X164307414Y-92203266D01*
X164307410Y-92203259D01*
X164304360Y-92196718D01*
X164304415Y-92196691D01*
X164301133Y-92189913D01*
X164301080Y-92189940D01*
X164297835Y-92183480D01*
X164256625Y-92120823D01*
X164254686Y-92117781D01*
X164215312Y-92053945D01*
X164215311Y-92053944D01*
X164215310Y-92053942D01*
X164210834Y-92048282D01*
X164210881Y-92048244D01*
X164206119Y-92042399D01*
X164206074Y-92042438D01*
X164201431Y-92036905D01*
X164146873Y-91985432D01*
X164144286Y-91982919D01*
X163372869Y-91211502D01*
X163339384Y-91150179D01*
X163337022Y-91113013D01*
X163340503Y-91073235D01*
X163355659Y-90900000D01*
X163335063Y-90664592D01*
X163273903Y-90436337D01*
X163174035Y-90222171D01*
X163168498Y-90214264D01*
X163038496Y-90028600D01*
X163004349Y-89994453D01*
X162916567Y-89906671D01*
X162883084Y-89845351D01*
X162888068Y-89775659D01*
X162929939Y-89719725D01*
X162960915Y-89702810D01*
X163092331Y-89653796D01*
X163207546Y-89567546D01*
X163293796Y-89452331D01*
X163344091Y-89317483D01*
X163350500Y-89257873D01*
X163350499Y-87462128D01*
X163344091Y-87402517D01*
X163293796Y-87267669D01*
X163293795Y-87267668D01*
X163293793Y-87267664D01*
X163207547Y-87152455D01*
X163207544Y-87152452D01*
X163092335Y-87066206D01*
X163092328Y-87066202D01*
X162957482Y-87015908D01*
X162957483Y-87015908D01*
X162897883Y-87009501D01*
X162897881Y-87009500D01*
X162897873Y-87009500D01*
X162897864Y-87009500D01*
X161102129Y-87009500D01*
X161102123Y-87009501D01*
X161042516Y-87015908D01*
X160907671Y-87066202D01*
X160907664Y-87066206D01*
X160792455Y-87152452D01*
X160792452Y-87152455D01*
X160706206Y-87267664D01*
X160706202Y-87267671D01*
X160655908Y-87402517D01*
X160649501Y-87462116D01*
X160649501Y-87462123D01*
X160649500Y-87462135D01*
X160649500Y-89257870D01*
X160649501Y-89257876D01*
X160655908Y-89317483D01*
X160706202Y-89452328D01*
X160706206Y-89452335D01*
X160792452Y-89567544D01*
X160792455Y-89567547D01*
X160907664Y-89653793D01*
X160907671Y-89653797D01*
X161039081Y-89702810D01*
X161095015Y-89744681D01*
X161119432Y-89810145D01*
X161104580Y-89878418D01*
X161083430Y-89906673D01*
X160961503Y-90028600D01*
X160913874Y-90096623D01*
X160859297Y-90140248D01*
X160812299Y-90149500D01*
X160744129Y-90149500D01*
X160677090Y-90129815D01*
X160656448Y-90113181D01*
X159129234Y-88585967D01*
X157577629Y-87034361D01*
X157565849Y-87020730D01*
X157551510Y-87001470D01*
X157513551Y-86969619D01*
X157505586Y-86962318D01*
X157501680Y-86958411D01*
X157477343Y-86939168D01*
X157474547Y-86936890D01*
X157417114Y-86888698D01*
X157411080Y-86884729D01*
X157411112Y-86884680D01*
X157404753Y-86880628D01*
X157404722Y-86880679D01*
X157398580Y-86876891D01*
X157398578Y-86876890D01*
X157398577Y-86876889D01*
X157330588Y-86845184D01*
X157327347Y-86843615D01*
X157296430Y-86828088D01*
X157260333Y-86809960D01*
X157260331Y-86809959D01*
X157260330Y-86809959D01*
X157253545Y-86807489D01*
X157253565Y-86807433D01*
X157246449Y-86804959D01*
X157246431Y-86805015D01*
X157239574Y-86802743D01*
X157166110Y-86787573D01*
X157162593Y-86786793D01*
X157089618Y-86769499D01*
X157082447Y-86768661D01*
X157082453Y-86768601D01*
X157074955Y-86767835D01*
X157074950Y-86767895D01*
X157067760Y-86767265D01*
X156992770Y-86769448D01*
X156989163Y-86769500D01*
X156636647Y-86769500D01*
X156569608Y-86749815D01*
X156530919Y-86710289D01*
X156495282Y-86652135D01*
X156448836Y-86576341D01*
X156285224Y-86384776D01*
X156134683Y-86256202D01*
X156093656Y-86221161D01*
X156093653Y-86221160D01*
X155878859Y-86089533D01*
X155646110Y-85993126D01*
X155401151Y-85934317D01*
X155150000Y-85914551D01*
X154898848Y-85934317D01*
X154653889Y-85993126D01*
X154421140Y-86089533D01*
X154206346Y-86221160D01*
X154206343Y-86221161D01*
X154014776Y-86384776D01*
X153851161Y-86576343D01*
X153851160Y-86576346D01*
X153719533Y-86791140D01*
X153623126Y-87023889D01*
X153564317Y-87268848D01*
X153544551Y-87520000D01*
X153564317Y-87771151D01*
X153623126Y-88016110D01*
X153719533Y-88248859D01*
X153851160Y-88463653D01*
X153851161Y-88463656D01*
X153906604Y-88528571D01*
X154014776Y-88655224D01*
X154118313Y-88743653D01*
X154206343Y-88818838D01*
X154206346Y-88818839D01*
X154421140Y-88950466D01*
X154563662Y-89009500D01*
X154653889Y-89046873D01*
X154898852Y-89105683D01*
X155150000Y-89125449D01*
X155401148Y-89105683D01*
X155646111Y-89046873D01*
X155878859Y-88950466D01*
X156093659Y-88818836D01*
X156285224Y-88655224D01*
X156448836Y-88463659D01*
X156530920Y-88329710D01*
X156582731Y-88282835D01*
X156636647Y-88270500D01*
X156639670Y-88270500D01*
X156706709Y-88290185D01*
X156727351Y-88306819D01*
X159806170Y-91385638D01*
X159817951Y-91399270D01*
X159832288Y-91418528D01*
X159870237Y-91450372D01*
X159878210Y-91457679D01*
X159882117Y-91461586D01*
X159882123Y-91461591D01*
X159906437Y-91480816D01*
X159909218Y-91483080D01*
X159914875Y-91487827D01*
X159966689Y-91531305D01*
X159972718Y-91535270D01*
X159972685Y-91535319D01*
X159979047Y-91539372D01*
X159979079Y-91539321D01*
X159985219Y-91543108D01*
X159985223Y-91543111D01*
X160012585Y-91555870D01*
X160053220Y-91574819D01*
X160056466Y-91576391D01*
X160123462Y-91610038D01*
X160130257Y-91612511D01*
X160130236Y-91612567D01*
X160137357Y-91615043D01*
X160137376Y-91614986D01*
X160144219Y-91617253D01*
X160144227Y-91617257D01*
X160217795Y-91632447D01*
X160221128Y-91633186D01*
X160294179Y-91650500D01*
X160294181Y-91650500D01*
X160294185Y-91650501D01*
X160301353Y-91651339D01*
X160301346Y-91651398D01*
X160308844Y-91652164D01*
X160308850Y-91652105D01*
X160316039Y-91652734D01*
X160316043Y-91652733D01*
X160316044Y-91652734D01*
X160391030Y-91650552D01*
X160394637Y-91650500D01*
X160812299Y-91650500D01*
X160879338Y-91670185D01*
X160913873Y-91703376D01*
X160961505Y-91771401D01*
X161128597Y-91938493D01*
X161128603Y-91938498D01*
X161314158Y-92068425D01*
X161357783Y-92123002D01*
X161364977Y-92192500D01*
X161333454Y-92254855D01*
X161314158Y-92271575D01*
X161128597Y-92401505D01*
X160961505Y-92568597D01*
X160825965Y-92762169D01*
X160825964Y-92762171D01*
X160726098Y-92976335D01*
X160726094Y-92976344D01*
X160664938Y-93204586D01*
X160664936Y-93204596D01*
X160644341Y-93439999D01*
X160644341Y-93440000D01*
X160664936Y-93675403D01*
X160664938Y-93675413D01*
X160726094Y-93903655D01*
X160726096Y-93903659D01*
X160726097Y-93903663D01*
X160788688Y-94037890D01*
X160825965Y-94117830D01*
X160825967Y-94117834D01*
X160915512Y-94245716D01*
X160956524Y-94304288D01*
X160961501Y-94311395D01*
X160961506Y-94311402D01*
X161128597Y-94478493D01*
X161128603Y-94478498D01*
X161314158Y-94608425D01*
X161357783Y-94663002D01*
X161364977Y-94732500D01*
X161333454Y-94794855D01*
X161314158Y-94811575D01*
X161128597Y-94941505D01*
X160961506Y-95108596D01*
X160913874Y-95176623D01*
X160859297Y-95220248D01*
X160812299Y-95229500D01*
X160745519Y-95229500D01*
X160678480Y-95209815D01*
X160665814Y-95200490D01*
X160661413Y-95196797D01*
X160655380Y-95192829D01*
X160655412Y-95192780D01*
X160649053Y-95188728D01*
X160649022Y-95188779D01*
X160642880Y-95184991D01*
X160642878Y-95184990D01*
X160642877Y-95184989D01*
X160574888Y-95153284D01*
X160571647Y-95151715D01*
X160523724Y-95127648D01*
X160504633Y-95118060D01*
X160504631Y-95118059D01*
X160504630Y-95118059D01*
X160497845Y-95115589D01*
X160497865Y-95115533D01*
X160490749Y-95113059D01*
X160490731Y-95113115D01*
X160483874Y-95110843D01*
X160410410Y-95095673D01*
X160406893Y-95094893D01*
X160333918Y-95077599D01*
X160326747Y-95076761D01*
X160326753Y-95076701D01*
X160319255Y-95075935D01*
X160319250Y-95075995D01*
X160312060Y-95075365D01*
X160237070Y-95077548D01*
X160233463Y-95077600D01*
X150321905Y-95077600D01*
X150303935Y-95076291D01*
X150280172Y-95072810D01*
X150233842Y-95076864D01*
X150230832Y-95077128D01*
X150220026Y-95077600D01*
X150214482Y-95077600D01*
X150183688Y-95081199D01*
X150180105Y-95081565D01*
X150105400Y-95088101D01*
X150098334Y-95089561D01*
X150098322Y-95089504D01*
X150090943Y-95091140D01*
X150090957Y-95091197D01*
X150085879Y-95092400D01*
X150085382Y-95092373D01*
X150082363Y-95093043D01*
X150076796Y-95093695D01*
X150076586Y-95091907D01*
X150016107Y-95088700D01*
X149959412Y-95047866D01*
X149933794Y-94982862D01*
X149933890Y-94959596D01*
X149942341Y-94873800D01*
X149923024Y-94677668D01*
X149865814Y-94489073D01*
X149865811Y-94489069D01*
X149865811Y-94489066D01*
X149772913Y-94315267D01*
X149772909Y-94315260D01*
X149647883Y-94162916D01*
X149495539Y-94037890D01*
X149495532Y-94037886D01*
X149321733Y-93944988D01*
X149321727Y-93944986D01*
X149133132Y-93887776D01*
X149133129Y-93887775D01*
X149043324Y-93878930D01*
X148978537Y-93852769D01*
X148967796Y-93843206D01*
X147494317Y-92369661D01*
X147460833Y-92308337D01*
X147458000Y-92281982D01*
X147458000Y-92004617D01*
X147471189Y-91948967D01*
X147490040Y-91911433D01*
X147490042Y-91911420D01*
X147492509Y-91904646D01*
X147492567Y-91904667D01*
X147495042Y-91897546D01*
X147494985Y-91897527D01*
X147497255Y-91890677D01*
X147501060Y-91872248D01*
X147512431Y-91817171D01*
X147513186Y-91813767D01*
X147530500Y-91740721D01*
X147530500Y-91740719D01*
X147530501Y-91740715D01*
X147531339Y-91733548D01*
X147531397Y-91733554D01*
X147532164Y-91726056D01*
X147532104Y-91726051D01*
X147532733Y-91718860D01*
X147530552Y-91643889D01*
X147530500Y-91640283D01*
X147530500Y-89286647D01*
X147550185Y-89219608D01*
X147589709Y-89180920D01*
X147723659Y-89098836D01*
X147915224Y-88935224D01*
X148078836Y-88743659D01*
X148210466Y-88528859D01*
X148306873Y-88296111D01*
X148365683Y-88051148D01*
X148385449Y-87800000D01*
X148365683Y-87548852D01*
X148306873Y-87303889D01*
X148210466Y-87071141D01*
X148210466Y-87071140D01*
X148078839Y-86856346D01*
X148078838Y-86856343D01*
X148037065Y-86807433D01*
X147915224Y-86664776D01*
X147788571Y-86556604D01*
X147723656Y-86501161D01*
X147723653Y-86501160D01*
X147508859Y-86369533D01*
X147276110Y-86273126D01*
X147031151Y-86214317D01*
X146780000Y-86194551D01*
X146528848Y-86214317D01*
X146283889Y-86273126D01*
X146051140Y-86369533D01*
X145836346Y-86501160D01*
X145836343Y-86501161D01*
X145644776Y-86664776D01*
X145481161Y-86856343D01*
X145481160Y-86856346D01*
X145349533Y-87071140D01*
X145253126Y-87303889D01*
X145194317Y-87548848D01*
X145174551Y-87800000D01*
X145194317Y-88051151D01*
X145253126Y-88296110D01*
X145349533Y-88528859D01*
X145481160Y-88743653D01*
X145481161Y-88743656D01*
X145481164Y-88743659D01*
X145644776Y-88935224D01*
X145836341Y-89098836D01*
X145970289Y-89180920D01*
X146017165Y-89232731D01*
X146029500Y-89286647D01*
X146029500Y-91373881D01*
X146016311Y-91429531D01*
X145997460Y-91467066D01*
X145994991Y-91473851D01*
X145994935Y-91473830D01*
X145992460Y-91480950D01*
X145992515Y-91480969D01*
X145990243Y-91487825D01*
X145975073Y-91561288D01*
X145974293Y-91564804D01*
X145956999Y-91637779D01*
X145956161Y-91644954D01*
X145956101Y-91644947D01*
X145955335Y-91652445D01*
X145955395Y-91652451D01*
X145954765Y-91659640D01*
X145956948Y-91734628D01*
X145957000Y-91738235D01*
X145957000Y-92282170D01*
X145937315Y-92349209D01*
X145920681Y-92369851D01*
X144858758Y-93431773D01*
X144797435Y-93465258D01*
X144727743Y-93460274D01*
X144671810Y-93418402D01*
X144654895Y-93387426D01*
X144643796Y-93357669D01*
X144643793Y-93357664D01*
X144557547Y-93242455D01*
X144557544Y-93242452D01*
X144442335Y-93156206D01*
X144442328Y-93156202D01*
X144307482Y-93105908D01*
X144307483Y-93105908D01*
X144247883Y-93099501D01*
X144247881Y-93099500D01*
X144247873Y-93099500D01*
X144247864Y-93099500D01*
X142552129Y-93099500D01*
X142552123Y-93099501D01*
X142492516Y-93105908D01*
X142357671Y-93156202D01*
X142357664Y-93156206D01*
X142242455Y-93242452D01*
X142242452Y-93242455D01*
X142156206Y-93357664D01*
X142156202Y-93357671D01*
X142105908Y-93492517D01*
X142099501Y-93552116D01*
X142099500Y-93552135D01*
X142099500Y-94481670D01*
X142079815Y-94548709D01*
X142027011Y-94594464D01*
X141957853Y-94604408D01*
X141894297Y-94575383D01*
X141887819Y-94569351D01*
X139586819Y-92268351D01*
X139553334Y-92207028D01*
X139550500Y-92180670D01*
X139550500Y-91716662D01*
X139570185Y-91649623D01*
X139603379Y-91615086D01*
X139639139Y-91590047D01*
X139800047Y-91429139D01*
X139930568Y-91242734D01*
X140026739Y-91036496D01*
X140085635Y-90816692D01*
X140105468Y-90590000D01*
X140104795Y-90582313D01*
X140092024Y-90436335D01*
X140085635Y-90363308D01*
X140026739Y-90143504D01*
X139930568Y-89937266D01*
X139800047Y-89750861D01*
X139800045Y-89750858D01*
X139639141Y-89589954D01*
X139452734Y-89459432D01*
X139452732Y-89459431D01*
X139246497Y-89363261D01*
X139246488Y-89363258D01*
X139026697Y-89304366D01*
X139026693Y-89304365D01*
X139026692Y-89304365D01*
X139026691Y-89304364D01*
X139026686Y-89304364D01*
X138800002Y-89284532D01*
X138799998Y-89284532D01*
X138573313Y-89304364D01*
X138573302Y-89304366D01*
X138353511Y-89363258D01*
X138353497Y-89363263D01*
X138255692Y-89408871D01*
X138186615Y-89419363D01*
X138122831Y-89390843D01*
X138084592Y-89332366D01*
X138084038Y-89262499D01*
X138104019Y-89222181D01*
X138163796Y-89142331D01*
X138214091Y-89007483D01*
X138220500Y-88947873D01*
X138220499Y-86652128D01*
X138214091Y-86592517D01*
X138208058Y-86576343D01*
X138163797Y-86457671D01*
X138163793Y-86457664D01*
X138077547Y-86342455D01*
X138077544Y-86342452D01*
X137962335Y-86256206D01*
X137962328Y-86256202D01*
X137827482Y-86205908D01*
X137827483Y-86205908D01*
X137767883Y-86199501D01*
X137767881Y-86199500D01*
X137767873Y-86199500D01*
X137767864Y-86199500D01*
X135472129Y-86199500D01*
X135472123Y-86199501D01*
X135412516Y-86205908D01*
X135277671Y-86256202D01*
X135277664Y-86256206D01*
X135162455Y-86342452D01*
X135162452Y-86342455D01*
X135076206Y-86457664D01*
X135076202Y-86457671D01*
X135025908Y-86592517D01*
X135019501Y-86652116D01*
X135019501Y-86652123D01*
X135019500Y-86652135D01*
X135019500Y-88947870D01*
X135019501Y-88947876D01*
X135025908Y-89007483D01*
X135076202Y-89142328D01*
X135076206Y-89142335D01*
X135162452Y-89257544D01*
X135162455Y-89257547D01*
X135277664Y-89343793D01*
X135277671Y-89343797D01*
X135412517Y-89394091D01*
X135412516Y-89394091D01*
X135419444Y-89394835D01*
X135472127Y-89400500D01*
X137767872Y-89400499D01*
X137827483Y-89394091D01*
X137827484Y-89394090D01*
X137833610Y-89392643D01*
X137903380Y-89396380D01*
X137960054Y-89437243D01*
X137985638Y-89502260D01*
X137972010Y-89570788D01*
X137949814Y-89600999D01*
X137799951Y-89750862D01*
X137669432Y-89937265D01*
X137669431Y-89937267D01*
X137573261Y-90143502D01*
X137573258Y-90143511D01*
X137514366Y-90363302D01*
X137514364Y-90363313D01*
X137494532Y-90589998D01*
X137494532Y-90590001D01*
X137514364Y-90816686D01*
X137514366Y-90816697D01*
X137573258Y-91036488D01*
X137573261Y-91036497D01*
X137669431Y-91242732D01*
X137669432Y-91242734D01*
X137799954Y-91429141D01*
X137960859Y-91590046D01*
X137979320Y-91602972D01*
X137996559Y-91615043D01*
X137996621Y-91615086D01*
X138040247Y-91669662D01*
X138049500Y-91716662D01*
X138049500Y-92479194D01*
X138048191Y-92497163D01*
X138044710Y-92520925D01*
X138049028Y-92570268D01*
X138049500Y-92581076D01*
X138049500Y-92586611D01*
X138053098Y-92617395D01*
X138053464Y-92620983D01*
X138060000Y-92695691D01*
X138061461Y-92702767D01*
X138061403Y-92702778D01*
X138063034Y-92710137D01*
X138063092Y-92710124D01*
X138064757Y-92717149D01*
X138090400Y-92787605D01*
X138091582Y-92791007D01*
X138115182Y-92862226D01*
X138118236Y-92868774D01*
X138118182Y-92868798D01*
X138121470Y-92875588D01*
X138121521Y-92875563D01*
X138124761Y-92882014D01*
X138165979Y-92944684D01*
X138167889Y-92947682D01*
X138185569Y-92976344D01*
X138207289Y-93011558D01*
X138211766Y-93017219D01*
X138211719Y-93017256D01*
X138216482Y-93023102D01*
X138216528Y-93023064D01*
X138221173Y-93028599D01*
X138275707Y-93080049D01*
X138278295Y-93082563D01*
X141436924Y-96241192D01*
X141470409Y-96302515D01*
X141465425Y-96372207D01*
X141423553Y-96428140D01*
X141360051Y-96452401D01*
X141223312Y-96464364D01*
X141223302Y-96464366D01*
X141003511Y-96523258D01*
X141003502Y-96523261D01*
X140797267Y-96619431D01*
X140797265Y-96619432D01*
X140610858Y-96749954D01*
X140449954Y-96910858D01*
X140319432Y-97097265D01*
X140319431Y-97097267D01*
X140223261Y-97303502D01*
X140223258Y-97303511D01*
X140164364Y-97523309D01*
X140164161Y-97524464D01*
X140163931Y-97524927D01*
X140162964Y-97528537D01*
X140162238Y-97528342D01*
X140133130Y-97587065D01*
X140073181Y-97622952D01*
X140003347Y-97620730D01*
X139945799Y-97581107D01*
X139933671Y-97561728D01*
X139933276Y-97561957D01*
X139930567Y-97557265D01*
X139929725Y-97556063D01*
X139800047Y-97370861D01*
X139800045Y-97370858D01*
X139639141Y-97209954D01*
X139452734Y-97079432D01*
X139452732Y-97079431D01*
X139246497Y-96983261D01*
X139246488Y-96983258D01*
X139026697Y-96924366D01*
X139026693Y-96924365D01*
X139026692Y-96924365D01*
X139026691Y-96924364D01*
X139026686Y-96924364D01*
X138800002Y-96904532D01*
X138799998Y-96904532D01*
X138573313Y-96924364D01*
X138573302Y-96924366D01*
X138353511Y-96983258D01*
X138353502Y-96983261D01*
X138147267Y-97079431D01*
X138147265Y-97079432D01*
X137960858Y-97209954D01*
X137799954Y-97370858D01*
X137669432Y-97557265D01*
X137669431Y-97557267D01*
X137573261Y-97763502D01*
X137573258Y-97763511D01*
X137514366Y-97983302D01*
X137514364Y-97983313D01*
X137494532Y-98209998D01*
X137494532Y-98210001D01*
X137514364Y-98436686D01*
X137514366Y-98436697D01*
X137573258Y-98656488D01*
X137573261Y-98656497D01*
X137669431Y-98862732D01*
X137669432Y-98862734D01*
X137754902Y-98984799D01*
X137777229Y-99051005D01*
X137760218Y-99118773D01*
X137709270Y-99166585D01*
X137642520Y-99179450D01*
X137565102Y-99172677D01*
X137565098Y-99172677D01*
X137345037Y-99191929D01*
X137345029Y-99191930D01*
X137131654Y-99249104D01*
X137131648Y-99249107D01*
X136931440Y-99342465D01*
X136931438Y-99342466D01*
X136750477Y-99469175D01*
X136594275Y-99625377D01*
X136467566Y-99806338D01*
X136467565Y-99806340D01*
X136407482Y-99935189D01*
X136361309Y-99987628D01*
X136294116Y-100006780D01*
X136227235Y-99986564D01*
X136182718Y-99935189D01*
X136159764Y-99885964D01*
X136122634Y-99806339D01*
X136065636Y-99724937D01*
X135995926Y-99625379D01*
X135993905Y-99622971D01*
X135993347Y-99621696D01*
X135992821Y-99620945D01*
X135992972Y-99620839D01*
X135965892Y-99558963D01*
X135976931Y-99489971D01*
X136023518Y-99437899D01*
X136041624Y-99429103D01*
X136041589Y-99429027D01*
X136046433Y-99426767D01*
X136046489Y-99426741D01*
X136046489Y-99426740D01*
X136046496Y-99426739D01*
X136252734Y-99330568D01*
X136439139Y-99200047D01*
X136600047Y-99039139D01*
X136730568Y-98852734D01*
X136826739Y-98646496D01*
X136885635Y-98426692D01*
X136905468Y-98200000D01*
X136905161Y-98196496D01*
X136896835Y-98101323D01*
X136885635Y-97973308D01*
X136829420Y-97763511D01*
X136826741Y-97753511D01*
X136826738Y-97753502D01*
X136825338Y-97750500D01*
X136730568Y-97547266D01*
X136607047Y-97370858D01*
X136600045Y-97360858D01*
X136439141Y-97199954D01*
X136252734Y-97069432D01*
X136252732Y-97069431D01*
X136046497Y-96973261D01*
X136046488Y-96973258D01*
X135826697Y-96914366D01*
X135826693Y-96914365D01*
X135826692Y-96914365D01*
X135826691Y-96914364D01*
X135826686Y-96914364D01*
X135600002Y-96894532D01*
X135599997Y-96894532D01*
X135433137Y-96909129D01*
X135364637Y-96895362D01*
X135334650Y-96873282D01*
X134549407Y-96088039D01*
X134533486Y-96068494D01*
X134530734Y-96064309D01*
X134530726Y-96064300D01*
X134522572Y-96056607D01*
X134508204Y-96040462D01*
X134501509Y-96031469D01*
X134453806Y-95991441D01*
X134448428Y-95986656D01*
X134403118Y-95943908D01*
X134393403Y-95938299D01*
X134375704Y-95925906D01*
X134367114Y-95918698D01*
X134367112Y-95918697D01*
X134367110Y-95918695D01*
X134358641Y-95914442D01*
X134349199Y-95909173D01*
X134348569Y-95908784D01*
X134333499Y-95901757D01*
X134330285Y-95900202D01*
X134311454Y-95890745D01*
X134305118Y-95887328D01*
X134288336Y-95877639D01*
X134251181Y-95856188D01*
X134240434Y-95852970D01*
X134220359Y-95844994D01*
X134210337Y-95839961D01*
X134210331Y-95839959D01*
X134199033Y-95837281D01*
X134190144Y-95834761D01*
X134178320Y-95832319D01*
X134174800Y-95831538D01*
X134149738Y-95825597D01*
X134142778Y-95823732D01*
X134083111Y-95805870D01*
X134071910Y-95805217D01*
X134050538Y-95802086D01*
X134039624Y-95799500D01*
X134039621Y-95799500D01*
X134026989Y-95799500D01*
X134018706Y-95799138D01*
X134008064Y-95799448D01*
X134004458Y-95799500D01*
X133977345Y-95799500D01*
X133970135Y-95799290D01*
X133967525Y-95799138D01*
X133907965Y-95795669D01*
X133907964Y-95795669D01*
X133896923Y-95797616D01*
X133875391Y-95799500D01*
X133822351Y-95799500D01*
X133755312Y-95779815D01*
X133709557Y-95727011D01*
X133699061Y-95688752D01*
X133694091Y-95642516D01*
X133643797Y-95507671D01*
X133643793Y-95507664D01*
X133557547Y-95392455D01*
X133557544Y-95392452D01*
X133442335Y-95306206D01*
X133442328Y-95306202D01*
X133307483Y-95255908D01*
X133261243Y-95250937D01*
X133196693Y-95224199D01*
X133156845Y-95166806D01*
X133150500Y-95127648D01*
X133150500Y-95023544D01*
X133150710Y-95016334D01*
X133154331Y-94954165D01*
X133143515Y-94892831D01*
X133142469Y-94885692D01*
X133141079Y-94873799D01*
X133135241Y-94823845D01*
X133131408Y-94813315D01*
X133125811Y-94792430D01*
X133123865Y-94781389D01*
X133099193Y-94724194D01*
X133096545Y-94717529D01*
X133075237Y-94658983D01*
X133069072Y-94649610D01*
X133058818Y-94630591D01*
X133054379Y-94620300D01*
X133054373Y-94620290D01*
X133017192Y-94570348D01*
X133013055Y-94564440D01*
X132995868Y-94538310D01*
X132978830Y-94512404D01*
X132970672Y-94504707D01*
X132956304Y-94488562D01*
X132949609Y-94479569D01*
X132901906Y-94439541D01*
X132896528Y-94434756D01*
X132851218Y-94392008D01*
X132841503Y-94386399D01*
X132823804Y-94374006D01*
X132815214Y-94366798D01*
X132815212Y-94366797D01*
X132815211Y-94366796D01*
X132759552Y-94338843D01*
X132753213Y-94335425D01*
X132731153Y-94322689D01*
X132699282Y-94304288D01*
X132694676Y-94302909D01*
X132688534Y-94301070D01*
X132668460Y-94293095D01*
X132658433Y-94288060D01*
X132658432Y-94288059D01*
X132658431Y-94288059D01*
X132597841Y-94273698D01*
X132590878Y-94271832D01*
X132531211Y-94253970D01*
X132520010Y-94253317D01*
X132498638Y-94250186D01*
X132487724Y-94247600D01*
X132487721Y-94247600D01*
X132425445Y-94247600D01*
X132418235Y-94247390D01*
X132356065Y-94243769D01*
X132356064Y-94243769D01*
X132345023Y-94245716D01*
X132323491Y-94247600D01*
X131307230Y-94247600D01*
X131240191Y-94227915D01*
X131219549Y-94211281D01*
X130648355Y-93640087D01*
X130614870Y-93578764D01*
X130619854Y-93509072D01*
X130661726Y-93453139D01*
X130723885Y-93429003D01*
X130733832Y-93428024D01*
X130922427Y-93370814D01*
X130928437Y-93367602D01*
X131096232Y-93277913D01*
X131096238Y-93277910D01*
X131248583Y-93152883D01*
X131373610Y-93000538D01*
X131436961Y-92882017D01*
X131466511Y-92826733D01*
X131466511Y-92826732D01*
X131466514Y-92826727D01*
X131523724Y-92638132D01*
X131543041Y-92442000D01*
X131523724Y-92245868D01*
X131466514Y-92057273D01*
X131466511Y-92057269D01*
X131466511Y-92057266D01*
X131373613Y-91883467D01*
X131373609Y-91883460D01*
X131248583Y-91731116D01*
X131095835Y-91605758D01*
X131056501Y-91548012D01*
X131050500Y-91509905D01*
X131050500Y-90881289D01*
X131070185Y-90814250D01*
X131122989Y-90768495D01*
X131192147Y-90758551D01*
X131245623Y-90779714D01*
X131415033Y-90898335D01*
X131621271Y-90994506D01*
X131841075Y-91053402D01*
X132002997Y-91067568D01*
X132067765Y-91073235D01*
X132067767Y-91073235D01*
X132067769Y-91073235D01*
X132124440Y-91068276D01*
X132294459Y-91053402D01*
X132514263Y-90994506D01*
X132720501Y-90898335D01*
X132906906Y-90767814D01*
X133067814Y-90606906D01*
X133198335Y-90420501D01*
X133294506Y-90214263D01*
X133353402Y-89994459D01*
X133373235Y-89767767D01*
X133372555Y-89760000D01*
X133363264Y-89653796D01*
X133353402Y-89541075D01*
X133305756Y-89363258D01*
X133294508Y-89321278D01*
X133294505Y-89321269D01*
X133286623Y-89304366D01*
X133198335Y-89115033D01*
X133081296Y-88947883D01*
X133067812Y-88928625D01*
X132906908Y-88767721D01*
X132720501Y-88637199D01*
X132720499Y-88637198D01*
X132514264Y-88541028D01*
X132514255Y-88541025D01*
X132294464Y-88482133D01*
X132294460Y-88482132D01*
X132294459Y-88482132D01*
X132294458Y-88482131D01*
X132294453Y-88482131D01*
X132067769Y-88462299D01*
X132067764Y-88462299D01*
X131967000Y-88471114D01*
X131898501Y-88457347D01*
X131848318Y-88408731D01*
X131832385Y-88340703D01*
X131853717Y-88280614D01*
X131852673Y-88279969D01*
X131855668Y-88275120D01*
X131855761Y-88274859D01*
X131856119Y-88274389D01*
X131856750Y-88273369D01*
X131916535Y-88142459D01*
X131916534Y-88142459D01*
X131916536Y-88142457D01*
X131937017Y-88000000D01*
X131916536Y-87857543D01*
X131856748Y-87726627D01*
X131819129Y-87679944D01*
X131819124Y-87679939D01*
X131819120Y-87679934D01*
X130620063Y-86480879D01*
X130620056Y-86480872D01*
X130573373Y-86443252D01*
X130573371Y-86443251D01*
X130573369Y-86443249D01*
X130442459Y-86383464D01*
X130442455Y-86383463D01*
X130300000Y-86362983D01*
X130157544Y-86383463D01*
X130157540Y-86383464D01*
X130026629Y-86443250D01*
X129979934Y-86480879D01*
X128780879Y-87679936D01*
X128780873Y-87679943D01*
X128743251Y-87726628D01*
X128743249Y-87726630D01*
X128683464Y-87857540D01*
X128683463Y-87857544D01*
X128662983Y-88000000D01*
X128683463Y-88142455D01*
X128683464Y-88142459D01*
X128743250Y-88273370D01*
X128743251Y-88273371D01*
X128743252Y-88273373D01*
X128780871Y-88320056D01*
X128780874Y-88320059D01*
X128780879Y-88320065D01*
X129513181Y-89052365D01*
X129546666Y-89113688D01*
X129549500Y-89140046D01*
X129549500Y-92140594D01*
X129548191Y-92158563D01*
X129544710Y-92182327D01*
X129548969Y-92231005D01*
X129535202Y-92299505D01*
X129486586Y-92349687D01*
X129418557Y-92365620D01*
X129352714Y-92342244D01*
X129337760Y-92329492D01*
X126282629Y-89274361D01*
X126270849Y-89260730D01*
X126256510Y-89241470D01*
X126218551Y-89209619D01*
X126210586Y-89202318D01*
X126206680Y-89198411D01*
X126182343Y-89179168D01*
X126179547Y-89176890D01*
X126122114Y-89128698D01*
X126116080Y-89124729D01*
X126116112Y-89124680D01*
X126109753Y-89120628D01*
X126109722Y-89120679D01*
X126103580Y-89116891D01*
X126103578Y-89116890D01*
X126103577Y-89116889D01*
X126035588Y-89085184D01*
X126032347Y-89083615D01*
X126001430Y-89068088D01*
X125965333Y-89049960D01*
X125965331Y-89049959D01*
X125965330Y-89049959D01*
X125958545Y-89047489D01*
X125958565Y-89047433D01*
X125951449Y-89044959D01*
X125951431Y-89045015D01*
X125944574Y-89042743D01*
X125871110Y-89027573D01*
X125867593Y-89026793D01*
X125794618Y-89009499D01*
X125787447Y-89008661D01*
X125787453Y-89008601D01*
X125779955Y-89007835D01*
X125779950Y-89007895D01*
X125772760Y-89007265D01*
X125697770Y-89009448D01*
X125694163Y-89009500D01*
X125292701Y-89009500D01*
X125225662Y-88989815D01*
X125191126Y-88956623D01*
X125143494Y-88888597D01*
X124976402Y-88721506D01*
X124976395Y-88721501D01*
X124782834Y-88585967D01*
X124782830Y-88585965D01*
X124729773Y-88561224D01*
X124568663Y-88486097D01*
X124568659Y-88486096D01*
X124568655Y-88486094D01*
X124340413Y-88424938D01*
X124340403Y-88424936D01*
X124105001Y-88404341D01*
X124104999Y-88404341D01*
X123869596Y-88424936D01*
X123869586Y-88424938D01*
X123641344Y-88486094D01*
X123641335Y-88486098D01*
X123427171Y-88585964D01*
X123427169Y-88585965D01*
X123233597Y-88721505D01*
X123066505Y-88888597D01*
X122930965Y-89082169D01*
X122930964Y-89082171D01*
X122836882Y-89283931D01*
X122790710Y-89336370D01*
X122723516Y-89355522D01*
X122656635Y-89335306D01*
X122611300Y-89282141D01*
X122600500Y-89231526D01*
X122600500Y-85724500D01*
X122620185Y-85657461D01*
X122672989Y-85611706D01*
X122724500Y-85600500D01*
X166475500Y-85600500D01*
X166542539Y-85620185D01*
G37*
G04 #@! TD.AperFunction*
G04 #@! TA.AperFunction,Conductor*
G36*
X147896076Y-96936285D02*
G01*
X147941831Y-96989089D01*
X147951775Y-97058247D01*
X147941419Y-97093005D01*
X147939432Y-97097265D01*
X147939432Y-97097266D01*
X147866391Y-97253903D01*
X147843262Y-97303502D01*
X147843258Y-97303511D01*
X147784366Y-97523302D01*
X147784364Y-97523313D01*
X147764532Y-97749998D01*
X147764532Y-97750001D01*
X147784364Y-97976686D01*
X147784366Y-97976697D01*
X147843258Y-98196488D01*
X147843261Y-98196497D01*
X147939431Y-98402732D01*
X147939432Y-98402734D01*
X148069954Y-98589141D01*
X148230858Y-98750045D01*
X148230861Y-98750047D01*
X148417266Y-98880568D01*
X148623504Y-98976739D01*
X148843308Y-99035635D01*
X148997682Y-99049141D01*
X149069998Y-99055468D01*
X149070000Y-99055468D01*
X149070002Y-99055468D01*
X149126673Y-99050509D01*
X149296692Y-99035635D01*
X149516496Y-98976739D01*
X149722734Y-98880568D01*
X149909139Y-98750047D01*
X150037820Y-98621365D01*
X150099141Y-98587882D01*
X150168833Y-98592866D01*
X150224767Y-98634737D01*
X150249184Y-98700201D01*
X150249500Y-98709047D01*
X150249500Y-98827869D01*
X150249501Y-98827876D01*
X150255908Y-98887483D01*
X150306202Y-99022328D01*
X150306206Y-99022335D01*
X150392452Y-99137544D01*
X150392455Y-99137547D01*
X150507664Y-99223793D01*
X150507671Y-99223797D01*
X150642517Y-99274091D01*
X150642516Y-99274091D01*
X150649444Y-99274835D01*
X150702127Y-99280500D01*
X152997872Y-99280499D01*
X153057483Y-99274091D01*
X153192331Y-99223796D01*
X153307546Y-99137546D01*
X153372331Y-99051005D01*
X153399112Y-99015231D01*
X153401382Y-99016930D01*
X153440565Y-98977743D01*
X153508837Y-98962886D01*
X153574303Y-98987298D01*
X153599443Y-99016311D01*
X153600888Y-99015231D01*
X153692452Y-99137544D01*
X153692455Y-99137547D01*
X153807664Y-99223793D01*
X153807671Y-99223797D01*
X153942517Y-99274091D01*
X153942516Y-99274091D01*
X153949444Y-99274835D01*
X154002127Y-99280500D01*
X156297872Y-99280499D01*
X156357483Y-99274091D01*
X156492331Y-99223796D01*
X156607546Y-99137546D01*
X156693796Y-99022331D01*
X156744091Y-98887483D01*
X156750500Y-98827873D01*
X156750499Y-98773128D01*
X156770182Y-98706091D01*
X156822986Y-98660336D01*
X156892144Y-98650391D01*
X156955700Y-98679415D01*
X156962180Y-98685448D01*
X159822370Y-101545638D01*
X159834151Y-101559270D01*
X159848488Y-101578528D01*
X159886437Y-101610372D01*
X159894410Y-101617679D01*
X159898317Y-101621586D01*
X159898323Y-101621591D01*
X159922637Y-101640816D01*
X159925418Y-101643080D01*
X159953056Y-101666271D01*
X159982889Y-101691305D01*
X159988918Y-101695270D01*
X159988885Y-101695319D01*
X159995247Y-101699372D01*
X159995279Y-101699321D01*
X160001419Y-101703108D01*
X160001423Y-101703111D01*
X160010456Y-101707323D01*
X160069420Y-101734819D01*
X160072666Y-101736391D01*
X160139662Y-101770038D01*
X160146457Y-101772511D01*
X160146436Y-101772567D01*
X160153557Y-101775043D01*
X160153576Y-101774986D01*
X160160419Y-101777253D01*
X160160427Y-101777257D01*
X160233995Y-101792447D01*
X160237328Y-101793186D01*
X160310379Y-101810500D01*
X160310381Y-101810500D01*
X160310385Y-101810501D01*
X160317553Y-101811339D01*
X160317546Y-101811398D01*
X160325044Y-101812164D01*
X160325050Y-101812105D01*
X160332239Y-101812734D01*
X160332243Y-101812733D01*
X160332244Y-101812734D01*
X160407230Y-101810552D01*
X160410837Y-101810500D01*
X160812299Y-101810500D01*
X160879338Y-101830185D01*
X160913873Y-101863376D01*
X160961505Y-101931401D01*
X161128597Y-102098493D01*
X161128603Y-102098498D01*
X161314158Y-102228425D01*
X161357783Y-102283002D01*
X161364977Y-102352500D01*
X161333454Y-102414855D01*
X161314158Y-102431575D01*
X161128597Y-102561505D01*
X160961506Y-102728596D01*
X160913874Y-102796623D01*
X160859297Y-102840248D01*
X160812299Y-102849500D01*
X160461805Y-102849500D01*
X160443835Y-102848191D01*
X160420072Y-102844710D01*
X160372943Y-102848834D01*
X160370730Y-102849028D01*
X160359924Y-102849500D01*
X160354384Y-102849500D01*
X160323601Y-102853098D01*
X160320016Y-102853464D01*
X160245299Y-102860001D01*
X160238232Y-102861460D01*
X160238220Y-102861404D01*
X160230863Y-102863035D01*
X160230877Y-102863092D01*
X160223840Y-102864760D01*
X160153331Y-102890421D01*
X160149954Y-102891595D01*
X160110948Y-102904521D01*
X160078768Y-102915185D01*
X160072226Y-102918236D01*
X160072201Y-102918183D01*
X160065408Y-102921471D01*
X160065434Y-102921523D01*
X160058980Y-102924764D01*
X159996321Y-102965975D01*
X159993281Y-102967912D01*
X159929448Y-103007285D01*
X159923783Y-103011765D01*
X159923747Y-103011719D01*
X159917898Y-103016484D01*
X159917935Y-103016528D01*
X159912410Y-103021164D01*
X159860931Y-103075727D01*
X159858419Y-103078312D01*
X157948451Y-104988281D01*
X157887128Y-105021766D01*
X157860770Y-105024600D01*
X153889943Y-105024600D01*
X153822904Y-105004915D01*
X153777149Y-104952111D01*
X153767205Y-104882953D01*
X153796230Y-104819397D01*
X153824845Y-104795062D01*
X153828656Y-104792712D01*
X153828664Y-104792703D01*
X153834325Y-104788229D01*
X153834362Y-104788277D01*
X153840204Y-104783518D01*
X153840164Y-104783471D01*
X153845686Y-104778835D01*
X153845696Y-104778830D01*
X153897185Y-104724253D01*
X153899632Y-104721734D01*
X156444652Y-102176714D01*
X156505973Y-102143231D01*
X156543135Y-102140869D01*
X156686366Y-102153400D01*
X156709999Y-102155468D01*
X156710000Y-102155468D01*
X156710002Y-102155468D01*
X156766673Y-102150509D01*
X156936692Y-102135635D01*
X157156496Y-102076739D01*
X157362734Y-101980568D01*
X157549139Y-101850047D01*
X157710047Y-101689139D01*
X157840568Y-101502734D01*
X157936739Y-101296496D01*
X157995635Y-101076692D01*
X158015468Y-100850000D01*
X157995635Y-100623308D01*
X157936739Y-100403504D01*
X157840568Y-100197266D01*
X157710047Y-100010861D01*
X157710045Y-100010858D01*
X157549141Y-99849954D01*
X157362734Y-99719432D01*
X157362732Y-99719431D01*
X157156497Y-99623261D01*
X157156488Y-99623258D01*
X156936697Y-99564366D01*
X156936693Y-99564365D01*
X156936692Y-99564365D01*
X156936691Y-99564364D01*
X156936686Y-99564364D01*
X156710002Y-99544532D01*
X156709998Y-99544532D01*
X156483313Y-99564364D01*
X156483302Y-99564366D01*
X156263511Y-99623258D01*
X156263502Y-99623261D01*
X156057267Y-99719431D01*
X156057265Y-99719432D01*
X155870858Y-99849954D01*
X155709954Y-100010858D01*
X155579432Y-100197265D01*
X155579431Y-100197267D01*
X155483261Y-100403502D01*
X155483258Y-100403511D01*
X155424366Y-100623302D01*
X155424364Y-100623313D01*
X155404532Y-100849998D01*
X155404532Y-100850003D01*
X155419129Y-101016861D01*
X155405362Y-101085360D01*
X155383282Y-101115348D01*
X153085451Y-103413181D01*
X153024128Y-103446666D01*
X152997770Y-103449500D01*
X150116663Y-103449500D01*
X150049624Y-103429815D01*
X150015088Y-103396623D01*
X149990045Y-103360858D01*
X149829141Y-103199954D01*
X149642734Y-103069432D01*
X149642732Y-103069431D01*
X149436497Y-102973261D01*
X149436488Y-102973258D01*
X149216697Y-102914366D01*
X149216693Y-102914365D01*
X149216692Y-102914365D01*
X149216691Y-102914364D01*
X149216686Y-102914364D01*
X148990002Y-102894532D01*
X148989998Y-102894532D01*
X148763313Y-102914364D01*
X148763302Y-102914366D01*
X148543511Y-102973258D01*
X148543502Y-102973261D01*
X148337267Y-103069431D01*
X148337265Y-103069432D01*
X148150858Y-103199954D01*
X147989954Y-103360858D01*
X147859432Y-103547265D01*
X147859431Y-103547267D01*
X147763261Y-103753502D01*
X147763258Y-103753511D01*
X147704366Y-103973302D01*
X147704364Y-103973313D01*
X147684532Y-104199998D01*
X147684532Y-104200001D01*
X147704364Y-104426686D01*
X147704366Y-104426697D01*
X147763258Y-104646488D01*
X147763261Y-104646496D01*
X147857316Y-104848196D01*
X147867808Y-104917272D01*
X147839289Y-104981056D01*
X147780812Y-105019296D01*
X147744934Y-105024600D01*
X140001629Y-105024600D01*
X139934590Y-105004915D01*
X139888835Y-104952111D01*
X139878891Y-104882953D01*
X139907916Y-104819397D01*
X139913948Y-104812919D01*
X141812503Y-102914364D01*
X143737821Y-100989045D01*
X143799142Y-100955562D01*
X143868834Y-100960546D01*
X143924767Y-101002418D01*
X143949184Y-101067882D01*
X143949500Y-101076728D01*
X143949500Y-101747870D01*
X143949501Y-101747876D01*
X143955908Y-101807483D01*
X144006202Y-101942328D01*
X144006206Y-101942335D01*
X144092452Y-102057544D01*
X144092455Y-102057547D01*
X144207664Y-102143793D01*
X144207671Y-102143797D01*
X144342517Y-102194091D01*
X144342516Y-102194091D01*
X144349444Y-102194835D01*
X144402127Y-102200500D01*
X146097872Y-102200499D01*
X146157483Y-102194091D01*
X146292331Y-102143796D01*
X146407546Y-102057546D01*
X146493796Y-101942331D01*
X146544091Y-101807483D01*
X146549062Y-101761242D01*
X146575799Y-101696694D01*
X146633191Y-101656846D01*
X146672351Y-101650500D01*
X146738195Y-101650500D01*
X146756165Y-101651809D01*
X146779923Y-101655289D01*
X146829269Y-101650971D01*
X146840076Y-101650500D01*
X146845604Y-101650500D01*
X146845609Y-101650500D01*
X146876456Y-101646893D01*
X146879930Y-101646539D01*
X146954697Y-101639999D01*
X146954705Y-101639996D01*
X146961766Y-101638539D01*
X146961778Y-101638598D01*
X146969143Y-101636965D01*
X146969129Y-101636906D01*
X146976149Y-101635241D01*
X146976155Y-101635241D01*
X147046657Y-101609580D01*
X147050028Y-101608409D01*
X147054912Y-101606791D01*
X147093907Y-101600500D01*
X147963337Y-101600500D01*
X148030376Y-101620185D01*
X148064912Y-101653377D01*
X148089954Y-101689141D01*
X148250858Y-101850045D01*
X148276585Y-101868059D01*
X148437266Y-101980568D01*
X148643504Y-102076739D01*
X148863308Y-102135635D01*
X149025230Y-102149801D01*
X149089998Y-102155468D01*
X149090000Y-102155468D01*
X149090002Y-102155468D01*
X149146673Y-102150509D01*
X149316692Y-102135635D01*
X149536496Y-102076739D01*
X149742734Y-101980568D01*
X149929139Y-101850047D01*
X150090047Y-101689139D01*
X150220568Y-101502734D01*
X150316739Y-101296496D01*
X150375635Y-101076692D01*
X150395468Y-100850000D01*
X150375635Y-100623308D01*
X150316739Y-100403504D01*
X150220568Y-100197266D01*
X150090047Y-100010861D01*
X150090045Y-100010858D01*
X149929141Y-99849954D01*
X149742734Y-99719432D01*
X149742732Y-99719431D01*
X149536497Y-99623261D01*
X149536488Y-99623258D01*
X149316697Y-99564366D01*
X149316693Y-99564365D01*
X149316692Y-99564365D01*
X149316691Y-99564364D01*
X149316686Y-99564364D01*
X149090002Y-99544532D01*
X149089998Y-99544532D01*
X148863313Y-99564364D01*
X148863302Y-99564366D01*
X148643511Y-99623258D01*
X148643502Y-99623261D01*
X148437267Y-99719431D01*
X148437265Y-99719432D01*
X148250858Y-99849954D01*
X148089954Y-100010858D01*
X148064912Y-100046623D01*
X148010335Y-100090248D01*
X147963337Y-100099500D01*
X146915605Y-100099500D01*
X146897635Y-100098191D01*
X146873872Y-100094710D01*
X146826743Y-100098834D01*
X146824530Y-100099028D01*
X146813724Y-100099500D01*
X146808184Y-100099500D01*
X146777401Y-100103098D01*
X146773816Y-100103464D01*
X146699107Y-100110000D01*
X146693572Y-100111143D01*
X146623937Y-100105418D01*
X146568452Y-100062954D01*
X146545213Y-100002954D01*
X146544091Y-99992516D01*
X146493797Y-99857671D01*
X146493793Y-99857664D01*
X146407547Y-99742455D01*
X146407544Y-99742452D01*
X146292335Y-99656206D01*
X146292328Y-99656202D01*
X146157482Y-99605908D01*
X146157483Y-99605908D01*
X146097883Y-99599501D01*
X146097881Y-99599500D01*
X146097873Y-99599500D01*
X146097865Y-99599500D01*
X145245029Y-99599500D01*
X145177990Y-99579815D01*
X145132235Y-99527011D01*
X145122291Y-99457853D01*
X145151316Y-99394297D01*
X145157348Y-99387819D01*
X147592248Y-96952919D01*
X147653571Y-96919434D01*
X147679929Y-96916600D01*
X147829037Y-96916600D01*
X147896076Y-96936285D01*
G37*
G04 #@! TD.AperFunction*
G04 #@! TA.AperFunction,Conductor*
G36*
X159965820Y-96598285D02*
G01*
X159978487Y-96607611D01*
X159982883Y-96611300D01*
X159988922Y-96615272D01*
X159988889Y-96615322D01*
X159995247Y-96619372D01*
X159995279Y-96619321D01*
X160001419Y-96623108D01*
X160001423Y-96623111D01*
X160028122Y-96635561D01*
X160069420Y-96654819D01*
X160072666Y-96656391D01*
X160139662Y-96690038D01*
X160146457Y-96692511D01*
X160146436Y-96692567D01*
X160153557Y-96695043D01*
X160153576Y-96694986D01*
X160160419Y-96697253D01*
X160160427Y-96697257D01*
X160233995Y-96712447D01*
X160237328Y-96713186D01*
X160310379Y-96730500D01*
X160310381Y-96730500D01*
X160310385Y-96730501D01*
X160317553Y-96731339D01*
X160317546Y-96731398D01*
X160325044Y-96732164D01*
X160325050Y-96732105D01*
X160332239Y-96732734D01*
X160332243Y-96732733D01*
X160332244Y-96732734D01*
X160407230Y-96730552D01*
X160410837Y-96730500D01*
X160812299Y-96730500D01*
X160879338Y-96750185D01*
X160913873Y-96783376D01*
X160927104Y-96802271D01*
X160961505Y-96851401D01*
X161128599Y-97018495D01*
X161215625Y-97079431D01*
X161322165Y-97154032D01*
X161322167Y-97154033D01*
X161322170Y-97154035D01*
X161536337Y-97253903D01*
X161536343Y-97253904D01*
X161536344Y-97253905D01*
X161555490Y-97259035D01*
X161764592Y-97315063D01*
X161949057Y-97331202D01*
X161999999Y-97335659D01*
X162000000Y-97335659D01*
X162000001Y-97335659D01*
X162050897Y-97331206D01*
X162235408Y-97315063D01*
X162463663Y-97253903D01*
X162677830Y-97154035D01*
X162677838Y-97154029D01*
X162682522Y-97151326D01*
X162683217Y-97152530D01*
X162743170Y-97132305D01*
X162810939Y-97149309D01*
X162858757Y-97200252D01*
X162872100Y-97256207D01*
X162872100Y-99783792D01*
X162852415Y-99850831D01*
X162799611Y-99896586D01*
X162730453Y-99906530D01*
X162683043Y-99887770D01*
X162682522Y-99888674D01*
X162677830Y-99885965D01*
X162600602Y-99849953D01*
X162463663Y-99786097D01*
X162463659Y-99786096D01*
X162463655Y-99786094D01*
X162235413Y-99724938D01*
X162235403Y-99724936D01*
X162000001Y-99704341D01*
X161999999Y-99704341D01*
X161764596Y-99724936D01*
X161764586Y-99724938D01*
X161536344Y-99786094D01*
X161536335Y-99786098D01*
X161322171Y-99885964D01*
X161322169Y-99885965D01*
X161128597Y-100021505D01*
X160961506Y-100188596D01*
X160913874Y-100256623D01*
X160859297Y-100300248D01*
X160812299Y-100309500D01*
X160760329Y-100309500D01*
X160693290Y-100289815D01*
X160672648Y-100273181D01*
X159136789Y-98737322D01*
X157593829Y-97194361D01*
X157582049Y-97180730D01*
X157567710Y-97161470D01*
X157529751Y-97129619D01*
X157521786Y-97122318D01*
X157517880Y-97118411D01*
X157493543Y-97099168D01*
X157490747Y-97096890D01*
X157433314Y-97048698D01*
X157427280Y-97044729D01*
X157427312Y-97044680D01*
X157420953Y-97040628D01*
X157420922Y-97040679D01*
X157414780Y-97036891D01*
X157414778Y-97036890D01*
X157414777Y-97036889D01*
X157346788Y-97005184D01*
X157343547Y-97003615D01*
X157312630Y-96988088D01*
X157276533Y-96969960D01*
X157276531Y-96969959D01*
X157276530Y-96969959D01*
X157269745Y-96967489D01*
X157269765Y-96967433D01*
X157262649Y-96964959D01*
X157262631Y-96965015D01*
X157255774Y-96962743D01*
X157182310Y-96947573D01*
X157178793Y-96946793D01*
X157105818Y-96929499D01*
X157098647Y-96928661D01*
X157098653Y-96928601D01*
X157091155Y-96927835D01*
X157091150Y-96927895D01*
X157083960Y-96927265D01*
X157008970Y-96929448D01*
X157005363Y-96929500D01*
X156874499Y-96929500D01*
X156807460Y-96909815D01*
X156761705Y-96857011D01*
X156750499Y-96805500D01*
X156750499Y-96702600D01*
X156770184Y-96635561D01*
X156822988Y-96589806D01*
X156874499Y-96578600D01*
X159898781Y-96578600D01*
X159965820Y-96598285D01*
G37*
G04 #@! TD.AperFunction*
M02*
