G04 #@! TF.GenerationSoftware,KiCad,Pcbnew,7.0.10-7.0.10~ubuntu20.04.1*
G04 #@! TF.CreationDate,2024-06-05T19:28:44-03:00*
G04 #@! TF.ProjectId,Condicionamento_compacto_V01a,436f6e64-6963-4696-9f6e-616d656e746f,rev?*
G04 #@! TF.SameCoordinates,Original*
G04 #@! TF.FileFunction,Soldermask,Bot*
G04 #@! TF.FilePolarity,Negative*
%FSLAX46Y46*%
G04 Gerber Fmt 4.6, Leading zero omitted, Abs format (unit mm)*
G04 Created by KiCad (PCBNEW 7.0.10-7.0.10~ubuntu20.04.1) date 2024-06-05 19:28:44*
%MOMM*%
%LPD*%
G01*
G04 APERTURE LIST*
G04 Aperture macros list*
%AMRotRect*
0 Rectangle, with rotation*
0 The origin of the aperture is its center*
0 $1 length*
0 $2 width*
0 $3 Rotation angle, in degrees counterclockwise*
0 Add horizontal line*
21,1,$1,$2,0,0,$3*%
G04 Aperture macros list end*
%ADD10R,1.700000X1.700000*%
%ADD11O,1.700000X1.700000*%
%ADD12R,1.600000X1.600000*%
%ADD13C,1.600000*%
%ADD14O,1.600000X1.600000*%
%ADD15R,1.524000X1.524000*%
%ADD16C,1.524000*%
%ADD17R,2.200000X2.200000*%
%ADD18O,2.200000X2.200000*%
%ADD19RotRect,1.600000X1.600000X315.000000*%
G04 APERTURE END LIST*
D10*
X124100000Y-98625000D03*
D11*
X124100000Y-96085000D03*
D12*
X132400000Y-96550000D03*
D13*
X129900000Y-96550000D03*
X135600000Y-98200000D03*
D14*
X135600000Y-90580000D03*
D10*
X124100000Y-102450000D03*
D11*
X124100000Y-104990000D03*
X124100000Y-107530000D03*
D13*
X156710000Y-100850000D03*
D14*
X149090000Y-100850000D03*
D10*
X124105000Y-92300000D03*
D11*
X124105000Y-89760000D03*
X124105000Y-87220000D03*
D15*
X129945100Y-108060000D03*
D16*
X132485100Y-108060000D03*
X135025100Y-108060000D03*
X137565100Y-108060000D03*
X137565100Y-100440000D03*
X135025100Y-100440000D03*
X132485100Y-100440000D03*
X129945100Y-100440000D03*
D17*
X154130000Y-107650000D03*
D18*
X143970000Y-107650000D03*
D12*
X143400000Y-94400000D03*
D13*
X143400000Y-91900000D03*
D17*
X151850000Y-97680000D03*
D18*
X151850000Y-87520000D03*
D12*
X145250000Y-100900000D03*
D13*
X145250000Y-103400000D03*
D17*
X136620000Y-87800000D03*
D18*
X146780000Y-87800000D03*
D13*
X140855100Y-100540000D03*
D14*
X140855100Y-108160000D03*
D13*
X141450000Y-97750000D03*
D14*
X149070000Y-97750000D03*
D13*
X138800000Y-90590000D03*
D14*
X138800000Y-98210000D03*
D10*
X162000000Y-88360000D03*
D11*
X162000000Y-90900000D03*
X162000000Y-93440000D03*
X162000000Y-95980000D03*
X162000000Y-98520000D03*
X162000000Y-101060000D03*
X162000000Y-103600000D03*
X162000000Y-106140000D03*
D19*
X130300000Y-88000000D03*
D13*
X132067767Y-89767767D03*
D17*
X155150000Y-97680000D03*
D18*
X155150000Y-87520000D03*
D13*
X148990000Y-104200000D03*
D14*
X156610000Y-104200000D03*
M02*
