G04 #@! TF.GenerationSoftware,KiCad,Pcbnew,7.0.10-7.0.10~ubuntu20.04.1*
G04 #@! TF.CreationDate,2024-06-13T18:01:27-03:00*
G04 #@! TF.ProjectId,Condicionamento_compacto_V01a,436f6e64-6963-4696-9f6e-616d656e746f,rev?*
G04 #@! TF.SameCoordinates,Original*
G04 #@! TF.FileFunction,Legend,Bot*
G04 #@! TF.FilePolarity,Positive*
%FSLAX46Y46*%
G04 Gerber Fmt 4.6, Leading zero omitted, Abs format (unit mm)*
G04 Created by KiCad (PCBNEW 7.0.10-7.0.10~ubuntu20.04.1) date 2024-06-13 18:01:27*
%MOMM*%
%LPD*%
G01*
G04 APERTURE LIST*
G04 Aperture macros list*
%AMRotRect*
0 Rectangle, with rotation*
0 The origin of the aperture is its center*
0 $1 length*
0 $2 width*
0 $3 Rotation angle, in degrees counterclockwise*
0 Add horizontal line*
21,1,$1,$2,0,0,$3*%
G04 Aperture macros list end*
%ADD10C,0.150000*%
%ADD11R,1.700000X1.700000*%
%ADD12O,1.700000X1.700000*%
%ADD13R,1.600000X1.600000*%
%ADD14C,1.600000*%
%ADD15O,1.600000X1.600000*%
%ADD16R,1.524000X1.524000*%
%ADD17C,1.524000*%
%ADD18R,2.200000X2.200000*%
%ADD19O,2.200000X2.200000*%
%ADD20RotRect,1.600000X1.600000X315.000000*%
G04 APERTURE END LIST*
D10*
X140687030Y-104849228D02*
X140758458Y-104777800D01*
X140758458Y-104777800D02*
X140972744Y-104706371D01*
X140972744Y-104706371D02*
X141115601Y-104706371D01*
X141115601Y-104706371D02*
X141329887Y-104777800D01*
X141329887Y-104777800D02*
X141472744Y-104920657D01*
X141472744Y-104920657D02*
X141544173Y-105063514D01*
X141544173Y-105063514D02*
X141615601Y-105349228D01*
X141615601Y-105349228D02*
X141615601Y-105563514D01*
X141615601Y-105563514D02*
X141544173Y-105849228D01*
X141544173Y-105849228D02*
X141472744Y-105992085D01*
X141472744Y-105992085D02*
X141329887Y-106134942D01*
X141329887Y-106134942D02*
X141115601Y-106206371D01*
X141115601Y-106206371D02*
X140972744Y-106206371D01*
X140972744Y-106206371D02*
X140758458Y-106134942D01*
X140758458Y-106134942D02*
X140687030Y-106063514D01*
X140115601Y-104777800D02*
X139901316Y-104706371D01*
X139901316Y-104706371D02*
X139544173Y-104706371D01*
X139544173Y-104706371D02*
X139401316Y-104777800D01*
X139401316Y-104777800D02*
X139329887Y-104849228D01*
X139329887Y-104849228D02*
X139258458Y-104992085D01*
X139258458Y-104992085D02*
X139258458Y-105134942D01*
X139258458Y-105134942D02*
X139329887Y-105277800D01*
X139329887Y-105277800D02*
X139401316Y-105349228D01*
X139401316Y-105349228D02*
X139544173Y-105420657D01*
X139544173Y-105420657D02*
X139829887Y-105492085D01*
X139829887Y-105492085D02*
X139972744Y-105563514D01*
X139972744Y-105563514D02*
X140044173Y-105634942D01*
X140044173Y-105634942D02*
X140115601Y-105777800D01*
X140115601Y-105777800D02*
X140115601Y-105920657D01*
X140115601Y-105920657D02*
X140044173Y-106063514D01*
X140044173Y-106063514D02*
X139972744Y-106134942D01*
X139972744Y-106134942D02*
X139829887Y-106206371D01*
X139829887Y-106206371D02*
X139472744Y-106206371D01*
X139472744Y-106206371D02*
X139258458Y-106134942D01*
X138615602Y-105277800D02*
X137472745Y-105277800D01*
X135901316Y-104849228D02*
X135972744Y-104777800D01*
X135972744Y-104777800D02*
X136187030Y-104706371D01*
X136187030Y-104706371D02*
X136329887Y-104706371D01*
X136329887Y-104706371D02*
X136544173Y-104777800D01*
X136544173Y-104777800D02*
X136687030Y-104920657D01*
X136687030Y-104920657D02*
X136758459Y-105063514D01*
X136758459Y-105063514D02*
X136829887Y-105349228D01*
X136829887Y-105349228D02*
X136829887Y-105563514D01*
X136829887Y-105563514D02*
X136758459Y-105849228D01*
X136758459Y-105849228D02*
X136687030Y-105992085D01*
X136687030Y-105992085D02*
X136544173Y-106134942D01*
X136544173Y-106134942D02*
X136329887Y-106206371D01*
X136329887Y-106206371D02*
X136187030Y-106206371D01*
X136187030Y-106206371D02*
X135972744Y-106134942D01*
X135972744Y-106134942D02*
X135901316Y-106063514D01*
X135044173Y-104706371D02*
X135187030Y-104777800D01*
X135187030Y-104777800D02*
X135258459Y-104849228D01*
X135258459Y-104849228D02*
X135329887Y-104992085D01*
X135329887Y-104992085D02*
X135329887Y-105420657D01*
X135329887Y-105420657D02*
X135258459Y-105563514D01*
X135258459Y-105563514D02*
X135187030Y-105634942D01*
X135187030Y-105634942D02*
X135044173Y-105706371D01*
X135044173Y-105706371D02*
X134829887Y-105706371D01*
X134829887Y-105706371D02*
X134687030Y-105634942D01*
X134687030Y-105634942D02*
X134615602Y-105563514D01*
X134615602Y-105563514D02*
X134544173Y-105420657D01*
X134544173Y-105420657D02*
X134544173Y-104992085D01*
X134544173Y-104992085D02*
X134615602Y-104849228D01*
X134615602Y-104849228D02*
X134687030Y-104777800D01*
X134687030Y-104777800D02*
X134829887Y-104706371D01*
X134829887Y-104706371D02*
X135044173Y-104706371D01*
X133901316Y-104706371D02*
X133901316Y-105706371D01*
X133901316Y-105563514D02*
X133829887Y-105634942D01*
X133829887Y-105634942D02*
X133687030Y-105706371D01*
X133687030Y-105706371D02*
X133472744Y-105706371D01*
X133472744Y-105706371D02*
X133329887Y-105634942D01*
X133329887Y-105634942D02*
X133258459Y-105492085D01*
X133258459Y-105492085D02*
X133258459Y-104706371D01*
X133258459Y-105492085D02*
X133187030Y-105634942D01*
X133187030Y-105634942D02*
X133044173Y-105706371D01*
X133044173Y-105706371D02*
X132829887Y-105706371D01*
X132829887Y-105706371D02*
X132687030Y-105634942D01*
X132687030Y-105634942D02*
X132615601Y-105492085D01*
X132615601Y-105492085D02*
X132615601Y-104706371D01*
X131901316Y-105706371D02*
X131901316Y-104206371D01*
X131901316Y-105634942D02*
X131758459Y-105706371D01*
X131758459Y-105706371D02*
X131472744Y-105706371D01*
X131472744Y-105706371D02*
X131329887Y-105634942D01*
X131329887Y-105634942D02*
X131258459Y-105563514D01*
X131258459Y-105563514D02*
X131187030Y-105420657D01*
X131187030Y-105420657D02*
X131187030Y-104992085D01*
X131187030Y-104992085D02*
X131258459Y-104849228D01*
X131258459Y-104849228D02*
X131329887Y-104777800D01*
X131329887Y-104777800D02*
X131472744Y-104706371D01*
X131472744Y-104706371D02*
X131758459Y-104706371D01*
X131758459Y-104706371D02*
X131901316Y-104777800D01*
X129901316Y-104706371D02*
X129901316Y-105492085D01*
X129901316Y-105492085D02*
X129972744Y-105634942D01*
X129972744Y-105634942D02*
X130115601Y-105706371D01*
X130115601Y-105706371D02*
X130401316Y-105706371D01*
X130401316Y-105706371D02*
X130544173Y-105634942D01*
X129901316Y-104777800D02*
X130044173Y-104706371D01*
X130044173Y-104706371D02*
X130401316Y-104706371D01*
X130401316Y-104706371D02*
X130544173Y-104777800D01*
X130544173Y-104777800D02*
X130615601Y-104920657D01*
X130615601Y-104920657D02*
X130615601Y-105063514D01*
X130615601Y-105063514D02*
X130544173Y-105206371D01*
X130544173Y-105206371D02*
X130401316Y-105277800D01*
X130401316Y-105277800D02*
X130044173Y-105277800D01*
X130044173Y-105277800D02*
X129901316Y-105349228D01*
X128544173Y-104777800D02*
X128687030Y-104706371D01*
X128687030Y-104706371D02*
X128972744Y-104706371D01*
X128972744Y-104706371D02*
X129115601Y-104777800D01*
X129115601Y-104777800D02*
X129187030Y-104849228D01*
X129187030Y-104849228D02*
X129258458Y-104992085D01*
X129258458Y-104992085D02*
X129258458Y-105420657D01*
X129258458Y-105420657D02*
X129187030Y-105563514D01*
X129187030Y-105563514D02*
X129115601Y-105634942D01*
X129115601Y-105634942D02*
X128972744Y-105706371D01*
X128972744Y-105706371D02*
X128687030Y-105706371D01*
X128687030Y-105706371D02*
X128544173Y-105634942D01*
X141758458Y-103791371D02*
X141258458Y-102291371D01*
X141258458Y-102291371D02*
X140758458Y-103791371D01*
X139972744Y-103791371D02*
X139829887Y-103791371D01*
X139829887Y-103791371D02*
X139687030Y-103719942D01*
X139687030Y-103719942D02*
X139615602Y-103648514D01*
X139615602Y-103648514D02*
X139544173Y-103505657D01*
X139544173Y-103505657D02*
X139472744Y-103219942D01*
X139472744Y-103219942D02*
X139472744Y-102862800D01*
X139472744Y-102862800D02*
X139544173Y-102577085D01*
X139544173Y-102577085D02*
X139615602Y-102434228D01*
X139615602Y-102434228D02*
X139687030Y-102362800D01*
X139687030Y-102362800D02*
X139829887Y-102291371D01*
X139829887Y-102291371D02*
X139972744Y-102291371D01*
X139972744Y-102291371D02*
X140115602Y-102362800D01*
X140115602Y-102362800D02*
X140187030Y-102434228D01*
X140187030Y-102434228D02*
X140258459Y-102577085D01*
X140258459Y-102577085D02*
X140329887Y-102862800D01*
X140329887Y-102862800D02*
X140329887Y-103219942D01*
X140329887Y-103219942D02*
X140258459Y-103505657D01*
X140258459Y-103505657D02*
X140187030Y-103648514D01*
X140187030Y-103648514D02*
X140115602Y-103719942D01*
X140115602Y-103719942D02*
X139972744Y-103791371D01*
X138044173Y-102291371D02*
X138901316Y-102291371D01*
X138472745Y-102291371D02*
X138472745Y-103791371D01*
X138472745Y-103791371D02*
X138615602Y-103577085D01*
X138615602Y-103577085D02*
X138758459Y-103434228D01*
X138758459Y-103434228D02*
X138901316Y-103362800D01*
X136758460Y-102291371D02*
X136758460Y-103077085D01*
X136758460Y-103077085D02*
X136829888Y-103219942D01*
X136829888Y-103219942D02*
X136972745Y-103291371D01*
X136972745Y-103291371D02*
X137258460Y-103291371D01*
X137258460Y-103291371D02*
X137401317Y-103219942D01*
X136758460Y-102362800D02*
X136901317Y-102291371D01*
X136901317Y-102291371D02*
X137258460Y-102291371D01*
X137258460Y-102291371D02*
X137401317Y-102362800D01*
X137401317Y-102362800D02*
X137472745Y-102505657D01*
X137472745Y-102505657D02*
X137472745Y-102648514D01*
X137472745Y-102648514D02*
X137401317Y-102791371D01*
X137401317Y-102791371D02*
X137258460Y-102862800D01*
X137258460Y-102862800D02*
X136901317Y-102862800D01*
X136901317Y-102862800D02*
X136758460Y-102934228D01*
X136044174Y-102862800D02*
X134901317Y-102862800D01*
X134258459Y-103648514D02*
X134187031Y-103719942D01*
X134187031Y-103719942D02*
X134044174Y-103791371D01*
X134044174Y-103791371D02*
X133687031Y-103791371D01*
X133687031Y-103791371D02*
X133544174Y-103719942D01*
X133544174Y-103719942D02*
X133472745Y-103648514D01*
X133472745Y-103648514D02*
X133401316Y-103505657D01*
X133401316Y-103505657D02*
X133401316Y-103362800D01*
X133401316Y-103362800D02*
X133472745Y-103148514D01*
X133472745Y-103148514D02*
X134329888Y-102291371D01*
X134329888Y-102291371D02*
X133401316Y-102291371D01*
X132472745Y-103791371D02*
X132329888Y-103791371D01*
X132329888Y-103791371D02*
X132187031Y-103719942D01*
X132187031Y-103719942D02*
X132115603Y-103648514D01*
X132115603Y-103648514D02*
X132044174Y-103505657D01*
X132044174Y-103505657D02*
X131972745Y-103219942D01*
X131972745Y-103219942D02*
X131972745Y-102862800D01*
X131972745Y-102862800D02*
X132044174Y-102577085D01*
X132044174Y-102577085D02*
X132115603Y-102434228D01*
X132115603Y-102434228D02*
X132187031Y-102362800D01*
X132187031Y-102362800D02*
X132329888Y-102291371D01*
X132329888Y-102291371D02*
X132472745Y-102291371D01*
X132472745Y-102291371D02*
X132615603Y-102362800D01*
X132615603Y-102362800D02*
X132687031Y-102434228D01*
X132687031Y-102434228D02*
X132758460Y-102577085D01*
X132758460Y-102577085D02*
X132829888Y-102862800D01*
X132829888Y-102862800D02*
X132829888Y-103219942D01*
X132829888Y-103219942D02*
X132758460Y-103505657D01*
X132758460Y-103505657D02*
X132687031Y-103648514D01*
X132687031Y-103648514D02*
X132615603Y-103719942D01*
X132615603Y-103719942D02*
X132472745Y-103791371D01*
X131401317Y-103648514D02*
X131329889Y-103719942D01*
X131329889Y-103719942D02*
X131187032Y-103791371D01*
X131187032Y-103791371D02*
X130829889Y-103791371D01*
X130829889Y-103791371D02*
X130687032Y-103719942D01*
X130687032Y-103719942D02*
X130615603Y-103648514D01*
X130615603Y-103648514D02*
X130544174Y-103505657D01*
X130544174Y-103505657D02*
X130544174Y-103362800D01*
X130544174Y-103362800D02*
X130615603Y-103148514D01*
X130615603Y-103148514D02*
X131472746Y-102291371D01*
X131472746Y-102291371D02*
X130544174Y-102291371D01*
X129258461Y-103291371D02*
X129258461Y-102291371D01*
X129615603Y-103862800D02*
X129972746Y-102791371D01*
X129972746Y-102791371D02*
X129044175Y-102791371D01*
%LPC*%
D11*
X124100000Y-98625000D03*
D12*
X124100000Y-96085000D03*
D13*
X132400000Y-96550000D03*
D14*
X129900000Y-96550000D03*
X135600000Y-98200000D03*
D15*
X135600000Y-90580000D03*
D11*
X124100000Y-102450000D03*
D12*
X124100000Y-104990000D03*
X124100000Y-107530000D03*
D14*
X156710000Y-100850000D03*
D15*
X149090000Y-100850000D03*
D11*
X124105000Y-92300000D03*
D12*
X124105000Y-89760000D03*
X124105000Y-87220000D03*
D16*
X129945100Y-108060000D03*
D17*
X132485100Y-108060000D03*
X135025100Y-108060000D03*
X137565100Y-108060000D03*
X137565100Y-100440000D03*
X135025100Y-100440000D03*
X132485100Y-100440000D03*
X129945100Y-100440000D03*
D18*
X154130000Y-107650000D03*
D19*
X143970000Y-107650000D03*
D13*
X143400000Y-94400000D03*
D14*
X143400000Y-91900000D03*
D18*
X151850000Y-97680000D03*
D19*
X151850000Y-87520000D03*
D13*
X145250000Y-100900000D03*
D14*
X145250000Y-103400000D03*
D18*
X136620000Y-87800000D03*
D19*
X146780000Y-87800000D03*
D14*
X140855100Y-100540000D03*
D15*
X140855100Y-108160000D03*
D14*
X141450000Y-97750000D03*
D15*
X149070000Y-97750000D03*
D14*
X138800000Y-90590000D03*
D15*
X138800000Y-98210000D03*
D11*
X162000000Y-88360000D03*
D12*
X162000000Y-90900000D03*
X162000000Y-93440000D03*
X162000000Y-95980000D03*
X162000000Y-98520000D03*
X162000000Y-101060000D03*
X162000000Y-103600000D03*
X162000000Y-106140000D03*
D20*
X130300000Y-88000000D03*
D14*
X132067767Y-89767767D03*
D18*
X155150000Y-97680000D03*
D19*
X155150000Y-87520000D03*
D14*
X148990000Y-104200000D03*
D15*
X156610000Y-104200000D03*
%LPD*%
M02*
