%TF.GenerationSoftware,KiCad,Pcbnew,7.0.5-7.0.5~ubuntu20.04.1*%
%TF.CreationDate,2023-08-02T18:30:38-03:00*%
%TF.ProjectId,condicionamento_BIA_v02,636f6e64-6963-4696-9f6e-616d656e746f,v01*%
%TF.SameCoordinates,Original*%
%TF.FileFunction,Legend,Top*%
%TF.FilePolarity,Positive*%
%FSLAX46Y46*%
G04 Gerber Fmt 4.6, Leading zero omitted, Abs format (unit mm)*
G04 Created by KiCad (PCBNEW 7.0.5-7.0.5~ubuntu20.04.1) date 2023-08-02 18:30:38*
%MOMM*%
%LPD*%
G01*
G04 APERTURE LIST*
%ADD10C,0.150000*%
%ADD11C,0.120000*%
G04 APERTURE END LIST*
D10*
%TO.C,OLED*%
X165747619Y-142754819D02*
X165938095Y-142754819D01*
X165938095Y-142754819D02*
X166033333Y-142802438D01*
X166033333Y-142802438D02*
X166128571Y-142897676D01*
X166128571Y-142897676D02*
X166176190Y-143088152D01*
X166176190Y-143088152D02*
X166176190Y-143421485D01*
X166176190Y-143421485D02*
X166128571Y-143611961D01*
X166128571Y-143611961D02*
X166033333Y-143707200D01*
X166033333Y-143707200D02*
X165938095Y-143754819D01*
X165938095Y-143754819D02*
X165747619Y-143754819D01*
X165747619Y-143754819D02*
X165652381Y-143707200D01*
X165652381Y-143707200D02*
X165557143Y-143611961D01*
X165557143Y-143611961D02*
X165509524Y-143421485D01*
X165509524Y-143421485D02*
X165509524Y-143088152D01*
X165509524Y-143088152D02*
X165557143Y-142897676D01*
X165557143Y-142897676D02*
X165652381Y-142802438D01*
X165652381Y-142802438D02*
X165747619Y-142754819D01*
X167080952Y-143754819D02*
X166604762Y-143754819D01*
X166604762Y-143754819D02*
X166604762Y-142754819D01*
X167414286Y-143231009D02*
X167747619Y-143231009D01*
X167890476Y-143754819D02*
X167414286Y-143754819D01*
X167414286Y-143754819D02*
X167414286Y-142754819D01*
X167414286Y-142754819D02*
X167890476Y-142754819D01*
X168319048Y-143754819D02*
X168319048Y-142754819D01*
X168319048Y-142754819D02*
X168557143Y-142754819D01*
X168557143Y-142754819D02*
X168700000Y-142802438D01*
X168700000Y-142802438D02*
X168795238Y-142897676D01*
X168795238Y-142897676D02*
X168842857Y-142992914D01*
X168842857Y-142992914D02*
X168890476Y-143183390D01*
X168890476Y-143183390D02*
X168890476Y-143326247D01*
X168890476Y-143326247D02*
X168842857Y-143516723D01*
X168842857Y-143516723D02*
X168795238Y-143611961D01*
X168795238Y-143611961D02*
X168700000Y-143707200D01*
X168700000Y-143707200D02*
X168557143Y-143754819D01*
X168557143Y-143754819D02*
X168319048Y-143754819D01*
D11*
X154000000Y-144900000D02*
X181400000Y-144900000D01*
X154000000Y-172200000D02*
X154000000Y-144900000D01*
X154422000Y-148195000D02*
X177522000Y-148195000D01*
X154422000Y-164795000D02*
X154422000Y-148195000D01*
X162701000Y-145389000D02*
X162701000Y-147802000D01*
X162701000Y-145389000D02*
X172480000Y-145389000D01*
X172480000Y-145389000D02*
X172480000Y-147802000D01*
X172480000Y-147802000D02*
X162701000Y-147802000D01*
X177522000Y-148195000D02*
X180608000Y-148195000D01*
X177522000Y-164795000D02*
X154422000Y-164795000D01*
X177522000Y-164795000D02*
X180862000Y-164820000D01*
X180862000Y-148183000D02*
X180608000Y-148195000D01*
X180862000Y-164820000D02*
X180862000Y-148183000D01*
X181400000Y-144900000D02*
X181400000Y-172200000D01*
X181400000Y-172200000D02*
X154000000Y-172200000D01*
%TD*%
M02*
