%TF.GenerationSoftware,KiCad,Pcbnew,7.0.5-7.0.5~ubuntu20.04.1*%
%TF.CreationDate,2023-08-02T18:30:37-03:00*%
%TF.ProjectId,condicionamento_BIA_v02,636f6e64-6963-4696-9f6e-616d656e746f,v01*%
%TF.SameCoordinates,Original*%
%TF.FileFunction,Copper,L2,Bot*%
%TF.FilePolarity,Positive*%
%FSLAX46Y46*%
G04 Gerber Fmt 4.6, Leading zero omitted, Abs format (unit mm)*
G04 Created by KiCad (PCBNEW 7.0.5-7.0.5~ubuntu20.04.1) date 2023-08-02 18:30:37*
%MOMM*%
%LPD*%
G01*
G04 APERTURE LIST*
%TA.AperFunction,ComponentPad*%
%ADD10O,1.600000X2.000000*%
%TD*%
%TA.AperFunction,ViaPad*%
%ADD11C,2.000000*%
%TD*%
%TA.AperFunction,Conductor*%
%ADD12C,1.270000*%
%TD*%
G04 APERTURE END LIST*
D10*
%TO.P,OLED,1,GND*%
%TO.N,Earth*%
X163780000Y-146600000D03*
%TO.P,OLED,2,VCC*%
%TO.N,+5V*%
X166320000Y-146600000D03*
%TO.P,OLED,3,SCL*%
%TO.N,SCL1*%
X168860000Y-146600000D03*
%TO.P,OLED,4,SDA*%
%TO.N,SDA1*%
X171400000Y-146600000D03*
%TD*%
D11*
%TO.N,Earth*%
X158600000Y-141700000D03*
%TO.N,Net-(J6-Pin_1)*%
X168000000Y-143500000D03*
%TD*%
D12*
%TO.N,Earth*%
X163780000Y-146600000D02*
X163500000Y-146600000D01*
X163500000Y-146600000D02*
X158600000Y-141700000D01*
%TO.N,Amp_E1*%
X146100000Y-109500000D02*
X139400000Y-102800000D01*
X139400000Y-96200000D02*
X137700000Y-94500000D01*
X146100000Y-139300000D02*
X146100000Y-109500000D01*
X139400000Y-102800000D02*
X139400000Y-96200000D01*
X142700000Y-146400000D02*
X142700000Y-142700000D01*
X142700000Y-142700000D02*
X146100000Y-139300000D01*
X137700000Y-94500000D02*
X133100000Y-94500000D01*
%TO.N,Amp_E2*%
X156500000Y-82000000D02*
X156500000Y-57250000D01*
X175430000Y-71680000D02*
X173000000Y-69250000D01*
X173000000Y-61500000D02*
X173000000Y-69250000D01*
X159490000Y-54260000D02*
X165760000Y-54260000D01*
X165760000Y-54260000D02*
X173000000Y-61500000D01*
X177490000Y-71680000D02*
X175430000Y-71680000D01*
X147750000Y-90750000D02*
X156500000Y-82000000D01*
X156500000Y-57250000D02*
X159490000Y-54260000D01*
%TO.N,SCL1*%
X157744500Y-122210000D02*
X157744500Y-92093300D01*
X174000000Y-136000000D02*
X174000000Y-141063497D01*
X157744500Y-92093300D02*
X160377800Y-89460000D01*
X160377800Y-89460000D02*
X162250000Y-89460000D01*
X168860000Y-146203497D02*
X168860000Y-146600000D01*
X174000000Y-141063497D02*
X168860000Y-146203497D01*
%TO.N,SDA1*%
X176134500Y-141865500D02*
X171400000Y-146600000D01*
X176134500Y-138500000D02*
X176134500Y-141865500D01*
X176134500Y-138500000D02*
X176134500Y-132434500D01*
%TO.N,Net-(J6-Pin_1)*%
X163000000Y-138500000D02*
X163000000Y-137500000D01*
X168000000Y-143500000D02*
X163000000Y-138500000D01*
%TD*%
M02*
