G04 #@! TF.GenerationSoftware,KiCad,Pcbnew,7.0.10-7.0.10~ubuntu20.04.1*
G04 #@! TF.CreationDate,2024-06-13T18:01:27-03:00*
G04 #@! TF.ProjectId,Condicionamento_compacto_V01a,436f6e64-6963-4696-9f6e-616d656e746f,rev?*
G04 #@! TF.SameCoordinates,Original*
G04 #@! TF.FileFunction,Legend,Top*
G04 #@! TF.FilePolarity,Positive*
%FSLAX46Y46*%
G04 Gerber Fmt 4.6, Leading zero omitted, Abs format (unit mm)*
G04 Created by KiCad (PCBNEW 7.0.10-7.0.10~ubuntu20.04.1) date 2024-06-13 18:01:27*
%MOMM*%
%LPD*%
G01*
G04 APERTURE LIST*
G04 Aperture macros list*
%AMRotRect*
0 Rectangle, with rotation*
0 The origin of the aperture is its center*
0 $1 length*
0 $2 width*
0 $3 Rotation angle, in degrees counterclockwise*
0 Add horizontal line*
21,1,$1,$2,0,0,$3*%
G04 Aperture macros list end*
%ADD10C,0.100000*%
%ADD11C,0.150000*%
%ADD12C,0.120000*%
%ADD13C,0.152400*%
%ADD14R,1.700000X1.700000*%
%ADD15O,1.700000X1.700000*%
%ADD16R,1.600000X1.600000*%
%ADD17C,1.600000*%
%ADD18O,1.600000X1.600000*%
%ADD19R,1.524000X1.524000*%
%ADD20C,1.524000*%
%ADD21R,2.200000X2.200000*%
%ADD22O,2.200000X2.200000*%
%ADD23RotRect,1.600000X1.600000X315.000000*%
G04 APERTURE END LIST*
D10*
X164122931Y-97920038D02*
X164065789Y-97872419D01*
X164065789Y-97872419D02*
X163980074Y-97872419D01*
X163980074Y-97872419D02*
X163894360Y-97920038D01*
X163894360Y-97920038D02*
X163837217Y-98015276D01*
X163837217Y-98015276D02*
X163808646Y-98110514D01*
X163808646Y-98110514D02*
X163780074Y-98300990D01*
X163780074Y-98300990D02*
X163780074Y-98443847D01*
X163780074Y-98443847D02*
X163808646Y-98634323D01*
X163808646Y-98634323D02*
X163837217Y-98729561D01*
X163837217Y-98729561D02*
X163894360Y-98824800D01*
X163894360Y-98824800D02*
X163980074Y-98872419D01*
X163980074Y-98872419D02*
X164037217Y-98872419D01*
X164037217Y-98872419D02*
X164122931Y-98824800D01*
X164122931Y-98824800D02*
X164151503Y-98777180D01*
X164151503Y-98777180D02*
X164151503Y-98443847D01*
X164151503Y-98443847D02*
X164037217Y-98443847D01*
X164408646Y-98872419D02*
X164408646Y-97872419D01*
X164408646Y-97872419D02*
X164751503Y-98872419D01*
X164751503Y-98872419D02*
X164751503Y-97872419D01*
X165037217Y-98872419D02*
X165037217Y-97872419D01*
X165037217Y-97872419D02*
X165180074Y-97872419D01*
X165180074Y-97872419D02*
X165265788Y-97920038D01*
X165265788Y-97920038D02*
X165322931Y-98015276D01*
X165322931Y-98015276D02*
X165351502Y-98110514D01*
X165351502Y-98110514D02*
X165380074Y-98300990D01*
X165380074Y-98300990D02*
X165380074Y-98443847D01*
X165380074Y-98443847D02*
X165351502Y-98634323D01*
X165351502Y-98634323D02*
X165322931Y-98729561D01*
X165322931Y-98729561D02*
X165265788Y-98824800D01*
X165265788Y-98824800D02*
X165180074Y-98872419D01*
X165180074Y-98872419D02*
X165037217Y-98872419D01*
X163922931Y-90272419D02*
X164037217Y-90272419D01*
X164037217Y-90272419D02*
X164094360Y-90320038D01*
X164094360Y-90320038D02*
X164151503Y-90415276D01*
X164151503Y-90415276D02*
X164180074Y-90605752D01*
X164180074Y-90605752D02*
X164180074Y-90939085D01*
X164180074Y-90939085D02*
X164151503Y-91129561D01*
X164151503Y-91129561D02*
X164094360Y-91224800D01*
X164094360Y-91224800D02*
X164037217Y-91272419D01*
X164037217Y-91272419D02*
X163922931Y-91272419D01*
X163922931Y-91272419D02*
X163865789Y-91224800D01*
X163865789Y-91224800D02*
X163808646Y-91129561D01*
X163808646Y-91129561D02*
X163780074Y-90939085D01*
X163780074Y-90939085D02*
X163780074Y-90605752D01*
X163780074Y-90605752D02*
X163808646Y-90415276D01*
X163808646Y-90415276D02*
X163865789Y-90320038D01*
X163865789Y-90320038D02*
X163922931Y-90272419D01*
X164694360Y-90605752D02*
X164694360Y-91272419D01*
X164437217Y-90605752D02*
X164437217Y-91129561D01*
X164437217Y-91129561D02*
X164465788Y-91224800D01*
X164465788Y-91224800D02*
X164522931Y-91272419D01*
X164522931Y-91272419D02*
X164608645Y-91272419D01*
X164608645Y-91272419D02*
X164665788Y-91224800D01*
X164665788Y-91224800D02*
X164694360Y-91177180D01*
X164894359Y-90605752D02*
X165122931Y-90605752D01*
X164980074Y-90272419D02*
X164980074Y-91129561D01*
X164980074Y-91129561D02*
X165008645Y-91224800D01*
X165008645Y-91224800D02*
X165065788Y-91272419D01*
X165065788Y-91272419D02*
X165122931Y-91272419D01*
X165637216Y-91272419D02*
X165294359Y-91272419D01*
X165465788Y-91272419D02*
X165465788Y-90272419D01*
X165465788Y-90272419D02*
X165408645Y-90415276D01*
X165408645Y-90415276D02*
X165351502Y-90510514D01*
X165351502Y-90510514D02*
X165294359Y-90558133D01*
X125972931Y-86620038D02*
X125915789Y-86572419D01*
X125915789Y-86572419D02*
X125830074Y-86572419D01*
X125830074Y-86572419D02*
X125744360Y-86620038D01*
X125744360Y-86620038D02*
X125687217Y-86715276D01*
X125687217Y-86715276D02*
X125658646Y-86810514D01*
X125658646Y-86810514D02*
X125630074Y-87000990D01*
X125630074Y-87000990D02*
X125630074Y-87143847D01*
X125630074Y-87143847D02*
X125658646Y-87334323D01*
X125658646Y-87334323D02*
X125687217Y-87429561D01*
X125687217Y-87429561D02*
X125744360Y-87524800D01*
X125744360Y-87524800D02*
X125830074Y-87572419D01*
X125830074Y-87572419D02*
X125887217Y-87572419D01*
X125887217Y-87572419D02*
X125972931Y-87524800D01*
X125972931Y-87524800D02*
X126001503Y-87477180D01*
X126001503Y-87477180D02*
X126001503Y-87143847D01*
X126001503Y-87143847D02*
X125887217Y-87143847D01*
X126258646Y-87572419D02*
X126258646Y-86572419D01*
X126258646Y-86572419D02*
X126601503Y-87572419D01*
X126601503Y-87572419D02*
X126601503Y-86572419D01*
X126887217Y-87572419D02*
X126887217Y-86572419D01*
X126887217Y-86572419D02*
X127030074Y-86572419D01*
X127030074Y-86572419D02*
X127115788Y-86620038D01*
X127115788Y-86620038D02*
X127172931Y-86715276D01*
X127172931Y-86715276D02*
X127201502Y-86810514D01*
X127201502Y-86810514D02*
X127230074Y-87000990D01*
X127230074Y-87000990D02*
X127230074Y-87143847D01*
X127230074Y-87143847D02*
X127201502Y-87334323D01*
X127201502Y-87334323D02*
X127172931Y-87429561D01*
X127172931Y-87429561D02*
X127115788Y-87524800D01*
X127115788Y-87524800D02*
X127030074Y-87572419D01*
X127030074Y-87572419D02*
X126887217Y-87572419D01*
X157967180Y-97048496D02*
X158014800Y-97077068D01*
X158014800Y-97077068D02*
X158062419Y-97162782D01*
X158062419Y-97162782D02*
X158062419Y-97219925D01*
X158062419Y-97219925D02*
X158014800Y-97305639D01*
X158014800Y-97305639D02*
X157919561Y-97362782D01*
X157919561Y-97362782D02*
X157824323Y-97391353D01*
X157824323Y-97391353D02*
X157633847Y-97419925D01*
X157633847Y-97419925D02*
X157490990Y-97419925D01*
X157490990Y-97419925D02*
X157300514Y-97391353D01*
X157300514Y-97391353D02*
X157205276Y-97362782D01*
X157205276Y-97362782D02*
X157110038Y-97305639D01*
X157110038Y-97305639D02*
X157062419Y-97219925D01*
X157062419Y-97219925D02*
X157062419Y-97162782D01*
X157062419Y-97162782D02*
X157110038Y-97077068D01*
X157110038Y-97077068D02*
X157157657Y-97048496D01*
X158014800Y-96819925D02*
X158062419Y-96734211D01*
X158062419Y-96734211D02*
X158062419Y-96591353D01*
X158062419Y-96591353D02*
X158014800Y-96534211D01*
X158014800Y-96534211D02*
X157967180Y-96505639D01*
X157967180Y-96505639D02*
X157871942Y-96477068D01*
X157871942Y-96477068D02*
X157776704Y-96477068D01*
X157776704Y-96477068D02*
X157681466Y-96505639D01*
X157681466Y-96505639D02*
X157633847Y-96534211D01*
X157633847Y-96534211D02*
X157586228Y-96591353D01*
X157586228Y-96591353D02*
X157538609Y-96705639D01*
X157538609Y-96705639D02*
X157490990Y-96762782D01*
X157490990Y-96762782D02*
X157443371Y-96791353D01*
X157443371Y-96791353D02*
X157348133Y-96819925D01*
X157348133Y-96819925D02*
X157252895Y-96819925D01*
X157252895Y-96819925D02*
X157157657Y-96791353D01*
X157157657Y-96791353D02*
X157110038Y-96762782D01*
X157110038Y-96762782D02*
X157062419Y-96705639D01*
X157062419Y-96705639D02*
X157062419Y-96562782D01*
X157062419Y-96562782D02*
X157110038Y-96477068D01*
X157681466Y-96219924D02*
X157681466Y-95762782D01*
X157967180Y-95134210D02*
X158014800Y-95162782D01*
X158014800Y-95162782D02*
X158062419Y-95248496D01*
X158062419Y-95248496D02*
X158062419Y-95305639D01*
X158062419Y-95305639D02*
X158014800Y-95391353D01*
X158014800Y-95391353D02*
X157919561Y-95448496D01*
X157919561Y-95448496D02*
X157824323Y-95477067D01*
X157824323Y-95477067D02*
X157633847Y-95505639D01*
X157633847Y-95505639D02*
X157490990Y-95505639D01*
X157490990Y-95505639D02*
X157300514Y-95477067D01*
X157300514Y-95477067D02*
X157205276Y-95448496D01*
X157205276Y-95448496D02*
X157110038Y-95391353D01*
X157110038Y-95391353D02*
X157062419Y-95305639D01*
X157062419Y-95305639D02*
X157062419Y-95248496D01*
X157062419Y-95248496D02*
X157110038Y-95162782D01*
X157110038Y-95162782D02*
X157157657Y-95134210D01*
X158062419Y-94791353D02*
X158014800Y-94848496D01*
X158014800Y-94848496D02*
X157967180Y-94877067D01*
X157967180Y-94877067D02*
X157871942Y-94905639D01*
X157871942Y-94905639D02*
X157586228Y-94905639D01*
X157586228Y-94905639D02*
X157490990Y-94877067D01*
X157490990Y-94877067D02*
X157443371Y-94848496D01*
X157443371Y-94848496D02*
X157395752Y-94791353D01*
X157395752Y-94791353D02*
X157395752Y-94705639D01*
X157395752Y-94705639D02*
X157443371Y-94648496D01*
X157443371Y-94648496D02*
X157490990Y-94619925D01*
X157490990Y-94619925D02*
X157586228Y-94591353D01*
X157586228Y-94591353D02*
X157871942Y-94591353D01*
X157871942Y-94591353D02*
X157967180Y-94619925D01*
X157967180Y-94619925D02*
X158014800Y-94648496D01*
X158014800Y-94648496D02*
X158062419Y-94705639D01*
X158062419Y-94705639D02*
X158062419Y-94791353D01*
X158062419Y-94334210D02*
X157395752Y-94334210D01*
X157490990Y-94334210D02*
X157443371Y-94305639D01*
X157443371Y-94305639D02*
X157395752Y-94248496D01*
X157395752Y-94248496D02*
X157395752Y-94162782D01*
X157395752Y-94162782D02*
X157443371Y-94105639D01*
X157443371Y-94105639D02*
X157538609Y-94077068D01*
X157538609Y-94077068D02*
X158062419Y-94077068D01*
X157538609Y-94077068D02*
X157443371Y-94048496D01*
X157443371Y-94048496D02*
X157395752Y-93991353D01*
X157395752Y-93991353D02*
X157395752Y-93905639D01*
X157395752Y-93905639D02*
X157443371Y-93848496D01*
X157443371Y-93848496D02*
X157538609Y-93819925D01*
X157538609Y-93819925D02*
X158062419Y-93819925D01*
X157395752Y-93534210D02*
X158395752Y-93534210D01*
X157443371Y-93534210D02*
X157395752Y-93477068D01*
X157395752Y-93477068D02*
X157395752Y-93362782D01*
X157395752Y-93362782D02*
X157443371Y-93305639D01*
X157443371Y-93305639D02*
X157490990Y-93277068D01*
X157490990Y-93277068D02*
X157586228Y-93248496D01*
X157586228Y-93248496D02*
X157871942Y-93248496D01*
X157871942Y-93248496D02*
X157967180Y-93277068D01*
X157967180Y-93277068D02*
X158014800Y-93305639D01*
X158014800Y-93305639D02*
X158062419Y-93362782D01*
X158062419Y-93362782D02*
X158062419Y-93477068D01*
X158062419Y-93477068D02*
X158014800Y-93534210D01*
X158062419Y-92734211D02*
X157538609Y-92734211D01*
X157538609Y-92734211D02*
X157443371Y-92762782D01*
X157443371Y-92762782D02*
X157395752Y-92819925D01*
X157395752Y-92819925D02*
X157395752Y-92934211D01*
X157395752Y-92934211D02*
X157443371Y-92991353D01*
X158014800Y-92734211D02*
X158062419Y-92791353D01*
X158062419Y-92791353D02*
X158062419Y-92934211D01*
X158062419Y-92934211D02*
X158014800Y-92991353D01*
X158014800Y-92991353D02*
X157919561Y-93019925D01*
X157919561Y-93019925D02*
X157824323Y-93019925D01*
X157824323Y-93019925D02*
X157729085Y-92991353D01*
X157729085Y-92991353D02*
X157681466Y-92934211D01*
X157681466Y-92934211D02*
X157681466Y-92791353D01*
X157681466Y-92791353D02*
X157633847Y-92734211D01*
X158014800Y-92191354D02*
X158062419Y-92248496D01*
X158062419Y-92248496D02*
X158062419Y-92362782D01*
X158062419Y-92362782D02*
X158014800Y-92419925D01*
X158014800Y-92419925D02*
X157967180Y-92448496D01*
X157967180Y-92448496D02*
X157871942Y-92477068D01*
X157871942Y-92477068D02*
X157586228Y-92477068D01*
X157586228Y-92477068D02*
X157490990Y-92448496D01*
X157490990Y-92448496D02*
X157443371Y-92419925D01*
X157443371Y-92419925D02*
X157395752Y-92362782D01*
X157395752Y-92362782D02*
X157395752Y-92248496D01*
X157395752Y-92248496D02*
X157443371Y-92191354D01*
X158672419Y-97477068D02*
X159672419Y-97277068D01*
X159672419Y-97277068D02*
X158672419Y-97077068D01*
X158672419Y-96762782D02*
X158672419Y-96705639D01*
X158672419Y-96705639D02*
X158720038Y-96648496D01*
X158720038Y-96648496D02*
X158767657Y-96619925D01*
X158767657Y-96619925D02*
X158862895Y-96591353D01*
X158862895Y-96591353D02*
X159053371Y-96562782D01*
X159053371Y-96562782D02*
X159291466Y-96562782D01*
X159291466Y-96562782D02*
X159481942Y-96591353D01*
X159481942Y-96591353D02*
X159577180Y-96619925D01*
X159577180Y-96619925D02*
X159624800Y-96648496D01*
X159624800Y-96648496D02*
X159672419Y-96705639D01*
X159672419Y-96705639D02*
X159672419Y-96762782D01*
X159672419Y-96762782D02*
X159624800Y-96819925D01*
X159624800Y-96819925D02*
X159577180Y-96848496D01*
X159577180Y-96848496D02*
X159481942Y-96877067D01*
X159481942Y-96877067D02*
X159291466Y-96905639D01*
X159291466Y-96905639D02*
X159053371Y-96905639D01*
X159053371Y-96905639D02*
X158862895Y-96877067D01*
X158862895Y-96877067D02*
X158767657Y-96848496D01*
X158767657Y-96848496D02*
X158720038Y-96819925D01*
X158720038Y-96819925D02*
X158672419Y-96762782D01*
X159672419Y-95991353D02*
X159672419Y-96334210D01*
X159672419Y-96162781D02*
X158672419Y-96162781D01*
X158672419Y-96162781D02*
X158815276Y-96219924D01*
X158815276Y-96219924D02*
X158910514Y-96277067D01*
X158910514Y-96277067D02*
X158958133Y-96334210D01*
X159672419Y-95477067D02*
X159148609Y-95477067D01*
X159148609Y-95477067D02*
X159053371Y-95505638D01*
X159053371Y-95505638D02*
X159005752Y-95562781D01*
X159005752Y-95562781D02*
X159005752Y-95677067D01*
X159005752Y-95677067D02*
X159053371Y-95734209D01*
X159624800Y-95477067D02*
X159672419Y-95534209D01*
X159672419Y-95534209D02*
X159672419Y-95677067D01*
X159672419Y-95677067D02*
X159624800Y-95734209D01*
X159624800Y-95734209D02*
X159529561Y-95762781D01*
X159529561Y-95762781D02*
X159434323Y-95762781D01*
X159434323Y-95762781D02*
X159339085Y-95734209D01*
X159339085Y-95734209D02*
X159291466Y-95677067D01*
X159291466Y-95677067D02*
X159291466Y-95534209D01*
X159291466Y-95534209D02*
X159243847Y-95477067D01*
X159291466Y-95191352D02*
X159291466Y-94734210D01*
X158767657Y-94477067D02*
X158720038Y-94448495D01*
X158720038Y-94448495D02*
X158672419Y-94391353D01*
X158672419Y-94391353D02*
X158672419Y-94248495D01*
X158672419Y-94248495D02*
X158720038Y-94191353D01*
X158720038Y-94191353D02*
X158767657Y-94162781D01*
X158767657Y-94162781D02*
X158862895Y-94134210D01*
X158862895Y-94134210D02*
X158958133Y-94134210D01*
X158958133Y-94134210D02*
X159100990Y-94162781D01*
X159100990Y-94162781D02*
X159672419Y-94505638D01*
X159672419Y-94505638D02*
X159672419Y-94134210D01*
X158672419Y-93762781D02*
X158672419Y-93705638D01*
X158672419Y-93705638D02*
X158720038Y-93648495D01*
X158720038Y-93648495D02*
X158767657Y-93619924D01*
X158767657Y-93619924D02*
X158862895Y-93591352D01*
X158862895Y-93591352D02*
X159053371Y-93562781D01*
X159053371Y-93562781D02*
X159291466Y-93562781D01*
X159291466Y-93562781D02*
X159481942Y-93591352D01*
X159481942Y-93591352D02*
X159577180Y-93619924D01*
X159577180Y-93619924D02*
X159624800Y-93648495D01*
X159624800Y-93648495D02*
X159672419Y-93705638D01*
X159672419Y-93705638D02*
X159672419Y-93762781D01*
X159672419Y-93762781D02*
X159624800Y-93819924D01*
X159624800Y-93819924D02*
X159577180Y-93848495D01*
X159577180Y-93848495D02*
X159481942Y-93877066D01*
X159481942Y-93877066D02*
X159291466Y-93905638D01*
X159291466Y-93905638D02*
X159053371Y-93905638D01*
X159053371Y-93905638D02*
X158862895Y-93877066D01*
X158862895Y-93877066D02*
X158767657Y-93848495D01*
X158767657Y-93848495D02*
X158720038Y-93819924D01*
X158720038Y-93819924D02*
X158672419Y-93762781D01*
X158767657Y-93334209D02*
X158720038Y-93305637D01*
X158720038Y-93305637D02*
X158672419Y-93248495D01*
X158672419Y-93248495D02*
X158672419Y-93105637D01*
X158672419Y-93105637D02*
X158720038Y-93048495D01*
X158720038Y-93048495D02*
X158767657Y-93019923D01*
X158767657Y-93019923D02*
X158862895Y-92991352D01*
X158862895Y-92991352D02*
X158958133Y-92991352D01*
X158958133Y-92991352D02*
X159100990Y-93019923D01*
X159100990Y-93019923D02*
X159672419Y-93362780D01*
X159672419Y-93362780D02*
X159672419Y-92991352D01*
X159005752Y-92477066D02*
X159672419Y-92477066D01*
X158624800Y-92619923D02*
X159339085Y-92762780D01*
X159339085Y-92762780D02*
X159339085Y-92391351D01*
X125583646Y-104630752D02*
X125583646Y-105297419D01*
X125583646Y-104725990D02*
X125612217Y-104678371D01*
X125612217Y-104678371D02*
X125669360Y-104630752D01*
X125669360Y-104630752D02*
X125755074Y-104630752D01*
X125755074Y-104630752D02*
X125812217Y-104678371D01*
X125812217Y-104678371D02*
X125840789Y-104773609D01*
X125840789Y-104773609D02*
X125840789Y-105297419D01*
X126212217Y-105297419D02*
X126155074Y-105249800D01*
X126155074Y-105249800D02*
X126126503Y-105202180D01*
X126126503Y-105202180D02*
X126097931Y-105106942D01*
X126097931Y-105106942D02*
X126097931Y-104821228D01*
X126097931Y-104821228D02*
X126126503Y-104725990D01*
X126126503Y-104725990D02*
X126155074Y-104678371D01*
X126155074Y-104678371D02*
X126212217Y-104630752D01*
X126212217Y-104630752D02*
X126297931Y-104630752D01*
X126297931Y-104630752D02*
X126355074Y-104678371D01*
X126355074Y-104678371D02*
X126383646Y-104725990D01*
X126383646Y-104725990D02*
X126412217Y-104821228D01*
X126412217Y-104821228D02*
X126412217Y-105106942D01*
X126412217Y-105106942D02*
X126383646Y-105202180D01*
X126383646Y-105202180D02*
X126355074Y-105249800D01*
X126355074Y-105249800D02*
X126297931Y-105297419D01*
X126297931Y-105297419D02*
X126212217Y-105297419D01*
X126326503Y-104249800D02*
X126240788Y-104392657D01*
X126640788Y-104392657D02*
X126669360Y-104345038D01*
X126669360Y-104345038D02*
X126726503Y-104297419D01*
X126726503Y-104297419D02*
X126869360Y-104297419D01*
X126869360Y-104297419D02*
X126926503Y-104345038D01*
X126926503Y-104345038D02*
X126955074Y-104392657D01*
X126955074Y-104392657D02*
X126983645Y-104487895D01*
X126983645Y-104487895D02*
X126983645Y-104583133D01*
X126983645Y-104583133D02*
X126955074Y-104725990D01*
X126955074Y-104725990D02*
X126612217Y-105297419D01*
X126612217Y-105297419D02*
X126983645Y-105297419D01*
X164008646Y-96272419D02*
X164008646Y-95272419D01*
X164294360Y-95605752D02*
X164294360Y-96272419D01*
X164294360Y-95700990D02*
X164322931Y-95653371D01*
X164322931Y-95653371D02*
X164380074Y-95605752D01*
X164380074Y-95605752D02*
X164465788Y-95605752D01*
X164465788Y-95605752D02*
X164522931Y-95653371D01*
X164522931Y-95653371D02*
X164551503Y-95748609D01*
X164551503Y-95748609D02*
X164551503Y-96272419D01*
X165151502Y-96272419D02*
X164808645Y-96272419D01*
X164980074Y-96272419D02*
X164980074Y-95272419D01*
X164980074Y-95272419D02*
X164922931Y-95415276D01*
X164922931Y-95415276D02*
X164865788Y-95510514D01*
X164865788Y-95510514D02*
X164808645Y-95558133D01*
X126251390Y-95453884D02*
X126251390Y-95787217D01*
X125727580Y-95930074D02*
X125727580Y-95453884D01*
X125727580Y-95453884D02*
X126727580Y-95453884D01*
X126727580Y-95453884D02*
X126727580Y-95930074D01*
X126632342Y-96311027D02*
X126679961Y-96358646D01*
X126679961Y-96358646D02*
X126727580Y-96453884D01*
X126727580Y-96453884D02*
X126727580Y-96691979D01*
X126727580Y-96691979D02*
X126679961Y-96787217D01*
X126679961Y-96787217D02*
X126632342Y-96834836D01*
X126632342Y-96834836D02*
X126537104Y-96882455D01*
X126537104Y-96882455D02*
X126441866Y-96882455D01*
X126441866Y-96882455D02*
X126299009Y-96834836D01*
X126299009Y-96834836D02*
X125727580Y-96263408D01*
X125727580Y-96263408D02*
X125727580Y-96882455D01*
X164008646Y-93772419D02*
X164008646Y-92772419D01*
X164294360Y-93105752D02*
X164294360Y-93772419D01*
X164294360Y-93200990D02*
X164322931Y-93153371D01*
X164322931Y-93153371D02*
X164380074Y-93105752D01*
X164380074Y-93105752D02*
X164465788Y-93105752D01*
X164465788Y-93105752D02*
X164522931Y-93153371D01*
X164522931Y-93153371D02*
X164551503Y-93248609D01*
X164551503Y-93248609D02*
X164551503Y-93772419D01*
X164808645Y-92867657D02*
X164837217Y-92820038D01*
X164837217Y-92820038D02*
X164894360Y-92772419D01*
X164894360Y-92772419D02*
X165037217Y-92772419D01*
X165037217Y-92772419D02*
X165094360Y-92820038D01*
X165094360Y-92820038D02*
X165122931Y-92867657D01*
X165122931Y-92867657D02*
X165151502Y-92962895D01*
X165151502Y-92962895D02*
X165151502Y-93058133D01*
X165151502Y-93058133D02*
X165122931Y-93200990D01*
X165122931Y-93200990D02*
X164780074Y-93772419D01*
X164780074Y-93772419D02*
X165151502Y-93772419D01*
X125658646Y-89355752D02*
X125658646Y-90022419D01*
X125658646Y-89450990D02*
X125687217Y-89403371D01*
X125687217Y-89403371D02*
X125744360Y-89355752D01*
X125744360Y-89355752D02*
X125830074Y-89355752D01*
X125830074Y-89355752D02*
X125887217Y-89403371D01*
X125887217Y-89403371D02*
X125915789Y-89498609D01*
X125915789Y-89498609D02*
X125915789Y-90022419D01*
X126287217Y-90022419D02*
X126230074Y-89974800D01*
X126230074Y-89974800D02*
X126201503Y-89927180D01*
X126201503Y-89927180D02*
X126172931Y-89831942D01*
X126172931Y-89831942D02*
X126172931Y-89546228D01*
X126172931Y-89546228D02*
X126201503Y-89450990D01*
X126201503Y-89450990D02*
X126230074Y-89403371D01*
X126230074Y-89403371D02*
X126287217Y-89355752D01*
X126287217Y-89355752D02*
X126372931Y-89355752D01*
X126372931Y-89355752D02*
X126430074Y-89403371D01*
X126430074Y-89403371D02*
X126458646Y-89450990D01*
X126458646Y-89450990D02*
X126487217Y-89546228D01*
X126487217Y-89546228D02*
X126487217Y-89831942D01*
X126487217Y-89831942D02*
X126458646Y-89927180D01*
X126458646Y-89927180D02*
X126430074Y-89974800D01*
X126430074Y-89974800D02*
X126372931Y-90022419D01*
X126372931Y-90022419D02*
X126287217Y-90022419D01*
X126401503Y-88974800D02*
X126315788Y-89117657D01*
X127001503Y-89355752D02*
X127001503Y-90022419D01*
X126858645Y-88974800D02*
X126715788Y-89689085D01*
X126715788Y-89689085D02*
X127087217Y-89689085D01*
X163708646Y-106091466D02*
X164165789Y-106091466D01*
X163937217Y-106472419D02*
X163937217Y-105710514D01*
X164480074Y-106472419D02*
X164594360Y-106472419D01*
X164594360Y-106472419D02*
X164651503Y-106424800D01*
X164651503Y-106424800D02*
X164680074Y-106377180D01*
X164680074Y-106377180D02*
X164737217Y-106234323D01*
X164737217Y-106234323D02*
X164765788Y-106043847D01*
X164765788Y-106043847D02*
X164765788Y-105662895D01*
X164765788Y-105662895D02*
X164737217Y-105567657D01*
X164737217Y-105567657D02*
X164708646Y-105520038D01*
X164708646Y-105520038D02*
X164651503Y-105472419D01*
X164651503Y-105472419D02*
X164537217Y-105472419D01*
X164537217Y-105472419D02*
X164480074Y-105520038D01*
X164480074Y-105520038D02*
X164451503Y-105567657D01*
X164451503Y-105567657D02*
X164422931Y-105662895D01*
X164422931Y-105662895D02*
X164422931Y-105900990D01*
X164422931Y-105900990D02*
X164451503Y-105996228D01*
X164451503Y-105996228D02*
X164480074Y-106043847D01*
X164480074Y-106043847D02*
X164537217Y-106091466D01*
X164537217Y-106091466D02*
X164651503Y-106091466D01*
X164651503Y-106091466D02*
X164708646Y-106043847D01*
X164708646Y-106043847D02*
X164737217Y-105996228D01*
X164737217Y-105996228D02*
X164765788Y-105900990D01*
X164937217Y-105472419D02*
X165137217Y-106472419D01*
X165137217Y-106472419D02*
X165337217Y-105472419D01*
X125658646Y-91955752D02*
X125658646Y-92622419D01*
X125658646Y-92050990D02*
X125687217Y-92003371D01*
X125687217Y-92003371D02*
X125744360Y-91955752D01*
X125744360Y-91955752D02*
X125830074Y-91955752D01*
X125830074Y-91955752D02*
X125887217Y-92003371D01*
X125887217Y-92003371D02*
X125915789Y-92098609D01*
X125915789Y-92098609D02*
X125915789Y-92622419D01*
X126287217Y-92622419D02*
X126230074Y-92574800D01*
X126230074Y-92574800D02*
X126201503Y-92527180D01*
X126201503Y-92527180D02*
X126172931Y-92431942D01*
X126172931Y-92431942D02*
X126172931Y-92146228D01*
X126172931Y-92146228D02*
X126201503Y-92050990D01*
X126201503Y-92050990D02*
X126230074Y-92003371D01*
X126230074Y-92003371D02*
X126287217Y-91955752D01*
X126287217Y-91955752D02*
X126372931Y-91955752D01*
X126372931Y-91955752D02*
X126430074Y-92003371D01*
X126430074Y-92003371D02*
X126458646Y-92050990D01*
X126458646Y-92050990D02*
X126487217Y-92146228D01*
X126487217Y-92146228D02*
X126487217Y-92431942D01*
X126487217Y-92431942D02*
X126458646Y-92527180D01*
X126458646Y-92527180D02*
X126430074Y-92574800D01*
X126430074Y-92574800D02*
X126372931Y-92622419D01*
X126372931Y-92622419D02*
X126287217Y-92622419D01*
X126401503Y-91574800D02*
X126315788Y-91717657D01*
X126687217Y-91622419D02*
X127058645Y-91622419D01*
X127058645Y-91622419D02*
X126858645Y-92003371D01*
X126858645Y-92003371D02*
X126944360Y-92003371D01*
X126944360Y-92003371D02*
X127001503Y-92050990D01*
X127001503Y-92050990D02*
X127030074Y-92098609D01*
X127030074Y-92098609D02*
X127058645Y-92193847D01*
X127058645Y-92193847D02*
X127058645Y-92431942D01*
X127058645Y-92431942D02*
X127030074Y-92527180D01*
X127030074Y-92527180D02*
X127001503Y-92574800D01*
X127001503Y-92574800D02*
X126944360Y-92622419D01*
X126944360Y-92622419D02*
X126772931Y-92622419D01*
X126772931Y-92622419D02*
X126715788Y-92574800D01*
X126715788Y-92574800D02*
X126687217Y-92527180D01*
X163822931Y-100472419D02*
X164022931Y-101472419D01*
X164022931Y-101472419D02*
X164222931Y-100472419D01*
X164422932Y-101472419D02*
X164422932Y-100805752D01*
X164422932Y-100996228D02*
X164451503Y-100900990D01*
X164451503Y-100900990D02*
X164480075Y-100853371D01*
X164480075Y-100853371D02*
X164537217Y-100805752D01*
X164537217Y-100805752D02*
X164594360Y-100805752D01*
X165022932Y-101424800D02*
X164965789Y-101472419D01*
X164965789Y-101472419D02*
X164851504Y-101472419D01*
X164851504Y-101472419D02*
X164794361Y-101424800D01*
X164794361Y-101424800D02*
X164765789Y-101329561D01*
X164765789Y-101329561D02*
X164765789Y-100948609D01*
X164765789Y-100948609D02*
X164794361Y-100853371D01*
X164794361Y-100853371D02*
X164851504Y-100805752D01*
X164851504Y-100805752D02*
X164965789Y-100805752D01*
X164965789Y-100805752D02*
X165022932Y-100853371D01*
X165022932Y-100853371D02*
X165051504Y-100948609D01*
X165051504Y-100948609D02*
X165051504Y-101043847D01*
X165051504Y-101043847D02*
X164765789Y-101139085D01*
X165222932Y-100805752D02*
X165451504Y-100805752D01*
X165308647Y-101472419D02*
X165308647Y-100615276D01*
X165308647Y-100615276D02*
X165337218Y-100520038D01*
X165337218Y-100520038D02*
X165394361Y-100472419D01*
X165394361Y-100472419D02*
X165451504Y-100472419D01*
X126176390Y-98103884D02*
X126176390Y-98437217D01*
X125652580Y-98580074D02*
X125652580Y-98103884D01*
X125652580Y-98103884D02*
X126652580Y-98103884D01*
X126652580Y-98103884D02*
X126652580Y-98580074D01*
X125652580Y-99532455D02*
X125652580Y-98961027D01*
X125652580Y-99246741D02*
X126652580Y-99246741D01*
X126652580Y-99246741D02*
X126509723Y-99151503D01*
X126509723Y-99151503D02*
X126414485Y-99056265D01*
X126414485Y-99056265D02*
X126366866Y-98961027D01*
X163922931Y-87672419D02*
X164037217Y-87672419D01*
X164037217Y-87672419D02*
X164094360Y-87720038D01*
X164094360Y-87720038D02*
X164151503Y-87815276D01*
X164151503Y-87815276D02*
X164180074Y-88005752D01*
X164180074Y-88005752D02*
X164180074Y-88339085D01*
X164180074Y-88339085D02*
X164151503Y-88529561D01*
X164151503Y-88529561D02*
X164094360Y-88624800D01*
X164094360Y-88624800D02*
X164037217Y-88672419D01*
X164037217Y-88672419D02*
X163922931Y-88672419D01*
X163922931Y-88672419D02*
X163865789Y-88624800D01*
X163865789Y-88624800D02*
X163808646Y-88529561D01*
X163808646Y-88529561D02*
X163780074Y-88339085D01*
X163780074Y-88339085D02*
X163780074Y-88005752D01*
X163780074Y-88005752D02*
X163808646Y-87815276D01*
X163808646Y-87815276D02*
X163865789Y-87720038D01*
X163865789Y-87720038D02*
X163922931Y-87672419D01*
X164694360Y-88005752D02*
X164694360Y-88672419D01*
X164437217Y-88005752D02*
X164437217Y-88529561D01*
X164437217Y-88529561D02*
X164465788Y-88624800D01*
X164465788Y-88624800D02*
X164522931Y-88672419D01*
X164522931Y-88672419D02*
X164608645Y-88672419D01*
X164608645Y-88672419D02*
X164665788Y-88624800D01*
X164665788Y-88624800D02*
X164694360Y-88577180D01*
X164894359Y-88005752D02*
X165122931Y-88005752D01*
X164980074Y-87672419D02*
X164980074Y-88529561D01*
X164980074Y-88529561D02*
X165008645Y-88624800D01*
X165008645Y-88624800D02*
X165065788Y-88672419D01*
X165065788Y-88672419D02*
X165122931Y-88672419D01*
X165294359Y-87767657D02*
X165322931Y-87720038D01*
X165322931Y-87720038D02*
X165380074Y-87672419D01*
X165380074Y-87672419D02*
X165522931Y-87672419D01*
X165522931Y-87672419D02*
X165580074Y-87720038D01*
X165580074Y-87720038D02*
X165608645Y-87767657D01*
X165608645Y-87767657D02*
X165637216Y-87862895D01*
X165637216Y-87862895D02*
X165637216Y-87958133D01*
X165637216Y-87958133D02*
X165608645Y-88100990D01*
X165608645Y-88100990D02*
X165265788Y-88672419D01*
X165265788Y-88672419D02*
X165637216Y-88672419D01*
X125972931Y-106995038D02*
X125915789Y-106947419D01*
X125915789Y-106947419D02*
X125830074Y-106947419D01*
X125830074Y-106947419D02*
X125744360Y-106995038D01*
X125744360Y-106995038D02*
X125687217Y-107090276D01*
X125687217Y-107090276D02*
X125658646Y-107185514D01*
X125658646Y-107185514D02*
X125630074Y-107375990D01*
X125630074Y-107375990D02*
X125630074Y-107518847D01*
X125630074Y-107518847D02*
X125658646Y-107709323D01*
X125658646Y-107709323D02*
X125687217Y-107804561D01*
X125687217Y-107804561D02*
X125744360Y-107899800D01*
X125744360Y-107899800D02*
X125830074Y-107947419D01*
X125830074Y-107947419D02*
X125887217Y-107947419D01*
X125887217Y-107947419D02*
X125972931Y-107899800D01*
X125972931Y-107899800D02*
X126001503Y-107852180D01*
X126001503Y-107852180D02*
X126001503Y-107518847D01*
X126001503Y-107518847D02*
X125887217Y-107518847D01*
X126258646Y-107947419D02*
X126258646Y-106947419D01*
X126258646Y-106947419D02*
X126601503Y-107947419D01*
X126601503Y-107947419D02*
X126601503Y-106947419D01*
X126887217Y-107947419D02*
X126887217Y-106947419D01*
X126887217Y-106947419D02*
X127030074Y-106947419D01*
X127030074Y-106947419D02*
X127115788Y-106995038D01*
X127115788Y-106995038D02*
X127172931Y-107090276D01*
X127172931Y-107090276D02*
X127201502Y-107185514D01*
X127201502Y-107185514D02*
X127230074Y-107375990D01*
X127230074Y-107375990D02*
X127230074Y-107518847D01*
X127230074Y-107518847D02*
X127201502Y-107709323D01*
X127201502Y-107709323D02*
X127172931Y-107804561D01*
X127172931Y-107804561D02*
X127115788Y-107899800D01*
X127115788Y-107899800D02*
X127030074Y-107947419D01*
X127030074Y-107947419D02*
X126887217Y-107947419D01*
X125758646Y-101955752D02*
X125758646Y-102622419D01*
X125758646Y-102050990D02*
X125787217Y-102003371D01*
X125787217Y-102003371D02*
X125844360Y-101955752D01*
X125844360Y-101955752D02*
X125930074Y-101955752D01*
X125930074Y-101955752D02*
X125987217Y-102003371D01*
X125987217Y-102003371D02*
X126015789Y-102098609D01*
X126015789Y-102098609D02*
X126015789Y-102622419D01*
X126387217Y-102622419D02*
X126330074Y-102574800D01*
X126330074Y-102574800D02*
X126301503Y-102527180D01*
X126301503Y-102527180D02*
X126272931Y-102431942D01*
X126272931Y-102431942D02*
X126272931Y-102146228D01*
X126272931Y-102146228D02*
X126301503Y-102050990D01*
X126301503Y-102050990D02*
X126330074Y-102003371D01*
X126330074Y-102003371D02*
X126387217Y-101955752D01*
X126387217Y-101955752D02*
X126472931Y-101955752D01*
X126472931Y-101955752D02*
X126530074Y-102003371D01*
X126530074Y-102003371D02*
X126558646Y-102050990D01*
X126558646Y-102050990D02*
X126587217Y-102146228D01*
X126587217Y-102146228D02*
X126587217Y-102431942D01*
X126587217Y-102431942D02*
X126558646Y-102527180D01*
X126558646Y-102527180D02*
X126530074Y-102574800D01*
X126530074Y-102574800D02*
X126472931Y-102622419D01*
X126472931Y-102622419D02*
X126387217Y-102622419D01*
X126501503Y-101574800D02*
X126415788Y-101717657D01*
X127158645Y-102622419D02*
X126815788Y-102622419D01*
X126987217Y-102622419D02*
X126987217Y-101622419D01*
X126987217Y-101622419D02*
X126930074Y-101765276D01*
X126930074Y-101765276D02*
X126872931Y-101860514D01*
X126872931Y-101860514D02*
X126815788Y-101908133D01*
X163708646Y-103591466D02*
X164165789Y-103591466D01*
X164480074Y-103972419D02*
X164594360Y-103972419D01*
X164594360Y-103972419D02*
X164651503Y-103924800D01*
X164651503Y-103924800D02*
X164680074Y-103877180D01*
X164680074Y-103877180D02*
X164737217Y-103734323D01*
X164737217Y-103734323D02*
X164765788Y-103543847D01*
X164765788Y-103543847D02*
X164765788Y-103162895D01*
X164765788Y-103162895D02*
X164737217Y-103067657D01*
X164737217Y-103067657D02*
X164708646Y-103020038D01*
X164708646Y-103020038D02*
X164651503Y-102972419D01*
X164651503Y-102972419D02*
X164537217Y-102972419D01*
X164537217Y-102972419D02*
X164480074Y-103020038D01*
X164480074Y-103020038D02*
X164451503Y-103067657D01*
X164451503Y-103067657D02*
X164422931Y-103162895D01*
X164422931Y-103162895D02*
X164422931Y-103400990D01*
X164422931Y-103400990D02*
X164451503Y-103496228D01*
X164451503Y-103496228D02*
X164480074Y-103543847D01*
X164480074Y-103543847D02*
X164537217Y-103591466D01*
X164537217Y-103591466D02*
X164651503Y-103591466D01*
X164651503Y-103591466D02*
X164708646Y-103543847D01*
X164708646Y-103543847D02*
X164737217Y-103496228D01*
X164737217Y-103496228D02*
X164765788Y-103400990D01*
X164937217Y-102972419D02*
X165137217Y-103972419D01*
X165137217Y-103972419D02*
X165337217Y-102972419D01*
D11*
X127054819Y-97600000D02*
X127769104Y-97600000D01*
X127769104Y-97600000D02*
X127911961Y-97628571D01*
X127911961Y-97628571D02*
X128007200Y-97685714D01*
X128007200Y-97685714D02*
X128054819Y-97771428D01*
X128054819Y-97771428D02*
X128054819Y-97828571D01*
X127150057Y-97342857D02*
X127102438Y-97314285D01*
X127102438Y-97314285D02*
X127054819Y-97257143D01*
X127054819Y-97257143D02*
X127054819Y-97114285D01*
X127054819Y-97114285D02*
X127102438Y-97057143D01*
X127102438Y-97057143D02*
X127150057Y-97028571D01*
X127150057Y-97028571D02*
X127245295Y-97000000D01*
X127245295Y-97000000D02*
X127340533Y-97000000D01*
X127340533Y-97000000D02*
X127483390Y-97028571D01*
X127483390Y-97028571D02*
X128054819Y-97371428D01*
X128054819Y-97371428D02*
X128054819Y-97000000D01*
X129711411Y-93772112D02*
X129711411Y-93839456D01*
X129711411Y-93839456D02*
X129644067Y-93974143D01*
X129644067Y-93974143D02*
X129576724Y-94041486D01*
X129576724Y-94041486D02*
X129442037Y-94108830D01*
X129442037Y-94108830D02*
X129307350Y-94108830D01*
X129307350Y-94108830D02*
X129206335Y-94075158D01*
X129206335Y-94075158D02*
X129037976Y-93974143D01*
X129037976Y-93974143D02*
X128936961Y-93873128D01*
X128936961Y-93873128D02*
X128835945Y-93704769D01*
X128835945Y-93704769D02*
X128802274Y-93603754D01*
X128802274Y-93603754D02*
X128802274Y-93469067D01*
X128802274Y-93469067D02*
X128869617Y-93334380D01*
X128869617Y-93334380D02*
X128936961Y-93267036D01*
X128936961Y-93267036D02*
X129071648Y-93199693D01*
X129071648Y-93199693D02*
X129138991Y-93199693D01*
X129307350Y-92896647D02*
X129745083Y-92458914D01*
X129745083Y-92458914D02*
X129778754Y-92963990D01*
X129778754Y-92963990D02*
X129879770Y-92862975D01*
X129879770Y-92862975D02*
X129980785Y-92829303D01*
X129980785Y-92829303D02*
X130048128Y-92829303D01*
X130048128Y-92829303D02*
X130149144Y-92862975D01*
X130149144Y-92862975D02*
X130317502Y-93031334D01*
X130317502Y-93031334D02*
X130351174Y-93132349D01*
X130351174Y-93132349D02*
X130351174Y-93199693D01*
X130351174Y-93199693D02*
X130317502Y-93300708D01*
X130317502Y-93300708D02*
X130115472Y-93502738D01*
X130115472Y-93502738D02*
X130014457Y-93536410D01*
X130014457Y-93536410D02*
X129947113Y-93536410D01*
X133879819Y-93141666D02*
X133403628Y-93474999D01*
X133879819Y-93713094D02*
X132879819Y-93713094D01*
X132879819Y-93713094D02*
X132879819Y-93332142D01*
X132879819Y-93332142D02*
X132927438Y-93236904D01*
X132927438Y-93236904D02*
X132975057Y-93189285D01*
X132975057Y-93189285D02*
X133070295Y-93141666D01*
X133070295Y-93141666D02*
X133213152Y-93141666D01*
X133213152Y-93141666D02*
X133308390Y-93189285D01*
X133308390Y-93189285D02*
X133356009Y-93236904D01*
X133356009Y-93236904D02*
X133403628Y-93332142D01*
X133403628Y-93332142D02*
X133403628Y-93713094D01*
X132879819Y-92236904D02*
X132879819Y-92713094D01*
X132879819Y-92713094D02*
X133356009Y-92760713D01*
X133356009Y-92760713D02*
X133308390Y-92713094D01*
X133308390Y-92713094D02*
X133260771Y-92617856D01*
X133260771Y-92617856D02*
X133260771Y-92379761D01*
X133260771Y-92379761D02*
X133308390Y-92284523D01*
X133308390Y-92284523D02*
X133356009Y-92236904D01*
X133356009Y-92236904D02*
X133451247Y-92189285D01*
X133451247Y-92189285D02*
X133689342Y-92189285D01*
X133689342Y-92189285D02*
X133784580Y-92236904D01*
X133784580Y-92236904D02*
X133832200Y-92284523D01*
X133832200Y-92284523D02*
X133879819Y-92379761D01*
X133879819Y-92379761D02*
X133879819Y-92617856D01*
X133879819Y-92617856D02*
X133832200Y-92713094D01*
X133832200Y-92713094D02*
X133784580Y-92760713D01*
X125849999Y-108504819D02*
X125849999Y-109219104D01*
X125849999Y-109219104D02*
X125821428Y-109361961D01*
X125821428Y-109361961D02*
X125764285Y-109457200D01*
X125764285Y-109457200D02*
X125678571Y-109504819D01*
X125678571Y-109504819D02*
X125621428Y-109504819D01*
X126078571Y-108504819D02*
X126449999Y-108504819D01*
X126449999Y-108504819D02*
X126249999Y-108885771D01*
X126249999Y-108885771D02*
X126335714Y-108885771D01*
X126335714Y-108885771D02*
X126392857Y-108933390D01*
X126392857Y-108933390D02*
X126421428Y-108981009D01*
X126421428Y-108981009D02*
X126449999Y-109076247D01*
X126449999Y-109076247D02*
X126449999Y-109314342D01*
X126449999Y-109314342D02*
X126421428Y-109409580D01*
X126421428Y-109409580D02*
X126392857Y-109457200D01*
X126392857Y-109457200D02*
X126335714Y-109504819D01*
X126335714Y-109504819D02*
X126164285Y-109504819D01*
X126164285Y-109504819D02*
X126107142Y-109457200D01*
X126107142Y-109457200D02*
X126078571Y-109409580D01*
X157033333Y-99454819D02*
X156700000Y-98978628D01*
X156461905Y-99454819D02*
X156461905Y-98454819D01*
X156461905Y-98454819D02*
X156842857Y-98454819D01*
X156842857Y-98454819D02*
X156938095Y-98502438D01*
X156938095Y-98502438D02*
X156985714Y-98550057D01*
X156985714Y-98550057D02*
X157033333Y-98645295D01*
X157033333Y-98645295D02*
X157033333Y-98788152D01*
X157033333Y-98788152D02*
X156985714Y-98883390D01*
X156985714Y-98883390D02*
X156938095Y-98931009D01*
X156938095Y-98931009D02*
X156842857Y-98978628D01*
X156842857Y-98978628D02*
X156461905Y-98978628D01*
X157985714Y-99454819D02*
X157414286Y-99454819D01*
X157700000Y-99454819D02*
X157700000Y-98454819D01*
X157700000Y-98454819D02*
X157604762Y-98597676D01*
X157604762Y-98597676D02*
X157509524Y-98692914D01*
X157509524Y-98692914D02*
X157414286Y-98740533D01*
X125804819Y-86100000D02*
X126519104Y-86100000D01*
X126519104Y-86100000D02*
X126661961Y-86128571D01*
X126661961Y-86128571D02*
X126757200Y-86185714D01*
X126757200Y-86185714D02*
X126804819Y-86271428D01*
X126804819Y-86271428D02*
X126804819Y-86328571D01*
X126138152Y-85557143D02*
X126804819Y-85557143D01*
X125757200Y-85700000D02*
X126471485Y-85842857D01*
X126471485Y-85842857D02*
X126471485Y-85471428D01*
X130040814Y-103704819D02*
X130040814Y-104514342D01*
X130040814Y-104514342D02*
X130088433Y-104609580D01*
X130088433Y-104609580D02*
X130136052Y-104657200D01*
X130136052Y-104657200D02*
X130231290Y-104704819D01*
X130231290Y-104704819D02*
X130421766Y-104704819D01*
X130421766Y-104704819D02*
X130517004Y-104657200D01*
X130517004Y-104657200D02*
X130564623Y-104609580D01*
X130564623Y-104609580D02*
X130612242Y-104514342D01*
X130612242Y-104514342D02*
X130612242Y-103704819D01*
X131612242Y-104704819D02*
X131040814Y-104704819D01*
X131326528Y-104704819D02*
X131326528Y-103704819D01*
X131326528Y-103704819D02*
X131231290Y-103847676D01*
X131231290Y-103847676D02*
X131136052Y-103942914D01*
X131136052Y-103942914D02*
X131040814Y-103990533D01*
X132040814Y-104323866D02*
X132802719Y-104323866D01*
X133850337Y-104609580D02*
X133802718Y-104657200D01*
X133802718Y-104657200D02*
X133659861Y-104704819D01*
X133659861Y-104704819D02*
X133564623Y-104704819D01*
X133564623Y-104704819D02*
X133421766Y-104657200D01*
X133421766Y-104657200D02*
X133326528Y-104561961D01*
X133326528Y-104561961D02*
X133278909Y-104466723D01*
X133278909Y-104466723D02*
X133231290Y-104276247D01*
X133231290Y-104276247D02*
X133231290Y-104133390D01*
X133231290Y-104133390D02*
X133278909Y-103942914D01*
X133278909Y-103942914D02*
X133326528Y-103847676D01*
X133326528Y-103847676D02*
X133421766Y-103752438D01*
X133421766Y-103752438D02*
X133564623Y-103704819D01*
X133564623Y-103704819D02*
X133659861Y-103704819D01*
X133659861Y-103704819D02*
X133802718Y-103752438D01*
X133802718Y-103752438D02*
X133850337Y-103800057D01*
X134421766Y-104704819D02*
X134326528Y-104657200D01*
X134326528Y-104657200D02*
X134278909Y-104609580D01*
X134278909Y-104609580D02*
X134231290Y-104514342D01*
X134231290Y-104514342D02*
X134231290Y-104228628D01*
X134231290Y-104228628D02*
X134278909Y-104133390D01*
X134278909Y-104133390D02*
X134326528Y-104085771D01*
X134326528Y-104085771D02*
X134421766Y-104038152D01*
X134421766Y-104038152D02*
X134564623Y-104038152D01*
X134564623Y-104038152D02*
X134659861Y-104085771D01*
X134659861Y-104085771D02*
X134707480Y-104133390D01*
X134707480Y-104133390D02*
X134755099Y-104228628D01*
X134755099Y-104228628D02*
X134755099Y-104514342D01*
X134755099Y-104514342D02*
X134707480Y-104609580D01*
X134707480Y-104609580D02*
X134659861Y-104657200D01*
X134659861Y-104657200D02*
X134564623Y-104704819D01*
X134564623Y-104704819D02*
X134421766Y-104704819D01*
X135183671Y-104038152D02*
X135183671Y-104704819D01*
X135183671Y-104133390D02*
X135231290Y-104085771D01*
X135231290Y-104085771D02*
X135326528Y-104038152D01*
X135326528Y-104038152D02*
X135469385Y-104038152D01*
X135469385Y-104038152D02*
X135564623Y-104085771D01*
X135564623Y-104085771D02*
X135612242Y-104181009D01*
X135612242Y-104181009D02*
X135612242Y-104704819D01*
X136517004Y-104704819D02*
X136517004Y-103704819D01*
X136517004Y-104657200D02*
X136421766Y-104704819D01*
X136421766Y-104704819D02*
X136231290Y-104704819D01*
X136231290Y-104704819D02*
X136136052Y-104657200D01*
X136136052Y-104657200D02*
X136088433Y-104609580D01*
X136088433Y-104609580D02*
X136040814Y-104514342D01*
X136040814Y-104514342D02*
X136040814Y-104228628D01*
X136040814Y-104228628D02*
X136088433Y-104133390D01*
X136088433Y-104133390D02*
X136136052Y-104085771D01*
X136136052Y-104085771D02*
X136231290Y-104038152D01*
X136231290Y-104038152D02*
X136421766Y-104038152D01*
X136421766Y-104038152D02*
X136517004Y-104085771D01*
X137517004Y-104704819D02*
X136945576Y-104704819D01*
X137231290Y-104704819D02*
X137231290Y-103704819D01*
X137231290Y-103704819D02*
X137136052Y-103847676D01*
X137136052Y-103847676D02*
X137040814Y-103942914D01*
X137040814Y-103942914D02*
X136945576Y-103990533D01*
X127659919Y-107399999D02*
X127898014Y-107399999D01*
X127802776Y-107638094D02*
X127898014Y-107399999D01*
X127898014Y-107399999D02*
X127802776Y-107161904D01*
X128088490Y-107542856D02*
X127898014Y-107399999D01*
X127898014Y-107399999D02*
X128088490Y-107257142D01*
X146961905Y-105904819D02*
X146961905Y-104904819D01*
X146961905Y-104904819D02*
X147200000Y-104904819D01*
X147200000Y-104904819D02*
X147342857Y-104952438D01*
X147342857Y-104952438D02*
X147438095Y-105047676D01*
X147438095Y-105047676D02*
X147485714Y-105142914D01*
X147485714Y-105142914D02*
X147533333Y-105333390D01*
X147533333Y-105333390D02*
X147533333Y-105476247D01*
X147533333Y-105476247D02*
X147485714Y-105666723D01*
X147485714Y-105666723D02*
X147438095Y-105761961D01*
X147438095Y-105761961D02*
X147342857Y-105857200D01*
X147342857Y-105857200D02*
X147200000Y-105904819D01*
X147200000Y-105904819D02*
X146961905Y-105904819D01*
X147914286Y-105000057D02*
X147961905Y-104952438D01*
X147961905Y-104952438D02*
X148057143Y-104904819D01*
X148057143Y-104904819D02*
X148295238Y-104904819D01*
X148295238Y-104904819D02*
X148390476Y-104952438D01*
X148390476Y-104952438D02*
X148438095Y-105000057D01*
X148438095Y-105000057D02*
X148485714Y-105095295D01*
X148485714Y-105095295D02*
X148485714Y-105190533D01*
X148485714Y-105190533D02*
X148438095Y-105333390D01*
X148438095Y-105333390D02*
X147866667Y-105904819D01*
X147866667Y-105904819D02*
X148485714Y-105904819D01*
X146127887Y-91336411D02*
X146060543Y-91336411D01*
X146060543Y-91336411D02*
X145925856Y-91269067D01*
X145925856Y-91269067D02*
X145858513Y-91201724D01*
X145858513Y-91201724D02*
X145791169Y-91067037D01*
X145791169Y-91067037D02*
X145791169Y-90932350D01*
X145791169Y-90932350D02*
X145824841Y-90831335D01*
X145824841Y-90831335D02*
X145925856Y-90662976D01*
X145925856Y-90662976D02*
X146026871Y-90561961D01*
X146026871Y-90561961D02*
X146195230Y-90460945D01*
X146195230Y-90460945D02*
X146296245Y-90427274D01*
X146296245Y-90427274D02*
X146430932Y-90427274D01*
X146430932Y-90427274D02*
X146565619Y-90494617D01*
X146565619Y-90494617D02*
X146632963Y-90561961D01*
X146632963Y-90561961D02*
X146700306Y-90696648D01*
X146700306Y-90696648D02*
X146700306Y-90763991D01*
X147138039Y-91538441D02*
X146666635Y-92009846D01*
X147239054Y-91100709D02*
X146565619Y-91437426D01*
X146565619Y-91437426D02*
X147003352Y-91875159D01*
X150054819Y-90538094D02*
X149054819Y-90538094D01*
X149054819Y-90538094D02*
X149054819Y-90299999D01*
X149054819Y-90299999D02*
X149102438Y-90157142D01*
X149102438Y-90157142D02*
X149197676Y-90061904D01*
X149197676Y-90061904D02*
X149292914Y-90014285D01*
X149292914Y-90014285D02*
X149483390Y-89966666D01*
X149483390Y-89966666D02*
X149626247Y-89966666D01*
X149626247Y-89966666D02*
X149816723Y-90014285D01*
X149816723Y-90014285D02*
X149911961Y-90061904D01*
X149911961Y-90061904D02*
X150007200Y-90157142D01*
X150007200Y-90157142D02*
X150054819Y-90299999D01*
X150054819Y-90299999D02*
X150054819Y-90538094D01*
X149388152Y-89109523D02*
X150054819Y-89109523D01*
X149007200Y-89347618D02*
X149721485Y-89585713D01*
X149721485Y-89585713D02*
X149721485Y-88966666D01*
X142736411Y-100572112D02*
X142736411Y-100639456D01*
X142736411Y-100639456D02*
X142669067Y-100774143D01*
X142669067Y-100774143D02*
X142601724Y-100841486D01*
X142601724Y-100841486D02*
X142467037Y-100908830D01*
X142467037Y-100908830D02*
X142332350Y-100908830D01*
X142332350Y-100908830D02*
X142231335Y-100875158D01*
X142231335Y-100875158D02*
X142062976Y-100774143D01*
X142062976Y-100774143D02*
X141961961Y-100673128D01*
X141961961Y-100673128D02*
X141860945Y-100504769D01*
X141860945Y-100504769D02*
X141827274Y-100403754D01*
X141827274Y-100403754D02*
X141827274Y-100269067D01*
X141827274Y-100269067D02*
X141894617Y-100134380D01*
X141894617Y-100134380D02*
X141961961Y-100067036D01*
X141961961Y-100067036D02*
X142096648Y-99999693D01*
X142096648Y-99999693D02*
X142163991Y-99999693D01*
X143477189Y-99966021D02*
X143073128Y-100370082D01*
X143275159Y-100168051D02*
X142568052Y-99460945D01*
X142568052Y-99460945D02*
X142601724Y-99629303D01*
X142601724Y-99629303D02*
X142601724Y-99763990D01*
X142601724Y-99763990D02*
X142568052Y-99865006D01*
X144961905Y-86554819D02*
X144961905Y-85554819D01*
X144961905Y-85554819D02*
X145200000Y-85554819D01*
X145200000Y-85554819D02*
X145342857Y-85602438D01*
X145342857Y-85602438D02*
X145438095Y-85697676D01*
X145438095Y-85697676D02*
X145485714Y-85792914D01*
X145485714Y-85792914D02*
X145533333Y-85983390D01*
X145533333Y-85983390D02*
X145533333Y-86126247D01*
X145533333Y-86126247D02*
X145485714Y-86316723D01*
X145485714Y-86316723D02*
X145438095Y-86411961D01*
X145438095Y-86411961D02*
X145342857Y-86507200D01*
X145342857Y-86507200D02*
X145200000Y-86554819D01*
X145200000Y-86554819D02*
X144961905Y-86554819D01*
X145866667Y-85554819D02*
X146485714Y-85554819D01*
X146485714Y-85554819D02*
X146152381Y-85935771D01*
X146152381Y-85935771D02*
X146295238Y-85935771D01*
X146295238Y-85935771D02*
X146390476Y-85983390D01*
X146390476Y-85983390D02*
X146438095Y-86031009D01*
X146438095Y-86031009D02*
X146485714Y-86126247D01*
X146485714Y-86126247D02*
X146485714Y-86364342D01*
X146485714Y-86364342D02*
X146438095Y-86459580D01*
X146438095Y-86459580D02*
X146390476Y-86507200D01*
X146390476Y-86507200D02*
X146295238Y-86554819D01*
X146295238Y-86554819D02*
X146009524Y-86554819D01*
X146009524Y-86554819D02*
X145914286Y-86507200D01*
X145914286Y-86507200D02*
X145866667Y-86459580D01*
X143554806Y-105341666D02*
X143078615Y-105674999D01*
X143554806Y-105913094D02*
X142554806Y-105913094D01*
X142554806Y-105913094D02*
X142554806Y-105532142D01*
X142554806Y-105532142D02*
X142602425Y-105436904D01*
X142602425Y-105436904D02*
X142650044Y-105389285D01*
X142650044Y-105389285D02*
X142745282Y-105341666D01*
X142745282Y-105341666D02*
X142888139Y-105341666D01*
X142888139Y-105341666D02*
X142983377Y-105389285D01*
X142983377Y-105389285D02*
X143030996Y-105436904D01*
X143030996Y-105436904D02*
X143078615Y-105532142D01*
X143078615Y-105532142D02*
X143078615Y-105913094D01*
X142650044Y-104960713D02*
X142602425Y-104913094D01*
X142602425Y-104913094D02*
X142554806Y-104817856D01*
X142554806Y-104817856D02*
X142554806Y-104579761D01*
X142554806Y-104579761D02*
X142602425Y-104484523D01*
X142602425Y-104484523D02*
X142650044Y-104436904D01*
X142650044Y-104436904D02*
X142745282Y-104389285D01*
X142745282Y-104389285D02*
X142840520Y-104389285D01*
X142840520Y-104389285D02*
X142983377Y-104436904D01*
X142983377Y-104436904D02*
X143554806Y-105008332D01*
X143554806Y-105008332D02*
X143554806Y-104389285D01*
X147293333Y-96204819D02*
X146960000Y-95728628D01*
X146721905Y-96204819D02*
X146721905Y-95204819D01*
X146721905Y-95204819D02*
X147102857Y-95204819D01*
X147102857Y-95204819D02*
X147198095Y-95252438D01*
X147198095Y-95252438D02*
X147245714Y-95300057D01*
X147245714Y-95300057D02*
X147293333Y-95395295D01*
X147293333Y-95395295D02*
X147293333Y-95538152D01*
X147293333Y-95538152D02*
X147245714Y-95633390D01*
X147245714Y-95633390D02*
X147198095Y-95681009D01*
X147198095Y-95681009D02*
X147102857Y-95728628D01*
X147102857Y-95728628D02*
X146721905Y-95728628D01*
X147864762Y-95633390D02*
X147769524Y-95585771D01*
X147769524Y-95585771D02*
X147721905Y-95538152D01*
X147721905Y-95538152D02*
X147674286Y-95442914D01*
X147674286Y-95442914D02*
X147674286Y-95395295D01*
X147674286Y-95395295D02*
X147721905Y-95300057D01*
X147721905Y-95300057D02*
X147769524Y-95252438D01*
X147769524Y-95252438D02*
X147864762Y-95204819D01*
X147864762Y-95204819D02*
X148055238Y-95204819D01*
X148055238Y-95204819D02*
X148150476Y-95252438D01*
X148150476Y-95252438D02*
X148198095Y-95300057D01*
X148198095Y-95300057D02*
X148245714Y-95395295D01*
X148245714Y-95395295D02*
X148245714Y-95442914D01*
X148245714Y-95442914D02*
X148198095Y-95538152D01*
X148198095Y-95538152D02*
X148150476Y-95585771D01*
X148150476Y-95585771D02*
X148055238Y-95633390D01*
X148055238Y-95633390D02*
X147864762Y-95633390D01*
X147864762Y-95633390D02*
X147769524Y-95681009D01*
X147769524Y-95681009D02*
X147721905Y-95728628D01*
X147721905Y-95728628D02*
X147674286Y-95823866D01*
X147674286Y-95823866D02*
X147674286Y-96014342D01*
X147674286Y-96014342D02*
X147721905Y-96109580D01*
X147721905Y-96109580D02*
X147769524Y-96157200D01*
X147769524Y-96157200D02*
X147864762Y-96204819D01*
X147864762Y-96204819D02*
X148055238Y-96204819D01*
X148055238Y-96204819D02*
X148150476Y-96157200D01*
X148150476Y-96157200D02*
X148198095Y-96109580D01*
X148198095Y-96109580D02*
X148245714Y-96014342D01*
X148245714Y-96014342D02*
X148245714Y-95823866D01*
X148245714Y-95823866D02*
X148198095Y-95728628D01*
X148198095Y-95728628D02*
X148150476Y-95681009D01*
X148150476Y-95681009D02*
X148055238Y-95633390D01*
X141454819Y-96166666D02*
X140978628Y-96499999D01*
X141454819Y-96738094D02*
X140454819Y-96738094D01*
X140454819Y-96738094D02*
X140454819Y-96357142D01*
X140454819Y-96357142D02*
X140502438Y-96261904D01*
X140502438Y-96261904D02*
X140550057Y-96214285D01*
X140550057Y-96214285D02*
X140645295Y-96166666D01*
X140645295Y-96166666D02*
X140788152Y-96166666D01*
X140788152Y-96166666D02*
X140883390Y-96214285D01*
X140883390Y-96214285D02*
X140931009Y-96261904D01*
X140931009Y-96261904D02*
X140978628Y-96357142D01*
X140978628Y-96357142D02*
X140978628Y-96738094D01*
X140788152Y-95309523D02*
X141454819Y-95309523D01*
X140407200Y-95547618D02*
X141121485Y-95785713D01*
X141121485Y-95785713D02*
X141121485Y-95166666D01*
X159999999Y-85654819D02*
X159999999Y-86369104D01*
X159999999Y-86369104D02*
X159971428Y-86511961D01*
X159971428Y-86511961D02*
X159914285Y-86607200D01*
X159914285Y-86607200D02*
X159828571Y-86654819D01*
X159828571Y-86654819D02*
X159771428Y-86654819D01*
X160599999Y-86654819D02*
X160257142Y-86654819D01*
X160428571Y-86654819D02*
X160428571Y-85654819D01*
X160428571Y-85654819D02*
X160371428Y-85797676D01*
X160371428Y-85797676D02*
X160314285Y-85892914D01*
X160314285Y-85892914D02*
X160257142Y-85940533D01*
X133252887Y-86461411D02*
X133185543Y-86461411D01*
X133185543Y-86461411D02*
X133050856Y-86394067D01*
X133050856Y-86394067D02*
X132983513Y-86326724D01*
X132983513Y-86326724D02*
X132916169Y-86192037D01*
X132916169Y-86192037D02*
X132916169Y-86057350D01*
X132916169Y-86057350D02*
X132949841Y-85956335D01*
X132949841Y-85956335D02*
X133050856Y-85787976D01*
X133050856Y-85787976D02*
X133151871Y-85686961D01*
X133151871Y-85686961D02*
X133320230Y-85585945D01*
X133320230Y-85585945D02*
X133421245Y-85552274D01*
X133421245Y-85552274D02*
X133555932Y-85552274D01*
X133555932Y-85552274D02*
X133690619Y-85619617D01*
X133690619Y-85619617D02*
X133757963Y-85686961D01*
X133757963Y-85686961D02*
X133825306Y-85821648D01*
X133825306Y-85821648D02*
X133825306Y-85888991D01*
X134094680Y-86158365D02*
X134162024Y-86158365D01*
X134162024Y-86158365D02*
X134263039Y-86192037D01*
X134263039Y-86192037D02*
X134431398Y-86360396D01*
X134431398Y-86360396D02*
X134465070Y-86461411D01*
X134465070Y-86461411D02*
X134465070Y-86528754D01*
X134465070Y-86528754D02*
X134431398Y-86629770D01*
X134431398Y-86629770D02*
X134364054Y-86697113D01*
X134364054Y-86697113D02*
X134229367Y-86764457D01*
X134229367Y-86764457D02*
X133421245Y-86764457D01*
X133421245Y-86764457D02*
X133858978Y-87202189D01*
X158054819Y-91138094D02*
X157054819Y-91138094D01*
X157054819Y-91138094D02*
X157054819Y-90899999D01*
X157054819Y-90899999D02*
X157102438Y-90757142D01*
X157102438Y-90757142D02*
X157197676Y-90661904D01*
X157197676Y-90661904D02*
X157292914Y-90614285D01*
X157292914Y-90614285D02*
X157483390Y-90566666D01*
X157483390Y-90566666D02*
X157626247Y-90566666D01*
X157626247Y-90566666D02*
X157816723Y-90614285D01*
X157816723Y-90614285D02*
X157911961Y-90661904D01*
X157911961Y-90661904D02*
X158007200Y-90757142D01*
X158007200Y-90757142D02*
X158054819Y-90899999D01*
X158054819Y-90899999D02*
X158054819Y-91138094D01*
X158054819Y-89614285D02*
X158054819Y-90185713D01*
X158054819Y-89899999D02*
X157054819Y-89899999D01*
X157054819Y-89899999D02*
X157197676Y-89995237D01*
X157197676Y-89995237D02*
X157292914Y-90090475D01*
X157292914Y-90090475D02*
X157340533Y-90185713D01*
X156983333Y-106654819D02*
X156650000Y-106178628D01*
X156411905Y-106654819D02*
X156411905Y-105654819D01*
X156411905Y-105654819D02*
X156792857Y-105654819D01*
X156792857Y-105654819D02*
X156888095Y-105702438D01*
X156888095Y-105702438D02*
X156935714Y-105750057D01*
X156935714Y-105750057D02*
X156983333Y-105845295D01*
X156983333Y-105845295D02*
X156983333Y-105988152D01*
X156983333Y-105988152D02*
X156935714Y-106083390D01*
X156935714Y-106083390D02*
X156888095Y-106131009D01*
X156888095Y-106131009D02*
X156792857Y-106178628D01*
X156792857Y-106178628D02*
X156411905Y-106178628D01*
X157316667Y-105654819D02*
X157935714Y-105654819D01*
X157935714Y-105654819D02*
X157602381Y-106035771D01*
X157602381Y-106035771D02*
X157745238Y-106035771D01*
X157745238Y-106035771D02*
X157840476Y-106083390D01*
X157840476Y-106083390D02*
X157888095Y-106131009D01*
X157888095Y-106131009D02*
X157935714Y-106226247D01*
X157935714Y-106226247D02*
X157935714Y-106464342D01*
X157935714Y-106464342D02*
X157888095Y-106559580D01*
X157888095Y-106559580D02*
X157840476Y-106607200D01*
X157840476Y-106607200D02*
X157745238Y-106654819D01*
X157745238Y-106654819D02*
X157459524Y-106654819D01*
X157459524Y-106654819D02*
X157364286Y-106607200D01*
X157364286Y-106607200D02*
X157316667Y-106559580D01*
D12*
X125430000Y-99955000D02*
X124100000Y-99955000D01*
X125430000Y-98625000D02*
X125430000Y-99955000D01*
X125430000Y-97355000D02*
X125430000Y-94755000D01*
X125430000Y-97355000D02*
X122770000Y-97355000D01*
X125430000Y-94755000D02*
X122770000Y-94755000D01*
X122770000Y-97355000D02*
X122770000Y-94755000D01*
X133954775Y-98025000D02*
X133454775Y-98025000D01*
X133704775Y-98275000D02*
X133704775Y-97775000D01*
X131150000Y-99130000D02*
X131150000Y-93970000D01*
X131110000Y-99130000D02*
X131110000Y-93970000D01*
X131070000Y-99129000D02*
X131070000Y-93971000D01*
X131030000Y-99128000D02*
X131030000Y-93972000D01*
X130990000Y-99126000D02*
X130990000Y-93974000D01*
X130950000Y-99123000D02*
X130950000Y-93977000D01*
X130910000Y-99119000D02*
X130910000Y-97590000D01*
X130910000Y-95510000D02*
X130910000Y-93981000D01*
X130870000Y-99115000D02*
X130870000Y-97590000D01*
X130870000Y-95510000D02*
X130870000Y-93985000D01*
X130830000Y-99111000D02*
X130830000Y-97590000D01*
X130830000Y-95510000D02*
X130830000Y-93989000D01*
X130790000Y-99106000D02*
X130790000Y-97590000D01*
X130790000Y-95510000D02*
X130790000Y-93994000D01*
X130750000Y-99100000D02*
X130750000Y-97590000D01*
X130750000Y-95510000D02*
X130750000Y-94000000D01*
X130710000Y-99093000D02*
X130710000Y-97590000D01*
X130710000Y-95510000D02*
X130710000Y-94007000D01*
X130670000Y-99086000D02*
X130670000Y-97590000D01*
X130670000Y-95510000D02*
X130670000Y-94014000D01*
X130630000Y-99078000D02*
X130630000Y-97590000D01*
X130630000Y-95510000D02*
X130630000Y-94022000D01*
X130590000Y-99070000D02*
X130590000Y-97590000D01*
X130590000Y-95510000D02*
X130590000Y-94030000D01*
X130550000Y-99061000D02*
X130550000Y-97590000D01*
X130550000Y-95510000D02*
X130550000Y-94039000D01*
X130510000Y-99051000D02*
X130510000Y-97590000D01*
X130510000Y-95510000D02*
X130510000Y-94049000D01*
X130470000Y-99041000D02*
X130470000Y-97590000D01*
X130470000Y-95510000D02*
X130470000Y-94059000D01*
X130429000Y-99030000D02*
X130429000Y-97590000D01*
X130429000Y-95510000D02*
X130429000Y-94070000D01*
X130389000Y-99018000D02*
X130389000Y-97590000D01*
X130389000Y-95510000D02*
X130389000Y-94082000D01*
X130349000Y-99005000D02*
X130349000Y-97590000D01*
X130349000Y-95510000D02*
X130349000Y-94095000D01*
X130309000Y-98992000D02*
X130309000Y-97590000D01*
X130309000Y-95510000D02*
X130309000Y-94108000D01*
X130269000Y-98978000D02*
X130269000Y-97590000D01*
X130269000Y-95510000D02*
X130269000Y-94122000D01*
X130229000Y-98964000D02*
X130229000Y-97590000D01*
X130229000Y-95510000D02*
X130229000Y-94136000D01*
X130189000Y-98948000D02*
X130189000Y-97590000D01*
X130189000Y-95510000D02*
X130189000Y-94152000D01*
X130149000Y-98932000D02*
X130149000Y-97590000D01*
X130149000Y-95510000D02*
X130149000Y-94168000D01*
X130109000Y-98915000D02*
X130109000Y-97590000D01*
X130109000Y-95510000D02*
X130109000Y-94185000D01*
X130069000Y-98898000D02*
X130069000Y-97590000D01*
X130069000Y-95510000D02*
X130069000Y-94202000D01*
X130029000Y-98879000D02*
X130029000Y-97590000D01*
X130029000Y-95510000D02*
X130029000Y-94221000D01*
X129989000Y-98860000D02*
X129989000Y-97590000D01*
X129989000Y-95510000D02*
X129989000Y-94240000D01*
X129949000Y-98840000D02*
X129949000Y-97590000D01*
X129949000Y-95510000D02*
X129949000Y-94260000D01*
X129909000Y-98818000D02*
X129909000Y-97590000D01*
X129909000Y-95510000D02*
X129909000Y-94282000D01*
X129869000Y-98797000D02*
X129869000Y-97590000D01*
X129869000Y-95510000D02*
X129869000Y-94303000D01*
X129829000Y-98774000D02*
X129829000Y-97590000D01*
X129829000Y-95510000D02*
X129829000Y-94326000D01*
X129789000Y-98750000D02*
X129789000Y-97590000D01*
X129789000Y-95510000D02*
X129789000Y-94350000D01*
X129749000Y-98725000D02*
X129749000Y-97590000D01*
X129749000Y-95510000D02*
X129749000Y-94375000D01*
X129709000Y-98699000D02*
X129709000Y-97590000D01*
X129709000Y-95510000D02*
X129709000Y-94401000D01*
X129669000Y-98672000D02*
X129669000Y-97590000D01*
X129669000Y-95510000D02*
X129669000Y-94428000D01*
X129629000Y-98645000D02*
X129629000Y-97590000D01*
X129629000Y-95510000D02*
X129629000Y-94455000D01*
X129589000Y-98615000D02*
X129589000Y-97590000D01*
X129589000Y-95510000D02*
X129589000Y-94485000D01*
X129549000Y-98585000D02*
X129549000Y-97590000D01*
X129549000Y-95510000D02*
X129549000Y-94515000D01*
X129509000Y-98554000D02*
X129509000Y-97590000D01*
X129509000Y-95510000D02*
X129509000Y-94546000D01*
X129469000Y-98521000D02*
X129469000Y-97590000D01*
X129469000Y-95510000D02*
X129469000Y-94579000D01*
X129429000Y-98487000D02*
X129429000Y-97590000D01*
X129429000Y-95510000D02*
X129429000Y-94613000D01*
X129389000Y-98451000D02*
X129389000Y-97590000D01*
X129389000Y-95510000D02*
X129389000Y-94649000D01*
X129349000Y-98414000D02*
X129349000Y-97590000D01*
X129349000Y-95510000D02*
X129349000Y-94686000D01*
X129309000Y-98376000D02*
X129309000Y-97590000D01*
X129309000Y-95510000D02*
X129309000Y-94724000D01*
X129269000Y-98335000D02*
X129269000Y-97590000D01*
X129269000Y-95510000D02*
X129269000Y-94765000D01*
X129229000Y-98293000D02*
X129229000Y-97590000D01*
X129229000Y-95510000D02*
X129229000Y-94807000D01*
X129189000Y-98249000D02*
X129189000Y-97590000D01*
X129189000Y-95510000D02*
X129189000Y-94851000D01*
X129149000Y-98203000D02*
X129149000Y-97590000D01*
X129149000Y-95510000D02*
X129149000Y-94897000D01*
X129109000Y-98155000D02*
X129109000Y-97590000D01*
X129109000Y-95510000D02*
X129109000Y-94945000D01*
X129069000Y-98104000D02*
X129069000Y-97590000D01*
X129069000Y-95510000D02*
X129069000Y-94996000D01*
X129029000Y-98050000D02*
X129029000Y-97590000D01*
X129029000Y-95510000D02*
X129029000Y-95050000D01*
X128989000Y-97993000D02*
X128989000Y-97590000D01*
X128989000Y-95510000D02*
X128989000Y-95107000D01*
X128949000Y-97933000D02*
X128949000Y-97590000D01*
X128949000Y-95510000D02*
X128949000Y-95167000D01*
X128909000Y-97869000D02*
X128909000Y-97590000D01*
X128909000Y-95510000D02*
X128909000Y-95231000D01*
X128869000Y-97801000D02*
X128869000Y-97590000D01*
X128869000Y-95510000D02*
X128869000Y-95299000D01*
X128829000Y-97728000D02*
X128829000Y-95372000D01*
X128789000Y-97648000D02*
X128789000Y-95452000D01*
X128749000Y-97561000D02*
X128749000Y-95539000D01*
X128709000Y-97465000D02*
X128709000Y-95635000D01*
X128669000Y-97355000D02*
X128669000Y-95745000D01*
X128629000Y-97227000D02*
X128629000Y-95873000D01*
X128589000Y-97068000D02*
X128589000Y-96032000D01*
X128549000Y-96834000D02*
X128549000Y-96266000D01*
X133770000Y-96550000D02*
G75*
G03*
X128530000Y-96550000I-2620000J0D01*
G01*
X128530000Y-96550000D02*
G75*
G03*
X133770000Y-96550000I2620000J0D01*
G01*
X134230000Y-97660000D02*
X134230000Y-91120000D01*
X134560000Y-97660000D02*
X134230000Y-97660000D01*
X136640000Y-97660000D02*
X136970000Y-97660000D01*
X136970000Y-97660000D02*
X136970000Y-91120000D01*
X134230000Y-91120000D02*
X134560000Y-91120000D01*
X136970000Y-91120000D02*
X136640000Y-91120000D01*
X122770000Y-101120000D02*
X124100000Y-101120000D01*
X122770000Y-102450000D02*
X122770000Y-101120000D01*
X122770000Y-103720000D02*
X122770000Y-108860000D01*
X122770000Y-103720000D02*
X125430000Y-103720000D01*
X122770000Y-108860000D02*
X125430000Y-108860000D01*
X125430000Y-103720000D02*
X125430000Y-108860000D01*
X156170000Y-102220000D02*
X149630000Y-102220000D01*
X156170000Y-101890000D02*
X156170000Y-102220000D01*
X156170000Y-99810000D02*
X156170000Y-99480000D01*
X156170000Y-99480000D02*
X149630000Y-99480000D01*
X149630000Y-102220000D02*
X149630000Y-101890000D01*
X149630000Y-99480000D02*
X149630000Y-99810000D01*
X125435000Y-93630000D02*
X124105000Y-93630000D01*
X125435000Y-92300000D02*
X125435000Y-93630000D01*
X125435000Y-91030000D02*
X125435000Y-85890000D01*
X125435000Y-91030000D02*
X122775000Y-91030000D01*
X125435000Y-85890000D02*
X122775000Y-85890000D01*
X122775000Y-91030000D02*
X122775000Y-85890000D01*
D13*
X128548100Y-107933000D02*
X128850360Y-107933000D01*
X131039840Y-107933000D02*
X131397752Y-107933000D01*
X133572448Y-107933000D02*
X133937752Y-107933000D01*
X136112448Y-107933000D02*
X136477752Y-107933000D01*
X138652448Y-107933000D02*
X138962100Y-107933000D01*
X138962100Y-107933000D02*
X138962100Y-100567000D01*
X128548100Y-100567000D02*
X128548100Y-107933000D01*
X128857752Y-100567000D02*
X128548100Y-100567000D01*
X131397752Y-100567000D02*
X131032448Y-100567000D01*
X133937752Y-100567000D02*
X133572448Y-100567000D01*
X136477752Y-100567000D02*
X136112448Y-100567000D01*
X138962100Y-100567000D02*
X138652448Y-100567000D01*
D12*
X152790000Y-107650000D02*
X151770000Y-107650000D01*
X151770000Y-109120000D02*
X151770000Y-106180000D01*
X151770000Y-106180000D02*
X146330000Y-106180000D01*
X150990000Y-109120000D02*
X150990000Y-106180000D01*
X150870000Y-109120000D02*
X150870000Y-106180000D01*
X150750000Y-109120000D02*
X150750000Y-106180000D01*
X146330000Y-109120000D02*
X151770000Y-109120000D01*
X146330000Y-106180000D02*
X146330000Y-109120000D01*
X145310000Y-107650000D02*
X146330000Y-107650000D01*
X141925000Y-95954775D02*
X141925000Y-95454775D01*
X141675000Y-95704775D02*
X142175000Y-95704775D01*
X140820000Y-93150000D02*
X145980000Y-93150000D01*
X140820000Y-93110000D02*
X145980000Y-93110000D01*
X140821000Y-93070000D02*
X145979000Y-93070000D01*
X140822000Y-93030000D02*
X145978000Y-93030000D01*
X140824000Y-92990000D02*
X145976000Y-92990000D01*
X140827000Y-92950000D02*
X145973000Y-92950000D01*
X140831000Y-92910000D02*
X142360000Y-92910000D01*
X144440000Y-92910000D02*
X145969000Y-92910000D01*
X140835000Y-92870000D02*
X142360000Y-92870000D01*
X144440000Y-92870000D02*
X145965000Y-92870000D01*
X140839000Y-92830000D02*
X142360000Y-92830000D01*
X144440000Y-92830000D02*
X145961000Y-92830000D01*
X140844000Y-92790000D02*
X142360000Y-92790000D01*
X144440000Y-92790000D02*
X145956000Y-92790000D01*
X140850000Y-92750000D02*
X142360000Y-92750000D01*
X144440000Y-92750000D02*
X145950000Y-92750000D01*
X140857000Y-92710000D02*
X142360000Y-92710000D01*
X144440000Y-92710000D02*
X145943000Y-92710000D01*
X140864000Y-92670000D02*
X142360000Y-92670000D01*
X144440000Y-92670000D02*
X145936000Y-92670000D01*
X140872000Y-92630000D02*
X142360000Y-92630000D01*
X144440000Y-92630000D02*
X145928000Y-92630000D01*
X140880000Y-92590000D02*
X142360000Y-92590000D01*
X144440000Y-92590000D02*
X145920000Y-92590000D01*
X140889000Y-92550000D02*
X142360000Y-92550000D01*
X144440000Y-92550000D02*
X145911000Y-92550000D01*
X140899000Y-92510000D02*
X142360000Y-92510000D01*
X144440000Y-92510000D02*
X145901000Y-92510000D01*
X140909000Y-92470000D02*
X142360000Y-92470000D01*
X144440000Y-92470000D02*
X145891000Y-92470000D01*
X140920000Y-92429000D02*
X142360000Y-92429000D01*
X144440000Y-92429000D02*
X145880000Y-92429000D01*
X140932000Y-92389000D02*
X142360000Y-92389000D01*
X144440000Y-92389000D02*
X145868000Y-92389000D01*
X140945000Y-92349000D02*
X142360000Y-92349000D01*
X144440000Y-92349000D02*
X145855000Y-92349000D01*
X140958000Y-92309000D02*
X142360000Y-92309000D01*
X144440000Y-92309000D02*
X145842000Y-92309000D01*
X140972000Y-92269000D02*
X142360000Y-92269000D01*
X144440000Y-92269000D02*
X145828000Y-92269000D01*
X140986000Y-92229000D02*
X142360000Y-92229000D01*
X144440000Y-92229000D02*
X145814000Y-92229000D01*
X141002000Y-92189000D02*
X142360000Y-92189000D01*
X144440000Y-92189000D02*
X145798000Y-92189000D01*
X141018000Y-92149000D02*
X142360000Y-92149000D01*
X144440000Y-92149000D02*
X145782000Y-92149000D01*
X141035000Y-92109000D02*
X142360000Y-92109000D01*
X144440000Y-92109000D02*
X145765000Y-92109000D01*
X141052000Y-92069000D02*
X142360000Y-92069000D01*
X144440000Y-92069000D02*
X145748000Y-92069000D01*
X141071000Y-92029000D02*
X142360000Y-92029000D01*
X144440000Y-92029000D02*
X145729000Y-92029000D01*
X141090000Y-91989000D02*
X142360000Y-91989000D01*
X144440000Y-91989000D02*
X145710000Y-91989000D01*
X141110000Y-91949000D02*
X142360000Y-91949000D01*
X144440000Y-91949000D02*
X145690000Y-91949000D01*
X141132000Y-91909000D02*
X142360000Y-91909000D01*
X144440000Y-91909000D02*
X145668000Y-91909000D01*
X141153000Y-91869000D02*
X142360000Y-91869000D01*
X144440000Y-91869000D02*
X145647000Y-91869000D01*
X141176000Y-91829000D02*
X142360000Y-91829000D01*
X144440000Y-91829000D02*
X145624000Y-91829000D01*
X141200000Y-91789000D02*
X142360000Y-91789000D01*
X144440000Y-91789000D02*
X145600000Y-91789000D01*
X141225000Y-91749000D02*
X142360000Y-91749000D01*
X144440000Y-91749000D02*
X145575000Y-91749000D01*
X141251000Y-91709000D02*
X142360000Y-91709000D01*
X144440000Y-91709000D02*
X145549000Y-91709000D01*
X141278000Y-91669000D02*
X142360000Y-91669000D01*
X144440000Y-91669000D02*
X145522000Y-91669000D01*
X141305000Y-91629000D02*
X142360000Y-91629000D01*
X144440000Y-91629000D02*
X145495000Y-91629000D01*
X141335000Y-91589000D02*
X142360000Y-91589000D01*
X144440000Y-91589000D02*
X145465000Y-91589000D01*
X141365000Y-91549000D02*
X142360000Y-91549000D01*
X144440000Y-91549000D02*
X145435000Y-91549000D01*
X141396000Y-91509000D02*
X142360000Y-91509000D01*
X144440000Y-91509000D02*
X145404000Y-91509000D01*
X141429000Y-91469000D02*
X142360000Y-91469000D01*
X144440000Y-91469000D02*
X145371000Y-91469000D01*
X141463000Y-91429000D02*
X142360000Y-91429000D01*
X144440000Y-91429000D02*
X145337000Y-91429000D01*
X141499000Y-91389000D02*
X142360000Y-91389000D01*
X144440000Y-91389000D02*
X145301000Y-91389000D01*
X141536000Y-91349000D02*
X142360000Y-91349000D01*
X144440000Y-91349000D02*
X145264000Y-91349000D01*
X141574000Y-91309000D02*
X142360000Y-91309000D01*
X144440000Y-91309000D02*
X145226000Y-91309000D01*
X141615000Y-91269000D02*
X142360000Y-91269000D01*
X144440000Y-91269000D02*
X145185000Y-91269000D01*
X141657000Y-91229000D02*
X142360000Y-91229000D01*
X144440000Y-91229000D02*
X145143000Y-91229000D01*
X141701000Y-91189000D02*
X142360000Y-91189000D01*
X144440000Y-91189000D02*
X145099000Y-91189000D01*
X141747000Y-91149000D02*
X142360000Y-91149000D01*
X144440000Y-91149000D02*
X145053000Y-91149000D01*
X141795000Y-91109000D02*
X142360000Y-91109000D01*
X144440000Y-91109000D02*
X145005000Y-91109000D01*
X141846000Y-91069000D02*
X142360000Y-91069000D01*
X144440000Y-91069000D02*
X144954000Y-91069000D01*
X141900000Y-91029000D02*
X142360000Y-91029000D01*
X144440000Y-91029000D02*
X144900000Y-91029000D01*
X141957000Y-90989000D02*
X142360000Y-90989000D01*
X144440000Y-90989000D02*
X144843000Y-90989000D01*
X142017000Y-90949000D02*
X142360000Y-90949000D01*
X144440000Y-90949000D02*
X144783000Y-90949000D01*
X142081000Y-90909000D02*
X142360000Y-90909000D01*
X144440000Y-90909000D02*
X144719000Y-90909000D01*
X142149000Y-90869000D02*
X142360000Y-90869000D01*
X144440000Y-90869000D02*
X144651000Y-90869000D01*
X142222000Y-90829000D02*
X144578000Y-90829000D01*
X142302000Y-90789000D02*
X144498000Y-90789000D01*
X142389000Y-90749000D02*
X144411000Y-90749000D01*
X142485000Y-90709000D02*
X144315000Y-90709000D01*
X142595000Y-90669000D02*
X144205000Y-90669000D01*
X142723000Y-90629000D02*
X144077000Y-90629000D01*
X142882000Y-90589000D02*
X143918000Y-90589000D01*
X143116000Y-90549000D02*
X143684000Y-90549000D01*
X146020000Y-93150000D02*
G75*
G03*
X140780000Y-93150000I-2620000J0D01*
G01*
X140780000Y-93150000D02*
G75*
G03*
X146020000Y-93150000I2620000J0D01*
G01*
X151850000Y-96340000D02*
X151850000Y-95320000D01*
X150380000Y-95320000D02*
X153320000Y-95320000D01*
X153320000Y-95320000D02*
X153320000Y-89880000D01*
X150380000Y-94540000D02*
X153320000Y-94540000D01*
X150380000Y-94420000D02*
X153320000Y-94420000D01*
X150380000Y-94300000D02*
X153320000Y-94300000D01*
X150380000Y-89880000D02*
X150380000Y-95320000D01*
X153320000Y-89880000D02*
X150380000Y-89880000D01*
X151850000Y-88860000D02*
X151850000Y-89880000D01*
X146725000Y-99345225D02*
X146725000Y-99845225D01*
X146975000Y-99595225D02*
X146475000Y-99595225D01*
X147830000Y-102150000D02*
X142670000Y-102150000D01*
X147830000Y-102190000D02*
X142670000Y-102190000D01*
X147829000Y-102230000D02*
X142671000Y-102230000D01*
X147828000Y-102270000D02*
X142672000Y-102270000D01*
X147826000Y-102310000D02*
X142674000Y-102310000D01*
X147823000Y-102350000D02*
X142677000Y-102350000D01*
X147819000Y-102390000D02*
X146290000Y-102390000D01*
X144210000Y-102390000D02*
X142681000Y-102390000D01*
X147815000Y-102430000D02*
X146290000Y-102430000D01*
X144210000Y-102430000D02*
X142685000Y-102430000D01*
X147811000Y-102470000D02*
X146290000Y-102470000D01*
X144210000Y-102470000D02*
X142689000Y-102470000D01*
X147806000Y-102510000D02*
X146290000Y-102510000D01*
X144210000Y-102510000D02*
X142694000Y-102510000D01*
X147800000Y-102550000D02*
X146290000Y-102550000D01*
X144210000Y-102550000D02*
X142700000Y-102550000D01*
X147793000Y-102590000D02*
X146290000Y-102590000D01*
X144210000Y-102590000D02*
X142707000Y-102590000D01*
X147786000Y-102630000D02*
X146290000Y-102630000D01*
X144210000Y-102630000D02*
X142714000Y-102630000D01*
X147778000Y-102670000D02*
X146290000Y-102670000D01*
X144210000Y-102670000D02*
X142722000Y-102670000D01*
X147770000Y-102710000D02*
X146290000Y-102710000D01*
X144210000Y-102710000D02*
X142730000Y-102710000D01*
X147761000Y-102750000D02*
X146290000Y-102750000D01*
X144210000Y-102750000D02*
X142739000Y-102750000D01*
X147751000Y-102790000D02*
X146290000Y-102790000D01*
X144210000Y-102790000D02*
X142749000Y-102790000D01*
X147741000Y-102830000D02*
X146290000Y-102830000D01*
X144210000Y-102830000D02*
X142759000Y-102830000D01*
X147730000Y-102871000D02*
X146290000Y-102871000D01*
X144210000Y-102871000D02*
X142770000Y-102871000D01*
X147718000Y-102911000D02*
X146290000Y-102911000D01*
X144210000Y-102911000D02*
X142782000Y-102911000D01*
X147705000Y-102951000D02*
X146290000Y-102951000D01*
X144210000Y-102951000D02*
X142795000Y-102951000D01*
X147692000Y-102991000D02*
X146290000Y-102991000D01*
X144210000Y-102991000D02*
X142808000Y-102991000D01*
X147678000Y-103031000D02*
X146290000Y-103031000D01*
X144210000Y-103031000D02*
X142822000Y-103031000D01*
X147664000Y-103071000D02*
X146290000Y-103071000D01*
X144210000Y-103071000D02*
X142836000Y-103071000D01*
X147648000Y-103111000D02*
X146290000Y-103111000D01*
X144210000Y-103111000D02*
X142852000Y-103111000D01*
X147632000Y-103151000D02*
X146290000Y-103151000D01*
X144210000Y-103151000D02*
X142868000Y-103151000D01*
X147615000Y-103191000D02*
X146290000Y-103191000D01*
X144210000Y-103191000D02*
X142885000Y-103191000D01*
X147598000Y-103231000D02*
X146290000Y-103231000D01*
X144210000Y-103231000D02*
X142902000Y-103231000D01*
X147579000Y-103271000D02*
X146290000Y-103271000D01*
X144210000Y-103271000D02*
X142921000Y-103271000D01*
X147560000Y-103311000D02*
X146290000Y-103311000D01*
X144210000Y-103311000D02*
X142940000Y-103311000D01*
X147540000Y-103351000D02*
X146290000Y-103351000D01*
X144210000Y-103351000D02*
X142960000Y-103351000D01*
X147518000Y-103391000D02*
X146290000Y-103391000D01*
X144210000Y-103391000D02*
X142982000Y-103391000D01*
X147497000Y-103431000D02*
X146290000Y-103431000D01*
X144210000Y-103431000D02*
X143003000Y-103431000D01*
X147474000Y-103471000D02*
X146290000Y-103471000D01*
X144210000Y-103471000D02*
X143026000Y-103471000D01*
X147450000Y-103511000D02*
X146290000Y-103511000D01*
X144210000Y-103511000D02*
X143050000Y-103511000D01*
X147425000Y-103551000D02*
X146290000Y-103551000D01*
X144210000Y-103551000D02*
X143075000Y-103551000D01*
X147399000Y-103591000D02*
X146290000Y-103591000D01*
X144210000Y-103591000D02*
X143101000Y-103591000D01*
X147372000Y-103631000D02*
X146290000Y-103631000D01*
X144210000Y-103631000D02*
X143128000Y-103631000D01*
X147345000Y-103671000D02*
X146290000Y-103671000D01*
X144210000Y-103671000D02*
X143155000Y-103671000D01*
X147315000Y-103711000D02*
X146290000Y-103711000D01*
X144210000Y-103711000D02*
X143185000Y-103711000D01*
X147285000Y-103751000D02*
X146290000Y-103751000D01*
X144210000Y-103751000D02*
X143215000Y-103751000D01*
X147254000Y-103791000D02*
X146290000Y-103791000D01*
X144210000Y-103791000D02*
X143246000Y-103791000D01*
X147221000Y-103831000D02*
X146290000Y-103831000D01*
X144210000Y-103831000D02*
X143279000Y-103831000D01*
X147187000Y-103871000D02*
X146290000Y-103871000D01*
X144210000Y-103871000D02*
X143313000Y-103871000D01*
X147151000Y-103911000D02*
X146290000Y-103911000D01*
X144210000Y-103911000D02*
X143349000Y-103911000D01*
X147114000Y-103951000D02*
X146290000Y-103951000D01*
X144210000Y-103951000D02*
X143386000Y-103951000D01*
X147076000Y-103991000D02*
X146290000Y-103991000D01*
X144210000Y-103991000D02*
X143424000Y-103991000D01*
X147035000Y-104031000D02*
X146290000Y-104031000D01*
X144210000Y-104031000D02*
X143465000Y-104031000D01*
X146993000Y-104071000D02*
X146290000Y-104071000D01*
X144210000Y-104071000D02*
X143507000Y-104071000D01*
X146949000Y-104111000D02*
X146290000Y-104111000D01*
X144210000Y-104111000D02*
X143551000Y-104111000D01*
X146903000Y-104151000D02*
X146290000Y-104151000D01*
X144210000Y-104151000D02*
X143597000Y-104151000D01*
X146855000Y-104191000D02*
X146290000Y-104191000D01*
X144210000Y-104191000D02*
X143645000Y-104191000D01*
X146804000Y-104231000D02*
X146290000Y-104231000D01*
X144210000Y-104231000D02*
X143696000Y-104231000D01*
X146750000Y-104271000D02*
X146290000Y-104271000D01*
X144210000Y-104271000D02*
X143750000Y-104271000D01*
X146693000Y-104311000D02*
X146290000Y-104311000D01*
X144210000Y-104311000D02*
X143807000Y-104311000D01*
X146633000Y-104351000D02*
X146290000Y-104351000D01*
X144210000Y-104351000D02*
X143867000Y-104351000D01*
X146569000Y-104391000D02*
X146290000Y-104391000D01*
X144210000Y-104391000D02*
X143931000Y-104391000D01*
X146501000Y-104431000D02*
X146290000Y-104431000D01*
X144210000Y-104431000D02*
X143999000Y-104431000D01*
X146428000Y-104471000D02*
X144072000Y-104471000D01*
X146348000Y-104511000D02*
X144152000Y-104511000D01*
X146261000Y-104551000D02*
X144239000Y-104551000D01*
X146165000Y-104591000D02*
X144335000Y-104591000D01*
X146055000Y-104631000D02*
X144445000Y-104631000D01*
X145927000Y-104671000D02*
X144573000Y-104671000D01*
X145768000Y-104711000D02*
X144732000Y-104711000D01*
X145534000Y-104751000D02*
X144966000Y-104751000D01*
X147870000Y-102150000D02*
G75*
G03*
X142630000Y-102150000I-2620000J0D01*
G01*
X142630000Y-102150000D02*
G75*
G03*
X147870000Y-102150000I2620000J0D01*
G01*
X137960000Y-87800000D02*
X138980000Y-87800000D01*
X138980000Y-86330000D02*
X138980000Y-89270000D01*
X138980000Y-89270000D02*
X144420000Y-89270000D01*
X139760000Y-86330000D02*
X139760000Y-89270000D01*
X139880000Y-86330000D02*
X139880000Y-89270000D01*
X140000000Y-86330000D02*
X140000000Y-89270000D01*
X144420000Y-86330000D02*
X138980000Y-86330000D01*
X144420000Y-89270000D02*
X144420000Y-86330000D01*
X145440000Y-87800000D02*
X144420000Y-87800000D01*
X142225100Y-101080000D02*
X142225100Y-107620000D01*
X141895100Y-101080000D02*
X142225100Y-101080000D01*
X139815100Y-101080000D02*
X139485100Y-101080000D01*
X139485100Y-101080000D02*
X139485100Y-107620000D01*
X142225100Y-107620000D02*
X141895100Y-107620000D01*
X139485100Y-107620000D02*
X139815100Y-107620000D01*
X141990000Y-96380000D02*
X148530000Y-96380000D01*
X141990000Y-96710000D02*
X141990000Y-96380000D01*
X141990000Y-98790000D02*
X141990000Y-99120000D01*
X141990000Y-99120000D02*
X148530000Y-99120000D01*
X148530000Y-96380000D02*
X148530000Y-96710000D01*
X148530000Y-99120000D02*
X148530000Y-98790000D01*
X140170000Y-91130000D02*
X140170000Y-97670000D01*
X139840000Y-91130000D02*
X140170000Y-91130000D01*
X137760000Y-91130000D02*
X137430000Y-91130000D01*
X137430000Y-91130000D02*
X137430000Y-97670000D01*
X140170000Y-97670000D02*
X139840000Y-97670000D01*
X137430000Y-97670000D02*
X137760000Y-97670000D01*
X160670000Y-89630000D02*
X160670000Y-107470000D01*
X160670000Y-89630000D02*
X163330000Y-89630000D01*
X160670000Y-107470000D02*
X163330000Y-107470000D01*
X162000000Y-87030000D02*
X163330000Y-87030000D01*
X163330000Y-87030000D02*
X163330000Y-88360000D01*
X163330000Y-89630000D02*
X163330000Y-107470000D01*
X130243591Y-85857626D02*
X130597144Y-86211179D01*
X130597144Y-85857626D02*
X130243591Y-86211179D01*
X133008219Y-87059548D02*
X129359548Y-90708219D01*
X133036503Y-87087832D02*
X129387832Y-90736503D01*
X133064080Y-87116824D02*
X129416824Y-90764080D01*
X133091658Y-87145815D02*
X129445815Y-90791658D01*
X133118528Y-87175513D02*
X129475513Y-90818528D01*
X133144691Y-87205919D02*
X129505919Y-90844691D01*
X133170146Y-87237032D02*
X132088980Y-88318198D01*
X130618198Y-89788980D02*
X129537032Y-90870146D01*
X133195602Y-87268144D02*
X132117264Y-88346482D01*
X130646482Y-89817264D02*
X129568144Y-90895602D01*
X133221058Y-87299257D02*
X132145549Y-88374767D01*
X130674767Y-89845549D02*
X129599257Y-90921058D01*
X133245807Y-87331077D02*
X132173833Y-88403051D01*
X130703051Y-89873833D02*
X129631077Y-90945807D01*
X133269848Y-87363604D02*
X132202117Y-88431335D01*
X130731335Y-89902117D02*
X129663604Y-90969848D01*
X133293183Y-87396838D02*
X132230402Y-88459619D01*
X130759619Y-89930402D02*
X129696838Y-90993183D01*
X133316518Y-87430072D02*
X132258686Y-88487904D01*
X130787904Y-89958686D02*
X129730072Y-91016518D01*
X133339145Y-87464013D02*
X132286970Y-88516188D01*
X130816188Y-89986970D02*
X129764013Y-91039145D01*
X133361772Y-87497954D02*
X132315254Y-88544472D01*
X130844472Y-90015254D02*
X129797954Y-91061772D01*
X133383693Y-87532602D02*
X132343539Y-88572756D01*
X130872756Y-90043539D02*
X129832602Y-91083693D01*
X133404906Y-87567958D02*
X132371823Y-88601041D01*
X130901041Y-90071823D02*
X129867958Y-91104906D01*
X133426119Y-87603313D02*
X132400107Y-88629325D01*
X130929325Y-90100107D02*
X129903313Y-91126119D01*
X133447332Y-87640083D02*
X132429099Y-88658316D01*
X130958316Y-90129099D02*
X129940083Y-91147332D01*
X133467131Y-87676852D02*
X132457383Y-88686601D01*
X130986601Y-90157383D02*
X129976852Y-91167131D01*
X133486223Y-87714329D02*
X132485667Y-88714885D01*
X131014885Y-90185667D02*
X130014329Y-91186223D01*
X133505315Y-87751806D02*
X132513951Y-88743169D01*
X131043169Y-90213951D02*
X130051806Y-91205315D01*
X133523700Y-87789989D02*
X132542236Y-88771453D01*
X131071453Y-90242236D02*
X130089989Y-91223700D01*
X133542085Y-87828173D02*
X132570520Y-88799738D01*
X131099738Y-90270520D02*
X130128173Y-91242085D01*
X133559055Y-87867771D02*
X132598804Y-88828022D01*
X131128022Y-90298804D02*
X130167771Y-91259055D01*
X133576026Y-87907369D02*
X132627088Y-88856306D01*
X131156306Y-90327088D02*
X130207369Y-91276026D01*
X133592289Y-87947674D02*
X132655373Y-88884591D01*
X131184591Y-90355373D02*
X130247674Y-91292289D01*
X133608553Y-87987979D02*
X132683657Y-88912875D01*
X131212875Y-90383657D02*
X130287979Y-91308553D01*
X133623402Y-88029698D02*
X132711941Y-88941159D01*
X131241159Y-90411941D02*
X130329698Y-91323402D01*
X133638251Y-88071418D02*
X132740226Y-88969443D01*
X131269443Y-90440226D02*
X130371418Y-91338251D01*
X133652393Y-88113844D02*
X132768510Y-88997728D01*
X131297728Y-90468510D02*
X130413844Y-91352393D01*
X133665121Y-88157685D02*
X132796794Y-89026012D01*
X131326012Y-90496794D02*
X130457685Y-91365121D01*
X133678556Y-88200818D02*
X132825078Y-89054296D01*
X131354296Y-90525078D02*
X130500818Y-91378556D01*
X133690577Y-88245366D02*
X132853363Y-89082580D01*
X131382580Y-90553363D02*
X130545366Y-91390577D01*
X133701891Y-88290621D02*
X132881647Y-89110865D01*
X131410865Y-90581647D02*
X130590621Y-91401891D01*
X133712497Y-88336583D02*
X132909931Y-89139149D01*
X131439149Y-90609931D02*
X130636583Y-91412497D01*
X133722397Y-88383252D02*
X132938215Y-89167433D01*
X131467433Y-90638215D02*
X130683252Y-91422397D01*
X133731589Y-88430628D02*
X132966500Y-89195718D01*
X131495718Y-90666500D02*
X130730628Y-91431589D01*
X133740782Y-88478004D02*
X132994784Y-89224002D01*
X131524002Y-90694784D02*
X130778004Y-91440782D01*
X133747853Y-88527502D02*
X133023068Y-89252286D01*
X131552286Y-90723068D02*
X130827502Y-91447853D01*
X133754924Y-88576999D02*
X133051352Y-89280570D01*
X131580570Y-90751352D02*
X130876999Y-91454924D01*
X133761288Y-88627204D02*
X133079637Y-89308855D01*
X131608855Y-90779637D02*
X130927204Y-91461288D01*
X133766237Y-88678823D02*
X133107921Y-89337139D01*
X131637139Y-90807921D02*
X130978823Y-91466237D01*
X133770480Y-88731148D02*
X133136205Y-89365423D01*
X131665423Y-90836205D02*
X131031148Y-91470480D01*
X133773309Y-88784889D02*
X133164490Y-89393707D01*
X131693707Y-90864490D02*
X131084889Y-91473309D01*
X133775430Y-88839336D02*
X133192774Y-89421992D01*
X131721992Y-90892774D02*
X131139336Y-91475430D01*
X133776844Y-88894490D02*
X133221058Y-89450276D01*
X131750276Y-90921058D02*
X131194490Y-91476844D01*
X133776137Y-88951766D02*
X133249342Y-89478560D01*
X131778560Y-90949342D02*
X131251766Y-91476137D01*
X133774723Y-89009748D02*
X133277627Y-89506845D01*
X131806845Y-90977627D02*
X131309748Y-91474723D01*
X133771894Y-89069145D02*
X133305911Y-89535129D01*
X131835129Y-91005911D02*
X131369145Y-91471894D01*
X133767652Y-89129957D02*
X133334195Y-89563413D01*
X131863413Y-91034195D02*
X131429957Y-91467652D01*
X133761995Y-89192182D02*
X133362479Y-89591697D01*
X131891697Y-91062479D02*
X131492182Y-91461995D01*
X133754217Y-89256529D02*
X133390764Y-89619982D01*
X131919982Y-91090764D02*
X131556529Y-91454217D01*
X133744317Y-89322997D02*
X133419048Y-89648266D01*
X131948266Y-91119048D02*
X131622997Y-91444317D01*
X133732296Y-89391586D02*
X133447332Y-89676550D01*
X131976550Y-91147332D02*
X131691586Y-91432296D01*
X133718154Y-89462297D02*
X133475617Y-89704834D01*
X132004834Y-91175617D02*
X131762297Y-91418154D01*
X133701184Y-89535836D02*
X133503901Y-89733119D01*
X132033119Y-91203901D02*
X131835836Y-91401184D01*
X133681385Y-89612203D02*
X133532185Y-89761403D01*
X132061403Y-91232185D02*
X131912203Y-91381385D01*
X133658050Y-89692107D02*
X131992107Y-91358050D01*
X133629766Y-89776959D02*
X132076959Y-91329766D01*
X133596532Y-89866762D02*
X132166762Y-91296532D01*
X133556934Y-89962928D02*
X132262928Y-91256934D01*
X133507436Y-90068994D02*
X132368994Y-91207436D01*
X133445211Y-90187788D02*
X132487788Y-91145211D01*
X133361065Y-90328503D02*
X132628503Y-91061065D01*
X133223887Y-90522250D02*
X132822250Y-90923887D01*
X133803883Y-88883883D02*
G75*
G03*
X128563883Y-88883883I-2620000J0D01*
G01*
X128563883Y-88883883D02*
G75*
G03*
X133803883Y-88883883I2620000J0D01*
G01*
X155150000Y-96340000D02*
X155150000Y-95320000D01*
X153680000Y-95320000D02*
X156620000Y-95320000D01*
X156620000Y-95320000D02*
X156620000Y-89880000D01*
X153680000Y-94540000D02*
X156620000Y-94540000D01*
X153680000Y-94420000D02*
X156620000Y-94420000D01*
X153680000Y-94300000D02*
X156620000Y-94300000D01*
X153680000Y-89880000D02*
X153680000Y-95320000D01*
X156620000Y-89880000D02*
X153680000Y-89880000D01*
X155150000Y-88860000D02*
X155150000Y-89880000D01*
X149530000Y-102830000D02*
X156070000Y-102830000D01*
X149530000Y-103160000D02*
X149530000Y-102830000D01*
X149530000Y-105240000D02*
X149530000Y-105570000D01*
X149530000Y-105570000D02*
X156070000Y-105570000D01*
X156070000Y-102830000D02*
X156070000Y-103160000D01*
X156070000Y-105570000D02*
X156070000Y-105240000D01*
%LPC*%
D14*
X124100000Y-98625000D03*
D15*
X124100000Y-96085000D03*
D16*
X132400000Y-96550000D03*
D17*
X129900000Y-96550000D03*
X135600000Y-98200000D03*
D18*
X135600000Y-90580000D03*
D14*
X124100000Y-102450000D03*
D15*
X124100000Y-104990000D03*
X124100000Y-107530000D03*
D17*
X156710000Y-100850000D03*
D18*
X149090000Y-100850000D03*
D14*
X124105000Y-92300000D03*
D15*
X124105000Y-89760000D03*
X124105000Y-87220000D03*
D19*
X129945100Y-108060000D03*
D20*
X132485100Y-108060000D03*
X135025100Y-108060000D03*
X137565100Y-108060000D03*
X137565100Y-100440000D03*
X135025100Y-100440000D03*
X132485100Y-100440000D03*
X129945100Y-100440000D03*
D21*
X154130000Y-107650000D03*
D22*
X143970000Y-107650000D03*
D16*
X143400000Y-94400000D03*
D17*
X143400000Y-91900000D03*
D21*
X151850000Y-97680000D03*
D22*
X151850000Y-87520000D03*
D16*
X145250000Y-100900000D03*
D17*
X145250000Y-103400000D03*
D21*
X136620000Y-87800000D03*
D22*
X146780000Y-87800000D03*
D17*
X140855100Y-100540000D03*
D18*
X140855100Y-108160000D03*
D17*
X141450000Y-97750000D03*
D18*
X149070000Y-97750000D03*
D17*
X138800000Y-90590000D03*
D18*
X138800000Y-98210000D03*
D14*
X162000000Y-88360000D03*
D15*
X162000000Y-90900000D03*
X162000000Y-93440000D03*
X162000000Y-95980000D03*
X162000000Y-98520000D03*
X162000000Y-101060000D03*
X162000000Y-103600000D03*
X162000000Y-106140000D03*
D23*
X130300000Y-88000000D03*
D17*
X132067767Y-89767767D03*
D21*
X155150000Y-97680000D03*
D22*
X155150000Y-87520000D03*
D17*
X148990000Y-104200000D03*
D18*
X156610000Y-104200000D03*
%LPD*%
M02*
