%TF.GenerationSoftware,KiCad,Pcbnew,7.0.10-7.0.10~ubuntu20.04.1*%
%TF.CreationDate,2024-05-27T18:54:42-03:00*%
%TF.ProjectId,condicionamento_BIA_v03,636f6e64-6963-4696-9f6e-616d656e746f,v03*%
%TF.SameCoordinates,Original*%
%TF.FileFunction,Drillmap*%
%TF.FilePolarity,Positive*%
%FSLAX45Y45*%
G04 Gerber Fmt 4.5, Leading zero omitted, Abs format (unit mm)*
G04 Created by KiCad (PCBNEW 7.0.10-7.0.10~ubuntu20.04.1) date 2024-05-27 18:54:42*
%MOMM*%
%LPD*%
G01*
G04 APERTURE LIST*
%ADD10C,0.500000*%
%ADD11C,0.200000*%
G04 APERTURE END LIST*
D10*
X19707782Y-13503980D02*
X10707800Y-13503980D01*
X19707800Y-13504000D02*
X19707800Y-3504000D01*
X19707800Y-3504000D02*
X10707800Y-3504000D01*
X10707800Y-3504000D02*
X10707800Y-13503980D01*
D11*
X10943577Y-13840484D02*
X10943577Y-13640484D01*
X10943577Y-13640484D02*
X10991196Y-13640484D01*
X10991196Y-13640484D02*
X11019767Y-13650008D01*
X11019767Y-13650008D02*
X11038815Y-13669055D01*
X11038815Y-13669055D02*
X11048339Y-13688103D01*
X11048339Y-13688103D02*
X11057863Y-13726198D01*
X11057863Y-13726198D02*
X11057863Y-13754769D01*
X11057863Y-13754769D02*
X11048339Y-13792865D01*
X11048339Y-13792865D02*
X11038815Y-13811912D01*
X11038815Y-13811912D02*
X11019767Y-13830960D01*
X11019767Y-13830960D02*
X10991196Y-13840484D01*
X10991196Y-13840484D02*
X10943577Y-13840484D01*
X11143577Y-13840484D02*
X11143577Y-13707150D01*
X11143577Y-13745246D02*
X11153101Y-13726198D01*
X11153101Y-13726198D02*
X11162624Y-13716674D01*
X11162624Y-13716674D02*
X11181672Y-13707150D01*
X11181672Y-13707150D02*
X11200720Y-13707150D01*
X11267386Y-13840484D02*
X11267386Y-13707150D01*
X11267386Y-13640484D02*
X11257862Y-13650008D01*
X11257862Y-13650008D02*
X11267386Y-13659531D01*
X11267386Y-13659531D02*
X11276910Y-13650008D01*
X11276910Y-13650008D02*
X11267386Y-13640484D01*
X11267386Y-13640484D02*
X11267386Y-13659531D01*
X11391196Y-13840484D02*
X11372148Y-13830960D01*
X11372148Y-13830960D02*
X11362624Y-13811912D01*
X11362624Y-13811912D02*
X11362624Y-13640484D01*
X11495958Y-13840484D02*
X11476910Y-13830960D01*
X11476910Y-13830960D02*
X11467386Y-13811912D01*
X11467386Y-13811912D02*
X11467386Y-13640484D01*
X11724529Y-13840484D02*
X11724529Y-13640484D01*
X11724529Y-13640484D02*
X11791196Y-13783341D01*
X11791196Y-13783341D02*
X11857862Y-13640484D01*
X11857862Y-13640484D02*
X11857862Y-13840484D01*
X12038815Y-13840484D02*
X12038815Y-13735722D01*
X12038815Y-13735722D02*
X12029291Y-13716674D01*
X12029291Y-13716674D02*
X12010243Y-13707150D01*
X12010243Y-13707150D02*
X11972148Y-13707150D01*
X11972148Y-13707150D02*
X11953101Y-13716674D01*
X12038815Y-13830960D02*
X12019767Y-13840484D01*
X12019767Y-13840484D02*
X11972148Y-13840484D01*
X11972148Y-13840484D02*
X11953101Y-13830960D01*
X11953101Y-13830960D02*
X11943577Y-13811912D01*
X11943577Y-13811912D02*
X11943577Y-13792865D01*
X11943577Y-13792865D02*
X11953101Y-13773817D01*
X11953101Y-13773817D02*
X11972148Y-13764293D01*
X11972148Y-13764293D02*
X12019767Y-13764293D01*
X12019767Y-13764293D02*
X12038815Y-13754769D01*
X12134053Y-13707150D02*
X12134053Y-13907150D01*
X12134053Y-13716674D02*
X12153101Y-13707150D01*
X12153101Y-13707150D02*
X12191196Y-13707150D01*
X12191196Y-13707150D02*
X12210243Y-13716674D01*
X12210243Y-13716674D02*
X12219767Y-13726198D01*
X12219767Y-13726198D02*
X12229291Y-13745246D01*
X12229291Y-13745246D02*
X12229291Y-13802388D01*
X12229291Y-13802388D02*
X12219767Y-13821436D01*
X12219767Y-13821436D02*
X12210243Y-13830960D01*
X12210243Y-13830960D02*
X12191196Y-13840484D01*
X12191196Y-13840484D02*
X12153101Y-13840484D01*
X12153101Y-13840484D02*
X12134053Y-13830960D01*
X12315005Y-13821436D02*
X12324529Y-13830960D01*
X12324529Y-13830960D02*
X12315005Y-13840484D01*
X12315005Y-13840484D02*
X12305482Y-13830960D01*
X12305482Y-13830960D02*
X12315005Y-13821436D01*
X12315005Y-13821436D02*
X12315005Y-13840484D01*
X12315005Y-13716674D02*
X12324529Y-13726198D01*
X12324529Y-13726198D02*
X12315005Y-13735722D01*
X12315005Y-13735722D02*
X12305482Y-13726198D01*
X12305482Y-13726198D02*
X12315005Y-13716674D01*
X12315005Y-13716674D02*
X12315005Y-13735722D01*
M02*
