M48
; DRILL file {KiCad 7.0.10-7.0.10~ubuntu20.04.1} date seg 27 mai 2024 18:54:41
; FORMAT={-:-/ absolute / metric / decimal}
; #@! TF.CreationDate,2024-05-27T18:54:41-03:00
; #@! TF.GenerationSoftware,Kicad,Pcbnew,7.0.10-7.0.10~ubuntu20.04.1
; #@! TF.FileFunction,Plated,1,2,PTH
FMAT,2
METRIC
; #@! TA.AperFunction,Plated,PTH,ViaDrill
T1C0.800
; #@! TA.AperFunction,Plated,PTH,ComponentDrill
T2C0.800
; #@! TA.AperFunction,Plated,PTH,ComponentDrill
T3C1.000
; #@! TA.AperFunction,Plated,PTH,ComponentDrill
T4C1.020
; #@! TA.AperFunction,Plated,PTH,ComponentDrill
T5C1.100
%
G90
G05
T1
X127.785Y-60.12
X132.868Y-42.945
X133.521Y-64.161
X140.639Y-96.656
X141.749Y-118.547
X146.782Y-104.344
X156.238Y-85.35
X158.679Y-88.46
X163.833Y-90.387
X171.854Y-95.423
X174.932Y-124.736
X178.651Y-96.617
X182.84Y-111.065
T2
X117.19Y-65.9
X117.6Y-58.0
X124.81Y-65.9
X125.22Y-58.0
X125.884Y-87.237
X127.09Y-54.6
X128.424Y-87.237
X134.71Y-54.6
X141.6Y-122.99
X141.6Y-130.61
X148.647Y-121.019
X149.242Y-93.968
X151.147Y-121.019
X151.782Y-100.953
X151.782Y-111.113
X154.957Y-115.812
X154.957Y-118.352
X154.957Y-120.892
X154.957Y-123.432
X156.1Y-111.113
X156.989Y-105.144
X157.878Y-99.175
X159.402Y-93.968
X162.577Y-115.812
X162.577Y-118.352
X162.577Y-120.892
X162.577Y-123.432
X163.72Y-111.113
X164.609Y-105.144
X165.498Y-99.175
X166.006Y-121.019
X167.911Y-109.335
X168.506Y-121.019
X169.881Y-101.588
X171.594Y-114.923
X171.848Y-123.178
X172.381Y-101.588
X173.489Y-83.046
X175.531Y-109.335
X176.029Y-83.046
X177.055Y-101.969
X179.214Y-114.923
X179.341Y-108.319
X182.008Y-123.178
X182.581Y-116.701
X185.081Y-116.701
X186.961Y-108.319
X187.215Y-101.969
T3
X129.298Y-37.58
X131.838Y-37.58
X153.433Y-38.85
X155.973Y-38.85
X158.513Y-38.85
X163.42Y-132.703
X165.96Y-132.703
X168.5Y-132.703
X171.04Y-132.703
T4
X112.158Y-41.39
X112.158Y-43.93
X112.158Y-46.47
X112.158Y-49.01
X112.158Y-51.55
X112.158Y-54.09
X112.158Y-56.63
X112.158Y-59.17
X112.158Y-65.52
X112.158Y-68.06
X112.158Y-70.6
X112.158Y-73.14
X112.158Y-75.68
X112.158Y-78.22
X112.158Y-80.76
X112.158Y-83.3
X112.158Y-85.84
X112.158Y-88.38
X112.158Y-90.92
X112.158Y-93.46
X112.158Y-96.0
X112.158Y-98.54
X112.158Y-101.08
X112.158Y-103.62
X112.158Y-106.16
X112.158Y-108.7
X112.158Y-111.24
X112.158Y-113.78
X112.158Y-116.32
X112.158Y-118.86
X112.158Y-121.4
X112.158Y-123.94
X112.158Y-126.48
X112.158Y-129.02
X112.158Y-131.56
X119.524Y-83.427
X119.524Y-85.967
X119.524Y-88.507
X119.524Y-91.047
X119.524Y-93.587
X119.524Y-96.127
X119.524Y-98.667
X119.524Y-101.207
X119.524Y-103.747
X119.524Y-106.287
X119.524Y-108.827
X119.524Y-111.367
X119.524Y-113.907
X119.524Y-116.447
X119.524Y-118.987
X119.524Y-121.527
X119.524Y-124.067
X119.524Y-126.607
X119.524Y-129.147
X119.524Y-131.687
X134.764Y-83.376
X134.764Y-85.967
X134.764Y-88.507
X134.764Y-91.047
X134.764Y-93.587
X134.764Y-96.127
X134.764Y-98.667
X134.764Y-101.207
X134.764Y-103.747
X134.764Y-106.287
X134.764Y-108.827
X134.764Y-111.367
X134.764Y-113.907
X134.764Y-116.447
X134.764Y-118.987
X134.764Y-121.527
X134.764Y-124.067
X134.764Y-126.607
X134.764Y-129.147
X134.764Y-131.687
X167.149Y-38.596
X167.149Y-41.136
X167.149Y-43.676
X167.149Y-46.216
X167.149Y-48.756
X167.149Y-51.296
X167.149Y-53.836
X167.149Y-56.376
X167.149Y-58.916
X167.149Y-61.456
X167.149Y-63.996
X167.149Y-66.536
X167.149Y-69.076
X167.149Y-71.616
X167.149Y-74.156
X167.149Y-76.696
X167.149Y-79.236
X167.149Y-81.776
X167.149Y-84.316
X167.149Y-86.907
X182.389Y-38.596
X182.389Y-41.136
X182.389Y-43.676
X182.389Y-46.216
X182.389Y-48.756
X182.389Y-51.296
X182.389Y-53.836
X182.389Y-56.376
X182.389Y-58.916
X182.389Y-61.456
X182.389Y-63.996
X182.389Y-66.536
X182.389Y-69.076
X182.389Y-71.616
X182.389Y-74.156
X182.389Y-76.696
X182.389Y-79.236
X182.389Y-81.776
X182.389Y-84.316
X182.389Y-86.856
X190.898Y-41.39
X190.898Y-43.93
X190.898Y-46.47
X190.898Y-49.01
X190.898Y-51.55
X190.898Y-54.09
X190.898Y-56.63
X190.898Y-59.17
X190.898Y-61.71
X190.898Y-64.25
X190.898Y-66.79
X190.898Y-69.33
X190.898Y-71.87
X190.898Y-74.41
X190.898Y-76.95
X190.898Y-79.49
X190.898Y-82.03
X190.898Y-84.57
X190.898Y-87.11
X190.898Y-89.65
X190.898Y-92.19
X190.898Y-94.73
X190.898Y-97.27
X190.898Y-99.81
X190.898Y-102.35
X190.898Y-104.89
X190.898Y-107.43
X190.898Y-109.97
X190.898Y-112.51
X190.898Y-115.05
X190.898Y-117.59
X190.898Y-120.13
X190.898Y-122.67
X190.898Y-125.21
X190.898Y-127.75
T5
X118.7Y-48.1
X118.76Y-39.6
X121.24Y-48.1
X121.3Y-39.6
X125.6Y-44.0
X128.14Y-44.0
X138.457Y-39.669
X140.997Y-39.669
X143.537Y-39.669
X146.077Y-39.669
X147.464Y-130.163
X150.004Y-130.163
X184.325Y-131.3
X186.865Y-131.3
M30
