%TF.GenerationSoftware,KiCad,Pcbnew,7.0.11-7.0.11~ubuntu22.04.1*%
%TF.CreationDate,2024-05-31T20:36:06-03:00*%
%TF.ProjectId,condicionamento_BIA_v03,636f6e64-6963-4696-9f6e-616d656e746f,v03*%
%TF.SameCoordinates,Original*%
%TF.FileFunction,Drillmap*%
%TF.FilePolarity,Positive*%
%FSLAX45Y45*%
G04 Gerber Fmt 4.5, Leading zero omitted, Abs format (unit mm)*
G04 Created by KiCad (PCBNEW 7.0.11-7.0.11~ubuntu22.04.1) date 2024-05-31 20:36:06*
%MOMM*%
%LPD*%
G01*
G04 APERTURE LIST*
%ADD10C,0.150000*%
%ADD11C,0.200000*%
G04 APERTURE END LIST*
D10*
X19707782Y-13503980D02*
X10707800Y-13503980D01*
X19707800Y-13504000D02*
X19707800Y-3504000D01*
X19707800Y-3504000D02*
X10707800Y-3504000D01*
X10707800Y-3504000D02*
X10707800Y-13503980D01*
D11*
X10961077Y-13822984D02*
X10961077Y-13622984D01*
X10961077Y-13622984D02*
X11008696Y-13622984D01*
X11008696Y-13622984D02*
X11037267Y-13632508D01*
X11037267Y-13632508D02*
X11056315Y-13651555D01*
X11056315Y-13651555D02*
X11065839Y-13670603D01*
X11065839Y-13670603D02*
X11075363Y-13708698D01*
X11075363Y-13708698D02*
X11075363Y-13737269D01*
X11075363Y-13737269D02*
X11065839Y-13775365D01*
X11065839Y-13775365D02*
X11056315Y-13794412D01*
X11056315Y-13794412D02*
X11037267Y-13813460D01*
X11037267Y-13813460D02*
X11008696Y-13822984D01*
X11008696Y-13822984D02*
X10961077Y-13822984D01*
X11161077Y-13822984D02*
X11161077Y-13689650D01*
X11161077Y-13727746D02*
X11170601Y-13708698D01*
X11170601Y-13708698D02*
X11180124Y-13699174D01*
X11180124Y-13699174D02*
X11199172Y-13689650D01*
X11199172Y-13689650D02*
X11218220Y-13689650D01*
X11284886Y-13822984D02*
X11284886Y-13689650D01*
X11284886Y-13622984D02*
X11275362Y-13632508D01*
X11275362Y-13632508D02*
X11284886Y-13642031D01*
X11284886Y-13642031D02*
X11294410Y-13632508D01*
X11294410Y-13632508D02*
X11284886Y-13622984D01*
X11284886Y-13622984D02*
X11284886Y-13642031D01*
X11408696Y-13822984D02*
X11389648Y-13813460D01*
X11389648Y-13813460D02*
X11380124Y-13794412D01*
X11380124Y-13794412D02*
X11380124Y-13622984D01*
X11513458Y-13822984D02*
X11494410Y-13813460D01*
X11494410Y-13813460D02*
X11484886Y-13794412D01*
X11484886Y-13794412D02*
X11484886Y-13622984D01*
X11742029Y-13822984D02*
X11742029Y-13622984D01*
X11742029Y-13622984D02*
X11808696Y-13765841D01*
X11808696Y-13765841D02*
X11875362Y-13622984D01*
X11875362Y-13622984D02*
X11875362Y-13822984D01*
X12056315Y-13822984D02*
X12056315Y-13718222D01*
X12056315Y-13718222D02*
X12046791Y-13699174D01*
X12046791Y-13699174D02*
X12027743Y-13689650D01*
X12027743Y-13689650D02*
X11989648Y-13689650D01*
X11989648Y-13689650D02*
X11970601Y-13699174D01*
X12056315Y-13813460D02*
X12037267Y-13822984D01*
X12037267Y-13822984D02*
X11989648Y-13822984D01*
X11989648Y-13822984D02*
X11970601Y-13813460D01*
X11970601Y-13813460D02*
X11961077Y-13794412D01*
X11961077Y-13794412D02*
X11961077Y-13775365D01*
X11961077Y-13775365D02*
X11970601Y-13756317D01*
X11970601Y-13756317D02*
X11989648Y-13746793D01*
X11989648Y-13746793D02*
X12037267Y-13746793D01*
X12037267Y-13746793D02*
X12056315Y-13737269D01*
X12151553Y-13689650D02*
X12151553Y-13889650D01*
X12151553Y-13699174D02*
X12170601Y-13689650D01*
X12170601Y-13689650D02*
X12208696Y-13689650D01*
X12208696Y-13689650D02*
X12227743Y-13699174D01*
X12227743Y-13699174D02*
X12237267Y-13708698D01*
X12237267Y-13708698D02*
X12246791Y-13727746D01*
X12246791Y-13727746D02*
X12246791Y-13784888D01*
X12246791Y-13784888D02*
X12237267Y-13803936D01*
X12237267Y-13803936D02*
X12227743Y-13813460D01*
X12227743Y-13813460D02*
X12208696Y-13822984D01*
X12208696Y-13822984D02*
X12170601Y-13822984D01*
X12170601Y-13822984D02*
X12151553Y-13813460D01*
X12332505Y-13803936D02*
X12342029Y-13813460D01*
X12342029Y-13813460D02*
X12332505Y-13822984D01*
X12332505Y-13822984D02*
X12322982Y-13813460D01*
X12322982Y-13813460D02*
X12332505Y-13803936D01*
X12332505Y-13803936D02*
X12332505Y-13822984D01*
X12332505Y-13699174D02*
X12342029Y-13708698D01*
X12342029Y-13708698D02*
X12332505Y-13718222D01*
X12332505Y-13718222D02*
X12322982Y-13708698D01*
X12322982Y-13708698D02*
X12332505Y-13699174D01*
X12332505Y-13699174D02*
X12332505Y-13718222D01*
M02*
