G04 #@! TF.GenerationSoftware,KiCad,Pcbnew,7.0.10-7.0.10~ubuntu20.04.1*
G04 #@! TF.CreationDate,2024-05-27T18:54:22-03:00*
G04 #@! TF.ProjectId,condicionamento_BIA_v03,636f6e64-6963-4696-9f6e-616d656e746f,v03*
G04 #@! TF.SameCoordinates,Original*
G04 #@! TF.FileFunction,Soldermask,Bot*
G04 #@! TF.FilePolarity,Negative*
%FSLAX46Y46*%
G04 Gerber Fmt 4.6, Leading zero omitted, Abs format (unit mm)*
G04 Created by KiCad (PCBNEW 7.0.10-7.0.10~ubuntu20.04.1) date 2024-05-27 18:54:22*
%MOMM*%
%LPD*%
G01*
G04 APERTURE LIST*
%ADD10O,1.600000X2.000000*%
%ADD11R,1.600000X2.000000*%
%ADD12R,2.500000X1.800000*%
%ADD13O,2.500000X1.800000*%
%ADD14O,2.000000X1.600000*%
%ADD15O,1.800000X2.500000*%
%ADD16R,1.800000X2.000000*%
%ADD17O,1.800000X2.000000*%
%ADD18R,1.700000X1.700000*%
%ADD19O,1.700000X1.700000*%
%ADD20R,2.000000X1.600000*%
%ADD21R,2.250000X1.727200*%
%ADD22O,2.250000X1.727200*%
%ADD23C,1.500000*%
G04 APERTURE END LIST*
D10*
X148647000Y-121019000D03*
D11*
X151147000Y-121019000D03*
D12*
X112158000Y-41390000D03*
D13*
X112158000Y-43930000D03*
X112158000Y-46470000D03*
X112158000Y-49010000D03*
X112158000Y-51550000D03*
X112158000Y-54090000D03*
X112158000Y-56630000D03*
X112158000Y-59170000D03*
D14*
X141600000Y-122990000D03*
X141600000Y-130610000D03*
D10*
X156989000Y-105144000D03*
X164609000Y-105144000D03*
D15*
X150004000Y-130163000D03*
X147464000Y-130163000D03*
D16*
X118700000Y-48100000D03*
D17*
X121240000Y-48100000D03*
D18*
X129298000Y-37580000D03*
D19*
X131838000Y-37580000D03*
D18*
X153433000Y-38850000D03*
D19*
X155973000Y-38850000D03*
X158513000Y-38850000D03*
D20*
X151782000Y-100953000D03*
D14*
X151782000Y-111113000D03*
D10*
X169880900Y-101588000D03*
D11*
X172380900Y-101588000D03*
D10*
X163420000Y-132703000D03*
X165960000Y-132703000D03*
X168500000Y-132703000D03*
X171040000Y-132703000D03*
X179214000Y-114923000D03*
X171594000Y-114923000D03*
X168506000Y-121019000D03*
D11*
X166006000Y-121019000D03*
D21*
X182389000Y-86856000D03*
D22*
X182389000Y-84316000D03*
X182389000Y-81776000D03*
X182389000Y-79236000D03*
X182389000Y-76696000D03*
X182389000Y-74156000D03*
X182389000Y-71616000D03*
X182389000Y-69076000D03*
X182389000Y-66536000D03*
X182389000Y-63996000D03*
X182389000Y-61456000D03*
X182389000Y-58916000D03*
X182389000Y-56376000D03*
X182389000Y-53836000D03*
X182389000Y-51296000D03*
X182389000Y-48756000D03*
X182389000Y-46216000D03*
X182389000Y-43676000D03*
X182389000Y-41136000D03*
X182389000Y-38596000D03*
X167149000Y-38596000D03*
X167149000Y-41136000D03*
X167149000Y-43676000D03*
X167149000Y-46216000D03*
X167149000Y-48756000D03*
X167149000Y-51296000D03*
X167149000Y-53836000D03*
X167149000Y-56376000D03*
X167149000Y-58916000D03*
X167149000Y-61456000D03*
X167149000Y-63996000D03*
X167149000Y-66536000D03*
X167149000Y-69076000D03*
X167149000Y-71616000D03*
X167149000Y-74156000D03*
X167149000Y-76696000D03*
X167149000Y-79236000D03*
X167149000Y-81776000D03*
X167149000Y-84316000D03*
X167149000Y-86906800D03*
D23*
X173489000Y-83046000D03*
X176029000Y-83046000D03*
D11*
X171848000Y-123178000D03*
D10*
X182008000Y-123178000D03*
X179341000Y-108319000D03*
X186961000Y-108319000D03*
D16*
X184325000Y-131300000D03*
D17*
X186865000Y-131300000D03*
D10*
X157878000Y-99175000D03*
X165498000Y-99175000D03*
X182580900Y-116701000D03*
D11*
X185080900Y-116701000D03*
D20*
X162577000Y-123432000D03*
D14*
X162577000Y-120892000D03*
X162577000Y-118352000D03*
X162577000Y-115812000D03*
X154957000Y-115812000D03*
X154957000Y-118352000D03*
X154957000Y-120892000D03*
X154957000Y-123432000D03*
D10*
X117190000Y-65900000D03*
X124810000Y-65900000D03*
X163720000Y-111113000D03*
X156100000Y-111113000D03*
X117600000Y-58000000D03*
X125220000Y-58000000D03*
D13*
X190898000Y-41390000D03*
X190898000Y-43930000D03*
X190898000Y-46470000D03*
X190898000Y-49010000D03*
X190898000Y-51550000D03*
X190898000Y-54090000D03*
X190898000Y-56630000D03*
X190898000Y-59170000D03*
X190898000Y-61710000D03*
X190898000Y-64250000D03*
X190898000Y-66790000D03*
X190898000Y-69330000D03*
X190898000Y-71870000D03*
X190898000Y-74410000D03*
X190898000Y-76950000D03*
X190898000Y-79490000D03*
X190898000Y-82030000D03*
X190898000Y-84570000D03*
X190898000Y-87110000D03*
X190898000Y-89650000D03*
X190898000Y-92190000D03*
X190898000Y-94730000D03*
X190898000Y-97270000D03*
X190898000Y-99810000D03*
X190898000Y-102350000D03*
X190898000Y-104890000D03*
X190898000Y-107430000D03*
X190898000Y-109970000D03*
X190898000Y-112510000D03*
X190898000Y-115050000D03*
X190898000Y-117590000D03*
X190898000Y-120130000D03*
X190898000Y-122670000D03*
X190898000Y-125210000D03*
X190898000Y-127750000D03*
D10*
X134710000Y-54600000D03*
X127090000Y-54600000D03*
D15*
X138457000Y-39669000D03*
X140997000Y-39669000D03*
X143537000Y-39669000D03*
X146077000Y-39669000D03*
D21*
X119524000Y-83427000D03*
D22*
X119524000Y-85967000D03*
X119524000Y-88507000D03*
X119524000Y-91047000D03*
X119524000Y-93587000D03*
X119524000Y-96127000D03*
X119524000Y-98667000D03*
X119524000Y-101207000D03*
X119524000Y-103747000D03*
X119524000Y-106287000D03*
X119524000Y-108827000D03*
X119524000Y-111367000D03*
X119524000Y-113907000D03*
X119524000Y-116447000D03*
X119524000Y-118987000D03*
X119524000Y-121527000D03*
X119524000Y-124067000D03*
X119524000Y-126607000D03*
X119524000Y-129147000D03*
X119524000Y-131687000D03*
X134764000Y-131687000D03*
X134764000Y-129147000D03*
X134764000Y-126607000D03*
X134764000Y-124067000D03*
X134764000Y-121527000D03*
X134764000Y-118987000D03*
X134764000Y-116447000D03*
X134764000Y-113907000D03*
X134764000Y-111367000D03*
X134764000Y-108827000D03*
X134764000Y-106287000D03*
X134764000Y-103747000D03*
X134764000Y-101207000D03*
X134764000Y-98667000D03*
X134764000Y-96127000D03*
X134764000Y-93587000D03*
X134764000Y-91047000D03*
X134764000Y-88507000D03*
X134764000Y-85967000D03*
X134764000Y-83376200D03*
D23*
X128424000Y-87237000D03*
X125884000Y-87237000D03*
D10*
X167911000Y-109335000D03*
X175531000Y-109335000D03*
D11*
X177055000Y-101969000D03*
D10*
X187215000Y-101969000D03*
D16*
X125600000Y-44000000D03*
D17*
X128140000Y-44000000D03*
D11*
X149242000Y-93968000D03*
D10*
X159402000Y-93968000D03*
D16*
X118760000Y-39600000D03*
D17*
X121300000Y-39600000D03*
D13*
X112158000Y-65520000D03*
X112158000Y-68060000D03*
X112158000Y-70600000D03*
X112158000Y-73140000D03*
X112158000Y-75680000D03*
X112158000Y-78220000D03*
X112158000Y-80760000D03*
X112158000Y-83300000D03*
X112158000Y-85840000D03*
X112158000Y-88380000D03*
X112158000Y-90920000D03*
X112158000Y-93460000D03*
X112158000Y-96000000D03*
X112158000Y-98540000D03*
X112158000Y-101080000D03*
X112158000Y-103620000D03*
X112158000Y-106160000D03*
X112158000Y-108700000D03*
X112158000Y-111240000D03*
X112158000Y-113780000D03*
X112158000Y-116320000D03*
X112158000Y-118860000D03*
X112158000Y-121400000D03*
X112158000Y-123940000D03*
X112158000Y-126480000D03*
X112158000Y-129020000D03*
X112158000Y-131560000D03*
M02*
