M48
; DRILL file {KiCad 7.0.6-7.0.6~ubuntu22.04.1} date sex 14 jul 2023 22:03:34
; FORMAT={-:-/ absolute / inch / decimal}
; #@! TF.CreationDate,2023-07-14T22:03:34-03:00
; #@! TF.GenerationSoftware,Kicad,Pcbnew,7.0.6-7.0.6~ubuntu22.04.1
; #@! TF.FileFunction,Plated,1,2,PTH
FMAT,2
INCH
; #@! TA.AperFunction,Plated,PTH,ViaDrill
T1C0.0315
; #@! TA.AperFunction,Plated,PTH,ComponentDrill
T2C0.0315
; #@! TA.AperFunction,Plated,PTH,ComponentDrill
T3C0.0433
%
G90
G05
T1
X4.3307Y-5.4035
X4.3307Y-5.6988
X4.3406Y-2.3622
X4.9902Y-4.3307
X5.128Y-2.3622
X5.2461Y-4.3307
X5.8858Y-3.9764
X5.8858Y-4.2224
X6.0Y-3.9862
X6.0Y-4.7835
X6.8504Y-4.0551
X7.0866Y-4.0551
T2
X4.2Y-2.25
X4.2Y-2.35
X4.2Y-2.45
X4.2Y-2.55
X4.2Y-2.65
X4.2Y-2.75
X4.2Y-2.85
X4.2Y-2.95
X4.2Y-3.2
X4.2Y-3.3
X4.2Y-3.4
X4.2Y-3.5
X4.2Y-3.6
X4.2Y-3.7
X4.2Y-3.8
X4.2Y-3.9
X4.2Y-4.0
X4.2Y-4.1
X4.2Y-4.2
X4.2Y-4.3
X4.2Y-4.4
X4.2Y-4.5
X4.2Y-4.6
X4.2Y-4.7
X4.2Y-4.8
X4.2Y-4.9
X4.2Y-5.0
X4.2Y-5.1
X4.2Y-5.2
X4.2Y-5.3
X4.2Y-5.4
X4.2Y-5.5
X4.2Y-5.6
X4.2Y-5.7
X4.2Y-5.8
X4.6772Y-4.852
X4.6772Y-5.152
X4.7984Y-3.1299
X4.8205Y-2.5862
X4.8205Y-2.6862
X4.8205Y-2.7862
X4.8205Y-2.8862
X4.911Y-4.6181
X4.9114Y-4.8524
X4.9114Y-4.9524
X4.9114Y-5.0524
X4.9114Y-5.1524
X4.9386Y-3.7205
X4.9409Y-3.4252
X5.0984Y-3.1299
X5.1205Y-2.5862
X5.1205Y-2.6862
X5.1205Y-2.7862
X5.1205Y-2.8862
X5.211Y-4.6181
X5.2114Y-4.8524
X5.2114Y-4.9524
X5.2114Y-5.0524
X5.2114Y-5.1524
X5.2386Y-3.7205
X5.2409Y-3.4252
X5.5118Y-2.7634
X5.5118Y-3.0634
X5.5797Y-4.3875
X5.5797Y-4.4875
X5.5797Y-4.5875
X5.5797Y-4.6875
X5.8797Y-4.3875
X5.8797Y-4.4875
X5.8797Y-4.5875
X5.8797Y-4.6875
X5.9744Y-2.761
X5.9744Y-3.061
X5.9744Y-3.2827
X5.9744Y-3.5827
X6.0723Y-5.2911
X6.1497Y-5.0057
X6.1533Y-4.4858
X6.1533Y-4.5842
X6.1707Y-5.2911
X6.4397Y-4.5275
X6.4497Y-5.0057
X6.5439Y-4.8285
X6.6831Y-5.1059
X6.6831Y-5.4059
X6.7397Y-4.5275
X6.8413Y-3.7459
X6.9413Y-3.7459
X7.0413Y-3.7459
X7.35Y-2.25
X7.35Y-2.35
X7.35Y-2.45
X7.35Y-2.55
X7.35Y-2.65
X7.35Y-2.75
X7.35Y-2.85
X7.35Y-2.95
X7.35Y-3.05
X7.35Y-3.15
X7.35Y-3.25
X7.35Y-3.35
X7.35Y-3.45
X7.35Y-3.55
X7.35Y-3.65
X7.35Y-3.75
X7.35Y-3.85
X7.35Y-3.95
X7.35Y-4.05
X7.35Y-4.15
X7.35Y-4.25
X7.35Y-4.35
X7.35Y-4.45
X7.35Y-4.55
X7.35Y-4.65
X7.35Y-4.75
X7.35Y-4.85
X7.35Y-4.95
X7.35Y-5.05
X7.35Y-5.15
X7.35Y-5.25
X7.35Y-5.35
X7.35Y-5.45
X7.35Y-5.55
X7.35Y-5.65
T3
X6.1386Y-5.502
X6.5386Y-5.502
X6.9439Y-4.8285
T2
G00X4.5374Y-5.5177
M15
G01X4.5374Y-5.6831
M16
G05
G00X4.8051Y-5.5177
M15
G01X4.8051Y-5.6831
M16
G05
G00X5.065Y-5.5177
M15
G01X5.065Y-5.6831
M16
G05
T0
M30
