%TF.GenerationSoftware,KiCad,Pcbnew,9.0.0-9.0.0-2~ubuntu24.04.1*%
%TF.CreationDate,2025-03-07T17:41:16-03:00*%
%TF.ProjectId,Condicionamento_compacto_V03_kicad_9,436f6e64-6963-4696-9f6e-616d656e746f,rev?*%
%TF.SameCoordinates,Original*%
%TF.FileFunction,Drillmap*%
%TF.FilePolarity,Positive*%
%FSLAX45Y45*%
G04 Gerber Fmt 4.5, Leading zero omitted, Abs format (unit mm)*
G04 Created by KiCad (PCBNEW 9.0.0-9.0.0-2~ubuntu24.04.1) date 2025-03-07 17:41:16*
%MOMM*%
%LPD*%
G01*
G04 APERTURE LIST*
%ADD10C,0.150000*%
%ADD11C,0.200000*%
%ADD12C,0.100000*%
%ADD13C,0.110000*%
G04 APERTURE END LIST*
D10*
X6460000Y-13160000D02*
X6460000Y-16660000D01*
X6460000Y-13160000D02*
X12460000Y-13160000D01*
X12460000Y-13160000D02*
X12460000Y-16660000D01*
X6460000Y-16660000D02*
X12460000Y-16660000D01*
D11*
D12*
X7019930Y-15752140D02*
X7049930Y-15782140D01*
X7049930Y-15752140D02*
X7019930Y-15782140D01*
X7031970Y-14612040D02*
X7061970Y-14642040D01*
X7061970Y-14612040D02*
X7031970Y-14642040D01*
X7282490Y-14612040D02*
X7312490Y-14642040D01*
X7312490Y-14612040D02*
X7282490Y-14642040D01*
X7323550Y-16188840D02*
X7353550Y-16218840D01*
X7353550Y-16188840D02*
X7323550Y-16218840D01*
X7335940Y-14060890D02*
X7365940Y-14090890D01*
X7365940Y-14060890D02*
X7335940Y-14090890D01*
X7345480Y-14376830D02*
X7375480Y-14406830D01*
X7375480Y-14376830D02*
X7345480Y-14406830D01*
X7386360Y-13514830D02*
X7416360Y-13544830D01*
X7416360Y-13514830D02*
X7386360Y-13544830D01*
X7387120Y-13756890D02*
X7417120Y-13786890D01*
X7417120Y-13756890D02*
X7387120Y-13786890D01*
X7466070Y-14233170D02*
X7496070Y-14263170D01*
X7496070Y-14233170D02*
X7466070Y-14263170D01*
X7515190Y-13903000D02*
X7545190Y-13933000D01*
X7545190Y-13903000D02*
X7515190Y-13933000D01*
X7663560Y-13977590D02*
X7693560Y-14007590D01*
X7693560Y-13977590D02*
X7663560Y-14007590D01*
X7688060Y-14845320D02*
X7718060Y-14875320D01*
X7718060Y-14845320D02*
X7688060Y-14875320D01*
X7688060Y-15593590D02*
X7718060Y-15623590D01*
X7718060Y-15593590D02*
X7688060Y-15623590D01*
X7751740Y-13862600D02*
X7781740Y-13892600D01*
X7781740Y-13862600D02*
X7751740Y-13892600D01*
X8185000Y-13605000D02*
X8215000Y-13635000D01*
X8215000Y-13605000D02*
X8185000Y-13635000D01*
X8365000Y-14025000D02*
X8395000Y-14055000D01*
X8395000Y-14025000D02*
X8365000Y-14055000D01*
X8445000Y-14225000D02*
X8475000Y-14255000D01*
X8475000Y-14225000D02*
X8445000Y-14255000D01*
X8505000Y-14405000D02*
X8535000Y-14435000D01*
X8535000Y-14405000D02*
X8505000Y-14435000D01*
X8671720Y-13791470D02*
X8701720Y-13821470D01*
X8701720Y-13791470D02*
X8671720Y-13821470D01*
X8679090Y-15543170D02*
X8709090Y-15573170D01*
X8709090Y-15543170D02*
X8679090Y-15573170D01*
X8705000Y-14525000D02*
X8735000Y-14555000D01*
X8735000Y-14525000D02*
X8705000Y-14555000D01*
X8710520Y-14057470D02*
X8740520Y-14087470D01*
X8740520Y-14057470D02*
X8710520Y-14087470D01*
X8803830Y-14864630D02*
X8833830Y-14894630D01*
X8833830Y-14864630D02*
X8803830Y-14894630D01*
X8825000Y-13605000D02*
X8855000Y-13635000D01*
X8855000Y-13605000D02*
X8825000Y-13635000D01*
X9267640Y-16549020D02*
X9297640Y-16579020D01*
X9297640Y-16549020D02*
X9267640Y-16579020D01*
X9622110Y-14925690D02*
X9652110Y-14955690D01*
X9652110Y-14925690D02*
X9622110Y-14955690D01*
X9626540Y-15537180D02*
X9656540Y-15567180D01*
X9656540Y-15537180D02*
X9626540Y-15567180D01*
X9759580Y-14932760D02*
X9789580Y-14962760D01*
X9789580Y-14932760D02*
X9759580Y-14962760D01*
X9779810Y-15444570D02*
X9809810Y-15474570D01*
X9809810Y-15444570D02*
X9779810Y-15474570D01*
X9889070Y-16081130D02*
X9919070Y-16111130D01*
X9919070Y-16081130D02*
X9889070Y-16111130D01*
X9909450Y-15661080D02*
X9939450Y-15691080D01*
X9939450Y-15661080D02*
X9909450Y-15691080D01*
X9929360Y-16331370D02*
X9959360Y-16361370D01*
X9959360Y-16331370D02*
X9929360Y-16361370D01*
X10054160Y-16070800D02*
X10084160Y-16100800D01*
X10084160Y-16070800D02*
X10054160Y-16100800D01*
X11525000Y-14405000D02*
X11555000Y-14435000D01*
X11555000Y-14405000D02*
X11525000Y-14435000D01*
X11585000Y-14145000D02*
X11615000Y-14175000D01*
X11615000Y-14145000D02*
X11585000Y-14175000D01*
X11587960Y-15109330D02*
X11617960Y-15139330D01*
X11617960Y-15109330D02*
X11587960Y-15139330D01*
X12165000Y-16365000D02*
X12195000Y-16395000D01*
X12195000Y-16365000D02*
X12165000Y-16395000D01*
X6798000Y-13640000D02*
G75*
G02*
X6718000Y-13640000I-40000J0D01*
G01*
X6718000Y-13640000D02*
G75*
G02*
X6798000Y-13640000I40000J0D01*
G01*
X7224500Y-13981500D02*
G75*
G02*
X7144500Y-13981500I-40000J0D01*
G01*
X7144500Y-13981500D02*
G75*
G02*
X7224500Y-13981500I40000J0D01*
G01*
X7224500Y-14235500D02*
G75*
G02*
X7144500Y-14235500I-40000J0D01*
G01*
X7144500Y-14235500D02*
G75*
G02*
X7224500Y-14235500I40000J0D01*
G01*
X7224500Y-14489500D02*
G75*
G02*
X7144500Y-14489500I-40000J0D01*
G01*
X7144500Y-14489500D02*
G75*
G02*
X7224500Y-14489500I40000J0D01*
G01*
X7224500Y-14743500D02*
G75*
G02*
X7144500Y-14743500I-40000J0D01*
G01*
X7144500Y-14743500D02*
G75*
G02*
X7224500Y-14743500I40000J0D01*
G01*
X7224500Y-14997500D02*
G75*
G02*
X7144500Y-14997500I-40000J0D01*
G01*
X7144500Y-14997500D02*
G75*
G02*
X7224500Y-14997500I40000J0D01*
G01*
X7224500Y-15251500D02*
G75*
G02*
X7144500Y-15251500I-40000J0D01*
G01*
X7144500Y-15251500D02*
G75*
G02*
X7224500Y-15251500I40000J0D01*
G01*
X7224500Y-15505500D02*
G75*
G02*
X7144500Y-15505500I-40000J0D01*
G01*
X7144500Y-15505500D02*
G75*
G02*
X7224500Y-15505500I40000J0D01*
G01*
X7239000Y-15870000D02*
G75*
G02*
X7159000Y-15870000I-40000J0D01*
G01*
X7159000Y-15870000D02*
G75*
G02*
X7239000Y-15870000I40000J0D01*
G01*
X7239000Y-16100000D02*
G75*
G02*
X7159000Y-16100000I-40000J0D01*
G01*
X7159000Y-16100000D02*
G75*
G02*
X7239000Y-16100000I40000J0D01*
G01*
X7560000Y-13640000D02*
G75*
G02*
X7480000Y-13640000I-40000J0D01*
G01*
X7480000Y-13640000D02*
G75*
G02*
X7560000Y-13640000I40000J0D01*
G01*
X7920000Y-13660000D02*
G75*
G02*
X7840000Y-13660000I-40000J0D01*
G01*
X7840000Y-13660000D02*
G75*
G02*
X7920000Y-13660000I40000J0D01*
G01*
X7986500Y-13981500D02*
G75*
G02*
X7906500Y-13981500I-40000J0D01*
G01*
X7906500Y-13981500D02*
G75*
G02*
X7986500Y-13981500I40000J0D01*
G01*
X7986500Y-14235500D02*
G75*
G02*
X7906500Y-14235500I-40000J0D01*
G01*
X7906500Y-14235500D02*
G75*
G02*
X7986500Y-14235500I40000J0D01*
G01*
X7986500Y-14489500D02*
G75*
G02*
X7906500Y-14489500I-40000J0D01*
G01*
X7906500Y-14489500D02*
G75*
G02*
X7986500Y-14489500I40000J0D01*
G01*
X7986500Y-14743500D02*
G75*
G02*
X7906500Y-14743500I-40000J0D01*
G01*
X7906500Y-14743500D02*
G75*
G02*
X7986500Y-14743500I40000J0D01*
G01*
X7986500Y-14997500D02*
G75*
G02*
X7906500Y-14997500I-40000J0D01*
G01*
X7906500Y-14997500D02*
G75*
G02*
X7986500Y-14997500I40000J0D01*
G01*
X7986500Y-15251500D02*
G75*
G02*
X7906500Y-15251500I-40000J0D01*
G01*
X7906500Y-15251500D02*
G75*
G02*
X7986500Y-15251500I40000J0D01*
G01*
X7986500Y-15505500D02*
G75*
G02*
X7906500Y-15505500I-40000J0D01*
G01*
X7906500Y-15505500D02*
G75*
G02*
X7986500Y-15505500I40000J0D01*
G01*
X8001000Y-15870000D02*
G75*
G02*
X7921000Y-15870000I-40000J0D01*
G01*
X7921000Y-15870000D02*
G75*
G02*
X8001000Y-15870000I40000J0D01*
G01*
X8001000Y-16100000D02*
G75*
G02*
X7921000Y-16100000I-40000J0D01*
G01*
X7921000Y-16100000D02*
G75*
G02*
X8001000Y-16100000I40000J0D01*
G01*
X8216500Y-13986000D02*
G75*
G02*
X8136500Y-13986000I-40000J0D01*
G01*
X8136500Y-13986000D02*
G75*
G02*
X8216500Y-13986000I40000J0D01*
G01*
X8216500Y-14240000D02*
G75*
G02*
X8136500Y-14240000I-40000J0D01*
G01*
X8136500Y-14240000D02*
G75*
G02*
X8216500Y-14240000I40000J0D01*
G01*
X8216500Y-14494000D02*
G75*
G02*
X8136500Y-14494000I-40000J0D01*
G01*
X8136500Y-14494000D02*
G75*
G02*
X8216500Y-14494000I40000J0D01*
G01*
X8216500Y-14748000D02*
G75*
G02*
X8136500Y-14748000I-40000J0D01*
G01*
X8136500Y-14748000D02*
G75*
G02*
X8216500Y-14748000I40000J0D01*
G01*
X8216500Y-15002000D02*
G75*
G02*
X8136500Y-15002000I-40000J0D01*
G01*
X8136500Y-15002000D02*
G75*
G02*
X8216500Y-15002000I40000J0D01*
G01*
X8216500Y-15256000D02*
G75*
G02*
X8136500Y-15256000I-40000J0D01*
G01*
X8136500Y-15256000D02*
G75*
G02*
X8216500Y-15256000I40000J0D01*
G01*
X8216500Y-15510000D02*
G75*
G02*
X8136500Y-15510000I-40000J0D01*
G01*
X8136500Y-15510000D02*
G75*
G02*
X8216500Y-15510000I40000J0D01*
G01*
X8682000Y-13660000D02*
G75*
G02*
X8602000Y-13660000I-40000J0D01*
G01*
X8602000Y-13660000D02*
G75*
G02*
X8682000Y-13660000I40000J0D01*
G01*
X8978500Y-13986000D02*
G75*
G02*
X8898500Y-13986000I-40000J0D01*
G01*
X8898500Y-13986000D02*
G75*
G02*
X8978500Y-13986000I40000J0D01*
G01*
X8978500Y-14240000D02*
G75*
G02*
X8898500Y-14240000I-40000J0D01*
G01*
X8898500Y-14240000D02*
G75*
G02*
X8978500Y-14240000I40000J0D01*
G01*
X8978500Y-14494000D02*
G75*
G02*
X8898500Y-14494000I-40000J0D01*
G01*
X8898500Y-14494000D02*
G75*
G02*
X8978500Y-14494000I40000J0D01*
G01*
X8978500Y-14748000D02*
G75*
G02*
X8898500Y-14748000I-40000J0D01*
G01*
X8898500Y-14748000D02*
G75*
G02*
X8978500Y-14748000I40000J0D01*
G01*
X8978500Y-15002000D02*
G75*
G02*
X8898500Y-15002000I-40000J0D01*
G01*
X8898500Y-15002000D02*
G75*
G02*
X8978500Y-15002000I40000J0D01*
G01*
X8978500Y-15256000D02*
G75*
G02*
X8898500Y-15256000I-40000J0D01*
G01*
X8898500Y-15256000D02*
G75*
G02*
X8978500Y-15256000I40000J0D01*
G01*
X8978500Y-15510000D02*
G75*
G02*
X8898500Y-15510000I-40000J0D01*
G01*
X8898500Y-15510000D02*
G75*
G02*
X8978500Y-15510000I40000J0D01*
G01*
X9207500Y-15112500D02*
G75*
G02*
X9127500Y-15112500I-40000J0D01*
G01*
X9127500Y-15112500D02*
G75*
G02*
X9207500Y-15112500I40000J0D01*
G01*
X9208500Y-15412500D02*
G75*
G02*
X9128500Y-15412500I-40000J0D01*
G01*
X9128500Y-15412500D02*
G75*
G02*
X9208500Y-15412500I40000J0D01*
G01*
X9496500Y-15734500D02*
G75*
G02*
X9416500Y-15734500I-40000J0D01*
G01*
X9416500Y-15734500D02*
G75*
G02*
X9496500Y-15734500I40000J0D01*
G01*
X9496500Y-16496500D02*
G75*
G02*
X9416500Y-16496500I-40000J0D01*
G01*
X9416500Y-16496500D02*
G75*
G02*
X9496500Y-16496500I40000J0D01*
G01*
X9553510Y-13588500D02*
G75*
G02*
X9473510Y-13588500I-40000J0D01*
G01*
X9473510Y-13588500D02*
G75*
G02*
X9553510Y-13588500I40000J0D01*
G01*
X9800000Y-15680000D02*
G75*
G02*
X9720000Y-15680000I-40000J0D01*
G01*
X9720000Y-15680000D02*
G75*
G02*
X9800000Y-15680000I40000J0D01*
G01*
X9800000Y-16442000D02*
G75*
G02*
X9720000Y-16442000I-40000J0D01*
G01*
X9720000Y-16442000D02*
G75*
G02*
X9800000Y-16442000I40000J0D01*
G01*
X9803510Y-13588500D02*
G75*
G02*
X9723510Y-13588500I-40000J0D01*
G01*
X9723510Y-13588500D02*
G75*
G02*
X9803510Y-13588500I40000J0D01*
G01*
X9969500Y-15112500D02*
G75*
G02*
X9889500Y-15112500I-40000J0D01*
G01*
X9889500Y-15112500D02*
G75*
G02*
X9969500Y-15112500I40000J0D01*
G01*
X9970500Y-15412500D02*
G75*
G02*
X9890500Y-15412500I-40000J0D01*
G01*
X9890500Y-15412500D02*
G75*
G02*
X9970500Y-15412500I40000J0D01*
G01*
X10228500Y-15216500D02*
G75*
G02*
X10148500Y-15216500I-40000J0D01*
G01*
X10148500Y-15216500D02*
G75*
G02*
X10228500Y-15216500I40000J0D01*
G01*
X10228500Y-15978500D02*
G75*
G02*
X10148500Y-15978500I-40000J0D01*
G01*
X10148500Y-15978500D02*
G75*
G02*
X10228500Y-15978500I40000J0D01*
G01*
X10233500Y-14231500D02*
G75*
G02*
X10153500Y-14231500I-40000J0D01*
G01*
X10153500Y-14231500D02*
G75*
G02*
X10233500Y-14231500I40000J0D01*
G01*
X10233500Y-14993500D02*
G75*
G02*
X10153500Y-14993500I-40000J0D01*
G01*
X10153500Y-14993500D02*
G75*
G02*
X10233500Y-14993500I40000J0D01*
G01*
X10560000Y-15179500D02*
G75*
G02*
X10480000Y-15179500I-40000J0D01*
G01*
X10480000Y-15179500D02*
G75*
G02*
X10560000Y-15179500I40000J0D01*
G01*
X10560000Y-15941500D02*
G75*
G02*
X10480000Y-15941500I-40000J0D01*
G01*
X10480000Y-15941500D02*
G75*
G02*
X10560000Y-15941500I40000J0D01*
G01*
X10570000Y-14181500D02*
G75*
G02*
X10490000Y-14181500I-40000J0D01*
G01*
X10490000Y-14181500D02*
G75*
G02*
X10570000Y-14181500I40000J0D01*
G01*
X10570000Y-14943500D02*
G75*
G02*
X10490000Y-14943500I-40000J0D01*
G01*
X10490000Y-14943500D02*
G75*
G02*
X10570000Y-14943500I40000J0D01*
G01*
X10750000Y-15439990D02*
G75*
G02*
X10670000Y-15439990I-40000J0D01*
G01*
X10670000Y-15439990D02*
G75*
G02*
X10750000Y-15439990I40000J0D01*
G01*
X10750000Y-15689990D02*
G75*
G02*
X10670000Y-15689990I-40000J0D01*
G01*
X10670000Y-15689990D02*
G75*
G02*
X10750000Y-15689990I40000J0D01*
G01*
X10770000Y-14462010D02*
G75*
G02*
X10690000Y-14462010I-40000J0D01*
G01*
X10690000Y-14462010D02*
G75*
G02*
X10770000Y-14462010I40000J0D01*
G01*
X10770000Y-14712010D02*
G75*
G02*
X10690000Y-14712010I-40000J0D01*
G01*
X10690000Y-14712010D02*
G75*
G02*
X10770000Y-14712010I40000J0D01*
G01*
X10831000Y-13588500D02*
G75*
G02*
X10751000Y-13588500I-40000J0D01*
G01*
X10751000Y-13588500D02*
G75*
G02*
X10831000Y-13588500I40000J0D01*
G01*
X10960000Y-14078500D02*
G75*
G02*
X10880000Y-14078500I-40000J0D01*
G01*
X10880000Y-14078500D02*
G75*
G02*
X10960000Y-14078500I40000J0D01*
G01*
X10960000Y-14840500D02*
G75*
G02*
X10880000Y-14840500I-40000J0D01*
G01*
X10880000Y-14840500D02*
G75*
G02*
X10960000Y-14840500I40000J0D01*
G01*
X10960000Y-15078500D02*
G75*
G02*
X10880000Y-15078500I-40000J0D01*
G01*
X10880000Y-15078500D02*
G75*
G02*
X10960000Y-15078500I40000J0D01*
G01*
X10960000Y-15840500D02*
G75*
G02*
X10880000Y-15840500I-40000J0D01*
G01*
X10880000Y-15840500D02*
G75*
G02*
X10960000Y-15840500I40000J0D01*
G01*
X11081000Y-13588500D02*
G75*
G02*
X11001000Y-13588500I-40000J0D01*
G01*
X11001000Y-13588500D02*
G75*
G02*
X11081000Y-13588500I40000J0D01*
G01*
X11158000Y-14440000D02*
G75*
G02*
X11078000Y-14440000I-40000J0D01*
G01*
X11078000Y-14440000D02*
G75*
G02*
X11158000Y-14440000I40000J0D01*
G01*
X11197000Y-15820000D02*
G75*
G02*
X11117000Y-15820000I-40000J0D01*
G01*
X11117000Y-15820000D02*
G75*
G02*
X11197000Y-15820000I40000J0D01*
G01*
X11199000Y-14140000D02*
G75*
G02*
X11119000Y-14140000I-40000J0D01*
G01*
X11119000Y-14140000D02*
G75*
G02*
X11199000Y-14140000I40000J0D01*
G01*
X11220000Y-16160000D02*
G75*
G02*
X11140000Y-16160000I-40000J0D01*
G01*
X11140000Y-16160000D02*
G75*
G02*
X11220000Y-16160000I40000J0D01*
G01*
X11920000Y-14440000D02*
G75*
G02*
X11840000Y-14440000I-40000J0D01*
G01*
X11840000Y-14440000D02*
G75*
G02*
X11920000Y-14440000I40000J0D01*
G01*
X11959000Y-15820000D02*
G75*
G02*
X11879000Y-15820000I-40000J0D01*
G01*
X11879000Y-15820000D02*
G75*
G02*
X11959000Y-15820000I40000J0D01*
G01*
X11961000Y-14140000D02*
G75*
G02*
X11881000Y-14140000I-40000J0D01*
G01*
X11881000Y-14140000D02*
G75*
G02*
X11961000Y-14140000I40000J0D01*
G01*
X11982000Y-16160000D02*
G75*
G02*
X11902000Y-16160000I-40000J0D01*
G01*
X11902000Y-16160000D02*
G75*
G02*
X11982000Y-16160000I40000J0D01*
G01*
X8318000Y-15741860D02*
X8318000Y-15823140D01*
X8277360Y-15782500D02*
X8358640Y-15782500D01*
X8318000Y-16503860D02*
X8318000Y-16585140D01*
X8277360Y-16544500D02*
X8358640Y-16544500D01*
X8572000Y-15741860D02*
X8572000Y-15823140D01*
X8531360Y-15782500D02*
X8612640Y-15782500D01*
X8572000Y-16503860D02*
X8572000Y-16585140D01*
X8531360Y-16544500D02*
X8612640Y-16544500D01*
X8826000Y-15741860D02*
X8826000Y-15823140D01*
X8785360Y-15782500D02*
X8866640Y-15782500D01*
X8826000Y-16503860D02*
X8826000Y-16585140D01*
X8785360Y-16544500D02*
X8866640Y-16544500D01*
X9080000Y-15741860D02*
X9080000Y-15823140D01*
X9039360Y-15782500D02*
X9120640Y-15782500D01*
X9080000Y-16503860D02*
X9080000Y-16585140D01*
X9039360Y-16544500D02*
X9120640Y-16544500D01*
X9178000Y-13997860D02*
X9178000Y-14079140D01*
X9137360Y-14038500D02*
X9218640Y-14038500D01*
X9178000Y-14251860D02*
X9178000Y-14333140D01*
X9137360Y-14292500D02*
X9218640Y-14292500D01*
X9178000Y-14505860D02*
X9178000Y-14587140D01*
X9137360Y-14546500D02*
X9218640Y-14546500D01*
X9178000Y-14759860D02*
X9178000Y-14841140D01*
X9137360Y-14800500D02*
X9218640Y-14800500D01*
X9940000Y-13997860D02*
X9940000Y-14079140D01*
X9899360Y-14038500D02*
X9980640Y-14038500D01*
X9940000Y-14251860D02*
X9940000Y-14333140D01*
X9899360Y-14292500D02*
X9980640Y-14292500D01*
X9940000Y-14505860D02*
X9940000Y-14587140D01*
X9899360Y-14546500D02*
X9980640Y-14546500D01*
X9940000Y-14759860D02*
X9940000Y-14841140D01*
X9899360Y-14800500D02*
X9980640Y-14800500D01*
X11155500Y-14713100D02*
X11155500Y-14794380D01*
X11114860Y-14753740D02*
X11196140Y-14753740D01*
X11155500Y-14967100D02*
X11155500Y-15048380D01*
X11114860Y-15007740D02*
X11196140Y-15007740D01*
X11155500Y-15221100D02*
X11155500Y-15302380D01*
X11114860Y-15261740D02*
X11196140Y-15261740D01*
X11155500Y-15475100D02*
X11155500Y-15556380D01*
X11114860Y-15515740D02*
X11196140Y-15515740D01*
X11917500Y-14713100D02*
X11917500Y-14794380D01*
X11876860Y-14753740D02*
X11958140Y-14753740D01*
X11917500Y-14967100D02*
X11917500Y-15048380D01*
X11876860Y-15007740D02*
X11958140Y-15007740D01*
X11917500Y-15221100D02*
X11917500Y-15302380D01*
X11876860Y-15261740D02*
X11958140Y-15261740D01*
X11917500Y-15475100D02*
X11917500Y-15556380D01*
X11876860Y-15515740D02*
X11958140Y-15515740D01*
X6675356Y-14019356D02*
X6675356Y-13948644D01*
X6604644Y-13948644D01*
X6604644Y-14019356D01*
X6675356Y-14019356D01*
X6675356Y-14273356D02*
X6675356Y-14202644D01*
X6604644Y-14202644D01*
X6604644Y-14273356D01*
X6675356Y-14273356D01*
X6675356Y-14527356D02*
X6675356Y-14456644D01*
X6604644Y-14456644D01*
X6604644Y-14527356D01*
X6675356Y-14527356D01*
X6675356Y-14781356D02*
X6675356Y-14710644D01*
X6604644Y-14710644D01*
X6604644Y-14781356D01*
X6675356Y-14781356D01*
X6675356Y-15035356D02*
X6675356Y-14964644D01*
X6604644Y-14964644D01*
X6604644Y-15035356D01*
X6675356Y-15035356D01*
X6675356Y-15289356D02*
X6675356Y-15218644D01*
X6604644Y-15218644D01*
X6604644Y-15289356D01*
X6675356Y-15289356D01*
X6675356Y-15543356D02*
X6675356Y-15472644D01*
X6604644Y-15472644D01*
X6604644Y-15543356D01*
X6675356Y-15543356D01*
X6675356Y-15797356D02*
X6675356Y-15726644D01*
X6604644Y-15726644D01*
X6604644Y-15797356D01*
X6675356Y-15797356D01*
X6675356Y-16051356D02*
X6675356Y-15980644D01*
X6604644Y-15980644D01*
X6604644Y-16051356D01*
X6675356Y-16051356D01*
X6685356Y-13335356D02*
X6685356Y-13264644D01*
X6614644Y-13264644D01*
X6614644Y-13335356D01*
X6685356Y-13335356D01*
X6700356Y-16555356D02*
X6700356Y-16484644D01*
X6629644Y-16484644D01*
X6629644Y-16555356D01*
X6700356Y-16555356D01*
X6929356Y-14019356D02*
X6929356Y-13948644D01*
X6858644Y-13948644D01*
X6858644Y-14019356D01*
X6929356Y-14019356D01*
X6929356Y-14273356D02*
X6929356Y-14202644D01*
X6858644Y-14202644D01*
X6858644Y-14273356D01*
X6929356Y-14273356D01*
X6929356Y-14527356D02*
X6929356Y-14456644D01*
X6858644Y-14456644D01*
X6858644Y-14527356D01*
X6929356Y-14527356D01*
X6929356Y-14781356D02*
X6929356Y-14710644D01*
X6858644Y-14710644D01*
X6858644Y-14781356D01*
X6929356Y-14781356D01*
X6929356Y-15035356D02*
X6929356Y-14964644D01*
X6858644Y-14964644D01*
X6858644Y-15035356D01*
X6929356Y-15035356D01*
X6929356Y-15289356D02*
X6929356Y-15218644D01*
X6858644Y-15218644D01*
X6858644Y-15289356D01*
X6929356Y-15289356D01*
X6929356Y-15543356D02*
X6929356Y-15472644D01*
X6858644Y-15472644D01*
X6858644Y-15543356D01*
X6929356Y-15543356D01*
X6929356Y-15797356D02*
X6929356Y-15726644D01*
X6858644Y-15726644D01*
X6858644Y-15797356D01*
X6929356Y-15797356D01*
X6929356Y-16051356D02*
X6929356Y-15980644D01*
X6858644Y-15980644D01*
X6858644Y-16051356D01*
X6929356Y-16051356D01*
X6939356Y-13335356D02*
X6939356Y-13264644D01*
X6868644Y-13264644D01*
X6868644Y-13335356D01*
X6939356Y-13335356D01*
X6954356Y-16555356D02*
X6954356Y-16484644D01*
X6883644Y-16484644D01*
X6883644Y-16555356D01*
X6954356Y-16555356D01*
X7193356Y-13335356D02*
X7193356Y-13264644D01*
X7122644Y-13264644D01*
X7122644Y-13335356D01*
X7193356Y-13335356D01*
X7208356Y-16555356D02*
X7208356Y-16484644D01*
X7137644Y-16484644D01*
X7137644Y-16555356D01*
X7208356Y-16555356D01*
X7447356Y-13335356D02*
X7447356Y-13264644D01*
X7376644Y-13264644D01*
X7376644Y-13335356D01*
X7447356Y-13335356D01*
X7462356Y-16555356D02*
X7462356Y-16484644D01*
X7391644Y-16484644D01*
X7391644Y-16555356D01*
X7462356Y-16555356D01*
X7701356Y-13335356D02*
X7701356Y-13264644D01*
X7630644Y-13264644D01*
X7630644Y-13335356D01*
X7701356Y-13335356D01*
X7716356Y-16555356D02*
X7716356Y-16484644D01*
X7645644Y-16484644D01*
X7645644Y-16555356D01*
X7716356Y-16555356D01*
X7955356Y-13335356D02*
X7955356Y-13264644D01*
X7884644Y-13264644D01*
X7884644Y-13335356D01*
X7955356Y-13335356D01*
X7970356Y-16555356D02*
X7970356Y-16484644D01*
X7899644Y-16484644D01*
X7899644Y-16555356D01*
X7970356Y-16555356D01*
X10202856Y-16455356D02*
X10202856Y-16384644D01*
X10132144Y-16384644D01*
X10132144Y-16455356D01*
X10202856Y-16455356D01*
X10456856Y-16455356D02*
X10456856Y-16384644D01*
X10386144Y-16384644D01*
X10386144Y-16455356D01*
X10456856Y-16455356D01*
X10710856Y-16455356D02*
X10710856Y-16384644D01*
X10640144Y-16384644D01*
X10640144Y-16455356D01*
X10710856Y-16455356D01*
X11161356Y-16455356D02*
X11161356Y-16384644D01*
X11090644Y-16384644D01*
X11090644Y-16455356D01*
X11161356Y-16455356D01*
X11415356Y-16455356D02*
X11415356Y-16384644D01*
X11344644Y-16384644D01*
X11344644Y-16455356D01*
X11415356Y-16455356D01*
X11669356Y-16455356D02*
X11669356Y-16384644D01*
X11598644Y-16384644D01*
X11598644Y-16455356D01*
X11669356Y-16455356D01*
X12315356Y-14987856D02*
X12315356Y-14917144D01*
X12244644Y-14917144D01*
X12244644Y-14987856D01*
X12315356Y-14987856D01*
X12315356Y-15241856D02*
X12315356Y-15171144D01*
X12244644Y-15171144D01*
X12244644Y-15241856D01*
X12315356Y-15241856D01*
D13*
X9105000Y-13423500D02*
X9160000Y-13368500D01*
X9105000Y-13313500D01*
X9050000Y-13368500D01*
X9105000Y-13423500D01*
X9115000Y-13843500D02*
X9170000Y-13788500D01*
X9115000Y-13733500D01*
X9060000Y-13788500D01*
X9115000Y-13843500D01*
X10121000Y-13423500D02*
X10176000Y-13368500D01*
X10121000Y-13313500D01*
X10066000Y-13368500D01*
X10121000Y-13423500D01*
X10131000Y-13843500D02*
X10186000Y-13788500D01*
X10131000Y-13733500D01*
X10076000Y-13788500D01*
X10131000Y-13843500D01*
X10405490Y-13421800D02*
X10460490Y-13366800D01*
X10405490Y-13311800D01*
X10350490Y-13366800D01*
X10405490Y-13421800D01*
X10405490Y-13853500D02*
X10460490Y-13798500D01*
X10405490Y-13743500D01*
X10350490Y-13798500D01*
X10405490Y-13853500D01*
X11421490Y-13421800D02*
X11476490Y-13366800D01*
X11421490Y-13311800D01*
X11366490Y-13366800D01*
X11421490Y-13421800D01*
X11421490Y-13853500D02*
X11476490Y-13798500D01*
X11421490Y-13743500D01*
X11366490Y-13798500D01*
X11421490Y-13853500D01*
D11*
X6713277Y-16978984D02*
X6713277Y-16778984D01*
X6713277Y-16778984D02*
X6760896Y-16778984D01*
X6760896Y-16778984D02*
X6789467Y-16788508D01*
X6789467Y-16788508D02*
X6808515Y-16807555D01*
X6808515Y-16807555D02*
X6818039Y-16826603D01*
X6818039Y-16826603D02*
X6827562Y-16864698D01*
X6827562Y-16864698D02*
X6827562Y-16893270D01*
X6827562Y-16893270D02*
X6818039Y-16931365D01*
X6818039Y-16931365D02*
X6808515Y-16950412D01*
X6808515Y-16950412D02*
X6789467Y-16969460D01*
X6789467Y-16969460D02*
X6760896Y-16978984D01*
X6760896Y-16978984D02*
X6713277Y-16978984D01*
X6913277Y-16978984D02*
X6913277Y-16845650D01*
X6913277Y-16883746D02*
X6922801Y-16864698D01*
X6922801Y-16864698D02*
X6932324Y-16855174D01*
X6932324Y-16855174D02*
X6951372Y-16845650D01*
X6951372Y-16845650D02*
X6970420Y-16845650D01*
X7037086Y-16978984D02*
X7037086Y-16845650D01*
X7037086Y-16778984D02*
X7027562Y-16788508D01*
X7027562Y-16788508D02*
X7037086Y-16798031D01*
X7037086Y-16798031D02*
X7046610Y-16788508D01*
X7046610Y-16788508D02*
X7037086Y-16778984D01*
X7037086Y-16778984D02*
X7037086Y-16798031D01*
X7160896Y-16978984D02*
X7141848Y-16969460D01*
X7141848Y-16969460D02*
X7132324Y-16950412D01*
X7132324Y-16950412D02*
X7132324Y-16778984D01*
X7265658Y-16978984D02*
X7246610Y-16969460D01*
X7246610Y-16969460D02*
X7237086Y-16950412D01*
X7237086Y-16950412D02*
X7237086Y-16778984D01*
X7494229Y-16978984D02*
X7494229Y-16778984D01*
X7494229Y-16778984D02*
X7560896Y-16921841D01*
X7560896Y-16921841D02*
X7627562Y-16778984D01*
X7627562Y-16778984D02*
X7627562Y-16978984D01*
X7808515Y-16978984D02*
X7808515Y-16874222D01*
X7808515Y-16874222D02*
X7798991Y-16855174D01*
X7798991Y-16855174D02*
X7779943Y-16845650D01*
X7779943Y-16845650D02*
X7741848Y-16845650D01*
X7741848Y-16845650D02*
X7722801Y-16855174D01*
X7808515Y-16969460D02*
X7789467Y-16978984D01*
X7789467Y-16978984D02*
X7741848Y-16978984D01*
X7741848Y-16978984D02*
X7722801Y-16969460D01*
X7722801Y-16969460D02*
X7713277Y-16950412D01*
X7713277Y-16950412D02*
X7713277Y-16931365D01*
X7713277Y-16931365D02*
X7722801Y-16912317D01*
X7722801Y-16912317D02*
X7741848Y-16902793D01*
X7741848Y-16902793D02*
X7789467Y-16902793D01*
X7789467Y-16902793D02*
X7808515Y-16893270D01*
X7903753Y-16845650D02*
X7903753Y-17045650D01*
X7903753Y-16855174D02*
X7922801Y-16845650D01*
X7922801Y-16845650D02*
X7960896Y-16845650D01*
X7960896Y-16845650D02*
X7979943Y-16855174D01*
X7979943Y-16855174D02*
X7989467Y-16864698D01*
X7989467Y-16864698D02*
X7998991Y-16883746D01*
X7998991Y-16883746D02*
X7998991Y-16940889D01*
X7998991Y-16940889D02*
X7989467Y-16959936D01*
X7989467Y-16959936D02*
X7979943Y-16969460D01*
X7979943Y-16969460D02*
X7960896Y-16978984D01*
X7960896Y-16978984D02*
X7922801Y-16978984D01*
X7922801Y-16978984D02*
X7903753Y-16969460D01*
X8084705Y-16959936D02*
X8094229Y-16969460D01*
X8094229Y-16969460D02*
X8084705Y-16978984D01*
X8084705Y-16978984D02*
X8075182Y-16969460D01*
X8075182Y-16969460D02*
X8084705Y-16959936D01*
X8084705Y-16959936D02*
X8084705Y-16978984D01*
X8084705Y-16855174D02*
X8094229Y-16864698D01*
X8094229Y-16864698D02*
X8084705Y-16874222D01*
X8084705Y-16874222D02*
X8075182Y-16864698D01*
X8075182Y-16864698D02*
X8084705Y-16855174D01*
X8084705Y-16855174D02*
X8084705Y-16874222D01*
D12*
X6422500Y-17292500D02*
X6452500Y-17322500D01*
X6452500Y-17292500D02*
X6422500Y-17322500D01*
D11*
X6751372Y-17198984D02*
X6770420Y-17198984D01*
X6770420Y-17198984D02*
X6789467Y-17208508D01*
X6789467Y-17208508D02*
X6798991Y-17218031D01*
X6798991Y-17218031D02*
X6808515Y-17237079D01*
X6808515Y-17237079D02*
X6818039Y-17275174D01*
X6818039Y-17275174D02*
X6818039Y-17322793D01*
X6818039Y-17322793D02*
X6808515Y-17360889D01*
X6808515Y-17360889D02*
X6798991Y-17379936D01*
X6798991Y-17379936D02*
X6789467Y-17389460D01*
X6789467Y-17389460D02*
X6770420Y-17398984D01*
X6770420Y-17398984D02*
X6751372Y-17398984D01*
X6751372Y-17398984D02*
X6732324Y-17389460D01*
X6732324Y-17389460D02*
X6722801Y-17379936D01*
X6722801Y-17379936D02*
X6713277Y-17360889D01*
X6713277Y-17360889D02*
X6703753Y-17322793D01*
X6703753Y-17322793D02*
X6703753Y-17275174D01*
X6703753Y-17275174D02*
X6713277Y-17237079D01*
X6713277Y-17237079D02*
X6722801Y-17218031D01*
X6722801Y-17218031D02*
X6732324Y-17208508D01*
X6732324Y-17208508D02*
X6751372Y-17198984D01*
X6903753Y-17379936D02*
X6913277Y-17389460D01*
X6913277Y-17389460D02*
X6903753Y-17398984D01*
X6903753Y-17398984D02*
X6894229Y-17389460D01*
X6894229Y-17389460D02*
X6903753Y-17379936D01*
X6903753Y-17379936D02*
X6903753Y-17398984D01*
X6979943Y-17198984D02*
X7103753Y-17198984D01*
X7103753Y-17198984D02*
X7037086Y-17275174D01*
X7037086Y-17275174D02*
X7065658Y-17275174D01*
X7065658Y-17275174D02*
X7084705Y-17284698D01*
X7084705Y-17284698D02*
X7094229Y-17294222D01*
X7094229Y-17294222D02*
X7103753Y-17313270D01*
X7103753Y-17313270D02*
X7103753Y-17360889D01*
X7103753Y-17360889D02*
X7094229Y-17379936D01*
X7094229Y-17379936D02*
X7084705Y-17389460D01*
X7084705Y-17389460D02*
X7065658Y-17398984D01*
X7065658Y-17398984D02*
X7008515Y-17398984D01*
X7008515Y-17398984D02*
X6989467Y-17389460D01*
X6989467Y-17389460D02*
X6979943Y-17379936D01*
X7227562Y-17198984D02*
X7246610Y-17198984D01*
X7246610Y-17198984D02*
X7265658Y-17208508D01*
X7265658Y-17208508D02*
X7275182Y-17218031D01*
X7275182Y-17218031D02*
X7284705Y-17237079D01*
X7284705Y-17237079D02*
X7294229Y-17275174D01*
X7294229Y-17275174D02*
X7294229Y-17322793D01*
X7294229Y-17322793D02*
X7284705Y-17360889D01*
X7284705Y-17360889D02*
X7275182Y-17379936D01*
X7275182Y-17379936D02*
X7265658Y-17389460D01*
X7265658Y-17389460D02*
X7246610Y-17398984D01*
X7246610Y-17398984D02*
X7227562Y-17398984D01*
X7227562Y-17398984D02*
X7208515Y-17389460D01*
X7208515Y-17389460D02*
X7198991Y-17379936D01*
X7198991Y-17379936D02*
X7189467Y-17360889D01*
X7189467Y-17360889D02*
X7179943Y-17322793D01*
X7179943Y-17322793D02*
X7179943Y-17275174D01*
X7179943Y-17275174D02*
X7189467Y-17237079D01*
X7189467Y-17237079D02*
X7198991Y-17218031D01*
X7198991Y-17218031D02*
X7208515Y-17208508D01*
X7208515Y-17208508D02*
X7227562Y-17198984D01*
X7418039Y-17198984D02*
X7437086Y-17198984D01*
X7437086Y-17198984D02*
X7456134Y-17208508D01*
X7456134Y-17208508D02*
X7465658Y-17218031D01*
X7465658Y-17218031D02*
X7475182Y-17237079D01*
X7475182Y-17237079D02*
X7484705Y-17275174D01*
X7484705Y-17275174D02*
X7484705Y-17322793D01*
X7484705Y-17322793D02*
X7475182Y-17360889D01*
X7475182Y-17360889D02*
X7465658Y-17379936D01*
X7465658Y-17379936D02*
X7456134Y-17389460D01*
X7456134Y-17389460D02*
X7437086Y-17398984D01*
X7437086Y-17398984D02*
X7418039Y-17398984D01*
X7418039Y-17398984D02*
X7398991Y-17389460D01*
X7398991Y-17389460D02*
X7389467Y-17379936D01*
X7389467Y-17379936D02*
X7379943Y-17360889D01*
X7379943Y-17360889D02*
X7370420Y-17322793D01*
X7370420Y-17322793D02*
X7370420Y-17275174D01*
X7370420Y-17275174D02*
X7379943Y-17237079D01*
X7379943Y-17237079D02*
X7389467Y-17218031D01*
X7389467Y-17218031D02*
X7398991Y-17208508D01*
X7398991Y-17208508D02*
X7418039Y-17198984D01*
X7570420Y-17398984D02*
X7570420Y-17265650D01*
X7570420Y-17284698D02*
X7579943Y-17275174D01*
X7579943Y-17275174D02*
X7598991Y-17265650D01*
X7598991Y-17265650D02*
X7627563Y-17265650D01*
X7627563Y-17265650D02*
X7646610Y-17275174D01*
X7646610Y-17275174D02*
X7656134Y-17294222D01*
X7656134Y-17294222D02*
X7656134Y-17398984D01*
X7656134Y-17294222D02*
X7665658Y-17275174D01*
X7665658Y-17275174D02*
X7684705Y-17265650D01*
X7684705Y-17265650D02*
X7713277Y-17265650D01*
X7713277Y-17265650D02*
X7732324Y-17275174D01*
X7732324Y-17275174D02*
X7741848Y-17294222D01*
X7741848Y-17294222D02*
X7741848Y-17398984D01*
X7837086Y-17398984D02*
X7837086Y-17265650D01*
X7837086Y-17284698D02*
X7846610Y-17275174D01*
X7846610Y-17275174D02*
X7865658Y-17265650D01*
X7865658Y-17265650D02*
X7894229Y-17265650D01*
X7894229Y-17265650D02*
X7913277Y-17275174D01*
X7913277Y-17275174D02*
X7922801Y-17294222D01*
X7922801Y-17294222D02*
X7922801Y-17398984D01*
X7922801Y-17294222D02*
X7932324Y-17275174D01*
X7932324Y-17275174D02*
X7951372Y-17265650D01*
X7951372Y-17265650D02*
X7979943Y-17265650D01*
X7979943Y-17265650D02*
X7998991Y-17275174D01*
X7998991Y-17275174D02*
X8008515Y-17294222D01*
X8008515Y-17294222D02*
X8008515Y-17398984D01*
X8398991Y-17189460D02*
X8227563Y-17446603D01*
X8656134Y-17198984D02*
X8675182Y-17198984D01*
X8675182Y-17198984D02*
X8694229Y-17208508D01*
X8694229Y-17208508D02*
X8703753Y-17218031D01*
X8703753Y-17218031D02*
X8713277Y-17237079D01*
X8713277Y-17237079D02*
X8722801Y-17275174D01*
X8722801Y-17275174D02*
X8722801Y-17322793D01*
X8722801Y-17322793D02*
X8713277Y-17360889D01*
X8713277Y-17360889D02*
X8703753Y-17379936D01*
X8703753Y-17379936D02*
X8694229Y-17389460D01*
X8694229Y-17389460D02*
X8675182Y-17398984D01*
X8675182Y-17398984D02*
X8656134Y-17398984D01*
X8656134Y-17398984D02*
X8637087Y-17389460D01*
X8637087Y-17389460D02*
X8627563Y-17379936D01*
X8627563Y-17379936D02*
X8618039Y-17360889D01*
X8618039Y-17360889D02*
X8608515Y-17322793D01*
X8608515Y-17322793D02*
X8608515Y-17275174D01*
X8608515Y-17275174D02*
X8618039Y-17237079D01*
X8618039Y-17237079D02*
X8627563Y-17218031D01*
X8627563Y-17218031D02*
X8637087Y-17208508D01*
X8637087Y-17208508D02*
X8656134Y-17198984D01*
X8808515Y-17379936D02*
X8818039Y-17389460D01*
X8818039Y-17389460D02*
X8808515Y-17398984D01*
X8808515Y-17398984D02*
X8798991Y-17389460D01*
X8798991Y-17389460D02*
X8808515Y-17379936D01*
X8808515Y-17379936D02*
X8808515Y-17398984D01*
X8941848Y-17198984D02*
X8960896Y-17198984D01*
X8960896Y-17198984D02*
X8979944Y-17208508D01*
X8979944Y-17208508D02*
X8989468Y-17218031D01*
X8989468Y-17218031D02*
X8998991Y-17237079D01*
X8998991Y-17237079D02*
X9008515Y-17275174D01*
X9008515Y-17275174D02*
X9008515Y-17322793D01*
X9008515Y-17322793D02*
X8998991Y-17360889D01*
X8998991Y-17360889D02*
X8989468Y-17379936D01*
X8989468Y-17379936D02*
X8979944Y-17389460D01*
X8979944Y-17389460D02*
X8960896Y-17398984D01*
X8960896Y-17398984D02*
X8941848Y-17398984D01*
X8941848Y-17398984D02*
X8922801Y-17389460D01*
X8922801Y-17389460D02*
X8913277Y-17379936D01*
X8913277Y-17379936D02*
X8903753Y-17360889D01*
X8903753Y-17360889D02*
X8894229Y-17322793D01*
X8894229Y-17322793D02*
X8894229Y-17275174D01*
X8894229Y-17275174D02*
X8903753Y-17237079D01*
X8903753Y-17237079D02*
X8913277Y-17218031D01*
X8913277Y-17218031D02*
X8922801Y-17208508D01*
X8922801Y-17208508D02*
X8941848Y-17198984D01*
X9198991Y-17398984D02*
X9084706Y-17398984D01*
X9141848Y-17398984D02*
X9141848Y-17198984D01*
X9141848Y-17198984D02*
X9122801Y-17227555D01*
X9122801Y-17227555D02*
X9103753Y-17246603D01*
X9103753Y-17246603D02*
X9084706Y-17256127D01*
X9389468Y-17398984D02*
X9275182Y-17398984D01*
X9332325Y-17398984D02*
X9332325Y-17198984D01*
X9332325Y-17198984D02*
X9313277Y-17227555D01*
X9313277Y-17227555D02*
X9294229Y-17246603D01*
X9294229Y-17246603D02*
X9275182Y-17256127D01*
X9503753Y-17284698D02*
X9484706Y-17275174D01*
X9484706Y-17275174D02*
X9475182Y-17265650D01*
X9475182Y-17265650D02*
X9465658Y-17246603D01*
X9465658Y-17246603D02*
X9465658Y-17237079D01*
X9465658Y-17237079D02*
X9475182Y-17218031D01*
X9475182Y-17218031D02*
X9484706Y-17208508D01*
X9484706Y-17208508D02*
X9503753Y-17198984D01*
X9503753Y-17198984D02*
X9541849Y-17198984D01*
X9541849Y-17198984D02*
X9560896Y-17208508D01*
X9560896Y-17208508D02*
X9570420Y-17218031D01*
X9570420Y-17218031D02*
X9579944Y-17237079D01*
X9579944Y-17237079D02*
X9579944Y-17246603D01*
X9579944Y-17246603D02*
X9570420Y-17265650D01*
X9570420Y-17265650D02*
X9560896Y-17275174D01*
X9560896Y-17275174D02*
X9541849Y-17284698D01*
X9541849Y-17284698D02*
X9503753Y-17284698D01*
X9503753Y-17284698D02*
X9484706Y-17294222D01*
X9484706Y-17294222D02*
X9475182Y-17303746D01*
X9475182Y-17303746D02*
X9465658Y-17322793D01*
X9465658Y-17322793D02*
X9465658Y-17360889D01*
X9465658Y-17360889D02*
X9475182Y-17379936D01*
X9475182Y-17379936D02*
X9484706Y-17389460D01*
X9484706Y-17389460D02*
X9503753Y-17398984D01*
X9503753Y-17398984D02*
X9541849Y-17398984D01*
X9541849Y-17398984D02*
X9560896Y-17389460D01*
X9560896Y-17389460D02*
X9570420Y-17379936D01*
X9570420Y-17379936D02*
X9579944Y-17360889D01*
X9579944Y-17360889D02*
X9579944Y-17322793D01*
X9579944Y-17322793D02*
X9570420Y-17303746D01*
X9570420Y-17303746D02*
X9560896Y-17294222D01*
X9560896Y-17294222D02*
X9541849Y-17284698D01*
X9656134Y-17198984D02*
X9656134Y-17237079D01*
X9732325Y-17198984D02*
X9732325Y-17237079D01*
X10027563Y-17475174D02*
X10018039Y-17465650D01*
X10018039Y-17465650D02*
X9998991Y-17437079D01*
X9998991Y-17437079D02*
X9989468Y-17418031D01*
X9989468Y-17418031D02*
X9979944Y-17389460D01*
X9979944Y-17389460D02*
X9970420Y-17341841D01*
X9970420Y-17341841D02*
X9970420Y-17303746D01*
X9970420Y-17303746D02*
X9979944Y-17256127D01*
X9979944Y-17256127D02*
X9989468Y-17227555D01*
X9989468Y-17227555D02*
X9998991Y-17208508D01*
X9998991Y-17208508D02*
X10018039Y-17179936D01*
X10018039Y-17179936D02*
X10027563Y-17170412D01*
X10084706Y-17198984D02*
X10208515Y-17198984D01*
X10208515Y-17198984D02*
X10141849Y-17275174D01*
X10141849Y-17275174D02*
X10170420Y-17275174D01*
X10170420Y-17275174D02*
X10189468Y-17284698D01*
X10189468Y-17284698D02*
X10198991Y-17294222D01*
X10198991Y-17294222D02*
X10208515Y-17313270D01*
X10208515Y-17313270D02*
X10208515Y-17360889D01*
X10208515Y-17360889D02*
X10198991Y-17379936D01*
X10198991Y-17379936D02*
X10189468Y-17389460D01*
X10189468Y-17389460D02*
X10170420Y-17398984D01*
X10170420Y-17398984D02*
X10113277Y-17398984D01*
X10113277Y-17398984D02*
X10094230Y-17389460D01*
X10094230Y-17389460D02*
X10084706Y-17379936D01*
X10275182Y-17198984D02*
X10408515Y-17198984D01*
X10408515Y-17198984D02*
X10322801Y-17398984D01*
X10637087Y-17398984D02*
X10637087Y-17198984D01*
X10722801Y-17398984D02*
X10722801Y-17294222D01*
X10722801Y-17294222D02*
X10713277Y-17275174D01*
X10713277Y-17275174D02*
X10694230Y-17265650D01*
X10694230Y-17265650D02*
X10665658Y-17265650D01*
X10665658Y-17265650D02*
X10646611Y-17275174D01*
X10646611Y-17275174D02*
X10637087Y-17284698D01*
X10846611Y-17398984D02*
X10827563Y-17389460D01*
X10827563Y-17389460D02*
X10818039Y-17379936D01*
X10818039Y-17379936D02*
X10808515Y-17360889D01*
X10808515Y-17360889D02*
X10808515Y-17303746D01*
X10808515Y-17303746D02*
X10818039Y-17284698D01*
X10818039Y-17284698D02*
X10827563Y-17275174D01*
X10827563Y-17275174D02*
X10846611Y-17265650D01*
X10846611Y-17265650D02*
X10875182Y-17265650D01*
X10875182Y-17265650D02*
X10894230Y-17275174D01*
X10894230Y-17275174D02*
X10903753Y-17284698D01*
X10903753Y-17284698D02*
X10913277Y-17303746D01*
X10913277Y-17303746D02*
X10913277Y-17360889D01*
X10913277Y-17360889D02*
X10903753Y-17379936D01*
X10903753Y-17379936D02*
X10894230Y-17389460D01*
X10894230Y-17389460D02*
X10875182Y-17398984D01*
X10875182Y-17398984D02*
X10846611Y-17398984D01*
X11027563Y-17398984D02*
X11008515Y-17389460D01*
X11008515Y-17389460D02*
X10998992Y-17370412D01*
X10998992Y-17370412D02*
X10998992Y-17198984D01*
X11179944Y-17389460D02*
X11160896Y-17398984D01*
X11160896Y-17398984D02*
X11122801Y-17398984D01*
X11122801Y-17398984D02*
X11103753Y-17389460D01*
X11103753Y-17389460D02*
X11094230Y-17370412D01*
X11094230Y-17370412D02*
X11094230Y-17294222D01*
X11094230Y-17294222D02*
X11103753Y-17275174D01*
X11103753Y-17275174D02*
X11122801Y-17265650D01*
X11122801Y-17265650D02*
X11160896Y-17265650D01*
X11160896Y-17265650D02*
X11179944Y-17275174D01*
X11179944Y-17275174D02*
X11189468Y-17294222D01*
X11189468Y-17294222D02*
X11189468Y-17313270D01*
X11189468Y-17313270D02*
X11094230Y-17332317D01*
X11265658Y-17389460D02*
X11284706Y-17398984D01*
X11284706Y-17398984D02*
X11322801Y-17398984D01*
X11322801Y-17398984D02*
X11341849Y-17389460D01*
X11341849Y-17389460D02*
X11351372Y-17370412D01*
X11351372Y-17370412D02*
X11351372Y-17360889D01*
X11351372Y-17360889D02*
X11341849Y-17341841D01*
X11341849Y-17341841D02*
X11322801Y-17332317D01*
X11322801Y-17332317D02*
X11294230Y-17332317D01*
X11294230Y-17332317D02*
X11275182Y-17322793D01*
X11275182Y-17322793D02*
X11265658Y-17303746D01*
X11265658Y-17303746D02*
X11265658Y-17294222D01*
X11265658Y-17294222D02*
X11275182Y-17275174D01*
X11275182Y-17275174D02*
X11294230Y-17265650D01*
X11294230Y-17265650D02*
X11322801Y-17265650D01*
X11322801Y-17265650D02*
X11341849Y-17275174D01*
X11418039Y-17475174D02*
X11427563Y-17465650D01*
X11427563Y-17465650D02*
X11446611Y-17437079D01*
X11446611Y-17437079D02*
X11456134Y-17418031D01*
X11456134Y-17418031D02*
X11465658Y-17389460D01*
X11465658Y-17389460D02*
X11475182Y-17341841D01*
X11475182Y-17341841D02*
X11475182Y-17303746D01*
X11475182Y-17303746D02*
X11465658Y-17256127D01*
X11465658Y-17256127D02*
X11456134Y-17227555D01*
X11456134Y-17227555D02*
X11446611Y-17208508D01*
X11446611Y-17208508D02*
X11427563Y-17179936D01*
X11427563Y-17179936D02*
X11418039Y-17170412D01*
D12*
X6452500Y-17571500D02*
G75*
G02*
X6372500Y-17571500I-40000J0D01*
G01*
X6372500Y-17571500D02*
G75*
G02*
X6452500Y-17571500I40000J0D01*
G01*
D11*
X6751372Y-17462984D02*
X6770420Y-17462984D01*
X6770420Y-17462984D02*
X6789467Y-17472508D01*
X6789467Y-17472508D02*
X6798991Y-17482031D01*
X6798991Y-17482031D02*
X6808515Y-17501079D01*
X6808515Y-17501079D02*
X6818039Y-17539174D01*
X6818039Y-17539174D02*
X6818039Y-17586793D01*
X6818039Y-17586793D02*
X6808515Y-17624889D01*
X6808515Y-17624889D02*
X6798991Y-17643936D01*
X6798991Y-17643936D02*
X6789467Y-17653460D01*
X6789467Y-17653460D02*
X6770420Y-17662984D01*
X6770420Y-17662984D02*
X6751372Y-17662984D01*
X6751372Y-17662984D02*
X6732324Y-17653460D01*
X6732324Y-17653460D02*
X6722801Y-17643936D01*
X6722801Y-17643936D02*
X6713277Y-17624889D01*
X6713277Y-17624889D02*
X6703753Y-17586793D01*
X6703753Y-17586793D02*
X6703753Y-17539174D01*
X6703753Y-17539174D02*
X6713277Y-17501079D01*
X6713277Y-17501079D02*
X6722801Y-17482031D01*
X6722801Y-17482031D02*
X6732324Y-17472508D01*
X6732324Y-17472508D02*
X6751372Y-17462984D01*
X6903753Y-17643936D02*
X6913277Y-17653460D01*
X6913277Y-17653460D02*
X6903753Y-17662984D01*
X6903753Y-17662984D02*
X6894229Y-17653460D01*
X6894229Y-17653460D02*
X6903753Y-17643936D01*
X6903753Y-17643936D02*
X6903753Y-17662984D01*
X7027562Y-17548698D02*
X7008515Y-17539174D01*
X7008515Y-17539174D02*
X6998991Y-17529650D01*
X6998991Y-17529650D02*
X6989467Y-17510603D01*
X6989467Y-17510603D02*
X6989467Y-17501079D01*
X6989467Y-17501079D02*
X6998991Y-17482031D01*
X6998991Y-17482031D02*
X7008515Y-17472508D01*
X7008515Y-17472508D02*
X7027562Y-17462984D01*
X7027562Y-17462984D02*
X7065658Y-17462984D01*
X7065658Y-17462984D02*
X7084705Y-17472508D01*
X7084705Y-17472508D02*
X7094229Y-17482031D01*
X7094229Y-17482031D02*
X7103753Y-17501079D01*
X7103753Y-17501079D02*
X7103753Y-17510603D01*
X7103753Y-17510603D02*
X7094229Y-17529650D01*
X7094229Y-17529650D02*
X7084705Y-17539174D01*
X7084705Y-17539174D02*
X7065658Y-17548698D01*
X7065658Y-17548698D02*
X7027562Y-17548698D01*
X7027562Y-17548698D02*
X7008515Y-17558222D01*
X7008515Y-17558222D02*
X6998991Y-17567746D01*
X6998991Y-17567746D02*
X6989467Y-17586793D01*
X6989467Y-17586793D02*
X6989467Y-17624889D01*
X6989467Y-17624889D02*
X6998991Y-17643936D01*
X6998991Y-17643936D02*
X7008515Y-17653460D01*
X7008515Y-17653460D02*
X7027562Y-17662984D01*
X7027562Y-17662984D02*
X7065658Y-17662984D01*
X7065658Y-17662984D02*
X7084705Y-17653460D01*
X7084705Y-17653460D02*
X7094229Y-17643936D01*
X7094229Y-17643936D02*
X7103753Y-17624889D01*
X7103753Y-17624889D02*
X7103753Y-17586793D01*
X7103753Y-17586793D02*
X7094229Y-17567746D01*
X7094229Y-17567746D02*
X7084705Y-17558222D01*
X7084705Y-17558222D02*
X7065658Y-17548698D01*
X7227562Y-17462984D02*
X7246610Y-17462984D01*
X7246610Y-17462984D02*
X7265658Y-17472508D01*
X7265658Y-17472508D02*
X7275182Y-17482031D01*
X7275182Y-17482031D02*
X7284705Y-17501079D01*
X7284705Y-17501079D02*
X7294229Y-17539174D01*
X7294229Y-17539174D02*
X7294229Y-17586793D01*
X7294229Y-17586793D02*
X7284705Y-17624889D01*
X7284705Y-17624889D02*
X7275182Y-17643936D01*
X7275182Y-17643936D02*
X7265658Y-17653460D01*
X7265658Y-17653460D02*
X7246610Y-17662984D01*
X7246610Y-17662984D02*
X7227562Y-17662984D01*
X7227562Y-17662984D02*
X7208515Y-17653460D01*
X7208515Y-17653460D02*
X7198991Y-17643936D01*
X7198991Y-17643936D02*
X7189467Y-17624889D01*
X7189467Y-17624889D02*
X7179943Y-17586793D01*
X7179943Y-17586793D02*
X7179943Y-17539174D01*
X7179943Y-17539174D02*
X7189467Y-17501079D01*
X7189467Y-17501079D02*
X7198991Y-17482031D01*
X7198991Y-17482031D02*
X7208515Y-17472508D01*
X7208515Y-17472508D02*
X7227562Y-17462984D01*
X7418039Y-17462984D02*
X7437086Y-17462984D01*
X7437086Y-17462984D02*
X7456134Y-17472508D01*
X7456134Y-17472508D02*
X7465658Y-17482031D01*
X7465658Y-17482031D02*
X7475182Y-17501079D01*
X7475182Y-17501079D02*
X7484705Y-17539174D01*
X7484705Y-17539174D02*
X7484705Y-17586793D01*
X7484705Y-17586793D02*
X7475182Y-17624889D01*
X7475182Y-17624889D02*
X7465658Y-17643936D01*
X7465658Y-17643936D02*
X7456134Y-17653460D01*
X7456134Y-17653460D02*
X7437086Y-17662984D01*
X7437086Y-17662984D02*
X7418039Y-17662984D01*
X7418039Y-17662984D02*
X7398991Y-17653460D01*
X7398991Y-17653460D02*
X7389467Y-17643936D01*
X7389467Y-17643936D02*
X7379943Y-17624889D01*
X7379943Y-17624889D02*
X7370420Y-17586793D01*
X7370420Y-17586793D02*
X7370420Y-17539174D01*
X7370420Y-17539174D02*
X7379943Y-17501079D01*
X7379943Y-17501079D02*
X7389467Y-17482031D01*
X7389467Y-17482031D02*
X7398991Y-17472508D01*
X7398991Y-17472508D02*
X7418039Y-17462984D01*
X7570420Y-17662984D02*
X7570420Y-17529650D01*
X7570420Y-17548698D02*
X7579943Y-17539174D01*
X7579943Y-17539174D02*
X7598991Y-17529650D01*
X7598991Y-17529650D02*
X7627563Y-17529650D01*
X7627563Y-17529650D02*
X7646610Y-17539174D01*
X7646610Y-17539174D02*
X7656134Y-17558222D01*
X7656134Y-17558222D02*
X7656134Y-17662984D01*
X7656134Y-17558222D02*
X7665658Y-17539174D01*
X7665658Y-17539174D02*
X7684705Y-17529650D01*
X7684705Y-17529650D02*
X7713277Y-17529650D01*
X7713277Y-17529650D02*
X7732324Y-17539174D01*
X7732324Y-17539174D02*
X7741848Y-17558222D01*
X7741848Y-17558222D02*
X7741848Y-17662984D01*
X7837086Y-17662984D02*
X7837086Y-17529650D01*
X7837086Y-17548698D02*
X7846610Y-17539174D01*
X7846610Y-17539174D02*
X7865658Y-17529650D01*
X7865658Y-17529650D02*
X7894229Y-17529650D01*
X7894229Y-17529650D02*
X7913277Y-17539174D01*
X7913277Y-17539174D02*
X7922801Y-17558222D01*
X7922801Y-17558222D02*
X7922801Y-17662984D01*
X7922801Y-17558222D02*
X7932324Y-17539174D01*
X7932324Y-17539174D02*
X7951372Y-17529650D01*
X7951372Y-17529650D02*
X7979943Y-17529650D01*
X7979943Y-17529650D02*
X7998991Y-17539174D01*
X7998991Y-17539174D02*
X8008515Y-17558222D01*
X8008515Y-17558222D02*
X8008515Y-17662984D01*
X8398991Y-17453460D02*
X8227563Y-17710603D01*
X8656134Y-17462984D02*
X8675182Y-17462984D01*
X8675182Y-17462984D02*
X8694229Y-17472508D01*
X8694229Y-17472508D02*
X8703753Y-17482031D01*
X8703753Y-17482031D02*
X8713277Y-17501079D01*
X8713277Y-17501079D02*
X8722801Y-17539174D01*
X8722801Y-17539174D02*
X8722801Y-17586793D01*
X8722801Y-17586793D02*
X8713277Y-17624889D01*
X8713277Y-17624889D02*
X8703753Y-17643936D01*
X8703753Y-17643936D02*
X8694229Y-17653460D01*
X8694229Y-17653460D02*
X8675182Y-17662984D01*
X8675182Y-17662984D02*
X8656134Y-17662984D01*
X8656134Y-17662984D02*
X8637087Y-17653460D01*
X8637087Y-17653460D02*
X8627563Y-17643936D01*
X8627563Y-17643936D02*
X8618039Y-17624889D01*
X8618039Y-17624889D02*
X8608515Y-17586793D01*
X8608515Y-17586793D02*
X8608515Y-17539174D01*
X8608515Y-17539174D02*
X8618039Y-17501079D01*
X8618039Y-17501079D02*
X8627563Y-17482031D01*
X8627563Y-17482031D02*
X8637087Y-17472508D01*
X8637087Y-17472508D02*
X8656134Y-17462984D01*
X8808515Y-17643936D02*
X8818039Y-17653460D01*
X8818039Y-17653460D02*
X8808515Y-17662984D01*
X8808515Y-17662984D02*
X8798991Y-17653460D01*
X8798991Y-17653460D02*
X8808515Y-17643936D01*
X8808515Y-17643936D02*
X8808515Y-17662984D01*
X8941848Y-17462984D02*
X8960896Y-17462984D01*
X8960896Y-17462984D02*
X8979944Y-17472508D01*
X8979944Y-17472508D02*
X8989468Y-17482031D01*
X8989468Y-17482031D02*
X8998991Y-17501079D01*
X8998991Y-17501079D02*
X9008515Y-17539174D01*
X9008515Y-17539174D02*
X9008515Y-17586793D01*
X9008515Y-17586793D02*
X8998991Y-17624889D01*
X8998991Y-17624889D02*
X8989468Y-17643936D01*
X8989468Y-17643936D02*
X8979944Y-17653460D01*
X8979944Y-17653460D02*
X8960896Y-17662984D01*
X8960896Y-17662984D02*
X8941848Y-17662984D01*
X8941848Y-17662984D02*
X8922801Y-17653460D01*
X8922801Y-17653460D02*
X8913277Y-17643936D01*
X8913277Y-17643936D02*
X8903753Y-17624889D01*
X8903753Y-17624889D02*
X8894229Y-17586793D01*
X8894229Y-17586793D02*
X8894229Y-17539174D01*
X8894229Y-17539174D02*
X8903753Y-17501079D01*
X8903753Y-17501079D02*
X8913277Y-17482031D01*
X8913277Y-17482031D02*
X8922801Y-17472508D01*
X8922801Y-17472508D02*
X8941848Y-17462984D01*
X9075182Y-17462984D02*
X9198991Y-17462984D01*
X9198991Y-17462984D02*
X9132325Y-17539174D01*
X9132325Y-17539174D02*
X9160896Y-17539174D01*
X9160896Y-17539174D02*
X9179944Y-17548698D01*
X9179944Y-17548698D02*
X9189468Y-17558222D01*
X9189468Y-17558222D02*
X9198991Y-17577270D01*
X9198991Y-17577270D02*
X9198991Y-17624889D01*
X9198991Y-17624889D02*
X9189468Y-17643936D01*
X9189468Y-17643936D02*
X9179944Y-17653460D01*
X9179944Y-17653460D02*
X9160896Y-17662984D01*
X9160896Y-17662984D02*
X9103753Y-17662984D01*
X9103753Y-17662984D02*
X9084706Y-17653460D01*
X9084706Y-17653460D02*
X9075182Y-17643936D01*
X9389468Y-17662984D02*
X9275182Y-17662984D01*
X9332325Y-17662984D02*
X9332325Y-17462984D01*
X9332325Y-17462984D02*
X9313277Y-17491555D01*
X9313277Y-17491555D02*
X9294229Y-17510603D01*
X9294229Y-17510603D02*
X9275182Y-17520127D01*
X9570420Y-17462984D02*
X9475182Y-17462984D01*
X9475182Y-17462984D02*
X9465658Y-17558222D01*
X9465658Y-17558222D02*
X9475182Y-17548698D01*
X9475182Y-17548698D02*
X9494229Y-17539174D01*
X9494229Y-17539174D02*
X9541849Y-17539174D01*
X9541849Y-17539174D02*
X9560896Y-17548698D01*
X9560896Y-17548698D02*
X9570420Y-17558222D01*
X9570420Y-17558222D02*
X9579944Y-17577270D01*
X9579944Y-17577270D02*
X9579944Y-17624889D01*
X9579944Y-17624889D02*
X9570420Y-17643936D01*
X9570420Y-17643936D02*
X9560896Y-17653460D01*
X9560896Y-17653460D02*
X9541849Y-17662984D01*
X9541849Y-17662984D02*
X9494229Y-17662984D01*
X9494229Y-17662984D02*
X9475182Y-17653460D01*
X9475182Y-17653460D02*
X9465658Y-17643936D01*
X9656134Y-17462984D02*
X9656134Y-17501079D01*
X9732325Y-17462984D02*
X9732325Y-17501079D01*
X10027563Y-17739174D02*
X10018039Y-17729650D01*
X10018039Y-17729650D02*
X9998991Y-17701079D01*
X9998991Y-17701079D02*
X9989468Y-17682031D01*
X9989468Y-17682031D02*
X9979944Y-17653460D01*
X9979944Y-17653460D02*
X9970420Y-17605841D01*
X9970420Y-17605841D02*
X9970420Y-17567746D01*
X9970420Y-17567746D02*
X9979944Y-17520127D01*
X9979944Y-17520127D02*
X9989468Y-17491555D01*
X9989468Y-17491555D02*
X9998991Y-17472508D01*
X9998991Y-17472508D02*
X10018039Y-17443936D01*
X10018039Y-17443936D02*
X10027563Y-17434412D01*
X10084706Y-17462984D02*
X10218039Y-17462984D01*
X10218039Y-17462984D02*
X10132325Y-17662984D01*
X10284706Y-17482031D02*
X10294230Y-17472508D01*
X10294230Y-17472508D02*
X10313277Y-17462984D01*
X10313277Y-17462984D02*
X10360896Y-17462984D01*
X10360896Y-17462984D02*
X10379944Y-17472508D01*
X10379944Y-17472508D02*
X10389468Y-17482031D01*
X10389468Y-17482031D02*
X10398991Y-17501079D01*
X10398991Y-17501079D02*
X10398991Y-17520127D01*
X10398991Y-17520127D02*
X10389468Y-17548698D01*
X10389468Y-17548698D02*
X10275182Y-17662984D01*
X10275182Y-17662984D02*
X10398991Y-17662984D01*
X10637087Y-17662984D02*
X10637087Y-17462984D01*
X10722801Y-17662984D02*
X10722801Y-17558222D01*
X10722801Y-17558222D02*
X10713277Y-17539174D01*
X10713277Y-17539174D02*
X10694230Y-17529650D01*
X10694230Y-17529650D02*
X10665658Y-17529650D01*
X10665658Y-17529650D02*
X10646611Y-17539174D01*
X10646611Y-17539174D02*
X10637087Y-17548698D01*
X10846611Y-17662984D02*
X10827563Y-17653460D01*
X10827563Y-17653460D02*
X10818039Y-17643936D01*
X10818039Y-17643936D02*
X10808515Y-17624889D01*
X10808515Y-17624889D02*
X10808515Y-17567746D01*
X10808515Y-17567746D02*
X10818039Y-17548698D01*
X10818039Y-17548698D02*
X10827563Y-17539174D01*
X10827563Y-17539174D02*
X10846611Y-17529650D01*
X10846611Y-17529650D02*
X10875182Y-17529650D01*
X10875182Y-17529650D02*
X10894230Y-17539174D01*
X10894230Y-17539174D02*
X10903753Y-17548698D01*
X10903753Y-17548698D02*
X10913277Y-17567746D01*
X10913277Y-17567746D02*
X10913277Y-17624889D01*
X10913277Y-17624889D02*
X10903753Y-17643936D01*
X10903753Y-17643936D02*
X10894230Y-17653460D01*
X10894230Y-17653460D02*
X10875182Y-17662984D01*
X10875182Y-17662984D02*
X10846611Y-17662984D01*
X11027563Y-17662984D02*
X11008515Y-17653460D01*
X11008515Y-17653460D02*
X10998992Y-17634412D01*
X10998992Y-17634412D02*
X10998992Y-17462984D01*
X11179944Y-17653460D02*
X11160896Y-17662984D01*
X11160896Y-17662984D02*
X11122801Y-17662984D01*
X11122801Y-17662984D02*
X11103753Y-17653460D01*
X11103753Y-17653460D02*
X11094230Y-17634412D01*
X11094230Y-17634412D02*
X11094230Y-17558222D01*
X11094230Y-17558222D02*
X11103753Y-17539174D01*
X11103753Y-17539174D02*
X11122801Y-17529650D01*
X11122801Y-17529650D02*
X11160896Y-17529650D01*
X11160896Y-17529650D02*
X11179944Y-17539174D01*
X11179944Y-17539174D02*
X11189468Y-17558222D01*
X11189468Y-17558222D02*
X11189468Y-17577270D01*
X11189468Y-17577270D02*
X11094230Y-17596317D01*
X11265658Y-17653460D02*
X11284706Y-17662984D01*
X11284706Y-17662984D02*
X11322801Y-17662984D01*
X11322801Y-17662984D02*
X11341849Y-17653460D01*
X11341849Y-17653460D02*
X11351372Y-17634412D01*
X11351372Y-17634412D02*
X11351372Y-17624889D01*
X11351372Y-17624889D02*
X11341849Y-17605841D01*
X11341849Y-17605841D02*
X11322801Y-17596317D01*
X11322801Y-17596317D02*
X11294230Y-17596317D01*
X11294230Y-17596317D02*
X11275182Y-17586793D01*
X11275182Y-17586793D02*
X11265658Y-17567746D01*
X11265658Y-17567746D02*
X11265658Y-17558222D01*
X11265658Y-17558222D02*
X11275182Y-17539174D01*
X11275182Y-17539174D02*
X11294230Y-17529650D01*
X11294230Y-17529650D02*
X11322801Y-17529650D01*
X11322801Y-17529650D02*
X11341849Y-17539174D01*
X11418039Y-17739174D02*
X11427563Y-17729650D01*
X11427563Y-17729650D02*
X11446611Y-17701079D01*
X11446611Y-17701079D02*
X11456134Y-17682031D01*
X11456134Y-17682031D02*
X11465658Y-17653460D01*
X11465658Y-17653460D02*
X11475182Y-17605841D01*
X11475182Y-17605841D02*
X11475182Y-17567746D01*
X11475182Y-17567746D02*
X11465658Y-17520127D01*
X11465658Y-17520127D02*
X11456134Y-17491555D01*
X11456134Y-17491555D02*
X11446611Y-17472508D01*
X11446611Y-17472508D02*
X11427563Y-17443936D01*
X11427563Y-17443936D02*
X11418039Y-17434412D01*
D12*
X6411860Y-17794860D02*
X6411860Y-17876140D01*
X6371220Y-17835500D02*
X6452500Y-17835500D01*
D11*
X6751372Y-17726984D02*
X6770420Y-17726984D01*
X6770420Y-17726984D02*
X6789467Y-17736508D01*
X6789467Y-17736508D02*
X6798991Y-17746031D01*
X6798991Y-17746031D02*
X6808515Y-17765079D01*
X6808515Y-17765079D02*
X6818039Y-17803174D01*
X6818039Y-17803174D02*
X6818039Y-17850793D01*
X6818039Y-17850793D02*
X6808515Y-17888889D01*
X6808515Y-17888889D02*
X6798991Y-17907936D01*
X6798991Y-17907936D02*
X6789467Y-17917460D01*
X6789467Y-17917460D02*
X6770420Y-17926984D01*
X6770420Y-17926984D02*
X6751372Y-17926984D01*
X6751372Y-17926984D02*
X6732324Y-17917460D01*
X6732324Y-17917460D02*
X6722801Y-17907936D01*
X6722801Y-17907936D02*
X6713277Y-17888889D01*
X6713277Y-17888889D02*
X6703753Y-17850793D01*
X6703753Y-17850793D02*
X6703753Y-17803174D01*
X6703753Y-17803174D02*
X6713277Y-17765079D01*
X6713277Y-17765079D02*
X6722801Y-17746031D01*
X6722801Y-17746031D02*
X6732324Y-17736508D01*
X6732324Y-17736508D02*
X6751372Y-17726984D01*
X6903753Y-17907936D02*
X6913277Y-17917460D01*
X6913277Y-17917460D02*
X6903753Y-17926984D01*
X6903753Y-17926984D02*
X6894229Y-17917460D01*
X6894229Y-17917460D02*
X6903753Y-17907936D01*
X6903753Y-17907936D02*
X6903753Y-17926984D01*
X7027562Y-17812698D02*
X7008515Y-17803174D01*
X7008515Y-17803174D02*
X6998991Y-17793650D01*
X6998991Y-17793650D02*
X6989467Y-17774603D01*
X6989467Y-17774603D02*
X6989467Y-17765079D01*
X6989467Y-17765079D02*
X6998991Y-17746031D01*
X6998991Y-17746031D02*
X7008515Y-17736508D01*
X7008515Y-17736508D02*
X7027562Y-17726984D01*
X7027562Y-17726984D02*
X7065658Y-17726984D01*
X7065658Y-17726984D02*
X7084705Y-17736508D01*
X7084705Y-17736508D02*
X7094229Y-17746031D01*
X7094229Y-17746031D02*
X7103753Y-17765079D01*
X7103753Y-17765079D02*
X7103753Y-17774603D01*
X7103753Y-17774603D02*
X7094229Y-17793650D01*
X7094229Y-17793650D02*
X7084705Y-17803174D01*
X7084705Y-17803174D02*
X7065658Y-17812698D01*
X7065658Y-17812698D02*
X7027562Y-17812698D01*
X7027562Y-17812698D02*
X7008515Y-17822222D01*
X7008515Y-17822222D02*
X6998991Y-17831746D01*
X6998991Y-17831746D02*
X6989467Y-17850793D01*
X6989467Y-17850793D02*
X6989467Y-17888889D01*
X6989467Y-17888889D02*
X6998991Y-17907936D01*
X6998991Y-17907936D02*
X7008515Y-17917460D01*
X7008515Y-17917460D02*
X7027562Y-17926984D01*
X7027562Y-17926984D02*
X7065658Y-17926984D01*
X7065658Y-17926984D02*
X7084705Y-17917460D01*
X7084705Y-17917460D02*
X7094229Y-17907936D01*
X7094229Y-17907936D02*
X7103753Y-17888889D01*
X7103753Y-17888889D02*
X7103753Y-17850793D01*
X7103753Y-17850793D02*
X7094229Y-17831746D01*
X7094229Y-17831746D02*
X7084705Y-17822222D01*
X7084705Y-17822222D02*
X7065658Y-17812698D01*
X7294229Y-17926984D02*
X7179943Y-17926984D01*
X7237086Y-17926984D02*
X7237086Y-17726984D01*
X7237086Y-17726984D02*
X7218039Y-17755555D01*
X7218039Y-17755555D02*
X7198991Y-17774603D01*
X7198991Y-17774603D02*
X7179943Y-17784127D01*
X7360896Y-17726984D02*
X7484705Y-17726984D01*
X7484705Y-17726984D02*
X7418039Y-17803174D01*
X7418039Y-17803174D02*
X7446610Y-17803174D01*
X7446610Y-17803174D02*
X7465658Y-17812698D01*
X7465658Y-17812698D02*
X7475182Y-17822222D01*
X7475182Y-17822222D02*
X7484705Y-17841270D01*
X7484705Y-17841270D02*
X7484705Y-17888889D01*
X7484705Y-17888889D02*
X7475182Y-17907936D01*
X7475182Y-17907936D02*
X7465658Y-17917460D01*
X7465658Y-17917460D02*
X7446610Y-17926984D01*
X7446610Y-17926984D02*
X7389467Y-17926984D01*
X7389467Y-17926984D02*
X7370420Y-17917460D01*
X7370420Y-17917460D02*
X7360896Y-17907936D01*
X7570420Y-17926984D02*
X7570420Y-17793650D01*
X7570420Y-17812698D02*
X7579943Y-17803174D01*
X7579943Y-17803174D02*
X7598991Y-17793650D01*
X7598991Y-17793650D02*
X7627563Y-17793650D01*
X7627563Y-17793650D02*
X7646610Y-17803174D01*
X7646610Y-17803174D02*
X7656134Y-17822222D01*
X7656134Y-17822222D02*
X7656134Y-17926984D01*
X7656134Y-17822222D02*
X7665658Y-17803174D01*
X7665658Y-17803174D02*
X7684705Y-17793650D01*
X7684705Y-17793650D02*
X7713277Y-17793650D01*
X7713277Y-17793650D02*
X7732324Y-17803174D01*
X7732324Y-17803174D02*
X7741848Y-17822222D01*
X7741848Y-17822222D02*
X7741848Y-17926984D01*
X7837086Y-17926984D02*
X7837086Y-17793650D01*
X7837086Y-17812698D02*
X7846610Y-17803174D01*
X7846610Y-17803174D02*
X7865658Y-17793650D01*
X7865658Y-17793650D02*
X7894229Y-17793650D01*
X7894229Y-17793650D02*
X7913277Y-17803174D01*
X7913277Y-17803174D02*
X7922801Y-17822222D01*
X7922801Y-17822222D02*
X7922801Y-17926984D01*
X7922801Y-17822222D02*
X7932324Y-17803174D01*
X7932324Y-17803174D02*
X7951372Y-17793650D01*
X7951372Y-17793650D02*
X7979943Y-17793650D01*
X7979943Y-17793650D02*
X7998991Y-17803174D01*
X7998991Y-17803174D02*
X8008515Y-17822222D01*
X8008515Y-17822222D02*
X8008515Y-17926984D01*
X8398991Y-17717460D02*
X8227563Y-17974603D01*
X8656134Y-17726984D02*
X8675182Y-17726984D01*
X8675182Y-17726984D02*
X8694229Y-17736508D01*
X8694229Y-17736508D02*
X8703753Y-17746031D01*
X8703753Y-17746031D02*
X8713277Y-17765079D01*
X8713277Y-17765079D02*
X8722801Y-17803174D01*
X8722801Y-17803174D02*
X8722801Y-17850793D01*
X8722801Y-17850793D02*
X8713277Y-17888889D01*
X8713277Y-17888889D02*
X8703753Y-17907936D01*
X8703753Y-17907936D02*
X8694229Y-17917460D01*
X8694229Y-17917460D02*
X8675182Y-17926984D01*
X8675182Y-17926984D02*
X8656134Y-17926984D01*
X8656134Y-17926984D02*
X8637087Y-17917460D01*
X8637087Y-17917460D02*
X8627563Y-17907936D01*
X8627563Y-17907936D02*
X8618039Y-17888889D01*
X8618039Y-17888889D02*
X8608515Y-17850793D01*
X8608515Y-17850793D02*
X8608515Y-17803174D01*
X8608515Y-17803174D02*
X8618039Y-17765079D01*
X8618039Y-17765079D02*
X8627563Y-17746031D01*
X8627563Y-17746031D02*
X8637087Y-17736508D01*
X8637087Y-17736508D02*
X8656134Y-17726984D01*
X8808515Y-17907936D02*
X8818039Y-17917460D01*
X8818039Y-17917460D02*
X8808515Y-17926984D01*
X8808515Y-17926984D02*
X8798991Y-17917460D01*
X8798991Y-17917460D02*
X8808515Y-17907936D01*
X8808515Y-17907936D02*
X8808515Y-17926984D01*
X8941848Y-17726984D02*
X8960896Y-17726984D01*
X8960896Y-17726984D02*
X8979944Y-17736508D01*
X8979944Y-17736508D02*
X8989468Y-17746031D01*
X8989468Y-17746031D02*
X8998991Y-17765079D01*
X8998991Y-17765079D02*
X9008515Y-17803174D01*
X9008515Y-17803174D02*
X9008515Y-17850793D01*
X9008515Y-17850793D02*
X8998991Y-17888889D01*
X8998991Y-17888889D02*
X8989468Y-17907936D01*
X8989468Y-17907936D02*
X8979944Y-17917460D01*
X8979944Y-17917460D02*
X8960896Y-17926984D01*
X8960896Y-17926984D02*
X8941848Y-17926984D01*
X8941848Y-17926984D02*
X8922801Y-17917460D01*
X8922801Y-17917460D02*
X8913277Y-17907936D01*
X8913277Y-17907936D02*
X8903753Y-17888889D01*
X8903753Y-17888889D02*
X8894229Y-17850793D01*
X8894229Y-17850793D02*
X8894229Y-17803174D01*
X8894229Y-17803174D02*
X8903753Y-17765079D01*
X8903753Y-17765079D02*
X8913277Y-17746031D01*
X8913277Y-17746031D02*
X8922801Y-17736508D01*
X8922801Y-17736508D02*
X8941848Y-17726984D01*
X9075182Y-17726984D02*
X9198991Y-17726984D01*
X9198991Y-17726984D02*
X9132325Y-17803174D01*
X9132325Y-17803174D02*
X9160896Y-17803174D01*
X9160896Y-17803174D02*
X9179944Y-17812698D01*
X9179944Y-17812698D02*
X9189468Y-17822222D01*
X9189468Y-17822222D02*
X9198991Y-17841270D01*
X9198991Y-17841270D02*
X9198991Y-17888889D01*
X9198991Y-17888889D02*
X9189468Y-17907936D01*
X9189468Y-17907936D02*
X9179944Y-17917460D01*
X9179944Y-17917460D02*
X9160896Y-17926984D01*
X9160896Y-17926984D02*
X9103753Y-17926984D01*
X9103753Y-17926984D02*
X9084706Y-17917460D01*
X9084706Y-17917460D02*
X9075182Y-17907936D01*
X9275182Y-17746031D02*
X9284706Y-17736508D01*
X9284706Y-17736508D02*
X9303753Y-17726984D01*
X9303753Y-17726984D02*
X9351372Y-17726984D01*
X9351372Y-17726984D02*
X9370420Y-17736508D01*
X9370420Y-17736508D02*
X9379944Y-17746031D01*
X9379944Y-17746031D02*
X9389468Y-17765079D01*
X9389468Y-17765079D02*
X9389468Y-17784127D01*
X9389468Y-17784127D02*
X9379944Y-17812698D01*
X9379944Y-17812698D02*
X9265658Y-17926984D01*
X9265658Y-17926984D02*
X9389468Y-17926984D01*
X9513277Y-17726984D02*
X9532325Y-17726984D01*
X9532325Y-17726984D02*
X9551372Y-17736508D01*
X9551372Y-17736508D02*
X9560896Y-17746031D01*
X9560896Y-17746031D02*
X9570420Y-17765079D01*
X9570420Y-17765079D02*
X9579944Y-17803174D01*
X9579944Y-17803174D02*
X9579944Y-17850793D01*
X9579944Y-17850793D02*
X9570420Y-17888889D01*
X9570420Y-17888889D02*
X9560896Y-17907936D01*
X9560896Y-17907936D02*
X9551372Y-17917460D01*
X9551372Y-17917460D02*
X9532325Y-17926984D01*
X9532325Y-17926984D02*
X9513277Y-17926984D01*
X9513277Y-17926984D02*
X9494229Y-17917460D01*
X9494229Y-17917460D02*
X9484706Y-17907936D01*
X9484706Y-17907936D02*
X9475182Y-17888889D01*
X9475182Y-17888889D02*
X9465658Y-17850793D01*
X9465658Y-17850793D02*
X9465658Y-17803174D01*
X9465658Y-17803174D02*
X9475182Y-17765079D01*
X9475182Y-17765079D02*
X9484706Y-17746031D01*
X9484706Y-17746031D02*
X9494229Y-17736508D01*
X9494229Y-17736508D02*
X9513277Y-17726984D01*
X9656134Y-17726984D02*
X9656134Y-17765079D01*
X9732325Y-17726984D02*
X9732325Y-17765079D01*
X10027563Y-18003174D02*
X10018039Y-17993650D01*
X10018039Y-17993650D02*
X9998991Y-17965079D01*
X9998991Y-17965079D02*
X9989468Y-17946031D01*
X9989468Y-17946031D02*
X9979944Y-17917460D01*
X9979944Y-17917460D02*
X9970420Y-17869841D01*
X9970420Y-17869841D02*
X9970420Y-17831746D01*
X9970420Y-17831746D02*
X9979944Y-17784127D01*
X9979944Y-17784127D02*
X9989468Y-17755555D01*
X9989468Y-17755555D02*
X9998991Y-17736508D01*
X9998991Y-17736508D02*
X10018039Y-17707936D01*
X10018039Y-17707936D02*
X10027563Y-17698412D01*
X10094230Y-17746031D02*
X10103753Y-17736508D01*
X10103753Y-17736508D02*
X10122801Y-17726984D01*
X10122801Y-17726984D02*
X10170420Y-17726984D01*
X10170420Y-17726984D02*
X10189468Y-17736508D01*
X10189468Y-17736508D02*
X10198991Y-17746031D01*
X10198991Y-17746031D02*
X10208515Y-17765079D01*
X10208515Y-17765079D02*
X10208515Y-17784127D01*
X10208515Y-17784127D02*
X10198991Y-17812698D01*
X10198991Y-17812698D02*
X10084706Y-17926984D01*
X10084706Y-17926984D02*
X10208515Y-17926984D01*
X10379944Y-17793650D02*
X10379944Y-17926984D01*
X10332325Y-17717460D02*
X10284706Y-17860317D01*
X10284706Y-17860317D02*
X10408515Y-17860317D01*
X10637087Y-17926984D02*
X10637087Y-17726984D01*
X10722801Y-17926984D02*
X10722801Y-17822222D01*
X10722801Y-17822222D02*
X10713277Y-17803174D01*
X10713277Y-17803174D02*
X10694230Y-17793650D01*
X10694230Y-17793650D02*
X10665658Y-17793650D01*
X10665658Y-17793650D02*
X10646611Y-17803174D01*
X10646611Y-17803174D02*
X10637087Y-17812698D01*
X10846611Y-17926984D02*
X10827563Y-17917460D01*
X10827563Y-17917460D02*
X10818039Y-17907936D01*
X10818039Y-17907936D02*
X10808515Y-17888889D01*
X10808515Y-17888889D02*
X10808515Y-17831746D01*
X10808515Y-17831746D02*
X10818039Y-17812698D01*
X10818039Y-17812698D02*
X10827563Y-17803174D01*
X10827563Y-17803174D02*
X10846611Y-17793650D01*
X10846611Y-17793650D02*
X10875182Y-17793650D01*
X10875182Y-17793650D02*
X10894230Y-17803174D01*
X10894230Y-17803174D02*
X10903753Y-17812698D01*
X10903753Y-17812698D02*
X10913277Y-17831746D01*
X10913277Y-17831746D02*
X10913277Y-17888889D01*
X10913277Y-17888889D02*
X10903753Y-17907936D01*
X10903753Y-17907936D02*
X10894230Y-17917460D01*
X10894230Y-17917460D02*
X10875182Y-17926984D01*
X10875182Y-17926984D02*
X10846611Y-17926984D01*
X11027563Y-17926984D02*
X11008515Y-17917460D01*
X11008515Y-17917460D02*
X10998992Y-17898412D01*
X10998992Y-17898412D02*
X10998992Y-17726984D01*
X11179944Y-17917460D02*
X11160896Y-17926984D01*
X11160896Y-17926984D02*
X11122801Y-17926984D01*
X11122801Y-17926984D02*
X11103753Y-17917460D01*
X11103753Y-17917460D02*
X11094230Y-17898412D01*
X11094230Y-17898412D02*
X11094230Y-17822222D01*
X11094230Y-17822222D02*
X11103753Y-17803174D01*
X11103753Y-17803174D02*
X11122801Y-17793650D01*
X11122801Y-17793650D02*
X11160896Y-17793650D01*
X11160896Y-17793650D02*
X11179944Y-17803174D01*
X11179944Y-17803174D02*
X11189468Y-17822222D01*
X11189468Y-17822222D02*
X11189468Y-17841270D01*
X11189468Y-17841270D02*
X11094230Y-17860317D01*
X11265658Y-17917460D02*
X11284706Y-17926984D01*
X11284706Y-17926984D02*
X11322801Y-17926984D01*
X11322801Y-17926984D02*
X11341849Y-17917460D01*
X11341849Y-17917460D02*
X11351372Y-17898412D01*
X11351372Y-17898412D02*
X11351372Y-17888889D01*
X11351372Y-17888889D02*
X11341849Y-17869841D01*
X11341849Y-17869841D02*
X11322801Y-17860317D01*
X11322801Y-17860317D02*
X11294230Y-17860317D01*
X11294230Y-17860317D02*
X11275182Y-17850793D01*
X11275182Y-17850793D02*
X11265658Y-17831746D01*
X11265658Y-17831746D02*
X11265658Y-17822222D01*
X11265658Y-17822222D02*
X11275182Y-17803174D01*
X11275182Y-17803174D02*
X11294230Y-17793650D01*
X11294230Y-17793650D02*
X11322801Y-17793650D01*
X11322801Y-17793650D02*
X11341849Y-17803174D01*
X11418039Y-18003174D02*
X11427563Y-17993650D01*
X11427563Y-17993650D02*
X11446611Y-17965079D01*
X11446611Y-17965079D02*
X11456134Y-17946031D01*
X11456134Y-17946031D02*
X11465658Y-17917460D01*
X11465658Y-17917460D02*
X11475182Y-17869841D01*
X11475182Y-17869841D02*
X11475182Y-17831746D01*
X11475182Y-17831746D02*
X11465658Y-17784127D01*
X11465658Y-17784127D02*
X11456134Y-17755555D01*
X11456134Y-17755555D02*
X11446611Y-17736508D01*
X11446611Y-17736508D02*
X11427563Y-17707936D01*
X11427563Y-17707936D02*
X11418039Y-17698412D01*
D12*
X6437856Y-18134856D02*
X6437856Y-18064144D01*
X6367144Y-18064144D01*
X6367144Y-18134856D01*
X6437856Y-18134856D01*
D11*
X6818039Y-18190984D02*
X6703753Y-18190984D01*
X6760896Y-18190984D02*
X6760896Y-17990984D01*
X6760896Y-17990984D02*
X6741848Y-18019555D01*
X6741848Y-18019555D02*
X6722801Y-18038603D01*
X6722801Y-18038603D02*
X6703753Y-18048127D01*
X6903753Y-18171936D02*
X6913277Y-18181460D01*
X6913277Y-18181460D02*
X6903753Y-18190984D01*
X6903753Y-18190984D02*
X6894229Y-18181460D01*
X6894229Y-18181460D02*
X6903753Y-18171936D01*
X6903753Y-18171936D02*
X6903753Y-18190984D01*
X7037086Y-17990984D02*
X7056134Y-17990984D01*
X7056134Y-17990984D02*
X7075182Y-18000508D01*
X7075182Y-18000508D02*
X7084705Y-18010031D01*
X7084705Y-18010031D02*
X7094229Y-18029079D01*
X7094229Y-18029079D02*
X7103753Y-18067174D01*
X7103753Y-18067174D02*
X7103753Y-18114793D01*
X7103753Y-18114793D02*
X7094229Y-18152889D01*
X7094229Y-18152889D02*
X7084705Y-18171936D01*
X7084705Y-18171936D02*
X7075182Y-18181460D01*
X7075182Y-18181460D02*
X7056134Y-18190984D01*
X7056134Y-18190984D02*
X7037086Y-18190984D01*
X7037086Y-18190984D02*
X7018039Y-18181460D01*
X7018039Y-18181460D02*
X7008515Y-18171936D01*
X7008515Y-18171936D02*
X6998991Y-18152889D01*
X6998991Y-18152889D02*
X6989467Y-18114793D01*
X6989467Y-18114793D02*
X6989467Y-18067174D01*
X6989467Y-18067174D02*
X6998991Y-18029079D01*
X6998991Y-18029079D02*
X7008515Y-18010031D01*
X7008515Y-18010031D02*
X7018039Y-18000508D01*
X7018039Y-18000508D02*
X7037086Y-17990984D01*
X7227562Y-17990984D02*
X7246610Y-17990984D01*
X7246610Y-17990984D02*
X7265658Y-18000508D01*
X7265658Y-18000508D02*
X7275182Y-18010031D01*
X7275182Y-18010031D02*
X7284705Y-18029079D01*
X7284705Y-18029079D02*
X7294229Y-18067174D01*
X7294229Y-18067174D02*
X7294229Y-18114793D01*
X7294229Y-18114793D02*
X7284705Y-18152889D01*
X7284705Y-18152889D02*
X7275182Y-18171936D01*
X7275182Y-18171936D02*
X7265658Y-18181460D01*
X7265658Y-18181460D02*
X7246610Y-18190984D01*
X7246610Y-18190984D02*
X7227562Y-18190984D01*
X7227562Y-18190984D02*
X7208515Y-18181460D01*
X7208515Y-18181460D02*
X7198991Y-18171936D01*
X7198991Y-18171936D02*
X7189467Y-18152889D01*
X7189467Y-18152889D02*
X7179943Y-18114793D01*
X7179943Y-18114793D02*
X7179943Y-18067174D01*
X7179943Y-18067174D02*
X7189467Y-18029079D01*
X7189467Y-18029079D02*
X7198991Y-18010031D01*
X7198991Y-18010031D02*
X7208515Y-18000508D01*
X7208515Y-18000508D02*
X7227562Y-17990984D01*
X7418039Y-17990984D02*
X7437086Y-17990984D01*
X7437086Y-17990984D02*
X7456134Y-18000508D01*
X7456134Y-18000508D02*
X7465658Y-18010031D01*
X7465658Y-18010031D02*
X7475182Y-18029079D01*
X7475182Y-18029079D02*
X7484705Y-18067174D01*
X7484705Y-18067174D02*
X7484705Y-18114793D01*
X7484705Y-18114793D02*
X7475182Y-18152889D01*
X7475182Y-18152889D02*
X7465658Y-18171936D01*
X7465658Y-18171936D02*
X7456134Y-18181460D01*
X7456134Y-18181460D02*
X7437086Y-18190984D01*
X7437086Y-18190984D02*
X7418039Y-18190984D01*
X7418039Y-18190984D02*
X7398991Y-18181460D01*
X7398991Y-18181460D02*
X7389467Y-18171936D01*
X7389467Y-18171936D02*
X7379943Y-18152889D01*
X7379943Y-18152889D02*
X7370420Y-18114793D01*
X7370420Y-18114793D02*
X7370420Y-18067174D01*
X7370420Y-18067174D02*
X7379943Y-18029079D01*
X7379943Y-18029079D02*
X7389467Y-18010031D01*
X7389467Y-18010031D02*
X7398991Y-18000508D01*
X7398991Y-18000508D02*
X7418039Y-17990984D01*
X7570420Y-18190984D02*
X7570420Y-18057650D01*
X7570420Y-18076698D02*
X7579943Y-18067174D01*
X7579943Y-18067174D02*
X7598991Y-18057650D01*
X7598991Y-18057650D02*
X7627563Y-18057650D01*
X7627563Y-18057650D02*
X7646610Y-18067174D01*
X7646610Y-18067174D02*
X7656134Y-18086222D01*
X7656134Y-18086222D02*
X7656134Y-18190984D01*
X7656134Y-18086222D02*
X7665658Y-18067174D01*
X7665658Y-18067174D02*
X7684705Y-18057650D01*
X7684705Y-18057650D02*
X7713277Y-18057650D01*
X7713277Y-18057650D02*
X7732324Y-18067174D01*
X7732324Y-18067174D02*
X7741848Y-18086222D01*
X7741848Y-18086222D02*
X7741848Y-18190984D01*
X7837086Y-18190984D02*
X7837086Y-18057650D01*
X7837086Y-18076698D02*
X7846610Y-18067174D01*
X7846610Y-18067174D02*
X7865658Y-18057650D01*
X7865658Y-18057650D02*
X7894229Y-18057650D01*
X7894229Y-18057650D02*
X7913277Y-18067174D01*
X7913277Y-18067174D02*
X7922801Y-18086222D01*
X7922801Y-18086222D02*
X7922801Y-18190984D01*
X7922801Y-18086222D02*
X7932324Y-18067174D01*
X7932324Y-18067174D02*
X7951372Y-18057650D01*
X7951372Y-18057650D02*
X7979943Y-18057650D01*
X7979943Y-18057650D02*
X7998991Y-18067174D01*
X7998991Y-18067174D02*
X8008515Y-18086222D01*
X8008515Y-18086222D02*
X8008515Y-18190984D01*
X8398991Y-17981460D02*
X8227563Y-18238603D01*
X8656134Y-17990984D02*
X8675182Y-17990984D01*
X8675182Y-17990984D02*
X8694229Y-18000508D01*
X8694229Y-18000508D02*
X8703753Y-18010031D01*
X8703753Y-18010031D02*
X8713277Y-18029079D01*
X8713277Y-18029079D02*
X8722801Y-18067174D01*
X8722801Y-18067174D02*
X8722801Y-18114793D01*
X8722801Y-18114793D02*
X8713277Y-18152889D01*
X8713277Y-18152889D02*
X8703753Y-18171936D01*
X8703753Y-18171936D02*
X8694229Y-18181460D01*
X8694229Y-18181460D02*
X8675182Y-18190984D01*
X8675182Y-18190984D02*
X8656134Y-18190984D01*
X8656134Y-18190984D02*
X8637087Y-18181460D01*
X8637087Y-18181460D02*
X8627563Y-18171936D01*
X8627563Y-18171936D02*
X8618039Y-18152889D01*
X8618039Y-18152889D02*
X8608515Y-18114793D01*
X8608515Y-18114793D02*
X8608515Y-18067174D01*
X8608515Y-18067174D02*
X8618039Y-18029079D01*
X8618039Y-18029079D02*
X8627563Y-18010031D01*
X8627563Y-18010031D02*
X8637087Y-18000508D01*
X8637087Y-18000508D02*
X8656134Y-17990984D01*
X8808515Y-18171936D02*
X8818039Y-18181460D01*
X8818039Y-18181460D02*
X8808515Y-18190984D01*
X8808515Y-18190984D02*
X8798991Y-18181460D01*
X8798991Y-18181460D02*
X8808515Y-18171936D01*
X8808515Y-18171936D02*
X8808515Y-18190984D01*
X8941848Y-17990984D02*
X8960896Y-17990984D01*
X8960896Y-17990984D02*
X8979944Y-18000508D01*
X8979944Y-18000508D02*
X8989468Y-18010031D01*
X8989468Y-18010031D02*
X8998991Y-18029079D01*
X8998991Y-18029079D02*
X9008515Y-18067174D01*
X9008515Y-18067174D02*
X9008515Y-18114793D01*
X9008515Y-18114793D02*
X8998991Y-18152889D01*
X8998991Y-18152889D02*
X8989468Y-18171936D01*
X8989468Y-18171936D02*
X8979944Y-18181460D01*
X8979944Y-18181460D02*
X8960896Y-18190984D01*
X8960896Y-18190984D02*
X8941848Y-18190984D01*
X8941848Y-18190984D02*
X8922801Y-18181460D01*
X8922801Y-18181460D02*
X8913277Y-18171936D01*
X8913277Y-18171936D02*
X8903753Y-18152889D01*
X8903753Y-18152889D02*
X8894229Y-18114793D01*
X8894229Y-18114793D02*
X8894229Y-18067174D01*
X8894229Y-18067174D02*
X8903753Y-18029079D01*
X8903753Y-18029079D02*
X8913277Y-18010031D01*
X8913277Y-18010031D02*
X8922801Y-18000508D01*
X8922801Y-18000508D02*
X8941848Y-17990984D01*
X9075182Y-17990984D02*
X9198991Y-17990984D01*
X9198991Y-17990984D02*
X9132325Y-18067174D01*
X9132325Y-18067174D02*
X9160896Y-18067174D01*
X9160896Y-18067174D02*
X9179944Y-18076698D01*
X9179944Y-18076698D02*
X9189468Y-18086222D01*
X9189468Y-18086222D02*
X9198991Y-18105270D01*
X9198991Y-18105270D02*
X9198991Y-18152889D01*
X9198991Y-18152889D02*
X9189468Y-18171936D01*
X9189468Y-18171936D02*
X9179944Y-18181460D01*
X9179944Y-18181460D02*
X9160896Y-18190984D01*
X9160896Y-18190984D02*
X9103753Y-18190984D01*
X9103753Y-18190984D02*
X9084706Y-18181460D01*
X9084706Y-18181460D02*
X9075182Y-18171936D01*
X9294229Y-18190984D02*
X9332325Y-18190984D01*
X9332325Y-18190984D02*
X9351372Y-18181460D01*
X9351372Y-18181460D02*
X9360896Y-18171936D01*
X9360896Y-18171936D02*
X9379944Y-18143365D01*
X9379944Y-18143365D02*
X9389468Y-18105270D01*
X9389468Y-18105270D02*
X9389468Y-18029079D01*
X9389468Y-18029079D02*
X9379944Y-18010031D01*
X9379944Y-18010031D02*
X9370420Y-18000508D01*
X9370420Y-18000508D02*
X9351372Y-17990984D01*
X9351372Y-17990984D02*
X9313277Y-17990984D01*
X9313277Y-17990984D02*
X9294229Y-18000508D01*
X9294229Y-18000508D02*
X9284706Y-18010031D01*
X9284706Y-18010031D02*
X9275182Y-18029079D01*
X9275182Y-18029079D02*
X9275182Y-18076698D01*
X9275182Y-18076698D02*
X9284706Y-18095746D01*
X9284706Y-18095746D02*
X9294229Y-18105270D01*
X9294229Y-18105270D02*
X9313277Y-18114793D01*
X9313277Y-18114793D02*
X9351372Y-18114793D01*
X9351372Y-18114793D02*
X9370420Y-18105270D01*
X9370420Y-18105270D02*
X9379944Y-18095746D01*
X9379944Y-18095746D02*
X9389468Y-18076698D01*
X9560896Y-18057650D02*
X9560896Y-18190984D01*
X9513277Y-17981460D02*
X9465658Y-18124317D01*
X9465658Y-18124317D02*
X9589468Y-18124317D01*
X9656134Y-17990984D02*
X9656134Y-18029079D01*
X9732325Y-17990984D02*
X9732325Y-18029079D01*
X10027563Y-18267174D02*
X10018039Y-18257650D01*
X10018039Y-18257650D02*
X9998991Y-18229079D01*
X9998991Y-18229079D02*
X9989468Y-18210031D01*
X9989468Y-18210031D02*
X9979944Y-18181460D01*
X9979944Y-18181460D02*
X9970420Y-18133841D01*
X9970420Y-18133841D02*
X9970420Y-18095746D01*
X9970420Y-18095746D02*
X9979944Y-18048127D01*
X9979944Y-18048127D02*
X9989468Y-18019555D01*
X9989468Y-18019555D02*
X9998991Y-18000508D01*
X9998991Y-18000508D02*
X10018039Y-17971936D01*
X10018039Y-17971936D02*
X10027563Y-17962412D01*
X10084706Y-17990984D02*
X10208515Y-17990984D01*
X10208515Y-17990984D02*
X10141849Y-18067174D01*
X10141849Y-18067174D02*
X10170420Y-18067174D01*
X10170420Y-18067174D02*
X10189468Y-18076698D01*
X10189468Y-18076698D02*
X10198991Y-18086222D01*
X10198991Y-18086222D02*
X10208515Y-18105270D01*
X10208515Y-18105270D02*
X10208515Y-18152889D01*
X10208515Y-18152889D02*
X10198991Y-18171936D01*
X10198991Y-18171936D02*
X10189468Y-18181460D01*
X10189468Y-18181460D02*
X10170420Y-18190984D01*
X10170420Y-18190984D02*
X10113277Y-18190984D01*
X10113277Y-18190984D02*
X10094230Y-18181460D01*
X10094230Y-18181460D02*
X10084706Y-18171936D01*
X10322801Y-18076698D02*
X10303753Y-18067174D01*
X10303753Y-18067174D02*
X10294230Y-18057650D01*
X10294230Y-18057650D02*
X10284706Y-18038603D01*
X10284706Y-18038603D02*
X10284706Y-18029079D01*
X10284706Y-18029079D02*
X10294230Y-18010031D01*
X10294230Y-18010031D02*
X10303753Y-18000508D01*
X10303753Y-18000508D02*
X10322801Y-17990984D01*
X10322801Y-17990984D02*
X10360896Y-17990984D01*
X10360896Y-17990984D02*
X10379944Y-18000508D01*
X10379944Y-18000508D02*
X10389468Y-18010031D01*
X10389468Y-18010031D02*
X10398991Y-18029079D01*
X10398991Y-18029079D02*
X10398991Y-18038603D01*
X10398991Y-18038603D02*
X10389468Y-18057650D01*
X10389468Y-18057650D02*
X10379944Y-18067174D01*
X10379944Y-18067174D02*
X10360896Y-18076698D01*
X10360896Y-18076698D02*
X10322801Y-18076698D01*
X10322801Y-18076698D02*
X10303753Y-18086222D01*
X10303753Y-18086222D02*
X10294230Y-18095746D01*
X10294230Y-18095746D02*
X10284706Y-18114793D01*
X10284706Y-18114793D02*
X10284706Y-18152889D01*
X10284706Y-18152889D02*
X10294230Y-18171936D01*
X10294230Y-18171936D02*
X10303753Y-18181460D01*
X10303753Y-18181460D02*
X10322801Y-18190984D01*
X10322801Y-18190984D02*
X10360896Y-18190984D01*
X10360896Y-18190984D02*
X10379944Y-18181460D01*
X10379944Y-18181460D02*
X10389468Y-18171936D01*
X10389468Y-18171936D02*
X10398991Y-18152889D01*
X10398991Y-18152889D02*
X10398991Y-18114793D01*
X10398991Y-18114793D02*
X10389468Y-18095746D01*
X10389468Y-18095746D02*
X10379944Y-18086222D01*
X10379944Y-18086222D02*
X10360896Y-18076698D01*
X10637087Y-18190984D02*
X10637087Y-17990984D01*
X10722801Y-18190984D02*
X10722801Y-18086222D01*
X10722801Y-18086222D02*
X10713277Y-18067174D01*
X10713277Y-18067174D02*
X10694230Y-18057650D01*
X10694230Y-18057650D02*
X10665658Y-18057650D01*
X10665658Y-18057650D02*
X10646611Y-18067174D01*
X10646611Y-18067174D02*
X10637087Y-18076698D01*
X10846611Y-18190984D02*
X10827563Y-18181460D01*
X10827563Y-18181460D02*
X10818039Y-18171936D01*
X10818039Y-18171936D02*
X10808515Y-18152889D01*
X10808515Y-18152889D02*
X10808515Y-18095746D01*
X10808515Y-18095746D02*
X10818039Y-18076698D01*
X10818039Y-18076698D02*
X10827563Y-18067174D01*
X10827563Y-18067174D02*
X10846611Y-18057650D01*
X10846611Y-18057650D02*
X10875182Y-18057650D01*
X10875182Y-18057650D02*
X10894230Y-18067174D01*
X10894230Y-18067174D02*
X10903753Y-18076698D01*
X10903753Y-18076698D02*
X10913277Y-18095746D01*
X10913277Y-18095746D02*
X10913277Y-18152889D01*
X10913277Y-18152889D02*
X10903753Y-18171936D01*
X10903753Y-18171936D02*
X10894230Y-18181460D01*
X10894230Y-18181460D02*
X10875182Y-18190984D01*
X10875182Y-18190984D02*
X10846611Y-18190984D01*
X11027563Y-18190984D02*
X11008515Y-18181460D01*
X11008515Y-18181460D02*
X10998992Y-18162412D01*
X10998992Y-18162412D02*
X10998992Y-17990984D01*
X11179944Y-18181460D02*
X11160896Y-18190984D01*
X11160896Y-18190984D02*
X11122801Y-18190984D01*
X11122801Y-18190984D02*
X11103753Y-18181460D01*
X11103753Y-18181460D02*
X11094230Y-18162412D01*
X11094230Y-18162412D02*
X11094230Y-18086222D01*
X11094230Y-18086222D02*
X11103753Y-18067174D01*
X11103753Y-18067174D02*
X11122801Y-18057650D01*
X11122801Y-18057650D02*
X11160896Y-18057650D01*
X11160896Y-18057650D02*
X11179944Y-18067174D01*
X11179944Y-18067174D02*
X11189468Y-18086222D01*
X11189468Y-18086222D02*
X11189468Y-18105270D01*
X11189468Y-18105270D02*
X11094230Y-18124317D01*
X11265658Y-18181460D02*
X11284706Y-18190984D01*
X11284706Y-18190984D02*
X11322801Y-18190984D01*
X11322801Y-18190984D02*
X11341849Y-18181460D01*
X11341849Y-18181460D02*
X11351372Y-18162412D01*
X11351372Y-18162412D02*
X11351372Y-18152889D01*
X11351372Y-18152889D02*
X11341849Y-18133841D01*
X11341849Y-18133841D02*
X11322801Y-18124317D01*
X11322801Y-18124317D02*
X11294230Y-18124317D01*
X11294230Y-18124317D02*
X11275182Y-18114793D01*
X11275182Y-18114793D02*
X11265658Y-18095746D01*
X11265658Y-18095746D02*
X11265658Y-18086222D01*
X11265658Y-18086222D02*
X11275182Y-18067174D01*
X11275182Y-18067174D02*
X11294230Y-18057650D01*
X11294230Y-18057650D02*
X11322801Y-18057650D01*
X11322801Y-18057650D02*
X11341849Y-18067174D01*
X11418039Y-18267174D02*
X11427563Y-18257650D01*
X11427563Y-18257650D02*
X11446611Y-18229079D01*
X11446611Y-18229079D02*
X11456134Y-18210031D01*
X11456134Y-18210031D02*
X11465658Y-18181460D01*
X11465658Y-18181460D02*
X11475182Y-18133841D01*
X11475182Y-18133841D02*
X11475182Y-18095746D01*
X11475182Y-18095746D02*
X11465658Y-18048127D01*
X11465658Y-18048127D02*
X11456134Y-18019555D01*
X11456134Y-18019555D02*
X11446611Y-18000508D01*
X11446611Y-18000508D02*
X11427563Y-17971936D01*
X11427563Y-17971936D02*
X11418039Y-17962412D01*
D13*
X6397500Y-18418500D02*
X6452500Y-18363500D01*
X6397500Y-18308500D01*
X6342500Y-18363500D01*
X6397500Y-18418500D01*
D11*
X6818039Y-18454984D02*
X6703753Y-18454984D01*
X6760896Y-18454984D02*
X6760896Y-18254984D01*
X6760896Y-18254984D02*
X6741848Y-18283555D01*
X6741848Y-18283555D02*
X6722801Y-18302603D01*
X6722801Y-18302603D02*
X6703753Y-18312127D01*
X6903753Y-18435936D02*
X6913277Y-18445460D01*
X6913277Y-18445460D02*
X6903753Y-18454984D01*
X6903753Y-18454984D02*
X6894229Y-18445460D01*
X6894229Y-18445460D02*
X6903753Y-18435936D01*
X6903753Y-18435936D02*
X6903753Y-18454984D01*
X7103753Y-18454984D02*
X6989467Y-18454984D01*
X7046610Y-18454984D02*
X7046610Y-18254984D01*
X7046610Y-18254984D02*
X7027562Y-18283555D01*
X7027562Y-18283555D02*
X7008515Y-18302603D01*
X7008515Y-18302603D02*
X6989467Y-18312127D01*
X7227562Y-18254984D02*
X7246610Y-18254984D01*
X7246610Y-18254984D02*
X7265658Y-18264508D01*
X7265658Y-18264508D02*
X7275182Y-18274031D01*
X7275182Y-18274031D02*
X7284705Y-18293079D01*
X7284705Y-18293079D02*
X7294229Y-18331174D01*
X7294229Y-18331174D02*
X7294229Y-18378793D01*
X7294229Y-18378793D02*
X7284705Y-18416889D01*
X7284705Y-18416889D02*
X7275182Y-18435936D01*
X7275182Y-18435936D02*
X7265658Y-18445460D01*
X7265658Y-18445460D02*
X7246610Y-18454984D01*
X7246610Y-18454984D02*
X7227562Y-18454984D01*
X7227562Y-18454984D02*
X7208515Y-18445460D01*
X7208515Y-18445460D02*
X7198991Y-18435936D01*
X7198991Y-18435936D02*
X7189467Y-18416889D01*
X7189467Y-18416889D02*
X7179943Y-18378793D01*
X7179943Y-18378793D02*
X7179943Y-18331174D01*
X7179943Y-18331174D02*
X7189467Y-18293079D01*
X7189467Y-18293079D02*
X7198991Y-18274031D01*
X7198991Y-18274031D02*
X7208515Y-18264508D01*
X7208515Y-18264508D02*
X7227562Y-18254984D01*
X7418039Y-18254984D02*
X7437086Y-18254984D01*
X7437086Y-18254984D02*
X7456134Y-18264508D01*
X7456134Y-18264508D02*
X7465658Y-18274031D01*
X7465658Y-18274031D02*
X7475182Y-18293079D01*
X7475182Y-18293079D02*
X7484705Y-18331174D01*
X7484705Y-18331174D02*
X7484705Y-18378793D01*
X7484705Y-18378793D02*
X7475182Y-18416889D01*
X7475182Y-18416889D02*
X7465658Y-18435936D01*
X7465658Y-18435936D02*
X7456134Y-18445460D01*
X7456134Y-18445460D02*
X7437086Y-18454984D01*
X7437086Y-18454984D02*
X7418039Y-18454984D01*
X7418039Y-18454984D02*
X7398991Y-18445460D01*
X7398991Y-18445460D02*
X7389467Y-18435936D01*
X7389467Y-18435936D02*
X7379943Y-18416889D01*
X7379943Y-18416889D02*
X7370420Y-18378793D01*
X7370420Y-18378793D02*
X7370420Y-18331174D01*
X7370420Y-18331174D02*
X7379943Y-18293079D01*
X7379943Y-18293079D02*
X7389467Y-18274031D01*
X7389467Y-18274031D02*
X7398991Y-18264508D01*
X7398991Y-18264508D02*
X7418039Y-18254984D01*
X7570420Y-18454984D02*
X7570420Y-18321650D01*
X7570420Y-18340698D02*
X7579943Y-18331174D01*
X7579943Y-18331174D02*
X7598991Y-18321650D01*
X7598991Y-18321650D02*
X7627563Y-18321650D01*
X7627563Y-18321650D02*
X7646610Y-18331174D01*
X7646610Y-18331174D02*
X7656134Y-18350222D01*
X7656134Y-18350222D02*
X7656134Y-18454984D01*
X7656134Y-18350222D02*
X7665658Y-18331174D01*
X7665658Y-18331174D02*
X7684705Y-18321650D01*
X7684705Y-18321650D02*
X7713277Y-18321650D01*
X7713277Y-18321650D02*
X7732324Y-18331174D01*
X7732324Y-18331174D02*
X7741848Y-18350222D01*
X7741848Y-18350222D02*
X7741848Y-18454984D01*
X7837086Y-18454984D02*
X7837086Y-18321650D01*
X7837086Y-18340698D02*
X7846610Y-18331174D01*
X7846610Y-18331174D02*
X7865658Y-18321650D01*
X7865658Y-18321650D02*
X7894229Y-18321650D01*
X7894229Y-18321650D02*
X7913277Y-18331174D01*
X7913277Y-18331174D02*
X7922801Y-18350222D01*
X7922801Y-18350222D02*
X7922801Y-18454984D01*
X7922801Y-18350222D02*
X7932324Y-18331174D01*
X7932324Y-18331174D02*
X7951372Y-18321650D01*
X7951372Y-18321650D02*
X7979943Y-18321650D01*
X7979943Y-18321650D02*
X7998991Y-18331174D01*
X7998991Y-18331174D02*
X8008515Y-18350222D01*
X8008515Y-18350222D02*
X8008515Y-18454984D01*
X8398991Y-18245460D02*
X8227563Y-18502603D01*
X8656134Y-18254984D02*
X8675182Y-18254984D01*
X8675182Y-18254984D02*
X8694229Y-18264508D01*
X8694229Y-18264508D02*
X8703753Y-18274031D01*
X8703753Y-18274031D02*
X8713277Y-18293079D01*
X8713277Y-18293079D02*
X8722801Y-18331174D01*
X8722801Y-18331174D02*
X8722801Y-18378793D01*
X8722801Y-18378793D02*
X8713277Y-18416889D01*
X8713277Y-18416889D02*
X8703753Y-18435936D01*
X8703753Y-18435936D02*
X8694229Y-18445460D01*
X8694229Y-18445460D02*
X8675182Y-18454984D01*
X8675182Y-18454984D02*
X8656134Y-18454984D01*
X8656134Y-18454984D02*
X8637087Y-18445460D01*
X8637087Y-18445460D02*
X8627563Y-18435936D01*
X8627563Y-18435936D02*
X8618039Y-18416889D01*
X8618039Y-18416889D02*
X8608515Y-18378793D01*
X8608515Y-18378793D02*
X8608515Y-18331174D01*
X8608515Y-18331174D02*
X8618039Y-18293079D01*
X8618039Y-18293079D02*
X8627563Y-18274031D01*
X8627563Y-18274031D02*
X8637087Y-18264508D01*
X8637087Y-18264508D02*
X8656134Y-18254984D01*
X8808515Y-18435936D02*
X8818039Y-18445460D01*
X8818039Y-18445460D02*
X8808515Y-18454984D01*
X8808515Y-18454984D02*
X8798991Y-18445460D01*
X8798991Y-18445460D02*
X8808515Y-18435936D01*
X8808515Y-18435936D02*
X8808515Y-18454984D01*
X8941848Y-18254984D02*
X8960896Y-18254984D01*
X8960896Y-18254984D02*
X8979944Y-18264508D01*
X8979944Y-18264508D02*
X8989468Y-18274031D01*
X8989468Y-18274031D02*
X8998991Y-18293079D01*
X8998991Y-18293079D02*
X9008515Y-18331174D01*
X9008515Y-18331174D02*
X9008515Y-18378793D01*
X9008515Y-18378793D02*
X8998991Y-18416889D01*
X8998991Y-18416889D02*
X8989468Y-18435936D01*
X8989468Y-18435936D02*
X8979944Y-18445460D01*
X8979944Y-18445460D02*
X8960896Y-18454984D01*
X8960896Y-18454984D02*
X8941848Y-18454984D01*
X8941848Y-18454984D02*
X8922801Y-18445460D01*
X8922801Y-18445460D02*
X8913277Y-18435936D01*
X8913277Y-18435936D02*
X8903753Y-18416889D01*
X8903753Y-18416889D02*
X8894229Y-18378793D01*
X8894229Y-18378793D02*
X8894229Y-18331174D01*
X8894229Y-18331174D02*
X8903753Y-18293079D01*
X8903753Y-18293079D02*
X8913277Y-18274031D01*
X8913277Y-18274031D02*
X8922801Y-18264508D01*
X8922801Y-18264508D02*
X8941848Y-18254984D01*
X9179944Y-18321650D02*
X9179944Y-18454984D01*
X9132325Y-18245460D02*
X9084706Y-18388317D01*
X9084706Y-18388317D02*
X9208515Y-18388317D01*
X9265658Y-18254984D02*
X9389468Y-18254984D01*
X9389468Y-18254984D02*
X9322801Y-18331174D01*
X9322801Y-18331174D02*
X9351372Y-18331174D01*
X9351372Y-18331174D02*
X9370420Y-18340698D01*
X9370420Y-18340698D02*
X9379944Y-18350222D01*
X9379944Y-18350222D02*
X9389468Y-18369270D01*
X9389468Y-18369270D02*
X9389468Y-18416889D01*
X9389468Y-18416889D02*
X9379944Y-18435936D01*
X9379944Y-18435936D02*
X9370420Y-18445460D01*
X9370420Y-18445460D02*
X9351372Y-18454984D01*
X9351372Y-18454984D02*
X9294229Y-18454984D01*
X9294229Y-18454984D02*
X9275182Y-18445460D01*
X9275182Y-18445460D02*
X9265658Y-18435936D01*
X9456134Y-18254984D02*
X9579944Y-18254984D01*
X9579944Y-18254984D02*
X9513277Y-18331174D01*
X9513277Y-18331174D02*
X9541849Y-18331174D01*
X9541849Y-18331174D02*
X9560896Y-18340698D01*
X9560896Y-18340698D02*
X9570420Y-18350222D01*
X9570420Y-18350222D02*
X9579944Y-18369270D01*
X9579944Y-18369270D02*
X9579944Y-18416889D01*
X9579944Y-18416889D02*
X9570420Y-18435936D01*
X9570420Y-18435936D02*
X9560896Y-18445460D01*
X9560896Y-18445460D02*
X9541849Y-18454984D01*
X9541849Y-18454984D02*
X9484706Y-18454984D01*
X9484706Y-18454984D02*
X9465658Y-18445460D01*
X9465658Y-18445460D02*
X9456134Y-18435936D01*
X9656134Y-18254984D02*
X9656134Y-18293079D01*
X9732325Y-18254984D02*
X9732325Y-18293079D01*
X10027563Y-18531174D02*
X10018039Y-18521650D01*
X10018039Y-18521650D02*
X9998991Y-18493079D01*
X9998991Y-18493079D02*
X9989468Y-18474031D01*
X9989468Y-18474031D02*
X9979944Y-18445460D01*
X9979944Y-18445460D02*
X9970420Y-18397841D01*
X9970420Y-18397841D02*
X9970420Y-18359746D01*
X9970420Y-18359746D02*
X9979944Y-18312127D01*
X9979944Y-18312127D02*
X9989468Y-18283555D01*
X9989468Y-18283555D02*
X9998991Y-18264508D01*
X9998991Y-18264508D02*
X10018039Y-18235936D01*
X10018039Y-18235936D02*
X10027563Y-18226412D01*
X10132325Y-18340698D02*
X10113277Y-18331174D01*
X10113277Y-18331174D02*
X10103753Y-18321650D01*
X10103753Y-18321650D02*
X10094230Y-18302603D01*
X10094230Y-18302603D02*
X10094230Y-18293079D01*
X10094230Y-18293079D02*
X10103753Y-18274031D01*
X10103753Y-18274031D02*
X10113277Y-18264508D01*
X10113277Y-18264508D02*
X10132325Y-18254984D01*
X10132325Y-18254984D02*
X10170420Y-18254984D01*
X10170420Y-18254984D02*
X10189468Y-18264508D01*
X10189468Y-18264508D02*
X10198991Y-18274031D01*
X10198991Y-18274031D02*
X10208515Y-18293079D01*
X10208515Y-18293079D02*
X10208515Y-18302603D01*
X10208515Y-18302603D02*
X10198991Y-18321650D01*
X10198991Y-18321650D02*
X10189468Y-18331174D01*
X10189468Y-18331174D02*
X10170420Y-18340698D01*
X10170420Y-18340698D02*
X10132325Y-18340698D01*
X10132325Y-18340698D02*
X10113277Y-18350222D01*
X10113277Y-18350222D02*
X10103753Y-18359746D01*
X10103753Y-18359746D02*
X10094230Y-18378793D01*
X10094230Y-18378793D02*
X10094230Y-18416889D01*
X10094230Y-18416889D02*
X10103753Y-18435936D01*
X10103753Y-18435936D02*
X10113277Y-18445460D01*
X10113277Y-18445460D02*
X10132325Y-18454984D01*
X10132325Y-18454984D02*
X10170420Y-18454984D01*
X10170420Y-18454984D02*
X10189468Y-18445460D01*
X10189468Y-18445460D02*
X10198991Y-18435936D01*
X10198991Y-18435936D02*
X10208515Y-18416889D01*
X10208515Y-18416889D02*
X10208515Y-18378793D01*
X10208515Y-18378793D02*
X10198991Y-18359746D01*
X10198991Y-18359746D02*
X10189468Y-18350222D01*
X10189468Y-18350222D02*
X10170420Y-18340698D01*
X10446611Y-18454984D02*
X10446611Y-18254984D01*
X10532325Y-18454984D02*
X10532325Y-18350222D01*
X10532325Y-18350222D02*
X10522801Y-18331174D01*
X10522801Y-18331174D02*
X10503753Y-18321650D01*
X10503753Y-18321650D02*
X10475182Y-18321650D01*
X10475182Y-18321650D02*
X10456134Y-18331174D01*
X10456134Y-18331174D02*
X10446611Y-18340698D01*
X10656134Y-18454984D02*
X10637087Y-18445460D01*
X10637087Y-18445460D02*
X10627563Y-18435936D01*
X10627563Y-18435936D02*
X10618039Y-18416889D01*
X10618039Y-18416889D02*
X10618039Y-18359746D01*
X10618039Y-18359746D02*
X10627563Y-18340698D01*
X10627563Y-18340698D02*
X10637087Y-18331174D01*
X10637087Y-18331174D02*
X10656134Y-18321650D01*
X10656134Y-18321650D02*
X10684706Y-18321650D01*
X10684706Y-18321650D02*
X10703753Y-18331174D01*
X10703753Y-18331174D02*
X10713277Y-18340698D01*
X10713277Y-18340698D02*
X10722801Y-18359746D01*
X10722801Y-18359746D02*
X10722801Y-18416889D01*
X10722801Y-18416889D02*
X10713277Y-18435936D01*
X10713277Y-18435936D02*
X10703753Y-18445460D01*
X10703753Y-18445460D02*
X10684706Y-18454984D01*
X10684706Y-18454984D02*
X10656134Y-18454984D01*
X10837087Y-18454984D02*
X10818039Y-18445460D01*
X10818039Y-18445460D02*
X10808515Y-18426412D01*
X10808515Y-18426412D02*
X10808515Y-18254984D01*
X10989468Y-18445460D02*
X10970420Y-18454984D01*
X10970420Y-18454984D02*
X10932325Y-18454984D01*
X10932325Y-18454984D02*
X10913277Y-18445460D01*
X10913277Y-18445460D02*
X10903753Y-18426412D01*
X10903753Y-18426412D02*
X10903753Y-18350222D01*
X10903753Y-18350222D02*
X10913277Y-18331174D01*
X10913277Y-18331174D02*
X10932325Y-18321650D01*
X10932325Y-18321650D02*
X10970420Y-18321650D01*
X10970420Y-18321650D02*
X10989468Y-18331174D01*
X10989468Y-18331174D02*
X10998992Y-18350222D01*
X10998992Y-18350222D02*
X10998992Y-18369270D01*
X10998992Y-18369270D02*
X10903753Y-18388317D01*
X11075182Y-18445460D02*
X11094230Y-18454984D01*
X11094230Y-18454984D02*
X11132325Y-18454984D01*
X11132325Y-18454984D02*
X11151373Y-18445460D01*
X11151373Y-18445460D02*
X11160896Y-18426412D01*
X11160896Y-18426412D02*
X11160896Y-18416889D01*
X11160896Y-18416889D02*
X11151373Y-18397841D01*
X11151373Y-18397841D02*
X11132325Y-18388317D01*
X11132325Y-18388317D02*
X11103753Y-18388317D01*
X11103753Y-18388317D02*
X11084706Y-18378793D01*
X11084706Y-18378793D02*
X11075182Y-18359746D01*
X11075182Y-18359746D02*
X11075182Y-18350222D01*
X11075182Y-18350222D02*
X11084706Y-18331174D01*
X11084706Y-18331174D02*
X11103753Y-18321650D01*
X11103753Y-18321650D02*
X11132325Y-18321650D01*
X11132325Y-18321650D02*
X11151373Y-18331174D01*
X11227563Y-18531174D02*
X11237087Y-18521650D01*
X11237087Y-18521650D02*
X11256134Y-18493079D01*
X11256134Y-18493079D02*
X11265658Y-18474031D01*
X11265658Y-18474031D02*
X11275182Y-18445460D01*
X11275182Y-18445460D02*
X11284706Y-18397841D01*
X11284706Y-18397841D02*
X11284706Y-18359746D01*
X11284706Y-18359746D02*
X11275182Y-18312127D01*
X11275182Y-18312127D02*
X11265658Y-18283555D01*
X11265658Y-18283555D02*
X11256134Y-18264508D01*
X11256134Y-18264508D02*
X11237087Y-18235936D01*
X11237087Y-18235936D02*
X11227563Y-18226412D01*
M02*
