G04 #@! TF.GenerationSoftware,KiCad,Pcbnew,9.0.0-9.0.0-2~ubuntu24.04.1*
G04 #@! TF.CreationDate,2025-03-07T17:41:16-03:00*
G04 #@! TF.ProjectId,Condicionamento_compacto_V03_kicad_9,436f6e64-6963-4696-9f6e-616d656e746f,rev?*
G04 #@! TF.SameCoordinates,Original*
G04 #@! TF.FileFunction,Legend,Bot*
G04 #@! TF.FilePolarity,Positive*
%FSLAX46Y46*%
G04 Gerber Fmt 4.6, Leading zero omitted, Abs format (unit mm)*
G04 Created by KiCad (PCBNEW 9.0.0-9.0.0-2~ubuntu24.04.1) date 2025-03-07 17:41:16*
%MOMM*%
%LPD*%
G01*
G04 APERTURE LIST*
%ADD10C,0.050000*%
%ADD11C,0.300000*%
%ADD12C,0.100000*%
%ADD13C,0.150000*%
%ADD14C,0.152400*%
%ADD15C,0.120000*%
%ADD16R,1.600000X1.600000*%
%ADD17O,1.600000X1.600000*%
%ADD18C,1.600000*%
%ADD19R,1.700000X1.700000*%
%ADD20O,1.700000X1.700000*%
%ADD21R,1.524000X1.524000*%
%ADD22C,1.524000*%
%ADD23R,0.558800X1.981200*%
%ADD24R,2.200000X2.200000*%
%ADD25O,2.200000X2.200000*%
%ADD26R,1.981200X0.558800*%
G04 APERTURE END LIST*
D10*
X69822638Y-144413846D02*
X69775019Y-144366227D01*
X69775019Y-144366227D02*
X69775019Y-144294798D01*
X69775019Y-144294798D02*
X69822638Y-144223370D01*
X69822638Y-144223370D02*
X69917876Y-144175751D01*
X69917876Y-144175751D02*
X70013114Y-144151941D01*
X70013114Y-144151941D02*
X70203590Y-144128132D01*
X70203590Y-144128132D02*
X70346447Y-144128132D01*
X70346447Y-144128132D02*
X70536923Y-144151941D01*
X70536923Y-144151941D02*
X70632161Y-144175751D01*
X70632161Y-144175751D02*
X70727400Y-144223370D01*
X70727400Y-144223370D02*
X70775019Y-144294798D01*
X70775019Y-144294798D02*
X70775019Y-144342417D01*
X70775019Y-144342417D02*
X70727400Y-144413846D01*
X70727400Y-144413846D02*
X70679780Y-144437655D01*
X70679780Y-144437655D02*
X70346447Y-144437655D01*
X70346447Y-144437655D02*
X70346447Y-144342417D01*
X70775019Y-144651941D02*
X69775019Y-144651941D01*
X69775019Y-144651941D02*
X70775019Y-144937655D01*
X70775019Y-144937655D02*
X69775019Y-144937655D01*
X70775019Y-145175751D02*
X69775019Y-145175751D01*
X69775019Y-145175751D02*
X69775019Y-145294799D01*
X69775019Y-145294799D02*
X69822638Y-145366227D01*
X69822638Y-145366227D02*
X69917876Y-145413846D01*
X69917876Y-145413846D02*
X70013114Y-145437656D01*
X70013114Y-145437656D02*
X70203590Y-145461465D01*
X70203590Y-145461465D02*
X70346447Y-145461465D01*
X70346447Y-145461465D02*
X70536923Y-145437656D01*
X70536923Y-145437656D02*
X70632161Y-145413846D01*
X70632161Y-145413846D02*
X70727400Y-145366227D01*
X70727400Y-145366227D02*
X70775019Y-145294799D01*
X70775019Y-145294799D02*
X70775019Y-145175751D01*
X68179780Y-152437655D02*
X68227400Y-152413846D01*
X68227400Y-152413846D02*
X68275019Y-152342417D01*
X68275019Y-152342417D02*
X68275019Y-152294798D01*
X68275019Y-152294798D02*
X68227400Y-152223370D01*
X68227400Y-152223370D02*
X68132161Y-152175751D01*
X68132161Y-152175751D02*
X68036923Y-152151941D01*
X68036923Y-152151941D02*
X67846447Y-152128132D01*
X67846447Y-152128132D02*
X67703590Y-152128132D01*
X67703590Y-152128132D02*
X67513114Y-152151941D01*
X67513114Y-152151941D02*
X67417876Y-152175751D01*
X67417876Y-152175751D02*
X67322638Y-152223370D01*
X67322638Y-152223370D02*
X67275019Y-152294798D01*
X67275019Y-152294798D02*
X67275019Y-152342417D01*
X67275019Y-152342417D02*
X67322638Y-152413846D01*
X67322638Y-152413846D02*
X67370257Y-152437655D01*
X67370257Y-152628132D02*
X67322638Y-152651941D01*
X67322638Y-152651941D02*
X67275019Y-152699560D01*
X67275019Y-152699560D02*
X67275019Y-152818608D01*
X67275019Y-152818608D02*
X67322638Y-152866227D01*
X67322638Y-152866227D02*
X67370257Y-152890036D01*
X67370257Y-152890036D02*
X67465495Y-152913846D01*
X67465495Y-152913846D02*
X67560733Y-152913846D01*
X67560733Y-152913846D02*
X67703590Y-152890036D01*
X67703590Y-152890036D02*
X68275019Y-152604322D01*
X68275019Y-152604322D02*
X68275019Y-152913846D01*
X68179780Y-155037655D02*
X68227400Y-155013846D01*
X68227400Y-155013846D02*
X68275019Y-154942417D01*
X68275019Y-154942417D02*
X68275019Y-154894798D01*
X68275019Y-154894798D02*
X68227400Y-154823370D01*
X68227400Y-154823370D02*
X68132161Y-154775751D01*
X68132161Y-154775751D02*
X68036923Y-154751941D01*
X68036923Y-154751941D02*
X67846447Y-154728132D01*
X67846447Y-154728132D02*
X67703590Y-154728132D01*
X67703590Y-154728132D02*
X67513114Y-154751941D01*
X67513114Y-154751941D02*
X67417876Y-154775751D01*
X67417876Y-154775751D02*
X67322638Y-154823370D01*
X67322638Y-154823370D02*
X67275019Y-154894798D01*
X67275019Y-154894798D02*
X67275019Y-154942417D01*
X67275019Y-154942417D02*
X67322638Y-155013846D01*
X67322638Y-155013846D02*
X67370257Y-155037655D01*
X67275019Y-155204322D02*
X67275019Y-155513846D01*
X67275019Y-155513846D02*
X67655971Y-155347179D01*
X67655971Y-155347179D02*
X67655971Y-155418608D01*
X67655971Y-155418608D02*
X67703590Y-155466227D01*
X67703590Y-155466227D02*
X67751209Y-155490036D01*
X67751209Y-155490036D02*
X67846447Y-155513846D01*
X67846447Y-155513846D02*
X68084542Y-155513846D01*
X68084542Y-155513846D02*
X68179780Y-155490036D01*
X68179780Y-155490036D02*
X68227400Y-155466227D01*
X68227400Y-155466227D02*
X68275019Y-155418608D01*
X68275019Y-155418608D02*
X68275019Y-155275751D01*
X68275019Y-155275751D02*
X68227400Y-155228132D01*
X68227400Y-155228132D02*
X68179780Y-155204322D01*
X67894066Y-141751941D02*
X67894066Y-142132894D01*
X68275019Y-142394799D02*
X68275019Y-142490037D01*
X68275019Y-142490037D02*
X68227400Y-142537656D01*
X68227400Y-142537656D02*
X68179780Y-142561465D01*
X68179780Y-142561465D02*
X68036923Y-142609084D01*
X68036923Y-142609084D02*
X67846447Y-142632894D01*
X67846447Y-142632894D02*
X67465495Y-142632894D01*
X67465495Y-142632894D02*
X67370257Y-142609084D01*
X67370257Y-142609084D02*
X67322638Y-142585275D01*
X67322638Y-142585275D02*
X67275019Y-142537656D01*
X67275019Y-142537656D02*
X67275019Y-142442418D01*
X67275019Y-142442418D02*
X67322638Y-142394799D01*
X67322638Y-142394799D02*
X67370257Y-142370989D01*
X67370257Y-142370989D02*
X67465495Y-142347180D01*
X67465495Y-142347180D02*
X67703590Y-142347180D01*
X67703590Y-142347180D02*
X67798828Y-142370989D01*
X67798828Y-142370989D02*
X67846447Y-142394799D01*
X67846447Y-142394799D02*
X67894066Y-142442418D01*
X67894066Y-142442418D02*
X67894066Y-142537656D01*
X67894066Y-142537656D02*
X67846447Y-142585275D01*
X67846447Y-142585275D02*
X67798828Y-142609084D01*
X67798828Y-142609084D02*
X67703590Y-142632894D01*
X67275019Y-142775751D02*
X68275019Y-142942417D01*
X68275019Y-142942417D02*
X67275019Y-143109084D01*
X70679780Y-154937655D02*
X70727400Y-154913846D01*
X70727400Y-154913846D02*
X70775019Y-154842417D01*
X70775019Y-154842417D02*
X70775019Y-154794798D01*
X70775019Y-154794798D02*
X70727400Y-154723370D01*
X70727400Y-154723370D02*
X70632161Y-154675751D01*
X70632161Y-154675751D02*
X70536923Y-154651941D01*
X70536923Y-154651941D02*
X70346447Y-154628132D01*
X70346447Y-154628132D02*
X70203590Y-154628132D01*
X70203590Y-154628132D02*
X70013114Y-154651941D01*
X70013114Y-154651941D02*
X69917876Y-154675751D01*
X69917876Y-154675751D02*
X69822638Y-154723370D01*
X69822638Y-154723370D02*
X69775019Y-154794798D01*
X69775019Y-154794798D02*
X69775019Y-154842417D01*
X69775019Y-154842417D02*
X69822638Y-154913846D01*
X69822638Y-154913846D02*
X69870257Y-154937655D01*
X69775019Y-155104322D02*
X69775019Y-155437655D01*
X69775019Y-155437655D02*
X70775019Y-155223370D01*
D11*
X122784885Y-155845489D02*
X122784885Y-155345489D01*
X121999171Y-155131203D02*
X121999171Y-155845489D01*
X121999171Y-155845489D02*
X123499171Y-155845489D01*
X123499171Y-155845489D02*
X123499171Y-155131203D01*
X123356314Y-154559774D02*
X123427742Y-154488346D01*
X123427742Y-154488346D02*
X123499171Y-154345489D01*
X123499171Y-154345489D02*
X123499171Y-153988346D01*
X123499171Y-153988346D02*
X123427742Y-153845489D01*
X123427742Y-153845489D02*
X123356314Y-153774060D01*
X123356314Y-153774060D02*
X123213457Y-153702631D01*
X123213457Y-153702631D02*
X123070600Y-153702631D01*
X123070600Y-153702631D02*
X122856314Y-153774060D01*
X122856314Y-153774060D02*
X121999171Y-154631203D01*
X121999171Y-154631203D02*
X121999171Y-153702631D01*
D10*
X70679780Y-152337655D02*
X70727400Y-152313846D01*
X70727400Y-152313846D02*
X70775019Y-152242417D01*
X70775019Y-152242417D02*
X70775019Y-152194798D01*
X70775019Y-152194798D02*
X70727400Y-152123370D01*
X70727400Y-152123370D02*
X70632161Y-152075751D01*
X70632161Y-152075751D02*
X70536923Y-152051941D01*
X70536923Y-152051941D02*
X70346447Y-152028132D01*
X70346447Y-152028132D02*
X70203590Y-152028132D01*
X70203590Y-152028132D02*
X70013114Y-152051941D01*
X70013114Y-152051941D02*
X69917876Y-152075751D01*
X69917876Y-152075751D02*
X69822638Y-152123370D01*
X69822638Y-152123370D02*
X69775019Y-152194798D01*
X69775019Y-152194798D02*
X69775019Y-152242417D01*
X69775019Y-152242417D02*
X69822638Y-152313846D01*
X69822638Y-152313846D02*
X69870257Y-152337655D01*
X69775019Y-152766227D02*
X69775019Y-152670989D01*
X69775019Y-152670989D02*
X69822638Y-152623370D01*
X69822638Y-152623370D02*
X69870257Y-152599560D01*
X69870257Y-152599560D02*
X70013114Y-152551941D01*
X70013114Y-152551941D02*
X70203590Y-152528132D01*
X70203590Y-152528132D02*
X70584542Y-152528132D01*
X70584542Y-152528132D02*
X70679780Y-152551941D01*
X70679780Y-152551941D02*
X70727400Y-152575751D01*
X70727400Y-152575751D02*
X70775019Y-152623370D01*
X70775019Y-152623370D02*
X70775019Y-152718608D01*
X70775019Y-152718608D02*
X70727400Y-152766227D01*
X70727400Y-152766227D02*
X70679780Y-152790036D01*
X70679780Y-152790036D02*
X70584542Y-152813846D01*
X70584542Y-152813846D02*
X70346447Y-152813846D01*
X70346447Y-152813846D02*
X70251209Y-152790036D01*
X70251209Y-152790036D02*
X70203590Y-152766227D01*
X70203590Y-152766227D02*
X70155971Y-152718608D01*
X70155971Y-152718608D02*
X70155971Y-152623370D01*
X70155971Y-152623370D02*
X70203590Y-152575751D01*
X70203590Y-152575751D02*
X70251209Y-152551941D01*
X70251209Y-152551941D02*
X70346447Y-152528132D01*
X69775019Y-139080513D02*
X70775019Y-139247179D01*
X70775019Y-139247179D02*
X69775019Y-139413846D01*
X70775019Y-139580512D02*
X70108352Y-139580512D01*
X70298828Y-139580512D02*
X70203590Y-139604322D01*
X70203590Y-139604322D02*
X70155971Y-139628131D01*
X70155971Y-139628131D02*
X70108352Y-139675750D01*
X70108352Y-139675750D02*
X70108352Y-139723369D01*
X70727400Y-140080512D02*
X70775019Y-140032893D01*
X70775019Y-140032893D02*
X70775019Y-139937655D01*
X70775019Y-139937655D02*
X70727400Y-139890036D01*
X70727400Y-139890036D02*
X70632161Y-139866227D01*
X70632161Y-139866227D02*
X70251209Y-139866227D01*
X70251209Y-139866227D02*
X70155971Y-139890036D01*
X70155971Y-139890036D02*
X70108352Y-139937655D01*
X70108352Y-139937655D02*
X70108352Y-140032893D01*
X70108352Y-140032893D02*
X70155971Y-140080512D01*
X70155971Y-140080512D02*
X70251209Y-140104322D01*
X70251209Y-140104322D02*
X70346447Y-140104322D01*
X70346447Y-140104322D02*
X70441685Y-139866227D01*
X70108352Y-140247179D02*
X70108352Y-140437655D01*
X70775019Y-140318607D02*
X69917876Y-140318607D01*
X69917876Y-140318607D02*
X69822638Y-140342417D01*
X69822638Y-140342417D02*
X69775019Y-140390036D01*
X69775019Y-140390036D02*
X69775019Y-140437655D01*
X67751209Y-147151941D02*
X67751209Y-147318608D01*
X68275019Y-147390036D02*
X68275019Y-147151941D01*
X68275019Y-147151941D02*
X67275019Y-147151941D01*
X67275019Y-147151941D02*
X67275019Y-147390036D01*
X68275019Y-147866227D02*
X68275019Y-147580513D01*
X68275019Y-147723370D02*
X67275019Y-147723370D01*
X67275019Y-147723370D02*
X67417876Y-147675751D01*
X67417876Y-147675751D02*
X67513114Y-147628132D01*
X67513114Y-147628132D02*
X67560733Y-147580513D01*
X70775019Y-159223370D02*
X70727400Y-159175751D01*
X70727400Y-159175751D02*
X70679780Y-159151941D01*
X70679780Y-159151941D02*
X70584542Y-159128132D01*
X70584542Y-159128132D02*
X70298828Y-159128132D01*
X70298828Y-159128132D02*
X70203590Y-159151941D01*
X70203590Y-159151941D02*
X70155971Y-159175751D01*
X70155971Y-159175751D02*
X70108352Y-159223370D01*
X70108352Y-159223370D02*
X70108352Y-159294798D01*
X70108352Y-159294798D02*
X70155971Y-159342417D01*
X70155971Y-159342417D02*
X70203590Y-159366227D01*
X70203590Y-159366227D02*
X70298828Y-159390036D01*
X70298828Y-159390036D02*
X70584542Y-159390036D01*
X70584542Y-159390036D02*
X70679780Y-159366227D01*
X70679780Y-159366227D02*
X70727400Y-159342417D01*
X70727400Y-159342417D02*
X70775019Y-159294798D01*
X70775019Y-159294798D02*
X70775019Y-159223370D01*
X70108352Y-159818608D02*
X70775019Y-159818608D01*
X70108352Y-159604322D02*
X70632161Y-159604322D01*
X70632161Y-159604322D02*
X70727400Y-159628132D01*
X70727400Y-159628132D02*
X70775019Y-159675751D01*
X70775019Y-159675751D02*
X70775019Y-159747179D01*
X70775019Y-159747179D02*
X70727400Y-159794798D01*
X70727400Y-159794798D02*
X70679780Y-159818608D01*
X70108352Y-159985275D02*
X70108352Y-160175751D01*
X69775019Y-160056703D02*
X70632161Y-160056703D01*
X70632161Y-160056703D02*
X70727400Y-160080513D01*
X70727400Y-160080513D02*
X70775019Y-160128132D01*
X70775019Y-160128132D02*
X70775019Y-160175751D01*
X70870257Y-160223370D02*
X70870257Y-160604322D01*
X69870257Y-160699560D02*
X69822638Y-160723369D01*
X69822638Y-160723369D02*
X69775019Y-160770988D01*
X69775019Y-160770988D02*
X69775019Y-160890036D01*
X69775019Y-160890036D02*
X69822638Y-160937655D01*
X69822638Y-160937655D02*
X69870257Y-160961464D01*
X69870257Y-160961464D02*
X69965495Y-160985274D01*
X69965495Y-160985274D02*
X70060733Y-160985274D01*
X70060733Y-160985274D02*
X70203590Y-160961464D01*
X70203590Y-160961464D02*
X70775019Y-160675750D01*
X70775019Y-160675750D02*
X70775019Y-160985274D01*
D12*
X122032763Y-137748496D02*
X121985144Y-137777068D01*
X121985144Y-137777068D02*
X121937524Y-137862782D01*
X121937524Y-137862782D02*
X121937524Y-137919925D01*
X121937524Y-137919925D02*
X121985144Y-138005639D01*
X121985144Y-138005639D02*
X122080382Y-138062782D01*
X122080382Y-138062782D02*
X122175620Y-138091353D01*
X122175620Y-138091353D02*
X122366096Y-138119925D01*
X122366096Y-138119925D02*
X122508953Y-138119925D01*
X122508953Y-138119925D02*
X122699429Y-138091353D01*
X122699429Y-138091353D02*
X122794667Y-138062782D01*
X122794667Y-138062782D02*
X122889905Y-138005639D01*
X122889905Y-138005639D02*
X122937524Y-137919925D01*
X122937524Y-137919925D02*
X122937524Y-137862782D01*
X122937524Y-137862782D02*
X122889905Y-137777068D01*
X122889905Y-137777068D02*
X122842286Y-137748496D01*
X121985144Y-137519925D02*
X121937524Y-137434211D01*
X121937524Y-137434211D02*
X121937524Y-137291353D01*
X121937524Y-137291353D02*
X121985144Y-137234211D01*
X121985144Y-137234211D02*
X122032763Y-137205639D01*
X122032763Y-137205639D02*
X122128001Y-137177068D01*
X122128001Y-137177068D02*
X122223239Y-137177068D01*
X122223239Y-137177068D02*
X122318477Y-137205639D01*
X122318477Y-137205639D02*
X122366096Y-137234211D01*
X122366096Y-137234211D02*
X122413715Y-137291353D01*
X122413715Y-137291353D02*
X122461334Y-137405639D01*
X122461334Y-137405639D02*
X122508953Y-137462782D01*
X122508953Y-137462782D02*
X122556572Y-137491353D01*
X122556572Y-137491353D02*
X122651810Y-137519925D01*
X122651810Y-137519925D02*
X122747048Y-137519925D01*
X122747048Y-137519925D02*
X122842286Y-137491353D01*
X122842286Y-137491353D02*
X122889905Y-137462782D01*
X122889905Y-137462782D02*
X122937524Y-137405639D01*
X122937524Y-137405639D02*
X122937524Y-137262782D01*
X122937524Y-137262782D02*
X122889905Y-137177068D01*
X122318477Y-136919924D02*
X122318477Y-136462782D01*
X122032763Y-135834210D02*
X121985144Y-135862782D01*
X121985144Y-135862782D02*
X121937524Y-135948496D01*
X121937524Y-135948496D02*
X121937524Y-136005639D01*
X121937524Y-136005639D02*
X121985144Y-136091353D01*
X121985144Y-136091353D02*
X122080382Y-136148496D01*
X122080382Y-136148496D02*
X122175620Y-136177067D01*
X122175620Y-136177067D02*
X122366096Y-136205639D01*
X122366096Y-136205639D02*
X122508953Y-136205639D01*
X122508953Y-136205639D02*
X122699429Y-136177067D01*
X122699429Y-136177067D02*
X122794667Y-136148496D01*
X122794667Y-136148496D02*
X122889905Y-136091353D01*
X122889905Y-136091353D02*
X122937524Y-136005639D01*
X122937524Y-136005639D02*
X122937524Y-135948496D01*
X122937524Y-135948496D02*
X122889905Y-135862782D01*
X122889905Y-135862782D02*
X122842286Y-135834210D01*
X121937524Y-135491353D02*
X121985144Y-135548496D01*
X121985144Y-135548496D02*
X122032763Y-135577067D01*
X122032763Y-135577067D02*
X122128001Y-135605639D01*
X122128001Y-135605639D02*
X122413715Y-135605639D01*
X122413715Y-135605639D02*
X122508953Y-135577067D01*
X122508953Y-135577067D02*
X122556572Y-135548496D01*
X122556572Y-135548496D02*
X122604191Y-135491353D01*
X122604191Y-135491353D02*
X122604191Y-135405639D01*
X122604191Y-135405639D02*
X122556572Y-135348496D01*
X122556572Y-135348496D02*
X122508953Y-135319925D01*
X122508953Y-135319925D02*
X122413715Y-135291353D01*
X122413715Y-135291353D02*
X122128001Y-135291353D01*
X122128001Y-135291353D02*
X122032763Y-135319925D01*
X122032763Y-135319925D02*
X121985144Y-135348496D01*
X121985144Y-135348496D02*
X121937524Y-135405639D01*
X121937524Y-135405639D02*
X121937524Y-135491353D01*
X121937524Y-135034210D02*
X122604191Y-135034210D01*
X122508953Y-135034210D02*
X122556572Y-135005639D01*
X122556572Y-135005639D02*
X122604191Y-134948496D01*
X122604191Y-134948496D02*
X122604191Y-134862782D01*
X122604191Y-134862782D02*
X122556572Y-134805639D01*
X122556572Y-134805639D02*
X122461334Y-134777068D01*
X122461334Y-134777068D02*
X121937524Y-134777068D01*
X122461334Y-134777068D02*
X122556572Y-134748496D01*
X122556572Y-134748496D02*
X122604191Y-134691353D01*
X122604191Y-134691353D02*
X122604191Y-134605639D01*
X122604191Y-134605639D02*
X122556572Y-134548496D01*
X122556572Y-134548496D02*
X122461334Y-134519925D01*
X122461334Y-134519925D02*
X121937524Y-134519925D01*
X122604191Y-134234210D02*
X121604191Y-134234210D01*
X122556572Y-134234210D02*
X122604191Y-134177068D01*
X122604191Y-134177068D02*
X122604191Y-134062782D01*
X122604191Y-134062782D02*
X122556572Y-134005639D01*
X122556572Y-134005639D02*
X122508953Y-133977068D01*
X122508953Y-133977068D02*
X122413715Y-133948496D01*
X122413715Y-133948496D02*
X122128001Y-133948496D01*
X122128001Y-133948496D02*
X122032763Y-133977068D01*
X122032763Y-133977068D02*
X121985144Y-134005639D01*
X121985144Y-134005639D02*
X121937524Y-134062782D01*
X121937524Y-134062782D02*
X121937524Y-134177068D01*
X121937524Y-134177068D02*
X121985144Y-134234210D01*
X121937524Y-133434211D02*
X122461334Y-133434211D01*
X122461334Y-133434211D02*
X122556572Y-133462782D01*
X122556572Y-133462782D02*
X122604191Y-133519925D01*
X122604191Y-133519925D02*
X122604191Y-133634211D01*
X122604191Y-133634211D02*
X122556572Y-133691353D01*
X121985144Y-133434211D02*
X121937524Y-133491353D01*
X121937524Y-133491353D02*
X121937524Y-133634211D01*
X121937524Y-133634211D02*
X121985144Y-133691353D01*
X121985144Y-133691353D02*
X122080382Y-133719925D01*
X122080382Y-133719925D02*
X122175620Y-133719925D01*
X122175620Y-133719925D02*
X122270858Y-133691353D01*
X122270858Y-133691353D02*
X122318477Y-133634211D01*
X122318477Y-133634211D02*
X122318477Y-133491353D01*
X122318477Y-133491353D02*
X122366096Y-133434211D01*
X121985144Y-132891354D02*
X121937524Y-132948496D01*
X121937524Y-132948496D02*
X121937524Y-133062782D01*
X121937524Y-133062782D02*
X121985144Y-133119925D01*
X121985144Y-133119925D02*
X122032763Y-133148496D01*
X122032763Y-133148496D02*
X122128001Y-133177068D01*
X122128001Y-133177068D02*
X122413715Y-133177068D01*
X122413715Y-133177068D02*
X122508953Y-133148496D01*
X122508953Y-133148496D02*
X122556572Y-133119925D01*
X122556572Y-133119925D02*
X122604191Y-133062782D01*
X122604191Y-133062782D02*
X122604191Y-132948496D01*
X122604191Y-132948496D02*
X122556572Y-132891354D01*
X121327580Y-138177068D02*
X120327580Y-137977068D01*
X120327580Y-137977068D02*
X121327580Y-137777068D01*
X121327580Y-137462782D02*
X121327580Y-137405639D01*
X121327580Y-137405639D02*
X121279961Y-137348496D01*
X121279961Y-137348496D02*
X121232342Y-137319925D01*
X121232342Y-137319925D02*
X121137104Y-137291353D01*
X121137104Y-137291353D02*
X120946628Y-137262782D01*
X120946628Y-137262782D02*
X120708533Y-137262782D01*
X120708533Y-137262782D02*
X120518057Y-137291353D01*
X120518057Y-137291353D02*
X120422819Y-137319925D01*
X120422819Y-137319925D02*
X120375200Y-137348496D01*
X120375200Y-137348496D02*
X120327580Y-137405639D01*
X120327580Y-137405639D02*
X120327580Y-137462782D01*
X120327580Y-137462782D02*
X120375200Y-137519925D01*
X120375200Y-137519925D02*
X120422819Y-137548496D01*
X120422819Y-137548496D02*
X120518057Y-137577067D01*
X120518057Y-137577067D02*
X120708533Y-137605639D01*
X120708533Y-137605639D02*
X120946628Y-137605639D01*
X120946628Y-137605639D02*
X121137104Y-137577067D01*
X121137104Y-137577067D02*
X121232342Y-137548496D01*
X121232342Y-137548496D02*
X121279961Y-137519925D01*
X121279961Y-137519925D02*
X121327580Y-137462782D01*
X121327580Y-137062781D02*
X121327580Y-136691353D01*
X121327580Y-136691353D02*
X120946628Y-136891353D01*
X120946628Y-136891353D02*
X120946628Y-136805638D01*
X120946628Y-136805638D02*
X120899009Y-136748496D01*
X120899009Y-136748496D02*
X120851390Y-136719924D01*
X120851390Y-136719924D02*
X120756152Y-136691353D01*
X120756152Y-136691353D02*
X120518057Y-136691353D01*
X120518057Y-136691353D02*
X120422819Y-136719924D01*
X120422819Y-136719924D02*
X120375200Y-136748496D01*
X120375200Y-136748496D02*
X120327580Y-136805638D01*
X120327580Y-136805638D02*
X120327580Y-136977067D01*
X120327580Y-136977067D02*
X120375200Y-137034210D01*
X120375200Y-137034210D02*
X120422819Y-137062781D01*
X120327580Y-136177067D02*
X120851390Y-136177067D01*
X120851390Y-136177067D02*
X120946628Y-136205638D01*
X120946628Y-136205638D02*
X120994247Y-136262781D01*
X120994247Y-136262781D02*
X120994247Y-136377067D01*
X120994247Y-136377067D02*
X120946628Y-136434209D01*
X120375200Y-136177067D02*
X120327580Y-136234209D01*
X120327580Y-136234209D02*
X120327580Y-136377067D01*
X120327580Y-136377067D02*
X120375200Y-136434209D01*
X120375200Y-136434209D02*
X120470438Y-136462781D01*
X120470438Y-136462781D02*
X120565676Y-136462781D01*
X120565676Y-136462781D02*
X120660914Y-136434209D01*
X120660914Y-136434209D02*
X120708533Y-136377067D01*
X120708533Y-136377067D02*
X120708533Y-136234209D01*
X120708533Y-136234209D02*
X120756152Y-136177067D01*
X120708533Y-135891352D02*
X120708533Y-135434210D01*
X121232342Y-135177067D02*
X121279961Y-135148495D01*
X121279961Y-135148495D02*
X121327580Y-135091353D01*
X121327580Y-135091353D02*
X121327580Y-134948495D01*
X121327580Y-134948495D02*
X121279961Y-134891353D01*
X121279961Y-134891353D02*
X121232342Y-134862781D01*
X121232342Y-134862781D02*
X121137104Y-134834210D01*
X121137104Y-134834210D02*
X121041866Y-134834210D01*
X121041866Y-134834210D02*
X120899009Y-134862781D01*
X120899009Y-134862781D02*
X120327580Y-135205638D01*
X120327580Y-135205638D02*
X120327580Y-134834210D01*
X121327580Y-134462781D02*
X121327580Y-134405638D01*
X121327580Y-134405638D02*
X121279961Y-134348495D01*
X121279961Y-134348495D02*
X121232342Y-134319924D01*
X121232342Y-134319924D02*
X121137104Y-134291352D01*
X121137104Y-134291352D02*
X120946628Y-134262781D01*
X120946628Y-134262781D02*
X120708533Y-134262781D01*
X120708533Y-134262781D02*
X120518057Y-134291352D01*
X120518057Y-134291352D02*
X120422819Y-134319924D01*
X120422819Y-134319924D02*
X120375200Y-134348495D01*
X120375200Y-134348495D02*
X120327580Y-134405638D01*
X120327580Y-134405638D02*
X120327580Y-134462781D01*
X120327580Y-134462781D02*
X120375200Y-134519924D01*
X120375200Y-134519924D02*
X120422819Y-134548495D01*
X120422819Y-134548495D02*
X120518057Y-134577066D01*
X120518057Y-134577066D02*
X120708533Y-134605638D01*
X120708533Y-134605638D02*
X120946628Y-134605638D01*
X120946628Y-134605638D02*
X121137104Y-134577066D01*
X121137104Y-134577066D02*
X121232342Y-134548495D01*
X121232342Y-134548495D02*
X121279961Y-134519924D01*
X121279961Y-134519924D02*
X121327580Y-134462781D01*
X121232342Y-134034209D02*
X121279961Y-134005637D01*
X121279961Y-134005637D02*
X121327580Y-133948495D01*
X121327580Y-133948495D02*
X121327580Y-133805637D01*
X121327580Y-133805637D02*
X121279961Y-133748495D01*
X121279961Y-133748495D02*
X121232342Y-133719923D01*
X121232342Y-133719923D02*
X121137104Y-133691352D01*
X121137104Y-133691352D02*
X121041866Y-133691352D01*
X121041866Y-133691352D02*
X120899009Y-133719923D01*
X120899009Y-133719923D02*
X120327580Y-134062780D01*
X120327580Y-134062780D02*
X120327580Y-133691352D01*
X121327580Y-133148494D02*
X121327580Y-133434208D01*
X121327580Y-133434208D02*
X120851390Y-133462780D01*
X120851390Y-133462780D02*
X120899009Y-133434208D01*
X120899009Y-133434208D02*
X120946628Y-133377066D01*
X120946628Y-133377066D02*
X120946628Y-133234208D01*
X120946628Y-133234208D02*
X120899009Y-133177066D01*
X120899009Y-133177066D02*
X120851390Y-133148494D01*
X120851390Y-133148494D02*
X120756152Y-133119923D01*
X120756152Y-133119923D02*
X120518057Y-133119923D01*
X120518057Y-133119923D02*
X120422819Y-133148494D01*
X120422819Y-133148494D02*
X120375200Y-133177066D01*
X120375200Y-133177066D02*
X120327580Y-133234208D01*
X120327580Y-133234208D02*
X120327580Y-133377066D01*
X120327580Y-133377066D02*
X120375200Y-133434208D01*
X120375200Y-133434208D02*
X120422819Y-133462780D01*
D10*
X69822638Y-141913846D02*
X69775019Y-141866227D01*
X69775019Y-141866227D02*
X69775019Y-141794798D01*
X69775019Y-141794798D02*
X69822638Y-141723370D01*
X69822638Y-141723370D02*
X69917876Y-141675751D01*
X69917876Y-141675751D02*
X70013114Y-141651941D01*
X70013114Y-141651941D02*
X70203590Y-141628132D01*
X70203590Y-141628132D02*
X70346447Y-141628132D01*
X70346447Y-141628132D02*
X70536923Y-141651941D01*
X70536923Y-141651941D02*
X70632161Y-141675751D01*
X70632161Y-141675751D02*
X70727400Y-141723370D01*
X70727400Y-141723370D02*
X70775019Y-141794798D01*
X70775019Y-141794798D02*
X70775019Y-141842417D01*
X70775019Y-141842417D02*
X70727400Y-141913846D01*
X70727400Y-141913846D02*
X70679780Y-141937655D01*
X70679780Y-141937655D02*
X70346447Y-141937655D01*
X70346447Y-141937655D02*
X70346447Y-141842417D01*
X70775019Y-142151941D02*
X69775019Y-142151941D01*
X69775019Y-142151941D02*
X70775019Y-142437655D01*
X70775019Y-142437655D02*
X69775019Y-142437655D01*
X70775019Y-142675751D02*
X69775019Y-142675751D01*
X69775019Y-142675751D02*
X69775019Y-142794799D01*
X69775019Y-142794799D02*
X69822638Y-142866227D01*
X69822638Y-142866227D02*
X69917876Y-142913846D01*
X69917876Y-142913846D02*
X70013114Y-142937656D01*
X70013114Y-142937656D02*
X70203590Y-142961465D01*
X70203590Y-142961465D02*
X70346447Y-142961465D01*
X70346447Y-142961465D02*
X70536923Y-142937656D01*
X70536923Y-142937656D02*
X70632161Y-142913846D01*
X70632161Y-142913846D02*
X70727400Y-142866227D01*
X70727400Y-142866227D02*
X70775019Y-142794799D01*
X70775019Y-142794799D02*
X70775019Y-142675751D01*
X67894066Y-139151941D02*
X67894066Y-139532894D01*
X68275019Y-139342417D02*
X67513114Y-139342417D01*
X68275019Y-139794799D02*
X68275019Y-139890037D01*
X68275019Y-139890037D02*
X68227400Y-139937656D01*
X68227400Y-139937656D02*
X68179780Y-139961465D01*
X68179780Y-139961465D02*
X68036923Y-140009084D01*
X68036923Y-140009084D02*
X67846447Y-140032894D01*
X67846447Y-140032894D02*
X67465495Y-140032894D01*
X67465495Y-140032894D02*
X67370257Y-140009084D01*
X67370257Y-140009084D02*
X67322638Y-139985275D01*
X67322638Y-139985275D02*
X67275019Y-139937656D01*
X67275019Y-139937656D02*
X67275019Y-139842418D01*
X67275019Y-139842418D02*
X67322638Y-139794799D01*
X67322638Y-139794799D02*
X67370257Y-139770989D01*
X67370257Y-139770989D02*
X67465495Y-139747180D01*
X67465495Y-139747180D02*
X67703590Y-139747180D01*
X67703590Y-139747180D02*
X67798828Y-139770989D01*
X67798828Y-139770989D02*
X67846447Y-139794799D01*
X67846447Y-139794799D02*
X67894066Y-139842418D01*
X67894066Y-139842418D02*
X67894066Y-139937656D01*
X67894066Y-139937656D02*
X67846447Y-139985275D01*
X67846447Y-139985275D02*
X67798828Y-140009084D01*
X67798828Y-140009084D02*
X67703590Y-140032894D01*
X67275019Y-140175751D02*
X68275019Y-140342417D01*
X68275019Y-140342417D02*
X67275019Y-140509084D01*
X70679780Y-157437655D02*
X70727400Y-157413846D01*
X70727400Y-157413846D02*
X70775019Y-157342417D01*
X70775019Y-157342417D02*
X70775019Y-157294798D01*
X70775019Y-157294798D02*
X70727400Y-157223370D01*
X70727400Y-157223370D02*
X70632161Y-157175751D01*
X70632161Y-157175751D02*
X70536923Y-157151941D01*
X70536923Y-157151941D02*
X70346447Y-157128132D01*
X70346447Y-157128132D02*
X70203590Y-157128132D01*
X70203590Y-157128132D02*
X70013114Y-157151941D01*
X70013114Y-157151941D02*
X69917876Y-157175751D01*
X69917876Y-157175751D02*
X69822638Y-157223370D01*
X69822638Y-157223370D02*
X69775019Y-157294798D01*
X69775019Y-157294798D02*
X69775019Y-157342417D01*
X69775019Y-157342417D02*
X69822638Y-157413846D01*
X69822638Y-157413846D02*
X69870257Y-157437655D01*
X70203590Y-157723370D02*
X70155971Y-157675751D01*
X70155971Y-157675751D02*
X70108352Y-157651941D01*
X70108352Y-157651941D02*
X70013114Y-157628132D01*
X70013114Y-157628132D02*
X69965495Y-157628132D01*
X69965495Y-157628132D02*
X69870257Y-157651941D01*
X69870257Y-157651941D02*
X69822638Y-157675751D01*
X69822638Y-157675751D02*
X69775019Y-157723370D01*
X69775019Y-157723370D02*
X69775019Y-157818608D01*
X69775019Y-157818608D02*
X69822638Y-157866227D01*
X69822638Y-157866227D02*
X69870257Y-157890036D01*
X69870257Y-157890036D02*
X69965495Y-157913846D01*
X69965495Y-157913846D02*
X70013114Y-157913846D01*
X70013114Y-157913846D02*
X70108352Y-157890036D01*
X70108352Y-157890036D02*
X70155971Y-157866227D01*
X70155971Y-157866227D02*
X70203590Y-157818608D01*
X70203590Y-157818608D02*
X70203590Y-157723370D01*
X70203590Y-157723370D02*
X70251209Y-157675751D01*
X70251209Y-157675751D02*
X70298828Y-157651941D01*
X70298828Y-157651941D02*
X70394066Y-157628132D01*
X70394066Y-157628132D02*
X70584542Y-157628132D01*
X70584542Y-157628132D02*
X70679780Y-157651941D01*
X70679780Y-157651941D02*
X70727400Y-157675751D01*
X70727400Y-157675751D02*
X70775019Y-157723370D01*
X70775019Y-157723370D02*
X70775019Y-157818608D01*
X70775019Y-157818608D02*
X70727400Y-157866227D01*
X70727400Y-157866227D02*
X70679780Y-157890036D01*
X70679780Y-157890036D02*
X70584542Y-157913846D01*
X70584542Y-157913846D02*
X70394066Y-157913846D01*
X70394066Y-157913846D02*
X70298828Y-157890036D01*
X70298828Y-157890036D02*
X70251209Y-157866227D01*
X70251209Y-157866227D02*
X70203590Y-157818608D01*
X68179780Y-149937655D02*
X68227400Y-149913846D01*
X68227400Y-149913846D02*
X68275019Y-149842417D01*
X68275019Y-149842417D02*
X68275019Y-149794798D01*
X68275019Y-149794798D02*
X68227400Y-149723370D01*
X68227400Y-149723370D02*
X68132161Y-149675751D01*
X68132161Y-149675751D02*
X68036923Y-149651941D01*
X68036923Y-149651941D02*
X67846447Y-149628132D01*
X67846447Y-149628132D02*
X67703590Y-149628132D01*
X67703590Y-149628132D02*
X67513114Y-149651941D01*
X67513114Y-149651941D02*
X67417876Y-149675751D01*
X67417876Y-149675751D02*
X67322638Y-149723370D01*
X67322638Y-149723370D02*
X67275019Y-149794798D01*
X67275019Y-149794798D02*
X67275019Y-149842417D01*
X67275019Y-149842417D02*
X67322638Y-149913846D01*
X67322638Y-149913846D02*
X67370257Y-149937655D01*
X68275019Y-150413846D02*
X68275019Y-150128132D01*
X68275019Y-150270989D02*
X67275019Y-150270989D01*
X67275019Y-150270989D02*
X67417876Y-150223370D01*
X67417876Y-150223370D02*
X67513114Y-150175751D01*
X67513114Y-150175751D02*
X67560733Y-150128132D01*
X70579780Y-149837655D02*
X70627400Y-149813846D01*
X70627400Y-149813846D02*
X70675019Y-149742417D01*
X70675019Y-149742417D02*
X70675019Y-149694798D01*
X70675019Y-149694798D02*
X70627400Y-149623370D01*
X70627400Y-149623370D02*
X70532161Y-149575751D01*
X70532161Y-149575751D02*
X70436923Y-149551941D01*
X70436923Y-149551941D02*
X70246447Y-149528132D01*
X70246447Y-149528132D02*
X70103590Y-149528132D01*
X70103590Y-149528132D02*
X69913114Y-149551941D01*
X69913114Y-149551941D02*
X69817876Y-149575751D01*
X69817876Y-149575751D02*
X69722638Y-149623370D01*
X69722638Y-149623370D02*
X69675019Y-149694798D01*
X69675019Y-149694798D02*
X69675019Y-149742417D01*
X69675019Y-149742417D02*
X69722638Y-149813846D01*
X69722638Y-149813846D02*
X69770257Y-149837655D01*
X69675019Y-150290036D02*
X69675019Y-150051941D01*
X69675019Y-150051941D02*
X70151209Y-150028132D01*
X70151209Y-150028132D02*
X70103590Y-150051941D01*
X70103590Y-150051941D02*
X70055971Y-150099560D01*
X70055971Y-150099560D02*
X70055971Y-150218608D01*
X70055971Y-150218608D02*
X70103590Y-150266227D01*
X70103590Y-150266227D02*
X70151209Y-150290036D01*
X70151209Y-150290036D02*
X70246447Y-150313846D01*
X70246447Y-150313846D02*
X70484542Y-150313846D01*
X70484542Y-150313846D02*
X70579780Y-150290036D01*
X70579780Y-150290036D02*
X70627400Y-150266227D01*
X70627400Y-150266227D02*
X70675019Y-150218608D01*
X70675019Y-150218608D02*
X70675019Y-150099560D01*
X70675019Y-150099560D02*
X70627400Y-150051941D01*
X70627400Y-150051941D02*
X70579780Y-150028132D01*
X68179780Y-157537655D02*
X68227400Y-157513846D01*
X68227400Y-157513846D02*
X68275019Y-157442417D01*
X68275019Y-157442417D02*
X68275019Y-157394798D01*
X68275019Y-157394798D02*
X68227400Y-157323370D01*
X68227400Y-157323370D02*
X68132161Y-157275751D01*
X68132161Y-157275751D02*
X68036923Y-157251941D01*
X68036923Y-157251941D02*
X67846447Y-157228132D01*
X67846447Y-157228132D02*
X67703590Y-157228132D01*
X67703590Y-157228132D02*
X67513114Y-157251941D01*
X67513114Y-157251941D02*
X67417876Y-157275751D01*
X67417876Y-157275751D02*
X67322638Y-157323370D01*
X67322638Y-157323370D02*
X67275019Y-157394798D01*
X67275019Y-157394798D02*
X67275019Y-157442417D01*
X67275019Y-157442417D02*
X67322638Y-157513846D01*
X67322638Y-157513846D02*
X67370257Y-157537655D01*
X67608352Y-157966227D02*
X68275019Y-157966227D01*
X67227400Y-157847179D02*
X67941685Y-157728132D01*
X67941685Y-157728132D02*
X67941685Y-158037655D01*
X67894066Y-144251941D02*
X67894066Y-144632894D01*
X68275019Y-144442417D02*
X67513114Y-144442417D01*
X67275019Y-145109084D02*
X67275019Y-144870989D01*
X67275019Y-144870989D02*
X67751209Y-144847180D01*
X67751209Y-144847180D02*
X67703590Y-144870989D01*
X67703590Y-144870989D02*
X67655971Y-144918608D01*
X67655971Y-144918608D02*
X67655971Y-145037656D01*
X67655971Y-145037656D02*
X67703590Y-145085275D01*
X67703590Y-145085275D02*
X67751209Y-145109084D01*
X67751209Y-145109084D02*
X67846447Y-145132894D01*
X67846447Y-145132894D02*
X68084542Y-145132894D01*
X68084542Y-145132894D02*
X68179780Y-145109084D01*
X68179780Y-145109084D02*
X68227400Y-145085275D01*
X68227400Y-145085275D02*
X68275019Y-145037656D01*
X68275019Y-145037656D02*
X68275019Y-144918608D01*
X68275019Y-144918608D02*
X68227400Y-144870989D01*
X68227400Y-144870989D02*
X68179780Y-144847180D01*
X67275019Y-145275751D02*
X68275019Y-145442417D01*
X68275019Y-145442417D02*
X67275019Y-145609084D01*
X70151209Y-147051941D02*
X70151209Y-147218608D01*
X70675019Y-147290036D02*
X70675019Y-147051941D01*
X70675019Y-147051941D02*
X69675019Y-147051941D01*
X69675019Y-147051941D02*
X69675019Y-147290036D01*
X69770257Y-147480513D02*
X69722638Y-147504322D01*
X69722638Y-147504322D02*
X69675019Y-147551941D01*
X69675019Y-147551941D02*
X69675019Y-147670989D01*
X69675019Y-147670989D02*
X69722638Y-147718608D01*
X69722638Y-147718608D02*
X69770257Y-147742417D01*
X69770257Y-147742417D02*
X69865495Y-147766227D01*
X69865495Y-147766227D02*
X69960733Y-147766227D01*
X69960733Y-147766227D02*
X70103590Y-147742417D01*
X70103590Y-147742417D02*
X70675019Y-147456703D01*
X70675019Y-147456703D02*
X70675019Y-147766227D01*
X68275019Y-159323370D02*
X68227400Y-159275751D01*
X68227400Y-159275751D02*
X68179780Y-159251941D01*
X68179780Y-159251941D02*
X68084542Y-159228132D01*
X68084542Y-159228132D02*
X67798828Y-159228132D01*
X67798828Y-159228132D02*
X67703590Y-159251941D01*
X67703590Y-159251941D02*
X67655971Y-159275751D01*
X67655971Y-159275751D02*
X67608352Y-159323370D01*
X67608352Y-159323370D02*
X67608352Y-159394798D01*
X67608352Y-159394798D02*
X67655971Y-159442417D01*
X67655971Y-159442417D02*
X67703590Y-159466227D01*
X67703590Y-159466227D02*
X67798828Y-159490036D01*
X67798828Y-159490036D02*
X68084542Y-159490036D01*
X68084542Y-159490036D02*
X68179780Y-159466227D01*
X68179780Y-159466227D02*
X68227400Y-159442417D01*
X68227400Y-159442417D02*
X68275019Y-159394798D01*
X68275019Y-159394798D02*
X68275019Y-159323370D01*
X67608352Y-159918608D02*
X68275019Y-159918608D01*
X67608352Y-159704322D02*
X68132161Y-159704322D01*
X68132161Y-159704322D02*
X68227400Y-159728132D01*
X68227400Y-159728132D02*
X68275019Y-159775751D01*
X68275019Y-159775751D02*
X68275019Y-159847179D01*
X68275019Y-159847179D02*
X68227400Y-159894798D01*
X68227400Y-159894798D02*
X68179780Y-159918608D01*
X67608352Y-160085275D02*
X67608352Y-160275751D01*
X67275019Y-160156703D02*
X68132161Y-160156703D01*
X68132161Y-160156703D02*
X68227400Y-160180513D01*
X68227400Y-160180513D02*
X68275019Y-160228132D01*
X68275019Y-160228132D02*
X68275019Y-160275751D01*
X68370257Y-160323370D02*
X68370257Y-160704322D01*
X68275019Y-161085274D02*
X68275019Y-160799560D01*
X68275019Y-160942417D02*
X67275019Y-160942417D01*
X67275019Y-160942417D02*
X67417876Y-160894798D01*
X67417876Y-160894798D02*
X67513114Y-160847179D01*
X67513114Y-160847179D02*
X67560733Y-160799560D01*
D11*
X122984885Y-147645489D02*
X122984885Y-147145489D01*
X122199171Y-146931203D02*
X122199171Y-147645489D01*
X122199171Y-147645489D02*
X123699171Y-147645489D01*
X123699171Y-147645489D02*
X123699171Y-146931203D01*
X122199171Y-145502631D02*
X122199171Y-146359774D01*
X122199171Y-145931203D02*
X123699171Y-145931203D01*
X123699171Y-145931203D02*
X123484885Y-146074060D01*
X123484885Y-146074060D02*
X123342028Y-146216917D01*
X123342028Y-146216917D02*
X123270600Y-146359774D01*
D13*
X95044819Y-138136248D02*
X95854342Y-138136248D01*
X95854342Y-138136248D02*
X95949580Y-138183867D01*
X95949580Y-138183867D02*
X95997200Y-138231486D01*
X95997200Y-138231486D02*
X96044819Y-138326724D01*
X96044819Y-138326724D02*
X96044819Y-138517200D01*
X96044819Y-138517200D02*
X95997200Y-138612438D01*
X95997200Y-138612438D02*
X95949580Y-138660057D01*
X95949580Y-138660057D02*
X95854342Y-138707676D01*
X95854342Y-138707676D02*
X95044819Y-138707676D01*
X95378152Y-139612438D02*
X96044819Y-139612438D01*
X94997200Y-139374343D02*
X95711485Y-139136248D01*
X95711485Y-139136248D02*
X95711485Y-139755295D01*
X95663866Y-140136248D02*
X95663866Y-140898153D01*
X95949580Y-141945771D02*
X95997200Y-141898152D01*
X95997200Y-141898152D02*
X96044819Y-141755295D01*
X96044819Y-141755295D02*
X96044819Y-141660057D01*
X96044819Y-141660057D02*
X95997200Y-141517200D01*
X95997200Y-141517200D02*
X95901961Y-141421962D01*
X95901961Y-141421962D02*
X95806723Y-141374343D01*
X95806723Y-141374343D02*
X95616247Y-141326724D01*
X95616247Y-141326724D02*
X95473390Y-141326724D01*
X95473390Y-141326724D02*
X95282914Y-141374343D01*
X95282914Y-141374343D02*
X95187676Y-141421962D01*
X95187676Y-141421962D02*
X95092438Y-141517200D01*
X95092438Y-141517200D02*
X95044819Y-141660057D01*
X95044819Y-141660057D02*
X95044819Y-141755295D01*
X95044819Y-141755295D02*
X95092438Y-141898152D01*
X95092438Y-141898152D02*
X95140057Y-141945771D01*
X96044819Y-142517200D02*
X95997200Y-142421962D01*
X95997200Y-142421962D02*
X95949580Y-142374343D01*
X95949580Y-142374343D02*
X95854342Y-142326724D01*
X95854342Y-142326724D02*
X95568628Y-142326724D01*
X95568628Y-142326724D02*
X95473390Y-142374343D01*
X95473390Y-142374343D02*
X95425771Y-142421962D01*
X95425771Y-142421962D02*
X95378152Y-142517200D01*
X95378152Y-142517200D02*
X95378152Y-142660057D01*
X95378152Y-142660057D02*
X95425771Y-142755295D01*
X95425771Y-142755295D02*
X95473390Y-142802914D01*
X95473390Y-142802914D02*
X95568628Y-142850533D01*
X95568628Y-142850533D02*
X95854342Y-142850533D01*
X95854342Y-142850533D02*
X95949580Y-142802914D01*
X95949580Y-142802914D02*
X95997200Y-142755295D01*
X95997200Y-142755295D02*
X96044819Y-142660057D01*
X96044819Y-142660057D02*
X96044819Y-142517200D01*
X95378152Y-143279105D02*
X96044819Y-143279105D01*
X95473390Y-143279105D02*
X95425771Y-143326724D01*
X95425771Y-143326724D02*
X95378152Y-143421962D01*
X95378152Y-143421962D02*
X95378152Y-143564819D01*
X95378152Y-143564819D02*
X95425771Y-143660057D01*
X95425771Y-143660057D02*
X95521009Y-143707676D01*
X95521009Y-143707676D02*
X96044819Y-143707676D01*
X96044819Y-144612438D02*
X95044819Y-144612438D01*
X95997200Y-144612438D02*
X96044819Y-144517200D01*
X96044819Y-144517200D02*
X96044819Y-144326724D01*
X96044819Y-144326724D02*
X95997200Y-144231486D01*
X95997200Y-144231486D02*
X95949580Y-144183867D01*
X95949580Y-144183867D02*
X95854342Y-144136248D01*
X95854342Y-144136248D02*
X95568628Y-144136248D01*
X95568628Y-144136248D02*
X95473390Y-144183867D01*
X95473390Y-144183867D02*
X95425771Y-144231486D01*
X95425771Y-144231486D02*
X95378152Y-144326724D01*
X95378152Y-144326724D02*
X95378152Y-144517200D01*
X95378152Y-144517200D02*
X95425771Y-144612438D01*
X95663866Y-145088629D02*
X95663866Y-145850534D01*
X95997200Y-146279105D02*
X96044819Y-146421962D01*
X96044819Y-146421962D02*
X96044819Y-146660057D01*
X96044819Y-146660057D02*
X95997200Y-146755295D01*
X95997200Y-146755295D02*
X95949580Y-146802914D01*
X95949580Y-146802914D02*
X95854342Y-146850533D01*
X95854342Y-146850533D02*
X95759104Y-146850533D01*
X95759104Y-146850533D02*
X95663866Y-146802914D01*
X95663866Y-146802914D02*
X95616247Y-146755295D01*
X95616247Y-146755295D02*
X95568628Y-146660057D01*
X95568628Y-146660057D02*
X95521009Y-146469581D01*
X95521009Y-146469581D02*
X95473390Y-146374343D01*
X95473390Y-146374343D02*
X95425771Y-146326724D01*
X95425771Y-146326724D02*
X95330533Y-146279105D01*
X95330533Y-146279105D02*
X95235295Y-146279105D01*
X95235295Y-146279105D02*
X95140057Y-146326724D01*
X95140057Y-146326724D02*
X95092438Y-146374343D01*
X95092438Y-146374343D02*
X95044819Y-146469581D01*
X95044819Y-146469581D02*
X95044819Y-146707676D01*
X95044819Y-146707676D02*
X95092438Y-146850533D01*
X96044819Y-147279105D02*
X95044819Y-147279105D01*
X95044819Y-147279105D02*
X95759104Y-147612438D01*
X95759104Y-147612438D02*
X95044819Y-147945771D01*
X95044819Y-147945771D02*
X96044819Y-147945771D01*
X96044819Y-148421962D02*
X95044819Y-148421962D01*
X95044819Y-148421962D02*
X95044819Y-148660057D01*
X95044819Y-148660057D02*
X95092438Y-148802914D01*
X95092438Y-148802914D02*
X95187676Y-148898152D01*
X95187676Y-148898152D02*
X95282914Y-148945771D01*
X95282914Y-148945771D02*
X95473390Y-148993390D01*
X95473390Y-148993390D02*
X95616247Y-148993390D01*
X95616247Y-148993390D02*
X95806723Y-148945771D01*
X95806723Y-148945771D02*
X95901961Y-148898152D01*
X95901961Y-148898152D02*
X95997200Y-148802914D01*
X95997200Y-148802914D02*
X96044819Y-148660057D01*
X96044819Y-148660057D02*
X96044819Y-148421962D01*
X96044819Y-149945771D02*
X96044819Y-149374343D01*
X96044819Y-149660057D02*
X95044819Y-149660057D01*
X95044819Y-149660057D02*
X95187676Y-149564819D01*
X95187676Y-149564819D02*
X95282914Y-149469581D01*
X95282914Y-149469581D02*
X95330533Y-149374343D01*
X91438019Y-141299400D02*
X91676114Y-141299400D01*
X91580876Y-141061305D02*
X91676114Y-141299400D01*
X91676114Y-141299400D02*
X91580876Y-141537495D01*
X91866590Y-141156543D02*
X91676114Y-141299400D01*
X91676114Y-141299400D02*
X91866590Y-141442257D01*
X91438019Y-141299400D02*
X91676114Y-141299400D01*
X91580876Y-141061305D02*
X91676114Y-141299400D01*
X91676114Y-141299400D02*
X91580876Y-141537495D01*
X91866590Y-141156543D02*
X91676114Y-141299400D01*
X91676114Y-141299400D02*
X91866590Y-141442257D01*
X109254819Y-160233333D02*
X108778628Y-159900000D01*
X109254819Y-159661905D02*
X108254819Y-159661905D01*
X108254819Y-159661905D02*
X108254819Y-160042857D01*
X108254819Y-160042857D02*
X108302438Y-160138095D01*
X108302438Y-160138095D02*
X108350057Y-160185714D01*
X108350057Y-160185714D02*
X108445295Y-160233333D01*
X108445295Y-160233333D02*
X108588152Y-160233333D01*
X108588152Y-160233333D02*
X108683390Y-160185714D01*
X108683390Y-160185714D02*
X108731009Y-160138095D01*
X108731009Y-160138095D02*
X108778628Y-160042857D01*
X108778628Y-160042857D02*
X108778628Y-159661905D01*
X108254819Y-160566667D02*
X108254819Y-161185714D01*
X108254819Y-161185714D02*
X108635771Y-160852381D01*
X108635771Y-160852381D02*
X108635771Y-160995238D01*
X108635771Y-160995238D02*
X108683390Y-161090476D01*
X108683390Y-161090476D02*
X108731009Y-161138095D01*
X108731009Y-161138095D02*
X108826247Y-161185714D01*
X108826247Y-161185714D02*
X109064342Y-161185714D01*
X109064342Y-161185714D02*
X109159580Y-161138095D01*
X109159580Y-161138095D02*
X109207200Y-161090476D01*
X109207200Y-161090476D02*
X109254819Y-160995238D01*
X109254819Y-160995238D02*
X109254819Y-160709524D01*
X109254819Y-160709524D02*
X109207200Y-160614286D01*
X109207200Y-160614286D02*
X109159580Y-160566667D01*
X104154819Y-160333333D02*
X103678628Y-160000000D01*
X104154819Y-159761905D02*
X103154819Y-159761905D01*
X103154819Y-159761905D02*
X103154819Y-160142857D01*
X103154819Y-160142857D02*
X103202438Y-160238095D01*
X103202438Y-160238095D02*
X103250057Y-160285714D01*
X103250057Y-160285714D02*
X103345295Y-160333333D01*
X103345295Y-160333333D02*
X103488152Y-160333333D01*
X103488152Y-160333333D02*
X103583390Y-160285714D01*
X103583390Y-160285714D02*
X103631009Y-160238095D01*
X103631009Y-160238095D02*
X103678628Y-160142857D01*
X103678628Y-160142857D02*
X103678628Y-159761905D01*
X103250057Y-160714286D02*
X103202438Y-160761905D01*
X103202438Y-160761905D02*
X103154819Y-160857143D01*
X103154819Y-160857143D02*
X103154819Y-161095238D01*
X103154819Y-161095238D02*
X103202438Y-161190476D01*
X103202438Y-161190476D02*
X103250057Y-161238095D01*
X103250057Y-161238095D02*
X103345295Y-161285714D01*
X103345295Y-161285714D02*
X103440533Y-161285714D01*
X103440533Y-161285714D02*
X103583390Y-161238095D01*
X103583390Y-161238095D02*
X104154819Y-160666667D01*
X104154819Y-160666667D02*
X104154819Y-161285714D01*
X112173297Y-142844299D02*
X112745716Y-142271879D01*
X112745716Y-142271879D02*
X112846732Y-142238207D01*
X112846732Y-142238207D02*
X112914075Y-142238207D01*
X112914075Y-142238207D02*
X113015090Y-142271879D01*
X113015090Y-142271879D02*
X113149777Y-142406566D01*
X113149777Y-142406566D02*
X113183449Y-142507581D01*
X113183449Y-142507581D02*
X113183449Y-142574925D01*
X113183449Y-142574925D02*
X113149777Y-142675940D01*
X113149777Y-142675940D02*
X112577358Y-143248360D01*
X113217121Y-143888123D02*
X113082434Y-143753436D01*
X113082434Y-143753436D02*
X113048762Y-143652421D01*
X113048762Y-143652421D02*
X113048762Y-143585077D01*
X113048762Y-143585077D02*
X113082434Y-143416719D01*
X113082434Y-143416719D02*
X113183449Y-143248360D01*
X113183449Y-143248360D02*
X113452823Y-142978986D01*
X113452823Y-142978986D02*
X113553838Y-142945314D01*
X113553838Y-142945314D02*
X113621182Y-142945314D01*
X113621182Y-142945314D02*
X113722197Y-142978986D01*
X113722197Y-142978986D02*
X113856884Y-143113673D01*
X113856884Y-143113673D02*
X113890556Y-143214688D01*
X113890556Y-143214688D02*
X113890556Y-143282032D01*
X113890556Y-143282032D02*
X113856884Y-143383047D01*
X113856884Y-143383047D02*
X113688525Y-143551406D01*
X113688525Y-143551406D02*
X113587510Y-143585077D01*
X113587510Y-143585077D02*
X113520167Y-143585077D01*
X113520167Y-143585077D02*
X113419151Y-143551406D01*
X113419151Y-143551406D02*
X113284464Y-143416719D01*
X113284464Y-143416719D02*
X113250793Y-143315703D01*
X113250793Y-143315703D02*
X113250793Y-143248360D01*
X113250793Y-143248360D02*
X113284464Y-143147345D01*
X114025243Y-143820780D02*
X114563991Y-144359528D01*
X115001723Y-145201321D02*
X115574143Y-144628901D01*
X115574143Y-144628901D02*
X115607815Y-144527886D01*
X115607815Y-144527886D02*
X115607815Y-144460543D01*
X115607815Y-144460543D02*
X115574143Y-144359527D01*
X115574143Y-144359527D02*
X115473128Y-144258512D01*
X115473128Y-144258512D02*
X115372113Y-144224840D01*
X115439456Y-144763588D02*
X115405784Y-144662573D01*
X115405784Y-144662573D02*
X115271097Y-144527886D01*
X115271097Y-144527886D02*
X115170082Y-144494214D01*
X115170082Y-144494214D02*
X115102739Y-144494214D01*
X115102739Y-144494214D02*
X115001723Y-144527886D01*
X115001723Y-144527886D02*
X114799693Y-144729917D01*
X114799693Y-144729917D02*
X114766021Y-144830932D01*
X114766021Y-144830932D02*
X114766021Y-144898275D01*
X114766021Y-144898275D02*
X114799693Y-144999291D01*
X114799693Y-144999291D02*
X114934380Y-145133978D01*
X114934380Y-145133978D02*
X115035395Y-145167649D01*
X116112891Y-145369680D02*
X115742502Y-145740069D01*
X115742502Y-145740069D02*
X115641487Y-145773741D01*
X115641487Y-145773741D02*
X115540472Y-145740069D01*
X115540472Y-145740069D02*
X115405785Y-145605382D01*
X115405785Y-145605382D02*
X115372113Y-145504367D01*
X116079220Y-145403352D02*
X116045548Y-145302337D01*
X116045548Y-145302337D02*
X115877189Y-145133978D01*
X115877189Y-145133978D02*
X115776174Y-145100306D01*
X115776174Y-145100306D02*
X115675159Y-145133978D01*
X115675159Y-145133978D02*
X115607815Y-145201321D01*
X115607815Y-145201321D02*
X115574143Y-145302337D01*
X115574143Y-145302337D02*
X115607815Y-145403352D01*
X115607815Y-145403352D02*
X115776174Y-145571711D01*
X115776174Y-145571711D02*
X115809846Y-145672726D01*
X116449609Y-145706398D02*
X115978204Y-146177802D01*
X115742502Y-146413504D02*
X115742502Y-146346161D01*
X115742502Y-146346161D02*
X115809846Y-146346161D01*
X115809846Y-146346161D02*
X115809846Y-146413504D01*
X115809846Y-146413504D02*
X115742502Y-146413504D01*
X115742502Y-146413504D02*
X115809846Y-146346161D01*
X116314922Y-146514519D02*
X116786326Y-146043115D01*
X116382265Y-146447176D02*
X116382265Y-146514519D01*
X116382265Y-146514519D02*
X116415937Y-146615535D01*
X116415937Y-146615535D02*
X116516952Y-146716550D01*
X116516952Y-146716550D02*
X116617967Y-146750222D01*
X116617967Y-146750222D02*
X116718983Y-146716550D01*
X116718983Y-146716550D02*
X117089372Y-146346161D01*
X117796479Y-147053267D02*
X117392418Y-146649206D01*
X117594448Y-146851237D02*
X116887341Y-147558344D01*
X116887341Y-147558344D02*
X116921013Y-147389985D01*
X116921013Y-147389985D02*
X116921013Y-147255298D01*
X116921013Y-147255298D02*
X116887341Y-147154283D01*
X111213019Y-148807400D02*
X111451114Y-148807400D01*
X111355876Y-148569305D02*
X111451114Y-148807400D01*
X111451114Y-148807400D02*
X111355876Y-149045495D01*
X111641590Y-148664543D02*
X111451114Y-148807400D01*
X111451114Y-148807400D02*
X111641590Y-148950257D01*
X111213019Y-148807400D02*
X111451114Y-148807400D01*
X111355876Y-148569305D02*
X111451114Y-148807400D01*
X111451114Y-148807400D02*
X111355876Y-149045495D01*
X111641590Y-148664543D02*
X111451114Y-148807400D01*
X111451114Y-148807400D02*
X111641590Y-148950257D01*
X110763666Y-150129819D02*
X111096999Y-149653628D01*
X111335094Y-150129819D02*
X111335094Y-149129819D01*
X111335094Y-149129819D02*
X110954142Y-149129819D01*
X110954142Y-149129819D02*
X110858904Y-149177438D01*
X110858904Y-149177438D02*
X110811285Y-149225057D01*
X110811285Y-149225057D02*
X110763666Y-149320295D01*
X110763666Y-149320295D02*
X110763666Y-149463152D01*
X110763666Y-149463152D02*
X110811285Y-149558390D01*
X110811285Y-149558390D02*
X110858904Y-149606009D01*
X110858904Y-149606009D02*
X110954142Y-149653628D01*
X110954142Y-149653628D02*
X111335094Y-149653628D01*
X109858904Y-149129819D02*
X110335094Y-149129819D01*
X110335094Y-149129819D02*
X110382713Y-149606009D01*
X110382713Y-149606009D02*
X110335094Y-149558390D01*
X110335094Y-149558390D02*
X110239856Y-149510771D01*
X110239856Y-149510771D02*
X110001761Y-149510771D01*
X110001761Y-149510771D02*
X109906523Y-149558390D01*
X109906523Y-149558390D02*
X109858904Y-149606009D01*
X109858904Y-149606009D02*
X109811285Y-149701247D01*
X109811285Y-149701247D02*
X109811285Y-149939342D01*
X109811285Y-149939342D02*
X109858904Y-150034580D01*
X109858904Y-150034580D02*
X109906523Y-150082200D01*
X109906523Y-150082200D02*
X110001761Y-150129819D01*
X110001761Y-150129819D02*
X110239856Y-150129819D01*
X110239856Y-150129819D02*
X110335094Y-150082200D01*
X110335094Y-150082200D02*
X110382713Y-150034580D01*
X116654819Y-136861905D02*
X115654819Y-136861905D01*
X115654819Y-136861905D02*
X115654819Y-137100000D01*
X115654819Y-137100000D02*
X115702438Y-137242857D01*
X115702438Y-137242857D02*
X115797676Y-137338095D01*
X115797676Y-137338095D02*
X115892914Y-137385714D01*
X115892914Y-137385714D02*
X116083390Y-137433333D01*
X116083390Y-137433333D02*
X116226247Y-137433333D01*
X116226247Y-137433333D02*
X116416723Y-137385714D01*
X116416723Y-137385714D02*
X116511961Y-137338095D01*
X116511961Y-137338095D02*
X116607200Y-137242857D01*
X116607200Y-137242857D02*
X116654819Y-137100000D01*
X116654819Y-137100000D02*
X116654819Y-136861905D01*
X115988152Y-138290476D02*
X116654819Y-138290476D01*
X115607200Y-138052381D02*
X116321485Y-137814286D01*
X116321485Y-137814286D02*
X116321485Y-138433333D01*
X112942519Y-139780495D02*
X111942519Y-139780495D01*
X112942519Y-140351923D02*
X112371090Y-139923352D01*
X111942519Y-140351923D02*
X112513947Y-139780495D01*
X99271428Y-160954819D02*
X99271428Y-161764342D01*
X99271428Y-161764342D02*
X99223809Y-161859580D01*
X99223809Y-161859580D02*
X99176190Y-161907200D01*
X99176190Y-161907200D02*
X99080952Y-161954819D01*
X99080952Y-161954819D02*
X98890476Y-161954819D01*
X98890476Y-161954819D02*
X98795238Y-161907200D01*
X98795238Y-161907200D02*
X98747619Y-161859580D01*
X98747619Y-161859580D02*
X98700000Y-161764342D01*
X98700000Y-161764342D02*
X98700000Y-160954819D01*
X97747619Y-160954819D02*
X98223809Y-160954819D01*
X98223809Y-160954819D02*
X98271428Y-161431009D01*
X98271428Y-161431009D02*
X98223809Y-161383390D01*
X98223809Y-161383390D02*
X98128571Y-161335771D01*
X98128571Y-161335771D02*
X97890476Y-161335771D01*
X97890476Y-161335771D02*
X97795238Y-161383390D01*
X97795238Y-161383390D02*
X97747619Y-161431009D01*
X97747619Y-161431009D02*
X97700000Y-161526247D01*
X97700000Y-161526247D02*
X97700000Y-161764342D01*
X97700000Y-161764342D02*
X97747619Y-161859580D01*
X97747619Y-161859580D02*
X97795238Y-161907200D01*
X97795238Y-161907200D02*
X97890476Y-161954819D01*
X97890476Y-161954819D02*
X98128571Y-161954819D01*
X98128571Y-161954819D02*
X98223809Y-161907200D01*
X98223809Y-161907200D02*
X98271428Y-161859580D01*
X97271428Y-161573866D02*
X96509524Y-161573866D01*
X96033333Y-161954819D02*
X96033333Y-160954819D01*
X96033333Y-161335771D02*
X95938095Y-161288152D01*
X95938095Y-161288152D02*
X95747619Y-161288152D01*
X95747619Y-161288152D02*
X95652381Y-161335771D01*
X95652381Y-161335771D02*
X95604762Y-161383390D01*
X95604762Y-161383390D02*
X95557143Y-161478628D01*
X95557143Y-161478628D02*
X95557143Y-161764342D01*
X95557143Y-161764342D02*
X95604762Y-161859580D01*
X95604762Y-161859580D02*
X95652381Y-161907200D01*
X95652381Y-161907200D02*
X95747619Y-161954819D01*
X95747619Y-161954819D02*
X95938095Y-161954819D01*
X95938095Y-161954819D02*
X96033333Y-161907200D01*
X94700000Y-161288152D02*
X94700000Y-161954819D01*
X95128571Y-161288152D02*
X95128571Y-161811961D01*
X95128571Y-161811961D02*
X95080952Y-161907200D01*
X95080952Y-161907200D02*
X94985714Y-161954819D01*
X94985714Y-161954819D02*
X94842857Y-161954819D01*
X94842857Y-161954819D02*
X94747619Y-161907200D01*
X94747619Y-161907200D02*
X94700000Y-161859580D01*
X94366666Y-161288152D02*
X93985714Y-161288152D01*
X94223809Y-161954819D02*
X94223809Y-161097676D01*
X94223809Y-161097676D02*
X94176190Y-161002438D01*
X94176190Y-161002438D02*
X94080952Y-160954819D01*
X94080952Y-160954819D02*
X93985714Y-160954819D01*
X93795237Y-161288152D02*
X93414285Y-161288152D01*
X93652380Y-161954819D02*
X93652380Y-161097676D01*
X93652380Y-161097676D02*
X93604761Y-161002438D01*
X93604761Y-161002438D02*
X93509523Y-160954819D01*
X93509523Y-160954819D02*
X93414285Y-160954819D01*
X92699999Y-161907200D02*
X92795237Y-161954819D01*
X92795237Y-161954819D02*
X92985713Y-161954819D01*
X92985713Y-161954819D02*
X93080951Y-161907200D01*
X93080951Y-161907200D02*
X93128570Y-161811961D01*
X93128570Y-161811961D02*
X93128570Y-161431009D01*
X93128570Y-161431009D02*
X93080951Y-161335771D01*
X93080951Y-161335771D02*
X92985713Y-161288152D01*
X92985713Y-161288152D02*
X92795237Y-161288152D01*
X92795237Y-161288152D02*
X92699999Y-161335771D01*
X92699999Y-161335771D02*
X92652380Y-161431009D01*
X92652380Y-161431009D02*
X92652380Y-161526247D01*
X92652380Y-161526247D02*
X93128570Y-161621485D01*
X92223808Y-161954819D02*
X92223808Y-161288152D01*
X92223808Y-161478628D02*
X92176189Y-161383390D01*
X92176189Y-161383390D02*
X92128570Y-161335771D01*
X92128570Y-161335771D02*
X92033332Y-161288152D01*
X92033332Y-161288152D02*
X91938094Y-161288152D01*
X91080951Y-161954819D02*
X91652379Y-161954819D01*
X91366665Y-161954819D02*
X91366665Y-160954819D01*
X91366665Y-160954819D02*
X91461903Y-161097676D01*
X91461903Y-161097676D02*
X91557141Y-161192914D01*
X91557141Y-161192914D02*
X91652379Y-161240533D01*
X89783999Y-157483019D02*
X89783999Y-157721114D01*
X90022094Y-157625876D02*
X89783999Y-157721114D01*
X89783999Y-157721114D02*
X89545904Y-157625876D01*
X89926856Y-157911590D02*
X89783999Y-157721114D01*
X89783999Y-157721114D02*
X89641142Y-157911590D01*
X89783999Y-157483019D02*
X89783999Y-157721114D01*
X90022094Y-157625876D02*
X89783999Y-157721114D01*
X89783999Y-157721114D02*
X89545904Y-157625876D01*
X89926856Y-157911590D02*
X89783999Y-157721114D01*
X89783999Y-157721114D02*
X89641142Y-157911590D01*
X90443517Y-132399693D02*
X89736410Y-131692587D01*
X89736410Y-131692587D02*
X89568051Y-131860945D01*
X89568051Y-131860945D02*
X89500708Y-131995632D01*
X89500708Y-131995632D02*
X89500708Y-132130319D01*
X89500708Y-132130319D02*
X89534380Y-132231335D01*
X89534380Y-132231335D02*
X89635395Y-132399693D01*
X89635395Y-132399693D02*
X89736410Y-132500709D01*
X89736410Y-132500709D02*
X89904769Y-132601724D01*
X89904769Y-132601724D02*
X90005784Y-132635396D01*
X90005784Y-132635396D02*
X90140471Y-132635396D01*
X90140471Y-132635396D02*
X90275158Y-132568052D01*
X90275158Y-132568052D02*
X90443517Y-132399693D01*
X89096647Y-132332350D02*
X88658914Y-132770083D01*
X88658914Y-132770083D02*
X89163990Y-132803754D01*
X89163990Y-132803754D02*
X89062975Y-132904770D01*
X89062975Y-132904770D02*
X89029303Y-133005785D01*
X89029303Y-133005785D02*
X89029303Y-133073128D01*
X89029303Y-133073128D02*
X89062975Y-133174144D01*
X89062975Y-133174144D02*
X89231334Y-133342502D01*
X89231334Y-133342502D02*
X89332349Y-133376174D01*
X89332349Y-133376174D02*
X89399693Y-133376174D01*
X89399693Y-133376174D02*
X89500708Y-133342502D01*
X89500708Y-133342502D02*
X89702738Y-133140472D01*
X89702738Y-133140472D02*
X89736410Y-133039457D01*
X89736410Y-133039457D02*
X89736410Y-132972113D01*
X102989719Y-131123095D02*
X101989719Y-131123095D01*
X102989719Y-131694523D02*
X102418290Y-131265952D01*
X101989719Y-131694523D02*
X102561147Y-131123095D01*
X107371665Y-149658819D02*
X107704998Y-149182628D01*
X107943093Y-149658819D02*
X107943093Y-148658819D01*
X107943093Y-148658819D02*
X107562141Y-148658819D01*
X107562141Y-148658819D02*
X107466903Y-148706438D01*
X107466903Y-148706438D02*
X107419284Y-148754057D01*
X107419284Y-148754057D02*
X107371665Y-148849295D01*
X107371665Y-148849295D02*
X107371665Y-148992152D01*
X107371665Y-148992152D02*
X107419284Y-149087390D01*
X107419284Y-149087390D02*
X107466903Y-149135009D01*
X107466903Y-149135009D02*
X107562141Y-149182628D01*
X107562141Y-149182628D02*
X107943093Y-149182628D01*
X106514522Y-148992152D02*
X106514522Y-149658819D01*
X106752617Y-148611200D02*
X106990712Y-149325485D01*
X106990712Y-149325485D02*
X106371665Y-149325485D01*
X96151666Y-153949819D02*
X96484999Y-153473628D01*
X96723094Y-153949819D02*
X96723094Y-152949819D01*
X96723094Y-152949819D02*
X96342142Y-152949819D01*
X96342142Y-152949819D02*
X96246904Y-152997438D01*
X96246904Y-152997438D02*
X96199285Y-153045057D01*
X96199285Y-153045057D02*
X96151666Y-153140295D01*
X96151666Y-153140295D02*
X96151666Y-153283152D01*
X96151666Y-153283152D02*
X96199285Y-153378390D01*
X96199285Y-153378390D02*
X96246904Y-153426009D01*
X96246904Y-153426009D02*
X96342142Y-153473628D01*
X96342142Y-153473628D02*
X96723094Y-153473628D01*
X95151666Y-153854580D02*
X95199285Y-153902200D01*
X95199285Y-153902200D02*
X95342142Y-153949819D01*
X95342142Y-153949819D02*
X95437380Y-153949819D01*
X95437380Y-153949819D02*
X95580237Y-153902200D01*
X95580237Y-153902200D02*
X95675475Y-153806961D01*
X95675475Y-153806961D02*
X95723094Y-153711723D01*
X95723094Y-153711723D02*
X95770713Y-153521247D01*
X95770713Y-153521247D02*
X95770713Y-153378390D01*
X95770713Y-153378390D02*
X95723094Y-153187914D01*
X95723094Y-153187914D02*
X95675475Y-153092676D01*
X95675475Y-153092676D02*
X95580237Y-152997438D01*
X95580237Y-152997438D02*
X95437380Y-152949819D01*
X95437380Y-152949819D02*
X95342142Y-152949819D01*
X95342142Y-152949819D02*
X95199285Y-152997438D01*
X95199285Y-152997438D02*
X95151666Y-153045057D01*
X94770713Y-153045057D02*
X94723094Y-152997438D01*
X94723094Y-152997438D02*
X94627856Y-152949819D01*
X94627856Y-152949819D02*
X94389761Y-152949819D01*
X94389761Y-152949819D02*
X94294523Y-152997438D01*
X94294523Y-152997438D02*
X94246904Y-153045057D01*
X94246904Y-153045057D02*
X94199285Y-153140295D01*
X94199285Y-153140295D02*
X94199285Y-153235533D01*
X94199285Y-153235533D02*
X94246904Y-153378390D01*
X94246904Y-153378390D02*
X94818332Y-153949819D01*
X94818332Y-153949819D02*
X94199285Y-153949819D01*
X117354819Y-132929905D02*
X116354819Y-132929905D01*
X116354819Y-132929905D02*
X116354819Y-133168000D01*
X116354819Y-133168000D02*
X116402438Y-133310857D01*
X116402438Y-133310857D02*
X116497676Y-133406095D01*
X116497676Y-133406095D02*
X116592914Y-133453714D01*
X116592914Y-133453714D02*
X116783390Y-133501333D01*
X116783390Y-133501333D02*
X116926247Y-133501333D01*
X116926247Y-133501333D02*
X117116723Y-133453714D01*
X117116723Y-133453714D02*
X117211961Y-133406095D01*
X117211961Y-133406095D02*
X117307200Y-133310857D01*
X117307200Y-133310857D02*
X117354819Y-133168000D01*
X117354819Y-133168000D02*
X117354819Y-132929905D01*
X116450057Y-133882286D02*
X116402438Y-133929905D01*
X116402438Y-133929905D02*
X116354819Y-134025143D01*
X116354819Y-134025143D02*
X116354819Y-134263238D01*
X116354819Y-134263238D02*
X116402438Y-134358476D01*
X116402438Y-134358476D02*
X116450057Y-134406095D01*
X116450057Y-134406095D02*
X116545295Y-134453714D01*
X116545295Y-134453714D02*
X116640533Y-134453714D01*
X116640533Y-134453714D02*
X116783390Y-134406095D01*
X116783390Y-134406095D02*
X117354819Y-133834667D01*
X117354819Y-133834667D02*
X117354819Y-134453714D01*
X99643104Y-132158619D02*
X99643104Y-131158619D01*
X99071676Y-132158619D02*
X99500247Y-131587190D01*
X99071676Y-131158619D02*
X99643104Y-131730047D01*
X76466666Y-161524819D02*
X76799999Y-161048628D01*
X77038094Y-161524819D02*
X77038094Y-160524819D01*
X77038094Y-160524819D02*
X76657142Y-160524819D01*
X76657142Y-160524819D02*
X76561904Y-160572438D01*
X76561904Y-160572438D02*
X76514285Y-160620057D01*
X76514285Y-160620057D02*
X76466666Y-160715295D01*
X76466666Y-160715295D02*
X76466666Y-160858152D01*
X76466666Y-160858152D02*
X76514285Y-160953390D01*
X76514285Y-160953390D02*
X76561904Y-161001009D01*
X76561904Y-161001009D02*
X76657142Y-161048628D01*
X76657142Y-161048628D02*
X77038094Y-161048628D01*
X75466666Y-161429580D02*
X75514285Y-161477200D01*
X75514285Y-161477200D02*
X75657142Y-161524819D01*
X75657142Y-161524819D02*
X75752380Y-161524819D01*
X75752380Y-161524819D02*
X75895237Y-161477200D01*
X75895237Y-161477200D02*
X75990475Y-161381961D01*
X75990475Y-161381961D02*
X76038094Y-161286723D01*
X76038094Y-161286723D02*
X76085713Y-161096247D01*
X76085713Y-161096247D02*
X76085713Y-160953390D01*
X76085713Y-160953390D02*
X76038094Y-160762914D01*
X76038094Y-160762914D02*
X75990475Y-160667676D01*
X75990475Y-160667676D02*
X75895237Y-160572438D01*
X75895237Y-160572438D02*
X75752380Y-160524819D01*
X75752380Y-160524819D02*
X75657142Y-160524819D01*
X75657142Y-160524819D02*
X75514285Y-160572438D01*
X75514285Y-160572438D02*
X75466666Y-160620057D01*
X74609523Y-160858152D02*
X74609523Y-161524819D01*
X74847618Y-160477200D02*
X75085713Y-161191485D01*
X75085713Y-161191485D02*
X74466666Y-161191485D01*
X120566666Y-164054819D02*
X120899999Y-163578628D01*
X121138094Y-164054819D02*
X121138094Y-163054819D01*
X121138094Y-163054819D02*
X120757142Y-163054819D01*
X120757142Y-163054819D02*
X120661904Y-163102438D01*
X120661904Y-163102438D02*
X120614285Y-163150057D01*
X120614285Y-163150057D02*
X120566666Y-163245295D01*
X120566666Y-163245295D02*
X120566666Y-163388152D01*
X120566666Y-163388152D02*
X120614285Y-163483390D01*
X120614285Y-163483390D02*
X120661904Y-163531009D01*
X120661904Y-163531009D02*
X120757142Y-163578628D01*
X120757142Y-163578628D02*
X121138094Y-163578628D01*
X119995237Y-163483390D02*
X120090475Y-163435771D01*
X120090475Y-163435771D02*
X120138094Y-163388152D01*
X120138094Y-163388152D02*
X120185713Y-163292914D01*
X120185713Y-163292914D02*
X120185713Y-163245295D01*
X120185713Y-163245295D02*
X120138094Y-163150057D01*
X120138094Y-163150057D02*
X120090475Y-163102438D01*
X120090475Y-163102438D02*
X119995237Y-163054819D01*
X119995237Y-163054819D02*
X119804761Y-163054819D01*
X119804761Y-163054819D02*
X119709523Y-163102438D01*
X119709523Y-163102438D02*
X119661904Y-163150057D01*
X119661904Y-163150057D02*
X119614285Y-163245295D01*
X119614285Y-163245295D02*
X119614285Y-163292914D01*
X119614285Y-163292914D02*
X119661904Y-163388152D01*
X119661904Y-163388152D02*
X119709523Y-163435771D01*
X119709523Y-163435771D02*
X119804761Y-163483390D01*
X119804761Y-163483390D02*
X119995237Y-163483390D01*
X119995237Y-163483390D02*
X120090475Y-163531009D01*
X120090475Y-163531009D02*
X120138094Y-163578628D01*
X120138094Y-163578628D02*
X120185713Y-163673866D01*
X120185713Y-163673866D02*
X120185713Y-163864342D01*
X120185713Y-163864342D02*
X120138094Y-163959580D01*
X120138094Y-163959580D02*
X120090475Y-164007200D01*
X120090475Y-164007200D02*
X119995237Y-164054819D01*
X119995237Y-164054819D02*
X119804761Y-164054819D01*
X119804761Y-164054819D02*
X119709523Y-164007200D01*
X119709523Y-164007200D02*
X119661904Y-163959580D01*
X119661904Y-163959580D02*
X119614285Y-163864342D01*
X119614285Y-163864342D02*
X119614285Y-163673866D01*
X119614285Y-163673866D02*
X119661904Y-163578628D01*
X119661904Y-163578628D02*
X119709523Y-163531009D01*
X119709523Y-163531009D02*
X119804761Y-163483390D01*
X90443517Y-136214693D02*
X89736410Y-135507587D01*
X89736410Y-135507587D02*
X89568051Y-135675945D01*
X89568051Y-135675945D02*
X89500708Y-135810632D01*
X89500708Y-135810632D02*
X89500708Y-135945319D01*
X89500708Y-135945319D02*
X89534380Y-136046335D01*
X89534380Y-136046335D02*
X89635395Y-136214693D01*
X89635395Y-136214693D02*
X89736410Y-136315709D01*
X89736410Y-136315709D02*
X89904769Y-136416724D01*
X89904769Y-136416724D02*
X90005784Y-136450396D01*
X90005784Y-136450396D02*
X90140471Y-136450396D01*
X90140471Y-136450396D02*
X90275158Y-136383052D01*
X90275158Y-136383052D02*
X90443517Y-136214693D01*
X89366021Y-137292189D02*
X89770082Y-136888128D01*
X89568051Y-137090159D02*
X88860945Y-136383052D01*
X88860945Y-136383052D02*
X89029303Y-136416724D01*
X89029303Y-136416724D02*
X89163990Y-136416724D01*
X89163990Y-136416724D02*
X89265006Y-136383052D01*
X93240704Y-140067019D02*
X93240704Y-139067019D01*
X92669276Y-140067019D02*
X93097847Y-139495590D01*
X92669276Y-139067019D02*
X93240704Y-139638447D01*
D14*
G04 #@! TO.C,U4-Cond-SMD1*
X92961100Y-146138100D02*
X92961100Y-141896300D01*
X98218900Y-141896300D02*
X98218900Y-146138100D01*
D15*
G04 #@! TO.C,R3*
X107830000Y-151325000D02*
X107830000Y-157865000D01*
X107830000Y-157865000D02*
X108160000Y-157865000D01*
X108160000Y-151325000D02*
X107830000Y-151325000D01*
X110240000Y-151325000D02*
X110570000Y-151325000D01*
X110570000Y-151325000D02*
X110570000Y-157865000D01*
X110570000Y-157865000D02*
X110240000Y-157865000D01*
G04 #@! TO.C,R2*
X103830000Y-152335000D02*
X104160000Y-152335000D01*
X103830000Y-158875000D02*
X103830000Y-152335000D01*
X104160000Y-158875000D02*
X103830000Y-158875000D01*
X106240000Y-158875000D02*
X106570000Y-158875000D01*
X106570000Y-152335000D02*
X106240000Y-152335000D01*
X106570000Y-158875000D02*
X106570000Y-152335000D01*
D14*
G04 #@! TO.C,U6-gain1*
X112736100Y-153646100D02*
X112736100Y-149404300D01*
X117993900Y-149404300D02*
X117993900Y-153646100D01*
D15*
G04 #@! TO.C,R5*
X107830000Y-141325000D02*
X108160000Y-141325000D01*
X107830000Y-147865000D02*
X107830000Y-141325000D01*
X108160000Y-147865000D02*
X107830000Y-147865000D01*
X110240000Y-147865000D02*
X110570000Y-147865000D01*
X110570000Y-141325000D02*
X110240000Y-141325000D01*
X110570000Y-147865000D02*
X110570000Y-141325000D01*
G04 #@! TO.C,D4*
X105394900Y-137985000D02*
X106414900Y-137985000D01*
X106414900Y-136515000D02*
X111854900Y-136515000D01*
X106414900Y-139455000D02*
X106414900Y-136515000D01*
X110834900Y-136515000D02*
X110834900Y-139455000D01*
X110954900Y-136515000D02*
X110954900Y-139455000D01*
X111074900Y-136515000D02*
X111074900Y-139455000D01*
X111854900Y-136515000D02*
X111854900Y-139455000D01*
X111854900Y-139455000D02*
X106414900Y-139455000D01*
X112874900Y-137985000D02*
X111854900Y-137985000D01*
D14*
G04 #@! TO.C,U5-buffer1*
X84945300Y-159006100D02*
X89187100Y-159006100D01*
X89187100Y-164263900D02*
X84945300Y-164263900D01*
D15*
G04 #@! TO.C,D3*
X105394900Y-133668000D02*
X106414900Y-133668000D01*
X106414900Y-132198000D02*
X111854900Y-132198000D01*
X106414900Y-135138000D02*
X106414900Y-132198000D01*
X107194900Y-135138000D02*
X107194900Y-132198000D01*
X107314900Y-135138000D02*
X107314900Y-132198000D01*
X107434900Y-135138000D02*
X107434900Y-132198000D01*
X111854900Y-132198000D02*
X111854900Y-135138000D01*
X111854900Y-135138000D02*
X106414900Y-135138000D01*
X112874900Y-133668000D02*
X111854900Y-133668000D01*
G04 #@! TO.C,R4*
X103930000Y-142355000D02*
X103930000Y-148895000D01*
X103930000Y-148895000D02*
X104260000Y-148895000D01*
X104260000Y-142355000D02*
X103930000Y-142355000D01*
X106340000Y-142355000D02*
X106670000Y-142355000D01*
X106670000Y-142355000D02*
X106670000Y-148895000D01*
X106670000Y-148895000D02*
X106340000Y-148895000D01*
G04 #@! TO.C,RC2*
X92215000Y-149755000D02*
X98755000Y-149755000D01*
X92215000Y-150085000D02*
X92215000Y-149755000D01*
X92215000Y-152165000D02*
X92215000Y-152495000D01*
X92215000Y-152495000D02*
X98755000Y-152495000D01*
X98755000Y-149755000D02*
X98755000Y-150085000D01*
X98755000Y-152495000D02*
X98755000Y-152165000D01*
G04 #@! TO.C,D2*
X92390000Y-133685000D02*
X93410000Y-133685000D01*
X93410000Y-132215000D02*
X98850000Y-132215000D01*
X93410000Y-135155000D02*
X93410000Y-132215000D01*
X97830000Y-132215000D02*
X97830000Y-135155000D01*
X97950000Y-132215000D02*
X97950000Y-135155000D01*
X98070000Y-132215000D02*
X98070000Y-135155000D01*
X98850000Y-132215000D02*
X98850000Y-135155000D01*
X98850000Y-135155000D02*
X93410000Y-135155000D01*
X99870000Y-133685000D02*
X98850000Y-133685000D01*
G04 #@! TO.C,RC4*
X72530000Y-157330000D02*
X79070000Y-157330000D01*
X72530000Y-157660000D02*
X72530000Y-157330000D01*
X72530000Y-159740000D02*
X72530000Y-160070000D01*
X72530000Y-160070000D02*
X79070000Y-160070000D01*
X79070000Y-157330000D02*
X79070000Y-157660000D01*
X79070000Y-160070000D02*
X79070000Y-159740000D01*
G04 #@! TO.C,R8*
X112340000Y-160230000D02*
X112340000Y-160560000D01*
X112340000Y-162970000D02*
X112340000Y-162640000D01*
X118880000Y-160230000D02*
X112340000Y-160230000D01*
X118880000Y-160560000D02*
X118880000Y-160230000D01*
X118880000Y-162640000D02*
X118880000Y-162970000D01*
X118880000Y-162970000D02*
X112340000Y-162970000D01*
G04 #@! TO.C,D1*
X92490000Y-137885000D02*
X93510000Y-137885000D01*
X93510000Y-136415000D02*
X98950000Y-136415000D01*
X93510000Y-139355000D02*
X93510000Y-136415000D01*
X94290000Y-139355000D02*
X94290000Y-136415000D01*
X94410000Y-139355000D02*
X94410000Y-136415000D01*
X94530000Y-139355000D02*
X94530000Y-136415000D01*
X98950000Y-136415000D02*
X98950000Y-139355000D01*
X98950000Y-139355000D02*
X93510000Y-139355000D01*
X99970000Y-137885000D02*
X98950000Y-137885000D01*
G04 #@! TD*
%LPC*%
D16*
G04 #@! TO.C,U1*
X79465000Y-155055000D03*
D17*
X79465000Y-152515000D03*
X79465000Y-149975001D03*
X79465000Y-147435000D03*
X79465000Y-144895000D03*
X79465000Y-142355000D03*
X79465000Y-139815000D03*
X71845000Y-139815000D03*
X71845000Y-142355000D03*
X71845000Y-144895000D03*
X71845000Y-147435000D03*
X71845000Y-149975000D03*
X71845000Y-152515000D03*
X71845000Y-155055000D03*
G04 #@! TD*
D16*
G04 #@! TO.C,C3*
X107300000Y-147120100D03*
D18*
X107300000Y-144620100D03*
G04 #@! TD*
G04 #@! TO.C,RC8*
X71990000Y-161000000D03*
D17*
X79610000Y-161000000D03*
G04 #@! TD*
D19*
G04 #@! TO.C,J7*
X101675000Y-164200000D03*
D20*
X104215000Y-164200000D03*
X106754999Y-164200000D03*
G04 #@! TD*
D18*
G04 #@! TO.C,R1*
X111590000Y-141400000D03*
D17*
X119210000Y-141400000D03*
G04 #@! TD*
D16*
G04 #@! TO.C,C4*
X107910000Y-135885000D03*
D18*
X110410000Y-135885000D03*
G04 #@! TD*
D20*
G04 #@! TO.C,J1*
X66400000Y-139840000D03*
X66400000Y-142380000D03*
X66400000Y-144920000D03*
X66400000Y-147460000D03*
X66400000Y-150000000D03*
X66400000Y-152540000D03*
X66400000Y-155080000D03*
X66400000Y-157620000D03*
X66400000Y-160160000D03*
D19*
X68940000Y-139840000D03*
D20*
X68940000Y-142380000D03*
X68940000Y-144920000D03*
X68940000Y-147460000D03*
X68940000Y-150000000D03*
X68940000Y-152540000D03*
X68940000Y-155080000D03*
X68940000Y-157620000D03*
X68940000Y-160160000D03*
G04 #@! TD*
D18*
G04 #@! TO.C,RC10*
X75200000Y-136400000D03*
D17*
X67580000Y-136400000D03*
G04 #@! TD*
D21*
G04 #@! TO.C,U3-Cond-DIP1*
X99400000Y-148005000D03*
D22*
X99400000Y-145465000D03*
X99400000Y-142925001D03*
X99400000Y-140385000D03*
X91780000Y-140385000D03*
X91780000Y-142925000D03*
X91780000Y-145465000D03*
X91780000Y-148005000D03*
G04 #@! TD*
D21*
G04 #@! TO.C,U1-buffer1*
X83180000Y-165445000D03*
D22*
X85720000Y-165445000D03*
X88260000Y-165445000D03*
X90800000Y-165445000D03*
X90800000Y-157825000D03*
X88260000Y-157825000D03*
X85720000Y-157825000D03*
X83180000Y-157825000D03*
G04 #@! TD*
D19*
G04 #@! TO.C,J5*
X66650000Y-165200000D03*
D20*
X69190000Y-165200000D03*
X71729999Y-165200000D03*
X74270000Y-165200000D03*
X76810000Y-165200000D03*
X79350000Y-165200000D03*
G04 #@! TD*
D16*
G04 #@! TO.C,C1*
X97635100Y-135885000D03*
D18*
X95135100Y-135885000D03*
G04 #@! TD*
D21*
G04 #@! TO.C,U2-gain1*
X119175000Y-155157400D03*
D22*
X119175000Y-152617400D03*
X119175000Y-150077401D03*
X119175000Y-147537400D03*
X111555000Y-147537400D03*
X111555000Y-150077400D03*
X111555000Y-152617400D03*
X111555000Y-155157400D03*
G04 #@! TD*
D18*
G04 #@! TO.C,Rfg_2*
X111570000Y-158200000D03*
D17*
X119190000Y-158200000D03*
G04 #@! TD*
D19*
G04 #@! TO.C,J6*
X111260000Y-164200000D03*
D20*
X113800000Y-164200000D03*
X116339999Y-164200000D03*
G04 #@! TD*
D18*
G04 #@! TO.C,RC5*
X86420000Y-136600000D03*
D17*
X78800000Y-136600000D03*
G04 #@! TD*
D19*
G04 #@! TO.C,J2*
X122800000Y-149525000D03*
D20*
X122800000Y-152065000D03*
G04 #@! TD*
D19*
G04 #@! TO.C,J8*
X66500000Y-133000000D03*
D20*
X69040000Y-133000000D03*
X71580000Y-133000000D03*
X74120000Y-133000000D03*
X76660000Y-133000000D03*
X79200000Y-133000000D03*
G04 #@! TD*
D18*
G04 #@! TO.C,RC6*
X91685000Y-154125000D03*
D17*
X99305000Y-154125000D03*
G04 #@! TD*
D18*
G04 #@! TO.C,RC9*
X101935000Y-149935000D03*
D17*
X101935000Y-142315000D03*
G04 #@! TD*
D16*
G04 #@! TO.C,C2*
X107100000Y-154399900D03*
D18*
X107100000Y-156899900D03*
G04 #@! TD*
G04 #@! TO.C,RC7*
X97600000Y-164420000D03*
D17*
X97600000Y-156800000D03*
G04 #@! TD*
D18*
G04 #@! TO.C,RC1*
X101885000Y-152165000D03*
D17*
X101885000Y-159785000D03*
G04 #@! TD*
D18*
G04 #@! TO.C,RC3*
X94565000Y-157345000D03*
D17*
X94565000Y-164965000D03*
G04 #@! TD*
D16*
G04 #@! TO.C,U2*
X81765000Y-139860000D03*
D17*
X81765000Y-142400000D03*
X81765000Y-144939999D03*
X81765000Y-147480000D03*
X81765000Y-150020000D03*
X81765000Y-152560000D03*
X81765000Y-155100000D03*
X89385000Y-155100000D03*
X89385000Y-152560000D03*
X89385000Y-150020000D03*
X89385000Y-147480000D03*
X89385000Y-144940000D03*
X89385000Y-142400000D03*
X89385000Y-139860000D03*
G04 #@! TD*
D18*
G04 #@! TO.C,Rfg_1*
X111180000Y-144400000D03*
D17*
X118800000Y-144400000D03*
G04 #@! TD*
D23*
G04 #@! TO.C,U4-Cond-SMD1*
X93685000Y-141553400D03*
X94955000Y-141553400D03*
X96225000Y-141553400D03*
X97495000Y-141553400D03*
X97495000Y-146481000D03*
X96225000Y-146481000D03*
X94955000Y-146481000D03*
X93685000Y-146481000D03*
G04 #@! TD*
D18*
G04 #@! TO.C,R3*
X109200000Y-150785000D03*
D17*
X109200000Y-158405000D03*
G04 #@! TD*
D18*
G04 #@! TO.C,R2*
X105200000Y-159415000D03*
D17*
X105200000Y-151795000D03*
G04 #@! TD*
D23*
G04 #@! TO.C,U6-gain1*
X113460000Y-149061400D03*
X114730000Y-149061400D03*
X116000000Y-149061400D03*
X117270000Y-149061400D03*
X117270000Y-153989000D03*
X116000000Y-153989000D03*
X114730000Y-153989000D03*
X113460000Y-153989000D03*
G04 #@! TD*
D18*
G04 #@! TO.C,R5*
X109200000Y-148405000D03*
D17*
X109200000Y-140785000D03*
G04 #@! TD*
D24*
G04 #@! TO.C,D4*
X114214900Y-137985000D03*
D25*
X104054900Y-137985000D03*
G04 #@! TD*
D26*
G04 #@! TO.C,U5-buffer1*
X89530000Y-159730000D03*
X89530000Y-161000000D03*
X89530000Y-162270000D03*
X89530000Y-163540000D03*
X84602400Y-163540000D03*
X84602400Y-162270000D03*
X84602400Y-161000000D03*
X84602400Y-159730000D03*
G04 #@! TD*
D24*
G04 #@! TO.C,D3*
X104054900Y-133668000D03*
D25*
X114214900Y-133668000D03*
G04 #@! TD*
D18*
G04 #@! TO.C,R4*
X105300000Y-141815000D03*
D17*
X105300000Y-149435000D03*
G04 #@! TD*
D18*
G04 #@! TO.C,RC2*
X91675000Y-151125000D03*
D17*
X99295000Y-151125000D03*
G04 #@! TD*
D24*
G04 #@! TO.C,D2*
X101210000Y-133685000D03*
D25*
X91050000Y-133685000D03*
G04 #@! TD*
D18*
G04 #@! TO.C,RC4*
X71990000Y-158700000D03*
D17*
X79610000Y-158700000D03*
G04 #@! TD*
D18*
G04 #@! TO.C,R8*
X119420000Y-161600000D03*
D17*
X111800000Y-161600000D03*
G04 #@! TD*
D24*
G04 #@! TO.C,D1*
X91150000Y-137885000D03*
D25*
X101310000Y-137885000D03*
G04 #@! TD*
%LPD*%
M02*
