%TF.GenerationSoftware,KiCad,Pcbnew,7.0.10-7.0.10~ubuntu20.04.1*%
%TF.CreationDate,2024-07-24T18:33:02-03:00*%
%TF.ProjectId,Aquisicao_STM_Barramento_v01,41717569-7369-4636-916f-5f53544d5f42,v04*%
%TF.SameCoordinates,Original*%
%TF.FileFunction,Drillmap*%
%TF.FilePolarity,Positive*%
%FSLAX45Y45*%
G04 Gerber Fmt 4.5, Leading zero omitted, Abs format (unit mm)*
G04 Created by KiCad (PCBNEW 7.0.10-7.0.10~ubuntu20.04.1) date 2024-07-24 18:33:02*
%MOMM*%
%LPD*%
G01*
G04 APERTURE LIST*
%ADD10C,0.150000*%
%ADD11C,0.200000*%
%ADD12C,0.100000*%
%ADD13C,0.101600*%
%ADD14C,0.102000*%
%ADD15C,0.110000*%
G04 APERTURE END LIST*
D10*
X19160000Y-5080000D02*
X10160000Y-5080000D01*
X19160000Y-15080000D02*
X19160000Y-5080000D01*
X19159982Y-15079980D02*
X10160000Y-15079980D01*
X10160000Y-5080000D02*
X10160000Y-15079980D01*
D11*
D12*
X11800000Y-9570000D02*
X11880000Y-9650000D01*
X11880000Y-9570000D02*
X11800000Y-9650000D01*
X12643570Y-11078560D02*
X12723570Y-11158560D01*
X12723570Y-11078560D02*
X12643570Y-11158560D01*
X12990030Y-10953480D02*
X13070030Y-11033480D01*
X13070030Y-10953480D02*
X12990030Y-11033480D01*
X14210000Y-9560000D02*
X14290000Y-9640000D01*
X14290000Y-9560000D02*
X14210000Y-9640000D01*
X14270000Y-11090000D02*
X14350000Y-11170000D01*
X14350000Y-11090000D02*
X14270000Y-11170000D01*
X14430000Y-6610000D02*
X14510000Y-6690000D01*
X14510000Y-6610000D02*
X14430000Y-6690000D01*
X14470000Y-10390000D02*
X14550000Y-10470000D01*
X14550000Y-10390000D02*
X14470000Y-10470000D01*
X14490000Y-8520000D02*
X14570000Y-8600000D01*
X14570000Y-8520000D02*
X14490000Y-8600000D01*
X14819480Y-12063810D02*
X14899480Y-12143810D01*
X14899480Y-12063810D02*
X14819480Y-12143810D01*
X15330000Y-11110000D02*
X15410000Y-11190000D01*
X15410000Y-11110000D02*
X15330000Y-11190000D01*
X15350000Y-12390000D02*
X15430000Y-12470000D01*
X15430000Y-12390000D02*
X15350000Y-12470000D01*
X15450230Y-10852020D02*
X15530230Y-10932020D01*
X15530230Y-10852020D02*
X15450230Y-10932020D01*
X15608430Y-7252890D02*
X15688430Y-7332890D01*
X15688430Y-7252890D02*
X15608430Y-7332890D01*
X15690000Y-8550000D02*
X15770000Y-8630000D01*
X15770000Y-8550000D02*
X15690000Y-8630000D01*
X15840000Y-6450000D02*
X15920000Y-6530000D01*
X15920000Y-6450000D02*
X15840000Y-6530000D01*
X15840000Y-7530000D02*
X15920000Y-7610000D01*
X15920000Y-7530000D02*
X15840000Y-7610000D01*
X15883970Y-10922720D02*
X15963970Y-11002720D01*
X15963970Y-10922720D02*
X15883970Y-11002720D01*
X16290000Y-12650000D02*
X16370000Y-12730000D01*
X16370000Y-12650000D02*
X16290000Y-12730000D01*
X16560000Y-11410000D02*
X16640000Y-11490000D01*
X16640000Y-11410000D02*
X16560000Y-11490000D01*
X16880000Y-6190000D02*
X16960000Y-6270000D01*
X16960000Y-6190000D02*
X16880000Y-6270000D01*
X16990000Y-9610000D02*
X17070000Y-9690000D01*
X17070000Y-9610000D02*
X16990000Y-9690000D01*
X17150000Y-5900000D02*
X17230000Y-5980000D01*
X17230000Y-5900000D02*
X17150000Y-5980000D01*
X17230000Y-9020000D02*
X17310000Y-9100000D01*
X17310000Y-9020000D02*
X17230000Y-9100000D01*
X17270000Y-10680000D02*
X17350000Y-10760000D01*
X17350000Y-10680000D02*
X17270000Y-10760000D01*
X17521860Y-12892570D02*
X17601860Y-12972570D01*
X17601860Y-12892570D02*
X17521860Y-12972570D01*
X17706350Y-14194610D02*
X17786350Y-14274610D01*
X17786350Y-14194610D02*
X17706350Y-14274610D01*
X17724970Y-11357650D02*
X17804970Y-11437650D01*
X17804970Y-11357650D02*
X17724970Y-11437650D01*
X17850000Y-12780000D02*
X17930000Y-12860000D01*
X17930000Y-12780000D02*
X17850000Y-12860000D01*
X17950000Y-10940000D02*
X18030000Y-11020000D01*
X18030000Y-10940000D02*
X17950000Y-11020000D01*
X18016360Y-13507090D02*
X18096360Y-13587090D01*
X18096360Y-13507090D02*
X18016360Y-13587090D01*
X14658000Y-14547800D02*
G75*
G03*
X14578000Y-14547800I-40000J0D01*
G01*
X14578000Y-14547800D02*
G75*
G03*
X14658000Y-14547800I40000J0D01*
G01*
X14658000Y-14797800D02*
G75*
G03*
X14578000Y-14797800I-40000J0D01*
G01*
X14578000Y-14797800D02*
G75*
G03*
X14658000Y-14797800I40000J0D01*
G01*
X15297490Y-14675000D02*
G75*
G03*
X15217490Y-14675000I-40000J0D01*
G01*
X15217490Y-14675000D02*
G75*
G03*
X15297490Y-14675000I40000J0D01*
G01*
X15547490Y-14675000D02*
G75*
G03*
X15467490Y-14675000I-40000J0D01*
G01*
X15467490Y-14675000D02*
G75*
G03*
X15547490Y-14675000I40000J0D01*
G01*
X16185500Y-14137800D02*
G75*
G03*
X16105500Y-14137800I-40000J0D01*
G01*
X16105500Y-14137800D02*
G75*
G03*
X16185500Y-14137800I40000J0D01*
G01*
X16435500Y-14137800D02*
G75*
G03*
X16355500Y-14137800I-40000J0D01*
G01*
X16355500Y-14137800D02*
G75*
G03*
X16435500Y-14137800I40000J0D01*
G01*
X16792110Y-14125000D02*
G75*
G03*
X16712110Y-14125000I-40000J0D01*
G01*
X16712110Y-14125000D02*
G75*
G03*
X16792110Y-14125000I40000J0D01*
G01*
X17042110Y-14125000D02*
G75*
G03*
X16962110Y-14125000I-40000J0D01*
G01*
X16962110Y-14125000D02*
G75*
G03*
X17042110Y-14125000I40000J0D01*
G01*
X11325000Y-14620000D02*
X11325000Y-14720000D01*
X11275000Y-14670000D02*
X11375000Y-14670000D01*
X11579000Y-14620000D02*
X11579000Y-14720000D01*
X11529000Y-14670000D02*
X11629000Y-14670000D01*
X11833000Y-14620000D02*
X11833000Y-14720000D01*
X11783000Y-14670000D02*
X11883000Y-14670000D01*
X12087000Y-14620000D02*
X12087000Y-14720000D01*
X12037000Y-14670000D02*
X12137000Y-14670000D01*
X17343000Y-14612500D02*
X17343000Y-14712500D01*
X17293000Y-14662500D02*
X17393000Y-14662500D01*
X17597000Y-14612500D02*
X17597000Y-14712500D01*
X17547000Y-14662500D02*
X17647000Y-14662500D01*
X17851000Y-14612500D02*
X17851000Y-14712500D01*
X17801000Y-14662500D02*
X17901000Y-14662500D01*
X18105000Y-14612500D02*
X18105000Y-14712500D01*
X18055000Y-14662500D02*
X18155000Y-14662500D01*
D13*
X11453921Y-5581001D02*
X11453921Y-5509159D01*
X11382079Y-5509159D01*
X11382079Y-5581001D01*
X11453921Y-5581001D01*
X11453921Y-5835001D02*
X11453921Y-5763159D01*
X11382079Y-5763159D01*
X11382079Y-5835001D01*
X11453921Y-5835001D01*
X11453921Y-6089001D02*
X11453921Y-6017159D01*
X11382079Y-6017159D01*
X11382079Y-6089001D01*
X11453921Y-6089001D01*
X11453921Y-6343001D02*
X11453921Y-6271159D01*
X11382079Y-6271159D01*
X11382079Y-6343001D01*
X11453921Y-6343001D01*
X11453921Y-6597001D02*
X11453921Y-6525159D01*
X11382079Y-6525159D01*
X11382079Y-6597001D01*
X11453921Y-6597001D01*
X11453921Y-6851001D02*
X11453921Y-6779159D01*
X11382079Y-6779159D01*
X11382079Y-6851001D01*
X11453921Y-6851001D01*
X11453921Y-7105001D02*
X11453921Y-7033159D01*
X11382079Y-7033159D01*
X11382079Y-7105001D01*
X11453921Y-7105001D01*
X11453921Y-7359001D02*
X11453921Y-7287159D01*
X11382079Y-7287159D01*
X11382079Y-7359001D01*
X11453921Y-7359001D01*
X11453921Y-7613001D02*
X11453921Y-7541159D01*
X11382079Y-7541159D01*
X11382079Y-7613001D01*
X11453921Y-7613001D01*
X11453921Y-7867001D02*
X11453921Y-7795159D01*
X11382079Y-7795159D01*
X11382079Y-7867001D01*
X11453921Y-7867001D01*
X11453921Y-8121001D02*
X11453921Y-8049159D01*
X11382079Y-8049159D01*
X11382079Y-8121001D01*
X11453921Y-8121001D01*
X11453921Y-8375001D02*
X11453921Y-8303159D01*
X11382079Y-8303159D01*
X11382079Y-8375001D01*
X11453921Y-8375001D01*
X11453921Y-8629001D02*
X11453921Y-8557159D01*
X11382079Y-8557159D01*
X11382079Y-8629001D01*
X11453921Y-8629001D01*
X11453921Y-8883001D02*
X11453921Y-8811159D01*
X11382079Y-8811159D01*
X11382079Y-8883001D01*
X11453921Y-8883001D01*
X11453921Y-9137001D02*
X11453921Y-9065159D01*
X11382079Y-9065159D01*
X11382079Y-9137001D01*
X11453921Y-9137001D01*
X11453921Y-9391001D02*
X11453921Y-9319159D01*
X11382079Y-9319159D01*
X11382079Y-9391001D01*
X11453921Y-9391001D01*
X11453921Y-9645001D02*
X11453921Y-9573159D01*
X11382079Y-9573159D01*
X11382079Y-9645001D01*
X11453921Y-9645001D01*
X11453921Y-9899001D02*
X11453921Y-9827159D01*
X11382079Y-9827159D01*
X11382079Y-9899001D01*
X11453921Y-9899001D01*
X11453921Y-10153001D02*
X11453921Y-10081159D01*
X11382079Y-10081159D01*
X11382079Y-10153001D01*
X11453921Y-10153001D01*
X11453921Y-10412081D02*
X11453921Y-10340239D01*
X11382079Y-10340239D01*
X11382079Y-10412081D01*
X11453921Y-10412081D01*
X12087921Y-10026001D02*
X12087921Y-9954159D01*
X12016079Y-9954159D01*
X12016079Y-10026001D01*
X12087921Y-10026001D01*
X12341921Y-10026001D02*
X12341921Y-9954159D01*
X12270079Y-9954159D01*
X12270079Y-10026001D01*
X12341921Y-10026001D01*
X12405721Y-11871321D02*
X12405721Y-11799479D01*
X12333879Y-11799479D01*
X12333879Y-11871321D01*
X12405721Y-11871321D01*
X12405721Y-13395321D02*
X12405721Y-13323479D01*
X12333879Y-13323479D01*
X12333879Y-13395321D01*
X12405721Y-13395321D01*
X12659721Y-11871321D02*
X12659721Y-11799479D01*
X12587879Y-11799479D01*
X12587879Y-11871321D01*
X12659721Y-11871321D01*
X12659721Y-13395321D02*
X12659721Y-13323479D01*
X12587879Y-13323479D01*
X12587879Y-13395321D01*
X12659721Y-13395321D01*
X12913721Y-11871321D02*
X12913721Y-11799479D01*
X12841879Y-11799479D01*
X12841879Y-11871321D01*
X12913721Y-11871321D01*
X12913721Y-13395321D02*
X12913721Y-13323479D01*
X12841879Y-13323479D01*
X12841879Y-13395321D01*
X12913721Y-13395321D01*
X12977921Y-5581001D02*
X12977921Y-5509159D01*
X12906079Y-5509159D01*
X12906079Y-5581001D01*
X12977921Y-5581001D01*
X12977921Y-5835001D02*
X12977921Y-5763159D01*
X12906079Y-5763159D01*
X12906079Y-5835001D01*
X12977921Y-5835001D01*
X12977921Y-6089001D02*
X12977921Y-6017159D01*
X12906079Y-6017159D01*
X12906079Y-6089001D01*
X12977921Y-6089001D01*
X12977921Y-6343001D02*
X12977921Y-6271159D01*
X12906079Y-6271159D01*
X12906079Y-6343001D01*
X12977921Y-6343001D01*
X12977921Y-6597001D02*
X12977921Y-6525159D01*
X12906079Y-6525159D01*
X12906079Y-6597001D01*
X12977921Y-6597001D01*
X12977921Y-6851001D02*
X12977921Y-6779159D01*
X12906079Y-6779159D01*
X12906079Y-6851001D01*
X12977921Y-6851001D01*
X12977921Y-7105001D02*
X12977921Y-7033159D01*
X12906079Y-7033159D01*
X12906079Y-7105001D01*
X12977921Y-7105001D01*
X12977921Y-7359001D02*
X12977921Y-7287159D01*
X12906079Y-7287159D01*
X12906079Y-7359001D01*
X12977921Y-7359001D01*
X12977921Y-7613001D02*
X12977921Y-7541159D01*
X12906079Y-7541159D01*
X12906079Y-7613001D01*
X12977921Y-7613001D01*
X12977921Y-7867001D02*
X12977921Y-7795159D01*
X12906079Y-7795159D01*
X12906079Y-7867001D01*
X12977921Y-7867001D01*
X12977921Y-8121001D02*
X12977921Y-8049159D01*
X12906079Y-8049159D01*
X12906079Y-8121001D01*
X12977921Y-8121001D01*
X12977921Y-8375001D02*
X12977921Y-8303159D01*
X12906079Y-8303159D01*
X12906079Y-8375001D01*
X12977921Y-8375001D01*
X12977921Y-8629001D02*
X12977921Y-8557159D01*
X12906079Y-8557159D01*
X12906079Y-8629001D01*
X12977921Y-8629001D01*
X12977921Y-8883001D02*
X12977921Y-8811159D01*
X12906079Y-8811159D01*
X12906079Y-8883001D01*
X12977921Y-8883001D01*
X12977921Y-9137001D02*
X12977921Y-9065159D01*
X12906079Y-9065159D01*
X12906079Y-9137001D01*
X12977921Y-9137001D01*
X12977921Y-9391001D02*
X12977921Y-9319159D01*
X12906079Y-9319159D01*
X12906079Y-9391001D01*
X12977921Y-9391001D01*
X12977921Y-9645001D02*
X12977921Y-9573159D01*
X12906079Y-9573159D01*
X12906079Y-9645001D01*
X12977921Y-9645001D01*
X12977921Y-9899001D02*
X12977921Y-9827159D01*
X12906079Y-9827159D01*
X12906079Y-9899001D01*
X12977921Y-9899001D01*
X12977921Y-10153001D02*
X12977921Y-10081159D01*
X12906079Y-10081159D01*
X12906079Y-10153001D01*
X12977921Y-10153001D01*
X12977921Y-10407001D02*
X12977921Y-10335159D01*
X12906079Y-10335159D01*
X12906079Y-10407001D01*
X12977921Y-10407001D01*
X13167721Y-11871321D02*
X13167721Y-11799479D01*
X13095879Y-11799479D01*
X13095879Y-11871321D01*
X13167721Y-11871321D01*
X13167721Y-13395321D02*
X13167721Y-13323479D01*
X13095879Y-13323479D01*
X13095879Y-13395321D01*
X13167721Y-13395321D01*
X13421721Y-11871321D02*
X13421721Y-11799479D01*
X13349879Y-11799479D01*
X13349879Y-11871321D01*
X13421721Y-11871321D01*
X13421721Y-13395321D02*
X13421721Y-13323479D01*
X13349879Y-13323479D01*
X13349879Y-13395321D01*
X13421721Y-13395321D01*
X13675721Y-11871321D02*
X13675721Y-11799479D01*
X13603879Y-11799479D01*
X13603879Y-11871321D01*
X13675721Y-11871321D01*
X13675721Y-13395321D02*
X13675721Y-13323479D01*
X13603879Y-13323479D01*
X13603879Y-13395321D01*
X13675721Y-13395321D01*
X13866921Y-5581001D02*
X13866921Y-5509159D01*
X13795079Y-5509159D01*
X13795079Y-5581001D01*
X13866921Y-5581001D01*
X13866921Y-5835001D02*
X13866921Y-5763159D01*
X13795079Y-5763159D01*
X13795079Y-5835001D01*
X13866921Y-5835001D01*
X13866921Y-6089001D02*
X13866921Y-6017159D01*
X13795079Y-6017159D01*
X13795079Y-6089001D01*
X13866921Y-6089001D01*
X13866921Y-6343001D02*
X13866921Y-6271159D01*
X13795079Y-6271159D01*
X13795079Y-6343001D01*
X13866921Y-6343001D01*
X13866921Y-6597001D02*
X13866921Y-6525159D01*
X13795079Y-6525159D01*
X13795079Y-6597001D01*
X13866921Y-6597001D01*
X13866921Y-6851001D02*
X13866921Y-6779159D01*
X13795079Y-6779159D01*
X13795079Y-6851001D01*
X13866921Y-6851001D01*
X13866921Y-7105001D02*
X13866921Y-7033159D01*
X13795079Y-7033159D01*
X13795079Y-7105001D01*
X13866921Y-7105001D01*
X13866921Y-7359001D02*
X13866921Y-7287159D01*
X13795079Y-7287159D01*
X13795079Y-7359001D01*
X13866921Y-7359001D01*
X13866921Y-7613001D02*
X13866921Y-7541159D01*
X13795079Y-7541159D01*
X13795079Y-7613001D01*
X13866921Y-7613001D01*
X13866921Y-7867001D02*
X13866921Y-7795159D01*
X13795079Y-7795159D01*
X13795079Y-7867001D01*
X13866921Y-7867001D01*
X13866921Y-8121001D02*
X13866921Y-8049159D01*
X13795079Y-8049159D01*
X13795079Y-8121001D01*
X13866921Y-8121001D01*
X13866921Y-8375001D02*
X13866921Y-8303159D01*
X13795079Y-8303159D01*
X13795079Y-8375001D01*
X13866921Y-8375001D01*
X13866921Y-8629001D02*
X13866921Y-8557159D01*
X13795079Y-8557159D01*
X13795079Y-8629001D01*
X13866921Y-8629001D01*
X13866921Y-8883001D02*
X13866921Y-8811159D01*
X13795079Y-8811159D01*
X13795079Y-8883001D01*
X13866921Y-8883001D01*
X13866921Y-9137001D02*
X13866921Y-9065159D01*
X13795079Y-9065159D01*
X13795079Y-9137001D01*
X13866921Y-9137001D01*
X13866921Y-9391001D02*
X13866921Y-9319159D01*
X13795079Y-9319159D01*
X13795079Y-9391001D01*
X13866921Y-9391001D01*
X13866921Y-9645001D02*
X13866921Y-9573159D01*
X13795079Y-9573159D01*
X13795079Y-9645001D01*
X13866921Y-9645001D01*
X13866921Y-9899001D02*
X13866921Y-9827159D01*
X13795079Y-9827159D01*
X13795079Y-9899001D01*
X13866921Y-9899001D01*
X13866921Y-10153001D02*
X13866921Y-10081159D01*
X13795079Y-10081159D01*
X13795079Y-10153001D01*
X13866921Y-10153001D01*
X13866921Y-10412081D02*
X13866921Y-10340239D01*
X13795079Y-10340239D01*
X13795079Y-10412081D01*
X13866921Y-10412081D01*
X13929721Y-11871321D02*
X13929721Y-11799479D01*
X13857879Y-11799479D01*
X13857879Y-11871321D01*
X13929721Y-11871321D01*
X13929721Y-13395321D02*
X13929721Y-13323479D01*
X13857879Y-13323479D01*
X13857879Y-13395321D01*
X13929721Y-13395321D01*
X14183721Y-11871321D02*
X14183721Y-11799479D01*
X14111879Y-11799479D01*
X14111879Y-11871321D01*
X14183721Y-11871321D01*
X14183721Y-13395321D02*
X14183721Y-13323479D01*
X14111879Y-13323479D01*
X14111879Y-13395321D01*
X14183721Y-13395321D01*
X14437721Y-11871321D02*
X14437721Y-11799479D01*
X14365879Y-11799479D01*
X14365879Y-11871321D01*
X14437721Y-11871321D01*
X14437721Y-13395321D02*
X14437721Y-13323479D01*
X14365879Y-13323479D01*
X14365879Y-13395321D01*
X14437721Y-13395321D01*
X14500921Y-10026001D02*
X14500921Y-9954159D01*
X14429079Y-9954159D01*
X14429079Y-10026001D01*
X14500921Y-10026001D01*
X14691721Y-11871321D02*
X14691721Y-11799479D01*
X14619879Y-11799479D01*
X14619879Y-11871321D01*
X14691721Y-11871321D01*
X14691721Y-13395321D02*
X14691721Y-13323479D01*
X14619879Y-13323479D01*
X14619879Y-13395321D01*
X14691721Y-13395321D01*
X14754921Y-10026001D02*
X14754921Y-9954159D01*
X14683079Y-9954159D01*
X14683079Y-10026001D01*
X14754921Y-10026001D01*
X14945721Y-11871321D02*
X14945721Y-11799479D01*
X14873879Y-11799479D01*
X14873879Y-11871321D01*
X14945721Y-11871321D01*
X14945721Y-13395321D02*
X14945721Y-13323479D01*
X14873879Y-13323479D01*
X14873879Y-13395321D01*
X14945721Y-13395321D01*
X15199721Y-11871321D02*
X15199721Y-11799479D01*
X15127879Y-11799479D01*
X15127879Y-11871321D01*
X15199721Y-11871321D01*
X15199721Y-13395321D02*
X15199721Y-13323479D01*
X15127879Y-13323479D01*
X15127879Y-13395321D01*
X15199721Y-13395321D01*
X15390921Y-5581001D02*
X15390921Y-5509159D01*
X15319079Y-5509159D01*
X15319079Y-5581001D01*
X15390921Y-5581001D01*
X15390921Y-5835001D02*
X15390921Y-5763159D01*
X15319079Y-5763159D01*
X15319079Y-5835001D01*
X15390921Y-5835001D01*
X15390921Y-6089001D02*
X15390921Y-6017159D01*
X15319079Y-6017159D01*
X15319079Y-6089001D01*
X15390921Y-6089001D01*
X15390921Y-6343001D02*
X15390921Y-6271159D01*
X15319079Y-6271159D01*
X15319079Y-6343001D01*
X15390921Y-6343001D01*
X15390921Y-6597001D02*
X15390921Y-6525159D01*
X15319079Y-6525159D01*
X15319079Y-6597001D01*
X15390921Y-6597001D01*
X15390921Y-6851001D02*
X15390921Y-6779159D01*
X15319079Y-6779159D01*
X15319079Y-6851001D01*
X15390921Y-6851001D01*
X15390921Y-7105001D02*
X15390921Y-7033159D01*
X15319079Y-7033159D01*
X15319079Y-7105001D01*
X15390921Y-7105001D01*
X15390921Y-7359001D02*
X15390921Y-7287159D01*
X15319079Y-7287159D01*
X15319079Y-7359001D01*
X15390921Y-7359001D01*
X15390921Y-7613001D02*
X15390921Y-7541159D01*
X15319079Y-7541159D01*
X15319079Y-7613001D01*
X15390921Y-7613001D01*
X15390921Y-7867001D02*
X15390921Y-7795159D01*
X15319079Y-7795159D01*
X15319079Y-7867001D01*
X15390921Y-7867001D01*
X15390921Y-8121001D02*
X15390921Y-8049159D01*
X15319079Y-8049159D01*
X15319079Y-8121001D01*
X15390921Y-8121001D01*
X15390921Y-8375001D02*
X15390921Y-8303159D01*
X15319079Y-8303159D01*
X15319079Y-8375001D01*
X15390921Y-8375001D01*
X15390921Y-8629001D02*
X15390921Y-8557159D01*
X15319079Y-8557159D01*
X15319079Y-8629001D01*
X15390921Y-8629001D01*
X15390921Y-8883001D02*
X15390921Y-8811159D01*
X15319079Y-8811159D01*
X15319079Y-8883001D01*
X15390921Y-8883001D01*
X15390921Y-9137001D02*
X15390921Y-9065159D01*
X15319079Y-9065159D01*
X15319079Y-9137001D01*
X15390921Y-9137001D01*
X15390921Y-9391001D02*
X15390921Y-9319159D01*
X15319079Y-9319159D01*
X15319079Y-9391001D01*
X15390921Y-9391001D01*
X15390921Y-9645001D02*
X15390921Y-9573159D01*
X15319079Y-9573159D01*
X15319079Y-9645001D01*
X15390921Y-9645001D01*
X15390921Y-9899001D02*
X15390921Y-9827159D01*
X15319079Y-9827159D01*
X15319079Y-9899001D01*
X15390921Y-9899001D01*
X15390921Y-10153001D02*
X15390921Y-10081159D01*
X15319079Y-10081159D01*
X15319079Y-10153001D01*
X15390921Y-10153001D01*
X15390921Y-10407001D02*
X15390921Y-10335159D01*
X15319079Y-10335159D01*
X15319079Y-10407001D01*
X15390921Y-10407001D01*
X15453721Y-11871321D02*
X15453721Y-11799479D01*
X15381879Y-11799479D01*
X15381879Y-11871321D01*
X15453721Y-11871321D01*
X15453721Y-13395321D02*
X15453721Y-13323479D01*
X15381879Y-13323479D01*
X15381879Y-13395321D01*
X15453721Y-13395321D01*
X15707721Y-11871321D02*
X15707721Y-11799479D01*
X15635879Y-11799479D01*
X15635879Y-11871321D01*
X15707721Y-11871321D01*
X15707721Y-13395321D02*
X15707721Y-13323479D01*
X15635879Y-13323479D01*
X15635879Y-13395321D01*
X15707721Y-13395321D01*
X15961721Y-11871321D02*
X15961721Y-11799479D01*
X15889879Y-11799479D01*
X15889879Y-11871321D01*
X15961721Y-11871321D01*
X15961721Y-13395321D02*
X15961721Y-13323479D01*
X15889879Y-13323479D01*
X15889879Y-13395321D01*
X15961721Y-13395321D01*
X16215721Y-11871321D02*
X16215721Y-11799479D01*
X16143879Y-11799479D01*
X16143879Y-11871321D01*
X16215721Y-11871321D01*
X16215721Y-13395321D02*
X16215721Y-13323479D01*
X16143879Y-13323479D01*
X16143879Y-13395321D01*
X16215721Y-13395321D01*
X16305321Y-5581001D02*
X16305321Y-5509159D01*
X16233479Y-5509159D01*
X16233479Y-5581001D01*
X16305321Y-5581001D01*
X16305321Y-5835001D02*
X16305321Y-5763159D01*
X16233479Y-5763159D01*
X16233479Y-5835001D01*
X16305321Y-5835001D01*
X16305321Y-6089001D02*
X16305321Y-6017159D01*
X16233479Y-6017159D01*
X16233479Y-6089001D01*
X16305321Y-6089001D01*
X16305321Y-6343001D02*
X16305321Y-6271159D01*
X16233479Y-6271159D01*
X16233479Y-6343001D01*
X16305321Y-6343001D01*
X16305321Y-6597001D02*
X16305321Y-6525159D01*
X16233479Y-6525159D01*
X16233479Y-6597001D01*
X16305321Y-6597001D01*
X16305321Y-6851001D02*
X16305321Y-6779159D01*
X16233479Y-6779159D01*
X16233479Y-6851001D01*
X16305321Y-6851001D01*
X16305321Y-7105001D02*
X16305321Y-7033159D01*
X16233479Y-7033159D01*
X16233479Y-7105001D01*
X16305321Y-7105001D01*
X16305321Y-7359001D02*
X16305321Y-7287159D01*
X16233479Y-7287159D01*
X16233479Y-7359001D01*
X16305321Y-7359001D01*
X16305321Y-7613001D02*
X16305321Y-7541159D01*
X16233479Y-7541159D01*
X16233479Y-7613001D01*
X16305321Y-7613001D01*
X16305321Y-7867001D02*
X16305321Y-7795159D01*
X16233479Y-7795159D01*
X16233479Y-7867001D01*
X16305321Y-7867001D01*
X16305321Y-8121001D02*
X16305321Y-8049159D01*
X16233479Y-8049159D01*
X16233479Y-8121001D01*
X16305321Y-8121001D01*
X16305321Y-8375001D02*
X16305321Y-8303159D01*
X16233479Y-8303159D01*
X16233479Y-8375001D01*
X16305321Y-8375001D01*
X16305321Y-8629001D02*
X16305321Y-8557159D01*
X16233479Y-8557159D01*
X16233479Y-8629001D01*
X16305321Y-8629001D01*
X16305321Y-8883001D02*
X16305321Y-8811159D01*
X16233479Y-8811159D01*
X16233479Y-8883001D01*
X16305321Y-8883001D01*
X16305321Y-9137001D02*
X16305321Y-9065159D01*
X16233479Y-9065159D01*
X16233479Y-9137001D01*
X16305321Y-9137001D01*
X16305321Y-9391001D02*
X16305321Y-9319159D01*
X16233479Y-9319159D01*
X16233479Y-9391001D01*
X16305321Y-9391001D01*
X16305321Y-9645001D02*
X16305321Y-9573159D01*
X16233479Y-9573159D01*
X16233479Y-9645001D01*
X16305321Y-9645001D01*
X16305321Y-9899001D02*
X16305321Y-9827159D01*
X16233479Y-9827159D01*
X16233479Y-9899001D01*
X16305321Y-9899001D01*
X16305321Y-10153001D02*
X16305321Y-10081159D01*
X16233479Y-10081159D01*
X16233479Y-10153001D01*
X16305321Y-10153001D01*
X16305321Y-10412081D02*
X16305321Y-10340239D01*
X16233479Y-10340239D01*
X16233479Y-10412081D01*
X16305321Y-10412081D01*
X16469721Y-11871321D02*
X16469721Y-11799479D01*
X16397879Y-11799479D01*
X16397879Y-11871321D01*
X16469721Y-11871321D01*
X16469721Y-13395321D02*
X16469721Y-13323479D01*
X16397879Y-13323479D01*
X16397879Y-13395321D01*
X16469721Y-13395321D01*
X16723721Y-11871321D02*
X16723721Y-11799479D01*
X16651879Y-11799479D01*
X16651879Y-11871321D01*
X16723721Y-11871321D01*
X16723721Y-13395321D02*
X16723721Y-13323479D01*
X16651879Y-13323479D01*
X16651879Y-13395321D01*
X16723721Y-13395321D01*
X16850721Y-12507321D02*
X16850721Y-12435479D01*
X16778879Y-12435479D01*
X16778879Y-12507321D01*
X16850721Y-12507321D01*
X16850721Y-12761321D02*
X16850721Y-12689479D01*
X16778879Y-12689479D01*
X16778879Y-12761321D01*
X16850721Y-12761321D01*
X16939321Y-10026001D02*
X16939321Y-9954159D01*
X16867479Y-9954159D01*
X16867479Y-10026001D01*
X16939321Y-10026001D01*
X16977721Y-11871321D02*
X16977721Y-11799479D01*
X16905879Y-11799479D01*
X16905879Y-11871321D01*
X16977721Y-11871321D01*
X16977721Y-13395321D02*
X16977721Y-13323479D01*
X16905879Y-13323479D01*
X16905879Y-13395321D01*
X16977721Y-13395321D01*
X17193321Y-10026001D02*
X17193321Y-9954159D01*
X17121479Y-9954159D01*
X17121479Y-10026001D01*
X17193321Y-10026001D01*
X17231721Y-11871321D02*
X17231721Y-11799479D01*
X17159879Y-11799479D01*
X17159879Y-11871321D01*
X17231721Y-11871321D01*
X17236801Y-13395321D02*
X17236801Y-13323479D01*
X17164959Y-13323479D01*
X17164959Y-13395321D01*
X17236801Y-13395321D01*
X17829321Y-5581001D02*
X17829321Y-5509159D01*
X17757479Y-5509159D01*
X17757479Y-5581001D01*
X17829321Y-5581001D01*
X17829321Y-5835001D02*
X17829321Y-5763159D01*
X17757479Y-5763159D01*
X17757479Y-5835001D01*
X17829321Y-5835001D01*
X17829321Y-6089001D02*
X17829321Y-6017159D01*
X17757479Y-6017159D01*
X17757479Y-6089001D01*
X17829321Y-6089001D01*
X17829321Y-6343001D02*
X17829321Y-6271159D01*
X17757479Y-6271159D01*
X17757479Y-6343001D01*
X17829321Y-6343001D01*
X17829321Y-6597001D02*
X17829321Y-6525159D01*
X17757479Y-6525159D01*
X17757479Y-6597001D01*
X17829321Y-6597001D01*
X17829321Y-6851001D02*
X17829321Y-6779159D01*
X17757479Y-6779159D01*
X17757479Y-6851001D01*
X17829321Y-6851001D01*
X17829321Y-7105001D02*
X17829321Y-7033159D01*
X17757479Y-7033159D01*
X17757479Y-7105001D01*
X17829321Y-7105001D01*
X17829321Y-7359001D02*
X17829321Y-7287159D01*
X17757479Y-7287159D01*
X17757479Y-7359001D01*
X17829321Y-7359001D01*
X17829321Y-7613001D02*
X17829321Y-7541159D01*
X17757479Y-7541159D01*
X17757479Y-7613001D01*
X17829321Y-7613001D01*
X17829321Y-7867001D02*
X17829321Y-7795159D01*
X17757479Y-7795159D01*
X17757479Y-7867001D01*
X17829321Y-7867001D01*
X17829321Y-8121001D02*
X17829321Y-8049159D01*
X17757479Y-8049159D01*
X17757479Y-8121001D01*
X17829321Y-8121001D01*
X17829321Y-8375001D02*
X17829321Y-8303159D01*
X17757479Y-8303159D01*
X17757479Y-8375001D01*
X17829321Y-8375001D01*
X17829321Y-8629001D02*
X17829321Y-8557159D01*
X17757479Y-8557159D01*
X17757479Y-8629001D01*
X17829321Y-8629001D01*
X17829321Y-8883001D02*
X17829321Y-8811159D01*
X17757479Y-8811159D01*
X17757479Y-8883001D01*
X17829321Y-8883001D01*
X17829321Y-9137001D02*
X17829321Y-9065159D01*
X17757479Y-9065159D01*
X17757479Y-9137001D01*
X17829321Y-9137001D01*
X17829321Y-9391001D02*
X17829321Y-9319159D01*
X17757479Y-9319159D01*
X17757479Y-9391001D01*
X17829321Y-9391001D01*
X17829321Y-9645001D02*
X17829321Y-9573159D01*
X17757479Y-9573159D01*
X17757479Y-9645001D01*
X17829321Y-9645001D01*
X17829321Y-9899001D02*
X17829321Y-9827159D01*
X17757479Y-9827159D01*
X17757479Y-9899001D01*
X17829321Y-9899001D01*
X17829321Y-10153001D02*
X17829321Y-10081159D01*
X17757479Y-10081159D01*
X17757479Y-10153001D01*
X17829321Y-10153001D01*
X17829321Y-10407001D02*
X17829321Y-10335159D01*
X17757479Y-10335159D01*
X17757479Y-10407001D01*
X17829321Y-10407001D01*
D14*
X10668000Y-5766000D02*
X10719000Y-5715000D01*
X10668000Y-5664000D01*
X10617000Y-5715000D01*
X10668000Y-5766000D01*
X10668000Y-6020000D02*
X10719000Y-5969000D01*
X10668000Y-5918000D01*
X10617000Y-5969000D01*
X10668000Y-6020000D01*
X10668000Y-6274000D02*
X10719000Y-6223000D01*
X10668000Y-6172000D01*
X10617000Y-6223000D01*
X10668000Y-6274000D01*
X10668000Y-6528000D02*
X10719000Y-6477000D01*
X10668000Y-6426000D01*
X10617000Y-6477000D01*
X10668000Y-6528000D01*
X10668000Y-6782000D02*
X10719000Y-6731000D01*
X10668000Y-6680000D01*
X10617000Y-6731000D01*
X10668000Y-6782000D01*
X10668000Y-7036000D02*
X10719000Y-6985000D01*
X10668000Y-6934000D01*
X10617000Y-6985000D01*
X10668000Y-7036000D01*
X10668000Y-7290000D02*
X10719000Y-7239000D01*
X10668000Y-7188000D01*
X10617000Y-7239000D01*
X10668000Y-7290000D01*
X10668000Y-7544000D02*
X10719000Y-7493000D01*
X10668000Y-7442000D01*
X10617000Y-7493000D01*
X10668000Y-7544000D01*
X10668000Y-8179000D02*
X10719000Y-8128000D01*
X10668000Y-8077000D01*
X10617000Y-8128000D01*
X10668000Y-8179000D01*
X10668000Y-8433000D02*
X10719000Y-8382000D01*
X10668000Y-8331000D01*
X10617000Y-8382000D01*
X10668000Y-8433000D01*
X10668000Y-8687000D02*
X10719000Y-8636000D01*
X10668000Y-8585000D01*
X10617000Y-8636000D01*
X10668000Y-8687000D01*
X10668000Y-8941000D02*
X10719000Y-8890000D01*
X10668000Y-8839000D01*
X10617000Y-8890000D01*
X10668000Y-8941000D01*
X10668000Y-9195000D02*
X10719000Y-9144000D01*
X10668000Y-9093000D01*
X10617000Y-9144000D01*
X10668000Y-9195000D01*
X10668000Y-9449000D02*
X10719000Y-9398000D01*
X10668000Y-9347000D01*
X10617000Y-9398000D01*
X10668000Y-9449000D01*
X10668000Y-9703000D02*
X10719000Y-9652000D01*
X10668000Y-9601000D01*
X10617000Y-9652000D01*
X10668000Y-9703000D01*
X10668000Y-9957000D02*
X10719000Y-9906000D01*
X10668000Y-9855000D01*
X10617000Y-9906000D01*
X10668000Y-9957000D01*
X10668000Y-10211000D02*
X10719000Y-10160000D01*
X10668000Y-10109000D01*
X10617000Y-10160000D01*
X10668000Y-10211000D01*
X10668000Y-10465000D02*
X10719000Y-10414000D01*
X10668000Y-10363000D01*
X10617000Y-10414000D01*
X10668000Y-10465000D01*
X10668000Y-10719000D02*
X10719000Y-10668000D01*
X10668000Y-10617000D01*
X10617000Y-10668000D01*
X10668000Y-10719000D01*
X10668000Y-10973000D02*
X10719000Y-10922000D01*
X10668000Y-10871000D01*
X10617000Y-10922000D01*
X10668000Y-10973000D01*
X10668000Y-11227000D02*
X10719000Y-11176000D01*
X10668000Y-11125000D01*
X10617000Y-11176000D01*
X10668000Y-11227000D01*
X10668000Y-11481000D02*
X10719000Y-11430000D01*
X10668000Y-11379000D01*
X10617000Y-11430000D01*
X10668000Y-11481000D01*
X10668000Y-11735000D02*
X10719000Y-11684000D01*
X10668000Y-11633000D01*
X10617000Y-11684000D01*
X10668000Y-11735000D01*
X10668000Y-11989000D02*
X10719000Y-11938000D01*
X10668000Y-11887000D01*
X10617000Y-11938000D01*
X10668000Y-11989000D01*
X10668000Y-12243000D02*
X10719000Y-12192000D01*
X10668000Y-12141000D01*
X10617000Y-12192000D01*
X10668000Y-12243000D01*
X10668000Y-12497000D02*
X10719000Y-12446000D01*
X10668000Y-12395000D01*
X10617000Y-12446000D01*
X10668000Y-12497000D01*
X10668000Y-12751000D02*
X10719000Y-12700000D01*
X10668000Y-12649000D01*
X10617000Y-12700000D01*
X10668000Y-12751000D01*
X10668000Y-13005000D02*
X10719000Y-12954000D01*
X10668000Y-12903000D01*
X10617000Y-12954000D01*
X10668000Y-13005000D01*
X10668000Y-13259000D02*
X10719000Y-13208000D01*
X10668000Y-13157000D01*
X10617000Y-13208000D01*
X10668000Y-13259000D01*
X10668000Y-13513000D02*
X10719000Y-13462000D01*
X10668000Y-13411000D01*
X10617000Y-13462000D01*
X10668000Y-13513000D01*
X10668000Y-13767000D02*
X10719000Y-13716000D01*
X10668000Y-13665000D01*
X10617000Y-13716000D01*
X10668000Y-13767000D01*
X10668000Y-14021000D02*
X10719000Y-13970000D01*
X10668000Y-13919000D01*
X10617000Y-13970000D01*
X10668000Y-14021000D01*
X10668000Y-14275000D02*
X10719000Y-14224000D01*
X10668000Y-14173000D01*
X10617000Y-14224000D01*
X10668000Y-14275000D01*
X10668000Y-14529000D02*
X10719000Y-14478000D01*
X10668000Y-14427000D01*
X10617000Y-14478000D01*
X10668000Y-14529000D01*
X10668000Y-14783000D02*
X10719000Y-14732000D01*
X10668000Y-14681000D01*
X10617000Y-14732000D01*
X10668000Y-14783000D01*
X18542000Y-5766000D02*
X18593000Y-5715000D01*
X18542000Y-5664000D01*
X18491000Y-5715000D01*
X18542000Y-5766000D01*
X18542000Y-6020000D02*
X18593000Y-5969000D01*
X18542000Y-5918000D01*
X18491000Y-5969000D01*
X18542000Y-6020000D01*
X18542000Y-6274000D02*
X18593000Y-6223000D01*
X18542000Y-6172000D01*
X18491000Y-6223000D01*
X18542000Y-6274000D01*
X18542000Y-6528000D02*
X18593000Y-6477000D01*
X18542000Y-6426000D01*
X18491000Y-6477000D01*
X18542000Y-6528000D01*
X18542000Y-6782000D02*
X18593000Y-6731000D01*
X18542000Y-6680000D01*
X18491000Y-6731000D01*
X18542000Y-6782000D01*
X18542000Y-7036000D02*
X18593000Y-6985000D01*
X18542000Y-6934000D01*
X18491000Y-6985000D01*
X18542000Y-7036000D01*
X18542000Y-7290000D02*
X18593000Y-7239000D01*
X18542000Y-7188000D01*
X18491000Y-7239000D01*
X18542000Y-7290000D01*
X18542000Y-7544000D02*
X18593000Y-7493000D01*
X18542000Y-7442000D01*
X18491000Y-7493000D01*
X18542000Y-7544000D01*
X18542000Y-7798000D02*
X18593000Y-7747000D01*
X18542000Y-7696000D01*
X18491000Y-7747000D01*
X18542000Y-7798000D01*
X18542000Y-8052000D02*
X18593000Y-8001000D01*
X18542000Y-7950000D01*
X18491000Y-8001000D01*
X18542000Y-8052000D01*
X18542000Y-8306000D02*
X18593000Y-8255000D01*
X18542000Y-8204000D01*
X18491000Y-8255000D01*
X18542000Y-8306000D01*
X18542000Y-8560000D02*
X18593000Y-8509000D01*
X18542000Y-8458000D01*
X18491000Y-8509000D01*
X18542000Y-8560000D01*
X18542000Y-8814000D02*
X18593000Y-8763000D01*
X18542000Y-8712000D01*
X18491000Y-8763000D01*
X18542000Y-8814000D01*
X18542000Y-9068000D02*
X18593000Y-9017000D01*
X18542000Y-8966000D01*
X18491000Y-9017000D01*
X18542000Y-9068000D01*
X18542000Y-9322000D02*
X18593000Y-9271000D01*
X18542000Y-9220000D01*
X18491000Y-9271000D01*
X18542000Y-9322000D01*
X18542000Y-9576000D02*
X18593000Y-9525000D01*
X18542000Y-9474000D01*
X18491000Y-9525000D01*
X18542000Y-9576000D01*
X18542000Y-9830000D02*
X18593000Y-9779000D01*
X18542000Y-9728000D01*
X18491000Y-9779000D01*
X18542000Y-9830000D01*
X18542000Y-10084000D02*
X18593000Y-10033000D01*
X18542000Y-9982000D01*
X18491000Y-10033000D01*
X18542000Y-10084000D01*
X18542000Y-10338000D02*
X18593000Y-10287000D01*
X18542000Y-10236000D01*
X18491000Y-10287000D01*
X18542000Y-10338000D01*
X18542000Y-10592000D02*
X18593000Y-10541000D01*
X18542000Y-10490000D01*
X18491000Y-10541000D01*
X18542000Y-10592000D01*
X18542000Y-10846000D02*
X18593000Y-10795000D01*
X18542000Y-10744000D01*
X18491000Y-10795000D01*
X18542000Y-10846000D01*
X18542000Y-11100000D02*
X18593000Y-11049000D01*
X18542000Y-10998000D01*
X18491000Y-11049000D01*
X18542000Y-11100000D01*
X18542000Y-11354000D02*
X18593000Y-11303000D01*
X18542000Y-11252000D01*
X18491000Y-11303000D01*
X18542000Y-11354000D01*
X18542000Y-11608000D02*
X18593000Y-11557000D01*
X18542000Y-11506000D01*
X18491000Y-11557000D01*
X18542000Y-11608000D01*
X18542000Y-11862000D02*
X18593000Y-11811000D01*
X18542000Y-11760000D01*
X18491000Y-11811000D01*
X18542000Y-11862000D01*
X18542000Y-12116000D02*
X18593000Y-12065000D01*
X18542000Y-12014000D01*
X18491000Y-12065000D01*
X18542000Y-12116000D01*
X18542000Y-12370000D02*
X18593000Y-12319000D01*
X18542000Y-12268000D01*
X18491000Y-12319000D01*
X18542000Y-12370000D01*
X18542000Y-12624000D02*
X18593000Y-12573000D01*
X18542000Y-12522000D01*
X18491000Y-12573000D01*
X18542000Y-12624000D01*
X18542000Y-12878000D02*
X18593000Y-12827000D01*
X18542000Y-12776000D01*
X18491000Y-12827000D01*
X18542000Y-12878000D01*
X18542000Y-13132000D02*
X18593000Y-13081000D01*
X18542000Y-13030000D01*
X18491000Y-13081000D01*
X18542000Y-13132000D01*
X18542000Y-13386000D02*
X18593000Y-13335000D01*
X18542000Y-13284000D01*
X18491000Y-13335000D01*
X18542000Y-13386000D01*
X18542000Y-13640000D02*
X18593000Y-13589000D01*
X18542000Y-13538000D01*
X18491000Y-13589000D01*
X18542000Y-13640000D01*
X18542000Y-13894000D02*
X18593000Y-13843000D01*
X18542000Y-13792000D01*
X18491000Y-13843000D01*
X18542000Y-13894000D01*
X18542000Y-14148000D02*
X18593000Y-14097000D01*
X18542000Y-14046000D01*
X18491000Y-14097000D01*
X18542000Y-14148000D01*
X18542000Y-14402000D02*
X18593000Y-14351000D01*
X18542000Y-14300000D01*
X18491000Y-14351000D01*
X18542000Y-14402000D01*
D15*
X12538600Y-14115000D02*
X12648600Y-14225000D01*
X12648600Y-14115000D02*
X12538600Y-14225000D01*
X12648600Y-14170000D02*
G75*
G03*
X12538600Y-14170000I-55000J0D01*
G01*
X12538600Y-14170000D02*
G75*
G03*
X12648600Y-14170000I55000J0D01*
G01*
X12708600Y-14485000D02*
X12818600Y-14595000D01*
X12818600Y-14485000D02*
X12708600Y-14595000D01*
X12818600Y-14540000D02*
G75*
G03*
X12708600Y-14540000I-55000J0D01*
G01*
X12708600Y-14540000D02*
G75*
G03*
X12818600Y-14540000I55000J0D01*
G01*
X12878600Y-14115000D02*
X12988600Y-14225000D01*
X12988600Y-14115000D02*
X12878600Y-14225000D01*
X12988600Y-14170000D02*
G75*
G03*
X12878600Y-14170000I-55000J0D01*
G01*
X12878600Y-14170000D02*
G75*
G03*
X12988600Y-14170000I55000J0D01*
G01*
X13048600Y-14485000D02*
X13158600Y-14595000D01*
X13158600Y-14485000D02*
X13048600Y-14595000D01*
X13158600Y-14540000D02*
G75*
G03*
X13048600Y-14540000I-55000J0D01*
G01*
X13048600Y-14540000D02*
G75*
G03*
X13158600Y-14540000I55000J0D01*
G01*
X13218600Y-14115000D02*
X13328600Y-14225000D01*
X13328600Y-14115000D02*
X13218600Y-14225000D01*
X13328600Y-14170000D02*
G75*
G03*
X13218600Y-14170000I-55000J0D01*
G01*
X13218600Y-14170000D02*
G75*
G03*
X13328600Y-14170000I55000J0D01*
G01*
X14620400Y-14128300D02*
X14730400Y-14238300D01*
X14730400Y-14128300D02*
X14620400Y-14238300D01*
X14730400Y-14183300D02*
G75*
G03*
X14620400Y-14183300I-55000J0D01*
G01*
X14620400Y-14183300D02*
G75*
G03*
X14730400Y-14183300I55000J0D01*
G01*
X15636400Y-14128300D02*
X15746400Y-14238300D01*
X15746400Y-14128300D02*
X15636400Y-14238300D01*
X15746400Y-14183300D02*
G75*
G03*
X15636400Y-14183300I-55000J0D01*
G01*
X15636400Y-14183300D02*
G75*
G03*
X15746400Y-14183300I55000J0D01*
G01*
X16126000Y-14600000D02*
X16236000Y-14710000D01*
X16236000Y-14600000D02*
X16126000Y-14710000D01*
X16236000Y-14655000D02*
G75*
G03*
X16126000Y-14655000I-55000J0D01*
G01*
X16126000Y-14655000D02*
G75*
G03*
X16236000Y-14655000I55000J0D01*
G01*
X16380000Y-14600000D02*
X16490000Y-14710000D01*
X16490000Y-14600000D02*
X16380000Y-14710000D01*
X16490000Y-14655000D02*
G75*
G03*
X16380000Y-14655000I-55000J0D01*
G01*
X16380000Y-14655000D02*
G75*
G03*
X16490000Y-14655000I55000J0D01*
G01*
X16634000Y-14600000D02*
X16744000Y-14710000D01*
X16744000Y-14600000D02*
X16634000Y-14710000D01*
X16744000Y-14655000D02*
G75*
G03*
X16634000Y-14655000I-55000J0D01*
G01*
X16634000Y-14655000D02*
G75*
G03*
X16744000Y-14655000I55000J0D01*
G01*
D11*
X10413277Y-15398984D02*
X10413277Y-15198984D01*
X10413277Y-15198984D02*
X10460896Y-15198984D01*
X10460896Y-15198984D02*
X10489467Y-15208508D01*
X10489467Y-15208508D02*
X10508515Y-15227555D01*
X10508515Y-15227555D02*
X10518039Y-15246603D01*
X10518039Y-15246603D02*
X10527563Y-15284698D01*
X10527563Y-15284698D02*
X10527563Y-15313269D01*
X10527563Y-15313269D02*
X10518039Y-15351365D01*
X10518039Y-15351365D02*
X10508515Y-15370412D01*
X10508515Y-15370412D02*
X10489467Y-15389460D01*
X10489467Y-15389460D02*
X10460896Y-15398984D01*
X10460896Y-15398984D02*
X10413277Y-15398984D01*
X10613277Y-15398984D02*
X10613277Y-15265650D01*
X10613277Y-15303746D02*
X10622801Y-15284698D01*
X10622801Y-15284698D02*
X10632324Y-15275174D01*
X10632324Y-15275174D02*
X10651372Y-15265650D01*
X10651372Y-15265650D02*
X10670420Y-15265650D01*
X10737086Y-15398984D02*
X10737086Y-15265650D01*
X10737086Y-15198984D02*
X10727563Y-15208508D01*
X10727563Y-15208508D02*
X10737086Y-15218031D01*
X10737086Y-15218031D02*
X10746610Y-15208508D01*
X10746610Y-15208508D02*
X10737086Y-15198984D01*
X10737086Y-15198984D02*
X10737086Y-15218031D01*
X10860896Y-15398984D02*
X10841848Y-15389460D01*
X10841848Y-15389460D02*
X10832324Y-15370412D01*
X10832324Y-15370412D02*
X10832324Y-15198984D01*
X10965658Y-15398984D02*
X10946610Y-15389460D01*
X10946610Y-15389460D02*
X10937086Y-15370412D01*
X10937086Y-15370412D02*
X10937086Y-15198984D01*
X11194229Y-15398984D02*
X11194229Y-15198984D01*
X11194229Y-15198984D02*
X11260896Y-15341841D01*
X11260896Y-15341841D02*
X11327562Y-15198984D01*
X11327562Y-15198984D02*
X11327562Y-15398984D01*
X11508515Y-15398984D02*
X11508515Y-15294222D01*
X11508515Y-15294222D02*
X11498991Y-15275174D01*
X11498991Y-15275174D02*
X11479943Y-15265650D01*
X11479943Y-15265650D02*
X11441848Y-15265650D01*
X11441848Y-15265650D02*
X11422801Y-15275174D01*
X11508515Y-15389460D02*
X11489467Y-15398984D01*
X11489467Y-15398984D02*
X11441848Y-15398984D01*
X11441848Y-15398984D02*
X11422801Y-15389460D01*
X11422801Y-15389460D02*
X11413277Y-15370412D01*
X11413277Y-15370412D02*
X11413277Y-15351365D01*
X11413277Y-15351365D02*
X11422801Y-15332317D01*
X11422801Y-15332317D02*
X11441848Y-15322793D01*
X11441848Y-15322793D02*
X11489467Y-15322793D01*
X11489467Y-15322793D02*
X11508515Y-15313269D01*
X11603753Y-15265650D02*
X11603753Y-15465650D01*
X11603753Y-15275174D02*
X11622801Y-15265650D01*
X11622801Y-15265650D02*
X11660896Y-15265650D01*
X11660896Y-15265650D02*
X11679943Y-15275174D01*
X11679943Y-15275174D02*
X11689467Y-15284698D01*
X11689467Y-15284698D02*
X11698991Y-15303746D01*
X11698991Y-15303746D02*
X11698991Y-15360888D01*
X11698991Y-15360888D02*
X11689467Y-15379936D01*
X11689467Y-15379936D02*
X11679943Y-15389460D01*
X11679943Y-15389460D02*
X11660896Y-15398984D01*
X11660896Y-15398984D02*
X11622801Y-15398984D01*
X11622801Y-15398984D02*
X11603753Y-15389460D01*
X11784705Y-15379936D02*
X11794229Y-15389460D01*
X11794229Y-15389460D02*
X11784705Y-15398984D01*
X11784705Y-15398984D02*
X11775182Y-15389460D01*
X11775182Y-15389460D02*
X11784705Y-15379936D01*
X11784705Y-15379936D02*
X11784705Y-15398984D01*
X11784705Y-15275174D02*
X11794229Y-15284698D01*
X11794229Y-15284698D02*
X11784705Y-15294222D01*
X11784705Y-15294222D02*
X11775182Y-15284698D01*
X11775182Y-15284698D02*
X11784705Y-15275174D01*
X11784705Y-15275174D02*
X11784705Y-15294222D01*
D12*
X10072500Y-15687500D02*
X10152500Y-15767500D01*
X10152500Y-15687500D02*
X10072500Y-15767500D01*
D11*
X10451372Y-15618984D02*
X10470420Y-15618984D01*
X10470420Y-15618984D02*
X10489467Y-15628508D01*
X10489467Y-15628508D02*
X10498991Y-15638031D01*
X10498991Y-15638031D02*
X10508515Y-15657079D01*
X10508515Y-15657079D02*
X10518039Y-15695174D01*
X10518039Y-15695174D02*
X10518039Y-15742793D01*
X10518039Y-15742793D02*
X10508515Y-15780888D01*
X10508515Y-15780888D02*
X10498991Y-15799936D01*
X10498991Y-15799936D02*
X10489467Y-15809460D01*
X10489467Y-15809460D02*
X10470420Y-15818984D01*
X10470420Y-15818984D02*
X10451372Y-15818984D01*
X10451372Y-15818984D02*
X10432324Y-15809460D01*
X10432324Y-15809460D02*
X10422801Y-15799936D01*
X10422801Y-15799936D02*
X10413277Y-15780888D01*
X10413277Y-15780888D02*
X10403753Y-15742793D01*
X10403753Y-15742793D02*
X10403753Y-15695174D01*
X10403753Y-15695174D02*
X10413277Y-15657079D01*
X10413277Y-15657079D02*
X10422801Y-15638031D01*
X10422801Y-15638031D02*
X10432324Y-15628508D01*
X10432324Y-15628508D02*
X10451372Y-15618984D01*
X10603753Y-15799936D02*
X10613277Y-15809460D01*
X10613277Y-15809460D02*
X10603753Y-15818984D01*
X10603753Y-15818984D02*
X10594229Y-15809460D01*
X10594229Y-15809460D02*
X10603753Y-15799936D01*
X10603753Y-15799936D02*
X10603753Y-15818984D01*
X10727563Y-15704698D02*
X10708515Y-15695174D01*
X10708515Y-15695174D02*
X10698991Y-15685650D01*
X10698991Y-15685650D02*
X10689467Y-15666603D01*
X10689467Y-15666603D02*
X10689467Y-15657079D01*
X10689467Y-15657079D02*
X10698991Y-15638031D01*
X10698991Y-15638031D02*
X10708515Y-15628508D01*
X10708515Y-15628508D02*
X10727563Y-15618984D01*
X10727563Y-15618984D02*
X10765658Y-15618984D01*
X10765658Y-15618984D02*
X10784705Y-15628508D01*
X10784705Y-15628508D02*
X10794229Y-15638031D01*
X10794229Y-15638031D02*
X10803753Y-15657079D01*
X10803753Y-15657079D02*
X10803753Y-15666603D01*
X10803753Y-15666603D02*
X10794229Y-15685650D01*
X10794229Y-15685650D02*
X10784705Y-15695174D01*
X10784705Y-15695174D02*
X10765658Y-15704698D01*
X10765658Y-15704698D02*
X10727563Y-15704698D01*
X10727563Y-15704698D02*
X10708515Y-15714222D01*
X10708515Y-15714222D02*
X10698991Y-15723746D01*
X10698991Y-15723746D02*
X10689467Y-15742793D01*
X10689467Y-15742793D02*
X10689467Y-15780888D01*
X10689467Y-15780888D02*
X10698991Y-15799936D01*
X10698991Y-15799936D02*
X10708515Y-15809460D01*
X10708515Y-15809460D02*
X10727563Y-15818984D01*
X10727563Y-15818984D02*
X10765658Y-15818984D01*
X10765658Y-15818984D02*
X10784705Y-15809460D01*
X10784705Y-15809460D02*
X10794229Y-15799936D01*
X10794229Y-15799936D02*
X10803753Y-15780888D01*
X10803753Y-15780888D02*
X10803753Y-15742793D01*
X10803753Y-15742793D02*
X10794229Y-15723746D01*
X10794229Y-15723746D02*
X10784705Y-15714222D01*
X10784705Y-15714222D02*
X10765658Y-15704698D01*
X10927563Y-15618984D02*
X10946610Y-15618984D01*
X10946610Y-15618984D02*
X10965658Y-15628508D01*
X10965658Y-15628508D02*
X10975182Y-15638031D01*
X10975182Y-15638031D02*
X10984705Y-15657079D01*
X10984705Y-15657079D02*
X10994229Y-15695174D01*
X10994229Y-15695174D02*
X10994229Y-15742793D01*
X10994229Y-15742793D02*
X10984705Y-15780888D01*
X10984705Y-15780888D02*
X10975182Y-15799936D01*
X10975182Y-15799936D02*
X10965658Y-15809460D01*
X10965658Y-15809460D02*
X10946610Y-15818984D01*
X10946610Y-15818984D02*
X10927563Y-15818984D01*
X10927563Y-15818984D02*
X10908515Y-15809460D01*
X10908515Y-15809460D02*
X10898991Y-15799936D01*
X10898991Y-15799936D02*
X10889467Y-15780888D01*
X10889467Y-15780888D02*
X10879944Y-15742793D01*
X10879944Y-15742793D02*
X10879944Y-15695174D01*
X10879944Y-15695174D02*
X10889467Y-15657079D01*
X10889467Y-15657079D02*
X10898991Y-15638031D01*
X10898991Y-15638031D02*
X10908515Y-15628508D01*
X10908515Y-15628508D02*
X10927563Y-15618984D01*
X11118039Y-15618984D02*
X11137086Y-15618984D01*
X11137086Y-15618984D02*
X11156134Y-15628508D01*
X11156134Y-15628508D02*
X11165658Y-15638031D01*
X11165658Y-15638031D02*
X11175182Y-15657079D01*
X11175182Y-15657079D02*
X11184705Y-15695174D01*
X11184705Y-15695174D02*
X11184705Y-15742793D01*
X11184705Y-15742793D02*
X11175182Y-15780888D01*
X11175182Y-15780888D02*
X11165658Y-15799936D01*
X11165658Y-15799936D02*
X11156134Y-15809460D01*
X11156134Y-15809460D02*
X11137086Y-15818984D01*
X11137086Y-15818984D02*
X11118039Y-15818984D01*
X11118039Y-15818984D02*
X11098991Y-15809460D01*
X11098991Y-15809460D02*
X11089467Y-15799936D01*
X11089467Y-15799936D02*
X11079944Y-15780888D01*
X11079944Y-15780888D02*
X11070420Y-15742793D01*
X11070420Y-15742793D02*
X11070420Y-15695174D01*
X11070420Y-15695174D02*
X11079944Y-15657079D01*
X11079944Y-15657079D02*
X11089467Y-15638031D01*
X11089467Y-15638031D02*
X11098991Y-15628508D01*
X11098991Y-15628508D02*
X11118039Y-15618984D01*
X11270420Y-15818984D02*
X11270420Y-15685650D01*
X11270420Y-15704698D02*
X11279943Y-15695174D01*
X11279943Y-15695174D02*
X11298991Y-15685650D01*
X11298991Y-15685650D02*
X11327563Y-15685650D01*
X11327563Y-15685650D02*
X11346610Y-15695174D01*
X11346610Y-15695174D02*
X11356134Y-15714222D01*
X11356134Y-15714222D02*
X11356134Y-15818984D01*
X11356134Y-15714222D02*
X11365658Y-15695174D01*
X11365658Y-15695174D02*
X11384705Y-15685650D01*
X11384705Y-15685650D02*
X11413277Y-15685650D01*
X11413277Y-15685650D02*
X11432324Y-15695174D01*
X11432324Y-15695174D02*
X11441848Y-15714222D01*
X11441848Y-15714222D02*
X11441848Y-15818984D01*
X11537086Y-15818984D02*
X11537086Y-15685650D01*
X11537086Y-15704698D02*
X11546610Y-15695174D01*
X11546610Y-15695174D02*
X11565658Y-15685650D01*
X11565658Y-15685650D02*
X11594229Y-15685650D01*
X11594229Y-15685650D02*
X11613277Y-15695174D01*
X11613277Y-15695174D02*
X11622801Y-15714222D01*
X11622801Y-15714222D02*
X11622801Y-15818984D01*
X11622801Y-15714222D02*
X11632324Y-15695174D01*
X11632324Y-15695174D02*
X11651372Y-15685650D01*
X11651372Y-15685650D02*
X11679943Y-15685650D01*
X11679943Y-15685650D02*
X11698991Y-15695174D01*
X11698991Y-15695174D02*
X11708515Y-15714222D01*
X11708515Y-15714222D02*
X11708515Y-15818984D01*
X12098991Y-15609460D02*
X11927563Y-15866603D01*
X12356134Y-15618984D02*
X12375182Y-15618984D01*
X12375182Y-15618984D02*
X12394229Y-15628508D01*
X12394229Y-15628508D02*
X12403753Y-15638031D01*
X12403753Y-15638031D02*
X12413277Y-15657079D01*
X12413277Y-15657079D02*
X12422801Y-15695174D01*
X12422801Y-15695174D02*
X12422801Y-15742793D01*
X12422801Y-15742793D02*
X12413277Y-15780888D01*
X12413277Y-15780888D02*
X12403753Y-15799936D01*
X12403753Y-15799936D02*
X12394229Y-15809460D01*
X12394229Y-15809460D02*
X12375182Y-15818984D01*
X12375182Y-15818984D02*
X12356134Y-15818984D01*
X12356134Y-15818984D02*
X12337086Y-15809460D01*
X12337086Y-15809460D02*
X12327563Y-15799936D01*
X12327563Y-15799936D02*
X12318039Y-15780888D01*
X12318039Y-15780888D02*
X12308515Y-15742793D01*
X12308515Y-15742793D02*
X12308515Y-15695174D01*
X12308515Y-15695174D02*
X12318039Y-15657079D01*
X12318039Y-15657079D02*
X12327563Y-15638031D01*
X12327563Y-15638031D02*
X12337086Y-15628508D01*
X12337086Y-15628508D02*
X12356134Y-15618984D01*
X12508515Y-15799936D02*
X12518039Y-15809460D01*
X12518039Y-15809460D02*
X12508515Y-15818984D01*
X12508515Y-15818984D02*
X12498991Y-15809460D01*
X12498991Y-15809460D02*
X12508515Y-15799936D01*
X12508515Y-15799936D02*
X12508515Y-15818984D01*
X12641848Y-15618984D02*
X12660896Y-15618984D01*
X12660896Y-15618984D02*
X12679944Y-15628508D01*
X12679944Y-15628508D02*
X12689467Y-15638031D01*
X12689467Y-15638031D02*
X12698991Y-15657079D01*
X12698991Y-15657079D02*
X12708515Y-15695174D01*
X12708515Y-15695174D02*
X12708515Y-15742793D01*
X12708515Y-15742793D02*
X12698991Y-15780888D01*
X12698991Y-15780888D02*
X12689467Y-15799936D01*
X12689467Y-15799936D02*
X12679944Y-15809460D01*
X12679944Y-15809460D02*
X12660896Y-15818984D01*
X12660896Y-15818984D02*
X12641848Y-15818984D01*
X12641848Y-15818984D02*
X12622801Y-15809460D01*
X12622801Y-15809460D02*
X12613277Y-15799936D01*
X12613277Y-15799936D02*
X12603753Y-15780888D01*
X12603753Y-15780888D02*
X12594229Y-15742793D01*
X12594229Y-15742793D02*
X12594229Y-15695174D01*
X12594229Y-15695174D02*
X12603753Y-15657079D01*
X12603753Y-15657079D02*
X12613277Y-15638031D01*
X12613277Y-15638031D02*
X12622801Y-15628508D01*
X12622801Y-15628508D02*
X12641848Y-15618984D01*
X12775182Y-15618984D02*
X12898991Y-15618984D01*
X12898991Y-15618984D02*
X12832325Y-15695174D01*
X12832325Y-15695174D02*
X12860896Y-15695174D01*
X12860896Y-15695174D02*
X12879944Y-15704698D01*
X12879944Y-15704698D02*
X12889467Y-15714222D01*
X12889467Y-15714222D02*
X12898991Y-15733269D01*
X12898991Y-15733269D02*
X12898991Y-15780888D01*
X12898991Y-15780888D02*
X12889467Y-15799936D01*
X12889467Y-15799936D02*
X12879944Y-15809460D01*
X12879944Y-15809460D02*
X12860896Y-15818984D01*
X12860896Y-15818984D02*
X12803753Y-15818984D01*
X12803753Y-15818984D02*
X12784706Y-15809460D01*
X12784706Y-15809460D02*
X12775182Y-15799936D01*
X13089467Y-15818984D02*
X12975182Y-15818984D01*
X13032325Y-15818984D02*
X13032325Y-15618984D01*
X13032325Y-15618984D02*
X13013277Y-15647555D01*
X13013277Y-15647555D02*
X12994229Y-15666603D01*
X12994229Y-15666603D02*
X12975182Y-15676127D01*
X13270420Y-15618984D02*
X13175182Y-15618984D01*
X13175182Y-15618984D02*
X13165658Y-15714222D01*
X13165658Y-15714222D02*
X13175182Y-15704698D01*
X13175182Y-15704698D02*
X13194229Y-15695174D01*
X13194229Y-15695174D02*
X13241848Y-15695174D01*
X13241848Y-15695174D02*
X13260896Y-15704698D01*
X13260896Y-15704698D02*
X13270420Y-15714222D01*
X13270420Y-15714222D02*
X13279944Y-15733269D01*
X13279944Y-15733269D02*
X13279944Y-15780888D01*
X13279944Y-15780888D02*
X13270420Y-15799936D01*
X13270420Y-15799936D02*
X13260896Y-15809460D01*
X13260896Y-15809460D02*
X13241848Y-15818984D01*
X13241848Y-15818984D02*
X13194229Y-15818984D01*
X13194229Y-15818984D02*
X13175182Y-15809460D01*
X13175182Y-15809460D02*
X13165658Y-15799936D01*
X13356134Y-15618984D02*
X13356134Y-15657079D01*
X13432325Y-15618984D02*
X13432325Y-15657079D01*
X13727563Y-15895174D02*
X13718039Y-15885650D01*
X13718039Y-15885650D02*
X13698991Y-15857079D01*
X13698991Y-15857079D02*
X13689468Y-15838031D01*
X13689468Y-15838031D02*
X13679944Y-15809460D01*
X13679944Y-15809460D02*
X13670420Y-15761841D01*
X13670420Y-15761841D02*
X13670420Y-15723746D01*
X13670420Y-15723746D02*
X13679944Y-15676127D01*
X13679944Y-15676127D02*
X13689468Y-15647555D01*
X13689468Y-15647555D02*
X13698991Y-15628508D01*
X13698991Y-15628508D02*
X13718039Y-15599936D01*
X13718039Y-15599936D02*
X13727563Y-15590412D01*
X13784706Y-15618984D02*
X13908515Y-15618984D01*
X13908515Y-15618984D02*
X13841848Y-15695174D01*
X13841848Y-15695174D02*
X13870420Y-15695174D01*
X13870420Y-15695174D02*
X13889468Y-15704698D01*
X13889468Y-15704698D02*
X13898991Y-15714222D01*
X13898991Y-15714222D02*
X13908515Y-15733269D01*
X13908515Y-15733269D02*
X13908515Y-15780888D01*
X13908515Y-15780888D02*
X13898991Y-15799936D01*
X13898991Y-15799936D02*
X13889468Y-15809460D01*
X13889468Y-15809460D02*
X13870420Y-15818984D01*
X13870420Y-15818984D02*
X13813277Y-15818984D01*
X13813277Y-15818984D02*
X13794229Y-15809460D01*
X13794229Y-15809460D02*
X13784706Y-15799936D01*
X14032325Y-15618984D02*
X14051372Y-15618984D01*
X14051372Y-15618984D02*
X14070420Y-15628508D01*
X14070420Y-15628508D02*
X14079944Y-15638031D01*
X14079944Y-15638031D02*
X14089468Y-15657079D01*
X14089468Y-15657079D02*
X14098991Y-15695174D01*
X14098991Y-15695174D02*
X14098991Y-15742793D01*
X14098991Y-15742793D02*
X14089468Y-15780888D01*
X14089468Y-15780888D02*
X14079944Y-15799936D01*
X14079944Y-15799936D02*
X14070420Y-15809460D01*
X14070420Y-15809460D02*
X14051372Y-15818984D01*
X14051372Y-15818984D02*
X14032325Y-15818984D01*
X14032325Y-15818984D02*
X14013277Y-15809460D01*
X14013277Y-15809460D02*
X14003753Y-15799936D01*
X14003753Y-15799936D02*
X13994229Y-15780888D01*
X13994229Y-15780888D02*
X13984706Y-15742793D01*
X13984706Y-15742793D02*
X13984706Y-15695174D01*
X13984706Y-15695174D02*
X13994229Y-15657079D01*
X13994229Y-15657079D02*
X14003753Y-15638031D01*
X14003753Y-15638031D02*
X14013277Y-15628508D01*
X14013277Y-15628508D02*
X14032325Y-15618984D01*
X14337087Y-15818984D02*
X14337087Y-15618984D01*
X14422801Y-15818984D02*
X14422801Y-15714222D01*
X14422801Y-15714222D02*
X14413277Y-15695174D01*
X14413277Y-15695174D02*
X14394230Y-15685650D01*
X14394230Y-15685650D02*
X14365658Y-15685650D01*
X14365658Y-15685650D02*
X14346610Y-15695174D01*
X14346610Y-15695174D02*
X14337087Y-15704698D01*
X14546610Y-15818984D02*
X14527563Y-15809460D01*
X14527563Y-15809460D02*
X14518039Y-15799936D01*
X14518039Y-15799936D02*
X14508515Y-15780888D01*
X14508515Y-15780888D02*
X14508515Y-15723746D01*
X14508515Y-15723746D02*
X14518039Y-15704698D01*
X14518039Y-15704698D02*
X14527563Y-15695174D01*
X14527563Y-15695174D02*
X14546610Y-15685650D01*
X14546610Y-15685650D02*
X14575182Y-15685650D01*
X14575182Y-15685650D02*
X14594230Y-15695174D01*
X14594230Y-15695174D02*
X14603753Y-15704698D01*
X14603753Y-15704698D02*
X14613277Y-15723746D01*
X14613277Y-15723746D02*
X14613277Y-15780888D01*
X14613277Y-15780888D02*
X14603753Y-15799936D01*
X14603753Y-15799936D02*
X14594230Y-15809460D01*
X14594230Y-15809460D02*
X14575182Y-15818984D01*
X14575182Y-15818984D02*
X14546610Y-15818984D01*
X14727563Y-15818984D02*
X14708515Y-15809460D01*
X14708515Y-15809460D02*
X14698991Y-15790412D01*
X14698991Y-15790412D02*
X14698991Y-15618984D01*
X14879944Y-15809460D02*
X14860896Y-15818984D01*
X14860896Y-15818984D02*
X14822801Y-15818984D01*
X14822801Y-15818984D02*
X14803753Y-15809460D01*
X14803753Y-15809460D02*
X14794230Y-15790412D01*
X14794230Y-15790412D02*
X14794230Y-15714222D01*
X14794230Y-15714222D02*
X14803753Y-15695174D01*
X14803753Y-15695174D02*
X14822801Y-15685650D01*
X14822801Y-15685650D02*
X14860896Y-15685650D01*
X14860896Y-15685650D02*
X14879944Y-15695174D01*
X14879944Y-15695174D02*
X14889468Y-15714222D01*
X14889468Y-15714222D02*
X14889468Y-15733269D01*
X14889468Y-15733269D02*
X14794230Y-15752317D01*
X14965658Y-15809460D02*
X14984706Y-15818984D01*
X14984706Y-15818984D02*
X15022801Y-15818984D01*
X15022801Y-15818984D02*
X15041849Y-15809460D01*
X15041849Y-15809460D02*
X15051372Y-15790412D01*
X15051372Y-15790412D02*
X15051372Y-15780888D01*
X15051372Y-15780888D02*
X15041849Y-15761841D01*
X15041849Y-15761841D02*
X15022801Y-15752317D01*
X15022801Y-15752317D02*
X14994230Y-15752317D01*
X14994230Y-15752317D02*
X14975182Y-15742793D01*
X14975182Y-15742793D02*
X14965658Y-15723746D01*
X14965658Y-15723746D02*
X14965658Y-15714222D01*
X14965658Y-15714222D02*
X14975182Y-15695174D01*
X14975182Y-15695174D02*
X14994230Y-15685650D01*
X14994230Y-15685650D02*
X15022801Y-15685650D01*
X15022801Y-15685650D02*
X15041849Y-15695174D01*
X15118039Y-15895174D02*
X15127563Y-15885650D01*
X15127563Y-15885650D02*
X15146611Y-15857079D01*
X15146611Y-15857079D02*
X15156134Y-15838031D01*
X15156134Y-15838031D02*
X15165658Y-15809460D01*
X15165658Y-15809460D02*
X15175182Y-15761841D01*
X15175182Y-15761841D02*
X15175182Y-15723746D01*
X15175182Y-15723746D02*
X15165658Y-15676127D01*
X15165658Y-15676127D02*
X15156134Y-15647555D01*
X15156134Y-15647555D02*
X15146611Y-15628508D01*
X15146611Y-15628508D02*
X15127563Y-15599936D01*
X15127563Y-15599936D02*
X15118039Y-15590412D01*
D12*
X10152500Y-15991500D02*
G75*
G03*
X10072500Y-15991500I-40000J0D01*
G01*
X10072500Y-15991500D02*
G75*
G03*
X10152500Y-15991500I40000J0D01*
G01*
D11*
X10451372Y-15882984D02*
X10470420Y-15882984D01*
X10470420Y-15882984D02*
X10489467Y-15892508D01*
X10489467Y-15892508D02*
X10498991Y-15902031D01*
X10498991Y-15902031D02*
X10508515Y-15921079D01*
X10508515Y-15921079D02*
X10518039Y-15959174D01*
X10518039Y-15959174D02*
X10518039Y-16006793D01*
X10518039Y-16006793D02*
X10508515Y-16044888D01*
X10508515Y-16044888D02*
X10498991Y-16063936D01*
X10498991Y-16063936D02*
X10489467Y-16073460D01*
X10489467Y-16073460D02*
X10470420Y-16082984D01*
X10470420Y-16082984D02*
X10451372Y-16082984D01*
X10451372Y-16082984D02*
X10432324Y-16073460D01*
X10432324Y-16073460D02*
X10422801Y-16063936D01*
X10422801Y-16063936D02*
X10413277Y-16044888D01*
X10413277Y-16044888D02*
X10403753Y-16006793D01*
X10403753Y-16006793D02*
X10403753Y-15959174D01*
X10403753Y-15959174D02*
X10413277Y-15921079D01*
X10413277Y-15921079D02*
X10422801Y-15902031D01*
X10422801Y-15902031D02*
X10432324Y-15892508D01*
X10432324Y-15892508D02*
X10451372Y-15882984D01*
X10603753Y-16063936D02*
X10613277Y-16073460D01*
X10613277Y-16073460D02*
X10603753Y-16082984D01*
X10603753Y-16082984D02*
X10594229Y-16073460D01*
X10594229Y-16073460D02*
X10603753Y-16063936D01*
X10603753Y-16063936D02*
X10603753Y-16082984D01*
X10727563Y-15968698D02*
X10708515Y-15959174D01*
X10708515Y-15959174D02*
X10698991Y-15949650D01*
X10698991Y-15949650D02*
X10689467Y-15930603D01*
X10689467Y-15930603D02*
X10689467Y-15921079D01*
X10689467Y-15921079D02*
X10698991Y-15902031D01*
X10698991Y-15902031D02*
X10708515Y-15892508D01*
X10708515Y-15892508D02*
X10727563Y-15882984D01*
X10727563Y-15882984D02*
X10765658Y-15882984D01*
X10765658Y-15882984D02*
X10784705Y-15892508D01*
X10784705Y-15892508D02*
X10794229Y-15902031D01*
X10794229Y-15902031D02*
X10803753Y-15921079D01*
X10803753Y-15921079D02*
X10803753Y-15930603D01*
X10803753Y-15930603D02*
X10794229Y-15949650D01*
X10794229Y-15949650D02*
X10784705Y-15959174D01*
X10784705Y-15959174D02*
X10765658Y-15968698D01*
X10765658Y-15968698D02*
X10727563Y-15968698D01*
X10727563Y-15968698D02*
X10708515Y-15978222D01*
X10708515Y-15978222D02*
X10698991Y-15987746D01*
X10698991Y-15987746D02*
X10689467Y-16006793D01*
X10689467Y-16006793D02*
X10689467Y-16044888D01*
X10689467Y-16044888D02*
X10698991Y-16063936D01*
X10698991Y-16063936D02*
X10708515Y-16073460D01*
X10708515Y-16073460D02*
X10727563Y-16082984D01*
X10727563Y-16082984D02*
X10765658Y-16082984D01*
X10765658Y-16082984D02*
X10784705Y-16073460D01*
X10784705Y-16073460D02*
X10794229Y-16063936D01*
X10794229Y-16063936D02*
X10803753Y-16044888D01*
X10803753Y-16044888D02*
X10803753Y-16006793D01*
X10803753Y-16006793D02*
X10794229Y-15987746D01*
X10794229Y-15987746D02*
X10784705Y-15978222D01*
X10784705Y-15978222D02*
X10765658Y-15968698D01*
X10927563Y-15882984D02*
X10946610Y-15882984D01*
X10946610Y-15882984D02*
X10965658Y-15892508D01*
X10965658Y-15892508D02*
X10975182Y-15902031D01*
X10975182Y-15902031D02*
X10984705Y-15921079D01*
X10984705Y-15921079D02*
X10994229Y-15959174D01*
X10994229Y-15959174D02*
X10994229Y-16006793D01*
X10994229Y-16006793D02*
X10984705Y-16044888D01*
X10984705Y-16044888D02*
X10975182Y-16063936D01*
X10975182Y-16063936D02*
X10965658Y-16073460D01*
X10965658Y-16073460D02*
X10946610Y-16082984D01*
X10946610Y-16082984D02*
X10927563Y-16082984D01*
X10927563Y-16082984D02*
X10908515Y-16073460D01*
X10908515Y-16073460D02*
X10898991Y-16063936D01*
X10898991Y-16063936D02*
X10889467Y-16044888D01*
X10889467Y-16044888D02*
X10879944Y-16006793D01*
X10879944Y-16006793D02*
X10879944Y-15959174D01*
X10879944Y-15959174D02*
X10889467Y-15921079D01*
X10889467Y-15921079D02*
X10898991Y-15902031D01*
X10898991Y-15902031D02*
X10908515Y-15892508D01*
X10908515Y-15892508D02*
X10927563Y-15882984D01*
X11118039Y-15882984D02*
X11137086Y-15882984D01*
X11137086Y-15882984D02*
X11156134Y-15892508D01*
X11156134Y-15892508D02*
X11165658Y-15902031D01*
X11165658Y-15902031D02*
X11175182Y-15921079D01*
X11175182Y-15921079D02*
X11184705Y-15959174D01*
X11184705Y-15959174D02*
X11184705Y-16006793D01*
X11184705Y-16006793D02*
X11175182Y-16044888D01*
X11175182Y-16044888D02*
X11165658Y-16063936D01*
X11165658Y-16063936D02*
X11156134Y-16073460D01*
X11156134Y-16073460D02*
X11137086Y-16082984D01*
X11137086Y-16082984D02*
X11118039Y-16082984D01*
X11118039Y-16082984D02*
X11098991Y-16073460D01*
X11098991Y-16073460D02*
X11089467Y-16063936D01*
X11089467Y-16063936D02*
X11079944Y-16044888D01*
X11079944Y-16044888D02*
X11070420Y-16006793D01*
X11070420Y-16006793D02*
X11070420Y-15959174D01*
X11070420Y-15959174D02*
X11079944Y-15921079D01*
X11079944Y-15921079D02*
X11089467Y-15902031D01*
X11089467Y-15902031D02*
X11098991Y-15892508D01*
X11098991Y-15892508D02*
X11118039Y-15882984D01*
X11270420Y-16082984D02*
X11270420Y-15949650D01*
X11270420Y-15968698D02*
X11279943Y-15959174D01*
X11279943Y-15959174D02*
X11298991Y-15949650D01*
X11298991Y-15949650D02*
X11327563Y-15949650D01*
X11327563Y-15949650D02*
X11346610Y-15959174D01*
X11346610Y-15959174D02*
X11356134Y-15978222D01*
X11356134Y-15978222D02*
X11356134Y-16082984D01*
X11356134Y-15978222D02*
X11365658Y-15959174D01*
X11365658Y-15959174D02*
X11384705Y-15949650D01*
X11384705Y-15949650D02*
X11413277Y-15949650D01*
X11413277Y-15949650D02*
X11432324Y-15959174D01*
X11432324Y-15959174D02*
X11441848Y-15978222D01*
X11441848Y-15978222D02*
X11441848Y-16082984D01*
X11537086Y-16082984D02*
X11537086Y-15949650D01*
X11537086Y-15968698D02*
X11546610Y-15959174D01*
X11546610Y-15959174D02*
X11565658Y-15949650D01*
X11565658Y-15949650D02*
X11594229Y-15949650D01*
X11594229Y-15949650D02*
X11613277Y-15959174D01*
X11613277Y-15959174D02*
X11622801Y-15978222D01*
X11622801Y-15978222D02*
X11622801Y-16082984D01*
X11622801Y-15978222D02*
X11632324Y-15959174D01*
X11632324Y-15959174D02*
X11651372Y-15949650D01*
X11651372Y-15949650D02*
X11679943Y-15949650D01*
X11679943Y-15949650D02*
X11698991Y-15959174D01*
X11698991Y-15959174D02*
X11708515Y-15978222D01*
X11708515Y-15978222D02*
X11708515Y-16082984D01*
X12098991Y-15873460D02*
X11927563Y-16130603D01*
X12356134Y-15882984D02*
X12375182Y-15882984D01*
X12375182Y-15882984D02*
X12394229Y-15892508D01*
X12394229Y-15892508D02*
X12403753Y-15902031D01*
X12403753Y-15902031D02*
X12413277Y-15921079D01*
X12413277Y-15921079D02*
X12422801Y-15959174D01*
X12422801Y-15959174D02*
X12422801Y-16006793D01*
X12422801Y-16006793D02*
X12413277Y-16044888D01*
X12413277Y-16044888D02*
X12403753Y-16063936D01*
X12403753Y-16063936D02*
X12394229Y-16073460D01*
X12394229Y-16073460D02*
X12375182Y-16082984D01*
X12375182Y-16082984D02*
X12356134Y-16082984D01*
X12356134Y-16082984D02*
X12337086Y-16073460D01*
X12337086Y-16073460D02*
X12327563Y-16063936D01*
X12327563Y-16063936D02*
X12318039Y-16044888D01*
X12318039Y-16044888D02*
X12308515Y-16006793D01*
X12308515Y-16006793D02*
X12308515Y-15959174D01*
X12308515Y-15959174D02*
X12318039Y-15921079D01*
X12318039Y-15921079D02*
X12327563Y-15902031D01*
X12327563Y-15902031D02*
X12337086Y-15892508D01*
X12337086Y-15892508D02*
X12356134Y-15882984D01*
X12508515Y-16063936D02*
X12518039Y-16073460D01*
X12518039Y-16073460D02*
X12508515Y-16082984D01*
X12508515Y-16082984D02*
X12498991Y-16073460D01*
X12498991Y-16073460D02*
X12508515Y-16063936D01*
X12508515Y-16063936D02*
X12508515Y-16082984D01*
X12641848Y-15882984D02*
X12660896Y-15882984D01*
X12660896Y-15882984D02*
X12679944Y-15892508D01*
X12679944Y-15892508D02*
X12689467Y-15902031D01*
X12689467Y-15902031D02*
X12698991Y-15921079D01*
X12698991Y-15921079D02*
X12708515Y-15959174D01*
X12708515Y-15959174D02*
X12708515Y-16006793D01*
X12708515Y-16006793D02*
X12698991Y-16044888D01*
X12698991Y-16044888D02*
X12689467Y-16063936D01*
X12689467Y-16063936D02*
X12679944Y-16073460D01*
X12679944Y-16073460D02*
X12660896Y-16082984D01*
X12660896Y-16082984D02*
X12641848Y-16082984D01*
X12641848Y-16082984D02*
X12622801Y-16073460D01*
X12622801Y-16073460D02*
X12613277Y-16063936D01*
X12613277Y-16063936D02*
X12603753Y-16044888D01*
X12603753Y-16044888D02*
X12594229Y-16006793D01*
X12594229Y-16006793D02*
X12594229Y-15959174D01*
X12594229Y-15959174D02*
X12603753Y-15921079D01*
X12603753Y-15921079D02*
X12613277Y-15902031D01*
X12613277Y-15902031D02*
X12622801Y-15892508D01*
X12622801Y-15892508D02*
X12641848Y-15882984D01*
X12775182Y-15882984D02*
X12898991Y-15882984D01*
X12898991Y-15882984D02*
X12832325Y-15959174D01*
X12832325Y-15959174D02*
X12860896Y-15959174D01*
X12860896Y-15959174D02*
X12879944Y-15968698D01*
X12879944Y-15968698D02*
X12889467Y-15978222D01*
X12889467Y-15978222D02*
X12898991Y-15997269D01*
X12898991Y-15997269D02*
X12898991Y-16044888D01*
X12898991Y-16044888D02*
X12889467Y-16063936D01*
X12889467Y-16063936D02*
X12879944Y-16073460D01*
X12879944Y-16073460D02*
X12860896Y-16082984D01*
X12860896Y-16082984D02*
X12803753Y-16082984D01*
X12803753Y-16082984D02*
X12784706Y-16073460D01*
X12784706Y-16073460D02*
X12775182Y-16063936D01*
X13089467Y-16082984D02*
X12975182Y-16082984D01*
X13032325Y-16082984D02*
X13032325Y-15882984D01*
X13032325Y-15882984D02*
X13013277Y-15911555D01*
X13013277Y-15911555D02*
X12994229Y-15930603D01*
X12994229Y-15930603D02*
X12975182Y-15940127D01*
X13270420Y-15882984D02*
X13175182Y-15882984D01*
X13175182Y-15882984D02*
X13165658Y-15978222D01*
X13165658Y-15978222D02*
X13175182Y-15968698D01*
X13175182Y-15968698D02*
X13194229Y-15959174D01*
X13194229Y-15959174D02*
X13241848Y-15959174D01*
X13241848Y-15959174D02*
X13260896Y-15968698D01*
X13260896Y-15968698D02*
X13270420Y-15978222D01*
X13270420Y-15978222D02*
X13279944Y-15997269D01*
X13279944Y-15997269D02*
X13279944Y-16044888D01*
X13279944Y-16044888D02*
X13270420Y-16063936D01*
X13270420Y-16063936D02*
X13260896Y-16073460D01*
X13260896Y-16073460D02*
X13241848Y-16082984D01*
X13241848Y-16082984D02*
X13194229Y-16082984D01*
X13194229Y-16082984D02*
X13175182Y-16073460D01*
X13175182Y-16073460D02*
X13165658Y-16063936D01*
X13356134Y-15882984D02*
X13356134Y-15921079D01*
X13432325Y-15882984D02*
X13432325Y-15921079D01*
X13727563Y-16159174D02*
X13718039Y-16149650D01*
X13718039Y-16149650D02*
X13698991Y-16121079D01*
X13698991Y-16121079D02*
X13689468Y-16102031D01*
X13689468Y-16102031D02*
X13679944Y-16073460D01*
X13679944Y-16073460D02*
X13670420Y-16025841D01*
X13670420Y-16025841D02*
X13670420Y-15987746D01*
X13670420Y-15987746D02*
X13679944Y-15940127D01*
X13679944Y-15940127D02*
X13689468Y-15911555D01*
X13689468Y-15911555D02*
X13698991Y-15892508D01*
X13698991Y-15892508D02*
X13718039Y-15863936D01*
X13718039Y-15863936D02*
X13727563Y-15854412D01*
X13832325Y-15968698D02*
X13813277Y-15959174D01*
X13813277Y-15959174D02*
X13803753Y-15949650D01*
X13803753Y-15949650D02*
X13794229Y-15930603D01*
X13794229Y-15930603D02*
X13794229Y-15921079D01*
X13794229Y-15921079D02*
X13803753Y-15902031D01*
X13803753Y-15902031D02*
X13813277Y-15892508D01*
X13813277Y-15892508D02*
X13832325Y-15882984D01*
X13832325Y-15882984D02*
X13870420Y-15882984D01*
X13870420Y-15882984D02*
X13889468Y-15892508D01*
X13889468Y-15892508D02*
X13898991Y-15902031D01*
X13898991Y-15902031D02*
X13908515Y-15921079D01*
X13908515Y-15921079D02*
X13908515Y-15930603D01*
X13908515Y-15930603D02*
X13898991Y-15949650D01*
X13898991Y-15949650D02*
X13889468Y-15959174D01*
X13889468Y-15959174D02*
X13870420Y-15968698D01*
X13870420Y-15968698D02*
X13832325Y-15968698D01*
X13832325Y-15968698D02*
X13813277Y-15978222D01*
X13813277Y-15978222D02*
X13803753Y-15987746D01*
X13803753Y-15987746D02*
X13794229Y-16006793D01*
X13794229Y-16006793D02*
X13794229Y-16044888D01*
X13794229Y-16044888D02*
X13803753Y-16063936D01*
X13803753Y-16063936D02*
X13813277Y-16073460D01*
X13813277Y-16073460D02*
X13832325Y-16082984D01*
X13832325Y-16082984D02*
X13870420Y-16082984D01*
X13870420Y-16082984D02*
X13889468Y-16073460D01*
X13889468Y-16073460D02*
X13898991Y-16063936D01*
X13898991Y-16063936D02*
X13908515Y-16044888D01*
X13908515Y-16044888D02*
X13908515Y-16006793D01*
X13908515Y-16006793D02*
X13898991Y-15987746D01*
X13898991Y-15987746D02*
X13889468Y-15978222D01*
X13889468Y-15978222D02*
X13870420Y-15968698D01*
X14146610Y-16082984D02*
X14146610Y-15882984D01*
X14232325Y-16082984D02*
X14232325Y-15978222D01*
X14232325Y-15978222D02*
X14222801Y-15959174D01*
X14222801Y-15959174D02*
X14203753Y-15949650D01*
X14203753Y-15949650D02*
X14175182Y-15949650D01*
X14175182Y-15949650D02*
X14156134Y-15959174D01*
X14156134Y-15959174D02*
X14146610Y-15968698D01*
X14356134Y-16082984D02*
X14337087Y-16073460D01*
X14337087Y-16073460D02*
X14327563Y-16063936D01*
X14327563Y-16063936D02*
X14318039Y-16044888D01*
X14318039Y-16044888D02*
X14318039Y-15987746D01*
X14318039Y-15987746D02*
X14327563Y-15968698D01*
X14327563Y-15968698D02*
X14337087Y-15959174D01*
X14337087Y-15959174D02*
X14356134Y-15949650D01*
X14356134Y-15949650D02*
X14384706Y-15949650D01*
X14384706Y-15949650D02*
X14403753Y-15959174D01*
X14403753Y-15959174D02*
X14413277Y-15968698D01*
X14413277Y-15968698D02*
X14422801Y-15987746D01*
X14422801Y-15987746D02*
X14422801Y-16044888D01*
X14422801Y-16044888D02*
X14413277Y-16063936D01*
X14413277Y-16063936D02*
X14403753Y-16073460D01*
X14403753Y-16073460D02*
X14384706Y-16082984D01*
X14384706Y-16082984D02*
X14356134Y-16082984D01*
X14537087Y-16082984D02*
X14518039Y-16073460D01*
X14518039Y-16073460D02*
X14508515Y-16054412D01*
X14508515Y-16054412D02*
X14508515Y-15882984D01*
X14689468Y-16073460D02*
X14670420Y-16082984D01*
X14670420Y-16082984D02*
X14632325Y-16082984D01*
X14632325Y-16082984D02*
X14613277Y-16073460D01*
X14613277Y-16073460D02*
X14603753Y-16054412D01*
X14603753Y-16054412D02*
X14603753Y-15978222D01*
X14603753Y-15978222D02*
X14613277Y-15959174D01*
X14613277Y-15959174D02*
X14632325Y-15949650D01*
X14632325Y-15949650D02*
X14670420Y-15949650D01*
X14670420Y-15949650D02*
X14689468Y-15959174D01*
X14689468Y-15959174D02*
X14698991Y-15978222D01*
X14698991Y-15978222D02*
X14698991Y-15997269D01*
X14698991Y-15997269D02*
X14603753Y-16016317D01*
X14775182Y-16073460D02*
X14794230Y-16082984D01*
X14794230Y-16082984D02*
X14832325Y-16082984D01*
X14832325Y-16082984D02*
X14851372Y-16073460D01*
X14851372Y-16073460D02*
X14860896Y-16054412D01*
X14860896Y-16054412D02*
X14860896Y-16044888D01*
X14860896Y-16044888D02*
X14851372Y-16025841D01*
X14851372Y-16025841D02*
X14832325Y-16016317D01*
X14832325Y-16016317D02*
X14803753Y-16016317D01*
X14803753Y-16016317D02*
X14784706Y-16006793D01*
X14784706Y-16006793D02*
X14775182Y-15987746D01*
X14775182Y-15987746D02*
X14775182Y-15978222D01*
X14775182Y-15978222D02*
X14784706Y-15959174D01*
X14784706Y-15959174D02*
X14803753Y-15949650D01*
X14803753Y-15949650D02*
X14832325Y-15949650D01*
X14832325Y-15949650D02*
X14851372Y-15959174D01*
X14927563Y-16159174D02*
X14937087Y-16149650D01*
X14937087Y-16149650D02*
X14956134Y-16121079D01*
X14956134Y-16121079D02*
X14965658Y-16102031D01*
X14965658Y-16102031D02*
X14975182Y-16073460D01*
X14975182Y-16073460D02*
X14984706Y-16025841D01*
X14984706Y-16025841D02*
X14984706Y-15987746D01*
X14984706Y-15987746D02*
X14975182Y-15940127D01*
X14975182Y-15940127D02*
X14965658Y-15911555D01*
X14965658Y-15911555D02*
X14956134Y-15892508D01*
X14956134Y-15892508D02*
X14937087Y-15863936D01*
X14937087Y-15863936D02*
X14927563Y-15854412D01*
D12*
X10102500Y-16205500D02*
X10102500Y-16305500D01*
X10052500Y-16255500D02*
X10152500Y-16255500D01*
D11*
X10518039Y-16346984D02*
X10403753Y-16346984D01*
X10460896Y-16346984D02*
X10460896Y-16146984D01*
X10460896Y-16146984D02*
X10441848Y-16175555D01*
X10441848Y-16175555D02*
X10422801Y-16194603D01*
X10422801Y-16194603D02*
X10403753Y-16204127D01*
X10603753Y-16327936D02*
X10613277Y-16337460D01*
X10613277Y-16337460D02*
X10603753Y-16346984D01*
X10603753Y-16346984D02*
X10594229Y-16337460D01*
X10594229Y-16337460D02*
X10603753Y-16327936D01*
X10603753Y-16327936D02*
X10603753Y-16346984D01*
X10737086Y-16146984D02*
X10756134Y-16146984D01*
X10756134Y-16146984D02*
X10775182Y-16156508D01*
X10775182Y-16156508D02*
X10784705Y-16166031D01*
X10784705Y-16166031D02*
X10794229Y-16185079D01*
X10794229Y-16185079D02*
X10803753Y-16223174D01*
X10803753Y-16223174D02*
X10803753Y-16270793D01*
X10803753Y-16270793D02*
X10794229Y-16308888D01*
X10794229Y-16308888D02*
X10784705Y-16327936D01*
X10784705Y-16327936D02*
X10775182Y-16337460D01*
X10775182Y-16337460D02*
X10756134Y-16346984D01*
X10756134Y-16346984D02*
X10737086Y-16346984D01*
X10737086Y-16346984D02*
X10718039Y-16337460D01*
X10718039Y-16337460D02*
X10708515Y-16327936D01*
X10708515Y-16327936D02*
X10698991Y-16308888D01*
X10698991Y-16308888D02*
X10689467Y-16270793D01*
X10689467Y-16270793D02*
X10689467Y-16223174D01*
X10689467Y-16223174D02*
X10698991Y-16185079D01*
X10698991Y-16185079D02*
X10708515Y-16166031D01*
X10708515Y-16166031D02*
X10718039Y-16156508D01*
X10718039Y-16156508D02*
X10737086Y-16146984D01*
X10927563Y-16146984D02*
X10946610Y-16146984D01*
X10946610Y-16146984D02*
X10965658Y-16156508D01*
X10965658Y-16156508D02*
X10975182Y-16166031D01*
X10975182Y-16166031D02*
X10984705Y-16185079D01*
X10984705Y-16185079D02*
X10994229Y-16223174D01*
X10994229Y-16223174D02*
X10994229Y-16270793D01*
X10994229Y-16270793D02*
X10984705Y-16308888D01*
X10984705Y-16308888D02*
X10975182Y-16327936D01*
X10975182Y-16327936D02*
X10965658Y-16337460D01*
X10965658Y-16337460D02*
X10946610Y-16346984D01*
X10946610Y-16346984D02*
X10927563Y-16346984D01*
X10927563Y-16346984D02*
X10908515Y-16337460D01*
X10908515Y-16337460D02*
X10898991Y-16327936D01*
X10898991Y-16327936D02*
X10889467Y-16308888D01*
X10889467Y-16308888D02*
X10879944Y-16270793D01*
X10879944Y-16270793D02*
X10879944Y-16223174D01*
X10879944Y-16223174D02*
X10889467Y-16185079D01*
X10889467Y-16185079D02*
X10898991Y-16166031D01*
X10898991Y-16166031D02*
X10908515Y-16156508D01*
X10908515Y-16156508D02*
X10927563Y-16146984D01*
X11118039Y-16146984D02*
X11137086Y-16146984D01*
X11137086Y-16146984D02*
X11156134Y-16156508D01*
X11156134Y-16156508D02*
X11165658Y-16166031D01*
X11165658Y-16166031D02*
X11175182Y-16185079D01*
X11175182Y-16185079D02*
X11184705Y-16223174D01*
X11184705Y-16223174D02*
X11184705Y-16270793D01*
X11184705Y-16270793D02*
X11175182Y-16308888D01*
X11175182Y-16308888D02*
X11165658Y-16327936D01*
X11165658Y-16327936D02*
X11156134Y-16337460D01*
X11156134Y-16337460D02*
X11137086Y-16346984D01*
X11137086Y-16346984D02*
X11118039Y-16346984D01*
X11118039Y-16346984D02*
X11098991Y-16337460D01*
X11098991Y-16337460D02*
X11089467Y-16327936D01*
X11089467Y-16327936D02*
X11079944Y-16308888D01*
X11079944Y-16308888D02*
X11070420Y-16270793D01*
X11070420Y-16270793D02*
X11070420Y-16223174D01*
X11070420Y-16223174D02*
X11079944Y-16185079D01*
X11079944Y-16185079D02*
X11089467Y-16166031D01*
X11089467Y-16166031D02*
X11098991Y-16156508D01*
X11098991Y-16156508D02*
X11118039Y-16146984D01*
X11270420Y-16346984D02*
X11270420Y-16213650D01*
X11270420Y-16232698D02*
X11279943Y-16223174D01*
X11279943Y-16223174D02*
X11298991Y-16213650D01*
X11298991Y-16213650D02*
X11327563Y-16213650D01*
X11327563Y-16213650D02*
X11346610Y-16223174D01*
X11346610Y-16223174D02*
X11356134Y-16242222D01*
X11356134Y-16242222D02*
X11356134Y-16346984D01*
X11356134Y-16242222D02*
X11365658Y-16223174D01*
X11365658Y-16223174D02*
X11384705Y-16213650D01*
X11384705Y-16213650D02*
X11413277Y-16213650D01*
X11413277Y-16213650D02*
X11432324Y-16223174D01*
X11432324Y-16223174D02*
X11441848Y-16242222D01*
X11441848Y-16242222D02*
X11441848Y-16346984D01*
X11537086Y-16346984D02*
X11537086Y-16213650D01*
X11537086Y-16232698D02*
X11546610Y-16223174D01*
X11546610Y-16223174D02*
X11565658Y-16213650D01*
X11565658Y-16213650D02*
X11594229Y-16213650D01*
X11594229Y-16213650D02*
X11613277Y-16223174D01*
X11613277Y-16223174D02*
X11622801Y-16242222D01*
X11622801Y-16242222D02*
X11622801Y-16346984D01*
X11622801Y-16242222D02*
X11632324Y-16223174D01*
X11632324Y-16223174D02*
X11651372Y-16213650D01*
X11651372Y-16213650D02*
X11679943Y-16213650D01*
X11679943Y-16213650D02*
X11698991Y-16223174D01*
X11698991Y-16223174D02*
X11708515Y-16242222D01*
X11708515Y-16242222D02*
X11708515Y-16346984D01*
X12098991Y-16137460D02*
X11927563Y-16394603D01*
X12356134Y-16146984D02*
X12375182Y-16146984D01*
X12375182Y-16146984D02*
X12394229Y-16156508D01*
X12394229Y-16156508D02*
X12403753Y-16166031D01*
X12403753Y-16166031D02*
X12413277Y-16185079D01*
X12413277Y-16185079D02*
X12422801Y-16223174D01*
X12422801Y-16223174D02*
X12422801Y-16270793D01*
X12422801Y-16270793D02*
X12413277Y-16308888D01*
X12413277Y-16308888D02*
X12403753Y-16327936D01*
X12403753Y-16327936D02*
X12394229Y-16337460D01*
X12394229Y-16337460D02*
X12375182Y-16346984D01*
X12375182Y-16346984D02*
X12356134Y-16346984D01*
X12356134Y-16346984D02*
X12337086Y-16337460D01*
X12337086Y-16337460D02*
X12327563Y-16327936D01*
X12327563Y-16327936D02*
X12318039Y-16308888D01*
X12318039Y-16308888D02*
X12308515Y-16270793D01*
X12308515Y-16270793D02*
X12308515Y-16223174D01*
X12308515Y-16223174D02*
X12318039Y-16185079D01*
X12318039Y-16185079D02*
X12327563Y-16166031D01*
X12327563Y-16166031D02*
X12337086Y-16156508D01*
X12337086Y-16156508D02*
X12356134Y-16146984D01*
X12508515Y-16327936D02*
X12518039Y-16337460D01*
X12518039Y-16337460D02*
X12508515Y-16346984D01*
X12508515Y-16346984D02*
X12498991Y-16337460D01*
X12498991Y-16337460D02*
X12508515Y-16327936D01*
X12508515Y-16327936D02*
X12508515Y-16346984D01*
X12641848Y-16146984D02*
X12660896Y-16146984D01*
X12660896Y-16146984D02*
X12679944Y-16156508D01*
X12679944Y-16156508D02*
X12689467Y-16166031D01*
X12689467Y-16166031D02*
X12698991Y-16185079D01*
X12698991Y-16185079D02*
X12708515Y-16223174D01*
X12708515Y-16223174D02*
X12708515Y-16270793D01*
X12708515Y-16270793D02*
X12698991Y-16308888D01*
X12698991Y-16308888D02*
X12689467Y-16327936D01*
X12689467Y-16327936D02*
X12679944Y-16337460D01*
X12679944Y-16337460D02*
X12660896Y-16346984D01*
X12660896Y-16346984D02*
X12641848Y-16346984D01*
X12641848Y-16346984D02*
X12622801Y-16337460D01*
X12622801Y-16337460D02*
X12613277Y-16327936D01*
X12613277Y-16327936D02*
X12603753Y-16308888D01*
X12603753Y-16308888D02*
X12594229Y-16270793D01*
X12594229Y-16270793D02*
X12594229Y-16223174D01*
X12594229Y-16223174D02*
X12603753Y-16185079D01*
X12603753Y-16185079D02*
X12613277Y-16166031D01*
X12613277Y-16166031D02*
X12622801Y-16156508D01*
X12622801Y-16156508D02*
X12641848Y-16146984D01*
X12775182Y-16146984D02*
X12898991Y-16146984D01*
X12898991Y-16146984D02*
X12832325Y-16223174D01*
X12832325Y-16223174D02*
X12860896Y-16223174D01*
X12860896Y-16223174D02*
X12879944Y-16232698D01*
X12879944Y-16232698D02*
X12889467Y-16242222D01*
X12889467Y-16242222D02*
X12898991Y-16261269D01*
X12898991Y-16261269D02*
X12898991Y-16308888D01*
X12898991Y-16308888D02*
X12889467Y-16327936D01*
X12889467Y-16327936D02*
X12879944Y-16337460D01*
X12879944Y-16337460D02*
X12860896Y-16346984D01*
X12860896Y-16346984D02*
X12803753Y-16346984D01*
X12803753Y-16346984D02*
X12784706Y-16337460D01*
X12784706Y-16337460D02*
X12775182Y-16327936D01*
X12994229Y-16346984D02*
X13032325Y-16346984D01*
X13032325Y-16346984D02*
X13051372Y-16337460D01*
X13051372Y-16337460D02*
X13060896Y-16327936D01*
X13060896Y-16327936D02*
X13079944Y-16299365D01*
X13079944Y-16299365D02*
X13089467Y-16261269D01*
X13089467Y-16261269D02*
X13089467Y-16185079D01*
X13089467Y-16185079D02*
X13079944Y-16166031D01*
X13079944Y-16166031D02*
X13070420Y-16156508D01*
X13070420Y-16156508D02*
X13051372Y-16146984D01*
X13051372Y-16146984D02*
X13013277Y-16146984D01*
X13013277Y-16146984D02*
X12994229Y-16156508D01*
X12994229Y-16156508D02*
X12984706Y-16166031D01*
X12984706Y-16166031D02*
X12975182Y-16185079D01*
X12975182Y-16185079D02*
X12975182Y-16232698D01*
X12975182Y-16232698D02*
X12984706Y-16251746D01*
X12984706Y-16251746D02*
X12994229Y-16261269D01*
X12994229Y-16261269D02*
X13013277Y-16270793D01*
X13013277Y-16270793D02*
X13051372Y-16270793D01*
X13051372Y-16270793D02*
X13070420Y-16261269D01*
X13070420Y-16261269D02*
X13079944Y-16251746D01*
X13079944Y-16251746D02*
X13089467Y-16232698D01*
X13260896Y-16213650D02*
X13260896Y-16346984D01*
X13213277Y-16137460D02*
X13165658Y-16280317D01*
X13165658Y-16280317D02*
X13289467Y-16280317D01*
X13356134Y-16146984D02*
X13356134Y-16185079D01*
X13432325Y-16146984D02*
X13432325Y-16185079D01*
X13727563Y-16423174D02*
X13718039Y-16413650D01*
X13718039Y-16413650D02*
X13698991Y-16385079D01*
X13698991Y-16385079D02*
X13689468Y-16366031D01*
X13689468Y-16366031D02*
X13679944Y-16337460D01*
X13679944Y-16337460D02*
X13670420Y-16289841D01*
X13670420Y-16289841D02*
X13670420Y-16251746D01*
X13670420Y-16251746D02*
X13679944Y-16204127D01*
X13679944Y-16204127D02*
X13689468Y-16175555D01*
X13689468Y-16175555D02*
X13698991Y-16156508D01*
X13698991Y-16156508D02*
X13718039Y-16127936D01*
X13718039Y-16127936D02*
X13727563Y-16118412D01*
X13832325Y-16232698D02*
X13813277Y-16223174D01*
X13813277Y-16223174D02*
X13803753Y-16213650D01*
X13803753Y-16213650D02*
X13794229Y-16194603D01*
X13794229Y-16194603D02*
X13794229Y-16185079D01*
X13794229Y-16185079D02*
X13803753Y-16166031D01*
X13803753Y-16166031D02*
X13813277Y-16156508D01*
X13813277Y-16156508D02*
X13832325Y-16146984D01*
X13832325Y-16146984D02*
X13870420Y-16146984D01*
X13870420Y-16146984D02*
X13889468Y-16156508D01*
X13889468Y-16156508D02*
X13898991Y-16166031D01*
X13898991Y-16166031D02*
X13908515Y-16185079D01*
X13908515Y-16185079D02*
X13908515Y-16194603D01*
X13908515Y-16194603D02*
X13898991Y-16213650D01*
X13898991Y-16213650D02*
X13889468Y-16223174D01*
X13889468Y-16223174D02*
X13870420Y-16232698D01*
X13870420Y-16232698D02*
X13832325Y-16232698D01*
X13832325Y-16232698D02*
X13813277Y-16242222D01*
X13813277Y-16242222D02*
X13803753Y-16251746D01*
X13803753Y-16251746D02*
X13794229Y-16270793D01*
X13794229Y-16270793D02*
X13794229Y-16308888D01*
X13794229Y-16308888D02*
X13803753Y-16327936D01*
X13803753Y-16327936D02*
X13813277Y-16337460D01*
X13813277Y-16337460D02*
X13832325Y-16346984D01*
X13832325Y-16346984D02*
X13870420Y-16346984D01*
X13870420Y-16346984D02*
X13889468Y-16337460D01*
X13889468Y-16337460D02*
X13898991Y-16327936D01*
X13898991Y-16327936D02*
X13908515Y-16308888D01*
X13908515Y-16308888D02*
X13908515Y-16270793D01*
X13908515Y-16270793D02*
X13898991Y-16251746D01*
X13898991Y-16251746D02*
X13889468Y-16242222D01*
X13889468Y-16242222D02*
X13870420Y-16232698D01*
X14146610Y-16346984D02*
X14146610Y-16146984D01*
X14232325Y-16346984D02*
X14232325Y-16242222D01*
X14232325Y-16242222D02*
X14222801Y-16223174D01*
X14222801Y-16223174D02*
X14203753Y-16213650D01*
X14203753Y-16213650D02*
X14175182Y-16213650D01*
X14175182Y-16213650D02*
X14156134Y-16223174D01*
X14156134Y-16223174D02*
X14146610Y-16232698D01*
X14356134Y-16346984D02*
X14337087Y-16337460D01*
X14337087Y-16337460D02*
X14327563Y-16327936D01*
X14327563Y-16327936D02*
X14318039Y-16308888D01*
X14318039Y-16308888D02*
X14318039Y-16251746D01*
X14318039Y-16251746D02*
X14327563Y-16232698D01*
X14327563Y-16232698D02*
X14337087Y-16223174D01*
X14337087Y-16223174D02*
X14356134Y-16213650D01*
X14356134Y-16213650D02*
X14384706Y-16213650D01*
X14384706Y-16213650D02*
X14403753Y-16223174D01*
X14403753Y-16223174D02*
X14413277Y-16232698D01*
X14413277Y-16232698D02*
X14422801Y-16251746D01*
X14422801Y-16251746D02*
X14422801Y-16308888D01*
X14422801Y-16308888D02*
X14413277Y-16327936D01*
X14413277Y-16327936D02*
X14403753Y-16337460D01*
X14403753Y-16337460D02*
X14384706Y-16346984D01*
X14384706Y-16346984D02*
X14356134Y-16346984D01*
X14537087Y-16346984D02*
X14518039Y-16337460D01*
X14518039Y-16337460D02*
X14508515Y-16318412D01*
X14508515Y-16318412D02*
X14508515Y-16146984D01*
X14689468Y-16337460D02*
X14670420Y-16346984D01*
X14670420Y-16346984D02*
X14632325Y-16346984D01*
X14632325Y-16346984D02*
X14613277Y-16337460D01*
X14613277Y-16337460D02*
X14603753Y-16318412D01*
X14603753Y-16318412D02*
X14603753Y-16242222D01*
X14603753Y-16242222D02*
X14613277Y-16223174D01*
X14613277Y-16223174D02*
X14632325Y-16213650D01*
X14632325Y-16213650D02*
X14670420Y-16213650D01*
X14670420Y-16213650D02*
X14689468Y-16223174D01*
X14689468Y-16223174D02*
X14698991Y-16242222D01*
X14698991Y-16242222D02*
X14698991Y-16261269D01*
X14698991Y-16261269D02*
X14603753Y-16280317D01*
X14775182Y-16337460D02*
X14794230Y-16346984D01*
X14794230Y-16346984D02*
X14832325Y-16346984D01*
X14832325Y-16346984D02*
X14851372Y-16337460D01*
X14851372Y-16337460D02*
X14860896Y-16318412D01*
X14860896Y-16318412D02*
X14860896Y-16308888D01*
X14860896Y-16308888D02*
X14851372Y-16289841D01*
X14851372Y-16289841D02*
X14832325Y-16280317D01*
X14832325Y-16280317D02*
X14803753Y-16280317D01*
X14803753Y-16280317D02*
X14784706Y-16270793D01*
X14784706Y-16270793D02*
X14775182Y-16251746D01*
X14775182Y-16251746D02*
X14775182Y-16242222D01*
X14775182Y-16242222D02*
X14784706Y-16223174D01*
X14784706Y-16223174D02*
X14803753Y-16213650D01*
X14803753Y-16213650D02*
X14832325Y-16213650D01*
X14832325Y-16213650D02*
X14851372Y-16223174D01*
X14927563Y-16423174D02*
X14937087Y-16413650D01*
X14937087Y-16413650D02*
X14956134Y-16385079D01*
X14956134Y-16385079D02*
X14965658Y-16366031D01*
X14965658Y-16366031D02*
X14975182Y-16337460D01*
X14975182Y-16337460D02*
X14984706Y-16289841D01*
X14984706Y-16289841D02*
X14984706Y-16251746D01*
X14984706Y-16251746D02*
X14975182Y-16204127D01*
X14975182Y-16204127D02*
X14965658Y-16175555D01*
X14965658Y-16175555D02*
X14956134Y-16156508D01*
X14956134Y-16156508D02*
X14937087Y-16127936D01*
X14937087Y-16127936D02*
X14927563Y-16118412D01*
D13*
X10137621Y-16555421D02*
X10137621Y-16483579D01*
X10065779Y-16483579D01*
X10065779Y-16555421D01*
X10137621Y-16555421D01*
D11*
X10518039Y-16610984D02*
X10403753Y-16610984D01*
X10460896Y-16610984D02*
X10460896Y-16410984D01*
X10460896Y-16410984D02*
X10441848Y-16439555D01*
X10441848Y-16439555D02*
X10422801Y-16458603D01*
X10422801Y-16458603D02*
X10403753Y-16468127D01*
X10603753Y-16591936D02*
X10613277Y-16601460D01*
X10613277Y-16601460D02*
X10603753Y-16610984D01*
X10603753Y-16610984D02*
X10594229Y-16601460D01*
X10594229Y-16601460D02*
X10603753Y-16591936D01*
X10603753Y-16591936D02*
X10603753Y-16610984D01*
X10737086Y-16410984D02*
X10756134Y-16410984D01*
X10756134Y-16410984D02*
X10775182Y-16420508D01*
X10775182Y-16420508D02*
X10784705Y-16430031D01*
X10784705Y-16430031D02*
X10794229Y-16449079D01*
X10794229Y-16449079D02*
X10803753Y-16487174D01*
X10803753Y-16487174D02*
X10803753Y-16534793D01*
X10803753Y-16534793D02*
X10794229Y-16572888D01*
X10794229Y-16572888D02*
X10784705Y-16591936D01*
X10784705Y-16591936D02*
X10775182Y-16601460D01*
X10775182Y-16601460D02*
X10756134Y-16610984D01*
X10756134Y-16610984D02*
X10737086Y-16610984D01*
X10737086Y-16610984D02*
X10718039Y-16601460D01*
X10718039Y-16601460D02*
X10708515Y-16591936D01*
X10708515Y-16591936D02*
X10698991Y-16572888D01*
X10698991Y-16572888D02*
X10689467Y-16534793D01*
X10689467Y-16534793D02*
X10689467Y-16487174D01*
X10689467Y-16487174D02*
X10698991Y-16449079D01*
X10698991Y-16449079D02*
X10708515Y-16430031D01*
X10708515Y-16430031D02*
X10718039Y-16420508D01*
X10718039Y-16420508D02*
X10737086Y-16410984D01*
X10994229Y-16610984D02*
X10879944Y-16610984D01*
X10937086Y-16610984D02*
X10937086Y-16410984D01*
X10937086Y-16410984D02*
X10918039Y-16439555D01*
X10918039Y-16439555D02*
X10898991Y-16458603D01*
X10898991Y-16458603D02*
X10879944Y-16468127D01*
X11165658Y-16410984D02*
X11127563Y-16410984D01*
X11127563Y-16410984D02*
X11108515Y-16420508D01*
X11108515Y-16420508D02*
X11098991Y-16430031D01*
X11098991Y-16430031D02*
X11079944Y-16458603D01*
X11079944Y-16458603D02*
X11070420Y-16496698D01*
X11070420Y-16496698D02*
X11070420Y-16572888D01*
X11070420Y-16572888D02*
X11079944Y-16591936D01*
X11079944Y-16591936D02*
X11089467Y-16601460D01*
X11089467Y-16601460D02*
X11108515Y-16610984D01*
X11108515Y-16610984D02*
X11146610Y-16610984D01*
X11146610Y-16610984D02*
X11165658Y-16601460D01*
X11165658Y-16601460D02*
X11175182Y-16591936D01*
X11175182Y-16591936D02*
X11184705Y-16572888D01*
X11184705Y-16572888D02*
X11184705Y-16525269D01*
X11184705Y-16525269D02*
X11175182Y-16506222D01*
X11175182Y-16506222D02*
X11165658Y-16496698D01*
X11165658Y-16496698D02*
X11146610Y-16487174D01*
X11146610Y-16487174D02*
X11108515Y-16487174D01*
X11108515Y-16487174D02*
X11089467Y-16496698D01*
X11089467Y-16496698D02*
X11079944Y-16506222D01*
X11079944Y-16506222D02*
X11070420Y-16525269D01*
X11270420Y-16610984D02*
X11270420Y-16477650D01*
X11270420Y-16496698D02*
X11279943Y-16487174D01*
X11279943Y-16487174D02*
X11298991Y-16477650D01*
X11298991Y-16477650D02*
X11327563Y-16477650D01*
X11327563Y-16477650D02*
X11346610Y-16487174D01*
X11346610Y-16487174D02*
X11356134Y-16506222D01*
X11356134Y-16506222D02*
X11356134Y-16610984D01*
X11356134Y-16506222D02*
X11365658Y-16487174D01*
X11365658Y-16487174D02*
X11384705Y-16477650D01*
X11384705Y-16477650D02*
X11413277Y-16477650D01*
X11413277Y-16477650D02*
X11432324Y-16487174D01*
X11432324Y-16487174D02*
X11441848Y-16506222D01*
X11441848Y-16506222D02*
X11441848Y-16610984D01*
X11537086Y-16610984D02*
X11537086Y-16477650D01*
X11537086Y-16496698D02*
X11546610Y-16487174D01*
X11546610Y-16487174D02*
X11565658Y-16477650D01*
X11565658Y-16477650D02*
X11594229Y-16477650D01*
X11594229Y-16477650D02*
X11613277Y-16487174D01*
X11613277Y-16487174D02*
X11622801Y-16506222D01*
X11622801Y-16506222D02*
X11622801Y-16610984D01*
X11622801Y-16506222D02*
X11632324Y-16487174D01*
X11632324Y-16487174D02*
X11651372Y-16477650D01*
X11651372Y-16477650D02*
X11679943Y-16477650D01*
X11679943Y-16477650D02*
X11698991Y-16487174D01*
X11698991Y-16487174D02*
X11708515Y-16506222D01*
X11708515Y-16506222D02*
X11708515Y-16610984D01*
X12098991Y-16401460D02*
X11927563Y-16658603D01*
X12356134Y-16410984D02*
X12375182Y-16410984D01*
X12375182Y-16410984D02*
X12394229Y-16420508D01*
X12394229Y-16420508D02*
X12403753Y-16430031D01*
X12403753Y-16430031D02*
X12413277Y-16449079D01*
X12413277Y-16449079D02*
X12422801Y-16487174D01*
X12422801Y-16487174D02*
X12422801Y-16534793D01*
X12422801Y-16534793D02*
X12413277Y-16572888D01*
X12413277Y-16572888D02*
X12403753Y-16591936D01*
X12403753Y-16591936D02*
X12394229Y-16601460D01*
X12394229Y-16601460D02*
X12375182Y-16610984D01*
X12375182Y-16610984D02*
X12356134Y-16610984D01*
X12356134Y-16610984D02*
X12337086Y-16601460D01*
X12337086Y-16601460D02*
X12327563Y-16591936D01*
X12327563Y-16591936D02*
X12318039Y-16572888D01*
X12318039Y-16572888D02*
X12308515Y-16534793D01*
X12308515Y-16534793D02*
X12308515Y-16487174D01*
X12308515Y-16487174D02*
X12318039Y-16449079D01*
X12318039Y-16449079D02*
X12327563Y-16430031D01*
X12327563Y-16430031D02*
X12337086Y-16420508D01*
X12337086Y-16420508D02*
X12356134Y-16410984D01*
X12508515Y-16591936D02*
X12518039Y-16601460D01*
X12518039Y-16601460D02*
X12508515Y-16610984D01*
X12508515Y-16610984D02*
X12498991Y-16601460D01*
X12498991Y-16601460D02*
X12508515Y-16591936D01*
X12508515Y-16591936D02*
X12508515Y-16610984D01*
X12641848Y-16410984D02*
X12660896Y-16410984D01*
X12660896Y-16410984D02*
X12679944Y-16420508D01*
X12679944Y-16420508D02*
X12689467Y-16430031D01*
X12689467Y-16430031D02*
X12698991Y-16449079D01*
X12698991Y-16449079D02*
X12708515Y-16487174D01*
X12708515Y-16487174D02*
X12708515Y-16534793D01*
X12708515Y-16534793D02*
X12698991Y-16572888D01*
X12698991Y-16572888D02*
X12689467Y-16591936D01*
X12689467Y-16591936D02*
X12679944Y-16601460D01*
X12679944Y-16601460D02*
X12660896Y-16610984D01*
X12660896Y-16610984D02*
X12641848Y-16610984D01*
X12641848Y-16610984D02*
X12622801Y-16601460D01*
X12622801Y-16601460D02*
X12613277Y-16591936D01*
X12613277Y-16591936D02*
X12603753Y-16572888D01*
X12603753Y-16572888D02*
X12594229Y-16534793D01*
X12594229Y-16534793D02*
X12594229Y-16487174D01*
X12594229Y-16487174D02*
X12603753Y-16449079D01*
X12603753Y-16449079D02*
X12613277Y-16430031D01*
X12613277Y-16430031D02*
X12622801Y-16420508D01*
X12622801Y-16420508D02*
X12641848Y-16410984D01*
X12879944Y-16477650D02*
X12879944Y-16610984D01*
X12832325Y-16401460D02*
X12784706Y-16544317D01*
X12784706Y-16544317D02*
X12908515Y-16544317D01*
X13022801Y-16410984D02*
X13041848Y-16410984D01*
X13041848Y-16410984D02*
X13060896Y-16420508D01*
X13060896Y-16420508D02*
X13070420Y-16430031D01*
X13070420Y-16430031D02*
X13079944Y-16449079D01*
X13079944Y-16449079D02*
X13089467Y-16487174D01*
X13089467Y-16487174D02*
X13089467Y-16534793D01*
X13089467Y-16534793D02*
X13079944Y-16572888D01*
X13079944Y-16572888D02*
X13070420Y-16591936D01*
X13070420Y-16591936D02*
X13060896Y-16601460D01*
X13060896Y-16601460D02*
X13041848Y-16610984D01*
X13041848Y-16610984D02*
X13022801Y-16610984D01*
X13022801Y-16610984D02*
X13003753Y-16601460D01*
X13003753Y-16601460D02*
X12994229Y-16591936D01*
X12994229Y-16591936D02*
X12984706Y-16572888D01*
X12984706Y-16572888D02*
X12975182Y-16534793D01*
X12975182Y-16534793D02*
X12975182Y-16487174D01*
X12975182Y-16487174D02*
X12984706Y-16449079D01*
X12984706Y-16449079D02*
X12994229Y-16430031D01*
X12994229Y-16430031D02*
X13003753Y-16420508D01*
X13003753Y-16420508D02*
X13022801Y-16410984D01*
X13213277Y-16410984D02*
X13232325Y-16410984D01*
X13232325Y-16410984D02*
X13251372Y-16420508D01*
X13251372Y-16420508D02*
X13260896Y-16430031D01*
X13260896Y-16430031D02*
X13270420Y-16449079D01*
X13270420Y-16449079D02*
X13279944Y-16487174D01*
X13279944Y-16487174D02*
X13279944Y-16534793D01*
X13279944Y-16534793D02*
X13270420Y-16572888D01*
X13270420Y-16572888D02*
X13260896Y-16591936D01*
X13260896Y-16591936D02*
X13251372Y-16601460D01*
X13251372Y-16601460D02*
X13232325Y-16610984D01*
X13232325Y-16610984D02*
X13213277Y-16610984D01*
X13213277Y-16610984D02*
X13194229Y-16601460D01*
X13194229Y-16601460D02*
X13184706Y-16591936D01*
X13184706Y-16591936D02*
X13175182Y-16572888D01*
X13175182Y-16572888D02*
X13165658Y-16534793D01*
X13165658Y-16534793D02*
X13165658Y-16487174D01*
X13165658Y-16487174D02*
X13175182Y-16449079D01*
X13175182Y-16449079D02*
X13184706Y-16430031D01*
X13184706Y-16430031D02*
X13194229Y-16420508D01*
X13194229Y-16420508D02*
X13213277Y-16410984D01*
X13356134Y-16410984D02*
X13356134Y-16449079D01*
X13432325Y-16410984D02*
X13432325Y-16449079D01*
X13727563Y-16687174D02*
X13718039Y-16677650D01*
X13718039Y-16677650D02*
X13698991Y-16649079D01*
X13698991Y-16649079D02*
X13689468Y-16630031D01*
X13689468Y-16630031D02*
X13679944Y-16601460D01*
X13679944Y-16601460D02*
X13670420Y-16553841D01*
X13670420Y-16553841D02*
X13670420Y-16515746D01*
X13670420Y-16515746D02*
X13679944Y-16468127D01*
X13679944Y-16468127D02*
X13689468Y-16439555D01*
X13689468Y-16439555D02*
X13698991Y-16420508D01*
X13698991Y-16420508D02*
X13718039Y-16391936D01*
X13718039Y-16391936D02*
X13727563Y-16382412D01*
X13908515Y-16610984D02*
X13794229Y-16610984D01*
X13851372Y-16610984D02*
X13851372Y-16410984D01*
X13851372Y-16410984D02*
X13832325Y-16439555D01*
X13832325Y-16439555D02*
X13813277Y-16458603D01*
X13813277Y-16458603D02*
X13794229Y-16468127D01*
X14079944Y-16410984D02*
X14041848Y-16410984D01*
X14041848Y-16410984D02*
X14022801Y-16420508D01*
X14022801Y-16420508D02*
X14013277Y-16430031D01*
X14013277Y-16430031D02*
X13994229Y-16458603D01*
X13994229Y-16458603D02*
X13984706Y-16496698D01*
X13984706Y-16496698D02*
X13984706Y-16572888D01*
X13984706Y-16572888D02*
X13994229Y-16591936D01*
X13994229Y-16591936D02*
X14003753Y-16601460D01*
X14003753Y-16601460D02*
X14022801Y-16610984D01*
X14022801Y-16610984D02*
X14060896Y-16610984D01*
X14060896Y-16610984D02*
X14079944Y-16601460D01*
X14079944Y-16601460D02*
X14089468Y-16591936D01*
X14089468Y-16591936D02*
X14098991Y-16572888D01*
X14098991Y-16572888D02*
X14098991Y-16525269D01*
X14098991Y-16525269D02*
X14089468Y-16506222D01*
X14089468Y-16506222D02*
X14079944Y-16496698D01*
X14079944Y-16496698D02*
X14060896Y-16487174D01*
X14060896Y-16487174D02*
X14022801Y-16487174D01*
X14022801Y-16487174D02*
X14003753Y-16496698D01*
X14003753Y-16496698D02*
X13994229Y-16506222D01*
X13994229Y-16506222D02*
X13984706Y-16525269D01*
X14213277Y-16496698D02*
X14194229Y-16487174D01*
X14194229Y-16487174D02*
X14184706Y-16477650D01*
X14184706Y-16477650D02*
X14175182Y-16458603D01*
X14175182Y-16458603D02*
X14175182Y-16449079D01*
X14175182Y-16449079D02*
X14184706Y-16430031D01*
X14184706Y-16430031D02*
X14194229Y-16420508D01*
X14194229Y-16420508D02*
X14213277Y-16410984D01*
X14213277Y-16410984D02*
X14251372Y-16410984D01*
X14251372Y-16410984D02*
X14270420Y-16420508D01*
X14270420Y-16420508D02*
X14279944Y-16430031D01*
X14279944Y-16430031D02*
X14289468Y-16449079D01*
X14289468Y-16449079D02*
X14289468Y-16458603D01*
X14289468Y-16458603D02*
X14279944Y-16477650D01*
X14279944Y-16477650D02*
X14270420Y-16487174D01*
X14270420Y-16487174D02*
X14251372Y-16496698D01*
X14251372Y-16496698D02*
X14213277Y-16496698D01*
X14213277Y-16496698D02*
X14194229Y-16506222D01*
X14194229Y-16506222D02*
X14184706Y-16515746D01*
X14184706Y-16515746D02*
X14175182Y-16534793D01*
X14175182Y-16534793D02*
X14175182Y-16572888D01*
X14175182Y-16572888D02*
X14184706Y-16591936D01*
X14184706Y-16591936D02*
X14194229Y-16601460D01*
X14194229Y-16601460D02*
X14213277Y-16610984D01*
X14213277Y-16610984D02*
X14251372Y-16610984D01*
X14251372Y-16610984D02*
X14270420Y-16601460D01*
X14270420Y-16601460D02*
X14279944Y-16591936D01*
X14279944Y-16591936D02*
X14289468Y-16572888D01*
X14289468Y-16572888D02*
X14289468Y-16534793D01*
X14289468Y-16534793D02*
X14279944Y-16515746D01*
X14279944Y-16515746D02*
X14270420Y-16506222D01*
X14270420Y-16506222D02*
X14251372Y-16496698D01*
X14527563Y-16610984D02*
X14527563Y-16410984D01*
X14613277Y-16610984D02*
X14613277Y-16506222D01*
X14613277Y-16506222D02*
X14603753Y-16487174D01*
X14603753Y-16487174D02*
X14584706Y-16477650D01*
X14584706Y-16477650D02*
X14556134Y-16477650D01*
X14556134Y-16477650D02*
X14537087Y-16487174D01*
X14537087Y-16487174D02*
X14527563Y-16496698D01*
X14737087Y-16610984D02*
X14718039Y-16601460D01*
X14718039Y-16601460D02*
X14708515Y-16591936D01*
X14708515Y-16591936D02*
X14698991Y-16572888D01*
X14698991Y-16572888D02*
X14698991Y-16515746D01*
X14698991Y-16515746D02*
X14708515Y-16496698D01*
X14708515Y-16496698D02*
X14718039Y-16487174D01*
X14718039Y-16487174D02*
X14737087Y-16477650D01*
X14737087Y-16477650D02*
X14765658Y-16477650D01*
X14765658Y-16477650D02*
X14784706Y-16487174D01*
X14784706Y-16487174D02*
X14794230Y-16496698D01*
X14794230Y-16496698D02*
X14803753Y-16515746D01*
X14803753Y-16515746D02*
X14803753Y-16572888D01*
X14803753Y-16572888D02*
X14794230Y-16591936D01*
X14794230Y-16591936D02*
X14784706Y-16601460D01*
X14784706Y-16601460D02*
X14765658Y-16610984D01*
X14765658Y-16610984D02*
X14737087Y-16610984D01*
X14918039Y-16610984D02*
X14898991Y-16601460D01*
X14898991Y-16601460D02*
X14889468Y-16582412D01*
X14889468Y-16582412D02*
X14889468Y-16410984D01*
X15070420Y-16601460D02*
X15051372Y-16610984D01*
X15051372Y-16610984D02*
X15013277Y-16610984D01*
X15013277Y-16610984D02*
X14994230Y-16601460D01*
X14994230Y-16601460D02*
X14984706Y-16582412D01*
X14984706Y-16582412D02*
X14984706Y-16506222D01*
X14984706Y-16506222D02*
X14994230Y-16487174D01*
X14994230Y-16487174D02*
X15013277Y-16477650D01*
X15013277Y-16477650D02*
X15051372Y-16477650D01*
X15051372Y-16477650D02*
X15070420Y-16487174D01*
X15070420Y-16487174D02*
X15079944Y-16506222D01*
X15079944Y-16506222D02*
X15079944Y-16525269D01*
X15079944Y-16525269D02*
X14984706Y-16544317D01*
X15156134Y-16601460D02*
X15175182Y-16610984D01*
X15175182Y-16610984D02*
X15213277Y-16610984D01*
X15213277Y-16610984D02*
X15232325Y-16601460D01*
X15232325Y-16601460D02*
X15241849Y-16582412D01*
X15241849Y-16582412D02*
X15241849Y-16572888D01*
X15241849Y-16572888D02*
X15232325Y-16553841D01*
X15232325Y-16553841D02*
X15213277Y-16544317D01*
X15213277Y-16544317D02*
X15184706Y-16544317D01*
X15184706Y-16544317D02*
X15165658Y-16534793D01*
X15165658Y-16534793D02*
X15156134Y-16515746D01*
X15156134Y-16515746D02*
X15156134Y-16506222D01*
X15156134Y-16506222D02*
X15165658Y-16487174D01*
X15165658Y-16487174D02*
X15184706Y-16477650D01*
X15184706Y-16477650D02*
X15213277Y-16477650D01*
X15213277Y-16477650D02*
X15232325Y-16487174D01*
X15308515Y-16687174D02*
X15318039Y-16677650D01*
X15318039Y-16677650D02*
X15337087Y-16649079D01*
X15337087Y-16649079D02*
X15346611Y-16630031D01*
X15346611Y-16630031D02*
X15356134Y-16601460D01*
X15356134Y-16601460D02*
X15365658Y-16553841D01*
X15365658Y-16553841D02*
X15365658Y-16515746D01*
X15365658Y-16515746D02*
X15356134Y-16468127D01*
X15356134Y-16468127D02*
X15346611Y-16439555D01*
X15346611Y-16439555D02*
X15337087Y-16420508D01*
X15337087Y-16420508D02*
X15318039Y-16391936D01*
X15318039Y-16391936D02*
X15308515Y-16382412D01*
D14*
X10101500Y-16834500D02*
X10152500Y-16783500D01*
X10101500Y-16732500D01*
X10050500Y-16783500D01*
X10101500Y-16834500D01*
D11*
X10518039Y-16874984D02*
X10403753Y-16874984D01*
X10460896Y-16874984D02*
X10460896Y-16674984D01*
X10460896Y-16674984D02*
X10441848Y-16703555D01*
X10441848Y-16703555D02*
X10422801Y-16722603D01*
X10422801Y-16722603D02*
X10403753Y-16732127D01*
X10603753Y-16855936D02*
X10613277Y-16865460D01*
X10613277Y-16865460D02*
X10603753Y-16874984D01*
X10603753Y-16874984D02*
X10594229Y-16865460D01*
X10594229Y-16865460D02*
X10603753Y-16855936D01*
X10603753Y-16855936D02*
X10603753Y-16874984D01*
X10737086Y-16674984D02*
X10756134Y-16674984D01*
X10756134Y-16674984D02*
X10775182Y-16684508D01*
X10775182Y-16684508D02*
X10784705Y-16694031D01*
X10784705Y-16694031D02*
X10794229Y-16713079D01*
X10794229Y-16713079D02*
X10803753Y-16751174D01*
X10803753Y-16751174D02*
X10803753Y-16798793D01*
X10803753Y-16798793D02*
X10794229Y-16836889D01*
X10794229Y-16836889D02*
X10784705Y-16855936D01*
X10784705Y-16855936D02*
X10775182Y-16865460D01*
X10775182Y-16865460D02*
X10756134Y-16874984D01*
X10756134Y-16874984D02*
X10737086Y-16874984D01*
X10737086Y-16874984D02*
X10718039Y-16865460D01*
X10718039Y-16865460D02*
X10708515Y-16855936D01*
X10708515Y-16855936D02*
X10698991Y-16836889D01*
X10698991Y-16836889D02*
X10689467Y-16798793D01*
X10689467Y-16798793D02*
X10689467Y-16751174D01*
X10689467Y-16751174D02*
X10698991Y-16713079D01*
X10698991Y-16713079D02*
X10708515Y-16694031D01*
X10708515Y-16694031D02*
X10718039Y-16684508D01*
X10718039Y-16684508D02*
X10737086Y-16674984D01*
X10879944Y-16694031D02*
X10889467Y-16684508D01*
X10889467Y-16684508D02*
X10908515Y-16674984D01*
X10908515Y-16674984D02*
X10956134Y-16674984D01*
X10956134Y-16674984D02*
X10975182Y-16684508D01*
X10975182Y-16684508D02*
X10984705Y-16694031D01*
X10984705Y-16694031D02*
X10994229Y-16713079D01*
X10994229Y-16713079D02*
X10994229Y-16732127D01*
X10994229Y-16732127D02*
X10984705Y-16760698D01*
X10984705Y-16760698D02*
X10870420Y-16874984D01*
X10870420Y-16874984D02*
X10994229Y-16874984D01*
X11118039Y-16674984D02*
X11137086Y-16674984D01*
X11137086Y-16674984D02*
X11156134Y-16684508D01*
X11156134Y-16684508D02*
X11165658Y-16694031D01*
X11165658Y-16694031D02*
X11175182Y-16713079D01*
X11175182Y-16713079D02*
X11184705Y-16751174D01*
X11184705Y-16751174D02*
X11184705Y-16798793D01*
X11184705Y-16798793D02*
X11175182Y-16836889D01*
X11175182Y-16836889D02*
X11165658Y-16855936D01*
X11165658Y-16855936D02*
X11156134Y-16865460D01*
X11156134Y-16865460D02*
X11137086Y-16874984D01*
X11137086Y-16874984D02*
X11118039Y-16874984D01*
X11118039Y-16874984D02*
X11098991Y-16865460D01*
X11098991Y-16865460D02*
X11089467Y-16855936D01*
X11089467Y-16855936D02*
X11079944Y-16836889D01*
X11079944Y-16836889D02*
X11070420Y-16798793D01*
X11070420Y-16798793D02*
X11070420Y-16751174D01*
X11070420Y-16751174D02*
X11079944Y-16713079D01*
X11079944Y-16713079D02*
X11089467Y-16694031D01*
X11089467Y-16694031D02*
X11098991Y-16684508D01*
X11098991Y-16684508D02*
X11118039Y-16674984D01*
X11270420Y-16874984D02*
X11270420Y-16741650D01*
X11270420Y-16760698D02*
X11279943Y-16751174D01*
X11279943Y-16751174D02*
X11298991Y-16741650D01*
X11298991Y-16741650D02*
X11327563Y-16741650D01*
X11327563Y-16741650D02*
X11346610Y-16751174D01*
X11346610Y-16751174D02*
X11356134Y-16770222D01*
X11356134Y-16770222D02*
X11356134Y-16874984D01*
X11356134Y-16770222D02*
X11365658Y-16751174D01*
X11365658Y-16751174D02*
X11384705Y-16741650D01*
X11384705Y-16741650D02*
X11413277Y-16741650D01*
X11413277Y-16741650D02*
X11432324Y-16751174D01*
X11432324Y-16751174D02*
X11441848Y-16770222D01*
X11441848Y-16770222D02*
X11441848Y-16874984D01*
X11537086Y-16874984D02*
X11537086Y-16741650D01*
X11537086Y-16760698D02*
X11546610Y-16751174D01*
X11546610Y-16751174D02*
X11565658Y-16741650D01*
X11565658Y-16741650D02*
X11594229Y-16741650D01*
X11594229Y-16741650D02*
X11613277Y-16751174D01*
X11613277Y-16751174D02*
X11622801Y-16770222D01*
X11622801Y-16770222D02*
X11622801Y-16874984D01*
X11622801Y-16770222D02*
X11632324Y-16751174D01*
X11632324Y-16751174D02*
X11651372Y-16741650D01*
X11651372Y-16741650D02*
X11679943Y-16741650D01*
X11679943Y-16741650D02*
X11698991Y-16751174D01*
X11698991Y-16751174D02*
X11708515Y-16770222D01*
X11708515Y-16770222D02*
X11708515Y-16874984D01*
X12098991Y-16665460D02*
X11927563Y-16922603D01*
X12356134Y-16674984D02*
X12375182Y-16674984D01*
X12375182Y-16674984D02*
X12394229Y-16684508D01*
X12394229Y-16684508D02*
X12403753Y-16694031D01*
X12403753Y-16694031D02*
X12413277Y-16713079D01*
X12413277Y-16713079D02*
X12422801Y-16751174D01*
X12422801Y-16751174D02*
X12422801Y-16798793D01*
X12422801Y-16798793D02*
X12413277Y-16836889D01*
X12413277Y-16836889D02*
X12403753Y-16855936D01*
X12403753Y-16855936D02*
X12394229Y-16865460D01*
X12394229Y-16865460D02*
X12375182Y-16874984D01*
X12375182Y-16874984D02*
X12356134Y-16874984D01*
X12356134Y-16874984D02*
X12337086Y-16865460D01*
X12337086Y-16865460D02*
X12327563Y-16855936D01*
X12327563Y-16855936D02*
X12318039Y-16836889D01*
X12318039Y-16836889D02*
X12308515Y-16798793D01*
X12308515Y-16798793D02*
X12308515Y-16751174D01*
X12308515Y-16751174D02*
X12318039Y-16713079D01*
X12318039Y-16713079D02*
X12327563Y-16694031D01*
X12327563Y-16694031D02*
X12337086Y-16684508D01*
X12337086Y-16684508D02*
X12356134Y-16674984D01*
X12508515Y-16855936D02*
X12518039Y-16865460D01*
X12518039Y-16865460D02*
X12508515Y-16874984D01*
X12508515Y-16874984D02*
X12498991Y-16865460D01*
X12498991Y-16865460D02*
X12508515Y-16855936D01*
X12508515Y-16855936D02*
X12508515Y-16874984D01*
X12641848Y-16674984D02*
X12660896Y-16674984D01*
X12660896Y-16674984D02*
X12679944Y-16684508D01*
X12679944Y-16684508D02*
X12689467Y-16694031D01*
X12689467Y-16694031D02*
X12698991Y-16713079D01*
X12698991Y-16713079D02*
X12708515Y-16751174D01*
X12708515Y-16751174D02*
X12708515Y-16798793D01*
X12708515Y-16798793D02*
X12698991Y-16836889D01*
X12698991Y-16836889D02*
X12689467Y-16855936D01*
X12689467Y-16855936D02*
X12679944Y-16865460D01*
X12679944Y-16865460D02*
X12660896Y-16874984D01*
X12660896Y-16874984D02*
X12641848Y-16874984D01*
X12641848Y-16874984D02*
X12622801Y-16865460D01*
X12622801Y-16865460D02*
X12613277Y-16855936D01*
X12613277Y-16855936D02*
X12603753Y-16836889D01*
X12603753Y-16836889D02*
X12594229Y-16798793D01*
X12594229Y-16798793D02*
X12594229Y-16751174D01*
X12594229Y-16751174D02*
X12603753Y-16713079D01*
X12603753Y-16713079D02*
X12613277Y-16694031D01*
X12613277Y-16694031D02*
X12622801Y-16684508D01*
X12622801Y-16684508D02*
X12641848Y-16674984D01*
X12879944Y-16741650D02*
X12879944Y-16874984D01*
X12832325Y-16665460D02*
X12784706Y-16808317D01*
X12784706Y-16808317D02*
X12908515Y-16808317D01*
X13022801Y-16674984D02*
X13041848Y-16674984D01*
X13041848Y-16674984D02*
X13060896Y-16684508D01*
X13060896Y-16684508D02*
X13070420Y-16694031D01*
X13070420Y-16694031D02*
X13079944Y-16713079D01*
X13079944Y-16713079D02*
X13089467Y-16751174D01*
X13089467Y-16751174D02*
X13089467Y-16798793D01*
X13089467Y-16798793D02*
X13079944Y-16836889D01*
X13079944Y-16836889D02*
X13070420Y-16855936D01*
X13070420Y-16855936D02*
X13060896Y-16865460D01*
X13060896Y-16865460D02*
X13041848Y-16874984D01*
X13041848Y-16874984D02*
X13022801Y-16874984D01*
X13022801Y-16874984D02*
X13003753Y-16865460D01*
X13003753Y-16865460D02*
X12994229Y-16855936D01*
X12994229Y-16855936D02*
X12984706Y-16836889D01*
X12984706Y-16836889D02*
X12975182Y-16798793D01*
X12975182Y-16798793D02*
X12975182Y-16751174D01*
X12975182Y-16751174D02*
X12984706Y-16713079D01*
X12984706Y-16713079D02*
X12994229Y-16694031D01*
X12994229Y-16694031D02*
X13003753Y-16684508D01*
X13003753Y-16684508D02*
X13022801Y-16674984D01*
X13165658Y-16694031D02*
X13175182Y-16684508D01*
X13175182Y-16684508D02*
X13194229Y-16674984D01*
X13194229Y-16674984D02*
X13241848Y-16674984D01*
X13241848Y-16674984D02*
X13260896Y-16684508D01*
X13260896Y-16684508D02*
X13270420Y-16694031D01*
X13270420Y-16694031D02*
X13279944Y-16713079D01*
X13279944Y-16713079D02*
X13279944Y-16732127D01*
X13279944Y-16732127D02*
X13270420Y-16760698D01*
X13270420Y-16760698D02*
X13156134Y-16874984D01*
X13156134Y-16874984D02*
X13279944Y-16874984D01*
X13356134Y-16674984D02*
X13356134Y-16713079D01*
X13432325Y-16674984D02*
X13432325Y-16713079D01*
X13727563Y-16951174D02*
X13718039Y-16941650D01*
X13718039Y-16941650D02*
X13698991Y-16913079D01*
X13698991Y-16913079D02*
X13689468Y-16894031D01*
X13689468Y-16894031D02*
X13679944Y-16865460D01*
X13679944Y-16865460D02*
X13670420Y-16817841D01*
X13670420Y-16817841D02*
X13670420Y-16779746D01*
X13670420Y-16779746D02*
X13679944Y-16732127D01*
X13679944Y-16732127D02*
X13689468Y-16703555D01*
X13689468Y-16703555D02*
X13698991Y-16684508D01*
X13698991Y-16684508D02*
X13718039Y-16655936D01*
X13718039Y-16655936D02*
X13727563Y-16646412D01*
X13784706Y-16674984D02*
X13918039Y-16674984D01*
X13918039Y-16674984D02*
X13832325Y-16874984D01*
X14032325Y-16674984D02*
X14051372Y-16674984D01*
X14051372Y-16674984D02*
X14070420Y-16684508D01*
X14070420Y-16684508D02*
X14079944Y-16694031D01*
X14079944Y-16694031D02*
X14089468Y-16713079D01*
X14089468Y-16713079D02*
X14098991Y-16751174D01*
X14098991Y-16751174D02*
X14098991Y-16798793D01*
X14098991Y-16798793D02*
X14089468Y-16836889D01*
X14089468Y-16836889D02*
X14079944Y-16855936D01*
X14079944Y-16855936D02*
X14070420Y-16865460D01*
X14070420Y-16865460D02*
X14051372Y-16874984D01*
X14051372Y-16874984D02*
X14032325Y-16874984D01*
X14032325Y-16874984D02*
X14013277Y-16865460D01*
X14013277Y-16865460D02*
X14003753Y-16855936D01*
X14003753Y-16855936D02*
X13994229Y-16836889D01*
X13994229Y-16836889D02*
X13984706Y-16798793D01*
X13984706Y-16798793D02*
X13984706Y-16751174D01*
X13984706Y-16751174D02*
X13994229Y-16713079D01*
X13994229Y-16713079D02*
X14003753Y-16694031D01*
X14003753Y-16694031D02*
X14013277Y-16684508D01*
X14013277Y-16684508D02*
X14032325Y-16674984D01*
X14337087Y-16874984D02*
X14337087Y-16674984D01*
X14422801Y-16874984D02*
X14422801Y-16770222D01*
X14422801Y-16770222D02*
X14413277Y-16751174D01*
X14413277Y-16751174D02*
X14394230Y-16741650D01*
X14394230Y-16741650D02*
X14365658Y-16741650D01*
X14365658Y-16741650D02*
X14346610Y-16751174D01*
X14346610Y-16751174D02*
X14337087Y-16760698D01*
X14546610Y-16874984D02*
X14527563Y-16865460D01*
X14527563Y-16865460D02*
X14518039Y-16855936D01*
X14518039Y-16855936D02*
X14508515Y-16836889D01*
X14508515Y-16836889D02*
X14508515Y-16779746D01*
X14508515Y-16779746D02*
X14518039Y-16760698D01*
X14518039Y-16760698D02*
X14527563Y-16751174D01*
X14527563Y-16751174D02*
X14546610Y-16741650D01*
X14546610Y-16741650D02*
X14575182Y-16741650D01*
X14575182Y-16741650D02*
X14594230Y-16751174D01*
X14594230Y-16751174D02*
X14603753Y-16760698D01*
X14603753Y-16760698D02*
X14613277Y-16779746D01*
X14613277Y-16779746D02*
X14613277Y-16836889D01*
X14613277Y-16836889D02*
X14603753Y-16855936D01*
X14603753Y-16855936D02*
X14594230Y-16865460D01*
X14594230Y-16865460D02*
X14575182Y-16874984D01*
X14575182Y-16874984D02*
X14546610Y-16874984D01*
X14727563Y-16874984D02*
X14708515Y-16865460D01*
X14708515Y-16865460D02*
X14698991Y-16846412D01*
X14698991Y-16846412D02*
X14698991Y-16674984D01*
X14879944Y-16865460D02*
X14860896Y-16874984D01*
X14860896Y-16874984D02*
X14822801Y-16874984D01*
X14822801Y-16874984D02*
X14803753Y-16865460D01*
X14803753Y-16865460D02*
X14794230Y-16846412D01*
X14794230Y-16846412D02*
X14794230Y-16770222D01*
X14794230Y-16770222D02*
X14803753Y-16751174D01*
X14803753Y-16751174D02*
X14822801Y-16741650D01*
X14822801Y-16741650D02*
X14860896Y-16741650D01*
X14860896Y-16741650D02*
X14879944Y-16751174D01*
X14879944Y-16751174D02*
X14889468Y-16770222D01*
X14889468Y-16770222D02*
X14889468Y-16789270D01*
X14889468Y-16789270D02*
X14794230Y-16808317D01*
X14965658Y-16865460D02*
X14984706Y-16874984D01*
X14984706Y-16874984D02*
X15022801Y-16874984D01*
X15022801Y-16874984D02*
X15041849Y-16865460D01*
X15041849Y-16865460D02*
X15051372Y-16846412D01*
X15051372Y-16846412D02*
X15051372Y-16836889D01*
X15051372Y-16836889D02*
X15041849Y-16817841D01*
X15041849Y-16817841D02*
X15022801Y-16808317D01*
X15022801Y-16808317D02*
X14994230Y-16808317D01*
X14994230Y-16808317D02*
X14975182Y-16798793D01*
X14975182Y-16798793D02*
X14965658Y-16779746D01*
X14965658Y-16779746D02*
X14965658Y-16770222D01*
X14965658Y-16770222D02*
X14975182Y-16751174D01*
X14975182Y-16751174D02*
X14994230Y-16741650D01*
X14994230Y-16741650D02*
X15022801Y-16741650D01*
X15022801Y-16741650D02*
X15041849Y-16751174D01*
X15118039Y-16951174D02*
X15127563Y-16941650D01*
X15127563Y-16941650D02*
X15146611Y-16913079D01*
X15146611Y-16913079D02*
X15156134Y-16894031D01*
X15156134Y-16894031D02*
X15165658Y-16865460D01*
X15165658Y-16865460D02*
X15175182Y-16817841D01*
X15175182Y-16817841D02*
X15175182Y-16779746D01*
X15175182Y-16779746D02*
X15165658Y-16732127D01*
X15165658Y-16732127D02*
X15156134Y-16703555D01*
X15156134Y-16703555D02*
X15146611Y-16684508D01*
X15146611Y-16684508D02*
X15127563Y-16655936D01*
X15127563Y-16655936D02*
X15118039Y-16646412D01*
D15*
X10042500Y-16992500D02*
X10152500Y-17102500D01*
X10152500Y-16992500D02*
X10042500Y-17102500D01*
X10152500Y-17047500D02*
G75*
G03*
X10042500Y-17047500I-55000J0D01*
G01*
X10042500Y-17047500D02*
G75*
G03*
X10152500Y-17047500I55000J0D01*
G01*
D11*
X10518039Y-17138984D02*
X10403753Y-17138984D01*
X10460896Y-17138984D02*
X10460896Y-16938984D01*
X10460896Y-16938984D02*
X10441848Y-16967555D01*
X10441848Y-16967555D02*
X10422801Y-16986603D01*
X10422801Y-16986603D02*
X10403753Y-16996127D01*
X10603753Y-17119936D02*
X10613277Y-17129460D01*
X10613277Y-17129460D02*
X10603753Y-17138984D01*
X10603753Y-17138984D02*
X10594229Y-17129460D01*
X10594229Y-17129460D02*
X10603753Y-17119936D01*
X10603753Y-17119936D02*
X10603753Y-17138984D01*
X10803753Y-17138984D02*
X10689467Y-17138984D01*
X10746610Y-17138984D02*
X10746610Y-16938984D01*
X10746610Y-16938984D02*
X10727563Y-16967555D01*
X10727563Y-16967555D02*
X10708515Y-16986603D01*
X10708515Y-16986603D02*
X10689467Y-16996127D01*
X10927563Y-16938984D02*
X10946610Y-16938984D01*
X10946610Y-16938984D02*
X10965658Y-16948508D01*
X10965658Y-16948508D02*
X10975182Y-16958031D01*
X10975182Y-16958031D02*
X10984705Y-16977079D01*
X10984705Y-16977079D02*
X10994229Y-17015174D01*
X10994229Y-17015174D02*
X10994229Y-17062793D01*
X10994229Y-17062793D02*
X10984705Y-17100889D01*
X10984705Y-17100889D02*
X10975182Y-17119936D01*
X10975182Y-17119936D02*
X10965658Y-17129460D01*
X10965658Y-17129460D02*
X10946610Y-17138984D01*
X10946610Y-17138984D02*
X10927563Y-17138984D01*
X10927563Y-17138984D02*
X10908515Y-17129460D01*
X10908515Y-17129460D02*
X10898991Y-17119936D01*
X10898991Y-17119936D02*
X10889467Y-17100889D01*
X10889467Y-17100889D02*
X10879944Y-17062793D01*
X10879944Y-17062793D02*
X10879944Y-17015174D01*
X10879944Y-17015174D02*
X10889467Y-16977079D01*
X10889467Y-16977079D02*
X10898991Y-16958031D01*
X10898991Y-16958031D02*
X10908515Y-16948508D01*
X10908515Y-16948508D02*
X10927563Y-16938984D01*
X11118039Y-16938984D02*
X11137086Y-16938984D01*
X11137086Y-16938984D02*
X11156134Y-16948508D01*
X11156134Y-16948508D02*
X11165658Y-16958031D01*
X11165658Y-16958031D02*
X11175182Y-16977079D01*
X11175182Y-16977079D02*
X11184705Y-17015174D01*
X11184705Y-17015174D02*
X11184705Y-17062793D01*
X11184705Y-17062793D02*
X11175182Y-17100889D01*
X11175182Y-17100889D02*
X11165658Y-17119936D01*
X11165658Y-17119936D02*
X11156134Y-17129460D01*
X11156134Y-17129460D02*
X11137086Y-17138984D01*
X11137086Y-17138984D02*
X11118039Y-17138984D01*
X11118039Y-17138984D02*
X11098991Y-17129460D01*
X11098991Y-17129460D02*
X11089467Y-17119936D01*
X11089467Y-17119936D02*
X11079944Y-17100889D01*
X11079944Y-17100889D02*
X11070420Y-17062793D01*
X11070420Y-17062793D02*
X11070420Y-17015174D01*
X11070420Y-17015174D02*
X11079944Y-16977079D01*
X11079944Y-16977079D02*
X11089467Y-16958031D01*
X11089467Y-16958031D02*
X11098991Y-16948508D01*
X11098991Y-16948508D02*
X11118039Y-16938984D01*
X11270420Y-17138984D02*
X11270420Y-17005650D01*
X11270420Y-17024698D02*
X11279943Y-17015174D01*
X11279943Y-17015174D02*
X11298991Y-17005650D01*
X11298991Y-17005650D02*
X11327563Y-17005650D01*
X11327563Y-17005650D02*
X11346610Y-17015174D01*
X11346610Y-17015174D02*
X11356134Y-17034222D01*
X11356134Y-17034222D02*
X11356134Y-17138984D01*
X11356134Y-17034222D02*
X11365658Y-17015174D01*
X11365658Y-17015174D02*
X11384705Y-17005650D01*
X11384705Y-17005650D02*
X11413277Y-17005650D01*
X11413277Y-17005650D02*
X11432324Y-17015174D01*
X11432324Y-17015174D02*
X11441848Y-17034222D01*
X11441848Y-17034222D02*
X11441848Y-17138984D01*
X11537086Y-17138984D02*
X11537086Y-17005650D01*
X11537086Y-17024698D02*
X11546610Y-17015174D01*
X11546610Y-17015174D02*
X11565658Y-17005650D01*
X11565658Y-17005650D02*
X11594229Y-17005650D01*
X11594229Y-17005650D02*
X11613277Y-17015174D01*
X11613277Y-17015174D02*
X11622801Y-17034222D01*
X11622801Y-17034222D02*
X11622801Y-17138984D01*
X11622801Y-17034222D02*
X11632324Y-17015174D01*
X11632324Y-17015174D02*
X11651372Y-17005650D01*
X11651372Y-17005650D02*
X11679943Y-17005650D01*
X11679943Y-17005650D02*
X11698991Y-17015174D01*
X11698991Y-17015174D02*
X11708515Y-17034222D01*
X11708515Y-17034222D02*
X11708515Y-17138984D01*
X12098991Y-16929460D02*
X11927563Y-17186603D01*
X12356134Y-16938984D02*
X12375182Y-16938984D01*
X12375182Y-16938984D02*
X12394229Y-16948508D01*
X12394229Y-16948508D02*
X12403753Y-16958031D01*
X12403753Y-16958031D02*
X12413277Y-16977079D01*
X12413277Y-16977079D02*
X12422801Y-17015174D01*
X12422801Y-17015174D02*
X12422801Y-17062793D01*
X12422801Y-17062793D02*
X12413277Y-17100889D01*
X12413277Y-17100889D02*
X12403753Y-17119936D01*
X12403753Y-17119936D02*
X12394229Y-17129460D01*
X12394229Y-17129460D02*
X12375182Y-17138984D01*
X12375182Y-17138984D02*
X12356134Y-17138984D01*
X12356134Y-17138984D02*
X12337086Y-17129460D01*
X12337086Y-17129460D02*
X12327563Y-17119936D01*
X12327563Y-17119936D02*
X12318039Y-17100889D01*
X12318039Y-17100889D02*
X12308515Y-17062793D01*
X12308515Y-17062793D02*
X12308515Y-17015174D01*
X12308515Y-17015174D02*
X12318039Y-16977079D01*
X12318039Y-16977079D02*
X12327563Y-16958031D01*
X12327563Y-16958031D02*
X12337086Y-16948508D01*
X12337086Y-16948508D02*
X12356134Y-16938984D01*
X12508515Y-17119936D02*
X12518039Y-17129460D01*
X12518039Y-17129460D02*
X12508515Y-17138984D01*
X12508515Y-17138984D02*
X12498991Y-17129460D01*
X12498991Y-17129460D02*
X12508515Y-17119936D01*
X12508515Y-17119936D02*
X12508515Y-17138984D01*
X12641848Y-16938984D02*
X12660896Y-16938984D01*
X12660896Y-16938984D02*
X12679944Y-16948508D01*
X12679944Y-16948508D02*
X12689467Y-16958031D01*
X12689467Y-16958031D02*
X12698991Y-16977079D01*
X12698991Y-16977079D02*
X12708515Y-17015174D01*
X12708515Y-17015174D02*
X12708515Y-17062793D01*
X12708515Y-17062793D02*
X12698991Y-17100889D01*
X12698991Y-17100889D02*
X12689467Y-17119936D01*
X12689467Y-17119936D02*
X12679944Y-17129460D01*
X12679944Y-17129460D02*
X12660896Y-17138984D01*
X12660896Y-17138984D02*
X12641848Y-17138984D01*
X12641848Y-17138984D02*
X12622801Y-17129460D01*
X12622801Y-17129460D02*
X12613277Y-17119936D01*
X12613277Y-17119936D02*
X12603753Y-17100889D01*
X12603753Y-17100889D02*
X12594229Y-17062793D01*
X12594229Y-17062793D02*
X12594229Y-17015174D01*
X12594229Y-17015174D02*
X12603753Y-16977079D01*
X12603753Y-16977079D02*
X12613277Y-16958031D01*
X12613277Y-16958031D02*
X12622801Y-16948508D01*
X12622801Y-16948508D02*
X12641848Y-16938984D01*
X12879944Y-17005650D02*
X12879944Y-17138984D01*
X12832325Y-16929460D02*
X12784706Y-17072317D01*
X12784706Y-17072317D02*
X12908515Y-17072317D01*
X12965658Y-16938984D02*
X13089467Y-16938984D01*
X13089467Y-16938984D02*
X13022801Y-17015174D01*
X13022801Y-17015174D02*
X13051372Y-17015174D01*
X13051372Y-17015174D02*
X13070420Y-17024698D01*
X13070420Y-17024698D02*
X13079944Y-17034222D01*
X13079944Y-17034222D02*
X13089467Y-17053270D01*
X13089467Y-17053270D02*
X13089467Y-17100889D01*
X13089467Y-17100889D02*
X13079944Y-17119936D01*
X13079944Y-17119936D02*
X13070420Y-17129460D01*
X13070420Y-17129460D02*
X13051372Y-17138984D01*
X13051372Y-17138984D02*
X12994229Y-17138984D01*
X12994229Y-17138984D02*
X12975182Y-17129460D01*
X12975182Y-17129460D02*
X12965658Y-17119936D01*
X13156134Y-16938984D02*
X13279944Y-16938984D01*
X13279944Y-16938984D02*
X13213277Y-17015174D01*
X13213277Y-17015174D02*
X13241848Y-17015174D01*
X13241848Y-17015174D02*
X13260896Y-17024698D01*
X13260896Y-17024698D02*
X13270420Y-17034222D01*
X13270420Y-17034222D02*
X13279944Y-17053270D01*
X13279944Y-17053270D02*
X13279944Y-17100889D01*
X13279944Y-17100889D02*
X13270420Y-17119936D01*
X13270420Y-17119936D02*
X13260896Y-17129460D01*
X13260896Y-17129460D02*
X13241848Y-17138984D01*
X13241848Y-17138984D02*
X13184706Y-17138984D01*
X13184706Y-17138984D02*
X13165658Y-17129460D01*
X13165658Y-17129460D02*
X13156134Y-17119936D01*
X13356134Y-16938984D02*
X13356134Y-16977079D01*
X13432325Y-16938984D02*
X13432325Y-16977079D01*
X13727563Y-17215174D02*
X13718039Y-17205650D01*
X13718039Y-17205650D02*
X13698991Y-17177079D01*
X13698991Y-17177079D02*
X13689468Y-17158031D01*
X13689468Y-17158031D02*
X13679944Y-17129460D01*
X13679944Y-17129460D02*
X13670420Y-17081841D01*
X13670420Y-17081841D02*
X13670420Y-17043746D01*
X13670420Y-17043746D02*
X13679944Y-16996127D01*
X13679944Y-16996127D02*
X13689468Y-16967555D01*
X13689468Y-16967555D02*
X13698991Y-16948508D01*
X13698991Y-16948508D02*
X13718039Y-16919936D01*
X13718039Y-16919936D02*
X13727563Y-16910412D01*
X13908515Y-17138984D02*
X13794229Y-17138984D01*
X13851372Y-17138984D02*
X13851372Y-16938984D01*
X13851372Y-16938984D02*
X13832325Y-16967555D01*
X13832325Y-16967555D02*
X13813277Y-16986603D01*
X13813277Y-16986603D02*
X13794229Y-16996127D01*
X14032325Y-16938984D02*
X14051372Y-16938984D01*
X14051372Y-16938984D02*
X14070420Y-16948508D01*
X14070420Y-16948508D02*
X14079944Y-16958031D01*
X14079944Y-16958031D02*
X14089468Y-16977079D01*
X14089468Y-16977079D02*
X14098991Y-17015174D01*
X14098991Y-17015174D02*
X14098991Y-17062793D01*
X14098991Y-17062793D02*
X14089468Y-17100889D01*
X14089468Y-17100889D02*
X14079944Y-17119936D01*
X14079944Y-17119936D02*
X14070420Y-17129460D01*
X14070420Y-17129460D02*
X14051372Y-17138984D01*
X14051372Y-17138984D02*
X14032325Y-17138984D01*
X14032325Y-17138984D02*
X14013277Y-17129460D01*
X14013277Y-17129460D02*
X14003753Y-17119936D01*
X14003753Y-17119936D02*
X13994229Y-17100889D01*
X13994229Y-17100889D02*
X13984706Y-17062793D01*
X13984706Y-17062793D02*
X13984706Y-17015174D01*
X13984706Y-17015174D02*
X13994229Y-16977079D01*
X13994229Y-16977079D02*
X14003753Y-16958031D01*
X14003753Y-16958031D02*
X14013277Y-16948508D01*
X14013277Y-16948508D02*
X14032325Y-16938984D01*
X14337087Y-17138984D02*
X14337087Y-16938984D01*
X14422801Y-17138984D02*
X14422801Y-17034222D01*
X14422801Y-17034222D02*
X14413277Y-17015174D01*
X14413277Y-17015174D02*
X14394230Y-17005650D01*
X14394230Y-17005650D02*
X14365658Y-17005650D01*
X14365658Y-17005650D02*
X14346610Y-17015174D01*
X14346610Y-17015174D02*
X14337087Y-17024698D01*
X14546610Y-17138984D02*
X14527563Y-17129460D01*
X14527563Y-17129460D02*
X14518039Y-17119936D01*
X14518039Y-17119936D02*
X14508515Y-17100889D01*
X14508515Y-17100889D02*
X14508515Y-17043746D01*
X14508515Y-17043746D02*
X14518039Y-17024698D01*
X14518039Y-17024698D02*
X14527563Y-17015174D01*
X14527563Y-17015174D02*
X14546610Y-17005650D01*
X14546610Y-17005650D02*
X14575182Y-17005650D01*
X14575182Y-17005650D02*
X14594230Y-17015174D01*
X14594230Y-17015174D02*
X14603753Y-17024698D01*
X14603753Y-17024698D02*
X14613277Y-17043746D01*
X14613277Y-17043746D02*
X14613277Y-17100889D01*
X14613277Y-17100889D02*
X14603753Y-17119936D01*
X14603753Y-17119936D02*
X14594230Y-17129460D01*
X14594230Y-17129460D02*
X14575182Y-17138984D01*
X14575182Y-17138984D02*
X14546610Y-17138984D01*
X14727563Y-17138984D02*
X14708515Y-17129460D01*
X14708515Y-17129460D02*
X14698991Y-17110412D01*
X14698991Y-17110412D02*
X14698991Y-16938984D01*
X14879944Y-17129460D02*
X14860896Y-17138984D01*
X14860896Y-17138984D02*
X14822801Y-17138984D01*
X14822801Y-17138984D02*
X14803753Y-17129460D01*
X14803753Y-17129460D02*
X14794230Y-17110412D01*
X14794230Y-17110412D02*
X14794230Y-17034222D01*
X14794230Y-17034222D02*
X14803753Y-17015174D01*
X14803753Y-17015174D02*
X14822801Y-17005650D01*
X14822801Y-17005650D02*
X14860896Y-17005650D01*
X14860896Y-17005650D02*
X14879944Y-17015174D01*
X14879944Y-17015174D02*
X14889468Y-17034222D01*
X14889468Y-17034222D02*
X14889468Y-17053270D01*
X14889468Y-17053270D02*
X14794230Y-17072317D01*
X14965658Y-17129460D02*
X14984706Y-17138984D01*
X14984706Y-17138984D02*
X15022801Y-17138984D01*
X15022801Y-17138984D02*
X15041849Y-17129460D01*
X15041849Y-17129460D02*
X15051372Y-17110412D01*
X15051372Y-17110412D02*
X15051372Y-17100889D01*
X15051372Y-17100889D02*
X15041849Y-17081841D01*
X15041849Y-17081841D02*
X15022801Y-17072317D01*
X15022801Y-17072317D02*
X14994230Y-17072317D01*
X14994230Y-17072317D02*
X14975182Y-17062793D01*
X14975182Y-17062793D02*
X14965658Y-17043746D01*
X14965658Y-17043746D02*
X14965658Y-17034222D01*
X14965658Y-17034222D02*
X14975182Y-17015174D01*
X14975182Y-17015174D02*
X14994230Y-17005650D01*
X14994230Y-17005650D02*
X15022801Y-17005650D01*
X15022801Y-17005650D02*
X15041849Y-17015174D01*
X15118039Y-17215174D02*
X15127563Y-17205650D01*
X15127563Y-17205650D02*
X15146611Y-17177079D01*
X15146611Y-17177079D02*
X15156134Y-17158031D01*
X15156134Y-17158031D02*
X15165658Y-17129460D01*
X15165658Y-17129460D02*
X15175182Y-17081841D01*
X15175182Y-17081841D02*
X15175182Y-17043746D01*
X15175182Y-17043746D02*
X15165658Y-16996127D01*
X15165658Y-16996127D02*
X15156134Y-16967555D01*
X15156134Y-16967555D02*
X15146611Y-16948508D01*
X15146611Y-16948508D02*
X15127563Y-16919936D01*
X15127563Y-16919936D02*
X15118039Y-16910412D01*
M02*
