M48
; DRILL file {KiCad 7.0.10-7.0.10~ubuntu20.04.1} date qua 24 jul 2024 18:32:49
; FORMAT={-:-/ absolute / metric / decimal}
; #@! TF.CreationDate,2024-07-24T18:32:49-03:00
; #@! TF.GenerationSoftware,Kicad,Pcbnew,7.0.10-7.0.10~ubuntu20.04.1
; #@! TF.FileFunction,Plated,1,2,PTH
FMAT,2
METRIC
; #@! TA.AperFunction,Plated,PTH,ViaDrill
T1C0.800
; #@! TA.AperFunction,Plated,PTH,ComponentDrill
T2C0.800
; #@! TA.AperFunction,Plated,PTH,ComponentDrill
T3C1.000
; #@! TA.AperFunction,Plated,PTH,ComponentDrill
T4C1.016
; #@! TA.AperFunction,Plated,PTH,ComponentDrill
T5C1.020
; #@! TA.AperFunction,Plated,PTH,ComponentDrill
T6C1.100
%
G90
G05
T1
X118.4Y-96.1
X126.836Y-111.186
X130.3Y-109.935
X142.5Y-96.0
X143.1Y-111.3
X144.7Y-66.5
X145.1Y-104.3
X145.3Y-85.6
X148.595Y-121.038
X153.7Y-111.5
X153.9Y-124.3
X154.902Y-108.92
X156.484Y-72.929
X157.3Y-85.9
X158.8Y-64.9
X158.8Y-75.7
X159.24Y-109.627
X163.3Y-126.9
X166.0Y-114.5
X169.2Y-62.3
X170.3Y-96.5
X171.9Y-59.4
X172.7Y-90.6
X173.1Y-107.2
X175.619Y-129.326
X177.463Y-142.346
X177.65Y-113.977
X178.9Y-128.2
X179.9Y-109.8
X180.564Y-135.471
T2
X146.18Y-145.478
X146.18Y-147.978
X152.575Y-146.75
X155.075Y-146.75
X161.455Y-141.378
X163.955Y-141.378
X167.521Y-141.25
X170.021Y-141.25
T3
X113.25Y-146.7
X115.79Y-146.7
X118.33Y-146.7
X120.87Y-146.7
X173.43Y-146.625
X175.97Y-146.625
X178.51Y-146.625
X181.05Y-146.625
T4
X114.18Y-55.451
X114.18Y-57.991
X114.18Y-60.531
X114.18Y-63.071
X114.18Y-65.611
X114.18Y-68.151
X114.18Y-70.691
X114.18Y-73.231
X114.18Y-75.771
X114.18Y-78.311
X114.18Y-80.851
X114.18Y-83.391
X114.18Y-85.931
X114.18Y-88.471
X114.18Y-91.011
X114.18Y-93.551
X114.18Y-96.091
X114.18Y-98.631
X114.18Y-101.171
X114.18Y-103.762
X120.52Y-99.901
X123.06Y-99.901
X123.698Y-118.354
X123.698Y-133.594
X126.238Y-118.354
X126.238Y-133.594
X128.778Y-118.354
X128.778Y-133.594
X129.42Y-55.451
X129.42Y-57.991
X129.42Y-60.531
X129.42Y-63.071
X129.42Y-65.611
X129.42Y-68.151
X129.42Y-70.691
X129.42Y-73.231
X129.42Y-75.771
X129.42Y-78.311
X129.42Y-80.851
X129.42Y-83.391
X129.42Y-85.931
X129.42Y-88.471
X129.42Y-91.011
X129.42Y-93.551
X129.42Y-96.091
X129.42Y-98.631
X129.42Y-101.171
X129.42Y-103.711
X131.318Y-118.354
X131.318Y-133.594
X133.858Y-118.354
X133.858Y-133.594
X136.398Y-118.354
X136.398Y-133.594
X138.31Y-55.451
X138.31Y-57.991
X138.31Y-60.531
X138.31Y-63.071
X138.31Y-65.611
X138.31Y-68.151
X138.31Y-70.691
X138.31Y-73.231
X138.31Y-75.771
X138.31Y-78.311
X138.31Y-80.851
X138.31Y-83.391
X138.31Y-85.931
X138.31Y-88.471
X138.31Y-91.011
X138.31Y-93.551
X138.31Y-96.091
X138.31Y-98.631
X138.31Y-101.171
X138.31Y-103.762
X138.938Y-118.354
X138.938Y-133.594
X141.478Y-118.354
X141.478Y-133.594
X144.018Y-118.354
X144.018Y-133.594
X144.65Y-99.901
X146.558Y-118.354
X146.558Y-133.594
X147.19Y-99.901
X149.098Y-118.354
X149.098Y-133.594
X151.638Y-118.354
X151.638Y-133.594
X153.55Y-55.451
X153.55Y-57.991
X153.55Y-60.531
X153.55Y-63.071
X153.55Y-65.611
X153.55Y-68.151
X153.55Y-70.691
X153.55Y-73.231
X153.55Y-75.771
X153.55Y-78.311
X153.55Y-80.851
X153.55Y-83.391
X153.55Y-85.931
X153.55Y-88.471
X153.55Y-91.011
X153.55Y-93.551
X153.55Y-96.091
X153.55Y-98.631
X153.55Y-101.171
X153.55Y-103.711
X154.178Y-118.354
X154.178Y-133.594
X156.718Y-118.354
X156.718Y-133.594
X159.258Y-118.354
X159.258Y-133.594
X161.798Y-118.354
X161.798Y-133.594
X162.694Y-55.451
X162.694Y-57.991
X162.694Y-60.531
X162.694Y-63.071
X162.694Y-65.611
X162.694Y-68.151
X162.694Y-70.691
X162.694Y-73.231
X162.694Y-75.771
X162.694Y-78.311
X162.694Y-80.851
X162.694Y-83.391
X162.694Y-85.931
X162.694Y-88.471
X162.694Y-91.011
X162.694Y-93.551
X162.694Y-96.091
X162.694Y-98.631
X162.694Y-101.171
X162.694Y-103.762
X164.338Y-118.354
X164.338Y-133.594
X166.878Y-118.354
X166.878Y-133.594
X168.148Y-124.714
X168.148Y-127.254
X169.034Y-99.901
X169.418Y-118.354
X169.418Y-133.594
X171.574Y-99.901
X171.958Y-118.354
X172.009Y-133.594
X177.934Y-55.451
X177.934Y-57.991
X177.934Y-60.531
X177.934Y-63.071
X177.934Y-65.611
X177.934Y-68.151
X177.934Y-70.691
X177.934Y-73.231
X177.934Y-75.771
X177.934Y-78.311
X177.934Y-80.851
X177.934Y-83.391
X177.934Y-85.931
X177.934Y-88.471
X177.934Y-91.011
X177.934Y-93.551
X177.934Y-96.091
X177.934Y-98.631
X177.934Y-101.171
X177.934Y-103.711
T5
X106.68Y-57.15
X106.68Y-59.69
X106.68Y-62.23
X106.68Y-64.77
X106.68Y-67.31
X106.68Y-69.85
X106.68Y-72.39
X106.68Y-74.93
X106.68Y-81.28
X106.68Y-83.82
X106.68Y-86.36
X106.68Y-88.9
X106.68Y-91.44
X106.68Y-93.98
X106.68Y-96.52
X106.68Y-99.06
X106.68Y-101.6
X106.68Y-104.14
X106.68Y-106.68
X106.68Y-109.22
X106.68Y-111.76
X106.68Y-114.3
X106.68Y-116.84
X106.68Y-119.38
X106.68Y-121.92
X106.68Y-124.46
X106.68Y-127.0
X106.68Y-129.54
X106.68Y-132.08
X106.68Y-134.62
X106.68Y-137.16
X106.68Y-139.7
X106.68Y-142.24
X106.68Y-144.78
X106.68Y-147.32
X185.42Y-57.15
X185.42Y-59.69
X185.42Y-62.23
X185.42Y-64.77
X185.42Y-67.31
X185.42Y-69.85
X185.42Y-72.39
X185.42Y-74.93
X185.42Y-77.47
X185.42Y-80.01
X185.42Y-82.55
X185.42Y-85.09
X185.42Y-87.63
X185.42Y-90.17
X185.42Y-92.71
X185.42Y-95.25
X185.42Y-97.79
X185.42Y-100.33
X185.42Y-102.87
X185.42Y-105.41
X185.42Y-107.95
X185.42Y-110.49
X185.42Y-113.03
X185.42Y-115.57
X185.42Y-118.11
X185.42Y-120.65
X185.42Y-123.19
X185.42Y-125.73
X185.42Y-128.27
X185.42Y-130.81
X185.42Y-133.35
X185.42Y-135.89
X185.42Y-138.43
X185.42Y-140.97
X185.42Y-143.51
T6
X125.936Y-141.7
X127.636Y-145.4
X129.336Y-141.7
X131.036Y-145.4
X132.736Y-141.7
X146.754Y-141.833
X156.914Y-141.833
X161.81Y-146.55
X164.35Y-146.55
X166.89Y-146.55
M30
