%TF.GenerationSoftware,KiCad,Pcbnew,7.0.11-7.0.11~ubuntu22.04.1*%
%TF.CreationDate,2024-07-25T22:25:18-03:00*%
%TF.ProjectId,Aquisicao_STM_Barramento_v01,41717569-7369-4636-916f-5f53544d5f42,V01*%
%TF.SameCoordinates,Original*%
%TF.FileFunction,Drillmap*%
%TF.FilePolarity,Positive*%
%FSLAX45Y45*%
G04 Gerber Fmt 4.5, Leading zero omitted, Abs format (unit mm)*
G04 Created by KiCad (PCBNEW 7.0.11-7.0.11~ubuntu22.04.1) date 2024-07-25 22:25:18*
%MOMM*%
%LPD*%
G01*
G04 APERTURE LIST*
%ADD10C,0.150000*%
%ADD11C,0.200000*%
%ADD12C,0.100000*%
%ADD13C,0.101600*%
%ADD14C,0.102000*%
%ADD15C,0.110000*%
G04 APERTURE END LIST*
D10*
X19160000Y-5080000D02*
X10160000Y-5080000D01*
X19160000Y-15080000D02*
X19160000Y-5080000D01*
X19159982Y-15079980D02*
X10160000Y-15079980D01*
X10160000Y-5080000D02*
X10160000Y-15079980D01*
D11*
D12*
X11800000Y-9570000D02*
X11880000Y-9650000D01*
X11880000Y-9570000D02*
X11800000Y-9650000D01*
X12304400Y-10704200D02*
X12384400Y-10784200D01*
X12384400Y-10704200D02*
X12304400Y-10784200D01*
X12643570Y-11078560D02*
X12723570Y-11158560D01*
X12723570Y-11078560D02*
X12643570Y-11158560D01*
X12990030Y-10953480D02*
X13070030Y-11033480D01*
X13070030Y-10953480D02*
X12990030Y-11033480D01*
X14210000Y-9560000D02*
X14290000Y-9640000D01*
X14290000Y-9560000D02*
X14210000Y-9640000D01*
X14270000Y-11090000D02*
X14350000Y-11170000D01*
X14350000Y-11090000D02*
X14270000Y-11170000D01*
X14430000Y-6610000D02*
X14510000Y-6690000D01*
X14510000Y-6610000D02*
X14430000Y-6690000D01*
X14470000Y-10390000D02*
X14550000Y-10470000D01*
X14550000Y-10390000D02*
X14470000Y-10470000D01*
X14490000Y-8520000D02*
X14570000Y-8600000D01*
X14570000Y-8520000D02*
X14490000Y-8600000D01*
X14819480Y-12063810D02*
X14899480Y-12143810D01*
X14899480Y-12063810D02*
X14819480Y-12143810D01*
X15330000Y-11110000D02*
X15410000Y-11190000D01*
X15410000Y-11110000D02*
X15330000Y-11190000D01*
X15350000Y-12390000D02*
X15430000Y-12470000D01*
X15430000Y-12390000D02*
X15350000Y-12470000D01*
X15450230Y-10852020D02*
X15530230Y-10932020D01*
X15530230Y-10852020D02*
X15450230Y-10932020D01*
X15608430Y-7252890D02*
X15688430Y-7332890D01*
X15688430Y-7252890D02*
X15608430Y-7332890D01*
X15690000Y-8550000D02*
X15770000Y-8630000D01*
X15770000Y-8550000D02*
X15690000Y-8630000D01*
X15840000Y-6450000D02*
X15920000Y-6530000D01*
X15920000Y-6450000D02*
X15840000Y-6530000D01*
X15840000Y-7530000D02*
X15920000Y-7610000D01*
X15920000Y-7530000D02*
X15840000Y-7610000D01*
X15883970Y-10922720D02*
X15963970Y-11002720D01*
X15963970Y-10922720D02*
X15883970Y-11002720D01*
X16290000Y-12650000D02*
X16370000Y-12730000D01*
X16370000Y-12650000D02*
X16290000Y-12730000D01*
X16560000Y-11410000D02*
X16640000Y-11490000D01*
X16640000Y-11410000D02*
X16560000Y-11490000D01*
X16880000Y-6190000D02*
X16960000Y-6270000D01*
X16960000Y-6190000D02*
X16880000Y-6270000D01*
X16990000Y-9610000D02*
X17070000Y-9690000D01*
X17070000Y-9610000D02*
X16990000Y-9690000D01*
X17150000Y-5900000D02*
X17230000Y-5980000D01*
X17230000Y-5900000D02*
X17150000Y-5980000D01*
X17230000Y-9020000D02*
X17310000Y-9100000D01*
X17310000Y-9020000D02*
X17230000Y-9100000D01*
X17270000Y-10680000D02*
X17350000Y-10760000D01*
X17350000Y-10680000D02*
X17270000Y-10760000D01*
X17521860Y-12892570D02*
X17601860Y-12972570D01*
X17601860Y-12892570D02*
X17521860Y-12972570D01*
X17706350Y-14194610D02*
X17786350Y-14274610D01*
X17786350Y-14194610D02*
X17706350Y-14274610D01*
X17724970Y-11357650D02*
X17804970Y-11437650D01*
X17804970Y-11357650D02*
X17724970Y-11437650D01*
X17850000Y-12780000D02*
X17930000Y-12860000D01*
X17930000Y-12780000D02*
X17850000Y-12860000D01*
X17950000Y-10940000D02*
X18030000Y-11020000D01*
X18030000Y-10940000D02*
X17950000Y-11020000D01*
X18016360Y-13507090D02*
X18096360Y-13587090D01*
X18096360Y-13507090D02*
X18016360Y-13587090D01*
X11368400Y-12649200D02*
G75*
G03*
X11288400Y-12649200I-40000J0D01*
G01*
X11288400Y-12649200D02*
G75*
G03*
X11368400Y-12649200I40000J0D01*
G01*
X11368400Y-13411200D02*
G75*
G03*
X11288400Y-13411200I-40000J0D01*
G01*
X11288400Y-13411200D02*
G75*
G03*
X11368400Y-13411200I40000J0D01*
G01*
X14658000Y-14547800D02*
G75*
G03*
X14578000Y-14547800I-40000J0D01*
G01*
X14578000Y-14547800D02*
G75*
G03*
X14658000Y-14547800I40000J0D01*
G01*
X14658000Y-14797800D02*
G75*
G03*
X14578000Y-14797800I-40000J0D01*
G01*
X14578000Y-14797800D02*
G75*
G03*
X14658000Y-14797800I40000J0D01*
G01*
X15297490Y-14675000D02*
G75*
G03*
X15217490Y-14675000I-40000J0D01*
G01*
X15217490Y-14675000D02*
G75*
G03*
X15297490Y-14675000I40000J0D01*
G01*
X15547490Y-14675000D02*
G75*
G03*
X15467490Y-14675000I-40000J0D01*
G01*
X15467490Y-14675000D02*
G75*
G03*
X15547490Y-14675000I40000J0D01*
G01*
X16185500Y-14137800D02*
G75*
G03*
X16105500Y-14137800I-40000J0D01*
G01*
X16105500Y-14137800D02*
G75*
G03*
X16185500Y-14137800I40000J0D01*
G01*
X16435500Y-14137800D02*
G75*
G03*
X16355500Y-14137800I-40000J0D01*
G01*
X16355500Y-14137800D02*
G75*
G03*
X16435500Y-14137800I40000J0D01*
G01*
X16792110Y-14125000D02*
G75*
G03*
X16712110Y-14125000I-40000J0D01*
G01*
X16712110Y-14125000D02*
G75*
G03*
X16792110Y-14125000I40000J0D01*
G01*
X17042110Y-14125000D02*
G75*
G03*
X16962110Y-14125000I-40000J0D01*
G01*
X16962110Y-14125000D02*
G75*
G03*
X17042110Y-14125000I40000J0D01*
G01*
X11328400Y-13696400D02*
X11328400Y-13786400D01*
X11283400Y-13741400D02*
X11373400Y-13741400D01*
X11328400Y-13950400D02*
X11328400Y-14040400D01*
X11283400Y-13995400D02*
X11373400Y-13995400D01*
X11360356Y-14705356D02*
X11360356Y-14634644D01*
X11289644Y-14634644D01*
X11289644Y-14705356D01*
X11360356Y-14705356D01*
X11614356Y-14705356D02*
X11614356Y-14634644D01*
X11543644Y-14634644D01*
X11543644Y-14705356D01*
X11614356Y-14705356D01*
X11868356Y-14705356D02*
X11868356Y-14634644D01*
X11797644Y-14634644D01*
X11797644Y-14705356D01*
X11868356Y-14705356D01*
X12122356Y-14705356D02*
X12122356Y-14634644D01*
X12051644Y-14634644D01*
X12051644Y-14705356D01*
X12122356Y-14705356D01*
X17378356Y-14697856D02*
X17378356Y-14627144D01*
X17307644Y-14627144D01*
X17307644Y-14697856D01*
X17378356Y-14697856D01*
X17632356Y-14697856D02*
X17632356Y-14627144D01*
X17561644Y-14627144D01*
X17561644Y-14697856D01*
X17632356Y-14697856D01*
X17886356Y-14697856D02*
X17886356Y-14627144D01*
X17815644Y-14627144D01*
X17815644Y-14697856D01*
X17886356Y-14697856D01*
X18140356Y-14697856D02*
X18140356Y-14627144D01*
X18069644Y-14627144D01*
X18069644Y-14697856D01*
X18140356Y-14697856D01*
D13*
X11418000Y-5595880D02*
X11468800Y-5545080D01*
X11418000Y-5494280D01*
X11367200Y-5545080D01*
X11418000Y-5595880D01*
X11418000Y-5849880D02*
X11468800Y-5799080D01*
X11418000Y-5748280D01*
X11367200Y-5799080D01*
X11418000Y-5849880D01*
X11418000Y-6103880D02*
X11468800Y-6053080D01*
X11418000Y-6002280D01*
X11367200Y-6053080D01*
X11418000Y-6103880D01*
X11418000Y-6357880D02*
X11468800Y-6307080D01*
X11418000Y-6256280D01*
X11367200Y-6307080D01*
X11418000Y-6357880D01*
X11418000Y-6611880D02*
X11468800Y-6561080D01*
X11418000Y-6510280D01*
X11367200Y-6561080D01*
X11418000Y-6611880D01*
X11418000Y-6865880D02*
X11468800Y-6815080D01*
X11418000Y-6764280D01*
X11367200Y-6815080D01*
X11418000Y-6865880D01*
X11418000Y-7119880D02*
X11468800Y-7069080D01*
X11418000Y-7018280D01*
X11367200Y-7069080D01*
X11418000Y-7119880D01*
X11418000Y-7373880D02*
X11468800Y-7323080D01*
X11418000Y-7272280D01*
X11367200Y-7323080D01*
X11418000Y-7373880D01*
X11418000Y-7627880D02*
X11468800Y-7577080D01*
X11418000Y-7526280D01*
X11367200Y-7577080D01*
X11418000Y-7627880D01*
X11418000Y-7881880D02*
X11468800Y-7831080D01*
X11418000Y-7780280D01*
X11367200Y-7831080D01*
X11418000Y-7881880D01*
X11418000Y-8135880D02*
X11468800Y-8085080D01*
X11418000Y-8034280D01*
X11367200Y-8085080D01*
X11418000Y-8135880D01*
X11418000Y-8389880D02*
X11468800Y-8339080D01*
X11418000Y-8288280D01*
X11367200Y-8339080D01*
X11418000Y-8389880D01*
X11418000Y-8643880D02*
X11468800Y-8593080D01*
X11418000Y-8542280D01*
X11367200Y-8593080D01*
X11418000Y-8643880D01*
X11418000Y-8897880D02*
X11468800Y-8847080D01*
X11418000Y-8796280D01*
X11367200Y-8847080D01*
X11418000Y-8897880D01*
X11418000Y-9151880D02*
X11468800Y-9101080D01*
X11418000Y-9050280D01*
X11367200Y-9101080D01*
X11418000Y-9151880D01*
X11418000Y-9405880D02*
X11468800Y-9355080D01*
X11418000Y-9304280D01*
X11367200Y-9355080D01*
X11418000Y-9405880D01*
X11418000Y-9659880D02*
X11468800Y-9609080D01*
X11418000Y-9558280D01*
X11367200Y-9609080D01*
X11418000Y-9659880D01*
X11418000Y-9913880D02*
X11468800Y-9863080D01*
X11418000Y-9812280D01*
X11367200Y-9863080D01*
X11418000Y-9913880D01*
X11418000Y-10167880D02*
X11468800Y-10117080D01*
X11418000Y-10066280D01*
X11367200Y-10117080D01*
X11418000Y-10167880D01*
X11418000Y-10426960D02*
X11468800Y-10376160D01*
X11418000Y-10325360D01*
X11367200Y-10376160D01*
X11418000Y-10426960D01*
X12052000Y-10040880D02*
X12102800Y-9990080D01*
X12052000Y-9939280D01*
X12001200Y-9990080D01*
X12052000Y-10040880D01*
X12306000Y-10040880D02*
X12356800Y-9990080D01*
X12306000Y-9939280D01*
X12255200Y-9990080D01*
X12306000Y-10040880D01*
X12369800Y-11886200D02*
X12420600Y-11835400D01*
X12369800Y-11784600D01*
X12319000Y-11835400D01*
X12369800Y-11886200D01*
X12369800Y-13410200D02*
X12420600Y-13359400D01*
X12369800Y-13308600D01*
X12319000Y-13359400D01*
X12369800Y-13410200D01*
X12623800Y-11886200D02*
X12674600Y-11835400D01*
X12623800Y-11784600D01*
X12573000Y-11835400D01*
X12623800Y-11886200D01*
X12623800Y-13410200D02*
X12674600Y-13359400D01*
X12623800Y-13308600D01*
X12573000Y-13359400D01*
X12623800Y-13410200D01*
X12877800Y-11886200D02*
X12928600Y-11835400D01*
X12877800Y-11784600D01*
X12827000Y-11835400D01*
X12877800Y-11886200D01*
X12877800Y-13410200D02*
X12928600Y-13359400D01*
X12877800Y-13308600D01*
X12827000Y-13359400D01*
X12877800Y-13410200D01*
X12942000Y-5595880D02*
X12992800Y-5545080D01*
X12942000Y-5494280D01*
X12891200Y-5545080D01*
X12942000Y-5595880D01*
X12942000Y-5849880D02*
X12992800Y-5799080D01*
X12942000Y-5748280D01*
X12891200Y-5799080D01*
X12942000Y-5849880D01*
X12942000Y-6103880D02*
X12992800Y-6053080D01*
X12942000Y-6002280D01*
X12891200Y-6053080D01*
X12942000Y-6103880D01*
X12942000Y-6357880D02*
X12992800Y-6307080D01*
X12942000Y-6256280D01*
X12891200Y-6307080D01*
X12942000Y-6357880D01*
X12942000Y-6611880D02*
X12992800Y-6561080D01*
X12942000Y-6510280D01*
X12891200Y-6561080D01*
X12942000Y-6611880D01*
X12942000Y-6865880D02*
X12992800Y-6815080D01*
X12942000Y-6764280D01*
X12891200Y-6815080D01*
X12942000Y-6865880D01*
X12942000Y-7119880D02*
X12992800Y-7069080D01*
X12942000Y-7018280D01*
X12891200Y-7069080D01*
X12942000Y-7119880D01*
X12942000Y-7373880D02*
X12992800Y-7323080D01*
X12942000Y-7272280D01*
X12891200Y-7323080D01*
X12942000Y-7373880D01*
X12942000Y-7627880D02*
X12992800Y-7577080D01*
X12942000Y-7526280D01*
X12891200Y-7577080D01*
X12942000Y-7627880D01*
X12942000Y-7881880D02*
X12992800Y-7831080D01*
X12942000Y-7780280D01*
X12891200Y-7831080D01*
X12942000Y-7881880D01*
X12942000Y-8135880D02*
X12992800Y-8085080D01*
X12942000Y-8034280D01*
X12891200Y-8085080D01*
X12942000Y-8135880D01*
X12942000Y-8389880D02*
X12992800Y-8339080D01*
X12942000Y-8288280D01*
X12891200Y-8339080D01*
X12942000Y-8389880D01*
X12942000Y-8643880D02*
X12992800Y-8593080D01*
X12942000Y-8542280D01*
X12891200Y-8593080D01*
X12942000Y-8643880D01*
X12942000Y-8897880D02*
X12992800Y-8847080D01*
X12942000Y-8796280D01*
X12891200Y-8847080D01*
X12942000Y-8897880D01*
X12942000Y-9151880D02*
X12992800Y-9101080D01*
X12942000Y-9050280D01*
X12891200Y-9101080D01*
X12942000Y-9151880D01*
X12942000Y-9405880D02*
X12992800Y-9355080D01*
X12942000Y-9304280D01*
X12891200Y-9355080D01*
X12942000Y-9405880D01*
X12942000Y-9659880D02*
X12992800Y-9609080D01*
X12942000Y-9558280D01*
X12891200Y-9609080D01*
X12942000Y-9659880D01*
X12942000Y-9913880D02*
X12992800Y-9863080D01*
X12942000Y-9812280D01*
X12891200Y-9863080D01*
X12942000Y-9913880D01*
X12942000Y-10167880D02*
X12992800Y-10117080D01*
X12942000Y-10066280D01*
X12891200Y-10117080D01*
X12942000Y-10167880D01*
X12942000Y-10421880D02*
X12992800Y-10371080D01*
X12942000Y-10320280D01*
X12891200Y-10371080D01*
X12942000Y-10421880D01*
X13131800Y-11886200D02*
X13182600Y-11835400D01*
X13131800Y-11784600D01*
X13081000Y-11835400D01*
X13131800Y-11886200D01*
X13131800Y-13410200D02*
X13182600Y-13359400D01*
X13131800Y-13308600D01*
X13081000Y-13359400D01*
X13131800Y-13410200D01*
X13385800Y-11886200D02*
X13436600Y-11835400D01*
X13385800Y-11784600D01*
X13335000Y-11835400D01*
X13385800Y-11886200D01*
X13385800Y-13410200D02*
X13436600Y-13359400D01*
X13385800Y-13308600D01*
X13335000Y-13359400D01*
X13385800Y-13410200D01*
X13639800Y-11886200D02*
X13690600Y-11835400D01*
X13639800Y-11784600D01*
X13589000Y-11835400D01*
X13639800Y-11886200D01*
X13639800Y-13410200D02*
X13690600Y-13359400D01*
X13639800Y-13308600D01*
X13589000Y-13359400D01*
X13639800Y-13410200D01*
X13831000Y-5595880D02*
X13881800Y-5545080D01*
X13831000Y-5494280D01*
X13780200Y-5545080D01*
X13831000Y-5595880D01*
X13831000Y-5849880D02*
X13881800Y-5799080D01*
X13831000Y-5748280D01*
X13780200Y-5799080D01*
X13831000Y-5849880D01*
X13831000Y-6103880D02*
X13881800Y-6053080D01*
X13831000Y-6002280D01*
X13780200Y-6053080D01*
X13831000Y-6103880D01*
X13831000Y-6357880D02*
X13881800Y-6307080D01*
X13831000Y-6256280D01*
X13780200Y-6307080D01*
X13831000Y-6357880D01*
X13831000Y-6611880D02*
X13881800Y-6561080D01*
X13831000Y-6510280D01*
X13780200Y-6561080D01*
X13831000Y-6611880D01*
X13831000Y-6865880D02*
X13881800Y-6815080D01*
X13831000Y-6764280D01*
X13780200Y-6815080D01*
X13831000Y-6865880D01*
X13831000Y-7119880D02*
X13881800Y-7069080D01*
X13831000Y-7018280D01*
X13780200Y-7069080D01*
X13831000Y-7119880D01*
X13831000Y-7373880D02*
X13881800Y-7323080D01*
X13831000Y-7272280D01*
X13780200Y-7323080D01*
X13831000Y-7373880D01*
X13831000Y-7627880D02*
X13881800Y-7577080D01*
X13831000Y-7526280D01*
X13780200Y-7577080D01*
X13831000Y-7627880D01*
X13831000Y-7881880D02*
X13881800Y-7831080D01*
X13831000Y-7780280D01*
X13780200Y-7831080D01*
X13831000Y-7881880D01*
X13831000Y-8135880D02*
X13881800Y-8085080D01*
X13831000Y-8034280D01*
X13780200Y-8085080D01*
X13831000Y-8135880D01*
X13831000Y-8389880D02*
X13881800Y-8339080D01*
X13831000Y-8288280D01*
X13780200Y-8339080D01*
X13831000Y-8389880D01*
X13831000Y-8643880D02*
X13881800Y-8593080D01*
X13831000Y-8542280D01*
X13780200Y-8593080D01*
X13831000Y-8643880D01*
X13831000Y-8897880D02*
X13881800Y-8847080D01*
X13831000Y-8796280D01*
X13780200Y-8847080D01*
X13831000Y-8897880D01*
X13831000Y-9151880D02*
X13881800Y-9101080D01*
X13831000Y-9050280D01*
X13780200Y-9101080D01*
X13831000Y-9151880D01*
X13831000Y-9405880D02*
X13881800Y-9355080D01*
X13831000Y-9304280D01*
X13780200Y-9355080D01*
X13831000Y-9405880D01*
X13831000Y-9659880D02*
X13881800Y-9609080D01*
X13831000Y-9558280D01*
X13780200Y-9609080D01*
X13831000Y-9659880D01*
X13831000Y-9913880D02*
X13881800Y-9863080D01*
X13831000Y-9812280D01*
X13780200Y-9863080D01*
X13831000Y-9913880D01*
X13831000Y-10167880D02*
X13881800Y-10117080D01*
X13831000Y-10066280D01*
X13780200Y-10117080D01*
X13831000Y-10167880D01*
X13831000Y-10426960D02*
X13881800Y-10376160D01*
X13831000Y-10325360D01*
X13780200Y-10376160D01*
X13831000Y-10426960D01*
X13893800Y-11886200D02*
X13944600Y-11835400D01*
X13893800Y-11784600D01*
X13843000Y-11835400D01*
X13893800Y-11886200D01*
X13893800Y-13410200D02*
X13944600Y-13359400D01*
X13893800Y-13308600D01*
X13843000Y-13359400D01*
X13893800Y-13410200D01*
X14147800Y-11886200D02*
X14198600Y-11835400D01*
X14147800Y-11784600D01*
X14097000Y-11835400D01*
X14147800Y-11886200D01*
X14147800Y-13410200D02*
X14198600Y-13359400D01*
X14147800Y-13308600D01*
X14097000Y-13359400D01*
X14147800Y-13410200D01*
X14401800Y-11886200D02*
X14452600Y-11835400D01*
X14401800Y-11784600D01*
X14351000Y-11835400D01*
X14401800Y-11886200D01*
X14401800Y-13410200D02*
X14452600Y-13359400D01*
X14401800Y-13308600D01*
X14351000Y-13359400D01*
X14401800Y-13410200D01*
X14465000Y-10040880D02*
X14515800Y-9990080D01*
X14465000Y-9939280D01*
X14414200Y-9990080D01*
X14465000Y-10040880D01*
X14655800Y-11886200D02*
X14706600Y-11835400D01*
X14655800Y-11784600D01*
X14605000Y-11835400D01*
X14655800Y-11886200D01*
X14655800Y-13410200D02*
X14706600Y-13359400D01*
X14655800Y-13308600D01*
X14605000Y-13359400D01*
X14655800Y-13410200D01*
X14719000Y-10040880D02*
X14769800Y-9990080D01*
X14719000Y-9939280D01*
X14668200Y-9990080D01*
X14719000Y-10040880D01*
X14909800Y-11886200D02*
X14960600Y-11835400D01*
X14909800Y-11784600D01*
X14859000Y-11835400D01*
X14909800Y-11886200D01*
X14909800Y-13410200D02*
X14960600Y-13359400D01*
X14909800Y-13308600D01*
X14859000Y-13359400D01*
X14909800Y-13410200D01*
X15163800Y-11886200D02*
X15214600Y-11835400D01*
X15163800Y-11784600D01*
X15113000Y-11835400D01*
X15163800Y-11886200D01*
X15163800Y-13410200D02*
X15214600Y-13359400D01*
X15163800Y-13308600D01*
X15113000Y-13359400D01*
X15163800Y-13410200D01*
X15355000Y-5595880D02*
X15405800Y-5545080D01*
X15355000Y-5494280D01*
X15304200Y-5545080D01*
X15355000Y-5595880D01*
X15355000Y-5849880D02*
X15405800Y-5799080D01*
X15355000Y-5748280D01*
X15304200Y-5799080D01*
X15355000Y-5849880D01*
X15355000Y-6103880D02*
X15405800Y-6053080D01*
X15355000Y-6002280D01*
X15304200Y-6053080D01*
X15355000Y-6103880D01*
X15355000Y-6357880D02*
X15405800Y-6307080D01*
X15355000Y-6256280D01*
X15304200Y-6307080D01*
X15355000Y-6357880D01*
X15355000Y-6611880D02*
X15405800Y-6561080D01*
X15355000Y-6510280D01*
X15304200Y-6561080D01*
X15355000Y-6611880D01*
X15355000Y-6865880D02*
X15405800Y-6815080D01*
X15355000Y-6764280D01*
X15304200Y-6815080D01*
X15355000Y-6865880D01*
X15355000Y-7119880D02*
X15405800Y-7069080D01*
X15355000Y-7018280D01*
X15304200Y-7069080D01*
X15355000Y-7119880D01*
X15355000Y-7373880D02*
X15405800Y-7323080D01*
X15355000Y-7272280D01*
X15304200Y-7323080D01*
X15355000Y-7373880D01*
X15355000Y-7627880D02*
X15405800Y-7577080D01*
X15355000Y-7526280D01*
X15304200Y-7577080D01*
X15355000Y-7627880D01*
X15355000Y-7881880D02*
X15405800Y-7831080D01*
X15355000Y-7780280D01*
X15304200Y-7831080D01*
X15355000Y-7881880D01*
X15355000Y-8135880D02*
X15405800Y-8085080D01*
X15355000Y-8034280D01*
X15304200Y-8085080D01*
X15355000Y-8135880D01*
X15355000Y-8389880D02*
X15405800Y-8339080D01*
X15355000Y-8288280D01*
X15304200Y-8339080D01*
X15355000Y-8389880D01*
X15355000Y-8643880D02*
X15405800Y-8593080D01*
X15355000Y-8542280D01*
X15304200Y-8593080D01*
X15355000Y-8643880D01*
X15355000Y-8897880D02*
X15405800Y-8847080D01*
X15355000Y-8796280D01*
X15304200Y-8847080D01*
X15355000Y-8897880D01*
X15355000Y-9151880D02*
X15405800Y-9101080D01*
X15355000Y-9050280D01*
X15304200Y-9101080D01*
X15355000Y-9151880D01*
X15355000Y-9405880D02*
X15405800Y-9355080D01*
X15355000Y-9304280D01*
X15304200Y-9355080D01*
X15355000Y-9405880D01*
X15355000Y-9659880D02*
X15405800Y-9609080D01*
X15355000Y-9558280D01*
X15304200Y-9609080D01*
X15355000Y-9659880D01*
X15355000Y-9913880D02*
X15405800Y-9863080D01*
X15355000Y-9812280D01*
X15304200Y-9863080D01*
X15355000Y-9913880D01*
X15355000Y-10167880D02*
X15405800Y-10117080D01*
X15355000Y-10066280D01*
X15304200Y-10117080D01*
X15355000Y-10167880D01*
X15355000Y-10421880D02*
X15405800Y-10371080D01*
X15355000Y-10320280D01*
X15304200Y-10371080D01*
X15355000Y-10421880D01*
X15417800Y-11886200D02*
X15468600Y-11835400D01*
X15417800Y-11784600D01*
X15367000Y-11835400D01*
X15417800Y-11886200D01*
X15417800Y-13410200D02*
X15468600Y-13359400D01*
X15417800Y-13308600D01*
X15367000Y-13359400D01*
X15417800Y-13410200D01*
X15671800Y-11886200D02*
X15722600Y-11835400D01*
X15671800Y-11784600D01*
X15621000Y-11835400D01*
X15671800Y-11886200D01*
X15671800Y-13410200D02*
X15722600Y-13359400D01*
X15671800Y-13308600D01*
X15621000Y-13359400D01*
X15671800Y-13410200D01*
X15925800Y-11886200D02*
X15976600Y-11835400D01*
X15925800Y-11784600D01*
X15875000Y-11835400D01*
X15925800Y-11886200D01*
X15925800Y-13410200D02*
X15976600Y-13359400D01*
X15925800Y-13308600D01*
X15875000Y-13359400D01*
X15925800Y-13410200D01*
X16179800Y-11886200D02*
X16230600Y-11835400D01*
X16179800Y-11784600D01*
X16129000Y-11835400D01*
X16179800Y-11886200D01*
X16179800Y-13410200D02*
X16230600Y-13359400D01*
X16179800Y-13308600D01*
X16129000Y-13359400D01*
X16179800Y-13410200D01*
X16269400Y-5595880D02*
X16320200Y-5545080D01*
X16269400Y-5494280D01*
X16218600Y-5545080D01*
X16269400Y-5595880D01*
X16269400Y-5849880D02*
X16320200Y-5799080D01*
X16269400Y-5748280D01*
X16218600Y-5799080D01*
X16269400Y-5849880D01*
X16269400Y-6103880D02*
X16320200Y-6053080D01*
X16269400Y-6002280D01*
X16218600Y-6053080D01*
X16269400Y-6103880D01*
X16269400Y-6357880D02*
X16320200Y-6307080D01*
X16269400Y-6256280D01*
X16218600Y-6307080D01*
X16269400Y-6357880D01*
X16269400Y-6611880D02*
X16320200Y-6561080D01*
X16269400Y-6510280D01*
X16218600Y-6561080D01*
X16269400Y-6611880D01*
X16269400Y-6865880D02*
X16320200Y-6815080D01*
X16269400Y-6764280D01*
X16218600Y-6815080D01*
X16269400Y-6865880D01*
X16269400Y-7119880D02*
X16320200Y-7069080D01*
X16269400Y-7018280D01*
X16218600Y-7069080D01*
X16269400Y-7119880D01*
X16269400Y-7373880D02*
X16320200Y-7323080D01*
X16269400Y-7272280D01*
X16218600Y-7323080D01*
X16269400Y-7373880D01*
X16269400Y-7627880D02*
X16320200Y-7577080D01*
X16269400Y-7526280D01*
X16218600Y-7577080D01*
X16269400Y-7627880D01*
X16269400Y-7881880D02*
X16320200Y-7831080D01*
X16269400Y-7780280D01*
X16218600Y-7831080D01*
X16269400Y-7881880D01*
X16269400Y-8135880D02*
X16320200Y-8085080D01*
X16269400Y-8034280D01*
X16218600Y-8085080D01*
X16269400Y-8135880D01*
X16269400Y-8389880D02*
X16320200Y-8339080D01*
X16269400Y-8288280D01*
X16218600Y-8339080D01*
X16269400Y-8389880D01*
X16269400Y-8643880D02*
X16320200Y-8593080D01*
X16269400Y-8542280D01*
X16218600Y-8593080D01*
X16269400Y-8643880D01*
X16269400Y-8897880D02*
X16320200Y-8847080D01*
X16269400Y-8796280D01*
X16218600Y-8847080D01*
X16269400Y-8897880D01*
X16269400Y-9151880D02*
X16320200Y-9101080D01*
X16269400Y-9050280D01*
X16218600Y-9101080D01*
X16269400Y-9151880D01*
X16269400Y-9405880D02*
X16320200Y-9355080D01*
X16269400Y-9304280D01*
X16218600Y-9355080D01*
X16269400Y-9405880D01*
X16269400Y-9659880D02*
X16320200Y-9609080D01*
X16269400Y-9558280D01*
X16218600Y-9609080D01*
X16269400Y-9659880D01*
X16269400Y-9913880D02*
X16320200Y-9863080D01*
X16269400Y-9812280D01*
X16218600Y-9863080D01*
X16269400Y-9913880D01*
X16269400Y-10167880D02*
X16320200Y-10117080D01*
X16269400Y-10066280D01*
X16218600Y-10117080D01*
X16269400Y-10167880D01*
X16269400Y-10426960D02*
X16320200Y-10376160D01*
X16269400Y-10325360D01*
X16218600Y-10376160D01*
X16269400Y-10426960D01*
X16433800Y-11886200D02*
X16484600Y-11835400D01*
X16433800Y-11784600D01*
X16383000Y-11835400D01*
X16433800Y-11886200D01*
X16433800Y-13410200D02*
X16484600Y-13359400D01*
X16433800Y-13308600D01*
X16383000Y-13359400D01*
X16433800Y-13410200D01*
X16687800Y-11886200D02*
X16738600Y-11835400D01*
X16687800Y-11784600D01*
X16637000Y-11835400D01*
X16687800Y-11886200D01*
X16687800Y-13410200D02*
X16738600Y-13359400D01*
X16687800Y-13308600D01*
X16637000Y-13359400D01*
X16687800Y-13410200D01*
X16814800Y-12522200D02*
X16865600Y-12471400D01*
X16814800Y-12420600D01*
X16764000Y-12471400D01*
X16814800Y-12522200D01*
X16814800Y-12776200D02*
X16865600Y-12725400D01*
X16814800Y-12674600D01*
X16764000Y-12725400D01*
X16814800Y-12776200D01*
X16903400Y-10040880D02*
X16954200Y-9990080D01*
X16903400Y-9939280D01*
X16852600Y-9990080D01*
X16903400Y-10040880D01*
X16941800Y-11886200D02*
X16992600Y-11835400D01*
X16941800Y-11784600D01*
X16891000Y-11835400D01*
X16941800Y-11886200D01*
X16941800Y-13410200D02*
X16992600Y-13359400D01*
X16941800Y-13308600D01*
X16891000Y-13359400D01*
X16941800Y-13410200D01*
X17157400Y-10040880D02*
X17208200Y-9990080D01*
X17157400Y-9939280D01*
X17106600Y-9990080D01*
X17157400Y-10040880D01*
X17195800Y-11886200D02*
X17246600Y-11835400D01*
X17195800Y-11784600D01*
X17145000Y-11835400D01*
X17195800Y-11886200D01*
X17200880Y-13410200D02*
X17251680Y-13359400D01*
X17200880Y-13308600D01*
X17150080Y-13359400D01*
X17200880Y-13410200D01*
X17793400Y-5595880D02*
X17844200Y-5545080D01*
X17793400Y-5494280D01*
X17742600Y-5545080D01*
X17793400Y-5595880D01*
X17793400Y-5849880D02*
X17844200Y-5799080D01*
X17793400Y-5748280D01*
X17742600Y-5799080D01*
X17793400Y-5849880D01*
X17793400Y-6103880D02*
X17844200Y-6053080D01*
X17793400Y-6002280D01*
X17742600Y-6053080D01*
X17793400Y-6103880D01*
X17793400Y-6357880D02*
X17844200Y-6307080D01*
X17793400Y-6256280D01*
X17742600Y-6307080D01*
X17793400Y-6357880D01*
X17793400Y-6611880D02*
X17844200Y-6561080D01*
X17793400Y-6510280D01*
X17742600Y-6561080D01*
X17793400Y-6611880D01*
X17793400Y-6865880D02*
X17844200Y-6815080D01*
X17793400Y-6764280D01*
X17742600Y-6815080D01*
X17793400Y-6865880D01*
X17793400Y-7119880D02*
X17844200Y-7069080D01*
X17793400Y-7018280D01*
X17742600Y-7069080D01*
X17793400Y-7119880D01*
X17793400Y-7373880D02*
X17844200Y-7323080D01*
X17793400Y-7272280D01*
X17742600Y-7323080D01*
X17793400Y-7373880D01*
X17793400Y-7627880D02*
X17844200Y-7577080D01*
X17793400Y-7526280D01*
X17742600Y-7577080D01*
X17793400Y-7627880D01*
X17793400Y-7881880D02*
X17844200Y-7831080D01*
X17793400Y-7780280D01*
X17742600Y-7831080D01*
X17793400Y-7881880D01*
X17793400Y-8135880D02*
X17844200Y-8085080D01*
X17793400Y-8034280D01*
X17742600Y-8085080D01*
X17793400Y-8135880D01*
X17793400Y-8389880D02*
X17844200Y-8339080D01*
X17793400Y-8288280D01*
X17742600Y-8339080D01*
X17793400Y-8389880D01*
X17793400Y-8643880D02*
X17844200Y-8593080D01*
X17793400Y-8542280D01*
X17742600Y-8593080D01*
X17793400Y-8643880D01*
X17793400Y-8897880D02*
X17844200Y-8847080D01*
X17793400Y-8796280D01*
X17742600Y-8847080D01*
X17793400Y-8897880D01*
X17793400Y-9151880D02*
X17844200Y-9101080D01*
X17793400Y-9050280D01*
X17742600Y-9101080D01*
X17793400Y-9151880D01*
X17793400Y-9405880D02*
X17844200Y-9355080D01*
X17793400Y-9304280D01*
X17742600Y-9355080D01*
X17793400Y-9405880D01*
X17793400Y-9659880D02*
X17844200Y-9609080D01*
X17793400Y-9558280D01*
X17742600Y-9609080D01*
X17793400Y-9659880D01*
X17793400Y-9913880D02*
X17844200Y-9863080D01*
X17793400Y-9812280D01*
X17742600Y-9863080D01*
X17793400Y-9913880D01*
X17793400Y-10167880D02*
X17844200Y-10117080D01*
X17793400Y-10066280D01*
X17742600Y-10117080D01*
X17793400Y-10167880D01*
X17793400Y-10421880D02*
X17844200Y-10371080D01*
X17793400Y-10320280D01*
X17742600Y-10371080D01*
X17793400Y-10421880D01*
D14*
X10617000Y-5664000D02*
X10719000Y-5766000D01*
X10719000Y-5664000D02*
X10617000Y-5766000D01*
X10719000Y-5715000D02*
G75*
G03*
X10617000Y-5715000I-51000J0D01*
G01*
X10617000Y-5715000D02*
G75*
G03*
X10719000Y-5715000I51000J0D01*
G01*
X10617000Y-5918000D02*
X10719000Y-6020000D01*
X10719000Y-5918000D02*
X10617000Y-6020000D01*
X10719000Y-5969000D02*
G75*
G03*
X10617000Y-5969000I-51000J0D01*
G01*
X10617000Y-5969000D02*
G75*
G03*
X10719000Y-5969000I51000J0D01*
G01*
X10617000Y-6172000D02*
X10719000Y-6274000D01*
X10719000Y-6172000D02*
X10617000Y-6274000D01*
X10719000Y-6223000D02*
G75*
G03*
X10617000Y-6223000I-51000J0D01*
G01*
X10617000Y-6223000D02*
G75*
G03*
X10719000Y-6223000I51000J0D01*
G01*
X10617000Y-6426000D02*
X10719000Y-6528000D01*
X10719000Y-6426000D02*
X10617000Y-6528000D01*
X10719000Y-6477000D02*
G75*
G03*
X10617000Y-6477000I-51000J0D01*
G01*
X10617000Y-6477000D02*
G75*
G03*
X10719000Y-6477000I51000J0D01*
G01*
X10617000Y-6680000D02*
X10719000Y-6782000D01*
X10719000Y-6680000D02*
X10617000Y-6782000D01*
X10719000Y-6731000D02*
G75*
G03*
X10617000Y-6731000I-51000J0D01*
G01*
X10617000Y-6731000D02*
G75*
G03*
X10719000Y-6731000I51000J0D01*
G01*
X10617000Y-6934000D02*
X10719000Y-7036000D01*
X10719000Y-6934000D02*
X10617000Y-7036000D01*
X10719000Y-6985000D02*
G75*
G03*
X10617000Y-6985000I-51000J0D01*
G01*
X10617000Y-6985000D02*
G75*
G03*
X10719000Y-6985000I51000J0D01*
G01*
X10617000Y-7188000D02*
X10719000Y-7290000D01*
X10719000Y-7188000D02*
X10617000Y-7290000D01*
X10719000Y-7239000D02*
G75*
G03*
X10617000Y-7239000I-51000J0D01*
G01*
X10617000Y-7239000D02*
G75*
G03*
X10719000Y-7239000I51000J0D01*
G01*
X10617000Y-7442000D02*
X10719000Y-7544000D01*
X10719000Y-7442000D02*
X10617000Y-7544000D01*
X10719000Y-7493000D02*
G75*
G03*
X10617000Y-7493000I-51000J0D01*
G01*
X10617000Y-7493000D02*
G75*
G03*
X10719000Y-7493000I51000J0D01*
G01*
X10617000Y-8077000D02*
X10719000Y-8179000D01*
X10719000Y-8077000D02*
X10617000Y-8179000D01*
X10719000Y-8128000D02*
G75*
G03*
X10617000Y-8128000I-51000J0D01*
G01*
X10617000Y-8128000D02*
G75*
G03*
X10719000Y-8128000I51000J0D01*
G01*
X10617000Y-8331000D02*
X10719000Y-8433000D01*
X10719000Y-8331000D02*
X10617000Y-8433000D01*
X10719000Y-8382000D02*
G75*
G03*
X10617000Y-8382000I-51000J0D01*
G01*
X10617000Y-8382000D02*
G75*
G03*
X10719000Y-8382000I51000J0D01*
G01*
X10617000Y-8585000D02*
X10719000Y-8687000D01*
X10719000Y-8585000D02*
X10617000Y-8687000D01*
X10719000Y-8636000D02*
G75*
G03*
X10617000Y-8636000I-51000J0D01*
G01*
X10617000Y-8636000D02*
G75*
G03*
X10719000Y-8636000I51000J0D01*
G01*
X10617000Y-8839000D02*
X10719000Y-8941000D01*
X10719000Y-8839000D02*
X10617000Y-8941000D01*
X10719000Y-8890000D02*
G75*
G03*
X10617000Y-8890000I-51000J0D01*
G01*
X10617000Y-8890000D02*
G75*
G03*
X10719000Y-8890000I51000J0D01*
G01*
X10617000Y-9093000D02*
X10719000Y-9195000D01*
X10719000Y-9093000D02*
X10617000Y-9195000D01*
X10719000Y-9144000D02*
G75*
G03*
X10617000Y-9144000I-51000J0D01*
G01*
X10617000Y-9144000D02*
G75*
G03*
X10719000Y-9144000I51000J0D01*
G01*
X10617000Y-9347000D02*
X10719000Y-9449000D01*
X10719000Y-9347000D02*
X10617000Y-9449000D01*
X10719000Y-9398000D02*
G75*
G03*
X10617000Y-9398000I-51000J0D01*
G01*
X10617000Y-9398000D02*
G75*
G03*
X10719000Y-9398000I51000J0D01*
G01*
X10617000Y-9601000D02*
X10719000Y-9703000D01*
X10719000Y-9601000D02*
X10617000Y-9703000D01*
X10719000Y-9652000D02*
G75*
G03*
X10617000Y-9652000I-51000J0D01*
G01*
X10617000Y-9652000D02*
G75*
G03*
X10719000Y-9652000I51000J0D01*
G01*
X10617000Y-9855000D02*
X10719000Y-9957000D01*
X10719000Y-9855000D02*
X10617000Y-9957000D01*
X10719000Y-9906000D02*
G75*
G03*
X10617000Y-9906000I-51000J0D01*
G01*
X10617000Y-9906000D02*
G75*
G03*
X10719000Y-9906000I51000J0D01*
G01*
X10617000Y-10109000D02*
X10719000Y-10211000D01*
X10719000Y-10109000D02*
X10617000Y-10211000D01*
X10719000Y-10160000D02*
G75*
G03*
X10617000Y-10160000I-51000J0D01*
G01*
X10617000Y-10160000D02*
G75*
G03*
X10719000Y-10160000I51000J0D01*
G01*
X10617000Y-10363000D02*
X10719000Y-10465000D01*
X10719000Y-10363000D02*
X10617000Y-10465000D01*
X10719000Y-10414000D02*
G75*
G03*
X10617000Y-10414000I-51000J0D01*
G01*
X10617000Y-10414000D02*
G75*
G03*
X10719000Y-10414000I51000J0D01*
G01*
X10617000Y-10617000D02*
X10719000Y-10719000D01*
X10719000Y-10617000D02*
X10617000Y-10719000D01*
X10719000Y-10668000D02*
G75*
G03*
X10617000Y-10668000I-51000J0D01*
G01*
X10617000Y-10668000D02*
G75*
G03*
X10719000Y-10668000I51000J0D01*
G01*
X10617000Y-10871000D02*
X10719000Y-10973000D01*
X10719000Y-10871000D02*
X10617000Y-10973000D01*
X10719000Y-10922000D02*
G75*
G03*
X10617000Y-10922000I-51000J0D01*
G01*
X10617000Y-10922000D02*
G75*
G03*
X10719000Y-10922000I51000J0D01*
G01*
X10617000Y-11125000D02*
X10719000Y-11227000D01*
X10719000Y-11125000D02*
X10617000Y-11227000D01*
X10719000Y-11176000D02*
G75*
G03*
X10617000Y-11176000I-51000J0D01*
G01*
X10617000Y-11176000D02*
G75*
G03*
X10719000Y-11176000I51000J0D01*
G01*
X10617000Y-11379000D02*
X10719000Y-11481000D01*
X10719000Y-11379000D02*
X10617000Y-11481000D01*
X10719000Y-11430000D02*
G75*
G03*
X10617000Y-11430000I-51000J0D01*
G01*
X10617000Y-11430000D02*
G75*
G03*
X10719000Y-11430000I51000J0D01*
G01*
X10617000Y-11633000D02*
X10719000Y-11735000D01*
X10719000Y-11633000D02*
X10617000Y-11735000D01*
X10719000Y-11684000D02*
G75*
G03*
X10617000Y-11684000I-51000J0D01*
G01*
X10617000Y-11684000D02*
G75*
G03*
X10719000Y-11684000I51000J0D01*
G01*
X10617000Y-11887000D02*
X10719000Y-11989000D01*
X10719000Y-11887000D02*
X10617000Y-11989000D01*
X10719000Y-11938000D02*
G75*
G03*
X10617000Y-11938000I-51000J0D01*
G01*
X10617000Y-11938000D02*
G75*
G03*
X10719000Y-11938000I51000J0D01*
G01*
X10617000Y-12141000D02*
X10719000Y-12243000D01*
X10719000Y-12141000D02*
X10617000Y-12243000D01*
X10719000Y-12192000D02*
G75*
G03*
X10617000Y-12192000I-51000J0D01*
G01*
X10617000Y-12192000D02*
G75*
G03*
X10719000Y-12192000I51000J0D01*
G01*
X10617000Y-12395000D02*
X10719000Y-12497000D01*
X10719000Y-12395000D02*
X10617000Y-12497000D01*
X10719000Y-12446000D02*
G75*
G03*
X10617000Y-12446000I-51000J0D01*
G01*
X10617000Y-12446000D02*
G75*
G03*
X10719000Y-12446000I51000J0D01*
G01*
X10617000Y-12649000D02*
X10719000Y-12751000D01*
X10719000Y-12649000D02*
X10617000Y-12751000D01*
X10719000Y-12700000D02*
G75*
G03*
X10617000Y-12700000I-51000J0D01*
G01*
X10617000Y-12700000D02*
G75*
G03*
X10719000Y-12700000I51000J0D01*
G01*
X10617000Y-12903000D02*
X10719000Y-13005000D01*
X10719000Y-12903000D02*
X10617000Y-13005000D01*
X10719000Y-12954000D02*
G75*
G03*
X10617000Y-12954000I-51000J0D01*
G01*
X10617000Y-12954000D02*
G75*
G03*
X10719000Y-12954000I51000J0D01*
G01*
X10617000Y-13157000D02*
X10719000Y-13259000D01*
X10719000Y-13157000D02*
X10617000Y-13259000D01*
X10719000Y-13208000D02*
G75*
G03*
X10617000Y-13208000I-51000J0D01*
G01*
X10617000Y-13208000D02*
G75*
G03*
X10719000Y-13208000I51000J0D01*
G01*
X10617000Y-13411000D02*
X10719000Y-13513000D01*
X10719000Y-13411000D02*
X10617000Y-13513000D01*
X10719000Y-13462000D02*
G75*
G03*
X10617000Y-13462000I-51000J0D01*
G01*
X10617000Y-13462000D02*
G75*
G03*
X10719000Y-13462000I51000J0D01*
G01*
X10617000Y-13665000D02*
X10719000Y-13767000D01*
X10719000Y-13665000D02*
X10617000Y-13767000D01*
X10719000Y-13716000D02*
G75*
G03*
X10617000Y-13716000I-51000J0D01*
G01*
X10617000Y-13716000D02*
G75*
G03*
X10719000Y-13716000I51000J0D01*
G01*
X10617000Y-13919000D02*
X10719000Y-14021000D01*
X10719000Y-13919000D02*
X10617000Y-14021000D01*
X10719000Y-13970000D02*
G75*
G03*
X10617000Y-13970000I-51000J0D01*
G01*
X10617000Y-13970000D02*
G75*
G03*
X10719000Y-13970000I51000J0D01*
G01*
X10617000Y-14173000D02*
X10719000Y-14275000D01*
X10719000Y-14173000D02*
X10617000Y-14275000D01*
X10719000Y-14224000D02*
G75*
G03*
X10617000Y-14224000I-51000J0D01*
G01*
X10617000Y-14224000D02*
G75*
G03*
X10719000Y-14224000I51000J0D01*
G01*
X10617000Y-14427000D02*
X10719000Y-14529000D01*
X10719000Y-14427000D02*
X10617000Y-14529000D01*
X10719000Y-14478000D02*
G75*
G03*
X10617000Y-14478000I-51000J0D01*
G01*
X10617000Y-14478000D02*
G75*
G03*
X10719000Y-14478000I51000J0D01*
G01*
X10617000Y-14681000D02*
X10719000Y-14783000D01*
X10719000Y-14681000D02*
X10617000Y-14783000D01*
X10719000Y-14732000D02*
G75*
G03*
X10617000Y-14732000I-51000J0D01*
G01*
X10617000Y-14732000D02*
G75*
G03*
X10719000Y-14732000I51000J0D01*
G01*
X18491000Y-5664000D02*
X18593000Y-5766000D01*
X18593000Y-5664000D02*
X18491000Y-5766000D01*
X18593000Y-5715000D02*
G75*
G03*
X18491000Y-5715000I-51000J0D01*
G01*
X18491000Y-5715000D02*
G75*
G03*
X18593000Y-5715000I51000J0D01*
G01*
X18491000Y-5918000D02*
X18593000Y-6020000D01*
X18593000Y-5918000D02*
X18491000Y-6020000D01*
X18593000Y-5969000D02*
G75*
G03*
X18491000Y-5969000I-51000J0D01*
G01*
X18491000Y-5969000D02*
G75*
G03*
X18593000Y-5969000I51000J0D01*
G01*
X18491000Y-6172000D02*
X18593000Y-6274000D01*
X18593000Y-6172000D02*
X18491000Y-6274000D01*
X18593000Y-6223000D02*
G75*
G03*
X18491000Y-6223000I-51000J0D01*
G01*
X18491000Y-6223000D02*
G75*
G03*
X18593000Y-6223000I51000J0D01*
G01*
X18491000Y-6426000D02*
X18593000Y-6528000D01*
X18593000Y-6426000D02*
X18491000Y-6528000D01*
X18593000Y-6477000D02*
G75*
G03*
X18491000Y-6477000I-51000J0D01*
G01*
X18491000Y-6477000D02*
G75*
G03*
X18593000Y-6477000I51000J0D01*
G01*
X18491000Y-6680000D02*
X18593000Y-6782000D01*
X18593000Y-6680000D02*
X18491000Y-6782000D01*
X18593000Y-6731000D02*
G75*
G03*
X18491000Y-6731000I-51000J0D01*
G01*
X18491000Y-6731000D02*
G75*
G03*
X18593000Y-6731000I51000J0D01*
G01*
X18491000Y-6934000D02*
X18593000Y-7036000D01*
X18593000Y-6934000D02*
X18491000Y-7036000D01*
X18593000Y-6985000D02*
G75*
G03*
X18491000Y-6985000I-51000J0D01*
G01*
X18491000Y-6985000D02*
G75*
G03*
X18593000Y-6985000I51000J0D01*
G01*
X18491000Y-7188000D02*
X18593000Y-7290000D01*
X18593000Y-7188000D02*
X18491000Y-7290000D01*
X18593000Y-7239000D02*
G75*
G03*
X18491000Y-7239000I-51000J0D01*
G01*
X18491000Y-7239000D02*
G75*
G03*
X18593000Y-7239000I51000J0D01*
G01*
X18491000Y-7442000D02*
X18593000Y-7544000D01*
X18593000Y-7442000D02*
X18491000Y-7544000D01*
X18593000Y-7493000D02*
G75*
G03*
X18491000Y-7493000I-51000J0D01*
G01*
X18491000Y-7493000D02*
G75*
G03*
X18593000Y-7493000I51000J0D01*
G01*
X18491000Y-7696000D02*
X18593000Y-7798000D01*
X18593000Y-7696000D02*
X18491000Y-7798000D01*
X18593000Y-7747000D02*
G75*
G03*
X18491000Y-7747000I-51000J0D01*
G01*
X18491000Y-7747000D02*
G75*
G03*
X18593000Y-7747000I51000J0D01*
G01*
X18491000Y-7950000D02*
X18593000Y-8052000D01*
X18593000Y-7950000D02*
X18491000Y-8052000D01*
X18593000Y-8001000D02*
G75*
G03*
X18491000Y-8001000I-51000J0D01*
G01*
X18491000Y-8001000D02*
G75*
G03*
X18593000Y-8001000I51000J0D01*
G01*
X18491000Y-8204000D02*
X18593000Y-8306000D01*
X18593000Y-8204000D02*
X18491000Y-8306000D01*
X18593000Y-8255000D02*
G75*
G03*
X18491000Y-8255000I-51000J0D01*
G01*
X18491000Y-8255000D02*
G75*
G03*
X18593000Y-8255000I51000J0D01*
G01*
X18491000Y-8458000D02*
X18593000Y-8560000D01*
X18593000Y-8458000D02*
X18491000Y-8560000D01*
X18593000Y-8509000D02*
G75*
G03*
X18491000Y-8509000I-51000J0D01*
G01*
X18491000Y-8509000D02*
G75*
G03*
X18593000Y-8509000I51000J0D01*
G01*
X18491000Y-8712000D02*
X18593000Y-8814000D01*
X18593000Y-8712000D02*
X18491000Y-8814000D01*
X18593000Y-8763000D02*
G75*
G03*
X18491000Y-8763000I-51000J0D01*
G01*
X18491000Y-8763000D02*
G75*
G03*
X18593000Y-8763000I51000J0D01*
G01*
X18491000Y-8966000D02*
X18593000Y-9068000D01*
X18593000Y-8966000D02*
X18491000Y-9068000D01*
X18593000Y-9017000D02*
G75*
G03*
X18491000Y-9017000I-51000J0D01*
G01*
X18491000Y-9017000D02*
G75*
G03*
X18593000Y-9017000I51000J0D01*
G01*
X18491000Y-9220000D02*
X18593000Y-9322000D01*
X18593000Y-9220000D02*
X18491000Y-9322000D01*
X18593000Y-9271000D02*
G75*
G03*
X18491000Y-9271000I-51000J0D01*
G01*
X18491000Y-9271000D02*
G75*
G03*
X18593000Y-9271000I51000J0D01*
G01*
X18491000Y-9474000D02*
X18593000Y-9576000D01*
X18593000Y-9474000D02*
X18491000Y-9576000D01*
X18593000Y-9525000D02*
G75*
G03*
X18491000Y-9525000I-51000J0D01*
G01*
X18491000Y-9525000D02*
G75*
G03*
X18593000Y-9525000I51000J0D01*
G01*
X18491000Y-9728000D02*
X18593000Y-9830000D01*
X18593000Y-9728000D02*
X18491000Y-9830000D01*
X18593000Y-9779000D02*
G75*
G03*
X18491000Y-9779000I-51000J0D01*
G01*
X18491000Y-9779000D02*
G75*
G03*
X18593000Y-9779000I51000J0D01*
G01*
X18491000Y-9982000D02*
X18593000Y-10084000D01*
X18593000Y-9982000D02*
X18491000Y-10084000D01*
X18593000Y-10033000D02*
G75*
G03*
X18491000Y-10033000I-51000J0D01*
G01*
X18491000Y-10033000D02*
G75*
G03*
X18593000Y-10033000I51000J0D01*
G01*
X18491000Y-10236000D02*
X18593000Y-10338000D01*
X18593000Y-10236000D02*
X18491000Y-10338000D01*
X18593000Y-10287000D02*
G75*
G03*
X18491000Y-10287000I-51000J0D01*
G01*
X18491000Y-10287000D02*
G75*
G03*
X18593000Y-10287000I51000J0D01*
G01*
X18491000Y-10490000D02*
X18593000Y-10592000D01*
X18593000Y-10490000D02*
X18491000Y-10592000D01*
X18593000Y-10541000D02*
G75*
G03*
X18491000Y-10541000I-51000J0D01*
G01*
X18491000Y-10541000D02*
G75*
G03*
X18593000Y-10541000I51000J0D01*
G01*
X18491000Y-10744000D02*
X18593000Y-10846000D01*
X18593000Y-10744000D02*
X18491000Y-10846000D01*
X18593000Y-10795000D02*
G75*
G03*
X18491000Y-10795000I-51000J0D01*
G01*
X18491000Y-10795000D02*
G75*
G03*
X18593000Y-10795000I51000J0D01*
G01*
X18491000Y-10998000D02*
X18593000Y-11100000D01*
X18593000Y-10998000D02*
X18491000Y-11100000D01*
X18593000Y-11049000D02*
G75*
G03*
X18491000Y-11049000I-51000J0D01*
G01*
X18491000Y-11049000D02*
G75*
G03*
X18593000Y-11049000I51000J0D01*
G01*
X18491000Y-11252000D02*
X18593000Y-11354000D01*
X18593000Y-11252000D02*
X18491000Y-11354000D01*
X18593000Y-11303000D02*
G75*
G03*
X18491000Y-11303000I-51000J0D01*
G01*
X18491000Y-11303000D02*
G75*
G03*
X18593000Y-11303000I51000J0D01*
G01*
X18491000Y-11506000D02*
X18593000Y-11608000D01*
X18593000Y-11506000D02*
X18491000Y-11608000D01*
X18593000Y-11557000D02*
G75*
G03*
X18491000Y-11557000I-51000J0D01*
G01*
X18491000Y-11557000D02*
G75*
G03*
X18593000Y-11557000I51000J0D01*
G01*
X18491000Y-11760000D02*
X18593000Y-11862000D01*
X18593000Y-11760000D02*
X18491000Y-11862000D01*
X18593000Y-11811000D02*
G75*
G03*
X18491000Y-11811000I-51000J0D01*
G01*
X18491000Y-11811000D02*
G75*
G03*
X18593000Y-11811000I51000J0D01*
G01*
X18491000Y-12014000D02*
X18593000Y-12116000D01*
X18593000Y-12014000D02*
X18491000Y-12116000D01*
X18593000Y-12065000D02*
G75*
G03*
X18491000Y-12065000I-51000J0D01*
G01*
X18491000Y-12065000D02*
G75*
G03*
X18593000Y-12065000I51000J0D01*
G01*
X18491000Y-12268000D02*
X18593000Y-12370000D01*
X18593000Y-12268000D02*
X18491000Y-12370000D01*
X18593000Y-12319000D02*
G75*
G03*
X18491000Y-12319000I-51000J0D01*
G01*
X18491000Y-12319000D02*
G75*
G03*
X18593000Y-12319000I51000J0D01*
G01*
X18491000Y-12522000D02*
X18593000Y-12624000D01*
X18593000Y-12522000D02*
X18491000Y-12624000D01*
X18593000Y-12573000D02*
G75*
G03*
X18491000Y-12573000I-51000J0D01*
G01*
X18491000Y-12573000D02*
G75*
G03*
X18593000Y-12573000I51000J0D01*
G01*
X18491000Y-12776000D02*
X18593000Y-12878000D01*
X18593000Y-12776000D02*
X18491000Y-12878000D01*
X18593000Y-12827000D02*
G75*
G03*
X18491000Y-12827000I-51000J0D01*
G01*
X18491000Y-12827000D02*
G75*
G03*
X18593000Y-12827000I51000J0D01*
G01*
X18491000Y-13030000D02*
X18593000Y-13132000D01*
X18593000Y-13030000D02*
X18491000Y-13132000D01*
X18593000Y-13081000D02*
G75*
G03*
X18491000Y-13081000I-51000J0D01*
G01*
X18491000Y-13081000D02*
G75*
G03*
X18593000Y-13081000I51000J0D01*
G01*
X18491000Y-13284000D02*
X18593000Y-13386000D01*
X18593000Y-13284000D02*
X18491000Y-13386000D01*
X18593000Y-13335000D02*
G75*
G03*
X18491000Y-13335000I-51000J0D01*
G01*
X18491000Y-13335000D02*
G75*
G03*
X18593000Y-13335000I51000J0D01*
G01*
X18491000Y-13538000D02*
X18593000Y-13640000D01*
X18593000Y-13538000D02*
X18491000Y-13640000D01*
X18593000Y-13589000D02*
G75*
G03*
X18491000Y-13589000I-51000J0D01*
G01*
X18491000Y-13589000D02*
G75*
G03*
X18593000Y-13589000I51000J0D01*
G01*
X18491000Y-13792000D02*
X18593000Y-13894000D01*
X18593000Y-13792000D02*
X18491000Y-13894000D01*
X18593000Y-13843000D02*
G75*
G03*
X18491000Y-13843000I-51000J0D01*
G01*
X18491000Y-13843000D02*
G75*
G03*
X18593000Y-13843000I51000J0D01*
G01*
X18491000Y-14046000D02*
X18593000Y-14148000D01*
X18593000Y-14046000D02*
X18491000Y-14148000D01*
X18593000Y-14097000D02*
G75*
G03*
X18491000Y-14097000I-51000J0D01*
G01*
X18491000Y-14097000D02*
G75*
G03*
X18593000Y-14097000I51000J0D01*
G01*
X18491000Y-14300000D02*
X18593000Y-14402000D01*
X18593000Y-14300000D02*
X18491000Y-14402000D01*
X18593000Y-14351000D02*
G75*
G03*
X18491000Y-14351000I-51000J0D01*
G01*
X18491000Y-14351000D02*
G75*
G03*
X18593000Y-14351000I51000J0D01*
G01*
D15*
X12538600Y-14115000D02*
X12648600Y-14225000D01*
X12648600Y-14115000D02*
X12538600Y-14225000D01*
X12593600Y-14115000D02*
X12593600Y-14225000D01*
X12538600Y-14170000D02*
X12648600Y-14170000D01*
X12708600Y-14485000D02*
X12818600Y-14595000D01*
X12818600Y-14485000D02*
X12708600Y-14595000D01*
X12763600Y-14485000D02*
X12763600Y-14595000D01*
X12708600Y-14540000D02*
X12818600Y-14540000D01*
X12878600Y-14115000D02*
X12988600Y-14225000D01*
X12988600Y-14115000D02*
X12878600Y-14225000D01*
X12933600Y-14115000D02*
X12933600Y-14225000D01*
X12878600Y-14170000D02*
X12988600Y-14170000D01*
X13048600Y-14485000D02*
X13158600Y-14595000D01*
X13158600Y-14485000D02*
X13048600Y-14595000D01*
X13103600Y-14485000D02*
X13103600Y-14595000D01*
X13048600Y-14540000D02*
X13158600Y-14540000D01*
X13218600Y-14115000D02*
X13328600Y-14225000D01*
X13328600Y-14115000D02*
X13218600Y-14225000D01*
X13273600Y-14115000D02*
X13273600Y-14225000D01*
X13218600Y-14170000D02*
X13328600Y-14170000D01*
X14620400Y-14128300D02*
X14730400Y-14238300D01*
X14730400Y-14128300D02*
X14620400Y-14238300D01*
X14675400Y-14128300D02*
X14675400Y-14238300D01*
X14620400Y-14183300D02*
X14730400Y-14183300D01*
X15636400Y-14128300D02*
X15746400Y-14238300D01*
X15746400Y-14128300D02*
X15636400Y-14238300D01*
X15691400Y-14128300D02*
X15691400Y-14238300D01*
X15636400Y-14183300D02*
X15746400Y-14183300D01*
X16126000Y-14600000D02*
X16236000Y-14710000D01*
X16236000Y-14600000D02*
X16126000Y-14710000D01*
X16181000Y-14600000D02*
X16181000Y-14710000D01*
X16126000Y-14655000D02*
X16236000Y-14655000D01*
X16380000Y-14600000D02*
X16490000Y-14710000D01*
X16490000Y-14600000D02*
X16380000Y-14710000D01*
X16435000Y-14600000D02*
X16435000Y-14710000D01*
X16380000Y-14655000D02*
X16490000Y-14655000D01*
X16634000Y-14600000D02*
X16744000Y-14710000D01*
X16744000Y-14600000D02*
X16634000Y-14710000D01*
X16689000Y-14600000D02*
X16689000Y-14710000D01*
X16634000Y-14655000D02*
X16744000Y-14655000D01*
D11*
X10413277Y-15398984D02*
X10413277Y-15198984D01*
X10413277Y-15198984D02*
X10460896Y-15198984D01*
X10460896Y-15198984D02*
X10489467Y-15208508D01*
X10489467Y-15208508D02*
X10508515Y-15227555D01*
X10508515Y-15227555D02*
X10518039Y-15246603D01*
X10518039Y-15246603D02*
X10527563Y-15284698D01*
X10527563Y-15284698D02*
X10527563Y-15313269D01*
X10527563Y-15313269D02*
X10518039Y-15351365D01*
X10518039Y-15351365D02*
X10508515Y-15370412D01*
X10508515Y-15370412D02*
X10489467Y-15389460D01*
X10489467Y-15389460D02*
X10460896Y-15398984D01*
X10460896Y-15398984D02*
X10413277Y-15398984D01*
X10613277Y-15398984D02*
X10613277Y-15265650D01*
X10613277Y-15303746D02*
X10622801Y-15284698D01*
X10622801Y-15284698D02*
X10632324Y-15275174D01*
X10632324Y-15275174D02*
X10651372Y-15265650D01*
X10651372Y-15265650D02*
X10670420Y-15265650D01*
X10737086Y-15398984D02*
X10737086Y-15265650D01*
X10737086Y-15198984D02*
X10727563Y-15208508D01*
X10727563Y-15208508D02*
X10737086Y-15218031D01*
X10737086Y-15218031D02*
X10746610Y-15208508D01*
X10746610Y-15208508D02*
X10737086Y-15198984D01*
X10737086Y-15198984D02*
X10737086Y-15218031D01*
X10860896Y-15398984D02*
X10841848Y-15389460D01*
X10841848Y-15389460D02*
X10832324Y-15370412D01*
X10832324Y-15370412D02*
X10832324Y-15198984D01*
X10965658Y-15398984D02*
X10946610Y-15389460D01*
X10946610Y-15389460D02*
X10937086Y-15370412D01*
X10937086Y-15370412D02*
X10937086Y-15198984D01*
X11194229Y-15398984D02*
X11194229Y-15198984D01*
X11194229Y-15198984D02*
X11260896Y-15341841D01*
X11260896Y-15341841D02*
X11327562Y-15198984D01*
X11327562Y-15198984D02*
X11327562Y-15398984D01*
X11508515Y-15398984D02*
X11508515Y-15294222D01*
X11508515Y-15294222D02*
X11498991Y-15275174D01*
X11498991Y-15275174D02*
X11479943Y-15265650D01*
X11479943Y-15265650D02*
X11441848Y-15265650D01*
X11441848Y-15265650D02*
X11422801Y-15275174D01*
X11508515Y-15389460D02*
X11489467Y-15398984D01*
X11489467Y-15398984D02*
X11441848Y-15398984D01*
X11441848Y-15398984D02*
X11422801Y-15389460D01*
X11422801Y-15389460D02*
X11413277Y-15370412D01*
X11413277Y-15370412D02*
X11413277Y-15351365D01*
X11413277Y-15351365D02*
X11422801Y-15332317D01*
X11422801Y-15332317D02*
X11441848Y-15322793D01*
X11441848Y-15322793D02*
X11489467Y-15322793D01*
X11489467Y-15322793D02*
X11508515Y-15313269D01*
X11603753Y-15265650D02*
X11603753Y-15465650D01*
X11603753Y-15275174D02*
X11622801Y-15265650D01*
X11622801Y-15265650D02*
X11660896Y-15265650D01*
X11660896Y-15265650D02*
X11679943Y-15275174D01*
X11679943Y-15275174D02*
X11689467Y-15284698D01*
X11689467Y-15284698D02*
X11698991Y-15303746D01*
X11698991Y-15303746D02*
X11698991Y-15360888D01*
X11698991Y-15360888D02*
X11689467Y-15379936D01*
X11689467Y-15379936D02*
X11679943Y-15389460D01*
X11679943Y-15389460D02*
X11660896Y-15398984D01*
X11660896Y-15398984D02*
X11622801Y-15398984D01*
X11622801Y-15398984D02*
X11603753Y-15389460D01*
X11784705Y-15379936D02*
X11794229Y-15389460D01*
X11794229Y-15389460D02*
X11784705Y-15398984D01*
X11784705Y-15398984D02*
X11775182Y-15389460D01*
X11775182Y-15389460D02*
X11784705Y-15379936D01*
X11784705Y-15379936D02*
X11784705Y-15398984D01*
X11784705Y-15275174D02*
X11794229Y-15284698D01*
X11794229Y-15284698D02*
X11784705Y-15294222D01*
X11784705Y-15294222D02*
X11775182Y-15284698D01*
X11775182Y-15284698D02*
X11784705Y-15275174D01*
X11784705Y-15275174D02*
X11784705Y-15294222D01*
D12*
X10072500Y-15687500D02*
X10152500Y-15767500D01*
X10152500Y-15687500D02*
X10072500Y-15767500D01*
D11*
X10451372Y-15618984D02*
X10470420Y-15618984D01*
X10470420Y-15618984D02*
X10489467Y-15628508D01*
X10489467Y-15628508D02*
X10498991Y-15638031D01*
X10498991Y-15638031D02*
X10508515Y-15657079D01*
X10508515Y-15657079D02*
X10518039Y-15695174D01*
X10518039Y-15695174D02*
X10518039Y-15742793D01*
X10518039Y-15742793D02*
X10508515Y-15780888D01*
X10508515Y-15780888D02*
X10498991Y-15799936D01*
X10498991Y-15799936D02*
X10489467Y-15809460D01*
X10489467Y-15809460D02*
X10470420Y-15818984D01*
X10470420Y-15818984D02*
X10451372Y-15818984D01*
X10451372Y-15818984D02*
X10432324Y-15809460D01*
X10432324Y-15809460D02*
X10422801Y-15799936D01*
X10422801Y-15799936D02*
X10413277Y-15780888D01*
X10413277Y-15780888D02*
X10403753Y-15742793D01*
X10403753Y-15742793D02*
X10403753Y-15695174D01*
X10403753Y-15695174D02*
X10413277Y-15657079D01*
X10413277Y-15657079D02*
X10422801Y-15638031D01*
X10422801Y-15638031D02*
X10432324Y-15628508D01*
X10432324Y-15628508D02*
X10451372Y-15618984D01*
X10603753Y-15799936D02*
X10613277Y-15809460D01*
X10613277Y-15809460D02*
X10603753Y-15818984D01*
X10603753Y-15818984D02*
X10594229Y-15809460D01*
X10594229Y-15809460D02*
X10603753Y-15799936D01*
X10603753Y-15799936D02*
X10603753Y-15818984D01*
X10727563Y-15704698D02*
X10708515Y-15695174D01*
X10708515Y-15695174D02*
X10698991Y-15685650D01*
X10698991Y-15685650D02*
X10689467Y-15666603D01*
X10689467Y-15666603D02*
X10689467Y-15657079D01*
X10689467Y-15657079D02*
X10698991Y-15638031D01*
X10698991Y-15638031D02*
X10708515Y-15628508D01*
X10708515Y-15628508D02*
X10727563Y-15618984D01*
X10727563Y-15618984D02*
X10765658Y-15618984D01*
X10765658Y-15618984D02*
X10784705Y-15628508D01*
X10784705Y-15628508D02*
X10794229Y-15638031D01*
X10794229Y-15638031D02*
X10803753Y-15657079D01*
X10803753Y-15657079D02*
X10803753Y-15666603D01*
X10803753Y-15666603D02*
X10794229Y-15685650D01*
X10794229Y-15685650D02*
X10784705Y-15695174D01*
X10784705Y-15695174D02*
X10765658Y-15704698D01*
X10765658Y-15704698D02*
X10727563Y-15704698D01*
X10727563Y-15704698D02*
X10708515Y-15714222D01*
X10708515Y-15714222D02*
X10698991Y-15723746D01*
X10698991Y-15723746D02*
X10689467Y-15742793D01*
X10689467Y-15742793D02*
X10689467Y-15780888D01*
X10689467Y-15780888D02*
X10698991Y-15799936D01*
X10698991Y-15799936D02*
X10708515Y-15809460D01*
X10708515Y-15809460D02*
X10727563Y-15818984D01*
X10727563Y-15818984D02*
X10765658Y-15818984D01*
X10765658Y-15818984D02*
X10784705Y-15809460D01*
X10784705Y-15809460D02*
X10794229Y-15799936D01*
X10794229Y-15799936D02*
X10803753Y-15780888D01*
X10803753Y-15780888D02*
X10803753Y-15742793D01*
X10803753Y-15742793D02*
X10794229Y-15723746D01*
X10794229Y-15723746D02*
X10784705Y-15714222D01*
X10784705Y-15714222D02*
X10765658Y-15704698D01*
X10927563Y-15618984D02*
X10946610Y-15618984D01*
X10946610Y-15618984D02*
X10965658Y-15628508D01*
X10965658Y-15628508D02*
X10975182Y-15638031D01*
X10975182Y-15638031D02*
X10984705Y-15657079D01*
X10984705Y-15657079D02*
X10994229Y-15695174D01*
X10994229Y-15695174D02*
X10994229Y-15742793D01*
X10994229Y-15742793D02*
X10984705Y-15780888D01*
X10984705Y-15780888D02*
X10975182Y-15799936D01*
X10975182Y-15799936D02*
X10965658Y-15809460D01*
X10965658Y-15809460D02*
X10946610Y-15818984D01*
X10946610Y-15818984D02*
X10927563Y-15818984D01*
X10927563Y-15818984D02*
X10908515Y-15809460D01*
X10908515Y-15809460D02*
X10898991Y-15799936D01*
X10898991Y-15799936D02*
X10889467Y-15780888D01*
X10889467Y-15780888D02*
X10879944Y-15742793D01*
X10879944Y-15742793D02*
X10879944Y-15695174D01*
X10879944Y-15695174D02*
X10889467Y-15657079D01*
X10889467Y-15657079D02*
X10898991Y-15638031D01*
X10898991Y-15638031D02*
X10908515Y-15628508D01*
X10908515Y-15628508D02*
X10927563Y-15618984D01*
X11118039Y-15618984D02*
X11137086Y-15618984D01*
X11137086Y-15618984D02*
X11156134Y-15628508D01*
X11156134Y-15628508D02*
X11165658Y-15638031D01*
X11165658Y-15638031D02*
X11175182Y-15657079D01*
X11175182Y-15657079D02*
X11184705Y-15695174D01*
X11184705Y-15695174D02*
X11184705Y-15742793D01*
X11184705Y-15742793D02*
X11175182Y-15780888D01*
X11175182Y-15780888D02*
X11165658Y-15799936D01*
X11165658Y-15799936D02*
X11156134Y-15809460D01*
X11156134Y-15809460D02*
X11137086Y-15818984D01*
X11137086Y-15818984D02*
X11118039Y-15818984D01*
X11118039Y-15818984D02*
X11098991Y-15809460D01*
X11098991Y-15809460D02*
X11089467Y-15799936D01*
X11089467Y-15799936D02*
X11079944Y-15780888D01*
X11079944Y-15780888D02*
X11070420Y-15742793D01*
X11070420Y-15742793D02*
X11070420Y-15695174D01*
X11070420Y-15695174D02*
X11079944Y-15657079D01*
X11079944Y-15657079D02*
X11089467Y-15638031D01*
X11089467Y-15638031D02*
X11098991Y-15628508D01*
X11098991Y-15628508D02*
X11118039Y-15618984D01*
X11270420Y-15818984D02*
X11270420Y-15685650D01*
X11270420Y-15704698D02*
X11279943Y-15695174D01*
X11279943Y-15695174D02*
X11298991Y-15685650D01*
X11298991Y-15685650D02*
X11327563Y-15685650D01*
X11327563Y-15685650D02*
X11346610Y-15695174D01*
X11346610Y-15695174D02*
X11356134Y-15714222D01*
X11356134Y-15714222D02*
X11356134Y-15818984D01*
X11356134Y-15714222D02*
X11365658Y-15695174D01*
X11365658Y-15695174D02*
X11384705Y-15685650D01*
X11384705Y-15685650D02*
X11413277Y-15685650D01*
X11413277Y-15685650D02*
X11432324Y-15695174D01*
X11432324Y-15695174D02*
X11441848Y-15714222D01*
X11441848Y-15714222D02*
X11441848Y-15818984D01*
X11537086Y-15818984D02*
X11537086Y-15685650D01*
X11537086Y-15704698D02*
X11546610Y-15695174D01*
X11546610Y-15695174D02*
X11565658Y-15685650D01*
X11565658Y-15685650D02*
X11594229Y-15685650D01*
X11594229Y-15685650D02*
X11613277Y-15695174D01*
X11613277Y-15695174D02*
X11622801Y-15714222D01*
X11622801Y-15714222D02*
X11622801Y-15818984D01*
X11622801Y-15714222D02*
X11632324Y-15695174D01*
X11632324Y-15695174D02*
X11651372Y-15685650D01*
X11651372Y-15685650D02*
X11679943Y-15685650D01*
X11679943Y-15685650D02*
X11698991Y-15695174D01*
X11698991Y-15695174D02*
X11708515Y-15714222D01*
X11708515Y-15714222D02*
X11708515Y-15818984D01*
X12098991Y-15609460D02*
X11927563Y-15866603D01*
X12356134Y-15618984D02*
X12375182Y-15618984D01*
X12375182Y-15618984D02*
X12394229Y-15628508D01*
X12394229Y-15628508D02*
X12403753Y-15638031D01*
X12403753Y-15638031D02*
X12413277Y-15657079D01*
X12413277Y-15657079D02*
X12422801Y-15695174D01*
X12422801Y-15695174D02*
X12422801Y-15742793D01*
X12422801Y-15742793D02*
X12413277Y-15780888D01*
X12413277Y-15780888D02*
X12403753Y-15799936D01*
X12403753Y-15799936D02*
X12394229Y-15809460D01*
X12394229Y-15809460D02*
X12375182Y-15818984D01*
X12375182Y-15818984D02*
X12356134Y-15818984D01*
X12356134Y-15818984D02*
X12337086Y-15809460D01*
X12337086Y-15809460D02*
X12327563Y-15799936D01*
X12327563Y-15799936D02*
X12318039Y-15780888D01*
X12318039Y-15780888D02*
X12308515Y-15742793D01*
X12308515Y-15742793D02*
X12308515Y-15695174D01*
X12308515Y-15695174D02*
X12318039Y-15657079D01*
X12318039Y-15657079D02*
X12327563Y-15638031D01*
X12327563Y-15638031D02*
X12337086Y-15628508D01*
X12337086Y-15628508D02*
X12356134Y-15618984D01*
X12508515Y-15799936D02*
X12518039Y-15809460D01*
X12518039Y-15809460D02*
X12508515Y-15818984D01*
X12508515Y-15818984D02*
X12498991Y-15809460D01*
X12498991Y-15809460D02*
X12508515Y-15799936D01*
X12508515Y-15799936D02*
X12508515Y-15818984D01*
X12641848Y-15618984D02*
X12660896Y-15618984D01*
X12660896Y-15618984D02*
X12679944Y-15628508D01*
X12679944Y-15628508D02*
X12689467Y-15638031D01*
X12689467Y-15638031D02*
X12698991Y-15657079D01*
X12698991Y-15657079D02*
X12708515Y-15695174D01*
X12708515Y-15695174D02*
X12708515Y-15742793D01*
X12708515Y-15742793D02*
X12698991Y-15780888D01*
X12698991Y-15780888D02*
X12689467Y-15799936D01*
X12689467Y-15799936D02*
X12679944Y-15809460D01*
X12679944Y-15809460D02*
X12660896Y-15818984D01*
X12660896Y-15818984D02*
X12641848Y-15818984D01*
X12641848Y-15818984D02*
X12622801Y-15809460D01*
X12622801Y-15809460D02*
X12613277Y-15799936D01*
X12613277Y-15799936D02*
X12603753Y-15780888D01*
X12603753Y-15780888D02*
X12594229Y-15742793D01*
X12594229Y-15742793D02*
X12594229Y-15695174D01*
X12594229Y-15695174D02*
X12603753Y-15657079D01*
X12603753Y-15657079D02*
X12613277Y-15638031D01*
X12613277Y-15638031D02*
X12622801Y-15628508D01*
X12622801Y-15628508D02*
X12641848Y-15618984D01*
X12775182Y-15618984D02*
X12898991Y-15618984D01*
X12898991Y-15618984D02*
X12832325Y-15695174D01*
X12832325Y-15695174D02*
X12860896Y-15695174D01*
X12860896Y-15695174D02*
X12879944Y-15704698D01*
X12879944Y-15704698D02*
X12889467Y-15714222D01*
X12889467Y-15714222D02*
X12898991Y-15733269D01*
X12898991Y-15733269D02*
X12898991Y-15780888D01*
X12898991Y-15780888D02*
X12889467Y-15799936D01*
X12889467Y-15799936D02*
X12879944Y-15809460D01*
X12879944Y-15809460D02*
X12860896Y-15818984D01*
X12860896Y-15818984D02*
X12803753Y-15818984D01*
X12803753Y-15818984D02*
X12784706Y-15809460D01*
X12784706Y-15809460D02*
X12775182Y-15799936D01*
X13089467Y-15818984D02*
X12975182Y-15818984D01*
X13032325Y-15818984D02*
X13032325Y-15618984D01*
X13032325Y-15618984D02*
X13013277Y-15647555D01*
X13013277Y-15647555D02*
X12994229Y-15666603D01*
X12994229Y-15666603D02*
X12975182Y-15676127D01*
X13270420Y-15618984D02*
X13175182Y-15618984D01*
X13175182Y-15618984D02*
X13165658Y-15714222D01*
X13165658Y-15714222D02*
X13175182Y-15704698D01*
X13175182Y-15704698D02*
X13194229Y-15695174D01*
X13194229Y-15695174D02*
X13241848Y-15695174D01*
X13241848Y-15695174D02*
X13260896Y-15704698D01*
X13260896Y-15704698D02*
X13270420Y-15714222D01*
X13270420Y-15714222D02*
X13279944Y-15733269D01*
X13279944Y-15733269D02*
X13279944Y-15780888D01*
X13279944Y-15780888D02*
X13270420Y-15799936D01*
X13270420Y-15799936D02*
X13260896Y-15809460D01*
X13260896Y-15809460D02*
X13241848Y-15818984D01*
X13241848Y-15818984D02*
X13194229Y-15818984D01*
X13194229Y-15818984D02*
X13175182Y-15809460D01*
X13175182Y-15809460D02*
X13165658Y-15799936D01*
X13356134Y-15618984D02*
X13356134Y-15657079D01*
X13432325Y-15618984D02*
X13432325Y-15657079D01*
X13727563Y-15895174D02*
X13718039Y-15885650D01*
X13718039Y-15885650D02*
X13698991Y-15857079D01*
X13698991Y-15857079D02*
X13689468Y-15838031D01*
X13689468Y-15838031D02*
X13679944Y-15809460D01*
X13679944Y-15809460D02*
X13670420Y-15761841D01*
X13670420Y-15761841D02*
X13670420Y-15723746D01*
X13670420Y-15723746D02*
X13679944Y-15676127D01*
X13679944Y-15676127D02*
X13689468Y-15647555D01*
X13689468Y-15647555D02*
X13698991Y-15628508D01*
X13698991Y-15628508D02*
X13718039Y-15599936D01*
X13718039Y-15599936D02*
X13727563Y-15590412D01*
X13784706Y-15618984D02*
X13908515Y-15618984D01*
X13908515Y-15618984D02*
X13841848Y-15695174D01*
X13841848Y-15695174D02*
X13870420Y-15695174D01*
X13870420Y-15695174D02*
X13889468Y-15704698D01*
X13889468Y-15704698D02*
X13898991Y-15714222D01*
X13898991Y-15714222D02*
X13908515Y-15733269D01*
X13908515Y-15733269D02*
X13908515Y-15780888D01*
X13908515Y-15780888D02*
X13898991Y-15799936D01*
X13898991Y-15799936D02*
X13889468Y-15809460D01*
X13889468Y-15809460D02*
X13870420Y-15818984D01*
X13870420Y-15818984D02*
X13813277Y-15818984D01*
X13813277Y-15818984D02*
X13794229Y-15809460D01*
X13794229Y-15809460D02*
X13784706Y-15799936D01*
X14098991Y-15818984D02*
X13984706Y-15818984D01*
X14041848Y-15818984D02*
X14041848Y-15618984D01*
X14041848Y-15618984D02*
X14022801Y-15647555D01*
X14022801Y-15647555D02*
X14003753Y-15666603D01*
X14003753Y-15666603D02*
X13984706Y-15676127D01*
X14337087Y-15818984D02*
X14337087Y-15618984D01*
X14422801Y-15818984D02*
X14422801Y-15714222D01*
X14422801Y-15714222D02*
X14413277Y-15695174D01*
X14413277Y-15695174D02*
X14394230Y-15685650D01*
X14394230Y-15685650D02*
X14365658Y-15685650D01*
X14365658Y-15685650D02*
X14346610Y-15695174D01*
X14346610Y-15695174D02*
X14337087Y-15704698D01*
X14546610Y-15818984D02*
X14527563Y-15809460D01*
X14527563Y-15809460D02*
X14518039Y-15799936D01*
X14518039Y-15799936D02*
X14508515Y-15780888D01*
X14508515Y-15780888D02*
X14508515Y-15723746D01*
X14508515Y-15723746D02*
X14518039Y-15704698D01*
X14518039Y-15704698D02*
X14527563Y-15695174D01*
X14527563Y-15695174D02*
X14546610Y-15685650D01*
X14546610Y-15685650D02*
X14575182Y-15685650D01*
X14575182Y-15685650D02*
X14594230Y-15695174D01*
X14594230Y-15695174D02*
X14603753Y-15704698D01*
X14603753Y-15704698D02*
X14613277Y-15723746D01*
X14613277Y-15723746D02*
X14613277Y-15780888D01*
X14613277Y-15780888D02*
X14603753Y-15799936D01*
X14603753Y-15799936D02*
X14594230Y-15809460D01*
X14594230Y-15809460D02*
X14575182Y-15818984D01*
X14575182Y-15818984D02*
X14546610Y-15818984D01*
X14727563Y-15818984D02*
X14708515Y-15809460D01*
X14708515Y-15809460D02*
X14698991Y-15790412D01*
X14698991Y-15790412D02*
X14698991Y-15618984D01*
X14879944Y-15809460D02*
X14860896Y-15818984D01*
X14860896Y-15818984D02*
X14822801Y-15818984D01*
X14822801Y-15818984D02*
X14803753Y-15809460D01*
X14803753Y-15809460D02*
X14794230Y-15790412D01*
X14794230Y-15790412D02*
X14794230Y-15714222D01*
X14794230Y-15714222D02*
X14803753Y-15695174D01*
X14803753Y-15695174D02*
X14822801Y-15685650D01*
X14822801Y-15685650D02*
X14860896Y-15685650D01*
X14860896Y-15685650D02*
X14879944Y-15695174D01*
X14879944Y-15695174D02*
X14889468Y-15714222D01*
X14889468Y-15714222D02*
X14889468Y-15733269D01*
X14889468Y-15733269D02*
X14794230Y-15752317D01*
X14965658Y-15809460D02*
X14984706Y-15818984D01*
X14984706Y-15818984D02*
X15022801Y-15818984D01*
X15022801Y-15818984D02*
X15041849Y-15809460D01*
X15041849Y-15809460D02*
X15051372Y-15790412D01*
X15051372Y-15790412D02*
X15051372Y-15780888D01*
X15051372Y-15780888D02*
X15041849Y-15761841D01*
X15041849Y-15761841D02*
X15022801Y-15752317D01*
X15022801Y-15752317D02*
X14994230Y-15752317D01*
X14994230Y-15752317D02*
X14975182Y-15742793D01*
X14975182Y-15742793D02*
X14965658Y-15723746D01*
X14965658Y-15723746D02*
X14965658Y-15714222D01*
X14965658Y-15714222D02*
X14975182Y-15695174D01*
X14975182Y-15695174D02*
X14994230Y-15685650D01*
X14994230Y-15685650D02*
X15022801Y-15685650D01*
X15022801Y-15685650D02*
X15041849Y-15695174D01*
X15118039Y-15895174D02*
X15127563Y-15885650D01*
X15127563Y-15885650D02*
X15146611Y-15857079D01*
X15146611Y-15857079D02*
X15156134Y-15838031D01*
X15156134Y-15838031D02*
X15165658Y-15809460D01*
X15165658Y-15809460D02*
X15175182Y-15761841D01*
X15175182Y-15761841D02*
X15175182Y-15723746D01*
X15175182Y-15723746D02*
X15165658Y-15676127D01*
X15165658Y-15676127D02*
X15156134Y-15647555D01*
X15156134Y-15647555D02*
X15146611Y-15628508D01*
X15146611Y-15628508D02*
X15127563Y-15599936D01*
X15127563Y-15599936D02*
X15118039Y-15590412D01*
D12*
X10152500Y-15991500D02*
G75*
G03*
X10072500Y-15991500I-40000J0D01*
G01*
X10072500Y-15991500D02*
G75*
G03*
X10152500Y-15991500I40000J0D01*
G01*
D11*
X10451372Y-15882984D02*
X10470420Y-15882984D01*
X10470420Y-15882984D02*
X10489467Y-15892508D01*
X10489467Y-15892508D02*
X10498991Y-15902031D01*
X10498991Y-15902031D02*
X10508515Y-15921079D01*
X10508515Y-15921079D02*
X10518039Y-15959174D01*
X10518039Y-15959174D02*
X10518039Y-16006793D01*
X10518039Y-16006793D02*
X10508515Y-16044888D01*
X10508515Y-16044888D02*
X10498991Y-16063936D01*
X10498991Y-16063936D02*
X10489467Y-16073460D01*
X10489467Y-16073460D02*
X10470420Y-16082984D01*
X10470420Y-16082984D02*
X10451372Y-16082984D01*
X10451372Y-16082984D02*
X10432324Y-16073460D01*
X10432324Y-16073460D02*
X10422801Y-16063936D01*
X10422801Y-16063936D02*
X10413277Y-16044888D01*
X10413277Y-16044888D02*
X10403753Y-16006793D01*
X10403753Y-16006793D02*
X10403753Y-15959174D01*
X10403753Y-15959174D02*
X10413277Y-15921079D01*
X10413277Y-15921079D02*
X10422801Y-15902031D01*
X10422801Y-15902031D02*
X10432324Y-15892508D01*
X10432324Y-15892508D02*
X10451372Y-15882984D01*
X10603753Y-16063936D02*
X10613277Y-16073460D01*
X10613277Y-16073460D02*
X10603753Y-16082984D01*
X10603753Y-16082984D02*
X10594229Y-16073460D01*
X10594229Y-16073460D02*
X10603753Y-16063936D01*
X10603753Y-16063936D02*
X10603753Y-16082984D01*
X10727563Y-15968698D02*
X10708515Y-15959174D01*
X10708515Y-15959174D02*
X10698991Y-15949650D01*
X10698991Y-15949650D02*
X10689467Y-15930603D01*
X10689467Y-15930603D02*
X10689467Y-15921079D01*
X10689467Y-15921079D02*
X10698991Y-15902031D01*
X10698991Y-15902031D02*
X10708515Y-15892508D01*
X10708515Y-15892508D02*
X10727563Y-15882984D01*
X10727563Y-15882984D02*
X10765658Y-15882984D01*
X10765658Y-15882984D02*
X10784705Y-15892508D01*
X10784705Y-15892508D02*
X10794229Y-15902031D01*
X10794229Y-15902031D02*
X10803753Y-15921079D01*
X10803753Y-15921079D02*
X10803753Y-15930603D01*
X10803753Y-15930603D02*
X10794229Y-15949650D01*
X10794229Y-15949650D02*
X10784705Y-15959174D01*
X10784705Y-15959174D02*
X10765658Y-15968698D01*
X10765658Y-15968698D02*
X10727563Y-15968698D01*
X10727563Y-15968698D02*
X10708515Y-15978222D01*
X10708515Y-15978222D02*
X10698991Y-15987746D01*
X10698991Y-15987746D02*
X10689467Y-16006793D01*
X10689467Y-16006793D02*
X10689467Y-16044888D01*
X10689467Y-16044888D02*
X10698991Y-16063936D01*
X10698991Y-16063936D02*
X10708515Y-16073460D01*
X10708515Y-16073460D02*
X10727563Y-16082984D01*
X10727563Y-16082984D02*
X10765658Y-16082984D01*
X10765658Y-16082984D02*
X10784705Y-16073460D01*
X10784705Y-16073460D02*
X10794229Y-16063936D01*
X10794229Y-16063936D02*
X10803753Y-16044888D01*
X10803753Y-16044888D02*
X10803753Y-16006793D01*
X10803753Y-16006793D02*
X10794229Y-15987746D01*
X10794229Y-15987746D02*
X10784705Y-15978222D01*
X10784705Y-15978222D02*
X10765658Y-15968698D01*
X10927563Y-15882984D02*
X10946610Y-15882984D01*
X10946610Y-15882984D02*
X10965658Y-15892508D01*
X10965658Y-15892508D02*
X10975182Y-15902031D01*
X10975182Y-15902031D02*
X10984705Y-15921079D01*
X10984705Y-15921079D02*
X10994229Y-15959174D01*
X10994229Y-15959174D02*
X10994229Y-16006793D01*
X10994229Y-16006793D02*
X10984705Y-16044888D01*
X10984705Y-16044888D02*
X10975182Y-16063936D01*
X10975182Y-16063936D02*
X10965658Y-16073460D01*
X10965658Y-16073460D02*
X10946610Y-16082984D01*
X10946610Y-16082984D02*
X10927563Y-16082984D01*
X10927563Y-16082984D02*
X10908515Y-16073460D01*
X10908515Y-16073460D02*
X10898991Y-16063936D01*
X10898991Y-16063936D02*
X10889467Y-16044888D01*
X10889467Y-16044888D02*
X10879944Y-16006793D01*
X10879944Y-16006793D02*
X10879944Y-15959174D01*
X10879944Y-15959174D02*
X10889467Y-15921079D01*
X10889467Y-15921079D02*
X10898991Y-15902031D01*
X10898991Y-15902031D02*
X10908515Y-15892508D01*
X10908515Y-15892508D02*
X10927563Y-15882984D01*
X11118039Y-15882984D02*
X11137086Y-15882984D01*
X11137086Y-15882984D02*
X11156134Y-15892508D01*
X11156134Y-15892508D02*
X11165658Y-15902031D01*
X11165658Y-15902031D02*
X11175182Y-15921079D01*
X11175182Y-15921079D02*
X11184705Y-15959174D01*
X11184705Y-15959174D02*
X11184705Y-16006793D01*
X11184705Y-16006793D02*
X11175182Y-16044888D01*
X11175182Y-16044888D02*
X11165658Y-16063936D01*
X11165658Y-16063936D02*
X11156134Y-16073460D01*
X11156134Y-16073460D02*
X11137086Y-16082984D01*
X11137086Y-16082984D02*
X11118039Y-16082984D01*
X11118039Y-16082984D02*
X11098991Y-16073460D01*
X11098991Y-16073460D02*
X11089467Y-16063936D01*
X11089467Y-16063936D02*
X11079944Y-16044888D01*
X11079944Y-16044888D02*
X11070420Y-16006793D01*
X11070420Y-16006793D02*
X11070420Y-15959174D01*
X11070420Y-15959174D02*
X11079944Y-15921079D01*
X11079944Y-15921079D02*
X11089467Y-15902031D01*
X11089467Y-15902031D02*
X11098991Y-15892508D01*
X11098991Y-15892508D02*
X11118039Y-15882984D01*
X11270420Y-16082984D02*
X11270420Y-15949650D01*
X11270420Y-15968698D02*
X11279943Y-15959174D01*
X11279943Y-15959174D02*
X11298991Y-15949650D01*
X11298991Y-15949650D02*
X11327563Y-15949650D01*
X11327563Y-15949650D02*
X11346610Y-15959174D01*
X11346610Y-15959174D02*
X11356134Y-15978222D01*
X11356134Y-15978222D02*
X11356134Y-16082984D01*
X11356134Y-15978222D02*
X11365658Y-15959174D01*
X11365658Y-15959174D02*
X11384705Y-15949650D01*
X11384705Y-15949650D02*
X11413277Y-15949650D01*
X11413277Y-15949650D02*
X11432324Y-15959174D01*
X11432324Y-15959174D02*
X11441848Y-15978222D01*
X11441848Y-15978222D02*
X11441848Y-16082984D01*
X11537086Y-16082984D02*
X11537086Y-15949650D01*
X11537086Y-15968698D02*
X11546610Y-15959174D01*
X11546610Y-15959174D02*
X11565658Y-15949650D01*
X11565658Y-15949650D02*
X11594229Y-15949650D01*
X11594229Y-15949650D02*
X11613277Y-15959174D01*
X11613277Y-15959174D02*
X11622801Y-15978222D01*
X11622801Y-15978222D02*
X11622801Y-16082984D01*
X11622801Y-15978222D02*
X11632324Y-15959174D01*
X11632324Y-15959174D02*
X11651372Y-15949650D01*
X11651372Y-15949650D02*
X11679943Y-15949650D01*
X11679943Y-15949650D02*
X11698991Y-15959174D01*
X11698991Y-15959174D02*
X11708515Y-15978222D01*
X11708515Y-15978222D02*
X11708515Y-16082984D01*
X12098991Y-15873460D02*
X11927563Y-16130603D01*
X12356134Y-15882984D02*
X12375182Y-15882984D01*
X12375182Y-15882984D02*
X12394229Y-15892508D01*
X12394229Y-15892508D02*
X12403753Y-15902031D01*
X12403753Y-15902031D02*
X12413277Y-15921079D01*
X12413277Y-15921079D02*
X12422801Y-15959174D01*
X12422801Y-15959174D02*
X12422801Y-16006793D01*
X12422801Y-16006793D02*
X12413277Y-16044888D01*
X12413277Y-16044888D02*
X12403753Y-16063936D01*
X12403753Y-16063936D02*
X12394229Y-16073460D01*
X12394229Y-16073460D02*
X12375182Y-16082984D01*
X12375182Y-16082984D02*
X12356134Y-16082984D01*
X12356134Y-16082984D02*
X12337086Y-16073460D01*
X12337086Y-16073460D02*
X12327563Y-16063936D01*
X12327563Y-16063936D02*
X12318039Y-16044888D01*
X12318039Y-16044888D02*
X12308515Y-16006793D01*
X12308515Y-16006793D02*
X12308515Y-15959174D01*
X12308515Y-15959174D02*
X12318039Y-15921079D01*
X12318039Y-15921079D02*
X12327563Y-15902031D01*
X12327563Y-15902031D02*
X12337086Y-15892508D01*
X12337086Y-15892508D02*
X12356134Y-15882984D01*
X12508515Y-16063936D02*
X12518039Y-16073460D01*
X12518039Y-16073460D02*
X12508515Y-16082984D01*
X12508515Y-16082984D02*
X12498991Y-16073460D01*
X12498991Y-16073460D02*
X12508515Y-16063936D01*
X12508515Y-16063936D02*
X12508515Y-16082984D01*
X12641848Y-15882984D02*
X12660896Y-15882984D01*
X12660896Y-15882984D02*
X12679944Y-15892508D01*
X12679944Y-15892508D02*
X12689467Y-15902031D01*
X12689467Y-15902031D02*
X12698991Y-15921079D01*
X12698991Y-15921079D02*
X12708515Y-15959174D01*
X12708515Y-15959174D02*
X12708515Y-16006793D01*
X12708515Y-16006793D02*
X12698991Y-16044888D01*
X12698991Y-16044888D02*
X12689467Y-16063936D01*
X12689467Y-16063936D02*
X12679944Y-16073460D01*
X12679944Y-16073460D02*
X12660896Y-16082984D01*
X12660896Y-16082984D02*
X12641848Y-16082984D01*
X12641848Y-16082984D02*
X12622801Y-16073460D01*
X12622801Y-16073460D02*
X12613277Y-16063936D01*
X12613277Y-16063936D02*
X12603753Y-16044888D01*
X12603753Y-16044888D02*
X12594229Y-16006793D01*
X12594229Y-16006793D02*
X12594229Y-15959174D01*
X12594229Y-15959174D02*
X12603753Y-15921079D01*
X12603753Y-15921079D02*
X12613277Y-15902031D01*
X12613277Y-15902031D02*
X12622801Y-15892508D01*
X12622801Y-15892508D02*
X12641848Y-15882984D01*
X12775182Y-15882984D02*
X12898991Y-15882984D01*
X12898991Y-15882984D02*
X12832325Y-15959174D01*
X12832325Y-15959174D02*
X12860896Y-15959174D01*
X12860896Y-15959174D02*
X12879944Y-15968698D01*
X12879944Y-15968698D02*
X12889467Y-15978222D01*
X12889467Y-15978222D02*
X12898991Y-15997269D01*
X12898991Y-15997269D02*
X12898991Y-16044888D01*
X12898991Y-16044888D02*
X12889467Y-16063936D01*
X12889467Y-16063936D02*
X12879944Y-16073460D01*
X12879944Y-16073460D02*
X12860896Y-16082984D01*
X12860896Y-16082984D02*
X12803753Y-16082984D01*
X12803753Y-16082984D02*
X12784706Y-16073460D01*
X12784706Y-16073460D02*
X12775182Y-16063936D01*
X13089467Y-16082984D02*
X12975182Y-16082984D01*
X13032325Y-16082984D02*
X13032325Y-15882984D01*
X13032325Y-15882984D02*
X13013277Y-15911555D01*
X13013277Y-15911555D02*
X12994229Y-15930603D01*
X12994229Y-15930603D02*
X12975182Y-15940127D01*
X13270420Y-15882984D02*
X13175182Y-15882984D01*
X13175182Y-15882984D02*
X13165658Y-15978222D01*
X13165658Y-15978222D02*
X13175182Y-15968698D01*
X13175182Y-15968698D02*
X13194229Y-15959174D01*
X13194229Y-15959174D02*
X13241848Y-15959174D01*
X13241848Y-15959174D02*
X13260896Y-15968698D01*
X13260896Y-15968698D02*
X13270420Y-15978222D01*
X13270420Y-15978222D02*
X13279944Y-15997269D01*
X13279944Y-15997269D02*
X13279944Y-16044888D01*
X13279944Y-16044888D02*
X13270420Y-16063936D01*
X13270420Y-16063936D02*
X13260896Y-16073460D01*
X13260896Y-16073460D02*
X13241848Y-16082984D01*
X13241848Y-16082984D02*
X13194229Y-16082984D01*
X13194229Y-16082984D02*
X13175182Y-16073460D01*
X13175182Y-16073460D02*
X13165658Y-16063936D01*
X13356134Y-15882984D02*
X13356134Y-15921079D01*
X13432325Y-15882984D02*
X13432325Y-15921079D01*
X13727563Y-16159174D02*
X13718039Y-16149650D01*
X13718039Y-16149650D02*
X13698991Y-16121079D01*
X13698991Y-16121079D02*
X13689468Y-16102031D01*
X13689468Y-16102031D02*
X13679944Y-16073460D01*
X13679944Y-16073460D02*
X13670420Y-16025841D01*
X13670420Y-16025841D02*
X13670420Y-15987746D01*
X13670420Y-15987746D02*
X13679944Y-15940127D01*
X13679944Y-15940127D02*
X13689468Y-15911555D01*
X13689468Y-15911555D02*
X13698991Y-15892508D01*
X13698991Y-15892508D02*
X13718039Y-15863936D01*
X13718039Y-15863936D02*
X13727563Y-15854412D01*
X13908515Y-16082984D02*
X13794229Y-16082984D01*
X13851372Y-16082984D02*
X13851372Y-15882984D01*
X13851372Y-15882984D02*
X13832325Y-15911555D01*
X13832325Y-15911555D02*
X13813277Y-15930603D01*
X13813277Y-15930603D02*
X13794229Y-15940127D01*
X14032325Y-15882984D02*
X14051372Y-15882984D01*
X14051372Y-15882984D02*
X14070420Y-15892508D01*
X14070420Y-15892508D02*
X14079944Y-15902031D01*
X14079944Y-15902031D02*
X14089468Y-15921079D01*
X14089468Y-15921079D02*
X14098991Y-15959174D01*
X14098991Y-15959174D02*
X14098991Y-16006793D01*
X14098991Y-16006793D02*
X14089468Y-16044888D01*
X14089468Y-16044888D02*
X14079944Y-16063936D01*
X14079944Y-16063936D02*
X14070420Y-16073460D01*
X14070420Y-16073460D02*
X14051372Y-16082984D01*
X14051372Y-16082984D02*
X14032325Y-16082984D01*
X14032325Y-16082984D02*
X14013277Y-16073460D01*
X14013277Y-16073460D02*
X14003753Y-16063936D01*
X14003753Y-16063936D02*
X13994229Y-16044888D01*
X13994229Y-16044888D02*
X13984706Y-16006793D01*
X13984706Y-16006793D02*
X13984706Y-15959174D01*
X13984706Y-15959174D02*
X13994229Y-15921079D01*
X13994229Y-15921079D02*
X14003753Y-15902031D01*
X14003753Y-15902031D02*
X14013277Y-15892508D01*
X14013277Y-15892508D02*
X14032325Y-15882984D01*
X14337087Y-16082984D02*
X14337087Y-15882984D01*
X14422801Y-16082984D02*
X14422801Y-15978222D01*
X14422801Y-15978222D02*
X14413277Y-15959174D01*
X14413277Y-15959174D02*
X14394230Y-15949650D01*
X14394230Y-15949650D02*
X14365658Y-15949650D01*
X14365658Y-15949650D02*
X14346610Y-15959174D01*
X14346610Y-15959174D02*
X14337087Y-15968698D01*
X14546610Y-16082984D02*
X14527563Y-16073460D01*
X14527563Y-16073460D02*
X14518039Y-16063936D01*
X14518039Y-16063936D02*
X14508515Y-16044888D01*
X14508515Y-16044888D02*
X14508515Y-15987746D01*
X14508515Y-15987746D02*
X14518039Y-15968698D01*
X14518039Y-15968698D02*
X14527563Y-15959174D01*
X14527563Y-15959174D02*
X14546610Y-15949650D01*
X14546610Y-15949650D02*
X14575182Y-15949650D01*
X14575182Y-15949650D02*
X14594230Y-15959174D01*
X14594230Y-15959174D02*
X14603753Y-15968698D01*
X14603753Y-15968698D02*
X14613277Y-15987746D01*
X14613277Y-15987746D02*
X14613277Y-16044888D01*
X14613277Y-16044888D02*
X14603753Y-16063936D01*
X14603753Y-16063936D02*
X14594230Y-16073460D01*
X14594230Y-16073460D02*
X14575182Y-16082984D01*
X14575182Y-16082984D02*
X14546610Y-16082984D01*
X14727563Y-16082984D02*
X14708515Y-16073460D01*
X14708515Y-16073460D02*
X14698991Y-16054412D01*
X14698991Y-16054412D02*
X14698991Y-15882984D01*
X14879944Y-16073460D02*
X14860896Y-16082984D01*
X14860896Y-16082984D02*
X14822801Y-16082984D01*
X14822801Y-16082984D02*
X14803753Y-16073460D01*
X14803753Y-16073460D02*
X14794230Y-16054412D01*
X14794230Y-16054412D02*
X14794230Y-15978222D01*
X14794230Y-15978222D02*
X14803753Y-15959174D01*
X14803753Y-15959174D02*
X14822801Y-15949650D01*
X14822801Y-15949650D02*
X14860896Y-15949650D01*
X14860896Y-15949650D02*
X14879944Y-15959174D01*
X14879944Y-15959174D02*
X14889468Y-15978222D01*
X14889468Y-15978222D02*
X14889468Y-15997269D01*
X14889468Y-15997269D02*
X14794230Y-16016317D01*
X14965658Y-16073460D02*
X14984706Y-16082984D01*
X14984706Y-16082984D02*
X15022801Y-16082984D01*
X15022801Y-16082984D02*
X15041849Y-16073460D01*
X15041849Y-16073460D02*
X15051372Y-16054412D01*
X15051372Y-16054412D02*
X15051372Y-16044888D01*
X15051372Y-16044888D02*
X15041849Y-16025841D01*
X15041849Y-16025841D02*
X15022801Y-16016317D01*
X15022801Y-16016317D02*
X14994230Y-16016317D01*
X14994230Y-16016317D02*
X14975182Y-16006793D01*
X14975182Y-16006793D02*
X14965658Y-15987746D01*
X14965658Y-15987746D02*
X14965658Y-15978222D01*
X14965658Y-15978222D02*
X14975182Y-15959174D01*
X14975182Y-15959174D02*
X14994230Y-15949650D01*
X14994230Y-15949650D02*
X15022801Y-15949650D01*
X15022801Y-15949650D02*
X15041849Y-15959174D01*
X15118039Y-16159174D02*
X15127563Y-16149650D01*
X15127563Y-16149650D02*
X15146611Y-16121079D01*
X15146611Y-16121079D02*
X15156134Y-16102031D01*
X15156134Y-16102031D02*
X15165658Y-16073460D01*
X15165658Y-16073460D02*
X15175182Y-16025841D01*
X15175182Y-16025841D02*
X15175182Y-15987746D01*
X15175182Y-15987746D02*
X15165658Y-15940127D01*
X15165658Y-15940127D02*
X15156134Y-15911555D01*
X15156134Y-15911555D02*
X15146611Y-15892508D01*
X15146611Y-15892508D02*
X15127563Y-15863936D01*
X15127563Y-15863936D02*
X15118039Y-15854412D01*
D12*
X10107500Y-16210500D02*
X10107500Y-16300500D01*
X10062500Y-16255500D02*
X10152500Y-16255500D01*
D11*
X10451372Y-16146984D02*
X10470420Y-16146984D01*
X10470420Y-16146984D02*
X10489467Y-16156508D01*
X10489467Y-16156508D02*
X10498991Y-16166031D01*
X10498991Y-16166031D02*
X10508515Y-16185079D01*
X10508515Y-16185079D02*
X10518039Y-16223174D01*
X10518039Y-16223174D02*
X10518039Y-16270793D01*
X10518039Y-16270793D02*
X10508515Y-16308888D01*
X10508515Y-16308888D02*
X10498991Y-16327936D01*
X10498991Y-16327936D02*
X10489467Y-16337460D01*
X10489467Y-16337460D02*
X10470420Y-16346984D01*
X10470420Y-16346984D02*
X10451372Y-16346984D01*
X10451372Y-16346984D02*
X10432324Y-16337460D01*
X10432324Y-16337460D02*
X10422801Y-16327936D01*
X10422801Y-16327936D02*
X10413277Y-16308888D01*
X10413277Y-16308888D02*
X10403753Y-16270793D01*
X10403753Y-16270793D02*
X10403753Y-16223174D01*
X10403753Y-16223174D02*
X10413277Y-16185079D01*
X10413277Y-16185079D02*
X10422801Y-16166031D01*
X10422801Y-16166031D02*
X10432324Y-16156508D01*
X10432324Y-16156508D02*
X10451372Y-16146984D01*
X10603753Y-16327936D02*
X10613277Y-16337460D01*
X10613277Y-16337460D02*
X10603753Y-16346984D01*
X10603753Y-16346984D02*
X10594229Y-16337460D01*
X10594229Y-16337460D02*
X10603753Y-16327936D01*
X10603753Y-16327936D02*
X10603753Y-16346984D01*
X10708515Y-16346984D02*
X10746610Y-16346984D01*
X10746610Y-16346984D02*
X10765658Y-16337460D01*
X10765658Y-16337460D02*
X10775182Y-16327936D01*
X10775182Y-16327936D02*
X10794229Y-16299365D01*
X10794229Y-16299365D02*
X10803753Y-16261269D01*
X10803753Y-16261269D02*
X10803753Y-16185079D01*
X10803753Y-16185079D02*
X10794229Y-16166031D01*
X10794229Y-16166031D02*
X10784705Y-16156508D01*
X10784705Y-16156508D02*
X10765658Y-16146984D01*
X10765658Y-16146984D02*
X10727563Y-16146984D01*
X10727563Y-16146984D02*
X10708515Y-16156508D01*
X10708515Y-16156508D02*
X10698991Y-16166031D01*
X10698991Y-16166031D02*
X10689467Y-16185079D01*
X10689467Y-16185079D02*
X10689467Y-16232698D01*
X10689467Y-16232698D02*
X10698991Y-16251746D01*
X10698991Y-16251746D02*
X10708515Y-16261269D01*
X10708515Y-16261269D02*
X10727563Y-16270793D01*
X10727563Y-16270793D02*
X10765658Y-16270793D01*
X10765658Y-16270793D02*
X10784705Y-16261269D01*
X10784705Y-16261269D02*
X10794229Y-16251746D01*
X10794229Y-16251746D02*
X10803753Y-16232698D01*
X10927563Y-16146984D02*
X10946610Y-16146984D01*
X10946610Y-16146984D02*
X10965658Y-16156508D01*
X10965658Y-16156508D02*
X10975182Y-16166031D01*
X10975182Y-16166031D02*
X10984705Y-16185079D01*
X10984705Y-16185079D02*
X10994229Y-16223174D01*
X10994229Y-16223174D02*
X10994229Y-16270793D01*
X10994229Y-16270793D02*
X10984705Y-16308888D01*
X10984705Y-16308888D02*
X10975182Y-16327936D01*
X10975182Y-16327936D02*
X10965658Y-16337460D01*
X10965658Y-16337460D02*
X10946610Y-16346984D01*
X10946610Y-16346984D02*
X10927563Y-16346984D01*
X10927563Y-16346984D02*
X10908515Y-16337460D01*
X10908515Y-16337460D02*
X10898991Y-16327936D01*
X10898991Y-16327936D02*
X10889467Y-16308888D01*
X10889467Y-16308888D02*
X10879944Y-16270793D01*
X10879944Y-16270793D02*
X10879944Y-16223174D01*
X10879944Y-16223174D02*
X10889467Y-16185079D01*
X10889467Y-16185079D02*
X10898991Y-16166031D01*
X10898991Y-16166031D02*
X10908515Y-16156508D01*
X10908515Y-16156508D02*
X10927563Y-16146984D01*
X11118039Y-16146984D02*
X11137086Y-16146984D01*
X11137086Y-16146984D02*
X11156134Y-16156508D01*
X11156134Y-16156508D02*
X11165658Y-16166031D01*
X11165658Y-16166031D02*
X11175182Y-16185079D01*
X11175182Y-16185079D02*
X11184705Y-16223174D01*
X11184705Y-16223174D02*
X11184705Y-16270793D01*
X11184705Y-16270793D02*
X11175182Y-16308888D01*
X11175182Y-16308888D02*
X11165658Y-16327936D01*
X11165658Y-16327936D02*
X11156134Y-16337460D01*
X11156134Y-16337460D02*
X11137086Y-16346984D01*
X11137086Y-16346984D02*
X11118039Y-16346984D01*
X11118039Y-16346984D02*
X11098991Y-16337460D01*
X11098991Y-16337460D02*
X11089467Y-16327936D01*
X11089467Y-16327936D02*
X11079944Y-16308888D01*
X11079944Y-16308888D02*
X11070420Y-16270793D01*
X11070420Y-16270793D02*
X11070420Y-16223174D01*
X11070420Y-16223174D02*
X11079944Y-16185079D01*
X11079944Y-16185079D02*
X11089467Y-16166031D01*
X11089467Y-16166031D02*
X11098991Y-16156508D01*
X11098991Y-16156508D02*
X11118039Y-16146984D01*
X11270420Y-16346984D02*
X11270420Y-16213650D01*
X11270420Y-16232698D02*
X11279943Y-16223174D01*
X11279943Y-16223174D02*
X11298991Y-16213650D01*
X11298991Y-16213650D02*
X11327563Y-16213650D01*
X11327563Y-16213650D02*
X11346610Y-16223174D01*
X11346610Y-16223174D02*
X11356134Y-16242222D01*
X11356134Y-16242222D02*
X11356134Y-16346984D01*
X11356134Y-16242222D02*
X11365658Y-16223174D01*
X11365658Y-16223174D02*
X11384705Y-16213650D01*
X11384705Y-16213650D02*
X11413277Y-16213650D01*
X11413277Y-16213650D02*
X11432324Y-16223174D01*
X11432324Y-16223174D02*
X11441848Y-16242222D01*
X11441848Y-16242222D02*
X11441848Y-16346984D01*
X11537086Y-16346984D02*
X11537086Y-16213650D01*
X11537086Y-16232698D02*
X11546610Y-16223174D01*
X11546610Y-16223174D02*
X11565658Y-16213650D01*
X11565658Y-16213650D02*
X11594229Y-16213650D01*
X11594229Y-16213650D02*
X11613277Y-16223174D01*
X11613277Y-16223174D02*
X11622801Y-16242222D01*
X11622801Y-16242222D02*
X11622801Y-16346984D01*
X11622801Y-16242222D02*
X11632324Y-16223174D01*
X11632324Y-16223174D02*
X11651372Y-16213650D01*
X11651372Y-16213650D02*
X11679943Y-16213650D01*
X11679943Y-16213650D02*
X11698991Y-16223174D01*
X11698991Y-16223174D02*
X11708515Y-16242222D01*
X11708515Y-16242222D02*
X11708515Y-16346984D01*
X12098991Y-16137460D02*
X11927563Y-16394603D01*
X12356134Y-16146984D02*
X12375182Y-16146984D01*
X12375182Y-16146984D02*
X12394229Y-16156508D01*
X12394229Y-16156508D02*
X12403753Y-16166031D01*
X12403753Y-16166031D02*
X12413277Y-16185079D01*
X12413277Y-16185079D02*
X12422801Y-16223174D01*
X12422801Y-16223174D02*
X12422801Y-16270793D01*
X12422801Y-16270793D02*
X12413277Y-16308888D01*
X12413277Y-16308888D02*
X12403753Y-16327936D01*
X12403753Y-16327936D02*
X12394229Y-16337460D01*
X12394229Y-16337460D02*
X12375182Y-16346984D01*
X12375182Y-16346984D02*
X12356134Y-16346984D01*
X12356134Y-16346984D02*
X12337086Y-16337460D01*
X12337086Y-16337460D02*
X12327563Y-16327936D01*
X12327563Y-16327936D02*
X12318039Y-16308888D01*
X12318039Y-16308888D02*
X12308515Y-16270793D01*
X12308515Y-16270793D02*
X12308515Y-16223174D01*
X12308515Y-16223174D02*
X12318039Y-16185079D01*
X12318039Y-16185079D02*
X12327563Y-16166031D01*
X12327563Y-16166031D02*
X12337086Y-16156508D01*
X12337086Y-16156508D02*
X12356134Y-16146984D01*
X12508515Y-16327936D02*
X12518039Y-16337460D01*
X12518039Y-16337460D02*
X12508515Y-16346984D01*
X12508515Y-16346984D02*
X12498991Y-16337460D01*
X12498991Y-16337460D02*
X12508515Y-16327936D01*
X12508515Y-16327936D02*
X12508515Y-16346984D01*
X12641848Y-16146984D02*
X12660896Y-16146984D01*
X12660896Y-16146984D02*
X12679944Y-16156508D01*
X12679944Y-16156508D02*
X12689467Y-16166031D01*
X12689467Y-16166031D02*
X12698991Y-16185079D01*
X12698991Y-16185079D02*
X12708515Y-16223174D01*
X12708515Y-16223174D02*
X12708515Y-16270793D01*
X12708515Y-16270793D02*
X12698991Y-16308888D01*
X12698991Y-16308888D02*
X12689467Y-16327936D01*
X12689467Y-16327936D02*
X12679944Y-16337460D01*
X12679944Y-16337460D02*
X12660896Y-16346984D01*
X12660896Y-16346984D02*
X12641848Y-16346984D01*
X12641848Y-16346984D02*
X12622801Y-16337460D01*
X12622801Y-16337460D02*
X12613277Y-16327936D01*
X12613277Y-16327936D02*
X12603753Y-16308888D01*
X12603753Y-16308888D02*
X12594229Y-16270793D01*
X12594229Y-16270793D02*
X12594229Y-16223174D01*
X12594229Y-16223174D02*
X12603753Y-16185079D01*
X12603753Y-16185079D02*
X12613277Y-16166031D01*
X12613277Y-16166031D02*
X12622801Y-16156508D01*
X12622801Y-16156508D02*
X12641848Y-16146984D01*
X12775182Y-16146984D02*
X12898991Y-16146984D01*
X12898991Y-16146984D02*
X12832325Y-16223174D01*
X12832325Y-16223174D02*
X12860896Y-16223174D01*
X12860896Y-16223174D02*
X12879944Y-16232698D01*
X12879944Y-16232698D02*
X12889467Y-16242222D01*
X12889467Y-16242222D02*
X12898991Y-16261269D01*
X12898991Y-16261269D02*
X12898991Y-16308888D01*
X12898991Y-16308888D02*
X12889467Y-16327936D01*
X12889467Y-16327936D02*
X12879944Y-16337460D01*
X12879944Y-16337460D02*
X12860896Y-16346984D01*
X12860896Y-16346984D02*
X12803753Y-16346984D01*
X12803753Y-16346984D02*
X12784706Y-16337460D01*
X12784706Y-16337460D02*
X12775182Y-16327936D01*
X13079944Y-16146984D02*
X12984706Y-16146984D01*
X12984706Y-16146984D02*
X12975182Y-16242222D01*
X12975182Y-16242222D02*
X12984706Y-16232698D01*
X12984706Y-16232698D02*
X13003753Y-16223174D01*
X13003753Y-16223174D02*
X13051372Y-16223174D01*
X13051372Y-16223174D02*
X13070420Y-16232698D01*
X13070420Y-16232698D02*
X13079944Y-16242222D01*
X13079944Y-16242222D02*
X13089467Y-16261269D01*
X13089467Y-16261269D02*
X13089467Y-16308888D01*
X13089467Y-16308888D02*
X13079944Y-16327936D01*
X13079944Y-16327936D02*
X13070420Y-16337460D01*
X13070420Y-16337460D02*
X13051372Y-16346984D01*
X13051372Y-16346984D02*
X13003753Y-16346984D01*
X13003753Y-16346984D02*
X12984706Y-16337460D01*
X12984706Y-16337460D02*
X12975182Y-16327936D01*
X13260896Y-16213650D02*
X13260896Y-16346984D01*
X13213277Y-16137460D02*
X13165658Y-16280317D01*
X13165658Y-16280317D02*
X13289467Y-16280317D01*
X13356134Y-16146984D02*
X13356134Y-16185079D01*
X13432325Y-16146984D02*
X13432325Y-16185079D01*
X13727563Y-16423174D02*
X13718039Y-16413650D01*
X13718039Y-16413650D02*
X13698991Y-16385079D01*
X13698991Y-16385079D02*
X13689468Y-16366031D01*
X13689468Y-16366031D02*
X13679944Y-16337460D01*
X13679944Y-16337460D02*
X13670420Y-16289841D01*
X13670420Y-16289841D02*
X13670420Y-16251746D01*
X13670420Y-16251746D02*
X13679944Y-16204127D01*
X13679944Y-16204127D02*
X13689468Y-16175555D01*
X13689468Y-16175555D02*
X13698991Y-16156508D01*
X13698991Y-16156508D02*
X13718039Y-16127936D01*
X13718039Y-16127936D02*
X13727563Y-16118412D01*
X13794229Y-16166031D02*
X13803753Y-16156508D01*
X13803753Y-16156508D02*
X13822801Y-16146984D01*
X13822801Y-16146984D02*
X13870420Y-16146984D01*
X13870420Y-16146984D02*
X13889468Y-16156508D01*
X13889468Y-16156508D02*
X13898991Y-16166031D01*
X13898991Y-16166031D02*
X13908515Y-16185079D01*
X13908515Y-16185079D02*
X13908515Y-16204127D01*
X13908515Y-16204127D02*
X13898991Y-16232698D01*
X13898991Y-16232698D02*
X13784706Y-16346984D01*
X13784706Y-16346984D02*
X13908515Y-16346984D01*
X14146610Y-16346984D02*
X14146610Y-16146984D01*
X14232325Y-16346984D02*
X14232325Y-16242222D01*
X14232325Y-16242222D02*
X14222801Y-16223174D01*
X14222801Y-16223174D02*
X14203753Y-16213650D01*
X14203753Y-16213650D02*
X14175182Y-16213650D01*
X14175182Y-16213650D02*
X14156134Y-16223174D01*
X14156134Y-16223174D02*
X14146610Y-16232698D01*
X14356134Y-16346984D02*
X14337087Y-16337460D01*
X14337087Y-16337460D02*
X14327563Y-16327936D01*
X14327563Y-16327936D02*
X14318039Y-16308888D01*
X14318039Y-16308888D02*
X14318039Y-16251746D01*
X14318039Y-16251746D02*
X14327563Y-16232698D01*
X14327563Y-16232698D02*
X14337087Y-16223174D01*
X14337087Y-16223174D02*
X14356134Y-16213650D01*
X14356134Y-16213650D02*
X14384706Y-16213650D01*
X14384706Y-16213650D02*
X14403753Y-16223174D01*
X14403753Y-16223174D02*
X14413277Y-16232698D01*
X14413277Y-16232698D02*
X14422801Y-16251746D01*
X14422801Y-16251746D02*
X14422801Y-16308888D01*
X14422801Y-16308888D02*
X14413277Y-16327936D01*
X14413277Y-16327936D02*
X14403753Y-16337460D01*
X14403753Y-16337460D02*
X14384706Y-16346984D01*
X14384706Y-16346984D02*
X14356134Y-16346984D01*
X14537087Y-16346984D02*
X14518039Y-16337460D01*
X14518039Y-16337460D02*
X14508515Y-16318412D01*
X14508515Y-16318412D02*
X14508515Y-16146984D01*
X14689468Y-16337460D02*
X14670420Y-16346984D01*
X14670420Y-16346984D02*
X14632325Y-16346984D01*
X14632325Y-16346984D02*
X14613277Y-16337460D01*
X14613277Y-16337460D02*
X14603753Y-16318412D01*
X14603753Y-16318412D02*
X14603753Y-16242222D01*
X14603753Y-16242222D02*
X14613277Y-16223174D01*
X14613277Y-16223174D02*
X14632325Y-16213650D01*
X14632325Y-16213650D02*
X14670420Y-16213650D01*
X14670420Y-16213650D02*
X14689468Y-16223174D01*
X14689468Y-16223174D02*
X14698991Y-16242222D01*
X14698991Y-16242222D02*
X14698991Y-16261269D01*
X14698991Y-16261269D02*
X14603753Y-16280317D01*
X14775182Y-16337460D02*
X14794230Y-16346984D01*
X14794230Y-16346984D02*
X14832325Y-16346984D01*
X14832325Y-16346984D02*
X14851372Y-16337460D01*
X14851372Y-16337460D02*
X14860896Y-16318412D01*
X14860896Y-16318412D02*
X14860896Y-16308888D01*
X14860896Y-16308888D02*
X14851372Y-16289841D01*
X14851372Y-16289841D02*
X14832325Y-16280317D01*
X14832325Y-16280317D02*
X14803753Y-16280317D01*
X14803753Y-16280317D02*
X14784706Y-16270793D01*
X14784706Y-16270793D02*
X14775182Y-16251746D01*
X14775182Y-16251746D02*
X14775182Y-16242222D01*
X14775182Y-16242222D02*
X14784706Y-16223174D01*
X14784706Y-16223174D02*
X14803753Y-16213650D01*
X14803753Y-16213650D02*
X14832325Y-16213650D01*
X14832325Y-16213650D02*
X14851372Y-16223174D01*
X14927563Y-16423174D02*
X14937087Y-16413650D01*
X14937087Y-16413650D02*
X14956134Y-16385079D01*
X14956134Y-16385079D02*
X14965658Y-16366031D01*
X14965658Y-16366031D02*
X14975182Y-16337460D01*
X14975182Y-16337460D02*
X14984706Y-16289841D01*
X14984706Y-16289841D02*
X14984706Y-16251746D01*
X14984706Y-16251746D02*
X14975182Y-16204127D01*
X14975182Y-16204127D02*
X14965658Y-16175555D01*
X14965658Y-16175555D02*
X14956134Y-16156508D01*
X14956134Y-16156508D02*
X14937087Y-16127936D01*
X14937087Y-16127936D02*
X14927563Y-16118412D01*
D12*
X10137856Y-16554856D02*
X10137856Y-16484144D01*
X10067144Y-16484144D01*
X10067144Y-16554856D01*
X10137856Y-16554856D01*
D11*
X10518039Y-16610984D02*
X10403753Y-16610984D01*
X10460896Y-16610984D02*
X10460896Y-16410984D01*
X10460896Y-16410984D02*
X10441848Y-16439555D01*
X10441848Y-16439555D02*
X10422801Y-16458603D01*
X10422801Y-16458603D02*
X10403753Y-16468127D01*
X10603753Y-16591936D02*
X10613277Y-16601460D01*
X10613277Y-16601460D02*
X10603753Y-16610984D01*
X10603753Y-16610984D02*
X10594229Y-16601460D01*
X10594229Y-16601460D02*
X10603753Y-16591936D01*
X10603753Y-16591936D02*
X10603753Y-16610984D01*
X10737086Y-16410984D02*
X10756134Y-16410984D01*
X10756134Y-16410984D02*
X10775182Y-16420508D01*
X10775182Y-16420508D02*
X10784705Y-16430031D01*
X10784705Y-16430031D02*
X10794229Y-16449079D01*
X10794229Y-16449079D02*
X10803753Y-16487174D01*
X10803753Y-16487174D02*
X10803753Y-16534793D01*
X10803753Y-16534793D02*
X10794229Y-16572888D01*
X10794229Y-16572888D02*
X10784705Y-16591936D01*
X10784705Y-16591936D02*
X10775182Y-16601460D01*
X10775182Y-16601460D02*
X10756134Y-16610984D01*
X10756134Y-16610984D02*
X10737086Y-16610984D01*
X10737086Y-16610984D02*
X10718039Y-16601460D01*
X10718039Y-16601460D02*
X10708515Y-16591936D01*
X10708515Y-16591936D02*
X10698991Y-16572888D01*
X10698991Y-16572888D02*
X10689467Y-16534793D01*
X10689467Y-16534793D02*
X10689467Y-16487174D01*
X10689467Y-16487174D02*
X10698991Y-16449079D01*
X10698991Y-16449079D02*
X10708515Y-16430031D01*
X10708515Y-16430031D02*
X10718039Y-16420508D01*
X10718039Y-16420508D02*
X10737086Y-16410984D01*
X10927563Y-16410984D02*
X10946610Y-16410984D01*
X10946610Y-16410984D02*
X10965658Y-16420508D01*
X10965658Y-16420508D02*
X10975182Y-16430031D01*
X10975182Y-16430031D02*
X10984705Y-16449079D01*
X10984705Y-16449079D02*
X10994229Y-16487174D01*
X10994229Y-16487174D02*
X10994229Y-16534793D01*
X10994229Y-16534793D02*
X10984705Y-16572888D01*
X10984705Y-16572888D02*
X10975182Y-16591936D01*
X10975182Y-16591936D02*
X10965658Y-16601460D01*
X10965658Y-16601460D02*
X10946610Y-16610984D01*
X10946610Y-16610984D02*
X10927563Y-16610984D01*
X10927563Y-16610984D02*
X10908515Y-16601460D01*
X10908515Y-16601460D02*
X10898991Y-16591936D01*
X10898991Y-16591936D02*
X10889467Y-16572888D01*
X10889467Y-16572888D02*
X10879944Y-16534793D01*
X10879944Y-16534793D02*
X10879944Y-16487174D01*
X10879944Y-16487174D02*
X10889467Y-16449079D01*
X10889467Y-16449079D02*
X10898991Y-16430031D01*
X10898991Y-16430031D02*
X10908515Y-16420508D01*
X10908515Y-16420508D02*
X10927563Y-16410984D01*
X11118039Y-16410984D02*
X11137086Y-16410984D01*
X11137086Y-16410984D02*
X11156134Y-16420508D01*
X11156134Y-16420508D02*
X11165658Y-16430031D01*
X11165658Y-16430031D02*
X11175182Y-16449079D01*
X11175182Y-16449079D02*
X11184705Y-16487174D01*
X11184705Y-16487174D02*
X11184705Y-16534793D01*
X11184705Y-16534793D02*
X11175182Y-16572888D01*
X11175182Y-16572888D02*
X11165658Y-16591936D01*
X11165658Y-16591936D02*
X11156134Y-16601460D01*
X11156134Y-16601460D02*
X11137086Y-16610984D01*
X11137086Y-16610984D02*
X11118039Y-16610984D01*
X11118039Y-16610984D02*
X11098991Y-16601460D01*
X11098991Y-16601460D02*
X11089467Y-16591936D01*
X11089467Y-16591936D02*
X11079944Y-16572888D01*
X11079944Y-16572888D02*
X11070420Y-16534793D01*
X11070420Y-16534793D02*
X11070420Y-16487174D01*
X11070420Y-16487174D02*
X11079944Y-16449079D01*
X11079944Y-16449079D02*
X11089467Y-16430031D01*
X11089467Y-16430031D02*
X11098991Y-16420508D01*
X11098991Y-16420508D02*
X11118039Y-16410984D01*
X11270420Y-16610984D02*
X11270420Y-16477650D01*
X11270420Y-16496698D02*
X11279943Y-16487174D01*
X11279943Y-16487174D02*
X11298991Y-16477650D01*
X11298991Y-16477650D02*
X11327563Y-16477650D01*
X11327563Y-16477650D02*
X11346610Y-16487174D01*
X11346610Y-16487174D02*
X11356134Y-16506222D01*
X11356134Y-16506222D02*
X11356134Y-16610984D01*
X11356134Y-16506222D02*
X11365658Y-16487174D01*
X11365658Y-16487174D02*
X11384705Y-16477650D01*
X11384705Y-16477650D02*
X11413277Y-16477650D01*
X11413277Y-16477650D02*
X11432324Y-16487174D01*
X11432324Y-16487174D02*
X11441848Y-16506222D01*
X11441848Y-16506222D02*
X11441848Y-16610984D01*
X11537086Y-16610984D02*
X11537086Y-16477650D01*
X11537086Y-16496698D02*
X11546610Y-16487174D01*
X11546610Y-16487174D02*
X11565658Y-16477650D01*
X11565658Y-16477650D02*
X11594229Y-16477650D01*
X11594229Y-16477650D02*
X11613277Y-16487174D01*
X11613277Y-16487174D02*
X11622801Y-16506222D01*
X11622801Y-16506222D02*
X11622801Y-16610984D01*
X11622801Y-16506222D02*
X11632324Y-16487174D01*
X11632324Y-16487174D02*
X11651372Y-16477650D01*
X11651372Y-16477650D02*
X11679943Y-16477650D01*
X11679943Y-16477650D02*
X11698991Y-16487174D01*
X11698991Y-16487174D02*
X11708515Y-16506222D01*
X11708515Y-16506222D02*
X11708515Y-16610984D01*
X12098991Y-16401460D02*
X11927563Y-16658603D01*
X12356134Y-16410984D02*
X12375182Y-16410984D01*
X12375182Y-16410984D02*
X12394229Y-16420508D01*
X12394229Y-16420508D02*
X12403753Y-16430031D01*
X12403753Y-16430031D02*
X12413277Y-16449079D01*
X12413277Y-16449079D02*
X12422801Y-16487174D01*
X12422801Y-16487174D02*
X12422801Y-16534793D01*
X12422801Y-16534793D02*
X12413277Y-16572888D01*
X12413277Y-16572888D02*
X12403753Y-16591936D01*
X12403753Y-16591936D02*
X12394229Y-16601460D01*
X12394229Y-16601460D02*
X12375182Y-16610984D01*
X12375182Y-16610984D02*
X12356134Y-16610984D01*
X12356134Y-16610984D02*
X12337086Y-16601460D01*
X12337086Y-16601460D02*
X12327563Y-16591936D01*
X12327563Y-16591936D02*
X12318039Y-16572888D01*
X12318039Y-16572888D02*
X12308515Y-16534793D01*
X12308515Y-16534793D02*
X12308515Y-16487174D01*
X12308515Y-16487174D02*
X12318039Y-16449079D01*
X12318039Y-16449079D02*
X12327563Y-16430031D01*
X12327563Y-16430031D02*
X12337086Y-16420508D01*
X12337086Y-16420508D02*
X12356134Y-16410984D01*
X12508515Y-16591936D02*
X12518039Y-16601460D01*
X12518039Y-16601460D02*
X12508515Y-16610984D01*
X12508515Y-16610984D02*
X12498991Y-16601460D01*
X12498991Y-16601460D02*
X12508515Y-16591936D01*
X12508515Y-16591936D02*
X12508515Y-16610984D01*
X12641848Y-16410984D02*
X12660896Y-16410984D01*
X12660896Y-16410984D02*
X12679944Y-16420508D01*
X12679944Y-16420508D02*
X12689467Y-16430031D01*
X12689467Y-16430031D02*
X12698991Y-16449079D01*
X12698991Y-16449079D02*
X12708515Y-16487174D01*
X12708515Y-16487174D02*
X12708515Y-16534793D01*
X12708515Y-16534793D02*
X12698991Y-16572888D01*
X12698991Y-16572888D02*
X12689467Y-16591936D01*
X12689467Y-16591936D02*
X12679944Y-16601460D01*
X12679944Y-16601460D02*
X12660896Y-16610984D01*
X12660896Y-16610984D02*
X12641848Y-16610984D01*
X12641848Y-16610984D02*
X12622801Y-16601460D01*
X12622801Y-16601460D02*
X12613277Y-16591936D01*
X12613277Y-16591936D02*
X12603753Y-16572888D01*
X12603753Y-16572888D02*
X12594229Y-16534793D01*
X12594229Y-16534793D02*
X12594229Y-16487174D01*
X12594229Y-16487174D02*
X12603753Y-16449079D01*
X12603753Y-16449079D02*
X12613277Y-16430031D01*
X12613277Y-16430031D02*
X12622801Y-16420508D01*
X12622801Y-16420508D02*
X12641848Y-16410984D01*
X12775182Y-16410984D02*
X12898991Y-16410984D01*
X12898991Y-16410984D02*
X12832325Y-16487174D01*
X12832325Y-16487174D02*
X12860896Y-16487174D01*
X12860896Y-16487174D02*
X12879944Y-16496698D01*
X12879944Y-16496698D02*
X12889467Y-16506222D01*
X12889467Y-16506222D02*
X12898991Y-16525269D01*
X12898991Y-16525269D02*
X12898991Y-16572888D01*
X12898991Y-16572888D02*
X12889467Y-16591936D01*
X12889467Y-16591936D02*
X12879944Y-16601460D01*
X12879944Y-16601460D02*
X12860896Y-16610984D01*
X12860896Y-16610984D02*
X12803753Y-16610984D01*
X12803753Y-16610984D02*
X12784706Y-16601460D01*
X12784706Y-16601460D02*
X12775182Y-16591936D01*
X12994229Y-16610984D02*
X13032325Y-16610984D01*
X13032325Y-16610984D02*
X13051372Y-16601460D01*
X13051372Y-16601460D02*
X13060896Y-16591936D01*
X13060896Y-16591936D02*
X13079944Y-16563365D01*
X13079944Y-16563365D02*
X13089467Y-16525269D01*
X13089467Y-16525269D02*
X13089467Y-16449079D01*
X13089467Y-16449079D02*
X13079944Y-16430031D01*
X13079944Y-16430031D02*
X13070420Y-16420508D01*
X13070420Y-16420508D02*
X13051372Y-16410984D01*
X13051372Y-16410984D02*
X13013277Y-16410984D01*
X13013277Y-16410984D02*
X12994229Y-16420508D01*
X12994229Y-16420508D02*
X12984706Y-16430031D01*
X12984706Y-16430031D02*
X12975182Y-16449079D01*
X12975182Y-16449079D02*
X12975182Y-16496698D01*
X12975182Y-16496698D02*
X12984706Y-16515746D01*
X12984706Y-16515746D02*
X12994229Y-16525269D01*
X12994229Y-16525269D02*
X13013277Y-16534793D01*
X13013277Y-16534793D02*
X13051372Y-16534793D01*
X13051372Y-16534793D02*
X13070420Y-16525269D01*
X13070420Y-16525269D02*
X13079944Y-16515746D01*
X13079944Y-16515746D02*
X13089467Y-16496698D01*
X13260896Y-16477650D02*
X13260896Y-16610984D01*
X13213277Y-16401460D02*
X13165658Y-16544317D01*
X13165658Y-16544317D02*
X13289467Y-16544317D01*
X13356134Y-16410984D02*
X13356134Y-16449079D01*
X13432325Y-16410984D02*
X13432325Y-16449079D01*
X13727563Y-16687174D02*
X13718039Y-16677650D01*
X13718039Y-16677650D02*
X13698991Y-16649079D01*
X13698991Y-16649079D02*
X13689468Y-16630031D01*
X13689468Y-16630031D02*
X13679944Y-16601460D01*
X13679944Y-16601460D02*
X13670420Y-16553841D01*
X13670420Y-16553841D02*
X13670420Y-16515746D01*
X13670420Y-16515746D02*
X13679944Y-16468127D01*
X13679944Y-16468127D02*
X13689468Y-16439555D01*
X13689468Y-16439555D02*
X13698991Y-16420508D01*
X13698991Y-16420508D02*
X13718039Y-16391936D01*
X13718039Y-16391936D02*
X13727563Y-16382412D01*
X13832325Y-16496698D02*
X13813277Y-16487174D01*
X13813277Y-16487174D02*
X13803753Y-16477650D01*
X13803753Y-16477650D02*
X13794229Y-16458603D01*
X13794229Y-16458603D02*
X13794229Y-16449079D01*
X13794229Y-16449079D02*
X13803753Y-16430031D01*
X13803753Y-16430031D02*
X13813277Y-16420508D01*
X13813277Y-16420508D02*
X13832325Y-16410984D01*
X13832325Y-16410984D02*
X13870420Y-16410984D01*
X13870420Y-16410984D02*
X13889468Y-16420508D01*
X13889468Y-16420508D02*
X13898991Y-16430031D01*
X13898991Y-16430031D02*
X13908515Y-16449079D01*
X13908515Y-16449079D02*
X13908515Y-16458603D01*
X13908515Y-16458603D02*
X13898991Y-16477650D01*
X13898991Y-16477650D02*
X13889468Y-16487174D01*
X13889468Y-16487174D02*
X13870420Y-16496698D01*
X13870420Y-16496698D02*
X13832325Y-16496698D01*
X13832325Y-16496698D02*
X13813277Y-16506222D01*
X13813277Y-16506222D02*
X13803753Y-16515746D01*
X13803753Y-16515746D02*
X13794229Y-16534793D01*
X13794229Y-16534793D02*
X13794229Y-16572888D01*
X13794229Y-16572888D02*
X13803753Y-16591936D01*
X13803753Y-16591936D02*
X13813277Y-16601460D01*
X13813277Y-16601460D02*
X13832325Y-16610984D01*
X13832325Y-16610984D02*
X13870420Y-16610984D01*
X13870420Y-16610984D02*
X13889468Y-16601460D01*
X13889468Y-16601460D02*
X13898991Y-16591936D01*
X13898991Y-16591936D02*
X13908515Y-16572888D01*
X13908515Y-16572888D02*
X13908515Y-16534793D01*
X13908515Y-16534793D02*
X13898991Y-16515746D01*
X13898991Y-16515746D02*
X13889468Y-16506222D01*
X13889468Y-16506222D02*
X13870420Y-16496698D01*
X14146610Y-16610984D02*
X14146610Y-16410984D01*
X14232325Y-16610984D02*
X14232325Y-16506222D01*
X14232325Y-16506222D02*
X14222801Y-16487174D01*
X14222801Y-16487174D02*
X14203753Y-16477650D01*
X14203753Y-16477650D02*
X14175182Y-16477650D01*
X14175182Y-16477650D02*
X14156134Y-16487174D01*
X14156134Y-16487174D02*
X14146610Y-16496698D01*
X14356134Y-16610984D02*
X14337087Y-16601460D01*
X14337087Y-16601460D02*
X14327563Y-16591936D01*
X14327563Y-16591936D02*
X14318039Y-16572888D01*
X14318039Y-16572888D02*
X14318039Y-16515746D01*
X14318039Y-16515746D02*
X14327563Y-16496698D01*
X14327563Y-16496698D02*
X14337087Y-16487174D01*
X14337087Y-16487174D02*
X14356134Y-16477650D01*
X14356134Y-16477650D02*
X14384706Y-16477650D01*
X14384706Y-16477650D02*
X14403753Y-16487174D01*
X14403753Y-16487174D02*
X14413277Y-16496698D01*
X14413277Y-16496698D02*
X14422801Y-16515746D01*
X14422801Y-16515746D02*
X14422801Y-16572888D01*
X14422801Y-16572888D02*
X14413277Y-16591936D01*
X14413277Y-16591936D02*
X14403753Y-16601460D01*
X14403753Y-16601460D02*
X14384706Y-16610984D01*
X14384706Y-16610984D02*
X14356134Y-16610984D01*
X14537087Y-16610984D02*
X14518039Y-16601460D01*
X14518039Y-16601460D02*
X14508515Y-16582412D01*
X14508515Y-16582412D02*
X14508515Y-16410984D01*
X14689468Y-16601460D02*
X14670420Y-16610984D01*
X14670420Y-16610984D02*
X14632325Y-16610984D01*
X14632325Y-16610984D02*
X14613277Y-16601460D01*
X14613277Y-16601460D02*
X14603753Y-16582412D01*
X14603753Y-16582412D02*
X14603753Y-16506222D01*
X14603753Y-16506222D02*
X14613277Y-16487174D01*
X14613277Y-16487174D02*
X14632325Y-16477650D01*
X14632325Y-16477650D02*
X14670420Y-16477650D01*
X14670420Y-16477650D02*
X14689468Y-16487174D01*
X14689468Y-16487174D02*
X14698991Y-16506222D01*
X14698991Y-16506222D02*
X14698991Y-16525269D01*
X14698991Y-16525269D02*
X14603753Y-16544317D01*
X14775182Y-16601460D02*
X14794230Y-16610984D01*
X14794230Y-16610984D02*
X14832325Y-16610984D01*
X14832325Y-16610984D02*
X14851372Y-16601460D01*
X14851372Y-16601460D02*
X14860896Y-16582412D01*
X14860896Y-16582412D02*
X14860896Y-16572888D01*
X14860896Y-16572888D02*
X14851372Y-16553841D01*
X14851372Y-16553841D02*
X14832325Y-16544317D01*
X14832325Y-16544317D02*
X14803753Y-16544317D01*
X14803753Y-16544317D02*
X14784706Y-16534793D01*
X14784706Y-16534793D02*
X14775182Y-16515746D01*
X14775182Y-16515746D02*
X14775182Y-16506222D01*
X14775182Y-16506222D02*
X14784706Y-16487174D01*
X14784706Y-16487174D02*
X14803753Y-16477650D01*
X14803753Y-16477650D02*
X14832325Y-16477650D01*
X14832325Y-16477650D02*
X14851372Y-16487174D01*
X14927563Y-16687174D02*
X14937087Y-16677650D01*
X14937087Y-16677650D02*
X14956134Y-16649079D01*
X14956134Y-16649079D02*
X14965658Y-16630031D01*
X14965658Y-16630031D02*
X14975182Y-16601460D01*
X14975182Y-16601460D02*
X14984706Y-16553841D01*
X14984706Y-16553841D02*
X14984706Y-16515746D01*
X14984706Y-16515746D02*
X14975182Y-16468127D01*
X14975182Y-16468127D02*
X14965658Y-16439555D01*
X14965658Y-16439555D02*
X14956134Y-16420508D01*
X14956134Y-16420508D02*
X14937087Y-16391936D01*
X14937087Y-16391936D02*
X14927563Y-16382412D01*
D13*
X10101700Y-16834300D02*
X10152500Y-16783500D01*
X10101700Y-16732700D01*
X10050900Y-16783500D01*
X10101700Y-16834300D01*
D11*
X10518039Y-16874984D02*
X10403753Y-16874984D01*
X10460896Y-16874984D02*
X10460896Y-16674984D01*
X10460896Y-16674984D02*
X10441848Y-16703555D01*
X10441848Y-16703555D02*
X10422801Y-16722603D01*
X10422801Y-16722603D02*
X10403753Y-16732127D01*
X10603753Y-16855936D02*
X10613277Y-16865460D01*
X10613277Y-16865460D02*
X10603753Y-16874984D01*
X10603753Y-16874984D02*
X10594229Y-16865460D01*
X10594229Y-16865460D02*
X10603753Y-16855936D01*
X10603753Y-16855936D02*
X10603753Y-16874984D01*
X10737086Y-16674984D02*
X10756134Y-16674984D01*
X10756134Y-16674984D02*
X10775182Y-16684508D01*
X10775182Y-16684508D02*
X10784705Y-16694031D01*
X10784705Y-16694031D02*
X10794229Y-16713079D01*
X10794229Y-16713079D02*
X10803753Y-16751174D01*
X10803753Y-16751174D02*
X10803753Y-16798793D01*
X10803753Y-16798793D02*
X10794229Y-16836889D01*
X10794229Y-16836889D02*
X10784705Y-16855936D01*
X10784705Y-16855936D02*
X10775182Y-16865460D01*
X10775182Y-16865460D02*
X10756134Y-16874984D01*
X10756134Y-16874984D02*
X10737086Y-16874984D01*
X10737086Y-16874984D02*
X10718039Y-16865460D01*
X10718039Y-16865460D02*
X10708515Y-16855936D01*
X10708515Y-16855936D02*
X10698991Y-16836889D01*
X10698991Y-16836889D02*
X10689467Y-16798793D01*
X10689467Y-16798793D02*
X10689467Y-16751174D01*
X10689467Y-16751174D02*
X10698991Y-16713079D01*
X10698991Y-16713079D02*
X10708515Y-16694031D01*
X10708515Y-16694031D02*
X10718039Y-16684508D01*
X10718039Y-16684508D02*
X10737086Y-16674984D01*
X10994229Y-16874984D02*
X10879944Y-16874984D01*
X10937086Y-16874984D02*
X10937086Y-16674984D01*
X10937086Y-16674984D02*
X10918039Y-16703555D01*
X10918039Y-16703555D02*
X10898991Y-16722603D01*
X10898991Y-16722603D02*
X10879944Y-16732127D01*
X11165658Y-16674984D02*
X11127563Y-16674984D01*
X11127563Y-16674984D02*
X11108515Y-16684508D01*
X11108515Y-16684508D02*
X11098991Y-16694031D01*
X11098991Y-16694031D02*
X11079944Y-16722603D01*
X11079944Y-16722603D02*
X11070420Y-16760698D01*
X11070420Y-16760698D02*
X11070420Y-16836889D01*
X11070420Y-16836889D02*
X11079944Y-16855936D01*
X11079944Y-16855936D02*
X11089467Y-16865460D01*
X11089467Y-16865460D02*
X11108515Y-16874984D01*
X11108515Y-16874984D02*
X11146610Y-16874984D01*
X11146610Y-16874984D02*
X11165658Y-16865460D01*
X11165658Y-16865460D02*
X11175182Y-16855936D01*
X11175182Y-16855936D02*
X11184705Y-16836889D01*
X11184705Y-16836889D02*
X11184705Y-16789270D01*
X11184705Y-16789270D02*
X11175182Y-16770222D01*
X11175182Y-16770222D02*
X11165658Y-16760698D01*
X11165658Y-16760698D02*
X11146610Y-16751174D01*
X11146610Y-16751174D02*
X11108515Y-16751174D01*
X11108515Y-16751174D02*
X11089467Y-16760698D01*
X11089467Y-16760698D02*
X11079944Y-16770222D01*
X11079944Y-16770222D02*
X11070420Y-16789270D01*
X11270420Y-16874984D02*
X11270420Y-16741650D01*
X11270420Y-16760698D02*
X11279943Y-16751174D01*
X11279943Y-16751174D02*
X11298991Y-16741650D01*
X11298991Y-16741650D02*
X11327563Y-16741650D01*
X11327563Y-16741650D02*
X11346610Y-16751174D01*
X11346610Y-16751174D02*
X11356134Y-16770222D01*
X11356134Y-16770222D02*
X11356134Y-16874984D01*
X11356134Y-16770222D02*
X11365658Y-16751174D01*
X11365658Y-16751174D02*
X11384705Y-16741650D01*
X11384705Y-16741650D02*
X11413277Y-16741650D01*
X11413277Y-16741650D02*
X11432324Y-16751174D01*
X11432324Y-16751174D02*
X11441848Y-16770222D01*
X11441848Y-16770222D02*
X11441848Y-16874984D01*
X11537086Y-16874984D02*
X11537086Y-16741650D01*
X11537086Y-16760698D02*
X11546610Y-16751174D01*
X11546610Y-16751174D02*
X11565658Y-16741650D01*
X11565658Y-16741650D02*
X11594229Y-16741650D01*
X11594229Y-16741650D02*
X11613277Y-16751174D01*
X11613277Y-16751174D02*
X11622801Y-16770222D01*
X11622801Y-16770222D02*
X11622801Y-16874984D01*
X11622801Y-16770222D02*
X11632324Y-16751174D01*
X11632324Y-16751174D02*
X11651372Y-16741650D01*
X11651372Y-16741650D02*
X11679943Y-16741650D01*
X11679943Y-16741650D02*
X11698991Y-16751174D01*
X11698991Y-16751174D02*
X11708515Y-16770222D01*
X11708515Y-16770222D02*
X11708515Y-16874984D01*
X12098991Y-16665460D02*
X11927563Y-16922603D01*
X12356134Y-16674984D02*
X12375182Y-16674984D01*
X12375182Y-16674984D02*
X12394229Y-16684508D01*
X12394229Y-16684508D02*
X12403753Y-16694031D01*
X12403753Y-16694031D02*
X12413277Y-16713079D01*
X12413277Y-16713079D02*
X12422801Y-16751174D01*
X12422801Y-16751174D02*
X12422801Y-16798793D01*
X12422801Y-16798793D02*
X12413277Y-16836889D01*
X12413277Y-16836889D02*
X12403753Y-16855936D01*
X12403753Y-16855936D02*
X12394229Y-16865460D01*
X12394229Y-16865460D02*
X12375182Y-16874984D01*
X12375182Y-16874984D02*
X12356134Y-16874984D01*
X12356134Y-16874984D02*
X12337086Y-16865460D01*
X12337086Y-16865460D02*
X12327563Y-16855936D01*
X12327563Y-16855936D02*
X12318039Y-16836889D01*
X12318039Y-16836889D02*
X12308515Y-16798793D01*
X12308515Y-16798793D02*
X12308515Y-16751174D01*
X12308515Y-16751174D02*
X12318039Y-16713079D01*
X12318039Y-16713079D02*
X12327563Y-16694031D01*
X12327563Y-16694031D02*
X12337086Y-16684508D01*
X12337086Y-16684508D02*
X12356134Y-16674984D01*
X12508515Y-16855936D02*
X12518039Y-16865460D01*
X12518039Y-16865460D02*
X12508515Y-16874984D01*
X12508515Y-16874984D02*
X12498991Y-16865460D01*
X12498991Y-16865460D02*
X12508515Y-16855936D01*
X12508515Y-16855936D02*
X12508515Y-16874984D01*
X12641848Y-16674984D02*
X12660896Y-16674984D01*
X12660896Y-16674984D02*
X12679944Y-16684508D01*
X12679944Y-16684508D02*
X12689467Y-16694031D01*
X12689467Y-16694031D02*
X12698991Y-16713079D01*
X12698991Y-16713079D02*
X12708515Y-16751174D01*
X12708515Y-16751174D02*
X12708515Y-16798793D01*
X12708515Y-16798793D02*
X12698991Y-16836889D01*
X12698991Y-16836889D02*
X12689467Y-16855936D01*
X12689467Y-16855936D02*
X12679944Y-16865460D01*
X12679944Y-16865460D02*
X12660896Y-16874984D01*
X12660896Y-16874984D02*
X12641848Y-16874984D01*
X12641848Y-16874984D02*
X12622801Y-16865460D01*
X12622801Y-16865460D02*
X12613277Y-16855936D01*
X12613277Y-16855936D02*
X12603753Y-16836889D01*
X12603753Y-16836889D02*
X12594229Y-16798793D01*
X12594229Y-16798793D02*
X12594229Y-16751174D01*
X12594229Y-16751174D02*
X12603753Y-16713079D01*
X12603753Y-16713079D02*
X12613277Y-16694031D01*
X12613277Y-16694031D02*
X12622801Y-16684508D01*
X12622801Y-16684508D02*
X12641848Y-16674984D01*
X12879944Y-16741650D02*
X12879944Y-16874984D01*
X12832325Y-16665460D02*
X12784706Y-16808317D01*
X12784706Y-16808317D02*
X12908515Y-16808317D01*
X13022801Y-16674984D02*
X13041848Y-16674984D01*
X13041848Y-16674984D02*
X13060896Y-16684508D01*
X13060896Y-16684508D02*
X13070420Y-16694031D01*
X13070420Y-16694031D02*
X13079944Y-16713079D01*
X13079944Y-16713079D02*
X13089467Y-16751174D01*
X13089467Y-16751174D02*
X13089467Y-16798793D01*
X13089467Y-16798793D02*
X13079944Y-16836889D01*
X13079944Y-16836889D02*
X13070420Y-16855936D01*
X13070420Y-16855936D02*
X13060896Y-16865460D01*
X13060896Y-16865460D02*
X13041848Y-16874984D01*
X13041848Y-16874984D02*
X13022801Y-16874984D01*
X13022801Y-16874984D02*
X13003753Y-16865460D01*
X13003753Y-16865460D02*
X12994229Y-16855936D01*
X12994229Y-16855936D02*
X12984706Y-16836889D01*
X12984706Y-16836889D02*
X12975182Y-16798793D01*
X12975182Y-16798793D02*
X12975182Y-16751174D01*
X12975182Y-16751174D02*
X12984706Y-16713079D01*
X12984706Y-16713079D02*
X12994229Y-16694031D01*
X12994229Y-16694031D02*
X13003753Y-16684508D01*
X13003753Y-16684508D02*
X13022801Y-16674984D01*
X13213277Y-16674984D02*
X13232325Y-16674984D01*
X13232325Y-16674984D02*
X13251372Y-16684508D01*
X13251372Y-16684508D02*
X13260896Y-16694031D01*
X13260896Y-16694031D02*
X13270420Y-16713079D01*
X13270420Y-16713079D02*
X13279944Y-16751174D01*
X13279944Y-16751174D02*
X13279944Y-16798793D01*
X13279944Y-16798793D02*
X13270420Y-16836889D01*
X13270420Y-16836889D02*
X13260896Y-16855936D01*
X13260896Y-16855936D02*
X13251372Y-16865460D01*
X13251372Y-16865460D02*
X13232325Y-16874984D01*
X13232325Y-16874984D02*
X13213277Y-16874984D01*
X13213277Y-16874984D02*
X13194229Y-16865460D01*
X13194229Y-16865460D02*
X13184706Y-16855936D01*
X13184706Y-16855936D02*
X13175182Y-16836889D01*
X13175182Y-16836889D02*
X13165658Y-16798793D01*
X13165658Y-16798793D02*
X13165658Y-16751174D01*
X13165658Y-16751174D02*
X13175182Y-16713079D01*
X13175182Y-16713079D02*
X13184706Y-16694031D01*
X13184706Y-16694031D02*
X13194229Y-16684508D01*
X13194229Y-16684508D02*
X13213277Y-16674984D01*
X13356134Y-16674984D02*
X13356134Y-16713079D01*
X13432325Y-16674984D02*
X13432325Y-16713079D01*
X13727563Y-16951174D02*
X13718039Y-16941650D01*
X13718039Y-16941650D02*
X13698991Y-16913079D01*
X13698991Y-16913079D02*
X13689468Y-16894031D01*
X13689468Y-16894031D02*
X13679944Y-16865460D01*
X13679944Y-16865460D02*
X13670420Y-16817841D01*
X13670420Y-16817841D02*
X13670420Y-16779746D01*
X13670420Y-16779746D02*
X13679944Y-16732127D01*
X13679944Y-16732127D02*
X13689468Y-16703555D01*
X13689468Y-16703555D02*
X13698991Y-16684508D01*
X13698991Y-16684508D02*
X13718039Y-16655936D01*
X13718039Y-16655936D02*
X13727563Y-16646412D01*
X13908515Y-16874984D02*
X13794229Y-16874984D01*
X13851372Y-16874984D02*
X13851372Y-16674984D01*
X13851372Y-16674984D02*
X13832325Y-16703555D01*
X13832325Y-16703555D02*
X13813277Y-16722603D01*
X13813277Y-16722603D02*
X13794229Y-16732127D01*
X14079944Y-16674984D02*
X14041848Y-16674984D01*
X14041848Y-16674984D02*
X14022801Y-16684508D01*
X14022801Y-16684508D02*
X14013277Y-16694031D01*
X14013277Y-16694031D02*
X13994229Y-16722603D01*
X13994229Y-16722603D02*
X13984706Y-16760698D01*
X13984706Y-16760698D02*
X13984706Y-16836889D01*
X13984706Y-16836889D02*
X13994229Y-16855936D01*
X13994229Y-16855936D02*
X14003753Y-16865460D01*
X14003753Y-16865460D02*
X14022801Y-16874984D01*
X14022801Y-16874984D02*
X14060896Y-16874984D01*
X14060896Y-16874984D02*
X14079944Y-16865460D01*
X14079944Y-16865460D02*
X14089468Y-16855936D01*
X14089468Y-16855936D02*
X14098991Y-16836889D01*
X14098991Y-16836889D02*
X14098991Y-16789270D01*
X14098991Y-16789270D02*
X14089468Y-16770222D01*
X14089468Y-16770222D02*
X14079944Y-16760698D01*
X14079944Y-16760698D02*
X14060896Y-16751174D01*
X14060896Y-16751174D02*
X14022801Y-16751174D01*
X14022801Y-16751174D02*
X14003753Y-16760698D01*
X14003753Y-16760698D02*
X13994229Y-16770222D01*
X13994229Y-16770222D02*
X13984706Y-16789270D01*
X14213277Y-16760698D02*
X14194229Y-16751174D01*
X14194229Y-16751174D02*
X14184706Y-16741650D01*
X14184706Y-16741650D02*
X14175182Y-16722603D01*
X14175182Y-16722603D02*
X14175182Y-16713079D01*
X14175182Y-16713079D02*
X14184706Y-16694031D01*
X14184706Y-16694031D02*
X14194229Y-16684508D01*
X14194229Y-16684508D02*
X14213277Y-16674984D01*
X14213277Y-16674984D02*
X14251372Y-16674984D01*
X14251372Y-16674984D02*
X14270420Y-16684508D01*
X14270420Y-16684508D02*
X14279944Y-16694031D01*
X14279944Y-16694031D02*
X14289468Y-16713079D01*
X14289468Y-16713079D02*
X14289468Y-16722603D01*
X14289468Y-16722603D02*
X14279944Y-16741650D01*
X14279944Y-16741650D02*
X14270420Y-16751174D01*
X14270420Y-16751174D02*
X14251372Y-16760698D01*
X14251372Y-16760698D02*
X14213277Y-16760698D01*
X14213277Y-16760698D02*
X14194229Y-16770222D01*
X14194229Y-16770222D02*
X14184706Y-16779746D01*
X14184706Y-16779746D02*
X14175182Y-16798793D01*
X14175182Y-16798793D02*
X14175182Y-16836889D01*
X14175182Y-16836889D02*
X14184706Y-16855936D01*
X14184706Y-16855936D02*
X14194229Y-16865460D01*
X14194229Y-16865460D02*
X14213277Y-16874984D01*
X14213277Y-16874984D02*
X14251372Y-16874984D01*
X14251372Y-16874984D02*
X14270420Y-16865460D01*
X14270420Y-16865460D02*
X14279944Y-16855936D01*
X14279944Y-16855936D02*
X14289468Y-16836889D01*
X14289468Y-16836889D02*
X14289468Y-16798793D01*
X14289468Y-16798793D02*
X14279944Y-16779746D01*
X14279944Y-16779746D02*
X14270420Y-16770222D01*
X14270420Y-16770222D02*
X14251372Y-16760698D01*
X14527563Y-16874984D02*
X14527563Y-16674984D01*
X14613277Y-16874984D02*
X14613277Y-16770222D01*
X14613277Y-16770222D02*
X14603753Y-16751174D01*
X14603753Y-16751174D02*
X14584706Y-16741650D01*
X14584706Y-16741650D02*
X14556134Y-16741650D01*
X14556134Y-16741650D02*
X14537087Y-16751174D01*
X14537087Y-16751174D02*
X14527563Y-16760698D01*
X14737087Y-16874984D02*
X14718039Y-16865460D01*
X14718039Y-16865460D02*
X14708515Y-16855936D01*
X14708515Y-16855936D02*
X14698991Y-16836889D01*
X14698991Y-16836889D02*
X14698991Y-16779746D01*
X14698991Y-16779746D02*
X14708515Y-16760698D01*
X14708515Y-16760698D02*
X14718039Y-16751174D01*
X14718039Y-16751174D02*
X14737087Y-16741650D01*
X14737087Y-16741650D02*
X14765658Y-16741650D01*
X14765658Y-16741650D02*
X14784706Y-16751174D01*
X14784706Y-16751174D02*
X14794230Y-16760698D01*
X14794230Y-16760698D02*
X14803753Y-16779746D01*
X14803753Y-16779746D02*
X14803753Y-16836889D01*
X14803753Y-16836889D02*
X14794230Y-16855936D01*
X14794230Y-16855936D02*
X14784706Y-16865460D01*
X14784706Y-16865460D02*
X14765658Y-16874984D01*
X14765658Y-16874984D02*
X14737087Y-16874984D01*
X14918039Y-16874984D02*
X14898991Y-16865460D01*
X14898991Y-16865460D02*
X14889468Y-16846412D01*
X14889468Y-16846412D02*
X14889468Y-16674984D01*
X15070420Y-16865460D02*
X15051372Y-16874984D01*
X15051372Y-16874984D02*
X15013277Y-16874984D01*
X15013277Y-16874984D02*
X14994230Y-16865460D01*
X14994230Y-16865460D02*
X14984706Y-16846412D01*
X14984706Y-16846412D02*
X14984706Y-16770222D01*
X14984706Y-16770222D02*
X14994230Y-16751174D01*
X14994230Y-16751174D02*
X15013277Y-16741650D01*
X15013277Y-16741650D02*
X15051372Y-16741650D01*
X15051372Y-16741650D02*
X15070420Y-16751174D01*
X15070420Y-16751174D02*
X15079944Y-16770222D01*
X15079944Y-16770222D02*
X15079944Y-16789270D01*
X15079944Y-16789270D02*
X14984706Y-16808317D01*
X15156134Y-16865460D02*
X15175182Y-16874984D01*
X15175182Y-16874984D02*
X15213277Y-16874984D01*
X15213277Y-16874984D02*
X15232325Y-16865460D01*
X15232325Y-16865460D02*
X15241849Y-16846412D01*
X15241849Y-16846412D02*
X15241849Y-16836889D01*
X15241849Y-16836889D02*
X15232325Y-16817841D01*
X15232325Y-16817841D02*
X15213277Y-16808317D01*
X15213277Y-16808317D02*
X15184706Y-16808317D01*
X15184706Y-16808317D02*
X15165658Y-16798793D01*
X15165658Y-16798793D02*
X15156134Y-16779746D01*
X15156134Y-16779746D02*
X15156134Y-16770222D01*
X15156134Y-16770222D02*
X15165658Y-16751174D01*
X15165658Y-16751174D02*
X15184706Y-16741650D01*
X15184706Y-16741650D02*
X15213277Y-16741650D01*
X15213277Y-16741650D02*
X15232325Y-16751174D01*
X15308515Y-16951174D02*
X15318039Y-16941650D01*
X15318039Y-16941650D02*
X15337087Y-16913079D01*
X15337087Y-16913079D02*
X15346611Y-16894031D01*
X15346611Y-16894031D02*
X15356134Y-16865460D01*
X15356134Y-16865460D02*
X15365658Y-16817841D01*
X15365658Y-16817841D02*
X15365658Y-16779746D01*
X15365658Y-16779746D02*
X15356134Y-16732127D01*
X15356134Y-16732127D02*
X15346611Y-16703555D01*
X15346611Y-16703555D02*
X15337087Y-16684508D01*
X15337087Y-16684508D02*
X15318039Y-16655936D01*
X15318039Y-16655936D02*
X15308515Y-16646412D01*
D14*
X10050500Y-16996500D02*
X10152500Y-17098500D01*
X10152500Y-16996500D02*
X10050500Y-17098500D01*
X10152500Y-17047500D02*
G75*
G03*
X10050500Y-17047500I-51000J0D01*
G01*
X10050500Y-17047500D02*
G75*
G03*
X10152500Y-17047500I51000J0D01*
G01*
D11*
X10518039Y-17138984D02*
X10403753Y-17138984D01*
X10460896Y-17138984D02*
X10460896Y-16938984D01*
X10460896Y-16938984D02*
X10441848Y-16967555D01*
X10441848Y-16967555D02*
X10422801Y-16986603D01*
X10422801Y-16986603D02*
X10403753Y-16996127D01*
X10603753Y-17119936D02*
X10613277Y-17129460D01*
X10613277Y-17129460D02*
X10603753Y-17138984D01*
X10603753Y-17138984D02*
X10594229Y-17129460D01*
X10594229Y-17129460D02*
X10603753Y-17119936D01*
X10603753Y-17119936D02*
X10603753Y-17138984D01*
X10737086Y-16938984D02*
X10756134Y-16938984D01*
X10756134Y-16938984D02*
X10775182Y-16948508D01*
X10775182Y-16948508D02*
X10784705Y-16958031D01*
X10784705Y-16958031D02*
X10794229Y-16977079D01*
X10794229Y-16977079D02*
X10803753Y-17015174D01*
X10803753Y-17015174D02*
X10803753Y-17062793D01*
X10803753Y-17062793D02*
X10794229Y-17100889D01*
X10794229Y-17100889D02*
X10784705Y-17119936D01*
X10784705Y-17119936D02*
X10775182Y-17129460D01*
X10775182Y-17129460D02*
X10756134Y-17138984D01*
X10756134Y-17138984D02*
X10737086Y-17138984D01*
X10737086Y-17138984D02*
X10718039Y-17129460D01*
X10718039Y-17129460D02*
X10708515Y-17119936D01*
X10708515Y-17119936D02*
X10698991Y-17100889D01*
X10698991Y-17100889D02*
X10689467Y-17062793D01*
X10689467Y-17062793D02*
X10689467Y-17015174D01*
X10689467Y-17015174D02*
X10698991Y-16977079D01*
X10698991Y-16977079D02*
X10708515Y-16958031D01*
X10708515Y-16958031D02*
X10718039Y-16948508D01*
X10718039Y-16948508D02*
X10737086Y-16938984D01*
X10879944Y-16958031D02*
X10889467Y-16948508D01*
X10889467Y-16948508D02*
X10908515Y-16938984D01*
X10908515Y-16938984D02*
X10956134Y-16938984D01*
X10956134Y-16938984D02*
X10975182Y-16948508D01*
X10975182Y-16948508D02*
X10984705Y-16958031D01*
X10984705Y-16958031D02*
X10994229Y-16977079D01*
X10994229Y-16977079D02*
X10994229Y-16996127D01*
X10994229Y-16996127D02*
X10984705Y-17024698D01*
X10984705Y-17024698D02*
X10870420Y-17138984D01*
X10870420Y-17138984D02*
X10994229Y-17138984D01*
X11118039Y-16938984D02*
X11137086Y-16938984D01*
X11137086Y-16938984D02*
X11156134Y-16948508D01*
X11156134Y-16948508D02*
X11165658Y-16958031D01*
X11165658Y-16958031D02*
X11175182Y-16977079D01*
X11175182Y-16977079D02*
X11184705Y-17015174D01*
X11184705Y-17015174D02*
X11184705Y-17062793D01*
X11184705Y-17062793D02*
X11175182Y-17100889D01*
X11175182Y-17100889D02*
X11165658Y-17119936D01*
X11165658Y-17119936D02*
X11156134Y-17129460D01*
X11156134Y-17129460D02*
X11137086Y-17138984D01*
X11137086Y-17138984D02*
X11118039Y-17138984D01*
X11118039Y-17138984D02*
X11098991Y-17129460D01*
X11098991Y-17129460D02*
X11089467Y-17119936D01*
X11089467Y-17119936D02*
X11079944Y-17100889D01*
X11079944Y-17100889D02*
X11070420Y-17062793D01*
X11070420Y-17062793D02*
X11070420Y-17015174D01*
X11070420Y-17015174D02*
X11079944Y-16977079D01*
X11079944Y-16977079D02*
X11089467Y-16958031D01*
X11089467Y-16958031D02*
X11098991Y-16948508D01*
X11098991Y-16948508D02*
X11118039Y-16938984D01*
X11270420Y-17138984D02*
X11270420Y-17005650D01*
X11270420Y-17024698D02*
X11279943Y-17015174D01*
X11279943Y-17015174D02*
X11298991Y-17005650D01*
X11298991Y-17005650D02*
X11327563Y-17005650D01*
X11327563Y-17005650D02*
X11346610Y-17015174D01*
X11346610Y-17015174D02*
X11356134Y-17034222D01*
X11356134Y-17034222D02*
X11356134Y-17138984D01*
X11356134Y-17034222D02*
X11365658Y-17015174D01*
X11365658Y-17015174D02*
X11384705Y-17005650D01*
X11384705Y-17005650D02*
X11413277Y-17005650D01*
X11413277Y-17005650D02*
X11432324Y-17015174D01*
X11432324Y-17015174D02*
X11441848Y-17034222D01*
X11441848Y-17034222D02*
X11441848Y-17138984D01*
X11537086Y-17138984D02*
X11537086Y-17005650D01*
X11537086Y-17024698D02*
X11546610Y-17015174D01*
X11546610Y-17015174D02*
X11565658Y-17005650D01*
X11565658Y-17005650D02*
X11594229Y-17005650D01*
X11594229Y-17005650D02*
X11613277Y-17015174D01*
X11613277Y-17015174D02*
X11622801Y-17034222D01*
X11622801Y-17034222D02*
X11622801Y-17138984D01*
X11622801Y-17034222D02*
X11632324Y-17015174D01*
X11632324Y-17015174D02*
X11651372Y-17005650D01*
X11651372Y-17005650D02*
X11679943Y-17005650D01*
X11679943Y-17005650D02*
X11698991Y-17015174D01*
X11698991Y-17015174D02*
X11708515Y-17034222D01*
X11708515Y-17034222D02*
X11708515Y-17138984D01*
X12098991Y-16929460D02*
X11927563Y-17186603D01*
X12356134Y-16938984D02*
X12375182Y-16938984D01*
X12375182Y-16938984D02*
X12394229Y-16948508D01*
X12394229Y-16948508D02*
X12403753Y-16958031D01*
X12403753Y-16958031D02*
X12413277Y-16977079D01*
X12413277Y-16977079D02*
X12422801Y-17015174D01*
X12422801Y-17015174D02*
X12422801Y-17062793D01*
X12422801Y-17062793D02*
X12413277Y-17100889D01*
X12413277Y-17100889D02*
X12403753Y-17119936D01*
X12403753Y-17119936D02*
X12394229Y-17129460D01*
X12394229Y-17129460D02*
X12375182Y-17138984D01*
X12375182Y-17138984D02*
X12356134Y-17138984D01*
X12356134Y-17138984D02*
X12337086Y-17129460D01*
X12337086Y-17129460D02*
X12327563Y-17119936D01*
X12327563Y-17119936D02*
X12318039Y-17100889D01*
X12318039Y-17100889D02*
X12308515Y-17062793D01*
X12308515Y-17062793D02*
X12308515Y-17015174D01*
X12308515Y-17015174D02*
X12318039Y-16977079D01*
X12318039Y-16977079D02*
X12327563Y-16958031D01*
X12327563Y-16958031D02*
X12337086Y-16948508D01*
X12337086Y-16948508D02*
X12356134Y-16938984D01*
X12508515Y-17119936D02*
X12518039Y-17129460D01*
X12518039Y-17129460D02*
X12508515Y-17138984D01*
X12508515Y-17138984D02*
X12498991Y-17129460D01*
X12498991Y-17129460D02*
X12508515Y-17119936D01*
X12508515Y-17119936D02*
X12508515Y-17138984D01*
X12641848Y-16938984D02*
X12660896Y-16938984D01*
X12660896Y-16938984D02*
X12679944Y-16948508D01*
X12679944Y-16948508D02*
X12689467Y-16958031D01*
X12689467Y-16958031D02*
X12698991Y-16977079D01*
X12698991Y-16977079D02*
X12708515Y-17015174D01*
X12708515Y-17015174D02*
X12708515Y-17062793D01*
X12708515Y-17062793D02*
X12698991Y-17100889D01*
X12698991Y-17100889D02*
X12689467Y-17119936D01*
X12689467Y-17119936D02*
X12679944Y-17129460D01*
X12679944Y-17129460D02*
X12660896Y-17138984D01*
X12660896Y-17138984D02*
X12641848Y-17138984D01*
X12641848Y-17138984D02*
X12622801Y-17129460D01*
X12622801Y-17129460D02*
X12613277Y-17119936D01*
X12613277Y-17119936D02*
X12603753Y-17100889D01*
X12603753Y-17100889D02*
X12594229Y-17062793D01*
X12594229Y-17062793D02*
X12594229Y-17015174D01*
X12594229Y-17015174D02*
X12603753Y-16977079D01*
X12603753Y-16977079D02*
X12613277Y-16958031D01*
X12613277Y-16958031D02*
X12622801Y-16948508D01*
X12622801Y-16948508D02*
X12641848Y-16938984D01*
X12879944Y-17005650D02*
X12879944Y-17138984D01*
X12832325Y-16929460D02*
X12784706Y-17072317D01*
X12784706Y-17072317D02*
X12908515Y-17072317D01*
X13022801Y-16938984D02*
X13041848Y-16938984D01*
X13041848Y-16938984D02*
X13060896Y-16948508D01*
X13060896Y-16948508D02*
X13070420Y-16958031D01*
X13070420Y-16958031D02*
X13079944Y-16977079D01*
X13079944Y-16977079D02*
X13089467Y-17015174D01*
X13089467Y-17015174D02*
X13089467Y-17062793D01*
X13089467Y-17062793D02*
X13079944Y-17100889D01*
X13079944Y-17100889D02*
X13070420Y-17119936D01*
X13070420Y-17119936D02*
X13060896Y-17129460D01*
X13060896Y-17129460D02*
X13041848Y-17138984D01*
X13041848Y-17138984D02*
X13022801Y-17138984D01*
X13022801Y-17138984D02*
X13003753Y-17129460D01*
X13003753Y-17129460D02*
X12994229Y-17119936D01*
X12994229Y-17119936D02*
X12984706Y-17100889D01*
X12984706Y-17100889D02*
X12975182Y-17062793D01*
X12975182Y-17062793D02*
X12975182Y-17015174D01*
X12975182Y-17015174D02*
X12984706Y-16977079D01*
X12984706Y-16977079D02*
X12994229Y-16958031D01*
X12994229Y-16958031D02*
X13003753Y-16948508D01*
X13003753Y-16948508D02*
X13022801Y-16938984D01*
X13165658Y-16958031D02*
X13175182Y-16948508D01*
X13175182Y-16948508D02*
X13194229Y-16938984D01*
X13194229Y-16938984D02*
X13241848Y-16938984D01*
X13241848Y-16938984D02*
X13260896Y-16948508D01*
X13260896Y-16948508D02*
X13270420Y-16958031D01*
X13270420Y-16958031D02*
X13279944Y-16977079D01*
X13279944Y-16977079D02*
X13279944Y-16996127D01*
X13279944Y-16996127D02*
X13270420Y-17024698D01*
X13270420Y-17024698D02*
X13156134Y-17138984D01*
X13156134Y-17138984D02*
X13279944Y-17138984D01*
X13356134Y-16938984D02*
X13356134Y-16977079D01*
X13432325Y-16938984D02*
X13432325Y-16977079D01*
X13727563Y-17215174D02*
X13718039Y-17205650D01*
X13718039Y-17205650D02*
X13698991Y-17177079D01*
X13698991Y-17177079D02*
X13689468Y-17158031D01*
X13689468Y-17158031D02*
X13679944Y-17129460D01*
X13679944Y-17129460D02*
X13670420Y-17081841D01*
X13670420Y-17081841D02*
X13670420Y-17043746D01*
X13670420Y-17043746D02*
X13679944Y-16996127D01*
X13679944Y-16996127D02*
X13689468Y-16967555D01*
X13689468Y-16967555D02*
X13698991Y-16948508D01*
X13698991Y-16948508D02*
X13718039Y-16919936D01*
X13718039Y-16919936D02*
X13727563Y-16910412D01*
X13784706Y-16938984D02*
X13918039Y-16938984D01*
X13918039Y-16938984D02*
X13832325Y-17138984D01*
X14032325Y-16938984D02*
X14051372Y-16938984D01*
X14051372Y-16938984D02*
X14070420Y-16948508D01*
X14070420Y-16948508D02*
X14079944Y-16958031D01*
X14079944Y-16958031D02*
X14089468Y-16977079D01*
X14089468Y-16977079D02*
X14098991Y-17015174D01*
X14098991Y-17015174D02*
X14098991Y-17062793D01*
X14098991Y-17062793D02*
X14089468Y-17100889D01*
X14089468Y-17100889D02*
X14079944Y-17119936D01*
X14079944Y-17119936D02*
X14070420Y-17129460D01*
X14070420Y-17129460D02*
X14051372Y-17138984D01*
X14051372Y-17138984D02*
X14032325Y-17138984D01*
X14032325Y-17138984D02*
X14013277Y-17129460D01*
X14013277Y-17129460D02*
X14003753Y-17119936D01*
X14003753Y-17119936D02*
X13994229Y-17100889D01*
X13994229Y-17100889D02*
X13984706Y-17062793D01*
X13984706Y-17062793D02*
X13984706Y-17015174D01*
X13984706Y-17015174D02*
X13994229Y-16977079D01*
X13994229Y-16977079D02*
X14003753Y-16958031D01*
X14003753Y-16958031D02*
X14013277Y-16948508D01*
X14013277Y-16948508D02*
X14032325Y-16938984D01*
X14337087Y-17138984D02*
X14337087Y-16938984D01*
X14422801Y-17138984D02*
X14422801Y-17034222D01*
X14422801Y-17034222D02*
X14413277Y-17015174D01*
X14413277Y-17015174D02*
X14394230Y-17005650D01*
X14394230Y-17005650D02*
X14365658Y-17005650D01*
X14365658Y-17005650D02*
X14346610Y-17015174D01*
X14346610Y-17015174D02*
X14337087Y-17024698D01*
X14546610Y-17138984D02*
X14527563Y-17129460D01*
X14527563Y-17129460D02*
X14518039Y-17119936D01*
X14518039Y-17119936D02*
X14508515Y-17100889D01*
X14508515Y-17100889D02*
X14508515Y-17043746D01*
X14508515Y-17043746D02*
X14518039Y-17024698D01*
X14518039Y-17024698D02*
X14527563Y-17015174D01*
X14527563Y-17015174D02*
X14546610Y-17005650D01*
X14546610Y-17005650D02*
X14575182Y-17005650D01*
X14575182Y-17005650D02*
X14594230Y-17015174D01*
X14594230Y-17015174D02*
X14603753Y-17024698D01*
X14603753Y-17024698D02*
X14613277Y-17043746D01*
X14613277Y-17043746D02*
X14613277Y-17100889D01*
X14613277Y-17100889D02*
X14603753Y-17119936D01*
X14603753Y-17119936D02*
X14594230Y-17129460D01*
X14594230Y-17129460D02*
X14575182Y-17138984D01*
X14575182Y-17138984D02*
X14546610Y-17138984D01*
X14727563Y-17138984D02*
X14708515Y-17129460D01*
X14708515Y-17129460D02*
X14698991Y-17110412D01*
X14698991Y-17110412D02*
X14698991Y-16938984D01*
X14879944Y-17129460D02*
X14860896Y-17138984D01*
X14860896Y-17138984D02*
X14822801Y-17138984D01*
X14822801Y-17138984D02*
X14803753Y-17129460D01*
X14803753Y-17129460D02*
X14794230Y-17110412D01*
X14794230Y-17110412D02*
X14794230Y-17034222D01*
X14794230Y-17034222D02*
X14803753Y-17015174D01*
X14803753Y-17015174D02*
X14822801Y-17005650D01*
X14822801Y-17005650D02*
X14860896Y-17005650D01*
X14860896Y-17005650D02*
X14879944Y-17015174D01*
X14879944Y-17015174D02*
X14889468Y-17034222D01*
X14889468Y-17034222D02*
X14889468Y-17053270D01*
X14889468Y-17053270D02*
X14794230Y-17072317D01*
X14965658Y-17129460D02*
X14984706Y-17138984D01*
X14984706Y-17138984D02*
X15022801Y-17138984D01*
X15022801Y-17138984D02*
X15041849Y-17129460D01*
X15041849Y-17129460D02*
X15051372Y-17110412D01*
X15051372Y-17110412D02*
X15051372Y-17100889D01*
X15051372Y-17100889D02*
X15041849Y-17081841D01*
X15041849Y-17081841D02*
X15022801Y-17072317D01*
X15022801Y-17072317D02*
X14994230Y-17072317D01*
X14994230Y-17072317D02*
X14975182Y-17062793D01*
X14975182Y-17062793D02*
X14965658Y-17043746D01*
X14965658Y-17043746D02*
X14965658Y-17034222D01*
X14965658Y-17034222D02*
X14975182Y-17015174D01*
X14975182Y-17015174D02*
X14994230Y-17005650D01*
X14994230Y-17005650D02*
X15022801Y-17005650D01*
X15022801Y-17005650D02*
X15041849Y-17015174D01*
X15118039Y-17215174D02*
X15127563Y-17205650D01*
X15127563Y-17205650D02*
X15146611Y-17177079D01*
X15146611Y-17177079D02*
X15156134Y-17158031D01*
X15156134Y-17158031D02*
X15165658Y-17129460D01*
X15165658Y-17129460D02*
X15175182Y-17081841D01*
X15175182Y-17081841D02*
X15175182Y-17043746D01*
X15175182Y-17043746D02*
X15165658Y-16996127D01*
X15165658Y-16996127D02*
X15156134Y-16967555D01*
X15156134Y-16967555D02*
X15146611Y-16948508D01*
X15146611Y-16948508D02*
X15127563Y-16919936D01*
X15127563Y-16919936D02*
X15118039Y-16910412D01*
D15*
X10042500Y-17256500D02*
X10152500Y-17366500D01*
X10152500Y-17256500D02*
X10042500Y-17366500D01*
X10097500Y-17256500D02*
X10097500Y-17366500D01*
X10042500Y-17311500D02*
X10152500Y-17311500D01*
D11*
X10518039Y-17402984D02*
X10403753Y-17402984D01*
X10460896Y-17402984D02*
X10460896Y-17202984D01*
X10460896Y-17202984D02*
X10441848Y-17231555D01*
X10441848Y-17231555D02*
X10422801Y-17250603D01*
X10422801Y-17250603D02*
X10403753Y-17260127D01*
X10603753Y-17383936D02*
X10613277Y-17393460D01*
X10613277Y-17393460D02*
X10603753Y-17402984D01*
X10603753Y-17402984D02*
X10594229Y-17393460D01*
X10594229Y-17393460D02*
X10603753Y-17383936D01*
X10603753Y-17383936D02*
X10603753Y-17402984D01*
X10803753Y-17402984D02*
X10689467Y-17402984D01*
X10746610Y-17402984D02*
X10746610Y-17202984D01*
X10746610Y-17202984D02*
X10727563Y-17231555D01*
X10727563Y-17231555D02*
X10708515Y-17250603D01*
X10708515Y-17250603D02*
X10689467Y-17260127D01*
X10927563Y-17202984D02*
X10946610Y-17202984D01*
X10946610Y-17202984D02*
X10965658Y-17212508D01*
X10965658Y-17212508D02*
X10975182Y-17222031D01*
X10975182Y-17222031D02*
X10984705Y-17241079D01*
X10984705Y-17241079D02*
X10994229Y-17279174D01*
X10994229Y-17279174D02*
X10994229Y-17326793D01*
X10994229Y-17326793D02*
X10984705Y-17364889D01*
X10984705Y-17364889D02*
X10975182Y-17383936D01*
X10975182Y-17383936D02*
X10965658Y-17393460D01*
X10965658Y-17393460D02*
X10946610Y-17402984D01*
X10946610Y-17402984D02*
X10927563Y-17402984D01*
X10927563Y-17402984D02*
X10908515Y-17393460D01*
X10908515Y-17393460D02*
X10898991Y-17383936D01*
X10898991Y-17383936D02*
X10889467Y-17364889D01*
X10889467Y-17364889D02*
X10879944Y-17326793D01*
X10879944Y-17326793D02*
X10879944Y-17279174D01*
X10879944Y-17279174D02*
X10889467Y-17241079D01*
X10889467Y-17241079D02*
X10898991Y-17222031D01*
X10898991Y-17222031D02*
X10908515Y-17212508D01*
X10908515Y-17212508D02*
X10927563Y-17202984D01*
X11118039Y-17202984D02*
X11137086Y-17202984D01*
X11137086Y-17202984D02*
X11156134Y-17212508D01*
X11156134Y-17212508D02*
X11165658Y-17222031D01*
X11165658Y-17222031D02*
X11175182Y-17241079D01*
X11175182Y-17241079D02*
X11184705Y-17279174D01*
X11184705Y-17279174D02*
X11184705Y-17326793D01*
X11184705Y-17326793D02*
X11175182Y-17364889D01*
X11175182Y-17364889D02*
X11165658Y-17383936D01*
X11165658Y-17383936D02*
X11156134Y-17393460D01*
X11156134Y-17393460D02*
X11137086Y-17402984D01*
X11137086Y-17402984D02*
X11118039Y-17402984D01*
X11118039Y-17402984D02*
X11098991Y-17393460D01*
X11098991Y-17393460D02*
X11089467Y-17383936D01*
X11089467Y-17383936D02*
X11079944Y-17364889D01*
X11079944Y-17364889D02*
X11070420Y-17326793D01*
X11070420Y-17326793D02*
X11070420Y-17279174D01*
X11070420Y-17279174D02*
X11079944Y-17241079D01*
X11079944Y-17241079D02*
X11089467Y-17222031D01*
X11089467Y-17222031D02*
X11098991Y-17212508D01*
X11098991Y-17212508D02*
X11118039Y-17202984D01*
X11270420Y-17402984D02*
X11270420Y-17269650D01*
X11270420Y-17288698D02*
X11279943Y-17279174D01*
X11279943Y-17279174D02*
X11298991Y-17269650D01*
X11298991Y-17269650D02*
X11327563Y-17269650D01*
X11327563Y-17269650D02*
X11346610Y-17279174D01*
X11346610Y-17279174D02*
X11356134Y-17298222D01*
X11356134Y-17298222D02*
X11356134Y-17402984D01*
X11356134Y-17298222D02*
X11365658Y-17279174D01*
X11365658Y-17279174D02*
X11384705Y-17269650D01*
X11384705Y-17269650D02*
X11413277Y-17269650D01*
X11413277Y-17269650D02*
X11432324Y-17279174D01*
X11432324Y-17279174D02*
X11441848Y-17298222D01*
X11441848Y-17298222D02*
X11441848Y-17402984D01*
X11537086Y-17402984D02*
X11537086Y-17269650D01*
X11537086Y-17288698D02*
X11546610Y-17279174D01*
X11546610Y-17279174D02*
X11565658Y-17269650D01*
X11565658Y-17269650D02*
X11594229Y-17269650D01*
X11594229Y-17269650D02*
X11613277Y-17279174D01*
X11613277Y-17279174D02*
X11622801Y-17298222D01*
X11622801Y-17298222D02*
X11622801Y-17402984D01*
X11622801Y-17298222D02*
X11632324Y-17279174D01*
X11632324Y-17279174D02*
X11651372Y-17269650D01*
X11651372Y-17269650D02*
X11679943Y-17269650D01*
X11679943Y-17269650D02*
X11698991Y-17279174D01*
X11698991Y-17279174D02*
X11708515Y-17298222D01*
X11708515Y-17298222D02*
X11708515Y-17402984D01*
X12098991Y-17193460D02*
X11927563Y-17450603D01*
X12356134Y-17202984D02*
X12375182Y-17202984D01*
X12375182Y-17202984D02*
X12394229Y-17212508D01*
X12394229Y-17212508D02*
X12403753Y-17222031D01*
X12403753Y-17222031D02*
X12413277Y-17241079D01*
X12413277Y-17241079D02*
X12422801Y-17279174D01*
X12422801Y-17279174D02*
X12422801Y-17326793D01*
X12422801Y-17326793D02*
X12413277Y-17364889D01*
X12413277Y-17364889D02*
X12403753Y-17383936D01*
X12403753Y-17383936D02*
X12394229Y-17393460D01*
X12394229Y-17393460D02*
X12375182Y-17402984D01*
X12375182Y-17402984D02*
X12356134Y-17402984D01*
X12356134Y-17402984D02*
X12337086Y-17393460D01*
X12337086Y-17393460D02*
X12327563Y-17383936D01*
X12327563Y-17383936D02*
X12318039Y-17364889D01*
X12318039Y-17364889D02*
X12308515Y-17326793D01*
X12308515Y-17326793D02*
X12308515Y-17279174D01*
X12308515Y-17279174D02*
X12318039Y-17241079D01*
X12318039Y-17241079D02*
X12327563Y-17222031D01*
X12327563Y-17222031D02*
X12337086Y-17212508D01*
X12337086Y-17212508D02*
X12356134Y-17202984D01*
X12508515Y-17383936D02*
X12518039Y-17393460D01*
X12518039Y-17393460D02*
X12508515Y-17402984D01*
X12508515Y-17402984D02*
X12498991Y-17393460D01*
X12498991Y-17393460D02*
X12508515Y-17383936D01*
X12508515Y-17383936D02*
X12508515Y-17402984D01*
X12641848Y-17202984D02*
X12660896Y-17202984D01*
X12660896Y-17202984D02*
X12679944Y-17212508D01*
X12679944Y-17212508D02*
X12689467Y-17222031D01*
X12689467Y-17222031D02*
X12698991Y-17241079D01*
X12698991Y-17241079D02*
X12708515Y-17279174D01*
X12708515Y-17279174D02*
X12708515Y-17326793D01*
X12708515Y-17326793D02*
X12698991Y-17364889D01*
X12698991Y-17364889D02*
X12689467Y-17383936D01*
X12689467Y-17383936D02*
X12679944Y-17393460D01*
X12679944Y-17393460D02*
X12660896Y-17402984D01*
X12660896Y-17402984D02*
X12641848Y-17402984D01*
X12641848Y-17402984D02*
X12622801Y-17393460D01*
X12622801Y-17393460D02*
X12613277Y-17383936D01*
X12613277Y-17383936D02*
X12603753Y-17364889D01*
X12603753Y-17364889D02*
X12594229Y-17326793D01*
X12594229Y-17326793D02*
X12594229Y-17279174D01*
X12594229Y-17279174D02*
X12603753Y-17241079D01*
X12603753Y-17241079D02*
X12613277Y-17222031D01*
X12613277Y-17222031D02*
X12622801Y-17212508D01*
X12622801Y-17212508D02*
X12641848Y-17202984D01*
X12879944Y-17269650D02*
X12879944Y-17402984D01*
X12832325Y-17193460D02*
X12784706Y-17336317D01*
X12784706Y-17336317D02*
X12908515Y-17336317D01*
X12965658Y-17202984D02*
X13089467Y-17202984D01*
X13089467Y-17202984D02*
X13022801Y-17279174D01*
X13022801Y-17279174D02*
X13051372Y-17279174D01*
X13051372Y-17279174D02*
X13070420Y-17288698D01*
X13070420Y-17288698D02*
X13079944Y-17298222D01*
X13079944Y-17298222D02*
X13089467Y-17317270D01*
X13089467Y-17317270D02*
X13089467Y-17364889D01*
X13089467Y-17364889D02*
X13079944Y-17383936D01*
X13079944Y-17383936D02*
X13070420Y-17393460D01*
X13070420Y-17393460D02*
X13051372Y-17402984D01*
X13051372Y-17402984D02*
X12994229Y-17402984D01*
X12994229Y-17402984D02*
X12975182Y-17393460D01*
X12975182Y-17393460D02*
X12965658Y-17383936D01*
X13156134Y-17202984D02*
X13279944Y-17202984D01*
X13279944Y-17202984D02*
X13213277Y-17279174D01*
X13213277Y-17279174D02*
X13241848Y-17279174D01*
X13241848Y-17279174D02*
X13260896Y-17288698D01*
X13260896Y-17288698D02*
X13270420Y-17298222D01*
X13270420Y-17298222D02*
X13279944Y-17317270D01*
X13279944Y-17317270D02*
X13279944Y-17364889D01*
X13279944Y-17364889D02*
X13270420Y-17383936D01*
X13270420Y-17383936D02*
X13260896Y-17393460D01*
X13260896Y-17393460D02*
X13241848Y-17402984D01*
X13241848Y-17402984D02*
X13184706Y-17402984D01*
X13184706Y-17402984D02*
X13165658Y-17393460D01*
X13165658Y-17393460D02*
X13156134Y-17383936D01*
X13356134Y-17202984D02*
X13356134Y-17241079D01*
X13432325Y-17202984D02*
X13432325Y-17241079D01*
X13727563Y-17479174D02*
X13718039Y-17469650D01*
X13718039Y-17469650D02*
X13698991Y-17441079D01*
X13698991Y-17441079D02*
X13689468Y-17422031D01*
X13689468Y-17422031D02*
X13679944Y-17393460D01*
X13679944Y-17393460D02*
X13670420Y-17345841D01*
X13670420Y-17345841D02*
X13670420Y-17307746D01*
X13670420Y-17307746D02*
X13679944Y-17260127D01*
X13679944Y-17260127D02*
X13689468Y-17231555D01*
X13689468Y-17231555D02*
X13698991Y-17212508D01*
X13698991Y-17212508D02*
X13718039Y-17183936D01*
X13718039Y-17183936D02*
X13727563Y-17174412D01*
X13908515Y-17402984D02*
X13794229Y-17402984D01*
X13851372Y-17402984D02*
X13851372Y-17202984D01*
X13851372Y-17202984D02*
X13832325Y-17231555D01*
X13832325Y-17231555D02*
X13813277Y-17250603D01*
X13813277Y-17250603D02*
X13794229Y-17260127D01*
X14032325Y-17202984D02*
X14051372Y-17202984D01*
X14051372Y-17202984D02*
X14070420Y-17212508D01*
X14070420Y-17212508D02*
X14079944Y-17222031D01*
X14079944Y-17222031D02*
X14089468Y-17241079D01*
X14089468Y-17241079D02*
X14098991Y-17279174D01*
X14098991Y-17279174D02*
X14098991Y-17326793D01*
X14098991Y-17326793D02*
X14089468Y-17364889D01*
X14089468Y-17364889D02*
X14079944Y-17383936D01*
X14079944Y-17383936D02*
X14070420Y-17393460D01*
X14070420Y-17393460D02*
X14051372Y-17402984D01*
X14051372Y-17402984D02*
X14032325Y-17402984D01*
X14032325Y-17402984D02*
X14013277Y-17393460D01*
X14013277Y-17393460D02*
X14003753Y-17383936D01*
X14003753Y-17383936D02*
X13994229Y-17364889D01*
X13994229Y-17364889D02*
X13984706Y-17326793D01*
X13984706Y-17326793D02*
X13984706Y-17279174D01*
X13984706Y-17279174D02*
X13994229Y-17241079D01*
X13994229Y-17241079D02*
X14003753Y-17222031D01*
X14003753Y-17222031D02*
X14013277Y-17212508D01*
X14013277Y-17212508D02*
X14032325Y-17202984D01*
X14337087Y-17402984D02*
X14337087Y-17202984D01*
X14422801Y-17402984D02*
X14422801Y-17298222D01*
X14422801Y-17298222D02*
X14413277Y-17279174D01*
X14413277Y-17279174D02*
X14394230Y-17269650D01*
X14394230Y-17269650D02*
X14365658Y-17269650D01*
X14365658Y-17269650D02*
X14346610Y-17279174D01*
X14346610Y-17279174D02*
X14337087Y-17288698D01*
X14546610Y-17402984D02*
X14527563Y-17393460D01*
X14527563Y-17393460D02*
X14518039Y-17383936D01*
X14518039Y-17383936D02*
X14508515Y-17364889D01*
X14508515Y-17364889D02*
X14508515Y-17307746D01*
X14508515Y-17307746D02*
X14518039Y-17288698D01*
X14518039Y-17288698D02*
X14527563Y-17279174D01*
X14527563Y-17279174D02*
X14546610Y-17269650D01*
X14546610Y-17269650D02*
X14575182Y-17269650D01*
X14575182Y-17269650D02*
X14594230Y-17279174D01*
X14594230Y-17279174D02*
X14603753Y-17288698D01*
X14603753Y-17288698D02*
X14613277Y-17307746D01*
X14613277Y-17307746D02*
X14613277Y-17364889D01*
X14613277Y-17364889D02*
X14603753Y-17383936D01*
X14603753Y-17383936D02*
X14594230Y-17393460D01*
X14594230Y-17393460D02*
X14575182Y-17402984D01*
X14575182Y-17402984D02*
X14546610Y-17402984D01*
X14727563Y-17402984D02*
X14708515Y-17393460D01*
X14708515Y-17393460D02*
X14698991Y-17374412D01*
X14698991Y-17374412D02*
X14698991Y-17202984D01*
X14879944Y-17393460D02*
X14860896Y-17402984D01*
X14860896Y-17402984D02*
X14822801Y-17402984D01*
X14822801Y-17402984D02*
X14803753Y-17393460D01*
X14803753Y-17393460D02*
X14794230Y-17374412D01*
X14794230Y-17374412D02*
X14794230Y-17298222D01*
X14794230Y-17298222D02*
X14803753Y-17279174D01*
X14803753Y-17279174D02*
X14822801Y-17269650D01*
X14822801Y-17269650D02*
X14860896Y-17269650D01*
X14860896Y-17269650D02*
X14879944Y-17279174D01*
X14879944Y-17279174D02*
X14889468Y-17298222D01*
X14889468Y-17298222D02*
X14889468Y-17317270D01*
X14889468Y-17317270D02*
X14794230Y-17336317D01*
X14965658Y-17393460D02*
X14984706Y-17402984D01*
X14984706Y-17402984D02*
X15022801Y-17402984D01*
X15022801Y-17402984D02*
X15041849Y-17393460D01*
X15041849Y-17393460D02*
X15051372Y-17374412D01*
X15051372Y-17374412D02*
X15051372Y-17364889D01*
X15051372Y-17364889D02*
X15041849Y-17345841D01*
X15041849Y-17345841D02*
X15022801Y-17336317D01*
X15022801Y-17336317D02*
X14994230Y-17336317D01*
X14994230Y-17336317D02*
X14975182Y-17326793D01*
X14975182Y-17326793D02*
X14965658Y-17307746D01*
X14965658Y-17307746D02*
X14965658Y-17298222D01*
X14965658Y-17298222D02*
X14975182Y-17279174D01*
X14975182Y-17279174D02*
X14994230Y-17269650D01*
X14994230Y-17269650D02*
X15022801Y-17269650D01*
X15022801Y-17269650D02*
X15041849Y-17279174D01*
X15118039Y-17479174D02*
X15127563Y-17469650D01*
X15127563Y-17469650D02*
X15146611Y-17441079D01*
X15146611Y-17441079D02*
X15156134Y-17422031D01*
X15156134Y-17422031D02*
X15165658Y-17393460D01*
X15165658Y-17393460D02*
X15175182Y-17345841D01*
X15175182Y-17345841D02*
X15175182Y-17307746D01*
X15175182Y-17307746D02*
X15165658Y-17260127D01*
X15165658Y-17260127D02*
X15156134Y-17231555D01*
X15156134Y-17231555D02*
X15146611Y-17212508D01*
X15146611Y-17212508D02*
X15127563Y-17183936D01*
X15127563Y-17183936D02*
X15118039Y-17174412D01*
M02*
