G04 #@! TF.GenerationSoftware,KiCad,Pcbnew,7.0.11-7.0.11~ubuntu22.04.1*
G04 #@! TF.CreationDate,2024-07-25T22:24:47-03:00*
G04 #@! TF.ProjectId,Aquisicao_STM_Barramento_v01,41717569-7369-4636-916f-5f53544d5f42,V01*
G04 #@! TF.SameCoordinates,Original*
G04 #@! TF.FileFunction,Soldermask,Top*
G04 #@! TF.FilePolarity,Negative*
%FSLAX46Y46*%
G04 Gerber Fmt 4.6, Leading zero omitted, Abs format (unit mm)*
G04 Created by KiCad (PCBNEW 7.0.11-7.0.11~ubuntu22.04.1) date 2024-07-25 22:24:47*
%MOMM*%
%LPD*%
G01*
G04 APERTURE LIST*
%ADD10C,1.600000*%
%ADD11O,1.600000X1.600000*%
%ADD12C,1.800000*%
%ADD13R,1.800000X1.800000*%
%ADD14R,1.700000X1.700000*%
%ADD15O,1.700000X1.700000*%
%ADD16R,2.250000X1.727200*%
%ADD17O,2.250000X1.727200*%
%ADD18O,1.727200X1.727200*%
%ADD19R,1.600000X1.600000*%
%ADD20O,1.800000X1.800000*%
%ADD21R,1.905000X2.000000*%
%ADD22O,1.905000X2.000000*%
%ADD23O,2.500000X1.800000*%
%ADD24R,2.500000X1.800000*%
%ADD25R,1.727200X2.250000*%
%ADD26O,1.727200X2.250000*%
%ADD27R,2.200000X2.200000*%
%ADD28O,2.200000X2.200000*%
%ADD29R,2.200000X1.500000*%
G04 APERTURE END LIST*
D10*
X113284000Y-126492000D03*
D11*
X113284000Y-134112000D03*
D12*
X113284000Y-137414000D03*
D13*
X113284000Y-139954000D03*
D14*
X181050000Y-146625000D03*
D15*
X178510000Y-146625000D03*
X175970000Y-146625000D03*
X173430000Y-146625000D03*
D16*
X129420000Y-103710800D03*
D17*
X129420000Y-101170800D03*
X129420000Y-98630800D03*
X129420000Y-96090800D03*
X129420000Y-93550800D03*
X129420000Y-91010800D03*
X129420000Y-88470800D03*
X129420000Y-85930800D03*
X129420000Y-83390800D03*
X129420000Y-80850800D03*
X129420000Y-78310800D03*
X129420000Y-75770800D03*
X129420000Y-73230800D03*
X129420000Y-70690800D03*
X129420000Y-68150800D03*
X129420000Y-65610800D03*
X129420000Y-63070800D03*
X129420000Y-60530800D03*
X129420000Y-57990800D03*
X129420000Y-55450800D03*
X114180000Y-55450800D03*
X114180000Y-57990800D03*
X114180000Y-60530800D03*
X114180000Y-63070800D03*
X114180000Y-65610800D03*
X114180000Y-68150800D03*
X114180000Y-70690800D03*
X114180000Y-73230800D03*
X114180000Y-75770800D03*
X114180000Y-78310800D03*
X114180000Y-80850800D03*
X114180000Y-83390800D03*
X114180000Y-85930800D03*
X114180000Y-88470800D03*
X114180000Y-91010800D03*
X114180000Y-93550800D03*
X114180000Y-96090800D03*
X114180000Y-98630800D03*
X114180000Y-101170800D03*
X114180000Y-103761600D03*
D18*
X120520000Y-99900800D03*
X123060000Y-99900800D03*
D19*
X146180000Y-145478000D03*
D10*
X146180000Y-147978000D03*
D13*
X132736000Y-141700000D03*
D20*
X131036000Y-145400000D03*
X129336000Y-141700000D03*
X127636000Y-145400000D03*
X125936000Y-141700000D03*
D21*
X166890000Y-146550000D03*
D22*
X164350000Y-146550000D03*
X161810000Y-146550000D03*
D23*
X185420000Y-57150000D03*
X185420000Y-59690000D03*
X185420000Y-62230000D03*
X185420000Y-64770000D03*
X185420000Y-67310000D03*
X185420000Y-69850000D03*
X185420000Y-72390000D03*
X185420000Y-74930000D03*
X185420000Y-77470000D03*
X185420000Y-80010000D03*
X185420000Y-82550000D03*
X185420000Y-85090000D03*
X185420000Y-87630000D03*
X185420000Y-90170000D03*
X185420000Y-92710000D03*
X185420000Y-95250000D03*
X185420000Y-97790000D03*
X185420000Y-100330000D03*
X185420000Y-102870000D03*
X185420000Y-105410000D03*
X185420000Y-107950000D03*
X185420000Y-110490000D03*
X185420000Y-113030000D03*
X185420000Y-115570000D03*
X185420000Y-118110000D03*
X185420000Y-120650000D03*
X185420000Y-123190000D03*
X185420000Y-125730000D03*
X185420000Y-128270000D03*
X185420000Y-130810000D03*
X185420000Y-133350000D03*
X185420000Y-135890000D03*
X185420000Y-138430000D03*
X185420000Y-140970000D03*
X185420000Y-143510000D03*
D24*
X106680000Y-57150000D03*
D23*
X106680000Y-59690000D03*
X106680000Y-62230000D03*
X106680000Y-64770000D03*
X106680000Y-67310000D03*
X106680000Y-69850000D03*
X106680000Y-72390000D03*
X106680000Y-74930000D03*
X106680000Y-81280000D03*
X106680000Y-83820000D03*
X106680000Y-86360000D03*
X106680000Y-88900000D03*
X106680000Y-91440000D03*
X106680000Y-93980000D03*
X106680000Y-96520000D03*
X106680000Y-99060000D03*
X106680000Y-101600000D03*
X106680000Y-104140000D03*
X106680000Y-106680000D03*
X106680000Y-109220000D03*
X106680000Y-111760000D03*
X106680000Y-114300000D03*
X106680000Y-116840000D03*
X106680000Y-119380000D03*
X106680000Y-121920000D03*
X106680000Y-124460000D03*
X106680000Y-127000000D03*
X106680000Y-129540000D03*
X106680000Y-132080000D03*
X106680000Y-134620000D03*
X106680000Y-137160000D03*
X106680000Y-139700000D03*
X106680000Y-142240000D03*
X106680000Y-144780000D03*
X106680000Y-147320000D03*
D25*
X171958000Y-118354000D03*
D26*
X169418000Y-118354000D03*
X166878000Y-118354000D03*
X164338000Y-118354000D03*
X161798000Y-118354000D03*
X159258000Y-118354000D03*
X156718000Y-118354000D03*
X154178000Y-118354000D03*
X151638000Y-118354000D03*
X149098000Y-118354000D03*
X146558000Y-118354000D03*
X144018000Y-118354000D03*
X141478000Y-118354000D03*
X138938000Y-118354000D03*
X136398000Y-118354000D03*
X133858000Y-118354000D03*
X131318000Y-118354000D03*
X128778000Y-118354000D03*
X126238000Y-118354000D03*
X123698000Y-118354000D03*
X123698000Y-133594000D03*
X126238000Y-133594000D03*
X128778000Y-133594000D03*
X131318000Y-133594000D03*
X133858000Y-133594000D03*
X136398000Y-133594000D03*
X138938000Y-133594000D03*
X141478000Y-133594000D03*
X144018000Y-133594000D03*
X146558000Y-133594000D03*
X149098000Y-133594000D03*
X151638000Y-133594000D03*
X154178000Y-133594000D03*
X156718000Y-133594000D03*
X159258000Y-133594000D03*
X161798000Y-133594000D03*
X164338000Y-133594000D03*
X166878000Y-133594000D03*
X169418000Y-133594000D03*
X172008800Y-133594000D03*
D18*
X168148000Y-127254000D03*
X168148000Y-124714000D03*
D19*
X167521100Y-141250000D03*
D10*
X170021100Y-141250000D03*
D27*
X146754000Y-141833000D03*
D28*
X156914000Y-141833000D03*
D19*
X152574900Y-146750000D03*
D10*
X155074900Y-146750000D03*
D16*
X177934000Y-103710800D03*
D17*
X177934000Y-101170800D03*
X177934000Y-98630800D03*
X177934000Y-96090800D03*
X177934000Y-93550800D03*
X177934000Y-91010800D03*
X177934000Y-88470800D03*
X177934000Y-85930800D03*
X177934000Y-83390800D03*
X177934000Y-80850800D03*
X177934000Y-78310800D03*
X177934000Y-75770800D03*
X177934000Y-73230800D03*
X177934000Y-70690800D03*
X177934000Y-68150800D03*
X177934000Y-65610800D03*
X177934000Y-63070800D03*
X177934000Y-60530800D03*
X177934000Y-57990800D03*
X177934000Y-55450800D03*
X162694000Y-55450800D03*
X162694000Y-57990800D03*
X162694000Y-60530800D03*
X162694000Y-63070800D03*
X162694000Y-65610800D03*
X162694000Y-68150800D03*
X162694000Y-70690800D03*
X162694000Y-73230800D03*
X162694000Y-75770800D03*
X162694000Y-78310800D03*
X162694000Y-80850800D03*
X162694000Y-83390800D03*
X162694000Y-85930800D03*
X162694000Y-88470800D03*
X162694000Y-91010800D03*
X162694000Y-93550800D03*
X162694000Y-96090800D03*
X162694000Y-98630800D03*
X162694000Y-101170800D03*
X162694000Y-103761600D03*
D18*
X169034000Y-99900800D03*
X171574000Y-99900800D03*
D19*
X163955000Y-141378000D03*
D10*
X161455000Y-141378000D03*
D29*
X139211000Y-145725000D03*
X139211000Y-139325000D03*
D14*
X120870000Y-146700000D03*
D15*
X118330000Y-146700000D03*
X115790000Y-146700000D03*
X113250000Y-146700000D03*
D16*
X153550000Y-103710800D03*
D17*
X153550000Y-101170800D03*
X153550000Y-98630800D03*
X153550000Y-96090800D03*
X153550000Y-93550800D03*
X153550000Y-91010800D03*
X153550000Y-88470800D03*
X153550000Y-85930800D03*
X153550000Y-83390800D03*
X153550000Y-80850800D03*
X153550000Y-78310800D03*
X153550000Y-75770800D03*
X153550000Y-73230800D03*
X153550000Y-70690800D03*
X153550000Y-68150800D03*
X153550000Y-65610800D03*
X153550000Y-63070800D03*
X153550000Y-60530800D03*
X153550000Y-57990800D03*
X153550000Y-55450800D03*
X138310000Y-55450800D03*
X138310000Y-57990800D03*
X138310000Y-60530800D03*
X138310000Y-63070800D03*
X138310000Y-65610800D03*
X138310000Y-68150800D03*
X138310000Y-70690800D03*
X138310000Y-73230800D03*
X138310000Y-75770800D03*
X138310000Y-78310800D03*
X138310000Y-80850800D03*
X138310000Y-83390800D03*
X138310000Y-85930800D03*
X138310000Y-88470800D03*
X138310000Y-91010800D03*
X138310000Y-93550800D03*
X138310000Y-96090800D03*
X138310000Y-98630800D03*
X138310000Y-101170800D03*
X138310000Y-103761600D03*
D18*
X144650000Y-99900800D03*
X147190000Y-99900800D03*
M02*
