<?xml version="1.0" standalone="no"?>
 <!DOCTYPE svg PUBLIC "-//W3C//DTD SVG 1.1//EN" 
 "http://www.w3.org/Graphics/SVG/1.1/DTD/svg11.dtd"> 
<svg
  xmlns:svg="http://www.w3.org/2000/svg"
  xmlns="http://www.w3.org/2000/svg"
  xmlns:xlink="http://www.w3.org/1999/xlink"
  version="1.1"
  width="90.4748mm" height="100.4824mm" viewBox="0.0000 0.0000 90.4748 100.4824">
<title>SVG Image created as Barramento_EITduino-F_Cu.svg date 2023/06/22 16:19:01 </title>
  <desc>Image generated by PCBNEW </desc>
<g style="fill:#000000; fill-opacity:1.0000;stroke:#000000; stroke-opacity:1.0000;
stroke-linecap:round; stroke-linejoin:round;"
 transform="translate(0 0) scale(1 1)">
</g>
<g style="fill:#000000; fill-opacity:0.0; 
stroke:#000000; stroke-width:0.0000; stroke-opacity:1; 
stroke-linecap:round; stroke-linejoin:round;">
</g>
<g style="fill:#000000; fill-opacity:0.0; 
stroke:#000000; stroke-width:0.3000; stroke-opacity:1; 
stroke-linecap:round; stroke-linejoin:round;">
<text x="71.3700" y="20.5700"
textLength="12.5214" font-size="2.0000" lengthAdjust="spacingAndGlyphs"
text-anchor="start" opacity="0">CS_x9c10x</text>
<g class="stroked-text"><desc>CS_x9c10x</desc>
<path d="M72.7817 20.2280
L72.7102 20.2994
" />
<path d="M72.7102 20.2994
L72.4959 20.3708
" />
<path d="M72.4959 20.3708
L72.3531 20.3708
" />
<path d="M72.3531 20.3708
L72.1388 20.2994
" />
<path d="M72.1388 20.2994
L71.9959 20.1565
" />
<path d="M71.9959 20.1565
L71.9245 20.0137
" />
<path d="M71.9245 20.0137
L71.8531 19.7280
" />
<path d="M71.8531 19.7280
L71.8531 19.5137
" />
<path d="M71.8531 19.5137
L71.9245 19.2280
" />
<path d="M71.9245 19.2280
L71.9959 19.0851
" />
<path d="M71.9959 19.0851
L72.1388 18.9423
" />
<path d="M72.1388 18.9423
L72.3531 18.8708
" />
<path d="M72.3531 18.8708
L72.4959 18.8708
" />
<path d="M72.4959 18.8708
L72.7102 18.9423
" />
<path d="M72.7102 18.9423
L72.7817 19.0137
" />
<path d="M73.3531 20.2994
L73.5674 20.3708
" />
<path d="M73.5674 20.3708
L73.9245 20.3708
" />
<path d="M73.9245 20.3708
L74.0674 20.2994
" />
<path d="M74.0674 20.2994
L74.1388 20.2280
" />
<path d="M74.1388 20.2280
L74.2102 20.0851
" />
<path d="M74.2102 20.0851
L74.2102 19.9423
" />
<path d="M74.2102 19.9423
L74.1388 19.7994
" />
<path d="M74.1388 19.7994
L74.0674 19.7280
" />
<path d="M74.0674 19.7280
L73.9245 19.6565
" />
<path d="M73.9245 19.6565
L73.6388 19.5851
" />
<path d="M73.6388 19.5851
L73.4959 19.5137
" />
<path d="M73.4959 19.5137
L73.4245 19.4423
" />
<path d="M73.4245 19.4423
L73.3531 19.2994
" />
<path d="M73.3531 19.2994
L73.3531 19.1565
" />
<path d="M73.3531 19.1565
L73.4245 19.0137
" />
<path d="M73.4245 19.0137
L73.4959 18.9423
" />
<path d="M73.4959 18.9423
L73.6388 18.8708
" />
<path d="M73.6388 18.8708
L73.9959 18.8708
" />
<path d="M73.9959 18.8708
L74.2102 18.9423
" />
<path d="M74.4959 20.5137
L75.6388 20.5137
" />
<path d="M75.8531 20.3708
L76.6388 19.3708
" />
<path d="M75.8531 19.3708
L76.6388 20.3708
" />
<path d="M77.2817 20.3708
L77.5674 20.3708
" />
<path d="M77.5674 20.3708
L77.7102 20.2994
" />
<path d="M77.7102 20.2994
L77.7817 20.2280
" />
<path d="M77.7817 20.2280
L77.9245 20.0137
" />
<path d="M77.9245 20.0137
L77.9959 19.7280
" />
<path d="M77.9959 19.7280
L77.9959 19.1565
" />
<path d="M77.9959 19.1565
L77.9245 19.0137
" />
<path d="M77.9245 19.0137
L77.8531 18.9423
" />
<path d="M77.8531 18.9423
L77.7102 18.8708
" />
<path d="M77.7102 18.8708
L77.4245 18.8708
" />
<path d="M77.4245 18.8708
L77.2817 18.9423
" />
<path d="M77.2817 18.9423
L77.2102 19.0137
" />
<path d="M77.2102 19.0137
L77.1388 19.1565
" />
<path d="M77.1388 19.1565
L77.1388 19.5137
" />
<path d="M77.1388 19.5137
L77.2102 19.6565
" />
<path d="M77.2102 19.6565
L77.2817 19.7280
" />
<path d="M77.2817 19.7280
L77.4245 19.7994
" />
<path d="M77.4245 19.7994
L77.7102 19.7994
" />
<path d="M77.7102 19.7994
L77.8531 19.7280
" />
<path d="M77.8531 19.7280
L77.9245 19.6565
" />
<path d="M77.9245 19.6565
L77.9959 19.5137
" />
<path d="M79.2817 20.2994
L79.1388 20.3708
" />
<path d="M79.1388 20.3708
L78.8531 20.3708
" />
<path d="M78.8531 20.3708
L78.7102 20.2994
" />
<path d="M78.7102 20.2994
L78.6388 20.2280
" />
<path d="M78.6388 20.2280
L78.5674 20.0851
" />
<path d="M78.5674 20.0851
L78.5674 19.6565
" />
<path d="M78.5674 19.6565
L78.6388 19.5137
" />
<path d="M78.6388 19.5137
L78.7102 19.4423
" />
<path d="M78.7102 19.4423
L78.8531 19.3708
" />
<path d="M78.8531 19.3708
L79.1388 19.3708
" />
<path d="M79.1388 19.3708
L79.2817 19.4423
" />
<path d="M80.7102 20.3708
L79.8531 20.3708
" />
<path d="M80.2817 20.3708
L80.2817 18.8708
" />
<path d="M80.2817 18.8708
L80.1388 19.0851
" />
<path d="M80.1388 19.0851
L79.9959 19.2280
" />
<path d="M79.9959 19.2280
L79.8531 19.2994
" />
<path d="M81.6388 18.8708
L81.7817 18.8708
" />
<path d="M81.7817 18.8708
L81.9245 18.9423
" />
<path d="M81.9245 18.9423
L81.9959 19.0137
" />
<path d="M81.9959 19.0137
L82.0674 19.1565
" />
<path d="M82.0674 19.1565
L82.1388 19.4423
" />
<path d="M82.1388 19.4423
L82.1388 19.7994
" />
<path d="M82.1388 19.7994
L82.0674 20.0851
" />
<path d="M82.0674 20.0851
L81.9959 20.2280
" />
<path d="M81.9959 20.2280
L81.9245 20.2994
" />
<path d="M81.9245 20.2994
L81.7817 20.3708
" />
<path d="M81.7817 20.3708
L81.6388 20.3708
" />
<path d="M81.6388 20.3708
L81.4959 20.2994
" />
<path d="M81.4959 20.2994
L81.4245 20.2280
" />
<path d="M81.4245 20.2280
L81.3531 20.0851
" />
<path d="M81.3531 20.0851
L81.2817 19.7994
" />
<path d="M81.2817 19.7994
L81.2817 19.4423
" />
<path d="M81.2817 19.4423
L81.3531 19.1565
" />
<path d="M81.3531 19.1565
L81.4245 19.0137
" />
<path d="M81.4245 19.0137
L81.4959 18.9423
" />
<path d="M81.4959 18.9423
L81.6388 18.8708
" />
<path d="M82.6388 20.3708
L83.4245 19.3708
" />
<path d="M82.6388 19.3708
L83.4245 20.3708
" />
</g><text x="71.3700" y="18.0300"
textLength="12.9500" font-size="2.0000" lengthAdjust="spacingAndGlyphs"
text-anchor="start" opacity="0">CS_ad9833</text>
<g class="stroked-text"><desc>CS_ad9833</desc>
<path d="M72.7817 17.6880
L72.7102 17.7594
" />
<path d="M72.7102 17.7594
L72.4959 17.8308
" />
<path d="M72.4959 17.8308
L72.3531 17.8308
" />
<path d="M72.3531 17.8308
L72.1388 17.7594
" />
<path d="M72.1388 17.7594
L71.9959 17.6165
" />
<path d="M71.9959 17.6165
L71.9245 17.4737
" />
<path d="M71.9245 17.4737
L71.8531 17.1880
" />
<path d="M71.8531 17.1880
L71.8531 16.9737
" />
<path d="M71.8531 16.9737
L71.9245 16.6880
" />
<path d="M71.9245 16.6880
L71.9959 16.5451
" />
<path d="M71.9959 16.5451
L72.1388 16.4023
" />
<path d="M72.1388 16.4023
L72.3531 16.3308
" />
<path d="M72.3531 16.3308
L72.4959 16.3308
" />
<path d="M72.4959 16.3308
L72.7102 16.4023
" />
<path d="M72.7102 16.4023
L72.7817 16.4737
" />
<path d="M73.3531 17.7594
L73.5674 17.8308
" />
<path d="M73.5674 17.8308
L73.9245 17.8308
" />
<path d="M73.9245 17.8308
L74.0674 17.7594
" />
<path d="M74.0674 17.7594
L74.1388 17.6880
" />
<path d="M74.1388 17.6880
L74.2102 17.5451
" />
<path d="M74.2102 17.5451
L74.2102 17.4023
" />
<path d="M74.2102 17.4023
L74.1388 17.2594
" />
<path d="M74.1388 17.2594
L74.0674 17.1880
" />
<path d="M74.0674 17.1880
L73.9245 17.1165
" />
<path d="M73.9245 17.1165
L73.6388 17.0451
" />
<path d="M73.6388 17.0451
L73.4959 16.9737
" />
<path d="M73.4959 16.9737
L73.4245 16.9023
" />
<path d="M73.4245 16.9023
L73.3531 16.7594
" />
<path d="M73.3531 16.7594
L73.3531 16.6165
" />
<path d="M73.3531 16.6165
L73.4245 16.4737
" />
<path d="M73.4245 16.4737
L73.4959 16.4023
" />
<path d="M73.4959 16.4023
L73.6388 16.3308
" />
<path d="M73.6388 16.3308
L73.9959 16.3308
" />
<path d="M73.9959 16.3308
L74.2102 16.4023
" />
<path d="M74.4959 17.9737
L75.6388 17.9737
" />
<path d="M76.6388 17.8308
L76.6388 17.0451
" />
<path d="M76.6388 17.0451
L76.5674 16.9023
" />
<path d="M76.5674 16.9023
L76.4245 16.8308
" />
<path d="M76.4245 16.8308
L76.1388 16.8308
" />
<path d="M76.1388 16.8308
L75.9959 16.9023
" />
<path d="M76.6388 17.7594
L76.4959 17.8308
" />
<path d="M76.4959 17.8308
L76.1388 17.8308
" />
<path d="M76.1388 17.8308
L75.9959 17.7594
" />
<path d="M75.9959 17.7594
L75.9245 17.6165
" />
<path d="M75.9245 17.6165
L75.9245 17.4737
" />
<path d="M75.9245 17.4737
L75.9959 17.3308
" />
<path d="M75.9959 17.3308
L76.1388 17.2594
" />
<path d="M76.1388 17.2594
L76.4959 17.2594
" />
<path d="M76.4959 17.2594
L76.6388 17.1880
" />
<path d="M77.9959 17.8308
L77.9959 16.3308
" />
<path d="M77.9959 17.7594
L77.8531 17.8308
" />
<path d="M77.8531 17.8308
L77.5674 17.8308
" />
<path d="M77.5674 17.8308
L77.4245 17.7594
" />
<path d="M77.4245 17.7594
L77.3531 17.6880
" />
<path d="M77.3531 17.6880
L77.2817 17.5451
" />
<path d="M77.2817 17.5451
L77.2817 17.1165
" />
<path d="M77.2817 17.1165
L77.3531 16.9737
" />
<path d="M77.3531 16.9737
L77.4245 16.9023
" />
<path d="M77.4245 16.9023
L77.5674 16.8308
" />
<path d="M77.5674 16.8308
L77.8531 16.8308
" />
<path d="M77.8531 16.8308
L77.9959 16.9023
" />
<path d="M78.7817 17.8308
L79.0674 17.8308
" />
<path d="M79.0674 17.8308
L79.2102 17.7594
" />
<path d="M79.2102 17.7594
L79.2817 17.6880
" />
<path d="M79.2817 17.6880
L79.4245 17.4737
" />
<path d="M79.4245 17.4737
L79.4959 17.1880
" />
<path d="M79.4959 17.1880
L79.4959 16.6165
" />
<path d="M79.4959 16.6165
L79.4245 16.4737
" />
<path d="M79.4245 16.4737
L79.3531 16.4023
" />
<path d="M79.3531 16.4023
L79.2102 16.3308
" />
<path d="M79.2102 16.3308
L78.9245 16.3308
" />
<path d="M78.9245 16.3308
L78.7817 16.4023
" />
<path d="M78.7817 16.4023
L78.7102 16.4737
" />
<path d="M78.7102 16.4737
L78.6388 16.6165
" />
<path d="M78.6388 16.6165
L78.6388 16.9737
" />
<path d="M78.6388 16.9737
L78.7102 17.1165
" />
<path d="M78.7102 17.1165
L78.7817 17.1880
" />
<path d="M78.7817 17.1880
L78.9245 17.2594
" />
<path d="M78.9245 17.2594
L79.2102 17.2594
" />
<path d="M79.2102 17.2594
L79.3531 17.1880
" />
<path d="M79.3531 17.1880
L79.4245 17.1165
" />
<path d="M79.4245 17.1165
L79.4959 16.9737
" />
<path d="M80.3531 16.9737
L80.2102 16.9023
" />
<path d="M80.2102 16.9023
L80.1388 16.8308
" />
<path d="M80.1388 16.8308
L80.0674 16.6880
" />
<path d="M80.0674 16.6880
L80.0674 16.6165
" />
<path d="M80.0674 16.6165
L80.1388 16.4737
" />
<path d="M80.1388 16.4737
L80.2102 16.4023
" />
<path d="M80.2102 16.4023
L80.3531 16.3308
" />
<path d="M80.3531 16.3308
L80.6388 16.3308
" />
<path d="M80.6388 16.3308
L80.7817 16.4023
" />
<path d="M80.7817 16.4023
L80.8531 16.4737
" />
<path d="M80.8531 16.4737
L80.9245 16.6165
" />
<path d="M80.9245 16.6165
L80.9245 16.6880
" />
<path d="M80.9245 16.6880
L80.8531 16.8308
" />
<path d="M80.8531 16.8308
L80.7817 16.9023
" />
<path d="M80.7817 16.9023
L80.6388 16.9737
" />
<path d="M80.6388 16.9737
L80.3531 16.9737
" />
<path d="M80.3531 16.9737
L80.2102 17.0451
" />
<path d="M80.2102 17.0451
L80.1388 17.1165
" />
<path d="M80.1388 17.1165
L80.0674 17.2594
" />
<path d="M80.0674 17.2594
L80.0674 17.5451
" />
<path d="M80.0674 17.5451
L80.1388 17.6880
" />
<path d="M80.1388 17.6880
L80.2102 17.7594
" />
<path d="M80.2102 17.7594
L80.3531 17.8308
" />
<path d="M80.3531 17.8308
L80.6388 17.8308
" />
<path d="M80.6388 17.8308
L80.7817 17.7594
" />
<path d="M80.7817 17.7594
L80.8531 17.6880
" />
<path d="M80.8531 17.6880
L80.9245 17.5451
" />
<path d="M80.9245 17.5451
L80.9245 17.2594
" />
<path d="M80.9245 17.2594
L80.8531 17.1165
" />
<path d="M80.8531 17.1165
L80.7817 17.0451
" />
<path d="M80.7817 17.0451
L80.6388 16.9737
" />
<path d="M81.4245 16.3308
L82.3531 16.3308
" />
<path d="M82.3531 16.3308
L81.8531 16.9023
" />
<path d="M81.8531 16.9023
L82.0674 16.9023
" />
<path d="M82.0674 16.9023
L82.2102 16.9737
" />
<path d="M82.2102 16.9737
L82.2817 17.0451
" />
<path d="M82.2817 17.0451
L82.3531 17.1880
" />
<path d="M82.3531 17.1880
L82.3531 17.5451
" />
<path d="M82.3531 17.5451
L82.2817 17.6880
" />
<path d="M82.2817 17.6880
L82.2102 17.7594
" />
<path d="M82.2102 17.7594
L82.0674 17.8308
" />
<path d="M82.0674 17.8308
L81.6388 17.8308
" />
<path d="M81.6388 17.8308
L81.4959 17.7594
" />
<path d="M81.4959 17.7594
L81.4245 17.6880
" />
<path d="M82.8531 16.3308
L83.7817 16.3308
" />
<path d="M83.7817 16.3308
L83.2817 16.9023
" />
<path d="M83.2817 16.9023
L83.4959 16.9023
" />
<path d="M83.4959 16.9023
L83.6388 16.9737
" />
<path d="M83.6388 16.9737
L83.7102 17.0451
" />
<path d="M83.7102 17.0451
L83.7817 17.1880
" />
<path d="M83.7817 17.1880
L83.7817 17.5451
" />
<path d="M83.7817 17.5451
L83.7102 17.6880
" />
<path d="M83.7102 17.6880
L83.6388 17.7594
" />
<path d="M83.6388 17.7594
L83.4959 17.8308
" />
<path d="M83.4959 17.8308
L83.0674 17.8308
" />
<path d="M83.0674 17.8308
L82.9245 17.7594
" />
<path d="M82.9245 17.7594
L82.8531 17.6880
" />
</g><text x="71.3700" y="15.4900"
textLength="8.5214" font-size="2.0000" lengthAdjust="spacingAndGlyphs"
text-anchor="start" opacity="0">SPI_clk</text>
<g class="stroked-text"><desc>SPI_clk</desc>
<path d="M71.8531 15.2194
L72.0674 15.2908
" />
<path d="M72.0674 15.2908
L72.4245 15.2908
" />
<path d="M72.4245 15.2908
L72.5674 15.2194
" />
<path d="M72.5674 15.2194
L72.6388 15.1480
" />
<path d="M72.6388 15.1480
L72.7102 15.0051
" />
<path d="M72.7102 15.0051
L72.7102 14.8623
" />
<path d="M72.7102 14.8623
L72.6388 14.7194
" />
<path d="M72.6388 14.7194
L72.5674 14.6480
" />
<path d="M72.5674 14.6480
L72.4245 14.5765
" />
<path d="M72.4245 14.5765
L72.1388 14.5051
" />
<path d="M72.1388 14.5051
L71.9959 14.4337
" />
<path d="M71.9959 14.4337
L71.9245 14.3623
" />
<path d="M71.9245 14.3623
L71.8531 14.2194
" />
<path d="M71.8531 14.2194
L71.8531 14.0765
" />
<path d="M71.8531 14.0765
L71.9245 13.9337
" />
<path d="M71.9245 13.9337
L71.9959 13.8623
" />
<path d="M71.9959 13.8623
L72.1388 13.7908
" />
<path d="M72.1388 13.7908
L72.4959 13.7908
" />
<path d="M72.4959 13.7908
L72.7102 13.8623
" />
<path d="M73.3531 15.2908
L73.3531 13.7908
" />
<path d="M73.3531 13.7908
L73.9245 13.7908
" />
<path d="M73.9245 13.7908
L74.0674 13.8623
" />
<path d="M74.0674 13.8623
L74.1388 13.9337
" />
<path d="M74.1388 13.9337
L74.2102 14.0765
" />
<path d="M74.2102 14.0765
L74.2102 14.2908
" />
<path d="M74.2102 14.2908
L74.1388 14.4337
" />
<path d="M74.1388 14.4337
L74.0674 14.5051
" />
<path d="M74.0674 14.5051
L73.9245 14.5765
" />
<path d="M73.9245 14.5765
L73.3531 14.5765
" />
<path d="M74.8531 15.2908
L74.8531 13.7908
" />
<path d="M75.2102 15.4337
L76.3531 15.4337
" />
<path d="M77.3531 15.2194
L77.2102 15.2908
" />
<path d="M77.2102 15.2908
L76.9245 15.2908
" />
<path d="M76.9245 15.2908
L76.7817 15.2194
" />
<path d="M76.7817 15.2194
L76.7102 15.1480
" />
<path d="M76.7102 15.1480
L76.6388 15.0051
" />
<path d="M76.6388 15.0051
L76.6388 14.5765
" />
<path d="M76.6388 14.5765
L76.7102 14.4337
" />
<path d="M76.7102 14.4337
L76.7817 14.3623
" />
<path d="M76.7817 14.3623
L76.9245 14.2908
" />
<path d="M76.9245 14.2908
L77.2102 14.2908
" />
<path d="M77.2102 14.2908
L77.3531 14.3623
" />
<path d="M78.2102 15.2908
L78.0674 15.2194
" />
<path d="M78.0674 15.2194
L77.9959 15.0765
" />
<path d="M77.9959 15.0765
L77.9959 13.7908
" />
<path d="M78.7817 15.2908
L78.7817 13.7908
" />
<path d="M78.9245 14.7194
L79.3531 15.2908
" />
<path d="M79.3531 14.2908
L78.7817 14.8623
" />
</g><text x="71.3700" y="12.9500"
textLength="10.5214" font-size="2.0000" lengthAdjust="spacingAndGlyphs"
text-anchor="start" opacity="0">SPI_CIPO</text>
<g class="stroked-text"><desc>SPI_CIPO</desc>
<path d="M71.8531 12.6794
L72.0674 12.7508
" />
<path d="M72.0674 12.7508
L72.4245 12.7508
" />
<path d="M72.4245 12.7508
L72.5674 12.6794
" />
<path d="M72.5674 12.6794
L72.6388 12.6080
" />
<path d="M72.6388 12.6080
L72.7102 12.4651
" />
<path d="M72.7102 12.4651
L72.7102 12.3223
" />
<path d="M72.7102 12.3223
L72.6388 12.1794
" />
<path d="M72.6388 12.1794
L72.5674 12.1080
" />
<path d="M72.5674 12.1080
L72.4245 12.0365
" />
<path d="M72.4245 12.0365
L72.1388 11.9651
" />
<path d="M72.1388 11.9651
L71.9959 11.8937
" />
<path d="M71.9959 11.8937
L71.9245 11.8223
" />
<path d="M71.9245 11.8223
L71.8531 11.6794
" />
<path d="M71.8531 11.6794
L71.8531 11.5365
" />
<path d="M71.8531 11.5365
L71.9245 11.3937
" />
<path d="M71.9245 11.3937
L71.9959 11.3223
" />
<path d="M71.9959 11.3223
L72.1388 11.2508
" />
<path d="M72.1388 11.2508
L72.4959 11.2508
" />
<path d="M72.4959 11.2508
L72.7102 11.3223
" />
<path d="M73.3531 12.7508
L73.3531 11.2508
" />
<path d="M73.3531 11.2508
L73.9245 11.2508
" />
<path d="M73.9245 11.2508
L74.0674 11.3223
" />
<path d="M74.0674 11.3223
L74.1388 11.3937
" />
<path d="M74.1388 11.3937
L74.2102 11.5365
" />
<path d="M74.2102 11.5365
L74.2102 11.7508
" />
<path d="M74.2102 11.7508
L74.1388 11.8937
" />
<path d="M74.1388 11.8937
L74.0674 11.9651
" />
<path d="M74.0674 11.9651
L73.9245 12.0365
" />
<path d="M73.9245 12.0365
L73.3531 12.0365
" />
<path d="M74.8531 12.7508
L74.8531 11.2508
" />
<path d="M75.2102 12.8937
L76.3531 12.8937
" />
<path d="M77.5674 12.6080
L77.4959 12.6794
" />
<path d="M77.4959 12.6794
L77.2817 12.7508
" />
<path d="M77.2817 12.7508
L77.1388 12.7508
" />
<path d="M77.1388 12.7508
L76.9245 12.6794
" />
<path d="M76.9245 12.6794
L76.7817 12.5365
" />
<path d="M76.7817 12.5365
L76.7102 12.3937
" />
<path d="M76.7102 12.3937
L76.6388 12.1080
" />
<path d="M76.6388 12.1080
L76.6388 11.8937
" />
<path d="M76.6388 11.8937
L76.7102 11.6080
" />
<path d="M76.7102 11.6080
L76.7817 11.4651
" />
<path d="M76.7817 11.4651
L76.9245 11.3223
" />
<path d="M76.9245 11.3223
L77.1388 11.2508
" />
<path d="M77.1388 11.2508
L77.2817 11.2508
" />
<path d="M77.2817 11.2508
L77.4959 11.3223
" />
<path d="M77.4959 11.3223
L77.5674 11.3937
" />
<path d="M78.2102 12.7508
L78.2102 11.2508
" />
<path d="M78.9245 12.7508
L78.9245 11.2508
" />
<path d="M78.9245 11.2508
L79.4959 11.2508
" />
<path d="M79.4959 11.2508
L79.6388 11.3223
" />
<path d="M79.6388 11.3223
L79.7102 11.3937
" />
<path d="M79.7102 11.3937
L79.7817 11.5365
" />
<path d="M79.7817 11.5365
L79.7817 11.7508
" />
<path d="M79.7817 11.7508
L79.7102 11.8937
" />
<path d="M79.7102 11.8937
L79.6388 11.9651
" />
<path d="M79.6388 11.9651
L79.4959 12.0365
" />
<path d="M79.4959 12.0365
L78.9245 12.0365
" />
<path d="M80.7102 11.2508
L80.9959 11.2508
" />
<path d="M80.9959 11.2508
L81.1388 11.3223
" />
<path d="M81.1388 11.3223
L81.2817 11.4651
" />
<path d="M81.2817 11.4651
L81.3531 11.7508
" />
<path d="M81.3531 11.7508
L81.3531 12.2508
" />
<path d="M81.3531 12.2508
L81.2817 12.5365
" />
<path d="M81.2817 12.5365
L81.1388 12.6794
" />
<path d="M81.1388 12.6794
L80.9959 12.7508
" />
<path d="M80.9959 12.7508
L80.7102 12.7508
" />
<path d="M80.7102 12.7508
L80.5674 12.6794
" />
<path d="M80.5674 12.6794
L80.4245 12.5365
" />
<path d="M80.4245 12.5365
L80.3531 12.2508
" />
<path d="M80.3531 12.2508
L80.3531 11.7508
" />
<path d="M80.3531 11.7508
L80.4245 11.4651
" />
<path d="M80.4245 11.4651
L80.5674 11.3223
" />
<path d="M80.5674 11.3223
L80.7102 11.2508
" />
</g><text x="71.3700" y="10.4100"
textLength="10.5214" font-size="2.0000" lengthAdjust="spacingAndGlyphs"
text-anchor="start" opacity="0">SPI_COPI</text>
<g class="stroked-text"><desc>SPI_COPI</desc>
<path d="M71.8531 10.1394
L72.0674 10.2108
" />
<path d="M72.0674 10.2108
L72.4245 10.2108
" />
<path d="M72.4245 10.2108
L72.5674 10.1394
" />
<path d="M72.5674 10.1394
L72.6388 10.0680
" />
<path d="M72.6388 10.0680
L72.7102 9.9251
" />
<path d="M72.7102 9.9251
L72.7102 9.7823
" />
<path d="M72.7102 9.7823
L72.6388 9.6394
" />
<path d="M72.6388 9.6394
L72.5674 9.5680
" />
<path d="M72.5674 9.5680
L72.4245 9.4965
" />
<path d="M72.4245 9.4965
L72.1388 9.4251
" />
<path d="M72.1388 9.4251
L71.9959 9.3537
" />
<path d="M71.9959 9.3537
L71.9245 9.2823
" />
<path d="M71.9245 9.2823
L71.8531 9.1394
" />
<path d="M71.8531 9.1394
L71.8531 8.9965
" />
<path d="M71.8531 8.9965
L71.9245 8.8537
" />
<path d="M71.9245 8.8537
L71.9959 8.7823
" />
<path d="M71.9959 8.7823
L72.1388 8.7108
" />
<path d="M72.1388 8.7108
L72.4959 8.7108
" />
<path d="M72.4959 8.7108
L72.7102 8.7823
" />
<path d="M73.3531 10.2108
L73.3531 8.7108
" />
<path d="M73.3531 8.7108
L73.9245 8.7108
" />
<path d="M73.9245 8.7108
L74.0674 8.7823
" />
<path d="M74.0674 8.7823
L74.1388 8.8537
" />
<path d="M74.1388 8.8537
L74.2102 8.9965
" />
<path d="M74.2102 8.9965
L74.2102 9.2108
" />
<path d="M74.2102 9.2108
L74.1388 9.3537
" />
<path d="M74.1388 9.3537
L74.0674 9.4251
" />
<path d="M74.0674 9.4251
L73.9245 9.4965
" />
<path d="M73.9245 9.4965
L73.3531 9.4965
" />
<path d="M74.8531 10.2108
L74.8531 8.7108
" />
<path d="M75.2102 10.3537
L76.3531 10.3537
" />
<path d="M77.5674 10.0680
L77.4959 10.1394
" />
<path d="M77.4959 10.1394
L77.2817 10.2108
" />
<path d="M77.2817 10.2108
L77.1388 10.2108
" />
<path d="M77.1388 10.2108
L76.9245 10.1394
" />
<path d="M76.9245 10.1394
L76.7817 9.9965
" />
<path d="M76.7817 9.9965
L76.7102 9.8537
" />
<path d="M76.7102 9.8537
L76.6388 9.5680
" />
<path d="M76.6388 9.5680
L76.6388 9.3537
" />
<path d="M76.6388 9.3537
L76.7102 9.0680
" />
<path d="M76.7102 9.0680
L76.7817 8.9251
" />
<path d="M76.7817 8.9251
L76.9245 8.7823
" />
<path d="M76.9245 8.7823
L77.1388 8.7108
" />
<path d="M77.1388 8.7108
L77.2817 8.7108
" />
<path d="M77.2817 8.7108
L77.4959 8.7823
" />
<path d="M77.4959 8.7823
L77.5674 8.8537
" />
<path d="M78.4959 8.7108
L78.7817 8.7108
" />
<path d="M78.7817 8.7108
L78.9245 8.7823
" />
<path d="M78.9245 8.7823
L79.0674 8.9251
" />
<path d="M79.0674 8.9251
L79.1388 9.2108
" />
<path d="M79.1388 9.2108
L79.1388 9.7108
" />
<path d="M79.1388 9.7108
L79.0674 9.9965
" />
<path d="M79.0674 9.9965
L78.9245 10.1394
" />
<path d="M78.9245 10.1394
L78.7817 10.2108
" />
<path d="M78.7817 10.2108
L78.4959 10.2108
" />
<path d="M78.4959 10.2108
L78.3531 10.1394
" />
<path d="M78.3531 10.1394
L78.2102 9.9965
" />
<path d="M78.2102 9.9965
L78.1388 9.7108
" />
<path d="M78.1388 9.7108
L78.1388 9.2108
" />
<path d="M78.1388 9.2108
L78.2102 8.9251
" />
<path d="M78.2102 8.9251
L78.3531 8.7823
" />
<path d="M78.3531 8.7823
L78.4959 8.7108
" />
<path d="M79.7817 10.2108
L79.7817 8.7108
" />
<path d="M79.7817 8.7108
L80.3531 8.7108
" />
<path d="M80.3531 8.7108
L80.4959 8.7823
" />
<path d="M80.4959 8.7823
L80.5674 8.8537
" />
<path d="M80.5674 8.8537
L80.6388 8.9965
" />
<path d="M80.6388 8.9965
L80.6388 9.2108
" />
<path d="M80.6388 9.2108
L80.5674 9.3537
" />
<path d="M80.5674 9.3537
L80.4959 9.4251
" />
<path d="M80.4959 9.4251
L80.3531 9.4965
" />
<path d="M80.3531 9.4965
L79.7817 9.4965
" />
<path d="M81.2817 10.2108
L81.2817 8.7108
" />
</g><text x="76.4500" y="7.8700"
textLength="5.6643" font-size="2.0000" lengthAdjust="spacingAndGlyphs"
text-anchor="start" opacity="0">SINC</text>
<g class="stroked-text"><desc>SINC</desc>
<path d="M76.9331 7.5994
L77.1474 7.6708
" />
<path d="M77.1474 7.6708
L77.5045 7.6708
" />
<path d="M77.5045 7.6708
L77.6474 7.5994
" />
<path d="M77.6474 7.5994
L77.7188 7.5280
" />
<path d="M77.7188 7.5280
L77.7902 7.3851
" />
<path d="M77.7902 7.3851
L77.7902 7.2423
" />
<path d="M77.7902 7.2423
L77.7188 7.0994
" />
<path d="M77.7188 7.0994
L77.6474 7.0280
" />
<path d="M77.6474 7.0280
L77.5045 6.9565
" />
<path d="M77.5045 6.9565
L77.2188 6.8851
" />
<path d="M77.2188 6.8851
L77.0759 6.8137
" />
<path d="M77.0759 6.8137
L77.0045 6.7423
" />
<path d="M77.0045 6.7423
L76.9331 6.5994
" />
<path d="M76.9331 6.5994
L76.9331 6.4565
" />
<path d="M76.9331 6.4565
L77.0045 6.3137
" />
<path d="M77.0045 6.3137
L77.0759 6.2423
" />
<path d="M77.0759 6.2423
L77.2188 6.1708
" />
<path d="M77.2188 6.1708
L77.5759 6.1708
" />
<path d="M77.5759 6.1708
L77.7902 6.2423
" />
<path d="M78.4331 7.6708
L78.4331 6.1708
" />
<path d="M79.1474 7.6708
L79.1474 6.1708
" />
<path d="M79.1474 6.1708
L80.0045 7.6708
" />
<path d="M80.0045 7.6708
L80.0045 6.1708
" />
<path d="M81.5759 7.5280
L81.5045 7.5994
" />
<path d="M81.5045 7.5994
L81.2902 7.6708
" />
<path d="M81.2902 7.6708
L81.1474 7.6708
" />
<path d="M81.1474 7.6708
L80.9331 7.5994
" />
<path d="M80.9331 7.5994
L80.7902 7.4565
" />
<path d="M80.7902 7.4565
L80.7188 7.3137
" />
<path d="M80.7188 7.3137
L80.6474 7.0280
" />
<path d="M80.6474 7.0280
L80.6474 6.8137
" />
<path d="M80.6474 6.8137
L80.7188 6.5280
" />
<path d="M80.7188 6.5280
L80.7902 6.3851
" />
<path d="M80.7902 6.3851
L80.9331 6.2423
" />
<path d="M80.9331 6.2423
L81.1474 6.1708
" />
<path d="M81.1474 6.1708
L81.2902 6.1708
" />
<path d="M81.2902 6.1708
L81.5045 6.2423
" />
<path d="M81.5045 6.2423
L81.5759 6.3137
" />
</g><text x="76.4500" y="81.5300"
textLength="6.0214" font-size="2.0000" lengthAdjust="spacingAndGlyphs"
text-anchor="start" opacity="0">SCL3</text>
<g class="stroked-text"><desc>SCL3</desc>
<path d="M76.9331 81.2594
L77.1474 81.3308
" />
<path d="M77.1474 81.3308
L77.5045 81.3308
" />
<path d="M77.5045 81.3308
L77.6474 81.2594
" />
<path d="M77.6474 81.2594
L77.7188 81.1880
" />
<path d="M77.7188 81.1880
L77.7902 81.0451
" />
<path d="M77.7902 81.0451
L77.7902 80.9023
" />
<path d="M77.7902 80.9023
L77.7188 80.7594
" />
<path d="M77.7188 80.7594
L77.6474 80.6880
" />
<path d="M77.6474 80.6880
L77.5045 80.6165
" />
<path d="M77.5045 80.6165
L77.2188 80.5451
" />
<path d="M77.2188 80.5451
L77.0759 80.4737
" />
<path d="M77.0759 80.4737
L77.0045 80.4023
" />
<path d="M77.0045 80.4023
L76.9331 80.2594
" />
<path d="M76.9331 80.2594
L76.9331 80.1165
" />
<path d="M76.9331 80.1165
L77.0045 79.9737
" />
<path d="M77.0045 79.9737
L77.0759 79.9023
" />
<path d="M77.0759 79.9023
L77.2188 79.8308
" />
<path d="M77.2188 79.8308
L77.5759 79.8308
" />
<path d="M77.5759 79.8308
L77.7902 79.9023
" />
<path d="M79.2902 81.1880
L79.2188 81.2594
" />
<path d="M79.2188 81.2594
L79.0045 81.3308
" />
<path d="M79.0045 81.3308
L78.8617 81.3308
" />
<path d="M78.8617 81.3308
L78.6474 81.2594
" />
<path d="M78.6474 81.2594
L78.5045 81.1165
" />
<path d="M78.5045 81.1165
L78.4331 80.9737
" />
<path d="M78.4331 80.9737
L78.3617 80.6880
" />
<path d="M78.3617 80.6880
L78.3617 80.4737
" />
<path d="M78.3617 80.4737
L78.4331 80.1880
" />
<path d="M78.4331 80.1880
L78.5045 80.0451
" />
<path d="M78.5045 80.0451
L78.6474 79.9023
" />
<path d="M78.6474 79.9023
L78.8617 79.8308
" />
<path d="M78.8617 79.8308
L79.0045 79.8308
" />
<path d="M79.0045 79.8308
L79.2188 79.9023
" />
<path d="M79.2188 79.9023
L79.2902 79.9737
" />
<path d="M80.6474 81.3308
L79.9331 81.3308
" />
<path d="M79.9331 81.3308
L79.9331 79.8308
" />
<path d="M81.0045 79.8308
L81.9331 79.8308
" />
<path d="M81.9331 79.8308
L81.4331 80.4023
" />
<path d="M81.4331 80.4023
L81.6474 80.4023
" />
<path d="M81.6474 80.4023
L81.7902 80.4737
" />
<path d="M81.7902 80.4737
L81.8617 80.5451
" />
<path d="M81.8617 80.5451
L81.9331 80.6880
" />
<path d="M81.9331 80.6880
L81.9331 81.0451
" />
<path d="M81.9331 81.0451
L81.8617 81.1880
" />
<path d="M81.8617 81.1880
L81.7902 81.2594
" />
<path d="M81.7902 81.2594
L81.6474 81.3308
" />
<path d="M81.6474 81.3308
L81.2188 81.3308
" />
<path d="M81.2188 81.3308
L81.0759 81.2594
" />
<path d="M81.0759 81.2594
L81.0045 81.1880
" />
</g><text x="76.4500" y="84.0700"
textLength="6.0929" font-size="2.0000" lengthAdjust="spacingAndGlyphs"
text-anchor="start" opacity="0">SDA3</text>
<g class="stroked-text"><desc>SDA3</desc>
<path d="M76.9331 83.7994
L77.1474 83.8708
" />
<path d="M77.1474 83.8708
L77.5045 83.8708
" />
<path d="M77.5045 83.8708
L77.6474 83.7994
" />
<path d="M77.6474 83.7994
L77.7188 83.7280
" />
<path d="M77.7188 83.7280
L77.7902 83.5851
" />
<path d="M77.7902 83.5851
L77.7902 83.4423
" />
<path d="M77.7902 83.4423
L77.7188 83.2994
" />
<path d="M77.7188 83.2994
L77.6474 83.2280
" />
<path d="M77.6474 83.2280
L77.5045 83.1565
" />
<path d="M77.5045 83.1565
L77.2188 83.0851
" />
<path d="M77.2188 83.0851
L77.0759 83.0137
" />
<path d="M77.0759 83.0137
L77.0045 82.9423
" />
<path d="M77.0045 82.9423
L76.9331 82.7994
" />
<path d="M76.9331 82.7994
L76.9331 82.6565
" />
<path d="M76.9331 82.6565
L77.0045 82.5137
" />
<path d="M77.0045 82.5137
L77.0759 82.4423
" />
<path d="M77.0759 82.4423
L77.2188 82.3708
" />
<path d="M77.2188 82.3708
L77.5759 82.3708
" />
<path d="M77.5759 82.3708
L77.7902 82.4423
" />
<path d="M78.4331 83.8708
L78.4331 82.3708
" />
<path d="M78.4331 82.3708
L78.7902 82.3708
" />
<path d="M78.7902 82.3708
L79.0045 82.4423
" />
<path d="M79.0045 82.4423
L79.1474 82.5851
" />
<path d="M79.1474 82.5851
L79.2188 82.7280
" />
<path d="M79.2188 82.7280
L79.2902 83.0137
" />
<path d="M79.2902 83.0137
L79.2902 83.2280
" />
<path d="M79.2902 83.2280
L79.2188 83.5137
" />
<path d="M79.2188 83.5137
L79.1474 83.6565
" />
<path d="M79.1474 83.6565
L79.0045 83.7994
" />
<path d="M79.0045 83.7994
L78.7902 83.8708
" />
<path d="M78.7902 83.8708
L78.4331 83.8708
" />
<path d="M79.8617 83.4423
L80.5759 83.4423
" />
<path d="M79.7188 83.8708
L80.2188 82.3708
" />
<path d="M80.2188 82.3708
L80.7188 83.8708
" />
<path d="M81.0759 82.3708
L82.0045 82.3708
" />
<path d="M82.0045 82.3708
L81.5045 82.9423
" />
<path d="M81.5045 82.9423
L81.7188 82.9423
" />
<path d="M81.7188 82.9423
L81.8617 83.0137
" />
<path d="M81.8617 83.0137
L81.9331 83.0851
" />
<path d="M81.9331 83.0851
L82.0045 83.2280
" />
<path d="M82.0045 83.2280
L82.0045 83.5851
" />
<path d="M82.0045 83.5851
L81.9331 83.7280
" />
<path d="M81.9331 83.7280
L81.8617 83.7994
" />
<path d="M81.8617 83.7994
L81.7188 83.8708
" />
<path d="M81.7188 83.8708
L81.2902 83.8708
" />
<path d="M81.2902 83.8708
L81.1474 83.7994
" />
<path d="M81.1474 83.7994
L81.0759 83.7280
" />
</g><text x="76.4500" y="86.6100"
textLength="6.0214" font-size="2.0000" lengthAdjust="spacingAndGlyphs"
text-anchor="start" opacity="0">SCL2</text>
<g class="stroked-text"><desc>SCL2</desc>
<path d="M76.9331 86.3394
L77.1474 86.4108
" />
<path d="M77.1474 86.4108
L77.5045 86.4108
" />
<path d="M77.5045 86.4108
L77.6474 86.3394
" />
<path d="M77.6474 86.3394
L77.7188 86.2680
" />
<path d="M77.7188 86.2680
L77.7902 86.1251
" />
<path d="M77.7902 86.1251
L77.7902 85.9823
" />
<path d="M77.7902 85.9823
L77.7188 85.8394
" />
<path d="M77.7188 85.8394
L77.6474 85.7680
" />
<path d="M77.6474 85.7680
L77.5045 85.6965
" />
<path d="M77.5045 85.6965
L77.2188 85.6251
" />
<path d="M77.2188 85.6251
L77.0759 85.5537
" />
<path d="M77.0759 85.5537
L77.0045 85.4823
" />
<path d="M77.0045 85.4823
L76.9331 85.3394
" />
<path d="M76.9331 85.3394
L76.9331 85.1965
" />
<path d="M76.9331 85.1965
L77.0045 85.0537
" />
<path d="M77.0045 85.0537
L77.0759 84.9823
" />
<path d="M77.0759 84.9823
L77.2188 84.9108
" />
<path d="M77.2188 84.9108
L77.5759 84.9108
" />
<path d="M77.5759 84.9108
L77.7902 84.9823
" />
<path d="M79.2902 86.2680
L79.2188 86.3394
" />
<path d="M79.2188 86.3394
L79.0045 86.4108
" />
<path d="M79.0045 86.4108
L78.8617 86.4108
" />
<path d="M78.8617 86.4108
L78.6474 86.3394
" />
<path d="M78.6474 86.3394
L78.5045 86.1965
" />
<path d="M78.5045 86.1965
L78.4331 86.0537
" />
<path d="M78.4331 86.0537
L78.3617 85.7680
" />
<path d="M78.3617 85.7680
L78.3617 85.5537
" />
<path d="M78.3617 85.5537
L78.4331 85.2680
" />
<path d="M78.4331 85.2680
L78.5045 85.1251
" />
<path d="M78.5045 85.1251
L78.6474 84.9823
" />
<path d="M78.6474 84.9823
L78.8617 84.9108
" />
<path d="M78.8617 84.9108
L79.0045 84.9108
" />
<path d="M79.0045 84.9108
L79.2188 84.9823
" />
<path d="M79.2188 84.9823
L79.2902 85.0537
" />
<path d="M80.6474 86.4108
L79.9331 86.4108
" />
<path d="M79.9331 86.4108
L79.9331 84.9108
" />
<path d="M81.0759 85.0537
L81.1474 84.9823
" />
<path d="M81.1474 84.9823
L81.2902 84.9108
" />
<path d="M81.2902 84.9108
L81.6474 84.9108
" />
<path d="M81.6474 84.9108
L81.7902 84.9823
" />
<path d="M81.7902 84.9823
L81.8617 85.0537
" />
<path d="M81.8617 85.0537
L81.9331 85.1965
" />
<path d="M81.9331 85.1965
L81.9331 85.3394
" />
<path d="M81.9331 85.3394
L81.8617 85.5537
" />
<path d="M81.8617 85.5537
L81.0045 86.4108
" />
<path d="M81.0045 86.4108
L81.9331 86.4108
" />
</g><text x="76.4500" y="89.1500"
textLength="6.0929" font-size="2.0000" lengthAdjust="spacingAndGlyphs"
text-anchor="start" opacity="0">SDA2</text>
<g class="stroked-text"><desc>SDA2</desc>
<path d="M76.9331 88.8794
L77.1474 88.9508
" />
<path d="M77.1474 88.9508
L77.5045 88.9508
" />
<path d="M77.5045 88.9508
L77.6474 88.8794
" />
<path d="M77.6474 88.8794
L77.7188 88.8080
" />
<path d="M77.7188 88.8080
L77.7902 88.6651
" />
<path d="M77.7902 88.6651
L77.7902 88.5223
" />
<path d="M77.7902 88.5223
L77.7188 88.3794
" />
<path d="M77.7188 88.3794
L77.6474 88.3080
" />
<path d="M77.6474 88.3080
L77.5045 88.2365
" />
<path d="M77.5045 88.2365
L77.2188 88.1651
" />
<path d="M77.2188 88.1651
L77.0759 88.0937
" />
<path d="M77.0759 88.0937
L77.0045 88.0223
" />
<path d="M77.0045 88.0223
L76.9331 87.8794
" />
<path d="M76.9331 87.8794
L76.9331 87.7365
" />
<path d="M76.9331 87.7365
L77.0045 87.5937
" />
<path d="M77.0045 87.5937
L77.0759 87.5223
" />
<path d="M77.0759 87.5223
L77.2188 87.4508
" />
<path d="M77.2188 87.4508
L77.5759 87.4508
" />
<path d="M77.5759 87.4508
L77.7902 87.5223
" />
<path d="M78.4331 88.9508
L78.4331 87.4508
" />
<path d="M78.4331 87.4508
L78.7902 87.4508
" />
<path d="M78.7902 87.4508
L79.0045 87.5223
" />
<path d="M79.0045 87.5223
L79.1474 87.6651
" />
<path d="M79.1474 87.6651
L79.2188 87.8080
" />
<path d="M79.2188 87.8080
L79.2902 88.0937
" />
<path d="M79.2902 88.0937
L79.2902 88.3080
" />
<path d="M79.2902 88.3080
L79.2188 88.5937
" />
<path d="M79.2188 88.5937
L79.1474 88.7365
" />
<path d="M79.1474 88.7365
L79.0045 88.8794
" />
<path d="M79.0045 88.8794
L78.7902 88.9508
" />
<path d="M78.7902 88.9508
L78.4331 88.9508
" />
<path d="M79.8617 88.5223
L80.5759 88.5223
" />
<path d="M79.7188 88.9508
L80.2188 87.4508
" />
<path d="M80.2188 87.4508
L80.7188 88.9508
" />
<path d="M81.1474 87.5937
L81.2188 87.5223
" />
<path d="M81.2188 87.5223
L81.3617 87.4508
" />
<path d="M81.3617 87.4508
L81.7188 87.4508
" />
<path d="M81.7188 87.4508
L81.8617 87.5223
" />
<path d="M81.8617 87.5223
L81.9331 87.5937
" />
<path d="M81.9331 87.5937
L82.0045 87.7365
" />
<path d="M82.0045 87.7365
L82.0045 87.8794
" />
<path d="M82.0045 87.8794
L81.9331 88.0937
" />
<path d="M81.9331 88.0937
L81.0759 88.9508
" />
<path d="M81.0759 88.9508
L82.0045 88.9508
" />
</g><text x="76.4500" y="91.6900"
textLength="6.0214" font-size="2.0000" lengthAdjust="spacingAndGlyphs"
text-anchor="start" opacity="0">SCL1</text>
<g class="stroked-text"><desc>SCL1</desc>
<path d="M76.9331 91.4194
L77.1474 91.4908
" />
<path d="M77.1474 91.4908
L77.5045 91.4908
" />
<path d="M77.5045 91.4908
L77.6474 91.4194
" />
<path d="M77.6474 91.4194
L77.7188 91.3480
" />
<path d="M77.7188 91.3480
L77.7902 91.2051
" />
<path d="M77.7902 91.2051
L77.7902 91.0623
" />
<path d="M77.7902 91.0623
L77.7188 90.9194
" />
<path d="M77.7188 90.9194
L77.6474 90.8480
" />
<path d="M77.6474 90.8480
L77.5045 90.7765
" />
<path d="M77.5045 90.7765
L77.2188 90.7051
" />
<path d="M77.2188 90.7051
L77.0759 90.6337
" />
<path d="M77.0759 90.6337
L77.0045 90.5623
" />
<path d="M77.0045 90.5623
L76.9331 90.4194
" />
<path d="M76.9331 90.4194
L76.9331 90.2765
" />
<path d="M76.9331 90.2765
L77.0045 90.1337
" />
<path d="M77.0045 90.1337
L77.0759 90.0623
" />
<path d="M77.0759 90.0623
L77.2188 89.9908
" />
<path d="M77.2188 89.9908
L77.5759 89.9908
" />
<path d="M77.5759 89.9908
L77.7902 90.0623
" />
<path d="M79.2902 91.3480
L79.2188 91.4194
" />
<path d="M79.2188 91.4194
L79.0045 91.4908
" />
<path d="M79.0045 91.4908
L78.8617 91.4908
" />
<path d="M78.8617 91.4908
L78.6474 91.4194
" />
<path d="M78.6474 91.4194
L78.5045 91.2765
" />
<path d="M78.5045 91.2765
L78.4331 91.1337
" />
<path d="M78.4331 91.1337
L78.3617 90.8480
" />
<path d="M78.3617 90.8480
L78.3617 90.6337
" />
<path d="M78.3617 90.6337
L78.4331 90.3480
" />
<path d="M78.4331 90.3480
L78.5045 90.2051
" />
<path d="M78.5045 90.2051
L78.6474 90.0623
" />
<path d="M78.6474 90.0623
L78.8617 89.9908
" />
<path d="M78.8617 89.9908
L79.0045 89.9908
" />
<path d="M79.0045 89.9908
L79.2188 90.0623
" />
<path d="M79.2188 90.0623
L79.2902 90.1337
" />
<path d="M80.6474 91.4908
L79.9331 91.4908
" />
<path d="M79.9331 91.4908
L79.9331 89.9908
" />
<path d="M81.9331 91.4908
L81.0759 91.4908
" />
<path d="M81.5045 91.4908
L81.5045 89.9908
" />
<path d="M81.5045 89.9908
L81.3617 90.2051
" />
<path d="M81.3617 90.2051
L81.2188 90.3480
" />
<path d="M81.2188 90.3480
L81.0759 90.4194
" />
</g><text x="76.4500" y="94.2300"
textLength="6.0929" font-size="2.0000" lengthAdjust="spacingAndGlyphs"
text-anchor="start" opacity="0">SDA1</text>
<g class="stroked-text"><desc>SDA1</desc>
<path d="M76.9331 93.9594
L77.1474 94.0308
" />
<path d="M77.1474 94.0308
L77.5045 94.0308
" />
<path d="M77.5045 94.0308
L77.6474 93.9594
" />
<path d="M77.6474 93.9594
L77.7188 93.8880
" />
<path d="M77.7188 93.8880
L77.7902 93.7451
" />
<path d="M77.7902 93.7451
L77.7902 93.6023
" />
<path d="M77.7902 93.6023
L77.7188 93.4594
" />
<path d="M77.7188 93.4594
L77.6474 93.3880
" />
<path d="M77.6474 93.3880
L77.5045 93.3165
" />
<path d="M77.5045 93.3165
L77.2188 93.2451
" />
<path d="M77.2188 93.2451
L77.0759 93.1737
" />
<path d="M77.0759 93.1737
L77.0045 93.1023
" />
<path d="M77.0045 93.1023
L76.9331 92.9594
" />
<path d="M76.9331 92.9594
L76.9331 92.8165
" />
<path d="M76.9331 92.8165
L77.0045 92.6737
" />
<path d="M77.0045 92.6737
L77.0759 92.6023
" />
<path d="M77.0759 92.6023
L77.2188 92.5308
" />
<path d="M77.2188 92.5308
L77.5759 92.5308
" />
<path d="M77.5759 92.5308
L77.7902 92.6023
" />
<path d="M78.4331 94.0308
L78.4331 92.5308
" />
<path d="M78.4331 92.5308
L78.7902 92.5308
" />
<path d="M78.7902 92.5308
L79.0045 92.6023
" />
<path d="M79.0045 92.6023
L79.1474 92.7451
" />
<path d="M79.1474 92.7451
L79.2188 92.8880
" />
<path d="M79.2188 92.8880
L79.2902 93.1737
" />
<path d="M79.2902 93.1737
L79.2902 93.3880
" />
<path d="M79.2902 93.3880
L79.2188 93.6737
" />
<path d="M79.2188 93.6737
L79.1474 93.8165
" />
<path d="M79.1474 93.8165
L79.0045 93.9594
" />
<path d="M79.0045 93.9594
L78.7902 94.0308
" />
<path d="M78.7902 94.0308
L78.4331 94.0308
" />
<path d="M79.8617 93.6023
L80.5759 93.6023
" />
<path d="M79.7188 94.0308
L80.2188 92.5308
" />
<path d="M80.2188 92.5308
L80.7188 94.0308
" />
<path d="M82.0045 94.0308
L81.1474 94.0308
" />
<path d="M81.5759 94.0308
L81.5759 92.5308
" />
<path d="M81.5759 92.5308
L81.4331 92.7451
" />
<path d="M81.4331 92.7451
L81.2902 92.8880
" />
<path d="M81.2902 92.8880
L81.1474 92.9594
" />
</g><text x="7.8700" y="78.9900"
textLength="2.5929" font-size="2.0000" lengthAdjust="spacingAndGlyphs"
text-anchor="start" opacity="0">I1</text>
<g class="stroked-text"><desc>I1</desc>
<path d="M8.4245 78.7908
L8.4245 77.2908
" />
<path d="M9.9245 78.7908
L9.0674 78.7908
" />
<path d="M9.4959 78.7908
L9.4959 77.2908
" />
<path d="M9.4959 77.2908
L9.3531 77.5051
" />
<path d="M9.3531 77.5051
L9.2102 77.6480
" />
<path d="M9.2102 77.6480
L9.0674 77.7194
" />
</g><text x="7.8700" y="81.5300"
textLength="2.5929" font-size="2.0000" lengthAdjust="spacingAndGlyphs"
text-anchor="start" opacity="0">I2</text>
<g class="stroked-text"><desc>I2</desc>
<path d="M8.4245 81.3308
L8.4245 79.8308
" />
<path d="M9.0674 79.9737
L9.1388 79.9023
" />
<path d="M9.1388 79.9023
L9.2817 79.8308
" />
<path d="M9.2817 79.8308
L9.6388 79.8308
" />
<path d="M9.6388 79.8308
L9.7817 79.9023
" />
<path d="M9.7817 79.9023
L9.8531 79.9737
" />
<path d="M9.8531 79.9737
L9.9245 80.1165
" />
<path d="M9.9245 80.1165
L9.9245 80.2594
" />
<path d="M9.9245 80.2594
L9.8531 80.4737
" />
<path d="M9.8531 80.4737
L8.9959 81.3308
" />
<path d="M8.9959 81.3308
L9.9245 81.3308
" />
</g><text x="7.8700" y="84.0700"
textLength="7.3071" font-size="2.0000" lengthAdjust="spacingAndGlyphs"
text-anchor="start" opacity="0">Ampl1</text>
<g class="stroked-text"><desc>Ampl1</desc>
<path d="M8.3531 83.4423
L9.0674 83.4423
" />
<path d="M8.2102 83.8708
L8.7102 82.3708
" />
<path d="M8.7102 82.3708
L9.2102 83.8708
" />
<path d="M9.7102 83.8708
L9.7102 82.8708
" />
<path d="M9.7102 83.0137
L9.7817 82.9423
" />
<path d="M9.7817 82.9423
L9.9245 82.8708
" />
<path d="M9.9245 82.8708
L10.1388 82.8708
" />
<path d="M10.1388 82.8708
L10.2817 82.9423
" />
<path d="M10.2817 82.9423
L10.3531 83.0851
" />
<path d="M10.3531 83.0851
L10.3531 83.8708
" />
<path d="M10.3531 83.0851
L10.4245 82.9423
" />
<path d="M10.4245 82.9423
L10.5674 82.8708
" />
<path d="M10.5674 82.8708
L10.7817 82.8708
" />
<path d="M10.7817 82.8708
L10.9245 82.9423
" />
<path d="M10.9245 82.9423
L10.9959 83.0851
" />
<path d="M10.9959 83.0851
L10.9959 83.8708
" />
<path d="M11.7102 82.8708
L11.7102 84.3708
" />
<path d="M11.7102 82.9423
L11.8531 82.8708
" />
<path d="M11.8531 82.8708
L12.1388 82.8708
" />
<path d="M12.1388 82.8708
L12.2817 82.9423
" />
<path d="M12.2817 82.9423
L12.3531 83.0137
" />
<path d="M12.3531 83.0137
L12.4245 83.1565
" />
<path d="M12.4245 83.1565
L12.4245 83.5851
" />
<path d="M12.4245 83.5851
L12.3531 83.7280
" />
<path d="M12.3531 83.7280
L12.2817 83.7994
" />
<path d="M12.2817 83.7994
L12.1388 83.8708
" />
<path d="M12.1388 83.8708
L11.8531 83.8708
" />
<path d="M11.8531 83.8708
L11.7102 83.7994
" />
<path d="M13.2817 83.8708
L13.1388 83.7994
" />
<path d="M13.1388 83.7994
L13.0674 83.6565
" />
<path d="M13.0674 83.6565
L13.0674 82.3708
" />
<path d="M14.6388 83.8708
L13.7817 83.8708
" />
<path d="M14.2102 83.8708
L14.2102 82.3708
" />
<path d="M14.2102 82.3708
L14.0674 82.5851
" />
<path d="M14.0674 82.5851
L13.9245 82.7280
" />
<path d="M13.9245 82.7280
L13.7817 82.7994
" />
</g><text x="7.8700" y="86.6100"
textLength="7.3071" font-size="2.0000" lengthAdjust="spacingAndGlyphs"
text-anchor="start" opacity="0">Ampl2</text>
<g class="stroked-text"><desc>Ampl2</desc>
<path d="M8.3531 85.9823
L9.0674 85.9823
" />
<path d="M8.2102 86.4108
L8.7102 84.9108
" />
<path d="M8.7102 84.9108
L9.2102 86.4108
" />
<path d="M9.7102 86.4108
L9.7102 85.4108
" />
<path d="M9.7102 85.5537
L9.7817 85.4823
" />
<path d="M9.7817 85.4823
L9.9245 85.4108
" />
<path d="M9.9245 85.4108
L10.1388 85.4108
" />
<path d="M10.1388 85.4108
L10.2817 85.4823
" />
<path d="M10.2817 85.4823
L10.3531 85.6251
" />
<path d="M10.3531 85.6251
L10.3531 86.4108
" />
<path d="M10.3531 85.6251
L10.4245 85.4823
" />
<path d="M10.4245 85.4823
L10.5674 85.4108
" />
<path d="M10.5674 85.4108
L10.7817 85.4108
" />
<path d="M10.7817 85.4108
L10.9245 85.4823
" />
<path d="M10.9245 85.4823
L10.9959 85.6251
" />
<path d="M10.9959 85.6251
L10.9959 86.4108
" />
<path d="M11.7102 85.4108
L11.7102 86.9108
" />
<path d="M11.7102 85.4823
L11.8531 85.4108
" />
<path d="M11.8531 85.4108
L12.1388 85.4108
" />
<path d="M12.1388 85.4108
L12.2817 85.4823
" />
<path d="M12.2817 85.4823
L12.3531 85.5537
" />
<path d="M12.3531 85.5537
L12.4245 85.6965
" />
<path d="M12.4245 85.6965
L12.4245 86.1251
" />
<path d="M12.4245 86.1251
L12.3531 86.2680
" />
<path d="M12.3531 86.2680
L12.2817 86.3394
" />
<path d="M12.2817 86.3394
L12.1388 86.4108
" />
<path d="M12.1388 86.4108
L11.8531 86.4108
" />
<path d="M11.8531 86.4108
L11.7102 86.3394
" />
<path d="M13.2817 86.4108
L13.1388 86.3394
" />
<path d="M13.1388 86.3394
L13.0674 86.1965
" />
<path d="M13.0674 86.1965
L13.0674 84.9108
" />
<path d="M13.7817 85.0537
L13.8531 84.9823
" />
<path d="M13.8531 84.9823
L13.9959 84.9108
" />
<path d="M13.9959 84.9108
L14.3531 84.9108
" />
<path d="M14.3531 84.9108
L14.4959 84.9823
" />
<path d="M14.4959 84.9823
L14.5674 85.0537
" />
<path d="M14.5674 85.0537
L14.6388 85.1965
" />
<path d="M14.6388 85.1965
L14.6388 85.3394
" />
<path d="M14.6388 85.3394
L14.5674 85.5537
" />
<path d="M14.5674 85.5537
L13.7102 86.4108
" />
<path d="M13.7102 86.4108
L14.6388 86.4108
" />
</g><text x="7.8700" y="89.1500"
textLength="5.3786" font-size="2.0000" lengthAdjust="spacingAndGlyphs"
text-anchor="start" opacity="0">Sin1</text>
<g class="stroked-text"><desc>Sin1</desc>
<path d="M8.3531 88.8794
L8.5674 88.9508
" />
<path d="M8.5674 88.9508
L8.9245 88.9508
" />
<path d="M8.9245 88.9508
L9.0674 88.8794
" />
<path d="M9.0674 88.8794
L9.1388 88.8080
" />
<path d="M9.1388 88.8080
L9.2102 88.6651
" />
<path d="M9.2102 88.6651
L9.2102 88.5223
" />
<path d="M9.2102 88.5223
L9.1388 88.3794
" />
<path d="M9.1388 88.3794
L9.0674 88.3080
" />
<path d="M9.0674 88.3080
L8.9245 88.2365
" />
<path d="M8.9245 88.2365
L8.6388 88.1651
" />
<path d="M8.6388 88.1651
L8.4959 88.0937
" />
<path d="M8.4959 88.0937
L8.4245 88.0223
" />
<path d="M8.4245 88.0223
L8.3531 87.8794
" />
<path d="M8.3531 87.8794
L8.3531 87.7365
" />
<path d="M8.3531 87.7365
L8.4245 87.5937
" />
<path d="M8.4245 87.5937
L8.4959 87.5223
" />
<path d="M8.4959 87.5223
L8.6388 87.4508
" />
<path d="M8.6388 87.4508
L8.9959 87.4508
" />
<path d="M8.9959 87.4508
L9.2102 87.5223
" />
<path d="M9.8531 88.9508
L9.8531 87.9508
" />
<path d="M9.8531 87.4508
L9.7817 87.5223
" />
<path d="M9.7817 87.5223
L9.8531 87.5937
" />
<path d="M9.8531 87.5937
L9.9245 87.5223
" />
<path d="M9.9245 87.5223
L9.8531 87.4508
" />
<path d="M9.8531 87.4508
L9.8531 87.5937
" />
<path d="M10.5674 87.9508
L10.5674 88.9508
" />
<path d="M10.5674 88.0937
L10.6388 88.0223
" />
<path d="M10.6388 88.0223
L10.7817 87.9508
" />
<path d="M10.7817 87.9508
L10.9959 87.9508
" />
<path d="M10.9959 87.9508
L11.1388 88.0223
" />
<path d="M11.1388 88.0223
L11.2102 88.1651
" />
<path d="M11.2102 88.1651
L11.2102 88.9508
" />
<path d="M12.7102 88.9508
L11.8531 88.9508
" />
<path d="M12.2817 88.9508
L12.2817 87.4508
" />
<path d="M12.2817 87.4508
L12.1388 87.6651
" />
<path d="M12.1388 87.6651
L11.9959 87.8080
" />
<path d="M11.9959 87.8080
L11.8531 87.8794
" />
</g><text x="7.8700" y="91.6900"
textLength="5.3786" font-size="2.0000" lengthAdjust="spacingAndGlyphs"
text-anchor="start" opacity="0">Sin2</text>
<g class="stroked-text"><desc>Sin2</desc>
<path d="M8.3531 91.4194
L8.5674 91.4908
" />
<path d="M8.5674 91.4908
L8.9245 91.4908
" />
<path d="M8.9245 91.4908
L9.0674 91.4194
" />
<path d="M9.0674 91.4194
L9.1388 91.3480
" />
<path d="M9.1388 91.3480
L9.2102 91.2051
" />
<path d="M9.2102 91.2051
L9.2102 91.0623
" />
<path d="M9.2102 91.0623
L9.1388 90.9194
" />
<path d="M9.1388 90.9194
L9.0674 90.8480
" />
<path d="M9.0674 90.8480
L8.9245 90.7765
" />
<path d="M8.9245 90.7765
L8.6388 90.7051
" />
<path d="M8.6388 90.7051
L8.4959 90.6337
" />
<path d="M8.4959 90.6337
L8.4245 90.5623
" />
<path d="M8.4245 90.5623
L8.3531 90.4194
" />
<path d="M8.3531 90.4194
L8.3531 90.2765
" />
<path d="M8.3531 90.2765
L8.4245 90.1337
" />
<path d="M8.4245 90.1337
L8.4959 90.0623
" />
<path d="M8.4959 90.0623
L8.6388 89.9908
" />
<path d="M8.6388 89.9908
L8.9959 89.9908
" />
<path d="M8.9959 89.9908
L9.2102 90.0623
" />
<path d="M9.8531 91.4908
L9.8531 90.4908
" />
<path d="M9.8531 89.9908
L9.7817 90.0623
" />
<path d="M9.7817 90.0623
L9.8531 90.1337
" />
<path d="M9.8531 90.1337
L9.9245 90.0623
" />
<path d="M9.9245 90.0623
L9.8531 89.9908
" />
<path d="M9.8531 89.9908
L9.8531 90.1337
" />
<path d="M10.5674 90.4908
L10.5674 91.4908
" />
<path d="M10.5674 90.6337
L10.6388 90.5623
" />
<path d="M10.6388 90.5623
L10.7817 90.4908
" />
<path d="M10.7817 90.4908
L10.9959 90.4908
" />
<path d="M10.9959 90.4908
L11.1388 90.5623
" />
<path d="M11.1388 90.5623
L11.2102 90.7051
" />
<path d="M11.2102 90.7051
L11.2102 91.4908
" />
<path d="M11.8531 90.1337
L11.9245 90.0623
" />
<path d="M11.9245 90.0623
L12.0674 89.9908
" />
<path d="M12.0674 89.9908
L12.4245 89.9908
" />
<path d="M12.4245 89.9908
L12.5674 90.0623
" />
<path d="M12.5674 90.0623
L12.6388 90.1337
" />
<path d="M12.6388 90.1337
L12.7102 90.2765
" />
<path d="M12.7102 90.2765
L12.7102 90.4194
" />
<path d="M12.7102 90.4194
L12.6388 90.6337
" />
<path d="M12.6388 90.6337
L11.7817 91.4908
" />
<path d="M11.7817 91.4908
L12.7102 91.4908
" />
</g><text x="7.8700" y="94.2300"
textLength="5.2357" font-size="2.0000" lengthAdjust="spacingAndGlyphs"
text-anchor="start" opacity="0">SinA</text>
<g class="stroked-text"><desc>SinA</desc>
<path d="M8.3531 93.9594
L8.5674 94.0308
" />
<path d="M8.5674 94.0308
L8.9245 94.0308
" />
<path d="M8.9245 94.0308
L9.0674 93.9594
" />
<path d="M9.0674 93.9594
L9.1388 93.8880
" />
<path d="M9.1388 93.8880
L9.2102 93.7451
" />
<path d="M9.2102 93.7451
L9.2102 93.6023
" />
<path d="M9.2102 93.6023
L9.1388 93.4594
" />
<path d="M9.1388 93.4594
L9.0674 93.3880
" />
<path d="M9.0674 93.3880
L8.9245 93.3165
" />
<path d="M8.9245 93.3165
L8.6388 93.2451
" />
<path d="M8.6388 93.2451
L8.4959 93.1737
" />
<path d="M8.4959 93.1737
L8.4245 93.1023
" />
<path d="M8.4245 93.1023
L8.3531 92.9594
" />
<path d="M8.3531 92.9594
L8.3531 92.8165
" />
<path d="M8.3531 92.8165
L8.4245 92.6737
" />
<path d="M8.4245 92.6737
L8.4959 92.6023
" />
<path d="M8.4959 92.6023
L8.6388 92.5308
" />
<path d="M8.6388 92.5308
L8.9959 92.5308
" />
<path d="M8.9959 92.5308
L9.2102 92.6023
" />
<path d="M9.8531 94.0308
L9.8531 93.0308
" />
<path d="M9.8531 92.5308
L9.7817 92.6023
" />
<path d="M9.7817 92.6023
L9.8531 92.6737
" />
<path d="M9.8531 92.6737
L9.9245 92.6023
" />
<path d="M9.9245 92.6023
L9.8531 92.5308
" />
<path d="M9.8531 92.5308
L9.8531 92.6737
" />
<path d="M10.5674 93.0308
L10.5674 94.0308
" />
<path d="M10.5674 93.1737
L10.6388 93.1023
" />
<path d="M10.6388 93.1023
L10.7817 93.0308
" />
<path d="M10.7817 93.0308
L10.9959 93.0308
" />
<path d="M10.9959 93.0308
L11.1388 93.1023
" />
<path d="M11.1388 93.1023
L11.2102 93.2451
" />
<path d="M11.2102 93.2451
L11.2102 94.0308
" />
<path d="M11.8531 93.6023
L12.5674 93.6023
" />
<path d="M11.7102 94.0308
L12.2102 92.5308
" />
<path d="M12.2102 92.5308
L12.7102 94.0308
" />
</g><text x="7.8700" y="96.7700"
textLength="5.4500" font-size="2.0000" lengthAdjust="spacingAndGlyphs"
text-anchor="start" opacity="0">SinB</text>
<g class="stroked-text"><desc>SinB</desc>
<path d="M8.3531 96.4994
L8.5674 96.5708
" />
<path d="M8.5674 96.5708
L8.9245 96.5708
" />
<path d="M8.9245 96.5708
L9.0674 96.4994
" />
<path d="M9.0674 96.4994
L9.1388 96.4280
" />
<path d="M9.1388 96.4280
L9.2102 96.2851
" />
<path d="M9.2102 96.2851
L9.2102 96.1423
" />
<path d="M9.2102 96.1423
L9.1388 95.9994
" />
<path d="M9.1388 95.9994
L9.0674 95.9280
" />
<path d="M9.0674 95.9280
L8.9245 95.8565
" />
<path d="M8.9245 95.8565
L8.6388 95.7851
" />
<path d="M8.6388 95.7851
L8.4959 95.7137
" />
<path d="M8.4959 95.7137
L8.4245 95.6423
" />
<path d="M8.4245 95.6423
L8.3531 95.4994
" />
<path d="M8.3531 95.4994
L8.3531 95.3565
" />
<path d="M8.3531 95.3565
L8.4245 95.2137
" />
<path d="M8.4245 95.2137
L8.4959 95.1423
" />
<path d="M8.4959 95.1423
L8.6388 95.0708
" />
<path d="M8.6388 95.0708
L8.9959 95.0708
" />
<path d="M8.9959 95.0708
L9.2102 95.1423
" />
<path d="M9.8531 96.5708
L9.8531 95.5708
" />
<path d="M9.8531 95.0708
L9.7817 95.1423
" />
<path d="M9.7817 95.1423
L9.8531 95.2137
" />
<path d="M9.8531 95.2137
L9.9245 95.1423
" />
<path d="M9.9245 95.1423
L9.8531 95.0708
" />
<path d="M9.8531 95.0708
L9.8531 95.2137
" />
<path d="M10.5674 95.5708
L10.5674 96.5708
" />
<path d="M10.5674 95.7137
L10.6388 95.6423
" />
<path d="M10.6388 95.6423
L10.7817 95.5708
" />
<path d="M10.7817 95.5708
L10.9959 95.5708
" />
<path d="M10.9959 95.5708
L11.1388 95.6423
" />
<path d="M11.1388 95.6423
L11.2102 95.7851
" />
<path d="M11.2102 95.7851
L11.2102 96.5708
" />
<path d="M12.4245 95.7851
L12.6388 95.8565
" />
<path d="M12.6388 95.8565
L12.7102 95.9280
" />
<path d="M12.7102 95.9280
L12.7817 96.0708
" />
<path d="M12.7817 96.0708
L12.7817 96.2851
" />
<path d="M12.7817 96.2851
L12.7102 96.4280
" />
<path d="M12.7102 96.4280
L12.6388 96.4994
" />
<path d="M12.6388 96.4994
L12.4959 96.5708
" />
<path d="M12.4959 96.5708
L11.9245 96.5708
" />
<path d="M11.9245 96.5708
L11.9245 95.0708
" />
<path d="M11.9245 95.0708
L12.4245 95.0708
" />
<path d="M12.4245 95.0708
L12.5674 95.1423
" />
<path d="M12.5674 95.1423
L12.6388 95.2137
" />
<path d="M12.6388 95.2137
L12.7102 95.3565
" />
<path d="M12.7102 95.3565
L12.7102 95.4994
" />
<path d="M12.7102 95.4994
L12.6388 95.6423
" />
<path d="M12.6388 95.6423
L12.5674 95.7137
" />
<path d="M12.5674 95.7137
L12.4245 95.7851
" />
<path d="M12.4245 95.7851
L11.9245 95.7851
" />
</g><text x="7.8700" y="25.6500"
textLength="7.1643" font-size="2.0000" lengthAdjust="spacingAndGlyphs"
text-anchor="start" opacity="0">+3.3V</text>
<g class="stroked-text"><desc>+3.3V</desc>
<path d="M8.4245 24.8794
L9.5674 24.8794
" />
<path d="M8.9959 25.4508
L8.9959 24.3080
" />
<path d="M10.1388 23.9508
L11.0674 23.9508
" />
<path d="M11.0674 23.9508
L10.5674 24.5223
" />
<path d="M10.5674 24.5223
L10.7817 24.5223
" />
<path d="M10.7817 24.5223
L10.9245 24.5937
" />
<path d="M10.9245 24.5937
L10.9959 24.6651
" />
<path d="M10.9959 24.6651
L11.0674 24.8080
" />
<path d="M11.0674 24.8080
L11.0674 25.1651
" />
<path d="M11.0674 25.1651
L10.9959 25.3080
" />
<path d="M10.9959 25.3080
L10.9245 25.3794
" />
<path d="M10.9245 25.3794
L10.7817 25.4508
" />
<path d="M10.7817 25.4508
L10.3531 25.4508
" />
<path d="M10.3531 25.4508
L10.2102 25.3794
" />
<path d="M10.2102 25.3794
L10.1388 25.3080
" />
<path d="M11.7102 25.3080
L11.7817 25.3794
" />
<path d="M11.7817 25.3794
L11.7102 25.4508
" />
<path d="M11.7102 25.4508
L11.6388 25.3794
" />
<path d="M11.6388 25.3794
L11.7102 25.3080
" />
<path d="M11.7102 25.3080
L11.7102 25.4508
" />
<path d="M12.2817 23.9508
L13.2102 23.9508
" />
<path d="M13.2102 23.9508
L12.7102 24.5223
" />
<path d="M12.7102 24.5223
L12.9245 24.5223
" />
<path d="M12.9245 24.5223
L13.0674 24.5937
" />
<path d="M13.0674 24.5937
L13.1388 24.6651
" />
<path d="M13.1388 24.6651
L13.2102 24.8080
" />
<path d="M13.2102 24.8080
L13.2102 25.1651
" />
<path d="M13.2102 25.1651
L13.1388 25.3080
" />
<path d="M13.1388 25.3080
L13.0674 25.3794
" />
<path d="M13.0674 25.3794
L12.9245 25.4508
" />
<path d="M12.9245 25.4508
L12.4959 25.4508
" />
<path d="M12.4959 25.4508
L12.3531 25.3794
" />
<path d="M12.3531 25.3794
L12.2817 25.3080
" />
<path d="M13.6388 23.9508
L14.1388 25.4508
" />
<path d="M14.1388 25.4508
L14.6388 23.9508
" />
</g><text x="7.8700" y="23.1100"
textLength="5.0214" font-size="2.0000" lengthAdjust="spacingAndGlyphs"
text-anchor="start" opacity="0">-5V</text>
<g class="stroked-text"><desc>-5V</desc>
<path d="M8.4245 22.3394
L9.5674 22.3394
" />
<path d="M10.9959 21.4108
L10.2817 21.4108
" />
<path d="M10.2817 21.4108
L10.2102 22.1251
" />
<path d="M10.2102 22.1251
L10.2817 22.0537
" />
<path d="M10.2817 22.0537
L10.4245 21.9823
" />
<path d="M10.4245 21.9823
L10.7817 21.9823
" />
<path d="M10.7817 21.9823
L10.9245 22.0537
" />
<path d="M10.9245 22.0537
L10.9959 22.1251
" />
<path d="M10.9959 22.1251
L11.0674 22.2680
" />
<path d="M11.0674 22.2680
L11.0674 22.6251
" />
<path d="M11.0674 22.6251
L10.9959 22.7680
" />
<path d="M10.9959 22.7680
L10.9245 22.8394
" />
<path d="M10.9245 22.8394
L10.7817 22.9108
" />
<path d="M10.7817 22.9108
L10.4245 22.9108
" />
<path d="M10.4245 22.9108
L10.2817 22.8394
" />
<path d="M10.2817 22.8394
L10.2102 22.7680
" />
<path d="M11.4959 21.4108
L11.9959 22.9108
" />
<path d="M11.9959 22.9108
L12.4959 21.4108
" />
</g><text x="7.8700" y="20.5700"
textLength="5.0214" font-size="2.0000" lengthAdjust="spacingAndGlyphs"
text-anchor="start" opacity="0">+5V</text>
<g class="stroked-text"><desc>+5V</desc>
<path d="M8.4245 19.7994
L9.5674 19.7994
" />
<path d="M8.9959 20.3708
L8.9959 19.2280
" />
<path d="M10.9959 18.8708
L10.2817 18.8708
" />
<path d="M10.2817 18.8708
L10.2102 19.5851
" />
<path d="M10.2102 19.5851
L10.2817 19.5137
" />
<path d="M10.2817 19.5137
L10.4245 19.4423
" />
<path d="M10.4245 19.4423
L10.7817 19.4423
" />
<path d="M10.7817 19.4423
L10.9245 19.5137
" />
<path d="M10.9245 19.5137
L10.9959 19.5851
" />
<path d="M10.9959 19.5851
L11.0674 19.7280
" />
<path d="M11.0674 19.7280
L11.0674 20.0851
" />
<path d="M11.0674 20.0851
L10.9959 20.2280
" />
<path d="M10.9959 20.2280
L10.9245 20.2994
" />
<path d="M10.9245 20.2994
L10.7817 20.3708
" />
<path d="M10.7817 20.3708
L10.4245 20.3708
" />
<path d="M10.4245 20.3708
L10.2817 20.2994
" />
<path d="M10.2817 20.2994
L10.2102 20.2280
" />
<path d="M11.4959 18.8708
L11.9959 20.3708
" />
<path d="M11.9959 20.3708
L12.4959 18.8708
" />
</g><text x="7.8700" y="18.0300"
textLength="5.0214" font-size="2.0000" lengthAdjust="spacingAndGlyphs"
text-anchor="start" opacity="0">-9V</text>
<g class="stroked-text"><desc>-9V</desc>
<path d="M8.4245 17.2594
L9.5674 17.2594
" />
<path d="M10.3531 17.8308
L10.6388 17.8308
" />
<path d="M10.6388 17.8308
L10.7817 17.7594
" />
<path d="M10.7817 17.7594
L10.8531 17.6880
" />
<path d="M10.8531 17.6880
L10.9959 17.4737
" />
<path d="M10.9959 17.4737
L11.0674 17.1880
" />
<path d="M11.0674 17.1880
L11.0674 16.6165
" />
<path d="M11.0674 16.6165
L10.9959 16.4737
" />
<path d="M10.9959 16.4737
L10.9245 16.4023
" />
<path d="M10.9245 16.4023
L10.7817 16.3308
" />
<path d="M10.7817 16.3308
L10.4959 16.3308
" />
<path d="M10.4959 16.3308
L10.3531 16.4023
" />
<path d="M10.3531 16.4023
L10.2817 16.4737
" />
<path d="M10.2817 16.4737
L10.2102 16.6165
" />
<path d="M10.2102 16.6165
L10.2102 16.9737
" />
<path d="M10.2102 16.9737
L10.2817 17.1165
" />
<path d="M10.2817 17.1165
L10.3531 17.1880
" />
<path d="M10.3531 17.1880
L10.4959 17.2594
" />
<path d="M10.4959 17.2594
L10.7817 17.2594
" />
<path d="M10.7817 17.2594
L10.9245 17.1880
" />
<path d="M10.9245 17.1880
L10.9959 17.1165
" />
<path d="M10.9959 17.1165
L11.0674 16.9737
" />
<path d="M11.4959 16.3308
L11.9959 17.8308
" />
<path d="M11.9959 17.8308
L12.4959 16.3308
" />
</g><text x="7.8700" y="15.4900"
textLength="5.0214" font-size="2.0000" lengthAdjust="spacingAndGlyphs"
text-anchor="start" opacity="0">+9V</text>
<g class="stroked-text"><desc>+9V</desc>
<path d="M8.4245 14.7194
L9.5674 14.7194
" />
<path d="M8.9959 15.2908
L8.9959 14.1480
" />
<path d="M10.3531 15.2908
L10.6388 15.2908
" />
<path d="M10.6388 15.2908
L10.7817 15.2194
" />
<path d="M10.7817 15.2194
L10.8531 15.1480
" />
<path d="M10.8531 15.1480
L10.9959 14.9337
" />
<path d="M10.9959 14.9337
L11.0674 14.6480
" />
<path d="M11.0674 14.6480
L11.0674 14.0765
" />
<path d="M11.0674 14.0765
L10.9959 13.9337
" />
<path d="M10.9959 13.9337
L10.9245 13.8623
" />
<path d="M10.9245 13.8623
L10.7817 13.7908
" />
<path d="M10.7817 13.7908
L10.4959 13.7908
" />
<path d="M10.4959 13.7908
L10.3531 13.8623
" />
<path d="M10.3531 13.8623
L10.2817 13.9337
" />
<path d="M10.2817 13.9337
L10.2102 14.0765
" />
<path d="M10.2102 14.0765
L10.2102 14.4337
" />
<path d="M10.2102 14.4337
L10.2817 14.5765
" />
<path d="M10.2817 14.5765
L10.3531 14.6480
" />
<path d="M10.3531 14.6480
L10.4959 14.7194
" />
<path d="M10.4959 14.7194
L10.7817 14.7194
" />
<path d="M10.7817 14.7194
L10.9245 14.6480
" />
<path d="M10.9245 14.6480
L10.9959 14.5765
" />
<path d="M10.9959 14.5765
L11.0674 14.4337
" />
<path d="M11.4959 13.7908
L11.9959 15.2908
" />
<path d="M11.9959 15.2908
L12.4959 13.7908
" />
</g><text x="7.8700" y="12.9500"
textLength="6.4500" font-size="2.0000" lengthAdjust="spacingAndGlyphs"
text-anchor="start" opacity="0">-12V</text>
<g class="stroked-text"><desc>-12V</desc>
<path d="M8.4245 12.1794
L9.5674 12.1794
" />
<path d="M11.0674 12.7508
L10.2102 12.7508
" />
<path d="M10.6388 12.7508
L10.6388 11.2508
" />
<path d="M10.6388 11.2508
L10.4959 11.4651
" />
<path d="M10.4959 11.4651
L10.3531 11.6080
" />
<path d="M10.3531 11.6080
L10.2102 11.6794
" />
<path d="M11.6388 11.3937
L11.7102 11.3223
" />
<path d="M11.7102 11.3223
L11.8531 11.2508
" />
<path d="M11.8531 11.2508
L12.2102 11.2508
" />
<path d="M12.2102 11.2508
L12.3531 11.3223
" />
<path d="M12.3531 11.3223
L12.4245 11.3937
" />
<path d="M12.4245 11.3937
L12.4959 11.5365
" />
<path d="M12.4959 11.5365
L12.4959 11.6794
" />
<path d="M12.4959 11.6794
L12.4245 11.8937
" />
<path d="M12.4245 11.8937
L11.5674 12.7508
" />
<path d="M11.5674 12.7508
L12.4959 12.7508
" />
<path d="M12.9245 11.2508
L13.4245 12.7508
" />
<path d="M13.4245 12.7508
L13.9245 11.2508
" />
</g><text x="7.8700" y="10.4100"
textLength="6.4500" font-size="2.0000" lengthAdjust="spacingAndGlyphs"
text-anchor="start" opacity="0">+12V</text>
<g class="stroked-text"><desc>+12V</desc>
<path d="M8.4245 9.6394
L9.5674 9.6394
" />
<path d="M8.9959 10.2108
L8.9959 9.0680
" />
<path d="M11.0674 10.2108
L10.2102 10.2108
" />
<path d="M10.6388 10.2108
L10.6388 8.7108
" />
<path d="M10.6388 8.7108
L10.4959 8.9251
" />
<path d="M10.4959 8.9251
L10.3531 9.0680
" />
<path d="M10.3531 9.0680
L10.2102 9.1394
" />
<path d="M11.6388 8.8537
L11.7102 8.7823
" />
<path d="M11.7102 8.7823
L11.8531 8.7108
" />
<path d="M11.8531 8.7108
L12.2102 8.7108
" />
<path d="M12.2102 8.7108
L12.3531 8.7823
" />
<path d="M12.3531 8.7823
L12.4245 8.8537
" />
<path d="M12.4245 8.8537
L12.4959 8.9965
" />
<path d="M12.4959 8.9965
L12.4959 9.1394
" />
<path d="M12.4959 9.1394
L12.4245 9.3537
" />
<path d="M12.4245 9.3537
L11.5674 10.2108
" />
<path d="M11.5674 10.2108
L12.4959 10.2108
" />
<path d="M12.9245 8.7108
L13.4245 10.2108
" />
<path d="M13.4245 10.2108
L13.9245 8.7108
" />
</g><text x="7.8700" y="7.8700"
textLength="5.0214" font-size="2.0000" lengthAdjust="spacingAndGlyphs"
text-anchor="start" opacity="0">GND</text>
<g class="stroked-text"><desc>GND</desc>
<path d="M9.2102 6.2423
L9.0674 6.1708
" />
<path d="M9.0674 6.1708
L8.8531 6.1708
" />
<path d="M8.8531 6.1708
L8.6388 6.2423
" />
<path d="M8.6388 6.2423
L8.4959 6.3851
" />
<path d="M8.4959 6.3851
L8.4245 6.5280
" />
<path d="M8.4245 6.5280
L8.3531 6.8137
" />
<path d="M8.3531 6.8137
L8.3531 7.0280
" />
<path d="M8.3531 7.0280
L8.4245 7.3137
" />
<path d="M8.4245 7.3137
L8.4959 7.4565
" />
<path d="M8.4959 7.4565
L8.6388 7.5994
" />
<path d="M8.6388 7.5994
L8.8531 7.6708
" />
<path d="M8.8531 7.6708
L8.9959 7.6708
" />
<path d="M8.9959 7.6708
L9.2102 7.5994
" />
<path d="M9.2102 7.5994
L9.2817 7.5280
" />
<path d="M9.2817 7.5280
L9.2817 7.0280
" />
<path d="M9.2817 7.0280
L8.9959 7.0280
" />
<path d="M9.9245 7.6708
L9.9245 6.1708
" />
<path d="M9.9245 6.1708
L10.7817 7.6708
" />
<path d="M10.7817 7.6708
L10.7817 6.1708
" />
<path d="M11.4959 7.6708
L11.4959 6.1708
" />
<path d="M11.4959 6.1708
L11.8531 6.1708
" />
<path d="M11.8531 6.1708
L12.0674 6.2423
" />
<path d="M12.0674 6.2423
L12.2102 6.3851
" />
<path d="M12.2102 6.3851
L12.2817 6.5280
" />
<path d="M12.2817 6.5280
L12.3531 6.8137
" />
<path d="M12.3531 6.8137
L12.3531 7.0280
" />
<path d="M12.3531 7.0280
L12.2817 7.3137
" />
<path d="M12.2817 7.3137
L12.2102 7.4565
" />
<path d="M12.2102 7.4565
L12.0674 7.5994
" />
<path d="M12.0674 7.5994
L11.8531 7.6708
" />
<path d="M11.8531 7.6708
L11.4959 7.6708
" />
</g><g >
</g>
<g style="fill:#000000; fill-opacity:0.0; 
stroke:#000000; stroke-width:0.0000; stroke-opacity:1; 
stroke-linecap:round; stroke-linejoin:round;">
</g>
<g style="fill:#000000; fill-opacity:1.0000; 
stroke:#000000; stroke-width:0.0000; stroke-opacity:1; 
stroke-linecap:round; stroke-linejoin:round;">
<path style="fill:#000000; fill-opacity:1.0000; 
stroke:#000000; stroke-width:0.0000; stroke-opacity:1; 
stroke-linecap:round; stroke-linejoin:round;fill-rule:evenodd;"
d="M 84.4900,7.4500
84.4900,5.7500
86.1900,5.7500
86.1900,7.4500
Z" /> 
<circle cx="85.3400" cy="9.1400" r="0.8500" /> 
<circle cx="85.3400" cy="11.6800" r="0.8500" /> 
<circle cx="85.3400" cy="14.2200" r="0.8500" /> 
<circle cx="85.3400" cy="16.7600" r="0.8500" /> 
<circle cx="85.3400" cy="19.3000" r="0.8500" /> 
<circle cx="85.3400" cy="21.8400" r="0.8500" /> 
<circle cx="85.3400" cy="24.3800" r="0.8500" /> 
<circle cx="85.3400" cy="26.9200" r="0.8500" /> 
<circle cx="85.3400" cy="29.4600" r="0.8500" /> 
<circle cx="85.3400" cy="32.0000" r="0.8500" /> 
<circle cx="85.3400" cy="34.5400" r="0.8500" /> 
<circle cx="85.3400" cy="37.0800" r="0.8500" /> 
<circle cx="85.3400" cy="39.6200" r="0.8500" /> 
<circle cx="85.3400" cy="42.1600" r="0.8500" /> 
<circle cx="85.3400" cy="44.7000" r="0.8500" /> 
<circle cx="85.3400" cy="47.2400" r="0.8500" /> 
<circle cx="85.3400" cy="49.7800" r="0.8500" /> 
<circle cx="85.3400" cy="52.3200" r="0.8500" /> 
<circle cx="85.3400" cy="54.8600" r="0.8500" /> 
<circle cx="85.3400" cy="57.4000" r="0.8500" /> 
<circle cx="85.3400" cy="59.9400" r="0.8500" /> 
<circle cx="85.3400" cy="62.4800" r="0.8500" /> 
<circle cx="85.3400" cy="65.0200" r="0.8500" /> 
<circle cx="85.3400" cy="67.5600" r="0.8500" /> 
<circle cx="85.3400" cy="70.1000" r="0.8500" /> 
<circle cx="85.3400" cy="72.6400" r="0.8500" /> 
<circle cx="85.3400" cy="75.1800" r="0.8500" /> 
<circle cx="85.3400" cy="77.7200" r="0.8500" /> 
<circle cx="85.3400" cy="80.2600" r="0.8500" /> 
<circle cx="85.3400" cy="82.8000" r="0.8500" /> 
<circle cx="85.3400" cy="85.3400" r="0.8500" /> 
<circle cx="85.3400" cy="87.8800" r="0.8500" /> 
<circle cx="85.3400" cy="90.4200" r="0.8500" /> 
<circle cx="85.3400" cy="92.9600" r="0.8500" /> 
</g>
<g >
</g>
<g style="fill:#000000; fill-opacity:1.0000; 
stroke:#000000; stroke-width:0.0000; stroke-opacity:1; 
stroke-linecap:round; stroke-linejoin:round;">
<path style="fill:#000000; fill-opacity:1.0000; 
stroke:#000000; stroke-width:0.0000; stroke-opacity:1; 
stroke-linecap:round; stroke-linejoin:round;fill-rule:evenodd;"
d="M 4.4800,7.4500
4.4800,5.7500
6.1800,5.7500
6.1800,7.4500
Z" /> 
<circle cx="5.3300" cy="9.1400" r="0.8500" /> 
<circle cx="5.3300" cy="11.6800" r="0.8500" /> 
<circle cx="5.3300" cy="14.2200" r="0.8500" /> 
<circle cx="5.3300" cy="16.7600" r="0.8500" /> 
<circle cx="5.3300" cy="19.3000" r="0.8500" /> 
<circle cx="5.3300" cy="21.8400" r="0.8500" /> 
<circle cx="5.3300" cy="24.3800" r="0.8500" /> 
</g>
<g >
</g>
<g style="fill:#000000; fill-opacity:1.0000; 
stroke:#000000; stroke-width:0.0000; stroke-opacity:1; 
stroke-linecap:round; stroke-linejoin:round;">
<path style="fill:#000000; fill-opacity:1.0000; 
stroke:#000000; stroke-width:0.0000; stroke-opacity:1; 
stroke-linecap:round; stroke-linejoin:round;fill-rule:evenodd;"
d="M 4.4800,31.5800
4.4800,29.8800
6.1800,29.8800
6.1800,31.5800
Z" /> 
<circle cx="5.3300" cy="33.2700" r="0.8500" /> 
<circle cx="5.3300" cy="35.8100" r="0.8500" /> 
<circle cx="5.3300" cy="38.3500" r="0.8500" /> 
<circle cx="5.3300" cy="40.8900" r="0.8500" /> 
<circle cx="5.3300" cy="43.4300" r="0.8500" /> 
<circle cx="5.3300" cy="45.9700" r="0.8500" /> 
<circle cx="5.3300" cy="48.5100" r="0.8500" /> 
<circle cx="5.3300" cy="51.0500" r="0.8500" /> 
<circle cx="5.3300" cy="53.5900" r="0.8500" /> 
<circle cx="5.3300" cy="56.1300" r="0.8500" /> 
<circle cx="5.3300" cy="58.6700" r="0.8500" /> 
<circle cx="5.3300" cy="61.2100" r="0.8500" /> 
<circle cx="5.3300" cy="63.7500" r="0.8500" /> 
<circle cx="5.3300" cy="66.2900" r="0.8500" /> 
<circle cx="5.3300" cy="68.8300" r="0.8500" /> 
<circle cx="5.3300" cy="71.3700" r="0.8500" /> 
<circle cx="5.3300" cy="73.9100" r="0.8500" /> 
<circle cx="5.3300" cy="76.4500" r="0.8500" /> 
<circle cx="5.3300" cy="78.9900" r="0.8500" /> 
<circle cx="5.3300" cy="81.5300" r="0.8500" /> 
<circle cx="5.3300" cy="84.0700" r="0.8500" /> 
<circle cx="5.3300" cy="86.6100" r="0.8500" /> 
<circle cx="5.3300" cy="89.1500" r="0.8500" /> 
<circle cx="5.3300" cy="91.6900" r="0.8500" /> 
<circle cx="5.3300" cy="94.2300" r="0.8500" /> 
<circle cx="5.3300" cy="96.7700" r="0.8500" /> 
</g>
<g >
</g>
<g >
</g>
<g >
</g>
</g>
<g style="fill:#FFFFFF; fill-opacity:1.0000; 
stroke:#FFFFFF; stroke-width:0.0000; stroke-opacity:1; 
stroke-linecap:round; stroke-linejoin:round;">
<circle cx="85.3400" cy="6.6000" r="0.5000" /> 
</g>
<g style="fill:#FFFFFF; fill-opacity:1.0000; 
stroke:#FFFFFF; stroke-width:0.0212; stroke-opacity:1; 
stroke-linecap:round; stroke-linejoin:round;">
</g>
<g style="fill:#FFFFFF; fill-opacity:1.0000; 
stroke:#FFFFFF; stroke-width:0.0000; stroke-opacity:1; 
stroke-linecap:round; stroke-linejoin:round;">
<circle cx="85.3400" cy="9.1400" r="0.5000" /> 
</g>
<g style="fill:#FFFFFF; fill-opacity:1.0000; 
stroke:#FFFFFF; stroke-width:0.0212; stroke-opacity:1; 
stroke-linecap:round; stroke-linejoin:round;">
</g>
<g style="fill:#FFFFFF; fill-opacity:1.0000; 
stroke:#FFFFFF; stroke-width:0.0000; stroke-opacity:1; 
stroke-linecap:round; stroke-linejoin:round;">
<circle cx="85.3400" cy="11.6800" r="0.5000" /> 
</g>
<g style="fill:#FFFFFF; fill-opacity:1.0000; 
stroke:#FFFFFF; stroke-width:0.0212; stroke-opacity:1; 
stroke-linecap:round; stroke-linejoin:round;">
</g>
<g style="fill:#FFFFFF; fill-opacity:1.0000; 
stroke:#FFFFFF; stroke-width:0.0000; stroke-opacity:1; 
stroke-linecap:round; stroke-linejoin:round;">
<circle cx="85.3400" cy="14.2200" r="0.5000" /> 
</g>
<g style="fill:#FFFFFF; fill-opacity:1.0000; 
stroke:#FFFFFF; stroke-width:0.0212; stroke-opacity:1; 
stroke-linecap:round; stroke-linejoin:round;">
</g>
<g style="fill:#FFFFFF; fill-opacity:1.0000; 
stroke:#FFFFFF; stroke-width:0.0000; stroke-opacity:1; 
stroke-linecap:round; stroke-linejoin:round;">
<circle cx="85.3400" cy="16.7600" r="0.5000" /> 
</g>
<g style="fill:#FFFFFF; fill-opacity:1.0000; 
stroke:#FFFFFF; stroke-width:0.0212; stroke-opacity:1; 
stroke-linecap:round; stroke-linejoin:round;">
</g>
<g style="fill:#FFFFFF; fill-opacity:1.0000; 
stroke:#FFFFFF; stroke-width:0.0000; stroke-opacity:1; 
stroke-linecap:round; stroke-linejoin:round;">
<circle cx="85.3400" cy="19.3000" r="0.5000" /> 
</g>
<g style="fill:#FFFFFF; fill-opacity:1.0000; 
stroke:#FFFFFF; stroke-width:0.0212; stroke-opacity:1; 
stroke-linecap:round; stroke-linejoin:round;">
</g>
<g style="fill:#FFFFFF; fill-opacity:1.0000; 
stroke:#FFFFFF; stroke-width:0.0000; stroke-opacity:1; 
stroke-linecap:round; stroke-linejoin:round;">
<circle cx="85.3400" cy="21.8400" r="0.5000" /> 
</g>
<g style="fill:#FFFFFF; fill-opacity:1.0000; 
stroke:#FFFFFF; stroke-width:0.0212; stroke-opacity:1; 
stroke-linecap:round; stroke-linejoin:round;">
</g>
<g style="fill:#FFFFFF; fill-opacity:1.0000; 
stroke:#FFFFFF; stroke-width:0.0000; stroke-opacity:1; 
stroke-linecap:round; stroke-linejoin:round;">
<circle cx="85.3400" cy="24.3800" r="0.5000" /> 
</g>
<g style="fill:#FFFFFF; fill-opacity:1.0000; 
stroke:#FFFFFF; stroke-width:0.0212; stroke-opacity:1; 
stroke-linecap:round; stroke-linejoin:round;">
</g>
<g style="fill:#FFFFFF; fill-opacity:1.0000; 
stroke:#FFFFFF; stroke-width:0.0000; stroke-opacity:1; 
stroke-linecap:round; stroke-linejoin:round;">
<circle cx="85.3400" cy="26.9200" r="0.5000" /> 
</g>
<g style="fill:#FFFFFF; fill-opacity:1.0000; 
stroke:#FFFFFF; stroke-width:0.0212; stroke-opacity:1; 
stroke-linecap:round; stroke-linejoin:round;">
</g>
<g style="fill:#FFFFFF; fill-opacity:1.0000; 
stroke:#FFFFFF; stroke-width:0.0000; stroke-opacity:1; 
stroke-linecap:round; stroke-linejoin:round;">
<circle cx="85.3400" cy="29.4600" r="0.5000" /> 
</g>
<g style="fill:#FFFFFF; fill-opacity:1.0000; 
stroke:#FFFFFF; stroke-width:0.0212; stroke-opacity:1; 
stroke-linecap:round; stroke-linejoin:round;">
</g>
<g style="fill:#FFFFFF; fill-opacity:1.0000; 
stroke:#FFFFFF; stroke-width:0.0000; stroke-opacity:1; 
stroke-linecap:round; stroke-linejoin:round;">
<circle cx="85.3400" cy="32.0000" r="0.5000" /> 
</g>
<g style="fill:#FFFFFF; fill-opacity:1.0000; 
stroke:#FFFFFF; stroke-width:0.0212; stroke-opacity:1; 
stroke-linecap:round; stroke-linejoin:round;">
</g>
<g style="fill:#FFFFFF; fill-opacity:1.0000; 
stroke:#FFFFFF; stroke-width:0.0000; stroke-opacity:1; 
stroke-linecap:round; stroke-linejoin:round;">
<circle cx="85.3400" cy="34.5400" r="0.5000" /> 
</g>
<g style="fill:#FFFFFF; fill-opacity:1.0000; 
stroke:#FFFFFF; stroke-width:0.0212; stroke-opacity:1; 
stroke-linecap:round; stroke-linejoin:round;">
</g>
<g style="fill:#FFFFFF; fill-opacity:1.0000; 
stroke:#FFFFFF; stroke-width:0.0000; stroke-opacity:1; 
stroke-linecap:round; stroke-linejoin:round;">
<circle cx="85.3400" cy="37.0800" r="0.5000" /> 
</g>
<g style="fill:#FFFFFF; fill-opacity:1.0000; 
stroke:#FFFFFF; stroke-width:0.0212; stroke-opacity:1; 
stroke-linecap:round; stroke-linejoin:round;">
</g>
<g style="fill:#FFFFFF; fill-opacity:1.0000; 
stroke:#FFFFFF; stroke-width:0.0000; stroke-opacity:1; 
stroke-linecap:round; stroke-linejoin:round;">
<circle cx="85.3400" cy="39.6200" r="0.5000" /> 
</g>
<g style="fill:#FFFFFF; fill-opacity:1.0000; 
stroke:#FFFFFF; stroke-width:0.0212; stroke-opacity:1; 
stroke-linecap:round; stroke-linejoin:round;">
</g>
<g style="fill:#FFFFFF; fill-opacity:1.0000; 
stroke:#FFFFFF; stroke-width:0.0000; stroke-opacity:1; 
stroke-linecap:round; stroke-linejoin:round;">
<circle cx="85.3400" cy="42.1600" r="0.5000" /> 
</g>
<g style="fill:#FFFFFF; fill-opacity:1.0000; 
stroke:#FFFFFF; stroke-width:0.0212; stroke-opacity:1; 
stroke-linecap:round; stroke-linejoin:round;">
</g>
<g style="fill:#FFFFFF; fill-opacity:1.0000; 
stroke:#FFFFFF; stroke-width:0.0000; stroke-opacity:1; 
stroke-linecap:round; stroke-linejoin:round;">
<circle cx="85.3400" cy="44.7000" r="0.5000" /> 
</g>
<g style="fill:#FFFFFF; fill-opacity:1.0000; 
stroke:#FFFFFF; stroke-width:0.0212; stroke-opacity:1; 
stroke-linecap:round; stroke-linejoin:round;">
</g>
<g style="fill:#FFFFFF; fill-opacity:1.0000; 
stroke:#FFFFFF; stroke-width:0.0000; stroke-opacity:1; 
stroke-linecap:round; stroke-linejoin:round;">
<circle cx="85.3400" cy="47.2400" r="0.5000" /> 
</g>
<g style="fill:#FFFFFF; fill-opacity:1.0000; 
stroke:#FFFFFF; stroke-width:0.0212; stroke-opacity:1; 
stroke-linecap:round; stroke-linejoin:round;">
</g>
<g style="fill:#FFFFFF; fill-opacity:1.0000; 
stroke:#FFFFFF; stroke-width:0.0000; stroke-opacity:1; 
stroke-linecap:round; stroke-linejoin:round;">
<circle cx="85.3400" cy="49.7800" r="0.5000" /> 
</g>
<g style="fill:#FFFFFF; fill-opacity:1.0000; 
stroke:#FFFFFF; stroke-width:0.0212; stroke-opacity:1; 
stroke-linecap:round; stroke-linejoin:round;">
</g>
<g style="fill:#FFFFFF; fill-opacity:1.0000; 
stroke:#FFFFFF; stroke-width:0.0000; stroke-opacity:1; 
stroke-linecap:round; stroke-linejoin:round;">
<circle cx="85.3400" cy="52.3200" r="0.5000" /> 
</g>
<g style="fill:#FFFFFF; fill-opacity:1.0000; 
stroke:#FFFFFF; stroke-width:0.0212; stroke-opacity:1; 
stroke-linecap:round; stroke-linejoin:round;">
</g>
<g style="fill:#FFFFFF; fill-opacity:1.0000; 
stroke:#FFFFFF; stroke-width:0.0000; stroke-opacity:1; 
stroke-linecap:round; stroke-linejoin:round;">
<circle cx="85.3400" cy="54.8600" r="0.5000" /> 
</g>
<g style="fill:#FFFFFF; fill-opacity:1.0000; 
stroke:#FFFFFF; stroke-width:0.0212; stroke-opacity:1; 
stroke-linecap:round; stroke-linejoin:round;">
</g>
<g style="fill:#FFFFFF; fill-opacity:1.0000; 
stroke:#FFFFFF; stroke-width:0.0000; stroke-opacity:1; 
stroke-linecap:round; stroke-linejoin:round;">
<circle cx="85.3400" cy="57.4000" r="0.5000" /> 
</g>
<g style="fill:#FFFFFF; fill-opacity:1.0000; 
stroke:#FFFFFF; stroke-width:0.0212; stroke-opacity:1; 
stroke-linecap:round; stroke-linejoin:round;">
</g>
<g style="fill:#FFFFFF; fill-opacity:1.0000; 
stroke:#FFFFFF; stroke-width:0.0000; stroke-opacity:1; 
stroke-linecap:round; stroke-linejoin:round;">
<circle cx="85.3400" cy="59.9400" r="0.5000" /> 
</g>
<g style="fill:#FFFFFF; fill-opacity:1.0000; 
stroke:#FFFFFF; stroke-width:0.0212; stroke-opacity:1; 
stroke-linecap:round; stroke-linejoin:round;">
</g>
<g style="fill:#FFFFFF; fill-opacity:1.0000; 
stroke:#FFFFFF; stroke-width:0.0000; stroke-opacity:1; 
stroke-linecap:round; stroke-linejoin:round;">
<circle cx="85.3400" cy="62.4800" r="0.5000" /> 
</g>
<g style="fill:#FFFFFF; fill-opacity:1.0000; 
stroke:#FFFFFF; stroke-width:0.0212; stroke-opacity:1; 
stroke-linecap:round; stroke-linejoin:round;">
</g>
<g style="fill:#FFFFFF; fill-opacity:1.0000; 
stroke:#FFFFFF; stroke-width:0.0000; stroke-opacity:1; 
stroke-linecap:round; stroke-linejoin:round;">
<circle cx="85.3400" cy="65.0200" r="0.5000" /> 
</g>
<g style="fill:#FFFFFF; fill-opacity:1.0000; 
stroke:#FFFFFF; stroke-width:0.0212; stroke-opacity:1; 
stroke-linecap:round; stroke-linejoin:round;">
</g>
<g style="fill:#FFFFFF; fill-opacity:1.0000; 
stroke:#FFFFFF; stroke-width:0.0000; stroke-opacity:1; 
stroke-linecap:round; stroke-linejoin:round;">
<circle cx="85.3400" cy="67.5600" r="0.5000" /> 
</g>
<g style="fill:#FFFFFF; fill-opacity:1.0000; 
stroke:#FFFFFF; stroke-width:0.0212; stroke-opacity:1; 
stroke-linecap:round; stroke-linejoin:round;">
</g>
<g style="fill:#FFFFFF; fill-opacity:1.0000; 
stroke:#FFFFFF; stroke-width:0.0000; stroke-opacity:1; 
stroke-linecap:round; stroke-linejoin:round;">
<circle cx="85.3400" cy="70.1000" r="0.5000" /> 
</g>
<g style="fill:#FFFFFF; fill-opacity:1.0000; 
stroke:#FFFFFF; stroke-width:0.0212; stroke-opacity:1; 
stroke-linecap:round; stroke-linejoin:round;">
</g>
<g style="fill:#FFFFFF; fill-opacity:1.0000; 
stroke:#FFFFFF; stroke-width:0.0000; stroke-opacity:1; 
stroke-linecap:round; stroke-linejoin:round;">
<circle cx="85.3400" cy="72.6400" r="0.5000" /> 
</g>
<g style="fill:#FFFFFF; fill-opacity:1.0000; 
stroke:#FFFFFF; stroke-width:0.0212; stroke-opacity:1; 
stroke-linecap:round; stroke-linejoin:round;">
</g>
<g style="fill:#FFFFFF; fill-opacity:1.0000; 
stroke:#FFFFFF; stroke-width:0.0000; stroke-opacity:1; 
stroke-linecap:round; stroke-linejoin:round;">
<circle cx="85.3400" cy="75.1800" r="0.5000" /> 
</g>
<g style="fill:#FFFFFF; fill-opacity:1.0000; 
stroke:#FFFFFF; stroke-width:0.0212; stroke-opacity:1; 
stroke-linecap:round; stroke-linejoin:round;">
</g>
<g style="fill:#FFFFFF; fill-opacity:1.0000; 
stroke:#FFFFFF; stroke-width:0.0000; stroke-opacity:1; 
stroke-linecap:round; stroke-linejoin:round;">
<circle cx="85.3400" cy="77.7200" r="0.5000" /> 
</g>
<g style="fill:#FFFFFF; fill-opacity:1.0000; 
stroke:#FFFFFF; stroke-width:0.0212; stroke-opacity:1; 
stroke-linecap:round; stroke-linejoin:round;">
</g>
<g style="fill:#FFFFFF; fill-opacity:1.0000; 
stroke:#FFFFFF; stroke-width:0.0000; stroke-opacity:1; 
stroke-linecap:round; stroke-linejoin:round;">
<circle cx="85.3400" cy="80.2600" r="0.5000" /> 
</g>
<g style="fill:#FFFFFF; fill-opacity:1.0000; 
stroke:#FFFFFF; stroke-width:0.0212; stroke-opacity:1; 
stroke-linecap:round; stroke-linejoin:round;">
</g>
<g style="fill:#FFFFFF; fill-opacity:1.0000; 
stroke:#FFFFFF; stroke-width:0.0000; stroke-opacity:1; 
stroke-linecap:round; stroke-linejoin:round;">
<circle cx="85.3400" cy="82.8000" r="0.5000" /> 
</g>
<g style="fill:#FFFFFF; fill-opacity:1.0000; 
stroke:#FFFFFF; stroke-width:0.0212; stroke-opacity:1; 
stroke-linecap:round; stroke-linejoin:round;">
</g>
<g style="fill:#FFFFFF; fill-opacity:1.0000; 
stroke:#FFFFFF; stroke-width:0.0000; stroke-opacity:1; 
stroke-linecap:round; stroke-linejoin:round;">
<circle cx="85.3400" cy="85.3400" r="0.5000" /> 
</g>
<g style="fill:#FFFFFF; fill-opacity:1.0000; 
stroke:#FFFFFF; stroke-width:0.0212; stroke-opacity:1; 
stroke-linecap:round; stroke-linejoin:round;">
</g>
<g style="fill:#FFFFFF; fill-opacity:1.0000; 
stroke:#FFFFFF; stroke-width:0.0000; stroke-opacity:1; 
stroke-linecap:round; stroke-linejoin:round;">
<circle cx="85.3400" cy="87.8800" r="0.5000" /> 
</g>
<g style="fill:#FFFFFF; fill-opacity:1.0000; 
stroke:#FFFFFF; stroke-width:0.0212; stroke-opacity:1; 
stroke-linecap:round; stroke-linejoin:round;">
</g>
<g style="fill:#FFFFFF; fill-opacity:1.0000; 
stroke:#FFFFFF; stroke-width:0.0000; stroke-opacity:1; 
stroke-linecap:round; stroke-linejoin:round;">
<circle cx="85.3400" cy="90.4200" r="0.5000" /> 
</g>
<g style="fill:#FFFFFF; fill-opacity:1.0000; 
stroke:#FFFFFF; stroke-width:0.0212; stroke-opacity:1; 
stroke-linecap:round; stroke-linejoin:round;">
</g>
<g style="fill:#FFFFFF; fill-opacity:1.0000; 
stroke:#FFFFFF; stroke-width:0.0000; stroke-opacity:1; 
stroke-linecap:round; stroke-linejoin:round;">
<circle cx="85.3400" cy="92.9600" r="0.5000" /> 
</g>
<g style="fill:#FFFFFF; fill-opacity:1.0000; 
stroke:#FFFFFF; stroke-width:0.0212; stroke-opacity:1; 
stroke-linecap:round; stroke-linejoin:round;">
</g>
<g style="fill:#FFFFFF; fill-opacity:1.0000; 
stroke:#FFFFFF; stroke-width:0.0000; stroke-opacity:1; 
stroke-linecap:round; stroke-linejoin:round;">
<circle cx="5.3300" cy="6.6000" r="0.5000" /> 
</g>
<g style="fill:#FFFFFF; fill-opacity:1.0000; 
stroke:#FFFFFF; stroke-width:0.0212; stroke-opacity:1; 
stroke-linecap:round; stroke-linejoin:round;">
</g>
<g style="fill:#FFFFFF; fill-opacity:1.0000; 
stroke:#FFFFFF; stroke-width:0.0000; stroke-opacity:1; 
stroke-linecap:round; stroke-linejoin:round;">
<circle cx="5.3300" cy="9.1400" r="0.5000" /> 
</g>
<g style="fill:#FFFFFF; fill-opacity:1.0000; 
stroke:#FFFFFF; stroke-width:0.0212; stroke-opacity:1; 
stroke-linecap:round; stroke-linejoin:round;">
</g>
<g style="fill:#FFFFFF; fill-opacity:1.0000; 
stroke:#FFFFFF; stroke-width:0.0000; stroke-opacity:1; 
stroke-linecap:round; stroke-linejoin:round;">
<circle cx="5.3300" cy="11.6800" r="0.5000" /> 
</g>
<g style="fill:#FFFFFF; fill-opacity:1.0000; 
stroke:#FFFFFF; stroke-width:0.0212; stroke-opacity:1; 
stroke-linecap:round; stroke-linejoin:round;">
</g>
<g style="fill:#FFFFFF; fill-opacity:1.0000; 
stroke:#FFFFFF; stroke-width:0.0000; stroke-opacity:1; 
stroke-linecap:round; stroke-linejoin:round;">
<circle cx="5.3300" cy="14.2200" r="0.5000" /> 
</g>
<g style="fill:#FFFFFF; fill-opacity:1.0000; 
stroke:#FFFFFF; stroke-width:0.0212; stroke-opacity:1; 
stroke-linecap:round; stroke-linejoin:round;">
</g>
<g style="fill:#FFFFFF; fill-opacity:1.0000; 
stroke:#FFFFFF; stroke-width:0.0000; stroke-opacity:1; 
stroke-linecap:round; stroke-linejoin:round;">
<circle cx="5.3300" cy="16.7600" r="0.5000" /> 
</g>
<g style="fill:#FFFFFF; fill-opacity:1.0000; 
stroke:#FFFFFF; stroke-width:0.0212; stroke-opacity:1; 
stroke-linecap:round; stroke-linejoin:round;">
</g>
<g style="fill:#FFFFFF; fill-opacity:1.0000; 
stroke:#FFFFFF; stroke-width:0.0000; stroke-opacity:1; 
stroke-linecap:round; stroke-linejoin:round;">
<circle cx="5.3300" cy="19.3000" r="0.5000" /> 
</g>
<g style="fill:#FFFFFF; fill-opacity:1.0000; 
stroke:#FFFFFF; stroke-width:0.0212; stroke-opacity:1; 
stroke-linecap:round; stroke-linejoin:round;">
</g>
<g style="fill:#FFFFFF; fill-opacity:1.0000; 
stroke:#FFFFFF; stroke-width:0.0000; stroke-opacity:1; 
stroke-linecap:round; stroke-linejoin:round;">
<circle cx="5.3300" cy="21.8400" r="0.5000" /> 
</g>
<g style="fill:#FFFFFF; fill-opacity:1.0000; 
stroke:#FFFFFF; stroke-width:0.0212; stroke-opacity:1; 
stroke-linecap:round; stroke-linejoin:round;">
</g>
<g style="fill:#FFFFFF; fill-opacity:1.0000; 
stroke:#FFFFFF; stroke-width:0.0000; stroke-opacity:1; 
stroke-linecap:round; stroke-linejoin:round;">
<circle cx="5.3300" cy="24.3800" r="0.5000" /> 
</g>
<g style="fill:#FFFFFF; fill-opacity:1.0000; 
stroke:#FFFFFF; stroke-width:0.0212; stroke-opacity:1; 
stroke-linecap:round; stroke-linejoin:round;">
</g>
<g style="fill:#FFFFFF; fill-opacity:1.0000; 
stroke:#FFFFFF; stroke-width:0.0000; stroke-opacity:1; 
stroke-linecap:round; stroke-linejoin:round;">
<circle cx="5.3300" cy="30.7300" r="0.5000" /> 
</g>
<g style="fill:#FFFFFF; fill-opacity:1.0000; 
stroke:#FFFFFF; stroke-width:0.0212; stroke-opacity:1; 
stroke-linecap:round; stroke-linejoin:round;">
</g>
<g style="fill:#FFFFFF; fill-opacity:1.0000; 
stroke:#FFFFFF; stroke-width:0.0000; stroke-opacity:1; 
stroke-linecap:round; stroke-linejoin:round;">
<circle cx="5.3300" cy="33.2700" r="0.5000" /> 
</g>
<g style="fill:#FFFFFF; fill-opacity:1.0000; 
stroke:#FFFFFF; stroke-width:0.0212; stroke-opacity:1; 
stroke-linecap:round; stroke-linejoin:round;">
</g>
<g style="fill:#FFFFFF; fill-opacity:1.0000; 
stroke:#FFFFFF; stroke-width:0.0000; stroke-opacity:1; 
stroke-linecap:round; stroke-linejoin:round;">
<circle cx="5.3300" cy="35.8100" r="0.5000" /> 
</g>
<g style="fill:#FFFFFF; fill-opacity:1.0000; 
stroke:#FFFFFF; stroke-width:0.0212; stroke-opacity:1; 
stroke-linecap:round; stroke-linejoin:round;">
</g>
<g style="fill:#FFFFFF; fill-opacity:1.0000; 
stroke:#FFFFFF; stroke-width:0.0000; stroke-opacity:1; 
stroke-linecap:round; stroke-linejoin:round;">
<circle cx="5.3300" cy="38.3500" r="0.5000" /> 
</g>
<g style="fill:#FFFFFF; fill-opacity:1.0000; 
stroke:#FFFFFF; stroke-width:0.0212; stroke-opacity:1; 
stroke-linecap:round; stroke-linejoin:round;">
</g>
<g style="fill:#FFFFFF; fill-opacity:1.0000; 
stroke:#FFFFFF; stroke-width:0.0000; stroke-opacity:1; 
stroke-linecap:round; stroke-linejoin:round;">
<circle cx="5.3300" cy="40.8900" r="0.5000" /> 
</g>
<g style="fill:#FFFFFF; fill-opacity:1.0000; 
stroke:#FFFFFF; stroke-width:0.0212; stroke-opacity:1; 
stroke-linecap:round; stroke-linejoin:round;">
</g>
<g style="fill:#FFFFFF; fill-opacity:1.0000; 
stroke:#FFFFFF; stroke-width:0.0000; stroke-opacity:1; 
stroke-linecap:round; stroke-linejoin:round;">
<circle cx="5.3300" cy="43.4300" r="0.5000" /> 
</g>
<g style="fill:#FFFFFF; fill-opacity:1.0000; 
stroke:#FFFFFF; stroke-width:0.0212; stroke-opacity:1; 
stroke-linecap:round; stroke-linejoin:round;">
</g>
<g style="fill:#FFFFFF; fill-opacity:1.0000; 
stroke:#FFFFFF; stroke-width:0.0000; stroke-opacity:1; 
stroke-linecap:round; stroke-linejoin:round;">
<circle cx="5.3300" cy="45.9700" r="0.5000" /> 
</g>
<g style="fill:#FFFFFF; fill-opacity:1.0000; 
stroke:#FFFFFF; stroke-width:0.0212; stroke-opacity:1; 
stroke-linecap:round; stroke-linejoin:round;">
</g>
<g style="fill:#FFFFFF; fill-opacity:1.0000; 
stroke:#FFFFFF; stroke-width:0.0000; stroke-opacity:1; 
stroke-linecap:round; stroke-linejoin:round;">
<circle cx="5.3300" cy="48.5100" r="0.5000" /> 
</g>
<g style="fill:#FFFFFF; fill-opacity:1.0000; 
stroke:#FFFFFF; stroke-width:0.0212; stroke-opacity:1; 
stroke-linecap:round; stroke-linejoin:round;">
</g>
<g style="fill:#FFFFFF; fill-opacity:1.0000; 
stroke:#FFFFFF; stroke-width:0.0000; stroke-opacity:1; 
stroke-linecap:round; stroke-linejoin:round;">
<circle cx="5.3300" cy="51.0500" r="0.5000" /> 
</g>
<g style="fill:#FFFFFF; fill-opacity:1.0000; 
stroke:#FFFFFF; stroke-width:0.0212; stroke-opacity:1; 
stroke-linecap:round; stroke-linejoin:round;">
</g>
<g style="fill:#FFFFFF; fill-opacity:1.0000; 
stroke:#FFFFFF; stroke-width:0.0000; stroke-opacity:1; 
stroke-linecap:round; stroke-linejoin:round;">
<circle cx="5.3300" cy="53.5900" r="0.5000" /> 
</g>
<g style="fill:#FFFFFF; fill-opacity:1.0000; 
stroke:#FFFFFF; stroke-width:0.0212; stroke-opacity:1; 
stroke-linecap:round; stroke-linejoin:round;">
</g>
<g style="fill:#FFFFFF; fill-opacity:1.0000; 
stroke:#FFFFFF; stroke-width:0.0000; stroke-opacity:1; 
stroke-linecap:round; stroke-linejoin:round;">
<circle cx="5.3300" cy="56.1300" r="0.5000" /> 
</g>
<g style="fill:#FFFFFF; fill-opacity:1.0000; 
stroke:#FFFFFF; stroke-width:0.0212; stroke-opacity:1; 
stroke-linecap:round; stroke-linejoin:round;">
</g>
<g style="fill:#FFFFFF; fill-opacity:1.0000; 
stroke:#FFFFFF; stroke-width:0.0000; stroke-opacity:1; 
stroke-linecap:round; stroke-linejoin:round;">
<circle cx="5.3300" cy="58.6700" r="0.5000" /> 
</g>
<g style="fill:#FFFFFF; fill-opacity:1.0000; 
stroke:#FFFFFF; stroke-width:0.0212; stroke-opacity:1; 
stroke-linecap:round; stroke-linejoin:round;">
</g>
<g style="fill:#FFFFFF; fill-opacity:1.0000; 
stroke:#FFFFFF; stroke-width:0.0000; stroke-opacity:1; 
stroke-linecap:round; stroke-linejoin:round;">
<circle cx="5.3300" cy="61.2100" r="0.5000" /> 
</g>
<g style="fill:#FFFFFF; fill-opacity:1.0000; 
stroke:#FFFFFF; stroke-width:0.0212; stroke-opacity:1; 
stroke-linecap:round; stroke-linejoin:round;">
</g>
<g style="fill:#FFFFFF; fill-opacity:1.0000; 
stroke:#FFFFFF; stroke-width:0.0000; stroke-opacity:1; 
stroke-linecap:round; stroke-linejoin:round;">
<circle cx="5.3300" cy="63.7500" r="0.5000" /> 
</g>
<g style="fill:#FFFFFF; fill-opacity:1.0000; 
stroke:#FFFFFF; stroke-width:0.0212; stroke-opacity:1; 
stroke-linecap:round; stroke-linejoin:round;">
</g>
<g style="fill:#FFFFFF; fill-opacity:1.0000; 
stroke:#FFFFFF; stroke-width:0.0000; stroke-opacity:1; 
stroke-linecap:round; stroke-linejoin:round;">
<circle cx="5.3300" cy="66.2900" r="0.5000" /> 
</g>
<g style="fill:#FFFFFF; fill-opacity:1.0000; 
stroke:#FFFFFF; stroke-width:0.0212; stroke-opacity:1; 
stroke-linecap:round; stroke-linejoin:round;">
</g>
<g style="fill:#FFFFFF; fill-opacity:1.0000; 
stroke:#FFFFFF; stroke-width:0.0000; stroke-opacity:1; 
stroke-linecap:round; stroke-linejoin:round;">
<circle cx="5.3300" cy="68.8300" r="0.5000" /> 
</g>
<g style="fill:#FFFFFF; fill-opacity:1.0000; 
stroke:#FFFFFF; stroke-width:0.0212; stroke-opacity:1; 
stroke-linecap:round; stroke-linejoin:round;">
</g>
<g style="fill:#FFFFFF; fill-opacity:1.0000; 
stroke:#FFFFFF; stroke-width:0.0000; stroke-opacity:1; 
stroke-linecap:round; stroke-linejoin:round;">
<circle cx="5.3300" cy="71.3700" r="0.5000" /> 
</g>
<g style="fill:#FFFFFF; fill-opacity:1.0000; 
stroke:#FFFFFF; stroke-width:0.0212; stroke-opacity:1; 
stroke-linecap:round; stroke-linejoin:round;">
</g>
<g style="fill:#FFFFFF; fill-opacity:1.0000; 
stroke:#FFFFFF; stroke-width:0.0000; stroke-opacity:1; 
stroke-linecap:round; stroke-linejoin:round;">
<circle cx="5.3300" cy="73.9100" r="0.5000" /> 
</g>
<g style="fill:#FFFFFF; fill-opacity:1.0000; 
stroke:#FFFFFF; stroke-width:0.0212; stroke-opacity:1; 
stroke-linecap:round; stroke-linejoin:round;">
</g>
<g style="fill:#FFFFFF; fill-opacity:1.0000; 
stroke:#FFFFFF; stroke-width:0.0000; stroke-opacity:1; 
stroke-linecap:round; stroke-linejoin:round;">
<circle cx="5.3300" cy="76.4500" r="0.5000" /> 
</g>
<g style="fill:#FFFFFF; fill-opacity:1.0000; 
stroke:#FFFFFF; stroke-width:0.0212; stroke-opacity:1; 
stroke-linecap:round; stroke-linejoin:round;">
</g>
<g style="fill:#FFFFFF; fill-opacity:1.0000; 
stroke:#FFFFFF; stroke-width:0.0000; stroke-opacity:1; 
stroke-linecap:round; stroke-linejoin:round;">
<circle cx="5.3300" cy="78.9900" r="0.5000" /> 
</g>
<g style="fill:#FFFFFF; fill-opacity:1.0000; 
stroke:#FFFFFF; stroke-width:0.0212; stroke-opacity:1; 
stroke-linecap:round; stroke-linejoin:round;">
</g>
<g style="fill:#FFFFFF; fill-opacity:1.0000; 
stroke:#FFFFFF; stroke-width:0.0000; stroke-opacity:1; 
stroke-linecap:round; stroke-linejoin:round;">
<circle cx="5.3300" cy="81.5300" r="0.5000" /> 
</g>
<g style="fill:#FFFFFF; fill-opacity:1.0000; 
stroke:#FFFFFF; stroke-width:0.0212; stroke-opacity:1; 
stroke-linecap:round; stroke-linejoin:round;">
</g>
<g style="fill:#FFFFFF; fill-opacity:1.0000; 
stroke:#FFFFFF; stroke-width:0.0000; stroke-opacity:1; 
stroke-linecap:round; stroke-linejoin:round;">
<circle cx="5.3300" cy="84.0700" r="0.5000" /> 
</g>
<g style="fill:#FFFFFF; fill-opacity:1.0000; 
stroke:#FFFFFF; stroke-width:0.0212; stroke-opacity:1; 
stroke-linecap:round; stroke-linejoin:round;">
</g>
<g style="fill:#FFFFFF; fill-opacity:1.0000; 
stroke:#FFFFFF; stroke-width:0.0000; stroke-opacity:1; 
stroke-linecap:round; stroke-linejoin:round;">
<circle cx="5.3300" cy="86.6100" r="0.5000" /> 
</g>
<g style="fill:#FFFFFF; fill-opacity:1.0000; 
stroke:#FFFFFF; stroke-width:0.0212; stroke-opacity:1; 
stroke-linecap:round; stroke-linejoin:round;">
</g>
<g style="fill:#FFFFFF; fill-opacity:1.0000; 
stroke:#FFFFFF; stroke-width:0.0000; stroke-opacity:1; 
stroke-linecap:round; stroke-linejoin:round;">
<circle cx="5.3300" cy="89.1500" r="0.5000" /> 
</g>
<g style="fill:#FFFFFF; fill-opacity:1.0000; 
stroke:#FFFFFF; stroke-width:0.0212; stroke-opacity:1; 
stroke-linecap:round; stroke-linejoin:round;">
</g>
<g style="fill:#FFFFFF; fill-opacity:1.0000; 
stroke:#FFFFFF; stroke-width:0.0000; stroke-opacity:1; 
stroke-linecap:round; stroke-linejoin:round;">
<circle cx="5.3300" cy="91.6900" r="0.5000" /> 
</g>
<g style="fill:#FFFFFF; fill-opacity:1.0000; 
stroke:#FFFFFF; stroke-width:0.0212; stroke-opacity:1; 
stroke-linecap:round; stroke-linejoin:round;">
</g>
<g style="fill:#FFFFFF; fill-opacity:1.0000; 
stroke:#FFFFFF; stroke-width:0.0000; stroke-opacity:1; 
stroke-linecap:round; stroke-linejoin:round;">
<circle cx="5.3300" cy="94.2300" r="0.5000" /> 
</g>
<g style="fill:#FFFFFF; fill-opacity:1.0000; 
stroke:#FFFFFF; stroke-width:0.0212; stroke-opacity:1; 
stroke-linecap:round; stroke-linejoin:round;">
</g>
<g style="fill:#FFFFFF; fill-opacity:1.0000; 
stroke:#FFFFFF; stroke-width:0.0000; stroke-opacity:1; 
stroke-linecap:round; stroke-linejoin:round;">
<circle cx="5.3300" cy="96.7700" r="0.5000" /> 
</g>
<g style="fill:#FFFFFF; fill-opacity:1.0000; 
stroke:#FFFFFF; stroke-width:0.0212; stroke-opacity:1; 
stroke-linecap:round; stroke-linejoin:round;">
</g>
<g style="fill:#000000; fill-opacity:1.0000; 
stroke:#000000; stroke-width:0.0212; stroke-opacity:1; 
stroke-linecap:round; stroke-linejoin:round;">
</g>
<g style="fill:#000000; fill-opacity:1.0000; 
stroke:#000000; stroke-width:0.5000; stroke-opacity:1; 
stroke-linecap:round; stroke-linejoin:round;">
</g>
<g style="fill:#000000; fill-opacity:0.0; 
stroke:#000000; stroke-width:0.5000; stroke-opacity:1; 
stroke-linecap:round; stroke-linejoin:round;">
<path d="M90.2500 0.2500
L0.2500 0.2500
" />
<path d="M90.2500 100.2500
L90.2500 0.2500
" />
<path d="M90.2498 100.2498
L0.2500 100.2498
" />
<path d="M0.2500 0.2500
L0.2500 100.2498
" />
<g >
</g>
<g >
</g>
<g >
</g>
<g >
</g>
<g >
</g>
<g >
</g>
</g> 
</svg>
