M48
; DRILL file {KiCad 9.0.0-9.0.0-2~ubuntu24.04.1} date 2025-03-11T17:37:37-0300
; FORMAT={-:-/ absolute / metric / decimal}
; #@! TF.CreationDate,2025-03-11T17:37:37-03:00
; #@! TF.GenerationSoftware,Kicad,Pcbnew,9.0.0-9.0.0-2~ubuntu24.04.1
; #@! TF.FileFunction,Plated,1,2,PTH
FMAT,2
METRIC
; #@! TA.AperFunction,Plated,PTH,ViaDrill
T1C0.300
; #@! TA.AperFunction,Plated,PTH,ComponentDrill
T2C0.800
; #@! TA.AperFunction,Plated,PTH,ComponentDrill
T3C0.813
; #@! TA.AperFunction,Plated,PTH,ComponentDrill
T4C1.000
; #@! TA.AperFunction,Plated,PTH,ComponentDrill
T5C1.100
%
G90
G05
T1
X70.349Y-157.671
X70.47Y-146.27
X72.975Y-146.27
X73.385Y-162.038
X73.509Y-140.759
X73.605Y-143.918
X74.014Y-135.298
X74.021Y-137.719
X74.811Y-142.482
X75.302Y-139.18
X76.786Y-139.926
X77.031Y-148.603
X77.031Y-156.086
X77.667Y-138.776
X82.0Y-136.2
X83.8Y-140.4
X84.6Y-142.4
X85.2Y-144.2
X86.867Y-138.065
X86.941Y-155.582
X87.2Y-145.4
X87.255Y-140.725
X88.188Y-148.796
X88.4Y-136.2
X92.826Y-165.64
X96.371Y-149.407
X96.415Y-155.522
X97.746Y-149.478
X97.948Y-154.596
X99.041Y-160.961
X99.245Y-156.761
X99.444Y-163.464
X100.692Y-160.858
X115.4Y-144.2
X116.0Y-141.6
X116.03Y-151.243
X121.8Y-163.8
T2
X67.58Y-136.4
X71.845Y-139.815
X71.845Y-142.355
X71.845Y-144.895
X71.845Y-147.435
X71.845Y-149.975
X71.845Y-152.515
X71.845Y-155.055
X71.99Y-158.7
X71.99Y-161.0
X75.2Y-136.4
X78.8Y-136.6
X79.465Y-139.815
X79.465Y-142.355
X79.465Y-144.895
X79.465Y-147.435
X79.465Y-149.975
X79.465Y-152.515
X79.465Y-155.055
X79.61Y-158.7
X79.61Y-161.0
X81.765Y-139.86
X81.765Y-142.4
X81.765Y-144.94
X81.765Y-147.48
X81.765Y-150.02
X81.765Y-152.56
X81.765Y-155.1
X86.42Y-136.6
X89.385Y-139.86
X89.385Y-142.4
X89.385Y-144.94
X89.385Y-147.48
X89.385Y-150.02
X89.385Y-152.56
X89.385Y-155.1
X91.675Y-151.125
X91.685Y-154.125
X94.565Y-157.345
X94.565Y-164.965
X95.135Y-135.885
X97.6Y-156.8
X97.6Y-164.42
X97.635Y-135.885
X99.295Y-151.125
X99.305Y-154.125
X101.885Y-152.165
X101.885Y-159.785
X101.935Y-142.315
X101.935Y-149.935
X105.2Y-151.795
X105.2Y-159.415
X105.3Y-141.815
X105.3Y-149.435
X107.1Y-154.4
X107.1Y-156.9
X107.3Y-144.62
X107.3Y-147.12
X107.91Y-135.885
X109.2Y-140.785
X109.2Y-148.405
X109.2Y-150.785
X109.2Y-158.405
X110.41Y-135.885
X111.18Y-144.4
X111.57Y-158.2
X111.59Y-141.4
X111.8Y-161.6
X118.8Y-144.4
X119.19Y-158.2
X119.21Y-141.4
X119.42Y-161.6
T3
X83.18Y-157.825
X83.18Y-165.445
X85.72Y-157.825
X85.72Y-165.445
X88.26Y-157.825
X88.26Y-165.445
X90.8Y-157.825
X90.8Y-165.445
X91.78Y-140.385
X91.78Y-142.925
X91.78Y-145.465
X91.78Y-148.005
X99.4Y-140.385
X99.4Y-142.925
X99.4Y-145.465
X99.4Y-148.005
X111.555Y-147.537
X111.555Y-150.077
X111.555Y-152.617
X111.555Y-155.157
X119.175Y-147.537
X119.175Y-150.077
X119.175Y-152.617
X119.175Y-155.157
T4
X66.4Y-139.84
X66.4Y-142.38
X66.4Y-144.92
X66.4Y-147.46
X66.4Y-150.0
X66.4Y-152.54
X66.4Y-155.08
X66.4Y-157.62
X66.4Y-160.16
X66.5Y-133.0
X66.65Y-165.2
X68.94Y-139.84
X68.94Y-142.38
X68.94Y-144.92
X68.94Y-147.46
X68.94Y-150.0
X68.94Y-152.54
X68.94Y-155.08
X68.94Y-157.62
X68.94Y-160.16
X69.04Y-133.0
X69.19Y-165.2
X71.58Y-133.0
X71.73Y-165.2
X74.12Y-133.0
X74.27Y-165.2
X76.66Y-133.0
X76.81Y-165.2
X79.2Y-133.0
X79.35Y-165.2
X101.675Y-164.2
X104.215Y-164.2
X106.755Y-164.2
X111.26Y-164.2
X113.8Y-164.2
X116.34Y-164.2
X122.8Y-149.525
X122.8Y-152.065
T5
X91.05Y-133.685
X91.15Y-137.885
X101.21Y-133.685
X101.31Y-137.885
X104.055Y-133.668
X104.055Y-137.985
X114.215Y-133.668
X114.215Y-137.985
M30
