G04 #@! TF.GenerationSoftware,KiCad,Pcbnew,7.0.11-7.0.11~ubuntu22.04.1*
G04 #@! TF.CreationDate,2024-05-31T21:09:43-03:00*
G04 #@! TF.ProjectId,Fonte_tensao_LM675_v05,466f6e74-655f-4746-956e-73616f5f4c4d,v02*
G04 #@! TF.SameCoordinates,Original*
G04 #@! TF.FileFunction,Legend,Top*
G04 #@! TF.FilePolarity,Positive*
%FSLAX46Y46*%
G04 Gerber Fmt 4.6, Leading zero omitted, Abs format (unit mm)*
G04 Created by KiCad (PCBNEW 7.0.11-7.0.11~ubuntu22.04.1) date 2024-05-31 21:09:43*
%MOMM*%
%LPD*%
G01*
G04 APERTURE LIST*
%ADD10C,0.150000*%
%ADD11C,0.300000*%
%ADD12O,2.000000X1.600000*%
%ADD13O,1.600000X2.000000*%
%ADD14R,1.600000X2.000000*%
%ADD15R,2.000000X1.600000*%
%ADD16R,7.000000X2.500000*%
%ADD17R,1.800000X1.800000*%
%ADD18O,1.800000X2.000000*%
%ADD19O,2.500000X1.800000*%
%ADD20R,2.500000X1.800000*%
%ADD21R,4.600000X2.000000*%
%ADD22O,4.200000X2.000000*%
%ADD23O,2.000000X4.200000*%
G04 APERTURE END LIST*
D10*
X187109669Y-138860166D02*
X187195384Y-138907785D01*
X187195384Y-138907785D02*
X187338241Y-138907785D01*
X187338241Y-138907785D02*
X187395384Y-138860166D01*
X187395384Y-138860166D02*
X187423955Y-138812546D01*
X187423955Y-138812546D02*
X187452526Y-138717308D01*
X187452526Y-138717308D02*
X187452526Y-138622070D01*
X187452526Y-138622070D02*
X187423955Y-138526832D01*
X187423955Y-138526832D02*
X187395384Y-138479213D01*
X187395384Y-138479213D02*
X187338241Y-138431594D01*
X187338241Y-138431594D02*
X187223955Y-138383975D01*
X187223955Y-138383975D02*
X187166812Y-138336356D01*
X187166812Y-138336356D02*
X187138241Y-138288737D01*
X187138241Y-138288737D02*
X187109669Y-138193499D01*
X187109669Y-138193499D02*
X187109669Y-138098261D01*
X187109669Y-138098261D02*
X187138241Y-138003023D01*
X187138241Y-138003023D02*
X187166812Y-137955404D01*
X187166812Y-137955404D02*
X187223955Y-137907785D01*
X187223955Y-137907785D02*
X187366812Y-137907785D01*
X187366812Y-137907785D02*
X187452526Y-137955404D01*
X187709670Y-138907785D02*
X187709670Y-137907785D01*
X187709670Y-137907785D02*
X187852527Y-137907785D01*
X187852527Y-137907785D02*
X187938241Y-137955404D01*
X187938241Y-137955404D02*
X187995384Y-138050642D01*
X187995384Y-138050642D02*
X188023955Y-138145880D01*
X188023955Y-138145880D02*
X188052527Y-138336356D01*
X188052527Y-138336356D02*
X188052527Y-138479213D01*
X188052527Y-138479213D02*
X188023955Y-138669689D01*
X188023955Y-138669689D02*
X187995384Y-138764927D01*
X187995384Y-138764927D02*
X187938241Y-138860166D01*
X187938241Y-138860166D02*
X187852527Y-138907785D01*
X187852527Y-138907785D02*
X187709670Y-138907785D01*
X188281098Y-138622070D02*
X188566813Y-138622070D01*
X188223955Y-138907785D02*
X188423955Y-137907785D01*
X188423955Y-137907785D02*
X188623955Y-138907785D01*
X189138241Y-138907785D02*
X188795384Y-138907785D01*
X188966813Y-138907785D02*
X188966813Y-137907785D01*
X188966813Y-137907785D02*
X188909670Y-138050642D01*
X188909670Y-138050642D02*
X188852527Y-138145880D01*
X188852527Y-138145880D02*
X188795384Y-138193499D01*
X102527387Y-65137262D02*
X102813102Y-65137262D01*
X102470244Y-65422977D02*
X102670244Y-64422977D01*
X102670244Y-64422977D02*
X102870244Y-65422977D01*
X103384530Y-64470596D02*
X103327388Y-64422977D01*
X103327388Y-64422977D02*
X103241673Y-64422977D01*
X103241673Y-64422977D02*
X103155959Y-64470596D01*
X103155959Y-64470596D02*
X103098816Y-64565834D01*
X103098816Y-64565834D02*
X103070245Y-64661072D01*
X103070245Y-64661072D02*
X103041673Y-64851548D01*
X103041673Y-64851548D02*
X103041673Y-64994405D01*
X103041673Y-64994405D02*
X103070245Y-65184881D01*
X103070245Y-65184881D02*
X103098816Y-65280119D01*
X103098816Y-65280119D02*
X103155959Y-65375358D01*
X103155959Y-65375358D02*
X103241673Y-65422977D01*
X103241673Y-65422977D02*
X103298816Y-65422977D01*
X103298816Y-65422977D02*
X103384530Y-65375358D01*
X103384530Y-65375358D02*
X103413102Y-65327738D01*
X103413102Y-65327738D02*
X103413102Y-64994405D01*
X103413102Y-64994405D02*
X103298816Y-64994405D01*
X103670245Y-65422977D02*
X103670245Y-64422977D01*
X103670245Y-64422977D02*
X104013102Y-65422977D01*
X104013102Y-65422977D02*
X104013102Y-64422977D01*
X104298816Y-65422977D02*
X104298816Y-64422977D01*
X104298816Y-64422977D02*
X104441673Y-64422977D01*
X104441673Y-64422977D02*
X104527387Y-64470596D01*
X104527387Y-64470596D02*
X104584530Y-64565834D01*
X104584530Y-64565834D02*
X104613101Y-64661072D01*
X104613101Y-64661072D02*
X104641673Y-64851548D01*
X104641673Y-64851548D02*
X104641673Y-64994405D01*
X104641673Y-64994405D02*
X104613101Y-65184881D01*
X104613101Y-65184881D02*
X104584530Y-65280119D01*
X104584530Y-65280119D02*
X104527387Y-65375358D01*
X104527387Y-65375358D02*
X104441673Y-65422977D01*
X104441673Y-65422977D02*
X104298816Y-65422977D01*
X102865924Y-140149319D02*
X102951639Y-140196938D01*
X102951639Y-140196938D02*
X103094496Y-140196938D01*
X103094496Y-140196938D02*
X103151639Y-140149319D01*
X103151639Y-140149319D02*
X103180210Y-140101699D01*
X103180210Y-140101699D02*
X103208781Y-140006461D01*
X103208781Y-140006461D02*
X103208781Y-139911223D01*
X103208781Y-139911223D02*
X103180210Y-139815985D01*
X103180210Y-139815985D02*
X103151639Y-139768366D01*
X103151639Y-139768366D02*
X103094496Y-139720747D01*
X103094496Y-139720747D02*
X102980210Y-139673128D01*
X102980210Y-139673128D02*
X102923067Y-139625509D01*
X102923067Y-139625509D02*
X102894496Y-139577890D01*
X102894496Y-139577890D02*
X102865924Y-139482652D01*
X102865924Y-139482652D02*
X102865924Y-139387414D01*
X102865924Y-139387414D02*
X102894496Y-139292176D01*
X102894496Y-139292176D02*
X102923067Y-139244557D01*
X102923067Y-139244557D02*
X102980210Y-139196938D01*
X102980210Y-139196938D02*
X103123067Y-139196938D01*
X103123067Y-139196938D02*
X103208781Y-139244557D01*
X103465925Y-140196938D02*
X103465925Y-139530271D01*
X103465925Y-139196938D02*
X103437353Y-139244557D01*
X103437353Y-139244557D02*
X103465925Y-139292176D01*
X103465925Y-139292176D02*
X103494496Y-139244557D01*
X103494496Y-139244557D02*
X103465925Y-139196938D01*
X103465925Y-139196938D02*
X103465925Y-139292176D01*
X103751639Y-139530271D02*
X103751639Y-140196938D01*
X103751639Y-139625509D02*
X103780210Y-139577890D01*
X103780210Y-139577890D02*
X103837353Y-139530271D01*
X103837353Y-139530271D02*
X103923067Y-139530271D01*
X103923067Y-139530271D02*
X103980210Y-139577890D01*
X103980210Y-139577890D02*
X104008782Y-139673128D01*
X104008782Y-139673128D02*
X104008782Y-140196938D01*
X104265924Y-139911223D02*
X104551639Y-139911223D01*
X104208781Y-140196938D02*
X104408781Y-139196938D01*
X104408781Y-139196938D02*
X104608781Y-140196938D01*
X187100000Y-105907200D02*
X187185715Y-105954819D01*
X187185715Y-105954819D02*
X187328572Y-105954819D01*
X187328572Y-105954819D02*
X187385715Y-105907200D01*
X187385715Y-105907200D02*
X187414286Y-105859580D01*
X187414286Y-105859580D02*
X187442857Y-105764342D01*
X187442857Y-105764342D02*
X187442857Y-105669104D01*
X187442857Y-105669104D02*
X187414286Y-105573866D01*
X187414286Y-105573866D02*
X187385715Y-105526247D01*
X187385715Y-105526247D02*
X187328572Y-105478628D01*
X187328572Y-105478628D02*
X187214286Y-105431009D01*
X187214286Y-105431009D02*
X187157143Y-105383390D01*
X187157143Y-105383390D02*
X187128572Y-105335771D01*
X187128572Y-105335771D02*
X187100000Y-105240533D01*
X187100000Y-105240533D02*
X187100000Y-105145295D01*
X187100000Y-105145295D02*
X187128572Y-105050057D01*
X187128572Y-105050057D02*
X187157143Y-105002438D01*
X187157143Y-105002438D02*
X187214286Y-104954819D01*
X187214286Y-104954819D02*
X187357143Y-104954819D01*
X187357143Y-104954819D02*
X187442857Y-105002438D01*
X187700001Y-105954819D02*
X187700001Y-104954819D01*
X187700001Y-104954819D02*
X187928572Y-104954819D01*
X187928572Y-104954819D02*
X187985715Y-105002438D01*
X187985715Y-105002438D02*
X188014286Y-105050057D01*
X188014286Y-105050057D02*
X188042858Y-105145295D01*
X188042858Y-105145295D02*
X188042858Y-105288152D01*
X188042858Y-105288152D02*
X188014286Y-105383390D01*
X188014286Y-105383390D02*
X187985715Y-105431009D01*
X187985715Y-105431009D02*
X187928572Y-105478628D01*
X187928572Y-105478628D02*
X187700001Y-105478628D01*
X188300001Y-105954819D02*
X188300001Y-104954819D01*
X188442858Y-106050057D02*
X188900000Y-106050057D01*
X189385715Y-105859580D02*
X189357143Y-105907200D01*
X189357143Y-105907200D02*
X189271429Y-105954819D01*
X189271429Y-105954819D02*
X189214286Y-105954819D01*
X189214286Y-105954819D02*
X189128572Y-105907200D01*
X189128572Y-105907200D02*
X189071429Y-105811961D01*
X189071429Y-105811961D02*
X189042858Y-105716723D01*
X189042858Y-105716723D02*
X189014286Y-105526247D01*
X189014286Y-105526247D02*
X189014286Y-105383390D01*
X189014286Y-105383390D02*
X189042858Y-105192914D01*
X189042858Y-105192914D02*
X189071429Y-105097676D01*
X189071429Y-105097676D02*
X189128572Y-105002438D01*
X189128572Y-105002438D02*
X189214286Y-104954819D01*
X189214286Y-104954819D02*
X189271429Y-104954819D01*
X189271429Y-104954819D02*
X189357143Y-105002438D01*
X189357143Y-105002438D02*
X189385715Y-105050057D01*
X189642858Y-105954819D02*
X189642858Y-104954819D01*
X189928572Y-105954819D02*
X189928572Y-104954819D01*
X189928572Y-104954819D02*
X190157143Y-104954819D01*
X190157143Y-104954819D02*
X190214286Y-105002438D01*
X190214286Y-105002438D02*
X190242857Y-105050057D01*
X190242857Y-105050057D02*
X190271429Y-105145295D01*
X190271429Y-105145295D02*
X190271429Y-105288152D01*
X190271429Y-105288152D02*
X190242857Y-105383390D01*
X190242857Y-105383390D02*
X190214286Y-105431009D01*
X190214286Y-105431009D02*
X190157143Y-105478628D01*
X190157143Y-105478628D02*
X189928572Y-105478628D01*
X190642857Y-104954819D02*
X190757143Y-104954819D01*
X190757143Y-104954819D02*
X190814286Y-105002438D01*
X190814286Y-105002438D02*
X190871429Y-105097676D01*
X190871429Y-105097676D02*
X190900000Y-105288152D01*
X190900000Y-105288152D02*
X190900000Y-105621485D01*
X190900000Y-105621485D02*
X190871429Y-105811961D01*
X190871429Y-105811961D02*
X190814286Y-105907200D01*
X190814286Y-105907200D02*
X190757143Y-105954819D01*
X190757143Y-105954819D02*
X190642857Y-105954819D01*
X190642857Y-105954819D02*
X190585715Y-105907200D01*
X190585715Y-105907200D02*
X190528572Y-105811961D01*
X190528572Y-105811961D02*
X190500000Y-105621485D01*
X190500000Y-105621485D02*
X190500000Y-105288152D01*
X190500000Y-105288152D02*
X190528572Y-105097676D01*
X190528572Y-105097676D02*
X190585715Y-105002438D01*
X190585715Y-105002438D02*
X190642857Y-104954819D01*
X187452526Y-117635404D02*
X187395384Y-117587785D01*
X187395384Y-117587785D02*
X187309669Y-117587785D01*
X187309669Y-117587785D02*
X187223955Y-117635404D01*
X187223955Y-117635404D02*
X187166812Y-117730642D01*
X187166812Y-117730642D02*
X187138241Y-117825880D01*
X187138241Y-117825880D02*
X187109669Y-118016356D01*
X187109669Y-118016356D02*
X187109669Y-118159213D01*
X187109669Y-118159213D02*
X187138241Y-118349689D01*
X187138241Y-118349689D02*
X187166812Y-118444927D01*
X187166812Y-118444927D02*
X187223955Y-118540166D01*
X187223955Y-118540166D02*
X187309669Y-118587785D01*
X187309669Y-118587785D02*
X187366812Y-118587785D01*
X187366812Y-118587785D02*
X187452526Y-118540166D01*
X187452526Y-118540166D02*
X187481098Y-118492546D01*
X187481098Y-118492546D02*
X187481098Y-118159213D01*
X187481098Y-118159213D02*
X187366812Y-118159213D01*
X187738241Y-118587785D02*
X187738241Y-117587785D01*
X187738241Y-117587785D02*
X188081098Y-118587785D01*
X188081098Y-118587785D02*
X188081098Y-117587785D01*
X188366812Y-118587785D02*
X188366812Y-117587785D01*
X188366812Y-117587785D02*
X188509669Y-117587785D01*
X188509669Y-117587785D02*
X188595383Y-117635404D01*
X188595383Y-117635404D02*
X188652526Y-117730642D01*
X188652526Y-117730642D02*
X188681097Y-117825880D01*
X188681097Y-117825880D02*
X188709669Y-118016356D01*
X188709669Y-118016356D02*
X188709669Y-118159213D01*
X188709669Y-118159213D02*
X188681097Y-118349689D01*
X188681097Y-118349689D02*
X188652526Y-118444927D01*
X188652526Y-118444927D02*
X188595383Y-118540166D01*
X188595383Y-118540166D02*
X188509669Y-118587785D01*
X188509669Y-118587785D02*
X188366812Y-118587785D01*
X187481098Y-98172546D02*
X187452526Y-98220166D01*
X187452526Y-98220166D02*
X187366812Y-98267785D01*
X187366812Y-98267785D02*
X187309669Y-98267785D01*
X187309669Y-98267785D02*
X187223955Y-98220166D01*
X187223955Y-98220166D02*
X187166812Y-98124927D01*
X187166812Y-98124927D02*
X187138241Y-98029689D01*
X187138241Y-98029689D02*
X187109669Y-97839213D01*
X187109669Y-97839213D02*
X187109669Y-97696356D01*
X187109669Y-97696356D02*
X187138241Y-97505880D01*
X187138241Y-97505880D02*
X187166812Y-97410642D01*
X187166812Y-97410642D02*
X187223955Y-97315404D01*
X187223955Y-97315404D02*
X187309669Y-97267785D01*
X187309669Y-97267785D02*
X187366812Y-97267785D01*
X187366812Y-97267785D02*
X187452526Y-97315404D01*
X187452526Y-97315404D02*
X187481098Y-97363023D01*
X187709669Y-98220166D02*
X187795384Y-98267785D01*
X187795384Y-98267785D02*
X187938241Y-98267785D01*
X187938241Y-98267785D02*
X187995384Y-98220166D01*
X187995384Y-98220166D02*
X188023955Y-98172546D01*
X188023955Y-98172546D02*
X188052526Y-98077308D01*
X188052526Y-98077308D02*
X188052526Y-97982070D01*
X188052526Y-97982070D02*
X188023955Y-97886832D01*
X188023955Y-97886832D02*
X187995384Y-97839213D01*
X187995384Y-97839213D02*
X187938241Y-97791594D01*
X187938241Y-97791594D02*
X187823955Y-97743975D01*
X187823955Y-97743975D02*
X187766812Y-97696356D01*
X187766812Y-97696356D02*
X187738241Y-97648737D01*
X187738241Y-97648737D02*
X187709669Y-97553499D01*
X187709669Y-97553499D02*
X187709669Y-97458261D01*
X187709669Y-97458261D02*
X187738241Y-97363023D01*
X187738241Y-97363023D02*
X187766812Y-97315404D01*
X187766812Y-97315404D02*
X187823955Y-97267785D01*
X187823955Y-97267785D02*
X187966812Y-97267785D01*
X187966812Y-97267785D02*
X188052526Y-97315404D01*
X188623955Y-98267785D02*
X188281098Y-98267785D01*
X188452527Y-98267785D02*
X188452527Y-97267785D01*
X188452527Y-97267785D02*
X188395384Y-97410642D01*
X188395384Y-97410642D02*
X188338241Y-97505880D01*
X188338241Y-97505880D02*
X188281098Y-97553499D01*
X187511644Y-71783696D02*
X187454502Y-71736077D01*
X187454502Y-71736077D02*
X187368787Y-71736077D01*
X187368787Y-71736077D02*
X187283073Y-71783696D01*
X187283073Y-71783696D02*
X187225930Y-71878934D01*
X187225930Y-71878934D02*
X187197359Y-71974172D01*
X187197359Y-71974172D02*
X187168787Y-72164648D01*
X187168787Y-72164648D02*
X187168787Y-72307505D01*
X187168787Y-72307505D02*
X187197359Y-72497981D01*
X187197359Y-72497981D02*
X187225930Y-72593219D01*
X187225930Y-72593219D02*
X187283073Y-72688458D01*
X187283073Y-72688458D02*
X187368787Y-72736077D01*
X187368787Y-72736077D02*
X187425930Y-72736077D01*
X187425930Y-72736077D02*
X187511644Y-72688458D01*
X187511644Y-72688458D02*
X187540216Y-72640838D01*
X187540216Y-72640838D02*
X187540216Y-72307505D01*
X187540216Y-72307505D02*
X187425930Y-72307505D01*
X187797359Y-72736077D02*
X187797359Y-71736077D01*
X187797359Y-71736077D02*
X188140216Y-72736077D01*
X188140216Y-72736077D02*
X188140216Y-71736077D01*
X188425930Y-72736077D02*
X188425930Y-71736077D01*
X188425930Y-71736077D02*
X188568787Y-71736077D01*
X188568787Y-71736077D02*
X188654501Y-71783696D01*
X188654501Y-71783696D02*
X188711644Y-71878934D01*
X188711644Y-71878934D02*
X188740215Y-71974172D01*
X188740215Y-71974172D02*
X188768787Y-72164648D01*
X188768787Y-72164648D02*
X188768787Y-72307505D01*
X188768787Y-72307505D02*
X188740215Y-72497981D01*
X188740215Y-72497981D02*
X188711644Y-72593219D01*
X188711644Y-72593219D02*
X188654501Y-72688458D01*
X188654501Y-72688458D02*
X188568787Y-72736077D01*
X188568787Y-72736077D02*
X188425930Y-72736077D01*
X102809959Y-75202024D02*
X103267102Y-75202024D01*
X103581387Y-75582977D02*
X103695673Y-75582977D01*
X103695673Y-75582977D02*
X103752816Y-75535358D01*
X103752816Y-75535358D02*
X103781387Y-75487738D01*
X103781387Y-75487738D02*
X103838530Y-75344881D01*
X103838530Y-75344881D02*
X103867101Y-75154405D01*
X103867101Y-75154405D02*
X103867101Y-74773453D01*
X103867101Y-74773453D02*
X103838530Y-74678215D01*
X103838530Y-74678215D02*
X103809959Y-74630596D01*
X103809959Y-74630596D02*
X103752816Y-74582977D01*
X103752816Y-74582977D02*
X103638530Y-74582977D01*
X103638530Y-74582977D02*
X103581387Y-74630596D01*
X103581387Y-74630596D02*
X103552816Y-74678215D01*
X103552816Y-74678215D02*
X103524244Y-74773453D01*
X103524244Y-74773453D02*
X103524244Y-75011548D01*
X103524244Y-75011548D02*
X103552816Y-75106786D01*
X103552816Y-75106786D02*
X103581387Y-75154405D01*
X103581387Y-75154405D02*
X103638530Y-75202024D01*
X103638530Y-75202024D02*
X103752816Y-75202024D01*
X103752816Y-75202024D02*
X103809959Y-75154405D01*
X103809959Y-75154405D02*
X103838530Y-75106786D01*
X103838530Y-75106786D02*
X103867101Y-75011548D01*
X104038530Y-74582977D02*
X104238530Y-75582977D01*
X104238530Y-75582977D02*
X104438530Y-74582977D01*
X102654384Y-137377776D02*
X102940099Y-137377776D01*
X102597241Y-137663491D02*
X102797241Y-136663491D01*
X102797241Y-136663491D02*
X102997241Y-137663491D01*
X103511527Y-136711110D02*
X103454385Y-136663491D01*
X103454385Y-136663491D02*
X103368670Y-136663491D01*
X103368670Y-136663491D02*
X103282956Y-136711110D01*
X103282956Y-136711110D02*
X103225813Y-136806348D01*
X103225813Y-136806348D02*
X103197242Y-136901586D01*
X103197242Y-136901586D02*
X103168670Y-137092062D01*
X103168670Y-137092062D02*
X103168670Y-137234919D01*
X103168670Y-137234919D02*
X103197242Y-137425395D01*
X103197242Y-137425395D02*
X103225813Y-137520633D01*
X103225813Y-137520633D02*
X103282956Y-137615872D01*
X103282956Y-137615872D02*
X103368670Y-137663491D01*
X103368670Y-137663491D02*
X103425813Y-137663491D01*
X103425813Y-137663491D02*
X103511527Y-137615872D01*
X103511527Y-137615872D02*
X103540099Y-137568252D01*
X103540099Y-137568252D02*
X103540099Y-137234919D01*
X103540099Y-137234919D02*
X103425813Y-137234919D01*
X103797242Y-137663491D02*
X103797242Y-136663491D01*
X103797242Y-136663491D02*
X104140099Y-137663491D01*
X104140099Y-137663491D02*
X104140099Y-136663491D01*
X104425813Y-137663491D02*
X104425813Y-136663491D01*
X104425813Y-136663491D02*
X104568670Y-136663491D01*
X104568670Y-136663491D02*
X104654384Y-136711110D01*
X104654384Y-136711110D02*
X104711527Y-136806348D01*
X104711527Y-136806348D02*
X104740098Y-136901586D01*
X104740098Y-136901586D02*
X104768670Y-137092062D01*
X104768670Y-137092062D02*
X104768670Y-137234919D01*
X104768670Y-137234919D02*
X104740098Y-137425395D01*
X104740098Y-137425395D02*
X104711527Y-137520633D01*
X104711527Y-137520633D02*
X104654384Y-137615872D01*
X104654384Y-137615872D02*
X104568670Y-137663491D01*
X104568670Y-137663491D02*
X104425813Y-137663491D01*
X102628017Y-111822866D02*
X102913732Y-111822866D01*
X102570874Y-112108581D02*
X102770874Y-111108581D01*
X102770874Y-111108581D02*
X102970874Y-112108581D01*
X103485160Y-111156200D02*
X103428018Y-111108581D01*
X103428018Y-111108581D02*
X103342303Y-111108581D01*
X103342303Y-111108581D02*
X103256589Y-111156200D01*
X103256589Y-111156200D02*
X103199446Y-111251438D01*
X103199446Y-111251438D02*
X103170875Y-111346676D01*
X103170875Y-111346676D02*
X103142303Y-111537152D01*
X103142303Y-111537152D02*
X103142303Y-111680009D01*
X103142303Y-111680009D02*
X103170875Y-111870485D01*
X103170875Y-111870485D02*
X103199446Y-111965723D01*
X103199446Y-111965723D02*
X103256589Y-112060962D01*
X103256589Y-112060962D02*
X103342303Y-112108581D01*
X103342303Y-112108581D02*
X103399446Y-112108581D01*
X103399446Y-112108581D02*
X103485160Y-112060962D01*
X103485160Y-112060962D02*
X103513732Y-112013342D01*
X103513732Y-112013342D02*
X103513732Y-111680009D01*
X103513732Y-111680009D02*
X103399446Y-111680009D01*
X103770875Y-112108581D02*
X103770875Y-111108581D01*
X103770875Y-111108581D02*
X104113732Y-112108581D01*
X104113732Y-112108581D02*
X104113732Y-111108581D01*
X104399446Y-112108581D02*
X104399446Y-111108581D01*
X104399446Y-111108581D02*
X104542303Y-111108581D01*
X104542303Y-111108581D02*
X104628017Y-111156200D01*
X104628017Y-111156200D02*
X104685160Y-111251438D01*
X104685160Y-111251438D02*
X104713731Y-111346676D01*
X104713731Y-111346676D02*
X104742303Y-111537152D01*
X104742303Y-111537152D02*
X104742303Y-111680009D01*
X104742303Y-111680009D02*
X104713731Y-111870485D01*
X104713731Y-111870485D02*
X104685160Y-111965723D01*
X104685160Y-111965723D02*
X104628017Y-112060962D01*
X104628017Y-112060962D02*
X104542303Y-112108581D01*
X104542303Y-112108581D02*
X104399446Y-112108581D01*
X187452526Y-125255404D02*
X187395384Y-125207785D01*
X187395384Y-125207785D02*
X187309669Y-125207785D01*
X187309669Y-125207785D02*
X187223955Y-125255404D01*
X187223955Y-125255404D02*
X187166812Y-125350642D01*
X187166812Y-125350642D02*
X187138241Y-125445880D01*
X187138241Y-125445880D02*
X187109669Y-125636356D01*
X187109669Y-125636356D02*
X187109669Y-125779213D01*
X187109669Y-125779213D02*
X187138241Y-125969689D01*
X187138241Y-125969689D02*
X187166812Y-126064927D01*
X187166812Y-126064927D02*
X187223955Y-126160166D01*
X187223955Y-126160166D02*
X187309669Y-126207785D01*
X187309669Y-126207785D02*
X187366812Y-126207785D01*
X187366812Y-126207785D02*
X187452526Y-126160166D01*
X187452526Y-126160166D02*
X187481098Y-126112546D01*
X187481098Y-126112546D02*
X187481098Y-125779213D01*
X187481098Y-125779213D02*
X187366812Y-125779213D01*
X187738241Y-126207785D02*
X187738241Y-125207785D01*
X187738241Y-125207785D02*
X188081098Y-126207785D01*
X188081098Y-126207785D02*
X188081098Y-125207785D01*
X188366812Y-126207785D02*
X188366812Y-125207785D01*
X188366812Y-125207785D02*
X188509669Y-125207785D01*
X188509669Y-125207785D02*
X188595383Y-125255404D01*
X188595383Y-125255404D02*
X188652526Y-125350642D01*
X188652526Y-125350642D02*
X188681097Y-125445880D01*
X188681097Y-125445880D02*
X188709669Y-125636356D01*
X188709669Y-125636356D02*
X188709669Y-125779213D01*
X188709669Y-125779213D02*
X188681097Y-125969689D01*
X188681097Y-125969689D02*
X188652526Y-126064927D01*
X188652526Y-126064927D02*
X188595383Y-126160166D01*
X188595383Y-126160166D02*
X188509669Y-126207785D01*
X188509669Y-126207785D02*
X188366812Y-126207785D01*
X186943359Y-67275124D02*
X187400502Y-67275124D01*
X187171930Y-67656077D02*
X187171930Y-66894172D01*
X187629073Y-66656077D02*
X188000501Y-66656077D01*
X188000501Y-66656077D02*
X187800501Y-67037029D01*
X187800501Y-67037029D02*
X187886216Y-67037029D01*
X187886216Y-67037029D02*
X187943359Y-67084648D01*
X187943359Y-67084648D02*
X187971930Y-67132267D01*
X187971930Y-67132267D02*
X188000501Y-67227505D01*
X188000501Y-67227505D02*
X188000501Y-67465600D01*
X188000501Y-67465600D02*
X187971930Y-67560838D01*
X187971930Y-67560838D02*
X187943359Y-67608458D01*
X187943359Y-67608458D02*
X187886216Y-67656077D01*
X187886216Y-67656077D02*
X187714787Y-67656077D01*
X187714787Y-67656077D02*
X187657644Y-67608458D01*
X187657644Y-67608458D02*
X187629073Y-67560838D01*
X188257645Y-67560838D02*
X188286216Y-67608458D01*
X188286216Y-67608458D02*
X188257645Y-67656077D01*
X188257645Y-67656077D02*
X188229073Y-67608458D01*
X188229073Y-67608458D02*
X188257645Y-67560838D01*
X188257645Y-67560838D02*
X188257645Y-67656077D01*
X188486216Y-66656077D02*
X188857644Y-66656077D01*
X188857644Y-66656077D02*
X188657644Y-67037029D01*
X188657644Y-67037029D02*
X188743359Y-67037029D01*
X188743359Y-67037029D02*
X188800502Y-67084648D01*
X188800502Y-67084648D02*
X188829073Y-67132267D01*
X188829073Y-67132267D02*
X188857644Y-67227505D01*
X188857644Y-67227505D02*
X188857644Y-67465600D01*
X188857644Y-67465600D02*
X188829073Y-67560838D01*
X188829073Y-67560838D02*
X188800502Y-67608458D01*
X188800502Y-67608458D02*
X188743359Y-67656077D01*
X188743359Y-67656077D02*
X188571930Y-67656077D01*
X188571930Y-67656077D02*
X188514787Y-67608458D01*
X188514787Y-67608458D02*
X188486216Y-67560838D01*
X189029073Y-66656077D02*
X189229073Y-67656077D01*
X189229073Y-67656077D02*
X189429073Y-66656077D01*
X187511644Y-64417696D02*
X187454502Y-64370077D01*
X187454502Y-64370077D02*
X187368787Y-64370077D01*
X187368787Y-64370077D02*
X187283073Y-64417696D01*
X187283073Y-64417696D02*
X187225930Y-64512934D01*
X187225930Y-64512934D02*
X187197359Y-64608172D01*
X187197359Y-64608172D02*
X187168787Y-64798648D01*
X187168787Y-64798648D02*
X187168787Y-64941505D01*
X187168787Y-64941505D02*
X187197359Y-65131981D01*
X187197359Y-65131981D02*
X187225930Y-65227219D01*
X187225930Y-65227219D02*
X187283073Y-65322458D01*
X187283073Y-65322458D02*
X187368787Y-65370077D01*
X187368787Y-65370077D02*
X187425930Y-65370077D01*
X187425930Y-65370077D02*
X187511644Y-65322458D01*
X187511644Y-65322458D02*
X187540216Y-65274838D01*
X187540216Y-65274838D02*
X187540216Y-64941505D01*
X187540216Y-64941505D02*
X187425930Y-64941505D01*
X187797359Y-65370077D02*
X187797359Y-64370077D01*
X187797359Y-64370077D02*
X188140216Y-65370077D01*
X188140216Y-65370077D02*
X188140216Y-64370077D01*
X188425930Y-65370077D02*
X188425930Y-64370077D01*
X188425930Y-64370077D02*
X188568787Y-64370077D01*
X188568787Y-64370077D02*
X188654501Y-64417696D01*
X188654501Y-64417696D02*
X188711644Y-64512934D01*
X188711644Y-64512934D02*
X188740215Y-64608172D01*
X188740215Y-64608172D02*
X188768787Y-64798648D01*
X188768787Y-64798648D02*
X188768787Y-64941505D01*
X188768787Y-64941505D02*
X188740215Y-65131981D01*
X188740215Y-65131981D02*
X188711644Y-65227219D01*
X188711644Y-65227219D02*
X188654501Y-65322458D01*
X188654501Y-65322458D02*
X188568787Y-65370077D01*
X188568787Y-65370077D02*
X188425930Y-65370077D01*
X102527387Y-72757262D02*
X102813102Y-72757262D01*
X102470244Y-73042977D02*
X102670244Y-72042977D01*
X102670244Y-72042977D02*
X102870244Y-73042977D01*
X103384530Y-72090596D02*
X103327388Y-72042977D01*
X103327388Y-72042977D02*
X103241673Y-72042977D01*
X103241673Y-72042977D02*
X103155959Y-72090596D01*
X103155959Y-72090596D02*
X103098816Y-72185834D01*
X103098816Y-72185834D02*
X103070245Y-72281072D01*
X103070245Y-72281072D02*
X103041673Y-72471548D01*
X103041673Y-72471548D02*
X103041673Y-72614405D01*
X103041673Y-72614405D02*
X103070245Y-72804881D01*
X103070245Y-72804881D02*
X103098816Y-72900119D01*
X103098816Y-72900119D02*
X103155959Y-72995358D01*
X103155959Y-72995358D02*
X103241673Y-73042977D01*
X103241673Y-73042977D02*
X103298816Y-73042977D01*
X103298816Y-73042977D02*
X103384530Y-72995358D01*
X103384530Y-72995358D02*
X103413102Y-72947738D01*
X103413102Y-72947738D02*
X103413102Y-72614405D01*
X103413102Y-72614405D02*
X103298816Y-72614405D01*
X103670245Y-73042977D02*
X103670245Y-72042977D01*
X103670245Y-72042977D02*
X104013102Y-73042977D01*
X104013102Y-73042977D02*
X104013102Y-72042977D01*
X104298816Y-73042977D02*
X104298816Y-72042977D01*
X104298816Y-72042977D02*
X104441673Y-72042977D01*
X104441673Y-72042977D02*
X104527387Y-72090596D01*
X104527387Y-72090596D02*
X104584530Y-72185834D01*
X104584530Y-72185834D02*
X104613101Y-72281072D01*
X104613101Y-72281072D02*
X104641673Y-72471548D01*
X104641673Y-72471548D02*
X104641673Y-72614405D01*
X104641673Y-72614405D02*
X104613101Y-72804881D01*
X104613101Y-72804881D02*
X104584530Y-72900119D01*
X104584530Y-72900119D02*
X104527387Y-72995358D01*
X104527387Y-72995358D02*
X104441673Y-73042977D01*
X104441673Y-73042977D02*
X104298816Y-73042977D01*
X187452526Y-110015404D02*
X187395384Y-109967785D01*
X187395384Y-109967785D02*
X187309669Y-109967785D01*
X187309669Y-109967785D02*
X187223955Y-110015404D01*
X187223955Y-110015404D02*
X187166812Y-110110642D01*
X187166812Y-110110642D02*
X187138241Y-110205880D01*
X187138241Y-110205880D02*
X187109669Y-110396356D01*
X187109669Y-110396356D02*
X187109669Y-110539213D01*
X187109669Y-110539213D02*
X187138241Y-110729689D01*
X187138241Y-110729689D02*
X187166812Y-110824927D01*
X187166812Y-110824927D02*
X187223955Y-110920166D01*
X187223955Y-110920166D02*
X187309669Y-110967785D01*
X187309669Y-110967785D02*
X187366812Y-110967785D01*
X187366812Y-110967785D02*
X187452526Y-110920166D01*
X187452526Y-110920166D02*
X187481098Y-110872546D01*
X187481098Y-110872546D02*
X187481098Y-110539213D01*
X187481098Y-110539213D02*
X187366812Y-110539213D01*
X187738241Y-110967785D02*
X187738241Y-109967785D01*
X187738241Y-109967785D02*
X188081098Y-110967785D01*
X188081098Y-110967785D02*
X188081098Y-109967785D01*
X188366812Y-110967785D02*
X188366812Y-109967785D01*
X188366812Y-109967785D02*
X188509669Y-109967785D01*
X188509669Y-109967785D02*
X188595383Y-110015404D01*
X188595383Y-110015404D02*
X188652526Y-110110642D01*
X188652526Y-110110642D02*
X188681097Y-110205880D01*
X188681097Y-110205880D02*
X188709669Y-110396356D01*
X188709669Y-110396356D02*
X188709669Y-110539213D01*
X188709669Y-110539213D02*
X188681097Y-110729689D01*
X188681097Y-110729689D02*
X188652526Y-110824927D01*
X188652526Y-110824927D02*
X188595383Y-110920166D01*
X188595383Y-110920166D02*
X188509669Y-110967785D01*
X188509669Y-110967785D02*
X188366812Y-110967785D01*
X102621311Y-147309712D02*
X102907026Y-147309712D01*
X102564168Y-147595427D02*
X102764168Y-146595427D01*
X102764168Y-146595427D02*
X102964168Y-147595427D01*
X103478454Y-146643046D02*
X103421312Y-146595427D01*
X103421312Y-146595427D02*
X103335597Y-146595427D01*
X103335597Y-146595427D02*
X103249883Y-146643046D01*
X103249883Y-146643046D02*
X103192740Y-146738284D01*
X103192740Y-146738284D02*
X103164169Y-146833522D01*
X103164169Y-146833522D02*
X103135597Y-147023998D01*
X103135597Y-147023998D02*
X103135597Y-147166855D01*
X103135597Y-147166855D02*
X103164169Y-147357331D01*
X103164169Y-147357331D02*
X103192740Y-147452569D01*
X103192740Y-147452569D02*
X103249883Y-147547808D01*
X103249883Y-147547808D02*
X103335597Y-147595427D01*
X103335597Y-147595427D02*
X103392740Y-147595427D01*
X103392740Y-147595427D02*
X103478454Y-147547808D01*
X103478454Y-147547808D02*
X103507026Y-147500188D01*
X103507026Y-147500188D02*
X103507026Y-147166855D01*
X103507026Y-147166855D02*
X103392740Y-147166855D01*
X103764169Y-147595427D02*
X103764169Y-146595427D01*
X103764169Y-146595427D02*
X104107026Y-147595427D01*
X104107026Y-147595427D02*
X104107026Y-146595427D01*
X104392740Y-147595427D02*
X104392740Y-146595427D01*
X104392740Y-146595427D02*
X104535597Y-146595427D01*
X104535597Y-146595427D02*
X104621311Y-146643046D01*
X104621311Y-146643046D02*
X104678454Y-146738284D01*
X104678454Y-146738284D02*
X104707025Y-146833522D01*
X104707025Y-146833522D02*
X104735597Y-147023998D01*
X104735597Y-147023998D02*
X104735597Y-147166855D01*
X104735597Y-147166855D02*
X104707025Y-147357331D01*
X104707025Y-147357331D02*
X104678454Y-147452569D01*
X104678454Y-147452569D02*
X104621311Y-147547808D01*
X104621311Y-147547808D02*
X104535597Y-147595427D01*
X104535597Y-147595427D02*
X104392740Y-147595427D01*
X102865924Y-129989319D02*
X102951639Y-130036938D01*
X102951639Y-130036938D02*
X103094496Y-130036938D01*
X103094496Y-130036938D02*
X103151639Y-129989319D01*
X103151639Y-129989319D02*
X103180210Y-129941699D01*
X103180210Y-129941699D02*
X103208781Y-129846461D01*
X103208781Y-129846461D02*
X103208781Y-129751223D01*
X103208781Y-129751223D02*
X103180210Y-129655985D01*
X103180210Y-129655985D02*
X103151639Y-129608366D01*
X103151639Y-129608366D02*
X103094496Y-129560747D01*
X103094496Y-129560747D02*
X102980210Y-129513128D01*
X102980210Y-129513128D02*
X102923067Y-129465509D01*
X102923067Y-129465509D02*
X102894496Y-129417890D01*
X102894496Y-129417890D02*
X102865924Y-129322652D01*
X102865924Y-129322652D02*
X102865924Y-129227414D01*
X102865924Y-129227414D02*
X102894496Y-129132176D01*
X102894496Y-129132176D02*
X102923067Y-129084557D01*
X102923067Y-129084557D02*
X102980210Y-129036938D01*
X102980210Y-129036938D02*
X103123067Y-129036938D01*
X103123067Y-129036938D02*
X103208781Y-129084557D01*
X103465925Y-130036938D02*
X103465925Y-129370271D01*
X103465925Y-129036938D02*
X103437353Y-129084557D01*
X103437353Y-129084557D02*
X103465925Y-129132176D01*
X103465925Y-129132176D02*
X103494496Y-129084557D01*
X103494496Y-129084557D02*
X103465925Y-129036938D01*
X103465925Y-129036938D02*
X103465925Y-129132176D01*
X103751639Y-129370271D02*
X103751639Y-130036938D01*
X103751639Y-129465509D02*
X103780210Y-129417890D01*
X103780210Y-129417890D02*
X103837353Y-129370271D01*
X103837353Y-129370271D02*
X103923067Y-129370271D01*
X103923067Y-129370271D02*
X103980210Y-129417890D01*
X103980210Y-129417890D02*
X104008782Y-129513128D01*
X104008782Y-129513128D02*
X104008782Y-130036938D01*
X104608781Y-130036938D02*
X104265924Y-130036938D01*
X104437353Y-130036938D02*
X104437353Y-129036938D01*
X104437353Y-129036938D02*
X104380210Y-129179795D01*
X104380210Y-129179795D02*
X104323067Y-129275033D01*
X104323067Y-129275033D02*
X104265924Y-129322652D01*
X102627895Y-132291222D02*
X102913610Y-132291222D01*
X102570752Y-132576937D02*
X102770752Y-131576937D01*
X102770752Y-131576937D02*
X102970752Y-132576937D01*
X103485038Y-131624556D02*
X103427896Y-131576937D01*
X103427896Y-131576937D02*
X103342181Y-131576937D01*
X103342181Y-131576937D02*
X103256467Y-131624556D01*
X103256467Y-131624556D02*
X103199324Y-131719794D01*
X103199324Y-131719794D02*
X103170753Y-131815032D01*
X103170753Y-131815032D02*
X103142181Y-132005508D01*
X103142181Y-132005508D02*
X103142181Y-132148365D01*
X103142181Y-132148365D02*
X103170753Y-132338841D01*
X103170753Y-132338841D02*
X103199324Y-132434079D01*
X103199324Y-132434079D02*
X103256467Y-132529318D01*
X103256467Y-132529318D02*
X103342181Y-132576937D01*
X103342181Y-132576937D02*
X103399324Y-132576937D01*
X103399324Y-132576937D02*
X103485038Y-132529318D01*
X103485038Y-132529318D02*
X103513610Y-132481698D01*
X103513610Y-132481698D02*
X103513610Y-132148365D01*
X103513610Y-132148365D02*
X103399324Y-132148365D01*
X103770753Y-132576937D02*
X103770753Y-131576937D01*
X103770753Y-131576937D02*
X104113610Y-132576937D01*
X104113610Y-132576937D02*
X104113610Y-131576937D01*
X104399324Y-132576937D02*
X104399324Y-131576937D01*
X104399324Y-131576937D02*
X104542181Y-131576937D01*
X104542181Y-131576937D02*
X104627895Y-131624556D01*
X104627895Y-131624556D02*
X104685038Y-131719794D01*
X104685038Y-131719794D02*
X104713609Y-131815032D01*
X104713609Y-131815032D02*
X104742181Y-132005508D01*
X104742181Y-132005508D02*
X104742181Y-132148365D01*
X104742181Y-132148365D02*
X104713609Y-132338841D01*
X104713609Y-132338841D02*
X104685038Y-132434079D01*
X104685038Y-132434079D02*
X104627895Y-132529318D01*
X104627895Y-132529318D02*
X104542181Y-132576937D01*
X104542181Y-132576937D02*
X104399324Y-132576937D01*
X187197359Y-57115124D02*
X187654502Y-57115124D01*
X187425930Y-57496077D02*
X187425930Y-56734172D01*
X188225930Y-56496077D02*
X187940216Y-56496077D01*
X187940216Y-56496077D02*
X187911644Y-56972267D01*
X187911644Y-56972267D02*
X187940216Y-56924648D01*
X187940216Y-56924648D02*
X187997359Y-56877029D01*
X187997359Y-56877029D02*
X188140216Y-56877029D01*
X188140216Y-56877029D02*
X188197359Y-56924648D01*
X188197359Y-56924648D02*
X188225930Y-56972267D01*
X188225930Y-56972267D02*
X188254501Y-57067505D01*
X188254501Y-57067505D02*
X188254501Y-57305600D01*
X188254501Y-57305600D02*
X188225930Y-57400838D01*
X188225930Y-57400838D02*
X188197359Y-57448458D01*
X188197359Y-57448458D02*
X188140216Y-57496077D01*
X188140216Y-57496077D02*
X187997359Y-57496077D01*
X187997359Y-57496077D02*
X187940216Y-57448458D01*
X187940216Y-57448458D02*
X187911644Y-57400838D01*
X188425930Y-56496077D02*
X188625930Y-57496077D01*
X188625930Y-57496077D02*
X188825930Y-56496077D01*
X187009669Y-128560166D02*
X187095384Y-128607785D01*
X187095384Y-128607785D02*
X187238241Y-128607785D01*
X187238241Y-128607785D02*
X187295384Y-128560166D01*
X187295384Y-128560166D02*
X187323955Y-128512546D01*
X187323955Y-128512546D02*
X187352526Y-128417308D01*
X187352526Y-128417308D02*
X187352526Y-128322070D01*
X187352526Y-128322070D02*
X187323955Y-128226832D01*
X187323955Y-128226832D02*
X187295384Y-128179213D01*
X187295384Y-128179213D02*
X187238241Y-128131594D01*
X187238241Y-128131594D02*
X187123955Y-128083975D01*
X187123955Y-128083975D02*
X187066812Y-128036356D01*
X187066812Y-128036356D02*
X187038241Y-127988737D01*
X187038241Y-127988737D02*
X187009669Y-127893499D01*
X187009669Y-127893499D02*
X187009669Y-127798261D01*
X187009669Y-127798261D02*
X187038241Y-127703023D01*
X187038241Y-127703023D02*
X187066812Y-127655404D01*
X187066812Y-127655404D02*
X187123955Y-127607785D01*
X187123955Y-127607785D02*
X187266812Y-127607785D01*
X187266812Y-127607785D02*
X187352526Y-127655404D01*
X187952527Y-128512546D02*
X187923955Y-128560166D01*
X187923955Y-128560166D02*
X187838241Y-128607785D01*
X187838241Y-128607785D02*
X187781098Y-128607785D01*
X187781098Y-128607785D02*
X187695384Y-128560166D01*
X187695384Y-128560166D02*
X187638241Y-128464927D01*
X187638241Y-128464927D02*
X187609670Y-128369689D01*
X187609670Y-128369689D02*
X187581098Y-128179213D01*
X187581098Y-128179213D02*
X187581098Y-128036356D01*
X187581098Y-128036356D02*
X187609670Y-127845880D01*
X187609670Y-127845880D02*
X187638241Y-127750642D01*
X187638241Y-127750642D02*
X187695384Y-127655404D01*
X187695384Y-127655404D02*
X187781098Y-127607785D01*
X187781098Y-127607785D02*
X187838241Y-127607785D01*
X187838241Y-127607785D02*
X187923955Y-127655404D01*
X187923955Y-127655404D02*
X187952527Y-127703023D01*
X188495384Y-128607785D02*
X188209670Y-128607785D01*
X188209670Y-128607785D02*
X188209670Y-127607785D01*
X188666812Y-127703023D02*
X188695384Y-127655404D01*
X188695384Y-127655404D02*
X188752527Y-127607785D01*
X188752527Y-127607785D02*
X188895384Y-127607785D01*
X188895384Y-127607785D02*
X188952527Y-127655404D01*
X188952527Y-127655404D02*
X188981098Y-127703023D01*
X188981098Y-127703023D02*
X189009669Y-127798261D01*
X189009669Y-127798261D02*
X189009669Y-127893499D01*
X189009669Y-127893499D02*
X188981098Y-128036356D01*
X188981098Y-128036356D02*
X188638241Y-128607785D01*
X188638241Y-128607785D02*
X189009669Y-128607785D01*
X187197359Y-59401124D02*
X187654502Y-59401124D01*
X188225930Y-58782077D02*
X187940216Y-58782077D01*
X187940216Y-58782077D02*
X187911644Y-59258267D01*
X187911644Y-59258267D02*
X187940216Y-59210648D01*
X187940216Y-59210648D02*
X187997359Y-59163029D01*
X187997359Y-59163029D02*
X188140216Y-59163029D01*
X188140216Y-59163029D02*
X188197359Y-59210648D01*
X188197359Y-59210648D02*
X188225930Y-59258267D01*
X188225930Y-59258267D02*
X188254501Y-59353505D01*
X188254501Y-59353505D02*
X188254501Y-59591600D01*
X188254501Y-59591600D02*
X188225930Y-59686838D01*
X188225930Y-59686838D02*
X188197359Y-59734458D01*
X188197359Y-59734458D02*
X188140216Y-59782077D01*
X188140216Y-59782077D02*
X187997359Y-59782077D01*
X187997359Y-59782077D02*
X187940216Y-59734458D01*
X187940216Y-59734458D02*
X187911644Y-59686838D01*
X188425930Y-58782077D02*
X188625930Y-59782077D01*
X188625930Y-59782077D02*
X188825930Y-58782077D01*
X102586887Y-62435605D02*
X102872602Y-62435605D01*
X102529744Y-62721320D02*
X102729744Y-61721320D01*
X102729744Y-61721320D02*
X102929744Y-62721320D01*
X103444030Y-61768939D02*
X103386888Y-61721320D01*
X103386888Y-61721320D02*
X103301173Y-61721320D01*
X103301173Y-61721320D02*
X103215459Y-61768939D01*
X103215459Y-61768939D02*
X103158316Y-61864177D01*
X103158316Y-61864177D02*
X103129745Y-61959415D01*
X103129745Y-61959415D02*
X103101173Y-62149891D01*
X103101173Y-62149891D02*
X103101173Y-62292748D01*
X103101173Y-62292748D02*
X103129745Y-62483224D01*
X103129745Y-62483224D02*
X103158316Y-62578462D01*
X103158316Y-62578462D02*
X103215459Y-62673701D01*
X103215459Y-62673701D02*
X103301173Y-62721320D01*
X103301173Y-62721320D02*
X103358316Y-62721320D01*
X103358316Y-62721320D02*
X103444030Y-62673701D01*
X103444030Y-62673701D02*
X103472602Y-62626081D01*
X103472602Y-62626081D02*
X103472602Y-62292748D01*
X103472602Y-62292748D02*
X103358316Y-62292748D01*
X103729745Y-62721320D02*
X103729745Y-61721320D01*
X103729745Y-61721320D02*
X104072602Y-62721320D01*
X104072602Y-62721320D02*
X104072602Y-61721320D01*
X104358316Y-62721320D02*
X104358316Y-61721320D01*
X104358316Y-61721320D02*
X104501173Y-61721320D01*
X104501173Y-61721320D02*
X104586887Y-61768939D01*
X104586887Y-61768939D02*
X104644030Y-61864177D01*
X104644030Y-61864177D02*
X104672601Y-61959415D01*
X104672601Y-61959415D02*
X104701173Y-62149891D01*
X104701173Y-62149891D02*
X104701173Y-62292748D01*
X104701173Y-62292748D02*
X104672601Y-62483224D01*
X104672601Y-62483224D02*
X104644030Y-62578462D01*
X104644030Y-62578462D02*
X104586887Y-62673701D01*
X104586887Y-62673701D02*
X104501173Y-62721320D01*
X104501173Y-62721320D02*
X104358316Y-62721320D01*
D11*
X152666667Y-94247980D02*
X153333334Y-94247980D01*
X153333334Y-93200361D02*
X153333334Y-95200361D01*
X153333334Y-95200361D02*
X152380953Y-95200361D01*
X151333334Y-93200361D02*
X151523810Y-93295600D01*
X151523810Y-93295600D02*
X151619048Y-93390838D01*
X151619048Y-93390838D02*
X151714286Y-93581314D01*
X151714286Y-93581314D02*
X151714286Y-94152742D01*
X151714286Y-94152742D02*
X151619048Y-94343219D01*
X151619048Y-94343219D02*
X151523810Y-94438457D01*
X151523810Y-94438457D02*
X151333334Y-94533695D01*
X151333334Y-94533695D02*
X151047619Y-94533695D01*
X151047619Y-94533695D02*
X150857143Y-94438457D01*
X150857143Y-94438457D02*
X150761905Y-94343219D01*
X150761905Y-94343219D02*
X150666667Y-94152742D01*
X150666667Y-94152742D02*
X150666667Y-93581314D01*
X150666667Y-93581314D02*
X150761905Y-93390838D01*
X150761905Y-93390838D02*
X150857143Y-93295600D01*
X150857143Y-93295600D02*
X151047619Y-93200361D01*
X151047619Y-93200361D02*
X151333334Y-93200361D01*
X149809524Y-94533695D02*
X149809524Y-93200361D01*
X149809524Y-94343219D02*
X149714286Y-94438457D01*
X149714286Y-94438457D02*
X149523810Y-94533695D01*
X149523810Y-94533695D02*
X149238095Y-94533695D01*
X149238095Y-94533695D02*
X149047619Y-94438457D01*
X149047619Y-94438457D02*
X148952381Y-94247980D01*
X148952381Y-94247980D02*
X148952381Y-93200361D01*
X148285714Y-94533695D02*
X147523810Y-94533695D01*
X148000000Y-95200361D02*
X148000000Y-93486076D01*
X148000000Y-93486076D02*
X147904762Y-93295600D01*
X147904762Y-93295600D02*
X147714286Y-93200361D01*
X147714286Y-93200361D02*
X147523810Y-93200361D01*
X146095238Y-93295600D02*
X146285714Y-93200361D01*
X146285714Y-93200361D02*
X146666667Y-93200361D01*
X146666667Y-93200361D02*
X146857143Y-93295600D01*
X146857143Y-93295600D02*
X146952381Y-93486076D01*
X146952381Y-93486076D02*
X146952381Y-94247980D01*
X146952381Y-94247980D02*
X146857143Y-94438457D01*
X146857143Y-94438457D02*
X146666667Y-94533695D01*
X146666667Y-94533695D02*
X146285714Y-94533695D01*
X146285714Y-94533695D02*
X146095238Y-94438457D01*
X146095238Y-94438457D02*
X146000000Y-94247980D01*
X146000000Y-94247980D02*
X146000000Y-94057504D01*
X146000000Y-94057504D02*
X146952381Y-93867028D01*
X143904761Y-94533695D02*
X143142857Y-94533695D01*
X143619047Y-95200361D02*
X143619047Y-93486076D01*
X143619047Y-93486076D02*
X143523809Y-93295600D01*
X143523809Y-93295600D02*
X143333333Y-93200361D01*
X143333333Y-93200361D02*
X143142857Y-93200361D01*
X141714285Y-93295600D02*
X141904761Y-93200361D01*
X141904761Y-93200361D02*
X142285714Y-93200361D01*
X142285714Y-93200361D02*
X142476190Y-93295600D01*
X142476190Y-93295600D02*
X142571428Y-93486076D01*
X142571428Y-93486076D02*
X142571428Y-94247980D01*
X142571428Y-94247980D02*
X142476190Y-94438457D01*
X142476190Y-94438457D02*
X142285714Y-94533695D01*
X142285714Y-94533695D02*
X141904761Y-94533695D01*
X141904761Y-94533695D02*
X141714285Y-94438457D01*
X141714285Y-94438457D02*
X141619047Y-94247980D01*
X141619047Y-94247980D02*
X141619047Y-94057504D01*
X141619047Y-94057504D02*
X142571428Y-93867028D01*
X140761904Y-94533695D02*
X140761904Y-93200361D01*
X140761904Y-94343219D02*
X140666666Y-94438457D01*
X140666666Y-94438457D02*
X140476190Y-94533695D01*
X140476190Y-94533695D02*
X140190475Y-94533695D01*
X140190475Y-94533695D02*
X139999999Y-94438457D01*
X139999999Y-94438457D02*
X139904761Y-94247980D01*
X139904761Y-94247980D02*
X139904761Y-93200361D01*
X139047618Y-93295600D02*
X138857142Y-93200361D01*
X138857142Y-93200361D02*
X138476190Y-93200361D01*
X138476190Y-93200361D02*
X138285713Y-93295600D01*
X138285713Y-93295600D02*
X138190475Y-93486076D01*
X138190475Y-93486076D02*
X138190475Y-93581314D01*
X138190475Y-93581314D02*
X138285713Y-93771790D01*
X138285713Y-93771790D02*
X138476190Y-93867028D01*
X138476190Y-93867028D02*
X138761904Y-93867028D01*
X138761904Y-93867028D02*
X138952380Y-93962266D01*
X138952380Y-93962266D02*
X139047618Y-94152742D01*
X139047618Y-94152742D02*
X139047618Y-94247980D01*
X139047618Y-94247980D02*
X138952380Y-94438457D01*
X138952380Y-94438457D02*
X138761904Y-94533695D01*
X138761904Y-94533695D02*
X138476190Y-94533695D01*
X138476190Y-94533695D02*
X138285713Y-94438457D01*
X136476189Y-93200361D02*
X136476189Y-94247980D01*
X136476189Y-94247980D02*
X136571427Y-94438457D01*
X136571427Y-94438457D02*
X136761903Y-94533695D01*
X136761903Y-94533695D02*
X137142856Y-94533695D01*
X137142856Y-94533695D02*
X137333332Y-94438457D01*
X136476189Y-93295600D02*
X136666665Y-93200361D01*
X136666665Y-93200361D02*
X137142856Y-93200361D01*
X137142856Y-93200361D02*
X137333332Y-93295600D01*
X137333332Y-93295600D02*
X137428570Y-93486076D01*
X137428570Y-93486076D02*
X137428570Y-93676552D01*
X137428570Y-93676552D02*
X137333332Y-93867028D01*
X137333332Y-93867028D02*
X137142856Y-93962266D01*
X137142856Y-93962266D02*
X136666665Y-93962266D01*
X136666665Y-93962266D02*
X136476189Y-94057504D01*
X135238094Y-93200361D02*
X135428570Y-93295600D01*
X135428570Y-93295600D02*
X135523808Y-93390838D01*
X135523808Y-93390838D02*
X135619046Y-93581314D01*
X135619046Y-93581314D02*
X135619046Y-94152742D01*
X135619046Y-94152742D02*
X135523808Y-94343219D01*
X135523808Y-94343219D02*
X135428570Y-94438457D01*
X135428570Y-94438457D02*
X135238094Y-94533695D01*
X135238094Y-94533695D02*
X134952379Y-94533695D01*
X134952379Y-94533695D02*
X134761903Y-94438457D01*
X134761903Y-94438457D02*
X134666665Y-94343219D01*
X134666665Y-94343219D02*
X134571427Y-94152742D01*
X134571427Y-94152742D02*
X134571427Y-93581314D01*
X134571427Y-93581314D02*
X134666665Y-93390838D01*
X134666665Y-93390838D02*
X134761903Y-93295600D01*
X134761903Y-93295600D02*
X134952379Y-93200361D01*
X134952379Y-93200361D02*
X135238094Y-93200361D01*
X146571428Y-91980361D02*
X145904762Y-89980361D01*
X145904762Y-89980361D02*
X145238095Y-91980361D01*
X144190476Y-91980361D02*
X143999999Y-91980361D01*
X143999999Y-91980361D02*
X143809523Y-91885123D01*
X143809523Y-91885123D02*
X143714285Y-91789885D01*
X143714285Y-91789885D02*
X143619047Y-91599409D01*
X143619047Y-91599409D02*
X143523809Y-91218457D01*
X143523809Y-91218457D02*
X143523809Y-90742266D01*
X143523809Y-90742266D02*
X143619047Y-90361314D01*
X143619047Y-90361314D02*
X143714285Y-90170838D01*
X143714285Y-90170838D02*
X143809523Y-90075600D01*
X143809523Y-90075600D02*
X143999999Y-89980361D01*
X143999999Y-89980361D02*
X144190476Y-89980361D01*
X144190476Y-89980361D02*
X144380952Y-90075600D01*
X144380952Y-90075600D02*
X144476190Y-90170838D01*
X144476190Y-90170838D02*
X144571428Y-90361314D01*
X144571428Y-90361314D02*
X144666666Y-90742266D01*
X144666666Y-90742266D02*
X144666666Y-91218457D01*
X144666666Y-91218457D02*
X144571428Y-91599409D01*
X144571428Y-91599409D02*
X144476190Y-91789885D01*
X144476190Y-91789885D02*
X144380952Y-91885123D01*
X144380952Y-91885123D02*
X144190476Y-91980361D01*
X141714285Y-91980361D02*
X142666666Y-91980361D01*
X142666666Y-91980361D02*
X142761904Y-91027980D01*
X142761904Y-91027980D02*
X142666666Y-91123219D01*
X142666666Y-91123219D02*
X142476190Y-91218457D01*
X142476190Y-91218457D02*
X141999999Y-91218457D01*
X141999999Y-91218457D02*
X141809523Y-91123219D01*
X141809523Y-91123219D02*
X141714285Y-91027980D01*
X141714285Y-91027980D02*
X141619047Y-90837504D01*
X141619047Y-90837504D02*
X141619047Y-90361314D01*
X141619047Y-90361314D02*
X141714285Y-90170838D01*
X141714285Y-90170838D02*
X141809523Y-90075600D01*
X141809523Y-90075600D02*
X141999999Y-89980361D01*
X141999999Y-89980361D02*
X142476190Y-89980361D01*
X142476190Y-89980361D02*
X142666666Y-90075600D01*
X142666666Y-90075600D02*
X142761904Y-90170838D01*
X147428571Y-88569885D02*
X147333333Y-88665123D01*
X147333333Y-88665123D02*
X147142857Y-88760361D01*
X147142857Y-88760361D02*
X146666666Y-88760361D01*
X146666666Y-88760361D02*
X146476190Y-88665123D01*
X146476190Y-88665123D02*
X146380952Y-88569885D01*
X146380952Y-88569885D02*
X146285714Y-88379409D01*
X146285714Y-88379409D02*
X146285714Y-88188933D01*
X146285714Y-88188933D02*
X146380952Y-87903219D01*
X146380952Y-87903219D02*
X147523809Y-86760361D01*
X147523809Y-86760361D02*
X146285714Y-86760361D01*
X145047619Y-88760361D02*
X144857142Y-88760361D01*
X144857142Y-88760361D02*
X144666666Y-88665123D01*
X144666666Y-88665123D02*
X144571428Y-88569885D01*
X144571428Y-88569885D02*
X144476190Y-88379409D01*
X144476190Y-88379409D02*
X144380952Y-87998457D01*
X144380952Y-87998457D02*
X144380952Y-87522266D01*
X144380952Y-87522266D02*
X144476190Y-87141314D01*
X144476190Y-87141314D02*
X144571428Y-86950838D01*
X144571428Y-86950838D02*
X144666666Y-86855600D01*
X144666666Y-86855600D02*
X144857142Y-86760361D01*
X144857142Y-86760361D02*
X145047619Y-86760361D01*
X145047619Y-86760361D02*
X145238095Y-86855600D01*
X145238095Y-86855600D02*
X145333333Y-86950838D01*
X145333333Y-86950838D02*
X145428571Y-87141314D01*
X145428571Y-87141314D02*
X145523809Y-87522266D01*
X145523809Y-87522266D02*
X145523809Y-87998457D01*
X145523809Y-87998457D02*
X145428571Y-88379409D01*
X145428571Y-88379409D02*
X145333333Y-88569885D01*
X145333333Y-88569885D02*
X145238095Y-88665123D01*
X145238095Y-88665123D02*
X145047619Y-88760361D01*
X143619047Y-88569885D02*
X143523809Y-88665123D01*
X143523809Y-88665123D02*
X143333333Y-88760361D01*
X143333333Y-88760361D02*
X142857142Y-88760361D01*
X142857142Y-88760361D02*
X142666666Y-88665123D01*
X142666666Y-88665123D02*
X142571428Y-88569885D01*
X142571428Y-88569885D02*
X142476190Y-88379409D01*
X142476190Y-88379409D02*
X142476190Y-88188933D01*
X142476190Y-88188933D02*
X142571428Y-87903219D01*
X142571428Y-87903219D02*
X143714285Y-86760361D01*
X143714285Y-86760361D02*
X142476190Y-86760361D01*
X141809523Y-88760361D02*
X140571428Y-88760361D01*
X140571428Y-88760361D02*
X141238095Y-87998457D01*
X141238095Y-87998457D02*
X140952380Y-87998457D01*
X140952380Y-87998457D02*
X140761904Y-87903219D01*
X140761904Y-87903219D02*
X140666666Y-87807980D01*
X140666666Y-87807980D02*
X140571428Y-87617504D01*
X140571428Y-87617504D02*
X140571428Y-87141314D01*
X140571428Y-87141314D02*
X140666666Y-86950838D01*
X140666666Y-86950838D02*
X140761904Y-86855600D01*
X140761904Y-86855600D02*
X140952380Y-86760361D01*
X140952380Y-86760361D02*
X141523809Y-86760361D01*
X141523809Y-86760361D02*
X141714285Y-86855600D01*
X141714285Y-86855600D02*
X141809523Y-86950838D01*
D10*
X187072478Y-123538521D02*
X187158193Y-123586140D01*
X187158193Y-123586140D02*
X187301050Y-123586140D01*
X187301050Y-123586140D02*
X187358193Y-123538521D01*
X187358193Y-123538521D02*
X187386764Y-123490901D01*
X187386764Y-123490901D02*
X187415335Y-123395663D01*
X187415335Y-123395663D02*
X187415335Y-123300425D01*
X187415335Y-123300425D02*
X187386764Y-123205187D01*
X187386764Y-123205187D02*
X187358193Y-123157568D01*
X187358193Y-123157568D02*
X187301050Y-123109949D01*
X187301050Y-123109949D02*
X187186764Y-123062330D01*
X187186764Y-123062330D02*
X187129621Y-123014711D01*
X187129621Y-123014711D02*
X187101050Y-122967092D01*
X187101050Y-122967092D02*
X187072478Y-122871854D01*
X187072478Y-122871854D02*
X187072478Y-122776616D01*
X187072478Y-122776616D02*
X187101050Y-122681378D01*
X187101050Y-122681378D02*
X187129621Y-122633759D01*
X187129621Y-122633759D02*
X187186764Y-122586140D01*
X187186764Y-122586140D02*
X187329621Y-122586140D01*
X187329621Y-122586140D02*
X187415335Y-122633759D01*
X187672479Y-123586140D02*
X187672479Y-122586140D01*
X187672479Y-122586140D02*
X187815336Y-122586140D01*
X187815336Y-122586140D02*
X187901050Y-122633759D01*
X187901050Y-122633759D02*
X187958193Y-122728997D01*
X187958193Y-122728997D02*
X187986764Y-122824235D01*
X187986764Y-122824235D02*
X188015336Y-123014711D01*
X188015336Y-123014711D02*
X188015336Y-123157568D01*
X188015336Y-123157568D02*
X187986764Y-123348044D01*
X187986764Y-123348044D02*
X187958193Y-123443282D01*
X187958193Y-123443282D02*
X187901050Y-123538521D01*
X187901050Y-123538521D02*
X187815336Y-123586140D01*
X187815336Y-123586140D02*
X187672479Y-123586140D01*
X188243907Y-123300425D02*
X188529622Y-123300425D01*
X188186764Y-123586140D02*
X188386764Y-122586140D01*
X188386764Y-122586140D02*
X188586764Y-123586140D01*
X188729622Y-122586140D02*
X189101050Y-122586140D01*
X189101050Y-122586140D02*
X188901050Y-122967092D01*
X188901050Y-122967092D02*
X188986765Y-122967092D01*
X188986765Y-122967092D02*
X189043908Y-123014711D01*
X189043908Y-123014711D02*
X189072479Y-123062330D01*
X189072479Y-123062330D02*
X189101050Y-123157568D01*
X189101050Y-123157568D02*
X189101050Y-123395663D01*
X189101050Y-123395663D02*
X189072479Y-123490901D01*
X189072479Y-123490901D02*
X189043908Y-123538521D01*
X189043908Y-123538521D02*
X188986765Y-123586140D01*
X188986765Y-123586140D02*
X188815336Y-123586140D01*
X188815336Y-123586140D02*
X188758193Y-123538521D01*
X188758193Y-123538521D02*
X188729622Y-123490901D01*
X187009669Y-115960166D02*
X187095384Y-116007785D01*
X187095384Y-116007785D02*
X187238241Y-116007785D01*
X187238241Y-116007785D02*
X187295384Y-115960166D01*
X187295384Y-115960166D02*
X187323955Y-115912546D01*
X187323955Y-115912546D02*
X187352526Y-115817308D01*
X187352526Y-115817308D02*
X187352526Y-115722070D01*
X187352526Y-115722070D02*
X187323955Y-115626832D01*
X187323955Y-115626832D02*
X187295384Y-115579213D01*
X187295384Y-115579213D02*
X187238241Y-115531594D01*
X187238241Y-115531594D02*
X187123955Y-115483975D01*
X187123955Y-115483975D02*
X187066812Y-115436356D01*
X187066812Y-115436356D02*
X187038241Y-115388737D01*
X187038241Y-115388737D02*
X187009669Y-115293499D01*
X187009669Y-115293499D02*
X187009669Y-115198261D01*
X187009669Y-115198261D02*
X187038241Y-115103023D01*
X187038241Y-115103023D02*
X187066812Y-115055404D01*
X187066812Y-115055404D02*
X187123955Y-115007785D01*
X187123955Y-115007785D02*
X187266812Y-115007785D01*
X187266812Y-115007785D02*
X187352526Y-115055404D01*
X187609670Y-116007785D02*
X187609670Y-115007785D01*
X187609670Y-115007785D02*
X187752527Y-115007785D01*
X187752527Y-115007785D02*
X187838241Y-115055404D01*
X187838241Y-115055404D02*
X187895384Y-115150642D01*
X187895384Y-115150642D02*
X187923955Y-115245880D01*
X187923955Y-115245880D02*
X187952527Y-115436356D01*
X187952527Y-115436356D02*
X187952527Y-115579213D01*
X187952527Y-115579213D02*
X187923955Y-115769689D01*
X187923955Y-115769689D02*
X187895384Y-115864927D01*
X187895384Y-115864927D02*
X187838241Y-115960166D01*
X187838241Y-115960166D02*
X187752527Y-116007785D01*
X187752527Y-116007785D02*
X187609670Y-116007785D01*
X188181098Y-115722070D02*
X188466813Y-115722070D01*
X188123955Y-116007785D02*
X188323955Y-115007785D01*
X188323955Y-115007785D02*
X188523955Y-116007785D01*
X188981099Y-115341118D02*
X188981099Y-116007785D01*
X188838241Y-114960166D02*
X188695384Y-115674451D01*
X188695384Y-115674451D02*
X189066813Y-115674451D01*
X102403066Y-124922692D02*
X102688781Y-124922692D01*
X102345923Y-125208407D02*
X102545923Y-124208407D01*
X102545923Y-124208407D02*
X102745923Y-125208407D01*
X102945924Y-125208407D02*
X102945924Y-124541740D01*
X102945924Y-124636978D02*
X102974495Y-124589359D01*
X102974495Y-124589359D02*
X103031638Y-124541740D01*
X103031638Y-124541740D02*
X103117352Y-124541740D01*
X103117352Y-124541740D02*
X103174495Y-124589359D01*
X103174495Y-124589359D02*
X103203067Y-124684597D01*
X103203067Y-124684597D02*
X103203067Y-125208407D01*
X103203067Y-124684597D02*
X103231638Y-124589359D01*
X103231638Y-124589359D02*
X103288781Y-124541740D01*
X103288781Y-124541740D02*
X103374495Y-124541740D01*
X103374495Y-124541740D02*
X103431638Y-124589359D01*
X103431638Y-124589359D02*
X103460209Y-124684597D01*
X103460209Y-124684597D02*
X103460209Y-125208407D01*
X103745924Y-124541740D02*
X103745924Y-125541740D01*
X103745924Y-124589359D02*
X103803067Y-124541740D01*
X103803067Y-124541740D02*
X103917352Y-124541740D01*
X103917352Y-124541740D02*
X103974495Y-124589359D01*
X103974495Y-124589359D02*
X104003067Y-124636978D01*
X104003067Y-124636978D02*
X104031638Y-124732216D01*
X104031638Y-124732216D02*
X104031638Y-125017930D01*
X104031638Y-125017930D02*
X104003067Y-125113168D01*
X104003067Y-125113168D02*
X103974495Y-125160788D01*
X103974495Y-125160788D02*
X103917352Y-125208407D01*
X103917352Y-125208407D02*
X103803067Y-125208407D01*
X103803067Y-125208407D02*
X103745924Y-125160788D01*
X104374495Y-125208407D02*
X104317352Y-125160788D01*
X104317352Y-125160788D02*
X104288781Y-125065549D01*
X104288781Y-125065549D02*
X104288781Y-124208407D01*
X104574495Y-124303645D02*
X104603067Y-124256026D01*
X104603067Y-124256026D02*
X104660210Y-124208407D01*
X104660210Y-124208407D02*
X104803067Y-124208407D01*
X104803067Y-124208407D02*
X104860210Y-124256026D01*
X104860210Y-124256026D02*
X104888781Y-124303645D01*
X104888781Y-124303645D02*
X104917352Y-124398883D01*
X104917352Y-124398883D02*
X104917352Y-124494121D01*
X104917352Y-124494121D02*
X104888781Y-124636978D01*
X104888781Y-124636978D02*
X104545924Y-125208407D01*
X104545924Y-125208407D02*
X104917352Y-125208407D01*
X187511644Y-61623696D02*
X187454502Y-61576077D01*
X187454502Y-61576077D02*
X187368787Y-61576077D01*
X187368787Y-61576077D02*
X187283073Y-61623696D01*
X187283073Y-61623696D02*
X187225930Y-61718934D01*
X187225930Y-61718934D02*
X187197359Y-61814172D01*
X187197359Y-61814172D02*
X187168787Y-62004648D01*
X187168787Y-62004648D02*
X187168787Y-62147505D01*
X187168787Y-62147505D02*
X187197359Y-62337981D01*
X187197359Y-62337981D02*
X187225930Y-62433219D01*
X187225930Y-62433219D02*
X187283073Y-62528458D01*
X187283073Y-62528458D02*
X187368787Y-62576077D01*
X187368787Y-62576077D02*
X187425930Y-62576077D01*
X187425930Y-62576077D02*
X187511644Y-62528458D01*
X187511644Y-62528458D02*
X187540216Y-62480838D01*
X187540216Y-62480838D02*
X187540216Y-62147505D01*
X187540216Y-62147505D02*
X187425930Y-62147505D01*
X187797359Y-62576077D02*
X187797359Y-61576077D01*
X187797359Y-61576077D02*
X188140216Y-62576077D01*
X188140216Y-62576077D02*
X188140216Y-61576077D01*
X188425930Y-62576077D02*
X188425930Y-61576077D01*
X188425930Y-61576077D02*
X188568787Y-61576077D01*
X188568787Y-61576077D02*
X188654501Y-61623696D01*
X188654501Y-61623696D02*
X188711644Y-61718934D01*
X188711644Y-61718934D02*
X188740215Y-61814172D01*
X188740215Y-61814172D02*
X188768787Y-62004648D01*
X188768787Y-62004648D02*
X188768787Y-62147505D01*
X188768787Y-62147505D02*
X188740215Y-62337981D01*
X188740215Y-62337981D02*
X188711644Y-62433219D01*
X188711644Y-62433219D02*
X188654501Y-62528458D01*
X188654501Y-62528458D02*
X188568787Y-62576077D01*
X188568787Y-62576077D02*
X188425930Y-62576077D01*
X187105939Y-143981295D02*
X187191654Y-144028914D01*
X187191654Y-144028914D02*
X187334511Y-144028914D01*
X187334511Y-144028914D02*
X187391654Y-143981295D01*
X187391654Y-143981295D02*
X187420225Y-143933675D01*
X187420225Y-143933675D02*
X187448796Y-143838437D01*
X187448796Y-143838437D02*
X187448796Y-143743199D01*
X187448796Y-143743199D02*
X187420225Y-143647961D01*
X187420225Y-143647961D02*
X187391654Y-143600342D01*
X187391654Y-143600342D02*
X187334511Y-143552723D01*
X187334511Y-143552723D02*
X187220225Y-143505104D01*
X187220225Y-143505104D02*
X187163082Y-143457485D01*
X187163082Y-143457485D02*
X187134511Y-143409866D01*
X187134511Y-143409866D02*
X187105939Y-143314628D01*
X187105939Y-143314628D02*
X187105939Y-143219390D01*
X187105939Y-143219390D02*
X187134511Y-143124152D01*
X187134511Y-143124152D02*
X187163082Y-143076533D01*
X187163082Y-143076533D02*
X187220225Y-143028914D01*
X187220225Y-143028914D02*
X187363082Y-143028914D01*
X187363082Y-143028914D02*
X187448796Y-143076533D01*
X187705940Y-144028914D02*
X187705940Y-143028914D01*
X187991654Y-144028914D02*
X187991654Y-143028914D01*
X187991654Y-143028914D02*
X188334511Y-144028914D01*
X188334511Y-144028914D02*
X188334511Y-143028914D01*
X188963082Y-143933675D02*
X188934510Y-143981295D01*
X188934510Y-143981295D02*
X188848796Y-144028914D01*
X188848796Y-144028914D02*
X188791653Y-144028914D01*
X188791653Y-144028914D02*
X188705939Y-143981295D01*
X188705939Y-143981295D02*
X188648796Y-143886056D01*
X188648796Y-143886056D02*
X188620225Y-143790818D01*
X188620225Y-143790818D02*
X188591653Y-143600342D01*
X188591653Y-143600342D02*
X188591653Y-143457485D01*
X188591653Y-143457485D02*
X188620225Y-143267009D01*
X188620225Y-143267009D02*
X188648796Y-143171771D01*
X188648796Y-143171771D02*
X188705939Y-143076533D01*
X188705939Y-143076533D02*
X188791653Y-143028914D01*
X188791653Y-143028914D02*
X188848796Y-143028914D01*
X188848796Y-143028914D02*
X188934510Y-143076533D01*
X188934510Y-143076533D02*
X188963082Y-143124152D01*
X189220225Y-144028914D02*
X189220225Y-143028914D01*
X189220225Y-143028914D02*
X189363082Y-143028914D01*
X189363082Y-143028914D02*
X189448796Y-143076533D01*
X189448796Y-143076533D02*
X189505939Y-143171771D01*
X189505939Y-143171771D02*
X189534510Y-143267009D01*
X189534510Y-143267009D02*
X189563082Y-143457485D01*
X189563082Y-143457485D02*
X189563082Y-143600342D01*
X189563082Y-143600342D02*
X189534510Y-143790818D01*
X189534510Y-143790818D02*
X189505939Y-143886056D01*
X189505939Y-143886056D02*
X189448796Y-143981295D01*
X189448796Y-143981295D02*
X189363082Y-144028914D01*
X189363082Y-144028914D02*
X189220225Y-144028914D01*
X102527387Y-70217262D02*
X102813102Y-70217262D01*
X102470244Y-70502977D02*
X102670244Y-69502977D01*
X102670244Y-69502977D02*
X102870244Y-70502977D01*
X103384530Y-69550596D02*
X103327388Y-69502977D01*
X103327388Y-69502977D02*
X103241673Y-69502977D01*
X103241673Y-69502977D02*
X103155959Y-69550596D01*
X103155959Y-69550596D02*
X103098816Y-69645834D01*
X103098816Y-69645834D02*
X103070245Y-69741072D01*
X103070245Y-69741072D02*
X103041673Y-69931548D01*
X103041673Y-69931548D02*
X103041673Y-70074405D01*
X103041673Y-70074405D02*
X103070245Y-70264881D01*
X103070245Y-70264881D02*
X103098816Y-70360119D01*
X103098816Y-70360119D02*
X103155959Y-70455358D01*
X103155959Y-70455358D02*
X103241673Y-70502977D01*
X103241673Y-70502977D02*
X103298816Y-70502977D01*
X103298816Y-70502977D02*
X103384530Y-70455358D01*
X103384530Y-70455358D02*
X103413102Y-70407738D01*
X103413102Y-70407738D02*
X103413102Y-70074405D01*
X103413102Y-70074405D02*
X103298816Y-70074405D01*
X103670245Y-70502977D02*
X103670245Y-69502977D01*
X103670245Y-69502977D02*
X104013102Y-70502977D01*
X104013102Y-70502977D02*
X104013102Y-69502977D01*
X104298816Y-70502977D02*
X104298816Y-69502977D01*
X104298816Y-69502977D02*
X104441673Y-69502977D01*
X104441673Y-69502977D02*
X104527387Y-69550596D01*
X104527387Y-69550596D02*
X104584530Y-69645834D01*
X104584530Y-69645834D02*
X104613101Y-69741072D01*
X104613101Y-69741072D02*
X104641673Y-69931548D01*
X104641673Y-69931548D02*
X104641673Y-70074405D01*
X104641673Y-70074405D02*
X104613101Y-70264881D01*
X104613101Y-70264881D02*
X104584530Y-70360119D01*
X104584530Y-70360119D02*
X104527387Y-70455358D01*
X104527387Y-70455358D02*
X104441673Y-70502977D01*
X104441673Y-70502977D02*
X104298816Y-70502977D01*
X187481098Y-100609580D02*
X187452526Y-100657200D01*
X187452526Y-100657200D02*
X187366812Y-100704819D01*
X187366812Y-100704819D02*
X187309669Y-100704819D01*
X187309669Y-100704819D02*
X187223955Y-100657200D01*
X187223955Y-100657200D02*
X187166812Y-100561961D01*
X187166812Y-100561961D02*
X187138241Y-100466723D01*
X187138241Y-100466723D02*
X187109669Y-100276247D01*
X187109669Y-100276247D02*
X187109669Y-100133390D01*
X187109669Y-100133390D02*
X187138241Y-99942914D01*
X187138241Y-99942914D02*
X187166812Y-99847676D01*
X187166812Y-99847676D02*
X187223955Y-99752438D01*
X187223955Y-99752438D02*
X187309669Y-99704819D01*
X187309669Y-99704819D02*
X187366812Y-99704819D01*
X187366812Y-99704819D02*
X187452526Y-99752438D01*
X187452526Y-99752438D02*
X187481098Y-99800057D01*
X187709669Y-100657200D02*
X187795384Y-100704819D01*
X187795384Y-100704819D02*
X187938241Y-100704819D01*
X187938241Y-100704819D02*
X187995384Y-100657200D01*
X187995384Y-100657200D02*
X188023955Y-100609580D01*
X188023955Y-100609580D02*
X188052526Y-100514342D01*
X188052526Y-100514342D02*
X188052526Y-100419104D01*
X188052526Y-100419104D02*
X188023955Y-100323866D01*
X188023955Y-100323866D02*
X187995384Y-100276247D01*
X187995384Y-100276247D02*
X187938241Y-100228628D01*
X187938241Y-100228628D02*
X187823955Y-100181009D01*
X187823955Y-100181009D02*
X187766812Y-100133390D01*
X187766812Y-100133390D02*
X187738241Y-100085771D01*
X187738241Y-100085771D02*
X187709669Y-99990533D01*
X187709669Y-99990533D02*
X187709669Y-99895295D01*
X187709669Y-99895295D02*
X187738241Y-99800057D01*
X187738241Y-99800057D02*
X187766812Y-99752438D01*
X187766812Y-99752438D02*
X187823955Y-99704819D01*
X187823955Y-99704819D02*
X187966812Y-99704819D01*
X187966812Y-99704819D02*
X188052526Y-99752438D01*
X188423955Y-99704819D02*
X188481098Y-99704819D01*
X188481098Y-99704819D02*
X188538241Y-99752438D01*
X188538241Y-99752438D02*
X188566813Y-99800057D01*
X188566813Y-99800057D02*
X188595384Y-99895295D01*
X188595384Y-99895295D02*
X188623955Y-100085771D01*
X188623955Y-100085771D02*
X188623955Y-100323866D01*
X188623955Y-100323866D02*
X188595384Y-100514342D01*
X188595384Y-100514342D02*
X188566813Y-100609580D01*
X188566813Y-100609580D02*
X188538241Y-100657200D01*
X188538241Y-100657200D02*
X188481098Y-100704819D01*
X188481098Y-100704819D02*
X188423955Y-100704819D01*
X188423955Y-100704819D02*
X188366813Y-100657200D01*
X188366813Y-100657200D02*
X188338241Y-100609580D01*
X188338241Y-100609580D02*
X188309670Y-100514342D01*
X188309670Y-100514342D02*
X188281098Y-100323866D01*
X188281098Y-100323866D02*
X188281098Y-100085771D01*
X188281098Y-100085771D02*
X188309670Y-99895295D01*
X188309670Y-99895295D02*
X188338241Y-99800057D01*
X188338241Y-99800057D02*
X188366813Y-99752438D01*
X188366813Y-99752438D02*
X188423955Y-99704819D01*
X102978244Y-56471977D02*
X103178244Y-57471977D01*
X103178244Y-57471977D02*
X103378244Y-56471977D01*
X103921102Y-57376738D02*
X103892530Y-57424358D01*
X103892530Y-57424358D02*
X103806816Y-57471977D01*
X103806816Y-57471977D02*
X103749673Y-57471977D01*
X103749673Y-57471977D02*
X103663959Y-57424358D01*
X103663959Y-57424358D02*
X103606816Y-57329119D01*
X103606816Y-57329119D02*
X103578245Y-57233881D01*
X103578245Y-57233881D02*
X103549673Y-57043405D01*
X103549673Y-57043405D02*
X103549673Y-56900548D01*
X103549673Y-56900548D02*
X103578245Y-56710072D01*
X103578245Y-56710072D02*
X103606816Y-56614834D01*
X103606816Y-56614834D02*
X103663959Y-56519596D01*
X103663959Y-56519596D02*
X103749673Y-56471977D01*
X103749673Y-56471977D02*
X103806816Y-56471977D01*
X103806816Y-56471977D02*
X103892530Y-56519596D01*
X103892530Y-56519596D02*
X103921102Y-56567215D01*
X104521102Y-57376738D02*
X104492530Y-57424358D01*
X104492530Y-57424358D02*
X104406816Y-57471977D01*
X104406816Y-57471977D02*
X104349673Y-57471977D01*
X104349673Y-57471977D02*
X104263959Y-57424358D01*
X104263959Y-57424358D02*
X104206816Y-57329119D01*
X104206816Y-57329119D02*
X104178245Y-57233881D01*
X104178245Y-57233881D02*
X104149673Y-57043405D01*
X104149673Y-57043405D02*
X104149673Y-56900548D01*
X104149673Y-56900548D02*
X104178245Y-56710072D01*
X104178245Y-56710072D02*
X104206816Y-56614834D01*
X104206816Y-56614834D02*
X104263959Y-56519596D01*
X104263959Y-56519596D02*
X104349673Y-56471977D01*
X104349673Y-56471977D02*
X104406816Y-56471977D01*
X104406816Y-56471977D02*
X104492530Y-56519596D01*
X104492530Y-56519596D02*
X104521102Y-56567215D01*
X103011034Y-59233425D02*
X103211034Y-60233425D01*
X103211034Y-60233425D02*
X103411034Y-59233425D01*
X103611035Y-59709615D02*
X103811035Y-59709615D01*
X103896749Y-60233425D02*
X103611035Y-60233425D01*
X103611035Y-60233425D02*
X103611035Y-59233425D01*
X103611035Y-59233425D02*
X103896749Y-59233425D01*
X104153892Y-59709615D02*
X104353892Y-59709615D01*
X104439606Y-60233425D02*
X104153892Y-60233425D01*
X104153892Y-60233425D02*
X104153892Y-59233425D01*
X104153892Y-59233425D02*
X104439606Y-59233425D01*
X103723534Y-114542659D02*
X103723534Y-113542659D01*
X103980676Y-113637897D02*
X104009248Y-113590278D01*
X104009248Y-113590278D02*
X104066391Y-113542659D01*
X104066391Y-113542659D02*
X104209248Y-113542659D01*
X104209248Y-113542659D02*
X104266391Y-113590278D01*
X104266391Y-113590278D02*
X104294962Y-113637897D01*
X104294962Y-113637897D02*
X104323533Y-113733135D01*
X104323533Y-113733135D02*
X104323533Y-113828373D01*
X104323533Y-113828373D02*
X104294962Y-113971230D01*
X104294962Y-113971230D02*
X103952105Y-114542659D01*
X103952105Y-114542659D02*
X104323533Y-114542659D01*
X187109669Y-113460166D02*
X187195384Y-113507785D01*
X187195384Y-113507785D02*
X187338241Y-113507785D01*
X187338241Y-113507785D02*
X187395384Y-113460166D01*
X187395384Y-113460166D02*
X187423955Y-113412546D01*
X187423955Y-113412546D02*
X187452526Y-113317308D01*
X187452526Y-113317308D02*
X187452526Y-113222070D01*
X187452526Y-113222070D02*
X187423955Y-113126832D01*
X187423955Y-113126832D02*
X187395384Y-113079213D01*
X187395384Y-113079213D02*
X187338241Y-113031594D01*
X187338241Y-113031594D02*
X187223955Y-112983975D01*
X187223955Y-112983975D02*
X187166812Y-112936356D01*
X187166812Y-112936356D02*
X187138241Y-112888737D01*
X187138241Y-112888737D02*
X187109669Y-112793499D01*
X187109669Y-112793499D02*
X187109669Y-112698261D01*
X187109669Y-112698261D02*
X187138241Y-112603023D01*
X187138241Y-112603023D02*
X187166812Y-112555404D01*
X187166812Y-112555404D02*
X187223955Y-112507785D01*
X187223955Y-112507785D02*
X187366812Y-112507785D01*
X187366812Y-112507785D02*
X187452526Y-112555404D01*
X188052527Y-113412546D02*
X188023955Y-113460166D01*
X188023955Y-113460166D02*
X187938241Y-113507785D01*
X187938241Y-113507785D02*
X187881098Y-113507785D01*
X187881098Y-113507785D02*
X187795384Y-113460166D01*
X187795384Y-113460166D02*
X187738241Y-113364927D01*
X187738241Y-113364927D02*
X187709670Y-113269689D01*
X187709670Y-113269689D02*
X187681098Y-113079213D01*
X187681098Y-113079213D02*
X187681098Y-112936356D01*
X187681098Y-112936356D02*
X187709670Y-112745880D01*
X187709670Y-112745880D02*
X187738241Y-112650642D01*
X187738241Y-112650642D02*
X187795384Y-112555404D01*
X187795384Y-112555404D02*
X187881098Y-112507785D01*
X187881098Y-112507785D02*
X187938241Y-112507785D01*
X187938241Y-112507785D02*
X188023955Y-112555404D01*
X188023955Y-112555404D02*
X188052527Y-112603023D01*
X188595384Y-113507785D02*
X188309670Y-113507785D01*
X188309670Y-113507785D02*
X188309670Y-112507785D01*
X189052527Y-112841118D02*
X189052527Y-113507785D01*
X188909669Y-112460166D02*
X188766812Y-113174451D01*
X188766812Y-113174451D02*
X189138241Y-113174451D01*
X187511644Y-69243696D02*
X187454502Y-69196077D01*
X187454502Y-69196077D02*
X187368787Y-69196077D01*
X187368787Y-69196077D02*
X187283073Y-69243696D01*
X187283073Y-69243696D02*
X187225930Y-69338934D01*
X187225930Y-69338934D02*
X187197359Y-69434172D01*
X187197359Y-69434172D02*
X187168787Y-69624648D01*
X187168787Y-69624648D02*
X187168787Y-69767505D01*
X187168787Y-69767505D02*
X187197359Y-69957981D01*
X187197359Y-69957981D02*
X187225930Y-70053219D01*
X187225930Y-70053219D02*
X187283073Y-70148458D01*
X187283073Y-70148458D02*
X187368787Y-70196077D01*
X187368787Y-70196077D02*
X187425930Y-70196077D01*
X187425930Y-70196077D02*
X187511644Y-70148458D01*
X187511644Y-70148458D02*
X187540216Y-70100838D01*
X187540216Y-70100838D02*
X187540216Y-69767505D01*
X187540216Y-69767505D02*
X187425930Y-69767505D01*
X187797359Y-70196077D02*
X187797359Y-69196077D01*
X187797359Y-69196077D02*
X188140216Y-70196077D01*
X188140216Y-70196077D02*
X188140216Y-69196077D01*
X188425930Y-70196077D02*
X188425930Y-69196077D01*
X188425930Y-69196077D02*
X188568787Y-69196077D01*
X188568787Y-69196077D02*
X188654501Y-69243696D01*
X188654501Y-69243696D02*
X188711644Y-69338934D01*
X188711644Y-69338934D02*
X188740215Y-69434172D01*
X188740215Y-69434172D02*
X188768787Y-69624648D01*
X188768787Y-69624648D02*
X188768787Y-69767505D01*
X188768787Y-69767505D02*
X188740215Y-69957981D01*
X188740215Y-69957981D02*
X188711644Y-70053219D01*
X188711644Y-70053219D02*
X188654501Y-70148458D01*
X188654501Y-70148458D02*
X188568787Y-70196077D01*
X188568787Y-70196077D02*
X188425930Y-70196077D01*
X102865924Y-145229319D02*
X102951639Y-145276938D01*
X102951639Y-145276938D02*
X103094496Y-145276938D01*
X103094496Y-145276938D02*
X103151639Y-145229319D01*
X103151639Y-145229319D02*
X103180210Y-145181699D01*
X103180210Y-145181699D02*
X103208781Y-145086461D01*
X103208781Y-145086461D02*
X103208781Y-144991223D01*
X103208781Y-144991223D02*
X103180210Y-144895985D01*
X103180210Y-144895985D02*
X103151639Y-144848366D01*
X103151639Y-144848366D02*
X103094496Y-144800747D01*
X103094496Y-144800747D02*
X102980210Y-144753128D01*
X102980210Y-144753128D02*
X102923067Y-144705509D01*
X102923067Y-144705509D02*
X102894496Y-144657890D01*
X102894496Y-144657890D02*
X102865924Y-144562652D01*
X102865924Y-144562652D02*
X102865924Y-144467414D01*
X102865924Y-144467414D02*
X102894496Y-144372176D01*
X102894496Y-144372176D02*
X102923067Y-144324557D01*
X102923067Y-144324557D02*
X102980210Y-144276938D01*
X102980210Y-144276938D02*
X103123067Y-144276938D01*
X103123067Y-144276938D02*
X103208781Y-144324557D01*
X103465925Y-145276938D02*
X103465925Y-144610271D01*
X103465925Y-144276938D02*
X103437353Y-144324557D01*
X103437353Y-144324557D02*
X103465925Y-144372176D01*
X103465925Y-144372176D02*
X103494496Y-144324557D01*
X103494496Y-144324557D02*
X103465925Y-144276938D01*
X103465925Y-144276938D02*
X103465925Y-144372176D01*
X103751639Y-144610271D02*
X103751639Y-145276938D01*
X103751639Y-144705509D02*
X103780210Y-144657890D01*
X103780210Y-144657890D02*
X103837353Y-144610271D01*
X103837353Y-144610271D02*
X103923067Y-144610271D01*
X103923067Y-144610271D02*
X103980210Y-144657890D01*
X103980210Y-144657890D02*
X104008782Y-144753128D01*
X104008782Y-144753128D02*
X104008782Y-145276938D01*
X104494496Y-144753128D02*
X104580210Y-144800747D01*
X104580210Y-144800747D02*
X104608781Y-144848366D01*
X104608781Y-144848366D02*
X104637353Y-144943604D01*
X104637353Y-144943604D02*
X104637353Y-145086461D01*
X104637353Y-145086461D02*
X104608781Y-145181699D01*
X104608781Y-145181699D02*
X104580210Y-145229319D01*
X104580210Y-145229319D02*
X104523067Y-145276938D01*
X104523067Y-145276938D02*
X104294496Y-145276938D01*
X104294496Y-145276938D02*
X104294496Y-144276938D01*
X104294496Y-144276938D02*
X104494496Y-144276938D01*
X104494496Y-144276938D02*
X104551639Y-144324557D01*
X104551639Y-144324557D02*
X104580210Y-144372176D01*
X104580210Y-144372176D02*
X104608781Y-144467414D01*
X104608781Y-144467414D02*
X104608781Y-144562652D01*
X104608781Y-144562652D02*
X104580210Y-144657890D01*
X104580210Y-144657890D02*
X104551639Y-144705509D01*
X104551639Y-144705509D02*
X104494496Y-144753128D01*
X104494496Y-144753128D02*
X104294496Y-144753128D01*
X102614910Y-127211223D02*
X102900625Y-127211223D01*
X102557767Y-127496938D02*
X102757767Y-126496938D01*
X102757767Y-126496938D02*
X102957767Y-127496938D01*
X103472053Y-126544557D02*
X103414911Y-126496938D01*
X103414911Y-126496938D02*
X103329196Y-126496938D01*
X103329196Y-126496938D02*
X103243482Y-126544557D01*
X103243482Y-126544557D02*
X103186339Y-126639795D01*
X103186339Y-126639795D02*
X103157768Y-126735033D01*
X103157768Y-126735033D02*
X103129196Y-126925509D01*
X103129196Y-126925509D02*
X103129196Y-127068366D01*
X103129196Y-127068366D02*
X103157768Y-127258842D01*
X103157768Y-127258842D02*
X103186339Y-127354080D01*
X103186339Y-127354080D02*
X103243482Y-127449319D01*
X103243482Y-127449319D02*
X103329196Y-127496938D01*
X103329196Y-127496938D02*
X103386339Y-127496938D01*
X103386339Y-127496938D02*
X103472053Y-127449319D01*
X103472053Y-127449319D02*
X103500625Y-127401699D01*
X103500625Y-127401699D02*
X103500625Y-127068366D01*
X103500625Y-127068366D02*
X103386339Y-127068366D01*
X103757768Y-127496938D02*
X103757768Y-126496938D01*
X103757768Y-126496938D02*
X104100625Y-127496938D01*
X104100625Y-127496938D02*
X104100625Y-126496938D01*
X104386339Y-127496938D02*
X104386339Y-126496938D01*
X104386339Y-126496938D02*
X104529196Y-126496938D01*
X104529196Y-126496938D02*
X104614910Y-126544557D01*
X104614910Y-126544557D02*
X104672053Y-126639795D01*
X104672053Y-126639795D02*
X104700624Y-126735033D01*
X104700624Y-126735033D02*
X104729196Y-126925509D01*
X104729196Y-126925509D02*
X104729196Y-127068366D01*
X104729196Y-127068366D02*
X104700624Y-127258842D01*
X104700624Y-127258842D02*
X104672053Y-127354080D01*
X104672053Y-127354080D02*
X104614910Y-127449319D01*
X104614910Y-127449319D02*
X104529196Y-127496938D01*
X104529196Y-127496938D02*
X104386339Y-127496938D01*
X187109669Y-131240166D02*
X187195384Y-131287785D01*
X187195384Y-131287785D02*
X187338241Y-131287785D01*
X187338241Y-131287785D02*
X187395384Y-131240166D01*
X187395384Y-131240166D02*
X187423955Y-131192546D01*
X187423955Y-131192546D02*
X187452526Y-131097308D01*
X187452526Y-131097308D02*
X187452526Y-131002070D01*
X187452526Y-131002070D02*
X187423955Y-130906832D01*
X187423955Y-130906832D02*
X187395384Y-130859213D01*
X187395384Y-130859213D02*
X187338241Y-130811594D01*
X187338241Y-130811594D02*
X187223955Y-130763975D01*
X187223955Y-130763975D02*
X187166812Y-130716356D01*
X187166812Y-130716356D02*
X187138241Y-130668737D01*
X187138241Y-130668737D02*
X187109669Y-130573499D01*
X187109669Y-130573499D02*
X187109669Y-130478261D01*
X187109669Y-130478261D02*
X187138241Y-130383023D01*
X187138241Y-130383023D02*
X187166812Y-130335404D01*
X187166812Y-130335404D02*
X187223955Y-130287785D01*
X187223955Y-130287785D02*
X187366812Y-130287785D01*
X187366812Y-130287785D02*
X187452526Y-130335404D01*
X187709670Y-131287785D02*
X187709670Y-130287785D01*
X187709670Y-130287785D02*
X187852527Y-130287785D01*
X187852527Y-130287785D02*
X187938241Y-130335404D01*
X187938241Y-130335404D02*
X187995384Y-130430642D01*
X187995384Y-130430642D02*
X188023955Y-130525880D01*
X188023955Y-130525880D02*
X188052527Y-130716356D01*
X188052527Y-130716356D02*
X188052527Y-130859213D01*
X188052527Y-130859213D02*
X188023955Y-131049689D01*
X188023955Y-131049689D02*
X187995384Y-131144927D01*
X187995384Y-131144927D02*
X187938241Y-131240166D01*
X187938241Y-131240166D02*
X187852527Y-131287785D01*
X187852527Y-131287785D02*
X187709670Y-131287785D01*
X188281098Y-131002070D02*
X188566813Y-131002070D01*
X188223955Y-131287785D02*
X188423955Y-130287785D01*
X188423955Y-130287785D02*
X188623955Y-131287785D01*
X188795384Y-130383023D02*
X188823956Y-130335404D01*
X188823956Y-130335404D02*
X188881099Y-130287785D01*
X188881099Y-130287785D02*
X189023956Y-130287785D01*
X189023956Y-130287785D02*
X189081099Y-130335404D01*
X189081099Y-130335404D02*
X189109670Y-130383023D01*
X189109670Y-130383023D02*
X189138241Y-130478261D01*
X189138241Y-130478261D02*
X189138241Y-130573499D01*
X189138241Y-130573499D02*
X189109670Y-130716356D01*
X189109670Y-130716356D02*
X188766813Y-131287785D01*
X188766813Y-131287785D02*
X189138241Y-131287785D01*
X187249999Y-103300166D02*
X187335714Y-103347785D01*
X187335714Y-103347785D02*
X187478571Y-103347785D01*
X187478571Y-103347785D02*
X187535714Y-103300166D01*
X187535714Y-103300166D02*
X187564285Y-103252546D01*
X187564285Y-103252546D02*
X187592856Y-103157308D01*
X187592856Y-103157308D02*
X187592856Y-103062070D01*
X187592856Y-103062070D02*
X187564285Y-102966832D01*
X187564285Y-102966832D02*
X187535714Y-102919213D01*
X187535714Y-102919213D02*
X187478571Y-102871594D01*
X187478571Y-102871594D02*
X187364285Y-102823975D01*
X187364285Y-102823975D02*
X187307142Y-102776356D01*
X187307142Y-102776356D02*
X187278571Y-102728737D01*
X187278571Y-102728737D02*
X187249999Y-102633499D01*
X187249999Y-102633499D02*
X187249999Y-102538261D01*
X187249999Y-102538261D02*
X187278571Y-102443023D01*
X187278571Y-102443023D02*
X187307142Y-102395404D01*
X187307142Y-102395404D02*
X187364285Y-102347785D01*
X187364285Y-102347785D02*
X187507142Y-102347785D01*
X187507142Y-102347785D02*
X187592856Y-102395404D01*
X187850000Y-103347785D02*
X187850000Y-102347785D01*
X187850000Y-102347785D02*
X188078571Y-102347785D01*
X188078571Y-102347785D02*
X188135714Y-102395404D01*
X188135714Y-102395404D02*
X188164285Y-102443023D01*
X188164285Y-102443023D02*
X188192857Y-102538261D01*
X188192857Y-102538261D02*
X188192857Y-102681118D01*
X188192857Y-102681118D02*
X188164285Y-102776356D01*
X188164285Y-102776356D02*
X188135714Y-102823975D01*
X188135714Y-102823975D02*
X188078571Y-102871594D01*
X188078571Y-102871594D02*
X187850000Y-102871594D01*
X188450000Y-103347785D02*
X188450000Y-102347785D01*
X188592857Y-103443023D02*
X189049999Y-103443023D01*
X189450000Y-103300166D02*
X189392857Y-103347785D01*
X189392857Y-103347785D02*
X189278571Y-103347785D01*
X189278571Y-103347785D02*
X189221428Y-103300166D01*
X189221428Y-103300166D02*
X189192857Y-103252546D01*
X189192857Y-103252546D02*
X189164285Y-103157308D01*
X189164285Y-103157308D02*
X189164285Y-102871594D01*
X189164285Y-102871594D02*
X189192857Y-102776356D01*
X189192857Y-102776356D02*
X189221428Y-102728737D01*
X189221428Y-102728737D02*
X189278571Y-102681118D01*
X189278571Y-102681118D02*
X189392857Y-102681118D01*
X189392857Y-102681118D02*
X189450000Y-102728737D01*
X189792857Y-103347785D02*
X189735714Y-103300166D01*
X189735714Y-103300166D02*
X189707143Y-103204927D01*
X189707143Y-103204927D02*
X189707143Y-102347785D01*
X190021429Y-103347785D02*
X190021429Y-102347785D01*
X190078572Y-102966832D02*
X190250000Y-103347785D01*
X190250000Y-102681118D02*
X190021429Y-103062070D01*
X187452526Y-94775404D02*
X187395384Y-94727785D01*
X187395384Y-94727785D02*
X187309669Y-94727785D01*
X187309669Y-94727785D02*
X187223955Y-94775404D01*
X187223955Y-94775404D02*
X187166812Y-94870642D01*
X187166812Y-94870642D02*
X187138241Y-94965880D01*
X187138241Y-94965880D02*
X187109669Y-95156356D01*
X187109669Y-95156356D02*
X187109669Y-95299213D01*
X187109669Y-95299213D02*
X187138241Y-95489689D01*
X187138241Y-95489689D02*
X187166812Y-95584927D01*
X187166812Y-95584927D02*
X187223955Y-95680166D01*
X187223955Y-95680166D02*
X187309669Y-95727785D01*
X187309669Y-95727785D02*
X187366812Y-95727785D01*
X187366812Y-95727785D02*
X187452526Y-95680166D01*
X187452526Y-95680166D02*
X187481098Y-95632546D01*
X187481098Y-95632546D02*
X187481098Y-95299213D01*
X187481098Y-95299213D02*
X187366812Y-95299213D01*
X187738241Y-95727785D02*
X187738241Y-94727785D01*
X187738241Y-94727785D02*
X188081098Y-95727785D01*
X188081098Y-95727785D02*
X188081098Y-94727785D01*
X188366812Y-95727785D02*
X188366812Y-94727785D01*
X188366812Y-94727785D02*
X188509669Y-94727785D01*
X188509669Y-94727785D02*
X188595383Y-94775404D01*
X188595383Y-94775404D02*
X188652526Y-94870642D01*
X188652526Y-94870642D02*
X188681097Y-94965880D01*
X188681097Y-94965880D02*
X188709669Y-95156356D01*
X188709669Y-95156356D02*
X188709669Y-95299213D01*
X188709669Y-95299213D02*
X188681097Y-95489689D01*
X188681097Y-95489689D02*
X188652526Y-95584927D01*
X188652526Y-95584927D02*
X188595383Y-95680166D01*
X188595383Y-95680166D02*
X188509669Y-95727785D01*
X188509669Y-95727785D02*
X188366812Y-95727785D01*
X102564998Y-116902714D02*
X102850713Y-116902714D01*
X102507855Y-117188429D02*
X102707855Y-116188429D01*
X102707855Y-116188429D02*
X102907855Y-117188429D01*
X103422141Y-116236048D02*
X103364999Y-116188429D01*
X103364999Y-116188429D02*
X103279284Y-116188429D01*
X103279284Y-116188429D02*
X103193570Y-116236048D01*
X103193570Y-116236048D02*
X103136427Y-116331286D01*
X103136427Y-116331286D02*
X103107856Y-116426524D01*
X103107856Y-116426524D02*
X103079284Y-116617000D01*
X103079284Y-116617000D02*
X103079284Y-116759857D01*
X103079284Y-116759857D02*
X103107856Y-116950333D01*
X103107856Y-116950333D02*
X103136427Y-117045571D01*
X103136427Y-117045571D02*
X103193570Y-117140810D01*
X103193570Y-117140810D02*
X103279284Y-117188429D01*
X103279284Y-117188429D02*
X103336427Y-117188429D01*
X103336427Y-117188429D02*
X103422141Y-117140810D01*
X103422141Y-117140810D02*
X103450713Y-117093190D01*
X103450713Y-117093190D02*
X103450713Y-116759857D01*
X103450713Y-116759857D02*
X103336427Y-116759857D01*
X103707856Y-117188429D02*
X103707856Y-116188429D01*
X103707856Y-116188429D02*
X104050713Y-117188429D01*
X104050713Y-117188429D02*
X104050713Y-116188429D01*
X104336427Y-117188429D02*
X104336427Y-116188429D01*
X104336427Y-116188429D02*
X104479284Y-116188429D01*
X104479284Y-116188429D02*
X104564998Y-116236048D01*
X104564998Y-116236048D02*
X104622141Y-116331286D01*
X104622141Y-116331286D02*
X104650712Y-116426524D01*
X104650712Y-116426524D02*
X104679284Y-116617000D01*
X104679284Y-116617000D02*
X104679284Y-116759857D01*
X104679284Y-116759857D02*
X104650712Y-116950333D01*
X104650712Y-116950333D02*
X104622141Y-117045571D01*
X104622141Y-117045571D02*
X104564998Y-117140810D01*
X104564998Y-117140810D02*
X104479284Y-117188429D01*
X104479284Y-117188429D02*
X104336427Y-117188429D01*
X103807499Y-109717090D02*
X103807499Y-108717090D01*
X104407498Y-109717090D02*
X104064641Y-109717090D01*
X104236070Y-109717090D02*
X104236070Y-108717090D01*
X104236070Y-108717090D02*
X104178927Y-108859947D01*
X104178927Y-108859947D02*
X104121784Y-108955185D01*
X104121784Y-108955185D02*
X104064641Y-109002804D01*
X187463626Y-140352691D02*
X187406484Y-140305072D01*
X187406484Y-140305072D02*
X187320769Y-140305072D01*
X187320769Y-140305072D02*
X187235055Y-140352691D01*
X187235055Y-140352691D02*
X187177912Y-140447929D01*
X187177912Y-140447929D02*
X187149341Y-140543167D01*
X187149341Y-140543167D02*
X187120769Y-140733643D01*
X187120769Y-140733643D02*
X187120769Y-140876500D01*
X187120769Y-140876500D02*
X187149341Y-141066976D01*
X187149341Y-141066976D02*
X187177912Y-141162214D01*
X187177912Y-141162214D02*
X187235055Y-141257453D01*
X187235055Y-141257453D02*
X187320769Y-141305072D01*
X187320769Y-141305072D02*
X187377912Y-141305072D01*
X187377912Y-141305072D02*
X187463626Y-141257453D01*
X187463626Y-141257453D02*
X187492198Y-141209833D01*
X187492198Y-141209833D02*
X187492198Y-140876500D01*
X187492198Y-140876500D02*
X187377912Y-140876500D01*
X187749341Y-141305072D02*
X187749341Y-140305072D01*
X187749341Y-140305072D02*
X188092198Y-141305072D01*
X188092198Y-141305072D02*
X188092198Y-140305072D01*
X188377912Y-141305072D02*
X188377912Y-140305072D01*
X188377912Y-140305072D02*
X188520769Y-140305072D01*
X188520769Y-140305072D02*
X188606483Y-140352691D01*
X188606483Y-140352691D02*
X188663626Y-140447929D01*
X188663626Y-140447929D02*
X188692197Y-140543167D01*
X188692197Y-140543167D02*
X188720769Y-140733643D01*
X188720769Y-140733643D02*
X188720769Y-140876500D01*
X188720769Y-140876500D02*
X188692197Y-141066976D01*
X188692197Y-141066976D02*
X188663626Y-141162214D01*
X188663626Y-141162214D02*
X188606483Y-141257453D01*
X188606483Y-141257453D02*
X188520769Y-141305072D01*
X188520769Y-141305072D02*
X188377912Y-141305072D01*
X102568426Y-122442283D02*
X102854141Y-122442283D01*
X102511283Y-122727998D02*
X102711283Y-121727998D01*
X102711283Y-121727998D02*
X102911283Y-122727998D01*
X103425569Y-121775617D02*
X103368427Y-121727998D01*
X103368427Y-121727998D02*
X103282712Y-121727998D01*
X103282712Y-121727998D02*
X103196998Y-121775617D01*
X103196998Y-121775617D02*
X103139855Y-121870855D01*
X103139855Y-121870855D02*
X103111284Y-121966093D01*
X103111284Y-121966093D02*
X103082712Y-122156569D01*
X103082712Y-122156569D02*
X103082712Y-122299426D01*
X103082712Y-122299426D02*
X103111284Y-122489902D01*
X103111284Y-122489902D02*
X103139855Y-122585140D01*
X103139855Y-122585140D02*
X103196998Y-122680379D01*
X103196998Y-122680379D02*
X103282712Y-122727998D01*
X103282712Y-122727998D02*
X103339855Y-122727998D01*
X103339855Y-122727998D02*
X103425569Y-122680379D01*
X103425569Y-122680379D02*
X103454141Y-122632759D01*
X103454141Y-122632759D02*
X103454141Y-122299426D01*
X103454141Y-122299426D02*
X103339855Y-122299426D01*
X103711284Y-122727998D02*
X103711284Y-121727998D01*
X103711284Y-121727998D02*
X104054141Y-122727998D01*
X104054141Y-122727998D02*
X104054141Y-121727998D01*
X104339855Y-122727998D02*
X104339855Y-121727998D01*
X104339855Y-121727998D02*
X104482712Y-121727998D01*
X104482712Y-121727998D02*
X104568426Y-121775617D01*
X104568426Y-121775617D02*
X104625569Y-121870855D01*
X104625569Y-121870855D02*
X104654140Y-121966093D01*
X104654140Y-121966093D02*
X104682712Y-122156569D01*
X104682712Y-122156569D02*
X104682712Y-122299426D01*
X104682712Y-122299426D02*
X104654140Y-122489902D01*
X104654140Y-122489902D02*
X104625569Y-122585140D01*
X104625569Y-122585140D02*
X104568426Y-122680379D01*
X104568426Y-122680379D02*
X104482712Y-122727998D01*
X104482712Y-122727998D02*
X104339855Y-122727998D01*
X102621311Y-142503955D02*
X102907026Y-142503955D01*
X102564168Y-142789670D02*
X102764168Y-141789670D01*
X102764168Y-141789670D02*
X102964168Y-142789670D01*
X103478454Y-141837289D02*
X103421312Y-141789670D01*
X103421312Y-141789670D02*
X103335597Y-141789670D01*
X103335597Y-141789670D02*
X103249883Y-141837289D01*
X103249883Y-141837289D02*
X103192740Y-141932527D01*
X103192740Y-141932527D02*
X103164169Y-142027765D01*
X103164169Y-142027765D02*
X103135597Y-142218241D01*
X103135597Y-142218241D02*
X103135597Y-142361098D01*
X103135597Y-142361098D02*
X103164169Y-142551574D01*
X103164169Y-142551574D02*
X103192740Y-142646812D01*
X103192740Y-142646812D02*
X103249883Y-142742051D01*
X103249883Y-142742051D02*
X103335597Y-142789670D01*
X103335597Y-142789670D02*
X103392740Y-142789670D01*
X103392740Y-142789670D02*
X103478454Y-142742051D01*
X103478454Y-142742051D02*
X103507026Y-142694431D01*
X103507026Y-142694431D02*
X103507026Y-142361098D01*
X103507026Y-142361098D02*
X103392740Y-142361098D01*
X103764169Y-142789670D02*
X103764169Y-141789670D01*
X103764169Y-141789670D02*
X104107026Y-142789670D01*
X104107026Y-142789670D02*
X104107026Y-141789670D01*
X104392740Y-142789670D02*
X104392740Y-141789670D01*
X104392740Y-141789670D02*
X104535597Y-141789670D01*
X104535597Y-141789670D02*
X104621311Y-141837289D01*
X104621311Y-141837289D02*
X104678454Y-141932527D01*
X104678454Y-141932527D02*
X104707025Y-142027765D01*
X104707025Y-142027765D02*
X104735597Y-142218241D01*
X104735597Y-142218241D02*
X104735597Y-142361098D01*
X104735597Y-142361098D02*
X104707025Y-142551574D01*
X104707025Y-142551574D02*
X104678454Y-142646812D01*
X104678454Y-142646812D02*
X104621311Y-142742051D01*
X104621311Y-142742051D02*
X104535597Y-142789670D01*
X104535597Y-142789670D02*
X104392740Y-142789670D01*
X102865924Y-135069319D02*
X102951639Y-135116938D01*
X102951639Y-135116938D02*
X103094496Y-135116938D01*
X103094496Y-135116938D02*
X103151639Y-135069319D01*
X103151639Y-135069319D02*
X103180210Y-135021699D01*
X103180210Y-135021699D02*
X103208781Y-134926461D01*
X103208781Y-134926461D02*
X103208781Y-134831223D01*
X103208781Y-134831223D02*
X103180210Y-134735985D01*
X103180210Y-134735985D02*
X103151639Y-134688366D01*
X103151639Y-134688366D02*
X103094496Y-134640747D01*
X103094496Y-134640747D02*
X102980210Y-134593128D01*
X102980210Y-134593128D02*
X102923067Y-134545509D01*
X102923067Y-134545509D02*
X102894496Y-134497890D01*
X102894496Y-134497890D02*
X102865924Y-134402652D01*
X102865924Y-134402652D02*
X102865924Y-134307414D01*
X102865924Y-134307414D02*
X102894496Y-134212176D01*
X102894496Y-134212176D02*
X102923067Y-134164557D01*
X102923067Y-134164557D02*
X102980210Y-134116938D01*
X102980210Y-134116938D02*
X103123067Y-134116938D01*
X103123067Y-134116938D02*
X103208781Y-134164557D01*
X103465925Y-135116938D02*
X103465925Y-134450271D01*
X103465925Y-134116938D02*
X103437353Y-134164557D01*
X103437353Y-134164557D02*
X103465925Y-134212176D01*
X103465925Y-134212176D02*
X103494496Y-134164557D01*
X103494496Y-134164557D02*
X103465925Y-134116938D01*
X103465925Y-134116938D02*
X103465925Y-134212176D01*
X103751639Y-134450271D02*
X103751639Y-135116938D01*
X103751639Y-134545509D02*
X103780210Y-134497890D01*
X103780210Y-134497890D02*
X103837353Y-134450271D01*
X103837353Y-134450271D02*
X103923067Y-134450271D01*
X103923067Y-134450271D02*
X103980210Y-134497890D01*
X103980210Y-134497890D02*
X104008782Y-134593128D01*
X104008782Y-134593128D02*
X104008782Y-135116938D01*
X104265924Y-134212176D02*
X104294496Y-134164557D01*
X104294496Y-134164557D02*
X104351639Y-134116938D01*
X104351639Y-134116938D02*
X104494496Y-134116938D01*
X104494496Y-134116938D02*
X104551639Y-134164557D01*
X104551639Y-134164557D02*
X104580210Y-134212176D01*
X104580210Y-134212176D02*
X104608781Y-134307414D01*
X104608781Y-134307414D02*
X104608781Y-134402652D01*
X104608781Y-134402652D02*
X104580210Y-134545509D01*
X104580210Y-134545509D02*
X104237353Y-135116938D01*
X104237353Y-135116938D02*
X104608781Y-135116938D01*
X102771681Y-67453244D02*
X103228824Y-67453244D01*
X103000252Y-67834197D02*
X103000252Y-67072292D01*
X103543109Y-67834197D02*
X103657395Y-67834197D01*
X103657395Y-67834197D02*
X103714538Y-67786578D01*
X103714538Y-67786578D02*
X103743109Y-67738958D01*
X103743109Y-67738958D02*
X103800252Y-67596101D01*
X103800252Y-67596101D02*
X103828823Y-67405625D01*
X103828823Y-67405625D02*
X103828823Y-67024673D01*
X103828823Y-67024673D02*
X103800252Y-66929435D01*
X103800252Y-66929435D02*
X103771681Y-66881816D01*
X103771681Y-66881816D02*
X103714538Y-66834197D01*
X103714538Y-66834197D02*
X103600252Y-66834197D01*
X103600252Y-66834197D02*
X103543109Y-66881816D01*
X103543109Y-66881816D02*
X103514538Y-66929435D01*
X103514538Y-66929435D02*
X103485966Y-67024673D01*
X103485966Y-67024673D02*
X103485966Y-67262768D01*
X103485966Y-67262768D02*
X103514538Y-67358006D01*
X103514538Y-67358006D02*
X103543109Y-67405625D01*
X103543109Y-67405625D02*
X103600252Y-67453244D01*
X103600252Y-67453244D02*
X103714538Y-67453244D01*
X103714538Y-67453244D02*
X103771681Y-67405625D01*
X103771681Y-67405625D02*
X103800252Y-67358006D01*
X103800252Y-67358006D02*
X103828823Y-67262768D01*
X104000252Y-66834197D02*
X104200252Y-67834197D01*
X104200252Y-67834197D02*
X104400252Y-66834197D01*
X102628017Y-106703301D02*
X102913732Y-106703301D01*
X102570874Y-106989016D02*
X102770874Y-105989016D01*
X102770874Y-105989016D02*
X102970874Y-106989016D01*
X103485160Y-106036635D02*
X103428018Y-105989016D01*
X103428018Y-105989016D02*
X103342303Y-105989016D01*
X103342303Y-105989016D02*
X103256589Y-106036635D01*
X103256589Y-106036635D02*
X103199446Y-106131873D01*
X103199446Y-106131873D02*
X103170875Y-106227111D01*
X103170875Y-106227111D02*
X103142303Y-106417587D01*
X103142303Y-106417587D02*
X103142303Y-106560444D01*
X103142303Y-106560444D02*
X103170875Y-106750920D01*
X103170875Y-106750920D02*
X103199446Y-106846158D01*
X103199446Y-106846158D02*
X103256589Y-106941397D01*
X103256589Y-106941397D02*
X103342303Y-106989016D01*
X103342303Y-106989016D02*
X103399446Y-106989016D01*
X103399446Y-106989016D02*
X103485160Y-106941397D01*
X103485160Y-106941397D02*
X103513732Y-106893777D01*
X103513732Y-106893777D02*
X103513732Y-106560444D01*
X103513732Y-106560444D02*
X103399446Y-106560444D01*
X103770875Y-106989016D02*
X103770875Y-105989016D01*
X103770875Y-105989016D02*
X104113732Y-106989016D01*
X104113732Y-106989016D02*
X104113732Y-105989016D01*
X104399446Y-106989016D02*
X104399446Y-105989016D01*
X104399446Y-105989016D02*
X104542303Y-105989016D01*
X104542303Y-105989016D02*
X104628017Y-106036635D01*
X104628017Y-106036635D02*
X104685160Y-106131873D01*
X104685160Y-106131873D02*
X104713731Y-106227111D01*
X104713731Y-106227111D02*
X104742303Y-106417587D01*
X104742303Y-106417587D02*
X104742303Y-106560444D01*
X104742303Y-106560444D02*
X104713731Y-106750920D01*
X104713731Y-106750920D02*
X104685160Y-106846158D01*
X104685160Y-106846158D02*
X104628017Y-106941397D01*
X104628017Y-106941397D02*
X104542303Y-106989016D01*
X104542303Y-106989016D02*
X104399446Y-106989016D01*
X187452526Y-132875404D02*
X187395384Y-132827785D01*
X187395384Y-132827785D02*
X187309669Y-132827785D01*
X187309669Y-132827785D02*
X187223955Y-132875404D01*
X187223955Y-132875404D02*
X187166812Y-132970642D01*
X187166812Y-132970642D02*
X187138241Y-133065880D01*
X187138241Y-133065880D02*
X187109669Y-133256356D01*
X187109669Y-133256356D02*
X187109669Y-133399213D01*
X187109669Y-133399213D02*
X187138241Y-133589689D01*
X187138241Y-133589689D02*
X187166812Y-133684927D01*
X187166812Y-133684927D02*
X187223955Y-133780166D01*
X187223955Y-133780166D02*
X187309669Y-133827785D01*
X187309669Y-133827785D02*
X187366812Y-133827785D01*
X187366812Y-133827785D02*
X187452526Y-133780166D01*
X187452526Y-133780166D02*
X187481098Y-133732546D01*
X187481098Y-133732546D02*
X187481098Y-133399213D01*
X187481098Y-133399213D02*
X187366812Y-133399213D01*
X187738241Y-133827785D02*
X187738241Y-132827785D01*
X187738241Y-132827785D02*
X188081098Y-133827785D01*
X188081098Y-133827785D02*
X188081098Y-132827785D01*
X188366812Y-133827785D02*
X188366812Y-132827785D01*
X188366812Y-132827785D02*
X188509669Y-132827785D01*
X188509669Y-132827785D02*
X188595383Y-132875404D01*
X188595383Y-132875404D02*
X188652526Y-132970642D01*
X188652526Y-132970642D02*
X188681097Y-133065880D01*
X188681097Y-133065880D02*
X188709669Y-133256356D01*
X188709669Y-133256356D02*
X188709669Y-133399213D01*
X188709669Y-133399213D02*
X188681097Y-133589689D01*
X188681097Y-133589689D02*
X188652526Y-133684927D01*
X188652526Y-133684927D02*
X188595383Y-133780166D01*
X188595383Y-133780166D02*
X188509669Y-133827785D01*
X188509669Y-133827785D02*
X188366812Y-133827785D01*
X184200000Y-145926009D02*
X184000000Y-145926009D01*
X184000000Y-146449819D02*
X184000000Y-145449819D01*
X184000000Y-145449819D02*
X184285714Y-145449819D01*
X184600000Y-146449819D02*
X184542857Y-146402200D01*
X184542857Y-146402200D02*
X184514286Y-146354580D01*
X184514286Y-146354580D02*
X184485714Y-146259342D01*
X184485714Y-146259342D02*
X184485714Y-145973628D01*
X184485714Y-145973628D02*
X184514286Y-145878390D01*
X184514286Y-145878390D02*
X184542857Y-145830771D01*
X184542857Y-145830771D02*
X184600000Y-145783152D01*
X184600000Y-145783152D02*
X184685714Y-145783152D01*
X184685714Y-145783152D02*
X184742857Y-145830771D01*
X184742857Y-145830771D02*
X184771429Y-145878390D01*
X184771429Y-145878390D02*
X184800000Y-145973628D01*
X184800000Y-145973628D02*
X184800000Y-146259342D01*
X184800000Y-146259342D02*
X184771429Y-146354580D01*
X184771429Y-146354580D02*
X184742857Y-146402200D01*
X184742857Y-146402200D02*
X184685714Y-146449819D01*
X184685714Y-146449819D02*
X184600000Y-146449819D01*
X185057143Y-145783152D02*
X185057143Y-146449819D01*
X185057143Y-145878390D02*
X185085714Y-145830771D01*
X185085714Y-145830771D02*
X185142857Y-145783152D01*
X185142857Y-145783152D02*
X185228571Y-145783152D01*
X185228571Y-145783152D02*
X185285714Y-145830771D01*
X185285714Y-145830771D02*
X185314286Y-145926009D01*
X185314286Y-145926009D02*
X185314286Y-146449819D01*
X185514285Y-145783152D02*
X185742857Y-145783152D01*
X185600000Y-145449819D02*
X185600000Y-146306961D01*
X185600000Y-146306961D02*
X185628571Y-146402200D01*
X185628571Y-146402200D02*
X185685714Y-146449819D01*
X185685714Y-146449819D02*
X185742857Y-146449819D01*
X186171428Y-146402200D02*
X186114285Y-146449819D01*
X186114285Y-146449819D02*
X186000000Y-146449819D01*
X186000000Y-146449819D02*
X185942857Y-146402200D01*
X185942857Y-146402200D02*
X185914285Y-146306961D01*
X185914285Y-146306961D02*
X185914285Y-145926009D01*
X185914285Y-145926009D02*
X185942857Y-145830771D01*
X185942857Y-145830771D02*
X186000000Y-145783152D01*
X186000000Y-145783152D02*
X186114285Y-145783152D01*
X186114285Y-145783152D02*
X186171428Y-145830771D01*
X186171428Y-145830771D02*
X186200000Y-145926009D01*
X186200000Y-145926009D02*
X186200000Y-146021247D01*
X186200000Y-146021247D02*
X185914285Y-146116485D01*
X186828571Y-145783152D02*
X187057143Y-145783152D01*
X186914286Y-145449819D02*
X186914286Y-146306961D01*
X186914286Y-146306961D02*
X186942857Y-146402200D01*
X186942857Y-146402200D02*
X187000000Y-146449819D01*
X187000000Y-146449819D02*
X187057143Y-146449819D01*
X187485714Y-146402200D02*
X187428571Y-146449819D01*
X187428571Y-146449819D02*
X187314286Y-146449819D01*
X187314286Y-146449819D02*
X187257143Y-146402200D01*
X187257143Y-146402200D02*
X187228571Y-146306961D01*
X187228571Y-146306961D02*
X187228571Y-145926009D01*
X187228571Y-145926009D02*
X187257143Y-145830771D01*
X187257143Y-145830771D02*
X187314286Y-145783152D01*
X187314286Y-145783152D02*
X187428571Y-145783152D01*
X187428571Y-145783152D02*
X187485714Y-145830771D01*
X187485714Y-145830771D02*
X187514286Y-145926009D01*
X187514286Y-145926009D02*
X187514286Y-146021247D01*
X187514286Y-146021247D02*
X187228571Y-146116485D01*
X187771429Y-145783152D02*
X187771429Y-146449819D01*
X187771429Y-145878390D02*
X187800000Y-145830771D01*
X187800000Y-145830771D02*
X187857143Y-145783152D01*
X187857143Y-145783152D02*
X187942857Y-145783152D01*
X187942857Y-145783152D02*
X188000000Y-145830771D01*
X188000000Y-145830771D02*
X188028572Y-145926009D01*
X188028572Y-145926009D02*
X188028572Y-146449819D01*
X188285714Y-146402200D02*
X188342857Y-146449819D01*
X188342857Y-146449819D02*
X188457143Y-146449819D01*
X188457143Y-146449819D02*
X188514286Y-146402200D01*
X188514286Y-146402200D02*
X188542857Y-146306961D01*
X188542857Y-146306961D02*
X188542857Y-146259342D01*
X188542857Y-146259342D02*
X188514286Y-146164104D01*
X188514286Y-146164104D02*
X188457143Y-146116485D01*
X188457143Y-146116485D02*
X188371429Y-146116485D01*
X188371429Y-146116485D02*
X188314286Y-146068866D01*
X188314286Y-146068866D02*
X188285714Y-145973628D01*
X188285714Y-145973628D02*
X188285714Y-145926009D01*
X188285714Y-145926009D02*
X188314286Y-145830771D01*
X188314286Y-145830771D02*
X188371429Y-145783152D01*
X188371429Y-145783152D02*
X188457143Y-145783152D01*
X188457143Y-145783152D02*
X188514286Y-145830771D01*
X189057143Y-146449819D02*
X189057143Y-145926009D01*
X189057143Y-145926009D02*
X189028571Y-145830771D01*
X189028571Y-145830771D02*
X188971428Y-145783152D01*
X188971428Y-145783152D02*
X188857143Y-145783152D01*
X188857143Y-145783152D02*
X188800000Y-145830771D01*
X189057143Y-146402200D02*
X189000000Y-146449819D01*
X189000000Y-146449819D02*
X188857143Y-146449819D01*
X188857143Y-146449819D02*
X188800000Y-146402200D01*
X188800000Y-146402200D02*
X188771428Y-146306961D01*
X188771428Y-146306961D02*
X188771428Y-146211723D01*
X188771428Y-146211723D02*
X188800000Y-146116485D01*
X188800000Y-146116485D02*
X188857143Y-146068866D01*
X188857143Y-146068866D02*
X189000000Y-146068866D01*
X189000000Y-146068866D02*
X189057143Y-146021247D01*
X189428571Y-146449819D02*
X189371428Y-146402200D01*
X189371428Y-146402200D02*
X189342857Y-146354580D01*
X189342857Y-146354580D02*
X189314285Y-146259342D01*
X189314285Y-146259342D02*
X189314285Y-145973628D01*
X189314285Y-145973628D02*
X189342857Y-145878390D01*
X189342857Y-145878390D02*
X189371428Y-145830771D01*
X189371428Y-145830771D02*
X189428571Y-145783152D01*
X189428571Y-145783152D02*
X189514285Y-145783152D01*
X189514285Y-145783152D02*
X189571428Y-145830771D01*
X189571428Y-145830771D02*
X189600000Y-145878390D01*
X189600000Y-145878390D02*
X189628571Y-145973628D01*
X189628571Y-145973628D02*
X189628571Y-146259342D01*
X189628571Y-146259342D02*
X189600000Y-146354580D01*
X189600000Y-146354580D02*
X189571428Y-146402200D01*
X189571428Y-146402200D02*
X189514285Y-146449819D01*
X189514285Y-146449819D02*
X189428571Y-146449819D01*
X186028570Y-147059819D02*
X186228570Y-148059819D01*
X186228570Y-148059819D02*
X186428570Y-147059819D01*
X186742856Y-147059819D02*
X186799999Y-147059819D01*
X186799999Y-147059819D02*
X186857142Y-147107438D01*
X186857142Y-147107438D02*
X186885714Y-147155057D01*
X186885714Y-147155057D02*
X186914285Y-147250295D01*
X186914285Y-147250295D02*
X186942856Y-147440771D01*
X186942856Y-147440771D02*
X186942856Y-147678866D01*
X186942856Y-147678866D02*
X186914285Y-147869342D01*
X186914285Y-147869342D02*
X186885714Y-147964580D01*
X186885714Y-147964580D02*
X186857142Y-148012200D01*
X186857142Y-148012200D02*
X186799999Y-148059819D01*
X186799999Y-148059819D02*
X186742856Y-148059819D01*
X186742856Y-148059819D02*
X186685714Y-148012200D01*
X186685714Y-148012200D02*
X186657142Y-147964580D01*
X186657142Y-147964580D02*
X186628571Y-147869342D01*
X186628571Y-147869342D02*
X186599999Y-147678866D01*
X186599999Y-147678866D02*
X186599999Y-147440771D01*
X186599999Y-147440771D02*
X186628571Y-147250295D01*
X186628571Y-147250295D02*
X186657142Y-147155057D01*
X186657142Y-147155057D02*
X186685714Y-147107438D01*
X186685714Y-147107438D02*
X186742856Y-147059819D01*
X187485714Y-147059819D02*
X187200000Y-147059819D01*
X187200000Y-147059819D02*
X187171428Y-147536009D01*
X187171428Y-147536009D02*
X187200000Y-147488390D01*
X187200000Y-147488390D02*
X187257143Y-147440771D01*
X187257143Y-147440771D02*
X187400000Y-147440771D01*
X187400000Y-147440771D02*
X187457143Y-147488390D01*
X187457143Y-147488390D02*
X187485714Y-147536009D01*
X187485714Y-147536009D02*
X187514285Y-147631247D01*
X187514285Y-147631247D02*
X187514285Y-147869342D01*
X187514285Y-147869342D02*
X187485714Y-147964580D01*
X187485714Y-147964580D02*
X187457143Y-148012200D01*
X187457143Y-148012200D02*
X187400000Y-148059819D01*
X187400000Y-148059819D02*
X187257143Y-148059819D01*
X187257143Y-148059819D02*
X187200000Y-148012200D01*
X187200000Y-148012200D02*
X187171428Y-147964580D01*
X185771427Y-148765057D02*
X185799999Y-148717438D01*
X185799999Y-148717438D02*
X185857142Y-148669819D01*
X185857142Y-148669819D02*
X185999999Y-148669819D01*
X185999999Y-148669819D02*
X186057142Y-148717438D01*
X186057142Y-148717438D02*
X186085713Y-148765057D01*
X186085713Y-148765057D02*
X186114284Y-148860295D01*
X186114284Y-148860295D02*
X186114284Y-148955533D01*
X186114284Y-148955533D02*
X186085713Y-149098390D01*
X186085713Y-149098390D02*
X185742856Y-149669819D01*
X185742856Y-149669819D02*
X186114284Y-149669819D01*
X186485713Y-148669819D02*
X186542856Y-148669819D01*
X186542856Y-148669819D02*
X186599999Y-148717438D01*
X186599999Y-148717438D02*
X186628571Y-148765057D01*
X186628571Y-148765057D02*
X186657142Y-148860295D01*
X186657142Y-148860295D02*
X186685713Y-149050771D01*
X186685713Y-149050771D02*
X186685713Y-149288866D01*
X186685713Y-149288866D02*
X186657142Y-149479342D01*
X186657142Y-149479342D02*
X186628571Y-149574580D01*
X186628571Y-149574580D02*
X186599999Y-149622200D01*
X186599999Y-149622200D02*
X186542856Y-149669819D01*
X186542856Y-149669819D02*
X186485713Y-149669819D01*
X186485713Y-149669819D02*
X186428571Y-149622200D01*
X186428571Y-149622200D02*
X186399999Y-149574580D01*
X186399999Y-149574580D02*
X186371428Y-149479342D01*
X186371428Y-149479342D02*
X186342856Y-149288866D01*
X186342856Y-149288866D02*
X186342856Y-149050771D01*
X186342856Y-149050771D02*
X186371428Y-148860295D01*
X186371428Y-148860295D02*
X186399999Y-148765057D01*
X186399999Y-148765057D02*
X186428571Y-148717438D01*
X186428571Y-148717438D02*
X186485713Y-148669819D01*
X186914285Y-148765057D02*
X186942857Y-148717438D01*
X186942857Y-148717438D02*
X187000000Y-148669819D01*
X187000000Y-148669819D02*
X187142857Y-148669819D01*
X187142857Y-148669819D02*
X187200000Y-148717438D01*
X187200000Y-148717438D02*
X187228571Y-148765057D01*
X187228571Y-148765057D02*
X187257142Y-148860295D01*
X187257142Y-148860295D02*
X187257142Y-148955533D01*
X187257142Y-148955533D02*
X187228571Y-149098390D01*
X187228571Y-149098390D02*
X186885714Y-149669819D01*
X186885714Y-149669819D02*
X187257142Y-149669819D01*
X187457143Y-148669819D02*
X187828571Y-148669819D01*
X187828571Y-148669819D02*
X187628571Y-149050771D01*
X187628571Y-149050771D02*
X187714286Y-149050771D01*
X187714286Y-149050771D02*
X187771429Y-149098390D01*
X187771429Y-149098390D02*
X187800000Y-149146009D01*
X187800000Y-149146009D02*
X187828571Y-149241247D01*
X187828571Y-149241247D02*
X187828571Y-149479342D01*
X187828571Y-149479342D02*
X187800000Y-149574580D01*
X187800000Y-149574580D02*
X187771429Y-149622200D01*
X187771429Y-149622200D02*
X187714286Y-149669819D01*
X187714286Y-149669819D02*
X187542857Y-149669819D01*
X187542857Y-149669819D02*
X187485714Y-149622200D01*
X187485714Y-149622200D02*
X187457143Y-149574580D01*
X187109669Y-136320166D02*
X187195384Y-136367785D01*
X187195384Y-136367785D02*
X187338241Y-136367785D01*
X187338241Y-136367785D02*
X187395384Y-136320166D01*
X187395384Y-136320166D02*
X187423955Y-136272546D01*
X187423955Y-136272546D02*
X187452526Y-136177308D01*
X187452526Y-136177308D02*
X187452526Y-136082070D01*
X187452526Y-136082070D02*
X187423955Y-135986832D01*
X187423955Y-135986832D02*
X187395384Y-135939213D01*
X187395384Y-135939213D02*
X187338241Y-135891594D01*
X187338241Y-135891594D02*
X187223955Y-135843975D01*
X187223955Y-135843975D02*
X187166812Y-135796356D01*
X187166812Y-135796356D02*
X187138241Y-135748737D01*
X187138241Y-135748737D02*
X187109669Y-135653499D01*
X187109669Y-135653499D02*
X187109669Y-135558261D01*
X187109669Y-135558261D02*
X187138241Y-135463023D01*
X187138241Y-135463023D02*
X187166812Y-135415404D01*
X187166812Y-135415404D02*
X187223955Y-135367785D01*
X187223955Y-135367785D02*
X187366812Y-135367785D01*
X187366812Y-135367785D02*
X187452526Y-135415404D01*
X188052527Y-136272546D02*
X188023955Y-136320166D01*
X188023955Y-136320166D02*
X187938241Y-136367785D01*
X187938241Y-136367785D02*
X187881098Y-136367785D01*
X187881098Y-136367785D02*
X187795384Y-136320166D01*
X187795384Y-136320166D02*
X187738241Y-136224927D01*
X187738241Y-136224927D02*
X187709670Y-136129689D01*
X187709670Y-136129689D02*
X187681098Y-135939213D01*
X187681098Y-135939213D02*
X187681098Y-135796356D01*
X187681098Y-135796356D02*
X187709670Y-135605880D01*
X187709670Y-135605880D02*
X187738241Y-135510642D01*
X187738241Y-135510642D02*
X187795384Y-135415404D01*
X187795384Y-135415404D02*
X187881098Y-135367785D01*
X187881098Y-135367785D02*
X187938241Y-135367785D01*
X187938241Y-135367785D02*
X188023955Y-135415404D01*
X188023955Y-135415404D02*
X188052527Y-135463023D01*
X188595384Y-136367785D02*
X188309670Y-136367785D01*
X188309670Y-136367785D02*
X188309670Y-135367785D01*
X189109669Y-136367785D02*
X188766812Y-136367785D01*
X188938241Y-136367785D02*
X188938241Y-135367785D01*
X188938241Y-135367785D02*
X188881098Y-135510642D01*
X188881098Y-135510642D02*
X188823955Y-135605880D01*
X188823955Y-135605880D02*
X188766812Y-135653499D01*
X187100000Y-108407200D02*
X187185715Y-108454819D01*
X187185715Y-108454819D02*
X187328572Y-108454819D01*
X187328572Y-108454819D02*
X187385715Y-108407200D01*
X187385715Y-108407200D02*
X187414286Y-108359580D01*
X187414286Y-108359580D02*
X187442857Y-108264342D01*
X187442857Y-108264342D02*
X187442857Y-108169104D01*
X187442857Y-108169104D02*
X187414286Y-108073866D01*
X187414286Y-108073866D02*
X187385715Y-108026247D01*
X187385715Y-108026247D02*
X187328572Y-107978628D01*
X187328572Y-107978628D02*
X187214286Y-107931009D01*
X187214286Y-107931009D02*
X187157143Y-107883390D01*
X187157143Y-107883390D02*
X187128572Y-107835771D01*
X187128572Y-107835771D02*
X187100000Y-107740533D01*
X187100000Y-107740533D02*
X187100000Y-107645295D01*
X187100000Y-107645295D02*
X187128572Y-107550057D01*
X187128572Y-107550057D02*
X187157143Y-107502438D01*
X187157143Y-107502438D02*
X187214286Y-107454819D01*
X187214286Y-107454819D02*
X187357143Y-107454819D01*
X187357143Y-107454819D02*
X187442857Y-107502438D01*
X187700001Y-108454819D02*
X187700001Y-107454819D01*
X187700001Y-107454819D02*
X187928572Y-107454819D01*
X187928572Y-107454819D02*
X187985715Y-107502438D01*
X187985715Y-107502438D02*
X188014286Y-107550057D01*
X188014286Y-107550057D02*
X188042858Y-107645295D01*
X188042858Y-107645295D02*
X188042858Y-107788152D01*
X188042858Y-107788152D02*
X188014286Y-107883390D01*
X188014286Y-107883390D02*
X187985715Y-107931009D01*
X187985715Y-107931009D02*
X187928572Y-107978628D01*
X187928572Y-107978628D02*
X187700001Y-107978628D01*
X188300001Y-108454819D02*
X188300001Y-107454819D01*
X188442858Y-108550057D02*
X188900000Y-108550057D01*
X189385715Y-108359580D02*
X189357143Y-108407200D01*
X189357143Y-108407200D02*
X189271429Y-108454819D01*
X189271429Y-108454819D02*
X189214286Y-108454819D01*
X189214286Y-108454819D02*
X189128572Y-108407200D01*
X189128572Y-108407200D02*
X189071429Y-108311961D01*
X189071429Y-108311961D02*
X189042858Y-108216723D01*
X189042858Y-108216723D02*
X189014286Y-108026247D01*
X189014286Y-108026247D02*
X189014286Y-107883390D01*
X189014286Y-107883390D02*
X189042858Y-107692914D01*
X189042858Y-107692914D02*
X189071429Y-107597676D01*
X189071429Y-107597676D02*
X189128572Y-107502438D01*
X189128572Y-107502438D02*
X189214286Y-107454819D01*
X189214286Y-107454819D02*
X189271429Y-107454819D01*
X189271429Y-107454819D02*
X189357143Y-107502438D01*
X189357143Y-107502438D02*
X189385715Y-107550057D01*
X189757143Y-107454819D02*
X189871429Y-107454819D01*
X189871429Y-107454819D02*
X189928572Y-107502438D01*
X189928572Y-107502438D02*
X189985715Y-107597676D01*
X189985715Y-107597676D02*
X190014286Y-107788152D01*
X190014286Y-107788152D02*
X190014286Y-108121485D01*
X190014286Y-108121485D02*
X189985715Y-108311961D01*
X189985715Y-108311961D02*
X189928572Y-108407200D01*
X189928572Y-108407200D02*
X189871429Y-108454819D01*
X189871429Y-108454819D02*
X189757143Y-108454819D01*
X189757143Y-108454819D02*
X189700001Y-108407200D01*
X189700001Y-108407200D02*
X189642858Y-108311961D01*
X189642858Y-108311961D02*
X189614286Y-108121485D01*
X189614286Y-108121485D02*
X189614286Y-107788152D01*
X189614286Y-107788152D02*
X189642858Y-107597676D01*
X189642858Y-107597676D02*
X189700001Y-107502438D01*
X189700001Y-107502438D02*
X189757143Y-107454819D01*
X190271429Y-108454819D02*
X190271429Y-107454819D01*
X190271429Y-107454819D02*
X190500000Y-107454819D01*
X190500000Y-107454819D02*
X190557143Y-107502438D01*
X190557143Y-107502438D02*
X190585714Y-107550057D01*
X190585714Y-107550057D02*
X190614286Y-107645295D01*
X190614286Y-107645295D02*
X190614286Y-107788152D01*
X190614286Y-107788152D02*
X190585714Y-107883390D01*
X190585714Y-107883390D02*
X190557143Y-107931009D01*
X190557143Y-107931009D02*
X190500000Y-107978628D01*
X190500000Y-107978628D02*
X190271429Y-107978628D01*
X190871429Y-108454819D02*
X190871429Y-107454819D01*
X187136275Y-120970710D02*
X187221990Y-121018329D01*
X187221990Y-121018329D02*
X187364847Y-121018329D01*
X187364847Y-121018329D02*
X187421990Y-120970710D01*
X187421990Y-120970710D02*
X187450561Y-120923090D01*
X187450561Y-120923090D02*
X187479132Y-120827852D01*
X187479132Y-120827852D02*
X187479132Y-120732614D01*
X187479132Y-120732614D02*
X187450561Y-120637376D01*
X187450561Y-120637376D02*
X187421990Y-120589757D01*
X187421990Y-120589757D02*
X187364847Y-120542138D01*
X187364847Y-120542138D02*
X187250561Y-120494519D01*
X187250561Y-120494519D02*
X187193418Y-120446900D01*
X187193418Y-120446900D02*
X187164847Y-120399281D01*
X187164847Y-120399281D02*
X187136275Y-120304043D01*
X187136275Y-120304043D02*
X187136275Y-120208805D01*
X187136275Y-120208805D02*
X187164847Y-120113567D01*
X187164847Y-120113567D02*
X187193418Y-120065948D01*
X187193418Y-120065948D02*
X187250561Y-120018329D01*
X187250561Y-120018329D02*
X187393418Y-120018329D01*
X187393418Y-120018329D02*
X187479132Y-120065948D01*
X188079133Y-120923090D02*
X188050561Y-120970710D01*
X188050561Y-120970710D02*
X187964847Y-121018329D01*
X187964847Y-121018329D02*
X187907704Y-121018329D01*
X187907704Y-121018329D02*
X187821990Y-120970710D01*
X187821990Y-120970710D02*
X187764847Y-120875471D01*
X187764847Y-120875471D02*
X187736276Y-120780233D01*
X187736276Y-120780233D02*
X187707704Y-120589757D01*
X187707704Y-120589757D02*
X187707704Y-120446900D01*
X187707704Y-120446900D02*
X187736276Y-120256424D01*
X187736276Y-120256424D02*
X187764847Y-120161186D01*
X187764847Y-120161186D02*
X187821990Y-120065948D01*
X187821990Y-120065948D02*
X187907704Y-120018329D01*
X187907704Y-120018329D02*
X187964847Y-120018329D01*
X187964847Y-120018329D02*
X188050561Y-120065948D01*
X188050561Y-120065948D02*
X188079133Y-120113567D01*
X188621990Y-121018329D02*
X188336276Y-121018329D01*
X188336276Y-121018329D02*
X188336276Y-120018329D01*
X188764847Y-120018329D02*
X189136275Y-120018329D01*
X189136275Y-120018329D02*
X188936275Y-120399281D01*
X188936275Y-120399281D02*
X189021990Y-120399281D01*
X189021990Y-120399281D02*
X189079133Y-120446900D01*
X189079133Y-120446900D02*
X189107704Y-120494519D01*
X189107704Y-120494519D02*
X189136275Y-120589757D01*
X189136275Y-120589757D02*
X189136275Y-120827852D01*
X189136275Y-120827852D02*
X189107704Y-120923090D01*
X189107704Y-120923090D02*
X189079133Y-120970710D01*
X189079133Y-120970710D02*
X189021990Y-121018329D01*
X189021990Y-121018329D02*
X188850561Y-121018329D01*
X188850561Y-121018329D02*
X188793418Y-120970710D01*
X188793418Y-120970710D02*
X188764847Y-120923090D01*
X102336922Y-119376874D02*
X102622637Y-119376874D01*
X102279779Y-119662589D02*
X102479779Y-118662589D01*
X102479779Y-118662589D02*
X102679779Y-119662589D01*
X102879780Y-119662589D02*
X102879780Y-118995922D01*
X102879780Y-119091160D02*
X102908351Y-119043541D01*
X102908351Y-119043541D02*
X102965494Y-118995922D01*
X102965494Y-118995922D02*
X103051208Y-118995922D01*
X103051208Y-118995922D02*
X103108351Y-119043541D01*
X103108351Y-119043541D02*
X103136923Y-119138779D01*
X103136923Y-119138779D02*
X103136923Y-119662589D01*
X103136923Y-119138779D02*
X103165494Y-119043541D01*
X103165494Y-119043541D02*
X103222637Y-118995922D01*
X103222637Y-118995922D02*
X103308351Y-118995922D01*
X103308351Y-118995922D02*
X103365494Y-119043541D01*
X103365494Y-119043541D02*
X103394065Y-119138779D01*
X103394065Y-119138779D02*
X103394065Y-119662589D01*
X103679780Y-118995922D02*
X103679780Y-119995922D01*
X103679780Y-119043541D02*
X103736923Y-118995922D01*
X103736923Y-118995922D02*
X103851208Y-118995922D01*
X103851208Y-118995922D02*
X103908351Y-119043541D01*
X103908351Y-119043541D02*
X103936923Y-119091160D01*
X103936923Y-119091160D02*
X103965494Y-119186398D01*
X103965494Y-119186398D02*
X103965494Y-119472112D01*
X103965494Y-119472112D02*
X103936923Y-119567350D01*
X103936923Y-119567350D02*
X103908351Y-119614970D01*
X103908351Y-119614970D02*
X103851208Y-119662589D01*
X103851208Y-119662589D02*
X103736923Y-119662589D01*
X103736923Y-119662589D02*
X103679780Y-119614970D01*
X104308351Y-119662589D02*
X104251208Y-119614970D01*
X104251208Y-119614970D02*
X104222637Y-119519731D01*
X104222637Y-119519731D02*
X104222637Y-118662589D01*
X104851208Y-119662589D02*
X104508351Y-119662589D01*
X104679780Y-119662589D02*
X104679780Y-118662589D01*
X104679780Y-118662589D02*
X104622637Y-118805446D01*
X104622637Y-118805446D02*
X104565494Y-118900684D01*
X104565494Y-118900684D02*
X104508351Y-118948303D01*
X170287143Y-74114819D02*
X170287143Y-73114819D01*
X170287143Y-73114819D02*
X170430000Y-73114819D01*
X170430000Y-73114819D02*
X170515714Y-73162438D01*
X170515714Y-73162438D02*
X170572857Y-73257676D01*
X170572857Y-73257676D02*
X170601428Y-73352914D01*
X170601428Y-73352914D02*
X170630000Y-73543390D01*
X170630000Y-73543390D02*
X170630000Y-73686247D01*
X170630000Y-73686247D02*
X170601428Y-73876723D01*
X170601428Y-73876723D02*
X170572857Y-73971961D01*
X170572857Y-73971961D02*
X170515714Y-74067200D01*
X170515714Y-74067200D02*
X170430000Y-74114819D01*
X170430000Y-74114819D02*
X170287143Y-74114819D01*
X171201428Y-74114819D02*
X170858571Y-74114819D01*
X171030000Y-74114819D02*
X171030000Y-73114819D01*
X171030000Y-73114819D02*
X170972857Y-73257676D01*
X170972857Y-73257676D02*
X170915714Y-73352914D01*
X170915714Y-73352914D02*
X170858571Y-73400533D01*
X171554819Y-79237142D02*
X170554819Y-79237142D01*
X171554819Y-78894285D02*
X170983390Y-79151428D01*
X170554819Y-78894285D02*
X171126247Y-79237142D01*
X113050000Y-64875580D02*
X113021428Y-64923200D01*
X113021428Y-64923200D02*
X112935714Y-64970819D01*
X112935714Y-64970819D02*
X112878571Y-64970819D01*
X112878571Y-64970819D02*
X112792857Y-64923200D01*
X112792857Y-64923200D02*
X112735714Y-64827961D01*
X112735714Y-64827961D02*
X112707143Y-64732723D01*
X112707143Y-64732723D02*
X112678571Y-64542247D01*
X112678571Y-64542247D02*
X112678571Y-64399390D01*
X112678571Y-64399390D02*
X112707143Y-64208914D01*
X112707143Y-64208914D02*
X112735714Y-64113676D01*
X112735714Y-64113676D02*
X112792857Y-64018438D01*
X112792857Y-64018438D02*
X112878571Y-63970819D01*
X112878571Y-63970819D02*
X112935714Y-63970819D01*
X112935714Y-63970819D02*
X113021428Y-64018438D01*
X113021428Y-64018438D02*
X113050000Y-64066057D01*
X113592857Y-63970819D02*
X113307143Y-63970819D01*
X113307143Y-63970819D02*
X113278571Y-64447009D01*
X113278571Y-64447009D02*
X113307143Y-64399390D01*
X113307143Y-64399390D02*
X113364286Y-64351771D01*
X113364286Y-64351771D02*
X113507143Y-64351771D01*
X113507143Y-64351771D02*
X113564286Y-64399390D01*
X113564286Y-64399390D02*
X113592857Y-64447009D01*
X113592857Y-64447009D02*
X113621428Y-64542247D01*
X113621428Y-64542247D02*
X113621428Y-64780342D01*
X113621428Y-64780342D02*
X113592857Y-64875580D01*
X113592857Y-64875580D02*
X113564286Y-64923200D01*
X113564286Y-64923200D02*
X113507143Y-64970819D01*
X113507143Y-64970819D02*
X113364286Y-64970819D01*
X113364286Y-64970819D02*
X113307143Y-64923200D01*
X113307143Y-64923200D02*
X113278571Y-64875580D01*
X115466019Y-77722399D02*
X114989828Y-77922399D01*
X115466019Y-78065256D02*
X114466019Y-78065256D01*
X114466019Y-78065256D02*
X114466019Y-77836685D01*
X114466019Y-77836685D02*
X114513638Y-77779542D01*
X114513638Y-77779542D02*
X114561257Y-77750971D01*
X114561257Y-77750971D02*
X114656495Y-77722399D01*
X114656495Y-77722399D02*
X114799352Y-77722399D01*
X114799352Y-77722399D02*
X114894590Y-77750971D01*
X114894590Y-77750971D02*
X114942209Y-77779542D01*
X114942209Y-77779542D02*
X114989828Y-77836685D01*
X114989828Y-77836685D02*
X114989828Y-78065256D01*
X114466019Y-77522399D02*
X114466019Y-77122399D01*
X114466019Y-77122399D02*
X115466019Y-77379542D01*
X129832857Y-50934819D02*
X129832857Y-51744342D01*
X129832857Y-51744342D02*
X129861428Y-51839580D01*
X129861428Y-51839580D02*
X129890000Y-51887200D01*
X129890000Y-51887200D02*
X129947142Y-51934819D01*
X129947142Y-51934819D02*
X130061428Y-51934819D01*
X130061428Y-51934819D02*
X130118571Y-51887200D01*
X130118571Y-51887200D02*
X130147142Y-51839580D01*
X130147142Y-51839580D02*
X130175714Y-51744342D01*
X130175714Y-51744342D02*
X130175714Y-50934819D01*
X130432856Y-51030057D02*
X130461428Y-50982438D01*
X130461428Y-50982438D02*
X130518571Y-50934819D01*
X130518571Y-50934819D02*
X130661428Y-50934819D01*
X130661428Y-50934819D02*
X130718571Y-50982438D01*
X130718571Y-50982438D02*
X130747142Y-51030057D01*
X130747142Y-51030057D02*
X130775713Y-51125295D01*
X130775713Y-51125295D02*
X130775713Y-51220533D01*
X130775713Y-51220533D02*
X130747142Y-51363390D01*
X130747142Y-51363390D02*
X130404285Y-51934819D01*
X130404285Y-51934819D02*
X130775713Y-51934819D01*
X109674819Y-77722399D02*
X109198628Y-77922399D01*
X109674819Y-78065256D02*
X108674819Y-78065256D01*
X108674819Y-78065256D02*
X108674819Y-77836685D01*
X108674819Y-77836685D02*
X108722438Y-77779542D01*
X108722438Y-77779542D02*
X108770057Y-77750971D01*
X108770057Y-77750971D02*
X108865295Y-77722399D01*
X108865295Y-77722399D02*
X109008152Y-77722399D01*
X109008152Y-77722399D02*
X109103390Y-77750971D01*
X109103390Y-77750971D02*
X109151009Y-77779542D01*
X109151009Y-77779542D02*
X109198628Y-77836685D01*
X109198628Y-77836685D02*
X109198628Y-78065256D01*
X108674819Y-77179542D02*
X108674819Y-77465256D01*
X108674819Y-77465256D02*
X109151009Y-77493828D01*
X109151009Y-77493828D02*
X109103390Y-77465256D01*
X109103390Y-77465256D02*
X109055771Y-77408114D01*
X109055771Y-77408114D02*
X109055771Y-77265256D01*
X109055771Y-77265256D02*
X109103390Y-77208114D01*
X109103390Y-77208114D02*
X109151009Y-77179542D01*
X109151009Y-77179542D02*
X109246247Y-77150971D01*
X109246247Y-77150971D02*
X109484342Y-77150971D01*
X109484342Y-77150971D02*
X109579580Y-77179542D01*
X109579580Y-77179542D02*
X109627200Y-77208114D01*
X109627200Y-77208114D02*
X109674819Y-77265256D01*
X109674819Y-77265256D02*
X109674819Y-77408114D01*
X109674819Y-77408114D02*
X109627200Y-77465256D01*
X109627200Y-77465256D02*
X109579580Y-77493828D01*
X132234000Y-60303580D02*
X132205428Y-60351200D01*
X132205428Y-60351200D02*
X132119714Y-60398819D01*
X132119714Y-60398819D02*
X132062571Y-60398819D01*
X132062571Y-60398819D02*
X131976857Y-60351200D01*
X131976857Y-60351200D02*
X131919714Y-60255961D01*
X131919714Y-60255961D02*
X131891143Y-60160723D01*
X131891143Y-60160723D02*
X131862571Y-59970247D01*
X131862571Y-59970247D02*
X131862571Y-59827390D01*
X131862571Y-59827390D02*
X131891143Y-59636914D01*
X131891143Y-59636914D02*
X131919714Y-59541676D01*
X131919714Y-59541676D02*
X131976857Y-59446438D01*
X131976857Y-59446438D02*
X132062571Y-59398819D01*
X132062571Y-59398819D02*
X132119714Y-59398819D01*
X132119714Y-59398819D02*
X132205428Y-59446438D01*
X132205428Y-59446438D02*
X132234000Y-59494057D01*
X132748286Y-59732152D02*
X132748286Y-60398819D01*
X132605428Y-59351200D02*
X132462571Y-60065485D01*
X132462571Y-60065485D02*
X132834000Y-60065485D01*
X165508000Y-138535580D02*
X165479428Y-138583200D01*
X165479428Y-138583200D02*
X165393714Y-138630819D01*
X165393714Y-138630819D02*
X165336571Y-138630819D01*
X165336571Y-138630819D02*
X165250857Y-138583200D01*
X165250857Y-138583200D02*
X165193714Y-138487961D01*
X165193714Y-138487961D02*
X165165143Y-138392723D01*
X165165143Y-138392723D02*
X165136571Y-138202247D01*
X165136571Y-138202247D02*
X165136571Y-138059390D01*
X165136571Y-138059390D02*
X165165143Y-137868914D01*
X165165143Y-137868914D02*
X165193714Y-137773676D01*
X165193714Y-137773676D02*
X165250857Y-137678438D01*
X165250857Y-137678438D02*
X165336571Y-137630819D01*
X165336571Y-137630819D02*
X165393714Y-137630819D01*
X165393714Y-137630819D02*
X165479428Y-137678438D01*
X165479428Y-137678438D02*
X165508000Y-137726057D01*
X165850857Y-138059390D02*
X165793714Y-138011771D01*
X165793714Y-138011771D02*
X165765143Y-137964152D01*
X165765143Y-137964152D02*
X165736571Y-137868914D01*
X165736571Y-137868914D02*
X165736571Y-137821295D01*
X165736571Y-137821295D02*
X165765143Y-137726057D01*
X165765143Y-137726057D02*
X165793714Y-137678438D01*
X165793714Y-137678438D02*
X165850857Y-137630819D01*
X165850857Y-137630819D02*
X165965143Y-137630819D01*
X165965143Y-137630819D02*
X166022286Y-137678438D01*
X166022286Y-137678438D02*
X166050857Y-137726057D01*
X166050857Y-137726057D02*
X166079428Y-137821295D01*
X166079428Y-137821295D02*
X166079428Y-137868914D01*
X166079428Y-137868914D02*
X166050857Y-137964152D01*
X166050857Y-137964152D02*
X166022286Y-138011771D01*
X166022286Y-138011771D02*
X165965143Y-138059390D01*
X165965143Y-138059390D02*
X165850857Y-138059390D01*
X165850857Y-138059390D02*
X165793714Y-138107009D01*
X165793714Y-138107009D02*
X165765143Y-138154628D01*
X165765143Y-138154628D02*
X165736571Y-138249866D01*
X165736571Y-138249866D02*
X165736571Y-138440342D01*
X165736571Y-138440342D02*
X165765143Y-138535580D01*
X165765143Y-138535580D02*
X165793714Y-138583200D01*
X165793714Y-138583200D02*
X165850857Y-138630819D01*
X165850857Y-138630819D02*
X165965143Y-138630819D01*
X165965143Y-138630819D02*
X166022286Y-138583200D01*
X166022286Y-138583200D02*
X166050857Y-138535580D01*
X166050857Y-138535580D02*
X166079428Y-138440342D01*
X166079428Y-138440342D02*
X166079428Y-138249866D01*
X166079428Y-138249866D02*
X166050857Y-138154628D01*
X166050857Y-138154628D02*
X166022286Y-138107009D01*
X166022286Y-138107009D02*
X165965143Y-138059390D01*
X172874000Y-59541580D02*
X172845428Y-59589200D01*
X172845428Y-59589200D02*
X172759714Y-59636819D01*
X172759714Y-59636819D02*
X172702571Y-59636819D01*
X172702571Y-59636819D02*
X172616857Y-59589200D01*
X172616857Y-59589200D02*
X172559714Y-59493961D01*
X172559714Y-59493961D02*
X172531143Y-59398723D01*
X172531143Y-59398723D02*
X172502571Y-59208247D01*
X172502571Y-59208247D02*
X172502571Y-59065390D01*
X172502571Y-59065390D02*
X172531143Y-58874914D01*
X172531143Y-58874914D02*
X172559714Y-58779676D01*
X172559714Y-58779676D02*
X172616857Y-58684438D01*
X172616857Y-58684438D02*
X172702571Y-58636819D01*
X172702571Y-58636819D02*
X172759714Y-58636819D01*
X172759714Y-58636819D02*
X172845428Y-58684438D01*
X172845428Y-58684438D02*
X172874000Y-58732057D01*
X173445428Y-59636819D02*
X173102571Y-59636819D01*
X173274000Y-59636819D02*
X173274000Y-58636819D01*
X173274000Y-58636819D02*
X173216857Y-58779676D01*
X173216857Y-58779676D02*
X173159714Y-58874914D01*
X173159714Y-58874914D02*
X173102571Y-58922533D01*
X121790619Y-78433599D02*
X121314428Y-78633599D01*
X121790619Y-78776456D02*
X120790619Y-78776456D01*
X120790619Y-78776456D02*
X120790619Y-78547885D01*
X120790619Y-78547885D02*
X120838238Y-78490742D01*
X120838238Y-78490742D02*
X120885857Y-78462171D01*
X120885857Y-78462171D02*
X120981095Y-78433599D01*
X120981095Y-78433599D02*
X121123952Y-78433599D01*
X121123952Y-78433599D02*
X121219190Y-78462171D01*
X121219190Y-78462171D02*
X121266809Y-78490742D01*
X121266809Y-78490742D02*
X121314428Y-78547885D01*
X121314428Y-78547885D02*
X121314428Y-78776456D01*
X120790619Y-78233599D02*
X120790619Y-77862171D01*
X120790619Y-77862171D02*
X121171571Y-78062171D01*
X121171571Y-78062171D02*
X121171571Y-77976456D01*
X121171571Y-77976456D02*
X121219190Y-77919314D01*
X121219190Y-77919314D02*
X121266809Y-77890742D01*
X121266809Y-77890742D02*
X121362047Y-77862171D01*
X121362047Y-77862171D02*
X121600142Y-77862171D01*
X121600142Y-77862171D02*
X121695380Y-77890742D01*
X121695380Y-77890742D02*
X121743000Y-77919314D01*
X121743000Y-77919314D02*
X121790619Y-77976456D01*
X121790619Y-77976456D02*
X121790619Y-78147885D01*
X121790619Y-78147885D02*
X121743000Y-78205028D01*
X121743000Y-78205028D02*
X121695380Y-78233599D01*
X114742857Y-51084819D02*
X114742857Y-51894342D01*
X114742857Y-51894342D02*
X114771428Y-51989580D01*
X114771428Y-51989580D02*
X114800000Y-52037200D01*
X114800000Y-52037200D02*
X114857142Y-52084819D01*
X114857142Y-52084819D02*
X114971428Y-52084819D01*
X114971428Y-52084819D02*
X115028571Y-52037200D01*
X115028571Y-52037200D02*
X115057142Y-51989580D01*
X115057142Y-51989580D02*
X115085714Y-51894342D01*
X115085714Y-51894342D02*
X115085714Y-51084819D01*
X115314285Y-51084819D02*
X115685713Y-51084819D01*
X115685713Y-51084819D02*
X115485713Y-51465771D01*
X115485713Y-51465771D02*
X115571428Y-51465771D01*
X115571428Y-51465771D02*
X115628571Y-51513390D01*
X115628571Y-51513390D02*
X115657142Y-51561009D01*
X115657142Y-51561009D02*
X115685713Y-51656247D01*
X115685713Y-51656247D02*
X115685713Y-51894342D01*
X115685713Y-51894342D02*
X115657142Y-51989580D01*
X115657142Y-51989580D02*
X115628571Y-52037200D01*
X115628571Y-52037200D02*
X115571428Y-52084819D01*
X115571428Y-52084819D02*
X115399999Y-52084819D01*
X115399999Y-52084819D02*
X115342856Y-52037200D01*
X115342856Y-52037200D02*
X115314285Y-51989580D01*
X127683419Y-78306599D02*
X127207228Y-78506599D01*
X127683419Y-78649456D02*
X126683419Y-78649456D01*
X126683419Y-78649456D02*
X126683419Y-78420885D01*
X126683419Y-78420885D02*
X126731038Y-78363742D01*
X126731038Y-78363742D02*
X126778657Y-78335171D01*
X126778657Y-78335171D02*
X126873895Y-78306599D01*
X126873895Y-78306599D02*
X127016752Y-78306599D01*
X127016752Y-78306599D02*
X127111990Y-78335171D01*
X127111990Y-78335171D02*
X127159609Y-78363742D01*
X127159609Y-78363742D02*
X127207228Y-78420885D01*
X127207228Y-78420885D02*
X127207228Y-78649456D01*
X127016752Y-77792314D02*
X127683419Y-77792314D01*
X126635800Y-77935171D02*
X127350085Y-78078028D01*
X127350085Y-78078028D02*
X127350085Y-77706599D01*
X157896000Y-74954819D02*
X157896000Y-73954819D01*
X158610285Y-73907200D02*
X158095999Y-75192914D01*
X158924570Y-73954819D02*
X158981713Y-73954819D01*
X158981713Y-73954819D02*
X159038856Y-74002438D01*
X159038856Y-74002438D02*
X159067428Y-74050057D01*
X159067428Y-74050057D02*
X159095999Y-74145295D01*
X159095999Y-74145295D02*
X159124570Y-74335771D01*
X159124570Y-74335771D02*
X159124570Y-74573866D01*
X159124570Y-74573866D02*
X159095999Y-74764342D01*
X159095999Y-74764342D02*
X159067428Y-74859580D01*
X159067428Y-74859580D02*
X159038856Y-74907200D01*
X159038856Y-74907200D02*
X158981713Y-74954819D01*
X158981713Y-74954819D02*
X158924570Y-74954819D01*
X158924570Y-74954819D02*
X158867428Y-74907200D01*
X158867428Y-74907200D02*
X158838856Y-74859580D01*
X158838856Y-74859580D02*
X158810285Y-74764342D01*
X158810285Y-74764342D02*
X158781713Y-74573866D01*
X158781713Y-74573866D02*
X158781713Y-74335771D01*
X158781713Y-74335771D02*
X158810285Y-74145295D01*
X158810285Y-74145295D02*
X158838856Y-74050057D01*
X158838856Y-74050057D02*
X158867428Y-74002438D01*
X158867428Y-74002438D02*
X158924570Y-73954819D01*
X160415428Y-148124152D02*
X160415428Y-148933676D01*
X160415428Y-148933676D02*
X160386856Y-149028914D01*
X160386856Y-149028914D02*
X160358285Y-149076533D01*
X160358285Y-149076533D02*
X160301142Y-149124152D01*
X160301142Y-149124152D02*
X160215428Y-149124152D01*
X160215428Y-149124152D02*
X160158285Y-149076533D01*
X160415428Y-148743200D02*
X160358285Y-148790819D01*
X160358285Y-148790819D02*
X160243999Y-148790819D01*
X160243999Y-148790819D02*
X160186856Y-148743200D01*
X160186856Y-148743200D02*
X160158285Y-148695580D01*
X160158285Y-148695580D02*
X160129713Y-148600342D01*
X160129713Y-148600342D02*
X160129713Y-148314628D01*
X160129713Y-148314628D02*
X160158285Y-148219390D01*
X160158285Y-148219390D02*
X160186856Y-148171771D01*
X160186856Y-148171771D02*
X160243999Y-148124152D01*
X160243999Y-148124152D02*
X160358285Y-148124152D01*
X160358285Y-148124152D02*
X160415428Y-148171771D01*
X160701142Y-148790819D02*
X160701142Y-148124152D01*
X160701142Y-148314628D02*
X160729713Y-148219390D01*
X160729713Y-148219390D02*
X160758285Y-148171771D01*
X160758285Y-148171771D02*
X160815427Y-148124152D01*
X160815427Y-148124152D02*
X160872570Y-148124152D01*
X161301142Y-148743200D02*
X161243999Y-148790819D01*
X161243999Y-148790819D02*
X161129714Y-148790819D01*
X161129714Y-148790819D02*
X161072571Y-148743200D01*
X161072571Y-148743200D02*
X161043999Y-148647961D01*
X161043999Y-148647961D02*
X161043999Y-148267009D01*
X161043999Y-148267009D02*
X161072571Y-148171771D01*
X161072571Y-148171771D02*
X161129714Y-148124152D01*
X161129714Y-148124152D02*
X161243999Y-148124152D01*
X161243999Y-148124152D02*
X161301142Y-148171771D01*
X161301142Y-148171771D02*
X161329714Y-148267009D01*
X161329714Y-148267009D02*
X161329714Y-148362247D01*
X161329714Y-148362247D02*
X161043999Y-148457485D01*
X161815428Y-148743200D02*
X161758285Y-148790819D01*
X161758285Y-148790819D02*
X161644000Y-148790819D01*
X161644000Y-148790819D02*
X161586857Y-148743200D01*
X161586857Y-148743200D02*
X161558285Y-148647961D01*
X161558285Y-148647961D02*
X161558285Y-148267009D01*
X161558285Y-148267009D02*
X161586857Y-148171771D01*
X161586857Y-148171771D02*
X161644000Y-148124152D01*
X161644000Y-148124152D02*
X161758285Y-148124152D01*
X161758285Y-148124152D02*
X161815428Y-148171771D01*
X161815428Y-148171771D02*
X161844000Y-148267009D01*
X161844000Y-148267009D02*
X161844000Y-148362247D01*
X161844000Y-148362247D02*
X161558285Y-148457485D01*
X162101143Y-148124152D02*
X162101143Y-148790819D01*
X162101143Y-148219390D02*
X162129714Y-148171771D01*
X162129714Y-148171771D02*
X162186857Y-148124152D01*
X162186857Y-148124152D02*
X162272571Y-148124152D01*
X162272571Y-148124152D02*
X162329714Y-148171771D01*
X162329714Y-148171771D02*
X162358286Y-148267009D01*
X162358286Y-148267009D02*
X162358286Y-148790819D01*
X162958285Y-148790819D02*
X162615428Y-148790819D01*
X162786857Y-148790819D02*
X162786857Y-147790819D01*
X162786857Y-147790819D02*
X162729714Y-147933676D01*
X162729714Y-147933676D02*
X162672571Y-148028914D01*
X162672571Y-148028914D02*
X162615428Y-148076533D01*
X185054999Y-52069819D02*
X185054999Y-52784104D01*
X185054999Y-52784104D02*
X185026428Y-52926961D01*
X185026428Y-52926961D02*
X184969285Y-53022200D01*
X184969285Y-53022200D02*
X184883571Y-53069819D01*
X184883571Y-53069819D02*
X184826428Y-53069819D01*
X185283571Y-52069819D02*
X185654999Y-52069819D01*
X185654999Y-52069819D02*
X185454999Y-52450771D01*
X185454999Y-52450771D02*
X185540714Y-52450771D01*
X185540714Y-52450771D02*
X185597857Y-52498390D01*
X185597857Y-52498390D02*
X185626428Y-52546009D01*
X185626428Y-52546009D02*
X185654999Y-52641247D01*
X185654999Y-52641247D02*
X185654999Y-52879342D01*
X185654999Y-52879342D02*
X185626428Y-52974580D01*
X185626428Y-52974580D02*
X185597857Y-53022200D01*
X185597857Y-53022200D02*
X185540714Y-53069819D01*
X185540714Y-53069819D02*
X185369285Y-53069819D01*
X185369285Y-53069819D02*
X185312142Y-53022200D01*
X185312142Y-53022200D02*
X185283571Y-52974580D01*
X177954000Y-138789580D02*
X177925428Y-138837200D01*
X177925428Y-138837200D02*
X177839714Y-138884819D01*
X177839714Y-138884819D02*
X177782571Y-138884819D01*
X177782571Y-138884819D02*
X177696857Y-138837200D01*
X177696857Y-138837200D02*
X177639714Y-138741961D01*
X177639714Y-138741961D02*
X177611143Y-138646723D01*
X177611143Y-138646723D02*
X177582571Y-138456247D01*
X177582571Y-138456247D02*
X177582571Y-138313390D01*
X177582571Y-138313390D02*
X177611143Y-138122914D01*
X177611143Y-138122914D02*
X177639714Y-138027676D01*
X177639714Y-138027676D02*
X177696857Y-137932438D01*
X177696857Y-137932438D02*
X177782571Y-137884819D01*
X177782571Y-137884819D02*
X177839714Y-137884819D01*
X177839714Y-137884819D02*
X177925428Y-137932438D01*
X177925428Y-137932438D02*
X177954000Y-137980057D01*
X178239714Y-138884819D02*
X178354000Y-138884819D01*
X178354000Y-138884819D02*
X178411143Y-138837200D01*
X178411143Y-138837200D02*
X178439714Y-138789580D01*
X178439714Y-138789580D02*
X178496857Y-138646723D01*
X178496857Y-138646723D02*
X178525428Y-138456247D01*
X178525428Y-138456247D02*
X178525428Y-138075295D01*
X178525428Y-138075295D02*
X178496857Y-137980057D01*
X178496857Y-137980057D02*
X178468286Y-137932438D01*
X178468286Y-137932438D02*
X178411143Y-137884819D01*
X178411143Y-137884819D02*
X178296857Y-137884819D01*
X178296857Y-137884819D02*
X178239714Y-137932438D01*
X178239714Y-137932438D02*
X178211143Y-137980057D01*
X178211143Y-137980057D02*
X178182571Y-138075295D01*
X178182571Y-138075295D02*
X178182571Y-138313390D01*
X178182571Y-138313390D02*
X178211143Y-138408628D01*
X178211143Y-138408628D02*
X178239714Y-138456247D01*
X178239714Y-138456247D02*
X178296857Y-138503866D01*
X178296857Y-138503866D02*
X178411143Y-138503866D01*
X178411143Y-138503866D02*
X178468286Y-138456247D01*
X178468286Y-138456247D02*
X178496857Y-138408628D01*
X178496857Y-138408628D02*
X178525428Y-138313390D01*
X131948285Y-138281580D02*
X131919713Y-138329200D01*
X131919713Y-138329200D02*
X131833999Y-138376819D01*
X131833999Y-138376819D02*
X131776856Y-138376819D01*
X131776856Y-138376819D02*
X131691142Y-138329200D01*
X131691142Y-138329200D02*
X131633999Y-138233961D01*
X131633999Y-138233961D02*
X131605428Y-138138723D01*
X131605428Y-138138723D02*
X131576856Y-137948247D01*
X131576856Y-137948247D02*
X131576856Y-137805390D01*
X131576856Y-137805390D02*
X131605428Y-137614914D01*
X131605428Y-137614914D02*
X131633999Y-137519676D01*
X131633999Y-137519676D02*
X131691142Y-137424438D01*
X131691142Y-137424438D02*
X131776856Y-137376819D01*
X131776856Y-137376819D02*
X131833999Y-137376819D01*
X131833999Y-137376819D02*
X131919713Y-137424438D01*
X131919713Y-137424438D02*
X131948285Y-137472057D01*
X132519713Y-138376819D02*
X132176856Y-138376819D01*
X132348285Y-138376819D02*
X132348285Y-137376819D01*
X132348285Y-137376819D02*
X132291142Y-137519676D01*
X132291142Y-137519676D02*
X132233999Y-137614914D01*
X132233999Y-137614914D02*
X132176856Y-137662533D01*
X133091142Y-138376819D02*
X132748285Y-138376819D01*
X132919714Y-138376819D02*
X132919714Y-137376819D01*
X132919714Y-137376819D02*
X132862571Y-137519676D01*
X132862571Y-137519676D02*
X132805428Y-137614914D01*
X132805428Y-137614914D02*
X132748285Y-137662533D01*
X124256857Y-148806819D02*
X124256857Y-149616342D01*
X124256857Y-149616342D02*
X124285428Y-149711580D01*
X124285428Y-149711580D02*
X124314000Y-149759200D01*
X124314000Y-149759200D02*
X124371142Y-149806819D01*
X124371142Y-149806819D02*
X124485428Y-149806819D01*
X124485428Y-149806819D02*
X124542571Y-149759200D01*
X124542571Y-149759200D02*
X124571142Y-149711580D01*
X124571142Y-149711580D02*
X124599714Y-149616342D01*
X124599714Y-149616342D02*
X124599714Y-148806819D01*
X125171142Y-148806819D02*
X124885428Y-148806819D01*
X124885428Y-148806819D02*
X124856856Y-149283009D01*
X124856856Y-149283009D02*
X124885428Y-149235390D01*
X124885428Y-149235390D02*
X124942571Y-149187771D01*
X124942571Y-149187771D02*
X125085428Y-149187771D01*
X125085428Y-149187771D02*
X125142571Y-149235390D01*
X125142571Y-149235390D02*
X125171142Y-149283009D01*
X125171142Y-149283009D02*
X125199713Y-149378247D01*
X125199713Y-149378247D02*
X125199713Y-149616342D01*
X125199713Y-149616342D02*
X125171142Y-149711580D01*
X125171142Y-149711580D02*
X125142571Y-149759200D01*
X125142571Y-149759200D02*
X125085428Y-149806819D01*
X125085428Y-149806819D02*
X124942571Y-149806819D01*
X124942571Y-149806819D02*
X124885428Y-149759200D01*
X124885428Y-149759200D02*
X124856856Y-149711580D01*
X154082857Y-148790819D02*
X154082857Y-148124152D01*
X154082857Y-148314628D02*
X154111428Y-148219390D01*
X154111428Y-148219390D02*
X154140000Y-148171771D01*
X154140000Y-148171771D02*
X154197142Y-148124152D01*
X154197142Y-148124152D02*
X154254285Y-148124152D01*
X154682857Y-148743200D02*
X154625714Y-148790819D01*
X154625714Y-148790819D02*
X154511429Y-148790819D01*
X154511429Y-148790819D02*
X154454286Y-148743200D01*
X154454286Y-148743200D02*
X154425714Y-148647961D01*
X154425714Y-148647961D02*
X154425714Y-148267009D01*
X154425714Y-148267009D02*
X154454286Y-148171771D01*
X154454286Y-148171771D02*
X154511429Y-148124152D01*
X154511429Y-148124152D02*
X154625714Y-148124152D01*
X154625714Y-148124152D02*
X154682857Y-148171771D01*
X154682857Y-148171771D02*
X154711429Y-148267009D01*
X154711429Y-148267009D02*
X154711429Y-148362247D01*
X154711429Y-148362247D02*
X154425714Y-148457485D01*
X155225715Y-148790819D02*
X155225715Y-147790819D01*
X155225715Y-148743200D02*
X155168572Y-148790819D01*
X155168572Y-148790819D02*
X155054286Y-148790819D01*
X155054286Y-148790819D02*
X154997143Y-148743200D01*
X154997143Y-148743200D02*
X154968572Y-148695580D01*
X154968572Y-148695580D02*
X154940000Y-148600342D01*
X154940000Y-148600342D02*
X154940000Y-148314628D01*
X154940000Y-148314628D02*
X154968572Y-148219390D01*
X154968572Y-148219390D02*
X154997143Y-148171771D01*
X154997143Y-148171771D02*
X155054286Y-148124152D01*
X155054286Y-148124152D02*
X155168572Y-148124152D01*
X155168572Y-148124152D02*
X155225715Y-148171771D01*
X155825714Y-148790819D02*
X155482857Y-148790819D01*
X155654286Y-148790819D02*
X155654286Y-147790819D01*
X155654286Y-147790819D02*
X155597143Y-147933676D01*
X155597143Y-147933676D02*
X155540000Y-148028914D01*
X155540000Y-148028914D02*
X155482857Y-148076533D01*
X124360000Y-60557580D02*
X124331428Y-60605200D01*
X124331428Y-60605200D02*
X124245714Y-60652819D01*
X124245714Y-60652819D02*
X124188571Y-60652819D01*
X124188571Y-60652819D02*
X124102857Y-60605200D01*
X124102857Y-60605200D02*
X124045714Y-60509961D01*
X124045714Y-60509961D02*
X124017143Y-60414723D01*
X124017143Y-60414723D02*
X123988571Y-60224247D01*
X123988571Y-60224247D02*
X123988571Y-60081390D01*
X123988571Y-60081390D02*
X124017143Y-59890914D01*
X124017143Y-59890914D02*
X124045714Y-59795676D01*
X124045714Y-59795676D02*
X124102857Y-59700438D01*
X124102857Y-59700438D02*
X124188571Y-59652819D01*
X124188571Y-59652819D02*
X124245714Y-59652819D01*
X124245714Y-59652819D02*
X124331428Y-59700438D01*
X124331428Y-59700438D02*
X124360000Y-59748057D01*
X124588571Y-59748057D02*
X124617143Y-59700438D01*
X124617143Y-59700438D02*
X124674286Y-59652819D01*
X124674286Y-59652819D02*
X124817143Y-59652819D01*
X124817143Y-59652819D02*
X124874286Y-59700438D01*
X124874286Y-59700438D02*
X124902857Y-59748057D01*
X124902857Y-59748057D02*
X124931428Y-59843295D01*
X124931428Y-59843295D02*
X124931428Y-59938533D01*
X124931428Y-59938533D02*
X124902857Y-60081390D01*
X124902857Y-60081390D02*
X124560000Y-60652819D01*
X124560000Y-60652819D02*
X124931428Y-60652819D01*
X106479999Y-54274819D02*
X106479999Y-54989104D01*
X106479999Y-54989104D02*
X106451428Y-55131961D01*
X106451428Y-55131961D02*
X106394285Y-55227200D01*
X106394285Y-55227200D02*
X106308571Y-55274819D01*
X106308571Y-55274819D02*
X106251428Y-55274819D01*
X107079999Y-55274819D02*
X106737142Y-55274819D01*
X106908571Y-55274819D02*
X106908571Y-54274819D01*
X106908571Y-54274819D02*
X106851428Y-54417676D01*
X106851428Y-54417676D02*
X106794285Y-54512914D01*
X106794285Y-54512914D02*
X106737142Y-54560533D01*
X106479999Y-78404819D02*
X106479999Y-79119104D01*
X106479999Y-79119104D02*
X106451428Y-79261961D01*
X106451428Y-79261961D02*
X106394285Y-79357200D01*
X106394285Y-79357200D02*
X106308571Y-79404819D01*
X106308571Y-79404819D02*
X106251428Y-79404819D01*
X106737142Y-78500057D02*
X106765714Y-78452438D01*
X106765714Y-78452438D02*
X106822857Y-78404819D01*
X106822857Y-78404819D02*
X106965714Y-78404819D01*
X106965714Y-78404819D02*
X107022857Y-78452438D01*
X107022857Y-78452438D02*
X107051428Y-78500057D01*
X107051428Y-78500057D02*
X107079999Y-78595295D01*
X107079999Y-78595295D02*
X107079999Y-78690533D01*
X107079999Y-78690533D02*
X107051428Y-78833390D01*
X107051428Y-78833390D02*
X106708571Y-79404819D01*
X106708571Y-79404819D02*
X107079999Y-79404819D01*
X118175143Y-131772819D02*
X118175143Y-130772819D01*
X118175143Y-130772819D02*
X118318000Y-130772819D01*
X118318000Y-130772819D02*
X118403714Y-130820438D01*
X118403714Y-130820438D02*
X118460857Y-130915676D01*
X118460857Y-130915676D02*
X118489428Y-131010914D01*
X118489428Y-131010914D02*
X118518000Y-131201390D01*
X118518000Y-131201390D02*
X118518000Y-131344247D01*
X118518000Y-131344247D02*
X118489428Y-131534723D01*
X118489428Y-131534723D02*
X118460857Y-131629961D01*
X118460857Y-131629961D02*
X118403714Y-131725200D01*
X118403714Y-131725200D02*
X118318000Y-131772819D01*
X118318000Y-131772819D02*
X118175143Y-131772819D01*
X119032286Y-131106152D02*
X119032286Y-131772819D01*
X118889428Y-130725200D02*
X118746571Y-131439485D01*
X118746571Y-131439485D02*
X119118000Y-131439485D01*
X128874857Y-132026819D02*
X128874857Y-131026819D01*
X129217714Y-132026819D02*
X128960571Y-131455390D01*
X129217714Y-131026819D02*
X128874857Y-131598247D01*
X144957143Y-129784819D02*
X144957143Y-128784819D01*
X144957143Y-128784819D02*
X145100000Y-128784819D01*
X145100000Y-128784819D02*
X145185714Y-128832438D01*
X145185714Y-128832438D02*
X145242857Y-128927676D01*
X145242857Y-128927676D02*
X145271428Y-129022914D01*
X145271428Y-129022914D02*
X145300000Y-129213390D01*
X145300000Y-129213390D02*
X145300000Y-129356247D01*
X145300000Y-129356247D02*
X145271428Y-129546723D01*
X145271428Y-129546723D02*
X145242857Y-129641961D01*
X145242857Y-129641961D02*
X145185714Y-129737200D01*
X145185714Y-129737200D02*
X145100000Y-129784819D01*
X145100000Y-129784819D02*
X144957143Y-129784819D01*
X145500000Y-128784819D02*
X145871428Y-128784819D01*
X145871428Y-128784819D02*
X145671428Y-129165771D01*
X145671428Y-129165771D02*
X145757143Y-129165771D01*
X145757143Y-129165771D02*
X145814286Y-129213390D01*
X145814286Y-129213390D02*
X145842857Y-129261009D01*
X145842857Y-129261009D02*
X145871428Y-129356247D01*
X145871428Y-129356247D02*
X145871428Y-129594342D01*
X145871428Y-129594342D02*
X145842857Y-129689580D01*
X145842857Y-129689580D02*
X145814286Y-129737200D01*
X145814286Y-129737200D02*
X145757143Y-129784819D01*
X145757143Y-129784819D02*
X145585714Y-129784819D01*
X145585714Y-129784819D02*
X145528571Y-129737200D01*
X145528571Y-129737200D02*
X145500000Y-129689580D01*
X140162857Y-130154819D02*
X140162857Y-129154819D01*
X140505714Y-130154819D02*
X140248571Y-129583390D01*
X140505714Y-129154819D02*
X140162857Y-129726247D01*
X166292857Y-146899819D02*
X166292857Y-147709342D01*
X166292857Y-147709342D02*
X166321428Y-147804580D01*
X166321428Y-147804580D02*
X166350000Y-147852200D01*
X166350000Y-147852200D02*
X166407142Y-147899819D01*
X166407142Y-147899819D02*
X166521428Y-147899819D01*
X166521428Y-147899819D02*
X166578571Y-147852200D01*
X166578571Y-147852200D02*
X166607142Y-147804580D01*
X166607142Y-147804580D02*
X166635714Y-147709342D01*
X166635714Y-147709342D02*
X166635714Y-146899819D01*
X167178571Y-146899819D02*
X167064285Y-146899819D01*
X167064285Y-146899819D02*
X167007142Y-146947438D01*
X167007142Y-146947438D02*
X166978571Y-146995057D01*
X166978571Y-146995057D02*
X166921428Y-147137914D01*
X166921428Y-147137914D02*
X166892856Y-147328390D01*
X166892856Y-147328390D02*
X166892856Y-147709342D01*
X166892856Y-147709342D02*
X166921428Y-147804580D01*
X166921428Y-147804580D02*
X166949999Y-147852200D01*
X166949999Y-147852200D02*
X167007142Y-147899819D01*
X167007142Y-147899819D02*
X167121428Y-147899819D01*
X167121428Y-147899819D02*
X167178571Y-147852200D01*
X167178571Y-147852200D02*
X167207142Y-147804580D01*
X167207142Y-147804580D02*
X167235713Y-147709342D01*
X167235713Y-147709342D02*
X167235713Y-147471247D01*
X167235713Y-147471247D02*
X167207142Y-147376009D01*
X167207142Y-147376009D02*
X167178571Y-147328390D01*
X167178571Y-147328390D02*
X167121428Y-147280771D01*
X167121428Y-147280771D02*
X167007142Y-147280771D01*
X167007142Y-147280771D02*
X166949999Y-147328390D01*
X166949999Y-147328390D02*
X166921428Y-147376009D01*
X166921428Y-147376009D02*
X166892856Y-147471247D01*
X178750000Y-59795580D02*
X178721428Y-59843200D01*
X178721428Y-59843200D02*
X178635714Y-59890819D01*
X178635714Y-59890819D02*
X178578571Y-59890819D01*
X178578571Y-59890819D02*
X178492857Y-59843200D01*
X178492857Y-59843200D02*
X178435714Y-59747961D01*
X178435714Y-59747961D02*
X178407143Y-59652723D01*
X178407143Y-59652723D02*
X178378571Y-59462247D01*
X178378571Y-59462247D02*
X178378571Y-59319390D01*
X178378571Y-59319390D02*
X178407143Y-59128914D01*
X178407143Y-59128914D02*
X178435714Y-59033676D01*
X178435714Y-59033676D02*
X178492857Y-58938438D01*
X178492857Y-58938438D02*
X178578571Y-58890819D01*
X178578571Y-58890819D02*
X178635714Y-58890819D01*
X178635714Y-58890819D02*
X178721428Y-58938438D01*
X178721428Y-58938438D02*
X178750000Y-58986057D01*
X178950000Y-58890819D02*
X179321428Y-58890819D01*
X179321428Y-58890819D02*
X179121428Y-59271771D01*
X179121428Y-59271771D02*
X179207143Y-59271771D01*
X179207143Y-59271771D02*
X179264286Y-59319390D01*
X179264286Y-59319390D02*
X179292857Y-59367009D01*
X179292857Y-59367009D02*
X179321428Y-59462247D01*
X179321428Y-59462247D02*
X179321428Y-59700342D01*
X179321428Y-59700342D02*
X179292857Y-59795580D01*
X179292857Y-59795580D02*
X179264286Y-59843200D01*
X179264286Y-59843200D02*
X179207143Y-59890819D01*
X179207143Y-59890819D02*
X179035714Y-59890819D01*
X179035714Y-59890819D02*
X178978571Y-59843200D01*
X178978571Y-59843200D02*
X178950000Y-59795580D01*
X160174000Y-125676819D02*
X159974000Y-125200628D01*
X159831143Y-125676819D02*
X159831143Y-124676819D01*
X159831143Y-124676819D02*
X160059714Y-124676819D01*
X160059714Y-124676819D02*
X160116857Y-124724438D01*
X160116857Y-124724438D02*
X160145428Y-124772057D01*
X160145428Y-124772057D02*
X160174000Y-124867295D01*
X160174000Y-124867295D02*
X160174000Y-125010152D01*
X160174000Y-125010152D02*
X160145428Y-125105390D01*
X160145428Y-125105390D02*
X160116857Y-125153009D01*
X160116857Y-125153009D02*
X160059714Y-125200628D01*
X160059714Y-125200628D02*
X159831143Y-125200628D01*
X160402571Y-124772057D02*
X160431143Y-124724438D01*
X160431143Y-124724438D02*
X160488286Y-124676819D01*
X160488286Y-124676819D02*
X160631143Y-124676819D01*
X160631143Y-124676819D02*
X160688286Y-124724438D01*
X160688286Y-124724438D02*
X160716857Y-124772057D01*
X160716857Y-124772057D02*
X160745428Y-124867295D01*
X160745428Y-124867295D02*
X160745428Y-124962533D01*
X160745428Y-124962533D02*
X160716857Y-125105390D01*
X160716857Y-125105390D02*
X160374000Y-125676819D01*
X160374000Y-125676819D02*
X160745428Y-125676819D01*
X149474285Y-142345580D02*
X149445713Y-142393200D01*
X149445713Y-142393200D02*
X149359999Y-142440819D01*
X149359999Y-142440819D02*
X149302856Y-142440819D01*
X149302856Y-142440819D02*
X149217142Y-142393200D01*
X149217142Y-142393200D02*
X149159999Y-142297961D01*
X149159999Y-142297961D02*
X149131428Y-142202723D01*
X149131428Y-142202723D02*
X149102856Y-142012247D01*
X149102856Y-142012247D02*
X149102856Y-141869390D01*
X149102856Y-141869390D02*
X149131428Y-141678914D01*
X149131428Y-141678914D02*
X149159999Y-141583676D01*
X149159999Y-141583676D02*
X149217142Y-141488438D01*
X149217142Y-141488438D02*
X149302856Y-141440819D01*
X149302856Y-141440819D02*
X149359999Y-141440819D01*
X149359999Y-141440819D02*
X149445713Y-141488438D01*
X149445713Y-141488438D02*
X149474285Y-141536057D01*
X150045713Y-142440819D02*
X149702856Y-142440819D01*
X149874285Y-142440819D02*
X149874285Y-141440819D01*
X149874285Y-141440819D02*
X149817142Y-141583676D01*
X149817142Y-141583676D02*
X149759999Y-141678914D01*
X149759999Y-141678914D02*
X149702856Y-141726533D01*
X150417142Y-141440819D02*
X150474285Y-141440819D01*
X150474285Y-141440819D02*
X150531428Y-141488438D01*
X150531428Y-141488438D02*
X150560000Y-141536057D01*
X150560000Y-141536057D02*
X150588571Y-141631295D01*
X150588571Y-141631295D02*
X150617142Y-141821771D01*
X150617142Y-141821771D02*
X150617142Y-142059866D01*
X150617142Y-142059866D02*
X150588571Y-142250342D01*
X150588571Y-142250342D02*
X150560000Y-142345580D01*
X150560000Y-142345580D02*
X150531428Y-142393200D01*
X150531428Y-142393200D02*
X150474285Y-142440819D01*
X150474285Y-142440819D02*
X150417142Y-142440819D01*
X150417142Y-142440819D02*
X150360000Y-142393200D01*
X150360000Y-142393200D02*
X150331428Y-142345580D01*
X150331428Y-142345580D02*
X150302857Y-142250342D01*
X150302857Y-142250342D02*
X150274285Y-142059866D01*
X150274285Y-142059866D02*
X150274285Y-141821771D01*
X150274285Y-141821771D02*
X150302857Y-141631295D01*
X150302857Y-141631295D02*
X150331428Y-141536057D01*
X150331428Y-141536057D02*
X150360000Y-141488438D01*
X150360000Y-141488438D02*
X150417142Y-141440819D01*
X111050400Y-87018019D02*
X110850400Y-86541828D01*
X110707543Y-87018019D02*
X110707543Y-86018019D01*
X110707543Y-86018019D02*
X110936114Y-86018019D01*
X110936114Y-86018019D02*
X110993257Y-86065638D01*
X110993257Y-86065638D02*
X111021828Y-86113257D01*
X111021828Y-86113257D02*
X111050400Y-86208495D01*
X111050400Y-86208495D02*
X111050400Y-86351352D01*
X111050400Y-86351352D02*
X111021828Y-86446590D01*
X111021828Y-86446590D02*
X110993257Y-86494209D01*
X110993257Y-86494209D02*
X110936114Y-86541828D01*
X110936114Y-86541828D02*
X110707543Y-86541828D01*
X111564686Y-86018019D02*
X111450400Y-86018019D01*
X111450400Y-86018019D02*
X111393257Y-86065638D01*
X111393257Y-86065638D02*
X111364686Y-86113257D01*
X111364686Y-86113257D02*
X111307543Y-86256114D01*
X111307543Y-86256114D02*
X111278971Y-86446590D01*
X111278971Y-86446590D02*
X111278971Y-86827542D01*
X111278971Y-86827542D02*
X111307543Y-86922780D01*
X111307543Y-86922780D02*
X111336114Y-86970400D01*
X111336114Y-86970400D02*
X111393257Y-87018019D01*
X111393257Y-87018019D02*
X111507543Y-87018019D01*
X111507543Y-87018019D02*
X111564686Y-86970400D01*
X111564686Y-86970400D02*
X111593257Y-86922780D01*
X111593257Y-86922780D02*
X111621828Y-86827542D01*
X111621828Y-86827542D02*
X111621828Y-86589447D01*
X111621828Y-86589447D02*
X111593257Y-86494209D01*
X111593257Y-86494209D02*
X111564686Y-86446590D01*
X111564686Y-86446590D02*
X111507543Y-86398971D01*
X111507543Y-86398971D02*
X111393257Y-86398971D01*
X111393257Y-86398971D02*
X111336114Y-86446590D01*
X111336114Y-86446590D02*
X111307543Y-86494209D01*
X111307543Y-86494209D02*
X111278971Y-86589447D01*
X140157143Y-74524819D02*
X140157143Y-73524819D01*
X140157143Y-73524819D02*
X140300000Y-73524819D01*
X140300000Y-73524819D02*
X140385714Y-73572438D01*
X140385714Y-73572438D02*
X140442857Y-73667676D01*
X140442857Y-73667676D02*
X140471428Y-73762914D01*
X140471428Y-73762914D02*
X140500000Y-73953390D01*
X140500000Y-73953390D02*
X140500000Y-74096247D01*
X140500000Y-74096247D02*
X140471428Y-74286723D01*
X140471428Y-74286723D02*
X140442857Y-74381961D01*
X140442857Y-74381961D02*
X140385714Y-74477200D01*
X140385714Y-74477200D02*
X140300000Y-74524819D01*
X140300000Y-74524819D02*
X140157143Y-74524819D01*
X140728571Y-73620057D02*
X140757143Y-73572438D01*
X140757143Y-73572438D02*
X140814286Y-73524819D01*
X140814286Y-73524819D02*
X140957143Y-73524819D01*
X140957143Y-73524819D02*
X141014286Y-73572438D01*
X141014286Y-73572438D02*
X141042857Y-73620057D01*
X141042857Y-73620057D02*
X141071428Y-73715295D01*
X141071428Y-73715295D02*
X141071428Y-73810533D01*
X141071428Y-73810533D02*
X141042857Y-73953390D01*
X141042857Y-73953390D02*
X140700000Y-74524819D01*
X140700000Y-74524819D02*
X141071428Y-74524819D01*
X145522857Y-74154819D02*
X145522857Y-73154819D01*
X145865714Y-74154819D02*
X145608571Y-73583390D01*
X145865714Y-73154819D02*
X145522857Y-73726247D01*
X171992857Y-50879819D02*
X171992857Y-51689342D01*
X171992857Y-51689342D02*
X172021428Y-51784580D01*
X172021428Y-51784580D02*
X172050000Y-51832200D01*
X172050000Y-51832200D02*
X172107142Y-51879819D01*
X172107142Y-51879819D02*
X172221428Y-51879819D01*
X172221428Y-51879819D02*
X172278571Y-51832200D01*
X172278571Y-51832200D02*
X172307142Y-51784580D01*
X172307142Y-51784580D02*
X172335714Y-51689342D01*
X172335714Y-51689342D02*
X172335714Y-50879819D01*
X172935713Y-51879819D02*
X172592856Y-51879819D01*
X172764285Y-51879819D02*
X172764285Y-50879819D01*
X172764285Y-50879819D02*
X172707142Y-51022676D01*
X172707142Y-51022676D02*
X172649999Y-51117914D01*
X172649999Y-51117914D02*
X172592856Y-51165533D01*
X140414285Y-142409580D02*
X140385713Y-142457200D01*
X140385713Y-142457200D02*
X140299999Y-142504819D01*
X140299999Y-142504819D02*
X140242856Y-142504819D01*
X140242856Y-142504819D02*
X140157142Y-142457200D01*
X140157142Y-142457200D02*
X140099999Y-142361961D01*
X140099999Y-142361961D02*
X140071428Y-142266723D01*
X140071428Y-142266723D02*
X140042856Y-142076247D01*
X140042856Y-142076247D02*
X140042856Y-141933390D01*
X140042856Y-141933390D02*
X140071428Y-141742914D01*
X140071428Y-141742914D02*
X140099999Y-141647676D01*
X140099999Y-141647676D02*
X140157142Y-141552438D01*
X140157142Y-141552438D02*
X140242856Y-141504819D01*
X140242856Y-141504819D02*
X140299999Y-141504819D01*
X140299999Y-141504819D02*
X140385713Y-141552438D01*
X140385713Y-141552438D02*
X140414285Y-141600057D01*
X140985713Y-142504819D02*
X140642856Y-142504819D01*
X140814285Y-142504819D02*
X140814285Y-141504819D01*
X140814285Y-141504819D02*
X140757142Y-141647676D01*
X140757142Y-141647676D02*
X140699999Y-141742914D01*
X140699999Y-141742914D02*
X140642856Y-141790533D01*
X141214285Y-141600057D02*
X141242857Y-141552438D01*
X141242857Y-141552438D02*
X141300000Y-141504819D01*
X141300000Y-141504819D02*
X141442857Y-141504819D01*
X141442857Y-141504819D02*
X141500000Y-141552438D01*
X141500000Y-141552438D02*
X141528571Y-141600057D01*
X141528571Y-141600057D02*
X141557142Y-141695295D01*
X141557142Y-141695295D02*
X141557142Y-141790533D01*
X141557142Y-141790533D02*
X141528571Y-141933390D01*
X141528571Y-141933390D02*
X141185714Y-142504819D01*
X141185714Y-142504819D02*
X141557142Y-142504819D01*
X116232000Y-142345580D02*
X116203428Y-142393200D01*
X116203428Y-142393200D02*
X116117714Y-142440819D01*
X116117714Y-142440819D02*
X116060571Y-142440819D01*
X116060571Y-142440819D02*
X115974857Y-142393200D01*
X115974857Y-142393200D02*
X115917714Y-142297961D01*
X115917714Y-142297961D02*
X115889143Y-142202723D01*
X115889143Y-142202723D02*
X115860571Y-142012247D01*
X115860571Y-142012247D02*
X115860571Y-141869390D01*
X115860571Y-141869390D02*
X115889143Y-141678914D01*
X115889143Y-141678914D02*
X115917714Y-141583676D01*
X115917714Y-141583676D02*
X115974857Y-141488438D01*
X115974857Y-141488438D02*
X116060571Y-141440819D01*
X116060571Y-141440819D02*
X116117714Y-141440819D01*
X116117714Y-141440819D02*
X116203428Y-141488438D01*
X116203428Y-141488438D02*
X116232000Y-141536057D01*
X116432000Y-141440819D02*
X116832000Y-141440819D01*
X116832000Y-141440819D02*
X116574857Y-142440819D01*
X141274857Y-148724819D02*
X141274857Y-149534342D01*
X141274857Y-149534342D02*
X141303428Y-149629580D01*
X141303428Y-149629580D02*
X141332000Y-149677200D01*
X141332000Y-149677200D02*
X141389142Y-149724819D01*
X141389142Y-149724819D02*
X141503428Y-149724819D01*
X141503428Y-149724819D02*
X141560571Y-149677200D01*
X141560571Y-149677200D02*
X141589142Y-149629580D01*
X141589142Y-149629580D02*
X141617714Y-149534342D01*
X141617714Y-149534342D02*
X141617714Y-148724819D01*
X142160571Y-149058152D02*
X142160571Y-149724819D01*
X142017713Y-148677200D02*
X141874856Y-149391485D01*
X141874856Y-149391485D02*
X142246285Y-149391485D01*
X139635714Y-51204819D02*
X139835714Y-52204819D01*
X139835714Y-52204819D02*
X140035714Y-51204819D01*
X140235715Y-52204819D02*
X140235715Y-51538152D01*
X140235715Y-51204819D02*
X140207143Y-51252438D01*
X140207143Y-51252438D02*
X140235715Y-51300057D01*
X140235715Y-51300057D02*
X140264286Y-51252438D01*
X140264286Y-51252438D02*
X140235715Y-51204819D01*
X140235715Y-51204819D02*
X140235715Y-51300057D01*
X140521429Y-51538152D02*
X140521429Y-52204819D01*
X140521429Y-51633390D02*
X140550000Y-51585771D01*
X140550000Y-51585771D02*
X140607143Y-51538152D01*
X140607143Y-51538152D02*
X140692857Y-51538152D01*
X140692857Y-51538152D02*
X140750000Y-51585771D01*
X140750000Y-51585771D02*
X140778572Y-51681009D01*
X140778572Y-51681009D02*
X140778572Y-52204819D01*
X153316000Y-125930819D02*
X153116000Y-125454628D01*
X152973143Y-125930819D02*
X152973143Y-124930819D01*
X152973143Y-124930819D02*
X153201714Y-124930819D01*
X153201714Y-124930819D02*
X153258857Y-124978438D01*
X153258857Y-124978438D02*
X153287428Y-125026057D01*
X153287428Y-125026057D02*
X153316000Y-125121295D01*
X153316000Y-125121295D02*
X153316000Y-125264152D01*
X153316000Y-125264152D02*
X153287428Y-125359390D01*
X153287428Y-125359390D02*
X153258857Y-125407009D01*
X153258857Y-125407009D02*
X153201714Y-125454628D01*
X153201714Y-125454628D02*
X152973143Y-125454628D01*
X153887428Y-125930819D02*
X153544571Y-125930819D01*
X153716000Y-125930819D02*
X153716000Y-124930819D01*
X153716000Y-124930819D02*
X153658857Y-125073676D01*
X153658857Y-125073676D02*
X153601714Y-125168914D01*
X153601714Y-125168914D02*
X153544571Y-125216533D01*
X173200000Y-77740000D02*
X173200000Y-76720000D01*
X171730000Y-76720000D02*
X174670000Y-76720000D01*
X174670000Y-76720000D02*
X174670000Y-71280000D01*
X171730000Y-75940000D02*
X174670000Y-75940000D01*
X171730000Y-75820000D02*
X174670000Y-75820000D01*
X171730000Y-75700000D02*
X174670000Y-75700000D01*
X171730000Y-71280000D02*
X171730000Y-76720000D01*
X174670000Y-71280000D02*
X171730000Y-71280000D01*
X173200000Y-70260000D02*
X173200000Y-71280000D01*
X114280000Y-66829000D02*
X114280000Y-65571000D01*
X116120000Y-66829000D02*
X116120000Y-65571000D01*
X116230000Y-78070000D02*
X116230000Y-71530000D01*
X116560000Y-78070000D02*
X116230000Y-78070000D01*
X118640000Y-78070000D02*
X118970000Y-78070000D01*
X118970000Y-78070000D02*
X118970000Y-71530000D01*
X116230000Y-71530000D02*
X116560000Y-71530000D01*
X118970000Y-71530000D02*
X118640000Y-71530000D01*
X125170000Y-52480000D02*
X125170000Y-57121000D01*
X125170000Y-52480000D02*
X135410000Y-52480000D01*
X125170000Y-53990000D02*
X135410000Y-53990000D01*
X125170000Y-57121000D02*
X135410000Y-57121000D01*
X128440000Y-52480000D02*
X128440000Y-53990000D01*
X132141000Y-52480000D02*
X132141000Y-53990000D01*
X135410000Y-52480000D02*
X135410000Y-57121000D01*
X112970000Y-71530000D02*
X112970000Y-78070000D01*
X112640000Y-71530000D02*
X112970000Y-71530000D01*
X110560000Y-71530000D02*
X110230000Y-71530000D01*
X110230000Y-71530000D02*
X110230000Y-78070000D01*
X112970000Y-78070000D02*
X112640000Y-78070000D01*
X110230000Y-78070000D02*
X110560000Y-78070000D01*
X137516188Y-63735000D02*
X137066188Y-63735000D01*
X137291188Y-63960000D02*
X137291188Y-63510000D01*
X137098641Y-61340000D02*
G75*
G03*
X137098641Y-63460000I-2119741J-1060000D01*
G01*
X167465000Y-142716188D02*
X167465000Y-142266188D01*
X167240000Y-142491188D02*
X167690000Y-142491188D01*
X169860000Y-142298641D02*
G75*
G03*
X167740000Y-142298641I-1060000J2119741D01*
G01*
X171135000Y-58612712D02*
X171135000Y-59062712D01*
X171360000Y-58837712D02*
X170910000Y-58837712D01*
X168740000Y-59030259D02*
G75*
G03*
X170860000Y-59030259I1060000J-2119741D01*
G01*
X125170000Y-71530000D02*
X125170000Y-78070000D01*
X124840000Y-71530000D02*
X125170000Y-71530000D01*
X122760000Y-71530000D02*
X122430000Y-71530000D01*
X122430000Y-71530000D02*
X122430000Y-78070000D01*
X125170000Y-78070000D02*
X124840000Y-78070000D01*
X122430000Y-78070000D02*
X122760000Y-78070000D01*
X110079000Y-52630000D02*
X110079000Y-57271000D01*
X110079000Y-52630000D02*
X120320000Y-52630000D01*
X110079000Y-54139000D02*
X120320000Y-54139000D01*
X110079000Y-57271000D02*
X112435000Y-57271000D01*
X111800000Y-57271000D02*
X111800000Y-59901000D01*
X113350000Y-52630000D02*
X113350000Y-54139000D01*
X114565000Y-57271000D02*
X115835000Y-57271000D01*
X115200000Y-57271000D02*
X115200000Y-59885000D01*
X117050000Y-52630000D02*
X117050000Y-54139000D01*
X117965000Y-57271000D02*
X120320000Y-57271000D01*
X118600000Y-57271000D02*
X118600000Y-59885000D01*
X120320000Y-52630000D02*
X120320000Y-57271000D01*
X128630000Y-78070000D02*
X128630000Y-71530000D01*
X128960000Y-78070000D02*
X128630000Y-78070000D01*
X131040000Y-78070000D02*
X131370000Y-78070000D01*
X131370000Y-78070000D02*
X131370000Y-71530000D01*
X128630000Y-71530000D02*
X128960000Y-71530000D01*
X131370000Y-71530000D02*
X131040000Y-71530000D01*
X151200000Y-73500000D02*
X151200000Y-52500000D01*
X166200000Y-73500000D02*
X151200000Y-73500000D01*
X166200000Y-73500000D02*
X166200000Y-52500000D01*
X166200000Y-52500000D02*
X151200000Y-52500000D01*
X158935000Y-141455000D02*
X158935000Y-144545000D01*
X164484999Y-143000462D02*
G75*
G03*
X158935001Y-141455170I-2989999J462D01*
G01*
X158935000Y-144544830D02*
G75*
G03*
X164485000Y-142999538I2560000J1544830D01*
G01*
X163995000Y-143000000D02*
G75*
G03*
X158995000Y-143000000I-2500000J0D01*
G01*
X158995000Y-143000000D02*
G75*
G03*
X163995000Y-143000000I2500000J0D01*
G01*
X184090000Y-55820000D02*
X185420000Y-55820000D01*
X184090000Y-57150000D02*
X184090000Y-55820000D01*
X184090000Y-58420000D02*
X184090000Y-144840000D01*
X184090000Y-58420000D02*
X186750000Y-58420000D01*
X184090000Y-144840000D02*
X186750000Y-144840000D01*
X186750000Y-58420000D02*
X186750000Y-144840000D01*
X173465000Y-142716188D02*
X173465000Y-142266188D01*
X173240000Y-142491188D02*
X173690000Y-142491188D01*
X175860000Y-142298641D02*
G75*
G03*
X173740000Y-142298641I-1060000J2119741D01*
G01*
X129985000Y-137283812D02*
X129985000Y-137733812D01*
X130210000Y-137508812D02*
X129760000Y-137508812D01*
X127590000Y-137701359D02*
G75*
G03*
X129710000Y-137701359I1060000J-2119741D01*
G01*
X133780000Y-148270000D02*
X133780000Y-143629000D01*
X133780000Y-148270000D02*
X123540000Y-148270000D01*
X133780000Y-146760000D02*
X123540000Y-146760000D01*
X133780000Y-143629000D02*
X123540000Y-143629000D01*
X130510000Y-148270000D02*
X130510000Y-146760000D01*
X126809000Y-148270000D02*
X126809000Y-146760000D01*
X123540000Y-148270000D02*
X123540000Y-143629000D01*
X152210000Y-141455000D02*
X152210000Y-144545000D01*
X157759999Y-143000462D02*
G75*
G03*
X152210001Y-141455170I-2989999J462D01*
G01*
X152210000Y-144544830D02*
G75*
G03*
X157760000Y-142999538I2560000J1544830D01*
G01*
X157270000Y-143000000D02*
G75*
G03*
X152270000Y-143000000I-2500000J0D01*
G01*
X152270000Y-143000000D02*
G75*
G03*
X157270000Y-143000000I2500000J0D01*
G01*
X124883812Y-61065000D02*
X125333812Y-61065000D01*
X125108812Y-60840000D02*
X125108812Y-61290000D01*
X125301359Y-63460000D02*
G75*
G03*
X125301359Y-61340000I2119741J1060000D01*
G01*
X105350000Y-55820000D02*
X106680000Y-55820000D01*
X105350000Y-57150000D02*
X105350000Y-55820000D01*
X105350000Y-58420000D02*
X105350000Y-76260000D01*
X105350000Y-58420000D02*
X108010000Y-58420000D01*
X105350000Y-76260000D02*
X108010000Y-76260000D01*
X108010000Y-58420000D02*
X108010000Y-76260000D01*
X105350000Y-79950000D02*
X106680000Y-79950000D01*
X105350000Y-81280000D02*
X105350000Y-79950000D01*
X105350000Y-82550000D02*
X105350000Y-148650000D01*
X105350000Y-82550000D02*
X108010000Y-82550000D01*
X105350000Y-148650000D02*
X108010000Y-148650000D01*
X108010000Y-82550000D02*
X108010000Y-148650000D01*
X127590000Y-133800000D02*
X126570000Y-133800000D01*
X126570000Y-135270000D02*
X126570000Y-132330000D01*
X126570000Y-132330000D02*
X121130000Y-132330000D01*
X125790000Y-135270000D02*
X125790000Y-132330000D01*
X125670000Y-135270000D02*
X125670000Y-132330000D01*
X125550000Y-135270000D02*
X125550000Y-132330000D01*
X121130000Y-135270000D02*
X126570000Y-135270000D01*
X121130000Y-132330000D02*
X121130000Y-135270000D01*
X120110000Y-133800000D02*
X121130000Y-133800000D01*
X141660000Y-131800000D02*
X142680000Y-131800000D01*
X142680000Y-130330000D02*
X142680000Y-133270000D01*
X142680000Y-133270000D02*
X148120000Y-133270000D01*
X143460000Y-130330000D02*
X143460000Y-133270000D01*
X143580000Y-130330000D02*
X143580000Y-133270000D01*
X143700000Y-130330000D02*
X143700000Y-133270000D01*
X148120000Y-130330000D02*
X142680000Y-130330000D01*
X148120000Y-133270000D02*
X148120000Y-130330000D01*
X149140000Y-131800000D02*
X148120000Y-131800000D01*
X178370000Y-148270000D02*
X178370000Y-143629000D01*
X178370000Y-148270000D02*
X168130000Y-148270000D01*
X178370000Y-146760000D02*
X168130000Y-146760000D01*
X178370000Y-143629000D02*
X168130000Y-143629000D01*
X175100000Y-148270000D02*
X175100000Y-146760000D01*
X171399000Y-148270000D02*
X171399000Y-146760000D01*
X168130000Y-148270000D02*
X168130000Y-143629000D01*
X177720000Y-60371000D02*
X177720000Y-61629000D01*
X175880000Y-60371000D02*
X175880000Y-61629000D01*
X164064700Y-127121200D02*
X164064700Y-133661200D01*
X163734700Y-127121200D02*
X164064700Y-127121200D01*
X161654700Y-127121200D02*
X161324700Y-127121200D01*
X161324700Y-127121200D02*
X161324700Y-133661200D01*
X164064700Y-133661200D02*
X163734700Y-133661200D01*
X161324700Y-133661200D02*
X161654700Y-133661200D01*
X146265000Y-141587288D02*
X146265000Y-141137288D01*
X146040000Y-141362288D02*
X146490000Y-141362288D01*
X148660000Y-141169741D02*
G75*
G03*
X146540000Y-141169741I-1060000J2119741D01*
G01*
X111530000Y-82430000D02*
X118070000Y-82430000D01*
X111530000Y-82760000D02*
X111530000Y-82430000D01*
X111530000Y-84840000D02*
X111530000Y-85170000D01*
X111530000Y-85170000D02*
X118070000Y-85170000D01*
X118070000Y-82430000D02*
X118070000Y-82760000D01*
X118070000Y-85170000D02*
X118070000Y-84840000D01*
X144340000Y-71600000D02*
X143320000Y-71600000D01*
X143320000Y-73070000D02*
X143320000Y-70130000D01*
X143320000Y-70130000D02*
X137880000Y-70130000D01*
X142540000Y-73070000D02*
X142540000Y-70130000D01*
X142420000Y-73070000D02*
X142420000Y-70130000D01*
X142300000Y-73070000D02*
X142300000Y-70130000D01*
X137880000Y-73070000D02*
X143320000Y-73070000D01*
X137880000Y-70130000D02*
X137880000Y-73070000D01*
X136860000Y-71600000D02*
X137880000Y-71600000D01*
X167330000Y-52425000D02*
X167330000Y-57066000D01*
X167330000Y-52425000D02*
X177570000Y-52425000D01*
X167330000Y-53935000D02*
X177570000Y-53935000D01*
X167330000Y-57066000D02*
X177570000Y-57066000D01*
X170600000Y-52425000D02*
X170600000Y-53935000D01*
X174301000Y-52425000D02*
X174301000Y-53935000D01*
X177570000Y-52425000D02*
X177570000Y-57066000D01*
X141429000Y-140920000D02*
X140171000Y-140920000D01*
X141429000Y-139080000D02*
X140171000Y-139080000D01*
X120935000Y-141112712D02*
X120935000Y-141562712D01*
X121160000Y-141337712D02*
X120710000Y-141337712D01*
X118540000Y-141530259D02*
G75*
G03*
X120660000Y-141530259I1060000J-2119741D01*
G01*
X151145100Y-148270000D02*
X151145100Y-143629000D01*
X151145100Y-148270000D02*
X140905100Y-148270000D01*
X151145100Y-146760000D02*
X140905100Y-146760000D01*
X151145100Y-143629000D02*
X140905100Y-143629000D01*
X147875100Y-148270000D02*
X147875100Y-146760000D01*
X144174100Y-148270000D02*
X144174100Y-146760000D01*
X140905100Y-148270000D02*
X140905100Y-143629000D01*
X150773400Y-66255400D02*
X150773400Y-64955400D01*
X150473400Y-65955400D02*
X148473400Y-65955400D01*
X150473400Y-51455400D02*
X150473400Y-65955400D01*
X149073400Y-66255400D02*
X150773400Y-66255400D01*
X143273400Y-65955400D02*
X141273400Y-65955400D01*
X141273400Y-65955400D02*
X141273400Y-64655400D01*
X141273400Y-60055400D02*
X141273400Y-51455400D01*
X141273400Y-51455400D02*
X150473400Y-51455400D01*
X157370000Y-127170000D02*
X157370000Y-133710000D01*
X157040000Y-127170000D02*
X157370000Y-127170000D01*
X154960000Y-127170000D02*
X154630000Y-127170000D01*
X154630000Y-127170000D02*
X154630000Y-133710000D01*
X157370000Y-133710000D02*
X157040000Y-133710000D01*
X154630000Y-133710000D02*
X154960000Y-133710000D01*
%LPC*%
D12*
X173200000Y-79080000D03*
X173200000Y-68920000D03*
X115200000Y-67450000D03*
X115200000Y-64950000D03*
X117600000Y-78610000D03*
X117600000Y-70990000D03*
D13*
X127750000Y-55750000D03*
X130290000Y-55750000D03*
X132830000Y-55750000D03*
D12*
X111600000Y-70990000D03*
X111600000Y-78610000D03*
D13*
X136228900Y-62400000D03*
D14*
X133728900Y-62400000D03*
D12*
X168800000Y-141428900D03*
D15*
X168800000Y-138928900D03*
D12*
X169800000Y-59900000D03*
D15*
X169800000Y-62400000D03*
D12*
X123800000Y-70990000D03*
X123800000Y-78610000D03*
D13*
X111800000Y-60950000D03*
X113500000Y-57250000D03*
X115200000Y-60950000D03*
X116900000Y-57250000D03*
X118600000Y-60950000D03*
D12*
X130000000Y-78610000D03*
X130000000Y-70990000D03*
D16*
X158600000Y-63700000D03*
X158600000Y-70500000D03*
D17*
X160225000Y-143000000D03*
D18*
X162765000Y-143000000D03*
D19*
X185420000Y-57150000D03*
X185420000Y-59690000D03*
X185420000Y-62230000D03*
X185420000Y-64770000D03*
X185420000Y-67310000D03*
X185420000Y-69850000D03*
X185420000Y-72390000D03*
X185420000Y-74930000D03*
X185420000Y-77470000D03*
X185420000Y-80010000D03*
X185420000Y-82550000D03*
X185420000Y-85090000D03*
X185420000Y-87630000D03*
X185420000Y-90170000D03*
X185420000Y-92710000D03*
X185420000Y-95250000D03*
X185420000Y-97790000D03*
X185420000Y-100330000D03*
X185420000Y-102870000D03*
X185420000Y-105410000D03*
X185420000Y-107950000D03*
X185420000Y-110490000D03*
X185420000Y-113030000D03*
X185420000Y-115570000D03*
X185420000Y-118110000D03*
X185420000Y-120650000D03*
X185420000Y-123190000D03*
X185420000Y-125730000D03*
X185420000Y-128270000D03*
X185420000Y-130810000D03*
X185420000Y-133350000D03*
X185420000Y-135890000D03*
X185420000Y-138430000D03*
X185420000Y-140970000D03*
X185420000Y-143510000D03*
D12*
X174800000Y-141428900D03*
D15*
X174800000Y-138928900D03*
D12*
X128650000Y-138571100D03*
D15*
X128650000Y-141071100D03*
D13*
X131200000Y-145000000D03*
X128660000Y-145000000D03*
X126120000Y-145000000D03*
D17*
X153500000Y-143000000D03*
D18*
X156040000Y-143000000D03*
D13*
X126171100Y-62400000D03*
D14*
X128671100Y-62400000D03*
D20*
X106680000Y-57150000D03*
D19*
X106680000Y-59690000D03*
X106680000Y-62230000D03*
X106680000Y-64770000D03*
X106680000Y-67310000D03*
X106680000Y-69850000D03*
X106680000Y-72390000D03*
X106680000Y-74930000D03*
X106680000Y-81280000D03*
X106680000Y-83820000D03*
X106680000Y-86360000D03*
X106680000Y-88900000D03*
X106680000Y-91440000D03*
X106680000Y-93980000D03*
X106680000Y-96520000D03*
X106680000Y-99060000D03*
X106680000Y-101600000D03*
X106680000Y-104140000D03*
X106680000Y-106680000D03*
X106680000Y-109220000D03*
X106680000Y-111760000D03*
X106680000Y-114300000D03*
X106680000Y-116840000D03*
X106680000Y-119380000D03*
X106680000Y-121920000D03*
X106680000Y-124460000D03*
X106680000Y-127000000D03*
X106680000Y-129540000D03*
X106680000Y-132080000D03*
X106680000Y-134620000D03*
X106680000Y-137160000D03*
X106680000Y-139700000D03*
X106680000Y-142240000D03*
X106680000Y-144780000D03*
X106680000Y-147320000D03*
D13*
X128930000Y-133800000D03*
X118770000Y-133800000D03*
X140320000Y-131800000D03*
X150480000Y-131800000D03*
X175790000Y-145000000D03*
X173250000Y-145000000D03*
X170710000Y-145000000D03*
D12*
X176800000Y-59750000D03*
X176800000Y-62250000D03*
X162694700Y-126581200D03*
X162694700Y-134201200D03*
X147600000Y-140300000D03*
D15*
X147600000Y-137800000D03*
D13*
X110990000Y-83800000D03*
X118610000Y-83800000D03*
X145680000Y-71600000D03*
X135520000Y-71600000D03*
X169910000Y-55695000D03*
X172450000Y-55695000D03*
X174990000Y-55695000D03*
X142050000Y-140000000D03*
X139550000Y-140000000D03*
D12*
X119600000Y-142400000D03*
D15*
X119600000Y-144900000D03*
D13*
X148565100Y-145000000D03*
X146025100Y-145000000D03*
X143485100Y-145000000D03*
D21*
X145873400Y-65255400D03*
D22*
X145873400Y-58955400D03*
D23*
X141073400Y-62355400D03*
D12*
X156000000Y-126630000D03*
X156000000Y-134250000D03*
%LPD*%
M02*
