<svg version="1.1" xmlns="http://www.w3.org/2000/svg" xmlns:xlink="http://www.w3.org/1999/xlink" stroke-linecap="round" stroke-linejoin="round" stroke-width="0" fill-rule="evenodd" width="90.5mm" height="104.3815mm" viewBox="101350 -154931.5 90500 104381.5" id="Cgpbk-j26xmHxqZ7EMx_"><g transform="translate(0,-205481.5) scale(1,-1)" fill="currentColor" stroke="currentColor"><path d="M 191600 -50800 101600 -50800 M 191600 -150800 191600 -50800 M 191599.82 -150799.8 101600 -150799.8 M 101600 -50800 101600 -150799.8" fill="none" stroke-width="500"/><path d="M 103957.77 -154164.84 103957.77 -152164.84 104433.96 -152164.84 104719.67 -152260.08 104910.15 -152450.55 105005.39 -152641.03 105100.63 -153021.98 105100.63 -153307.69 105005.39 -153688.65 104910.15 -153879.12 104719.67 -154069.6 104433.96 -154164.84 103957.77 -154164.84 M 105957.77 -154164.84 105957.77 -152831.5 M 105957.77 -153212.46 106053.01 -153021.98 106148.24 -152926.74 106338.72 -152831.5 106529.2 -152831.5 M 107195.86 -154164.84 107195.86 -152831.5 M 107195.86 -152164.84 107100.63 -152260.08 107195.86 -152355.31 107291.1 -152260.08 107195.86 -152164.84 107195.86 -152355.31 M 108433.96 -154164.84 108243.48 -154069.6 108148.24 -153879.12 108148.24 -152164.84 M 109481.58 -154164.84 109291.1 -154069.6 109195.86 -153879.12 109195.86 -152164.84 M 111767.29 -154164.84 111767.29 -152164.84 112433.96 -153593.41 113100.62 -152164.84 113100.62 -154164.84 M 114910.15 -154164.84 114910.15 -153117.22 114814.91 -152926.74 114624.43 -152831.5 114243.48 -152831.5 114053.01 -152926.74 M 114910.15 -154069.6 114719.67 -154164.84 114243.48 -154164.84 114053.01 -154069.6 113957.77 -153879.12 113957.77 -153688.65 114053.01 -153498.17 114243.48 -153402.93 114719.67 -153402.93 114910.15 -153307.69 M 115862.53 -152831.5 115862.53 -154831.5 M 115862.53 -152926.74 116053.01 -152831.5 116433.96 -152831.5 116624.43 -152926.74 116719.67 -153021.98 116814.91 -153212.46 116814.91 -153783.88 116719.67 -153974.36 116624.43 -154069.6 116433.96 -154164.84 116053.01 -154164.84 115862.53 -154069.6 M 117672.05 -153974.36 117767.29 -154069.6 117672.05 -154164.84 117576.82 -154069.6 117672.05 -153974.36 117672.05 -154164.84 M 117672.05 -152926.74 117767.29 -153021.98 117672.05 -153117.22 117576.82 -153021.98 117672.05 -152926.74 117672.05 -153117.22" fill="none" stroke-width="200"/></g></svg>