<svg version="1.1" xmlns="http://www.w3.org/2000/svg" xmlns:xlink="http://www.w3.org/1999/xlink" stroke-linecap="round" stroke-linejoin="round" stroke-width="0" fill-rule="evenodd" width="81.24mm" height="93.525mm" viewBox="105430 -148220 81240 93525" id="ikVfCyU7n3YDCjKEHST2"><defs><rect x="-1000" y="-800" width="2000" height="1600" rx="800" ry="800" id="ikVfCyU7n3YDCjKEHST2_pad-10"/><rect x="-800" y="-1000" width="1600" height="2000" rx="800" ry="800" id="ikVfCyU7n3YDCjKEHST2_pad-11"/><rect x="-800" y="-1000" width="1600" height="2000" id="ikVfCyU7n3YDCjKEHST2_pad-12"/><rect x="-1000" y="-800" width="2000" height="1600" id="ikVfCyU7n3YDCjKEHST2_pad-13"/><rect x="-3500" y="-1250" width="7000" height="2500" id="ikVfCyU7n3YDCjKEHST2_pad-14"/><rect x="-900" y="-900" width="1800" height="1800" id="ikVfCyU7n3YDCjKEHST2_pad-15"/><rect x="-900" y="-1000" width="1800" height="2000" rx="900" ry="900" id="ikVfCyU7n3YDCjKEHST2_pad-16"/><rect x="-1250" y="-900" width="2500" height="1800" rx="900" ry="900" id="ikVfCyU7n3YDCjKEHST2_pad-17"/><rect x="-1250" y="-900" width="2500" height="1800" id="ikVfCyU7n3YDCjKEHST2_pad-18"/><rect x="-2300" y="-1000" width="4600" height="2000" id="ikVfCyU7n3YDCjKEHST2_pad-19"/><rect x="-2100" y="-1000" width="4200" height="2000" rx="1000" ry="1000" id="ikVfCyU7n3YDCjKEHST2_pad-20"/><rect x="-1000" y="-2100" width="2000" height="4200" rx="1000" ry="1000" id="ikVfCyU7n3YDCjKEHST2_pad-21"/></defs><g transform="translate(0,-202915) scale(1,-1)" fill="currentColor" stroke="currentColor"><use xlink:href="#ikVfCyU7n3YDCjKEHST2_pad-10" x="173200" y="-79080"/><use xlink:href="#ikVfCyU7n3YDCjKEHST2_pad-10" x="173200" y="-68920"/><use xlink:href="#ikVfCyU7n3YDCjKEHST2_pad-10" x="115200" y="-67450"/><use xlink:href="#ikVfCyU7n3YDCjKEHST2_pad-10" x="115200" y="-64950"/><use xlink:href="#ikVfCyU7n3YDCjKEHST2_pad-10" x="117600" y="-78610"/><use xlink:href="#ikVfCyU7n3YDCjKEHST2_pad-10" x="117600" y="-70990"/><use xlink:href="#ikVfCyU7n3YDCjKEHST2_pad-11" x="127750" y="-55750"/><use xlink:href="#ikVfCyU7n3YDCjKEHST2_pad-11" x="130290" y="-55750"/><use xlink:href="#ikVfCyU7n3YDCjKEHST2_pad-11" x="132830" y="-55750"/><use xlink:href="#ikVfCyU7n3YDCjKEHST2_pad-10" x="111600" y="-70990"/><use xlink:href="#ikVfCyU7n3YDCjKEHST2_pad-10" x="111600" y="-78610"/><use xlink:href="#ikVfCyU7n3YDCjKEHST2_pad-11" x="136228.9" y="-62400"/><use xlink:href="#ikVfCyU7n3YDCjKEHST2_pad-12" x="133728.9" y="-62400"/><use xlink:href="#ikVfCyU7n3YDCjKEHST2_pad-10" x="168800" y="-141428.9"/><use xlink:href="#ikVfCyU7n3YDCjKEHST2_pad-13" x="168800" y="-138928.9"/><use xlink:href="#ikVfCyU7n3YDCjKEHST2_pad-10" x="169800" y="-59900"/><use xlink:href="#ikVfCyU7n3YDCjKEHST2_pad-13" x="169800" y="-62400"/><use xlink:href="#ikVfCyU7n3YDCjKEHST2_pad-10" x="123800" y="-70990"/><use xlink:href="#ikVfCyU7n3YDCjKEHST2_pad-10" x="123800" y="-78610"/><use xlink:href="#ikVfCyU7n3YDCjKEHST2_pad-11" x="111800" y="-60950"/><use xlink:href="#ikVfCyU7n3YDCjKEHST2_pad-11" x="113500" y="-57250"/><use xlink:href="#ikVfCyU7n3YDCjKEHST2_pad-11" x="115200" y="-60950"/><use xlink:href="#ikVfCyU7n3YDCjKEHST2_pad-11" x="116900" y="-57250"/><use xlink:href="#ikVfCyU7n3YDCjKEHST2_pad-11" x="118600" y="-60950"/><use xlink:href="#ikVfCyU7n3YDCjKEHST2_pad-10" x="130000" y="-78610"/><use xlink:href="#ikVfCyU7n3YDCjKEHST2_pad-10" x="130000" y="-70990"/><use xlink:href="#ikVfCyU7n3YDCjKEHST2_pad-14" x="158600" y="-63700"/><use xlink:href="#ikVfCyU7n3YDCjKEHST2_pad-14" x="158600" y="-70500"/><use xlink:href="#ikVfCyU7n3YDCjKEHST2_pad-15" x="160225" y="-143000"/><use xlink:href="#ikVfCyU7n3YDCjKEHST2_pad-16" x="162765" y="-143000"/><use xlink:href="#ikVfCyU7n3YDCjKEHST2_pad-17" x="185420" y="-57150"/><use xlink:href="#ikVfCyU7n3YDCjKEHST2_pad-17" x="185420" y="-59690"/><use xlink:href="#ikVfCyU7n3YDCjKEHST2_pad-17" x="185420" y="-62230"/><use xlink:href="#ikVfCyU7n3YDCjKEHST2_pad-17" x="185420" y="-64770"/><use xlink:href="#ikVfCyU7n3YDCjKEHST2_pad-17" x="185420" y="-67310"/><use xlink:href="#ikVfCyU7n3YDCjKEHST2_pad-17" x="185420" y="-69850"/><use xlink:href="#ikVfCyU7n3YDCjKEHST2_pad-17" x="185420" y="-72390"/><use xlink:href="#ikVfCyU7n3YDCjKEHST2_pad-17" x="185420" y="-74930"/><use xlink:href="#ikVfCyU7n3YDCjKEHST2_pad-17" x="185420" y="-77470"/><use xlink:href="#ikVfCyU7n3YDCjKEHST2_pad-17" x="185420" y="-80010"/><use xlink:href="#ikVfCyU7n3YDCjKEHST2_pad-17" x="185420" y="-82550"/><use xlink:href="#ikVfCyU7n3YDCjKEHST2_pad-17" x="185420" y="-85090"/><use xlink:href="#ikVfCyU7n3YDCjKEHST2_pad-17" x="185420" y="-87630"/><use xlink:href="#ikVfCyU7n3YDCjKEHST2_pad-17" x="185420" y="-90170"/><use xlink:href="#ikVfCyU7n3YDCjKEHST2_pad-17" x="185420" y="-92710"/><use xlink:href="#ikVfCyU7n3YDCjKEHST2_pad-17" x="185420" y="-95250"/><use xlink:href="#ikVfCyU7n3YDCjKEHST2_pad-17" x="185420" y="-97790"/><use xlink:href="#ikVfCyU7n3YDCjKEHST2_pad-17" x="185420" y="-100330"/><use xlink:href="#ikVfCyU7n3YDCjKEHST2_pad-17" x="185420" y="-102870"/><use xlink:href="#ikVfCyU7n3YDCjKEHST2_pad-17" x="185420" y="-105410"/><use xlink:href="#ikVfCyU7n3YDCjKEHST2_pad-17" x="185420" y="-107950"/><use xlink:href="#ikVfCyU7n3YDCjKEHST2_pad-17" x="185420" y="-110490"/><use xlink:href="#ikVfCyU7n3YDCjKEHST2_pad-17" x="185420" y="-113030"/><use xlink:href="#ikVfCyU7n3YDCjKEHST2_pad-17" x="185420" y="-115570"/><use xlink:href="#ikVfCyU7n3YDCjKEHST2_pad-17" x="185420" y="-118110"/><use xlink:href="#ikVfCyU7n3YDCjKEHST2_pad-17" x="185420" y="-120650"/><use xlink:href="#ikVfCyU7n3YDCjKEHST2_pad-17" x="185420" y="-123190"/><use xlink:href="#ikVfCyU7n3YDCjKEHST2_pad-17" x="185420" y="-125730"/><use xlink:href="#ikVfCyU7n3YDCjKEHST2_pad-17" x="185420" y="-128270"/><use xlink:href="#ikVfCyU7n3YDCjKEHST2_pad-17" x="185420" y="-130810"/><use xlink:href="#ikVfCyU7n3YDCjKEHST2_pad-17" x="185420" y="-133350"/><use xlink:href="#ikVfCyU7n3YDCjKEHST2_pad-17" x="185420" y="-135890"/><use xlink:href="#ikVfCyU7n3YDCjKEHST2_pad-17" x="185420" y="-138430"/><use xlink:href="#ikVfCyU7n3YDCjKEHST2_pad-17" x="185420" y="-140970"/><use xlink:href="#ikVfCyU7n3YDCjKEHST2_pad-17" x="185420" y="-143510"/><use xlink:href="#ikVfCyU7n3YDCjKEHST2_pad-10" x="174800" y="-141428.9"/><use xlink:href="#ikVfCyU7n3YDCjKEHST2_pad-13" x="174800" y="-138928.9"/><use xlink:href="#ikVfCyU7n3YDCjKEHST2_pad-10" x="128650" y="-138571.1"/><use xlink:href="#ikVfCyU7n3YDCjKEHST2_pad-13" x="128650" y="-141071.1"/><use xlink:href="#ikVfCyU7n3YDCjKEHST2_pad-11" x="131200" y="-145000"/><use xlink:href="#ikVfCyU7n3YDCjKEHST2_pad-11" x="128660" y="-145000"/><use xlink:href="#ikVfCyU7n3YDCjKEHST2_pad-11" x="126120" y="-145000"/><use xlink:href="#ikVfCyU7n3YDCjKEHST2_pad-15" x="153500" y="-143000"/><use xlink:href="#ikVfCyU7n3YDCjKEHST2_pad-16" x="156040" y="-143000"/><use xlink:href="#ikVfCyU7n3YDCjKEHST2_pad-11" x="126171.1" y="-62400"/><use xlink:href="#ikVfCyU7n3YDCjKEHST2_pad-12" x="128671.1" y="-62400"/><use xlink:href="#ikVfCyU7n3YDCjKEHST2_pad-18" x="106680" y="-57150"/><use xlink:href="#ikVfCyU7n3YDCjKEHST2_pad-17" x="106680" y="-59690"/><use xlink:href="#ikVfCyU7n3YDCjKEHST2_pad-17" x="106680" y="-62230"/><use xlink:href="#ikVfCyU7n3YDCjKEHST2_pad-17" x="106680" y="-64770"/><use xlink:href="#ikVfCyU7n3YDCjKEHST2_pad-17" x="106680" y="-67310"/><use xlink:href="#ikVfCyU7n3YDCjKEHST2_pad-17" x="106680" y="-69850"/><use xlink:href="#ikVfCyU7n3YDCjKEHST2_pad-17" x="106680" y="-72390"/><use xlink:href="#ikVfCyU7n3YDCjKEHST2_pad-17" x="106680" y="-74930"/><use xlink:href="#ikVfCyU7n3YDCjKEHST2_pad-17" x="106680" y="-81280"/><use xlink:href="#ikVfCyU7n3YDCjKEHST2_pad-17" x="106680" y="-83820"/><use xlink:href="#ikVfCyU7n3YDCjKEHST2_pad-17" x="106680" y="-86360"/><use xlink:href="#ikVfCyU7n3YDCjKEHST2_pad-17" x="106680" y="-88900"/><use xlink:href="#ikVfCyU7n3YDCjKEHST2_pad-17" x="106680" y="-91440"/><use xlink:href="#ikVfCyU7n3YDCjKEHST2_pad-17" x="106680" y="-93980"/><use xlink:href="#ikVfCyU7n3YDCjKEHST2_pad-17" x="106680" y="-96520"/><use xlink:href="#ikVfCyU7n3YDCjKEHST2_pad-17" x="106680" y="-99060"/><use xlink:href="#ikVfCyU7n3YDCjKEHST2_pad-17" x="106680" y="-101600"/><use xlink:href="#ikVfCyU7n3YDCjKEHST2_pad-17" x="106680" y="-104140"/><use xlink:href="#ikVfCyU7n3YDCjKEHST2_pad-17" x="106680" y="-106680"/><use xlink:href="#ikVfCyU7n3YDCjKEHST2_pad-17" x="106680" y="-109220"/><use xlink:href="#ikVfCyU7n3YDCjKEHST2_pad-17" x="106680" y="-111760"/><use xlink:href="#ikVfCyU7n3YDCjKEHST2_pad-17" x="106680" y="-114300"/><use xlink:href="#ikVfCyU7n3YDCjKEHST2_pad-17" x="106680" y="-116840"/><use xlink:href="#ikVfCyU7n3YDCjKEHST2_pad-17" x="106680" y="-119380"/><use xlink:href="#ikVfCyU7n3YDCjKEHST2_pad-17" x="106680" y="-121920"/><use xlink:href="#ikVfCyU7n3YDCjKEHST2_pad-17" x="106680" y="-124460"/><use xlink:href="#ikVfCyU7n3YDCjKEHST2_pad-17" x="106680" y="-127000"/><use xlink:href="#ikVfCyU7n3YDCjKEHST2_pad-17" x="106680" y="-129540"/><use xlink:href="#ikVfCyU7n3YDCjKEHST2_pad-17" x="106680" y="-132080"/><use xlink:href="#ikVfCyU7n3YDCjKEHST2_pad-17" x="106680" y="-134620"/><use xlink:href="#ikVfCyU7n3YDCjKEHST2_pad-17" x="106680" y="-137160"/><use xlink:href="#ikVfCyU7n3YDCjKEHST2_pad-17" x="106680" y="-139700"/><use xlink:href="#ikVfCyU7n3YDCjKEHST2_pad-17" x="106680" y="-142240"/><use xlink:href="#ikVfCyU7n3YDCjKEHST2_pad-17" x="106680" y="-144780"/><use xlink:href="#ikVfCyU7n3YDCjKEHST2_pad-17" x="106680" y="-147320"/><use xlink:href="#ikVfCyU7n3YDCjKEHST2_pad-11" x="128930" y="-133800"/><use xlink:href="#ikVfCyU7n3YDCjKEHST2_pad-11" x="118770" y="-133800"/><use xlink:href="#ikVfCyU7n3YDCjKEHST2_pad-11" x="140320" y="-131800"/><use xlink:href="#ikVfCyU7n3YDCjKEHST2_pad-11" x="150480" y="-131800"/><use xlink:href="#ikVfCyU7n3YDCjKEHST2_pad-11" x="175790" y="-145000"/><use xlink:href="#ikVfCyU7n3YDCjKEHST2_pad-11" x="173250" y="-145000"/><use xlink:href="#ikVfCyU7n3YDCjKEHST2_pad-11" x="170710" y="-145000"/><use xlink:href="#ikVfCyU7n3YDCjKEHST2_pad-10" x="176800" y="-59750"/><use xlink:href="#ikVfCyU7n3YDCjKEHST2_pad-10" x="176800" y="-62250"/><use xlink:href="#ikVfCyU7n3YDCjKEHST2_pad-10" x="162694.7" y="-126581.2"/><use xlink:href="#ikVfCyU7n3YDCjKEHST2_pad-10" x="162694.7" y="-134201.2"/><use xlink:href="#ikVfCyU7n3YDCjKEHST2_pad-10" x="147600" y="-140300"/><use xlink:href="#ikVfCyU7n3YDCjKEHST2_pad-13" x="147600" y="-137800"/><use xlink:href="#ikVfCyU7n3YDCjKEHST2_pad-11" x="110990" y="-83800"/><use xlink:href="#ikVfCyU7n3YDCjKEHST2_pad-11" x="118610" y="-83800"/><use xlink:href="#ikVfCyU7n3YDCjKEHST2_pad-11" x="145680" y="-71600"/><use xlink:href="#ikVfCyU7n3YDCjKEHST2_pad-11" x="135520" y="-71600"/><use xlink:href="#ikVfCyU7n3YDCjKEHST2_pad-11" x="169910" y="-55695"/><use xlink:href="#ikVfCyU7n3YDCjKEHST2_pad-11" x="172450" y="-55695"/><use xlink:href="#ikVfCyU7n3YDCjKEHST2_pad-11" x="174990" y="-55695"/><use xlink:href="#ikVfCyU7n3YDCjKEHST2_pad-11" x="142050" y="-140000"/><use xlink:href="#ikVfCyU7n3YDCjKEHST2_pad-11" x="139550" y="-140000"/><use xlink:href="#ikVfCyU7n3YDCjKEHST2_pad-10" x="119600" y="-142400"/><use xlink:href="#ikVfCyU7n3YDCjKEHST2_pad-13" x="119600" y="-144900"/><use xlink:href="#ikVfCyU7n3YDCjKEHST2_pad-11" x="148565.1" y="-145000"/><use xlink:href="#ikVfCyU7n3YDCjKEHST2_pad-11" x="146025.1" y="-145000"/><use xlink:href="#ikVfCyU7n3YDCjKEHST2_pad-11" x="143485.1" y="-145000"/><use xlink:href="#ikVfCyU7n3YDCjKEHST2_pad-19" x="145873.4" y="-65255.4"/><use xlink:href="#ikVfCyU7n3YDCjKEHST2_pad-20" x="145873.4" y="-58955.4"/><use xlink:href="#ikVfCyU7n3YDCjKEHST2_pad-21" x="141073.4" y="-62355.4"/><use xlink:href="#ikVfCyU7n3YDCjKEHST2_pad-10" x="156000" y="-126630"/><use xlink:href="#ikVfCyU7n3YDCjKEHST2_pad-10" x="156000" y="-134250"/></g></svg>