<svg version="1.1" xmlns="http://www.w3.org/2000/svg" xmlns:xlink="http://www.w3.org/1999/xlink" stroke-linecap="round" stroke-linejoin="round" stroke-width="0" fill-rule="evenodd" width="91.655mm" height="124.51674mm" viewBox="100195 -175066.74 91655 124516.74" id="jflwIXjSG-ZTCmsqRgO2"><g transform="translate(0,-225616.74) scale(1,-1)" fill="currentColor" stroke="currentColor"><path d="M 191600 -50800 101600 -50800 M 191600 -150800 191600 -50800 M 191599.82 -150799.8 101600 -150799.8 M 101600 -50800 101600 -150799.8" fill="none" stroke-width="500"/><path d="M 103397.1 -76219.1 104197.1 -77019.1 M 104197.1 -76219.1 103397.1 -77019.1 M 122443.8 -55702.5 123243.8 -56502.5 M 123243.8 -55702.5 122443.8 -56502.5 M 111390 -83800 A 400 400 0 0 1 110590 -83800 400 400 0 0 1 111390 -83800 M 112000 -70990 A 400 400 0 0 1 111200 -70990 400 400 0 0 1 112000 -70990 M 112000 -78610 A 400 400 0 0 1 111200 -78610 400 400 0 0 1 112000 -78610 M 115600 -64950 A 400 400 0 0 1 114800 -64950 400 400 0 0 1 115600 -64950 M 115600 -67450 A 400 400 0 0 1 114800 -67450 400 400 0 0 1 115600 -67450 M 118000 -70990 A 400 400 0 0 1 117200 -70990 400 400 0 0 1 118000 -70990 M 118000 -78610 A 400 400 0 0 1 117200 -78610 400 400 0 0 1 118000 -78610 M 119010 -83800 A 400 400 0 0 1 118210 -83800 400 400 0 0 1 119010 -83800 M 119170 -133800 A 400 400 0 0 1 118370 -133800 400 400 0 0 1 119170 -133800 M 120000 -142400 A 400 400 0 0 1 119200 -142400 400 400 0 0 1 120000 -142400 M 120000 -144900 A 400 400 0 0 1 119200 -144900 400 400 0 0 1 120000 -144900 M 124200 -70990 A 400 400 0 0 1 123400 -70990 400 400 0 0 1 124200 -70990 M 124200 -78610 A 400 400 0 0 1 123400 -78610 400 400 0 0 1 124200 -78610 M 126571.1 -62400 A 400 400 0 0 1 125771.1 -62400 400 400 0 0 1 126571.1 -62400 M 129050 -138571.1 A 400 400 0 0 1 128250 -138571.1 400 400 0 0 1 129050 -138571.1 M 129050 -141071.1 A 400 400 0 0 1 128250 -141071.1 400 400 0 0 1 129050 -141071.1 M 129071.1 -62400 A 400 400 0 0 1 128271.1 -62400 400 400 0 0 1 129071.1 -62400 M 129330 -133800 A 400 400 0 0 1 128530 -133800 400 400 0 0 1 129330 -133800 M 130400 -70990 A 400 400 0 0 1 129600 -70990 400 400 0 0 1 130400 -70990 M 130400 -78610 A 400 400 0 0 1 129600 -78610 400 400 0 0 1 130400 -78610 M 134128.9 -62400 A 400 400 0 0 1 133328.9 -62400 400 400 0 0 1 134128.9 -62400 M 135920 -71600 A 400 400 0 0 1 135120 -71600 400 400 0 0 1 135920 -71600 M 136628.9 -62400 A 400 400 0 0 1 135828.9 -62400 400 400 0 0 1 136628.9 -62400 M 139950 -140000 A 400 400 0 0 1 139150 -140000 400 400 0 0 1 139950 -140000 M 140720 -131800 A 400 400 0 0 1 139920 -131800 400 400 0 0 1 140720 -131800 M 142450 -140000 A 400 400 0 0 1 141650 -140000 400 400 0 0 1 142450 -140000 M 146080 -71600 A 400 400 0 0 1 145280 -71600 400 400 0 0 1 146080 -71600 M 148000 -137800 A 400 400 0 0 1 147200 -137800 400 400 0 0 1 148000 -137800 M 148000 -140300 A 400 400 0 0 1 147200 -140300 400 400 0 0 1 148000 -140300 M 150880 -131800 A 400 400 0 0 1 150080 -131800 400 400 0 0 1 150880 -131800 M 156400 -126630 A 400 400 0 0 1 155600 -126630 400 400 0 0 1 156400 -126630 M 156400 -134250 A 400 400 0 0 1 155600 -134250 400 400 0 0 1 156400 -134250 M 159000 -63700 A 400 400 0 0 1 158200 -63700 400 400 0 0 1 159000 -63700" fill="none" stroke-width="80"/><path d="M 156000 -64100 161200 -64100 A 400 400 0 0 1 161200 -63300 L 156000 -63300 A 400 400 0 0 1 156000 -64100" fill="none" stroke-width="200"/><path d="M 159000 -70500 A 400 400 0 0 1 158200 -70500 400 400 0 0 1 159000 -70500" fill="none" stroke-width="80"/><path d="M 156000 -70900 161200 -70900 A 400 400 0 0 1 161200 -70100 L 156000 -70100 A 400 400 0 0 1 156000 -70900" fill="none" stroke-width="200"/><path d="M 163094.7 -126581.2 A 400 400 0 0 1 162294.7 -126581.2 400 400 0 0 1 163094.7 -126581.2 M 163094.7 -134201.2 A 400 400 0 0 1 162294.7 -134201.2 400 400 0 0 1 163094.7 -134201.2 M 169200 -138928.9 A 400 400 0 0 1 168400 -138928.9 400 400 0 0 1 169200 -138928.9 M 169200 -141428.9 A 400 400 0 0 1 168400 -141428.9 400 400 0 0 1 169200 -141428.9 M 170200 -59900 A 400 400 0 0 1 169400 -59900 400 400 0 0 1 170200 -59900 M 170200 -62400 A 400 400 0 0 1 169400 -62400 400 400 0 0 1 170200 -62400 M 173600 -68920 A 400 400 0 0 1 172800 -68920 400 400 0 0 1 173600 -68920 M 173600 -79080 A 400 400 0 0 1 172800 -79080 400 400 0 0 1 173600 -79080 M 175200 -138928.9 A 400 400 0 0 1 174400 -138928.9 400 400 0 0 1 175200 -138928.9 M 175200 -141428.9 A 400 400 0 0 1 174400 -141428.9 400 400 0 0 1 175200 -141428.9 M 177200 -59750 A 400 400 0 0 1 176400 -59750 400 400 0 0 1 177200 -59750 M 177200 -62250 A 400 400 0 0 1 176400 -62250 400 400 0 0 1 177200 -62250" fill="none" stroke-width="80"/><path d="M 126120 -144560 126120 -145440 M 125680 -145000 126560 -145000 M 127750 -55310 127750 -56190 M 127310 -55750 128190 -55750 M 128660 -144560 128660 -145440 M 128220 -145000 129100 -145000 M 130290 -55310 130290 -56190 M 129850 -55750 130730 -55750 M 131200 -144560 131200 -145440 M 130760 -145000 131640 -145000 M 132830 -55310 132830 -56190 M 132390 -55750 133270 -55750 M 143485.1 -144560 143485.1 -145440 M 143045.1 -145000 143925.1 -145000 M 146025.1 -144560 146025.1 -145440 M 145585.1 -145000 146465.1 -145000 M 148565.1 -144560 148565.1 -145440 M 148125.1 -145000 149005.1 -145000 M 169910 -55255 169910 -56135 M 169470 -55695 170350 -55695 M 170710 -144560 170710 -145440 M 170270 -145000 171150 -145000 M 172450 -55255 172450 -56135 M 172010 -55695 172890 -55695 M 173250 -144560 173250 -145440 M 172810 -145000 173690 -145000 M 174990 -55255 174990 -56135 M 174550 -55695 175430 -55695 M 175790 -144560 175790 -145440 M 175350 -145000 176230 -145000" fill="none" stroke-width="88"/><path d="M 163083.2 -143318.2 163083.2 -142681.8 162446.8 -142681.8 162446.8 -143318.2 163083.2 -143318.2" fill="none" stroke-width="90"/><path d="M 111800 -61450 112300 -60950 111800 -60450 111300 -60950 111800 -61450 M 113500 -57750 114000 -57250 113500 -56750 113000 -57250 113500 -57750 M 115200 -61450 115700 -60950 115200 -60450 114700 -60950 115200 -61450 M 116900 -57750 117400 -57250 116900 -56750 116400 -57250 116900 -57750 M 118600 -61450 119100 -60950 118600 -60450 118100 -60950 118600 -61450 M 141073.4 -62855.4 141573.4 -62355.4 141073.4 -61855.4 140573.4 -62355.4 141073.4 -62855.4" fill="none" stroke-width="100"/><path d="M 141573.4 -63455.4 141573.4 -61255.4 A 500 500 0 0 1 140573.4 -61255.4 L 140573.4 -63455.4 A 500 500 0 0 1 141573.4 -63455.4" fill="none" stroke-width="200"/><path d="M 145873.4 -59455.4 146373.4 -58955.4 145873.4 -58455.4 145373.4 -58955.4 145873.4 -59455.4" fill="none" stroke-width="100"/><path d="M 146973.4 -58455.4 144773.4 -58455.4 A 500 500 0 0 1 144773.4 -59455.4 L 146973.4 -59455.4 A 500 500 0 0 1 146973.4 -58455.4" fill="none" stroke-width="200"/><path d="M 145873.4 -65755.4 146373.4 -65255.4 145873.4 -64755.4 145373.4 -65255.4 145873.4 -65755.4" fill="none" stroke-width="100"/><path d="M 147173.4 -64755.4 144573.4 -64755.4 A 500 500 0 0 1 144573.4 -65755.4 L 147173.4 -65755.4 A 500 500 0 0 1 147173.4 -64755.4" fill="none" stroke-width="200"/><path d="M 106170 -56640 107190 -57660 M 107190 -56640 106170 -57660 M 107190 -57150 A 510 510 0 0 1 106170 -57150 510 510 0 0 1 107190 -57150 M 106170 -59180 107190 -60200 M 107190 -59180 106170 -60200 M 107190 -59690 A 510 510 0 0 1 106170 -59690 510 510 0 0 1 107190 -59690 M 106170 -61720 107190 -62740 M 107190 -61720 106170 -62740 M 107190 -62230 A 510 510 0 0 1 106170 -62230 510 510 0 0 1 107190 -62230 M 106170 -64260 107190 -65280 M 107190 -64260 106170 -65280 M 107190 -64770 A 510 510 0 0 1 106170 -64770 510 510 0 0 1 107190 -64770 M 106170 -66800 107190 -67820 M 107190 -66800 106170 -67820 M 107190 -67310 A 510 510 0 0 1 106170 -67310 510 510 0 0 1 107190 -67310 M 106170 -69340 107190 -70360 M 107190 -69340 106170 -70360 M 107190 -69850 A 510 510 0 0 1 106170 -69850 510 510 0 0 1 107190 -69850 M 106170 -71880 107190 -72900 M 107190 -71880 106170 -72900 M 107190 -72390 A 510 510 0 0 1 106170 -72390 510 510 0 0 1 107190 -72390 M 106170 -74420 107190 -75440 M 107190 -74420 106170 -75440 M 107190 -74930 A 510 510 0 0 1 106170 -74930 510 510 0 0 1 107190 -74930 M 106170 -80770 107190 -81790 M 107190 -80770 106170 -81790 M 107190 -81280 A 510 510 0 0 1 106170 -81280 510 510 0 0 1 107190 -81280 M 106170 -83310 107190 -84330 M 107190 -83310 106170 -84330 M 107190 -83820 A 510 510 0 0 1 106170 -83820 510 510 0 0 1 107190 -83820 M 106170 -85850 107190 -86870 M 107190 -85850 106170 -86870 M 107190 -86360 A 510 510 0 0 1 106170 -86360 510 510 0 0 1 107190 -86360 M 106170 -88390 107190 -89410 M 107190 -88390 106170 -89410 M 107190 -88900 A 510 510 0 0 1 106170 -88900 510 510 0 0 1 107190 -88900 M 106170 -90930 107190 -91950 M 107190 -90930 106170 -91950 M 107190 -91440 A 510 510 0 0 1 106170 -91440 510 510 0 0 1 107190 -91440 M 106170 -93470 107190 -94490 M 107190 -93470 106170 -94490 M 107190 -93980 A 510 510 0 0 1 106170 -93980 510 510 0 0 1 107190 -93980 M 106170 -96010 107190 -97030 M 107190 -96010 106170 -97030 M 107190 -96520 A 510 510 0 0 1 106170 -96520 510 510 0 0 1 107190 -96520 M 106170 -98550 107190 -99570 M 107190 -98550 106170 -99570 M 107190 -99060 A 510 510 0 0 1 106170 -99060 510 510 0 0 1 107190 -99060 M 106170 -101090 107190 -102110 M 107190 -101090 106170 -102110 M 107190 -101600 A 510 510 0 0 1 106170 -101600 510 510 0 0 1 107190 -101600 M 106170 -103630 107190 -104650 M 107190 -103630 106170 -104650 M 107190 -104140 A 510 510 0 0 1 106170 -104140 510 510 0 0 1 107190 -104140 M 106170 -106170 107190 -107190 M 107190 -106170 106170 -107190 M 107190 -106680 A 510 510 0 0 1 106170 -106680 510 510 0 0 1 107190 -106680 M 106170 -108710 107190 -109730 M 107190 -108710 106170 -109730 M 107190 -109220 A 510 510 0 0 1 106170 -109220 510 510 0 0 1 107190 -109220 M 106170 -111250 107190 -112270 M 107190 -111250 106170 -112270 M 107190 -111760 A 510 510 0 0 1 106170 -111760 510 510 0 0 1 107190 -111760 M 106170 -113790 107190 -114810 M 107190 -113790 106170 -114810 M 107190 -114300 A 510 510 0 0 1 106170 -114300 510 510 0 0 1 107190 -114300 M 106170 -116330 107190 -117350 M 107190 -116330 106170 -117350 M 107190 -116840 A 510 510 0 0 1 106170 -116840 510 510 0 0 1 107190 -116840 M 106170 -118870 107190 -119890 M 107190 -118870 106170 -119890 M 107190 -119380 A 510 510 0 0 1 106170 -119380 510 510 0 0 1 107190 -119380 M 106170 -121410 107190 -122430 M 107190 -121410 106170 -122430 M 107190 -121920 A 510 510 0 0 1 106170 -121920 510 510 0 0 1 107190 -121920 M 106170 -123950 107190 -124970 M 107190 -123950 106170 -124970 M 107190 -124460 A 510 510 0 0 1 106170 -124460 510 510 0 0 1 107190 -124460 M 106170 -126490 107190 -127510 M 107190 -126490 106170 -127510 M 107190 -127000 A 510 510 0 0 1 106170 -127000 510 510 0 0 1 107190 -127000 M 106170 -129030 107190 -130050 M 107190 -129030 106170 -130050 M 107190 -129540 A 510 510 0 0 1 106170 -129540 510 510 0 0 1 107190 -129540 M 106170 -131570 107190 -132590 M 107190 -131570 106170 -132590 M 107190 -132080 A 510 510 0 0 1 106170 -132080 510 510 0 0 1 107190 -132080 M 106170 -134110 107190 -135130 M 107190 -134110 106170 -135130 M 107190 -134620 A 510 510 0 0 1 106170 -134620 510 510 0 0 1 107190 -134620 M 106170 -136650 107190 -137670 M 107190 -136650 106170 -137670 M 107190 -137160 A 510 510 0 0 1 106170 -137160 510 510 0 0 1 107190 -137160 M 106170 -139190 107190 -140210 M 107190 -139190 106170 -140210 M 107190 -139700 A 510 510 0 0 1 106170 -139700 510 510 0 0 1 107190 -139700 M 106170 -141730 107190 -142750 M 107190 -141730 106170 -142750 M 107190 -142240 A 510 510 0 0 1 106170 -142240 510 510 0 0 1 107190 -142240 M 106170 -144270 107190 -145290 M 107190 -144270 106170 -145290 M 107190 -144780 A 510 510 0 0 1 106170 -144780 510 510 0 0 1 107190 -144780 M 106170 -146810 107190 -147830 M 107190 -146810 106170 -147830 M 107190 -147320 A 510 510 0 0 1 106170 -147320 510 510 0 0 1 107190 -147320 M 184910 -56640 185930 -57660 M 185930 -56640 184910 -57660 M 185930 -57150 A 510 510 0 0 1 184910 -57150 510 510 0 0 1 185930 -57150 M 184910 -59180 185930 -60200 M 185930 -59180 184910 -60200 M 185930 -59690 A 510 510 0 0 1 184910 -59690 510 510 0 0 1 185930 -59690 M 184910 -61720 185930 -62740 M 185930 -61720 184910 -62740 M 185930 -62230 A 510 510 0 0 1 184910 -62230 510 510 0 0 1 185930 -62230 M 184910 -64260 185930 -65280 M 185930 -64260 184910 -65280 M 185930 -64770 A 510 510 0 0 1 184910 -64770 510 510 0 0 1 185930 -64770 M 184910 -66800 185930 -67820 M 185930 -66800 184910 -67820 M 185930 -67310 A 510 510 0 0 1 184910 -67310 510 510 0 0 1 185930 -67310 M 184910 -69340 185930 -70360 M 185930 -69340 184910 -70360 M 185930 -69850 A 510 510 0 0 1 184910 -69850 510 510 0 0 1 185930 -69850 M 184910 -71880 185930 -72900 M 185930 -71880 184910 -72900 M 185930 -72390 A 510 510 0 0 1 184910 -72390 510 510 0 0 1 185930 -72390 M 184910 -74420 185930 -75440 M 185930 -74420 184910 -75440 M 185930 -74930 A 510 510 0 0 1 184910 -74930 510 510 0 0 1 185930 -74930 M 184910 -76960 185930 -77980 M 185930 -76960 184910 -77980 M 185930 -77470 A 510 510 0 0 1 184910 -77470 510 510 0 0 1 185930 -77470 M 184910 -79500 185930 -80520 M 185930 -79500 184910 -80520 M 185930 -80010 A 510 510 0 0 1 184910 -80010 510 510 0 0 1 185930 -80010 M 184910 -82040 185930 -83060 M 185930 -82040 184910 -83060 M 185930 -82550 A 510 510 0 0 1 184910 -82550 510 510 0 0 1 185930 -82550 M 184910 -84580 185930 -85600 M 185930 -84580 184910 -85600 M 185930 -85090 A 510 510 0 0 1 184910 -85090 510 510 0 0 1 185930 -85090 M 184910 -87120 185930 -88140 M 185930 -87120 184910 -88140 M 185930 -87630 A 510 510 0 0 1 184910 -87630 510 510 0 0 1 185930 -87630 M 184910 -89660 185930 -90680 M 185930 -89660 184910 -90680 M 185930 -90170 A 510 510 0 0 1 184910 -90170 510 510 0 0 1 185930 -90170 M 184910 -92200 185930 -93220 M 185930 -92200 184910 -93220 M 185930 -92710 A 510 510 0 0 1 184910 -92710 510 510 0 0 1 185930 -92710 M 184910 -94740 185930 -95760 M 185930 -94740 184910 -95760 M 185930 -95250 A 510 510 0 0 1 184910 -95250 510 510 0 0 1 185930 -95250 M 184910 -97280 185930 -98300 M 185930 -97280 184910 -98300 M 185930 -97790 A 510 510 0 0 1 184910 -97790 510 510 0 0 1 185930 -97790 M 184910 -99820 185930 -100840 M 185930 -99820 184910 -100840 M 185930 -100330 A 510 510 0 0 1 184910 -100330 510 510 0 0 1 185930 -100330 M 184910 -102360 185930 -103380 M 185930 -102360 184910 -103380 M 185930 -102870 A 510 510 0 0 1 184910 -102870 510 510 0 0 1 185930 -102870 M 184910 -104900 185930 -105920 M 185930 -104900 184910 -105920 M 185930 -105410 A 510 510 0 0 1 184910 -105410 510 510 0 0 1 185930 -105410 M 184910 -107440 185930 -108460 M 185930 -107440 184910 -108460 M 185930 -107950 A 510 510 0 0 1 184910 -107950 510 510 0 0 1 185930 -107950 M 184910 -109980 185930 -111000 M 185930 -109980 184910 -111000 M 185930 -110490 A 510 510 0 0 1 184910 -110490 510 510 0 0 1 185930 -110490 M 184910 -112520 185930 -113540 M 185930 -112520 184910 -113540 M 185930 -113030 A 510 510 0 0 1 184910 -113030 510 510 0 0 1 185930 -113030 M 184910 -115060 185930 -116080 M 185930 -115060 184910 -116080 M 185930 -115570 A 510 510 0 0 1 184910 -115570 510 510 0 0 1 185930 -115570 M 184910 -117600 185930 -118620 M 185930 -117600 184910 -118620 M 185930 -118110 A 510 510 0 0 1 184910 -118110 510 510 0 0 1 185930 -118110 M 184910 -120140 185930 -121160 M 185930 -120140 184910 -121160 M 185930 -120650 A 510 510 0 0 1 184910 -120650 510 510 0 0 1 185930 -120650 M 184910 -122680 185930 -123700 M 185930 -122680 184910 -123700 M 185930 -123190 A 510 510 0 0 1 184910 -123190 510 510 0 0 1 185930 -123190 M 184910 -125220 185930 -126240 M 185930 -125220 184910 -126240 M 185930 -125730 A 510 510 0 0 1 184910 -125730 510 510 0 0 1 185930 -125730 M 184910 -127760 185930 -128780 M 185930 -127760 184910 -128780 M 185930 -128270 A 510 510 0 0 1 184910 -128270 510 510 0 0 1 185930 -128270 M 184910 -130300 185930 -131320 M 185930 -130300 184910 -131320 M 185930 -130810 A 510 510 0 0 1 184910 -130810 510 510 0 0 1 185930 -130810 M 184910 -132840 185930 -133860 M 185930 -132840 184910 -133860 M 185930 -133350 A 510 510 0 0 1 184910 -133350 510 510 0 0 1 185930 -133350 M 184910 -135380 185930 -136400 M 185930 -135380 184910 -136400 M 185930 -135890 A 510 510 0 0 1 184910 -135890 510 510 0 0 1 185930 -135890 M 184910 -137920 185930 -138940 M 185930 -137920 184910 -138940 M 185930 -138430 A 510 510 0 0 1 184910 -138430 510 510 0 0 1 185930 -138430 M 184910 -140460 185930 -141480 M 185930 -140460 184910 -141480 M 185930 -140970 A 510 510 0 0 1 184910 -140970 510 510 0 0 1 185930 -140970 M 184910 -143000 185930 -144020 M 185930 -143000 184910 -144020 M 185930 -143510 A 510 510 0 0 1 184910 -143510 510 510 0 0 1 185930 -143510" fill="none" stroke-width="102"/><path d="M 152950 -142450 154050 -143550 M 154050 -142450 152950 -143550 M 153500 -142450 153500 -143550 M 152950 -143000 154050 -143000 M 155490 -142450 156590 -143550 M 156590 -142450 155490 -143550 M 156040 -142450 156040 -143550 M 155490 -143000 156590 -143000 M 159675 -142450 160775 -143550 M 160775 -142450 159675 -143550 M 160225 -142450 160225 -143550 M 159675 -143000 160775 -143000" fill="none" stroke-width="110"/><path d="M 103957.77 -154164.84 103957.77 -152164.84 104433.96 -152164.84 104719.67 -152260.08 104910.15 -152450.55 105005.39 -152641.03 105100.63 -153021.98 105100.63 -153307.69 105005.39 -153688.65 104910.15 -153879.12 104719.67 -154069.6 104433.96 -154164.84 103957.77 -154164.84 M 105957.77 -154164.84 105957.77 -152831.5 M 105957.77 -153212.46 106053.01 -153021.98 106148.24 -152926.74 106338.72 -152831.5 106529.2 -152831.5 M 107195.86 -154164.84 107195.86 -152831.5 M 107195.86 -152164.84 107100.63 -152260.08 107195.86 -152355.31 107291.1 -152260.08 107195.86 -152164.84 107195.86 -152355.31 M 108433.96 -154164.84 108243.48 -154069.6 108148.24 -153879.12 108148.24 -152164.84 M 109481.58 -154164.84 109291.1 -154069.6 109195.86 -153879.12 109195.86 -152164.84 M 111767.29 -154164.84 111767.29 -152164.84 112433.96 -153593.41 113100.62 -152164.84 113100.62 -154164.84 M 114910.15 -154164.84 114910.15 -153117.22 114814.91 -152926.74 114624.43 -152831.5 114243.48 -152831.5 114053.01 -152926.74 M 114910.15 -154069.6 114719.67 -154164.84 114243.48 -154164.84 114053.01 -154069.6 113957.77 -153879.12 113957.77 -153688.65 114053.01 -153498.17 114243.48 -153402.93 114719.67 -153402.93 114910.15 -153307.69 M 115862.53 -152831.5 115862.53 -154831.5 M 115862.53 -152926.74 116053.01 -152831.5 116433.96 -152831.5 116624.43 -152926.74 116719.67 -153021.98 116814.91 -153212.46 116814.91 -153783.88 116719.67 -153974.36 116624.43 -154069.6 116433.96 -154164.84 116053.01 -154164.84 115862.53 -154069.6 M 117672.05 -153974.36 117767.29 -154069.6 117672.05 -154164.84 117576.82 -154069.6 117672.05 -153974.36 117672.05 -154164.84 M 117672.05 -152926.74 117767.29 -153021.98 117672.05 -153117.22 117576.82 -153021.98 117672.05 -152926.74 117672.05 -153117.22" fill="none" stroke-width="200"/><path d="M 100550 -157050 101350 -157850 M 101350 -157050 100550 -157850" fill="none" stroke-width="80"/><path d="M 104338.72 -156364.84 104529.2 -156364.84 104719.67 -156460.08 104814.91 -156555.31 104910.15 -156745.79 105005.39 -157126.74 105005.39 -157602.93 104910.15 -157983.88 104814.91 -158174.36 104719.67 -158269.6 104529.2 -158364.84 104338.72 -158364.84 104148.24 -158269.6 104053.01 -158174.36 103957.77 -157983.88 103862.53 -157602.93 103862.53 -157126.74 103957.77 -156745.79 104053.01 -156555.31 104148.24 -156460.08 104338.72 -156364.84 M 105862.53 -158174.36 105957.77 -158269.6 105862.53 -158364.84 105767.29 -158269.6 105862.53 -158174.36 105862.53 -158364.84 M 107100.63 -157221.98 106910.15 -157126.74 106814.91 -157031.5 106719.67 -156841.03 106719.67 -156745.79 106814.91 -156555.31 106910.15 -156460.08 107100.63 -156364.84 107481.58 -156364.84 107672.05 -156460.08 107767.29 -156555.31 107862.53 -156745.79 107862.53 -156841.03 107767.29 -157031.5 107672.05 -157126.74 107481.58 -157221.98 107100.63 -157221.98 106910.15 -157317.22 106814.91 -157412.46 106719.67 -157602.93 106719.67 -157983.88 106814.91 -158174.36 106910.15 -158269.6 107100.63 -158364.84 107481.58 -158364.84 107672.05 -158269.6 107767.29 -158174.36 107862.53 -157983.88 107862.53 -157602.93 107767.29 -157412.46 107672.05 -157317.22 107481.58 -157221.98 M 109100.63 -156364.84 109291.1 -156364.84 109481.58 -156460.08 109576.82 -156555.31 109672.05 -156745.79 109767.29 -157126.74 109767.29 -157602.93 109672.05 -157983.88 109576.82 -158174.36 109481.58 -158269.6 109291.1 -158364.84 109100.63 -158364.84 108910.15 -158269.6 108814.91 -158174.36 108719.67 -157983.88 108624.44 -157602.93 108624.44 -157126.74 108719.67 -156745.79 108814.91 -156555.31 108910.15 -156460.08 109100.63 -156364.84 M 111005.39 -156364.84 111195.86 -156364.84 111386.34 -156460.08 111481.58 -156555.31 111576.82 -156745.79 111672.05 -157126.74 111672.05 -157602.93 111576.82 -157983.88 111481.58 -158174.36 111386.34 -158269.6 111195.86 -158364.84 111005.39 -158364.84 110814.91 -158269.6 110719.67 -158174.36 110624.44 -157983.88 110529.2 -157602.93 110529.2 -157126.74 110624.44 -156745.79 110719.67 -156555.31 110814.91 -156460.08 111005.39 -156364.84 M 112529.2 -158364.84 112529.2 -157031.5 M 112529.2 -157221.98 112624.43 -157126.74 112814.91 -157031.5 113100.63 -157031.5 113291.1 -157126.74 113386.34 -157317.22 113386.34 -158364.84 M 113386.34 -157317.22 113481.58 -157126.74 113672.05 -157031.5 113957.77 -157031.5 114148.24 -157126.74 114243.48 -157317.22 114243.48 -158364.84 M 115195.86 -158364.84 115195.86 -157031.5 M 115195.86 -157221.98 115291.1 -157126.74 115481.58 -157031.5 115767.29 -157031.5 115957.77 -157126.74 116053.01 -157317.22 116053.01 -158364.84 M 116053.01 -157317.22 116148.24 -157126.74 116338.72 -157031.5 116624.43 -157031.5 116814.91 -157126.74 116910.15 -157317.22 116910.15 -158364.84 M 120814.91 -156269.6 119100.63 -158841.03 M 123386.34 -156364.84 123576.82 -156364.84 123767.29 -156460.08 123862.53 -156555.31 123957.77 -156745.79 124053.01 -157126.74 124053.01 -157602.93 123957.77 -157983.88 123862.53 -158174.36 123767.29 -158269.6 123576.82 -158364.84 123386.34 -158364.84 123195.86 -158269.6 123100.63 -158174.36 123005.39 -157983.88 122910.15 -157602.93 122910.15 -157126.74 123005.39 -156745.79 123100.63 -156555.31 123195.86 -156460.08 123386.34 -156364.84 M 124910.15 -158174.36 125005.39 -158269.6 124910.15 -158364.84 124814.91 -158269.6 124910.15 -158174.36 124910.15 -158364.84 M 126243.48 -156364.84 126433.96 -156364.84 126624.44 -156460.08 126719.67 -156555.31 126814.91 -156745.79 126910.15 -157126.74 126910.15 -157602.93 126814.91 -157983.88 126719.67 -158174.36 126624.44 -158269.6 126433.96 -158364.84 126243.48 -158364.84 126053.01 -158269.6 125957.77 -158174.36 125862.53 -157983.88 125767.29 -157602.93 125767.29 -157126.74 125862.53 -156745.79 125957.77 -156555.31 126053.01 -156460.08 126243.48 -156364.84 M 127576.82 -156364.84 128814.91 -156364.84 128148.25 -157126.74 128433.96 -157126.74 128624.44 -157221.98 128719.67 -157317.22 128814.91 -157507.69 128814.91 -157983.88 128719.67 -158174.36 128624.44 -158269.6 128433.96 -158364.84 127862.53 -158364.84 127672.06 -158269.6 127576.82 -158174.36 M 130719.67 -158364.84 129576.82 -158364.84 M 130148.25 -158364.84 130148.25 -156364.84 129957.77 -156650.55 129767.29 -156841.03 129576.82 -156936.27 M 132529.2 -156364.84 131576.82 -156364.84 131481.58 -157317.22 131576.82 -157221.98 131767.29 -157126.74 132243.48 -157126.74 132433.96 -157221.98 132529.2 -157317.22 132624.44 -157507.69 132624.44 -157983.88 132529.2 -158174.36 132433.96 -158269.6 132243.48 -158364.84 131767.29 -158364.84 131576.82 -158269.6 131481.58 -158174.36 M 133386.34 -156364.84 133386.34 -156745.79 M 134148.25 -156364.84 134148.25 -156745.79 M 137100.63 -159126.74 137005.39 -159031.5 136814.91 -158745.79 136719.68 -158555.31 136624.44 -158269.6 136529.2 -157793.41 136529.2 -157412.46 136624.44 -156936.27 136719.68 -156650.55 136814.91 -156460.08 137005.39 -156174.36 137100.63 -156079.12 M 137767.29 -156555.31 137862.53 -156460.08 138053.01 -156364.84 138529.2 -156364.84 138719.68 -156460.08 138814.91 -156555.31 138910.15 -156745.79 138910.15 -156936.27 138814.91 -157221.98 137672.06 -158364.84 138910.15 -158364.84 M 141291.1 -158364.84 141291.1 -156364.84 M 142148.25 -158364.84 142148.25 -157317.22 142053.01 -157126.74 141862.53 -157031.5 141576.82 -157031.5 141386.34 -157126.74 141291.1 -157221.98 M 143386.34 -158364.84 143195.87 -158269.6 143100.63 -158174.36 143005.39 -157983.88 143005.39 -157412.46 143100.63 -157221.98 143195.87 -157126.74 143386.34 -157031.5 143672.06 -157031.5 143862.53 -157126.74 143957.77 -157221.98 144053.01 -157412.46 144053.01 -157983.88 143957.77 -158174.36 143862.53 -158269.6 143672.06 -158364.84 143386.34 -158364.84 M 145195.87 -158364.84 145005.39 -158269.6 144910.15 -158079.12 144910.15 -156364.84 M 146719.68 -158269.6 146529.2 -158364.84 146148.25 -158364.84 145957.77 -158269.6 145862.53 -158079.12 145862.53 -157317.22 145957.77 -157126.74 146148.25 -157031.5 146529.2 -157031.5 146719.68 -157126.74 146814.91 -157317.22 146814.91 -157507.69 145862.53 -157698.17 M 147576.82 -158269.6 147767.3 -158364.84 148148.25 -158364.84 148338.72 -158269.6 148433.96 -158079.12 148433.96 -157983.88 148338.72 -157793.41 148148.25 -157698.17 147862.53 -157698.17 147672.06 -157602.93 147576.82 -157412.46 147576.82 -157317.22 147672.06 -157126.74 147862.53 -157031.5 148148.25 -157031.5 148338.72 -157126.74 M 149100.63 -159126.74 149195.87 -159031.5 149386.34 -158745.79 149481.58 -158555.31 149576.82 -158269.6 149672.06 -157793.41 149672.06 -157412.46 149576.82 -156936.27 149481.58 -156650.55 149386.34 -156460.08 149195.87 -156174.36 149100.63 -156079.12" fill="none" stroke-width="200"/><path d="M 101350 -160090 A 400 400 0 0 1 100550 -160090 400 400 0 0 1 101350 -160090" fill="none" stroke-width="80"/><path d="M 104338.72 -159004.84 104529.2 -159004.84 104719.67 -159100.08 104814.91 -159195.31 104910.15 -159385.79 105005.39 -159766.74 105005.39 -160242.93 104910.15 -160623.88 104814.91 -160814.36 104719.67 -160909.6 104529.2 -161004.84 104338.72 -161004.84 104148.24 -160909.6 104053.01 -160814.36 103957.77 -160623.88 103862.53 -160242.93 103862.53 -159766.74 103957.77 -159385.79 104053.01 -159195.31 104148.24 -159100.08 104338.72 -159004.84 M 105862.53 -160814.36 105957.77 -160909.6 105862.53 -161004.84 105767.29 -160909.6 105862.53 -160814.36 105862.53 -161004.84 M 107100.63 -159861.98 106910.15 -159766.74 106814.91 -159671.5 106719.67 -159481.03 106719.67 -159385.79 106814.91 -159195.31 106910.15 -159100.08 107100.63 -159004.84 107481.58 -159004.84 107672.05 -159100.08 107767.29 -159195.31 107862.53 -159385.79 107862.53 -159481.03 107767.29 -159671.5 107672.05 -159766.74 107481.58 -159861.98 107100.63 -159861.98 106910.15 -159957.22 106814.91 -160052.46 106719.67 -160242.93 106719.67 -160623.88 106814.91 -160814.36 106910.15 -160909.6 107100.63 -161004.84 107481.58 -161004.84 107672.05 -160909.6 107767.29 -160814.36 107862.53 -160623.88 107862.53 -160242.93 107767.29 -160052.46 107672.05 -159957.22 107481.58 -159861.98 M 109100.63 -159004.84 109291.1 -159004.84 109481.58 -159100.08 109576.82 -159195.31 109672.05 -159385.79 109767.29 -159766.74 109767.29 -160242.93 109672.05 -160623.88 109576.82 -160814.36 109481.58 -160909.6 109291.1 -161004.84 109100.63 -161004.84 108910.15 -160909.6 108814.91 -160814.36 108719.67 -160623.88 108624.44 -160242.93 108624.44 -159766.74 108719.67 -159385.79 108814.91 -159195.31 108910.15 -159100.08 109100.63 -159004.84 M 111005.39 -159004.84 111195.86 -159004.84 111386.34 -159100.08 111481.58 -159195.31 111576.82 -159385.79 111672.05 -159766.74 111672.05 -160242.93 111576.82 -160623.88 111481.58 -160814.36 111386.34 -160909.6 111195.86 -161004.84 111005.39 -161004.84 110814.91 -160909.6 110719.67 -160814.36 110624.44 -160623.88 110529.2 -160242.93 110529.2 -159766.74 110624.44 -159385.79 110719.67 -159195.31 110814.91 -159100.08 111005.39 -159004.84 M 112529.2 -161004.84 112529.2 -159671.5 M 112529.2 -159861.98 112624.43 -159766.74 112814.91 -159671.5 113100.63 -159671.5 113291.1 -159766.74 113386.34 -159957.22 113386.34 -161004.84 M 113386.34 -159957.22 113481.58 -159766.74 113672.05 -159671.5 113957.77 -159671.5 114148.24 -159766.74 114243.48 -159957.22 114243.48 -161004.84 M 115195.86 -161004.84 115195.86 -159671.5 M 115195.86 -159861.98 115291.1 -159766.74 115481.58 -159671.5 115767.29 -159671.5 115957.77 -159766.74 116053.01 -159957.22 116053.01 -161004.84 M 116053.01 -159957.22 116148.24 -159766.74 116338.72 -159671.5 116624.43 -159671.5 116814.91 -159766.74 116910.15 -159957.22 116910.15 -161004.84 M 120814.91 -158909.6 119100.63 -161481.03 M 123386.34 -159004.84 123576.82 -159004.84 123767.29 -159100.08 123862.53 -159195.31 123957.77 -159385.79 124053.01 -159766.74 124053.01 -160242.93 123957.77 -160623.88 123862.53 -160814.36 123767.29 -160909.6 123576.82 -161004.84 123386.34 -161004.84 123195.86 -160909.6 123100.63 -160814.36 123005.39 -160623.88 122910.15 -160242.93 122910.15 -159766.74 123005.39 -159385.79 123100.63 -159195.31 123195.86 -159100.08 123386.34 -159004.84 M 124910.15 -160814.36 125005.39 -160909.6 124910.15 -161004.84 124814.91 -160909.6 124910.15 -160814.36 124910.15 -161004.84 M 126243.48 -159004.84 126433.96 -159004.84 126624.44 -159100.08 126719.67 -159195.31 126814.91 -159385.79 126910.15 -159766.74 126910.15 -160242.93 126814.91 -160623.88 126719.67 -160814.36 126624.44 -160909.6 126433.96 -161004.84 126243.48 -161004.84 126053.01 -160909.6 125957.77 -160814.36 125862.53 -160623.88 125767.29 -160242.93 125767.29 -159766.74 125862.53 -159385.79 125957.77 -159195.31 126053.01 -159100.08 126243.48 -159004.84 M 127576.82 -159004.84 128814.91 -159004.84 128148.25 -159766.74 128433.96 -159766.74 128624.44 -159861.98 128719.67 -159957.22 128814.91 -160147.69 128814.91 -160623.88 128719.67 -160814.36 128624.44 -160909.6 128433.96 -161004.84 127862.53 -161004.84 127672.06 -160909.6 127576.82 -160814.36 M 130719.67 -161004.84 129576.82 -161004.84 M 130148.25 -161004.84 130148.25 -159004.84 129957.77 -159290.55 129767.29 -159481.03 129576.82 -159576.27 M 132529.2 -159004.84 131576.82 -159004.84 131481.58 -159957.22 131576.82 -159861.98 131767.29 -159766.74 132243.48 -159766.74 132433.96 -159861.98 132529.2 -159957.22 132624.44 -160147.69 132624.44 -160623.88 132529.2 -160814.36 132433.96 -160909.6 132243.48 -161004.84 131767.29 -161004.84 131576.82 -160909.6 131481.58 -160814.36 M 133386.34 -159004.84 133386.34 -159385.79 M 134148.25 -159004.84 134148.25 -159385.79 M 137100.63 -161766.74 137005.39 -161671.5 136814.91 -161385.79 136719.68 -161195.31 136624.44 -160909.6 136529.2 -160433.41 136529.2 -160052.46 136624.44 -159576.27 136719.68 -159290.55 136814.91 -159100.08 137005.39 -158814.36 137100.63 -158719.12 M 138719.68 -159671.5 138719.68 -161004.84 M 138243.48 -158909.6 137767.29 -160338.17 139005.39 -160338.17 M 140624.44 -159671.5 140624.44 -161004.84 M 140148.25 -158909.6 139672.06 -160338.17 140910.15 -160338.17 M 143195.87 -161004.84 143195.87 -159004.84 M 144053.01 -161004.84 144053.01 -159957.22 143957.77 -159766.74 143767.3 -159671.5 143481.58 -159671.5 143291.1 -159766.74 143195.87 -159861.98 M 145291.1 -161004.84 145100.63 -160909.6 145005.39 -160814.36 144910.15 -160623.88 144910.15 -160052.46 145005.39 -159861.98 145100.63 -159766.74 145291.1 -159671.5 145576.82 -159671.5 145767.3 -159766.74 145862.53 -159861.98 145957.77 -160052.46 145957.77 -160623.88 145862.53 -160814.36 145767.3 -160909.6 145576.82 -161004.84 145291.1 -161004.84 M 147100.63 -161004.84 146910.15 -160909.6 146814.91 -160719.12 146814.91 -159004.84 M 148624.44 -160909.6 148433.96 -161004.84 148053.01 -161004.84 147862.53 -160909.6 147767.3 -160719.12 147767.3 -159957.22 147862.53 -159766.74 148053.01 -159671.5 148433.96 -159671.5 148624.44 -159766.74 148719.68 -159957.22 148719.68 -160147.69 147767.3 -160338.17 M 149481.58 -160909.6 149672.06 -161004.84 150053.01 -161004.84 150243.49 -160909.6 150338.72 -160719.12 150338.72 -160623.88 150243.49 -160433.41 150053.01 -160338.17 149767.3 -160338.17 149576.82 -160242.93 149481.58 -160052.46 149481.58 -159957.22 149576.82 -159766.74 149767.3 -159671.5 150053.01 -159671.5 150243.49 -159766.74 M 152719.68 -160242.93 154243.49 -160242.93 M 153481.58 -161004.84 153481.58 -159481.03 M 156624.44 -159195.31 156719.68 -159100.08 156910.15 -159004.84 157386.34 -159004.84 157576.82 -159100.08 157672.06 -159195.31 157767.3 -159385.79 157767.3 -159576.27 157672.06 -159861.98 156529.2 -161004.84 157767.3 -161004.84 M 160053.01 -160909.6 160243.49 -161004.84 160624.44 -161004.84 160814.92 -160909.6 160910.15 -160719.12 160910.15 -160623.88 160814.92 -160433.41 160624.44 -160338.17 160338.73 -160338.17 160148.25 -160242.93 160053.01 -160052.46 160053.01 -159957.22 160148.25 -159766.74 160338.73 -159671.5 160624.44 -159671.5 160814.92 -159766.74 M 162053.01 -161004.84 161862.54 -160909.6 161767.3 -160719.12 161767.3 -159004.84 M 163100.63 -161004.84 162910.15 -160909.6 162814.92 -160814.36 162719.68 -160623.88 162719.68 -160052.46 162814.92 -159861.98 162910.15 -159766.74 163100.63 -159671.5 163386.35 -159671.5 163576.82 -159766.74 163672.06 -159861.98 163767.3 -160052.46 163767.3 -160623.88 163672.06 -160814.36 163576.82 -160909.6 163386.35 -161004.84 163100.63 -161004.84 M 164338.73 -159671.5 165100.63 -159671.5 M 164624.44 -159004.84 164624.44 -160719.12 164719.68 -160909.6 164910.15 -161004.84 165100.63 -161004.84 M 165672.06 -160909.6 165862.54 -161004.84 166243.49 -161004.84 166433.96 -160909.6 166529.2 -160719.12 166529.2 -160623.88 166433.96 -160433.41 166243.49 -160338.17 165957.77 -160338.17 165767.3 -160242.93 165672.06 -160052.46 165672.06 -159957.22 165767.3 -159766.74 165957.77 -159671.5 166243.49 -159671.5 166433.96 -159766.74 M 167195.87 -161766.74 167291.11 -161671.5 167481.58 -161385.79 167576.82 -161195.31 167672.06 -160909.6 167767.3 -160433.41 167767.3 -160052.46 167672.06 -159576.27 167576.82 -159290.55 167481.58 -159100.08 167291.11 -158814.36 167195.87 -158719.12" fill="none" stroke-width="200"/><path d="M 100910 -162290 100910 -163170 M 100470 -162730 101350 -162730" fill="none" stroke-width="88"/><path d="M 104338.72 -161644.84 104529.2 -161644.84 104719.67 -161740.08 104814.91 -161835.31 104910.15 -162025.79 105005.39 -162406.74 105005.39 -162882.93 104910.15 -163263.88 104814.91 -163454.36 104719.67 -163549.6 104529.2 -163644.84 104338.72 -163644.84 104148.24 -163549.6 104053.01 -163454.36 103957.77 -163263.88 103862.53 -162882.93 103862.53 -162406.74 103957.77 -162025.79 104053.01 -161835.31 104148.24 -161740.08 104338.72 -161644.84 M 105862.53 -163454.36 105957.77 -163549.6 105862.53 -163644.84 105767.29 -163549.6 105862.53 -163454.36 105862.53 -163644.84 M 107100.63 -162501.98 106910.15 -162406.74 106814.91 -162311.5 106719.67 -162121.03 106719.67 -162025.79 106814.91 -161835.31 106910.15 -161740.08 107100.63 -161644.84 107481.58 -161644.84 107672.05 -161740.08 107767.29 -161835.31 107862.53 -162025.79 107862.53 -162121.03 107767.29 -162311.5 107672.05 -162406.74 107481.58 -162501.98 107100.63 -162501.98 106910.15 -162597.22 106814.91 -162692.46 106719.67 -162882.93 106719.67 -163263.88 106814.91 -163454.36 106910.15 -163549.6 107100.63 -163644.84 107481.58 -163644.84 107672.05 -163549.6 107767.29 -163454.36 107862.53 -163263.88 107862.53 -162882.93 107767.29 -162692.46 107672.05 -162597.22 107481.58 -162501.98 M 109005.39 -162501.98 108814.91 -162406.74 108719.67 -162311.5 108624.44 -162121.03 108624.44 -162025.79 108719.67 -161835.31 108814.91 -161740.08 109005.39 -161644.84 109386.34 -161644.84 109576.82 -161740.08 109672.05 -161835.31 109767.29 -162025.79 109767.29 -162121.03 109672.05 -162311.5 109576.82 -162406.74 109386.34 -162501.98 109005.39 -162501.98 108814.91 -162597.22 108719.67 -162692.46 108624.44 -162882.93 108624.44 -163263.88 108719.67 -163454.36 108814.91 -163549.6 109005.39 -163644.84 109386.34 -163644.84 109576.82 -163549.6 109672.05 -163454.36 109767.29 -163263.88 109767.29 -162882.93 109672.05 -162692.46 109576.82 -162597.22 109386.34 -162501.98 M 111005.39 -161644.84 111195.86 -161644.84 111386.34 -161740.08 111481.58 -161835.31 111576.82 -162025.79 111672.05 -162406.74 111672.05 -162882.93 111576.82 -163263.88 111481.58 -163454.36 111386.34 -163549.6 111195.86 -163644.84 111005.39 -163644.84 110814.91 -163549.6 110719.67 -163454.36 110624.44 -163263.88 110529.2 -162882.93 110529.2 -162406.74 110624.44 -162025.79 110719.67 -161835.31 110814.91 -161740.08 111005.39 -161644.84 M 112529.2 -163644.84 112529.2 -162311.5 M 112529.2 -162501.98 112624.43 -162406.74 112814.91 -162311.5 113100.63 -162311.5 113291.1 -162406.74 113386.34 -162597.22 113386.34 -163644.84 M 113386.34 -162597.22 113481.58 -162406.74 113672.05 -162311.5 113957.77 -162311.5 114148.24 -162406.74 114243.48 -162597.22 114243.48 -163644.84 M 115195.86 -163644.84 115195.86 -162311.5 M 115195.86 -162501.98 115291.1 -162406.74 115481.58 -162311.5 115767.29 -162311.5 115957.77 -162406.74 116053.01 -162597.22 116053.01 -163644.84 M 116053.01 -162597.22 116148.24 -162406.74 116338.72 -162311.5 116624.43 -162311.5 116814.91 -162406.74 116910.15 -162597.22 116910.15 -163644.84 M 120814.91 -161549.6 119100.63 -164121.03 M 123386.34 -161644.84 123576.82 -161644.84 123767.29 -161740.08 123862.53 -161835.31 123957.77 -162025.79 124053.01 -162406.74 124053.01 -162882.93 123957.77 -163263.88 123862.53 -163454.36 123767.29 -163549.6 123576.82 -163644.84 123386.34 -163644.84 123195.86 -163549.6 123100.63 -163454.36 123005.39 -163263.88 122910.15 -162882.93 122910.15 -162406.74 123005.39 -162025.79 123100.63 -161835.31 123195.86 -161740.08 123386.34 -161644.84 M 124910.15 -163454.36 125005.39 -163549.6 124910.15 -163644.84 124814.91 -163549.6 124910.15 -163454.36 124910.15 -163644.84 M 126243.48 -161644.84 126433.96 -161644.84 126624.44 -161740.08 126719.67 -161835.31 126814.91 -162025.79 126910.15 -162406.74 126910.15 -162882.93 126814.91 -163263.88 126719.67 -163454.36 126624.44 -163549.6 126433.96 -163644.84 126243.48 -163644.84 126053.01 -163549.6 125957.77 -163454.36 125862.53 -163263.88 125767.29 -162882.93 125767.29 -162406.74 125862.53 -162025.79 125957.77 -161835.31 126053.01 -161740.08 126243.48 -161644.84 M 127576.82 -161644.84 128814.91 -161644.84 128148.25 -162406.74 128433.96 -162406.74 128624.44 -162501.98 128719.67 -162597.22 128814.91 -162787.69 128814.91 -163263.88 128719.67 -163454.36 128624.44 -163549.6 128433.96 -163644.84 127862.53 -163644.84 127672.06 -163549.6 127576.82 -163454.36 M 130529.2 -162311.5 130529.2 -163644.84 M 130053.01 -161549.6 129576.82 -162978.17 130814.91 -162978.17 M 132433.96 -161644.84 132053.01 -161644.84 131862.53 -161740.08 131767.29 -161835.31 131576.82 -162121.03 131481.58 -162501.98 131481.58 -163263.88 131576.82 -163454.36 131672.06 -163549.6 131862.53 -163644.84 132243.48 -163644.84 132433.96 -163549.6 132529.2 -163454.36 132624.44 -163263.88 132624.44 -162787.69 132529.2 -162597.22 132433.96 -162501.98 132243.48 -162406.74 131862.53 -162406.74 131672.06 -162501.98 131576.82 -162597.22 131481.58 -162787.69 M 133386.34 -161644.84 133386.34 -162025.79 M 134148.25 -161644.84 134148.25 -162025.79 M 137100.63 -164406.74 137005.39 -164311.5 136814.91 -164025.79 136719.68 -163835.31 136624.44 -163549.6 136529.2 -163073.41 136529.2 -162692.46 136624.44 -162216.27 136719.68 -161930.55 136814.91 -161740.08 137005.39 -161454.36 137100.63 -161359.12 M 138910.15 -163644.84 137767.29 -163644.84 M 138338.72 -163644.84 138338.72 -161644.84 138148.25 -161930.55 137957.77 -162121.03 137767.29 -162216.27 M 140719.68 -161644.84 139767.29 -161644.84 139672.06 -162597.22 139767.29 -162501.98 139957.77 -162406.74 140433.96 -162406.74 140624.44 -162501.98 140719.68 -162597.22 140814.91 -162787.69 140814.91 -163263.88 140719.68 -163454.36 140624.44 -163549.6 140433.96 -163644.84 139957.77 -163644.84 139767.29 -163549.6 139672.06 -163454.36 M 143195.87 -163644.84 143195.87 -161644.84 M 144053.01 -163644.84 144053.01 -162597.22 143957.77 -162406.74 143767.3 -162311.5 143481.58 -162311.5 143291.1 -162406.74 143195.87 -162501.98 M 145291.1 -163644.84 145100.63 -163549.6 145005.39 -163454.36 144910.15 -163263.88 144910.15 -162692.46 145005.39 -162501.98 145100.63 -162406.74 145291.1 -162311.5 145576.82 -162311.5 145767.3 -162406.74 145862.53 -162501.98 145957.77 -162692.46 145957.77 -163263.88 145862.53 -163454.36 145767.3 -163549.6 145576.82 -163644.84 145291.1 -163644.84 M 147100.63 -163644.84 146910.15 -163549.6 146814.91 -163359.12 146814.91 -161644.84 M 148624.44 -163549.6 148433.96 -163644.84 148053.01 -163644.84 147862.53 -163549.6 147767.3 -163359.12 147767.3 -162597.22 147862.53 -162406.74 148053.01 -162311.5 148433.96 -162311.5 148624.44 -162406.74 148719.68 -162597.22 148719.68 -162787.69 147767.3 -162978.17 M 149481.58 -163549.6 149672.06 -163644.84 150053.01 -163644.84 150243.49 -163549.6 150338.72 -163359.12 150338.72 -163263.88 150243.49 -163073.41 150053.01 -162978.17 149767.3 -162978.17 149576.82 -162882.93 149481.58 -162692.46 149481.58 -162597.22 149576.82 -162406.74 149767.3 -162311.5 150053.01 -162311.5 150243.49 -162406.74 M 151005.39 -164406.74 151100.63 -164311.5 151291.11 -164025.79 151386.34 -163835.31 151481.58 -163549.6 151576.82 -163073.41 151576.82 -162692.46 151481.58 -162216.27 151386.34 -161930.55 151291.11 -161740.08 151100.63 -161454.36 151005.39 -161359.12" fill="none" stroke-width="200"/><path d="M 101218.2 -165688.2 101218.2 -165051.8 100581.8 -165051.8 100581.8 -165688.2 101218.2 -165688.2" fill="none" stroke-width="90"/><path d="M 104338.72 -164284.84 104529.2 -164284.84 104719.67 -164380.08 104814.91 -164475.31 104910.15 -164665.79 105005.39 -165046.74 105005.39 -165522.93 104910.15 -165903.88 104814.91 -166094.36 104719.67 -166189.6 104529.2 -166284.84 104338.72 -166284.84 104148.24 -166189.6 104053.01 -166094.36 103957.77 -165903.88 103862.53 -165522.93 103862.53 -165046.74 103957.77 -164665.79 104053.01 -164475.31 104148.24 -164380.08 104338.72 -164284.84 M 105862.53 -166094.36 105957.77 -166189.6 105862.53 -166284.84 105767.29 -166189.6 105862.53 -166094.36 105862.53 -166284.84 M 106910.15 -166284.84 107291.1 -166284.84 107481.58 -166189.6 107576.82 -166094.36 107767.29 -165808.65 107862.53 -165427.69 107862.53 -164665.79 107767.29 -164475.31 107672.05 -164380.08 107481.58 -164284.84 107100.63 -164284.84 106910.15 -164380.08 106814.91 -164475.31 106719.67 -164665.79 106719.67 -165141.98 106814.91 -165332.46 106910.15 -165427.69 107100.63 -165522.93 107481.58 -165522.93 107672.05 -165427.69 107767.29 -165332.46 107862.53 -165141.98 M 109100.63 -164284.84 109291.1 -164284.84 109481.58 -164380.08 109576.82 -164475.31 109672.05 -164665.79 109767.29 -165046.74 109767.29 -165522.93 109672.05 -165903.88 109576.82 -166094.36 109481.58 -166189.6 109291.1 -166284.84 109100.63 -166284.84 108910.15 -166189.6 108814.91 -166094.36 108719.67 -165903.88 108624.44 -165522.93 108624.44 -165046.74 108719.67 -164665.79 108814.91 -164475.31 108910.15 -164380.08 109100.63 -164284.84 M 111005.39 -164284.84 111195.86 -164284.84 111386.34 -164380.08 111481.58 -164475.31 111576.82 -164665.79 111672.05 -165046.74 111672.05 -165522.93 111576.82 -165903.88 111481.58 -166094.36 111386.34 -166189.6 111195.86 -166284.84 111005.39 -166284.84 110814.91 -166189.6 110719.67 -166094.36 110624.44 -165903.88 110529.2 -165522.93 110529.2 -165046.74 110624.44 -164665.79 110719.67 -164475.31 110814.91 -164380.08 111005.39 -164284.84 M 112529.2 -166284.84 112529.2 -164951.5 M 112529.2 -165141.98 112624.43 -165046.74 112814.91 -164951.5 113100.63 -164951.5 113291.1 -165046.74 113386.34 -165237.22 113386.34 -166284.84 M 113386.34 -165237.22 113481.58 -165046.74 113672.05 -164951.5 113957.77 -164951.5 114148.24 -165046.74 114243.48 -165237.22 114243.48 -166284.84 M 115195.86 -166284.84 115195.86 -164951.5 M 115195.86 -165141.98 115291.1 -165046.74 115481.58 -164951.5 115767.29 -164951.5 115957.77 -165046.74 116053.01 -165237.22 116053.01 -166284.84 M 116053.01 -165237.22 116148.24 -165046.74 116338.72 -164951.5 116624.43 -164951.5 116814.91 -165046.74 116910.15 -165237.22 116910.15 -166284.84 M 120814.91 -164189.6 119100.63 -166761.03 M 123386.34 -164284.84 123576.82 -164284.84 123767.29 -164380.08 123862.53 -164475.31 123957.77 -164665.79 124053.01 -165046.74 124053.01 -165522.93 123957.77 -165903.88 123862.53 -166094.36 123767.29 -166189.6 123576.82 -166284.84 123386.34 -166284.84 123195.86 -166189.6 123100.63 -166094.36 123005.39 -165903.88 122910.15 -165522.93 122910.15 -165046.74 123005.39 -164665.79 123100.63 -164475.31 123195.86 -164380.08 123386.34 -164284.84 M 124910.15 -166094.36 125005.39 -166189.6 124910.15 -166284.84 124814.91 -166189.6 124910.15 -166094.36 124910.15 -166284.84 M 126243.48 -164284.84 126433.96 -164284.84 126624.44 -164380.08 126719.67 -164475.31 126814.91 -164665.79 126910.15 -165046.74 126910.15 -165522.93 126814.91 -165903.88 126719.67 -166094.36 126624.44 -166189.6 126433.96 -166284.84 126243.48 -166284.84 126053.01 -166189.6 125957.77 -166094.36 125862.53 -165903.88 125767.29 -165522.93 125767.29 -165046.74 125862.53 -164665.79 125957.77 -164475.31 126053.01 -164380.08 126243.48 -164284.84 M 127576.82 -164284.84 128814.91 -164284.84 128148.25 -165046.74 128433.96 -165046.74 128624.44 -165141.98 128719.67 -165237.22 128814.91 -165427.69 128814.91 -165903.88 128719.67 -166094.36 128624.44 -166189.6 128433.96 -166284.84 127862.53 -166284.84 127672.06 -166189.6 127576.82 -166094.36 M 130624.44 -164284.84 129672.06 -164284.84 129576.82 -165237.22 129672.06 -165141.98 129862.53 -165046.74 130338.72 -165046.74 130529.2 -165141.98 130624.44 -165237.22 130719.67 -165427.69 130719.67 -165903.88 130624.44 -166094.36 130529.2 -166189.6 130338.72 -166284.84 129862.53 -166284.84 129672.06 -166189.6 129576.82 -166094.36 M 132433.96 -164951.5 132433.96 -166284.84 M 131957.77 -164189.6 131481.58 -165618.17 132719.67 -165618.17 M 133386.34 -164284.84 133386.34 -164665.79 M 134148.25 -164284.84 134148.25 -164665.79 M 137100.63 -167046.74 137005.39 -166951.5 136814.91 -166665.79 136719.68 -166475.31 136624.44 -166189.6 136529.2 -165713.41 136529.2 -165332.46 136624.44 -164856.27 136719.68 -164570.55 136814.91 -164380.08 137005.39 -164094.36 137100.63 -163999.12 M 138910.15 -166284.84 137767.29 -166284.84 M 138338.72 -166284.84 138338.72 -164284.84 138148.25 -164570.55 137957.77 -164761.03 137767.29 -164856.27 M 141291.1 -166284.84 141291.1 -164284.84 M 142148.25 -166284.84 142148.25 -165237.22 142053.01 -165046.74 141862.53 -164951.5 141576.82 -164951.5 141386.34 -165046.74 141291.1 -165141.98 M 143386.34 -166284.84 143195.87 -166189.6 143100.63 -166094.36 143005.39 -165903.88 143005.39 -165332.46 143100.63 -165141.98 143195.87 -165046.74 143386.34 -164951.5 143672.06 -164951.5 143862.53 -165046.74 143957.77 -165141.98 144053.01 -165332.46 144053.01 -165903.88 143957.77 -166094.36 143862.53 -166189.6 143672.06 -166284.84 143386.34 -166284.84 M 145195.87 -166284.84 145005.39 -166189.6 144910.15 -165999.12 144910.15 -164284.84 M 146719.68 -166189.6 146529.2 -166284.84 146148.25 -166284.84 145957.77 -166189.6 145862.53 -165999.12 145862.53 -165237.22 145957.77 -165046.74 146148.25 -164951.5 146529.2 -164951.5 146719.68 -165046.74 146814.91 -165237.22 146814.91 -165427.69 145862.53 -165618.17 M 147481.58 -167046.74 147576.82 -166951.5 147767.3 -166665.79 147862.53 -166475.31 147957.77 -166189.6 148053.01 -165713.41 148053.01 -165332.46 147957.77 -164856.27 147862.53 -164570.55 147767.3 -164380.08 147576.82 -164094.36 147481.58 -163999.12" fill="none" stroke-width="200"/><path d="M 100850 -168510 101350 -168010 100850 -167510 100350 -168010 100850 -168510" fill="none" stroke-width="100"/><path d="M 105005.39 -168924.84 103862.53 -168924.84 M 104433.96 -168924.84 104433.96 -166924.84 104243.48 -167210.55 104053.01 -167401.03 103862.53 -167496.27 M 105862.53 -168734.36 105957.77 -168829.6 105862.53 -168924.84 105767.29 -168829.6 105862.53 -168734.36 105862.53 -168924.84 M 107195.86 -166924.84 107386.34 -166924.84 107576.82 -167020.08 107672.05 -167115.31 107767.29 -167305.79 107862.53 -167686.74 107862.53 -168162.93 107767.29 -168543.89 107672.05 -168734.36 107576.82 -168829.6 107386.34 -168924.84 107195.86 -168924.84 107005.39 -168829.6 106910.15 -168734.36 106814.91 -168543.89 106719.67 -168162.93 106719.67 -167686.74 106814.91 -167305.79 106910.15 -167115.31 107005.39 -167020.08 107195.86 -166924.84 M 109100.63 -166924.84 109291.1 -166924.84 109481.58 -167020.08 109576.82 -167115.31 109672.05 -167305.79 109767.29 -167686.74 109767.29 -168162.93 109672.05 -168543.89 109576.82 -168734.36 109481.58 -168829.6 109291.1 -168924.84 109100.63 -168924.84 108910.15 -168829.6 108814.91 -168734.36 108719.67 -168543.89 108624.44 -168162.93 108624.44 -167686.74 108719.67 -167305.79 108814.91 -167115.31 108910.15 -167020.08 109100.63 -166924.84 M 111005.39 -166924.84 111195.86 -166924.84 111386.34 -167020.08 111481.58 -167115.31 111576.82 -167305.79 111672.05 -167686.74 111672.05 -168162.93 111576.82 -168543.89 111481.58 -168734.36 111386.34 -168829.6 111195.86 -168924.84 111005.39 -168924.84 110814.91 -168829.6 110719.67 -168734.36 110624.44 -168543.89 110529.2 -168162.93 110529.2 -167686.74 110624.44 -167305.79 110719.67 -167115.31 110814.91 -167020.08 111005.39 -166924.84 M 112529.2 -168924.84 112529.2 -167591.5 M 112529.2 -167781.98 112624.43 -167686.74 112814.91 -167591.5 113100.63 -167591.5 113291.1 -167686.74 113386.34 -167877.22 113386.34 -168924.84 M 113386.34 -167877.22 113481.58 -167686.74 113672.05 -167591.5 113957.77 -167591.5 114148.24 -167686.74 114243.48 -167877.22 114243.48 -168924.84 M 115195.86 -168924.84 115195.86 -167591.5 M 115195.86 -167781.98 115291.1 -167686.74 115481.58 -167591.5 115767.29 -167591.5 115957.77 -167686.74 116053.01 -167877.22 116053.01 -168924.84 M 116053.01 -167877.22 116148.24 -167686.74 116338.72 -167591.5 116624.43 -167591.5 116814.91 -167686.74 116910.15 -167877.22 116910.15 -168924.84 M 120814.91 -166829.6 119100.63 -169401.03 M 123386.34 -166924.84 123576.82 -166924.84 123767.29 -167020.08 123862.53 -167115.31 123957.77 -167305.79 124053.01 -167686.74 124053.01 -168162.93 123957.77 -168543.89 123862.53 -168734.36 123767.29 -168829.6 123576.82 -168924.84 123386.34 -168924.84 123195.86 -168829.6 123100.63 -168734.36 123005.39 -168543.89 122910.15 -168162.93 122910.15 -167686.74 123005.39 -167305.79 123100.63 -167115.31 123195.86 -167020.08 123386.34 -166924.84 M 124910.15 -168734.36 125005.39 -168829.6 124910.15 -168924.84 124814.91 -168829.6 124910.15 -168734.36 124910.15 -168924.84 M 126243.48 -166924.84 126433.96 -166924.84 126624.44 -167020.08 126719.67 -167115.31 126814.91 -167305.79 126910.15 -167686.74 126910.15 -168162.93 126814.91 -168543.89 126719.67 -168734.36 126624.44 -168829.6 126433.96 -168924.84 126243.48 -168924.84 126053.01 -168829.6 125957.77 -168734.36 125862.53 -168543.89 125767.29 -168162.93 125767.29 -167686.74 125862.53 -167305.79 125957.77 -167115.31 126053.01 -167020.08 126243.48 -166924.84 M 127576.82 -166924.84 128814.91 -166924.84 128148.25 -167686.74 128433.96 -167686.74 128624.44 -167781.98 128719.67 -167877.22 128814.91 -168067.7 128814.91 -168543.89 128719.67 -168734.36 128624.44 -168829.6 128433.96 -168924.84 127862.53 -168924.84 127672.06 -168829.6 127576.82 -168734.36 M 129767.29 -168924.84 130148.25 -168924.84 130338.72 -168829.6 130433.96 -168734.36 130624.44 -168448.65 130719.67 -168067.7 130719.67 -167305.79 130624.44 -167115.31 130529.2 -167020.08 130338.72 -166924.84 129957.77 -166924.84 129767.29 -167020.08 129672.06 -167115.31 129576.82 -167305.79 129576.82 -167781.98 129672.06 -167972.46 129767.29 -168067.7 129957.77 -168162.93 130338.72 -168162.93 130529.2 -168067.7 130624.44 -167972.46 130719.67 -167781.98 M 132433.96 -167591.5 132433.96 -168924.84 M 131957.77 -166829.6 131481.58 -168258.17 132719.67 -168258.17 M 133386.34 -166924.84 133386.34 -167305.79 M 134148.25 -166924.84 134148.25 -167305.79 M 137100.63 -169686.74 137005.39 -169591.5 136814.91 -169305.79 136719.68 -169115.31 136624.44 -168829.6 136529.2 -168353.41 136529.2 -167972.46 136624.44 -167496.27 136719.68 -167210.55 136814.91 -167020.08 137005.39 -166734.36 137100.63 -166639.12 M 138814.91 -166924.84 137862.53 -166924.84 137767.29 -167877.22 137862.53 -167781.98 138053.01 -167686.74 138529.2 -167686.74 138719.68 -167781.98 138814.91 -167877.22 138910.15 -168067.7 138910.15 -168543.89 138814.91 -168734.36 138719.68 -168829.6 138529.2 -168924.84 138053.01 -168924.84 137862.53 -168829.6 137767.29 -168734.36 M 141291.1 -168924.84 141291.1 -166924.84 M 142148.25 -168924.84 142148.25 -167877.22 142053.01 -167686.74 141862.53 -167591.5 141576.82 -167591.5 141386.34 -167686.74 141291.1 -167781.98 M 143386.34 -168924.84 143195.87 -168829.6 143100.63 -168734.36 143005.39 -168543.89 143005.39 -167972.46 143100.63 -167781.98 143195.87 -167686.74 143386.34 -167591.5 143672.06 -167591.5 143862.53 -167686.74 143957.77 -167781.98 144053.01 -167972.46 144053.01 -168543.89 143957.77 -168734.36 143862.53 -168829.6 143672.06 -168924.84 143386.34 -168924.84 M 145195.87 -168924.84 145005.39 -168829.6 144910.15 -168639.12 144910.15 -166924.84 M 146719.68 -168829.6 146529.2 -168924.84 146148.25 -168924.84 145957.77 -168829.6 145862.53 -168639.12 145862.53 -167877.22 145957.77 -167686.74 146148.25 -167591.5 146529.2 -167591.5 146719.68 -167686.74 146814.91 -167877.22 146814.91 -168067.7 145862.53 -168258.17 M 147576.82 -168829.6 147767.3 -168924.84 148148.25 -168924.84 148338.72 -168829.6 148433.96 -168639.12 148433.96 -168543.89 148338.72 -168353.41 148148.25 -168258.17 147862.53 -168258.17 147672.06 -168162.93 147576.82 -167972.46 147576.82 -167877.22 147672.06 -167686.74 147862.53 -167591.5 148148.25 -167591.5 148338.72 -167686.74 M 150814.92 -168162.93 152338.73 -168162.93 M 151576.82 -168924.84 151576.82 -167401.03 M 154624.44 -166924.84 155862.53 -166924.84 155195.87 -167686.74 155481.58 -167686.74 155672.06 -167781.98 155767.3 -167877.22 155862.53 -168067.7 155862.53 -168543.89 155767.3 -168734.36 155672.06 -168829.6 155481.58 -168924.84 154910.15 -168924.84 154719.68 -168829.6 154624.44 -168734.36 M 158148.25 -168829.6 158338.73 -168924.84 158719.68 -168924.84 158910.15 -168829.6 159005.39 -168639.12 159005.39 -168543.89 158910.15 -168353.41 158719.68 -168258.17 158433.96 -168258.17 158243.49 -168162.93 158148.25 -167972.46 158148.25 -167877.22 158243.49 -167686.74 158433.96 -167591.5 158719.68 -167591.5 158910.15 -167686.74 M 160148.25 -168924.84 159957.77 -168829.6 159862.54 -168639.12 159862.54 -166924.84 M 161195.87 -168924.84 161005.39 -168829.6 160910.15 -168734.36 160814.92 -168543.89 160814.92 -167972.46 160910.15 -167781.98 161005.39 -167686.74 161195.87 -167591.5 161481.58 -167591.5 161672.06 -167686.74 161767.3 -167781.98 161862.54 -167972.46 161862.54 -168543.89 161767.3 -168734.36 161672.06 -168829.6 161481.58 -168924.84 161195.87 -168924.84 M 162433.96 -167591.5 163195.87 -167591.5 M 162719.68 -166924.84 162719.68 -168639.12 162814.92 -168829.6 163005.39 -168924.84 163195.87 -168924.84 M 163767.3 -168829.6 163957.77 -168924.84 164338.73 -168924.84 164529.2 -168829.6 164624.44 -168639.12 164624.44 -168543.89 164529.2 -168353.41 164338.73 -168258.17 164053.01 -168258.17 163862.54 -168162.93 163767.3 -167972.46 163767.3 -167877.22 163862.54 -167686.74 164053.01 -167591.5 164338.73 -167591.5 164529.2 -167686.74 M 165291.11 -169686.74 165386.35 -169591.5 165576.82 -169305.79 165672.06 -169115.31 165767.3 -168829.6 165862.54 -168353.41 165862.54 -167972.46 165767.3 -167496.27 165672.06 -167210.55 165576.82 -167020.08 165386.35 -166734.36 165291.11 -166639.12" fill="none" stroke-width="200"/><path d="M 100330 -170140 101350 -171160 M 101350 -170140 100330 -171160 M 101350 -170650 A 510 510 0 0 1 100330 -170650 510 510 0 0 1 101350 -170650" fill="none" stroke-width="102"/><path d="M 105005.39 -171564.84 103862.53 -171564.84 M 104433.96 -171564.84 104433.96 -169564.84 104243.48 -169850.55 104053.01 -170041.03 103862.53 -170136.27 M 105862.53 -171374.36 105957.77 -171469.6 105862.53 -171564.84 105767.29 -171469.6 105862.53 -171374.36 105862.53 -171564.84 M 107195.86 -169564.84 107386.34 -169564.84 107576.82 -169660.08 107672.05 -169755.31 107767.29 -169945.79 107862.53 -170326.74 107862.53 -170802.93 107767.29 -171183.89 107672.05 -171374.36 107576.82 -171469.6 107386.34 -171564.84 107195.86 -171564.84 107005.39 -171469.6 106910.15 -171374.36 106814.91 -171183.89 106719.67 -170802.93 106719.67 -170326.74 106814.91 -169945.79 106910.15 -169755.31 107005.39 -169660.08 107195.86 -169564.84 M 108624.44 -169755.31 108719.67 -169660.08 108910.15 -169564.84 109386.34 -169564.84 109576.82 -169660.08 109672.05 -169755.31 109767.29 -169945.79 109767.29 -170136.27 109672.05 -170421.98 108529.2 -171564.84 109767.29 -171564.84 M 111005.39 -169564.84 111195.86 -169564.84 111386.34 -169660.08 111481.58 -169755.31 111576.82 -169945.79 111672.05 -170326.74 111672.05 -170802.93 111576.82 -171183.89 111481.58 -171374.36 111386.34 -171469.6 111195.86 -171564.84 111005.39 -171564.84 110814.91 -171469.6 110719.67 -171374.36 110624.44 -171183.89 110529.2 -170802.93 110529.2 -170326.74 110624.44 -169945.79 110719.67 -169755.31 110814.91 -169660.08 111005.39 -169564.84 M 112529.2 -171564.84 112529.2 -170231.5 M 112529.2 -170421.98 112624.43 -170326.74 112814.91 -170231.5 113100.63 -170231.5 113291.1 -170326.74 113386.34 -170517.22 113386.34 -171564.84 M 113386.34 -170517.22 113481.58 -170326.74 113672.05 -170231.5 113957.77 -170231.5 114148.24 -170326.74 114243.48 -170517.22 114243.48 -171564.84 M 115195.86 -171564.84 115195.86 -170231.5 M 115195.86 -170421.98 115291.1 -170326.74 115481.58 -170231.5 115767.29 -170231.5 115957.77 -170326.74 116053.01 -170517.22 116053.01 -171564.84 M 116053.01 -170517.22 116148.24 -170326.74 116338.72 -170231.5 116624.43 -170231.5 116814.91 -170326.74 116910.15 -170517.22 116910.15 -171564.84 M 120814.91 -169469.6 119100.63 -172041.03 M 123386.34 -169564.84 123576.82 -169564.84 123767.29 -169660.08 123862.53 -169755.31 123957.77 -169945.79 124053.01 -170326.74 124053.01 -170802.93 123957.77 -171183.89 123862.53 -171374.36 123767.29 -171469.6 123576.82 -171564.84 123386.34 -171564.84 123195.86 -171469.6 123100.63 -171374.36 123005.39 -171183.89 122910.15 -170802.93 122910.15 -170326.74 123005.39 -169945.79 123100.63 -169755.31 123195.86 -169660.08 123386.34 -169564.84 M 124910.15 -171374.36 125005.39 -171469.6 124910.15 -171564.84 124814.91 -171469.6 124910.15 -171374.36 124910.15 -171564.84 M 126243.48 -169564.84 126433.96 -169564.84 126624.44 -169660.08 126719.67 -169755.31 126814.91 -169945.79 126910.15 -170326.74 126910.15 -170802.93 126814.91 -171183.89 126719.67 -171374.36 126624.44 -171469.6 126433.96 -171564.84 126243.48 -171564.84 126053.01 -171469.6 125957.77 -171374.36 125862.53 -171183.89 125767.29 -170802.93 125767.29 -170326.74 125862.53 -169945.79 125957.77 -169755.31 126053.01 -169660.08 126243.48 -169564.84 M 128624.44 -170231.5 128624.44 -171564.84 M 128148.25 -169469.6 127672.06 -170898.17 128910.15 -170898.17 M 130053.01 -169564.84 130243.48 -169564.84 130433.96 -169660.08 130529.2 -169755.31 130624.44 -169945.79 130719.67 -170326.74 130719.67 -170802.93 130624.44 -171183.89 130529.2 -171374.36 130433.96 -171469.6 130243.48 -171564.84 130053.01 -171564.84 129862.53 -171469.6 129767.29 -171374.36 129672.06 -171183.89 129576.82 -170802.93 129576.82 -170326.74 129672.06 -169945.79 129767.29 -169755.31 129862.53 -169660.08 130053.01 -169564.84 M 131481.58 -169755.31 131576.82 -169660.08 131767.29 -169564.84 132243.48 -169564.84 132433.96 -169660.08 132529.2 -169755.31 132624.44 -169945.79 132624.44 -170136.27 132529.2 -170421.98 131386.34 -171564.84 132624.44 -171564.84 M 133386.34 -169564.84 133386.34 -169945.79 M 134148.25 -169564.84 134148.25 -169945.79 M 137100.63 -172326.74 137005.39 -172231.5 136814.91 -171945.79 136719.68 -171755.31 136624.44 -171469.6 136529.2 -170993.41 136529.2 -170612.46 136624.44 -170136.27 136719.68 -169850.55 136814.91 -169660.08 137005.39 -169374.36 137100.63 -169279.12 M 137672.06 -169564.84 139005.39 -169564.84 138148.25 -171564.84 M 140148.25 -169564.84 140338.72 -169564.84 140529.2 -169660.08 140624.44 -169755.31 140719.68 -169945.79 140814.91 -170326.74 140814.91 -170802.93 140719.68 -171183.89 140624.44 -171374.36 140529.2 -171469.6 140338.72 -171564.84 140148.25 -171564.84 139957.77 -171469.6 139862.53 -171374.36 139767.29 -171183.89 139672.06 -170802.93 139672.06 -170326.74 139767.29 -169945.79 139862.53 -169755.31 139957.77 -169660.08 140148.25 -169564.84 M 143195.87 -171564.84 143195.87 -169564.84 M 144053.01 -171564.84 144053.01 -170517.22 143957.77 -170326.74 143767.3 -170231.5 143481.58 -170231.5 143291.1 -170326.74 143195.87 -170421.98 M 145291.1 -171564.84 145100.63 -171469.6 145005.39 -171374.36 144910.15 -171183.89 144910.15 -170612.46 145005.39 -170421.98 145100.63 -170326.74 145291.1 -170231.5 145576.82 -170231.5 145767.3 -170326.74 145862.53 -170421.98 145957.77 -170612.46 145957.77 -171183.89 145862.53 -171374.36 145767.3 -171469.6 145576.82 -171564.84 145291.1 -171564.84 M 147100.63 -171564.84 146910.15 -171469.6 146814.91 -171279.12 146814.91 -169564.84 M 148624.44 -171469.6 148433.96 -171564.84 148053.01 -171564.84 147862.53 -171469.6 147767.3 -171279.12 147767.3 -170517.22 147862.53 -170326.74 148053.01 -170231.5 148433.96 -170231.5 148624.44 -170326.74 148719.68 -170517.22 148719.68 -170707.7 147767.3 -170898.17 M 149481.58 -171469.6 149672.06 -171564.84 150053.01 -171564.84 150243.49 -171469.6 150338.72 -171279.12 150338.72 -171183.89 150243.49 -170993.41 150053.01 -170898.17 149767.3 -170898.17 149576.82 -170802.93 149481.58 -170612.46 149481.58 -170517.22 149576.82 -170326.74 149767.3 -170231.5 150053.01 -170231.5 150243.49 -170326.74 M 151005.39 -172326.74 151100.63 -172231.5 151291.11 -171945.79 151386.34 -171755.31 151481.58 -171469.6 151576.82 -170993.41 151576.82 -170612.46 151481.58 -170136.27 151386.34 -169850.55 151291.11 -169660.08 151100.63 -169374.36 151005.39 -169279.12" fill="none" stroke-width="200"/><path d="M 100250 -172740 101350 -173840 M 101350 -172740 100250 -173840 M 100800 -172740 100800 -173840 M 100250 -173290 101350 -173290" fill="none" stroke-width="110"/><path d="M 105005.39 -174204.84 103862.53 -174204.84 M 104433.96 -174204.84 104433.96 -172204.84 104243.48 -172490.55 104053.01 -172681.03 103862.53 -172776.27 M 105862.53 -174014.36 105957.77 -174109.6 105862.53 -174204.84 105767.29 -174109.6 105862.53 -174014.36 105862.53 -174204.84 M 107862.53 -174204.84 106719.67 -174204.84 M 107291.1 -174204.84 107291.1 -172204.84 107100.63 -172490.55 106910.15 -172681.03 106719.67 -172776.27 M 109100.63 -172204.84 109291.1 -172204.84 109481.58 -172300.08 109576.82 -172395.31 109672.05 -172585.79 109767.29 -172966.74 109767.29 -173442.93 109672.05 -173823.89 109576.82 -174014.36 109481.58 -174109.6 109291.1 -174204.84 109100.63 -174204.84 108910.15 -174109.6 108814.91 -174014.36 108719.67 -173823.89 108624.44 -173442.93 108624.44 -172966.74 108719.67 -172585.79 108814.91 -172395.31 108910.15 -172300.08 109100.63 -172204.84 M 111005.39 -172204.84 111195.86 -172204.84 111386.34 -172300.08 111481.58 -172395.31 111576.82 -172585.79 111672.05 -172966.74 111672.05 -173442.93 111576.82 -173823.89 111481.58 -174014.36 111386.34 -174109.6 111195.86 -174204.84 111005.39 -174204.84 110814.91 -174109.6 110719.67 -174014.36 110624.44 -173823.89 110529.2 -173442.93 110529.2 -172966.74 110624.44 -172585.79 110719.67 -172395.31 110814.91 -172300.08 111005.39 -172204.84 M 112529.2 -174204.84 112529.2 -172871.5 M 112529.2 -173061.98 112624.43 -172966.74 112814.91 -172871.5 113100.63 -172871.5 113291.1 -172966.74 113386.34 -173157.22 113386.34 -174204.84 M 113386.34 -173157.22 113481.58 -172966.74 113672.05 -172871.5 113957.77 -172871.5 114148.24 -172966.74 114243.48 -173157.22 114243.48 -174204.84 M 115195.86 -174204.84 115195.86 -172871.5 M 115195.86 -173061.98 115291.1 -172966.74 115481.58 -172871.5 115767.29 -172871.5 115957.77 -172966.74 116053.01 -173157.22 116053.01 -174204.84 M 116053.01 -173157.22 116148.24 -172966.74 116338.72 -172871.5 116624.43 -172871.5 116814.91 -172966.74 116910.15 -173157.22 116910.15 -174204.84 M 120814.91 -172109.6 119100.63 -174681.03 M 123386.34 -172204.84 123576.82 -172204.84 123767.29 -172300.08 123862.53 -172395.31 123957.77 -172585.79 124053.01 -172966.74 124053.01 -173442.93 123957.77 -173823.89 123862.53 -174014.36 123767.29 -174109.6 123576.82 -174204.84 123386.34 -174204.84 123195.86 -174109.6 123100.63 -174014.36 123005.39 -173823.89 122910.15 -173442.93 122910.15 -172966.74 123005.39 -172585.79 123100.63 -172395.31 123195.86 -172300.08 123386.34 -172204.84 M 124910.15 -174014.36 125005.39 -174109.6 124910.15 -174204.84 124814.91 -174109.6 124910.15 -174014.36 124910.15 -174204.84 M 126243.48 -172204.84 126433.96 -172204.84 126624.44 -172300.08 126719.67 -172395.31 126814.91 -172585.79 126910.15 -172966.74 126910.15 -173442.93 126814.91 -173823.89 126719.67 -174014.36 126624.44 -174109.6 126433.96 -174204.84 126243.48 -174204.84 126053.01 -174109.6 125957.77 -174014.36 125862.53 -173823.89 125767.29 -173442.93 125767.29 -172966.74 125862.53 -172585.79 125957.77 -172395.31 126053.01 -172300.08 126243.48 -172204.84 M 128624.44 -172871.5 128624.44 -174204.84 M 128148.25 -172109.6 127672.06 -173538.17 128910.15 -173538.17 M 129481.58 -172204.84 130719.67 -172204.84 130053.01 -172966.74 130338.72 -172966.74 130529.2 -173061.98 130624.44 -173157.22 130719.67 -173347.7 130719.67 -173823.89 130624.44 -174014.36 130529.2 -174109.6 130338.72 -174204.84 129767.29 -174204.84 129576.82 -174109.6 129481.58 -174014.36 M 131386.34 -172204.84 132624.44 -172204.84 131957.77 -172966.74 132243.48 -172966.74 132433.96 -173061.98 132529.2 -173157.22 132624.44 -173347.7 132624.44 -173823.89 132529.2 -174014.36 132433.96 -174109.6 132243.48 -174204.84 131672.06 -174204.84 131481.58 -174109.6 131386.34 -174014.36 M 133386.34 -172204.84 133386.34 -172585.79 M 134148.25 -172204.84 134148.25 -172585.79 M 137100.63 -174966.74 137005.39 -174871.5 136814.91 -174585.79 136719.68 -174395.31 136624.44 -174109.6 136529.2 -173633.41 136529.2 -173252.46 136624.44 -172776.27 136719.68 -172490.55 136814.91 -172300.08 137005.39 -172014.36 137100.63 -171919.12 M 137672.06 -172204.84 138910.15 -172204.84 138243.48 -172966.74 138529.2 -172966.74 138719.68 -173061.98 138814.91 -173157.22 138910.15 -173347.7 138910.15 -173823.89 138814.91 -174014.36 138719.68 -174109.6 138529.2 -174204.84 137957.77 -174204.84 137767.29 -174109.6 137672.06 -174014.36 M 141291.1 -174204.84 141291.1 -172204.84 M 142148.25 -174204.84 142148.25 -173157.22 142053.01 -172966.74 141862.53 -172871.5 141576.82 -172871.5 141386.34 -172966.74 141291.1 -173061.98 M 143386.34 -174204.84 143195.87 -174109.6 143100.63 -174014.36 143005.39 -173823.89 143005.39 -173252.46 143100.63 -173061.98 143195.87 -172966.74 143386.34 -172871.5 143672.06 -172871.5 143862.53 -172966.74 143957.77 -173061.98 144053.01 -173252.46 144053.01 -173823.89 143957.77 -174014.36 143862.53 -174109.6 143672.06 -174204.84 143386.34 -174204.84 M 145195.87 -174204.84 145005.39 -174109.6 144910.15 -173919.12 144910.15 -172204.84 M 146719.68 -174109.6 146529.2 -174204.84 146148.25 -174204.84 145957.77 -174109.6 145862.53 -173919.12 145862.53 -173157.22 145957.77 -172966.74 146148.25 -172871.5 146529.2 -172871.5 146719.68 -172966.74 146814.91 -173157.22 146814.91 -173347.7 145862.53 -173538.17 M 147576.82 -174109.6 147767.3 -174204.84 148148.25 -174204.84 148338.72 -174109.6 148433.96 -173919.12 148433.96 -173823.89 148338.72 -173633.41 148148.25 -173538.17 147862.53 -173538.17 147672.06 -173442.93 147576.82 -173252.46 147576.82 -173157.22 147672.06 -172966.74 147862.53 -172871.5 148148.25 -172871.5 148338.72 -172966.74 M 149100.63 -174966.74 149195.87 -174871.5 149386.34 -174585.79 149481.58 -174395.31 149576.82 -174109.6 149672.06 -173633.41 149672.06 -173252.46 149576.82 -172776.27 149481.58 -172490.55 149386.34 -172300.08 149195.87 -172014.36 149100.63 -171919.12" fill="none" stroke-width="200"/></g></svg>