<svg version="1.1" xmlns="http://www.w3.org/2000/svg" xmlns:xlink="http://www.w3.org/1999/xlink" stroke-linecap="round" stroke-linejoin="round" stroke-width="0" fill-rule="evenodd" width="82.533mm" height="92.575mm" viewBox="103397 -147830 82533 92575" id="Y7U51sN2B21F6FtdXlTc"><defs><circle cx="0" cy="0" r="400" id="Y7U51sN2B21F6FtdXlTc_pad-1"/><circle cx="0" cy="0" r="400" id="Y7U51sN2B21F6FtdXlTc_pad-2"/><circle cx="0" cy="0" r="440" id="Y7U51sN2B21F6FtdXlTc_pad-3"/><circle cx="0" cy="0" r="450" id="Y7U51sN2B21F6FtdXlTc_pad-4"/><circle cx="0" cy="0" r="500" id="Y7U51sN2B21F6FtdXlTc_pad-5"/><circle cx="0" cy="0" r="510" id="Y7U51sN2B21F6FtdXlTc_pad-6"/><circle cx="0" cy="0" r="550" id="Y7U51sN2B21F6FtdXlTc_pad-7"/></defs><g transform="translate(0,-203085) scale(1,-1)" fill="currentColor" stroke="currentColor"><use xlink:href="#Y7U51sN2B21F6FtdXlTc_pad-1" x="103797" y="-76619"/><use xlink:href="#Y7U51sN2B21F6FtdXlTc_pad-1" x="122844" y="-56102"/><use xlink:href="#Y7U51sN2B21F6FtdXlTc_pad-2" x="110990" y="-83800"/><use xlink:href="#Y7U51sN2B21F6FtdXlTc_pad-2" x="111600" y="-70990"/><use xlink:href="#Y7U51sN2B21F6FtdXlTc_pad-2" x="111600" y="-78610"/><use xlink:href="#Y7U51sN2B21F6FtdXlTc_pad-2" x="115200" y="-64950"/><use xlink:href="#Y7U51sN2B21F6FtdXlTc_pad-2" x="115200" y="-67450"/><use xlink:href="#Y7U51sN2B21F6FtdXlTc_pad-2" x="117600" y="-70990"/><use xlink:href="#Y7U51sN2B21F6FtdXlTc_pad-2" x="117600" y="-78610"/><use xlink:href="#Y7U51sN2B21F6FtdXlTc_pad-2" x="118610" y="-83800"/><use xlink:href="#Y7U51sN2B21F6FtdXlTc_pad-2" x="118770" y="-133800"/><use xlink:href="#Y7U51sN2B21F6FtdXlTc_pad-2" x="119600" y="-142400"/><use xlink:href="#Y7U51sN2B21F6FtdXlTc_pad-2" x="119600" y="-144900"/><use xlink:href="#Y7U51sN2B21F6FtdXlTc_pad-2" x="123800" y="-70990"/><use xlink:href="#Y7U51sN2B21F6FtdXlTc_pad-2" x="123800" y="-78610"/><use xlink:href="#Y7U51sN2B21F6FtdXlTc_pad-2" x="126171" y="-62400"/><use xlink:href="#Y7U51sN2B21F6FtdXlTc_pad-2" x="128650" y="-138571"/><use xlink:href="#Y7U51sN2B21F6FtdXlTc_pad-2" x="128650" y="-141071"/><use xlink:href="#Y7U51sN2B21F6FtdXlTc_pad-2" x="128671" y="-62400"/><use xlink:href="#Y7U51sN2B21F6FtdXlTc_pad-2" x="128930" y="-133800"/><use xlink:href="#Y7U51sN2B21F6FtdXlTc_pad-2" x="130000" y="-70990"/><use xlink:href="#Y7U51sN2B21F6FtdXlTc_pad-2" x="130000" y="-78610"/><use xlink:href="#Y7U51sN2B21F6FtdXlTc_pad-2" x="133729" y="-62400"/><use xlink:href="#Y7U51sN2B21F6FtdXlTc_pad-2" x="135520" y="-71600"/><use xlink:href="#Y7U51sN2B21F6FtdXlTc_pad-2" x="136229" y="-62400"/><use xlink:href="#Y7U51sN2B21F6FtdXlTc_pad-2" x="139550" y="-140000"/><use xlink:href="#Y7U51sN2B21F6FtdXlTc_pad-2" x="140320" y="-131800"/><use xlink:href="#Y7U51sN2B21F6FtdXlTc_pad-2" x="142050" y="-140000"/><use xlink:href="#Y7U51sN2B21F6FtdXlTc_pad-2" x="145680" y="-71600"/><use xlink:href="#Y7U51sN2B21F6FtdXlTc_pad-2" x="147600" y="-137800"/><use xlink:href="#Y7U51sN2B21F6FtdXlTc_pad-2" x="147600" y="-140300"/><use xlink:href="#Y7U51sN2B21F6FtdXlTc_pad-2" x="150480" y="-131800"/><use xlink:href="#Y7U51sN2B21F6FtdXlTc_pad-2" x="156000" y="-126630"/><use xlink:href="#Y7U51sN2B21F6FtdXlTc_pad-2" x="156000" y="-134250"/><use xlink:href="#Y7U51sN2B21F6FtdXlTc_pad-2" x="162695" y="-126581"/><use xlink:href="#Y7U51sN2B21F6FtdXlTc_pad-2" x="162695" y="-134201"/><use xlink:href="#Y7U51sN2B21F6FtdXlTc_pad-2" x="168800" y="-138929"/><use xlink:href="#Y7U51sN2B21F6FtdXlTc_pad-2" x="168800" y="-141429"/><use xlink:href="#Y7U51sN2B21F6FtdXlTc_pad-2" x="169800" y="-59900"/><use xlink:href="#Y7U51sN2B21F6FtdXlTc_pad-2" x="169800" y="-62400"/><use xlink:href="#Y7U51sN2B21F6FtdXlTc_pad-2" x="173200" y="-68920"/><use xlink:href="#Y7U51sN2B21F6FtdXlTc_pad-2" x="173200" y="-79080"/><use xlink:href="#Y7U51sN2B21F6FtdXlTc_pad-2" x="174800" y="-138929"/><use xlink:href="#Y7U51sN2B21F6FtdXlTc_pad-2" x="174800" y="-141429"/><use xlink:href="#Y7U51sN2B21F6FtdXlTc_pad-2" x="176800" y="-59750"/><use xlink:href="#Y7U51sN2B21F6FtdXlTc_pad-2" x="176800" y="-62250"/><use xlink:href="#Y7U51sN2B21F6FtdXlTc_pad-3" x="126120" y="-145000"/><use xlink:href="#Y7U51sN2B21F6FtdXlTc_pad-3" x="127750" y="-55750"/><use xlink:href="#Y7U51sN2B21F6FtdXlTc_pad-3" x="128660" y="-145000"/><use xlink:href="#Y7U51sN2B21F6FtdXlTc_pad-3" x="130290" y="-55750"/><use xlink:href="#Y7U51sN2B21F6FtdXlTc_pad-3" x="131200" y="-145000"/><use xlink:href="#Y7U51sN2B21F6FtdXlTc_pad-3" x="132830" y="-55750"/><use xlink:href="#Y7U51sN2B21F6FtdXlTc_pad-3" x="143485" y="-145000"/><use xlink:href="#Y7U51sN2B21F6FtdXlTc_pad-3" x="146025" y="-145000"/><use xlink:href="#Y7U51sN2B21F6FtdXlTc_pad-3" x="148565" y="-145000"/><use xlink:href="#Y7U51sN2B21F6FtdXlTc_pad-3" x="169910" y="-55695"/><use xlink:href="#Y7U51sN2B21F6FtdXlTc_pad-3" x="170710" y="-145000"/><use xlink:href="#Y7U51sN2B21F6FtdXlTc_pad-3" x="172450" y="-55695"/><use xlink:href="#Y7U51sN2B21F6FtdXlTc_pad-3" x="173250" y="-145000"/><use xlink:href="#Y7U51sN2B21F6FtdXlTc_pad-3" x="174990" y="-55695"/><use xlink:href="#Y7U51sN2B21F6FtdXlTc_pad-3" x="175790" y="-145000"/><use xlink:href="#Y7U51sN2B21F6FtdXlTc_pad-4" x="162765" y="-143000"/><use xlink:href="#Y7U51sN2B21F6FtdXlTc_pad-5" x="111800" y="-60950"/><use xlink:href="#Y7U51sN2B21F6FtdXlTc_pad-5" x="113500" y="-57250"/><use xlink:href="#Y7U51sN2B21F6FtdXlTc_pad-5" x="115200" y="-60950"/><use xlink:href="#Y7U51sN2B21F6FtdXlTc_pad-5" x="116900" y="-57250"/><use xlink:href="#Y7U51sN2B21F6FtdXlTc_pad-5" x="118600" y="-60950"/><use xlink:href="#Y7U51sN2B21F6FtdXlTc_pad-6" x="106680" y="-57150"/><use xlink:href="#Y7U51sN2B21F6FtdXlTc_pad-6" x="106680" y="-59690"/><use xlink:href="#Y7U51sN2B21F6FtdXlTc_pad-6" x="106680" y="-62230"/><use xlink:href="#Y7U51sN2B21F6FtdXlTc_pad-6" x="106680" y="-64770"/><use xlink:href="#Y7U51sN2B21F6FtdXlTc_pad-6" x="106680" y="-67310"/><use xlink:href="#Y7U51sN2B21F6FtdXlTc_pad-6" x="106680" y="-69850"/><use xlink:href="#Y7U51sN2B21F6FtdXlTc_pad-6" x="106680" y="-72390"/><use xlink:href="#Y7U51sN2B21F6FtdXlTc_pad-6" x="106680" y="-74930"/><use xlink:href="#Y7U51sN2B21F6FtdXlTc_pad-6" x="106680" y="-81280"/><use xlink:href="#Y7U51sN2B21F6FtdXlTc_pad-6" x="106680" y="-83820"/><use xlink:href="#Y7U51sN2B21F6FtdXlTc_pad-6" x="106680" y="-86360"/><use xlink:href="#Y7U51sN2B21F6FtdXlTc_pad-6" x="106680" y="-88900"/><use xlink:href="#Y7U51sN2B21F6FtdXlTc_pad-6" x="106680" y="-91440"/><use xlink:href="#Y7U51sN2B21F6FtdXlTc_pad-6" x="106680" y="-93980"/><use xlink:href="#Y7U51sN2B21F6FtdXlTc_pad-6" x="106680" y="-96520"/><use xlink:href="#Y7U51sN2B21F6FtdXlTc_pad-6" x="106680" y="-99060"/><use xlink:href="#Y7U51sN2B21F6FtdXlTc_pad-6" x="106680" y="-101600"/><use xlink:href="#Y7U51sN2B21F6FtdXlTc_pad-6" x="106680" y="-104140"/><use xlink:href="#Y7U51sN2B21F6FtdXlTc_pad-6" x="106680" y="-106680"/><use xlink:href="#Y7U51sN2B21F6FtdXlTc_pad-6" x="106680" y="-109220"/><use xlink:href="#Y7U51sN2B21F6FtdXlTc_pad-6" x="106680" y="-111760"/><use xlink:href="#Y7U51sN2B21F6FtdXlTc_pad-6" x="106680" y="-114300"/><use xlink:href="#Y7U51sN2B21F6FtdXlTc_pad-6" x="106680" y="-116840"/><use xlink:href="#Y7U51sN2B21F6FtdXlTc_pad-6" x="106680" y="-119380"/><use xlink:href="#Y7U51sN2B21F6FtdXlTc_pad-6" x="106680" y="-121920"/><use xlink:href="#Y7U51sN2B21F6FtdXlTc_pad-6" x="106680" y="-124460"/><use xlink:href="#Y7U51sN2B21F6FtdXlTc_pad-6" x="106680" y="-127000"/><use xlink:href="#Y7U51sN2B21F6FtdXlTc_pad-6" x="106680" y="-129540"/><use xlink:href="#Y7U51sN2B21F6FtdXlTc_pad-6" x="106680" y="-132080"/><use xlink:href="#Y7U51sN2B21F6FtdXlTc_pad-6" x="106680" y="-134620"/><use xlink:href="#Y7U51sN2B21F6FtdXlTc_pad-6" x="106680" y="-137160"/><use xlink:href="#Y7U51sN2B21F6FtdXlTc_pad-6" x="106680" y="-139700"/><use xlink:href="#Y7U51sN2B21F6FtdXlTc_pad-6" x="106680" y="-142240"/><use xlink:href="#Y7U51sN2B21F6FtdXlTc_pad-6" x="106680" y="-144780"/><use xlink:href="#Y7U51sN2B21F6FtdXlTc_pad-6" x="106680" y="-147320"/><use xlink:href="#Y7U51sN2B21F6FtdXlTc_pad-6" x="185420" y="-57150"/><use xlink:href="#Y7U51sN2B21F6FtdXlTc_pad-6" x="185420" y="-59690"/><use xlink:href="#Y7U51sN2B21F6FtdXlTc_pad-6" x="185420" y="-62230"/><use xlink:href="#Y7U51sN2B21F6FtdXlTc_pad-6" x="185420" y="-64770"/><use xlink:href="#Y7U51sN2B21F6FtdXlTc_pad-6" x="185420" y="-67310"/><use xlink:href="#Y7U51sN2B21F6FtdXlTc_pad-6" x="185420" y="-69850"/><use xlink:href="#Y7U51sN2B21F6FtdXlTc_pad-6" x="185420" y="-72390"/><use xlink:href="#Y7U51sN2B21F6FtdXlTc_pad-6" x="185420" y="-74930"/><use xlink:href="#Y7U51sN2B21F6FtdXlTc_pad-6" x="185420" y="-77470"/><use xlink:href="#Y7U51sN2B21F6FtdXlTc_pad-6" x="185420" y="-80010"/><use xlink:href="#Y7U51sN2B21F6FtdXlTc_pad-6" x="185420" y="-82550"/><use xlink:href="#Y7U51sN2B21F6FtdXlTc_pad-6" x="185420" y="-85090"/><use xlink:href="#Y7U51sN2B21F6FtdXlTc_pad-6" x="185420" y="-87630"/><use xlink:href="#Y7U51sN2B21F6FtdXlTc_pad-6" x="185420" y="-90170"/><use xlink:href="#Y7U51sN2B21F6FtdXlTc_pad-6" x="185420" y="-92710"/><use xlink:href="#Y7U51sN2B21F6FtdXlTc_pad-6" x="185420" y="-95250"/><use xlink:href="#Y7U51sN2B21F6FtdXlTc_pad-6" x="185420" y="-97790"/><use xlink:href="#Y7U51sN2B21F6FtdXlTc_pad-6" x="185420" y="-100330"/><use xlink:href="#Y7U51sN2B21F6FtdXlTc_pad-6" x="185420" y="-102870"/><use xlink:href="#Y7U51sN2B21F6FtdXlTc_pad-6" x="185420" y="-105410"/><use xlink:href="#Y7U51sN2B21F6FtdXlTc_pad-6" x="185420" y="-107950"/><use xlink:href="#Y7U51sN2B21F6FtdXlTc_pad-6" x="185420" y="-110490"/><use xlink:href="#Y7U51sN2B21F6FtdXlTc_pad-6" x="185420" y="-113030"/><use xlink:href="#Y7U51sN2B21F6FtdXlTc_pad-6" x="185420" y="-115570"/><use xlink:href="#Y7U51sN2B21F6FtdXlTc_pad-6" x="185420" y="-118110"/><use xlink:href="#Y7U51sN2B21F6FtdXlTc_pad-6" x="185420" y="-120650"/><use xlink:href="#Y7U51sN2B21F6FtdXlTc_pad-6" x="185420" y="-123190"/><use xlink:href="#Y7U51sN2B21F6FtdXlTc_pad-6" x="185420" y="-125730"/><use xlink:href="#Y7U51sN2B21F6FtdXlTc_pad-6" x="185420" y="-128270"/><use xlink:href="#Y7U51sN2B21F6FtdXlTc_pad-6" x="185420" y="-130810"/><use xlink:href="#Y7U51sN2B21F6FtdXlTc_pad-6" x="185420" y="-133350"/><use xlink:href="#Y7U51sN2B21F6FtdXlTc_pad-6" x="185420" y="-135890"/><use xlink:href="#Y7U51sN2B21F6FtdXlTc_pad-6" x="185420" y="-138430"/><use xlink:href="#Y7U51sN2B21F6FtdXlTc_pad-6" x="185420" y="-140970"/><use xlink:href="#Y7U51sN2B21F6FtdXlTc_pad-6" x="185420" y="-143510"/><use xlink:href="#Y7U51sN2B21F6FtdXlTc_pad-7" x="153500" y="-143000"/><use xlink:href="#Y7U51sN2B21F6FtdXlTc_pad-7" x="156040" y="-143000"/><use xlink:href="#Y7U51sN2B21F6FtdXlTc_pad-7" x="160225" y="-143000"/><path d="M 156000 -63700 161200 -63700 M 156000 -70500 161200 -70500" fill="none" stroke-width="800"/><path d="M 141073 -63455 141073 -61255 M 146973 -58955 144773 -58955 M 147173 -65255 144573 -65255" fill="none" stroke-width="1000"/></g></svg>