M48
; DRILL file {KiCad 9.0.0-9.0.0-2~ubuntu24.04.1} date 2025-03-11T17:32:50-0300
; FORMAT={-:-/ absolute / metric / decimal}
; #@! TF.CreationDate,2025-03-11T17:32:50-03:00
; #@! TF.GenerationSoftware,Kicad,Pcbnew,9.0.0-9.0.0-2~ubuntu24.04.1
; #@! TF.FileFunction,Plated,1,2,PTH
FMAT,2
METRIC
; #@! TA.AperFunction,Plated,PTH,ViaDrill
T1C0.600
; #@! TA.AperFunction,Plated,PTH,ComponentDrill
T2C0.800
; #@! TA.AperFunction,Plated,PTH,ComponentDrill
T3C0.900
; #@! TA.AperFunction,Plated,PTH,ComponentDrill
T4C1.000
; #@! TA.AperFunction,Plated,PTH,ComponentDrill
T5C1.016
; #@! TA.AperFunction,Plated,PTH,ComponentDrill
T6C1.020
; #@! TA.AperFunction,Plated,PTH,ComponentDrill
T7C1.100
%
G90
G05
T1
X102.871Y-80.474
X104.377Y-79.02
X109.335Y-108.088
X109.838Y-128.47
X110.0Y-57.25
X110.409Y-144.221
X110.556Y-114.521
X110.578Y-54.491
X110.881Y-131.651
X113.776Y-132.229
X114.99Y-131.458
X115.191Y-73.586
X116.241Y-93.768
X116.25Y-64.5
X116.272Y-141.628
X116.34Y-140.218
X116.546Y-101.337
X116.794Y-112.634
X116.818Y-103.732
X117.5Y-62.0
X117.528Y-83.855
X117.564Y-71.077
X117.74Y-128.508
X117.841Y-80.685
X118.75Y-59.0
X119.495Y-130.016
X120.0Y-67.0
X120.364Y-111.559
X120.975Y-137.409
X122.671Y-57.396
X123.25Y-70.0
X124.716Y-77.397
X125.16Y-122.774
X125.928Y-117.487
X126.0Y-74.5
X126.217Y-125.62
X126.315Y-104.754
X126.7Y-127.776
X127.77Y-129.984
X129.24Y-130.117
X130.653Y-130.642
X131.396Y-142.249
X131.67Y-110.041
X133.05Y-129.511
X133.997Y-112.634
X134.32Y-123.129
X136.747Y-113.673
X137.478Y-59.721
X138.766Y-58.382
X138.921Y-139.013
X140.117Y-87.665
X140.5Y-67.0
X140.602Y-64.215
X141.267Y-115.379
X141.585Y-89.619
X141.618Y-136.407
X141.771Y-60.107
X142.492Y-75.986
X144.765Y-123.743
X145.032Y-116.051
X145.25Y-66.25
X148.154Y-82.473
X148.189Y-140.457
X148.208Y-91.149
X148.208Y-105.056
X148.5Y-64.0
X148.74Y-84.901
X148.842Y-69.864
X149.064Y-77.759
X149.861Y-117.343
X150.789Y-112.198
X151.052Y-69.904
X151.186Y-72.99
X151.272Y-123.08
X155.137Y-68.462
X155.677Y-60.107
X156.007Y-76.528
X156.362Y-122.247
X156.396Y-90.492
X156.766Y-59.056
X157.698Y-140.889
X158.536Y-126.029
X159.205Y-107.478
X159.736Y-126.811
X159.75Y-124.75
X161.087Y-139.517
X161.394Y-129.691
X161.493Y-53.43
X162.103Y-57.435
X162.75Y-128.75
X164.0Y-122.0
X164.839Y-112.15
X165.0Y-123.5
X165.75Y-66.25
X165.762Y-95.878
X166.5Y-70.5
X166.892Y-115.87
X167.75Y-129.25
X168.185Y-111.227
X168.25Y-124.25
X169.022Y-139.92
X169.25Y-97.5
X169.25Y-100.25
X169.794Y-147.285
X171.0Y-103.5
X171.5Y-61.25
X172.132Y-83.311
X172.25Y-110.25
X173.25Y-56.25
X173.404Y-80.288
X173.406Y-100.262
X174.5Y-96.0
X174.809Y-75.99
X174.873Y-90.923
X174.886Y-86.562
X176.123Y-142.02
X176.25Y-112.75
X177.554Y-125.528
X177.75Y-53.75
X177.75Y-56.25
X178.0Y-128.75
X180.5Y-115.25
X181.889Y-128.257
X183.33Y-127.832
X185.25Y-148.5
T2
X159.9Y-141.9
X159.9Y-147.8
X162.4Y-141.9
X162.4Y-147.8
X162.729Y-54.8
X165.229Y-54.8
X173.2Y-118.1
X179.5Y-53.9
X180.82Y-118.1
X182.0Y-53.9
T3
X177.4Y-134.0
X177.4Y-136.54
T4
X113.125Y-52.2
X113.125Y-54.74
X113.295Y-144.15
X113.295Y-146.69
X115.665Y-52.2
X115.665Y-54.74
X115.835Y-144.15
X115.835Y-146.69
X118.205Y-52.2
X118.205Y-54.74
X118.375Y-144.15
X118.375Y-146.69
X119.84Y-74.339
X119.84Y-76.879
X119.84Y-79.419
X119.84Y-81.959
X119.84Y-84.499
X119.84Y-87.039
X119.84Y-89.579
X119.84Y-92.119
X120.745Y-52.2
X120.745Y-54.74
X120.915Y-144.15
X120.915Y-146.69
X122.38Y-74.339
X122.38Y-76.879
X122.38Y-79.419
X122.38Y-81.959
X122.38Y-84.499
X122.38Y-87.039
X122.38Y-89.579
X122.38Y-92.119
X123.285Y-52.2
X123.285Y-54.74
X123.455Y-144.15
X123.455Y-146.69
X125.825Y-52.2
X125.825Y-54.74
X125.995Y-144.15
X125.995Y-146.69
X128.365Y-52.2
X128.365Y-54.74
X128.535Y-144.15
X128.535Y-146.69
X130.905Y-52.2
X130.905Y-54.74
X131.075Y-144.15
X131.075Y-146.69
X135.62Y-144.15
X135.62Y-146.69
X138.16Y-144.15
X138.16Y-146.69
X138.949Y-126.02
X138.949Y-128.56
X139.8Y-52.16
X139.8Y-54.7
X140.7Y-144.15
X140.7Y-146.69
X141.489Y-126.02
X141.489Y-128.56
X142.34Y-52.16
X142.34Y-54.7
X143.24Y-144.15
X143.24Y-146.69
X143.84Y-74.459
X143.84Y-76.999
X143.84Y-79.539
X143.84Y-82.079
X143.84Y-84.619
X143.84Y-87.159
X143.84Y-89.699
X143.84Y-92.239
X144.029Y-126.02
X144.029Y-128.56
X144.88Y-52.16
X144.88Y-54.7
X145.78Y-144.15
X145.78Y-146.69
X146.38Y-74.459
X146.38Y-76.999
X146.38Y-79.539
X146.38Y-82.079
X146.38Y-84.619
X146.38Y-87.159
X146.38Y-89.699
X146.38Y-92.239
X146.569Y-126.02
X146.569Y-128.56
X147.42Y-52.16
X147.42Y-54.7
X148.32Y-144.15
X148.32Y-146.69
X149.109Y-126.02
X149.109Y-128.56
X149.96Y-52.16
X149.96Y-54.7
X150.86Y-144.15
X150.86Y-146.69
X151.649Y-126.02
X151.649Y-128.56
X152.5Y-52.16
X152.5Y-54.7
X153.4Y-144.15
X153.4Y-146.69
X154.189Y-126.02
X154.189Y-128.56
X155.04Y-52.16
X155.04Y-54.7
X156.729Y-126.02
X156.729Y-128.56
X157.58Y-52.16
X157.58Y-54.7
X168.34Y-74.419
X168.34Y-76.959
X168.34Y-79.499
X168.34Y-82.039
X168.34Y-84.579
X168.34Y-87.119
X168.34Y-89.659
X168.34Y-92.199
X170.88Y-74.419
X170.88Y-76.959
X170.88Y-79.499
X170.88Y-82.039
X170.88Y-84.579
X170.88Y-87.119
X170.88Y-89.659
X170.88Y-92.199
T5
X113.65Y-62.02
X113.65Y-64.56
X113.65Y-67.1
X113.65Y-69.64
X113.65Y-72.18
X113.65Y-74.72
X113.65Y-77.26
X113.65Y-79.8
X113.65Y-82.34
X113.65Y-84.88
X113.65Y-87.42
X113.65Y-89.96
X113.65Y-92.5
X113.65Y-95.04
X113.65Y-97.58
X113.65Y-100.12
X113.65Y-102.66
X113.65Y-105.2
X113.65Y-107.74
X113.65Y-110.331
X119.99Y-106.47
X120.35Y-119.44
X120.35Y-134.68
X122.53Y-106.47
X122.89Y-119.44
X122.89Y-134.68
X125.43Y-119.44
X125.43Y-134.68
X127.97Y-119.44
X127.97Y-134.68
X128.89Y-62.02
X128.89Y-64.56
X128.89Y-67.1
X128.89Y-69.64
X128.89Y-72.18
X128.89Y-74.72
X128.89Y-77.26
X128.89Y-79.8
X128.89Y-82.34
X128.89Y-84.88
X128.89Y-87.42
X128.89Y-89.96
X128.89Y-92.5
X128.89Y-95.04
X128.89Y-97.58
X128.89Y-100.12
X128.89Y-102.66
X128.89Y-105.2
X128.89Y-107.74
X128.89Y-110.28
X130.51Y-119.44
X130.51Y-134.68
X133.05Y-119.44
X133.05Y-134.68
X135.59Y-119.44
X135.59Y-134.68
X137.955Y-62.02
X137.955Y-64.56
X137.955Y-67.1
X137.955Y-69.64
X137.955Y-72.18
X137.955Y-74.72
X137.955Y-77.26
X137.955Y-79.8
X137.955Y-82.34
X137.955Y-84.88
X137.955Y-87.42
X137.955Y-89.96
X137.955Y-92.5
X137.955Y-95.04
X137.955Y-97.58
X137.955Y-100.12
X137.955Y-102.66
X137.955Y-105.2
X137.955Y-107.74
X137.955Y-110.331
X138.13Y-119.44
X138.13Y-134.68
X140.67Y-119.44
X140.67Y-134.68
X143.21Y-119.44
X143.21Y-134.68
X144.295Y-106.47
X145.75Y-119.44
X145.75Y-134.68
X146.835Y-106.47
X148.29Y-119.44
X148.29Y-134.68
X150.83Y-119.44
X150.83Y-134.68
X153.195Y-62.02
X153.195Y-64.56
X153.195Y-67.1
X153.195Y-69.64
X153.195Y-72.18
X153.195Y-74.72
X153.195Y-77.26
X153.195Y-79.8
X153.195Y-82.34
X153.195Y-84.88
X153.195Y-87.42
X153.195Y-89.96
X153.195Y-92.5
X153.195Y-95.04
X153.195Y-97.58
X153.195Y-100.12
X153.195Y-102.66
X153.195Y-105.2
X153.195Y-107.74
X153.195Y-110.28
X153.37Y-119.44
X153.37Y-134.68
X155.91Y-119.44
X155.91Y-134.68
X158.45Y-119.44
X158.45Y-134.68
X160.99Y-119.44
X160.99Y-134.68
X162.26Y-62.02
X162.26Y-64.56
X162.26Y-67.1
X162.26Y-69.64
X162.26Y-72.18
X162.26Y-74.72
X162.26Y-77.26
X162.26Y-79.8
X162.26Y-82.34
X162.26Y-84.88
X162.26Y-87.42
X162.26Y-89.96
X162.26Y-92.5
X162.26Y-95.04
X162.26Y-97.58
X162.26Y-100.12
X162.26Y-102.66
X162.26Y-105.2
X162.26Y-107.74
X162.26Y-110.331
X163.53Y-119.44
X163.53Y-134.68
X164.8Y-125.8
X164.8Y-128.34
X166.07Y-119.44
X166.07Y-134.68
X168.6Y-106.47
X168.61Y-119.44
X168.661Y-134.68
X171.14Y-106.47
X177.5Y-62.02
X177.5Y-64.56
X177.5Y-67.1
X177.5Y-69.64
X177.5Y-72.18
X177.5Y-74.72
X177.5Y-77.26
X177.5Y-79.8
X177.5Y-82.34
X177.5Y-84.88
X177.5Y-87.42
X177.5Y-89.96
X177.5Y-92.5
X177.5Y-95.04
X177.5Y-97.58
X177.5Y-100.12
X177.5Y-102.66
X177.5Y-105.2
X177.5Y-107.74
X177.5Y-110.28
T6
X106.68Y-57.15
X106.68Y-59.69
X106.68Y-62.23
X106.68Y-64.77
X106.68Y-67.31
X106.68Y-69.85
X106.68Y-72.39
X106.68Y-74.93
X106.68Y-81.28
X106.68Y-83.82
X106.68Y-86.36
X106.68Y-88.9
X106.68Y-91.44
X106.68Y-93.98
X106.68Y-96.52
X106.68Y-99.06
X106.68Y-101.6
X106.68Y-104.14
X106.68Y-106.68
X106.68Y-109.22
X106.68Y-111.76
X106.68Y-114.3
X106.68Y-116.84
X106.68Y-119.38
X106.68Y-121.92
X106.68Y-124.46
X106.68Y-127.0
X106.68Y-129.54
X106.68Y-132.08
X106.68Y-134.62
X106.68Y-137.16
X106.68Y-139.7
X106.68Y-142.24
X106.68Y-144.78
X106.68Y-147.32
X185.42Y-57.15
X185.42Y-59.69
X185.42Y-62.23
X185.42Y-64.77
X185.42Y-67.31
X185.42Y-69.85
X185.42Y-72.39
X185.42Y-74.93
X185.42Y-77.47
X185.42Y-80.01
X185.42Y-82.55
X185.42Y-85.09
X185.42Y-87.63
X185.42Y-90.17
X185.42Y-92.71
X185.42Y-95.25
X185.42Y-97.79
X185.42Y-100.33
X185.42Y-102.87
X185.42Y-105.41
X185.42Y-107.95
X185.42Y-110.49
X185.42Y-113.03
X185.42Y-115.57
X185.42Y-118.11
X185.42Y-120.65
X185.42Y-123.19
X185.42Y-125.73
X185.42Y-128.27
X185.42Y-130.81
X185.42Y-133.35
X185.42Y-135.89
X185.42Y-138.43
X185.42Y-140.97
X185.42Y-143.51
T7
X112.7Y-125.82
X112.7Y-135.98
X166.0Y-142.3
X167.7Y-146.0
X169.4Y-142.3
X170.16Y-54.045
X171.1Y-146.0
X172.7Y-54.045
X172.8Y-142.3
X175.24Y-54.045
M30
