G04 #@! TF.GenerationSoftware,KiCad,Pcbnew,9.0.0-9.0.0-2~ubuntu24.04.1*
G04 #@! TF.CreationDate,2025-03-11T17:32:50-03:00*
G04 #@! TF.ProjectId,Acquisition_STM_V02,41637175-6973-4697-9469-6f6e5f53544d,V02*
G04 #@! TF.SameCoordinates,Original*
G04 #@! TF.FileFunction,Legend,Bot*
G04 #@! TF.FilePolarity,Positive*
%FSLAX46Y46*%
G04 Gerber Fmt 4.6, Leading zero omitted, Abs format (unit mm)*
G04 Created by KiCad (PCBNEW 9.0.0-9.0.0-2~ubuntu24.04.1) date 2025-03-11 17:32:50*
%MOMM*%
%LPD*%
G01*
G04 APERTURE LIST*
%ADD10C,0.150000*%
%ADD11C,0.120000*%
%ADD12R,1.905000X2.000000*%
%ADD13O,1.905000X2.000000*%
%ADD14R,1.600000X1.600000*%
%ADD15C,1.600000*%
%ADD16R,1.800000X1.800000*%
%ADD17C,1.800000*%
%ADD18R,1.700000X1.700000*%
%ADD19O,1.700000X1.700000*%
%ADD20O,1.600000X1.600000*%
%ADD21O,2.500000X1.800000*%
%ADD22R,2.250000X1.727200*%
%ADD23O,2.250000X1.727200*%
%ADD24O,1.727200X1.727200*%
%ADD25R,2.500000X1.800000*%
%ADD26R,2.200000X2.200000*%
%ADD27O,2.200000X2.200000*%
%ADD28R,1.727200X2.250000*%
%ADD29O,1.727200X2.250000*%
%ADD30O,1.800000X1.800000*%
G04 APERTURE END LIST*
D10*
X102971429Y-55850068D02*
X103085715Y-55850068D01*
X103085715Y-55850068D02*
X103142858Y-55802449D01*
X103142858Y-55802449D02*
X103200001Y-55707211D01*
X103200001Y-55707211D02*
X103228572Y-55516735D01*
X103228572Y-55516735D02*
X103228572Y-55183402D01*
X103228572Y-55183402D02*
X103200001Y-54992926D01*
X103200001Y-54992926D02*
X103142858Y-54897688D01*
X103142858Y-54897688D02*
X103085715Y-54850068D01*
X103085715Y-54850068D02*
X102971429Y-54850068D01*
X102971429Y-54850068D02*
X102914287Y-54897688D01*
X102914287Y-54897688D02*
X102857144Y-54992926D01*
X102857144Y-54992926D02*
X102828572Y-55183402D01*
X102828572Y-55183402D02*
X102828572Y-55516735D01*
X102828572Y-55516735D02*
X102857144Y-55707211D01*
X102857144Y-55707211D02*
X102914287Y-55802449D01*
X102914287Y-55802449D02*
X102971429Y-55850068D01*
X103485715Y-55516735D02*
X103485715Y-54516735D01*
X103485715Y-55469116D02*
X103542858Y-55516735D01*
X103542858Y-55516735D02*
X103657143Y-55516735D01*
X103657143Y-55516735D02*
X103714286Y-55469116D01*
X103714286Y-55469116D02*
X103742858Y-55421497D01*
X103742858Y-55421497D02*
X103771429Y-55326259D01*
X103771429Y-55326259D02*
X103771429Y-55040545D01*
X103771429Y-55040545D02*
X103742858Y-54945307D01*
X103742858Y-54945307D02*
X103714286Y-54897688D01*
X103714286Y-54897688D02*
X103657143Y-54850068D01*
X103657143Y-54850068D02*
X103542858Y-54850068D01*
X103542858Y-54850068D02*
X103485715Y-54897688D01*
X104257143Y-54897688D02*
X104200000Y-54850068D01*
X104200000Y-54850068D02*
X104085715Y-54850068D01*
X104085715Y-54850068D02*
X104028572Y-54897688D01*
X104028572Y-54897688D02*
X104000000Y-54992926D01*
X104000000Y-54992926D02*
X104000000Y-55373878D01*
X104000000Y-55373878D02*
X104028572Y-55469116D01*
X104028572Y-55469116D02*
X104085715Y-55516735D01*
X104085715Y-55516735D02*
X104200000Y-55516735D01*
X104200000Y-55516735D02*
X104257143Y-55469116D01*
X104257143Y-55469116D02*
X104285715Y-55373878D01*
X104285715Y-55373878D02*
X104285715Y-55278640D01*
X104285715Y-55278640D02*
X104000000Y-55183402D01*
X104542858Y-55516735D02*
X104542858Y-54850068D01*
X104542858Y-55421497D02*
X104571429Y-55469116D01*
X104571429Y-55469116D02*
X104628572Y-55516735D01*
X104628572Y-55516735D02*
X104714286Y-55516735D01*
X104714286Y-55516735D02*
X104771429Y-55469116D01*
X104771429Y-55469116D02*
X104800001Y-55373878D01*
X104800001Y-55373878D02*
X104800001Y-54850068D01*
X105085715Y-55373878D02*
X105285715Y-55373878D01*
X105371429Y-54850068D02*
X105085715Y-54850068D01*
X105085715Y-54850068D02*
X105085715Y-55850068D01*
X105085715Y-55850068D02*
X105371429Y-55850068D01*
X105628572Y-54850068D02*
X105628572Y-55850068D01*
X105828571Y-55850068D02*
X106171429Y-55850068D01*
X106000000Y-54850068D02*
X106000000Y-55850068D01*
X106628572Y-54850068D02*
X106628572Y-55850068D01*
X106628572Y-54897688D02*
X106571429Y-54850068D01*
X106571429Y-54850068D02*
X106457143Y-54850068D01*
X106457143Y-54850068D02*
X106400000Y-54897688D01*
X106400000Y-54897688D02*
X106371429Y-54945307D01*
X106371429Y-54945307D02*
X106342857Y-55040545D01*
X106342857Y-55040545D02*
X106342857Y-55326259D01*
X106342857Y-55326259D02*
X106371429Y-55421497D01*
X106371429Y-55421497D02*
X106400000Y-55469116D01*
X106400000Y-55469116D02*
X106457143Y-55516735D01*
X106457143Y-55516735D02*
X106571429Y-55516735D01*
X106571429Y-55516735D02*
X106628572Y-55469116D01*
X107171429Y-55516735D02*
X107171429Y-54850068D01*
X106914286Y-55516735D02*
X106914286Y-54992926D01*
X106914286Y-54992926D02*
X106942857Y-54897688D01*
X106942857Y-54897688D02*
X107000000Y-54850068D01*
X107000000Y-54850068D02*
X107085714Y-54850068D01*
X107085714Y-54850068D02*
X107142857Y-54897688D01*
X107142857Y-54897688D02*
X107171429Y-54945307D01*
X107457143Y-54850068D02*
X107457143Y-55516735D01*
X107457143Y-55850068D02*
X107428571Y-55802449D01*
X107428571Y-55802449D02*
X107457143Y-55754830D01*
X107457143Y-55754830D02*
X107485714Y-55802449D01*
X107485714Y-55802449D02*
X107457143Y-55850068D01*
X107457143Y-55850068D02*
X107457143Y-55754830D01*
X107742857Y-55516735D02*
X107742857Y-54850068D01*
X107742857Y-55421497D02*
X107771428Y-55469116D01*
X107771428Y-55469116D02*
X107828571Y-55516735D01*
X107828571Y-55516735D02*
X107914285Y-55516735D01*
X107914285Y-55516735D02*
X107971428Y-55469116D01*
X107971428Y-55469116D02*
X108000000Y-55373878D01*
X108000000Y-55373878D02*
X108000000Y-54850068D01*
X108371428Y-54850068D02*
X108314285Y-54897688D01*
X108314285Y-54897688D02*
X108285714Y-54945307D01*
X108285714Y-54945307D02*
X108257142Y-55040545D01*
X108257142Y-55040545D02*
X108257142Y-55326259D01*
X108257142Y-55326259D02*
X108285714Y-55421497D01*
X108285714Y-55421497D02*
X108314285Y-55469116D01*
X108314285Y-55469116D02*
X108371428Y-55516735D01*
X108371428Y-55516735D02*
X108457142Y-55516735D01*
X108457142Y-55516735D02*
X108514285Y-55469116D01*
X108514285Y-55469116D02*
X108542857Y-55421497D01*
X108542857Y-55421497D02*
X108571428Y-55326259D01*
X108571428Y-55326259D02*
X108571428Y-55040545D01*
X108571428Y-55040545D02*
X108542857Y-54945307D01*
X108542857Y-54945307D02*
X108514285Y-54897688D01*
X108514285Y-54897688D02*
X108457142Y-54850068D01*
X108457142Y-54850068D02*
X108371428Y-54850068D01*
X102314285Y-53525839D02*
X102600000Y-53525839D01*
X102257142Y-53240124D02*
X102457142Y-54240124D01*
X102457142Y-54240124D02*
X102657142Y-53240124D01*
X103114286Y-53287744D02*
X103057143Y-53240124D01*
X103057143Y-53240124D02*
X102942857Y-53240124D01*
X102942857Y-53240124D02*
X102885714Y-53287744D01*
X102885714Y-53287744D02*
X102857143Y-53335363D01*
X102857143Y-53335363D02*
X102828571Y-53430601D01*
X102828571Y-53430601D02*
X102828571Y-53716315D01*
X102828571Y-53716315D02*
X102857143Y-53811553D01*
X102857143Y-53811553D02*
X102885714Y-53859172D01*
X102885714Y-53859172D02*
X102942857Y-53906791D01*
X102942857Y-53906791D02*
X103057143Y-53906791D01*
X103057143Y-53906791D02*
X103114286Y-53859172D01*
X103628572Y-53906791D02*
X103628572Y-52906791D01*
X103628572Y-53287744D02*
X103571429Y-53240124D01*
X103571429Y-53240124D02*
X103457143Y-53240124D01*
X103457143Y-53240124D02*
X103400000Y-53287744D01*
X103400000Y-53287744D02*
X103371429Y-53335363D01*
X103371429Y-53335363D02*
X103342857Y-53430601D01*
X103342857Y-53430601D02*
X103342857Y-53716315D01*
X103342857Y-53716315D02*
X103371429Y-53811553D01*
X103371429Y-53811553D02*
X103400000Y-53859172D01*
X103400000Y-53859172D02*
X103457143Y-53906791D01*
X103457143Y-53906791D02*
X103571429Y-53906791D01*
X103571429Y-53906791D02*
X103628572Y-53859172D01*
X104171429Y-53906791D02*
X104171429Y-53240124D01*
X103914286Y-53906791D02*
X103914286Y-53382982D01*
X103914286Y-53382982D02*
X103942857Y-53287744D01*
X103942857Y-53287744D02*
X104000000Y-53240124D01*
X104000000Y-53240124D02*
X104085714Y-53240124D01*
X104085714Y-53240124D02*
X104142857Y-53287744D01*
X104142857Y-53287744D02*
X104171429Y-53335363D01*
X104457143Y-53240124D02*
X104457143Y-53906791D01*
X104457143Y-54240124D02*
X104428571Y-54192505D01*
X104428571Y-54192505D02*
X104457143Y-54144886D01*
X104457143Y-54144886D02*
X104485714Y-54192505D01*
X104485714Y-54192505D02*
X104457143Y-54240124D01*
X104457143Y-54240124D02*
X104457143Y-54144886D01*
X104714285Y-53287744D02*
X104771428Y-53240124D01*
X104771428Y-53240124D02*
X104885714Y-53240124D01*
X104885714Y-53240124D02*
X104942857Y-53287744D01*
X104942857Y-53287744D02*
X104971428Y-53382982D01*
X104971428Y-53382982D02*
X104971428Y-53430601D01*
X104971428Y-53430601D02*
X104942857Y-53525839D01*
X104942857Y-53525839D02*
X104885714Y-53573458D01*
X104885714Y-53573458D02*
X104800000Y-53573458D01*
X104800000Y-53573458D02*
X104742857Y-53621077D01*
X104742857Y-53621077D02*
X104714285Y-53716315D01*
X104714285Y-53716315D02*
X104714285Y-53763934D01*
X104714285Y-53763934D02*
X104742857Y-53859172D01*
X104742857Y-53859172D02*
X104800000Y-53906791D01*
X104800000Y-53906791D02*
X104885714Y-53906791D01*
X104885714Y-53906791D02*
X104942857Y-53859172D01*
X105228571Y-53240124D02*
X105228571Y-53906791D01*
X105228571Y-54240124D02*
X105199999Y-54192505D01*
X105199999Y-54192505D02*
X105228571Y-54144886D01*
X105228571Y-54144886D02*
X105257142Y-54192505D01*
X105257142Y-54192505D02*
X105228571Y-54240124D01*
X105228571Y-54240124D02*
X105228571Y-54144886D01*
X105428570Y-53906791D02*
X105657142Y-53906791D01*
X105514285Y-54240124D02*
X105514285Y-53382982D01*
X105514285Y-53382982D02*
X105542856Y-53287744D01*
X105542856Y-53287744D02*
X105599999Y-53240124D01*
X105599999Y-53240124D02*
X105657142Y-53240124D01*
X105857142Y-53240124D02*
X105857142Y-53906791D01*
X105857142Y-54240124D02*
X105828570Y-54192505D01*
X105828570Y-54192505D02*
X105857142Y-54144886D01*
X105857142Y-54144886D02*
X105885713Y-54192505D01*
X105885713Y-54192505D02*
X105857142Y-54240124D01*
X105857142Y-54240124D02*
X105857142Y-54144886D01*
X106228570Y-53240124D02*
X106171427Y-53287744D01*
X106171427Y-53287744D02*
X106142856Y-53335363D01*
X106142856Y-53335363D02*
X106114284Y-53430601D01*
X106114284Y-53430601D02*
X106114284Y-53716315D01*
X106114284Y-53716315D02*
X106142856Y-53811553D01*
X106142856Y-53811553D02*
X106171427Y-53859172D01*
X106171427Y-53859172D02*
X106228570Y-53906791D01*
X106228570Y-53906791D02*
X106314284Y-53906791D01*
X106314284Y-53906791D02*
X106371427Y-53859172D01*
X106371427Y-53859172D02*
X106399999Y-53811553D01*
X106399999Y-53811553D02*
X106428570Y-53716315D01*
X106428570Y-53716315D02*
X106428570Y-53430601D01*
X106428570Y-53430601D02*
X106399999Y-53335363D01*
X106399999Y-53335363D02*
X106371427Y-53287744D01*
X106371427Y-53287744D02*
X106314284Y-53240124D01*
X106314284Y-53240124D02*
X106228570Y-53240124D01*
X106685713Y-53906791D02*
X106685713Y-53240124D01*
X106685713Y-53811553D02*
X106714284Y-53859172D01*
X106714284Y-53859172D02*
X106771427Y-53906791D01*
X106771427Y-53906791D02*
X106857141Y-53906791D01*
X106857141Y-53906791D02*
X106914284Y-53859172D01*
X106914284Y-53859172D02*
X106942856Y-53763934D01*
X106942856Y-53763934D02*
X106942856Y-53240124D01*
X107085713Y-53144886D02*
X107542855Y-53144886D01*
X107599998Y-54240124D02*
X107799998Y-53240124D01*
X107799998Y-53240124D02*
X107999998Y-54240124D01*
X108314284Y-54240124D02*
X108371427Y-54240124D01*
X108371427Y-54240124D02*
X108428570Y-54192505D01*
X108428570Y-54192505D02*
X108457142Y-54144886D01*
X108457142Y-54144886D02*
X108485713Y-54049648D01*
X108485713Y-54049648D02*
X108514284Y-53859172D01*
X108514284Y-53859172D02*
X108514284Y-53621077D01*
X108514284Y-53621077D02*
X108485713Y-53430601D01*
X108485713Y-53430601D02*
X108457142Y-53335363D01*
X108457142Y-53335363D02*
X108428570Y-53287744D01*
X108428570Y-53287744D02*
X108371427Y-53240124D01*
X108371427Y-53240124D02*
X108314284Y-53240124D01*
X108314284Y-53240124D02*
X108257142Y-53287744D01*
X108257142Y-53287744D02*
X108228570Y-53335363D01*
X108228570Y-53335363D02*
X108199999Y-53430601D01*
X108199999Y-53430601D02*
X108171427Y-53621077D01*
X108171427Y-53621077D02*
X108171427Y-53859172D01*
X108171427Y-53859172D02*
X108199999Y-54049648D01*
X108199999Y-54049648D02*
X108228570Y-54144886D01*
X108228570Y-54144886D02*
X108257142Y-54192505D01*
X108257142Y-54192505D02*
X108314284Y-54240124D01*
X108742856Y-54144886D02*
X108771428Y-54192505D01*
X108771428Y-54192505D02*
X108828571Y-54240124D01*
X108828571Y-54240124D02*
X108971428Y-54240124D01*
X108971428Y-54240124D02*
X109028571Y-54192505D01*
X109028571Y-54192505D02*
X109057142Y-54144886D01*
X109057142Y-54144886D02*
X109085713Y-54049648D01*
X109085713Y-54049648D02*
X109085713Y-53954410D01*
X109085713Y-53954410D02*
X109057142Y-53811553D01*
X109057142Y-53811553D02*
X108714285Y-53240124D01*
X108714285Y-53240124D02*
X109085713Y-53240124D01*
X104671427Y-52534942D02*
X104699999Y-52582561D01*
X104699999Y-52582561D02*
X104757142Y-52630180D01*
X104757142Y-52630180D02*
X104899999Y-52630180D01*
X104899999Y-52630180D02*
X104957142Y-52582561D01*
X104957142Y-52582561D02*
X104985713Y-52534942D01*
X104985713Y-52534942D02*
X105014284Y-52439704D01*
X105014284Y-52439704D02*
X105014284Y-52344466D01*
X105014284Y-52344466D02*
X104985713Y-52201609D01*
X104985713Y-52201609D02*
X104642856Y-51630180D01*
X104642856Y-51630180D02*
X105014284Y-51630180D01*
X105385713Y-52630180D02*
X105442856Y-52630180D01*
X105442856Y-52630180D02*
X105499999Y-52582561D01*
X105499999Y-52582561D02*
X105528571Y-52534942D01*
X105528571Y-52534942D02*
X105557142Y-52439704D01*
X105557142Y-52439704D02*
X105585713Y-52249228D01*
X105585713Y-52249228D02*
X105585713Y-52011133D01*
X105585713Y-52011133D02*
X105557142Y-51820657D01*
X105557142Y-51820657D02*
X105528571Y-51725419D01*
X105528571Y-51725419D02*
X105499999Y-51677800D01*
X105499999Y-51677800D02*
X105442856Y-51630180D01*
X105442856Y-51630180D02*
X105385713Y-51630180D01*
X105385713Y-51630180D02*
X105328571Y-51677800D01*
X105328571Y-51677800D02*
X105299999Y-51725419D01*
X105299999Y-51725419D02*
X105271428Y-51820657D01*
X105271428Y-51820657D02*
X105242856Y-52011133D01*
X105242856Y-52011133D02*
X105242856Y-52249228D01*
X105242856Y-52249228D02*
X105271428Y-52439704D01*
X105271428Y-52439704D02*
X105299999Y-52534942D01*
X105299999Y-52534942D02*
X105328571Y-52582561D01*
X105328571Y-52582561D02*
X105385713Y-52630180D01*
X105814285Y-52534942D02*
X105842857Y-52582561D01*
X105842857Y-52582561D02*
X105900000Y-52630180D01*
X105900000Y-52630180D02*
X106042857Y-52630180D01*
X106042857Y-52630180D02*
X106100000Y-52582561D01*
X106100000Y-52582561D02*
X106128571Y-52534942D01*
X106128571Y-52534942D02*
X106157142Y-52439704D01*
X106157142Y-52439704D02*
X106157142Y-52344466D01*
X106157142Y-52344466D02*
X106128571Y-52201609D01*
X106128571Y-52201609D02*
X105785714Y-51630180D01*
X105785714Y-51630180D02*
X106157142Y-51630180D01*
X106700000Y-52630180D02*
X106414286Y-52630180D01*
X106414286Y-52630180D02*
X106385714Y-52153990D01*
X106385714Y-52153990D02*
X106414286Y-52201609D01*
X106414286Y-52201609D02*
X106471429Y-52249228D01*
X106471429Y-52249228D02*
X106614286Y-52249228D01*
X106614286Y-52249228D02*
X106671429Y-52201609D01*
X106671429Y-52201609D02*
X106700000Y-52153990D01*
X106700000Y-52153990D02*
X106728571Y-52058752D01*
X106728571Y-52058752D02*
X106728571Y-51820657D01*
X106728571Y-51820657D02*
X106700000Y-51725419D01*
X106700000Y-51725419D02*
X106671429Y-51677800D01*
X106671429Y-51677800D02*
X106614286Y-51630180D01*
X106614286Y-51630180D02*
X106471429Y-51630180D01*
X106471429Y-51630180D02*
X106414286Y-51677800D01*
X106414286Y-51677800D02*
X106385714Y-51725419D01*
X190128570Y-145749931D02*
X190014284Y-145749931D01*
X190014284Y-145749931D02*
X189957141Y-145797550D01*
X189957141Y-145797550D02*
X189899998Y-145892788D01*
X189899998Y-145892788D02*
X189871427Y-146083264D01*
X189871427Y-146083264D02*
X189871427Y-146416597D01*
X189871427Y-146416597D02*
X189899998Y-146607073D01*
X189899998Y-146607073D02*
X189957141Y-146702312D01*
X189957141Y-146702312D02*
X190014284Y-146749931D01*
X190014284Y-146749931D02*
X190128570Y-146749931D01*
X190128570Y-146749931D02*
X190185713Y-146702312D01*
X190185713Y-146702312D02*
X190242855Y-146607073D01*
X190242855Y-146607073D02*
X190271427Y-146416597D01*
X190271427Y-146416597D02*
X190271427Y-146083264D01*
X190271427Y-146083264D02*
X190242855Y-145892788D01*
X190242855Y-145892788D02*
X190185713Y-145797550D01*
X190185713Y-145797550D02*
X190128570Y-145749931D01*
X189614284Y-146083264D02*
X189614284Y-147083264D01*
X189614284Y-146130883D02*
X189557142Y-146083264D01*
X189557142Y-146083264D02*
X189442856Y-146083264D01*
X189442856Y-146083264D02*
X189385713Y-146130883D01*
X189385713Y-146130883D02*
X189357142Y-146178502D01*
X189357142Y-146178502D02*
X189328570Y-146273740D01*
X189328570Y-146273740D02*
X189328570Y-146559454D01*
X189328570Y-146559454D02*
X189357142Y-146654692D01*
X189357142Y-146654692D02*
X189385713Y-146702312D01*
X189385713Y-146702312D02*
X189442856Y-146749931D01*
X189442856Y-146749931D02*
X189557142Y-146749931D01*
X189557142Y-146749931D02*
X189614284Y-146702312D01*
X188842856Y-146702312D02*
X188899999Y-146749931D01*
X188899999Y-146749931D02*
X189014285Y-146749931D01*
X189014285Y-146749931D02*
X189071427Y-146702312D01*
X189071427Y-146702312D02*
X189099999Y-146607073D01*
X189099999Y-146607073D02*
X189099999Y-146226121D01*
X189099999Y-146226121D02*
X189071427Y-146130883D01*
X189071427Y-146130883D02*
X189014285Y-146083264D01*
X189014285Y-146083264D02*
X188899999Y-146083264D01*
X188899999Y-146083264D02*
X188842856Y-146130883D01*
X188842856Y-146130883D02*
X188814285Y-146226121D01*
X188814285Y-146226121D02*
X188814285Y-146321359D01*
X188814285Y-146321359D02*
X189099999Y-146416597D01*
X188557141Y-146083264D02*
X188557141Y-146749931D01*
X188557141Y-146178502D02*
X188528570Y-146130883D01*
X188528570Y-146130883D02*
X188471427Y-146083264D01*
X188471427Y-146083264D02*
X188385713Y-146083264D01*
X188385713Y-146083264D02*
X188328570Y-146130883D01*
X188328570Y-146130883D02*
X188299999Y-146226121D01*
X188299999Y-146226121D02*
X188299999Y-146749931D01*
X188014284Y-146226121D02*
X187814284Y-146226121D01*
X187728570Y-146749931D02*
X188014284Y-146749931D01*
X188014284Y-146749931D02*
X188014284Y-145749931D01*
X188014284Y-145749931D02*
X187728570Y-145749931D01*
X187471427Y-146749931D02*
X187471427Y-145749931D01*
X187271428Y-145749931D02*
X186928571Y-145749931D01*
X187099999Y-146749931D02*
X187099999Y-145749931D01*
X186471428Y-146749931D02*
X186471428Y-145749931D01*
X186471428Y-146702312D02*
X186528570Y-146749931D01*
X186528570Y-146749931D02*
X186642856Y-146749931D01*
X186642856Y-146749931D02*
X186699999Y-146702312D01*
X186699999Y-146702312D02*
X186728570Y-146654692D01*
X186728570Y-146654692D02*
X186757142Y-146559454D01*
X186757142Y-146559454D02*
X186757142Y-146273740D01*
X186757142Y-146273740D02*
X186728570Y-146178502D01*
X186728570Y-146178502D02*
X186699999Y-146130883D01*
X186699999Y-146130883D02*
X186642856Y-146083264D01*
X186642856Y-146083264D02*
X186528570Y-146083264D01*
X186528570Y-146083264D02*
X186471428Y-146130883D01*
X185928571Y-146083264D02*
X185928571Y-146749931D01*
X186185713Y-146083264D02*
X186185713Y-146607073D01*
X186185713Y-146607073D02*
X186157142Y-146702312D01*
X186157142Y-146702312D02*
X186099999Y-146749931D01*
X186099999Y-146749931D02*
X186014285Y-146749931D01*
X186014285Y-146749931D02*
X185957142Y-146702312D01*
X185957142Y-146702312D02*
X185928571Y-146654692D01*
X185642856Y-146749931D02*
X185642856Y-146083264D01*
X185642856Y-145749931D02*
X185671428Y-145797550D01*
X185671428Y-145797550D02*
X185642856Y-145845169D01*
X185642856Y-145845169D02*
X185614285Y-145797550D01*
X185614285Y-145797550D02*
X185642856Y-145749931D01*
X185642856Y-145749931D02*
X185642856Y-145845169D01*
X185357142Y-146083264D02*
X185357142Y-146749931D01*
X185357142Y-146178502D02*
X185328571Y-146130883D01*
X185328571Y-146130883D02*
X185271428Y-146083264D01*
X185271428Y-146083264D02*
X185185714Y-146083264D01*
X185185714Y-146083264D02*
X185128571Y-146130883D01*
X185128571Y-146130883D02*
X185100000Y-146226121D01*
X185100000Y-146226121D02*
X185100000Y-146749931D01*
X184728571Y-146749931D02*
X184785714Y-146702312D01*
X184785714Y-146702312D02*
X184814285Y-146654692D01*
X184814285Y-146654692D02*
X184842857Y-146559454D01*
X184842857Y-146559454D02*
X184842857Y-146273740D01*
X184842857Y-146273740D02*
X184814285Y-146178502D01*
X184814285Y-146178502D02*
X184785714Y-146130883D01*
X184785714Y-146130883D02*
X184728571Y-146083264D01*
X184728571Y-146083264D02*
X184642857Y-146083264D01*
X184642857Y-146083264D02*
X184585714Y-146130883D01*
X184585714Y-146130883D02*
X184557143Y-146178502D01*
X184557143Y-146178502D02*
X184528571Y-146273740D01*
X184528571Y-146273740D02*
X184528571Y-146559454D01*
X184528571Y-146559454D02*
X184557143Y-146654692D01*
X184557143Y-146654692D02*
X184585714Y-146702312D01*
X184585714Y-146702312D02*
X184642857Y-146749931D01*
X184642857Y-146749931D02*
X184728571Y-146749931D01*
X190785714Y-148074160D02*
X190500000Y-148074160D01*
X190842857Y-148359875D02*
X190642857Y-147359875D01*
X190642857Y-147359875D02*
X190442857Y-148359875D01*
X189985714Y-148312256D02*
X190042856Y-148359875D01*
X190042856Y-148359875D02*
X190157142Y-148359875D01*
X190157142Y-148359875D02*
X190214285Y-148312256D01*
X190214285Y-148312256D02*
X190242856Y-148264636D01*
X190242856Y-148264636D02*
X190271428Y-148169398D01*
X190271428Y-148169398D02*
X190271428Y-147883684D01*
X190271428Y-147883684D02*
X190242856Y-147788446D01*
X190242856Y-147788446D02*
X190214285Y-147740827D01*
X190214285Y-147740827D02*
X190157142Y-147693208D01*
X190157142Y-147693208D02*
X190042856Y-147693208D01*
X190042856Y-147693208D02*
X189985714Y-147740827D01*
X189471428Y-147693208D02*
X189471428Y-148693208D01*
X189471428Y-148312256D02*
X189528570Y-148359875D01*
X189528570Y-148359875D02*
X189642856Y-148359875D01*
X189642856Y-148359875D02*
X189699999Y-148312256D01*
X189699999Y-148312256D02*
X189728570Y-148264636D01*
X189728570Y-148264636D02*
X189757142Y-148169398D01*
X189757142Y-148169398D02*
X189757142Y-147883684D01*
X189757142Y-147883684D02*
X189728570Y-147788446D01*
X189728570Y-147788446D02*
X189699999Y-147740827D01*
X189699999Y-147740827D02*
X189642856Y-147693208D01*
X189642856Y-147693208D02*
X189528570Y-147693208D01*
X189528570Y-147693208D02*
X189471428Y-147740827D01*
X188928571Y-147693208D02*
X188928571Y-148359875D01*
X189185713Y-147693208D02*
X189185713Y-148217017D01*
X189185713Y-148217017D02*
X189157142Y-148312256D01*
X189157142Y-148312256D02*
X189099999Y-148359875D01*
X189099999Y-148359875D02*
X189014285Y-148359875D01*
X189014285Y-148359875D02*
X188957142Y-148312256D01*
X188957142Y-148312256D02*
X188928571Y-148264636D01*
X188642856Y-148359875D02*
X188642856Y-147693208D01*
X188642856Y-147359875D02*
X188671428Y-147407494D01*
X188671428Y-147407494D02*
X188642856Y-147455113D01*
X188642856Y-147455113D02*
X188614285Y-147407494D01*
X188614285Y-147407494D02*
X188642856Y-147359875D01*
X188642856Y-147359875D02*
X188642856Y-147455113D01*
X188385714Y-148312256D02*
X188328571Y-148359875D01*
X188328571Y-148359875D02*
X188214285Y-148359875D01*
X188214285Y-148359875D02*
X188157142Y-148312256D01*
X188157142Y-148312256D02*
X188128571Y-148217017D01*
X188128571Y-148217017D02*
X188128571Y-148169398D01*
X188128571Y-148169398D02*
X188157142Y-148074160D01*
X188157142Y-148074160D02*
X188214285Y-148026541D01*
X188214285Y-148026541D02*
X188300000Y-148026541D01*
X188300000Y-148026541D02*
X188357142Y-147978922D01*
X188357142Y-147978922D02*
X188385714Y-147883684D01*
X188385714Y-147883684D02*
X188385714Y-147836065D01*
X188385714Y-147836065D02*
X188357142Y-147740827D01*
X188357142Y-147740827D02*
X188300000Y-147693208D01*
X188300000Y-147693208D02*
X188214285Y-147693208D01*
X188214285Y-147693208D02*
X188157142Y-147740827D01*
X187871428Y-148359875D02*
X187871428Y-147693208D01*
X187871428Y-147359875D02*
X187900000Y-147407494D01*
X187900000Y-147407494D02*
X187871428Y-147455113D01*
X187871428Y-147455113D02*
X187842857Y-147407494D01*
X187842857Y-147407494D02*
X187871428Y-147359875D01*
X187871428Y-147359875D02*
X187871428Y-147455113D01*
X187671429Y-147693208D02*
X187442857Y-147693208D01*
X187585714Y-147359875D02*
X187585714Y-148217017D01*
X187585714Y-148217017D02*
X187557143Y-148312256D01*
X187557143Y-148312256D02*
X187500000Y-148359875D01*
X187500000Y-148359875D02*
X187442857Y-148359875D01*
X187242857Y-148359875D02*
X187242857Y-147693208D01*
X187242857Y-147359875D02*
X187271429Y-147407494D01*
X187271429Y-147407494D02*
X187242857Y-147455113D01*
X187242857Y-147455113D02*
X187214286Y-147407494D01*
X187214286Y-147407494D02*
X187242857Y-147359875D01*
X187242857Y-147359875D02*
X187242857Y-147455113D01*
X186871429Y-148359875D02*
X186928572Y-148312256D01*
X186928572Y-148312256D02*
X186957143Y-148264636D01*
X186957143Y-148264636D02*
X186985715Y-148169398D01*
X186985715Y-148169398D02*
X186985715Y-147883684D01*
X186985715Y-147883684D02*
X186957143Y-147788446D01*
X186957143Y-147788446D02*
X186928572Y-147740827D01*
X186928572Y-147740827D02*
X186871429Y-147693208D01*
X186871429Y-147693208D02*
X186785715Y-147693208D01*
X186785715Y-147693208D02*
X186728572Y-147740827D01*
X186728572Y-147740827D02*
X186700001Y-147788446D01*
X186700001Y-147788446D02*
X186671429Y-147883684D01*
X186671429Y-147883684D02*
X186671429Y-148169398D01*
X186671429Y-148169398D02*
X186700001Y-148264636D01*
X186700001Y-148264636D02*
X186728572Y-148312256D01*
X186728572Y-148312256D02*
X186785715Y-148359875D01*
X186785715Y-148359875D02*
X186871429Y-148359875D01*
X186414286Y-147693208D02*
X186414286Y-148359875D01*
X186414286Y-147788446D02*
X186385715Y-147740827D01*
X186385715Y-147740827D02*
X186328572Y-147693208D01*
X186328572Y-147693208D02*
X186242858Y-147693208D01*
X186242858Y-147693208D02*
X186185715Y-147740827D01*
X186185715Y-147740827D02*
X186157144Y-147836065D01*
X186157144Y-147836065D02*
X186157144Y-148359875D01*
X186014287Y-148455113D02*
X185557144Y-148455113D01*
X185500001Y-147359875D02*
X185300001Y-148359875D01*
X185300001Y-148359875D02*
X185100001Y-147359875D01*
X184785715Y-147359875D02*
X184728572Y-147359875D01*
X184728572Y-147359875D02*
X184671429Y-147407494D01*
X184671429Y-147407494D02*
X184642858Y-147455113D01*
X184642858Y-147455113D02*
X184614286Y-147550351D01*
X184614286Y-147550351D02*
X184585715Y-147740827D01*
X184585715Y-147740827D02*
X184585715Y-147978922D01*
X184585715Y-147978922D02*
X184614286Y-148169398D01*
X184614286Y-148169398D02*
X184642858Y-148264636D01*
X184642858Y-148264636D02*
X184671429Y-148312256D01*
X184671429Y-148312256D02*
X184728572Y-148359875D01*
X184728572Y-148359875D02*
X184785715Y-148359875D01*
X184785715Y-148359875D02*
X184842858Y-148312256D01*
X184842858Y-148312256D02*
X184871429Y-148264636D01*
X184871429Y-148264636D02*
X184900000Y-148169398D01*
X184900000Y-148169398D02*
X184928572Y-147978922D01*
X184928572Y-147978922D02*
X184928572Y-147740827D01*
X184928572Y-147740827D02*
X184900000Y-147550351D01*
X184900000Y-147550351D02*
X184871429Y-147455113D01*
X184871429Y-147455113D02*
X184842858Y-147407494D01*
X184842858Y-147407494D02*
X184785715Y-147359875D01*
X184357143Y-147455113D02*
X184328571Y-147407494D01*
X184328571Y-147407494D02*
X184271429Y-147359875D01*
X184271429Y-147359875D02*
X184128571Y-147359875D01*
X184128571Y-147359875D02*
X184071429Y-147407494D01*
X184071429Y-147407494D02*
X184042857Y-147455113D01*
X184042857Y-147455113D02*
X184014286Y-147550351D01*
X184014286Y-147550351D02*
X184014286Y-147645589D01*
X184014286Y-147645589D02*
X184042857Y-147788446D01*
X184042857Y-147788446D02*
X184385714Y-148359875D01*
X184385714Y-148359875D02*
X184014286Y-148359875D01*
X188428572Y-149065057D02*
X188400000Y-149017438D01*
X188400000Y-149017438D02*
X188342858Y-148969819D01*
X188342858Y-148969819D02*
X188200000Y-148969819D01*
X188200000Y-148969819D02*
X188142858Y-149017438D01*
X188142858Y-149017438D02*
X188114286Y-149065057D01*
X188114286Y-149065057D02*
X188085715Y-149160295D01*
X188085715Y-149160295D02*
X188085715Y-149255533D01*
X188085715Y-149255533D02*
X188114286Y-149398390D01*
X188114286Y-149398390D02*
X188457143Y-149969819D01*
X188457143Y-149969819D02*
X188085715Y-149969819D01*
X187714286Y-148969819D02*
X187657143Y-148969819D01*
X187657143Y-148969819D02*
X187600000Y-149017438D01*
X187600000Y-149017438D02*
X187571429Y-149065057D01*
X187571429Y-149065057D02*
X187542857Y-149160295D01*
X187542857Y-149160295D02*
X187514286Y-149350771D01*
X187514286Y-149350771D02*
X187514286Y-149588866D01*
X187514286Y-149588866D02*
X187542857Y-149779342D01*
X187542857Y-149779342D02*
X187571429Y-149874580D01*
X187571429Y-149874580D02*
X187600000Y-149922200D01*
X187600000Y-149922200D02*
X187657143Y-149969819D01*
X187657143Y-149969819D02*
X187714286Y-149969819D01*
X187714286Y-149969819D02*
X187771429Y-149922200D01*
X187771429Y-149922200D02*
X187800000Y-149874580D01*
X187800000Y-149874580D02*
X187828571Y-149779342D01*
X187828571Y-149779342D02*
X187857143Y-149588866D01*
X187857143Y-149588866D02*
X187857143Y-149350771D01*
X187857143Y-149350771D02*
X187828571Y-149160295D01*
X187828571Y-149160295D02*
X187800000Y-149065057D01*
X187800000Y-149065057D02*
X187771429Y-149017438D01*
X187771429Y-149017438D02*
X187714286Y-148969819D01*
X187285714Y-149065057D02*
X187257142Y-149017438D01*
X187257142Y-149017438D02*
X187200000Y-148969819D01*
X187200000Y-148969819D02*
X187057142Y-148969819D01*
X187057142Y-148969819D02*
X187000000Y-149017438D01*
X187000000Y-149017438D02*
X186971428Y-149065057D01*
X186971428Y-149065057D02*
X186942857Y-149160295D01*
X186942857Y-149160295D02*
X186942857Y-149255533D01*
X186942857Y-149255533D02*
X186971428Y-149398390D01*
X186971428Y-149398390D02*
X187314285Y-149969819D01*
X187314285Y-149969819D02*
X186942857Y-149969819D01*
X186399999Y-148969819D02*
X186685713Y-148969819D01*
X186685713Y-148969819D02*
X186714285Y-149446009D01*
X186714285Y-149446009D02*
X186685713Y-149398390D01*
X186685713Y-149398390D02*
X186628571Y-149350771D01*
X186628571Y-149350771D02*
X186485713Y-149350771D01*
X186485713Y-149350771D02*
X186428571Y-149398390D01*
X186428571Y-149398390D02*
X186399999Y-149446009D01*
X186399999Y-149446009D02*
X186371428Y-149541247D01*
X186371428Y-149541247D02*
X186371428Y-149779342D01*
X186371428Y-149779342D02*
X186399999Y-149874580D01*
X186399999Y-149874580D02*
X186428571Y-149922200D01*
X186428571Y-149922200D02*
X186485713Y-149969819D01*
X186485713Y-149969819D02*
X186628571Y-149969819D01*
X186628571Y-149969819D02*
X186685713Y-149922200D01*
X186685713Y-149922200D02*
X186714285Y-149874580D01*
X149192337Y-116095239D02*
X149192337Y-115714286D01*
X149192337Y-115714286D02*
X149097099Y-115523810D01*
X149097099Y-115523810D02*
X148906623Y-115333334D01*
X148906623Y-115333334D02*
X148525671Y-115238096D01*
X148525671Y-115238096D02*
X147859004Y-115238096D01*
X147859004Y-115238096D02*
X147478052Y-115333334D01*
X147478052Y-115333334D02*
X147287576Y-115523810D01*
X147287576Y-115523810D02*
X147192337Y-115714286D01*
X147192337Y-115714286D02*
X147192337Y-116095239D01*
X147192337Y-116095239D02*
X147287576Y-116285715D01*
X147287576Y-116285715D02*
X147478052Y-116476191D01*
X147478052Y-116476191D02*
X147859004Y-116571429D01*
X147859004Y-116571429D02*
X148525671Y-116571429D01*
X148525671Y-116571429D02*
X148906623Y-116476191D01*
X148906623Y-116476191D02*
X149097099Y-116285715D01*
X149097099Y-116285715D02*
X149192337Y-116095239D01*
X148525671Y-114380953D02*
X146525671Y-114380953D01*
X148430433Y-114380953D02*
X148525671Y-114190477D01*
X148525671Y-114190477D02*
X148525671Y-113809524D01*
X148525671Y-113809524D02*
X148430433Y-113619048D01*
X148430433Y-113619048D02*
X148335195Y-113523810D01*
X148335195Y-113523810D02*
X148144718Y-113428572D01*
X148144718Y-113428572D02*
X147573290Y-113428572D01*
X147573290Y-113428572D02*
X147382814Y-113523810D01*
X147382814Y-113523810D02*
X147287576Y-113619048D01*
X147287576Y-113619048D02*
X147192337Y-113809524D01*
X147192337Y-113809524D02*
X147192337Y-114190477D01*
X147192337Y-114190477D02*
X147287576Y-114380953D01*
X147287576Y-111809524D02*
X147192337Y-112000000D01*
X147192337Y-112000000D02*
X147192337Y-112380953D01*
X147192337Y-112380953D02*
X147287576Y-112571429D01*
X147287576Y-112571429D02*
X147478052Y-112666667D01*
X147478052Y-112666667D02*
X148239956Y-112666667D01*
X148239956Y-112666667D02*
X148430433Y-112571429D01*
X148430433Y-112571429D02*
X148525671Y-112380953D01*
X148525671Y-112380953D02*
X148525671Y-112000000D01*
X148525671Y-112000000D02*
X148430433Y-111809524D01*
X148430433Y-111809524D02*
X148239956Y-111714286D01*
X148239956Y-111714286D02*
X148049480Y-111714286D01*
X148049480Y-111714286D02*
X147859004Y-112666667D01*
X148525671Y-110857143D02*
X147192337Y-110857143D01*
X148335195Y-110857143D02*
X148430433Y-110761905D01*
X148430433Y-110761905D02*
X148525671Y-110571429D01*
X148525671Y-110571429D02*
X148525671Y-110285714D01*
X148525671Y-110285714D02*
X148430433Y-110095238D01*
X148430433Y-110095238D02*
X148239956Y-110000000D01*
X148239956Y-110000000D02*
X147192337Y-110000000D01*
X148239956Y-109047619D02*
X148239956Y-108380952D01*
X147192337Y-108095238D02*
X147192337Y-109047619D01*
X147192337Y-109047619D02*
X149192337Y-109047619D01*
X149192337Y-109047619D02*
X149192337Y-108095238D01*
X147192337Y-107238095D02*
X149192337Y-107238095D01*
X149192337Y-106571428D02*
X149192337Y-105428571D01*
X147192337Y-106000000D02*
X149192337Y-106000000D01*
X147192337Y-103904761D02*
X149192337Y-103904761D01*
X147287576Y-103904761D02*
X147192337Y-104095237D01*
X147192337Y-104095237D02*
X147192337Y-104476190D01*
X147192337Y-104476190D02*
X147287576Y-104666666D01*
X147287576Y-104666666D02*
X147382814Y-104761904D01*
X147382814Y-104761904D02*
X147573290Y-104857142D01*
X147573290Y-104857142D02*
X148144718Y-104857142D01*
X148144718Y-104857142D02*
X148335195Y-104761904D01*
X148335195Y-104761904D02*
X148430433Y-104666666D01*
X148430433Y-104666666D02*
X148525671Y-104476190D01*
X148525671Y-104476190D02*
X148525671Y-104095237D01*
X148525671Y-104095237D02*
X148430433Y-103904761D01*
X148525671Y-102095237D02*
X147192337Y-102095237D01*
X148525671Y-102952380D02*
X147478052Y-102952380D01*
X147478052Y-102952380D02*
X147287576Y-102857142D01*
X147287576Y-102857142D02*
X147192337Y-102666666D01*
X147192337Y-102666666D02*
X147192337Y-102380951D01*
X147192337Y-102380951D02*
X147287576Y-102190475D01*
X147287576Y-102190475D02*
X147382814Y-102095237D01*
X147192337Y-101142856D02*
X148525671Y-101142856D01*
X149192337Y-101142856D02*
X149097099Y-101238094D01*
X149097099Y-101238094D02*
X149001861Y-101142856D01*
X149001861Y-101142856D02*
X149097099Y-101047618D01*
X149097099Y-101047618D02*
X149192337Y-101142856D01*
X149192337Y-101142856D02*
X149001861Y-101142856D01*
X148525671Y-100190475D02*
X147192337Y-100190475D01*
X148335195Y-100190475D02*
X148430433Y-100095237D01*
X148430433Y-100095237D02*
X148525671Y-99904761D01*
X148525671Y-99904761D02*
X148525671Y-99619046D01*
X148525671Y-99619046D02*
X148430433Y-99428570D01*
X148430433Y-99428570D02*
X148239956Y-99333332D01*
X148239956Y-99333332D02*
X147192337Y-99333332D01*
X147192337Y-98095237D02*
X147287576Y-98285713D01*
X147287576Y-98285713D02*
X147382814Y-98380951D01*
X147382814Y-98380951D02*
X147573290Y-98476189D01*
X147573290Y-98476189D02*
X148144718Y-98476189D01*
X148144718Y-98476189D02*
X148335195Y-98380951D01*
X148335195Y-98380951D02*
X148430433Y-98285713D01*
X148430433Y-98285713D02*
X148525671Y-98095237D01*
X148525671Y-98095237D02*
X148525671Y-97809522D01*
X148525671Y-97809522D02*
X148430433Y-97619046D01*
X148430433Y-97619046D02*
X148335195Y-97523808D01*
X148335195Y-97523808D02*
X148144718Y-97428570D01*
X148144718Y-97428570D02*
X147573290Y-97428570D01*
X147573290Y-97428570D02*
X147382814Y-97523808D01*
X147382814Y-97523808D02*
X147287576Y-97619046D01*
X147287576Y-97619046D02*
X147192337Y-97809522D01*
X147192337Y-97809522D02*
X147192337Y-98095237D01*
X144543878Y-118285715D02*
X144543878Y-117333334D01*
X143972449Y-118476191D02*
X145972449Y-117809525D01*
X145972449Y-117809525D02*
X143972449Y-117142858D01*
X144067688Y-115619048D02*
X143972449Y-115809524D01*
X143972449Y-115809524D02*
X143972449Y-116190477D01*
X143972449Y-116190477D02*
X144067688Y-116380953D01*
X144067688Y-116380953D02*
X144162926Y-116476191D01*
X144162926Y-116476191D02*
X144353402Y-116571429D01*
X144353402Y-116571429D02*
X144924830Y-116571429D01*
X144924830Y-116571429D02*
X145115307Y-116476191D01*
X145115307Y-116476191D02*
X145210545Y-116380953D01*
X145210545Y-116380953D02*
X145305783Y-116190477D01*
X145305783Y-116190477D02*
X145305783Y-115809524D01*
X145305783Y-115809524D02*
X145210545Y-115619048D01*
X145305783Y-113904762D02*
X143305783Y-113904762D01*
X144067688Y-113904762D02*
X143972449Y-114095238D01*
X143972449Y-114095238D02*
X143972449Y-114476191D01*
X143972449Y-114476191D02*
X144067688Y-114666667D01*
X144067688Y-114666667D02*
X144162926Y-114761905D01*
X144162926Y-114761905D02*
X144353402Y-114857143D01*
X144353402Y-114857143D02*
X144924830Y-114857143D01*
X144924830Y-114857143D02*
X145115307Y-114761905D01*
X145115307Y-114761905D02*
X145210545Y-114666667D01*
X145210545Y-114666667D02*
X145305783Y-114476191D01*
X145305783Y-114476191D02*
X145305783Y-114095238D01*
X145305783Y-114095238D02*
X145210545Y-113904762D01*
X145305783Y-112095238D02*
X143972449Y-112095238D01*
X145305783Y-112952381D02*
X144258164Y-112952381D01*
X144258164Y-112952381D02*
X144067688Y-112857143D01*
X144067688Y-112857143D02*
X143972449Y-112666667D01*
X143972449Y-112666667D02*
X143972449Y-112380952D01*
X143972449Y-112380952D02*
X144067688Y-112190476D01*
X144067688Y-112190476D02*
X144162926Y-112095238D01*
X143972449Y-111142857D02*
X145305783Y-111142857D01*
X145972449Y-111142857D02*
X145877211Y-111238095D01*
X145877211Y-111238095D02*
X145781973Y-111142857D01*
X145781973Y-111142857D02*
X145877211Y-111047619D01*
X145877211Y-111047619D02*
X145972449Y-111142857D01*
X145972449Y-111142857D02*
X145781973Y-111142857D01*
X144067688Y-110285714D02*
X143972449Y-110095238D01*
X143972449Y-110095238D02*
X143972449Y-109714286D01*
X143972449Y-109714286D02*
X144067688Y-109523809D01*
X144067688Y-109523809D02*
X144258164Y-109428571D01*
X144258164Y-109428571D02*
X144353402Y-109428571D01*
X144353402Y-109428571D02*
X144543878Y-109523809D01*
X144543878Y-109523809D02*
X144639116Y-109714286D01*
X144639116Y-109714286D02*
X144639116Y-110000000D01*
X144639116Y-110000000D02*
X144734354Y-110190476D01*
X144734354Y-110190476D02*
X144924830Y-110285714D01*
X144924830Y-110285714D02*
X145020068Y-110285714D01*
X145020068Y-110285714D02*
X145210545Y-110190476D01*
X145210545Y-110190476D02*
X145305783Y-110000000D01*
X145305783Y-110000000D02*
X145305783Y-109714286D01*
X145305783Y-109714286D02*
X145210545Y-109523809D01*
X143972449Y-108571428D02*
X145305783Y-108571428D01*
X145972449Y-108571428D02*
X145877211Y-108666666D01*
X145877211Y-108666666D02*
X145781973Y-108571428D01*
X145781973Y-108571428D02*
X145877211Y-108476190D01*
X145877211Y-108476190D02*
X145972449Y-108571428D01*
X145972449Y-108571428D02*
X145781973Y-108571428D01*
X145305783Y-107904761D02*
X145305783Y-107142857D01*
X145972449Y-107619047D02*
X144258164Y-107619047D01*
X144258164Y-107619047D02*
X144067688Y-107523809D01*
X144067688Y-107523809D02*
X143972449Y-107333333D01*
X143972449Y-107333333D02*
X143972449Y-107142857D01*
X143972449Y-106476190D02*
X145305783Y-106476190D01*
X145972449Y-106476190D02*
X145877211Y-106571428D01*
X145877211Y-106571428D02*
X145781973Y-106476190D01*
X145781973Y-106476190D02*
X145877211Y-106380952D01*
X145877211Y-106380952D02*
X145972449Y-106476190D01*
X145972449Y-106476190D02*
X145781973Y-106476190D01*
X143972449Y-105238095D02*
X144067688Y-105428571D01*
X144067688Y-105428571D02*
X144162926Y-105523809D01*
X144162926Y-105523809D02*
X144353402Y-105619047D01*
X144353402Y-105619047D02*
X144924830Y-105619047D01*
X144924830Y-105619047D02*
X145115307Y-105523809D01*
X145115307Y-105523809D02*
X145210545Y-105428571D01*
X145210545Y-105428571D02*
X145305783Y-105238095D01*
X145305783Y-105238095D02*
X145305783Y-104952380D01*
X145305783Y-104952380D02*
X145210545Y-104761904D01*
X145210545Y-104761904D02*
X145115307Y-104666666D01*
X145115307Y-104666666D02*
X144924830Y-104571428D01*
X144924830Y-104571428D02*
X144353402Y-104571428D01*
X144353402Y-104571428D02*
X144162926Y-104666666D01*
X144162926Y-104666666D02*
X144067688Y-104761904D01*
X144067688Y-104761904D02*
X143972449Y-104952380D01*
X143972449Y-104952380D02*
X143972449Y-105238095D01*
X145305783Y-103714285D02*
X143972449Y-103714285D01*
X145115307Y-103714285D02*
X145210545Y-103619047D01*
X145210545Y-103619047D02*
X145305783Y-103428571D01*
X145305783Y-103428571D02*
X145305783Y-103142856D01*
X145305783Y-103142856D02*
X145210545Y-102952380D01*
X145210545Y-102952380D02*
X145020068Y-102857142D01*
X145020068Y-102857142D02*
X143972449Y-102857142D01*
X143781973Y-102380952D02*
X143781973Y-100857142D01*
X145972449Y-100666665D02*
X143972449Y-99999999D01*
X143972449Y-99999999D02*
X145972449Y-99333332D01*
X145972449Y-98285713D02*
X145972449Y-98095236D01*
X145972449Y-98095236D02*
X145877211Y-97904760D01*
X145877211Y-97904760D02*
X145781973Y-97809522D01*
X145781973Y-97809522D02*
X145591497Y-97714284D01*
X145591497Y-97714284D02*
X145210545Y-97619046D01*
X145210545Y-97619046D02*
X144734354Y-97619046D01*
X144734354Y-97619046D02*
X144353402Y-97714284D01*
X144353402Y-97714284D02*
X144162926Y-97809522D01*
X144162926Y-97809522D02*
X144067688Y-97904760D01*
X144067688Y-97904760D02*
X143972449Y-98095236D01*
X143972449Y-98095236D02*
X143972449Y-98285713D01*
X143972449Y-98285713D02*
X144067688Y-98476189D01*
X144067688Y-98476189D02*
X144162926Y-98571427D01*
X144162926Y-98571427D02*
X144353402Y-98666665D01*
X144353402Y-98666665D02*
X144734354Y-98761903D01*
X144734354Y-98761903D02*
X145210545Y-98761903D01*
X145210545Y-98761903D02*
X145591497Y-98666665D01*
X145591497Y-98666665D02*
X145781973Y-98571427D01*
X145781973Y-98571427D02*
X145877211Y-98476189D01*
X145877211Y-98476189D02*
X145972449Y-98285713D01*
X145781973Y-96857141D02*
X145877211Y-96761903D01*
X145877211Y-96761903D02*
X145972449Y-96571427D01*
X145972449Y-96571427D02*
X145972449Y-96095236D01*
X145972449Y-96095236D02*
X145877211Y-95904760D01*
X145877211Y-95904760D02*
X145781973Y-95809522D01*
X145781973Y-95809522D02*
X145591497Y-95714284D01*
X145591497Y-95714284D02*
X145401021Y-95714284D01*
X145401021Y-95714284D02*
X145115307Y-95809522D01*
X145115307Y-95809522D02*
X143972449Y-96952379D01*
X143972449Y-96952379D02*
X143972449Y-95714284D01*
X142562085Y-110428571D02*
X142657323Y-110333333D01*
X142657323Y-110333333D02*
X142752561Y-110142857D01*
X142752561Y-110142857D02*
X142752561Y-109666666D01*
X142752561Y-109666666D02*
X142657323Y-109476190D01*
X142657323Y-109476190D02*
X142562085Y-109380952D01*
X142562085Y-109380952D02*
X142371609Y-109285714D01*
X142371609Y-109285714D02*
X142181133Y-109285714D01*
X142181133Y-109285714D02*
X141895419Y-109380952D01*
X141895419Y-109380952D02*
X140752561Y-110523809D01*
X140752561Y-110523809D02*
X140752561Y-109285714D01*
X142752561Y-108047619D02*
X142752561Y-107857142D01*
X142752561Y-107857142D02*
X142657323Y-107666666D01*
X142657323Y-107666666D02*
X142562085Y-107571428D01*
X142562085Y-107571428D02*
X142371609Y-107476190D01*
X142371609Y-107476190D02*
X141990657Y-107380952D01*
X141990657Y-107380952D02*
X141514466Y-107380952D01*
X141514466Y-107380952D02*
X141133514Y-107476190D01*
X141133514Y-107476190D02*
X140943038Y-107571428D01*
X140943038Y-107571428D02*
X140847800Y-107666666D01*
X140847800Y-107666666D02*
X140752561Y-107857142D01*
X140752561Y-107857142D02*
X140752561Y-108047619D01*
X140752561Y-108047619D02*
X140847800Y-108238095D01*
X140847800Y-108238095D02*
X140943038Y-108333333D01*
X140943038Y-108333333D02*
X141133514Y-108428571D01*
X141133514Y-108428571D02*
X141514466Y-108523809D01*
X141514466Y-108523809D02*
X141990657Y-108523809D01*
X141990657Y-108523809D02*
X142371609Y-108428571D01*
X142371609Y-108428571D02*
X142562085Y-108333333D01*
X142562085Y-108333333D02*
X142657323Y-108238095D01*
X142657323Y-108238095D02*
X142752561Y-108047619D01*
X142562085Y-106619047D02*
X142657323Y-106523809D01*
X142657323Y-106523809D02*
X142752561Y-106333333D01*
X142752561Y-106333333D02*
X142752561Y-105857142D01*
X142752561Y-105857142D02*
X142657323Y-105666666D01*
X142657323Y-105666666D02*
X142562085Y-105571428D01*
X142562085Y-105571428D02*
X142371609Y-105476190D01*
X142371609Y-105476190D02*
X142181133Y-105476190D01*
X142181133Y-105476190D02*
X141895419Y-105571428D01*
X141895419Y-105571428D02*
X140752561Y-106714285D01*
X140752561Y-106714285D02*
X140752561Y-105476190D01*
X142752561Y-103666666D02*
X142752561Y-104619047D01*
X142752561Y-104619047D02*
X141800180Y-104714285D01*
X141800180Y-104714285D02*
X141895419Y-104619047D01*
X141895419Y-104619047D02*
X141990657Y-104428571D01*
X141990657Y-104428571D02*
X141990657Y-103952380D01*
X141990657Y-103952380D02*
X141895419Y-103761904D01*
X141895419Y-103761904D02*
X141800180Y-103666666D01*
X141800180Y-103666666D02*
X141609704Y-103571428D01*
X141609704Y-103571428D02*
X141133514Y-103571428D01*
X141133514Y-103571428D02*
X140943038Y-103666666D01*
X140943038Y-103666666D02*
X140847800Y-103761904D01*
X140847800Y-103761904D02*
X140752561Y-103952380D01*
X140752561Y-103952380D02*
X140752561Y-104428571D01*
X140752561Y-104428571D02*
X140847800Y-104619047D01*
X140847800Y-104619047D02*
X140943038Y-104714285D01*
X170419523Y-71544019D02*
X170419523Y-72258304D01*
X170419523Y-72258304D02*
X170467142Y-72401161D01*
X170467142Y-72401161D02*
X170562380Y-72496400D01*
X170562380Y-72496400D02*
X170705237Y-72544019D01*
X170705237Y-72544019D02*
X170800475Y-72544019D01*
X169419523Y-72544019D02*
X169990951Y-72544019D01*
X169705237Y-72544019D02*
X169705237Y-71544019D01*
X169705237Y-71544019D02*
X169800475Y-71686876D01*
X169800475Y-71686876D02*
X169895713Y-71782114D01*
X169895713Y-71782114D02*
X169990951Y-71829733D01*
X168800475Y-71544019D02*
X168705237Y-71544019D01*
X168705237Y-71544019D02*
X168609999Y-71591638D01*
X168609999Y-71591638D02*
X168562380Y-71639257D01*
X168562380Y-71639257D02*
X168514761Y-71734495D01*
X168514761Y-71734495D02*
X168467142Y-71924971D01*
X168467142Y-71924971D02*
X168467142Y-72163066D01*
X168467142Y-72163066D02*
X168514761Y-72353542D01*
X168514761Y-72353542D02*
X168562380Y-72448780D01*
X168562380Y-72448780D02*
X168609999Y-72496400D01*
X168609999Y-72496400D02*
X168705237Y-72544019D01*
X168705237Y-72544019D02*
X168800475Y-72544019D01*
X168800475Y-72544019D02*
X168895713Y-72496400D01*
X168895713Y-72496400D02*
X168943332Y-72448780D01*
X168943332Y-72448780D02*
X168990951Y-72353542D01*
X168990951Y-72353542D02*
X169038570Y-72163066D01*
X169038570Y-72163066D02*
X169038570Y-71924971D01*
X169038570Y-71924971D02*
X168990951Y-71734495D01*
X168990951Y-71734495D02*
X168943332Y-71639257D01*
X168943332Y-71639257D02*
X168895713Y-71591638D01*
X168895713Y-71591638D02*
X168800475Y-71544019D01*
X136074019Y-126480476D02*
X136788304Y-126480476D01*
X136788304Y-126480476D02*
X136931161Y-126432857D01*
X136931161Y-126432857D02*
X137026400Y-126337619D01*
X137026400Y-126337619D02*
X137074019Y-126194762D01*
X137074019Y-126194762D02*
X137074019Y-126099524D01*
X137074019Y-127480476D02*
X137074019Y-126909048D01*
X137074019Y-127194762D02*
X136074019Y-127194762D01*
X136074019Y-127194762D02*
X136216876Y-127099524D01*
X136216876Y-127099524D02*
X136312114Y-127004286D01*
X136312114Y-127004286D02*
X136359733Y-126909048D01*
X136074019Y-127813810D02*
X136074019Y-128432857D01*
X136074019Y-128432857D02*
X136454971Y-128099524D01*
X136454971Y-128099524D02*
X136454971Y-128242381D01*
X136454971Y-128242381D02*
X136502590Y-128337619D01*
X136502590Y-128337619D02*
X136550209Y-128385238D01*
X136550209Y-128385238D02*
X136645447Y-128432857D01*
X136645447Y-128432857D02*
X136883542Y-128432857D01*
X136883542Y-128432857D02*
X136978780Y-128385238D01*
X136978780Y-128385238D02*
X137026400Y-128337619D01*
X137026400Y-128337619D02*
X137074019Y-128242381D01*
X137074019Y-128242381D02*
X137074019Y-127956667D01*
X137074019Y-127956667D02*
X137026400Y-127861429D01*
X137026400Y-127861429D02*
X136978780Y-127813810D01*
X145919523Y-71584019D02*
X145919523Y-72298304D01*
X145919523Y-72298304D02*
X145967142Y-72441161D01*
X145967142Y-72441161D02*
X146062380Y-72536400D01*
X146062380Y-72536400D02*
X146205237Y-72584019D01*
X146205237Y-72584019D02*
X146300475Y-72584019D01*
X144919523Y-72584019D02*
X145490951Y-72584019D01*
X145205237Y-72584019D02*
X145205237Y-71584019D01*
X145205237Y-71584019D02*
X145300475Y-71726876D01*
X145300475Y-71726876D02*
X145395713Y-71822114D01*
X145395713Y-71822114D02*
X145490951Y-71869733D01*
X143967142Y-72584019D02*
X144538570Y-72584019D01*
X144252856Y-72584019D02*
X144252856Y-71584019D01*
X144252856Y-71584019D02*
X144348094Y-71726876D01*
X144348094Y-71726876D02*
X144443332Y-71822114D01*
X144443332Y-71822114D02*
X144538570Y-71869733D01*
X121919523Y-71464019D02*
X121919523Y-72178304D01*
X121919523Y-72178304D02*
X121967142Y-72321161D01*
X121967142Y-72321161D02*
X122062380Y-72416400D01*
X122062380Y-72416400D02*
X122205237Y-72464019D01*
X122205237Y-72464019D02*
X122300475Y-72464019D01*
X120919523Y-72464019D02*
X121490951Y-72464019D01*
X121205237Y-72464019D02*
X121205237Y-71464019D01*
X121205237Y-71464019D02*
X121300475Y-71606876D01*
X121300475Y-71606876D02*
X121395713Y-71702114D01*
X121395713Y-71702114D02*
X121490951Y-71749733D01*
X120538570Y-71559257D02*
X120490951Y-71511638D01*
X120490951Y-71511638D02*
X120395713Y-71464019D01*
X120395713Y-71464019D02*
X120157618Y-71464019D01*
X120157618Y-71464019D02*
X120062380Y-71511638D01*
X120062380Y-71511638D02*
X120014761Y-71559257D01*
X120014761Y-71559257D02*
X119967142Y-71654495D01*
X119967142Y-71654495D02*
X119967142Y-71749733D01*
X119967142Y-71749733D02*
X120014761Y-71892590D01*
X120014761Y-71892590D02*
X120586189Y-72464019D01*
X120586189Y-72464019D02*
X119967142Y-72464019D01*
D11*
G04 #@! TO.C,J10*
X167010000Y-73089200D02*
X167010000Y-93529200D01*
X169610000Y-73089200D02*
X167010000Y-73089200D01*
X169610000Y-75689200D02*
X169610000Y-73089200D01*
X172210000Y-73089200D02*
X170880000Y-73089200D01*
X172210000Y-74419200D02*
X172210000Y-73089200D01*
X172210000Y-75689200D02*
X169610000Y-75689200D01*
X172210000Y-75689200D02*
X172210000Y-93529200D01*
X172210000Y-93529200D02*
X167010000Y-93529200D01*
G04 #@! TO.C,J13*
X137619200Y-124690000D02*
X137619200Y-126020000D01*
X137619200Y-127290000D02*
X137619200Y-129890000D01*
X137619200Y-129890000D02*
X158059200Y-129890000D01*
X138949200Y-124690000D02*
X137619200Y-124690000D01*
X140219200Y-124690000D02*
X140219200Y-127290000D01*
X140219200Y-124690000D02*
X158059200Y-124690000D01*
X140219200Y-127290000D02*
X137619200Y-127290000D01*
X158059200Y-124690000D02*
X158059200Y-129890000D01*
G04 #@! TO.C,J11*
X142510000Y-73129200D02*
X142510000Y-93569200D01*
X145110000Y-73129200D02*
X142510000Y-73129200D01*
X145110000Y-75729200D02*
X145110000Y-73129200D01*
X147710000Y-73129200D02*
X146380000Y-73129200D01*
X147710000Y-74459200D02*
X147710000Y-73129200D01*
X147710000Y-75729200D02*
X145110000Y-75729200D01*
X147710000Y-75729200D02*
X147710000Y-93569200D01*
X147710000Y-93569200D02*
X142510000Y-93569200D01*
G04 #@! TO.C,J12*
X118510000Y-73009200D02*
X118510000Y-93449200D01*
X121110000Y-73009200D02*
X118510000Y-73009200D01*
X121110000Y-75609200D02*
X121110000Y-73009200D01*
X123710000Y-73009200D02*
X122380000Y-73009200D01*
X123710000Y-74339200D02*
X123710000Y-73009200D01*
X123710000Y-75609200D02*
X121110000Y-75609200D01*
X123710000Y-75609200D02*
X123710000Y-93449200D01*
X123710000Y-93449200D02*
X118510000Y-93449200D01*
G04 #@! TD*
%LPC*%
D12*
G04 #@! TO.C,U6*
X170160000Y-54045000D03*
D13*
X172700000Y-54045000D03*
X175240000Y-54045000D03*
G04 #@! TD*
D14*
G04 #@! TO.C,C3*
X179500000Y-53900000D03*
D15*
X182000000Y-53900000D03*
G04 #@! TD*
D16*
G04 #@! TO.C,L+3.3v1*
X177400000Y-136540000D03*
D17*
X177400000Y-134000000D03*
G04 #@! TD*
D18*
G04 #@! TO.C,J5*
X153400000Y-144150000D03*
D19*
X150860000Y-144150000D03*
X148320000Y-144150000D03*
X145780000Y-144150000D03*
X143240000Y-144150000D03*
X140700000Y-144150000D03*
X138160000Y-144150000D03*
X135620000Y-144150000D03*
X153400000Y-146690000D03*
X150860000Y-146690000D03*
X148320000Y-146690000D03*
X145780000Y-146690000D03*
X143240000Y-146690000D03*
X140700000Y-146690000D03*
X138160000Y-146690000D03*
X135620000Y-146690000D03*
G04 #@! TD*
D18*
G04 #@! TO.C,J7*
X139800000Y-54700000D03*
D19*
X142340000Y-54700000D03*
X144880000Y-54700000D03*
X147420000Y-54700000D03*
X149960000Y-54700000D03*
X152500000Y-54700000D03*
X155040000Y-54700000D03*
X157580000Y-54700000D03*
X139800000Y-52160000D03*
X142340000Y-52160000D03*
X144880000Y-52160000D03*
X147420000Y-52160000D03*
X149960000Y-52160000D03*
X152500000Y-52160000D03*
X155040000Y-52160000D03*
X157580000Y-52160000D03*
G04 #@! TD*
D15*
G04 #@! TO.C,R1*
X173200000Y-118100000D03*
D20*
X180820000Y-118100000D03*
G04 #@! TD*
D14*
G04 #@! TO.C,C2*
X162400000Y-141900000D03*
D15*
X159900000Y-141900000D03*
G04 #@! TD*
D21*
G04 #@! TO.C,J3*
X185420000Y-57150000D03*
X185420000Y-59690000D03*
X185420000Y-62230000D03*
X185420000Y-64770000D03*
X185420000Y-67310000D03*
X185420000Y-69850000D03*
X185420000Y-72390000D03*
X185420000Y-74930000D03*
X185420000Y-77470000D03*
X185420000Y-80010000D03*
X185420000Y-82550000D03*
X185420000Y-85090000D03*
X185420000Y-87630000D03*
X185420000Y-90170000D03*
X185420000Y-92710000D03*
X185420000Y-95250000D03*
X185420000Y-97790000D03*
X185420000Y-100330000D03*
X185420000Y-102870000D03*
X185420000Y-105410000D03*
X185420000Y-107950000D03*
X185420000Y-110490000D03*
X185420000Y-113030000D03*
X185420000Y-115570000D03*
X185420000Y-118110000D03*
X185420000Y-120650000D03*
X185420000Y-123190000D03*
X185420000Y-125730000D03*
X185420000Y-128270000D03*
X185420000Y-130810000D03*
X185420000Y-133350000D03*
X185420000Y-135890000D03*
X185420000Y-138430000D03*
X185420000Y-140970000D03*
X185420000Y-143510000D03*
G04 #@! TD*
D22*
G04 #@! TO.C,U2*
X153195200Y-110280000D03*
D23*
X153195200Y-107740000D03*
X153195200Y-105200000D03*
X153195200Y-102660000D03*
X153195200Y-100120000D03*
X153195200Y-97580000D03*
X153195200Y-95040000D03*
X153195200Y-92500000D03*
X153195200Y-89960000D03*
X153195200Y-87420000D03*
X153195200Y-84880000D03*
X153195200Y-82340000D03*
X153195200Y-79800000D03*
X153195200Y-77260000D03*
X153195200Y-74720000D03*
X153195200Y-72180000D03*
X153195200Y-69640000D03*
X153195200Y-67100000D03*
X153195200Y-64560000D03*
X153195200Y-62020000D03*
X137955200Y-62020000D03*
X137955200Y-64560000D03*
X137955200Y-67100000D03*
X137955200Y-69640000D03*
X137955200Y-72180000D03*
X137955200Y-74720000D03*
X137955200Y-77260000D03*
X137955200Y-79800000D03*
X137955200Y-82340000D03*
X137955200Y-84880000D03*
X137955200Y-87420000D03*
X137955200Y-89960000D03*
X137955200Y-92500000D03*
X137955200Y-95040000D03*
X137955200Y-97580000D03*
X137955200Y-100120000D03*
X137955200Y-102660000D03*
X137955200Y-105200000D03*
X137955200Y-107740000D03*
X137955200Y-110330800D03*
D24*
X144295200Y-106470000D03*
X146835200Y-106470000D03*
G04 #@! TD*
D25*
G04 #@! TO.C,J1*
X106680000Y-57150000D03*
D21*
X106680000Y-59690000D03*
X106680000Y-62230000D03*
X106680000Y-64770000D03*
X106680000Y-67310000D03*
X106680000Y-69850000D03*
X106680000Y-72390000D03*
X106680000Y-74930000D03*
G04 #@! TD*
D26*
G04 #@! TO.C,D1*
X112700000Y-135980000D03*
D27*
X112700000Y-125820000D03*
G04 #@! TD*
D21*
G04 #@! TO.C,J2*
X106680000Y-81280000D03*
X106680000Y-83820000D03*
X106680000Y-86360000D03*
X106680000Y-88900000D03*
X106680000Y-91440000D03*
X106680000Y-93980000D03*
X106680000Y-96520000D03*
X106680000Y-99060000D03*
X106680000Y-101600000D03*
X106680000Y-104140000D03*
X106680000Y-106680000D03*
X106680000Y-109220000D03*
X106680000Y-111760000D03*
X106680000Y-114300000D03*
X106680000Y-116840000D03*
X106680000Y-119380000D03*
X106680000Y-121920000D03*
X106680000Y-124460000D03*
X106680000Y-127000000D03*
X106680000Y-129540000D03*
X106680000Y-132080000D03*
X106680000Y-134620000D03*
X106680000Y-137160000D03*
X106680000Y-139700000D03*
X106680000Y-142240000D03*
X106680000Y-144780000D03*
X106680000Y-147320000D03*
G04 #@! TD*
D28*
G04 #@! TO.C,U4*
X168610000Y-119440000D03*
D29*
X166070000Y-119440000D03*
X163530000Y-119440000D03*
X160990000Y-119440000D03*
X158450000Y-119440000D03*
X155910000Y-119440000D03*
X153370000Y-119440000D03*
X150830000Y-119440000D03*
X148290000Y-119440000D03*
X145750000Y-119440000D03*
X143210000Y-119440000D03*
X140670000Y-119440000D03*
X138130000Y-119440000D03*
X135590000Y-119440000D03*
X133050000Y-119440000D03*
X130510000Y-119440000D03*
X127970000Y-119440000D03*
X125430000Y-119440000D03*
X122890000Y-119440000D03*
X120350000Y-119440000D03*
X120350000Y-134680000D03*
X122890000Y-134680000D03*
X125430000Y-134680000D03*
X127970000Y-134680000D03*
X130510000Y-134680000D03*
X133050000Y-134680000D03*
X135590000Y-134680000D03*
X138130000Y-134680000D03*
X140670000Y-134680000D03*
X143210000Y-134680000D03*
X145750000Y-134680000D03*
X148290000Y-134680000D03*
X150830000Y-134680000D03*
X153370000Y-134680000D03*
X155910000Y-134680000D03*
X158450000Y-134680000D03*
X160990000Y-134680000D03*
X163530000Y-134680000D03*
X166070000Y-134680000D03*
X168660800Y-134680000D03*
D24*
X164800000Y-128340000D03*
X164800000Y-125800000D03*
G04 #@! TD*
D18*
G04 #@! TO.C,J6*
X113125000Y-54740000D03*
D19*
X115665000Y-54740000D03*
X118205000Y-54740000D03*
X120745000Y-54740000D03*
X123285000Y-54740000D03*
X125825000Y-54740000D03*
X128365000Y-54740000D03*
X130905000Y-54740000D03*
X113125000Y-52200000D03*
X115665000Y-52200000D03*
X118205000Y-52200000D03*
X120745000Y-52200000D03*
X123285000Y-52200000D03*
X125825000Y-52200000D03*
X128365000Y-52200000D03*
X130905000Y-52200000D03*
G04 #@! TD*
D16*
G04 #@! TO.C,U5*
X172800000Y-142300000D03*
D30*
X171100000Y-146000000D03*
X169400000Y-142300000D03*
X167700000Y-146000000D03*
X166000000Y-142300000D03*
G04 #@! TD*
D14*
G04 #@! TO.C,C4*
X165228900Y-54800000D03*
D15*
X162728900Y-54800000D03*
G04 #@! TD*
D22*
G04 #@! TO.C,U1*
X177500000Y-110280000D03*
D23*
X177500000Y-107740000D03*
X177500000Y-105200000D03*
X177500000Y-102660000D03*
X177500000Y-100120000D03*
X177500000Y-97580000D03*
X177500000Y-95040000D03*
X177500000Y-92500000D03*
X177500000Y-89960000D03*
X177500000Y-87420000D03*
X177500000Y-84880000D03*
X177500000Y-82340000D03*
X177500000Y-79800000D03*
X177500000Y-77260000D03*
X177500000Y-74720000D03*
X177500000Y-72180000D03*
X177500000Y-69640000D03*
X177500000Y-67100000D03*
X177500000Y-64560000D03*
X177500000Y-62020000D03*
X162260000Y-62020000D03*
X162260000Y-64560000D03*
X162260000Y-67100000D03*
X162260000Y-69640000D03*
X162260000Y-72180000D03*
X162260000Y-74720000D03*
X162260000Y-77260000D03*
X162260000Y-79800000D03*
X162260000Y-82340000D03*
X162260000Y-84880000D03*
X162260000Y-87420000D03*
X162260000Y-89960000D03*
X162260000Y-92500000D03*
X162260000Y-95040000D03*
X162260000Y-97580000D03*
X162260000Y-100120000D03*
X162260000Y-102660000D03*
X162260000Y-105200000D03*
X162260000Y-107740000D03*
X162260000Y-110330800D03*
D24*
X168600000Y-106470000D03*
X171140000Y-106470000D03*
G04 #@! TD*
D22*
G04 #@! TO.C,U3*
X128890400Y-110280000D03*
D23*
X128890400Y-107740000D03*
X128890400Y-105200000D03*
X128890400Y-102660000D03*
X128890400Y-100120000D03*
X128890400Y-97580000D03*
X128890400Y-95040000D03*
X128890400Y-92500000D03*
X128890400Y-89960000D03*
X128890400Y-87420000D03*
X128890400Y-84880000D03*
X128890400Y-82340000D03*
X128890400Y-79800000D03*
X128890400Y-77260000D03*
X128890400Y-74720000D03*
X128890400Y-72180000D03*
X128890400Y-69640000D03*
X128890400Y-67100000D03*
X128890400Y-64560000D03*
X128890400Y-62020000D03*
X113650400Y-62020000D03*
X113650400Y-64560000D03*
X113650400Y-67100000D03*
X113650400Y-69640000D03*
X113650400Y-72180000D03*
X113650400Y-74720000D03*
X113650400Y-77260000D03*
X113650400Y-79800000D03*
X113650400Y-82340000D03*
X113650400Y-84880000D03*
X113650400Y-87420000D03*
X113650400Y-89960000D03*
X113650400Y-92500000D03*
X113650400Y-95040000D03*
X113650400Y-97580000D03*
X113650400Y-100120000D03*
X113650400Y-102660000D03*
X113650400Y-105200000D03*
X113650400Y-107740000D03*
X113650400Y-110330800D03*
D24*
X119990400Y-106470000D03*
X122530400Y-106470000D03*
G04 #@! TD*
D18*
G04 #@! TO.C,J4*
X131075000Y-144150000D03*
D19*
X128535000Y-144150000D03*
X125995000Y-144150000D03*
X123455000Y-144150000D03*
X120915000Y-144150000D03*
X118375000Y-144150000D03*
X115835000Y-144150000D03*
X113295000Y-144150000D03*
X131075000Y-146690000D03*
X128535000Y-146690000D03*
X125995000Y-146690000D03*
X123455000Y-146690000D03*
X120915000Y-146690000D03*
X118375000Y-146690000D03*
X115835000Y-146690000D03*
X113295000Y-146690000D03*
G04 #@! TD*
D14*
G04 #@! TO.C,C1*
X162400000Y-147800000D03*
D15*
X159900000Y-147800000D03*
G04 #@! TD*
D18*
G04 #@! TO.C,J10*
X170880000Y-74419200D03*
D19*
X168340000Y-74419200D03*
X170880000Y-76959200D03*
X168340000Y-76959200D03*
X170880000Y-79499200D03*
X168340000Y-79499200D03*
X170880000Y-82039200D03*
X168340000Y-82039200D03*
X170880000Y-84579200D03*
X168340000Y-84579200D03*
X170880000Y-87119200D03*
X168340000Y-87119200D03*
X170880000Y-89659200D03*
X168340000Y-89659200D03*
X170880000Y-92199200D03*
X168340000Y-92199200D03*
G04 #@! TD*
D18*
G04 #@! TO.C,J13*
X138949200Y-126020000D03*
D19*
X138949200Y-128560000D03*
X141489200Y-126020000D03*
X141489200Y-128560000D03*
X144029200Y-126020000D03*
X144029200Y-128560000D03*
X146569200Y-126020000D03*
X146569200Y-128560000D03*
X149109200Y-126020000D03*
X149109200Y-128560000D03*
X151649200Y-126020000D03*
X151649200Y-128560000D03*
X154189200Y-126020000D03*
X154189200Y-128560000D03*
X156729200Y-126020000D03*
X156729200Y-128560000D03*
G04 #@! TD*
D18*
G04 #@! TO.C,J11*
X146380000Y-74459200D03*
D19*
X143840000Y-74459200D03*
X146380000Y-76999200D03*
X143840000Y-76999200D03*
X146380000Y-79539200D03*
X143840000Y-79539200D03*
X146380000Y-82079200D03*
X143840000Y-82079200D03*
X146380000Y-84619200D03*
X143840000Y-84619200D03*
X146380000Y-87159200D03*
X143840000Y-87159200D03*
X146380000Y-89699200D03*
X143840000Y-89699200D03*
X146380000Y-92239200D03*
X143840000Y-92239200D03*
G04 #@! TD*
D18*
G04 #@! TO.C,J12*
X122380000Y-74339200D03*
D19*
X119840000Y-74339200D03*
X122380000Y-76879200D03*
X119840000Y-76879200D03*
X122380000Y-79419200D03*
X119840000Y-79419200D03*
X122380000Y-81959200D03*
X119840000Y-81959200D03*
X122380000Y-84499200D03*
X119840000Y-84499200D03*
X122380000Y-87039200D03*
X119840000Y-87039200D03*
X122380000Y-89579200D03*
X119840000Y-89579200D03*
X122380000Y-92119200D03*
X119840000Y-92119200D03*
G04 #@! TD*
%LPD*%
M02*
