M48
; DRILL file {KiCad 7.0.5-7.0.5~ubuntu20.04.1} date qua 26 jul 2023 12:02:44
; FORMAT={-:-/ absolute / inch / decimal}
; #@! TF.CreationDate,2023-07-26T12:02:44-03:00
; #@! TF.GenerationSoftware,Kicad,Pcbnew,7.0.5-7.0.5~ubuntu20.04.1
; #@! TF.FileFunction,Plated,1,2,PTH
FMAT,2
INCH
; #@! TA.AperFunction,Plated,PTH,ViaDrill
T1C0.0315
; #@! TA.AperFunction,Plated,PTH,ComponentDrill
;T2C0.0315
; #@! TA.AperFunction,Plated,PTH,ComponentDrill
;T3C0.0394
; #@! TA.AperFunction,Plated,PTH,ComponentDrill
;T4C0.0400
; #@! TA.AperFunction,Plated,PTH,ComponentDrill
;T5C0.0433
%
G90
G05
T1
X3.9528Y-5.7657
X3.9626Y-4.8602
X3.963Y-5.0673
X4.5085Y-2.2224
X4.5433Y-2.9016
X4.5433Y-3.5807
X4.6713Y-2.8917
X4.6713Y-3.0984
X4.7651Y-2.2224
X4.937Y-2.5669
X4.9803Y-5.7795
X5.0354Y-5.1949
X5.0453Y-3.2559
X5.0453Y-3.4823
X5.1339Y-4.6831
X5.1437Y-3.8465
X5.1437Y-4.521
X5.1732Y-2.5669
X5.2421Y-4.0925
X5.2421Y-4.5945
X5.3262Y-4.2992
X5.3406Y-5.1949
X5.3406Y-5.5295
X5.4094Y-4.437
X5.4291Y-3.8465
X5.4783Y-4.8701
X5.4783Y-5.5295
X5.8524Y-4.4173
X5.9311Y-5.3524
X5.9902Y-4.6831
X6.128Y-5.3524
X6.2067Y-4.4173
X6.2362Y-4.8701
X6.3642Y-4.6437
X6.4035Y-4.8209
X6.4035Y-5.4902
X6.5217Y-4.4173
X6.6204Y-4.2996
X6.6496Y-4.939
X6.6496Y-5.5591
X6.6844Y-4.6437
;T2
X3.6843Y-2.1594
X3.6843Y-2.2594
X3.6843Y-2.3594
X3.6843Y-2.4594
X3.6843Y-2.5594
X3.6843Y-2.6594
X3.6843Y-2.7594
X3.6843Y-2.8594
X3.6843Y-3.1094
X3.6843Y-3.2094
X3.6843Y-3.3094
X3.6843Y-3.4094
X3.6843Y-3.5094
X3.6843Y-3.6094
X3.6843Y-3.7094
X3.6843Y-3.8094
X3.6843Y-3.9094
X3.6843Y-4.0094
X3.6843Y-4.1094
X3.6843Y-4.2094
X3.6843Y-4.3094
X3.6843Y-4.4094
X3.6843Y-4.5094
X3.6843Y-4.6094
X3.6843Y-4.7094
X3.6843Y-4.8094
X3.6843Y-4.9094
X3.6843Y-5.0094
X3.6843Y-5.1094
X3.6843Y-5.2094
X3.6843Y-5.3094
X3.6843Y-5.4094
X3.6843Y-5.5094
X3.6843Y-5.6094
X3.6843Y-5.7094
X3.9528Y-2.1732
X3.9528Y-2.2732
X3.9528Y-2.3732
X3.9528Y-2.4732
X4.1437Y-2.6179
X4.1437Y-2.7163
X4.2528Y-2.1732
X4.2528Y-2.2732
X4.2528Y-2.3732
X4.2528Y-2.4732
X4.3268Y-2.7122
X4.3268Y-3.0122
X4.3947Y-2.0699
X4.4154Y-2.3701
X4.4819Y-2.5669
X4.4819Y-2.7047
X4.4947Y-2.0699
X4.5138Y-2.3701
X4.765Y-2.065
X4.7819Y-2.5669
X4.7819Y-2.7047
X4.9618Y-2.2303
X4.9618Y-2.3898
X5.0323Y-3.689
X5.065Y-2.065
X5.0917Y-5.7677
X5.1917Y-5.7677
X5.2242Y-2.9213
X5.2618Y-2.2303
X5.2618Y-2.3898
X5.2917Y-5.7677
X5.3226Y-2.9213
X5.3917Y-5.7677
X5.4323Y-3.689
X6.2461Y-5.0177
X6.2461Y-5.1772
X6.5461Y-5.0177
X6.5461Y-5.1772
X6.5512Y-2.0945
X6.6496Y-2.0945
X6.7766Y-5.7165
X6.8343Y-2.1594
X6.8343Y-2.2594
X6.8343Y-2.3594
X6.8343Y-2.4594
X6.8343Y-2.5594
X6.8343Y-2.6594
X6.8343Y-2.7594
X6.8343Y-2.8594
X6.8343Y-2.9594
X6.8343Y-3.0594
X6.8343Y-3.1594
X6.8343Y-3.2594
X6.8343Y-3.3594
X6.8343Y-3.4594
X6.8343Y-3.5594
X6.8343Y-3.6594
X6.8343Y-3.7594
X6.8343Y-3.8594
X6.8343Y-3.9594
X6.8343Y-4.0594
X6.8343Y-4.1594
X6.8343Y-4.2594
X6.8343Y-4.3594
X6.8343Y-4.4594
X6.8343Y-4.5594
X6.8343Y-4.6594
X6.8343Y-4.7594
X6.8343Y-4.8594
X6.8343Y-4.9594
X6.8343Y-5.0594
X6.8343Y-5.1594
X6.8343Y-5.2594
X6.8343Y-5.3594
X6.8343Y-5.4594
X6.8343Y-5.5594
X6.8766Y-5.7165
;T3
X4.1398Y-3.0362
X4.1398Y-3.1362
X4.1398Y-3.2362
X5.9362Y-5.6969
X6.0362Y-5.6969
X6.1362Y-5.6969
X6.2362Y-5.6969
;T4
X4.1693Y-3.7515
X4.1693Y-3.8515
X4.1693Y-3.9515
X4.1693Y-4.0515
X4.1693Y-4.1515
X4.1693Y-4.2515
X4.1693Y-4.3515
X4.1693Y-4.4515
X4.1693Y-4.5515
X4.1693Y-4.6515
X4.1693Y-4.7515
X4.1693Y-4.8515
X4.1693Y-4.9515
X4.1693Y-5.0515
X4.1693Y-5.1515
X4.1693Y-5.2515
X4.1693Y-5.3515
X4.1693Y-5.4515
X4.1693Y-5.5515
X4.1693Y-5.6515
X4.4197Y-3.9015
X4.5197Y-3.9015
X4.7693Y-3.7495
X4.7693Y-3.8515
X4.7693Y-3.9515
X4.7693Y-4.0515
X4.7693Y-4.1515
X4.7693Y-4.2515
X4.7693Y-4.3515
X4.7693Y-4.4515
X4.7693Y-4.5515
X4.7693Y-4.6515
X4.7693Y-4.7515
X4.7693Y-4.8515
X4.7693Y-4.9515
X4.7693Y-5.0515
X4.7693Y-5.1515
X4.7693Y-5.2515
X4.7693Y-5.3515
X4.7693Y-5.4515
X4.7693Y-5.5515
X4.7693Y-5.6515
X5.715Y-2.1803
X5.715Y-2.2803
X5.715Y-2.3803
X5.715Y-2.4803
X5.715Y-2.5803
X5.715Y-2.6803
X5.715Y-2.7803
X5.715Y-2.8803
X5.715Y-2.9803
X5.715Y-3.0803
X5.715Y-3.1803
X5.715Y-3.2803
X5.715Y-3.3803
X5.715Y-3.4803
X5.715Y-3.5803
X5.715Y-3.6803
X5.715Y-3.7803
X5.715Y-3.8803
X5.715Y-3.9803
X5.715Y-4.0823
X5.9646Y-3.9303
X6.0646Y-3.9303
X6.315Y-2.1803
X6.315Y-2.2803
X6.315Y-2.3803
X6.315Y-2.4803
X6.315Y-2.5803
X6.315Y-2.6803
X6.315Y-2.7803
X6.315Y-2.8803
X6.315Y-2.9803
X6.315Y-3.0803
X6.315Y-3.1803
X6.315Y-3.2803
X6.315Y-3.3803
X6.315Y-3.4803
X6.315Y-3.5803
X6.315Y-3.6803
X6.315Y-3.7803
X6.315Y-3.8803
X6.315Y-3.9803
X6.315Y-4.0803
;T5
X4.937Y-2.7016
X4.937Y-3.1016
X5.2094Y-1.9961
X5.3898Y-2.3472
X5.3898Y-2.7472
X5.6094Y-1.9961
T0
M30
