%TF.GenerationSoftware,KiCad,Pcbnew,7.0.10-7.0.10~ubuntu20.04.1*%
%TF.CreationDate,2024-05-27T17:46:11-03:00*%
%TF.ProjectId,Gerador_Sinais_AD9850,47657261-646f-4725-9f53-696e6169735f,v04*%
%TF.SameCoordinates,Original*%
%TF.FileFunction,Drillmap*%
%TF.FilePolarity,Positive*%
%FSLAX45Y45*%
G04 Gerber Fmt 4.5, Leading zero omitted, Abs format (unit mm)*
G04 Created by KiCad (PCBNEW 7.0.10-7.0.10~ubuntu20.04.1) date 2024-05-27 17:46:11*
%MOMM*%
%LPD*%
G01*
G04 APERTURE LIST*
%ADD10C,0.500000*%
%ADD11C,0.200000*%
%ADD12C,0.100000*%
%ADD13C,0.101600*%
%ADD14C,0.102000*%
%ADD15C,0.110000*%
G04 APERTURE END LIST*
D10*
X19160000Y-5080000D02*
X10160000Y-5080000D01*
X19160000Y-15080000D02*
X19160000Y-5080000D01*
X19159982Y-15079980D02*
X10160000Y-15079980D01*
X10160000Y-5080000D02*
X10160000Y-15079980D01*
D11*
D12*
X10450730Y-13305000D02*
X10510730Y-13365000D01*
X10510730Y-13305000D02*
X10450730Y-13365000D01*
X10963580Y-8447730D02*
X11023580Y-8507730D01*
X11023580Y-8447730D02*
X10963580Y-8507730D01*
X10966340Y-8723100D02*
X11026340Y-8783100D01*
X11026340Y-8723100D02*
X10966340Y-8783100D01*
X11401360Y-13433530D02*
X11461360Y-13493530D01*
X11461360Y-13433530D02*
X11401360Y-13493530D01*
X12737310Y-8963570D02*
X12797310Y-9023570D01*
X12797310Y-8963570D02*
X12737310Y-9023570D01*
X12929020Y-7758300D02*
X12989020Y-7818300D01*
X12989020Y-7758300D02*
X12929020Y-7818300D01*
X12929020Y-9684040D02*
X12989020Y-9744040D01*
X12989020Y-9684040D02*
X12929020Y-9744040D01*
X13031590Y-5748170D02*
X13091590Y-5808170D01*
X13091590Y-5748170D02*
X13031590Y-5808170D01*
X13051260Y-7457560D02*
X13111260Y-7517560D01*
X13111260Y-7457560D02*
X13051260Y-7517560D01*
X13196870Y-10920360D02*
X13256870Y-10980360D01*
X13256870Y-10920360D02*
X13196870Y-10980360D01*
X13927280Y-10225000D02*
X13987280Y-10285000D01*
X13987280Y-10225000D02*
X13927280Y-10285000D01*
X14039320Y-9698730D02*
X14099320Y-9758730D01*
X14099320Y-9698730D02*
X14039320Y-9758730D01*
X14052480Y-12908290D02*
X14112480Y-12968290D01*
X14112480Y-12908290D02*
X14052480Y-12968290D01*
X14056780Y-7935490D02*
X14116780Y-7995490D01*
X14116780Y-7935490D02*
X14056780Y-7995490D01*
X14086250Y-8987970D02*
X14146250Y-9047970D01*
X14146250Y-8987970D02*
X14086250Y-9047970D01*
X14136190Y-6158380D02*
X14196190Y-6218380D01*
X14196190Y-6158380D02*
X14136190Y-6218380D01*
X14269120Y-8240640D02*
X14329120Y-8300640D01*
X14329120Y-8240640D02*
X14269120Y-8300640D01*
X14478560Y-9987620D02*
X14538560Y-10047620D01*
X14538560Y-9987620D02*
X14478560Y-10047620D01*
X14950310Y-10610490D02*
X15010310Y-10670490D01*
X15010310Y-10610490D02*
X14950310Y-10670490D01*
X15281760Y-9521080D02*
X15341760Y-9581080D01*
X15341760Y-9521080D02*
X15281760Y-9581080D01*
X15358520Y-12284420D02*
X15418520Y-12344420D01*
X15418520Y-12284420D02*
X15358520Y-12344420D01*
X15605460Y-12773530D02*
X15665460Y-12833530D01*
X15665460Y-12773530D02*
X15605460Y-12833530D01*
X15933440Y-13097700D02*
X15993440Y-13157700D01*
X15993440Y-13097700D02*
X15933440Y-13157700D01*
X16148180Y-11494920D02*
X16208180Y-11554920D01*
X16208180Y-11494920D02*
X16148180Y-11554920D01*
X16459720Y-11829440D02*
X16519720Y-11889440D01*
X16519720Y-11829440D02*
X16459720Y-11889440D01*
X16689000Y-11744550D02*
X16749000Y-11804550D01*
X16749000Y-11744550D02*
X16689000Y-11804550D01*
X17943390Y-14236110D02*
X18003390Y-14296110D01*
X18003390Y-14236110D02*
X17943390Y-14296110D01*
X11200000Y-12228000D02*
G75*
G03*
X11120000Y-12228000I-40000J0D01*
G01*
X11120000Y-12228000D02*
G75*
G03*
X11200000Y-12228000I40000J0D01*
G01*
X11200000Y-12990000D02*
G75*
G03*
X11120000Y-12990000I-40000J0D01*
G01*
X11120000Y-12990000D02*
G75*
G03*
X11200000Y-12990000I40000J0D01*
G01*
X11210000Y-10108000D02*
G75*
G03*
X11130000Y-10108000I-40000J0D01*
G01*
X11130000Y-10108000D02*
G75*
G03*
X11210000Y-10108000I40000J0D01*
G01*
X11210000Y-10870000D02*
G75*
G03*
X11130000Y-10870000I-40000J0D01*
G01*
X11130000Y-10870000D02*
G75*
G03*
X11210000Y-10870000I40000J0D01*
G01*
X11210000Y-11708000D02*
G75*
G03*
X11130000Y-11708000I-40000J0D01*
G01*
X11130000Y-11708000D02*
G75*
G03*
X11210000Y-11708000I40000J0D01*
G01*
X11210000Y-11958000D02*
G75*
G03*
X11130000Y-11958000I-40000J0D01*
G01*
X11130000Y-11958000D02*
G75*
G03*
X11210000Y-11958000I40000J0D01*
G01*
X11250000Y-6940000D02*
G75*
G03*
X11170000Y-6940000I-40000J0D01*
G01*
X11170000Y-6940000D02*
G75*
G03*
X11250000Y-6940000I40000J0D01*
G01*
X11250000Y-7702000D02*
G75*
G03*
X11170000Y-7702000I-40000J0D01*
G01*
X11170000Y-7702000D02*
G75*
G03*
X11250000Y-7702000I40000J0D01*
G01*
X11345000Y-8090000D02*
G75*
G03*
X11265000Y-8090000I-40000J0D01*
G01*
X11265000Y-8090000D02*
G75*
G03*
X11345000Y-8090000I40000J0D01*
G01*
X11595000Y-8090000D02*
G75*
G03*
X11515000Y-8090000I-40000J0D01*
G01*
X11515000Y-8090000D02*
G75*
G03*
X11595000Y-8090000I40000J0D01*
G01*
X11710000Y-10030000D02*
G75*
G03*
X11630000Y-10030000I-40000J0D01*
G01*
X11630000Y-10030000D02*
G75*
G03*
X11710000Y-10030000I40000J0D01*
G01*
X11710000Y-10792000D02*
G75*
G03*
X11630000Y-10792000I-40000J0D01*
G01*
X11630000Y-10792000D02*
G75*
G03*
X11710000Y-10792000I40000J0D01*
G01*
X11720000Y-8768000D02*
G75*
G03*
X11640000Y-8768000I-40000J0D01*
G01*
X11640000Y-8768000D02*
G75*
G03*
X11720000Y-8768000I40000J0D01*
G01*
X11720000Y-9530000D02*
G75*
G03*
X11640000Y-9530000I-40000J0D01*
G01*
X11640000Y-9530000D02*
G75*
G03*
X11720000Y-9530000I40000J0D01*
G01*
X11782000Y-12492000D02*
G75*
G03*
X11702000Y-12492000I-40000J0D01*
G01*
X11702000Y-12492000D02*
G75*
G03*
X11782000Y-12492000I40000J0D01*
G01*
X11782000Y-13508000D02*
G75*
G03*
X11702000Y-13508000I-40000J0D01*
G01*
X11702000Y-13508000D02*
G75*
G03*
X11782000Y-13508000I40000J0D01*
G01*
X11829000Y-6110000D02*
G75*
G03*
X11749000Y-6110000I-40000J0D01*
G01*
X11749000Y-6110000D02*
G75*
G03*
X11829000Y-6110000I40000J0D01*
G01*
X11859000Y-8086000D02*
G75*
G03*
X11779000Y-8086000I-40000J0D01*
G01*
X11779000Y-8086000D02*
G75*
G03*
X11859000Y-8086000I40000J0D01*
G01*
X11964000Y-10030000D02*
G75*
G03*
X11884000Y-10030000I-40000J0D01*
G01*
X11884000Y-10030000D02*
G75*
G03*
X11964000Y-10030000I40000J0D01*
G01*
X11964000Y-10792000D02*
G75*
G03*
X11884000Y-10792000I-40000J0D01*
G01*
X11884000Y-10792000D02*
G75*
G03*
X11964000Y-10792000I40000J0D01*
G01*
X11974000Y-8768000D02*
G75*
G03*
X11894000Y-8768000I-40000J0D01*
G01*
X11894000Y-8768000D02*
G75*
G03*
X11974000Y-8768000I40000J0D01*
G01*
X11974000Y-9530000D02*
G75*
G03*
X11894000Y-9530000I-40000J0D01*
G01*
X11894000Y-9530000D02*
G75*
G03*
X11974000Y-9530000I40000J0D01*
G01*
X12036000Y-12492000D02*
G75*
G03*
X11956000Y-12492000I-40000J0D01*
G01*
X11956000Y-12492000D02*
G75*
G03*
X12036000Y-12492000I40000J0D01*
G01*
X12036000Y-13508000D02*
G75*
G03*
X11956000Y-13508000I-40000J0D01*
G01*
X11956000Y-13508000D02*
G75*
G03*
X12036000Y-13508000I40000J0D01*
G01*
X12218000Y-10030000D02*
G75*
G03*
X12138000Y-10030000I-40000J0D01*
G01*
X12138000Y-10030000D02*
G75*
G03*
X12218000Y-10030000I40000J0D01*
G01*
X12218000Y-10792000D02*
G75*
G03*
X12138000Y-10792000I-40000J0D01*
G01*
X12138000Y-10792000D02*
G75*
G03*
X12218000Y-10792000I40000J0D01*
G01*
X12228000Y-8768000D02*
G75*
G03*
X12148000Y-8768000I-40000J0D01*
G01*
X12148000Y-8768000D02*
G75*
G03*
X12228000Y-8768000I40000J0D01*
G01*
X12228000Y-9530000D02*
G75*
G03*
X12148000Y-9530000I-40000J0D01*
G01*
X12148000Y-9530000D02*
G75*
G03*
X12228000Y-9530000I40000J0D01*
G01*
X12290000Y-12492000D02*
G75*
G03*
X12210000Y-12492000I-40000J0D01*
G01*
X12210000Y-12492000D02*
G75*
G03*
X12290000Y-12492000I40000J0D01*
G01*
X12290000Y-13508000D02*
G75*
G03*
X12210000Y-13508000I-40000J0D01*
G01*
X12210000Y-13508000D02*
G75*
G03*
X12290000Y-13508000I40000J0D01*
G01*
X12472000Y-10030000D02*
G75*
G03*
X12392000Y-10030000I-40000J0D01*
G01*
X12392000Y-10030000D02*
G75*
G03*
X12472000Y-10030000I40000J0D01*
G01*
X12472000Y-10792000D02*
G75*
G03*
X12392000Y-10792000I-40000J0D01*
G01*
X12392000Y-10792000D02*
G75*
G03*
X12472000Y-10792000I40000J0D01*
G01*
X12482000Y-8768000D02*
G75*
G03*
X12402000Y-8768000I-40000J0D01*
G01*
X12402000Y-8768000D02*
G75*
G03*
X12482000Y-8768000I40000J0D01*
G01*
X12482000Y-9530000D02*
G75*
G03*
X12402000Y-9530000I-40000J0D01*
G01*
X12402000Y-9530000D02*
G75*
G03*
X12482000Y-9530000I40000J0D01*
G01*
X12544000Y-12492000D02*
G75*
G03*
X12464000Y-12492000I-40000J0D01*
G01*
X12464000Y-12492000D02*
G75*
G03*
X12544000Y-12492000I40000J0D01*
G01*
X12544000Y-13508000D02*
G75*
G03*
X12464000Y-13508000I-40000J0D01*
G01*
X12464000Y-13508000D02*
G75*
G03*
X12544000Y-13508000I40000J0D01*
G01*
X12591000Y-6110000D02*
G75*
G03*
X12511000Y-6110000I-40000J0D01*
G01*
X12511000Y-6110000D02*
G75*
G03*
X12591000Y-6110000I40000J0D01*
G01*
X12621000Y-8086000D02*
G75*
G03*
X12541000Y-8086000I-40000J0D01*
G01*
X12541000Y-8086000D02*
G75*
G03*
X12621000Y-8086000I40000J0D01*
G01*
X12798000Y-12492000D02*
G75*
G03*
X12718000Y-12492000I-40000J0D01*
G01*
X12718000Y-12492000D02*
G75*
G03*
X12798000Y-12492000I40000J0D01*
G01*
X12798000Y-13508000D02*
G75*
G03*
X12718000Y-13508000I-40000J0D01*
G01*
X12718000Y-13508000D02*
G75*
G03*
X12798000Y-13508000I40000J0D01*
G01*
X12899000Y-6130000D02*
G75*
G03*
X12819000Y-6130000I-40000J0D01*
G01*
X12819000Y-6130000D02*
G75*
G03*
X12899000Y-6130000I40000J0D01*
G01*
X12970000Y-10059000D02*
G75*
G03*
X12890000Y-10059000I-40000J0D01*
G01*
X12890000Y-10059000D02*
G75*
G03*
X12970000Y-10059000I40000J0D01*
G01*
X12970000Y-10821000D02*
G75*
G03*
X12890000Y-10821000I-40000J0D01*
G01*
X12890000Y-10821000D02*
G75*
G03*
X12970000Y-10821000I40000J0D01*
G01*
X13320000Y-7828000D02*
G75*
G03*
X13240000Y-7828000I-40000J0D01*
G01*
X13240000Y-7828000D02*
G75*
G03*
X13320000Y-7828000I40000J0D01*
G01*
X13320000Y-8590000D02*
G75*
G03*
X13240000Y-8590000I-40000J0D01*
G01*
X13240000Y-8590000D02*
G75*
G03*
X13320000Y-8590000I40000J0D01*
G01*
X13330000Y-7314000D02*
G75*
G03*
X13250000Y-7314000I-40000J0D01*
G01*
X13250000Y-7314000D02*
G75*
G03*
X13330000Y-7314000I40000J0D01*
G01*
X13330000Y-7564000D02*
G75*
G03*
X13250000Y-7564000I-40000J0D01*
G01*
X13250000Y-7564000D02*
G75*
G03*
X13330000Y-7564000I40000J0D01*
G01*
X13661000Y-6130000D02*
G75*
G03*
X13581000Y-6130000I-40000J0D01*
G01*
X13581000Y-6130000D02*
G75*
G03*
X13661000Y-6130000I40000J0D01*
G01*
X13830000Y-7304000D02*
G75*
G03*
X13750000Y-7304000I-40000J0D01*
G01*
X13750000Y-7304000D02*
G75*
G03*
X13830000Y-7304000I40000J0D01*
G01*
X13830000Y-7554000D02*
G75*
G03*
X13750000Y-7554000I-40000J0D01*
G01*
X13750000Y-7554000D02*
G75*
G03*
X13830000Y-7554000I40000J0D01*
G01*
X13830000Y-7828000D02*
G75*
G03*
X13750000Y-7828000I-40000J0D01*
G01*
X13750000Y-7828000D02*
G75*
G03*
X13830000Y-7828000I40000J0D01*
G01*
X13830000Y-8590000D02*
G75*
G03*
X13750000Y-8590000I-40000J0D01*
G01*
X13750000Y-8590000D02*
G75*
G03*
X13830000Y-8590000I40000J0D01*
G01*
X14430000Y-7325000D02*
G75*
G03*
X14350000Y-7325000I-40000J0D01*
G01*
X14350000Y-7325000D02*
G75*
G03*
X14430000Y-7325000I40000J0D01*
G01*
X14430000Y-7575000D02*
G75*
G03*
X14350000Y-7575000I-40000J0D01*
G01*
X14350000Y-7575000D02*
G75*
G03*
X14430000Y-7575000I40000J0D01*
G01*
X14430000Y-7848000D02*
G75*
G03*
X14350000Y-7848000I-40000J0D01*
G01*
X14350000Y-7848000D02*
G75*
G03*
X14430000Y-7848000I40000J0D01*
G01*
X14430000Y-8610000D02*
G75*
G03*
X14350000Y-8610000I-40000J0D01*
G01*
X14350000Y-8610000D02*
G75*
G03*
X14430000Y-8610000I40000J0D01*
G01*
X14669000Y-6590000D02*
G75*
G03*
X14589000Y-6590000I-40000J0D01*
G01*
X14589000Y-6590000D02*
G75*
G03*
X14669000Y-6590000I40000J0D01*
G01*
X15000000Y-7848000D02*
G75*
G03*
X14920000Y-7848000I-40000J0D01*
G01*
X14920000Y-7848000D02*
G75*
G03*
X15000000Y-7848000I40000J0D01*
G01*
X15000000Y-8610000D02*
G75*
G03*
X14920000Y-8610000I-40000J0D01*
G01*
X14920000Y-8610000D02*
G75*
G03*
X15000000Y-8610000I40000J0D01*
G01*
X15001400Y-7327800D02*
G75*
G03*
X14921400Y-7327800I-40000J0D01*
G01*
X14921400Y-7327800D02*
G75*
G03*
X15001400Y-7327800I40000J0D01*
G01*
X15001400Y-7577800D02*
G75*
G03*
X14921400Y-7577800I-40000J0D01*
G01*
X14921400Y-7577800D02*
G75*
G03*
X15001400Y-7577800I40000J0D01*
G01*
X15431000Y-6590000D02*
G75*
G03*
X15351000Y-6590000I-40000J0D01*
G01*
X15351000Y-6590000D02*
G75*
G03*
X15431000Y-6590000I40000J0D01*
G01*
X16625000Y-10633000D02*
G75*
G03*
X16545000Y-10633000I-40000J0D01*
G01*
X16545000Y-10633000D02*
G75*
G03*
X16625000Y-10633000I40000J0D01*
G01*
X16625000Y-10887000D02*
G75*
G03*
X16545000Y-10887000I-40000J0D01*
G01*
X16545000Y-10887000D02*
G75*
G03*
X16625000Y-10887000I40000J0D01*
G01*
X16625000Y-11141000D02*
G75*
G03*
X16545000Y-11141000I-40000J0D01*
G01*
X16545000Y-11141000D02*
G75*
G03*
X16625000Y-11141000I40000J0D01*
G01*
X16625000Y-11395000D02*
G75*
G03*
X16545000Y-11395000I-40000J0D01*
G01*
X16545000Y-11395000D02*
G75*
G03*
X16625000Y-11395000I40000J0D01*
G01*
X16625000Y-11649000D02*
G75*
G03*
X16545000Y-11649000I-40000J0D01*
G01*
X16545000Y-11649000D02*
G75*
G03*
X16625000Y-11649000I40000J0D01*
G01*
X17169000Y-12240000D02*
G75*
G03*
X17089000Y-12240000I-40000J0D01*
G01*
X17089000Y-12240000D02*
G75*
G03*
X17169000Y-12240000I40000J0D01*
G01*
X17641000Y-10633000D02*
G75*
G03*
X17561000Y-10633000I-40000J0D01*
G01*
X17561000Y-10633000D02*
G75*
G03*
X17641000Y-10633000I40000J0D01*
G01*
X17641000Y-10887000D02*
G75*
G03*
X17561000Y-10887000I-40000J0D01*
G01*
X17561000Y-10887000D02*
G75*
G03*
X17641000Y-10887000I40000J0D01*
G01*
X17641000Y-11141000D02*
G75*
G03*
X17561000Y-11141000I-40000J0D01*
G01*
X17561000Y-11141000D02*
G75*
G03*
X17641000Y-11141000I40000J0D01*
G01*
X17641000Y-11395000D02*
G75*
G03*
X17561000Y-11395000I-40000J0D01*
G01*
X17561000Y-11395000D02*
G75*
G03*
X17641000Y-11395000I40000J0D01*
G01*
X17641000Y-11649000D02*
G75*
G03*
X17561000Y-11649000I-40000J0D01*
G01*
X17561000Y-11649000D02*
G75*
G03*
X17641000Y-11649000I40000J0D01*
G01*
X17931000Y-12240000D02*
G75*
G03*
X17851000Y-12240000I-40000J0D01*
G01*
X17851000Y-12240000D02*
G75*
G03*
X17931000Y-12240000I40000J0D01*
G01*
X17997800Y-13309600D02*
G75*
G03*
X17917800Y-13309600I-40000J0D01*
G01*
X17917800Y-13309600D02*
G75*
G03*
X17997800Y-13309600I40000J0D01*
G01*
X17997800Y-14071600D02*
G75*
G03*
X17917800Y-14071600I-40000J0D01*
G01*
X17917800Y-14071600D02*
G75*
G03*
X17997800Y-14071600I40000J0D01*
G01*
X11829000Y-11138360D02*
X11829000Y-11219640D01*
X11788360Y-11179000D02*
X11869640Y-11179000D01*
X11829000Y-11900360D02*
X11829000Y-11981640D01*
X11788360Y-11941000D02*
X11869640Y-11941000D01*
X12083000Y-11138360D02*
X12083000Y-11219640D01*
X12042360Y-11179000D02*
X12123640Y-11179000D01*
X12083000Y-11900360D02*
X12083000Y-11981640D01*
X12042360Y-11941000D02*
X12123640Y-11941000D01*
X12337000Y-11138360D02*
X12337000Y-11219640D01*
X12296360Y-11179000D02*
X12377640Y-11179000D01*
X12337000Y-11900360D02*
X12337000Y-11981640D01*
X12296360Y-11941000D02*
X12377640Y-11941000D01*
X12591000Y-11138360D02*
X12591000Y-11219640D01*
X12550360Y-11179000D02*
X12631640Y-11179000D01*
X12591000Y-11900360D02*
X12591000Y-11981640D01*
X12550360Y-11941000D02*
X12631640Y-11941000D01*
D13*
X13679921Y-9782921D02*
X13679921Y-9711079D01*
X13608079Y-9711079D01*
X13608079Y-9782921D01*
X13679921Y-9782921D01*
X13679921Y-10036921D02*
X13679921Y-9965079D01*
X13608079Y-9965079D01*
X13608079Y-10036921D01*
X13679921Y-10036921D01*
X13679921Y-10290921D02*
X13679921Y-10219079D01*
X13608079Y-10219079D01*
X13608079Y-10290921D01*
X13679921Y-10290921D01*
X13679921Y-10544921D02*
X13679921Y-10473079D01*
X13608079Y-10473079D01*
X13608079Y-10544921D01*
X13679921Y-10544921D01*
X13679921Y-10798921D02*
X13679921Y-10727079D01*
X13608079Y-10727079D01*
X13608079Y-10798921D01*
X13679921Y-10798921D01*
X13679921Y-11052921D02*
X13679921Y-10981079D01*
X13608079Y-10981079D01*
X13608079Y-11052921D01*
X13679921Y-11052921D01*
X13679921Y-11306921D02*
X13679921Y-11235079D01*
X13608079Y-11235079D01*
X13608079Y-11306921D01*
X13679921Y-11306921D01*
X13679921Y-11560921D02*
X13679921Y-11489079D01*
X13608079Y-11489079D01*
X13608079Y-11560921D01*
X13679921Y-11560921D01*
X13679921Y-11814921D02*
X13679921Y-11743079D01*
X13608079Y-11743079D01*
X13608079Y-11814921D01*
X13679921Y-11814921D01*
X13679921Y-12068921D02*
X13679921Y-11997079D01*
X13608079Y-11997079D01*
X13608079Y-12068921D01*
X13679921Y-12068921D01*
X13679921Y-12322921D02*
X13679921Y-12251079D01*
X13608079Y-12251079D01*
X13608079Y-12322921D01*
X13679921Y-12322921D01*
X13679921Y-12576921D02*
X13679921Y-12505079D01*
X13608079Y-12505079D01*
X13608079Y-12576921D01*
X13679921Y-12576921D01*
X13679921Y-12830921D02*
X13679921Y-12759079D01*
X13608079Y-12759079D01*
X13608079Y-12830921D01*
X13679921Y-12830921D01*
X13679921Y-13084921D02*
X13679921Y-13013079D01*
X13608079Y-13013079D01*
X13608079Y-13084921D01*
X13679921Y-13084921D01*
X13679921Y-13338921D02*
X13679921Y-13267079D01*
X13608079Y-13267079D01*
X13608079Y-13338921D01*
X13679921Y-13338921D01*
X13679921Y-13592921D02*
X13679921Y-13521079D01*
X13608079Y-13521079D01*
X13608079Y-13592921D01*
X13679921Y-13592921D01*
X13679921Y-13846921D02*
X13679921Y-13775079D01*
X13608079Y-13775079D01*
X13608079Y-13846921D01*
X13679921Y-13846921D01*
X13679921Y-14100921D02*
X13679921Y-14029079D01*
X13608079Y-14029079D01*
X13608079Y-14100921D01*
X13679921Y-14100921D01*
X13679921Y-14354921D02*
X13679921Y-14283079D01*
X13608079Y-14283079D01*
X13608079Y-14354921D01*
X13679921Y-14354921D01*
X13679921Y-14614001D02*
X13679921Y-14542159D01*
X13608079Y-14542159D01*
X13608079Y-14614001D01*
X13679921Y-14614001D01*
X14313921Y-14227921D02*
X14313921Y-14156079D01*
X14242079Y-14156079D01*
X14242079Y-14227921D01*
X14313921Y-14227921D01*
X14567921Y-14227921D02*
X14567921Y-14156079D01*
X14496079Y-14156079D01*
X14496079Y-14227921D01*
X14567921Y-14227921D01*
X15203921Y-9782921D02*
X15203921Y-9711079D01*
X15132079Y-9711079D01*
X15132079Y-9782921D01*
X15203921Y-9782921D01*
X15203921Y-10036921D02*
X15203921Y-9965079D01*
X15132079Y-9965079D01*
X15132079Y-10036921D01*
X15203921Y-10036921D01*
X15203921Y-10290921D02*
X15203921Y-10219079D01*
X15132079Y-10219079D01*
X15132079Y-10290921D01*
X15203921Y-10290921D01*
X15203921Y-10544921D02*
X15203921Y-10473079D01*
X15132079Y-10473079D01*
X15132079Y-10544921D01*
X15203921Y-10544921D01*
X15203921Y-10798921D02*
X15203921Y-10727079D01*
X15132079Y-10727079D01*
X15132079Y-10798921D01*
X15203921Y-10798921D01*
X15203921Y-11052921D02*
X15203921Y-10981079D01*
X15132079Y-10981079D01*
X15132079Y-11052921D01*
X15203921Y-11052921D01*
X15203921Y-11306921D02*
X15203921Y-11235079D01*
X15132079Y-11235079D01*
X15132079Y-11306921D01*
X15203921Y-11306921D01*
X15203921Y-11560921D02*
X15203921Y-11489079D01*
X15132079Y-11489079D01*
X15132079Y-11560921D01*
X15203921Y-11560921D01*
X15203921Y-11814921D02*
X15203921Y-11743079D01*
X15132079Y-11743079D01*
X15132079Y-11814921D01*
X15203921Y-11814921D01*
X15203921Y-12068921D02*
X15203921Y-11997079D01*
X15132079Y-11997079D01*
X15132079Y-12068921D01*
X15203921Y-12068921D01*
X15203921Y-12322921D02*
X15203921Y-12251079D01*
X15132079Y-12251079D01*
X15132079Y-12322921D01*
X15203921Y-12322921D01*
X15203921Y-12576921D02*
X15203921Y-12505079D01*
X15132079Y-12505079D01*
X15132079Y-12576921D01*
X15203921Y-12576921D01*
X15203921Y-12830921D02*
X15203921Y-12759079D01*
X15132079Y-12759079D01*
X15132079Y-12830921D01*
X15203921Y-12830921D01*
X15203921Y-13084921D02*
X15203921Y-13013079D01*
X15132079Y-13013079D01*
X15132079Y-13084921D01*
X15203921Y-13084921D01*
X15203921Y-13338921D02*
X15203921Y-13267079D01*
X15132079Y-13267079D01*
X15132079Y-13338921D01*
X15203921Y-13338921D01*
X15203921Y-13592921D02*
X15203921Y-13521079D01*
X15132079Y-13521079D01*
X15132079Y-13592921D01*
X15203921Y-13592921D01*
X15203921Y-13846921D02*
X15203921Y-13775079D01*
X15132079Y-13775079D01*
X15132079Y-13846921D01*
X15203921Y-13846921D01*
X15203921Y-14100921D02*
X15203921Y-14029079D01*
X15132079Y-14029079D01*
X15132079Y-14100921D01*
X15203921Y-14100921D01*
X15203921Y-14354921D02*
X15203921Y-14283079D01*
X15132079Y-14283079D01*
X15132079Y-14354921D01*
X15203921Y-14354921D01*
X15203921Y-14608921D02*
X15203921Y-14537079D01*
X15132079Y-14537079D01*
X15132079Y-14608921D01*
X15203921Y-14608921D01*
D14*
X10668000Y-5766000D02*
X10719000Y-5715000D01*
X10668000Y-5664000D01*
X10617000Y-5715000D01*
X10668000Y-5766000D01*
X10668000Y-6020000D02*
X10719000Y-5969000D01*
X10668000Y-5918000D01*
X10617000Y-5969000D01*
X10668000Y-6020000D01*
X10668000Y-6274000D02*
X10719000Y-6223000D01*
X10668000Y-6172000D01*
X10617000Y-6223000D01*
X10668000Y-6274000D01*
X10668000Y-6528000D02*
X10719000Y-6477000D01*
X10668000Y-6426000D01*
X10617000Y-6477000D01*
X10668000Y-6528000D01*
X10668000Y-6782000D02*
X10719000Y-6731000D01*
X10668000Y-6680000D01*
X10617000Y-6731000D01*
X10668000Y-6782000D01*
X10668000Y-7036000D02*
X10719000Y-6985000D01*
X10668000Y-6934000D01*
X10617000Y-6985000D01*
X10668000Y-7036000D01*
X10668000Y-7290000D02*
X10719000Y-7239000D01*
X10668000Y-7188000D01*
X10617000Y-7239000D01*
X10668000Y-7290000D01*
X10668000Y-7544000D02*
X10719000Y-7493000D01*
X10668000Y-7442000D01*
X10617000Y-7493000D01*
X10668000Y-7544000D01*
X10668000Y-8179000D02*
X10719000Y-8128000D01*
X10668000Y-8077000D01*
X10617000Y-8128000D01*
X10668000Y-8179000D01*
X10668000Y-8433000D02*
X10719000Y-8382000D01*
X10668000Y-8331000D01*
X10617000Y-8382000D01*
X10668000Y-8433000D01*
X10668000Y-8687000D02*
X10719000Y-8636000D01*
X10668000Y-8585000D01*
X10617000Y-8636000D01*
X10668000Y-8687000D01*
X10668000Y-8941000D02*
X10719000Y-8890000D01*
X10668000Y-8839000D01*
X10617000Y-8890000D01*
X10668000Y-8941000D01*
X10668000Y-9195000D02*
X10719000Y-9144000D01*
X10668000Y-9093000D01*
X10617000Y-9144000D01*
X10668000Y-9195000D01*
X10668000Y-9449000D02*
X10719000Y-9398000D01*
X10668000Y-9347000D01*
X10617000Y-9398000D01*
X10668000Y-9449000D01*
X10668000Y-9703000D02*
X10719000Y-9652000D01*
X10668000Y-9601000D01*
X10617000Y-9652000D01*
X10668000Y-9703000D01*
X10668000Y-9957000D02*
X10719000Y-9906000D01*
X10668000Y-9855000D01*
X10617000Y-9906000D01*
X10668000Y-9957000D01*
X10668000Y-10211000D02*
X10719000Y-10160000D01*
X10668000Y-10109000D01*
X10617000Y-10160000D01*
X10668000Y-10211000D01*
X10668000Y-10465000D02*
X10719000Y-10414000D01*
X10668000Y-10363000D01*
X10617000Y-10414000D01*
X10668000Y-10465000D01*
X10668000Y-10719000D02*
X10719000Y-10668000D01*
X10668000Y-10617000D01*
X10617000Y-10668000D01*
X10668000Y-10719000D01*
X10668000Y-10973000D02*
X10719000Y-10922000D01*
X10668000Y-10871000D01*
X10617000Y-10922000D01*
X10668000Y-10973000D01*
X10668000Y-11227000D02*
X10719000Y-11176000D01*
X10668000Y-11125000D01*
X10617000Y-11176000D01*
X10668000Y-11227000D01*
X10668000Y-11481000D02*
X10719000Y-11430000D01*
X10668000Y-11379000D01*
X10617000Y-11430000D01*
X10668000Y-11481000D01*
X10668000Y-11735000D02*
X10719000Y-11684000D01*
X10668000Y-11633000D01*
X10617000Y-11684000D01*
X10668000Y-11735000D01*
X10668000Y-11989000D02*
X10719000Y-11938000D01*
X10668000Y-11887000D01*
X10617000Y-11938000D01*
X10668000Y-11989000D01*
X10668000Y-12243000D02*
X10719000Y-12192000D01*
X10668000Y-12141000D01*
X10617000Y-12192000D01*
X10668000Y-12243000D01*
X10668000Y-12497000D02*
X10719000Y-12446000D01*
X10668000Y-12395000D01*
X10617000Y-12446000D01*
X10668000Y-12497000D01*
X10668000Y-12751000D02*
X10719000Y-12700000D01*
X10668000Y-12649000D01*
X10617000Y-12700000D01*
X10668000Y-12751000D01*
X10668000Y-13005000D02*
X10719000Y-12954000D01*
X10668000Y-12903000D01*
X10617000Y-12954000D01*
X10668000Y-13005000D01*
X10668000Y-13259000D02*
X10719000Y-13208000D01*
X10668000Y-13157000D01*
X10617000Y-13208000D01*
X10668000Y-13259000D01*
X10668000Y-13513000D02*
X10719000Y-13462000D01*
X10668000Y-13411000D01*
X10617000Y-13462000D01*
X10668000Y-13513000D01*
X10668000Y-13767000D02*
X10719000Y-13716000D01*
X10668000Y-13665000D01*
X10617000Y-13716000D01*
X10668000Y-13767000D01*
X10668000Y-14021000D02*
X10719000Y-13970000D01*
X10668000Y-13919000D01*
X10617000Y-13970000D01*
X10668000Y-14021000D01*
X10668000Y-14275000D02*
X10719000Y-14224000D01*
X10668000Y-14173000D01*
X10617000Y-14224000D01*
X10668000Y-14275000D01*
X10668000Y-14529000D02*
X10719000Y-14478000D01*
X10668000Y-14427000D01*
X10617000Y-14478000D01*
X10668000Y-14529000D01*
X10668000Y-14783000D02*
X10719000Y-14732000D01*
X10668000Y-14681000D01*
X10617000Y-14732000D01*
X10668000Y-14783000D01*
X11047500Y-14851000D02*
X11098500Y-14800000D01*
X11047500Y-14749000D01*
X10996500Y-14800000D01*
X11047500Y-14851000D01*
X11301500Y-14851000D02*
X11352500Y-14800000D01*
X11301500Y-14749000D01*
X11250500Y-14800000D01*
X11301500Y-14851000D01*
X11338000Y-5651000D02*
X11389000Y-5600000D01*
X11338000Y-5549000D01*
X11287000Y-5600000D01*
X11338000Y-5651000D01*
X11555500Y-14851000D02*
X11606500Y-14800000D01*
X11555500Y-14749000D01*
X11504500Y-14800000D01*
X11555500Y-14851000D01*
X11592000Y-5651000D02*
X11643000Y-5600000D01*
X11592000Y-5549000D01*
X11541000Y-5600000D01*
X11592000Y-5651000D01*
X11846000Y-5651000D02*
X11897000Y-5600000D01*
X11846000Y-5549000D01*
X11795000Y-5600000D01*
X11846000Y-5651000D01*
X11946000Y-14851000D02*
X11997000Y-14800000D01*
X11946000Y-14749000D01*
X11895000Y-14800000D01*
X11946000Y-14851000D01*
X12100000Y-5651000D02*
X12151000Y-5600000D01*
X12100000Y-5549000D01*
X12049000Y-5600000D01*
X12100000Y-5651000D01*
X12200000Y-14851000D02*
X12251000Y-14800000D01*
X12200000Y-14749000D01*
X12149000Y-14800000D01*
X12200000Y-14851000D01*
X12354000Y-5651000D02*
X12405000Y-5600000D01*
X12354000Y-5549000D01*
X12303000Y-5600000D01*
X12354000Y-5651000D01*
X12454000Y-14851000D02*
X12505000Y-14800000D01*
X12454000Y-14749000D01*
X12403000Y-14800000D01*
X12454000Y-14851000D01*
X12708000Y-14851000D02*
X12759000Y-14800000D01*
X12708000Y-14749000D01*
X12657000Y-14800000D01*
X12708000Y-14851000D01*
X12962000Y-14851000D02*
X13013000Y-14800000D01*
X12962000Y-14749000D01*
X12911000Y-14800000D01*
X12962000Y-14851000D01*
X13080000Y-14093500D02*
X13131000Y-14042500D01*
X13080000Y-13991500D01*
X13029000Y-14042500D01*
X13080000Y-14093500D01*
X13080000Y-14347500D02*
X13131000Y-14296500D01*
X13080000Y-14245500D01*
X13029000Y-14296500D01*
X13080000Y-14347500D01*
X13844500Y-5601000D02*
X13895500Y-5550000D01*
X13844500Y-5499000D01*
X13793500Y-5550000D01*
X13844500Y-5601000D01*
X14098500Y-5601000D02*
X14149500Y-5550000D01*
X14098500Y-5499000D01*
X14047500Y-5550000D01*
X14098500Y-5601000D01*
X14352500Y-5601000D02*
X14403500Y-5550000D01*
X14352500Y-5499000D01*
X14301500Y-5550000D01*
X14352500Y-5601000D01*
X14746000Y-5601000D02*
X14797000Y-5550000D01*
X14746000Y-5499000D01*
X14695000Y-5550000D01*
X14746000Y-5601000D01*
X14850000Y-9376000D02*
X14901000Y-9325000D01*
X14850000Y-9274000D01*
X14799000Y-9325000D01*
X14850000Y-9376000D01*
X15000000Y-5601000D02*
X15051000Y-5550000D01*
X15000000Y-5499000D01*
X14949000Y-5550000D01*
X15000000Y-5601000D01*
X15104000Y-9376000D02*
X15155000Y-9325000D01*
X15104000Y-9274000D01*
X15053000Y-9325000D01*
X15104000Y-9376000D01*
X15254000Y-5601000D02*
X15305000Y-5550000D01*
X15254000Y-5499000D01*
X15203000Y-5550000D01*
X15254000Y-5601000D01*
X15883000Y-7117000D02*
X15934000Y-7066000D01*
X15883000Y-7015000D01*
X15832000Y-7066000D01*
X15883000Y-7117000D01*
X15883000Y-7371000D02*
X15934000Y-7320000D01*
X15883000Y-7269000D01*
X15832000Y-7320000D01*
X15883000Y-7371000D01*
X15883000Y-7625000D02*
X15934000Y-7574000D01*
X15883000Y-7523000D01*
X15832000Y-7574000D01*
X15883000Y-7625000D01*
X15883000Y-7879000D02*
X15934000Y-7828000D01*
X15883000Y-7777000D01*
X15832000Y-7828000D01*
X15883000Y-7879000D01*
X15883000Y-8133000D02*
X15934000Y-8082000D01*
X15883000Y-8031000D01*
X15832000Y-8082000D01*
X15883000Y-8133000D01*
X15883000Y-8387000D02*
X15934000Y-8336000D01*
X15883000Y-8285000D01*
X15832000Y-8336000D01*
X15883000Y-8387000D01*
X15883000Y-8641000D02*
X15934000Y-8590000D01*
X15883000Y-8539000D01*
X15832000Y-8590000D01*
X15883000Y-8641000D01*
X15883000Y-8895000D02*
X15934000Y-8844000D01*
X15883000Y-8793000D01*
X15832000Y-8844000D01*
X15883000Y-8895000D01*
X15883000Y-9149000D02*
X15934000Y-9098000D01*
X15883000Y-9047000D01*
X15832000Y-9098000D01*
X15883000Y-9149000D01*
X15883000Y-9403000D02*
X15934000Y-9352000D01*
X15883000Y-9301000D01*
X15832000Y-9352000D01*
X15883000Y-9403000D01*
X15900000Y-14673000D02*
X15951000Y-14622000D01*
X15900000Y-14571000D01*
X15849000Y-14622000D01*
X15900000Y-14673000D01*
X16154000Y-14673000D02*
X16205000Y-14622000D01*
X16154000Y-14571000D01*
X16103000Y-14622000D01*
X16154000Y-14673000D01*
X16408000Y-14673000D02*
X16459000Y-14622000D01*
X16408000Y-14571000D01*
X16357000Y-14622000D01*
X16408000Y-14673000D01*
X16662000Y-14673000D02*
X16713000Y-14622000D01*
X16662000Y-14571000D01*
X16611000Y-14622000D01*
X16662000Y-14673000D01*
X16916000Y-14673000D02*
X16967000Y-14622000D01*
X16916000Y-14571000D01*
X16865000Y-14622000D01*
X16916000Y-14673000D01*
X17170000Y-14673000D02*
X17221000Y-14622000D01*
X17170000Y-14571000D01*
X17119000Y-14622000D01*
X17170000Y-14673000D01*
X17424000Y-14673000D02*
X17475000Y-14622000D01*
X17424000Y-14571000D01*
X17373000Y-14622000D01*
X17424000Y-14673000D01*
X17678000Y-14673000D02*
X17729000Y-14622000D01*
X17678000Y-14571000D01*
X17627000Y-14622000D01*
X17678000Y-14673000D01*
X17983000Y-7116000D02*
X18034000Y-7065000D01*
X17983000Y-7014000D01*
X17932000Y-7065000D01*
X17983000Y-7116000D01*
X17983000Y-7370000D02*
X18034000Y-7319000D01*
X17983000Y-7268000D01*
X17932000Y-7319000D01*
X17983000Y-7370000D01*
X17983000Y-7624000D02*
X18034000Y-7573000D01*
X17983000Y-7522000D01*
X17932000Y-7573000D01*
X17983000Y-7624000D01*
X17983000Y-7878000D02*
X18034000Y-7827000D01*
X17983000Y-7776000D01*
X17932000Y-7827000D01*
X17983000Y-7878000D01*
X17983000Y-8132000D02*
X18034000Y-8081000D01*
X17983000Y-8030000D01*
X17932000Y-8081000D01*
X17983000Y-8132000D01*
X17983000Y-8386000D02*
X18034000Y-8335000D01*
X17983000Y-8284000D01*
X17932000Y-8335000D01*
X17983000Y-8386000D01*
X17983000Y-8640000D02*
X18034000Y-8589000D01*
X17983000Y-8538000D01*
X17932000Y-8589000D01*
X17983000Y-8640000D01*
X17983000Y-8894000D02*
X18034000Y-8843000D01*
X17983000Y-8792000D01*
X17932000Y-8843000D01*
X17983000Y-8894000D01*
X17983000Y-9148000D02*
X18034000Y-9097000D01*
X17983000Y-9046000D01*
X17932000Y-9097000D01*
X17983000Y-9148000D01*
X17983000Y-9402000D02*
X18034000Y-9351000D01*
X17983000Y-9300000D01*
X17932000Y-9351000D01*
X17983000Y-9402000D01*
X18542000Y-5766000D02*
X18593000Y-5715000D01*
X18542000Y-5664000D01*
X18491000Y-5715000D01*
X18542000Y-5766000D01*
X18542000Y-6020000D02*
X18593000Y-5969000D01*
X18542000Y-5918000D01*
X18491000Y-5969000D01*
X18542000Y-6020000D01*
X18542000Y-6274000D02*
X18593000Y-6223000D01*
X18542000Y-6172000D01*
X18491000Y-6223000D01*
X18542000Y-6274000D01*
X18542000Y-6528000D02*
X18593000Y-6477000D01*
X18542000Y-6426000D01*
X18491000Y-6477000D01*
X18542000Y-6528000D01*
X18542000Y-6782000D02*
X18593000Y-6731000D01*
X18542000Y-6680000D01*
X18491000Y-6731000D01*
X18542000Y-6782000D01*
X18542000Y-7036000D02*
X18593000Y-6985000D01*
X18542000Y-6934000D01*
X18491000Y-6985000D01*
X18542000Y-7036000D01*
X18542000Y-7290000D02*
X18593000Y-7239000D01*
X18542000Y-7188000D01*
X18491000Y-7239000D01*
X18542000Y-7290000D01*
X18542000Y-7544000D02*
X18593000Y-7493000D01*
X18542000Y-7442000D01*
X18491000Y-7493000D01*
X18542000Y-7544000D01*
X18542000Y-7798000D02*
X18593000Y-7747000D01*
X18542000Y-7696000D01*
X18491000Y-7747000D01*
X18542000Y-7798000D01*
X18542000Y-8052000D02*
X18593000Y-8001000D01*
X18542000Y-7950000D01*
X18491000Y-8001000D01*
X18542000Y-8052000D01*
X18542000Y-8306000D02*
X18593000Y-8255000D01*
X18542000Y-8204000D01*
X18491000Y-8255000D01*
X18542000Y-8306000D01*
X18542000Y-8560000D02*
X18593000Y-8509000D01*
X18542000Y-8458000D01*
X18491000Y-8509000D01*
X18542000Y-8560000D01*
X18542000Y-8814000D02*
X18593000Y-8763000D01*
X18542000Y-8712000D01*
X18491000Y-8763000D01*
X18542000Y-8814000D01*
X18542000Y-9068000D02*
X18593000Y-9017000D01*
X18542000Y-8966000D01*
X18491000Y-9017000D01*
X18542000Y-9068000D01*
X18542000Y-9322000D02*
X18593000Y-9271000D01*
X18542000Y-9220000D01*
X18491000Y-9271000D01*
X18542000Y-9322000D01*
X18542000Y-9576000D02*
X18593000Y-9525000D01*
X18542000Y-9474000D01*
X18491000Y-9525000D01*
X18542000Y-9576000D01*
X18542000Y-9830000D02*
X18593000Y-9779000D01*
X18542000Y-9728000D01*
X18491000Y-9779000D01*
X18542000Y-9830000D01*
X18542000Y-10084000D02*
X18593000Y-10033000D01*
X18542000Y-9982000D01*
X18491000Y-10033000D01*
X18542000Y-10084000D01*
X18542000Y-10338000D02*
X18593000Y-10287000D01*
X18542000Y-10236000D01*
X18491000Y-10287000D01*
X18542000Y-10338000D01*
X18542000Y-10592000D02*
X18593000Y-10541000D01*
X18542000Y-10490000D01*
X18491000Y-10541000D01*
X18542000Y-10592000D01*
X18542000Y-10846000D02*
X18593000Y-10795000D01*
X18542000Y-10744000D01*
X18491000Y-10795000D01*
X18542000Y-10846000D01*
X18542000Y-11100000D02*
X18593000Y-11049000D01*
X18542000Y-10998000D01*
X18491000Y-11049000D01*
X18542000Y-11100000D01*
X18542000Y-11354000D02*
X18593000Y-11303000D01*
X18542000Y-11252000D01*
X18491000Y-11303000D01*
X18542000Y-11354000D01*
X18542000Y-11608000D02*
X18593000Y-11557000D01*
X18542000Y-11506000D01*
X18491000Y-11557000D01*
X18542000Y-11608000D01*
X18542000Y-11862000D02*
X18593000Y-11811000D01*
X18542000Y-11760000D01*
X18491000Y-11811000D01*
X18542000Y-11862000D01*
X18542000Y-12116000D02*
X18593000Y-12065000D01*
X18542000Y-12014000D01*
X18491000Y-12065000D01*
X18542000Y-12116000D01*
X18542000Y-12370000D02*
X18593000Y-12319000D01*
X18542000Y-12268000D01*
X18491000Y-12319000D01*
X18542000Y-12370000D01*
X18542000Y-12624000D02*
X18593000Y-12573000D01*
X18542000Y-12522000D01*
X18491000Y-12573000D01*
X18542000Y-12624000D01*
X18542000Y-12878000D02*
X18593000Y-12827000D01*
X18542000Y-12776000D01*
X18491000Y-12827000D01*
X18542000Y-12878000D01*
X18542000Y-13132000D02*
X18593000Y-13081000D01*
X18542000Y-13030000D01*
X18491000Y-13081000D01*
X18542000Y-13132000D01*
X18542000Y-13386000D02*
X18593000Y-13335000D01*
X18542000Y-13284000D01*
X18491000Y-13335000D01*
X18542000Y-13386000D01*
X18542000Y-13640000D02*
X18593000Y-13589000D01*
X18542000Y-13538000D01*
X18491000Y-13589000D01*
X18542000Y-13640000D01*
X18542000Y-13894000D02*
X18593000Y-13843000D01*
X18542000Y-13792000D01*
X18491000Y-13843000D01*
X18542000Y-13894000D01*
X18542000Y-14148000D02*
X18593000Y-14097000D01*
X18542000Y-14046000D01*
X18491000Y-14097000D01*
X18542000Y-14148000D01*
X18542000Y-14402000D02*
X18593000Y-14351000D01*
X18542000Y-14300000D01*
X18491000Y-14351000D01*
X18542000Y-14402000D01*
D15*
X11692500Y-6595000D02*
X11802500Y-6705000D01*
X11802500Y-6595000D02*
X11692500Y-6705000D01*
X11802500Y-6650000D02*
G75*
G03*
X11692500Y-6650000I-55000J0D01*
G01*
X11692500Y-6650000D02*
G75*
G03*
X11802500Y-6650000I55000J0D01*
G01*
X11946500Y-6595000D02*
X12056500Y-6705000D01*
X12056500Y-6595000D02*
X11946500Y-6705000D01*
X12056500Y-6650000D02*
G75*
G03*
X11946500Y-6650000I-55000J0D01*
G01*
X11946500Y-6650000D02*
G75*
G03*
X12056500Y-6650000I55000J0D01*
G01*
X12366000Y-6595000D02*
X12476000Y-6705000D01*
X12476000Y-6595000D02*
X12366000Y-6705000D01*
X12476000Y-6650000D02*
G75*
G03*
X12366000Y-6650000I-55000J0D01*
G01*
X12366000Y-6650000D02*
G75*
G03*
X12476000Y-6650000I55000J0D01*
G01*
X12620000Y-6595000D02*
X12730000Y-6705000D01*
X12730000Y-6595000D02*
X12620000Y-6705000D01*
X12730000Y-6650000D02*
G75*
G03*
X12620000Y-6650000I-55000J0D01*
G01*
X12620000Y-6650000D02*
G75*
G03*
X12730000Y-6650000I55000J0D01*
G01*
X13042500Y-6595000D02*
X13152500Y-6705000D01*
X13152500Y-6595000D02*
X13042500Y-6705000D01*
X13152500Y-6650000D02*
G75*
G03*
X13042500Y-6650000I-55000J0D01*
G01*
X13042500Y-6650000D02*
G75*
G03*
X13152500Y-6650000I55000J0D01*
G01*
X13296500Y-6595000D02*
X13406500Y-6705000D01*
X13406500Y-6595000D02*
X13296500Y-6705000D01*
X13406500Y-6650000D02*
G75*
G03*
X13296500Y-6650000I-55000J0D01*
G01*
X13296500Y-6650000D02*
G75*
G03*
X13406500Y-6650000I55000J0D01*
G01*
X13717500Y-6595000D02*
X13827500Y-6705000D01*
X13827500Y-6595000D02*
X13717500Y-6705000D01*
X13827500Y-6650000D02*
G75*
G03*
X13717500Y-6650000I-55000J0D01*
G01*
X13717500Y-6650000D02*
G75*
G03*
X13827500Y-6650000I55000J0D01*
G01*
X13971500Y-6595000D02*
X14081500Y-6705000D01*
X14081500Y-6595000D02*
X13971500Y-6705000D01*
X14081500Y-6650000D02*
G75*
G03*
X13971500Y-6650000I-55000J0D01*
G01*
X13971500Y-6650000D02*
G75*
G03*
X14081500Y-6650000I55000J0D01*
G01*
D11*
X10395777Y-15416484D02*
X10395777Y-15216484D01*
X10395777Y-15216484D02*
X10443396Y-15216484D01*
X10443396Y-15216484D02*
X10471967Y-15226008D01*
X10471967Y-15226008D02*
X10491015Y-15245055D01*
X10491015Y-15245055D02*
X10500539Y-15264103D01*
X10500539Y-15264103D02*
X10510063Y-15302198D01*
X10510063Y-15302198D02*
X10510063Y-15330769D01*
X10510063Y-15330769D02*
X10500539Y-15368865D01*
X10500539Y-15368865D02*
X10491015Y-15387912D01*
X10491015Y-15387912D02*
X10471967Y-15406960D01*
X10471967Y-15406960D02*
X10443396Y-15416484D01*
X10443396Y-15416484D02*
X10395777Y-15416484D01*
X10595777Y-15416484D02*
X10595777Y-15283150D01*
X10595777Y-15321246D02*
X10605301Y-15302198D01*
X10605301Y-15302198D02*
X10614824Y-15292674D01*
X10614824Y-15292674D02*
X10633872Y-15283150D01*
X10633872Y-15283150D02*
X10652920Y-15283150D01*
X10719586Y-15416484D02*
X10719586Y-15283150D01*
X10719586Y-15216484D02*
X10710063Y-15226008D01*
X10710063Y-15226008D02*
X10719586Y-15235531D01*
X10719586Y-15235531D02*
X10729110Y-15226008D01*
X10729110Y-15226008D02*
X10719586Y-15216484D01*
X10719586Y-15216484D02*
X10719586Y-15235531D01*
X10843396Y-15416484D02*
X10824348Y-15406960D01*
X10824348Y-15406960D02*
X10814824Y-15387912D01*
X10814824Y-15387912D02*
X10814824Y-15216484D01*
X10948158Y-15416484D02*
X10929110Y-15406960D01*
X10929110Y-15406960D02*
X10919586Y-15387912D01*
X10919586Y-15387912D02*
X10919586Y-15216484D01*
X11176729Y-15416484D02*
X11176729Y-15216484D01*
X11176729Y-15216484D02*
X11243396Y-15359341D01*
X11243396Y-15359341D02*
X11310062Y-15216484D01*
X11310062Y-15216484D02*
X11310062Y-15416484D01*
X11491015Y-15416484D02*
X11491015Y-15311722D01*
X11491015Y-15311722D02*
X11481491Y-15292674D01*
X11481491Y-15292674D02*
X11462443Y-15283150D01*
X11462443Y-15283150D02*
X11424348Y-15283150D01*
X11424348Y-15283150D02*
X11405301Y-15292674D01*
X11491015Y-15406960D02*
X11471967Y-15416484D01*
X11471967Y-15416484D02*
X11424348Y-15416484D01*
X11424348Y-15416484D02*
X11405301Y-15406960D01*
X11405301Y-15406960D02*
X11395777Y-15387912D01*
X11395777Y-15387912D02*
X11395777Y-15368865D01*
X11395777Y-15368865D02*
X11405301Y-15349817D01*
X11405301Y-15349817D02*
X11424348Y-15340293D01*
X11424348Y-15340293D02*
X11471967Y-15340293D01*
X11471967Y-15340293D02*
X11491015Y-15330769D01*
X11586253Y-15283150D02*
X11586253Y-15483150D01*
X11586253Y-15292674D02*
X11605301Y-15283150D01*
X11605301Y-15283150D02*
X11643396Y-15283150D01*
X11643396Y-15283150D02*
X11662443Y-15292674D01*
X11662443Y-15292674D02*
X11671967Y-15302198D01*
X11671967Y-15302198D02*
X11681491Y-15321246D01*
X11681491Y-15321246D02*
X11681491Y-15378388D01*
X11681491Y-15378388D02*
X11671967Y-15397436D01*
X11671967Y-15397436D02*
X11662443Y-15406960D01*
X11662443Y-15406960D02*
X11643396Y-15416484D01*
X11643396Y-15416484D02*
X11605301Y-15416484D01*
X11605301Y-15416484D02*
X11586253Y-15406960D01*
X11767205Y-15397436D02*
X11776729Y-15406960D01*
X11776729Y-15406960D02*
X11767205Y-15416484D01*
X11767205Y-15416484D02*
X11757682Y-15406960D01*
X11757682Y-15406960D02*
X11767205Y-15397436D01*
X11767205Y-15397436D02*
X11767205Y-15416484D01*
X11767205Y-15292674D02*
X11776729Y-15302198D01*
X11776729Y-15302198D02*
X11767205Y-15311722D01*
X11767205Y-15311722D02*
X11757682Y-15302198D01*
X11757682Y-15302198D02*
X11767205Y-15292674D01*
X11767205Y-15292674D02*
X11767205Y-15311722D01*
D12*
X10075000Y-15715000D02*
X10135000Y-15775000D01*
X10135000Y-15715000D02*
X10075000Y-15775000D01*
D11*
X10433872Y-15636484D02*
X10452920Y-15636484D01*
X10452920Y-15636484D02*
X10471967Y-15646008D01*
X10471967Y-15646008D02*
X10481491Y-15655531D01*
X10481491Y-15655531D02*
X10491015Y-15674579D01*
X10491015Y-15674579D02*
X10500539Y-15712674D01*
X10500539Y-15712674D02*
X10500539Y-15760293D01*
X10500539Y-15760293D02*
X10491015Y-15798388D01*
X10491015Y-15798388D02*
X10481491Y-15817436D01*
X10481491Y-15817436D02*
X10471967Y-15826960D01*
X10471967Y-15826960D02*
X10452920Y-15836484D01*
X10452920Y-15836484D02*
X10433872Y-15836484D01*
X10433872Y-15836484D02*
X10414824Y-15826960D01*
X10414824Y-15826960D02*
X10405301Y-15817436D01*
X10405301Y-15817436D02*
X10395777Y-15798388D01*
X10395777Y-15798388D02*
X10386253Y-15760293D01*
X10386253Y-15760293D02*
X10386253Y-15712674D01*
X10386253Y-15712674D02*
X10395777Y-15674579D01*
X10395777Y-15674579D02*
X10405301Y-15655531D01*
X10405301Y-15655531D02*
X10414824Y-15646008D01*
X10414824Y-15646008D02*
X10433872Y-15636484D01*
X10586253Y-15817436D02*
X10595777Y-15826960D01*
X10595777Y-15826960D02*
X10586253Y-15836484D01*
X10586253Y-15836484D02*
X10576729Y-15826960D01*
X10576729Y-15826960D02*
X10586253Y-15817436D01*
X10586253Y-15817436D02*
X10586253Y-15836484D01*
X10767205Y-15636484D02*
X10729110Y-15636484D01*
X10729110Y-15636484D02*
X10710063Y-15646008D01*
X10710063Y-15646008D02*
X10700539Y-15655531D01*
X10700539Y-15655531D02*
X10681491Y-15684103D01*
X10681491Y-15684103D02*
X10671967Y-15722198D01*
X10671967Y-15722198D02*
X10671967Y-15798388D01*
X10671967Y-15798388D02*
X10681491Y-15817436D01*
X10681491Y-15817436D02*
X10691015Y-15826960D01*
X10691015Y-15826960D02*
X10710063Y-15836484D01*
X10710063Y-15836484D02*
X10748158Y-15836484D01*
X10748158Y-15836484D02*
X10767205Y-15826960D01*
X10767205Y-15826960D02*
X10776729Y-15817436D01*
X10776729Y-15817436D02*
X10786253Y-15798388D01*
X10786253Y-15798388D02*
X10786253Y-15750769D01*
X10786253Y-15750769D02*
X10776729Y-15731722D01*
X10776729Y-15731722D02*
X10767205Y-15722198D01*
X10767205Y-15722198D02*
X10748158Y-15712674D01*
X10748158Y-15712674D02*
X10710063Y-15712674D01*
X10710063Y-15712674D02*
X10691015Y-15722198D01*
X10691015Y-15722198D02*
X10681491Y-15731722D01*
X10681491Y-15731722D02*
X10671967Y-15750769D01*
X10910063Y-15636484D02*
X10929110Y-15636484D01*
X10929110Y-15636484D02*
X10948158Y-15646008D01*
X10948158Y-15646008D02*
X10957682Y-15655531D01*
X10957682Y-15655531D02*
X10967205Y-15674579D01*
X10967205Y-15674579D02*
X10976729Y-15712674D01*
X10976729Y-15712674D02*
X10976729Y-15760293D01*
X10976729Y-15760293D02*
X10967205Y-15798388D01*
X10967205Y-15798388D02*
X10957682Y-15817436D01*
X10957682Y-15817436D02*
X10948158Y-15826960D01*
X10948158Y-15826960D02*
X10929110Y-15836484D01*
X10929110Y-15836484D02*
X10910063Y-15836484D01*
X10910063Y-15836484D02*
X10891015Y-15826960D01*
X10891015Y-15826960D02*
X10881491Y-15817436D01*
X10881491Y-15817436D02*
X10871967Y-15798388D01*
X10871967Y-15798388D02*
X10862444Y-15760293D01*
X10862444Y-15760293D02*
X10862444Y-15712674D01*
X10862444Y-15712674D02*
X10871967Y-15674579D01*
X10871967Y-15674579D02*
X10881491Y-15655531D01*
X10881491Y-15655531D02*
X10891015Y-15646008D01*
X10891015Y-15646008D02*
X10910063Y-15636484D01*
X11100539Y-15636484D02*
X11119586Y-15636484D01*
X11119586Y-15636484D02*
X11138634Y-15646008D01*
X11138634Y-15646008D02*
X11148158Y-15655531D01*
X11148158Y-15655531D02*
X11157682Y-15674579D01*
X11157682Y-15674579D02*
X11167205Y-15712674D01*
X11167205Y-15712674D02*
X11167205Y-15760293D01*
X11167205Y-15760293D02*
X11157682Y-15798388D01*
X11157682Y-15798388D02*
X11148158Y-15817436D01*
X11148158Y-15817436D02*
X11138634Y-15826960D01*
X11138634Y-15826960D02*
X11119586Y-15836484D01*
X11119586Y-15836484D02*
X11100539Y-15836484D01*
X11100539Y-15836484D02*
X11081491Y-15826960D01*
X11081491Y-15826960D02*
X11071967Y-15817436D01*
X11071967Y-15817436D02*
X11062444Y-15798388D01*
X11062444Y-15798388D02*
X11052920Y-15760293D01*
X11052920Y-15760293D02*
X11052920Y-15712674D01*
X11052920Y-15712674D02*
X11062444Y-15674579D01*
X11062444Y-15674579D02*
X11071967Y-15655531D01*
X11071967Y-15655531D02*
X11081491Y-15646008D01*
X11081491Y-15646008D02*
X11100539Y-15636484D01*
X11252920Y-15836484D02*
X11252920Y-15703150D01*
X11252920Y-15722198D02*
X11262443Y-15712674D01*
X11262443Y-15712674D02*
X11281491Y-15703150D01*
X11281491Y-15703150D02*
X11310063Y-15703150D01*
X11310063Y-15703150D02*
X11329110Y-15712674D01*
X11329110Y-15712674D02*
X11338634Y-15731722D01*
X11338634Y-15731722D02*
X11338634Y-15836484D01*
X11338634Y-15731722D02*
X11348158Y-15712674D01*
X11348158Y-15712674D02*
X11367205Y-15703150D01*
X11367205Y-15703150D02*
X11395777Y-15703150D01*
X11395777Y-15703150D02*
X11414824Y-15712674D01*
X11414824Y-15712674D02*
X11424348Y-15731722D01*
X11424348Y-15731722D02*
X11424348Y-15836484D01*
X11519586Y-15836484D02*
X11519586Y-15703150D01*
X11519586Y-15722198D02*
X11529110Y-15712674D01*
X11529110Y-15712674D02*
X11548158Y-15703150D01*
X11548158Y-15703150D02*
X11576729Y-15703150D01*
X11576729Y-15703150D02*
X11595777Y-15712674D01*
X11595777Y-15712674D02*
X11605301Y-15731722D01*
X11605301Y-15731722D02*
X11605301Y-15836484D01*
X11605301Y-15731722D02*
X11614824Y-15712674D01*
X11614824Y-15712674D02*
X11633872Y-15703150D01*
X11633872Y-15703150D02*
X11662443Y-15703150D01*
X11662443Y-15703150D02*
X11681491Y-15712674D01*
X11681491Y-15712674D02*
X11691015Y-15731722D01*
X11691015Y-15731722D02*
X11691015Y-15836484D01*
X12081491Y-15626960D02*
X11910063Y-15884103D01*
X12338634Y-15636484D02*
X12357682Y-15636484D01*
X12357682Y-15636484D02*
X12376729Y-15646008D01*
X12376729Y-15646008D02*
X12386253Y-15655531D01*
X12386253Y-15655531D02*
X12395777Y-15674579D01*
X12395777Y-15674579D02*
X12405301Y-15712674D01*
X12405301Y-15712674D02*
X12405301Y-15760293D01*
X12405301Y-15760293D02*
X12395777Y-15798388D01*
X12395777Y-15798388D02*
X12386253Y-15817436D01*
X12386253Y-15817436D02*
X12376729Y-15826960D01*
X12376729Y-15826960D02*
X12357682Y-15836484D01*
X12357682Y-15836484D02*
X12338634Y-15836484D01*
X12338634Y-15836484D02*
X12319586Y-15826960D01*
X12319586Y-15826960D02*
X12310063Y-15817436D01*
X12310063Y-15817436D02*
X12300539Y-15798388D01*
X12300539Y-15798388D02*
X12291015Y-15760293D01*
X12291015Y-15760293D02*
X12291015Y-15712674D01*
X12291015Y-15712674D02*
X12300539Y-15674579D01*
X12300539Y-15674579D02*
X12310063Y-15655531D01*
X12310063Y-15655531D02*
X12319586Y-15646008D01*
X12319586Y-15646008D02*
X12338634Y-15636484D01*
X12491015Y-15817436D02*
X12500539Y-15826960D01*
X12500539Y-15826960D02*
X12491015Y-15836484D01*
X12491015Y-15836484D02*
X12481491Y-15826960D01*
X12481491Y-15826960D02*
X12491015Y-15817436D01*
X12491015Y-15817436D02*
X12491015Y-15836484D01*
X12624348Y-15636484D02*
X12643396Y-15636484D01*
X12643396Y-15636484D02*
X12662444Y-15646008D01*
X12662444Y-15646008D02*
X12671967Y-15655531D01*
X12671967Y-15655531D02*
X12681491Y-15674579D01*
X12681491Y-15674579D02*
X12691015Y-15712674D01*
X12691015Y-15712674D02*
X12691015Y-15760293D01*
X12691015Y-15760293D02*
X12681491Y-15798388D01*
X12681491Y-15798388D02*
X12671967Y-15817436D01*
X12671967Y-15817436D02*
X12662444Y-15826960D01*
X12662444Y-15826960D02*
X12643396Y-15836484D01*
X12643396Y-15836484D02*
X12624348Y-15836484D01*
X12624348Y-15836484D02*
X12605301Y-15826960D01*
X12605301Y-15826960D02*
X12595777Y-15817436D01*
X12595777Y-15817436D02*
X12586253Y-15798388D01*
X12586253Y-15798388D02*
X12576729Y-15760293D01*
X12576729Y-15760293D02*
X12576729Y-15712674D01*
X12576729Y-15712674D02*
X12586253Y-15674579D01*
X12586253Y-15674579D02*
X12595777Y-15655531D01*
X12595777Y-15655531D02*
X12605301Y-15646008D01*
X12605301Y-15646008D02*
X12624348Y-15636484D01*
X12767206Y-15655531D02*
X12776729Y-15646008D01*
X12776729Y-15646008D02*
X12795777Y-15636484D01*
X12795777Y-15636484D02*
X12843396Y-15636484D01*
X12843396Y-15636484D02*
X12862444Y-15646008D01*
X12862444Y-15646008D02*
X12871967Y-15655531D01*
X12871967Y-15655531D02*
X12881491Y-15674579D01*
X12881491Y-15674579D02*
X12881491Y-15693627D01*
X12881491Y-15693627D02*
X12871967Y-15722198D01*
X12871967Y-15722198D02*
X12757682Y-15836484D01*
X12757682Y-15836484D02*
X12881491Y-15836484D01*
X12948158Y-15636484D02*
X13071967Y-15636484D01*
X13071967Y-15636484D02*
X13005301Y-15712674D01*
X13005301Y-15712674D02*
X13033872Y-15712674D01*
X13033872Y-15712674D02*
X13052920Y-15722198D01*
X13052920Y-15722198D02*
X13062444Y-15731722D01*
X13062444Y-15731722D02*
X13071967Y-15750769D01*
X13071967Y-15750769D02*
X13071967Y-15798388D01*
X13071967Y-15798388D02*
X13062444Y-15817436D01*
X13062444Y-15817436D02*
X13052920Y-15826960D01*
X13052920Y-15826960D02*
X13033872Y-15836484D01*
X13033872Y-15836484D02*
X12976729Y-15836484D01*
X12976729Y-15836484D02*
X12957682Y-15826960D01*
X12957682Y-15826960D02*
X12948158Y-15817436D01*
X13243396Y-15636484D02*
X13205301Y-15636484D01*
X13205301Y-15636484D02*
X13186253Y-15646008D01*
X13186253Y-15646008D02*
X13176729Y-15655531D01*
X13176729Y-15655531D02*
X13157682Y-15684103D01*
X13157682Y-15684103D02*
X13148158Y-15722198D01*
X13148158Y-15722198D02*
X13148158Y-15798388D01*
X13148158Y-15798388D02*
X13157682Y-15817436D01*
X13157682Y-15817436D02*
X13167206Y-15826960D01*
X13167206Y-15826960D02*
X13186253Y-15836484D01*
X13186253Y-15836484D02*
X13224348Y-15836484D01*
X13224348Y-15836484D02*
X13243396Y-15826960D01*
X13243396Y-15826960D02*
X13252920Y-15817436D01*
X13252920Y-15817436D02*
X13262444Y-15798388D01*
X13262444Y-15798388D02*
X13262444Y-15750769D01*
X13262444Y-15750769D02*
X13252920Y-15731722D01*
X13252920Y-15731722D02*
X13243396Y-15722198D01*
X13243396Y-15722198D02*
X13224348Y-15712674D01*
X13224348Y-15712674D02*
X13186253Y-15712674D01*
X13186253Y-15712674D02*
X13167206Y-15722198D01*
X13167206Y-15722198D02*
X13157682Y-15731722D01*
X13157682Y-15731722D02*
X13148158Y-15750769D01*
X13338634Y-15636484D02*
X13338634Y-15674579D01*
X13414825Y-15636484D02*
X13414825Y-15674579D01*
X13710063Y-15912674D02*
X13700539Y-15903150D01*
X13700539Y-15903150D02*
X13681491Y-15874579D01*
X13681491Y-15874579D02*
X13671968Y-15855531D01*
X13671968Y-15855531D02*
X13662444Y-15826960D01*
X13662444Y-15826960D02*
X13652920Y-15779341D01*
X13652920Y-15779341D02*
X13652920Y-15741246D01*
X13652920Y-15741246D02*
X13662444Y-15693627D01*
X13662444Y-15693627D02*
X13671968Y-15665055D01*
X13671968Y-15665055D02*
X13681491Y-15646008D01*
X13681491Y-15646008D02*
X13700539Y-15617436D01*
X13700539Y-15617436D02*
X13710063Y-15607912D01*
X13776729Y-15655531D02*
X13786253Y-15646008D01*
X13786253Y-15646008D02*
X13805301Y-15636484D01*
X13805301Y-15636484D02*
X13852920Y-15636484D01*
X13852920Y-15636484D02*
X13871968Y-15646008D01*
X13871968Y-15646008D02*
X13881491Y-15655531D01*
X13881491Y-15655531D02*
X13891015Y-15674579D01*
X13891015Y-15674579D02*
X13891015Y-15693627D01*
X13891015Y-15693627D02*
X13881491Y-15722198D01*
X13881491Y-15722198D02*
X13767206Y-15836484D01*
X13767206Y-15836484D02*
X13891015Y-15836484D01*
X13957682Y-15636484D02*
X14091015Y-15636484D01*
X14091015Y-15636484D02*
X14005301Y-15836484D01*
X14319587Y-15836484D02*
X14319587Y-15636484D01*
X14405301Y-15836484D02*
X14405301Y-15731722D01*
X14405301Y-15731722D02*
X14395777Y-15712674D01*
X14395777Y-15712674D02*
X14376730Y-15703150D01*
X14376730Y-15703150D02*
X14348158Y-15703150D01*
X14348158Y-15703150D02*
X14329110Y-15712674D01*
X14329110Y-15712674D02*
X14319587Y-15722198D01*
X14529110Y-15836484D02*
X14510063Y-15826960D01*
X14510063Y-15826960D02*
X14500539Y-15817436D01*
X14500539Y-15817436D02*
X14491015Y-15798388D01*
X14491015Y-15798388D02*
X14491015Y-15741246D01*
X14491015Y-15741246D02*
X14500539Y-15722198D01*
X14500539Y-15722198D02*
X14510063Y-15712674D01*
X14510063Y-15712674D02*
X14529110Y-15703150D01*
X14529110Y-15703150D02*
X14557682Y-15703150D01*
X14557682Y-15703150D02*
X14576730Y-15712674D01*
X14576730Y-15712674D02*
X14586253Y-15722198D01*
X14586253Y-15722198D02*
X14595777Y-15741246D01*
X14595777Y-15741246D02*
X14595777Y-15798388D01*
X14595777Y-15798388D02*
X14586253Y-15817436D01*
X14586253Y-15817436D02*
X14576730Y-15826960D01*
X14576730Y-15826960D02*
X14557682Y-15836484D01*
X14557682Y-15836484D02*
X14529110Y-15836484D01*
X14710063Y-15836484D02*
X14691015Y-15826960D01*
X14691015Y-15826960D02*
X14681491Y-15807912D01*
X14681491Y-15807912D02*
X14681491Y-15636484D01*
X14862444Y-15826960D02*
X14843396Y-15836484D01*
X14843396Y-15836484D02*
X14805301Y-15836484D01*
X14805301Y-15836484D02*
X14786253Y-15826960D01*
X14786253Y-15826960D02*
X14776730Y-15807912D01*
X14776730Y-15807912D02*
X14776730Y-15731722D01*
X14776730Y-15731722D02*
X14786253Y-15712674D01*
X14786253Y-15712674D02*
X14805301Y-15703150D01*
X14805301Y-15703150D02*
X14843396Y-15703150D01*
X14843396Y-15703150D02*
X14862444Y-15712674D01*
X14862444Y-15712674D02*
X14871968Y-15731722D01*
X14871968Y-15731722D02*
X14871968Y-15750769D01*
X14871968Y-15750769D02*
X14776730Y-15769817D01*
X14948158Y-15826960D02*
X14967206Y-15836484D01*
X14967206Y-15836484D02*
X15005301Y-15836484D01*
X15005301Y-15836484D02*
X15024349Y-15826960D01*
X15024349Y-15826960D02*
X15033872Y-15807912D01*
X15033872Y-15807912D02*
X15033872Y-15798388D01*
X15033872Y-15798388D02*
X15024349Y-15779341D01*
X15024349Y-15779341D02*
X15005301Y-15769817D01*
X15005301Y-15769817D02*
X14976730Y-15769817D01*
X14976730Y-15769817D02*
X14957682Y-15760293D01*
X14957682Y-15760293D02*
X14948158Y-15741246D01*
X14948158Y-15741246D02*
X14948158Y-15731722D01*
X14948158Y-15731722D02*
X14957682Y-15712674D01*
X14957682Y-15712674D02*
X14976730Y-15703150D01*
X14976730Y-15703150D02*
X15005301Y-15703150D01*
X15005301Y-15703150D02*
X15024349Y-15712674D01*
X15100539Y-15912674D02*
X15110063Y-15903150D01*
X15110063Y-15903150D02*
X15129111Y-15874579D01*
X15129111Y-15874579D02*
X15138634Y-15855531D01*
X15138634Y-15855531D02*
X15148158Y-15826960D01*
X15148158Y-15826960D02*
X15157682Y-15779341D01*
X15157682Y-15779341D02*
X15157682Y-15741246D01*
X15157682Y-15741246D02*
X15148158Y-15693627D01*
X15148158Y-15693627D02*
X15138634Y-15665055D01*
X15138634Y-15665055D02*
X15129111Y-15646008D01*
X15129111Y-15646008D02*
X15110063Y-15617436D01*
X15110063Y-15617436D02*
X15100539Y-15607912D01*
D12*
X10135000Y-16009000D02*
G75*
G03*
X10055000Y-16009000I-40000J0D01*
G01*
X10055000Y-16009000D02*
G75*
G03*
X10135000Y-16009000I40000J0D01*
G01*
D11*
X10433872Y-15900484D02*
X10452920Y-15900484D01*
X10452920Y-15900484D02*
X10471967Y-15910008D01*
X10471967Y-15910008D02*
X10481491Y-15919531D01*
X10481491Y-15919531D02*
X10491015Y-15938579D01*
X10491015Y-15938579D02*
X10500539Y-15976674D01*
X10500539Y-15976674D02*
X10500539Y-16024293D01*
X10500539Y-16024293D02*
X10491015Y-16062388D01*
X10491015Y-16062388D02*
X10481491Y-16081436D01*
X10481491Y-16081436D02*
X10471967Y-16090960D01*
X10471967Y-16090960D02*
X10452920Y-16100484D01*
X10452920Y-16100484D02*
X10433872Y-16100484D01*
X10433872Y-16100484D02*
X10414824Y-16090960D01*
X10414824Y-16090960D02*
X10405301Y-16081436D01*
X10405301Y-16081436D02*
X10395777Y-16062388D01*
X10395777Y-16062388D02*
X10386253Y-16024293D01*
X10386253Y-16024293D02*
X10386253Y-15976674D01*
X10386253Y-15976674D02*
X10395777Y-15938579D01*
X10395777Y-15938579D02*
X10405301Y-15919531D01*
X10405301Y-15919531D02*
X10414824Y-15910008D01*
X10414824Y-15910008D02*
X10433872Y-15900484D01*
X10586253Y-16081436D02*
X10595777Y-16090960D01*
X10595777Y-16090960D02*
X10586253Y-16100484D01*
X10586253Y-16100484D02*
X10576729Y-16090960D01*
X10576729Y-16090960D02*
X10586253Y-16081436D01*
X10586253Y-16081436D02*
X10586253Y-16100484D01*
X10710063Y-15986198D02*
X10691015Y-15976674D01*
X10691015Y-15976674D02*
X10681491Y-15967150D01*
X10681491Y-15967150D02*
X10671967Y-15948103D01*
X10671967Y-15948103D02*
X10671967Y-15938579D01*
X10671967Y-15938579D02*
X10681491Y-15919531D01*
X10681491Y-15919531D02*
X10691015Y-15910008D01*
X10691015Y-15910008D02*
X10710063Y-15900484D01*
X10710063Y-15900484D02*
X10748158Y-15900484D01*
X10748158Y-15900484D02*
X10767205Y-15910008D01*
X10767205Y-15910008D02*
X10776729Y-15919531D01*
X10776729Y-15919531D02*
X10786253Y-15938579D01*
X10786253Y-15938579D02*
X10786253Y-15948103D01*
X10786253Y-15948103D02*
X10776729Y-15967150D01*
X10776729Y-15967150D02*
X10767205Y-15976674D01*
X10767205Y-15976674D02*
X10748158Y-15986198D01*
X10748158Y-15986198D02*
X10710063Y-15986198D01*
X10710063Y-15986198D02*
X10691015Y-15995722D01*
X10691015Y-15995722D02*
X10681491Y-16005246D01*
X10681491Y-16005246D02*
X10671967Y-16024293D01*
X10671967Y-16024293D02*
X10671967Y-16062388D01*
X10671967Y-16062388D02*
X10681491Y-16081436D01*
X10681491Y-16081436D02*
X10691015Y-16090960D01*
X10691015Y-16090960D02*
X10710063Y-16100484D01*
X10710063Y-16100484D02*
X10748158Y-16100484D01*
X10748158Y-16100484D02*
X10767205Y-16090960D01*
X10767205Y-16090960D02*
X10776729Y-16081436D01*
X10776729Y-16081436D02*
X10786253Y-16062388D01*
X10786253Y-16062388D02*
X10786253Y-16024293D01*
X10786253Y-16024293D02*
X10776729Y-16005246D01*
X10776729Y-16005246D02*
X10767205Y-15995722D01*
X10767205Y-15995722D02*
X10748158Y-15986198D01*
X10910063Y-15900484D02*
X10929110Y-15900484D01*
X10929110Y-15900484D02*
X10948158Y-15910008D01*
X10948158Y-15910008D02*
X10957682Y-15919531D01*
X10957682Y-15919531D02*
X10967205Y-15938579D01*
X10967205Y-15938579D02*
X10976729Y-15976674D01*
X10976729Y-15976674D02*
X10976729Y-16024293D01*
X10976729Y-16024293D02*
X10967205Y-16062388D01*
X10967205Y-16062388D02*
X10957682Y-16081436D01*
X10957682Y-16081436D02*
X10948158Y-16090960D01*
X10948158Y-16090960D02*
X10929110Y-16100484D01*
X10929110Y-16100484D02*
X10910063Y-16100484D01*
X10910063Y-16100484D02*
X10891015Y-16090960D01*
X10891015Y-16090960D02*
X10881491Y-16081436D01*
X10881491Y-16081436D02*
X10871967Y-16062388D01*
X10871967Y-16062388D02*
X10862444Y-16024293D01*
X10862444Y-16024293D02*
X10862444Y-15976674D01*
X10862444Y-15976674D02*
X10871967Y-15938579D01*
X10871967Y-15938579D02*
X10881491Y-15919531D01*
X10881491Y-15919531D02*
X10891015Y-15910008D01*
X10891015Y-15910008D02*
X10910063Y-15900484D01*
X11100539Y-15900484D02*
X11119586Y-15900484D01*
X11119586Y-15900484D02*
X11138634Y-15910008D01*
X11138634Y-15910008D02*
X11148158Y-15919531D01*
X11148158Y-15919531D02*
X11157682Y-15938579D01*
X11157682Y-15938579D02*
X11167205Y-15976674D01*
X11167205Y-15976674D02*
X11167205Y-16024293D01*
X11167205Y-16024293D02*
X11157682Y-16062388D01*
X11157682Y-16062388D02*
X11148158Y-16081436D01*
X11148158Y-16081436D02*
X11138634Y-16090960D01*
X11138634Y-16090960D02*
X11119586Y-16100484D01*
X11119586Y-16100484D02*
X11100539Y-16100484D01*
X11100539Y-16100484D02*
X11081491Y-16090960D01*
X11081491Y-16090960D02*
X11071967Y-16081436D01*
X11071967Y-16081436D02*
X11062444Y-16062388D01*
X11062444Y-16062388D02*
X11052920Y-16024293D01*
X11052920Y-16024293D02*
X11052920Y-15976674D01*
X11052920Y-15976674D02*
X11062444Y-15938579D01*
X11062444Y-15938579D02*
X11071967Y-15919531D01*
X11071967Y-15919531D02*
X11081491Y-15910008D01*
X11081491Y-15910008D02*
X11100539Y-15900484D01*
X11252920Y-16100484D02*
X11252920Y-15967150D01*
X11252920Y-15986198D02*
X11262443Y-15976674D01*
X11262443Y-15976674D02*
X11281491Y-15967150D01*
X11281491Y-15967150D02*
X11310063Y-15967150D01*
X11310063Y-15967150D02*
X11329110Y-15976674D01*
X11329110Y-15976674D02*
X11338634Y-15995722D01*
X11338634Y-15995722D02*
X11338634Y-16100484D01*
X11338634Y-15995722D02*
X11348158Y-15976674D01*
X11348158Y-15976674D02*
X11367205Y-15967150D01*
X11367205Y-15967150D02*
X11395777Y-15967150D01*
X11395777Y-15967150D02*
X11414824Y-15976674D01*
X11414824Y-15976674D02*
X11424348Y-15995722D01*
X11424348Y-15995722D02*
X11424348Y-16100484D01*
X11519586Y-16100484D02*
X11519586Y-15967150D01*
X11519586Y-15986198D02*
X11529110Y-15976674D01*
X11529110Y-15976674D02*
X11548158Y-15967150D01*
X11548158Y-15967150D02*
X11576729Y-15967150D01*
X11576729Y-15967150D02*
X11595777Y-15976674D01*
X11595777Y-15976674D02*
X11605301Y-15995722D01*
X11605301Y-15995722D02*
X11605301Y-16100484D01*
X11605301Y-15995722D02*
X11614824Y-15976674D01*
X11614824Y-15976674D02*
X11633872Y-15967150D01*
X11633872Y-15967150D02*
X11662443Y-15967150D01*
X11662443Y-15967150D02*
X11681491Y-15976674D01*
X11681491Y-15976674D02*
X11691015Y-15995722D01*
X11691015Y-15995722D02*
X11691015Y-16100484D01*
X12081491Y-15890960D02*
X11910063Y-16148103D01*
X12338634Y-15900484D02*
X12357682Y-15900484D01*
X12357682Y-15900484D02*
X12376729Y-15910008D01*
X12376729Y-15910008D02*
X12386253Y-15919531D01*
X12386253Y-15919531D02*
X12395777Y-15938579D01*
X12395777Y-15938579D02*
X12405301Y-15976674D01*
X12405301Y-15976674D02*
X12405301Y-16024293D01*
X12405301Y-16024293D02*
X12395777Y-16062388D01*
X12395777Y-16062388D02*
X12386253Y-16081436D01*
X12386253Y-16081436D02*
X12376729Y-16090960D01*
X12376729Y-16090960D02*
X12357682Y-16100484D01*
X12357682Y-16100484D02*
X12338634Y-16100484D01*
X12338634Y-16100484D02*
X12319586Y-16090960D01*
X12319586Y-16090960D02*
X12310063Y-16081436D01*
X12310063Y-16081436D02*
X12300539Y-16062388D01*
X12300539Y-16062388D02*
X12291015Y-16024293D01*
X12291015Y-16024293D02*
X12291015Y-15976674D01*
X12291015Y-15976674D02*
X12300539Y-15938579D01*
X12300539Y-15938579D02*
X12310063Y-15919531D01*
X12310063Y-15919531D02*
X12319586Y-15910008D01*
X12319586Y-15910008D02*
X12338634Y-15900484D01*
X12491015Y-16081436D02*
X12500539Y-16090960D01*
X12500539Y-16090960D02*
X12491015Y-16100484D01*
X12491015Y-16100484D02*
X12481491Y-16090960D01*
X12481491Y-16090960D02*
X12491015Y-16081436D01*
X12491015Y-16081436D02*
X12491015Y-16100484D01*
X12624348Y-15900484D02*
X12643396Y-15900484D01*
X12643396Y-15900484D02*
X12662444Y-15910008D01*
X12662444Y-15910008D02*
X12671967Y-15919531D01*
X12671967Y-15919531D02*
X12681491Y-15938579D01*
X12681491Y-15938579D02*
X12691015Y-15976674D01*
X12691015Y-15976674D02*
X12691015Y-16024293D01*
X12691015Y-16024293D02*
X12681491Y-16062388D01*
X12681491Y-16062388D02*
X12671967Y-16081436D01*
X12671967Y-16081436D02*
X12662444Y-16090960D01*
X12662444Y-16090960D02*
X12643396Y-16100484D01*
X12643396Y-16100484D02*
X12624348Y-16100484D01*
X12624348Y-16100484D02*
X12605301Y-16090960D01*
X12605301Y-16090960D02*
X12595777Y-16081436D01*
X12595777Y-16081436D02*
X12586253Y-16062388D01*
X12586253Y-16062388D02*
X12576729Y-16024293D01*
X12576729Y-16024293D02*
X12576729Y-15976674D01*
X12576729Y-15976674D02*
X12586253Y-15938579D01*
X12586253Y-15938579D02*
X12595777Y-15919531D01*
X12595777Y-15919531D02*
X12605301Y-15910008D01*
X12605301Y-15910008D02*
X12624348Y-15900484D01*
X12757682Y-15900484D02*
X12881491Y-15900484D01*
X12881491Y-15900484D02*
X12814825Y-15976674D01*
X12814825Y-15976674D02*
X12843396Y-15976674D01*
X12843396Y-15976674D02*
X12862444Y-15986198D01*
X12862444Y-15986198D02*
X12871967Y-15995722D01*
X12871967Y-15995722D02*
X12881491Y-16014769D01*
X12881491Y-16014769D02*
X12881491Y-16062388D01*
X12881491Y-16062388D02*
X12871967Y-16081436D01*
X12871967Y-16081436D02*
X12862444Y-16090960D01*
X12862444Y-16090960D02*
X12843396Y-16100484D01*
X12843396Y-16100484D02*
X12786253Y-16100484D01*
X12786253Y-16100484D02*
X12767206Y-16090960D01*
X12767206Y-16090960D02*
X12757682Y-16081436D01*
X13071967Y-16100484D02*
X12957682Y-16100484D01*
X13014825Y-16100484D02*
X13014825Y-15900484D01*
X13014825Y-15900484D02*
X12995777Y-15929055D01*
X12995777Y-15929055D02*
X12976729Y-15948103D01*
X12976729Y-15948103D02*
X12957682Y-15957627D01*
X13252920Y-15900484D02*
X13157682Y-15900484D01*
X13157682Y-15900484D02*
X13148158Y-15995722D01*
X13148158Y-15995722D02*
X13157682Y-15986198D01*
X13157682Y-15986198D02*
X13176729Y-15976674D01*
X13176729Y-15976674D02*
X13224348Y-15976674D01*
X13224348Y-15976674D02*
X13243396Y-15986198D01*
X13243396Y-15986198D02*
X13252920Y-15995722D01*
X13252920Y-15995722D02*
X13262444Y-16014769D01*
X13262444Y-16014769D02*
X13262444Y-16062388D01*
X13262444Y-16062388D02*
X13252920Y-16081436D01*
X13252920Y-16081436D02*
X13243396Y-16090960D01*
X13243396Y-16090960D02*
X13224348Y-16100484D01*
X13224348Y-16100484D02*
X13176729Y-16100484D01*
X13176729Y-16100484D02*
X13157682Y-16090960D01*
X13157682Y-16090960D02*
X13148158Y-16081436D01*
X13338634Y-15900484D02*
X13338634Y-15938579D01*
X13414825Y-15900484D02*
X13414825Y-15938579D01*
X13710063Y-16176674D02*
X13700539Y-16167150D01*
X13700539Y-16167150D02*
X13681491Y-16138579D01*
X13681491Y-16138579D02*
X13671968Y-16119531D01*
X13671968Y-16119531D02*
X13662444Y-16090960D01*
X13662444Y-16090960D02*
X13652920Y-16043341D01*
X13652920Y-16043341D02*
X13652920Y-16005246D01*
X13652920Y-16005246D02*
X13662444Y-15957627D01*
X13662444Y-15957627D02*
X13671968Y-15929055D01*
X13671968Y-15929055D02*
X13681491Y-15910008D01*
X13681491Y-15910008D02*
X13700539Y-15881436D01*
X13700539Y-15881436D02*
X13710063Y-15871912D01*
X13767206Y-15900484D02*
X13900539Y-15900484D01*
X13900539Y-15900484D02*
X13814825Y-16100484D01*
X14062444Y-15900484D02*
X14024348Y-15900484D01*
X14024348Y-15900484D02*
X14005301Y-15910008D01*
X14005301Y-15910008D02*
X13995777Y-15919531D01*
X13995777Y-15919531D02*
X13976729Y-15948103D01*
X13976729Y-15948103D02*
X13967206Y-15986198D01*
X13967206Y-15986198D02*
X13967206Y-16062388D01*
X13967206Y-16062388D02*
X13976729Y-16081436D01*
X13976729Y-16081436D02*
X13986253Y-16090960D01*
X13986253Y-16090960D02*
X14005301Y-16100484D01*
X14005301Y-16100484D02*
X14043396Y-16100484D01*
X14043396Y-16100484D02*
X14062444Y-16090960D01*
X14062444Y-16090960D02*
X14071968Y-16081436D01*
X14071968Y-16081436D02*
X14081491Y-16062388D01*
X14081491Y-16062388D02*
X14081491Y-16014769D01*
X14081491Y-16014769D02*
X14071968Y-15995722D01*
X14071968Y-15995722D02*
X14062444Y-15986198D01*
X14062444Y-15986198D02*
X14043396Y-15976674D01*
X14043396Y-15976674D02*
X14005301Y-15976674D01*
X14005301Y-15976674D02*
X13986253Y-15986198D01*
X13986253Y-15986198D02*
X13976729Y-15995722D01*
X13976729Y-15995722D02*
X13967206Y-16014769D01*
X14319587Y-16100484D02*
X14319587Y-15900484D01*
X14405301Y-16100484D02*
X14405301Y-15995722D01*
X14405301Y-15995722D02*
X14395777Y-15976674D01*
X14395777Y-15976674D02*
X14376730Y-15967150D01*
X14376730Y-15967150D02*
X14348158Y-15967150D01*
X14348158Y-15967150D02*
X14329110Y-15976674D01*
X14329110Y-15976674D02*
X14319587Y-15986198D01*
X14529110Y-16100484D02*
X14510063Y-16090960D01*
X14510063Y-16090960D02*
X14500539Y-16081436D01*
X14500539Y-16081436D02*
X14491015Y-16062388D01*
X14491015Y-16062388D02*
X14491015Y-16005246D01*
X14491015Y-16005246D02*
X14500539Y-15986198D01*
X14500539Y-15986198D02*
X14510063Y-15976674D01*
X14510063Y-15976674D02*
X14529110Y-15967150D01*
X14529110Y-15967150D02*
X14557682Y-15967150D01*
X14557682Y-15967150D02*
X14576730Y-15976674D01*
X14576730Y-15976674D02*
X14586253Y-15986198D01*
X14586253Y-15986198D02*
X14595777Y-16005246D01*
X14595777Y-16005246D02*
X14595777Y-16062388D01*
X14595777Y-16062388D02*
X14586253Y-16081436D01*
X14586253Y-16081436D02*
X14576730Y-16090960D01*
X14576730Y-16090960D02*
X14557682Y-16100484D01*
X14557682Y-16100484D02*
X14529110Y-16100484D01*
X14710063Y-16100484D02*
X14691015Y-16090960D01*
X14691015Y-16090960D02*
X14681491Y-16071912D01*
X14681491Y-16071912D02*
X14681491Y-15900484D01*
X14862444Y-16090960D02*
X14843396Y-16100484D01*
X14843396Y-16100484D02*
X14805301Y-16100484D01*
X14805301Y-16100484D02*
X14786253Y-16090960D01*
X14786253Y-16090960D02*
X14776730Y-16071912D01*
X14776730Y-16071912D02*
X14776730Y-15995722D01*
X14776730Y-15995722D02*
X14786253Y-15976674D01*
X14786253Y-15976674D02*
X14805301Y-15967150D01*
X14805301Y-15967150D02*
X14843396Y-15967150D01*
X14843396Y-15967150D02*
X14862444Y-15976674D01*
X14862444Y-15976674D02*
X14871968Y-15995722D01*
X14871968Y-15995722D02*
X14871968Y-16014769D01*
X14871968Y-16014769D02*
X14776730Y-16033817D01*
X14948158Y-16090960D02*
X14967206Y-16100484D01*
X14967206Y-16100484D02*
X15005301Y-16100484D01*
X15005301Y-16100484D02*
X15024349Y-16090960D01*
X15024349Y-16090960D02*
X15033872Y-16071912D01*
X15033872Y-16071912D02*
X15033872Y-16062388D01*
X15033872Y-16062388D02*
X15024349Y-16043341D01*
X15024349Y-16043341D02*
X15005301Y-16033817D01*
X15005301Y-16033817D02*
X14976730Y-16033817D01*
X14976730Y-16033817D02*
X14957682Y-16024293D01*
X14957682Y-16024293D02*
X14948158Y-16005246D01*
X14948158Y-16005246D02*
X14948158Y-15995722D01*
X14948158Y-15995722D02*
X14957682Y-15976674D01*
X14957682Y-15976674D02*
X14976730Y-15967150D01*
X14976730Y-15967150D02*
X15005301Y-15967150D01*
X15005301Y-15967150D02*
X15024349Y-15976674D01*
X15100539Y-16176674D02*
X15110063Y-16167150D01*
X15110063Y-16167150D02*
X15129111Y-16138579D01*
X15129111Y-16138579D02*
X15138634Y-16119531D01*
X15138634Y-16119531D02*
X15148158Y-16090960D01*
X15148158Y-16090960D02*
X15157682Y-16043341D01*
X15157682Y-16043341D02*
X15157682Y-16005246D01*
X15157682Y-16005246D02*
X15148158Y-15957627D01*
X15148158Y-15957627D02*
X15138634Y-15929055D01*
X15138634Y-15929055D02*
X15129111Y-15910008D01*
X15129111Y-15910008D02*
X15110063Y-15881436D01*
X15110063Y-15881436D02*
X15100539Y-15871912D01*
D12*
X10094360Y-16232360D02*
X10094360Y-16313640D01*
X10053720Y-16273000D02*
X10135000Y-16273000D01*
D11*
X10433872Y-16164484D02*
X10452920Y-16164484D01*
X10452920Y-16164484D02*
X10471967Y-16174008D01*
X10471967Y-16174008D02*
X10481491Y-16183531D01*
X10481491Y-16183531D02*
X10491015Y-16202579D01*
X10491015Y-16202579D02*
X10500539Y-16240674D01*
X10500539Y-16240674D02*
X10500539Y-16288293D01*
X10500539Y-16288293D02*
X10491015Y-16326388D01*
X10491015Y-16326388D02*
X10481491Y-16345436D01*
X10481491Y-16345436D02*
X10471967Y-16354960D01*
X10471967Y-16354960D02*
X10452920Y-16364484D01*
X10452920Y-16364484D02*
X10433872Y-16364484D01*
X10433872Y-16364484D02*
X10414824Y-16354960D01*
X10414824Y-16354960D02*
X10405301Y-16345436D01*
X10405301Y-16345436D02*
X10395777Y-16326388D01*
X10395777Y-16326388D02*
X10386253Y-16288293D01*
X10386253Y-16288293D02*
X10386253Y-16240674D01*
X10386253Y-16240674D02*
X10395777Y-16202579D01*
X10395777Y-16202579D02*
X10405301Y-16183531D01*
X10405301Y-16183531D02*
X10414824Y-16174008D01*
X10414824Y-16174008D02*
X10433872Y-16164484D01*
X10586253Y-16345436D02*
X10595777Y-16354960D01*
X10595777Y-16354960D02*
X10586253Y-16364484D01*
X10586253Y-16364484D02*
X10576729Y-16354960D01*
X10576729Y-16354960D02*
X10586253Y-16345436D01*
X10586253Y-16345436D02*
X10586253Y-16364484D01*
X10710063Y-16250198D02*
X10691015Y-16240674D01*
X10691015Y-16240674D02*
X10681491Y-16231150D01*
X10681491Y-16231150D02*
X10671967Y-16212103D01*
X10671967Y-16212103D02*
X10671967Y-16202579D01*
X10671967Y-16202579D02*
X10681491Y-16183531D01*
X10681491Y-16183531D02*
X10691015Y-16174008D01*
X10691015Y-16174008D02*
X10710063Y-16164484D01*
X10710063Y-16164484D02*
X10748158Y-16164484D01*
X10748158Y-16164484D02*
X10767205Y-16174008D01*
X10767205Y-16174008D02*
X10776729Y-16183531D01*
X10776729Y-16183531D02*
X10786253Y-16202579D01*
X10786253Y-16202579D02*
X10786253Y-16212103D01*
X10786253Y-16212103D02*
X10776729Y-16231150D01*
X10776729Y-16231150D02*
X10767205Y-16240674D01*
X10767205Y-16240674D02*
X10748158Y-16250198D01*
X10748158Y-16250198D02*
X10710063Y-16250198D01*
X10710063Y-16250198D02*
X10691015Y-16259722D01*
X10691015Y-16259722D02*
X10681491Y-16269246D01*
X10681491Y-16269246D02*
X10671967Y-16288293D01*
X10671967Y-16288293D02*
X10671967Y-16326388D01*
X10671967Y-16326388D02*
X10681491Y-16345436D01*
X10681491Y-16345436D02*
X10691015Y-16354960D01*
X10691015Y-16354960D02*
X10710063Y-16364484D01*
X10710063Y-16364484D02*
X10748158Y-16364484D01*
X10748158Y-16364484D02*
X10767205Y-16354960D01*
X10767205Y-16354960D02*
X10776729Y-16345436D01*
X10776729Y-16345436D02*
X10786253Y-16326388D01*
X10786253Y-16326388D02*
X10786253Y-16288293D01*
X10786253Y-16288293D02*
X10776729Y-16269246D01*
X10776729Y-16269246D02*
X10767205Y-16259722D01*
X10767205Y-16259722D02*
X10748158Y-16250198D01*
X10976729Y-16364484D02*
X10862444Y-16364484D01*
X10919586Y-16364484D02*
X10919586Y-16164484D01*
X10919586Y-16164484D02*
X10900539Y-16193055D01*
X10900539Y-16193055D02*
X10881491Y-16212103D01*
X10881491Y-16212103D02*
X10862444Y-16221627D01*
X11043396Y-16164484D02*
X11167205Y-16164484D01*
X11167205Y-16164484D02*
X11100539Y-16240674D01*
X11100539Y-16240674D02*
X11129110Y-16240674D01*
X11129110Y-16240674D02*
X11148158Y-16250198D01*
X11148158Y-16250198D02*
X11157682Y-16259722D01*
X11157682Y-16259722D02*
X11167205Y-16278769D01*
X11167205Y-16278769D02*
X11167205Y-16326388D01*
X11167205Y-16326388D02*
X11157682Y-16345436D01*
X11157682Y-16345436D02*
X11148158Y-16354960D01*
X11148158Y-16354960D02*
X11129110Y-16364484D01*
X11129110Y-16364484D02*
X11071967Y-16364484D01*
X11071967Y-16364484D02*
X11052920Y-16354960D01*
X11052920Y-16354960D02*
X11043396Y-16345436D01*
X11252920Y-16364484D02*
X11252920Y-16231150D01*
X11252920Y-16250198D02*
X11262443Y-16240674D01*
X11262443Y-16240674D02*
X11281491Y-16231150D01*
X11281491Y-16231150D02*
X11310063Y-16231150D01*
X11310063Y-16231150D02*
X11329110Y-16240674D01*
X11329110Y-16240674D02*
X11338634Y-16259722D01*
X11338634Y-16259722D02*
X11338634Y-16364484D01*
X11338634Y-16259722D02*
X11348158Y-16240674D01*
X11348158Y-16240674D02*
X11367205Y-16231150D01*
X11367205Y-16231150D02*
X11395777Y-16231150D01*
X11395777Y-16231150D02*
X11414824Y-16240674D01*
X11414824Y-16240674D02*
X11424348Y-16259722D01*
X11424348Y-16259722D02*
X11424348Y-16364484D01*
X11519586Y-16364484D02*
X11519586Y-16231150D01*
X11519586Y-16250198D02*
X11529110Y-16240674D01*
X11529110Y-16240674D02*
X11548158Y-16231150D01*
X11548158Y-16231150D02*
X11576729Y-16231150D01*
X11576729Y-16231150D02*
X11595777Y-16240674D01*
X11595777Y-16240674D02*
X11605301Y-16259722D01*
X11605301Y-16259722D02*
X11605301Y-16364484D01*
X11605301Y-16259722D02*
X11614824Y-16240674D01*
X11614824Y-16240674D02*
X11633872Y-16231150D01*
X11633872Y-16231150D02*
X11662443Y-16231150D01*
X11662443Y-16231150D02*
X11681491Y-16240674D01*
X11681491Y-16240674D02*
X11691015Y-16259722D01*
X11691015Y-16259722D02*
X11691015Y-16364484D01*
X12081491Y-16154960D02*
X11910063Y-16412103D01*
X12338634Y-16164484D02*
X12357682Y-16164484D01*
X12357682Y-16164484D02*
X12376729Y-16174008D01*
X12376729Y-16174008D02*
X12386253Y-16183531D01*
X12386253Y-16183531D02*
X12395777Y-16202579D01*
X12395777Y-16202579D02*
X12405301Y-16240674D01*
X12405301Y-16240674D02*
X12405301Y-16288293D01*
X12405301Y-16288293D02*
X12395777Y-16326388D01*
X12395777Y-16326388D02*
X12386253Y-16345436D01*
X12386253Y-16345436D02*
X12376729Y-16354960D01*
X12376729Y-16354960D02*
X12357682Y-16364484D01*
X12357682Y-16364484D02*
X12338634Y-16364484D01*
X12338634Y-16364484D02*
X12319586Y-16354960D01*
X12319586Y-16354960D02*
X12310063Y-16345436D01*
X12310063Y-16345436D02*
X12300539Y-16326388D01*
X12300539Y-16326388D02*
X12291015Y-16288293D01*
X12291015Y-16288293D02*
X12291015Y-16240674D01*
X12291015Y-16240674D02*
X12300539Y-16202579D01*
X12300539Y-16202579D02*
X12310063Y-16183531D01*
X12310063Y-16183531D02*
X12319586Y-16174008D01*
X12319586Y-16174008D02*
X12338634Y-16164484D01*
X12491015Y-16345436D02*
X12500539Y-16354960D01*
X12500539Y-16354960D02*
X12491015Y-16364484D01*
X12491015Y-16364484D02*
X12481491Y-16354960D01*
X12481491Y-16354960D02*
X12491015Y-16345436D01*
X12491015Y-16345436D02*
X12491015Y-16364484D01*
X12624348Y-16164484D02*
X12643396Y-16164484D01*
X12643396Y-16164484D02*
X12662444Y-16174008D01*
X12662444Y-16174008D02*
X12671967Y-16183531D01*
X12671967Y-16183531D02*
X12681491Y-16202579D01*
X12681491Y-16202579D02*
X12691015Y-16240674D01*
X12691015Y-16240674D02*
X12691015Y-16288293D01*
X12691015Y-16288293D02*
X12681491Y-16326388D01*
X12681491Y-16326388D02*
X12671967Y-16345436D01*
X12671967Y-16345436D02*
X12662444Y-16354960D01*
X12662444Y-16354960D02*
X12643396Y-16364484D01*
X12643396Y-16364484D02*
X12624348Y-16364484D01*
X12624348Y-16364484D02*
X12605301Y-16354960D01*
X12605301Y-16354960D02*
X12595777Y-16345436D01*
X12595777Y-16345436D02*
X12586253Y-16326388D01*
X12586253Y-16326388D02*
X12576729Y-16288293D01*
X12576729Y-16288293D02*
X12576729Y-16240674D01*
X12576729Y-16240674D02*
X12586253Y-16202579D01*
X12586253Y-16202579D02*
X12595777Y-16183531D01*
X12595777Y-16183531D02*
X12605301Y-16174008D01*
X12605301Y-16174008D02*
X12624348Y-16164484D01*
X12757682Y-16164484D02*
X12881491Y-16164484D01*
X12881491Y-16164484D02*
X12814825Y-16240674D01*
X12814825Y-16240674D02*
X12843396Y-16240674D01*
X12843396Y-16240674D02*
X12862444Y-16250198D01*
X12862444Y-16250198D02*
X12871967Y-16259722D01*
X12871967Y-16259722D02*
X12881491Y-16278769D01*
X12881491Y-16278769D02*
X12881491Y-16326388D01*
X12881491Y-16326388D02*
X12871967Y-16345436D01*
X12871967Y-16345436D02*
X12862444Y-16354960D01*
X12862444Y-16354960D02*
X12843396Y-16364484D01*
X12843396Y-16364484D02*
X12786253Y-16364484D01*
X12786253Y-16364484D02*
X12767206Y-16354960D01*
X12767206Y-16354960D02*
X12757682Y-16345436D01*
X12957682Y-16183531D02*
X12967206Y-16174008D01*
X12967206Y-16174008D02*
X12986253Y-16164484D01*
X12986253Y-16164484D02*
X13033872Y-16164484D01*
X13033872Y-16164484D02*
X13052920Y-16174008D01*
X13052920Y-16174008D02*
X13062444Y-16183531D01*
X13062444Y-16183531D02*
X13071967Y-16202579D01*
X13071967Y-16202579D02*
X13071967Y-16221627D01*
X13071967Y-16221627D02*
X13062444Y-16250198D01*
X13062444Y-16250198D02*
X12948158Y-16364484D01*
X12948158Y-16364484D02*
X13071967Y-16364484D01*
X13195777Y-16164484D02*
X13214825Y-16164484D01*
X13214825Y-16164484D02*
X13233872Y-16174008D01*
X13233872Y-16174008D02*
X13243396Y-16183531D01*
X13243396Y-16183531D02*
X13252920Y-16202579D01*
X13252920Y-16202579D02*
X13262444Y-16240674D01*
X13262444Y-16240674D02*
X13262444Y-16288293D01*
X13262444Y-16288293D02*
X13252920Y-16326388D01*
X13252920Y-16326388D02*
X13243396Y-16345436D01*
X13243396Y-16345436D02*
X13233872Y-16354960D01*
X13233872Y-16354960D02*
X13214825Y-16364484D01*
X13214825Y-16364484D02*
X13195777Y-16364484D01*
X13195777Y-16364484D02*
X13176729Y-16354960D01*
X13176729Y-16354960D02*
X13167206Y-16345436D01*
X13167206Y-16345436D02*
X13157682Y-16326388D01*
X13157682Y-16326388D02*
X13148158Y-16288293D01*
X13148158Y-16288293D02*
X13148158Y-16240674D01*
X13148158Y-16240674D02*
X13157682Y-16202579D01*
X13157682Y-16202579D02*
X13167206Y-16183531D01*
X13167206Y-16183531D02*
X13176729Y-16174008D01*
X13176729Y-16174008D02*
X13195777Y-16164484D01*
X13338634Y-16164484D02*
X13338634Y-16202579D01*
X13414825Y-16164484D02*
X13414825Y-16202579D01*
X13710063Y-16440674D02*
X13700539Y-16431150D01*
X13700539Y-16431150D02*
X13681491Y-16402579D01*
X13681491Y-16402579D02*
X13671968Y-16383531D01*
X13671968Y-16383531D02*
X13662444Y-16354960D01*
X13662444Y-16354960D02*
X13652920Y-16307341D01*
X13652920Y-16307341D02*
X13652920Y-16269246D01*
X13652920Y-16269246D02*
X13662444Y-16221627D01*
X13662444Y-16221627D02*
X13671968Y-16193055D01*
X13671968Y-16193055D02*
X13681491Y-16174008D01*
X13681491Y-16174008D02*
X13700539Y-16145436D01*
X13700539Y-16145436D02*
X13710063Y-16135912D01*
X13814825Y-16250198D02*
X13795777Y-16240674D01*
X13795777Y-16240674D02*
X13786253Y-16231150D01*
X13786253Y-16231150D02*
X13776729Y-16212103D01*
X13776729Y-16212103D02*
X13776729Y-16202579D01*
X13776729Y-16202579D02*
X13786253Y-16183531D01*
X13786253Y-16183531D02*
X13795777Y-16174008D01*
X13795777Y-16174008D02*
X13814825Y-16164484D01*
X13814825Y-16164484D02*
X13852920Y-16164484D01*
X13852920Y-16164484D02*
X13871968Y-16174008D01*
X13871968Y-16174008D02*
X13881491Y-16183531D01*
X13881491Y-16183531D02*
X13891015Y-16202579D01*
X13891015Y-16202579D02*
X13891015Y-16212103D01*
X13891015Y-16212103D02*
X13881491Y-16231150D01*
X13881491Y-16231150D02*
X13871968Y-16240674D01*
X13871968Y-16240674D02*
X13852920Y-16250198D01*
X13852920Y-16250198D02*
X13814825Y-16250198D01*
X13814825Y-16250198D02*
X13795777Y-16259722D01*
X13795777Y-16259722D02*
X13786253Y-16269246D01*
X13786253Y-16269246D02*
X13776729Y-16288293D01*
X13776729Y-16288293D02*
X13776729Y-16326388D01*
X13776729Y-16326388D02*
X13786253Y-16345436D01*
X13786253Y-16345436D02*
X13795777Y-16354960D01*
X13795777Y-16354960D02*
X13814825Y-16364484D01*
X13814825Y-16364484D02*
X13852920Y-16364484D01*
X13852920Y-16364484D02*
X13871968Y-16354960D01*
X13871968Y-16354960D02*
X13881491Y-16345436D01*
X13881491Y-16345436D02*
X13891015Y-16326388D01*
X13891015Y-16326388D02*
X13891015Y-16288293D01*
X13891015Y-16288293D02*
X13881491Y-16269246D01*
X13881491Y-16269246D02*
X13871968Y-16259722D01*
X13871968Y-16259722D02*
X13852920Y-16250198D01*
X14129110Y-16364484D02*
X14129110Y-16164484D01*
X14214825Y-16364484D02*
X14214825Y-16259722D01*
X14214825Y-16259722D02*
X14205301Y-16240674D01*
X14205301Y-16240674D02*
X14186253Y-16231150D01*
X14186253Y-16231150D02*
X14157682Y-16231150D01*
X14157682Y-16231150D02*
X14138634Y-16240674D01*
X14138634Y-16240674D02*
X14129110Y-16250198D01*
X14338634Y-16364484D02*
X14319587Y-16354960D01*
X14319587Y-16354960D02*
X14310063Y-16345436D01*
X14310063Y-16345436D02*
X14300539Y-16326388D01*
X14300539Y-16326388D02*
X14300539Y-16269246D01*
X14300539Y-16269246D02*
X14310063Y-16250198D01*
X14310063Y-16250198D02*
X14319587Y-16240674D01*
X14319587Y-16240674D02*
X14338634Y-16231150D01*
X14338634Y-16231150D02*
X14367206Y-16231150D01*
X14367206Y-16231150D02*
X14386253Y-16240674D01*
X14386253Y-16240674D02*
X14395777Y-16250198D01*
X14395777Y-16250198D02*
X14405301Y-16269246D01*
X14405301Y-16269246D02*
X14405301Y-16326388D01*
X14405301Y-16326388D02*
X14395777Y-16345436D01*
X14395777Y-16345436D02*
X14386253Y-16354960D01*
X14386253Y-16354960D02*
X14367206Y-16364484D01*
X14367206Y-16364484D02*
X14338634Y-16364484D01*
X14519587Y-16364484D02*
X14500539Y-16354960D01*
X14500539Y-16354960D02*
X14491015Y-16335912D01*
X14491015Y-16335912D02*
X14491015Y-16164484D01*
X14671968Y-16354960D02*
X14652920Y-16364484D01*
X14652920Y-16364484D02*
X14614825Y-16364484D01*
X14614825Y-16364484D02*
X14595777Y-16354960D01*
X14595777Y-16354960D02*
X14586253Y-16335912D01*
X14586253Y-16335912D02*
X14586253Y-16259722D01*
X14586253Y-16259722D02*
X14595777Y-16240674D01*
X14595777Y-16240674D02*
X14614825Y-16231150D01*
X14614825Y-16231150D02*
X14652920Y-16231150D01*
X14652920Y-16231150D02*
X14671968Y-16240674D01*
X14671968Y-16240674D02*
X14681491Y-16259722D01*
X14681491Y-16259722D02*
X14681491Y-16278769D01*
X14681491Y-16278769D02*
X14586253Y-16297817D01*
X14757682Y-16354960D02*
X14776730Y-16364484D01*
X14776730Y-16364484D02*
X14814825Y-16364484D01*
X14814825Y-16364484D02*
X14833872Y-16354960D01*
X14833872Y-16354960D02*
X14843396Y-16335912D01*
X14843396Y-16335912D02*
X14843396Y-16326388D01*
X14843396Y-16326388D02*
X14833872Y-16307341D01*
X14833872Y-16307341D02*
X14814825Y-16297817D01*
X14814825Y-16297817D02*
X14786253Y-16297817D01*
X14786253Y-16297817D02*
X14767206Y-16288293D01*
X14767206Y-16288293D02*
X14757682Y-16269246D01*
X14757682Y-16269246D02*
X14757682Y-16259722D01*
X14757682Y-16259722D02*
X14767206Y-16240674D01*
X14767206Y-16240674D02*
X14786253Y-16231150D01*
X14786253Y-16231150D02*
X14814825Y-16231150D01*
X14814825Y-16231150D02*
X14833872Y-16240674D01*
X14910063Y-16440674D02*
X14919587Y-16431150D01*
X14919587Y-16431150D02*
X14938634Y-16402579D01*
X14938634Y-16402579D02*
X14948158Y-16383531D01*
X14948158Y-16383531D02*
X14957682Y-16354960D01*
X14957682Y-16354960D02*
X14967206Y-16307341D01*
X14967206Y-16307341D02*
X14967206Y-16269246D01*
X14967206Y-16269246D02*
X14957682Y-16221627D01*
X14957682Y-16221627D02*
X14948158Y-16193055D01*
X14948158Y-16193055D02*
X14938634Y-16174008D01*
X14938634Y-16174008D02*
X14919587Y-16145436D01*
X14919587Y-16145436D02*
X14910063Y-16135912D01*
D13*
X10120121Y-16572921D02*
X10120121Y-16501079D01*
X10048279Y-16501079D01*
X10048279Y-16572921D01*
X10120121Y-16572921D01*
D11*
X10500539Y-16628484D02*
X10386253Y-16628484D01*
X10443396Y-16628484D02*
X10443396Y-16428484D01*
X10443396Y-16428484D02*
X10424348Y-16457055D01*
X10424348Y-16457055D02*
X10405301Y-16476103D01*
X10405301Y-16476103D02*
X10386253Y-16485627D01*
X10586253Y-16609436D02*
X10595777Y-16618960D01*
X10595777Y-16618960D02*
X10586253Y-16628484D01*
X10586253Y-16628484D02*
X10576729Y-16618960D01*
X10576729Y-16618960D02*
X10586253Y-16609436D01*
X10586253Y-16609436D02*
X10586253Y-16628484D01*
X10719586Y-16428484D02*
X10738634Y-16428484D01*
X10738634Y-16428484D02*
X10757682Y-16438008D01*
X10757682Y-16438008D02*
X10767205Y-16447531D01*
X10767205Y-16447531D02*
X10776729Y-16466579D01*
X10776729Y-16466579D02*
X10786253Y-16504674D01*
X10786253Y-16504674D02*
X10786253Y-16552293D01*
X10786253Y-16552293D02*
X10776729Y-16590388D01*
X10776729Y-16590388D02*
X10767205Y-16609436D01*
X10767205Y-16609436D02*
X10757682Y-16618960D01*
X10757682Y-16618960D02*
X10738634Y-16628484D01*
X10738634Y-16628484D02*
X10719586Y-16628484D01*
X10719586Y-16628484D02*
X10700539Y-16618960D01*
X10700539Y-16618960D02*
X10691015Y-16609436D01*
X10691015Y-16609436D02*
X10681491Y-16590388D01*
X10681491Y-16590388D02*
X10671967Y-16552293D01*
X10671967Y-16552293D02*
X10671967Y-16504674D01*
X10671967Y-16504674D02*
X10681491Y-16466579D01*
X10681491Y-16466579D02*
X10691015Y-16447531D01*
X10691015Y-16447531D02*
X10700539Y-16438008D01*
X10700539Y-16438008D02*
X10719586Y-16428484D01*
X10976729Y-16628484D02*
X10862444Y-16628484D01*
X10919586Y-16628484D02*
X10919586Y-16428484D01*
X10919586Y-16428484D02*
X10900539Y-16457055D01*
X10900539Y-16457055D02*
X10881491Y-16476103D01*
X10881491Y-16476103D02*
X10862444Y-16485627D01*
X11148158Y-16428484D02*
X11110063Y-16428484D01*
X11110063Y-16428484D02*
X11091015Y-16438008D01*
X11091015Y-16438008D02*
X11081491Y-16447531D01*
X11081491Y-16447531D02*
X11062444Y-16476103D01*
X11062444Y-16476103D02*
X11052920Y-16514198D01*
X11052920Y-16514198D02*
X11052920Y-16590388D01*
X11052920Y-16590388D02*
X11062444Y-16609436D01*
X11062444Y-16609436D02*
X11071967Y-16618960D01*
X11071967Y-16618960D02*
X11091015Y-16628484D01*
X11091015Y-16628484D02*
X11129110Y-16628484D01*
X11129110Y-16628484D02*
X11148158Y-16618960D01*
X11148158Y-16618960D02*
X11157682Y-16609436D01*
X11157682Y-16609436D02*
X11167205Y-16590388D01*
X11167205Y-16590388D02*
X11167205Y-16542769D01*
X11167205Y-16542769D02*
X11157682Y-16523722D01*
X11157682Y-16523722D02*
X11148158Y-16514198D01*
X11148158Y-16514198D02*
X11129110Y-16504674D01*
X11129110Y-16504674D02*
X11091015Y-16504674D01*
X11091015Y-16504674D02*
X11071967Y-16514198D01*
X11071967Y-16514198D02*
X11062444Y-16523722D01*
X11062444Y-16523722D02*
X11052920Y-16542769D01*
X11252920Y-16628484D02*
X11252920Y-16495150D01*
X11252920Y-16514198D02*
X11262443Y-16504674D01*
X11262443Y-16504674D02*
X11281491Y-16495150D01*
X11281491Y-16495150D02*
X11310063Y-16495150D01*
X11310063Y-16495150D02*
X11329110Y-16504674D01*
X11329110Y-16504674D02*
X11338634Y-16523722D01*
X11338634Y-16523722D02*
X11338634Y-16628484D01*
X11338634Y-16523722D02*
X11348158Y-16504674D01*
X11348158Y-16504674D02*
X11367205Y-16495150D01*
X11367205Y-16495150D02*
X11395777Y-16495150D01*
X11395777Y-16495150D02*
X11414824Y-16504674D01*
X11414824Y-16504674D02*
X11424348Y-16523722D01*
X11424348Y-16523722D02*
X11424348Y-16628484D01*
X11519586Y-16628484D02*
X11519586Y-16495150D01*
X11519586Y-16514198D02*
X11529110Y-16504674D01*
X11529110Y-16504674D02*
X11548158Y-16495150D01*
X11548158Y-16495150D02*
X11576729Y-16495150D01*
X11576729Y-16495150D02*
X11595777Y-16504674D01*
X11595777Y-16504674D02*
X11605301Y-16523722D01*
X11605301Y-16523722D02*
X11605301Y-16628484D01*
X11605301Y-16523722D02*
X11614824Y-16504674D01*
X11614824Y-16504674D02*
X11633872Y-16495150D01*
X11633872Y-16495150D02*
X11662443Y-16495150D01*
X11662443Y-16495150D02*
X11681491Y-16504674D01*
X11681491Y-16504674D02*
X11691015Y-16523722D01*
X11691015Y-16523722D02*
X11691015Y-16628484D01*
X12081491Y-16418960D02*
X11910063Y-16676103D01*
X12338634Y-16428484D02*
X12357682Y-16428484D01*
X12357682Y-16428484D02*
X12376729Y-16438008D01*
X12376729Y-16438008D02*
X12386253Y-16447531D01*
X12386253Y-16447531D02*
X12395777Y-16466579D01*
X12395777Y-16466579D02*
X12405301Y-16504674D01*
X12405301Y-16504674D02*
X12405301Y-16552293D01*
X12405301Y-16552293D02*
X12395777Y-16590388D01*
X12395777Y-16590388D02*
X12386253Y-16609436D01*
X12386253Y-16609436D02*
X12376729Y-16618960D01*
X12376729Y-16618960D02*
X12357682Y-16628484D01*
X12357682Y-16628484D02*
X12338634Y-16628484D01*
X12338634Y-16628484D02*
X12319586Y-16618960D01*
X12319586Y-16618960D02*
X12310063Y-16609436D01*
X12310063Y-16609436D02*
X12300539Y-16590388D01*
X12300539Y-16590388D02*
X12291015Y-16552293D01*
X12291015Y-16552293D02*
X12291015Y-16504674D01*
X12291015Y-16504674D02*
X12300539Y-16466579D01*
X12300539Y-16466579D02*
X12310063Y-16447531D01*
X12310063Y-16447531D02*
X12319586Y-16438008D01*
X12319586Y-16438008D02*
X12338634Y-16428484D01*
X12491015Y-16609436D02*
X12500539Y-16618960D01*
X12500539Y-16618960D02*
X12491015Y-16628484D01*
X12491015Y-16628484D02*
X12481491Y-16618960D01*
X12481491Y-16618960D02*
X12491015Y-16609436D01*
X12491015Y-16609436D02*
X12491015Y-16628484D01*
X12624348Y-16428484D02*
X12643396Y-16428484D01*
X12643396Y-16428484D02*
X12662444Y-16438008D01*
X12662444Y-16438008D02*
X12671967Y-16447531D01*
X12671967Y-16447531D02*
X12681491Y-16466579D01*
X12681491Y-16466579D02*
X12691015Y-16504674D01*
X12691015Y-16504674D02*
X12691015Y-16552293D01*
X12691015Y-16552293D02*
X12681491Y-16590388D01*
X12681491Y-16590388D02*
X12671967Y-16609436D01*
X12671967Y-16609436D02*
X12662444Y-16618960D01*
X12662444Y-16618960D02*
X12643396Y-16628484D01*
X12643396Y-16628484D02*
X12624348Y-16628484D01*
X12624348Y-16628484D02*
X12605301Y-16618960D01*
X12605301Y-16618960D02*
X12595777Y-16609436D01*
X12595777Y-16609436D02*
X12586253Y-16590388D01*
X12586253Y-16590388D02*
X12576729Y-16552293D01*
X12576729Y-16552293D02*
X12576729Y-16504674D01*
X12576729Y-16504674D02*
X12586253Y-16466579D01*
X12586253Y-16466579D02*
X12595777Y-16447531D01*
X12595777Y-16447531D02*
X12605301Y-16438008D01*
X12605301Y-16438008D02*
X12624348Y-16428484D01*
X12862444Y-16495150D02*
X12862444Y-16628484D01*
X12814825Y-16418960D02*
X12767206Y-16561817D01*
X12767206Y-16561817D02*
X12891015Y-16561817D01*
X13005301Y-16428484D02*
X13024348Y-16428484D01*
X13024348Y-16428484D02*
X13043396Y-16438008D01*
X13043396Y-16438008D02*
X13052920Y-16447531D01*
X13052920Y-16447531D02*
X13062444Y-16466579D01*
X13062444Y-16466579D02*
X13071967Y-16504674D01*
X13071967Y-16504674D02*
X13071967Y-16552293D01*
X13071967Y-16552293D02*
X13062444Y-16590388D01*
X13062444Y-16590388D02*
X13052920Y-16609436D01*
X13052920Y-16609436D02*
X13043396Y-16618960D01*
X13043396Y-16618960D02*
X13024348Y-16628484D01*
X13024348Y-16628484D02*
X13005301Y-16628484D01*
X13005301Y-16628484D02*
X12986253Y-16618960D01*
X12986253Y-16618960D02*
X12976729Y-16609436D01*
X12976729Y-16609436D02*
X12967206Y-16590388D01*
X12967206Y-16590388D02*
X12957682Y-16552293D01*
X12957682Y-16552293D02*
X12957682Y-16504674D01*
X12957682Y-16504674D02*
X12967206Y-16466579D01*
X12967206Y-16466579D02*
X12976729Y-16447531D01*
X12976729Y-16447531D02*
X12986253Y-16438008D01*
X12986253Y-16438008D02*
X13005301Y-16428484D01*
X13195777Y-16428484D02*
X13214825Y-16428484D01*
X13214825Y-16428484D02*
X13233872Y-16438008D01*
X13233872Y-16438008D02*
X13243396Y-16447531D01*
X13243396Y-16447531D02*
X13252920Y-16466579D01*
X13252920Y-16466579D02*
X13262444Y-16504674D01*
X13262444Y-16504674D02*
X13262444Y-16552293D01*
X13262444Y-16552293D02*
X13252920Y-16590388D01*
X13252920Y-16590388D02*
X13243396Y-16609436D01*
X13243396Y-16609436D02*
X13233872Y-16618960D01*
X13233872Y-16618960D02*
X13214825Y-16628484D01*
X13214825Y-16628484D02*
X13195777Y-16628484D01*
X13195777Y-16628484D02*
X13176729Y-16618960D01*
X13176729Y-16618960D02*
X13167206Y-16609436D01*
X13167206Y-16609436D02*
X13157682Y-16590388D01*
X13157682Y-16590388D02*
X13148158Y-16552293D01*
X13148158Y-16552293D02*
X13148158Y-16504674D01*
X13148158Y-16504674D02*
X13157682Y-16466579D01*
X13157682Y-16466579D02*
X13167206Y-16447531D01*
X13167206Y-16447531D02*
X13176729Y-16438008D01*
X13176729Y-16438008D02*
X13195777Y-16428484D01*
X13338634Y-16428484D02*
X13338634Y-16466579D01*
X13414825Y-16428484D02*
X13414825Y-16466579D01*
X13710063Y-16704674D02*
X13700539Y-16695150D01*
X13700539Y-16695150D02*
X13681491Y-16666579D01*
X13681491Y-16666579D02*
X13671968Y-16647531D01*
X13671968Y-16647531D02*
X13662444Y-16618960D01*
X13662444Y-16618960D02*
X13652920Y-16571341D01*
X13652920Y-16571341D02*
X13652920Y-16533246D01*
X13652920Y-16533246D02*
X13662444Y-16485627D01*
X13662444Y-16485627D02*
X13671968Y-16457055D01*
X13671968Y-16457055D02*
X13681491Y-16438008D01*
X13681491Y-16438008D02*
X13700539Y-16409436D01*
X13700539Y-16409436D02*
X13710063Y-16399912D01*
X13871968Y-16495150D02*
X13871968Y-16628484D01*
X13824348Y-16418960D02*
X13776729Y-16561817D01*
X13776729Y-16561817D02*
X13900539Y-16561817D01*
X13967206Y-16447531D02*
X13976729Y-16438008D01*
X13976729Y-16438008D02*
X13995777Y-16428484D01*
X13995777Y-16428484D02*
X14043396Y-16428484D01*
X14043396Y-16428484D02*
X14062444Y-16438008D01*
X14062444Y-16438008D02*
X14071968Y-16447531D01*
X14071968Y-16447531D02*
X14081491Y-16466579D01*
X14081491Y-16466579D02*
X14081491Y-16485627D01*
X14081491Y-16485627D02*
X14071968Y-16514198D01*
X14071968Y-16514198D02*
X13957682Y-16628484D01*
X13957682Y-16628484D02*
X14081491Y-16628484D01*
X14319587Y-16628484D02*
X14319587Y-16428484D01*
X14405301Y-16628484D02*
X14405301Y-16523722D01*
X14405301Y-16523722D02*
X14395777Y-16504674D01*
X14395777Y-16504674D02*
X14376730Y-16495150D01*
X14376730Y-16495150D02*
X14348158Y-16495150D01*
X14348158Y-16495150D02*
X14329110Y-16504674D01*
X14329110Y-16504674D02*
X14319587Y-16514198D01*
X14529110Y-16628484D02*
X14510063Y-16618960D01*
X14510063Y-16618960D02*
X14500539Y-16609436D01*
X14500539Y-16609436D02*
X14491015Y-16590388D01*
X14491015Y-16590388D02*
X14491015Y-16533246D01*
X14491015Y-16533246D02*
X14500539Y-16514198D01*
X14500539Y-16514198D02*
X14510063Y-16504674D01*
X14510063Y-16504674D02*
X14529110Y-16495150D01*
X14529110Y-16495150D02*
X14557682Y-16495150D01*
X14557682Y-16495150D02*
X14576730Y-16504674D01*
X14576730Y-16504674D02*
X14586253Y-16514198D01*
X14586253Y-16514198D02*
X14595777Y-16533246D01*
X14595777Y-16533246D02*
X14595777Y-16590388D01*
X14595777Y-16590388D02*
X14586253Y-16609436D01*
X14586253Y-16609436D02*
X14576730Y-16618960D01*
X14576730Y-16618960D02*
X14557682Y-16628484D01*
X14557682Y-16628484D02*
X14529110Y-16628484D01*
X14710063Y-16628484D02*
X14691015Y-16618960D01*
X14691015Y-16618960D02*
X14681491Y-16599912D01*
X14681491Y-16599912D02*
X14681491Y-16428484D01*
X14862444Y-16618960D02*
X14843396Y-16628484D01*
X14843396Y-16628484D02*
X14805301Y-16628484D01*
X14805301Y-16628484D02*
X14786253Y-16618960D01*
X14786253Y-16618960D02*
X14776730Y-16599912D01*
X14776730Y-16599912D02*
X14776730Y-16523722D01*
X14776730Y-16523722D02*
X14786253Y-16504674D01*
X14786253Y-16504674D02*
X14805301Y-16495150D01*
X14805301Y-16495150D02*
X14843396Y-16495150D01*
X14843396Y-16495150D02*
X14862444Y-16504674D01*
X14862444Y-16504674D02*
X14871968Y-16523722D01*
X14871968Y-16523722D02*
X14871968Y-16542769D01*
X14871968Y-16542769D02*
X14776730Y-16561817D01*
X14948158Y-16618960D02*
X14967206Y-16628484D01*
X14967206Y-16628484D02*
X15005301Y-16628484D01*
X15005301Y-16628484D02*
X15024349Y-16618960D01*
X15024349Y-16618960D02*
X15033872Y-16599912D01*
X15033872Y-16599912D02*
X15033872Y-16590388D01*
X15033872Y-16590388D02*
X15024349Y-16571341D01*
X15024349Y-16571341D02*
X15005301Y-16561817D01*
X15005301Y-16561817D02*
X14976730Y-16561817D01*
X14976730Y-16561817D02*
X14957682Y-16552293D01*
X14957682Y-16552293D02*
X14948158Y-16533246D01*
X14948158Y-16533246D02*
X14948158Y-16523722D01*
X14948158Y-16523722D02*
X14957682Y-16504674D01*
X14957682Y-16504674D02*
X14976730Y-16495150D01*
X14976730Y-16495150D02*
X15005301Y-16495150D01*
X15005301Y-16495150D02*
X15024349Y-16504674D01*
X15100539Y-16704674D02*
X15110063Y-16695150D01*
X15110063Y-16695150D02*
X15129111Y-16666579D01*
X15129111Y-16666579D02*
X15138634Y-16647531D01*
X15138634Y-16647531D02*
X15148158Y-16618960D01*
X15148158Y-16618960D02*
X15157682Y-16571341D01*
X15157682Y-16571341D02*
X15157682Y-16533246D01*
X15157682Y-16533246D02*
X15148158Y-16485627D01*
X15148158Y-16485627D02*
X15138634Y-16457055D01*
X15138634Y-16457055D02*
X15129111Y-16438008D01*
X15129111Y-16438008D02*
X15110063Y-16409436D01*
X15110063Y-16409436D02*
X15100539Y-16399912D01*
D14*
X10084000Y-16852000D02*
X10135000Y-16801000D01*
X10084000Y-16750000D01*
X10033000Y-16801000D01*
X10084000Y-16852000D01*
D11*
X10500539Y-16892484D02*
X10386253Y-16892484D01*
X10443396Y-16892484D02*
X10443396Y-16692484D01*
X10443396Y-16692484D02*
X10424348Y-16721055D01*
X10424348Y-16721055D02*
X10405301Y-16740103D01*
X10405301Y-16740103D02*
X10386253Y-16749627D01*
X10586253Y-16873436D02*
X10595777Y-16882960D01*
X10595777Y-16882960D02*
X10586253Y-16892484D01*
X10586253Y-16892484D02*
X10576729Y-16882960D01*
X10576729Y-16882960D02*
X10586253Y-16873436D01*
X10586253Y-16873436D02*
X10586253Y-16892484D01*
X10719586Y-16692484D02*
X10738634Y-16692484D01*
X10738634Y-16692484D02*
X10757682Y-16702008D01*
X10757682Y-16702008D02*
X10767205Y-16711531D01*
X10767205Y-16711531D02*
X10776729Y-16730579D01*
X10776729Y-16730579D02*
X10786253Y-16768674D01*
X10786253Y-16768674D02*
X10786253Y-16816293D01*
X10786253Y-16816293D02*
X10776729Y-16854389D01*
X10776729Y-16854389D02*
X10767205Y-16873436D01*
X10767205Y-16873436D02*
X10757682Y-16882960D01*
X10757682Y-16882960D02*
X10738634Y-16892484D01*
X10738634Y-16892484D02*
X10719586Y-16892484D01*
X10719586Y-16892484D02*
X10700539Y-16882960D01*
X10700539Y-16882960D02*
X10691015Y-16873436D01*
X10691015Y-16873436D02*
X10681491Y-16854389D01*
X10681491Y-16854389D02*
X10671967Y-16816293D01*
X10671967Y-16816293D02*
X10671967Y-16768674D01*
X10671967Y-16768674D02*
X10681491Y-16730579D01*
X10681491Y-16730579D02*
X10691015Y-16711531D01*
X10691015Y-16711531D02*
X10700539Y-16702008D01*
X10700539Y-16702008D02*
X10719586Y-16692484D01*
X10862444Y-16711531D02*
X10871967Y-16702008D01*
X10871967Y-16702008D02*
X10891015Y-16692484D01*
X10891015Y-16692484D02*
X10938634Y-16692484D01*
X10938634Y-16692484D02*
X10957682Y-16702008D01*
X10957682Y-16702008D02*
X10967205Y-16711531D01*
X10967205Y-16711531D02*
X10976729Y-16730579D01*
X10976729Y-16730579D02*
X10976729Y-16749627D01*
X10976729Y-16749627D02*
X10967205Y-16778198D01*
X10967205Y-16778198D02*
X10852920Y-16892484D01*
X10852920Y-16892484D02*
X10976729Y-16892484D01*
X11100539Y-16692484D02*
X11119586Y-16692484D01*
X11119586Y-16692484D02*
X11138634Y-16702008D01*
X11138634Y-16702008D02*
X11148158Y-16711531D01*
X11148158Y-16711531D02*
X11157682Y-16730579D01*
X11157682Y-16730579D02*
X11167205Y-16768674D01*
X11167205Y-16768674D02*
X11167205Y-16816293D01*
X11167205Y-16816293D02*
X11157682Y-16854389D01*
X11157682Y-16854389D02*
X11148158Y-16873436D01*
X11148158Y-16873436D02*
X11138634Y-16882960D01*
X11138634Y-16882960D02*
X11119586Y-16892484D01*
X11119586Y-16892484D02*
X11100539Y-16892484D01*
X11100539Y-16892484D02*
X11081491Y-16882960D01*
X11081491Y-16882960D02*
X11071967Y-16873436D01*
X11071967Y-16873436D02*
X11062444Y-16854389D01*
X11062444Y-16854389D02*
X11052920Y-16816293D01*
X11052920Y-16816293D02*
X11052920Y-16768674D01*
X11052920Y-16768674D02*
X11062444Y-16730579D01*
X11062444Y-16730579D02*
X11071967Y-16711531D01*
X11071967Y-16711531D02*
X11081491Y-16702008D01*
X11081491Y-16702008D02*
X11100539Y-16692484D01*
X11252920Y-16892484D02*
X11252920Y-16759150D01*
X11252920Y-16778198D02*
X11262443Y-16768674D01*
X11262443Y-16768674D02*
X11281491Y-16759150D01*
X11281491Y-16759150D02*
X11310063Y-16759150D01*
X11310063Y-16759150D02*
X11329110Y-16768674D01*
X11329110Y-16768674D02*
X11338634Y-16787722D01*
X11338634Y-16787722D02*
X11338634Y-16892484D01*
X11338634Y-16787722D02*
X11348158Y-16768674D01*
X11348158Y-16768674D02*
X11367205Y-16759150D01*
X11367205Y-16759150D02*
X11395777Y-16759150D01*
X11395777Y-16759150D02*
X11414824Y-16768674D01*
X11414824Y-16768674D02*
X11424348Y-16787722D01*
X11424348Y-16787722D02*
X11424348Y-16892484D01*
X11519586Y-16892484D02*
X11519586Y-16759150D01*
X11519586Y-16778198D02*
X11529110Y-16768674D01*
X11529110Y-16768674D02*
X11548158Y-16759150D01*
X11548158Y-16759150D02*
X11576729Y-16759150D01*
X11576729Y-16759150D02*
X11595777Y-16768674D01*
X11595777Y-16768674D02*
X11605301Y-16787722D01*
X11605301Y-16787722D02*
X11605301Y-16892484D01*
X11605301Y-16787722D02*
X11614824Y-16768674D01*
X11614824Y-16768674D02*
X11633872Y-16759150D01*
X11633872Y-16759150D02*
X11662443Y-16759150D01*
X11662443Y-16759150D02*
X11681491Y-16768674D01*
X11681491Y-16768674D02*
X11691015Y-16787722D01*
X11691015Y-16787722D02*
X11691015Y-16892484D01*
X12081491Y-16682960D02*
X11910063Y-16940103D01*
X12338634Y-16692484D02*
X12357682Y-16692484D01*
X12357682Y-16692484D02*
X12376729Y-16702008D01*
X12376729Y-16702008D02*
X12386253Y-16711531D01*
X12386253Y-16711531D02*
X12395777Y-16730579D01*
X12395777Y-16730579D02*
X12405301Y-16768674D01*
X12405301Y-16768674D02*
X12405301Y-16816293D01*
X12405301Y-16816293D02*
X12395777Y-16854389D01*
X12395777Y-16854389D02*
X12386253Y-16873436D01*
X12386253Y-16873436D02*
X12376729Y-16882960D01*
X12376729Y-16882960D02*
X12357682Y-16892484D01*
X12357682Y-16892484D02*
X12338634Y-16892484D01*
X12338634Y-16892484D02*
X12319586Y-16882960D01*
X12319586Y-16882960D02*
X12310063Y-16873436D01*
X12310063Y-16873436D02*
X12300539Y-16854389D01*
X12300539Y-16854389D02*
X12291015Y-16816293D01*
X12291015Y-16816293D02*
X12291015Y-16768674D01*
X12291015Y-16768674D02*
X12300539Y-16730579D01*
X12300539Y-16730579D02*
X12310063Y-16711531D01*
X12310063Y-16711531D02*
X12319586Y-16702008D01*
X12319586Y-16702008D02*
X12338634Y-16692484D01*
X12491015Y-16873436D02*
X12500539Y-16882960D01*
X12500539Y-16882960D02*
X12491015Y-16892484D01*
X12491015Y-16892484D02*
X12481491Y-16882960D01*
X12481491Y-16882960D02*
X12491015Y-16873436D01*
X12491015Y-16873436D02*
X12491015Y-16892484D01*
X12624348Y-16692484D02*
X12643396Y-16692484D01*
X12643396Y-16692484D02*
X12662444Y-16702008D01*
X12662444Y-16702008D02*
X12671967Y-16711531D01*
X12671967Y-16711531D02*
X12681491Y-16730579D01*
X12681491Y-16730579D02*
X12691015Y-16768674D01*
X12691015Y-16768674D02*
X12691015Y-16816293D01*
X12691015Y-16816293D02*
X12681491Y-16854389D01*
X12681491Y-16854389D02*
X12671967Y-16873436D01*
X12671967Y-16873436D02*
X12662444Y-16882960D01*
X12662444Y-16882960D02*
X12643396Y-16892484D01*
X12643396Y-16892484D02*
X12624348Y-16892484D01*
X12624348Y-16892484D02*
X12605301Y-16882960D01*
X12605301Y-16882960D02*
X12595777Y-16873436D01*
X12595777Y-16873436D02*
X12586253Y-16854389D01*
X12586253Y-16854389D02*
X12576729Y-16816293D01*
X12576729Y-16816293D02*
X12576729Y-16768674D01*
X12576729Y-16768674D02*
X12586253Y-16730579D01*
X12586253Y-16730579D02*
X12595777Y-16711531D01*
X12595777Y-16711531D02*
X12605301Y-16702008D01*
X12605301Y-16702008D02*
X12624348Y-16692484D01*
X12862444Y-16759150D02*
X12862444Y-16892484D01*
X12814825Y-16682960D02*
X12767206Y-16825817D01*
X12767206Y-16825817D02*
X12891015Y-16825817D01*
X13005301Y-16692484D02*
X13024348Y-16692484D01*
X13024348Y-16692484D02*
X13043396Y-16702008D01*
X13043396Y-16702008D02*
X13052920Y-16711531D01*
X13052920Y-16711531D02*
X13062444Y-16730579D01*
X13062444Y-16730579D02*
X13071967Y-16768674D01*
X13071967Y-16768674D02*
X13071967Y-16816293D01*
X13071967Y-16816293D02*
X13062444Y-16854389D01*
X13062444Y-16854389D02*
X13052920Y-16873436D01*
X13052920Y-16873436D02*
X13043396Y-16882960D01*
X13043396Y-16882960D02*
X13024348Y-16892484D01*
X13024348Y-16892484D02*
X13005301Y-16892484D01*
X13005301Y-16892484D02*
X12986253Y-16882960D01*
X12986253Y-16882960D02*
X12976729Y-16873436D01*
X12976729Y-16873436D02*
X12967206Y-16854389D01*
X12967206Y-16854389D02*
X12957682Y-16816293D01*
X12957682Y-16816293D02*
X12957682Y-16768674D01*
X12957682Y-16768674D02*
X12967206Y-16730579D01*
X12967206Y-16730579D02*
X12976729Y-16711531D01*
X12976729Y-16711531D02*
X12986253Y-16702008D01*
X12986253Y-16702008D02*
X13005301Y-16692484D01*
X13148158Y-16711531D02*
X13157682Y-16702008D01*
X13157682Y-16702008D02*
X13176729Y-16692484D01*
X13176729Y-16692484D02*
X13224348Y-16692484D01*
X13224348Y-16692484D02*
X13243396Y-16702008D01*
X13243396Y-16702008D02*
X13252920Y-16711531D01*
X13252920Y-16711531D02*
X13262444Y-16730579D01*
X13262444Y-16730579D02*
X13262444Y-16749627D01*
X13262444Y-16749627D02*
X13252920Y-16778198D01*
X13252920Y-16778198D02*
X13138634Y-16892484D01*
X13138634Y-16892484D02*
X13262444Y-16892484D01*
X13338634Y-16692484D02*
X13338634Y-16730579D01*
X13414825Y-16692484D02*
X13414825Y-16730579D01*
X13710063Y-16968674D02*
X13700539Y-16959150D01*
X13700539Y-16959150D02*
X13681491Y-16930579D01*
X13681491Y-16930579D02*
X13671968Y-16911531D01*
X13671968Y-16911531D02*
X13662444Y-16882960D01*
X13662444Y-16882960D02*
X13652920Y-16835341D01*
X13652920Y-16835341D02*
X13652920Y-16797246D01*
X13652920Y-16797246D02*
X13662444Y-16749627D01*
X13662444Y-16749627D02*
X13671968Y-16721055D01*
X13671968Y-16721055D02*
X13681491Y-16702008D01*
X13681491Y-16702008D02*
X13700539Y-16673436D01*
X13700539Y-16673436D02*
X13710063Y-16663912D01*
X13891015Y-16892484D02*
X13776729Y-16892484D01*
X13833872Y-16892484D02*
X13833872Y-16692484D01*
X13833872Y-16692484D02*
X13814825Y-16721055D01*
X13814825Y-16721055D02*
X13795777Y-16740103D01*
X13795777Y-16740103D02*
X13776729Y-16749627D01*
X13967206Y-16711531D02*
X13976729Y-16702008D01*
X13976729Y-16702008D02*
X13995777Y-16692484D01*
X13995777Y-16692484D02*
X14043396Y-16692484D01*
X14043396Y-16692484D02*
X14062444Y-16702008D01*
X14062444Y-16702008D02*
X14071968Y-16711531D01*
X14071968Y-16711531D02*
X14081491Y-16730579D01*
X14081491Y-16730579D02*
X14081491Y-16749627D01*
X14081491Y-16749627D02*
X14071968Y-16778198D01*
X14071968Y-16778198D02*
X13957682Y-16892484D01*
X13957682Y-16892484D02*
X14081491Y-16892484D01*
X14271968Y-16892484D02*
X14157682Y-16892484D01*
X14214825Y-16892484D02*
X14214825Y-16692484D01*
X14214825Y-16692484D02*
X14195777Y-16721055D01*
X14195777Y-16721055D02*
X14176729Y-16740103D01*
X14176729Y-16740103D02*
X14157682Y-16749627D01*
X14510063Y-16892484D02*
X14510063Y-16692484D01*
X14595777Y-16892484D02*
X14595777Y-16787722D01*
X14595777Y-16787722D02*
X14586253Y-16768674D01*
X14586253Y-16768674D02*
X14567206Y-16759150D01*
X14567206Y-16759150D02*
X14538634Y-16759150D01*
X14538634Y-16759150D02*
X14519587Y-16768674D01*
X14519587Y-16768674D02*
X14510063Y-16778198D01*
X14719587Y-16892484D02*
X14700539Y-16882960D01*
X14700539Y-16882960D02*
X14691015Y-16873436D01*
X14691015Y-16873436D02*
X14681491Y-16854389D01*
X14681491Y-16854389D02*
X14681491Y-16797246D01*
X14681491Y-16797246D02*
X14691015Y-16778198D01*
X14691015Y-16778198D02*
X14700539Y-16768674D01*
X14700539Y-16768674D02*
X14719587Y-16759150D01*
X14719587Y-16759150D02*
X14748158Y-16759150D01*
X14748158Y-16759150D02*
X14767206Y-16768674D01*
X14767206Y-16768674D02*
X14776730Y-16778198D01*
X14776730Y-16778198D02*
X14786253Y-16797246D01*
X14786253Y-16797246D02*
X14786253Y-16854389D01*
X14786253Y-16854389D02*
X14776730Y-16873436D01*
X14776730Y-16873436D02*
X14767206Y-16882960D01*
X14767206Y-16882960D02*
X14748158Y-16892484D01*
X14748158Y-16892484D02*
X14719587Y-16892484D01*
X14900539Y-16892484D02*
X14881491Y-16882960D01*
X14881491Y-16882960D02*
X14871968Y-16863912D01*
X14871968Y-16863912D02*
X14871968Y-16692484D01*
X15052920Y-16882960D02*
X15033872Y-16892484D01*
X15033872Y-16892484D02*
X14995777Y-16892484D01*
X14995777Y-16892484D02*
X14976730Y-16882960D01*
X14976730Y-16882960D02*
X14967206Y-16863912D01*
X14967206Y-16863912D02*
X14967206Y-16787722D01*
X14967206Y-16787722D02*
X14976730Y-16768674D01*
X14976730Y-16768674D02*
X14995777Y-16759150D01*
X14995777Y-16759150D02*
X15033872Y-16759150D01*
X15033872Y-16759150D02*
X15052920Y-16768674D01*
X15052920Y-16768674D02*
X15062444Y-16787722D01*
X15062444Y-16787722D02*
X15062444Y-16806770D01*
X15062444Y-16806770D02*
X14967206Y-16825817D01*
X15138634Y-16882960D02*
X15157682Y-16892484D01*
X15157682Y-16892484D02*
X15195777Y-16892484D01*
X15195777Y-16892484D02*
X15214825Y-16882960D01*
X15214825Y-16882960D02*
X15224349Y-16863912D01*
X15224349Y-16863912D02*
X15224349Y-16854389D01*
X15224349Y-16854389D02*
X15214825Y-16835341D01*
X15214825Y-16835341D02*
X15195777Y-16825817D01*
X15195777Y-16825817D02*
X15167206Y-16825817D01*
X15167206Y-16825817D02*
X15148158Y-16816293D01*
X15148158Y-16816293D02*
X15138634Y-16797246D01*
X15138634Y-16797246D02*
X15138634Y-16787722D01*
X15138634Y-16787722D02*
X15148158Y-16768674D01*
X15148158Y-16768674D02*
X15167206Y-16759150D01*
X15167206Y-16759150D02*
X15195777Y-16759150D01*
X15195777Y-16759150D02*
X15214825Y-16768674D01*
X15291015Y-16968674D02*
X15300539Y-16959150D01*
X15300539Y-16959150D02*
X15319587Y-16930579D01*
X15319587Y-16930579D02*
X15329111Y-16911531D01*
X15329111Y-16911531D02*
X15338634Y-16882960D01*
X15338634Y-16882960D02*
X15348158Y-16835341D01*
X15348158Y-16835341D02*
X15348158Y-16797246D01*
X15348158Y-16797246D02*
X15338634Y-16749627D01*
X15338634Y-16749627D02*
X15329111Y-16721055D01*
X15329111Y-16721055D02*
X15319587Y-16702008D01*
X15319587Y-16702008D02*
X15300539Y-16673436D01*
X15300539Y-16673436D02*
X15291015Y-16663912D01*
D15*
X10025000Y-17010000D02*
X10135000Y-17120000D01*
X10135000Y-17010000D02*
X10025000Y-17120000D01*
X10135000Y-17065000D02*
G75*
G03*
X10025000Y-17065000I-55000J0D01*
G01*
X10025000Y-17065000D02*
G75*
G03*
X10135000Y-17065000I55000J0D01*
G01*
D11*
X10500539Y-17156484D02*
X10386253Y-17156484D01*
X10443396Y-17156484D02*
X10443396Y-16956484D01*
X10443396Y-16956484D02*
X10424348Y-16985055D01*
X10424348Y-16985055D02*
X10405301Y-17004103D01*
X10405301Y-17004103D02*
X10386253Y-17013627D01*
X10586253Y-17137436D02*
X10595777Y-17146960D01*
X10595777Y-17146960D02*
X10586253Y-17156484D01*
X10586253Y-17156484D02*
X10576729Y-17146960D01*
X10576729Y-17146960D02*
X10586253Y-17137436D01*
X10586253Y-17137436D02*
X10586253Y-17156484D01*
X10786253Y-17156484D02*
X10671967Y-17156484D01*
X10729110Y-17156484D02*
X10729110Y-16956484D01*
X10729110Y-16956484D02*
X10710063Y-16985055D01*
X10710063Y-16985055D02*
X10691015Y-17004103D01*
X10691015Y-17004103D02*
X10671967Y-17013627D01*
X10910063Y-16956484D02*
X10929110Y-16956484D01*
X10929110Y-16956484D02*
X10948158Y-16966008D01*
X10948158Y-16966008D02*
X10957682Y-16975531D01*
X10957682Y-16975531D02*
X10967205Y-16994579D01*
X10967205Y-16994579D02*
X10976729Y-17032674D01*
X10976729Y-17032674D02*
X10976729Y-17080293D01*
X10976729Y-17080293D02*
X10967205Y-17118389D01*
X10967205Y-17118389D02*
X10957682Y-17137436D01*
X10957682Y-17137436D02*
X10948158Y-17146960D01*
X10948158Y-17146960D02*
X10929110Y-17156484D01*
X10929110Y-17156484D02*
X10910063Y-17156484D01*
X10910063Y-17156484D02*
X10891015Y-17146960D01*
X10891015Y-17146960D02*
X10881491Y-17137436D01*
X10881491Y-17137436D02*
X10871967Y-17118389D01*
X10871967Y-17118389D02*
X10862444Y-17080293D01*
X10862444Y-17080293D02*
X10862444Y-17032674D01*
X10862444Y-17032674D02*
X10871967Y-16994579D01*
X10871967Y-16994579D02*
X10881491Y-16975531D01*
X10881491Y-16975531D02*
X10891015Y-16966008D01*
X10891015Y-16966008D02*
X10910063Y-16956484D01*
X11100539Y-16956484D02*
X11119586Y-16956484D01*
X11119586Y-16956484D02*
X11138634Y-16966008D01*
X11138634Y-16966008D02*
X11148158Y-16975531D01*
X11148158Y-16975531D02*
X11157682Y-16994579D01*
X11157682Y-16994579D02*
X11167205Y-17032674D01*
X11167205Y-17032674D02*
X11167205Y-17080293D01*
X11167205Y-17080293D02*
X11157682Y-17118389D01*
X11157682Y-17118389D02*
X11148158Y-17137436D01*
X11148158Y-17137436D02*
X11138634Y-17146960D01*
X11138634Y-17146960D02*
X11119586Y-17156484D01*
X11119586Y-17156484D02*
X11100539Y-17156484D01*
X11100539Y-17156484D02*
X11081491Y-17146960D01*
X11081491Y-17146960D02*
X11071967Y-17137436D01*
X11071967Y-17137436D02*
X11062444Y-17118389D01*
X11062444Y-17118389D02*
X11052920Y-17080293D01*
X11052920Y-17080293D02*
X11052920Y-17032674D01*
X11052920Y-17032674D02*
X11062444Y-16994579D01*
X11062444Y-16994579D02*
X11071967Y-16975531D01*
X11071967Y-16975531D02*
X11081491Y-16966008D01*
X11081491Y-16966008D02*
X11100539Y-16956484D01*
X11252920Y-17156484D02*
X11252920Y-17023150D01*
X11252920Y-17042198D02*
X11262443Y-17032674D01*
X11262443Y-17032674D02*
X11281491Y-17023150D01*
X11281491Y-17023150D02*
X11310063Y-17023150D01*
X11310063Y-17023150D02*
X11329110Y-17032674D01*
X11329110Y-17032674D02*
X11338634Y-17051722D01*
X11338634Y-17051722D02*
X11338634Y-17156484D01*
X11338634Y-17051722D02*
X11348158Y-17032674D01*
X11348158Y-17032674D02*
X11367205Y-17023150D01*
X11367205Y-17023150D02*
X11395777Y-17023150D01*
X11395777Y-17023150D02*
X11414824Y-17032674D01*
X11414824Y-17032674D02*
X11424348Y-17051722D01*
X11424348Y-17051722D02*
X11424348Y-17156484D01*
X11519586Y-17156484D02*
X11519586Y-17023150D01*
X11519586Y-17042198D02*
X11529110Y-17032674D01*
X11529110Y-17032674D02*
X11548158Y-17023150D01*
X11548158Y-17023150D02*
X11576729Y-17023150D01*
X11576729Y-17023150D02*
X11595777Y-17032674D01*
X11595777Y-17032674D02*
X11605301Y-17051722D01*
X11605301Y-17051722D02*
X11605301Y-17156484D01*
X11605301Y-17051722D02*
X11614824Y-17032674D01*
X11614824Y-17032674D02*
X11633872Y-17023150D01*
X11633872Y-17023150D02*
X11662443Y-17023150D01*
X11662443Y-17023150D02*
X11681491Y-17032674D01*
X11681491Y-17032674D02*
X11691015Y-17051722D01*
X11691015Y-17051722D02*
X11691015Y-17156484D01*
X12081491Y-16946960D02*
X11910063Y-17204103D01*
X12338634Y-16956484D02*
X12357682Y-16956484D01*
X12357682Y-16956484D02*
X12376729Y-16966008D01*
X12376729Y-16966008D02*
X12386253Y-16975531D01*
X12386253Y-16975531D02*
X12395777Y-16994579D01*
X12395777Y-16994579D02*
X12405301Y-17032674D01*
X12405301Y-17032674D02*
X12405301Y-17080293D01*
X12405301Y-17080293D02*
X12395777Y-17118389D01*
X12395777Y-17118389D02*
X12386253Y-17137436D01*
X12386253Y-17137436D02*
X12376729Y-17146960D01*
X12376729Y-17146960D02*
X12357682Y-17156484D01*
X12357682Y-17156484D02*
X12338634Y-17156484D01*
X12338634Y-17156484D02*
X12319586Y-17146960D01*
X12319586Y-17146960D02*
X12310063Y-17137436D01*
X12310063Y-17137436D02*
X12300539Y-17118389D01*
X12300539Y-17118389D02*
X12291015Y-17080293D01*
X12291015Y-17080293D02*
X12291015Y-17032674D01*
X12291015Y-17032674D02*
X12300539Y-16994579D01*
X12300539Y-16994579D02*
X12310063Y-16975531D01*
X12310063Y-16975531D02*
X12319586Y-16966008D01*
X12319586Y-16966008D02*
X12338634Y-16956484D01*
X12491015Y-17137436D02*
X12500539Y-17146960D01*
X12500539Y-17146960D02*
X12491015Y-17156484D01*
X12491015Y-17156484D02*
X12481491Y-17146960D01*
X12481491Y-17146960D02*
X12491015Y-17137436D01*
X12491015Y-17137436D02*
X12491015Y-17156484D01*
X12624348Y-16956484D02*
X12643396Y-16956484D01*
X12643396Y-16956484D02*
X12662444Y-16966008D01*
X12662444Y-16966008D02*
X12671967Y-16975531D01*
X12671967Y-16975531D02*
X12681491Y-16994579D01*
X12681491Y-16994579D02*
X12691015Y-17032674D01*
X12691015Y-17032674D02*
X12691015Y-17080293D01*
X12691015Y-17080293D02*
X12681491Y-17118389D01*
X12681491Y-17118389D02*
X12671967Y-17137436D01*
X12671967Y-17137436D02*
X12662444Y-17146960D01*
X12662444Y-17146960D02*
X12643396Y-17156484D01*
X12643396Y-17156484D02*
X12624348Y-17156484D01*
X12624348Y-17156484D02*
X12605301Y-17146960D01*
X12605301Y-17146960D02*
X12595777Y-17137436D01*
X12595777Y-17137436D02*
X12586253Y-17118389D01*
X12586253Y-17118389D02*
X12576729Y-17080293D01*
X12576729Y-17080293D02*
X12576729Y-17032674D01*
X12576729Y-17032674D02*
X12586253Y-16994579D01*
X12586253Y-16994579D02*
X12595777Y-16975531D01*
X12595777Y-16975531D02*
X12605301Y-16966008D01*
X12605301Y-16966008D02*
X12624348Y-16956484D01*
X12862444Y-17023150D02*
X12862444Y-17156484D01*
X12814825Y-16946960D02*
X12767206Y-17089817D01*
X12767206Y-17089817D02*
X12891015Y-17089817D01*
X12948158Y-16956484D02*
X13071967Y-16956484D01*
X13071967Y-16956484D02*
X13005301Y-17032674D01*
X13005301Y-17032674D02*
X13033872Y-17032674D01*
X13033872Y-17032674D02*
X13052920Y-17042198D01*
X13052920Y-17042198D02*
X13062444Y-17051722D01*
X13062444Y-17051722D02*
X13071967Y-17070770D01*
X13071967Y-17070770D02*
X13071967Y-17118389D01*
X13071967Y-17118389D02*
X13062444Y-17137436D01*
X13062444Y-17137436D02*
X13052920Y-17146960D01*
X13052920Y-17146960D02*
X13033872Y-17156484D01*
X13033872Y-17156484D02*
X12976729Y-17156484D01*
X12976729Y-17156484D02*
X12957682Y-17146960D01*
X12957682Y-17146960D02*
X12948158Y-17137436D01*
X13138634Y-16956484D02*
X13262444Y-16956484D01*
X13262444Y-16956484D02*
X13195777Y-17032674D01*
X13195777Y-17032674D02*
X13224348Y-17032674D01*
X13224348Y-17032674D02*
X13243396Y-17042198D01*
X13243396Y-17042198D02*
X13252920Y-17051722D01*
X13252920Y-17051722D02*
X13262444Y-17070770D01*
X13262444Y-17070770D02*
X13262444Y-17118389D01*
X13262444Y-17118389D02*
X13252920Y-17137436D01*
X13252920Y-17137436D02*
X13243396Y-17146960D01*
X13243396Y-17146960D02*
X13224348Y-17156484D01*
X13224348Y-17156484D02*
X13167206Y-17156484D01*
X13167206Y-17156484D02*
X13148158Y-17146960D01*
X13148158Y-17146960D02*
X13138634Y-17137436D01*
X13338634Y-16956484D02*
X13338634Y-16994579D01*
X13414825Y-16956484D02*
X13414825Y-16994579D01*
X13710063Y-17232674D02*
X13700539Y-17223150D01*
X13700539Y-17223150D02*
X13681491Y-17194579D01*
X13681491Y-17194579D02*
X13671968Y-17175531D01*
X13671968Y-17175531D02*
X13662444Y-17146960D01*
X13662444Y-17146960D02*
X13652920Y-17099341D01*
X13652920Y-17099341D02*
X13652920Y-17061246D01*
X13652920Y-17061246D02*
X13662444Y-17013627D01*
X13662444Y-17013627D02*
X13671968Y-16985055D01*
X13671968Y-16985055D02*
X13681491Y-16966008D01*
X13681491Y-16966008D02*
X13700539Y-16937436D01*
X13700539Y-16937436D02*
X13710063Y-16927912D01*
X13814825Y-17042198D02*
X13795777Y-17032674D01*
X13795777Y-17032674D02*
X13786253Y-17023150D01*
X13786253Y-17023150D02*
X13776729Y-17004103D01*
X13776729Y-17004103D02*
X13776729Y-16994579D01*
X13776729Y-16994579D02*
X13786253Y-16975531D01*
X13786253Y-16975531D02*
X13795777Y-16966008D01*
X13795777Y-16966008D02*
X13814825Y-16956484D01*
X13814825Y-16956484D02*
X13852920Y-16956484D01*
X13852920Y-16956484D02*
X13871968Y-16966008D01*
X13871968Y-16966008D02*
X13881491Y-16975531D01*
X13881491Y-16975531D02*
X13891015Y-16994579D01*
X13891015Y-16994579D02*
X13891015Y-17004103D01*
X13891015Y-17004103D02*
X13881491Y-17023150D01*
X13881491Y-17023150D02*
X13871968Y-17032674D01*
X13871968Y-17032674D02*
X13852920Y-17042198D01*
X13852920Y-17042198D02*
X13814825Y-17042198D01*
X13814825Y-17042198D02*
X13795777Y-17051722D01*
X13795777Y-17051722D02*
X13786253Y-17061246D01*
X13786253Y-17061246D02*
X13776729Y-17080293D01*
X13776729Y-17080293D02*
X13776729Y-17118389D01*
X13776729Y-17118389D02*
X13786253Y-17137436D01*
X13786253Y-17137436D02*
X13795777Y-17146960D01*
X13795777Y-17146960D02*
X13814825Y-17156484D01*
X13814825Y-17156484D02*
X13852920Y-17156484D01*
X13852920Y-17156484D02*
X13871968Y-17146960D01*
X13871968Y-17146960D02*
X13881491Y-17137436D01*
X13881491Y-17137436D02*
X13891015Y-17118389D01*
X13891015Y-17118389D02*
X13891015Y-17080293D01*
X13891015Y-17080293D02*
X13881491Y-17061246D01*
X13881491Y-17061246D02*
X13871968Y-17051722D01*
X13871968Y-17051722D02*
X13852920Y-17042198D01*
X14129110Y-17156484D02*
X14129110Y-16956484D01*
X14214825Y-17156484D02*
X14214825Y-17051722D01*
X14214825Y-17051722D02*
X14205301Y-17032674D01*
X14205301Y-17032674D02*
X14186253Y-17023150D01*
X14186253Y-17023150D02*
X14157682Y-17023150D01*
X14157682Y-17023150D02*
X14138634Y-17032674D01*
X14138634Y-17032674D02*
X14129110Y-17042198D01*
X14338634Y-17156484D02*
X14319587Y-17146960D01*
X14319587Y-17146960D02*
X14310063Y-17137436D01*
X14310063Y-17137436D02*
X14300539Y-17118389D01*
X14300539Y-17118389D02*
X14300539Y-17061246D01*
X14300539Y-17061246D02*
X14310063Y-17042198D01*
X14310063Y-17042198D02*
X14319587Y-17032674D01*
X14319587Y-17032674D02*
X14338634Y-17023150D01*
X14338634Y-17023150D02*
X14367206Y-17023150D01*
X14367206Y-17023150D02*
X14386253Y-17032674D01*
X14386253Y-17032674D02*
X14395777Y-17042198D01*
X14395777Y-17042198D02*
X14405301Y-17061246D01*
X14405301Y-17061246D02*
X14405301Y-17118389D01*
X14405301Y-17118389D02*
X14395777Y-17137436D01*
X14395777Y-17137436D02*
X14386253Y-17146960D01*
X14386253Y-17146960D02*
X14367206Y-17156484D01*
X14367206Y-17156484D02*
X14338634Y-17156484D01*
X14519587Y-17156484D02*
X14500539Y-17146960D01*
X14500539Y-17146960D02*
X14491015Y-17127912D01*
X14491015Y-17127912D02*
X14491015Y-16956484D01*
X14671968Y-17146960D02*
X14652920Y-17156484D01*
X14652920Y-17156484D02*
X14614825Y-17156484D01*
X14614825Y-17156484D02*
X14595777Y-17146960D01*
X14595777Y-17146960D02*
X14586253Y-17127912D01*
X14586253Y-17127912D02*
X14586253Y-17051722D01*
X14586253Y-17051722D02*
X14595777Y-17032674D01*
X14595777Y-17032674D02*
X14614825Y-17023150D01*
X14614825Y-17023150D02*
X14652920Y-17023150D01*
X14652920Y-17023150D02*
X14671968Y-17032674D01*
X14671968Y-17032674D02*
X14681491Y-17051722D01*
X14681491Y-17051722D02*
X14681491Y-17070770D01*
X14681491Y-17070770D02*
X14586253Y-17089817D01*
X14757682Y-17146960D02*
X14776730Y-17156484D01*
X14776730Y-17156484D02*
X14814825Y-17156484D01*
X14814825Y-17156484D02*
X14833872Y-17146960D01*
X14833872Y-17146960D02*
X14843396Y-17127912D01*
X14843396Y-17127912D02*
X14843396Y-17118389D01*
X14843396Y-17118389D02*
X14833872Y-17099341D01*
X14833872Y-17099341D02*
X14814825Y-17089817D01*
X14814825Y-17089817D02*
X14786253Y-17089817D01*
X14786253Y-17089817D02*
X14767206Y-17080293D01*
X14767206Y-17080293D02*
X14757682Y-17061246D01*
X14757682Y-17061246D02*
X14757682Y-17051722D01*
X14757682Y-17051722D02*
X14767206Y-17032674D01*
X14767206Y-17032674D02*
X14786253Y-17023150D01*
X14786253Y-17023150D02*
X14814825Y-17023150D01*
X14814825Y-17023150D02*
X14833872Y-17032674D01*
X14910063Y-17232674D02*
X14919587Y-17223150D01*
X14919587Y-17223150D02*
X14938634Y-17194579D01*
X14938634Y-17194579D02*
X14948158Y-17175531D01*
X14948158Y-17175531D02*
X14957682Y-17146960D01*
X14957682Y-17146960D02*
X14967206Y-17099341D01*
X14967206Y-17099341D02*
X14967206Y-17061246D01*
X14967206Y-17061246D02*
X14957682Y-17013627D01*
X14957682Y-17013627D02*
X14948158Y-16985055D01*
X14948158Y-16985055D02*
X14938634Y-16966008D01*
X14938634Y-16966008D02*
X14919587Y-16937436D01*
X14919587Y-16937436D02*
X14910063Y-16927912D01*
M02*
