M48
; DRILL file {KiCad 7.0.10-7.0.10~ubuntu20.04.1} date seg 27 mai 2024 17:46:08
; FORMAT={-:-/ absolute / metric / decimal}
; #@! TF.CreationDate,2024-05-27T17:46:08-03:00
; #@! TF.GenerationSoftware,Kicad,Pcbnew,7.0.10-7.0.10~ubuntu20.04.1
; #@! TF.FileFunction,Plated,1,2,PTH
FMAT,2
METRIC
; #@! TA.AperFunction,Plated,PTH,ViaDrill
T1C0.600
; #@! TA.AperFunction,Plated,PTH,ComponentDrill
T2C0.800
; #@! TA.AperFunction,Plated,PTH,ComponentDrill
T3C0.813
; #@! TA.AperFunction,Plated,PTH,ComponentDrill
T4C1.016
; #@! TA.AperFunction,Plated,PTH,ComponentDrill
T5C1.020
; #@! TA.AperFunction,Plated,PTH,ComponentDrill
T6C1.100
%
G90
G05
T1
X104.807Y-133.35
X109.936Y-84.777
X109.963Y-87.531
X114.314Y-134.635
X127.673Y-89.936
X129.59Y-77.883
X129.59Y-97.14
X130.616Y-57.782
X130.813Y-74.876
X132.269Y-109.504
X139.573Y-102.55
X140.693Y-97.287
X140.825Y-129.383
X140.868Y-79.655
X141.162Y-90.18
X141.662Y-61.884
X142.991Y-82.706
X145.086Y-100.176
X149.803Y-106.405
X153.118Y-95.511
X153.885Y-123.144
X156.355Y-128.035
X159.634Y-131.277
X161.782Y-115.249
X164.897Y-118.594
X167.19Y-117.745
X179.734Y-142.661
T2
X111.6Y-122.28
X111.6Y-129.9
X111.7Y-101.08
X111.7Y-108.7
X111.7Y-117.08
X111.7Y-119.58
X112.1Y-69.4
X112.1Y-77.02
X113.05Y-80.9
X115.55Y-80.9
X116.7Y-100.3
X116.7Y-107.92
X116.8Y-87.68
X116.8Y-95.3
X117.42Y-124.92
X117.42Y-135.08
X117.89Y-61.1
X118.19Y-80.86
X119.24Y-100.3
X119.24Y-107.92
X119.34Y-87.68
X119.34Y-95.3
X119.96Y-124.92
X119.96Y-135.08
X121.78Y-100.3
X121.78Y-107.92
X121.88Y-87.68
X121.88Y-95.3
X122.5Y-124.92
X122.5Y-135.08
X124.32Y-100.3
X124.32Y-107.92
X124.42Y-87.68
X124.42Y-95.3
X125.04Y-124.92
X125.04Y-135.08
X125.51Y-61.1
X125.81Y-80.86
X127.58Y-124.92
X127.58Y-135.08
X128.59Y-61.3
X129.3Y-100.59
X129.3Y-108.21
X132.8Y-78.28
X132.8Y-85.9
X132.9Y-73.14
X132.9Y-75.64
X136.21Y-61.3
X137.9Y-73.04
X137.9Y-75.54
X137.9Y-78.28
X137.9Y-85.9
X143.9Y-73.25
X143.9Y-75.75
X143.9Y-78.48
X143.9Y-86.1
X146.29Y-65.9
X149.6Y-78.48
X149.6Y-86.1
X149.614Y-73.278
X149.614Y-75.778
X153.91Y-65.9
X165.85Y-106.33
X165.85Y-108.87
X165.85Y-111.41
X165.85Y-113.95
X165.85Y-116.49
X171.29Y-122.4
X176.01Y-106.33
X176.01Y-108.87
X176.01Y-111.41
X176.01Y-113.95
X176.01Y-116.49
X178.91Y-122.4
X179.578Y-133.096
X179.578Y-140.716
T3
X118.29Y-111.79
X118.29Y-119.41
X120.83Y-111.79
X120.83Y-119.41
X123.37Y-111.79
X123.37Y-119.41
X125.91Y-111.79
X125.91Y-119.41
T4
X136.44Y-97.47
X136.44Y-100.01
X136.44Y-102.55
X136.44Y-105.09
X136.44Y-107.63
X136.44Y-110.17
X136.44Y-112.71
X136.44Y-115.25
X136.44Y-117.79
X136.44Y-120.33
X136.44Y-122.87
X136.44Y-125.41
X136.44Y-127.95
X136.44Y-130.49
X136.44Y-133.03
X136.44Y-135.57
X136.44Y-138.11
X136.44Y-140.65
X136.44Y-143.19
X136.44Y-145.781
X142.78Y-141.92
X145.32Y-141.92
X151.68Y-97.47
X151.68Y-100.01
X151.68Y-102.55
X151.68Y-105.09
X151.68Y-107.63
X151.68Y-110.17
X151.68Y-112.71
X151.68Y-115.25
X151.68Y-117.79
X151.68Y-120.33
X151.68Y-122.87
X151.68Y-125.41
X151.68Y-127.95
X151.68Y-130.49
X151.68Y-133.03
X151.68Y-135.57
X151.68Y-138.11
X151.68Y-140.65
X151.68Y-143.19
X151.68Y-145.73
T5
X106.68Y-57.15
X106.68Y-59.69
X106.68Y-62.23
X106.68Y-64.77
X106.68Y-67.31
X106.68Y-69.85
X106.68Y-72.39
X106.68Y-74.93
X106.68Y-81.28
X106.68Y-83.82
X106.68Y-86.36
X106.68Y-88.9
X106.68Y-91.44
X106.68Y-93.98
X106.68Y-96.52
X106.68Y-99.06
X106.68Y-101.6
X106.68Y-104.14
X106.68Y-106.68
X106.68Y-109.22
X106.68Y-111.76
X106.68Y-114.3
X106.68Y-116.84
X106.68Y-119.38
X106.68Y-121.92
X106.68Y-124.46
X106.68Y-127.0
X106.68Y-129.54
X106.68Y-132.08
X106.68Y-134.62
X106.68Y-137.16
X106.68Y-139.7
X106.68Y-142.24
X106.68Y-144.78
X106.68Y-147.32
X110.475Y-148.0
X113.015Y-148.0
X113.38Y-56.0
X115.555Y-148.0
X115.92Y-56.0
X118.46Y-56.0
X119.46Y-148.0
X121.0Y-56.0
X122.0Y-148.0
X123.54Y-56.0
X124.54Y-148.0
X127.08Y-148.0
X129.62Y-148.0
X130.8Y-140.425
X130.8Y-142.965
X138.445Y-55.5
X140.985Y-55.5
X143.525Y-55.5
X147.46Y-55.5
X148.5Y-93.25
X150.0Y-55.5
X151.04Y-93.25
X152.54Y-55.5
X158.83Y-70.66
X158.83Y-73.2
X158.83Y-75.74
X158.83Y-78.28
X158.83Y-80.82
X158.83Y-83.36
X158.83Y-85.9
X158.83Y-88.44
X158.83Y-90.98
X158.83Y-93.52
X159.0Y-146.22
X161.54Y-146.22
X164.08Y-146.22
X166.62Y-146.22
X169.16Y-146.22
X171.7Y-146.22
X174.24Y-146.22
X176.78Y-146.22
X179.83Y-70.65
X179.83Y-73.19
X179.83Y-75.73
X179.83Y-78.27
X179.83Y-80.81
X179.83Y-83.35
X179.83Y-85.89
X179.83Y-88.43
X179.83Y-90.97
X179.83Y-93.51
X185.42Y-57.15
X185.42Y-59.69
X185.42Y-62.23
X185.42Y-64.77
X185.42Y-67.31
X185.42Y-69.85
X185.42Y-72.39
X185.42Y-74.93
X185.42Y-77.47
X185.42Y-80.01
X185.42Y-82.55
X185.42Y-85.09
X185.42Y-87.63
X185.42Y-90.17
X185.42Y-92.71
X185.42Y-95.25
X185.42Y-97.79
X185.42Y-100.33
X185.42Y-102.87
X185.42Y-105.41
X185.42Y-107.95
X185.42Y-110.49
X185.42Y-113.03
X185.42Y-115.57
X185.42Y-118.11
X185.42Y-120.65
X185.42Y-123.19
X185.42Y-125.73
X185.42Y-128.27
X185.42Y-130.81
X185.42Y-133.35
X185.42Y-135.89
X185.42Y-138.43
X185.42Y-140.97
X185.42Y-143.51
T6
X117.475Y-66.5
X120.015Y-66.5
X124.21Y-66.5
X126.75Y-66.5
X130.975Y-66.5
X133.515Y-66.5
X137.725Y-66.5
X140.265Y-66.5
M30
