M48
; DRILL file {KiCad 7.0.10-7.0.10~ubuntu20.04.1} date seg 27 mai 2024 17:14:54
; FORMAT={-:-/ absolute / metric / decimal}
; #@! TF.CreationDate,2024-05-27T17:14:54-03:00
; #@! TF.GenerationSoftware,Kicad,Pcbnew,7.0.10-7.0.10~ubuntu20.04.1
; #@! TF.FileFunction,Plated,1,2,PTH
FMAT,2
METRIC
; #@! TA.AperFunction,Plated,PTH,ViaDrill
T1C0.800
; #@! TA.AperFunction,Plated,PTH,ComponentDrill
T2C0.800
; #@! TA.AperFunction,Plated,PTH,ComponentDrill
T3C0.900
; #@! TA.AperFunction,Plated,PTH,ComponentDrill
T4C1.000
; #@! TA.AperFunction,Plated,PTH,ComponentDrill
T5C1.020
%
G90
G05
T1
X137.04Y-127.522
X138.946Y-122.221
T2
X113.708Y-67.63
X113.708Y-75.25
X115.0Y-111.27
X115.0Y-118.89
X120.82Y-67.712
X120.82Y-75.332
X121.24Y-111.922
X121.24Y-114.462
X121.24Y-117.002
X121.24Y-119.542
X126.518Y-93.15
X128.042Y-104.072
X128.86Y-111.922
X128.86Y-114.462
X128.86Y-117.002
X128.86Y-119.542
X129.018Y-93.15
X130.0Y-75.5
X130.0Y-78.0
X130.19Y-83.0
X133.122Y-104.072
X137.81Y-83.0
X170.23Y-68.06
X170.23Y-75.68
X177.91Y-67.95
X177.91Y-75.57
T3
X112.48Y-59.79
X115.02Y-59.79
X120.03Y-60.18
X122.57Y-60.18
X170.03Y-59.97
X172.57Y-59.97
X177.68Y-59.83
X180.22Y-59.83
T4
X115.08Y-147.3
X117.62Y-147.3
X119.84Y-127.34
X119.84Y-129.88
X119.84Y-132.42
X119.84Y-134.96
X119.84Y-137.5
X120.16Y-147.3
X122.7Y-147.3
X125.24Y-147.3
X130.0Y-127.34
X130.0Y-129.88
X130.0Y-132.42
X130.0Y-134.96
X130.0Y-137.5
X134.84Y-147.5
X134.9Y-99.5
X136.5Y-55.5
X137.38Y-147.5
X137.44Y-99.5
X139.04Y-55.5
X139.92Y-147.5
X139.98Y-99.5
X141.58Y-55.5
X142.46Y-147.5
X142.52Y-99.5
X145.0Y-147.5
X145.06Y-99.5
X147.54Y-147.5
X147.6Y-99.5
X150.14Y-99.5
X158.76Y-105.0
X158.76Y-107.54
X158.76Y-110.08
X158.76Y-112.62
X158.76Y-115.16
X158.76Y-117.7
X158.76Y-120.24
X158.76Y-122.78
X158.76Y-125.32
X158.76Y-127.86
X158.76Y-130.4
X158.76Y-132.94
X158.76Y-135.48
X158.76Y-138.02
X158.76Y-140.56
X174.0Y-105.0
X174.0Y-107.54
X174.0Y-110.08
X174.0Y-112.62
X174.0Y-115.16
X174.0Y-117.7
X174.0Y-120.24
X174.0Y-122.78
X174.0Y-125.32
X174.0Y-127.86
X174.0Y-130.4
X174.0Y-132.94
X174.0Y-135.48
X174.0Y-138.02
X174.0Y-140.56
T5
X106.68Y-57.15
X106.68Y-59.69
X106.68Y-62.23
X106.68Y-64.77
X106.68Y-67.31
X106.68Y-69.85
X106.68Y-72.39
X106.68Y-74.93
X106.68Y-81.28
X106.68Y-83.82
X106.68Y-86.36
X106.68Y-88.9
X106.68Y-91.44
X106.68Y-93.98
X106.68Y-96.52
X106.68Y-99.06
X106.68Y-101.6
X106.68Y-104.14
X106.68Y-106.68
X106.68Y-109.22
X106.68Y-111.76
X106.68Y-114.3
X106.68Y-116.84
X106.68Y-119.38
X106.68Y-121.92
X106.68Y-124.46
X106.68Y-127.0
X106.68Y-129.54
X106.68Y-132.08
X106.68Y-134.62
X106.68Y-137.16
X106.68Y-139.7
X106.68Y-142.24
X106.68Y-144.78
X106.68Y-147.32
X185.42Y-57.15
X185.42Y-59.69
X185.42Y-62.23
X185.42Y-64.77
X185.42Y-67.31
X185.42Y-69.85
X185.42Y-72.39
X185.42Y-74.93
X185.42Y-77.47
X185.42Y-80.01
X185.42Y-82.55
X185.42Y-85.09
X185.42Y-87.63
X185.42Y-90.17
X185.42Y-92.71
X185.42Y-95.25
X185.42Y-97.79
X185.42Y-100.33
X185.42Y-102.87
X185.42Y-105.41
X185.42Y-107.95
X185.42Y-110.49
X185.42Y-113.03
X185.42Y-115.57
X185.42Y-118.11
X185.42Y-120.65
X185.42Y-123.19
X185.42Y-125.73
X185.42Y-128.27
X185.42Y-130.81
X185.42Y-133.35
X185.42Y-135.89
X185.42Y-138.43
X185.42Y-140.97
X185.42Y-143.51
M30
