G04 #@! TF.GenerationSoftware,KiCad,Pcbnew,7.0.10-7.0.10~ubuntu20.04.1*
G04 #@! TF.CreationDate,2024-05-27T17:12:52-03:00*
G04 #@! TF.ProjectId,Gerador_sinais_AD9833,47657261-646f-4725-9f73-696e6169735f,v04*
G04 #@! TF.SameCoordinates,Original*
G04 #@! TF.FileFunction,Soldermask,Bot*
G04 #@! TF.FilePolarity,Negative*
%FSLAX46Y46*%
G04 Gerber Fmt 4.6, Leading zero omitted, Abs format (unit mm)*
G04 Created by KiCad (PCBNEW 7.0.10-7.0.10~ubuntu20.04.1) date 2024-05-27 17:12:52*
%MOMM*%
%LPD*%
G01*
G04 APERTURE LIST*
%ADD10O,2.000000X1.600000*%
%ADD11R,2.000000X1.600000*%
%ADD12O,1.600000X2.000000*%
%ADD13R,1.800000X2.000000*%
%ADD14R,1.800000X1.800000*%
%ADD15C,1.800000*%
%ADD16R,1.700000X2.000000*%
%ADD17O,1.700000X2.000000*%
%ADD18O,2.500000X1.800000*%
%ADD19C,1.600000*%
%ADD20O,1.600000X1.600000*%
%ADD21R,2.500000X1.800000*%
%ADD22R,1.700000X1.700000*%
%ADD23O,1.700000X1.700000*%
G04 APERTURE END LIST*
D10*
X170230000Y-75680000D03*
X170230000Y-68060000D03*
D11*
X158760000Y-105000000D03*
D10*
X158760000Y-107540000D03*
X158760000Y-110080000D03*
X158760000Y-112620000D03*
X158760000Y-115160000D03*
X158760000Y-117700000D03*
X158760000Y-120240000D03*
X158760000Y-122780000D03*
X158760000Y-125320000D03*
X158760000Y-127860000D03*
X158760000Y-130400000D03*
X158760000Y-132940000D03*
X158760000Y-135480000D03*
X158760000Y-138020000D03*
X158760000Y-140560000D03*
X174000000Y-140560000D03*
X174000000Y-138020000D03*
X174000000Y-135480000D03*
X174000000Y-132940000D03*
X174000000Y-130400000D03*
X174000000Y-127860000D03*
X174000000Y-125320000D03*
X174000000Y-122780000D03*
X174000000Y-120240000D03*
X174000000Y-117700000D03*
X174000000Y-115160000D03*
X174000000Y-112620000D03*
X174000000Y-110080000D03*
X174000000Y-107540000D03*
X174000000Y-105000000D03*
D12*
X128042000Y-104072000D03*
X133122000Y-104072000D03*
X129018000Y-93150000D03*
D13*
X126518000Y-93150000D03*
D14*
X122570000Y-60180000D03*
D15*
X120030000Y-60180000D03*
D16*
X134900000Y-99500000D03*
D17*
X137440000Y-99500000D03*
X139980000Y-99500000D03*
X142520000Y-99500000D03*
X145060000Y-99500000D03*
X147600000Y-99500000D03*
X150140000Y-99500000D03*
D14*
X180220000Y-59830000D03*
D15*
X177680000Y-59830000D03*
D10*
X113708000Y-75250000D03*
X113708000Y-67630000D03*
D11*
X130000000Y-137500000D03*
D10*
X130000000Y-134960000D03*
X130000000Y-132420000D03*
X130000000Y-129880000D03*
X130000000Y-127340000D03*
X119840000Y-127340000D03*
X119840000Y-129880000D03*
X119840000Y-132420000D03*
X119840000Y-134960000D03*
X119840000Y-137500000D03*
D18*
X185420000Y-57150000D03*
X185420000Y-59690000D03*
X185420000Y-62230000D03*
X185420000Y-64770000D03*
X185420000Y-67310000D03*
X185420000Y-69850000D03*
X185420000Y-72390000D03*
X185420000Y-74930000D03*
X185420000Y-77470000D03*
X185420000Y-80010000D03*
X185420000Y-82550000D03*
X185420000Y-85090000D03*
X185420000Y-87630000D03*
X185420000Y-90170000D03*
X185420000Y-92710000D03*
X185420000Y-95250000D03*
X185420000Y-97790000D03*
X185420000Y-100330000D03*
X185420000Y-102870000D03*
X185420000Y-105410000D03*
X185420000Y-107950000D03*
X185420000Y-110490000D03*
X185420000Y-113030000D03*
X185420000Y-115570000D03*
X185420000Y-118110000D03*
X185420000Y-120650000D03*
X185420000Y-123190000D03*
X185420000Y-125730000D03*
X185420000Y-128270000D03*
X185420000Y-130810000D03*
X185420000Y-133350000D03*
X185420000Y-135890000D03*
X185420000Y-138430000D03*
X185420000Y-140970000D03*
X185420000Y-143510000D03*
D16*
X147540000Y-147500000D03*
D17*
X145000000Y-147500000D03*
X142460000Y-147500000D03*
X139920000Y-147500000D03*
X137380000Y-147500000D03*
X134840000Y-147500000D03*
D14*
X172570000Y-59970000D03*
D15*
X170030000Y-59970000D03*
D10*
X120820000Y-75332000D03*
X120820000Y-67712000D03*
D19*
X130190000Y-83000000D03*
D20*
X137810000Y-83000000D03*
D21*
X106680000Y-57150000D03*
D18*
X106680000Y-59690000D03*
X106680000Y-62230000D03*
X106680000Y-64770000D03*
X106680000Y-67310000D03*
X106680000Y-69850000D03*
X106680000Y-72390000D03*
X106680000Y-74930000D03*
X106680000Y-81280000D03*
X106680000Y-83820000D03*
X106680000Y-86360000D03*
X106680000Y-88900000D03*
X106680000Y-91440000D03*
X106680000Y-93980000D03*
X106680000Y-96520000D03*
X106680000Y-99060000D03*
X106680000Y-101600000D03*
X106680000Y-104140000D03*
X106680000Y-106680000D03*
X106680000Y-109220000D03*
X106680000Y-111760000D03*
X106680000Y-114300000D03*
X106680000Y-116840000D03*
X106680000Y-119380000D03*
X106680000Y-121920000D03*
X106680000Y-124460000D03*
X106680000Y-127000000D03*
X106680000Y-129540000D03*
X106680000Y-132080000D03*
X106680000Y-134620000D03*
X106680000Y-137160000D03*
X106680000Y-139700000D03*
X106680000Y-142240000D03*
X106680000Y-144780000D03*
X106680000Y-147320000D03*
D14*
X115020000Y-59790000D03*
D15*
X112480000Y-59790000D03*
D19*
X130000000Y-78000000D03*
X130000000Y-75500000D03*
D10*
X115000000Y-118890000D03*
X115000000Y-111270000D03*
X177910000Y-75570000D03*
X177910000Y-67950000D03*
D17*
X125240000Y-147300000D03*
X122700000Y-147300000D03*
X120160000Y-147300000D03*
X117620000Y-147300000D03*
D16*
X115080000Y-147300000D03*
D11*
X121240000Y-111922000D03*
D10*
X121240000Y-114462000D03*
X121240000Y-117002000D03*
X121240000Y-119542000D03*
X128860000Y-119542000D03*
X128860000Y-117002000D03*
X128860000Y-114462000D03*
X128860000Y-111922000D03*
D22*
X136500000Y-55500000D03*
D23*
X139040000Y-55500000D03*
X141580000Y-55500000D03*
M02*
