M48
; DRILL file {KiCad 7.0.5-7.0.5~ubuntu22.04.1} date ter 13 jun 2023 14:00:04
; FORMAT={-:-/ absolute / inch / decimal}
; #@! TF.CreationDate,2023-06-13T14:00:04-03:00
; #@! TF.GenerationSoftware,Kicad,Pcbnew,7.0.5-7.0.5~ubuntu22.04.1
; #@! TF.FileFunction,Plated,1,2,PTH
FMAT,2
INCH
; #@! TA.AperFunction,Plated,PTH,ComponentDrill
T1C0.0315
; #@! TA.AperFunction,Plated,PTH,ComponentDrill
; #@! TA.AperFunction,Plated,PTH,ViaDrill
; #@! TA.AperFunction,Plated,PTH,ComponentDrill
; #@! TA.AperFunction,Plated,PTH,ComponentDrill
; #@! TA.AperFunction,Plated,PTH,ComponentDrill
%
G90
G05
T1
X4.5016Y-2.6
X4.6Y-2.6
X4.8016Y-2.6
X4.8661Y-5.3465
X4.9Y-2.6
X4.9646Y-5.3465
X5.3858Y-4.748
X5.4843Y-4.748
X5.8738Y-2.7
X5.9722Y-2.7
X6.0276Y-4.4331
X6.126Y-4.4331
X6.2Y-2.7
X6.2984Y-2.7
X6.4016Y-2.95
X6.5Y-2.95
X6.752Y-4.8189
X6.8504Y-4.8189
X6.8516Y-2.65
X6.8626Y-5.275
X6.95Y-2.65
X6.961Y-5.275
X4.9Y-5.7717
X5.0Y-5.7717
X4.37Y-2.45
X4.37Y-3.28
X4.75Y-5.065
X4.75Y-5.4
X5.06Y-4.9
X5.07Y-5.295
X5.1Y-2.45
X5.1Y-3.07
X5.1Y-3.475
X5.75Y-3.15
X5.76Y-5.395
X6.05Y-3.15
X6.3Y-2.945
X6.3Y-3.55
X6.4Y-2.5
X6.74Y-5.395
X6.9Y-2.5
X4.2Y-2.25
X4.2Y-2.35
X4.2Y-2.45
X4.2Y-2.55
X4.2Y-2.65
X4.2Y-2.75
X4.2Y-2.85
X4.2Y-2.95
X4.2Y-3.2
X4.2Y-3.3
X4.2Y-3.4
X4.2Y-3.5
X4.2Y-3.6
X4.2Y-3.7
X4.2Y-3.8
X4.2Y-3.9
X4.2Y-4.0
X4.2Y-4.1
X4.2Y-4.2
X4.2Y-4.3
X4.2Y-4.4
X4.2Y-4.5
X4.2Y-4.6
X4.2Y-4.7
X4.2Y-4.8
X4.2Y-4.9
X4.2Y-5.0
X4.2Y-5.1
X4.2Y-5.2
X4.2Y-5.3
X4.2Y-5.4
X4.2Y-5.5
X4.2Y-5.6
X4.2Y-5.7
X4.2Y-5.8
X7.35Y-2.25
X7.35Y-2.35
X7.35Y-2.45
X7.35Y-2.55
X7.35Y-2.65
X7.35Y-2.75
X7.35Y-2.85
X7.35Y-2.95
X7.35Y-3.05
X7.35Y-3.15
X7.35Y-3.25
X7.35Y-3.35
X7.35Y-3.45
X7.35Y-3.55
X7.35Y-3.65
X7.35Y-3.75
X7.35Y-3.85
X7.35Y-3.95
X7.35Y-4.05
X7.35Y-4.15
X7.35Y-4.25
X7.35Y-4.35
X7.35Y-4.45
X7.35Y-4.55
X7.35Y-4.65
X7.35Y-4.75
X7.35Y-4.85
X7.35Y-4.95
X7.35Y-5.05
X7.35Y-5.15
X7.35Y-5.25
X7.35Y-5.35
X7.35Y-5.45
X7.35Y-5.55
X7.35Y-5.65
X4.5Y-2.3
X4.6Y-2.3
X4.7Y-2.3
X4.75Y-2.96
X4.75Y-3.36
X5.1Y-2.3
X5.18Y-2.715
X5.2Y-2.3
X5.3Y-2.3
X5.4628Y-2.4322
X5.5Y-2.85
X5.5Y-3.25
X5.7992Y-5.5039
X5.8661Y-5.6496
X5.9331Y-5.5039
X6.0Y-5.6496
X6.0669Y-5.5039
X6.2Y-2.3
X6.2Y-3.15
X6.2Y-3.55
X6.3Y-2.3
X6.4Y-2.3
X6.7504Y-5.6636
X6.8Y-2.3
X6.8504Y-5.6636
X6.9Y-2.3
X6.9504Y-5.6636
X7.0Y-2.3
X4.4961Y-4.4268
X4.4961Y-5.2268
X4.5669Y-3.8819
X4.81Y-4.385
X5.25Y-5.4631
X5.25Y-5.66
X5.3669Y-3.8819
X5.4075Y-5.4631
X5.4075Y-5.66
X5.565Y-5.4631
X5.565Y-5.66
X5.61Y-4.385
X5.6236Y-5.0
X5.83Y-3.575
X5.83Y-4.375
X6.4236Y-5.0
X6.695Y-3.675
X6.695Y-4.475
G00X4.4488Y-5.5
M15
G01X4.5512Y-5.5
M16
G05
G00X4.4567Y-5.748
M15
G01X4.5433Y-5.748
M16
G05
G00X4.689Y-5.5709
M15
G01X4.689Y-5.6575
M16
G05
M30
