M48
; DRILL file {KiCad 7.0.6-7.0.6~ubuntu22.04.1} date qua 19 jul 2023 15:48:31
; FORMAT={-:-/ absolute / inch / decimal}
; #@! TF.CreationDate,2023-07-19T15:48:31-03:00
; #@! TF.GenerationSoftware,Kicad,Pcbnew,7.0.6-7.0.6~ubuntu22.04.1
; #@! TF.FileFunction,Plated,1,2,PTH
FMAT,2
INCH
; #@! TA.AperFunction,Plated,PTH,ViaDrill
T1C0.0315
; #@! TA.AperFunction,Plated,PTH,ComponentDrill
;T2C0.0315
%
G90
G05
T1
X4.3996Y-3.3071
X4.4094Y-2.8543
X4.4094Y-3.1398
X4.872Y-2.8543
X4.872Y-3.1398
X4.872Y-3.3071
X4.8819Y-4.4016
X4.8819Y-4.8898
X5.2598Y-4.4134
X5.2598Y-4.8583
X5.4035Y-3.4744
X5.4035Y-4.0354
X5.6004Y-2.8543
X5.6201Y-3.1398
X5.7121Y-3.9208
X6.0335Y-4.0256
X6.0728Y-3.9272
X6.1516Y-5.4921
X6.1614Y-4.252
X6.1811Y-3.6516
X6.2317Y-5.4022
X6.2362Y-4.6378
X6.2362Y-4.7402
X6.2697Y-3.1398
X6.2697Y-3.8287
X6.3077Y-4.8386
X6.4685Y-4.6378
X6.4685Y-4.7402
X6.4685Y-4.8386
X6.4961Y-3.8287
X6.5551Y-2.8543
X6.6437Y-4.252
X6.7323Y-3.6516
X6.752Y-3.8287
X6.8307Y-4.0256
X7.1752Y-4.252
X7.2244Y-4.7441
;T2
X4.2Y-2.25
X4.2Y-2.35
X4.2Y-2.45
X4.2Y-2.55
X4.2Y-2.65
X4.2Y-2.75
X4.2Y-2.85
X4.2Y-2.95
X4.2Y-3.2
X4.2Y-3.3
X4.2Y-3.4
X4.2Y-3.5
X4.2Y-3.6
X4.2Y-3.7
X4.2Y-3.8
X4.2Y-3.9
X4.2Y-4.0
X4.2Y-4.1
X4.2Y-4.2
X4.2Y-4.3
X4.2Y-4.4
X4.2Y-4.5
X4.2Y-4.6
X4.2Y-4.7
X4.2Y-4.8
X4.2Y-4.9
X4.2Y-5.0
X4.2Y-5.1
X4.2Y-5.2
X4.2Y-5.3
X4.2Y-5.4
X4.2Y-5.5
X4.2Y-5.6
X4.2Y-5.7
X4.2Y-5.8
X4.4882Y-2.2638
X4.685Y-2.2638
X4.9606Y-2.2638
X5.1575Y-2.2638
X5.4331Y-2.2638
X5.4528Y-4.261
X5.4528Y-4.361
X5.4528Y-4.461
X5.4528Y-4.561
X5.4528Y-4.661
X5.4528Y-4.761
X5.4528Y-4.861
X5.4528Y-4.961
X5.4528Y-5.061
X5.4528Y-5.161
X5.4528Y-5.261
X5.4528Y-5.361
X5.4528Y-5.461
X5.4528Y-5.561
X5.4528Y-5.661
X5.5953Y-3.3079
X5.5953Y-3.4079
X5.5953Y-3.5079
X5.5953Y-3.6079
X5.5953Y-3.7079
X5.6299Y-2.2638
X5.9055Y-2.2638
X5.9953Y-3.3079
X5.9953Y-3.4079
X5.9953Y-3.5079
X5.9953Y-3.6079
X5.9953Y-3.7079
X6.0528Y-4.261
X6.0528Y-4.361
X6.0528Y-4.461
X6.0528Y-4.561
X6.0528Y-4.661
X6.0528Y-4.761
X6.0528Y-4.861
X6.0528Y-4.961
X6.0528Y-5.061
X6.0528Y-5.161
X6.0528Y-5.261
X6.0528Y-5.361
X6.0528Y-5.461
X6.0528Y-5.561
X6.0528Y-5.661
X6.1024Y-2.2638
X6.378Y-2.2638
X6.5059Y-5.2559
X6.5299Y-5.6378
X6.5315Y-2.9803
X6.5315Y-3.0803
X6.5315Y-3.1803
X6.5315Y-3.2803
X6.5748Y-2.2638
X6.6043Y-5.2559
X6.6457Y-4.4394
X6.6457Y-4.5394
X6.6457Y-4.6394
X6.6457Y-4.7394
X6.6457Y-4.8394
X6.6457Y-4.9394
X6.6457Y-5.0394
X6.7299Y-5.6378
X6.8291Y-3.6516
X6.8315Y-2.9803
X6.8315Y-3.0803
X6.8315Y-3.1803
X6.8315Y-3.2803
X6.8504Y-2.2638
X7.0291Y-3.6516
X7.0472Y-2.2638
X7.35Y-2.25
X7.35Y-2.35
X7.35Y-2.45
X7.35Y-2.55
X7.35Y-2.65
X7.35Y-2.75
X7.35Y-2.85
X7.35Y-2.95
X7.35Y-3.05
X7.35Y-3.15
X7.35Y-3.25
X7.35Y-3.35
X7.35Y-3.45
X7.35Y-3.55
X7.35Y-3.65
X7.35Y-3.75
X7.35Y-3.85
X7.35Y-3.95
X7.35Y-4.05
X7.35Y-4.15
X7.35Y-4.25
X7.35Y-4.35
X7.35Y-4.45
X7.35Y-4.55
X7.35Y-4.65
X7.35Y-4.75
X7.35Y-4.85
X7.35Y-4.95
X7.35Y-5.05
X7.35Y-5.15
X7.35Y-5.25
X7.35Y-5.35
X7.35Y-5.45
X7.35Y-5.55
X7.35Y-5.65
T0
M30
