%TF.GenerationSoftware,KiCad,Pcbnew,7.0.5-7.0.5~ubuntu20.04.1*%
%TF.CreationDate,2023-07-21T18:26:15-03:00*%
%TF.ProjectId,Barramento_EITduino,42617272-616d-4656-9e74-6f5f45495464,v01*%
%TF.SameCoordinates,Original*%
%TF.FileFunction,Legend,Top*%
%TF.FilePolarity,Positive*%
%FSLAX46Y46*%
G04 Gerber Fmt 4.6, Leading zero omitted, Abs format (unit mm)*
G04 Created by KiCad (PCBNEW 7.0.5-7.0.5~ubuntu20.04.1) date 2023-07-21 18:26:15*
%MOMM*%
%LPD*%
G01*
G04 APERTURE LIST*
%ADD10C,0.150000*%
%ADD11C,0.120000*%
G04 APERTURE END LIST*
D10*
%TO.C,J4*%
X186191666Y-52069819D02*
X186191666Y-52784104D01*
X186191666Y-52784104D02*
X186144047Y-52926961D01*
X186144047Y-52926961D02*
X186048809Y-53022200D01*
X186048809Y-53022200D02*
X185905952Y-53069819D01*
X185905952Y-53069819D02*
X185810714Y-53069819D01*
X187096428Y-52403152D02*
X187096428Y-53069819D01*
X186858333Y-52022200D02*
X186620238Y-52736485D01*
X186620238Y-52736485D02*
X187239285Y-52736485D01*
%TO.C,J2*%
X106346666Y-54274819D02*
X106346666Y-54989104D01*
X106346666Y-54989104D02*
X106299047Y-55131961D01*
X106299047Y-55131961D02*
X106203809Y-55227200D01*
X106203809Y-55227200D02*
X106060952Y-55274819D01*
X106060952Y-55274819D02*
X105965714Y-55274819D01*
X106775238Y-54370057D02*
X106822857Y-54322438D01*
X106822857Y-54322438D02*
X106918095Y-54274819D01*
X106918095Y-54274819D02*
X107156190Y-54274819D01*
X107156190Y-54274819D02*
X107251428Y-54322438D01*
X107251428Y-54322438D02*
X107299047Y-54370057D01*
X107299047Y-54370057D02*
X107346666Y-54465295D01*
X107346666Y-54465295D02*
X107346666Y-54560533D01*
X107346666Y-54560533D02*
X107299047Y-54703390D01*
X107299047Y-54703390D02*
X106727619Y-55274819D01*
X106727619Y-55274819D02*
X107346666Y-55274819D01*
%TO.C,J3*%
X106346666Y-78404819D02*
X106346666Y-79119104D01*
X106346666Y-79119104D02*
X106299047Y-79261961D01*
X106299047Y-79261961D02*
X106203809Y-79357200D01*
X106203809Y-79357200D02*
X106060952Y-79404819D01*
X106060952Y-79404819D02*
X105965714Y-79404819D01*
X106727619Y-78404819D02*
X107346666Y-78404819D01*
X107346666Y-78404819D02*
X107013333Y-78785771D01*
X107013333Y-78785771D02*
X107156190Y-78785771D01*
X107156190Y-78785771D02*
X107251428Y-78833390D01*
X107251428Y-78833390D02*
X107299047Y-78881009D01*
X107299047Y-78881009D02*
X107346666Y-78976247D01*
X107346666Y-78976247D02*
X107346666Y-79214342D01*
X107346666Y-79214342D02*
X107299047Y-79309580D01*
X107299047Y-79309580D02*
X107251428Y-79357200D01*
X107251428Y-79357200D02*
X107156190Y-79404819D01*
X107156190Y-79404819D02*
X106870476Y-79404819D01*
X106870476Y-79404819D02*
X106775238Y-79357200D01*
X106775238Y-79357200D02*
X106727619Y-79309580D01*
D11*
%TO.C,J4*%
X185360000Y-55820000D02*
X186690000Y-55820000D01*
X185360000Y-57150000D02*
X185360000Y-55820000D01*
X185360000Y-58420000D02*
X185360000Y-144840000D01*
X185360000Y-58420000D02*
X188020000Y-58420000D01*
X185360000Y-144840000D02*
X188020000Y-144840000D01*
X188020000Y-58420000D02*
X188020000Y-144840000D01*
%TO.C,J2*%
X105350000Y-55820000D02*
X106680000Y-55820000D01*
X105350000Y-57150000D02*
X105350000Y-55820000D01*
X105350000Y-58420000D02*
X105350000Y-76260000D01*
X105350000Y-58420000D02*
X108010000Y-58420000D01*
X105350000Y-76260000D02*
X108010000Y-76260000D01*
X108010000Y-58420000D02*
X108010000Y-76260000D01*
%TO.C,J3*%
X105350000Y-79950000D02*
X106680000Y-79950000D01*
X105350000Y-81280000D02*
X105350000Y-79950000D01*
X105350000Y-82550000D02*
X105350000Y-148650000D01*
X105350000Y-82550000D02*
X108010000Y-82550000D01*
X105350000Y-148650000D02*
X108010000Y-148650000D01*
X108010000Y-82550000D02*
X108010000Y-148650000D01*
%TD*%
M02*
