%TF.GenerationSoftware,KiCad,Pcbnew,7.0.5-7.0.5~ubuntu20.04.1*%
%TF.CreationDate,2023-08-04T14:07:12-03:00*%
%TF.ProjectId,condicionamento_BIA_v02,636f6e64-6963-4696-9f6e-616d656e746f,v01*%
%TF.SameCoordinates,Original*%
%TF.FileFunction,Soldermask,Top*%
%TF.FilePolarity,Negative*%
%FSLAX46Y46*%
G04 Gerber Fmt 4.6, Leading zero omitted, Abs format (unit mm)*
G04 Created by KiCad (PCBNEW 7.0.5-7.0.5~ubuntu20.04.1) date 2023-08-04 14:07:12*
%MOMM*%
%LPD*%
G01*
G04 APERTURE LIST*
%ADD10O,1.600000X2.000000*%
%ADD11R,1.500000X2.000000*%
%ADD12O,1.500000X2.000000*%
%ADD13R,1.700000X1.700000*%
%ADD14O,1.600000X1.600000*%
%ADD15C,1.600000*%
%ADD16O,4.000000X1.500000*%
%ADD17R,2.250000X1.727200*%
%ADD18O,2.250000X1.727200*%
%ADD19O,1.727200X1.727200*%
%ADD20R,1.500000X1.800000*%
%ADD21O,1.500000X1.800000*%
%ADD22R,1.600000X1.600000*%
%ADD23O,1.700000X1.700000*%
%ADD24R,4.000000X1.500000*%
%ADD25R,1.524000X1.524000*%
%ADD26C,1.524000*%
%ADD27O,1.800000X1.500000*%
%ADD28R,1.800000X1.500000*%
G04 APERTURE END LIST*
D10*
%TO.C,Brd1*%
X163780000Y-146600000D03*
X166320000Y-146600000D03*
X168860000Y-146600000D03*
X171400000Y-146600000D03*
%TD*%
D11*
%TO.C,J5*%
X150320000Y-146400000D03*
X147780000Y-146400000D03*
D12*
X145240000Y-146400000D03*
X142700000Y-146400000D03*
%TD*%
D13*
%TO.C,J12*%
X111750000Y-95250000D03*
%TD*%
D14*
%TO.C,C1*%
X120600000Y-63400000D03*
X123100000Y-63400000D03*
%TD*%
%TO.C,D3*%
X137590000Y-90750000D03*
X147750000Y-90750000D03*
%TD*%
D13*
%TO.C,J15*%
X113000000Y-136750000D03*
%TD*%
%TO.C,J13*%
X151500000Y-99500000D03*
%TD*%
D15*
%TO.C,R4*%
X139860000Y-70000000D03*
D14*
X147480000Y-70000000D03*
%TD*%
D16*
%TO.C,J4*%
X186690000Y-57150000D03*
X186690000Y-59690000D03*
X186690000Y-62230000D03*
X186690000Y-64770000D03*
X186690000Y-67310000D03*
X186690000Y-69850000D03*
X186690000Y-72390000D03*
X186690000Y-74930000D03*
X186690000Y-77470000D03*
X186690000Y-80010000D03*
X186690000Y-82550000D03*
X186690000Y-85090000D03*
X186690000Y-87630000D03*
X186690000Y-90170000D03*
X186690000Y-92710000D03*
X186690000Y-95250000D03*
X186690000Y-97790000D03*
X186690000Y-100330000D03*
X186690000Y-102870000D03*
X186690000Y-105410000D03*
X186690000Y-107950000D03*
X186690000Y-110490000D03*
X186690000Y-113030000D03*
X186690000Y-115570000D03*
X186690000Y-118110000D03*
X186690000Y-120650000D03*
X186690000Y-123190000D03*
X186690000Y-125730000D03*
X186690000Y-128270000D03*
X186690000Y-130810000D03*
X186690000Y-133350000D03*
X186690000Y-135890000D03*
X186690000Y-138430000D03*
X186690000Y-140970000D03*
X186690000Y-143510000D03*
%TD*%
D17*
%TO.C,U2*%
X177490000Y-104700000D03*
D18*
X177490000Y-102160000D03*
X177490000Y-99620000D03*
X177490000Y-97080000D03*
X177490000Y-94540000D03*
X177490000Y-92000000D03*
X177490000Y-89460000D03*
X177490000Y-86920000D03*
X177490000Y-84380000D03*
X177490000Y-81840000D03*
X177490000Y-79300000D03*
X177490000Y-76760000D03*
X177490000Y-74220000D03*
X177490000Y-71680000D03*
X177490000Y-69140000D03*
X177490000Y-66600000D03*
X177490000Y-64060000D03*
X177490000Y-61520000D03*
X177490000Y-58980000D03*
X177490000Y-56440000D03*
X162250000Y-56440000D03*
X162250000Y-58980000D03*
X162250000Y-61520000D03*
X162250000Y-64060000D03*
X162250000Y-66600000D03*
X162250000Y-69140000D03*
X162250000Y-71680000D03*
X162250000Y-74220000D03*
X162250000Y-76760000D03*
X162250000Y-79300000D03*
X162250000Y-81840000D03*
X162250000Y-84380000D03*
X162250000Y-86920000D03*
X162250000Y-89460000D03*
X162250000Y-92000000D03*
X162250000Y-94540000D03*
X162250000Y-97080000D03*
X162250000Y-99620000D03*
X162250000Y-102160000D03*
X162250000Y-104750800D03*
D19*
X168590000Y-100890000D03*
X171130000Y-100890000D03*
%TD*%
D13*
%TO.C,J17*%
X183500000Y-53250000D03*
%TD*%
%TO.C,J11*%
X151000000Y-71500000D03*
%TD*%
D15*
%TO.C,R2*%
X116920000Y-71000000D03*
D14*
X124540000Y-71000000D03*
%TD*%
D13*
%TO.C,J8*%
X113750000Y-69500000D03*
%TD*%
D14*
%TO.C,D4*%
X147750000Y-87000000D03*
X137590000Y-87000000D03*
%TD*%
%TO.C,C4*%
X142625112Y-81000000D03*
X140125112Y-81000000D03*
%TD*%
D20*
%TO.C,J6*%
X187740000Y-148200000D03*
D21*
X185200000Y-148200000D03*
%TD*%
D22*
%TO.C,D2*%
X116590000Y-84250000D03*
D14*
X126750000Y-84250000D03*
%TD*%
%TO.C,C3*%
X142375113Y-64500000D03*
X139875113Y-64500000D03*
%TD*%
D13*
%TO.C,J7*%
X131460000Y-54875000D03*
D23*
X134000000Y-54875000D03*
%TD*%
D24*
%TO.C,J2*%
X106680000Y-57150000D03*
D16*
X106680000Y-59690000D03*
X106680000Y-62230000D03*
X106680000Y-64770000D03*
X106680000Y-67310000D03*
X106680000Y-69850000D03*
X106680000Y-72390000D03*
X106680000Y-74930000D03*
%TD*%
%TO.C,J3*%
X106680000Y-81280000D03*
X106680000Y-83820000D03*
X106680000Y-86360000D03*
X106680000Y-88900000D03*
X106680000Y-91440000D03*
X106680000Y-93980000D03*
X106680000Y-96520000D03*
X106680000Y-99060000D03*
X106680000Y-101600000D03*
X106680000Y-104140000D03*
X106680000Y-106680000D03*
X106680000Y-109220000D03*
X106680000Y-111760000D03*
X106680000Y-114300000D03*
X106680000Y-116840000D03*
X106680000Y-119380000D03*
X106680000Y-121920000D03*
X106680000Y-124460000D03*
X106680000Y-127000000D03*
X106680000Y-129540000D03*
X106680000Y-132080000D03*
X106680000Y-134620000D03*
X106680000Y-137160000D03*
X106680000Y-139700000D03*
X106680000Y-142240000D03*
X106680000Y-144780000D03*
X106680000Y-147320000D03*
%TD*%
D13*
%TO.C,J10*%
X138400000Y-56600000D03*
%TD*%
D15*
%TO.C,R3*%
X116920000Y-73690000D03*
D14*
X116920000Y-81310000D03*
%TD*%
D25*
%TO.C,U1*%
X128670000Y-61880000D03*
D26*
X128670000Y-64420000D03*
X128670000Y-66960000D03*
X128670000Y-69500000D03*
X136290000Y-69500000D03*
X136290000Y-66960000D03*
X136290000Y-64420000D03*
X136290000Y-61880000D03*
%TD*%
D13*
%TO.C,J9*%
X126170000Y-56500000D03*
%TD*%
D14*
%TO.C,D1*%
X126750000Y-87750000D03*
X116590000Y-87750000D03*
%TD*%
D15*
%TO.C,R8*%
X169400000Y-122210000D03*
D14*
X169400000Y-114590000D03*
%TD*%
D15*
%TO.C,R6*%
X147670000Y-76190000D03*
D14*
X147670000Y-83810000D03*
%TD*%
D27*
%TO.C,J1*%
X112250000Y-88680000D03*
D28*
X112250000Y-86140000D03*
D27*
X112250000Y-83600000D03*
%TD*%
D15*
%TO.C,R1*%
X124480000Y-67750000D03*
D14*
X116860000Y-67750000D03*
%TD*%
D15*
%TO.C,R7*%
X174600000Y-109500000D03*
D14*
X174600000Y-117120000D03*
%TD*%
D15*
%TO.C,R5*%
X147480000Y-73500000D03*
D14*
X139860000Y-73500000D03*
%TD*%
D13*
%TO.C,J16*%
X154000000Y-54500000D03*
%TD*%
D17*
%TO.C,U3*%
X119260000Y-98230000D03*
D18*
X119260000Y-100770000D03*
X119260000Y-103310000D03*
X119260000Y-105850000D03*
X119260000Y-108390000D03*
X119260000Y-110930000D03*
X119260000Y-113470000D03*
X119260000Y-116010000D03*
X119260000Y-118550000D03*
X119260000Y-121090000D03*
X119260000Y-123630000D03*
X119260000Y-126170000D03*
X119260000Y-128710000D03*
X119260000Y-131250000D03*
X119260000Y-133790000D03*
X119260000Y-136330000D03*
X119260000Y-138870000D03*
X119260000Y-141410000D03*
X119260000Y-143950000D03*
X119260000Y-146490000D03*
X134500000Y-146490000D03*
X134500000Y-143950000D03*
X134500000Y-141410000D03*
X134500000Y-138870000D03*
X134500000Y-136330000D03*
X134500000Y-133790000D03*
X134500000Y-131250000D03*
X134500000Y-128710000D03*
X134500000Y-126170000D03*
X134500000Y-123630000D03*
X134500000Y-121090000D03*
X134500000Y-118550000D03*
X134500000Y-116010000D03*
X134500000Y-113470000D03*
X134500000Y-110930000D03*
X134500000Y-108390000D03*
X134500000Y-105850000D03*
X134500000Y-103310000D03*
X134500000Y-100770000D03*
X134500000Y-98179200D03*
D19*
X128160000Y-102040000D03*
X125620000Y-102040000D03*
%TD*%
D14*
%TO.C,C2*%
X120800000Y-79700000D03*
X123300000Y-79700000D03*
%TD*%
M02*
