%TF.GenerationSoftware,KiCad,Pcbnew,7.0.5-7.0.5~ubuntu20.04.1*%
%TF.CreationDate,2023-08-04T14:07:12-03:00*%
%TF.ProjectId,condicionamento_BIA_v02,636f6e64-6963-4696-9f6e-616d656e746f,v01*%
%TF.SameCoordinates,Original*%
%TF.FileFunction,Legend,Top*%
%TF.FilePolarity,Positive*%
%FSLAX46Y46*%
G04 Gerber Fmt 4.6, Leading zero omitted, Abs format (unit mm)*
G04 Created by KiCad (PCBNEW 7.0.5-7.0.5~ubuntu20.04.1) date 2023-08-04 14:07:12*
%MOMM*%
%LPD*%
G01*
G04 APERTURE LIST*
%ADD10C,0.150000*%
%ADD11C,0.222250*%
%ADD12C,0.120000*%
%ADD13C,0.304800*%
%ADD14C,0.152400*%
%ADD15R,2.250000X1.727200*%
%ADD16O,2.250000X1.727200*%
%ADD17O,1.727200X1.727200*%
G04 APERTURE END LIST*
D10*
%TO.C,Brd1*%
X166033333Y-143231009D02*
X166176190Y-143278628D01*
X166176190Y-143278628D02*
X166223809Y-143326247D01*
X166223809Y-143326247D02*
X166271428Y-143421485D01*
X166271428Y-143421485D02*
X166271428Y-143564342D01*
X166271428Y-143564342D02*
X166223809Y-143659580D01*
X166223809Y-143659580D02*
X166176190Y-143707200D01*
X166176190Y-143707200D02*
X166080952Y-143754819D01*
X166080952Y-143754819D02*
X165700000Y-143754819D01*
X165700000Y-143754819D02*
X165700000Y-142754819D01*
X165700000Y-142754819D02*
X166033333Y-142754819D01*
X166033333Y-142754819D02*
X166128571Y-142802438D01*
X166128571Y-142802438D02*
X166176190Y-142850057D01*
X166176190Y-142850057D02*
X166223809Y-142945295D01*
X166223809Y-142945295D02*
X166223809Y-143040533D01*
X166223809Y-143040533D02*
X166176190Y-143135771D01*
X166176190Y-143135771D02*
X166128571Y-143183390D01*
X166128571Y-143183390D02*
X166033333Y-143231009D01*
X166033333Y-143231009D02*
X165700000Y-143231009D01*
X166700000Y-143754819D02*
X166700000Y-143088152D01*
X166700000Y-143278628D02*
X166747619Y-143183390D01*
X166747619Y-143183390D02*
X166795238Y-143135771D01*
X166795238Y-143135771D02*
X166890476Y-143088152D01*
X166890476Y-143088152D02*
X166985714Y-143088152D01*
X167747619Y-143754819D02*
X167747619Y-142754819D01*
X167747619Y-143707200D02*
X167652381Y-143754819D01*
X167652381Y-143754819D02*
X167461905Y-143754819D01*
X167461905Y-143754819D02*
X167366667Y-143707200D01*
X167366667Y-143707200D02*
X167319048Y-143659580D01*
X167319048Y-143659580D02*
X167271429Y-143564342D01*
X167271429Y-143564342D02*
X167271429Y-143278628D01*
X167271429Y-143278628D02*
X167319048Y-143183390D01*
X167319048Y-143183390D02*
X167366667Y-143135771D01*
X167366667Y-143135771D02*
X167461905Y-143088152D01*
X167461905Y-143088152D02*
X167652381Y-143088152D01*
X167652381Y-143088152D02*
X167747619Y-143135771D01*
X168747619Y-143754819D02*
X168176191Y-143754819D01*
X168461905Y-143754819D02*
X168461905Y-142754819D01*
X168461905Y-142754819D02*
X168366667Y-142897676D01*
X168366667Y-142897676D02*
X168271429Y-142992914D01*
X168271429Y-142992914D02*
X168176191Y-143040533D01*
%TO.C,J5*%
X152044819Y-151118333D02*
X152759104Y-151118333D01*
X152759104Y-151118333D02*
X152901961Y-151165952D01*
X152901961Y-151165952D02*
X152997200Y-151261190D01*
X152997200Y-151261190D02*
X153044819Y-151404047D01*
X153044819Y-151404047D02*
X153044819Y-151499285D01*
X152044819Y-150165952D02*
X152044819Y-150642142D01*
X152044819Y-150642142D02*
X152521009Y-150689761D01*
X152521009Y-150689761D02*
X152473390Y-150642142D01*
X152473390Y-150642142D02*
X152425771Y-150546904D01*
X152425771Y-150546904D02*
X152425771Y-150308809D01*
X152425771Y-150308809D02*
X152473390Y-150213571D01*
X152473390Y-150213571D02*
X152521009Y-150165952D01*
X152521009Y-150165952D02*
X152616247Y-150118333D01*
X152616247Y-150118333D02*
X152854342Y-150118333D01*
X152854342Y-150118333D02*
X152949580Y-150165952D01*
X152949580Y-150165952D02*
X152997200Y-150213571D01*
X152997200Y-150213571D02*
X153044819Y-150308809D01*
X153044819Y-150308809D02*
X153044819Y-150546904D01*
X153044819Y-150546904D02*
X152997200Y-150642142D01*
X152997200Y-150642142D02*
X152949580Y-150689761D01*
%TO.C,C1*%
X117733333Y-61559580D02*
X117685714Y-61607200D01*
X117685714Y-61607200D02*
X117542857Y-61654819D01*
X117542857Y-61654819D02*
X117447619Y-61654819D01*
X117447619Y-61654819D02*
X117304762Y-61607200D01*
X117304762Y-61607200D02*
X117209524Y-61511961D01*
X117209524Y-61511961D02*
X117161905Y-61416723D01*
X117161905Y-61416723D02*
X117114286Y-61226247D01*
X117114286Y-61226247D02*
X117114286Y-61083390D01*
X117114286Y-61083390D02*
X117161905Y-60892914D01*
X117161905Y-60892914D02*
X117209524Y-60797676D01*
X117209524Y-60797676D02*
X117304762Y-60702438D01*
X117304762Y-60702438D02*
X117447619Y-60654819D01*
X117447619Y-60654819D02*
X117542857Y-60654819D01*
X117542857Y-60654819D02*
X117685714Y-60702438D01*
X117685714Y-60702438D02*
X117733333Y-60750057D01*
X118685714Y-61654819D02*
X118114286Y-61654819D01*
X118400000Y-61654819D02*
X118400000Y-60654819D01*
X118400000Y-60654819D02*
X118304762Y-60797676D01*
X118304762Y-60797676D02*
X118209524Y-60892914D01*
X118209524Y-60892914D02*
X118114286Y-60940533D01*
%TO.C,D3*%
X149961905Y-90854819D02*
X149961905Y-89854819D01*
X149961905Y-89854819D02*
X150200000Y-89854819D01*
X150200000Y-89854819D02*
X150342857Y-89902438D01*
X150342857Y-89902438D02*
X150438095Y-89997676D01*
X150438095Y-89997676D02*
X150485714Y-90092914D01*
X150485714Y-90092914D02*
X150533333Y-90283390D01*
X150533333Y-90283390D02*
X150533333Y-90426247D01*
X150533333Y-90426247D02*
X150485714Y-90616723D01*
X150485714Y-90616723D02*
X150438095Y-90711961D01*
X150438095Y-90711961D02*
X150342857Y-90807200D01*
X150342857Y-90807200D02*
X150200000Y-90854819D01*
X150200000Y-90854819D02*
X149961905Y-90854819D01*
X150866667Y-89854819D02*
X151485714Y-89854819D01*
X151485714Y-89854819D02*
X151152381Y-90235771D01*
X151152381Y-90235771D02*
X151295238Y-90235771D01*
X151295238Y-90235771D02*
X151390476Y-90283390D01*
X151390476Y-90283390D02*
X151438095Y-90331009D01*
X151438095Y-90331009D02*
X151485714Y-90426247D01*
X151485714Y-90426247D02*
X151485714Y-90664342D01*
X151485714Y-90664342D02*
X151438095Y-90759580D01*
X151438095Y-90759580D02*
X151390476Y-90807200D01*
X151390476Y-90807200D02*
X151295238Y-90854819D01*
X151295238Y-90854819D02*
X151009524Y-90854819D01*
X151009524Y-90854819D02*
X150914286Y-90807200D01*
X150914286Y-90807200D02*
X150866667Y-90759580D01*
X137328095Y-89104819D02*
X137328095Y-88104819D01*
X137899523Y-89104819D02*
X137470952Y-88533390D01*
X137899523Y-88104819D02*
X137328095Y-88676247D01*
%TO.C,R4*%
X143503333Y-68084819D02*
X143170000Y-67608628D01*
X142931905Y-68084819D02*
X142931905Y-67084819D01*
X142931905Y-67084819D02*
X143312857Y-67084819D01*
X143312857Y-67084819D02*
X143408095Y-67132438D01*
X143408095Y-67132438D02*
X143455714Y-67180057D01*
X143455714Y-67180057D02*
X143503333Y-67275295D01*
X143503333Y-67275295D02*
X143503333Y-67418152D01*
X143503333Y-67418152D02*
X143455714Y-67513390D01*
X143455714Y-67513390D02*
X143408095Y-67561009D01*
X143408095Y-67561009D02*
X143312857Y-67608628D01*
X143312857Y-67608628D02*
X142931905Y-67608628D01*
X144360476Y-67418152D02*
X144360476Y-68084819D01*
X144122381Y-67037200D02*
X143884286Y-67751485D01*
X143884286Y-67751485D02*
X144503333Y-67751485D01*
D11*
%TO.C,U2*%
X169649866Y-54553712D02*
X169649866Y-55273379D01*
X169649866Y-55273379D02*
X169692200Y-55358045D01*
X169692200Y-55358045D02*
X169734533Y-55400379D01*
X169734533Y-55400379D02*
X169819200Y-55442712D01*
X169819200Y-55442712D02*
X169988533Y-55442712D01*
X169988533Y-55442712D02*
X170073200Y-55400379D01*
X170073200Y-55400379D02*
X170115533Y-55358045D01*
X170115533Y-55358045D02*
X170157866Y-55273379D01*
X170157866Y-55273379D02*
X170157866Y-54553712D01*
X170538866Y-54638379D02*
X170581199Y-54596045D01*
X170581199Y-54596045D02*
X170665866Y-54553712D01*
X170665866Y-54553712D02*
X170877533Y-54553712D01*
X170877533Y-54553712D02*
X170962199Y-54596045D01*
X170962199Y-54596045D02*
X171004533Y-54638379D01*
X171004533Y-54638379D02*
X171046866Y-54723045D01*
X171046866Y-54723045D02*
X171046866Y-54807712D01*
X171046866Y-54807712D02*
X171004533Y-54934712D01*
X171004533Y-54934712D02*
X170496533Y-55442712D01*
X170496533Y-55442712D02*
X171046866Y-55442712D01*
X182934045Y-85125167D02*
X182976379Y-84998167D01*
X182976379Y-84998167D02*
X183018712Y-84955833D01*
X183018712Y-84955833D02*
X183103379Y-84913500D01*
X183103379Y-84913500D02*
X183230379Y-84913500D01*
X183230379Y-84913500D02*
X183315045Y-84955833D01*
X183315045Y-84955833D02*
X183357379Y-84998167D01*
X183357379Y-84998167D02*
X183399712Y-85082833D01*
X183399712Y-85082833D02*
X183399712Y-85421500D01*
X183399712Y-85421500D02*
X182510712Y-85421500D01*
X182510712Y-85421500D02*
X182510712Y-85125167D01*
X182510712Y-85125167D02*
X182553045Y-85040500D01*
X182553045Y-85040500D02*
X182595379Y-84998167D01*
X182595379Y-84998167D02*
X182680045Y-84955833D01*
X182680045Y-84955833D02*
X182764712Y-84955833D01*
X182764712Y-84955833D02*
X182849379Y-84998167D01*
X182849379Y-84998167D02*
X182891712Y-85040500D01*
X182891712Y-85040500D02*
X182934045Y-85125167D01*
X182934045Y-85125167D02*
X182934045Y-85421500D01*
X183399712Y-84405500D02*
X183357379Y-84490167D01*
X183357379Y-84490167D02*
X183272712Y-84532500D01*
X183272712Y-84532500D02*
X182510712Y-84532500D01*
X182807045Y-83685833D02*
X183399712Y-83685833D01*
X182807045Y-84066833D02*
X183272712Y-84066833D01*
X183272712Y-84066833D02*
X183357379Y-84024500D01*
X183357379Y-84024500D02*
X183399712Y-83939833D01*
X183399712Y-83939833D02*
X183399712Y-83812833D01*
X183399712Y-83812833D02*
X183357379Y-83728166D01*
X183357379Y-83728166D02*
X183315045Y-83685833D01*
X183357379Y-82923833D02*
X183399712Y-83008500D01*
X183399712Y-83008500D02*
X183399712Y-83177833D01*
X183399712Y-83177833D02*
X183357379Y-83262500D01*
X183357379Y-83262500D02*
X183272712Y-83304833D01*
X183272712Y-83304833D02*
X182934045Y-83304833D01*
X182934045Y-83304833D02*
X182849379Y-83262500D01*
X182849379Y-83262500D02*
X182807045Y-83177833D01*
X182807045Y-83177833D02*
X182807045Y-83008500D01*
X182807045Y-83008500D02*
X182849379Y-82923833D01*
X182849379Y-82923833D02*
X182934045Y-82881500D01*
X182934045Y-82881500D02*
X183018712Y-82881500D01*
X183018712Y-82881500D02*
X183103379Y-83304833D01*
X183399712Y-82500500D02*
X182510712Y-82500500D01*
X182510712Y-82500500D02*
X182510712Y-82161833D01*
X182510712Y-82161833D02*
X182553045Y-82077167D01*
X182553045Y-82077167D02*
X182595379Y-82034833D01*
X182595379Y-82034833D02*
X182680045Y-81992500D01*
X182680045Y-81992500D02*
X182807045Y-81992500D01*
X182807045Y-81992500D02*
X182891712Y-82034833D01*
X182891712Y-82034833D02*
X182934045Y-82077167D01*
X182934045Y-82077167D02*
X182976379Y-82161833D01*
X182976379Y-82161833D02*
X182976379Y-82500500D01*
X183399712Y-81611500D02*
X182807045Y-81611500D01*
X182510712Y-81611500D02*
X182553045Y-81653833D01*
X182553045Y-81653833D02*
X182595379Y-81611500D01*
X182595379Y-81611500D02*
X182553045Y-81569167D01*
X182553045Y-81569167D02*
X182510712Y-81611500D01*
X182510712Y-81611500D02*
X182595379Y-81611500D01*
X183399712Y-81061167D02*
X183357379Y-81145834D01*
X183357379Y-81145834D02*
X183272712Y-81188167D01*
X183272712Y-81188167D02*
X182510712Y-81188167D01*
X183399712Y-80595500D02*
X183357379Y-80680167D01*
X183357379Y-80680167D02*
X183272712Y-80722500D01*
X183272712Y-80722500D02*
X182510712Y-80722500D01*
X183484379Y-80468500D02*
X183484379Y-79791166D01*
X183357379Y-79621833D02*
X183399712Y-79494833D01*
X183399712Y-79494833D02*
X183399712Y-79283167D01*
X183399712Y-79283167D02*
X183357379Y-79198500D01*
X183357379Y-79198500D02*
X183315045Y-79156167D01*
X183315045Y-79156167D02*
X183230379Y-79113833D01*
X183230379Y-79113833D02*
X183145712Y-79113833D01*
X183145712Y-79113833D02*
X183061045Y-79156167D01*
X183061045Y-79156167D02*
X183018712Y-79198500D01*
X183018712Y-79198500D02*
X182976379Y-79283167D01*
X182976379Y-79283167D02*
X182934045Y-79452500D01*
X182934045Y-79452500D02*
X182891712Y-79537167D01*
X182891712Y-79537167D02*
X182849379Y-79579500D01*
X182849379Y-79579500D02*
X182764712Y-79621833D01*
X182764712Y-79621833D02*
X182680045Y-79621833D01*
X182680045Y-79621833D02*
X182595379Y-79579500D01*
X182595379Y-79579500D02*
X182553045Y-79537167D01*
X182553045Y-79537167D02*
X182510712Y-79452500D01*
X182510712Y-79452500D02*
X182510712Y-79240833D01*
X182510712Y-79240833D02*
X182553045Y-79113833D01*
X182510712Y-78859833D02*
X182510712Y-78351833D01*
X183399712Y-78605833D02*
X182510712Y-78605833D01*
X183399712Y-78055500D02*
X182510712Y-78055500D01*
X182510712Y-78055500D02*
X183145712Y-77759167D01*
X183145712Y-77759167D02*
X182510712Y-77462833D01*
X182510712Y-77462833D02*
X183399712Y-77462833D01*
X182510712Y-77124167D02*
X182510712Y-76573833D01*
X182510712Y-76573833D02*
X182849379Y-76870167D01*
X182849379Y-76870167D02*
X182849379Y-76743167D01*
X182849379Y-76743167D02*
X182891712Y-76658500D01*
X182891712Y-76658500D02*
X182934045Y-76616167D01*
X182934045Y-76616167D02*
X183018712Y-76573833D01*
X183018712Y-76573833D02*
X183230379Y-76573833D01*
X183230379Y-76573833D02*
X183315045Y-76616167D01*
X183315045Y-76616167D02*
X183357379Y-76658500D01*
X183357379Y-76658500D02*
X183399712Y-76743167D01*
X183399712Y-76743167D02*
X183399712Y-76997167D01*
X183399712Y-76997167D02*
X183357379Y-77081833D01*
X183357379Y-77081833D02*
X183315045Y-77124167D01*
X182595379Y-76235166D02*
X182553045Y-76192833D01*
X182553045Y-76192833D02*
X182510712Y-76108166D01*
X182510712Y-76108166D02*
X182510712Y-75896500D01*
X182510712Y-75896500D02*
X182553045Y-75811833D01*
X182553045Y-75811833D02*
X182595379Y-75769500D01*
X182595379Y-75769500D02*
X182680045Y-75727166D01*
X182680045Y-75727166D02*
X182764712Y-75727166D01*
X182764712Y-75727166D02*
X182891712Y-75769500D01*
X182891712Y-75769500D02*
X183399712Y-76277500D01*
X183399712Y-76277500D02*
X183399712Y-75727166D01*
X182934045Y-75049833D02*
X182934045Y-75346166D01*
X183399712Y-75346166D02*
X182510712Y-75346166D01*
X182510712Y-75346166D02*
X182510712Y-74922833D01*
X183399712Y-74118499D02*
X183399712Y-74626499D01*
X183399712Y-74372499D02*
X182510712Y-74372499D01*
X182510712Y-74372499D02*
X182637712Y-74457166D01*
X182637712Y-74457166D02*
X182722379Y-74541833D01*
X182722379Y-74541833D02*
X182764712Y-74626499D01*
X182510712Y-73568166D02*
X182510712Y-73483499D01*
X182510712Y-73483499D02*
X182553045Y-73398832D01*
X182553045Y-73398832D02*
X182595379Y-73356499D01*
X182595379Y-73356499D02*
X182680045Y-73314166D01*
X182680045Y-73314166D02*
X182849379Y-73271832D01*
X182849379Y-73271832D02*
X183061045Y-73271832D01*
X183061045Y-73271832D02*
X183230379Y-73314166D01*
X183230379Y-73314166D02*
X183315045Y-73356499D01*
X183315045Y-73356499D02*
X183357379Y-73398832D01*
X183357379Y-73398832D02*
X183399712Y-73483499D01*
X183399712Y-73483499D02*
X183399712Y-73568166D01*
X183399712Y-73568166D02*
X183357379Y-73652832D01*
X183357379Y-73652832D02*
X183315045Y-73695166D01*
X183315045Y-73695166D02*
X183230379Y-73737499D01*
X183230379Y-73737499D02*
X183061045Y-73779832D01*
X183061045Y-73779832D02*
X182849379Y-73779832D01*
X182849379Y-73779832D02*
X182680045Y-73737499D01*
X182680045Y-73737499D02*
X182595379Y-73695166D01*
X182595379Y-73695166D02*
X182553045Y-73652832D01*
X182553045Y-73652832D02*
X182510712Y-73568166D01*
X182510712Y-72975499D02*
X182510712Y-72425165D01*
X182510712Y-72425165D02*
X182849379Y-72721499D01*
X182849379Y-72721499D02*
X182849379Y-72594499D01*
X182849379Y-72594499D02*
X182891712Y-72509832D01*
X182891712Y-72509832D02*
X182934045Y-72467499D01*
X182934045Y-72467499D02*
X183018712Y-72425165D01*
X183018712Y-72425165D02*
X183230379Y-72425165D01*
X183230379Y-72425165D02*
X183315045Y-72467499D01*
X183315045Y-72467499D02*
X183357379Y-72509832D01*
X183357379Y-72509832D02*
X183399712Y-72594499D01*
X183399712Y-72594499D02*
X183399712Y-72848499D01*
X183399712Y-72848499D02*
X183357379Y-72933165D01*
X183357379Y-72933165D02*
X183315045Y-72975499D01*
X183315045Y-71536165D02*
X183357379Y-71578498D01*
X183357379Y-71578498D02*
X183399712Y-71705498D01*
X183399712Y-71705498D02*
X183399712Y-71790165D01*
X183399712Y-71790165D02*
X183357379Y-71917165D01*
X183357379Y-71917165D02*
X183272712Y-72001832D01*
X183272712Y-72001832D02*
X183188045Y-72044165D01*
X183188045Y-72044165D02*
X183018712Y-72086498D01*
X183018712Y-72086498D02*
X182891712Y-72086498D01*
X182891712Y-72086498D02*
X182722379Y-72044165D01*
X182722379Y-72044165D02*
X182637712Y-72001832D01*
X182637712Y-72001832D02*
X182553045Y-71917165D01*
X182553045Y-71917165D02*
X182510712Y-71790165D01*
X182510712Y-71790165D02*
X182510712Y-71705498D01*
X182510712Y-71705498D02*
X182553045Y-71578498D01*
X182553045Y-71578498D02*
X182595379Y-71536165D01*
D10*
%TO.C,R2*%
X120533333Y-73654819D02*
X120200000Y-73178628D01*
X119961905Y-73654819D02*
X119961905Y-72654819D01*
X119961905Y-72654819D02*
X120342857Y-72654819D01*
X120342857Y-72654819D02*
X120438095Y-72702438D01*
X120438095Y-72702438D02*
X120485714Y-72750057D01*
X120485714Y-72750057D02*
X120533333Y-72845295D01*
X120533333Y-72845295D02*
X120533333Y-72988152D01*
X120533333Y-72988152D02*
X120485714Y-73083390D01*
X120485714Y-73083390D02*
X120438095Y-73131009D01*
X120438095Y-73131009D02*
X120342857Y-73178628D01*
X120342857Y-73178628D02*
X119961905Y-73178628D01*
X120914286Y-72750057D02*
X120961905Y-72702438D01*
X120961905Y-72702438D02*
X121057143Y-72654819D01*
X121057143Y-72654819D02*
X121295238Y-72654819D01*
X121295238Y-72654819D02*
X121390476Y-72702438D01*
X121390476Y-72702438D02*
X121438095Y-72750057D01*
X121438095Y-72750057D02*
X121485714Y-72845295D01*
X121485714Y-72845295D02*
X121485714Y-72940533D01*
X121485714Y-72940533D02*
X121438095Y-73083390D01*
X121438095Y-73083390D02*
X120866667Y-73654819D01*
X120866667Y-73654819D02*
X121485714Y-73654819D01*
%TO.C,D4*%
X149561905Y-86454819D02*
X149561905Y-85454819D01*
X149561905Y-85454819D02*
X149800000Y-85454819D01*
X149800000Y-85454819D02*
X149942857Y-85502438D01*
X149942857Y-85502438D02*
X150038095Y-85597676D01*
X150038095Y-85597676D02*
X150085714Y-85692914D01*
X150085714Y-85692914D02*
X150133333Y-85883390D01*
X150133333Y-85883390D02*
X150133333Y-86026247D01*
X150133333Y-86026247D02*
X150085714Y-86216723D01*
X150085714Y-86216723D02*
X150038095Y-86311961D01*
X150038095Y-86311961D02*
X149942857Y-86407200D01*
X149942857Y-86407200D02*
X149800000Y-86454819D01*
X149800000Y-86454819D02*
X149561905Y-86454819D01*
X150990476Y-85788152D02*
X150990476Y-86454819D01*
X150752381Y-85407200D02*
X150514286Y-86121485D01*
X150514286Y-86121485D02*
X151133333Y-86121485D01*
X147488095Y-89554819D02*
X147488095Y-88554819D01*
X148059523Y-89554819D02*
X147630952Y-88983390D01*
X148059523Y-88554819D02*
X147488095Y-89126247D01*
%TO.C,C4*%
X137833333Y-79559580D02*
X137785714Y-79607200D01*
X137785714Y-79607200D02*
X137642857Y-79654819D01*
X137642857Y-79654819D02*
X137547619Y-79654819D01*
X137547619Y-79654819D02*
X137404762Y-79607200D01*
X137404762Y-79607200D02*
X137309524Y-79511961D01*
X137309524Y-79511961D02*
X137261905Y-79416723D01*
X137261905Y-79416723D02*
X137214286Y-79226247D01*
X137214286Y-79226247D02*
X137214286Y-79083390D01*
X137214286Y-79083390D02*
X137261905Y-78892914D01*
X137261905Y-78892914D02*
X137309524Y-78797676D01*
X137309524Y-78797676D02*
X137404762Y-78702438D01*
X137404762Y-78702438D02*
X137547619Y-78654819D01*
X137547619Y-78654819D02*
X137642857Y-78654819D01*
X137642857Y-78654819D02*
X137785714Y-78702438D01*
X137785714Y-78702438D02*
X137833333Y-78750057D01*
X138690476Y-78988152D02*
X138690476Y-79654819D01*
X138452381Y-78607200D02*
X138214286Y-79321485D01*
X138214286Y-79321485D02*
X138833333Y-79321485D01*
%TO.C,D2*%
X128561905Y-83354819D02*
X128561905Y-82354819D01*
X128561905Y-82354819D02*
X128800000Y-82354819D01*
X128800000Y-82354819D02*
X128942857Y-82402438D01*
X128942857Y-82402438D02*
X129038095Y-82497676D01*
X129038095Y-82497676D02*
X129085714Y-82592914D01*
X129085714Y-82592914D02*
X129133333Y-82783390D01*
X129133333Y-82783390D02*
X129133333Y-82926247D01*
X129133333Y-82926247D02*
X129085714Y-83116723D01*
X129085714Y-83116723D02*
X129038095Y-83211961D01*
X129038095Y-83211961D02*
X128942857Y-83307200D01*
X128942857Y-83307200D02*
X128800000Y-83354819D01*
X128800000Y-83354819D02*
X128561905Y-83354819D01*
X129514286Y-82450057D02*
X129561905Y-82402438D01*
X129561905Y-82402438D02*
X129657143Y-82354819D01*
X129657143Y-82354819D02*
X129895238Y-82354819D01*
X129895238Y-82354819D02*
X129990476Y-82402438D01*
X129990476Y-82402438D02*
X130038095Y-82450057D01*
X130038095Y-82450057D02*
X130085714Y-82545295D01*
X130085714Y-82545295D02*
X130085714Y-82640533D01*
X130085714Y-82640533D02*
X130038095Y-82783390D01*
X130038095Y-82783390D02*
X129466667Y-83354819D01*
X129466667Y-83354819D02*
X130085714Y-83354819D01*
X116328095Y-82604819D02*
X116328095Y-81604819D01*
X116899523Y-82604819D02*
X116470952Y-82033390D01*
X116899523Y-81604819D02*
X116328095Y-82176247D01*
%TO.C,C3*%
X141033333Y-61359580D02*
X140985714Y-61407200D01*
X140985714Y-61407200D02*
X140842857Y-61454819D01*
X140842857Y-61454819D02*
X140747619Y-61454819D01*
X140747619Y-61454819D02*
X140604762Y-61407200D01*
X140604762Y-61407200D02*
X140509524Y-61311961D01*
X140509524Y-61311961D02*
X140461905Y-61216723D01*
X140461905Y-61216723D02*
X140414286Y-61026247D01*
X140414286Y-61026247D02*
X140414286Y-60883390D01*
X140414286Y-60883390D02*
X140461905Y-60692914D01*
X140461905Y-60692914D02*
X140509524Y-60597676D01*
X140509524Y-60597676D02*
X140604762Y-60502438D01*
X140604762Y-60502438D02*
X140747619Y-60454819D01*
X140747619Y-60454819D02*
X140842857Y-60454819D01*
X140842857Y-60454819D02*
X140985714Y-60502438D01*
X140985714Y-60502438D02*
X141033333Y-60550057D01*
X141366667Y-60454819D02*
X141985714Y-60454819D01*
X141985714Y-60454819D02*
X141652381Y-60835771D01*
X141652381Y-60835771D02*
X141795238Y-60835771D01*
X141795238Y-60835771D02*
X141890476Y-60883390D01*
X141890476Y-60883390D02*
X141938095Y-60931009D01*
X141938095Y-60931009D02*
X141985714Y-61026247D01*
X141985714Y-61026247D02*
X141985714Y-61264342D01*
X141985714Y-61264342D02*
X141938095Y-61359580D01*
X141938095Y-61359580D02*
X141890476Y-61407200D01*
X141890476Y-61407200D02*
X141795238Y-61454819D01*
X141795238Y-61454819D02*
X141509524Y-61454819D01*
X141509524Y-61454819D02*
X141414286Y-61407200D01*
X141414286Y-61407200D02*
X141366667Y-61359580D01*
%TO.C,J2*%
X106346666Y-54274819D02*
X106346666Y-54989104D01*
X106346666Y-54989104D02*
X106299047Y-55131961D01*
X106299047Y-55131961D02*
X106203809Y-55227200D01*
X106203809Y-55227200D02*
X106060952Y-55274819D01*
X106060952Y-55274819D02*
X105965714Y-55274819D01*
X106775238Y-54370057D02*
X106822857Y-54322438D01*
X106822857Y-54322438D02*
X106918095Y-54274819D01*
X106918095Y-54274819D02*
X107156190Y-54274819D01*
X107156190Y-54274819D02*
X107251428Y-54322438D01*
X107251428Y-54322438D02*
X107299047Y-54370057D01*
X107299047Y-54370057D02*
X107346666Y-54465295D01*
X107346666Y-54465295D02*
X107346666Y-54560533D01*
X107346666Y-54560533D02*
X107299047Y-54703390D01*
X107299047Y-54703390D02*
X106727619Y-55274819D01*
X106727619Y-55274819D02*
X107346666Y-55274819D01*
%TO.C,J3*%
X106346666Y-78404819D02*
X106346666Y-79119104D01*
X106346666Y-79119104D02*
X106299047Y-79261961D01*
X106299047Y-79261961D02*
X106203809Y-79357200D01*
X106203809Y-79357200D02*
X106060952Y-79404819D01*
X106060952Y-79404819D02*
X105965714Y-79404819D01*
X106727619Y-78404819D02*
X107346666Y-78404819D01*
X107346666Y-78404819D02*
X107013333Y-78785771D01*
X107013333Y-78785771D02*
X107156190Y-78785771D01*
X107156190Y-78785771D02*
X107251428Y-78833390D01*
X107251428Y-78833390D02*
X107299047Y-78881009D01*
X107299047Y-78881009D02*
X107346666Y-78976247D01*
X107346666Y-78976247D02*
X107346666Y-79214342D01*
X107346666Y-79214342D02*
X107299047Y-79309580D01*
X107299047Y-79309580D02*
X107251428Y-79357200D01*
X107251428Y-79357200D02*
X107156190Y-79404819D01*
X107156190Y-79404819D02*
X106870476Y-79404819D01*
X106870476Y-79404819D02*
X106775238Y-79357200D01*
X106775238Y-79357200D02*
X106727619Y-79309580D01*
%TO.C,R3*%
X114133333Y-77854819D02*
X113800000Y-77378628D01*
X113561905Y-77854819D02*
X113561905Y-76854819D01*
X113561905Y-76854819D02*
X113942857Y-76854819D01*
X113942857Y-76854819D02*
X114038095Y-76902438D01*
X114038095Y-76902438D02*
X114085714Y-76950057D01*
X114085714Y-76950057D02*
X114133333Y-77045295D01*
X114133333Y-77045295D02*
X114133333Y-77188152D01*
X114133333Y-77188152D02*
X114085714Y-77283390D01*
X114085714Y-77283390D02*
X114038095Y-77331009D01*
X114038095Y-77331009D02*
X113942857Y-77378628D01*
X113942857Y-77378628D02*
X113561905Y-77378628D01*
X114466667Y-76854819D02*
X115085714Y-76854819D01*
X115085714Y-76854819D02*
X114752381Y-77235771D01*
X114752381Y-77235771D02*
X114895238Y-77235771D01*
X114895238Y-77235771D02*
X114990476Y-77283390D01*
X114990476Y-77283390D02*
X115038095Y-77331009D01*
X115038095Y-77331009D02*
X115085714Y-77426247D01*
X115085714Y-77426247D02*
X115085714Y-77664342D01*
X115085714Y-77664342D02*
X115038095Y-77759580D01*
X115038095Y-77759580D02*
X114990476Y-77807200D01*
X114990476Y-77807200D02*
X114895238Y-77854819D01*
X114895238Y-77854819D02*
X114609524Y-77854819D01*
X114609524Y-77854819D02*
X114514286Y-77807200D01*
X114514286Y-77807200D02*
X114466667Y-77759580D01*
%TO.C,D1*%
X128861905Y-87054819D02*
X128861905Y-86054819D01*
X128861905Y-86054819D02*
X129100000Y-86054819D01*
X129100000Y-86054819D02*
X129242857Y-86102438D01*
X129242857Y-86102438D02*
X129338095Y-86197676D01*
X129338095Y-86197676D02*
X129385714Y-86292914D01*
X129385714Y-86292914D02*
X129433333Y-86483390D01*
X129433333Y-86483390D02*
X129433333Y-86626247D01*
X129433333Y-86626247D02*
X129385714Y-86816723D01*
X129385714Y-86816723D02*
X129338095Y-86911961D01*
X129338095Y-86911961D02*
X129242857Y-87007200D01*
X129242857Y-87007200D02*
X129100000Y-87054819D01*
X129100000Y-87054819D02*
X128861905Y-87054819D01*
X130385714Y-87054819D02*
X129814286Y-87054819D01*
X130100000Y-87054819D02*
X130100000Y-86054819D01*
X130100000Y-86054819D02*
X130004762Y-86197676D01*
X130004762Y-86197676D02*
X129909524Y-86292914D01*
X129909524Y-86292914D02*
X129814286Y-86340533D01*
X126488095Y-90304819D02*
X126488095Y-89304819D01*
X127059523Y-90304819D02*
X126630952Y-89733390D01*
X127059523Y-89304819D02*
X126488095Y-89876247D01*
%TO.C,R8*%
X167354819Y-116966666D02*
X166878628Y-117299999D01*
X167354819Y-117538094D02*
X166354819Y-117538094D01*
X166354819Y-117538094D02*
X166354819Y-117157142D01*
X166354819Y-117157142D02*
X166402438Y-117061904D01*
X166402438Y-117061904D02*
X166450057Y-117014285D01*
X166450057Y-117014285D02*
X166545295Y-116966666D01*
X166545295Y-116966666D02*
X166688152Y-116966666D01*
X166688152Y-116966666D02*
X166783390Y-117014285D01*
X166783390Y-117014285D02*
X166831009Y-117061904D01*
X166831009Y-117061904D02*
X166878628Y-117157142D01*
X166878628Y-117157142D02*
X166878628Y-117538094D01*
X166783390Y-116395237D02*
X166735771Y-116490475D01*
X166735771Y-116490475D02*
X166688152Y-116538094D01*
X166688152Y-116538094D02*
X166592914Y-116585713D01*
X166592914Y-116585713D02*
X166545295Y-116585713D01*
X166545295Y-116585713D02*
X166450057Y-116538094D01*
X166450057Y-116538094D02*
X166402438Y-116490475D01*
X166402438Y-116490475D02*
X166354819Y-116395237D01*
X166354819Y-116395237D02*
X166354819Y-116204761D01*
X166354819Y-116204761D02*
X166402438Y-116109523D01*
X166402438Y-116109523D02*
X166450057Y-116061904D01*
X166450057Y-116061904D02*
X166545295Y-116014285D01*
X166545295Y-116014285D02*
X166592914Y-116014285D01*
X166592914Y-116014285D02*
X166688152Y-116061904D01*
X166688152Y-116061904D02*
X166735771Y-116109523D01*
X166735771Y-116109523D02*
X166783390Y-116204761D01*
X166783390Y-116204761D02*
X166783390Y-116395237D01*
X166783390Y-116395237D02*
X166831009Y-116490475D01*
X166831009Y-116490475D02*
X166878628Y-116538094D01*
X166878628Y-116538094D02*
X166973866Y-116585713D01*
X166973866Y-116585713D02*
X167164342Y-116585713D01*
X167164342Y-116585713D02*
X167259580Y-116538094D01*
X167259580Y-116538094D02*
X167307200Y-116490475D01*
X167307200Y-116490475D02*
X167354819Y-116395237D01*
X167354819Y-116395237D02*
X167354819Y-116204761D01*
X167354819Y-116204761D02*
X167307200Y-116109523D01*
X167307200Y-116109523D02*
X167259580Y-116061904D01*
X167259580Y-116061904D02*
X167164342Y-116014285D01*
X167164342Y-116014285D02*
X166973866Y-116014285D01*
X166973866Y-116014285D02*
X166878628Y-116061904D01*
X166878628Y-116061904D02*
X166831009Y-116109523D01*
X166831009Y-116109523D02*
X166783390Y-116204761D01*
%TO.C,R6*%
X150333333Y-77654819D02*
X150000000Y-77178628D01*
X149761905Y-77654819D02*
X149761905Y-76654819D01*
X149761905Y-76654819D02*
X150142857Y-76654819D01*
X150142857Y-76654819D02*
X150238095Y-76702438D01*
X150238095Y-76702438D02*
X150285714Y-76750057D01*
X150285714Y-76750057D02*
X150333333Y-76845295D01*
X150333333Y-76845295D02*
X150333333Y-76988152D01*
X150333333Y-76988152D02*
X150285714Y-77083390D01*
X150285714Y-77083390D02*
X150238095Y-77131009D01*
X150238095Y-77131009D02*
X150142857Y-77178628D01*
X150142857Y-77178628D02*
X149761905Y-77178628D01*
X151190476Y-76654819D02*
X151000000Y-76654819D01*
X151000000Y-76654819D02*
X150904762Y-76702438D01*
X150904762Y-76702438D02*
X150857143Y-76750057D01*
X150857143Y-76750057D02*
X150761905Y-76892914D01*
X150761905Y-76892914D02*
X150714286Y-77083390D01*
X150714286Y-77083390D02*
X150714286Y-77464342D01*
X150714286Y-77464342D02*
X150761905Y-77559580D01*
X150761905Y-77559580D02*
X150809524Y-77607200D01*
X150809524Y-77607200D02*
X150904762Y-77654819D01*
X150904762Y-77654819D02*
X151095238Y-77654819D01*
X151095238Y-77654819D02*
X151190476Y-77607200D01*
X151190476Y-77607200D02*
X151238095Y-77559580D01*
X151238095Y-77559580D02*
X151285714Y-77464342D01*
X151285714Y-77464342D02*
X151285714Y-77226247D01*
X151285714Y-77226247D02*
X151238095Y-77131009D01*
X151238095Y-77131009D02*
X151190476Y-77083390D01*
X151190476Y-77083390D02*
X151095238Y-77035771D01*
X151095238Y-77035771D02*
X150904762Y-77035771D01*
X150904762Y-77035771D02*
X150809524Y-77083390D01*
X150809524Y-77083390D02*
X150761905Y-77131009D01*
X150761905Y-77131009D02*
X150714286Y-77226247D01*
%TO.C,J1*%
X109401080Y-86466666D02*
X110186795Y-86466666D01*
X110186795Y-86466666D02*
X110343938Y-86519047D01*
X110343938Y-86519047D02*
X110448700Y-86623809D01*
X110448700Y-86623809D02*
X110501080Y-86780952D01*
X110501080Y-86780952D02*
X110501080Y-86885714D01*
X110501080Y-85366666D02*
X110501080Y-85995238D01*
X110501080Y-85680952D02*
X109401080Y-85680952D01*
X109401080Y-85680952D02*
X109558223Y-85785714D01*
X109558223Y-85785714D02*
X109662985Y-85890476D01*
X109662985Y-85890476D02*
X109715366Y-85995238D01*
%TO.C,R1*%
X115233333Y-65654819D02*
X114900000Y-65178628D01*
X114661905Y-65654819D02*
X114661905Y-64654819D01*
X114661905Y-64654819D02*
X115042857Y-64654819D01*
X115042857Y-64654819D02*
X115138095Y-64702438D01*
X115138095Y-64702438D02*
X115185714Y-64750057D01*
X115185714Y-64750057D02*
X115233333Y-64845295D01*
X115233333Y-64845295D02*
X115233333Y-64988152D01*
X115233333Y-64988152D02*
X115185714Y-65083390D01*
X115185714Y-65083390D02*
X115138095Y-65131009D01*
X115138095Y-65131009D02*
X115042857Y-65178628D01*
X115042857Y-65178628D02*
X114661905Y-65178628D01*
X116185714Y-65654819D02*
X115614286Y-65654819D01*
X115900000Y-65654819D02*
X115900000Y-64654819D01*
X115900000Y-64654819D02*
X115804762Y-64797676D01*
X115804762Y-64797676D02*
X115709524Y-64892914D01*
X115709524Y-64892914D02*
X115614286Y-64940533D01*
%TO.C,R7*%
X177424819Y-113476666D02*
X176948628Y-113809999D01*
X177424819Y-114048094D02*
X176424819Y-114048094D01*
X176424819Y-114048094D02*
X176424819Y-113667142D01*
X176424819Y-113667142D02*
X176472438Y-113571904D01*
X176472438Y-113571904D02*
X176520057Y-113524285D01*
X176520057Y-113524285D02*
X176615295Y-113476666D01*
X176615295Y-113476666D02*
X176758152Y-113476666D01*
X176758152Y-113476666D02*
X176853390Y-113524285D01*
X176853390Y-113524285D02*
X176901009Y-113571904D01*
X176901009Y-113571904D02*
X176948628Y-113667142D01*
X176948628Y-113667142D02*
X176948628Y-114048094D01*
X176424819Y-113143332D02*
X176424819Y-112476666D01*
X176424819Y-112476666D02*
X177424819Y-112905237D01*
%TO.C,R5*%
X137833333Y-75954819D02*
X137500000Y-75478628D01*
X137261905Y-75954819D02*
X137261905Y-74954819D01*
X137261905Y-74954819D02*
X137642857Y-74954819D01*
X137642857Y-74954819D02*
X137738095Y-75002438D01*
X137738095Y-75002438D02*
X137785714Y-75050057D01*
X137785714Y-75050057D02*
X137833333Y-75145295D01*
X137833333Y-75145295D02*
X137833333Y-75288152D01*
X137833333Y-75288152D02*
X137785714Y-75383390D01*
X137785714Y-75383390D02*
X137738095Y-75431009D01*
X137738095Y-75431009D02*
X137642857Y-75478628D01*
X137642857Y-75478628D02*
X137261905Y-75478628D01*
X138738095Y-74954819D02*
X138261905Y-74954819D01*
X138261905Y-74954819D02*
X138214286Y-75431009D01*
X138214286Y-75431009D02*
X138261905Y-75383390D01*
X138261905Y-75383390D02*
X138357143Y-75335771D01*
X138357143Y-75335771D02*
X138595238Y-75335771D01*
X138595238Y-75335771D02*
X138690476Y-75383390D01*
X138690476Y-75383390D02*
X138738095Y-75431009D01*
X138738095Y-75431009D02*
X138785714Y-75526247D01*
X138785714Y-75526247D02*
X138785714Y-75764342D01*
X138785714Y-75764342D02*
X138738095Y-75859580D01*
X138738095Y-75859580D02*
X138690476Y-75907200D01*
X138690476Y-75907200D02*
X138595238Y-75954819D01*
X138595238Y-75954819D02*
X138357143Y-75954819D01*
X138357143Y-75954819D02*
X138261905Y-75907200D01*
X138261905Y-75907200D02*
X138214286Y-75859580D01*
D11*
%TO.C,U3*%
X125745466Y-147397712D02*
X125745466Y-148117379D01*
X125745466Y-148117379D02*
X125787800Y-148202045D01*
X125787800Y-148202045D02*
X125830133Y-148244379D01*
X125830133Y-148244379D02*
X125914800Y-148286712D01*
X125914800Y-148286712D02*
X126084133Y-148286712D01*
X126084133Y-148286712D02*
X126168800Y-148244379D01*
X126168800Y-148244379D02*
X126211133Y-148202045D01*
X126211133Y-148202045D02*
X126253466Y-148117379D01*
X126253466Y-148117379D02*
X126253466Y-147397712D01*
X126592133Y-147397712D02*
X127142466Y-147397712D01*
X127142466Y-147397712D02*
X126846133Y-147736379D01*
X126846133Y-147736379D02*
X126973133Y-147736379D01*
X126973133Y-147736379D02*
X127057799Y-147778712D01*
X127057799Y-147778712D02*
X127100133Y-147821045D01*
X127100133Y-147821045D02*
X127142466Y-147905712D01*
X127142466Y-147905712D02*
X127142466Y-148117379D01*
X127142466Y-148117379D02*
X127100133Y-148202045D01*
X127100133Y-148202045D02*
X127057799Y-148244379D01*
X127057799Y-148244379D02*
X126973133Y-148286712D01*
X126973133Y-148286712D02*
X126719133Y-148286712D01*
X126719133Y-148286712D02*
X126634466Y-148244379D01*
X126634466Y-148244379D02*
X126592133Y-148202045D01*
X113734045Y-125425167D02*
X113776379Y-125298167D01*
X113776379Y-125298167D02*
X113818712Y-125255833D01*
X113818712Y-125255833D02*
X113903379Y-125213500D01*
X113903379Y-125213500D02*
X114030379Y-125213500D01*
X114030379Y-125213500D02*
X114115045Y-125255833D01*
X114115045Y-125255833D02*
X114157379Y-125298167D01*
X114157379Y-125298167D02*
X114199712Y-125382833D01*
X114199712Y-125382833D02*
X114199712Y-125721500D01*
X114199712Y-125721500D02*
X113310712Y-125721500D01*
X113310712Y-125721500D02*
X113310712Y-125425167D01*
X113310712Y-125425167D02*
X113353045Y-125340500D01*
X113353045Y-125340500D02*
X113395379Y-125298167D01*
X113395379Y-125298167D02*
X113480045Y-125255833D01*
X113480045Y-125255833D02*
X113564712Y-125255833D01*
X113564712Y-125255833D02*
X113649379Y-125298167D01*
X113649379Y-125298167D02*
X113691712Y-125340500D01*
X113691712Y-125340500D02*
X113734045Y-125425167D01*
X113734045Y-125425167D02*
X113734045Y-125721500D01*
X114199712Y-124705500D02*
X114157379Y-124790167D01*
X114157379Y-124790167D02*
X114072712Y-124832500D01*
X114072712Y-124832500D02*
X113310712Y-124832500D01*
X113607045Y-123985833D02*
X114199712Y-123985833D01*
X113607045Y-124366833D02*
X114072712Y-124366833D01*
X114072712Y-124366833D02*
X114157379Y-124324500D01*
X114157379Y-124324500D02*
X114199712Y-124239833D01*
X114199712Y-124239833D02*
X114199712Y-124112833D01*
X114199712Y-124112833D02*
X114157379Y-124028166D01*
X114157379Y-124028166D02*
X114115045Y-123985833D01*
X114157379Y-123223833D02*
X114199712Y-123308500D01*
X114199712Y-123308500D02*
X114199712Y-123477833D01*
X114199712Y-123477833D02*
X114157379Y-123562500D01*
X114157379Y-123562500D02*
X114072712Y-123604833D01*
X114072712Y-123604833D02*
X113734045Y-123604833D01*
X113734045Y-123604833D02*
X113649379Y-123562500D01*
X113649379Y-123562500D02*
X113607045Y-123477833D01*
X113607045Y-123477833D02*
X113607045Y-123308500D01*
X113607045Y-123308500D02*
X113649379Y-123223833D01*
X113649379Y-123223833D02*
X113734045Y-123181500D01*
X113734045Y-123181500D02*
X113818712Y-123181500D01*
X113818712Y-123181500D02*
X113903379Y-123604833D01*
X114199712Y-122800500D02*
X113310712Y-122800500D01*
X113310712Y-122800500D02*
X113310712Y-122461833D01*
X113310712Y-122461833D02*
X113353045Y-122377167D01*
X113353045Y-122377167D02*
X113395379Y-122334833D01*
X113395379Y-122334833D02*
X113480045Y-122292500D01*
X113480045Y-122292500D02*
X113607045Y-122292500D01*
X113607045Y-122292500D02*
X113691712Y-122334833D01*
X113691712Y-122334833D02*
X113734045Y-122377167D01*
X113734045Y-122377167D02*
X113776379Y-122461833D01*
X113776379Y-122461833D02*
X113776379Y-122800500D01*
X114199712Y-121911500D02*
X113607045Y-121911500D01*
X113310712Y-121911500D02*
X113353045Y-121953833D01*
X113353045Y-121953833D02*
X113395379Y-121911500D01*
X113395379Y-121911500D02*
X113353045Y-121869167D01*
X113353045Y-121869167D02*
X113310712Y-121911500D01*
X113310712Y-121911500D02*
X113395379Y-121911500D01*
X114199712Y-121361167D02*
X114157379Y-121445834D01*
X114157379Y-121445834D02*
X114072712Y-121488167D01*
X114072712Y-121488167D02*
X113310712Y-121488167D01*
X114199712Y-120895500D02*
X114157379Y-120980167D01*
X114157379Y-120980167D02*
X114072712Y-121022500D01*
X114072712Y-121022500D02*
X113310712Y-121022500D01*
X114284379Y-120768500D02*
X114284379Y-120091166D01*
X114157379Y-119921833D02*
X114199712Y-119794833D01*
X114199712Y-119794833D02*
X114199712Y-119583167D01*
X114199712Y-119583167D02*
X114157379Y-119498500D01*
X114157379Y-119498500D02*
X114115045Y-119456167D01*
X114115045Y-119456167D02*
X114030379Y-119413833D01*
X114030379Y-119413833D02*
X113945712Y-119413833D01*
X113945712Y-119413833D02*
X113861045Y-119456167D01*
X113861045Y-119456167D02*
X113818712Y-119498500D01*
X113818712Y-119498500D02*
X113776379Y-119583167D01*
X113776379Y-119583167D02*
X113734045Y-119752500D01*
X113734045Y-119752500D02*
X113691712Y-119837167D01*
X113691712Y-119837167D02*
X113649379Y-119879500D01*
X113649379Y-119879500D02*
X113564712Y-119921833D01*
X113564712Y-119921833D02*
X113480045Y-119921833D01*
X113480045Y-119921833D02*
X113395379Y-119879500D01*
X113395379Y-119879500D02*
X113353045Y-119837167D01*
X113353045Y-119837167D02*
X113310712Y-119752500D01*
X113310712Y-119752500D02*
X113310712Y-119540833D01*
X113310712Y-119540833D02*
X113353045Y-119413833D01*
X113310712Y-119159833D02*
X113310712Y-118651833D01*
X114199712Y-118905833D02*
X113310712Y-118905833D01*
X114199712Y-118355500D02*
X113310712Y-118355500D01*
X113310712Y-118355500D02*
X113945712Y-118059167D01*
X113945712Y-118059167D02*
X113310712Y-117762833D01*
X113310712Y-117762833D02*
X114199712Y-117762833D01*
X113310712Y-117424167D02*
X113310712Y-116873833D01*
X113310712Y-116873833D02*
X113649379Y-117170167D01*
X113649379Y-117170167D02*
X113649379Y-117043167D01*
X113649379Y-117043167D02*
X113691712Y-116958500D01*
X113691712Y-116958500D02*
X113734045Y-116916167D01*
X113734045Y-116916167D02*
X113818712Y-116873833D01*
X113818712Y-116873833D02*
X114030379Y-116873833D01*
X114030379Y-116873833D02*
X114115045Y-116916167D01*
X114115045Y-116916167D02*
X114157379Y-116958500D01*
X114157379Y-116958500D02*
X114199712Y-117043167D01*
X114199712Y-117043167D02*
X114199712Y-117297167D01*
X114199712Y-117297167D02*
X114157379Y-117381833D01*
X114157379Y-117381833D02*
X114115045Y-117424167D01*
X113395379Y-116535166D02*
X113353045Y-116492833D01*
X113353045Y-116492833D02*
X113310712Y-116408166D01*
X113310712Y-116408166D02*
X113310712Y-116196500D01*
X113310712Y-116196500D02*
X113353045Y-116111833D01*
X113353045Y-116111833D02*
X113395379Y-116069500D01*
X113395379Y-116069500D02*
X113480045Y-116027166D01*
X113480045Y-116027166D02*
X113564712Y-116027166D01*
X113564712Y-116027166D02*
X113691712Y-116069500D01*
X113691712Y-116069500D02*
X114199712Y-116577500D01*
X114199712Y-116577500D02*
X114199712Y-116027166D01*
X113734045Y-115349833D02*
X113734045Y-115646166D01*
X114199712Y-115646166D02*
X113310712Y-115646166D01*
X113310712Y-115646166D02*
X113310712Y-115222833D01*
X114199712Y-114418499D02*
X114199712Y-114926499D01*
X114199712Y-114672499D02*
X113310712Y-114672499D01*
X113310712Y-114672499D02*
X113437712Y-114757166D01*
X113437712Y-114757166D02*
X113522379Y-114841833D01*
X113522379Y-114841833D02*
X113564712Y-114926499D01*
X113310712Y-113868166D02*
X113310712Y-113783499D01*
X113310712Y-113783499D02*
X113353045Y-113698832D01*
X113353045Y-113698832D02*
X113395379Y-113656499D01*
X113395379Y-113656499D02*
X113480045Y-113614166D01*
X113480045Y-113614166D02*
X113649379Y-113571832D01*
X113649379Y-113571832D02*
X113861045Y-113571832D01*
X113861045Y-113571832D02*
X114030379Y-113614166D01*
X114030379Y-113614166D02*
X114115045Y-113656499D01*
X114115045Y-113656499D02*
X114157379Y-113698832D01*
X114157379Y-113698832D02*
X114199712Y-113783499D01*
X114199712Y-113783499D02*
X114199712Y-113868166D01*
X114199712Y-113868166D02*
X114157379Y-113952832D01*
X114157379Y-113952832D02*
X114115045Y-113995166D01*
X114115045Y-113995166D02*
X114030379Y-114037499D01*
X114030379Y-114037499D02*
X113861045Y-114079832D01*
X113861045Y-114079832D02*
X113649379Y-114079832D01*
X113649379Y-114079832D02*
X113480045Y-114037499D01*
X113480045Y-114037499D02*
X113395379Y-113995166D01*
X113395379Y-113995166D02*
X113353045Y-113952832D01*
X113353045Y-113952832D02*
X113310712Y-113868166D01*
X113310712Y-113275499D02*
X113310712Y-112725165D01*
X113310712Y-112725165D02*
X113649379Y-113021499D01*
X113649379Y-113021499D02*
X113649379Y-112894499D01*
X113649379Y-112894499D02*
X113691712Y-112809832D01*
X113691712Y-112809832D02*
X113734045Y-112767499D01*
X113734045Y-112767499D02*
X113818712Y-112725165D01*
X113818712Y-112725165D02*
X114030379Y-112725165D01*
X114030379Y-112725165D02*
X114115045Y-112767499D01*
X114115045Y-112767499D02*
X114157379Y-112809832D01*
X114157379Y-112809832D02*
X114199712Y-112894499D01*
X114199712Y-112894499D02*
X114199712Y-113148499D01*
X114199712Y-113148499D02*
X114157379Y-113233165D01*
X114157379Y-113233165D02*
X114115045Y-113275499D01*
X114115045Y-111836165D02*
X114157379Y-111878498D01*
X114157379Y-111878498D02*
X114199712Y-112005498D01*
X114199712Y-112005498D02*
X114199712Y-112090165D01*
X114199712Y-112090165D02*
X114157379Y-112217165D01*
X114157379Y-112217165D02*
X114072712Y-112301832D01*
X114072712Y-112301832D02*
X113988045Y-112344165D01*
X113988045Y-112344165D02*
X113818712Y-112386498D01*
X113818712Y-112386498D02*
X113691712Y-112386498D01*
X113691712Y-112386498D02*
X113522379Y-112344165D01*
X113522379Y-112344165D02*
X113437712Y-112301832D01*
X113437712Y-112301832D02*
X113353045Y-112217165D01*
X113353045Y-112217165D02*
X113310712Y-112090165D01*
X113310712Y-112090165D02*
X113310712Y-112005498D01*
X113310712Y-112005498D02*
X113353045Y-111878498D01*
X113353045Y-111878498D02*
X113395379Y-111836165D01*
D10*
%TO.C,C2*%
X125333333Y-78359580D02*
X125285714Y-78407200D01*
X125285714Y-78407200D02*
X125142857Y-78454819D01*
X125142857Y-78454819D02*
X125047619Y-78454819D01*
X125047619Y-78454819D02*
X124904762Y-78407200D01*
X124904762Y-78407200D02*
X124809524Y-78311961D01*
X124809524Y-78311961D02*
X124761905Y-78216723D01*
X124761905Y-78216723D02*
X124714286Y-78026247D01*
X124714286Y-78026247D02*
X124714286Y-77883390D01*
X124714286Y-77883390D02*
X124761905Y-77692914D01*
X124761905Y-77692914D02*
X124809524Y-77597676D01*
X124809524Y-77597676D02*
X124904762Y-77502438D01*
X124904762Y-77502438D02*
X125047619Y-77454819D01*
X125047619Y-77454819D02*
X125142857Y-77454819D01*
X125142857Y-77454819D02*
X125285714Y-77502438D01*
X125285714Y-77502438D02*
X125333333Y-77550057D01*
X125714286Y-77550057D02*
X125761905Y-77502438D01*
X125761905Y-77502438D02*
X125857143Y-77454819D01*
X125857143Y-77454819D02*
X126095238Y-77454819D01*
X126095238Y-77454819D02*
X126190476Y-77502438D01*
X126190476Y-77502438D02*
X126238095Y-77550057D01*
X126238095Y-77550057D02*
X126285714Y-77645295D01*
X126285714Y-77645295D02*
X126285714Y-77740533D01*
X126285714Y-77740533D02*
X126238095Y-77883390D01*
X126238095Y-77883390D02*
X125666667Y-78454819D01*
X125666667Y-78454819D02*
X126285714Y-78454819D01*
D12*
%TO.C,Brd1*%
X154000000Y-144900000D02*
X181400000Y-144900000D01*
X154000000Y-172200000D02*
X154000000Y-144900000D01*
X154422000Y-148195000D02*
X177522000Y-148195000D01*
X154422000Y-164795000D02*
X154422000Y-148195000D01*
X162701000Y-145389000D02*
X162701000Y-147802000D01*
X162701000Y-145389000D02*
X172480000Y-145389000D01*
X172480000Y-145389000D02*
X172480000Y-147802000D01*
X172480000Y-147802000D02*
X162701000Y-147802000D01*
X177522000Y-148195000D02*
X180608000Y-148195000D01*
X177522000Y-164795000D02*
X154422000Y-164795000D01*
X177522000Y-164795000D02*
X180862000Y-164820000D01*
X180862000Y-148183000D02*
X180608000Y-148195000D01*
X180862000Y-164820000D02*
X180862000Y-148183000D01*
X181400000Y-144900000D02*
X181400000Y-172200000D01*
X181400000Y-172200000D02*
X154000000Y-172200000D01*
%TO.C,J5*%
X151590000Y-145130000D02*
X151590000Y-146400000D01*
X150320000Y-145130000D02*
X151590000Y-145130000D01*
X148160000Y-147442929D02*
X148160000Y-147840000D01*
X147400000Y-147442929D02*
X147400000Y-147840000D01*
X145620000Y-147442929D02*
X145620000Y-147840000D01*
X144860000Y-147442929D02*
X144860000Y-147840000D01*
X143080000Y-147442929D02*
X143080000Y-147840000D01*
X142320000Y-147442929D02*
X142320000Y-147840000D01*
X150700000Y-147510000D02*
X150700000Y-147840000D01*
X149940000Y-147510000D02*
X149940000Y-147840000D01*
X151650000Y-147840000D02*
X141370000Y-147840000D01*
X149050000Y-147840000D02*
X149050000Y-150500000D01*
X146510000Y-147840000D02*
X146510000Y-150500000D01*
X143970000Y-147840000D02*
X143970000Y-150500000D01*
X141370000Y-147840000D02*
X141370000Y-150500000D01*
X151650000Y-150500000D02*
X151650000Y-147840000D01*
X150700000Y-150500000D02*
X150700000Y-156500000D01*
X150640000Y-150500000D02*
X150640000Y-156500000D01*
X150520000Y-150500000D02*
X150520000Y-156500000D01*
X150400000Y-150500000D02*
X150400000Y-156500000D01*
X150280000Y-150500000D02*
X150280000Y-156500000D01*
X150160000Y-150500000D02*
X150160000Y-156500000D01*
X150040000Y-150500000D02*
X150040000Y-156500000D01*
X148160000Y-150500000D02*
X148160000Y-156500000D01*
X145620000Y-150500000D02*
X145620000Y-156500000D01*
X143080000Y-150500000D02*
X143080000Y-156500000D01*
X141370000Y-150500000D02*
X151650000Y-150500000D01*
X150700000Y-156500000D02*
X149940000Y-156500000D01*
X149940000Y-156500000D02*
X149940000Y-150500000D01*
X148160000Y-156500000D02*
X147400000Y-156500000D01*
X147400000Y-156500000D02*
X147400000Y-150500000D01*
X145620000Y-156500000D02*
X144860000Y-156500000D01*
X144860000Y-156500000D02*
X144860000Y-150500000D01*
X143080000Y-156500000D02*
X142320000Y-156500000D01*
X142320000Y-156500000D02*
X142320000Y-150500000D01*
%TO.C,J12*%
X110420000Y-93920000D02*
X111750000Y-93920000D01*
X110420000Y-95250000D02*
X110420000Y-93920000D01*
X110420000Y-96520000D02*
X110420000Y-96580000D01*
X110420000Y-96520000D02*
X113080000Y-96520000D01*
X110420000Y-96580000D02*
X113080000Y-96580000D01*
X113080000Y-96520000D02*
X113080000Y-96580000D01*
%TO.C,C1*%
X119045225Y-61925000D02*
X119545225Y-61925000D01*
X119295225Y-61675000D02*
X119295225Y-62175000D01*
X121850000Y-60820000D02*
X121850000Y-65980000D01*
X121890000Y-60820000D02*
X121890000Y-65980000D01*
X121930000Y-60821000D02*
X121930000Y-65979000D01*
X121970000Y-60822000D02*
X121970000Y-65978000D01*
X122010000Y-60824000D02*
X122010000Y-65976000D01*
X122050000Y-60827000D02*
X122050000Y-65973000D01*
X122090000Y-60831000D02*
X122090000Y-62360000D01*
X122090000Y-64440000D02*
X122090000Y-65969000D01*
X122130000Y-60835000D02*
X122130000Y-62360000D01*
X122130000Y-64440000D02*
X122130000Y-65965000D01*
X122170000Y-60839000D02*
X122170000Y-62360000D01*
X122170000Y-64440000D02*
X122170000Y-65961000D01*
X122210000Y-60844000D02*
X122210000Y-62360000D01*
X122210000Y-64440000D02*
X122210000Y-65956000D01*
X122250000Y-60850000D02*
X122250000Y-62360000D01*
X122250000Y-64440000D02*
X122250000Y-65950000D01*
X122290000Y-60857000D02*
X122290000Y-62360000D01*
X122290000Y-64440000D02*
X122290000Y-65943000D01*
X122330000Y-60864000D02*
X122330000Y-62360000D01*
X122330000Y-64440000D02*
X122330000Y-65936000D01*
X122370000Y-60872000D02*
X122370000Y-62360000D01*
X122370000Y-64440000D02*
X122370000Y-65928000D01*
X122410000Y-60880000D02*
X122410000Y-62360000D01*
X122410000Y-64440000D02*
X122410000Y-65920000D01*
X122450000Y-60889000D02*
X122450000Y-62360000D01*
X122450000Y-64440000D02*
X122450000Y-65911000D01*
X122490000Y-60899000D02*
X122490000Y-62360000D01*
X122490000Y-64440000D02*
X122490000Y-65901000D01*
X122530000Y-60909000D02*
X122530000Y-62360000D01*
X122530000Y-64440000D02*
X122530000Y-65891000D01*
X122571000Y-60920000D02*
X122571000Y-62360000D01*
X122571000Y-64440000D02*
X122571000Y-65880000D01*
X122611000Y-60932000D02*
X122611000Y-62360000D01*
X122611000Y-64440000D02*
X122611000Y-65868000D01*
X122651000Y-60945000D02*
X122651000Y-62360000D01*
X122651000Y-64440000D02*
X122651000Y-65855000D01*
X122691000Y-60958000D02*
X122691000Y-62360000D01*
X122691000Y-64440000D02*
X122691000Y-65842000D01*
X122731000Y-60972000D02*
X122731000Y-62360000D01*
X122731000Y-64440000D02*
X122731000Y-65828000D01*
X122771000Y-60986000D02*
X122771000Y-62360000D01*
X122771000Y-64440000D02*
X122771000Y-65814000D01*
X122811000Y-61002000D02*
X122811000Y-62360000D01*
X122811000Y-64440000D02*
X122811000Y-65798000D01*
X122851000Y-61018000D02*
X122851000Y-62360000D01*
X122851000Y-64440000D02*
X122851000Y-65782000D01*
X122891000Y-61035000D02*
X122891000Y-62360000D01*
X122891000Y-64440000D02*
X122891000Y-65765000D01*
X122931000Y-61052000D02*
X122931000Y-62360000D01*
X122931000Y-64440000D02*
X122931000Y-65748000D01*
X122971000Y-61071000D02*
X122971000Y-62360000D01*
X122971000Y-64440000D02*
X122971000Y-65729000D01*
X123011000Y-61090000D02*
X123011000Y-62360000D01*
X123011000Y-64440000D02*
X123011000Y-65710000D01*
X123051000Y-61110000D02*
X123051000Y-62360000D01*
X123051000Y-64440000D02*
X123051000Y-65690000D01*
X123091000Y-61132000D02*
X123091000Y-62360000D01*
X123091000Y-64440000D02*
X123091000Y-65668000D01*
X123131000Y-61153000D02*
X123131000Y-62360000D01*
X123131000Y-64440000D02*
X123131000Y-65647000D01*
X123171000Y-61176000D02*
X123171000Y-62360000D01*
X123171000Y-64440000D02*
X123171000Y-65624000D01*
X123211000Y-61200000D02*
X123211000Y-62360000D01*
X123211000Y-64440000D02*
X123211000Y-65600000D01*
X123251000Y-61225000D02*
X123251000Y-62360000D01*
X123251000Y-64440000D02*
X123251000Y-65575000D01*
X123291000Y-61251000D02*
X123291000Y-62360000D01*
X123291000Y-64440000D02*
X123291000Y-65549000D01*
X123331000Y-61278000D02*
X123331000Y-62360000D01*
X123331000Y-64440000D02*
X123331000Y-65522000D01*
X123371000Y-61305000D02*
X123371000Y-62360000D01*
X123371000Y-64440000D02*
X123371000Y-65495000D01*
X123411000Y-61335000D02*
X123411000Y-62360000D01*
X123411000Y-64440000D02*
X123411000Y-65465000D01*
X123451000Y-61365000D02*
X123451000Y-62360000D01*
X123451000Y-64440000D02*
X123451000Y-65435000D01*
X123491000Y-61396000D02*
X123491000Y-62360000D01*
X123491000Y-64440000D02*
X123491000Y-65404000D01*
X123531000Y-61429000D02*
X123531000Y-62360000D01*
X123531000Y-64440000D02*
X123531000Y-65371000D01*
X123571000Y-61463000D02*
X123571000Y-62360000D01*
X123571000Y-64440000D02*
X123571000Y-65337000D01*
X123611000Y-61499000D02*
X123611000Y-62360000D01*
X123611000Y-64440000D02*
X123611000Y-65301000D01*
X123651000Y-61536000D02*
X123651000Y-62360000D01*
X123651000Y-64440000D02*
X123651000Y-65264000D01*
X123691000Y-61574000D02*
X123691000Y-62360000D01*
X123691000Y-64440000D02*
X123691000Y-65226000D01*
X123731000Y-61615000D02*
X123731000Y-62360000D01*
X123731000Y-64440000D02*
X123731000Y-65185000D01*
X123771000Y-61657000D02*
X123771000Y-62360000D01*
X123771000Y-64440000D02*
X123771000Y-65143000D01*
X123811000Y-61701000D02*
X123811000Y-62360000D01*
X123811000Y-64440000D02*
X123811000Y-65099000D01*
X123851000Y-61747000D02*
X123851000Y-62360000D01*
X123851000Y-64440000D02*
X123851000Y-65053000D01*
X123891000Y-61795000D02*
X123891000Y-62360000D01*
X123891000Y-64440000D02*
X123891000Y-65005000D01*
X123931000Y-61846000D02*
X123931000Y-62360000D01*
X123931000Y-64440000D02*
X123931000Y-64954000D01*
X123971000Y-61900000D02*
X123971000Y-62360000D01*
X123971000Y-64440000D02*
X123971000Y-64900000D01*
X124011000Y-61957000D02*
X124011000Y-62360000D01*
X124011000Y-64440000D02*
X124011000Y-64843000D01*
X124051000Y-62017000D02*
X124051000Y-62360000D01*
X124051000Y-64440000D02*
X124051000Y-64783000D01*
X124091000Y-62081000D02*
X124091000Y-62360000D01*
X124091000Y-64440000D02*
X124091000Y-64719000D01*
X124131000Y-62149000D02*
X124131000Y-62360000D01*
X124131000Y-64440000D02*
X124131000Y-64651000D01*
X124171000Y-62222000D02*
X124171000Y-64578000D01*
X124211000Y-62302000D02*
X124211000Y-64498000D01*
X124251000Y-62389000D02*
X124251000Y-64411000D01*
X124291000Y-62485000D02*
X124291000Y-64315000D01*
X124331000Y-62595000D02*
X124331000Y-64205000D01*
X124371000Y-62723000D02*
X124371000Y-64077000D01*
X124411000Y-62882000D02*
X124411000Y-63918000D01*
X124451000Y-63116000D02*
X124451000Y-63684000D01*
X124470000Y-63400000D02*
G75*
G03*
X124470000Y-63400000I-2620000J0D01*
G01*
%TO.C,D3*%
X138930000Y-90750000D02*
X139950000Y-90750000D01*
X139950000Y-89280000D02*
X139950000Y-92220000D01*
X139950000Y-92220000D02*
X145390000Y-92220000D01*
X140730000Y-89280000D02*
X140730000Y-92220000D01*
X140850000Y-89280000D02*
X140850000Y-92220000D01*
X140970000Y-89280000D02*
X140970000Y-92220000D01*
X145390000Y-89280000D02*
X139950000Y-89280000D01*
X145390000Y-92220000D02*
X145390000Y-89280000D01*
X146410000Y-90750000D02*
X145390000Y-90750000D01*
%TO.C,J15*%
X111670000Y-135420000D02*
X113000000Y-135420000D01*
X111670000Y-136750000D02*
X111670000Y-135420000D01*
X111670000Y-138020000D02*
X111670000Y-138080000D01*
X111670000Y-138020000D02*
X114330000Y-138020000D01*
X111670000Y-138080000D02*
X114330000Y-138080000D01*
X114330000Y-138020000D02*
X114330000Y-138080000D01*
%TO.C,J13*%
X150170000Y-98170000D02*
X151500000Y-98170000D01*
X150170000Y-99500000D02*
X150170000Y-98170000D01*
X150170000Y-100770000D02*
X150170000Y-100830000D01*
X150170000Y-100770000D02*
X152830000Y-100770000D01*
X150170000Y-100830000D02*
X152830000Y-100830000D01*
X152830000Y-100770000D02*
X152830000Y-100830000D01*
%TO.C,R4*%
X140400000Y-68630000D02*
X146940000Y-68630000D01*
X140400000Y-68960000D02*
X140400000Y-68630000D01*
X140400000Y-71040000D02*
X140400000Y-71370000D01*
X140400000Y-71370000D02*
X146940000Y-71370000D01*
X146940000Y-68630000D02*
X146940000Y-68960000D01*
X146940000Y-71370000D02*
X146940000Y-71040000D01*
%TO.C,J4*%
X185360000Y-55820000D02*
X186690000Y-55820000D01*
X185360000Y-57150000D02*
X185360000Y-55820000D01*
X185360000Y-58420000D02*
X185360000Y-144840000D01*
X185360000Y-58420000D02*
X188020000Y-58420000D01*
X185360000Y-144840000D02*
X188020000Y-144840000D01*
X188020000Y-58420000D02*
X188020000Y-144840000D01*
D13*
%TO.C,U2*%
X181370000Y-107239200D02*
X158370000Y-107239200D01*
X181370000Y-53839200D02*
X181370000Y-107239200D01*
X158370000Y-107239200D02*
X158370000Y-53839200D01*
X158370000Y-53839200D02*
X181370000Y-53839200D01*
D12*
%TO.C,J17*%
X182170000Y-51920000D02*
X183500000Y-51920000D01*
X182170000Y-53250000D02*
X182170000Y-51920000D01*
X182170000Y-54520000D02*
X182170000Y-54580000D01*
X182170000Y-54520000D02*
X184830000Y-54520000D01*
X182170000Y-54580000D02*
X184830000Y-54580000D01*
X184830000Y-54520000D02*
X184830000Y-54580000D01*
%TO.C,J11*%
X149670000Y-70170000D02*
X151000000Y-70170000D01*
X149670000Y-71500000D02*
X149670000Y-70170000D01*
X149670000Y-72770000D02*
X149670000Y-72830000D01*
X149670000Y-72770000D02*
X152330000Y-72770000D01*
X149670000Y-72830000D02*
X152330000Y-72830000D01*
X152330000Y-72770000D02*
X152330000Y-72830000D01*
%TO.C,R2*%
X117460000Y-69630000D02*
X124000000Y-69630000D01*
X117460000Y-69960000D02*
X117460000Y-69630000D01*
X117460000Y-72040000D02*
X117460000Y-72370000D01*
X117460000Y-72370000D02*
X124000000Y-72370000D01*
X124000000Y-69630000D02*
X124000000Y-69960000D01*
X124000000Y-72370000D02*
X124000000Y-72040000D01*
%TO.C,J8*%
X112420000Y-68170000D02*
X113750000Y-68170000D01*
X112420000Y-69500000D02*
X112420000Y-68170000D01*
X112420000Y-70770000D02*
X112420000Y-70830000D01*
X112420000Y-70770000D02*
X115080000Y-70770000D01*
X112420000Y-70830000D02*
X115080000Y-70830000D01*
X115080000Y-70770000D02*
X115080000Y-70830000D01*
%TO.C,D4*%
X146410000Y-87000000D02*
X145390000Y-87000000D01*
X145390000Y-88470000D02*
X145390000Y-85530000D01*
X145390000Y-85530000D02*
X139950000Y-85530000D01*
X144610000Y-88470000D02*
X144610000Y-85530000D01*
X144490000Y-88470000D02*
X144490000Y-85530000D01*
X144370000Y-88470000D02*
X144370000Y-85530000D01*
X139950000Y-88470000D02*
X145390000Y-88470000D01*
X139950000Y-85530000D02*
X139950000Y-88470000D01*
X138930000Y-87000000D02*
X139950000Y-87000000D01*
%TO.C,C4*%
X144179887Y-82475000D02*
X143679887Y-82475000D01*
X143929887Y-82725000D02*
X143929887Y-82225000D01*
X141375112Y-83580000D02*
X141375112Y-78420000D01*
X141335112Y-83580000D02*
X141335112Y-78420000D01*
X141295112Y-83579000D02*
X141295112Y-78421000D01*
X141255112Y-83578000D02*
X141255112Y-78422000D01*
X141215112Y-83576000D02*
X141215112Y-78424000D01*
X141175112Y-83573000D02*
X141175112Y-78427000D01*
X141135112Y-83569000D02*
X141135112Y-82040000D01*
X141135112Y-79960000D02*
X141135112Y-78431000D01*
X141095112Y-83565000D02*
X141095112Y-82040000D01*
X141095112Y-79960000D02*
X141095112Y-78435000D01*
X141055112Y-83561000D02*
X141055112Y-82040000D01*
X141055112Y-79960000D02*
X141055112Y-78439000D01*
X141015112Y-83556000D02*
X141015112Y-82040000D01*
X141015112Y-79960000D02*
X141015112Y-78444000D01*
X140975112Y-83550000D02*
X140975112Y-82040000D01*
X140975112Y-79960000D02*
X140975112Y-78450000D01*
X140935112Y-83543000D02*
X140935112Y-82040000D01*
X140935112Y-79960000D02*
X140935112Y-78457000D01*
X140895112Y-83536000D02*
X140895112Y-82040000D01*
X140895112Y-79960000D02*
X140895112Y-78464000D01*
X140855112Y-83528000D02*
X140855112Y-82040000D01*
X140855112Y-79960000D02*
X140855112Y-78472000D01*
X140815112Y-83520000D02*
X140815112Y-82040000D01*
X140815112Y-79960000D02*
X140815112Y-78480000D01*
X140775112Y-83511000D02*
X140775112Y-82040000D01*
X140775112Y-79960000D02*
X140775112Y-78489000D01*
X140735112Y-83501000D02*
X140735112Y-82040000D01*
X140735112Y-79960000D02*
X140735112Y-78499000D01*
X140695112Y-83491000D02*
X140695112Y-82040000D01*
X140695112Y-79960000D02*
X140695112Y-78509000D01*
X140654112Y-83480000D02*
X140654112Y-82040000D01*
X140654112Y-79960000D02*
X140654112Y-78520000D01*
X140614112Y-83468000D02*
X140614112Y-82040000D01*
X140614112Y-79960000D02*
X140614112Y-78532000D01*
X140574112Y-83455000D02*
X140574112Y-82040000D01*
X140574112Y-79960000D02*
X140574112Y-78545000D01*
X140534112Y-83442000D02*
X140534112Y-82040000D01*
X140534112Y-79960000D02*
X140534112Y-78558000D01*
X140494112Y-83428000D02*
X140494112Y-82040000D01*
X140494112Y-79960000D02*
X140494112Y-78572000D01*
X140454112Y-83414000D02*
X140454112Y-82040000D01*
X140454112Y-79960000D02*
X140454112Y-78586000D01*
X140414112Y-83398000D02*
X140414112Y-82040000D01*
X140414112Y-79960000D02*
X140414112Y-78602000D01*
X140374112Y-83382000D02*
X140374112Y-82040000D01*
X140374112Y-79960000D02*
X140374112Y-78618000D01*
X140334112Y-83365000D02*
X140334112Y-82040000D01*
X140334112Y-79960000D02*
X140334112Y-78635000D01*
X140294112Y-83348000D02*
X140294112Y-82040000D01*
X140294112Y-79960000D02*
X140294112Y-78652000D01*
X140254112Y-83329000D02*
X140254112Y-82040000D01*
X140254112Y-79960000D02*
X140254112Y-78671000D01*
X140214112Y-83310000D02*
X140214112Y-82040000D01*
X140214112Y-79960000D02*
X140214112Y-78690000D01*
X140174112Y-83290000D02*
X140174112Y-82040000D01*
X140174112Y-79960000D02*
X140174112Y-78710000D01*
X140134112Y-83268000D02*
X140134112Y-82040000D01*
X140134112Y-79960000D02*
X140134112Y-78732000D01*
X140094112Y-83247000D02*
X140094112Y-82040000D01*
X140094112Y-79960000D02*
X140094112Y-78753000D01*
X140054112Y-83224000D02*
X140054112Y-82040000D01*
X140054112Y-79960000D02*
X140054112Y-78776000D01*
X140014112Y-83200000D02*
X140014112Y-82040000D01*
X140014112Y-79960000D02*
X140014112Y-78800000D01*
X139974112Y-83175000D02*
X139974112Y-82040000D01*
X139974112Y-79960000D02*
X139974112Y-78825000D01*
X139934112Y-83149000D02*
X139934112Y-82040000D01*
X139934112Y-79960000D02*
X139934112Y-78851000D01*
X139894112Y-83122000D02*
X139894112Y-82040000D01*
X139894112Y-79960000D02*
X139894112Y-78878000D01*
X139854112Y-83095000D02*
X139854112Y-82040000D01*
X139854112Y-79960000D02*
X139854112Y-78905000D01*
X139814112Y-83065000D02*
X139814112Y-82040000D01*
X139814112Y-79960000D02*
X139814112Y-78935000D01*
X139774112Y-83035000D02*
X139774112Y-82040000D01*
X139774112Y-79960000D02*
X139774112Y-78965000D01*
X139734112Y-83004000D02*
X139734112Y-82040000D01*
X139734112Y-79960000D02*
X139734112Y-78996000D01*
X139694112Y-82971000D02*
X139694112Y-82040000D01*
X139694112Y-79960000D02*
X139694112Y-79029000D01*
X139654112Y-82937000D02*
X139654112Y-82040000D01*
X139654112Y-79960000D02*
X139654112Y-79063000D01*
X139614112Y-82901000D02*
X139614112Y-82040000D01*
X139614112Y-79960000D02*
X139614112Y-79099000D01*
X139574112Y-82864000D02*
X139574112Y-82040000D01*
X139574112Y-79960000D02*
X139574112Y-79136000D01*
X139534112Y-82826000D02*
X139534112Y-82040000D01*
X139534112Y-79960000D02*
X139534112Y-79174000D01*
X139494112Y-82785000D02*
X139494112Y-82040000D01*
X139494112Y-79960000D02*
X139494112Y-79215000D01*
X139454112Y-82743000D02*
X139454112Y-82040000D01*
X139454112Y-79960000D02*
X139454112Y-79257000D01*
X139414112Y-82699000D02*
X139414112Y-82040000D01*
X139414112Y-79960000D02*
X139414112Y-79301000D01*
X139374112Y-82653000D02*
X139374112Y-82040000D01*
X139374112Y-79960000D02*
X139374112Y-79347000D01*
X139334112Y-82605000D02*
X139334112Y-82040000D01*
X139334112Y-79960000D02*
X139334112Y-79395000D01*
X139294112Y-82554000D02*
X139294112Y-82040000D01*
X139294112Y-79960000D02*
X139294112Y-79446000D01*
X139254112Y-82500000D02*
X139254112Y-82040000D01*
X139254112Y-79960000D02*
X139254112Y-79500000D01*
X139214112Y-82443000D02*
X139214112Y-82040000D01*
X139214112Y-79960000D02*
X139214112Y-79557000D01*
X139174112Y-82383000D02*
X139174112Y-82040000D01*
X139174112Y-79960000D02*
X139174112Y-79617000D01*
X139134112Y-82319000D02*
X139134112Y-82040000D01*
X139134112Y-79960000D02*
X139134112Y-79681000D01*
X139094112Y-82251000D02*
X139094112Y-82040000D01*
X139094112Y-79960000D02*
X139094112Y-79749000D01*
X139054112Y-82178000D02*
X139054112Y-79822000D01*
X139014112Y-82098000D02*
X139014112Y-79902000D01*
X138974112Y-82011000D02*
X138974112Y-79989000D01*
X138934112Y-81915000D02*
X138934112Y-80085000D01*
X138894112Y-81805000D02*
X138894112Y-80195000D01*
X138854112Y-81677000D02*
X138854112Y-80323000D01*
X138814112Y-81518000D02*
X138814112Y-80482000D01*
X138774112Y-81284000D02*
X138774112Y-80716000D01*
X143995112Y-81000000D02*
G75*
G03*
X143995112Y-81000000I-2620000J0D01*
G01*
%TO.C,J6*%
X189070000Y-146870000D02*
X189070000Y-148200000D01*
X187740000Y-146870000D02*
X189070000Y-146870000D01*
X186470000Y-146870000D02*
X183870000Y-146870000D01*
X186470000Y-146870000D02*
X186470000Y-149530000D01*
X183870000Y-146870000D02*
X183870000Y-149530000D01*
X186470000Y-149530000D02*
X183870000Y-149530000D01*
%TO.C,D2*%
X117930000Y-84250000D02*
X118950000Y-84250000D01*
X118950000Y-82780000D02*
X118950000Y-85720000D01*
X118950000Y-85720000D02*
X124390000Y-85720000D01*
X119730000Y-82780000D02*
X119730000Y-85720000D01*
X119850000Y-82780000D02*
X119850000Y-85720000D01*
X119970000Y-82780000D02*
X119970000Y-85720000D01*
X124390000Y-82780000D02*
X118950000Y-82780000D01*
X124390000Y-85720000D02*
X124390000Y-82780000D01*
X125410000Y-84250000D02*
X124390000Y-84250000D01*
%TO.C,C3*%
X143929888Y-65975000D02*
X143429888Y-65975000D01*
X143679888Y-66225000D02*
X143679888Y-65725000D01*
X141125113Y-67080000D02*
X141125113Y-61920000D01*
X141085113Y-67080000D02*
X141085113Y-61920000D01*
X141045113Y-67079000D02*
X141045113Y-61921000D01*
X141005113Y-67078000D02*
X141005113Y-61922000D01*
X140965113Y-67076000D02*
X140965113Y-61924000D01*
X140925113Y-67073000D02*
X140925113Y-61927000D01*
X140885113Y-67069000D02*
X140885113Y-65540000D01*
X140885113Y-63460000D02*
X140885113Y-61931000D01*
X140845113Y-67065000D02*
X140845113Y-65540000D01*
X140845113Y-63460000D02*
X140845113Y-61935000D01*
X140805113Y-67061000D02*
X140805113Y-65540000D01*
X140805113Y-63460000D02*
X140805113Y-61939000D01*
X140765113Y-67056000D02*
X140765113Y-65540000D01*
X140765113Y-63460000D02*
X140765113Y-61944000D01*
X140725113Y-67050000D02*
X140725113Y-65540000D01*
X140725113Y-63460000D02*
X140725113Y-61950000D01*
X140685113Y-67043000D02*
X140685113Y-65540000D01*
X140685113Y-63460000D02*
X140685113Y-61957000D01*
X140645113Y-67036000D02*
X140645113Y-65540000D01*
X140645113Y-63460000D02*
X140645113Y-61964000D01*
X140605113Y-67028000D02*
X140605113Y-65540000D01*
X140605113Y-63460000D02*
X140605113Y-61972000D01*
X140565113Y-67020000D02*
X140565113Y-65540000D01*
X140565113Y-63460000D02*
X140565113Y-61980000D01*
X140525113Y-67011000D02*
X140525113Y-65540000D01*
X140525113Y-63460000D02*
X140525113Y-61989000D01*
X140485113Y-67001000D02*
X140485113Y-65540000D01*
X140485113Y-63460000D02*
X140485113Y-61999000D01*
X140445113Y-66991000D02*
X140445113Y-65540000D01*
X140445113Y-63460000D02*
X140445113Y-62009000D01*
X140404113Y-66980000D02*
X140404113Y-65540000D01*
X140404113Y-63460000D02*
X140404113Y-62020000D01*
X140364113Y-66968000D02*
X140364113Y-65540000D01*
X140364113Y-63460000D02*
X140364113Y-62032000D01*
X140324113Y-66955000D02*
X140324113Y-65540000D01*
X140324113Y-63460000D02*
X140324113Y-62045000D01*
X140284113Y-66942000D02*
X140284113Y-65540000D01*
X140284113Y-63460000D02*
X140284113Y-62058000D01*
X140244113Y-66928000D02*
X140244113Y-65540000D01*
X140244113Y-63460000D02*
X140244113Y-62072000D01*
X140204113Y-66914000D02*
X140204113Y-65540000D01*
X140204113Y-63460000D02*
X140204113Y-62086000D01*
X140164113Y-66898000D02*
X140164113Y-65540000D01*
X140164113Y-63460000D02*
X140164113Y-62102000D01*
X140124113Y-66882000D02*
X140124113Y-65540000D01*
X140124113Y-63460000D02*
X140124113Y-62118000D01*
X140084113Y-66865000D02*
X140084113Y-65540000D01*
X140084113Y-63460000D02*
X140084113Y-62135000D01*
X140044113Y-66848000D02*
X140044113Y-65540000D01*
X140044113Y-63460000D02*
X140044113Y-62152000D01*
X140004113Y-66829000D02*
X140004113Y-65540000D01*
X140004113Y-63460000D02*
X140004113Y-62171000D01*
X139964113Y-66810000D02*
X139964113Y-65540000D01*
X139964113Y-63460000D02*
X139964113Y-62190000D01*
X139924113Y-66790000D02*
X139924113Y-65540000D01*
X139924113Y-63460000D02*
X139924113Y-62210000D01*
X139884113Y-66768000D02*
X139884113Y-65540000D01*
X139884113Y-63460000D02*
X139884113Y-62232000D01*
X139844113Y-66747000D02*
X139844113Y-65540000D01*
X139844113Y-63460000D02*
X139844113Y-62253000D01*
X139804113Y-66724000D02*
X139804113Y-65540000D01*
X139804113Y-63460000D02*
X139804113Y-62276000D01*
X139764113Y-66700000D02*
X139764113Y-65540000D01*
X139764113Y-63460000D02*
X139764113Y-62300000D01*
X139724113Y-66675000D02*
X139724113Y-65540000D01*
X139724113Y-63460000D02*
X139724113Y-62325000D01*
X139684113Y-66649000D02*
X139684113Y-65540000D01*
X139684113Y-63460000D02*
X139684113Y-62351000D01*
X139644113Y-66622000D02*
X139644113Y-65540000D01*
X139644113Y-63460000D02*
X139644113Y-62378000D01*
X139604113Y-66595000D02*
X139604113Y-65540000D01*
X139604113Y-63460000D02*
X139604113Y-62405000D01*
X139564113Y-66565000D02*
X139564113Y-65540000D01*
X139564113Y-63460000D02*
X139564113Y-62435000D01*
X139524113Y-66535000D02*
X139524113Y-65540000D01*
X139524113Y-63460000D02*
X139524113Y-62465000D01*
X139484113Y-66504000D02*
X139484113Y-65540000D01*
X139484113Y-63460000D02*
X139484113Y-62496000D01*
X139444113Y-66471000D02*
X139444113Y-65540000D01*
X139444113Y-63460000D02*
X139444113Y-62529000D01*
X139404113Y-66437000D02*
X139404113Y-65540000D01*
X139404113Y-63460000D02*
X139404113Y-62563000D01*
X139364113Y-66401000D02*
X139364113Y-65540000D01*
X139364113Y-63460000D02*
X139364113Y-62599000D01*
X139324113Y-66364000D02*
X139324113Y-65540000D01*
X139324113Y-63460000D02*
X139324113Y-62636000D01*
X139284113Y-66326000D02*
X139284113Y-65540000D01*
X139284113Y-63460000D02*
X139284113Y-62674000D01*
X139244113Y-66285000D02*
X139244113Y-65540000D01*
X139244113Y-63460000D02*
X139244113Y-62715000D01*
X139204113Y-66243000D02*
X139204113Y-65540000D01*
X139204113Y-63460000D02*
X139204113Y-62757000D01*
X139164113Y-66199000D02*
X139164113Y-65540000D01*
X139164113Y-63460000D02*
X139164113Y-62801000D01*
X139124113Y-66153000D02*
X139124113Y-65540000D01*
X139124113Y-63460000D02*
X139124113Y-62847000D01*
X139084113Y-66105000D02*
X139084113Y-65540000D01*
X139084113Y-63460000D02*
X139084113Y-62895000D01*
X139044113Y-66054000D02*
X139044113Y-65540000D01*
X139044113Y-63460000D02*
X139044113Y-62946000D01*
X139004113Y-66000000D02*
X139004113Y-65540000D01*
X139004113Y-63460000D02*
X139004113Y-63000000D01*
X138964113Y-65943000D02*
X138964113Y-65540000D01*
X138964113Y-63460000D02*
X138964113Y-63057000D01*
X138924113Y-65883000D02*
X138924113Y-65540000D01*
X138924113Y-63460000D02*
X138924113Y-63117000D01*
X138884113Y-65819000D02*
X138884113Y-65540000D01*
X138884113Y-63460000D02*
X138884113Y-63181000D01*
X138844113Y-65751000D02*
X138844113Y-65540000D01*
X138844113Y-63460000D02*
X138844113Y-63249000D01*
X138804113Y-65678000D02*
X138804113Y-63322000D01*
X138764113Y-65598000D02*
X138764113Y-63402000D01*
X138724113Y-65511000D02*
X138724113Y-63489000D01*
X138684113Y-65415000D02*
X138684113Y-63585000D01*
X138644113Y-65305000D02*
X138644113Y-63695000D01*
X138604113Y-65177000D02*
X138604113Y-63823000D01*
X138564113Y-65018000D02*
X138564113Y-63982000D01*
X138524113Y-64784000D02*
X138524113Y-64216000D01*
X143745113Y-64500000D02*
G75*
G03*
X143745113Y-64500000I-2620000J0D01*
G01*
%TO.C,J7*%
X130190000Y-56145000D02*
X130190000Y-54875000D01*
X131460000Y-56145000D02*
X130190000Y-56145000D01*
X133620000Y-53832071D02*
X133620000Y-53435000D01*
X134380000Y-53832071D02*
X134380000Y-53435000D01*
X131080000Y-53765000D02*
X131080000Y-53435000D01*
X131840000Y-53765000D02*
X131840000Y-53435000D01*
X130130000Y-53435000D02*
X135330000Y-53435000D01*
X132730000Y-53435000D02*
X132730000Y-50775000D01*
X135330000Y-53435000D02*
X135330000Y-50775000D01*
X130130000Y-50775000D02*
X130130000Y-53435000D01*
X131080000Y-50775000D02*
X131080000Y-44775000D01*
X131140000Y-50775000D02*
X131140000Y-44775000D01*
X131260000Y-50775000D02*
X131260000Y-44775000D01*
X131380000Y-50775000D02*
X131380000Y-44775000D01*
X131500000Y-50775000D02*
X131500000Y-44775000D01*
X131620000Y-50775000D02*
X131620000Y-44775000D01*
X131740000Y-50775000D02*
X131740000Y-44775000D01*
X133620000Y-50775000D02*
X133620000Y-44775000D01*
X135330000Y-50775000D02*
X130130000Y-50775000D01*
X131080000Y-44775000D02*
X131840000Y-44775000D01*
X131840000Y-44775000D02*
X131840000Y-50775000D01*
X133620000Y-44775000D02*
X134380000Y-44775000D01*
X134380000Y-44775000D02*
X134380000Y-50775000D01*
%TO.C,J2*%
X105350000Y-55820000D02*
X106680000Y-55820000D01*
X105350000Y-57150000D02*
X105350000Y-55820000D01*
X105350000Y-58420000D02*
X105350000Y-76260000D01*
X105350000Y-58420000D02*
X108010000Y-58420000D01*
X105350000Y-76260000D02*
X108010000Y-76260000D01*
X108010000Y-58420000D02*
X108010000Y-76260000D01*
%TO.C,J3*%
X105350000Y-79950000D02*
X106680000Y-79950000D01*
X105350000Y-81280000D02*
X105350000Y-79950000D01*
X105350000Y-82550000D02*
X105350000Y-148650000D01*
X105350000Y-82550000D02*
X108010000Y-82550000D01*
X105350000Y-148650000D02*
X108010000Y-148650000D01*
X108010000Y-82550000D02*
X108010000Y-148650000D01*
%TO.C,J10*%
X137070000Y-55270000D02*
X138400000Y-55270000D01*
X137070000Y-56600000D02*
X137070000Y-55270000D01*
X137070000Y-57870000D02*
X137070000Y-57930000D01*
X137070000Y-57870000D02*
X139730000Y-57870000D01*
X137070000Y-57930000D02*
X139730000Y-57930000D01*
X139730000Y-57870000D02*
X139730000Y-57930000D01*
%TO.C,R3*%
X118290000Y-74230000D02*
X118290000Y-80770000D01*
X117960000Y-74230000D02*
X118290000Y-74230000D01*
X115880000Y-74230000D02*
X115550000Y-74230000D01*
X115550000Y-74230000D02*
X115550000Y-80770000D01*
X118290000Y-80770000D02*
X117960000Y-80770000D01*
X115550000Y-80770000D02*
X115880000Y-80770000D01*
D14*
%TO.C,U1*%
X128797000Y-60483000D02*
X128797000Y-60785260D01*
X128797000Y-62974740D02*
X128797000Y-63332652D01*
X128797000Y-65507348D02*
X128797000Y-65872652D01*
X128797000Y-68047348D02*
X128797000Y-68412652D01*
X128797000Y-70587348D02*
X128797000Y-70897000D01*
X128797000Y-70897000D02*
X136163000Y-70897000D01*
X136163000Y-60483000D02*
X128797000Y-60483000D01*
X136163000Y-60792652D02*
X136163000Y-60483000D01*
X136163000Y-63332652D02*
X136163000Y-62967348D01*
X136163000Y-65872652D02*
X136163000Y-65507348D01*
X136163000Y-68412652D02*
X136163000Y-68047348D01*
X136163000Y-70897000D02*
X136163000Y-70587348D01*
D12*
%TO.C,J9*%
X124840000Y-55170000D02*
X126170000Y-55170000D01*
X124840000Y-56500000D02*
X124840000Y-55170000D01*
X124840000Y-57770000D02*
X124840000Y-57830000D01*
X124840000Y-57770000D02*
X127500000Y-57770000D01*
X124840000Y-57830000D02*
X127500000Y-57830000D01*
X127500000Y-57770000D02*
X127500000Y-57830000D01*
%TO.C,D1*%
X125410000Y-87750000D02*
X124390000Y-87750000D01*
X124390000Y-89220000D02*
X124390000Y-86280000D01*
X124390000Y-86280000D02*
X118950000Y-86280000D01*
X123610000Y-89220000D02*
X123610000Y-86280000D01*
X123490000Y-89220000D02*
X123490000Y-86280000D01*
X123370000Y-89220000D02*
X123370000Y-86280000D01*
X118950000Y-89220000D02*
X124390000Y-89220000D01*
X118950000Y-86280000D02*
X118950000Y-89220000D01*
X117930000Y-87750000D02*
X118950000Y-87750000D01*
%TO.C,R8*%
X168030000Y-121670000D02*
X168030000Y-115130000D01*
X168360000Y-121670000D02*
X168030000Y-121670000D01*
X170440000Y-121670000D02*
X170770000Y-121670000D01*
X170770000Y-121670000D02*
X170770000Y-115130000D01*
X168030000Y-115130000D02*
X168360000Y-115130000D01*
X170770000Y-115130000D02*
X170440000Y-115130000D01*
%TO.C,R6*%
X149040000Y-76730000D02*
X149040000Y-83270000D01*
X148710000Y-76730000D02*
X149040000Y-76730000D01*
X146630000Y-76730000D02*
X146300000Y-76730000D01*
X146300000Y-76730000D02*
X146300000Y-83270000D01*
X149040000Y-83270000D02*
X148710000Y-83270000D01*
X146300000Y-83270000D02*
X146630000Y-83270000D01*
%TO.C,J1*%
X113580000Y-90010000D02*
X112250000Y-90010000D01*
X113580000Y-88680000D02*
X113580000Y-90010000D01*
X113580000Y-87410000D02*
X113580000Y-82270000D01*
X113580000Y-87410000D02*
X110920000Y-87410000D01*
X113580000Y-82270000D02*
X110920000Y-82270000D01*
X110920000Y-87410000D02*
X110920000Y-82270000D01*
%TO.C,R1*%
X123940000Y-69120000D02*
X117400000Y-69120000D01*
X123940000Y-68790000D02*
X123940000Y-69120000D01*
X123940000Y-66710000D02*
X123940000Y-66380000D01*
X123940000Y-66380000D02*
X117400000Y-66380000D01*
X117400000Y-69120000D02*
X117400000Y-68790000D01*
X117400000Y-66380000D02*
X117400000Y-66710000D01*
%TO.C,R7*%
X175970000Y-110040000D02*
X175970000Y-116580000D01*
X175640000Y-110040000D02*
X175970000Y-110040000D01*
X173560000Y-110040000D02*
X173230000Y-110040000D01*
X173230000Y-110040000D02*
X173230000Y-116580000D01*
X175970000Y-116580000D02*
X175640000Y-116580000D01*
X173230000Y-116580000D02*
X173560000Y-116580000D01*
%TO.C,R5*%
X146940000Y-74870000D02*
X140400000Y-74870000D01*
X146940000Y-74540000D02*
X146940000Y-74870000D01*
X146940000Y-72460000D02*
X146940000Y-72130000D01*
X146940000Y-72130000D02*
X140400000Y-72130000D01*
X140400000Y-74870000D02*
X140400000Y-74540000D01*
X140400000Y-72130000D02*
X140400000Y-72460000D01*
%TO.C,J16*%
X152670000Y-53170000D02*
X154000000Y-53170000D01*
X152670000Y-54500000D02*
X152670000Y-53170000D01*
X152670000Y-55770000D02*
X152670000Y-55830000D01*
X152670000Y-55770000D02*
X155330000Y-55770000D01*
X152670000Y-55830000D02*
X155330000Y-55830000D01*
X155330000Y-55770000D02*
X155330000Y-55830000D01*
D13*
%TO.C,U3*%
X115380000Y-95690800D02*
X138380000Y-95690800D01*
X115380000Y-149090800D02*
X115380000Y-95690800D01*
X138380000Y-95690800D02*
X138380000Y-149090800D01*
X138380000Y-149090800D02*
X115380000Y-149090800D01*
D12*
%TO.C,C2*%
X119245225Y-78225000D02*
X119745225Y-78225000D01*
X119495225Y-77975000D02*
X119495225Y-78475000D01*
X122050000Y-77120000D02*
X122050000Y-82280000D01*
X122090000Y-77120000D02*
X122090000Y-82280000D01*
X122130000Y-77121000D02*
X122130000Y-82279000D01*
X122170000Y-77122000D02*
X122170000Y-82278000D01*
X122210000Y-77124000D02*
X122210000Y-82276000D01*
X122250000Y-77127000D02*
X122250000Y-82273000D01*
X122290000Y-77131000D02*
X122290000Y-78660000D01*
X122290000Y-80740000D02*
X122290000Y-82269000D01*
X122330000Y-77135000D02*
X122330000Y-78660000D01*
X122330000Y-80740000D02*
X122330000Y-82265000D01*
X122370000Y-77139000D02*
X122370000Y-78660000D01*
X122370000Y-80740000D02*
X122370000Y-82261000D01*
X122410000Y-77144000D02*
X122410000Y-78660000D01*
X122410000Y-80740000D02*
X122410000Y-82256000D01*
X122450000Y-77150000D02*
X122450000Y-78660000D01*
X122450000Y-80740000D02*
X122450000Y-82250000D01*
X122490000Y-77157000D02*
X122490000Y-78660000D01*
X122490000Y-80740000D02*
X122490000Y-82243000D01*
X122530000Y-77164000D02*
X122530000Y-78660000D01*
X122530000Y-80740000D02*
X122530000Y-82236000D01*
X122570000Y-77172000D02*
X122570000Y-78660000D01*
X122570000Y-80740000D02*
X122570000Y-82228000D01*
X122610000Y-77180000D02*
X122610000Y-78660000D01*
X122610000Y-80740000D02*
X122610000Y-82220000D01*
X122650000Y-77189000D02*
X122650000Y-78660000D01*
X122650000Y-80740000D02*
X122650000Y-82211000D01*
X122690000Y-77199000D02*
X122690000Y-78660000D01*
X122690000Y-80740000D02*
X122690000Y-82201000D01*
X122730000Y-77209000D02*
X122730000Y-78660000D01*
X122730000Y-80740000D02*
X122730000Y-82191000D01*
X122771000Y-77220000D02*
X122771000Y-78660000D01*
X122771000Y-80740000D02*
X122771000Y-82180000D01*
X122811000Y-77232000D02*
X122811000Y-78660000D01*
X122811000Y-80740000D02*
X122811000Y-82168000D01*
X122851000Y-77245000D02*
X122851000Y-78660000D01*
X122851000Y-80740000D02*
X122851000Y-82155000D01*
X122891000Y-77258000D02*
X122891000Y-78660000D01*
X122891000Y-80740000D02*
X122891000Y-82142000D01*
X122931000Y-77272000D02*
X122931000Y-78660000D01*
X122931000Y-80740000D02*
X122931000Y-82128000D01*
X122971000Y-77286000D02*
X122971000Y-78660000D01*
X122971000Y-80740000D02*
X122971000Y-82114000D01*
X123011000Y-77302000D02*
X123011000Y-78660000D01*
X123011000Y-80740000D02*
X123011000Y-82098000D01*
X123051000Y-77318000D02*
X123051000Y-78660000D01*
X123051000Y-80740000D02*
X123051000Y-82082000D01*
X123091000Y-77335000D02*
X123091000Y-78660000D01*
X123091000Y-80740000D02*
X123091000Y-82065000D01*
X123131000Y-77352000D02*
X123131000Y-78660000D01*
X123131000Y-80740000D02*
X123131000Y-82048000D01*
X123171000Y-77371000D02*
X123171000Y-78660000D01*
X123171000Y-80740000D02*
X123171000Y-82029000D01*
X123211000Y-77390000D02*
X123211000Y-78660000D01*
X123211000Y-80740000D02*
X123211000Y-82010000D01*
X123251000Y-77410000D02*
X123251000Y-78660000D01*
X123251000Y-80740000D02*
X123251000Y-81990000D01*
X123291000Y-77432000D02*
X123291000Y-78660000D01*
X123291000Y-80740000D02*
X123291000Y-81968000D01*
X123331000Y-77453000D02*
X123331000Y-78660000D01*
X123331000Y-80740000D02*
X123331000Y-81947000D01*
X123371000Y-77476000D02*
X123371000Y-78660000D01*
X123371000Y-80740000D02*
X123371000Y-81924000D01*
X123411000Y-77500000D02*
X123411000Y-78660000D01*
X123411000Y-80740000D02*
X123411000Y-81900000D01*
X123451000Y-77525000D02*
X123451000Y-78660000D01*
X123451000Y-80740000D02*
X123451000Y-81875000D01*
X123491000Y-77551000D02*
X123491000Y-78660000D01*
X123491000Y-80740000D02*
X123491000Y-81849000D01*
X123531000Y-77578000D02*
X123531000Y-78660000D01*
X123531000Y-80740000D02*
X123531000Y-81822000D01*
X123571000Y-77605000D02*
X123571000Y-78660000D01*
X123571000Y-80740000D02*
X123571000Y-81795000D01*
X123611000Y-77635000D02*
X123611000Y-78660000D01*
X123611000Y-80740000D02*
X123611000Y-81765000D01*
X123651000Y-77665000D02*
X123651000Y-78660000D01*
X123651000Y-80740000D02*
X123651000Y-81735000D01*
X123691000Y-77696000D02*
X123691000Y-78660000D01*
X123691000Y-80740000D02*
X123691000Y-81704000D01*
X123731000Y-77729000D02*
X123731000Y-78660000D01*
X123731000Y-80740000D02*
X123731000Y-81671000D01*
X123771000Y-77763000D02*
X123771000Y-78660000D01*
X123771000Y-80740000D02*
X123771000Y-81637000D01*
X123811000Y-77799000D02*
X123811000Y-78660000D01*
X123811000Y-80740000D02*
X123811000Y-81601000D01*
X123851000Y-77836000D02*
X123851000Y-78660000D01*
X123851000Y-80740000D02*
X123851000Y-81564000D01*
X123891000Y-77874000D02*
X123891000Y-78660000D01*
X123891000Y-80740000D02*
X123891000Y-81526000D01*
X123931000Y-77915000D02*
X123931000Y-78660000D01*
X123931000Y-80740000D02*
X123931000Y-81485000D01*
X123971000Y-77957000D02*
X123971000Y-78660000D01*
X123971000Y-80740000D02*
X123971000Y-81443000D01*
X124011000Y-78001000D02*
X124011000Y-78660000D01*
X124011000Y-80740000D02*
X124011000Y-81399000D01*
X124051000Y-78047000D02*
X124051000Y-78660000D01*
X124051000Y-80740000D02*
X124051000Y-81353000D01*
X124091000Y-78095000D02*
X124091000Y-78660000D01*
X124091000Y-80740000D02*
X124091000Y-81305000D01*
X124131000Y-78146000D02*
X124131000Y-78660000D01*
X124131000Y-80740000D02*
X124131000Y-81254000D01*
X124171000Y-78200000D02*
X124171000Y-78660000D01*
X124171000Y-80740000D02*
X124171000Y-81200000D01*
X124211000Y-78257000D02*
X124211000Y-78660000D01*
X124211000Y-80740000D02*
X124211000Y-81143000D01*
X124251000Y-78317000D02*
X124251000Y-78660000D01*
X124251000Y-80740000D02*
X124251000Y-81083000D01*
X124291000Y-78381000D02*
X124291000Y-78660000D01*
X124291000Y-80740000D02*
X124291000Y-81019000D01*
X124331000Y-78449000D02*
X124331000Y-78660000D01*
X124331000Y-80740000D02*
X124331000Y-80951000D01*
X124371000Y-78522000D02*
X124371000Y-80878000D01*
X124411000Y-78602000D02*
X124411000Y-80798000D01*
X124451000Y-78689000D02*
X124451000Y-80711000D01*
X124491000Y-78785000D02*
X124491000Y-80615000D01*
X124531000Y-78895000D02*
X124531000Y-80505000D01*
X124571000Y-79023000D02*
X124571000Y-80377000D01*
X124611000Y-79182000D02*
X124611000Y-80218000D01*
X124651000Y-79416000D02*
X124651000Y-79984000D01*
X124670000Y-79700000D02*
G75*
G03*
X124670000Y-79700000I-2620000J0D01*
G01*
%TD*%
D15*
%TO.C,U2*%
X177490000Y-104700000D03*
D16*
X177490000Y-102160000D03*
X177490000Y-99620000D03*
X177490000Y-97080000D03*
X177490000Y-94540000D03*
X177490000Y-92000000D03*
X177490000Y-89460000D03*
X177490000Y-86920000D03*
X177490000Y-84380000D03*
X177490000Y-81840000D03*
X177490000Y-79300000D03*
X177490000Y-76760000D03*
X177490000Y-74220000D03*
X177490000Y-71680000D03*
X177490000Y-69140000D03*
X177490000Y-66600000D03*
X177490000Y-64060000D03*
X177490000Y-61520000D03*
X177490000Y-58980000D03*
X177490000Y-56440000D03*
X162250000Y-56440000D03*
X162250000Y-58980000D03*
X162250000Y-61520000D03*
X162250000Y-64060000D03*
X162250000Y-66600000D03*
X162250000Y-69140000D03*
X162250000Y-71680000D03*
X162250000Y-74220000D03*
X162250000Y-76760000D03*
X162250000Y-79300000D03*
X162250000Y-81840000D03*
X162250000Y-84380000D03*
X162250000Y-86920000D03*
X162250000Y-89460000D03*
X162250000Y-92000000D03*
X162250000Y-94540000D03*
X162250000Y-97080000D03*
X162250000Y-99620000D03*
X162250000Y-102160000D03*
X162250000Y-104750800D03*
D17*
X168590000Y-100890000D03*
X171130000Y-100890000D03*
%TD*%
D15*
%TO.C,U3*%
X119260000Y-98230000D03*
D16*
X119260000Y-100770000D03*
X119260000Y-103310000D03*
X119260000Y-105850000D03*
X119260000Y-108390000D03*
X119260000Y-110930000D03*
X119260000Y-113470000D03*
X119260000Y-116010000D03*
X119260000Y-118550000D03*
X119260000Y-121090000D03*
X119260000Y-123630000D03*
X119260000Y-126170000D03*
X119260000Y-128710000D03*
X119260000Y-131250000D03*
X119260000Y-133790000D03*
X119260000Y-136330000D03*
X119260000Y-138870000D03*
X119260000Y-141410000D03*
X119260000Y-143950000D03*
X119260000Y-146490000D03*
X134500000Y-146490000D03*
X134500000Y-143950000D03*
X134500000Y-141410000D03*
X134500000Y-138870000D03*
X134500000Y-136330000D03*
X134500000Y-133790000D03*
X134500000Y-131250000D03*
X134500000Y-128710000D03*
X134500000Y-126170000D03*
X134500000Y-123630000D03*
X134500000Y-121090000D03*
X134500000Y-118550000D03*
X134500000Y-116010000D03*
X134500000Y-113470000D03*
X134500000Y-110930000D03*
X134500000Y-108390000D03*
X134500000Y-105850000D03*
X134500000Y-103310000D03*
X134500000Y-100770000D03*
X134500000Y-98179200D03*
D17*
X128160000Y-102040000D03*
X125620000Y-102040000D03*
%TD*%
M02*
