%TF.GenerationSoftware,KiCad,Pcbnew,7.0.5-7.0.5~ubuntu20.04.1*%
%TF.CreationDate,2023-07-26T12:02:34-03:00*%
%TF.ProjectId,condicionamento_BIA_v01,636f6e64-6963-4696-9f6e-616d656e746f,v01*%
%TF.SameCoordinates,Original*%
%TF.FileFunction,Legend,Bot*%
%TF.FilePolarity,Positive*%
%FSLAX46Y46*%
G04 Gerber Fmt 4.6, Leading zero omitted, Abs format (unit mm)*
G04 Created by KiCad (PCBNEW 7.0.5-7.0.5~ubuntu20.04.1) date 2023-07-26 12:02:34*
%MOMM*%
%LPD*%
G01*
G04 APERTURE LIST*
%ADD10C,0.300000*%
G04 APERTURE END LIST*
D10*
X138249999Y-116492971D02*
X138178571Y-116564400D01*
X138178571Y-116564400D02*
X137964285Y-116635828D01*
X137964285Y-116635828D02*
X137821428Y-116635828D01*
X137821428Y-116635828D02*
X137607142Y-116564400D01*
X137607142Y-116564400D02*
X137464285Y-116421542D01*
X137464285Y-116421542D02*
X137392856Y-116278685D01*
X137392856Y-116278685D02*
X137321428Y-115992971D01*
X137321428Y-115992971D02*
X137321428Y-115778685D01*
X137321428Y-115778685D02*
X137392856Y-115492971D01*
X137392856Y-115492971D02*
X137464285Y-115350114D01*
X137464285Y-115350114D02*
X137607142Y-115207257D01*
X137607142Y-115207257D02*
X137821428Y-115135828D01*
X137821428Y-115135828D02*
X137964285Y-115135828D01*
X137964285Y-115135828D02*
X138178571Y-115207257D01*
X138178571Y-115207257D02*
X138249999Y-115278685D01*
X139107142Y-116635828D02*
X138964285Y-116564400D01*
X138964285Y-116564400D02*
X138892856Y-116492971D01*
X138892856Y-116492971D02*
X138821428Y-116350114D01*
X138821428Y-116350114D02*
X138821428Y-115921542D01*
X138821428Y-115921542D02*
X138892856Y-115778685D01*
X138892856Y-115778685D02*
X138964285Y-115707257D01*
X138964285Y-115707257D02*
X139107142Y-115635828D01*
X139107142Y-115635828D02*
X139321428Y-115635828D01*
X139321428Y-115635828D02*
X139464285Y-115707257D01*
X139464285Y-115707257D02*
X139535714Y-115778685D01*
X139535714Y-115778685D02*
X139607142Y-115921542D01*
X139607142Y-115921542D02*
X139607142Y-116350114D01*
X139607142Y-116350114D02*
X139535714Y-116492971D01*
X139535714Y-116492971D02*
X139464285Y-116564400D01*
X139464285Y-116564400D02*
X139321428Y-116635828D01*
X139321428Y-116635828D02*
X139107142Y-116635828D01*
X140249999Y-115635828D02*
X140249999Y-116635828D01*
X140249999Y-115778685D02*
X140321428Y-115707257D01*
X140321428Y-115707257D02*
X140464285Y-115635828D01*
X140464285Y-115635828D02*
X140678571Y-115635828D01*
X140678571Y-115635828D02*
X140821428Y-115707257D01*
X140821428Y-115707257D02*
X140892857Y-115850114D01*
X140892857Y-115850114D02*
X140892857Y-116635828D01*
X142250000Y-116635828D02*
X142250000Y-115135828D01*
X142250000Y-116564400D02*
X142107142Y-116635828D01*
X142107142Y-116635828D02*
X141821428Y-116635828D01*
X141821428Y-116635828D02*
X141678571Y-116564400D01*
X141678571Y-116564400D02*
X141607142Y-116492971D01*
X141607142Y-116492971D02*
X141535714Y-116350114D01*
X141535714Y-116350114D02*
X141535714Y-115921542D01*
X141535714Y-115921542D02*
X141607142Y-115778685D01*
X141607142Y-115778685D02*
X141678571Y-115707257D01*
X141678571Y-115707257D02*
X141821428Y-115635828D01*
X141821428Y-115635828D02*
X142107142Y-115635828D01*
X142107142Y-115635828D02*
X142250000Y-115707257D01*
X142964285Y-116635828D02*
X142964285Y-115635828D01*
X142964285Y-115135828D02*
X142892857Y-115207257D01*
X142892857Y-115207257D02*
X142964285Y-115278685D01*
X142964285Y-115278685D02*
X143035714Y-115207257D01*
X143035714Y-115207257D02*
X142964285Y-115135828D01*
X142964285Y-115135828D02*
X142964285Y-115278685D01*
X144321429Y-116564400D02*
X144178571Y-116635828D01*
X144178571Y-116635828D02*
X143892857Y-116635828D01*
X143892857Y-116635828D02*
X143750000Y-116564400D01*
X143750000Y-116564400D02*
X143678571Y-116492971D01*
X143678571Y-116492971D02*
X143607143Y-116350114D01*
X143607143Y-116350114D02*
X143607143Y-115921542D01*
X143607143Y-115921542D02*
X143678571Y-115778685D01*
X143678571Y-115778685D02*
X143750000Y-115707257D01*
X143750000Y-115707257D02*
X143892857Y-115635828D01*
X143892857Y-115635828D02*
X144178571Y-115635828D01*
X144178571Y-115635828D02*
X144321429Y-115707257D01*
X144964285Y-116635828D02*
X144964285Y-115635828D01*
X144964285Y-115135828D02*
X144892857Y-115207257D01*
X144892857Y-115207257D02*
X144964285Y-115278685D01*
X144964285Y-115278685D02*
X145035714Y-115207257D01*
X145035714Y-115207257D02*
X144964285Y-115135828D01*
X144964285Y-115135828D02*
X144964285Y-115278685D01*
X145892857Y-116635828D02*
X145750000Y-116564400D01*
X145750000Y-116564400D02*
X145678571Y-116492971D01*
X145678571Y-116492971D02*
X145607143Y-116350114D01*
X145607143Y-116350114D02*
X145607143Y-115921542D01*
X145607143Y-115921542D02*
X145678571Y-115778685D01*
X145678571Y-115778685D02*
X145750000Y-115707257D01*
X145750000Y-115707257D02*
X145892857Y-115635828D01*
X145892857Y-115635828D02*
X146107143Y-115635828D01*
X146107143Y-115635828D02*
X146250000Y-115707257D01*
X146250000Y-115707257D02*
X146321429Y-115778685D01*
X146321429Y-115778685D02*
X146392857Y-115921542D01*
X146392857Y-115921542D02*
X146392857Y-116350114D01*
X146392857Y-116350114D02*
X146321429Y-116492971D01*
X146321429Y-116492971D02*
X146250000Y-116564400D01*
X146250000Y-116564400D02*
X146107143Y-116635828D01*
X146107143Y-116635828D02*
X145892857Y-116635828D01*
X147035714Y-115635828D02*
X147035714Y-116635828D01*
X147035714Y-115778685D02*
X147107143Y-115707257D01*
X147107143Y-115707257D02*
X147250000Y-115635828D01*
X147250000Y-115635828D02*
X147464286Y-115635828D01*
X147464286Y-115635828D02*
X147607143Y-115707257D01*
X147607143Y-115707257D02*
X147678572Y-115850114D01*
X147678572Y-115850114D02*
X147678572Y-116635828D01*
X149035715Y-116635828D02*
X149035715Y-115850114D01*
X149035715Y-115850114D02*
X148964286Y-115707257D01*
X148964286Y-115707257D02*
X148821429Y-115635828D01*
X148821429Y-115635828D02*
X148535715Y-115635828D01*
X148535715Y-115635828D02*
X148392857Y-115707257D01*
X149035715Y-116564400D02*
X148892857Y-116635828D01*
X148892857Y-116635828D02*
X148535715Y-116635828D01*
X148535715Y-116635828D02*
X148392857Y-116564400D01*
X148392857Y-116564400D02*
X148321429Y-116421542D01*
X148321429Y-116421542D02*
X148321429Y-116278685D01*
X148321429Y-116278685D02*
X148392857Y-116135828D01*
X148392857Y-116135828D02*
X148535715Y-116064400D01*
X148535715Y-116064400D02*
X148892857Y-116064400D01*
X148892857Y-116064400D02*
X149035715Y-115992971D01*
X149750000Y-116635828D02*
X149750000Y-115635828D01*
X149750000Y-115778685D02*
X149821429Y-115707257D01*
X149821429Y-115707257D02*
X149964286Y-115635828D01*
X149964286Y-115635828D02*
X150178572Y-115635828D01*
X150178572Y-115635828D02*
X150321429Y-115707257D01*
X150321429Y-115707257D02*
X150392858Y-115850114D01*
X150392858Y-115850114D02*
X150392858Y-116635828D01*
X150392858Y-115850114D02*
X150464286Y-115707257D01*
X150464286Y-115707257D02*
X150607143Y-115635828D01*
X150607143Y-115635828D02*
X150821429Y-115635828D01*
X150821429Y-115635828D02*
X150964286Y-115707257D01*
X150964286Y-115707257D02*
X151035715Y-115850114D01*
X151035715Y-115850114D02*
X151035715Y-116635828D01*
X152321429Y-116564400D02*
X152178572Y-116635828D01*
X152178572Y-116635828D02*
X151892858Y-116635828D01*
X151892858Y-116635828D02*
X151750000Y-116564400D01*
X151750000Y-116564400D02*
X151678572Y-116421542D01*
X151678572Y-116421542D02*
X151678572Y-115850114D01*
X151678572Y-115850114D02*
X151750000Y-115707257D01*
X151750000Y-115707257D02*
X151892858Y-115635828D01*
X151892858Y-115635828D02*
X152178572Y-115635828D01*
X152178572Y-115635828D02*
X152321429Y-115707257D01*
X152321429Y-115707257D02*
X152392858Y-115850114D01*
X152392858Y-115850114D02*
X152392858Y-115992971D01*
X152392858Y-115992971D02*
X151678572Y-116135828D01*
X153035714Y-115635828D02*
X153035714Y-116635828D01*
X153035714Y-115778685D02*
X153107143Y-115707257D01*
X153107143Y-115707257D02*
X153250000Y-115635828D01*
X153250000Y-115635828D02*
X153464286Y-115635828D01*
X153464286Y-115635828D02*
X153607143Y-115707257D01*
X153607143Y-115707257D02*
X153678572Y-115850114D01*
X153678572Y-115850114D02*
X153678572Y-116635828D01*
X154178572Y-115635828D02*
X154750000Y-115635828D01*
X154392857Y-115135828D02*
X154392857Y-116421542D01*
X154392857Y-116421542D02*
X154464286Y-116564400D01*
X154464286Y-116564400D02*
X154607143Y-116635828D01*
X154607143Y-116635828D02*
X154750000Y-116635828D01*
X155464286Y-116635828D02*
X155321429Y-116564400D01*
X155321429Y-116564400D02*
X155250000Y-116492971D01*
X155250000Y-116492971D02*
X155178572Y-116350114D01*
X155178572Y-116350114D02*
X155178572Y-115921542D01*
X155178572Y-115921542D02*
X155250000Y-115778685D01*
X155250000Y-115778685D02*
X155321429Y-115707257D01*
X155321429Y-115707257D02*
X155464286Y-115635828D01*
X155464286Y-115635828D02*
X155678572Y-115635828D01*
X155678572Y-115635828D02*
X155821429Y-115707257D01*
X155821429Y-115707257D02*
X155892858Y-115778685D01*
X155892858Y-115778685D02*
X155964286Y-115921542D01*
X155964286Y-115921542D02*
X155964286Y-116350114D01*
X155964286Y-116350114D02*
X155892858Y-116492971D01*
X155892858Y-116492971D02*
X155821429Y-116564400D01*
X155821429Y-116564400D02*
X155678572Y-116635828D01*
X155678572Y-116635828D02*
X155464286Y-116635828D01*
X158821429Y-115064400D02*
X157535715Y-116992971D01*
X161107144Y-115635828D02*
X161107144Y-116635828D01*
X160464286Y-115635828D02*
X160464286Y-116421542D01*
X160464286Y-116421542D02*
X160535715Y-116564400D01*
X160535715Y-116564400D02*
X160678572Y-116635828D01*
X160678572Y-116635828D02*
X160892858Y-116635828D01*
X160892858Y-116635828D02*
X161035715Y-116564400D01*
X161035715Y-116564400D02*
X161107144Y-116492971D01*
X162678572Y-116492971D02*
X162607144Y-116564400D01*
X162607144Y-116564400D02*
X162392858Y-116635828D01*
X162392858Y-116635828D02*
X162250001Y-116635828D01*
X162250001Y-116635828D02*
X162035715Y-116564400D01*
X162035715Y-116564400D02*
X161892858Y-116421542D01*
X161892858Y-116421542D02*
X161821429Y-116278685D01*
X161821429Y-116278685D02*
X161750001Y-115992971D01*
X161750001Y-115992971D02*
X161750001Y-115778685D01*
X161750001Y-115778685D02*
X161821429Y-115492971D01*
X161821429Y-115492971D02*
X161892858Y-115350114D01*
X161892858Y-115350114D02*
X162035715Y-115207257D01*
X162035715Y-115207257D02*
X162250001Y-115135828D01*
X162250001Y-115135828D02*
X162392858Y-115135828D01*
X162392858Y-115135828D02*
X162607144Y-115207257D01*
X162607144Y-115207257D02*
X162678572Y-115278685D01*
X143142859Y-117550828D02*
X143642859Y-119050828D01*
X143642859Y-119050828D02*
X144142859Y-117550828D01*
X144928573Y-117550828D02*
X145071430Y-117550828D01*
X145071430Y-117550828D02*
X145214287Y-117622257D01*
X145214287Y-117622257D02*
X145285716Y-117693685D01*
X145285716Y-117693685D02*
X145357144Y-117836542D01*
X145357144Y-117836542D02*
X145428573Y-118122257D01*
X145428573Y-118122257D02*
X145428573Y-118479400D01*
X145428573Y-118479400D02*
X145357144Y-118765114D01*
X145357144Y-118765114D02*
X145285716Y-118907971D01*
X145285716Y-118907971D02*
X145214287Y-118979400D01*
X145214287Y-118979400D02*
X145071430Y-119050828D01*
X145071430Y-119050828D02*
X144928573Y-119050828D01*
X144928573Y-119050828D02*
X144785716Y-118979400D01*
X144785716Y-118979400D02*
X144714287Y-118907971D01*
X144714287Y-118907971D02*
X144642858Y-118765114D01*
X144642858Y-118765114D02*
X144571430Y-118479400D01*
X144571430Y-118479400D02*
X144571430Y-118122257D01*
X144571430Y-118122257D02*
X144642858Y-117836542D01*
X144642858Y-117836542D02*
X144714287Y-117693685D01*
X144714287Y-117693685D02*
X144785716Y-117622257D01*
X144785716Y-117622257D02*
X144928573Y-117550828D01*
X146857144Y-119050828D02*
X146000001Y-119050828D01*
X146428572Y-119050828D02*
X146428572Y-117550828D01*
X146428572Y-117550828D02*
X146285715Y-117765114D01*
X146285715Y-117765114D02*
X146142858Y-117907971D01*
X146142858Y-117907971D02*
X146000001Y-117979400D01*
X148642857Y-118479400D02*
X149785715Y-118479400D01*
X151571429Y-117693685D02*
X151642857Y-117622257D01*
X151642857Y-117622257D02*
X151785715Y-117550828D01*
X151785715Y-117550828D02*
X152142857Y-117550828D01*
X152142857Y-117550828D02*
X152285715Y-117622257D01*
X152285715Y-117622257D02*
X152357143Y-117693685D01*
X152357143Y-117693685D02*
X152428572Y-117836542D01*
X152428572Y-117836542D02*
X152428572Y-117979400D01*
X152428572Y-117979400D02*
X152357143Y-118193685D01*
X152357143Y-118193685D02*
X151500000Y-119050828D01*
X151500000Y-119050828D02*
X152428572Y-119050828D01*
X153357143Y-117550828D02*
X153500000Y-117550828D01*
X153500000Y-117550828D02*
X153642857Y-117622257D01*
X153642857Y-117622257D02*
X153714286Y-117693685D01*
X153714286Y-117693685D02*
X153785714Y-117836542D01*
X153785714Y-117836542D02*
X153857143Y-118122257D01*
X153857143Y-118122257D02*
X153857143Y-118479400D01*
X153857143Y-118479400D02*
X153785714Y-118765114D01*
X153785714Y-118765114D02*
X153714286Y-118907971D01*
X153714286Y-118907971D02*
X153642857Y-118979400D01*
X153642857Y-118979400D02*
X153500000Y-119050828D01*
X153500000Y-119050828D02*
X153357143Y-119050828D01*
X153357143Y-119050828D02*
X153214286Y-118979400D01*
X153214286Y-118979400D02*
X153142857Y-118907971D01*
X153142857Y-118907971D02*
X153071428Y-118765114D01*
X153071428Y-118765114D02*
X153000000Y-118479400D01*
X153000000Y-118479400D02*
X153000000Y-118122257D01*
X153000000Y-118122257D02*
X153071428Y-117836542D01*
X153071428Y-117836542D02*
X153142857Y-117693685D01*
X153142857Y-117693685D02*
X153214286Y-117622257D01*
X153214286Y-117622257D02*
X153357143Y-117550828D01*
X154428571Y-117693685D02*
X154499999Y-117622257D01*
X154499999Y-117622257D02*
X154642857Y-117550828D01*
X154642857Y-117550828D02*
X154999999Y-117550828D01*
X154999999Y-117550828D02*
X155142857Y-117622257D01*
X155142857Y-117622257D02*
X155214285Y-117693685D01*
X155214285Y-117693685D02*
X155285714Y-117836542D01*
X155285714Y-117836542D02*
X155285714Y-117979400D01*
X155285714Y-117979400D02*
X155214285Y-118193685D01*
X155214285Y-118193685D02*
X154357142Y-119050828D01*
X154357142Y-119050828D02*
X155285714Y-119050828D01*
X155785713Y-117550828D02*
X156714285Y-117550828D01*
X156714285Y-117550828D02*
X156214285Y-118122257D01*
X156214285Y-118122257D02*
X156428570Y-118122257D01*
X156428570Y-118122257D02*
X156571428Y-118193685D01*
X156571428Y-118193685D02*
X156642856Y-118265114D01*
X156642856Y-118265114D02*
X156714285Y-118407971D01*
X156714285Y-118407971D02*
X156714285Y-118765114D01*
X156714285Y-118765114D02*
X156642856Y-118907971D01*
X156642856Y-118907971D02*
X156571428Y-118979400D01*
X156571428Y-118979400D02*
X156428570Y-119050828D01*
X156428570Y-119050828D02*
X155999999Y-119050828D01*
X155999999Y-119050828D02*
X155857142Y-118979400D01*
X155857142Y-118979400D02*
X155785713Y-118907971D01*
M02*
