%TF.GenerationSoftware,KiCad,Pcbnew,7.0.5-7.0.5~ubuntu22.04.1*%
%TF.CreationDate,2023-06-13T13:59:48-03:00*%
%TF.ProjectId,Fonte_tensao_LM675,466f6e74-655f-4746-956e-73616f5f4c4d,v01*%
%TF.SameCoordinates,Original*%
%TF.FileFunction,Copper,L1,Top*%
%TF.FilePolarity,Positive*%
%FSLAX46Y46*%
G04 Gerber Fmt 4.6, Leading zero omitted, Abs format (unit mm)*
G04 Created by KiCad (PCBNEW 7.0.5-7.0.5~ubuntu22.04.1) date 2023-06-13 13:59:48*
%MOMM*%
%LPD*%
G01*
G04 APERTURE LIST*
%TA.AperFunction,ComponentPad*%
%ADD10R,4.600000X3.000000*%
%TD*%
%TA.AperFunction,ComponentPad*%
%ADD11O,4.200000X3.000000*%
%TD*%
%TA.AperFunction,ComponentPad*%
%ADD12O,3.000000X4.200000*%
%TD*%
%TA.AperFunction,ComponentPad*%
%ADD13C,2.500000*%
%TD*%
%TA.AperFunction,ComponentPad*%
%ADD14C,2.000000*%
%TD*%
%TA.AperFunction,ComponentPad*%
%ADD15R,2.000000X2.500000*%
%TD*%
%TA.AperFunction,ComponentPad*%
%ADD16C,3.000000*%
%TD*%
%TA.AperFunction,ComponentPad*%
%ADD17R,2.000000X2.300000*%
%TD*%
%TA.AperFunction,ComponentPad*%
%ADD18R,2.500000X2.500000*%
%TD*%
%TA.AperFunction,ComponentPad*%
%ADD19R,2.000000X2.100000*%
%TD*%
%TA.AperFunction,ViaPad*%
%ADD20C,2.000000*%
%TD*%
%TA.AperFunction,Conductor*%
%ADD21C,1.270000*%
%TD*%
G04 APERTURE END LIST*
D10*
%TO.P,J1,1*%
%TO.N,Net-(J1-Pad1)*%
X114300000Y-139700000D03*
D11*
%TO.P,J1,2*%
%TO.N,GND*%
X114300000Y-146000000D03*
D12*
%TO.P,J1,3*%
%TO.N,N/C*%
X119100000Y-142600000D03*
%TD*%
D13*
%TO.P,U3,1,+*%
%TO.N,Net-(U3-+)*%
X154100000Y-139800000D03*
%TO.P,U3,2,-*%
%TO.N,Net-(U3--)*%
X152400000Y-143500000D03*
%TO.P,U3,3,V-*%
%TO.N,Net-(U3-V-)*%
X150700000Y-139800000D03*
%TO.P,U3,4*%
%TO.N,Earth*%
X149000000Y-143500000D03*
%TO.P,U3,5,V+*%
%TO.N,VCC*%
X147300000Y-139800000D03*
%TD*%
D14*
%TO.P,C2,1*%
%TO.N,Earth*%
X157480000Y-68580000D03*
D15*
%TO.P,C2,2*%
%TO.N,GND*%
X159980000Y-68580000D03*
%TD*%
D14*
%TO.P,C6,1*%
%TO.N,Net-(U3-V-)*%
X136800000Y-120600000D03*
D15*
%TO.P,C6,2*%
%TO.N,GND*%
X139300000Y-120600000D03*
%TD*%
D16*
%TO.P,R1,1*%
%TO.N,VCC*%
X114200000Y-112440000D03*
%TO.P,R1,2*%
%TO.N,Net-(D5-A)*%
X114200000Y-132760000D03*
%TD*%
D13*
%TO.P,D2,1,K*%
%TO.N,Earth*%
X157480000Y-90170000D03*
%TO.P,D2,2,A*%
%TO.N,-9V*%
X157480000Y-80010000D03*
%TD*%
D17*
%TO.P,U1,1,IN*%
%TO.N,VCC*%
X114300000Y-58420000D03*
D14*
%TO.P,U1,2,GND*%
%TO.N,Earth*%
X116840000Y-58420000D03*
%TO.P,U1,3,OUT*%
%TO.N,+9V*%
X119380000Y-58420000D03*
%TD*%
D13*
%TO.P,D4,1,K*%
%TO.N,Earth*%
X120650000Y-85344000D03*
%TO.P,D4,2,A*%
%TO.N,-5V*%
X120650000Y-75184000D03*
%TD*%
D14*
%TO.P,C10,1*%
%TO.N,VCC*%
X174308888Y-133985000D03*
D15*
%TO.P,C10,2*%
%TO.N,Earth*%
X176808888Y-133985000D03*
%TD*%
D14*
%TO.P,J3,1,Pin_1*%
%TO.N,SINC*%
X186690000Y-57150000D03*
%TO.P,J3,2,Pin_2*%
%TO.N,SPI_COPI*%
X186690000Y-59690000D03*
%TO.P,J3,3,Pin_3*%
%TO.N,SPI_CIPO*%
X186690000Y-62230000D03*
%TO.P,J3,4,Pin_4*%
%TO.N,SPI_clk*%
X186690000Y-64770000D03*
%TO.P,J3,5,Pin_5*%
%TO.N,CS (AD9833)*%
X186690000Y-67310000D03*
%TO.P,J3,6,Pin_6*%
%TO.N,CS (X9c10x)*%
X186690000Y-69850000D03*
%TO.P,J3,7,Pin_7*%
%TO.N,unconnected-(J3-Pin_7-Pad7)*%
X186690000Y-72390000D03*
%TO.P,J3,8,Pin_8*%
%TO.N,unconnected-(J3-Pin_8-Pad8)*%
X186690000Y-74930000D03*
%TO.P,J3,9,Pin_9*%
%TO.N,unconnected-(J3-Pin_9-Pad9)*%
X186690000Y-77470000D03*
%TO.P,J3,10,Pin_10*%
%TO.N,unconnected-(J3-Pin_10-Pad10)*%
X186690000Y-80010000D03*
%TO.P,J3,11,Pin_11*%
%TO.N,unconnected-(J3-Pin_11-Pad11)*%
X186690000Y-82550000D03*
%TO.P,J3,12,Pin_12*%
%TO.N,unconnected-(J3-Pin_12-Pad12)*%
X186690000Y-85090000D03*
%TO.P,J3,13,Pin_13*%
%TO.N,unconnected-(J3-Pin_13-Pad13)*%
X186690000Y-87630000D03*
%TO.P,J3,14,Pin_14*%
%TO.N,unconnected-(J3-Pin_14-Pad14)*%
X186690000Y-90170000D03*
%TO.P,J3,15,Pin_15*%
%TO.N,unconnected-(J3-Pin_15-Pad15)*%
X186690000Y-92710000D03*
%TO.P,J3,16,Pin_16*%
%TO.N,unconnected-(J3-Pin_16-Pad16)*%
X186690000Y-95250000D03*
%TO.P,J3,17,Pin_17*%
%TO.N,unconnected-(J3-Pin_17-Pad17)*%
X186690000Y-97790000D03*
%TO.P,J3,18,Pin_18*%
%TO.N,unconnected-(J3-Pin_18-Pad18)*%
X186690000Y-100330000D03*
%TO.P,J3,19,Pin_19*%
%TO.N,unconnected-(J3-Pin_19-Pad19)*%
X186690000Y-102870000D03*
%TO.P,J3,20,Pin_20*%
%TO.N,unconnected-(J3-Pin_20-Pad20)*%
X186690000Y-105410000D03*
%TO.P,J3,21,Pin_21*%
%TO.N,unconnected-(J3-Pin_21-Pad21)*%
X186690000Y-107950000D03*
%TO.P,J3,22,Pin_22*%
%TO.N,unconnected-(J3-Pin_22-Pad22)*%
X186690000Y-110490000D03*
%TO.P,J3,23,Pin_23*%
%TO.N,unconnected-(J3-Pin_23-Pad23)*%
X186690000Y-113030000D03*
%TO.P,J3,24,Pin_24*%
%TO.N,unconnected-(J3-Pin_24-Pad24)*%
X186690000Y-115570000D03*
%TO.P,J3,25,Pin_25*%
%TO.N,unconnected-(J3-Pin_25-Pad25)*%
X186690000Y-118110000D03*
%TO.P,J3,26,Pin_26*%
%TO.N,unconnected-(J3-Pin_26-Pad26)*%
X186690000Y-120650000D03*
%TO.P,J3,27,Pin_27*%
%TO.N,unconnected-(J3-Pin_27-Pad27)*%
X186690000Y-123190000D03*
%TO.P,J3,28,Pin_28*%
%TO.N,unconnected-(J3-Pin_28-Pad28)*%
X186690000Y-125730000D03*
%TO.P,J3,29,Pin_29*%
%TO.N,unconnected-(J3-Pin_29-Pad29)*%
X186690000Y-128270000D03*
%TO.P,J3,30,Pin_30*%
%TO.N,SCL3*%
X186690000Y-130810000D03*
%TO.P,J3,31,Pin_31*%
%TO.N,SDA3*%
X186690000Y-133350000D03*
%TO.P,J3,32,Pin_32*%
%TO.N,SCL2*%
X186690000Y-135890000D03*
%TO.P,J3,33,Pin_33*%
%TO.N,SDA2*%
X186690000Y-138430000D03*
%TO.P,J3,34,Pin_34*%
%TO.N,SCL1*%
X186690000Y-140970000D03*
%TO.P,J3,35,Pin_35*%
%TO.N,SDA1*%
X186690000Y-143510000D03*
%TD*%
D16*
%TO.P,R4,1*%
%TO.N,Net-(U3-+)*%
X142840000Y-127000000D03*
%TO.P,R4,2*%
%TO.N,Net-(U3--)*%
X163160000Y-127000000D03*
%TD*%
D14*
%TO.P,U6,1,GND*%
%TO.N,Earth*%
X176540000Y-143855000D03*
%TO.P,U6,2,VO*%
%TO.N,+3.3V*%
X174000000Y-143855000D03*
%TO.P,U6,3,VI*%
%TO.N,VCC*%
X171460000Y-143855000D03*
%TD*%
%TO.P,C9,1*%
%TO.N,Earth*%
X174030000Y-67310000D03*
D15*
%TO.P,C9,2*%
%TO.N,-5V*%
X176530000Y-67310000D03*
%TD*%
D16*
%TO.P,R5,1*%
%TO.N,Net-(U3--)*%
X170053000Y-113665000D03*
%TO.P,R5,2*%
%TO.N,Earth*%
X170053000Y-93345000D03*
%TD*%
D17*
%TO.P,U2,1,GND*%
%TO.N,Earth*%
X157480000Y-58420000D03*
D14*
%TO.P,U2,2,VI*%
%TO.N,GND*%
X160020000Y-58420000D03*
%TO.P,U2,3,VO*%
%TO.N,-9V*%
X162560000Y-58420000D03*
%TD*%
%TO.P,C8,1*%
%TO.N,+5V*%
X149194888Y-68580000D03*
D15*
%TO.P,C8,2*%
%TO.N,Earth*%
X151694888Y-68580000D03*
%TD*%
D14*
%TO.P,J4,1,Pin_1*%
%TO.N,Earth*%
X106680000Y-57150000D03*
%TO.P,J4,2,Pin_2*%
%TO.N,VCC*%
X106680000Y-59690000D03*
%TO.P,J4,3,Pin_3*%
%TO.N,GND*%
X106680000Y-62230000D03*
%TO.P,J4,4,Pin_4*%
%TO.N,+9V*%
X106680000Y-64770000D03*
%TO.P,J4,5,Pin_5*%
%TO.N,-9V*%
X106680000Y-67310000D03*
%TO.P,J4,6,Pin_6*%
%TO.N,+5V*%
X106680000Y-69850000D03*
%TO.P,J4,7,Pin_7*%
%TO.N,-5V*%
X106680000Y-72390000D03*
%TO.P,J4,8,Pin_8*%
%TO.N,+3.3V*%
X106680000Y-74930000D03*
%TD*%
%TO.P,J2,1,Pin_1*%
%TO.N,unconnected-(J2-Pin_1-Pad1)*%
X106680000Y-81280000D03*
%TO.P,J2,2,Pin_2*%
%TO.N,unconnected-(J2-Pin_2-Pad2)*%
X106680000Y-83820000D03*
%TO.P,J2,3,Pin_3*%
%TO.N,unconnected-(J2-Pin_3-Pad3)*%
X106680000Y-86360000D03*
%TO.P,J2,4,Pin_4*%
%TO.N,unconnected-(J2-Pin_4-Pad4)*%
X106680000Y-88900000D03*
%TO.P,J2,5,Pin_5*%
%TO.N,unconnected-(J2-Pin_5-Pad5)*%
X106680000Y-91440000D03*
%TO.P,J2,6,Pin_6*%
%TO.N,unconnected-(J2-Pin_6-Pad6)*%
X106680000Y-93980000D03*
%TO.P,J2,7,Pin_7*%
%TO.N,unconnected-(J2-Pin_7-Pad7)*%
X106680000Y-96520000D03*
%TO.P,J2,8,Pin_8*%
%TO.N,unconnected-(J2-Pin_8-Pad8)*%
X106680000Y-99060000D03*
%TO.P,J2,9,Pin_9*%
%TO.N,unconnected-(J2-Pin_9-Pad9)*%
X106680000Y-101600000D03*
%TO.P,J2,10,Pin_10*%
%TO.N,unconnected-(J2-Pin_10-Pad10)*%
X106680000Y-104140000D03*
%TO.P,J2,11,Pin_11*%
%TO.N,unconnected-(J2-Pin_11-Pad11)*%
X106680000Y-106680000D03*
%TO.P,J2,12,Pin_12*%
%TO.N,unconnected-(J2-Pin_12-Pad12)*%
X106680000Y-109220000D03*
%TO.P,J2,13,Pin_13*%
%TO.N,unconnected-(J2-Pin_13-Pad13)*%
X106680000Y-111760000D03*
%TO.P,J2,14,Pin_14*%
%TO.N,unconnected-(J2-Pin_14-Pad14)*%
X106680000Y-114300000D03*
%TO.P,J2,15,Pin_15*%
%TO.N,unconnected-(J2-Pin_15-Pad15)*%
X106680000Y-116840000D03*
%TO.P,J2,16,Pin_16*%
%TO.N,unconnected-(J2-Pin_16-Pad16)*%
X106680000Y-119380000D03*
%TO.P,J2,17,Pin_17*%
%TO.N,unconnected-(J2-Pin_17-Pad17)*%
X106680000Y-121920000D03*
%TO.P,J2,18,Pin_18*%
%TO.N,unconnected-(J2-Pin_18-Pad18)*%
X106680000Y-124460000D03*
%TO.P,J2,19,Pin_19*%
%TO.N,unconnected-(J2-Pin_19-Pad19)*%
X106680000Y-127000000D03*
%TO.P,J2,20,Pin_20*%
%TO.N,I1*%
X106680000Y-129540000D03*
%TO.P,J2,21,Pin_21*%
%TO.N,I2*%
X106680000Y-132080000D03*
%TO.P,J2,22,Pin_22*%
%TO.N,Ampl1*%
X106680000Y-134620000D03*
%TO.P,J2,23,Pin_23*%
%TO.N,Ampl2*%
X106680000Y-137160000D03*
%TO.P,J2,24,Pin_24*%
%TO.N,Sin1*%
X106680000Y-139700000D03*
%TO.P,J2,25,Pin_25*%
%TO.N,Sin2*%
X106680000Y-142240000D03*
%TO.P,J2,26,Pin_26*%
%TO.N,SinA*%
X106680000Y-144780000D03*
%TO.P,J2,27,Pin_27*%
%TO.N,SinB*%
X106680000Y-147320000D03*
%TD*%
D18*
%TO.P,SW1,1,A*%
%TO.N,unconnected-(SW1-A-Pad1)*%
X133350000Y-138764000D03*
D13*
%TO.P,SW1,2,B*%
%TO.N,Net-(J1-Pad1)*%
X137350000Y-138764000D03*
%TO.P,SW1,3,C*%
%TO.N,VCC*%
X141350000Y-138764000D03*
%TO.P,SW1,4,A*%
%TO.N,unconnected-(SW1-A-Pad4)*%
X133350000Y-143764000D03*
%TO.P,SW1,5,B*%
%TO.N,unconnected-(SW1-B-Pad5)*%
X137350000Y-143764000D03*
%TO.P,SW1,6,C*%
%TO.N,unconnected-(SW1-C-Pad6)*%
X141350000Y-143764000D03*
%TD*%
D16*
%TO.P,R2,1*%
%TO.N,VCC*%
X122174000Y-111379000D03*
%TO.P,R2,2*%
%TO.N,Net-(U3-+)*%
X142494000Y-111379000D03*
%TD*%
D17*
%TO.P,U4,1,IN*%
%TO.N,VCC*%
X129540000Y-58420000D03*
D14*
%TO.P,U4,2,GND*%
%TO.N,Earth*%
X132080000Y-58420000D03*
%TO.P,U4,3,OUT*%
%TO.N,+5V*%
X134620000Y-58420000D03*
%TD*%
%TO.P,C5,1*%
%TO.N,Earth*%
X162600000Y-74930000D03*
D15*
%TO.P,C5,2*%
%TO.N,-9V*%
X165100000Y-74930000D03*
%TD*%
D17*
%TO.P,U5,1,GND*%
%TO.N,Earth*%
X172720000Y-58420000D03*
D14*
%TO.P,U5,2,VI*%
%TO.N,GND*%
X175260000Y-58420000D03*
%TO.P,U5,3,VO*%
%TO.N,-5V*%
X177800000Y-58420000D03*
%TD*%
%TO.P,C7,1*%
%TO.N,Net-(C7-Pad1)*%
X153100000Y-112600000D03*
D15*
%TO.P,C7,2*%
%TO.N,GND*%
X155600000Y-112600000D03*
%TD*%
D14*
%TO.P,C1,1*%
%TO.N,VCC*%
X114340000Y-66040000D03*
D15*
%TO.P,C1,2*%
%TO.N,Earth*%
X116840000Y-66040000D03*
%TD*%
D16*
%TO.P,R3,1*%
%TO.N,Net-(U3-+)*%
X148082000Y-111125000D03*
%TO.P,R3,2*%
%TO.N,GND*%
X148082000Y-90805000D03*
%TD*%
D13*
%TO.P,D3,1,K*%
%TO.N,+5V*%
X139700000Y-72390000D03*
%TO.P,D3,2,A*%
%TO.N,Earth*%
X139700000Y-82550000D03*
%TD*%
D14*
%TO.P,C11,1*%
%TO.N,+3.3V*%
X171500000Y-122400000D03*
D15*
%TO.P,C11,2*%
%TO.N,Earth*%
X174000000Y-122400000D03*
%TD*%
D14*
%TO.P,C3,1*%
%TO.N,VCC*%
X126100000Y-135800000D03*
D15*
%TO.P,C3,2*%
%TO.N,GND*%
X123600000Y-135800000D03*
%TD*%
D16*
%TO.P,R6,1*%
%TO.N,Earth*%
X116000000Y-98600000D03*
%TO.P,R6,2*%
%TO.N,Net-(C7-Pad1)*%
X136320000Y-98600000D03*
%TD*%
D14*
%TO.P,C4,1*%
%TO.N,+9V*%
X124460000Y-66040000D03*
D15*
%TO.P,C4,2*%
%TO.N,Earth*%
X121960000Y-66040000D03*
%TD*%
D13*
%TO.P,D1,1,K*%
%TO.N,+9V*%
X131572000Y-68961000D03*
%TO.P,D1,2,A*%
%TO.N,Earth*%
X138756205Y-61776795D03*
%TD*%
D14*
%TO.P,D5,2,A*%
%TO.N,Net-(D5-A)*%
X127000000Y-146600000D03*
D19*
%TO.P,D5,1,K*%
%TO.N,GND*%
X124460000Y-146600000D03*
%TD*%
D20*
%TO.N,VCC*%
X110998000Y-62230000D03*
X171196000Y-137033000D03*
X129540000Y-62230000D03*
X146304000Y-137033000D03*
X110998000Y-83312000D03*
X128524000Y-124460000D03*
X128778000Y-134493000D03*
%TO.N,GND*%
X175260000Y-63500000D03*
X162560000Y-63500000D03*
X120650000Y-128651000D03*
X120650000Y-137160000D03*
%TO.N,Earth*%
X160020000Y-74803000D03*
X160020000Y-90170000D03*
%TO.N,-9V*%
X153670000Y-80010000D03*
X146050000Y-80010000D03*
%TO.N,+3.3V*%
X129540000Y-77978000D03*
X129540000Y-88265000D03*
%TD*%
D21*
%TO.N,VCC*%
X128524000Y-124460000D02*
X128778000Y-124714000D01*
X110998000Y-62230000D02*
X110998000Y-83312000D01*
X146304000Y-137033000D02*
X171196000Y-137033000D01*
X128778000Y-124714000D02*
X128778000Y-134493000D01*
X110998000Y-62230000D02*
X129540000Y-62230000D01*
%TO.N,GND*%
X120650000Y-128651000D02*
X120650000Y-137160000D01*
X175260000Y-63500000D02*
X162560000Y-63500000D01*
%TO.N,Earth*%
X160020000Y-74803000D02*
X160020000Y-90170000D01*
%TO.N,-9V*%
X153670000Y-80010000D02*
X146050000Y-80010000D01*
%TO.N,+3.3V*%
X129540000Y-77978000D02*
X129540000Y-88265000D01*
%TD*%
M02*
