G04 #@! TF.GenerationSoftware,KiCad,Pcbnew,9.0.0-9.0.0-2~ubuntu24.04.1*
G04 #@! TF.CreationDate,2025-03-11T17:36:26-03:00*
G04 #@! TF.ProjectId,Compact_signal_conditioner_V02a,436f6d70-6163-4745-9f73-69676e616c5f,V02a*
G04 #@! TF.SameCoordinates,Original*
G04 #@! TF.FileFunction,Copper,L2,Bot*
G04 #@! TF.FilePolarity,Positive*
%FSLAX46Y46*%
G04 Gerber Fmt 4.6, Leading zero omitted, Abs format (unit mm)*
G04 Created by KiCad (PCBNEW 9.0.0-9.0.0-2~ubuntu24.04.1) date 2025-03-11 17:36:26*
%MOMM*%
%LPD*%
G01*
G04 APERTURE LIST*
G04 #@! TA.AperFunction,ComponentPad*
%ADD10R,1.600000X1.600000*%
G04 #@! TD*
G04 #@! TA.AperFunction,ComponentPad*
%ADD11C,1.600000*%
G04 #@! TD*
G04 #@! TA.AperFunction,ComponentPad*
%ADD12O,1.600000X1.600000*%
G04 #@! TD*
G04 #@! TA.AperFunction,ComponentPad*
%ADD13R,1.700000X1.700000*%
G04 #@! TD*
G04 #@! TA.AperFunction,ComponentPad*
%ADD14O,1.700000X1.700000*%
G04 #@! TD*
G04 #@! TA.AperFunction,ComponentPad*
%ADD15R,1.524000X1.524000*%
G04 #@! TD*
G04 #@! TA.AperFunction,ComponentPad*
%ADD16C,1.524000*%
G04 #@! TD*
G04 #@! TA.AperFunction,SMDPad,CuDef*
%ADD17R,1.981200X0.558800*%
G04 #@! TD*
G04 #@! TA.AperFunction,ComponentPad*
%ADD18R,2.200000X2.200000*%
G04 #@! TD*
G04 #@! TA.AperFunction,ComponentPad*
%ADD19O,2.200000X2.200000*%
G04 #@! TD*
G04 #@! TA.AperFunction,ViaPad*
%ADD20C,0.600000*%
G04 #@! TD*
G04 #@! TA.AperFunction,Conductor*
%ADD21C,0.200000*%
G04 #@! TD*
G04 APERTURE END LIST*
D10*
G04 #@! TO.P,Cf2a1,1*
G04 #@! TO.N,Net-(Cf2-select2-Pin_2)*
X110600000Y-110800000D03*
D11*
G04 #@! TO.P,Cf2a1,2*
G04 #@! TO.N,Earth*
X110600000Y-108300000D03*
G04 #@! TD*
D10*
G04 #@! TO.P,U5-DigPot1,1,VCC*
G04 #@! TO.N,+5V*
X142875000Y-107569000D03*
D12*
G04 #@! TO.P,U5-DigPot1,2,GND*
G04 #@! TO.N,Earth*
X142875000Y-105029000D03*
G04 #@! TO.P,U5-DigPot1,3,INC*
G04 #@! TO.N,Pot1_X9c10x_INC*
X142875000Y-102489000D03*
G04 #@! TO.P,U5-DigPot1,4,U/D*
G04 #@! TO.N,Pot1_X9c10x_U{slash}D*
X142875000Y-99949000D03*
G04 #@! TO.P,U5-DigPot1,5,CS*
G04 #@! TO.N,Pot1_CS_(X9c104)*
X142875000Y-97409000D03*
G04 #@! TO.P,U5-DigPot1,6,GND*
G04 #@! TO.N,Earth*
X132715000Y-97409000D03*
G04 #@! TO.P,U5-DigPot1,7,RL*
G04 #@! TO.N,In_gain_1*
X132715000Y-99949000D03*
G04 #@! TO.P,U5-DigPot1,8,RW*
G04 #@! TO.N,auxiliar_1*
X132715000Y-102489000D03*
G04 #@! TO.P,U5-DigPot1,9,RH*
X132715000Y-105029000D03*
G04 #@! TO.P,U5-DigPot1,10,VCC*
G04 #@! TO.N,+5V*
X132715000Y-107569000D03*
G04 #@! TD*
D10*
G04 #@! TO.P,C3,1*
G04 #@! TO.N,n\u00F34*
X121412000Y-90297000D03*
D11*
G04 #@! TO.P,C3,2*
G04 #@! TO.N,n\u00F33*
X121412000Y-92797000D03*
G04 #@! TD*
D10*
G04 #@! TO.P,Cf1b1,1*
G04 #@! TO.N,Net-(Cf1-select1-Pin_1)*
X137229900Y-82800000D03*
D11*
G04 #@! TO.P,Cf1b1,2*
G04 #@! TO.N,Earth*
X139729900Y-82800000D03*
G04 #@! TD*
D13*
G04 #@! TO.P,J8,1,Pin_1*
G04 #@! TO.N,Canal_2_buffer*
X158200000Y-83300000D03*
D14*
G04 #@! TO.P,J8,2,Pin_2*
G04 #@! TO.N,In_gain_2*
X155660000Y-83300000D03*
G04 #@! TO.P,J8,3,Pin_3*
G04 #@! TO.N,Canal_2*
X153120001Y-83300000D03*
G04 #@! TD*
D11*
G04 #@! TO.P,R1,1*
G04 #@! TO.N,n\u00F32*
X114690000Y-107600000D03*
D12*
G04 #@! TO.P,R1,2*
G04 #@! TO.N,Out_1*
X122310000Y-107600000D03*
G04 #@! TD*
D11*
G04 #@! TO.P,R3,1*
G04 #@! TO.N,n\u00F32*
X112649000Y-105029000D03*
D12*
G04 #@! TO.P,R3,2*
G04 #@! TO.N,Earth*
X112649000Y-97409000D03*
G04 #@! TD*
D11*
G04 #@! TO.P,R2,1*
G04 #@! TO.N,Vref*
X115697000Y-97409000D03*
D12*
G04 #@! TO.P,R2,2*
G04 #@! TO.N,n\u00F32*
X115697000Y-105029000D03*
G04 #@! TD*
D10*
G04 #@! TO.P,C4,1*
G04 #@! TO.N,Out_2*
X127000000Y-90297000D03*
D11*
G04 #@! TO.P,C4,2*
G04 #@! TO.N,Earth*
X127000000Y-92797000D03*
G04 #@! TD*
D13*
G04 #@! TO.P,Cf1-select1,1,Pin_1*
G04 #@! TO.N,Net-(Cf1-select1-Pin_1)*
X144060000Y-82900000D03*
D14*
G04 #@! TO.P,Cf1-select1,2,Pin_2*
G04 #@! TO.N,auxiliar_1*
X146600000Y-82900000D03*
G04 #@! TD*
D15*
G04 #@! TO.P,U3-Cond-DIP1,1,OUT1*
G04 #@! TO.N,n\u00F31*
X119126000Y-103084000D03*
D16*
G04 #@! TO.P,U3-Cond-DIP1,2,-IN1*
X121666000Y-103084000D03*
G04 #@! TO.P,U3-Cond-DIP1,3,+IN1*
G04 #@! TO.N,Canal_1_gain*
X124206000Y-103084000D03*
G04 #@! TO.P,U3-Cond-DIP1,4,V-*
G04 #@! TO.N,-9V*
X126746000Y-103084000D03*
G04 #@! TO.P,U3-Cond-DIP1,5,+IN2*
G04 #@! TO.N,Canal_2_gain*
X126746000Y-95464000D03*
G04 #@! TO.P,U3-Cond-DIP1,6,-IN2*
G04 #@! TO.N,n\u00F33*
X124206000Y-95464000D03*
G04 #@! TO.P,U3-Cond-DIP1,7,OUT2*
X121666000Y-95464000D03*
G04 #@! TO.P,U3-Cond-DIP1,8,V+*
G04 #@! TO.N,+9V*
X119126000Y-95464000D03*
G04 #@! TD*
D10*
G04 #@! TO.P,Cf2b1,1*
G04 #@! TO.N,Net-(Cf2-select2-Pin_2)*
X162694900Y-110500000D03*
D11*
G04 #@! TO.P,Cf2b1,2*
G04 #@! TO.N,Earth*
X165194900Y-110500000D03*
G04 #@! TD*
D15*
G04 #@! TO.P,U1-buffer1,1,OUT1*
G04 #@! TO.N,Canal_1_buffer*
X151638000Y-108839000D03*
D16*
G04 #@! TO.P,U1-buffer1,2,-IN1*
X154178000Y-108839000D03*
G04 #@! TO.P,U1-buffer1,3,+IN1*
G04 #@! TO.N,Canal_1*
X156718000Y-108839000D03*
G04 #@! TO.P,U1-buffer1,4,V-*
G04 #@! TO.N,-9V*
X159258000Y-108839000D03*
G04 #@! TO.P,U1-buffer1,5,+IN2*
G04 #@! TO.N,Canal_2*
X159258000Y-101219000D03*
G04 #@! TO.P,U1-buffer1,6,-IN2*
G04 #@! TO.N,Canal_2_buffer*
X156718000Y-101219000D03*
G04 #@! TO.P,U1-buffer1,7,OUT2*
X154178000Y-101219000D03*
G04 #@! TO.P,U1-buffer1,8,V+*
G04 #@! TO.N,+9V*
X151638000Y-101219000D03*
G04 #@! TD*
D13*
G04 #@! TO.P,J4,1,Pin_1*
G04 #@! TO.N,Earth*
X115315000Y-111500000D03*
D14*
G04 #@! TO.P,J4,2,Pin_2*
X117855000Y-111500000D03*
G04 #@! TO.P,J4,3,Pin_3*
G04 #@! TO.N,Vref*
X120394999Y-111500000D03*
G04 #@! TO.P,J4,4,Pin_4*
G04 #@! TO.N,+5V*
X122935000Y-111500000D03*
G04 #@! TO.P,J4,5,Pin_5*
G04 #@! TO.N,-9V*
X125475000Y-111500000D03*
G04 #@! TO.P,J4,6,Pin_6*
G04 #@! TO.N,+9V*
X128015000Y-111500000D03*
G04 #@! TD*
D10*
G04 #@! TO.P,C1,1*
G04 #@! TO.N,Out_1*
X132080000Y-89495000D03*
D11*
G04 #@! TO.P,C1,2*
G04 #@! TO.N,Earth*
X132080000Y-86995000D03*
G04 #@! TD*
G04 #@! TO.P,R5,1*
G04 #@! TO.N,n\u00F34*
X112776000Y-87249000D03*
D12*
G04 #@! TO.P,R5,2*
G04 #@! TO.N,Earth*
X112776000Y-94869000D03*
G04 #@! TD*
D15*
G04 #@! TO.P,U2-gain1,1,OUT1*
G04 #@! TO.N,Canal_1_gain*
X136398000Y-94234000D03*
D16*
G04 #@! TO.P,U2-gain1,2,-IN1*
G04 #@! TO.N,auxiliar_1*
X138938000Y-94234000D03*
G04 #@! TO.P,U2-gain1,3,+IN1*
G04 #@! TO.N,Earth*
X141478000Y-94234000D03*
G04 #@! TO.P,U2-gain1,4,V-*
G04 #@! TO.N,-9V*
X144018000Y-94234000D03*
G04 #@! TO.P,U2-gain1,5,+IN2*
G04 #@! TO.N,Earth*
X144018000Y-86614000D03*
G04 #@! TO.P,U2-gain1,6,-IN2*
G04 #@! TO.N,auxiliar_2*
X141478000Y-86614000D03*
G04 #@! TO.P,U2-gain1,7,OUT2*
G04 #@! TO.N,Canal_2_gain*
X138938000Y-86614000D03*
G04 #@! TO.P,U2-gain1,8,V+*
G04 #@! TO.N,+9V*
X136398000Y-86614000D03*
G04 #@! TD*
D13*
G04 #@! TO.P,J7,1,Pin_1*
G04 #@! TO.N,Canal_1_buffer*
X138700000Y-111500000D03*
D14*
G04 #@! TO.P,J7,2,Pin_2*
G04 #@! TO.N,In_gain_1*
X141240000Y-111500000D03*
G04 #@! TO.P,J7,3,Pin_3*
G04 #@! TO.N,Canal_1*
X143779999Y-111500000D03*
G04 #@! TD*
D13*
G04 #@! TO.P,J6,1,Pin_1*
G04 #@! TO.N,Canal_1*
X109220000Y-96261000D03*
D14*
G04 #@! TO.P,J6,2,Pin_2*
G04 #@! TO.N,Canal_2*
X109220000Y-98801000D03*
G04 #@! TD*
D11*
G04 #@! TO.P,R4,1*
G04 #@! TO.N,Vref*
X115824000Y-94869000D03*
D12*
G04 #@! TO.P,R4,2*
G04 #@! TO.N,n\u00F34*
X115824000Y-87249000D03*
G04 #@! TD*
D13*
G04 #@! TO.P,J5,1,Pin_1*
G04 #@! TO.N,Earth*
X115300000Y-83875000D03*
D14*
G04 #@! TO.P,J5,2,Pin_2*
X117840000Y-83875000D03*
G04 #@! TO.P,J5,3,Pin_3*
G04 #@! TO.N,Vref*
X120379999Y-83875000D03*
G04 #@! TO.P,J5,4,Pin_4*
G04 #@! TO.N,+5V*
X122920000Y-83875000D03*
G04 #@! TO.P,J5,5,Pin_5*
G04 #@! TO.N,-9V*
X125460000Y-83875000D03*
G04 #@! TO.P,J5,6,Pin_6*
G04 #@! TO.N,+9V*
X128000000Y-83875000D03*
G04 #@! TD*
D11*
G04 #@! TO.P,R10,1*
G04 #@! TO.N,auxiliar_1*
X147828000Y-108839000D03*
D12*
G04 #@! TO.P,R10,2*
G04 #@! TO.N,Canal_1_gain*
X147828000Y-101219000D03*
G04 #@! TD*
D10*
G04 #@! TO.P,C2,1*
G04 #@! TO.N,n\u00F32*
X124894900Y-107000000D03*
D11*
G04 #@! TO.P,C2,2*
G04 #@! TO.N,n\u00F31*
X127394900Y-107000000D03*
G04 #@! TD*
D10*
G04 #@! TO.P,Cf1a1,1*
G04 #@! TO.N,Net-(Cf1-select1-Pin_1)*
X111200000Y-83800000D03*
D11*
G04 #@! TO.P,Cf1a1,2*
G04 #@! TO.N,Earth*
X108700000Y-83800000D03*
G04 #@! TD*
G04 #@! TO.P,R8,1*
G04 #@! TO.N,n\u00F34*
X120523000Y-87209000D03*
D12*
G04 #@! TO.P,R8,2*
G04 #@! TO.N,Out_2*
X128143000Y-87209000D03*
G04 #@! TD*
D13*
G04 #@! TO.P,Cf2-select2,1,Pin_1*
G04 #@! TO.N,auxiliar_2*
X134800000Y-111600000D03*
D14*
G04 #@! TO.P,Cf2-select2,2,Pin_2*
G04 #@! TO.N,Net-(Cf2-select2-Pin_2)*
X132260000Y-111600000D03*
G04 #@! TD*
D10*
G04 #@! TO.P,U4-DigPot2,1,VCC*
G04 #@! TO.N,+5V*
X158369000Y-98044000D03*
D12*
G04 #@! TO.P,U4-DigPot2,2,GND*
G04 #@! TO.N,Earth*
X158369000Y-95504000D03*
G04 #@! TO.P,U4-DigPot2,3,INC*
G04 #@! TO.N,Pot2_X9c10x_INC*
X158369000Y-92964000D03*
G04 #@! TO.P,U4-DigPot2,4,U/D*
G04 #@! TO.N,Pot2_X9c10x_U{slash}D*
X158369000Y-90424000D03*
G04 #@! TO.P,U4-DigPot2,5,CS*
G04 #@! TO.N,Pot2_CS_(X9c104)*
X158369000Y-87884000D03*
G04 #@! TO.P,U4-DigPot2,6,GND*
G04 #@! TO.N,Earth*
X148209000Y-87884000D03*
G04 #@! TO.P,U4-DigPot2,7,RL*
G04 #@! TO.N,In_gain_2*
X148209000Y-90424000D03*
G04 #@! TO.P,U4-DigPot2,8,RW*
G04 #@! TO.N,auxiliar_2*
X148209000Y-92964000D03*
G04 #@! TO.P,U4-DigPot2,9,RH*
X148209000Y-95504000D03*
G04 #@! TO.P,U4-DigPot2,10,VCC*
G04 #@! TO.N,+5V*
X148209000Y-98044000D03*
G04 #@! TD*
D14*
G04 #@! TO.P,J3,1,Pin_1*
G04 #@! TO.N,+9V*
X165400000Y-88120000D03*
G04 #@! TO.P,J3,2,Pin_2*
G04 #@! TO.N,-9V*
X165400000Y-90660000D03*
G04 #@! TO.P,J3,3,Pin_3*
G04 #@! TO.N,+5V*
X165400000Y-93200000D03*
G04 #@! TO.P,J3,4,Pin_4*
G04 #@! TO.N,Vref*
X165400000Y-95740000D03*
G04 #@! TO.P,J3,5,Pin_5*
G04 #@! TO.N,Earth*
X165400000Y-98280000D03*
G04 #@! TO.P,J3,6,Pin_6*
X165400000Y-100820000D03*
G04 #@! TO.P,J3,7,Pin_7*
G04 #@! TO.N,Canal_2*
X165400000Y-103360000D03*
G04 #@! TO.P,J3,8,Pin_8*
G04 #@! TO.N,Canal_1*
X165400000Y-105900000D03*
G04 #@! TO.P,J3,9,Pin_9*
G04 #@! TO.N,Out_2*
X162860000Y-103360000D03*
G04 #@! TO.P,J3,10,Pin_10*
G04 #@! TO.N,Out_1*
X162860000Y-105900000D03*
G04 #@! TO.P,J3,11,Pin_11*
G04 #@! TO.N,Pot1_CS_(X9c104)*
X162860000Y-100820000D03*
G04 #@! TO.P,J3,12,Pin_12*
G04 #@! TO.N,Pot1_X9c10x_U{slash}D*
X162860000Y-98280000D03*
G04 #@! TO.P,J3,13,Pin_13*
G04 #@! TO.N,Pot1_X9c10x_INC*
X162860000Y-95740000D03*
G04 #@! TO.P,J3,14,Pin_14*
G04 #@! TO.N,Pot2_CS_(X9c104)*
X162860000Y-93200000D03*
G04 #@! TO.P,J3,15,Pin_15*
G04 #@! TO.N,Pot2_X9c10x_U{slash}D*
X162860000Y-90660000D03*
D13*
G04 #@! TO.P,J3,16,Pin_16*
G04 #@! TO.N,Pot2_X9c10x_INC*
X162860000Y-88120000D03*
G04 #@! TD*
D17*
G04 #@! TO.P,U4-Cond-SMD1,1,OUT1*
G04 #@! TO.N,n\u00F31*
X125577600Y-97369000D03*
G04 #@! TO.P,U4-Cond-SMD1,2,IN1-*
X125577600Y-98639000D03*
G04 #@! TO.P,U4-Cond-SMD1,3,IN1+*
G04 #@! TO.N,Canal_1_gain*
X125577600Y-99909000D03*
G04 #@! TO.P,U4-Cond-SMD1,4,VS-*
G04 #@! TO.N,-9V*
X125577600Y-101179000D03*
G04 #@! TO.P,U4-Cond-SMD1,5,IN2+*
G04 #@! TO.N,Canal_2_gain*
X120650000Y-101179000D03*
G04 #@! TO.P,U4-Cond-SMD1,6,IN2-*
G04 #@! TO.N,n\u00F33*
X120650000Y-99909000D03*
G04 #@! TO.P,U4-Cond-SMD1,7,OUT*
X120650000Y-98639000D03*
G04 #@! TO.P,U4-Cond-SMD1,8,VS+*
G04 #@! TO.N,+9V*
X120650000Y-97369000D03*
G04 #@! TD*
G04 #@! TO.P,U6-gain1,1,OUT1*
G04 #@! TO.N,Canal_1_gain*
X142494000Y-88519000D03*
G04 #@! TO.P,U6-gain1,2,IN1-*
G04 #@! TO.N,auxiliar_1*
X142494000Y-89789000D03*
G04 #@! TO.P,U6-gain1,3,IN1+*
G04 #@! TO.N,Earth*
X142494000Y-91059000D03*
G04 #@! TO.P,U6-gain1,4,VS-*
G04 #@! TO.N,-9V*
X142494000Y-92329000D03*
G04 #@! TO.P,U6-gain1,5,IN2+*
G04 #@! TO.N,Earth*
X137566400Y-92329000D03*
G04 #@! TO.P,U6-gain1,6,IN2-*
G04 #@! TO.N,auxiliar_2*
X137566400Y-91059000D03*
G04 #@! TO.P,U6-gain1,7,OUT*
G04 #@! TO.N,Canal_2_gain*
X137566400Y-89789000D03*
G04 #@! TO.P,U6-gain1,8,VS+*
G04 #@! TO.N,+9V*
X137566400Y-88519000D03*
G04 #@! TD*
D18*
G04 #@! TO.P,D4,1,K*
G04 #@! TO.N,Out_2*
X136271000Y-107696000D03*
D19*
G04 #@! TO.P,D4,2,A*
G04 #@! TO.N,Earth*
X136271000Y-97536000D03*
G04 #@! TD*
D11*
G04 #@! TO.P,R11,1*
G04 #@! TO.N,auxiliar_2*
X129794000Y-96520000D03*
D12*
G04 #@! TO.P,R11,2*
G04 #@! TO.N,Canal_2_gain*
X129794000Y-104140000D03*
G04 #@! TD*
D17*
G04 #@! TO.P,U5-buffer1,1,OUT1*
G04 #@! TO.N,Canal_1_buffer*
X157988000Y-103124000D03*
G04 #@! TO.P,U5-buffer1,2,IN1-*
X157988000Y-104394000D03*
G04 #@! TO.P,U5-buffer1,3,IN1+*
G04 #@! TO.N,Canal_1*
X157988000Y-105664000D03*
G04 #@! TO.P,U5-buffer1,4,VS-*
G04 #@! TO.N,-9V*
X157988000Y-106934000D03*
G04 #@! TO.P,U5-buffer1,5,IN2+*
G04 #@! TO.N,Canal_2*
X153060400Y-106934000D03*
G04 #@! TO.P,U5-buffer1,6,IN2-*
G04 #@! TO.N,Canal_2_buffer*
X153060400Y-105664000D03*
G04 #@! TO.P,U5-buffer1,7,OUT*
X153060400Y-104394000D03*
G04 #@! TO.P,U5-buffer1,8,VS+*
G04 #@! TO.N,+9V*
X153060400Y-103124000D03*
G04 #@! TD*
D18*
G04 #@! TO.P,D3,1,K*
G04 #@! TO.N,Vref*
X139573000Y-97536000D03*
D19*
G04 #@! TO.P,D3,2,A*
G04 #@! TO.N,Out_2*
X139573000Y-107696000D03*
G04 #@! TD*
D18*
G04 #@! TO.P,D2,1,K*
G04 #@! TO.N,Out_1*
X151892000Y-88392000D03*
D19*
G04 #@! TO.P,D2,2,A*
G04 #@! TO.N,Earth*
X151892000Y-98552000D03*
G04 #@! TD*
D18*
G04 #@! TO.P,D1,1,K*
G04 #@! TO.N,Vref*
X155194000Y-88392000D03*
D19*
G04 #@! TO.P,D1,2,A*
G04 #@! TO.N,Out_1*
X155194000Y-98552000D03*
G04 #@! TD*
D20*
G04 #@! TO.N,Out_1*
X123763500Y-98021700D03*
X133610800Y-96255100D03*
X161464600Y-99380400D03*
G04 #@! TO.N,Earth*
X118200000Y-89400000D03*
X149305900Y-96378900D03*
X134200000Y-90800000D03*
X108600000Y-103000000D03*
X148600000Y-85200000D03*
X151892000Y-96303600D03*
X163600000Y-83200000D03*
X136200000Y-85000000D03*
X123000000Y-87000000D03*
X139500000Y-101500000D03*
X149800000Y-82600000D03*
G04 #@! TO.N,Out_2*
X134190500Y-107696000D03*
G04 #@! TO.N,Vref*
X154593400Y-94402300D03*
G04 #@! TO.N,Canal_2*
X107955000Y-88417900D03*
G04 #@! TO.N,Canal_1*
X145249400Y-111722200D03*
X145249400Y-108894600D03*
X133786300Y-98858700D03*
G04 #@! TO.N,-9V*
X146853300Y-109898100D03*
G04 #@! TO.N,+9V*
X151633900Y-86774800D03*
G04 #@! TO.N,Pot1_CS_(X9c104)*
X161206200Y-98202400D03*
G04 #@! TO.N,Pot1_X9c10x_INC*
X158110700Y-101934400D03*
G04 #@! TO.N,Canal_1_buffer*
X151638000Y-111895000D03*
G04 #@! TO.N,Canal_1_gain*
X135676800Y-99891200D03*
G04 #@! TO.N,auxiliar_1*
X145215900Y-103613800D03*
G04 #@! TO.N,auxiliar_2*
X147018100Y-85352100D03*
G04 #@! TD*
D21*
G04 #@! TO.N,Out_1*
X155194000Y-97150300D02*
X151892000Y-93848300D01*
X161464600Y-103621400D02*
X161464600Y-99380400D01*
X132080000Y-90596700D02*
X133610800Y-92127500D01*
X133610800Y-92127500D02*
X133610800Y-96255100D01*
X155194000Y-98552000D02*
X155194000Y-97150300D01*
X122936000Y-105872300D02*
X122310000Y-106498300D01*
X162860000Y-104748300D02*
X162591500Y-104748300D01*
X132080000Y-89495000D02*
X132080000Y-90596700D01*
X122936000Y-98849200D02*
X122936000Y-105872300D01*
X162860000Y-105900000D02*
X162860000Y-104748300D01*
X123763500Y-98021700D02*
X122936000Y-98849200D01*
X162591500Y-104748300D02*
X161464600Y-103621400D01*
X151892000Y-93848300D02*
X151892000Y-88392000D01*
X122310000Y-107600000D02*
X122310000Y-106498300D01*
G04 #@! TO.N,Earth*
X115300000Y-85026700D02*
X113898400Y-86428300D01*
X115300000Y-83875000D02*
X115300000Y-85026700D01*
X143307000Y-86377000D02*
X139729900Y-82800000D01*
X112776000Y-96180300D02*
X112776000Y-94869000D01*
X147291400Y-84750300D02*
X146768800Y-84750300D01*
X142494000Y-91059000D02*
X141201700Y-91059000D01*
X113898400Y-86428300D02*
X113898400Y-92644900D01*
X142646700Y-103927300D02*
X142875000Y-103927300D01*
X110963300Y-108300000D02*
X110963300Y-100196400D01*
X108700000Y-83800000D02*
X108700000Y-89691300D01*
X143307000Y-86377000D02*
X141815600Y-87868400D01*
X151892000Y-98552000D02*
X151892000Y-97150300D01*
X139549100Y-90651400D02*
X139549100Y-91638600D01*
X142875000Y-105029000D02*
X142875000Y-103927300D01*
X137816800Y-95302900D02*
X137816800Y-93803100D01*
X141815600Y-87868400D02*
X141429100Y-87868400D01*
X137816800Y-93803100D02*
X138858700Y-92761200D01*
X138858700Y-92761200D02*
X138858700Y-92329000D01*
X146768800Y-84750300D02*
X146367800Y-85151300D01*
X113898400Y-92644900D02*
X112776000Y-93767300D01*
X147752600Y-96605700D02*
X149079100Y-96605700D01*
X146367800Y-90886900D02*
X147107300Y-91626400D01*
X164196600Y-109501700D02*
X165194900Y-110500000D01*
X110963300Y-100196400D02*
X112649000Y-98510700D01*
X151892000Y-97150300D02*
X151892000Y-96303600D01*
X146367800Y-85151300D02*
X146367800Y-90886900D01*
X141478000Y-94234000D02*
X141201700Y-94234000D01*
X108700000Y-89691300D02*
X112776000Y-93767300D01*
X144018000Y-86614000D02*
X143781000Y-86377000D01*
X164196600Y-102887200D02*
X164196600Y-109501700D01*
X132080000Y-86995000D02*
X128207600Y-90867400D01*
X147107300Y-91626400D02*
X147107300Y-95960400D01*
X139549100Y-91638600D02*
X138858700Y-92329000D01*
X165112100Y-101971700D02*
X164196600Y-102887200D01*
X165400000Y-101971700D02*
X165112100Y-101971700D01*
X141478000Y-94234000D02*
X141478000Y-102758600D01*
X128207600Y-90867400D02*
X128207600Y-92797000D01*
X112649000Y-96307300D02*
X112776000Y-96180300D01*
X141060900Y-89139600D02*
X139549100Y-90651400D01*
X112776000Y-94869000D02*
X112776000Y-93767300D01*
X141478000Y-102758600D02*
X142646700Y-103927300D01*
X165400000Y-100820000D02*
X165400000Y-98280000D01*
X140132800Y-95302900D02*
X137816800Y-95302900D01*
X141060900Y-88236600D02*
X141060900Y-89139600D01*
X143781000Y-86377000D02*
X143307000Y-86377000D01*
X137816800Y-95302900D02*
X137102400Y-95302900D01*
X115315000Y-111500000D02*
X114163300Y-111500000D01*
X137566400Y-92329000D02*
X138858700Y-92329000D01*
X132715000Y-97409000D02*
X131613300Y-97409000D01*
X128207600Y-92797000D02*
X131613300Y-96202700D01*
X114163300Y-111500000D02*
X110963300Y-108300000D01*
X141201700Y-94234000D02*
X140132800Y-95302900D01*
X141201700Y-91059000D02*
X141201700Y-94234000D01*
X137102400Y-95302900D02*
X136271000Y-96134300D01*
X165400000Y-100820000D02*
X165400000Y-101971700D01*
X148209000Y-85667900D02*
X147291400Y-84750300D01*
X149079100Y-96605700D02*
X149305900Y-96378900D01*
X112649000Y-97409000D02*
X112649000Y-98510700D01*
X127000000Y-92797000D02*
X128207600Y-92797000D01*
X110963300Y-108300000D02*
X110600000Y-108300000D01*
X147107300Y-95960400D02*
X147752600Y-96605700D01*
X148209000Y-87884000D02*
X148209000Y-85667900D01*
X141429100Y-87868400D02*
X141060900Y-88236600D01*
X136271000Y-97536000D02*
X136271000Y-96134300D01*
X112649000Y-97409000D02*
X112649000Y-96307300D01*
X131613300Y-96202700D02*
X131613300Y-97409000D01*
G04 #@! TO.N,n\u00F32*
X114690000Y-107137700D02*
X114690000Y-107600000D01*
X115697000Y-105029000D02*
X115697000Y-106130700D01*
X115697000Y-106130700D02*
X114690000Y-107137700D01*
G04 #@! TO.N,n\u00F31*
X125577600Y-97369000D02*
X126869900Y-97369000D01*
X127845700Y-106549200D02*
X127845700Y-99614800D01*
X127394900Y-107000000D02*
X127845700Y-106549200D01*
X127845700Y-99614800D02*
X126869900Y-98639000D01*
X125577600Y-98639000D02*
X126869900Y-98639000D01*
X126869900Y-98639000D02*
X126869900Y-97369000D01*
G04 #@! TO.N,n\u00F34*
X120523000Y-87209000D02*
X121412000Y-88098000D01*
X121412000Y-88098000D02*
X121412000Y-90297000D01*
G04 #@! TO.N,n\u00F33*
X121942300Y-98637500D02*
X121942300Y-95740300D01*
X121666000Y-93051000D02*
X121666000Y-95464000D01*
X121940800Y-98639000D02*
X121942300Y-98637500D01*
X121942300Y-95740300D02*
X121666000Y-95464000D01*
X121841500Y-98639000D02*
X121940800Y-98639000D01*
X120650000Y-98639000D02*
X121841500Y-98639000D01*
X121942300Y-98639000D02*
X121942300Y-99909000D01*
X121940800Y-98639000D02*
X121942300Y-98639000D01*
X121412000Y-92797000D02*
X121666000Y-93051000D01*
X120650000Y-99909000D02*
X121942300Y-99909000D01*
G04 #@! TO.N,Out_2*
X125857100Y-92266200D02*
X125857100Y-93259700D01*
X125857100Y-93259700D02*
X126627800Y-94030400D01*
X128126000Y-96476200D02*
X130980500Y-99330700D01*
X127884600Y-88310700D02*
X127000000Y-89195300D01*
X128143000Y-87209000D02*
X128143000Y-88310700D01*
X130980500Y-99330700D02*
X130980500Y-104939600D01*
X126724600Y-91398700D02*
X125857100Y-92266200D01*
X128143000Y-88310700D02*
X127884600Y-88310700D01*
X126848600Y-94030400D02*
X128126000Y-95307800D01*
X134190500Y-107424500D02*
X134190500Y-107696000D01*
X130980500Y-104939600D02*
X132339900Y-106299000D01*
X127000000Y-91398700D02*
X126724600Y-91398700D01*
X128126000Y-95307800D02*
X128126000Y-96476200D01*
X126627800Y-94030400D02*
X126848600Y-94030400D01*
X127000000Y-90297000D02*
X127000000Y-89195300D01*
X133065000Y-106299000D02*
X134190500Y-107424500D01*
X127000000Y-90297000D02*
X127000000Y-91398700D01*
X132339900Y-106299000D02*
X133065000Y-106299000D01*
G04 #@! TO.N,Vref*
X120380000Y-85026700D02*
X115824000Y-89582700D01*
X115697000Y-94996000D02*
X115697000Y-97409000D01*
X120380000Y-83875000D02*
X120380000Y-85026700D01*
X115697000Y-102741700D02*
X119993300Y-107038000D01*
X115697000Y-97409000D02*
X115697000Y-102741700D01*
X115824000Y-94869000D02*
X115697000Y-94996000D01*
X120395000Y-111500000D02*
X120395000Y-110348300D01*
X155194000Y-88392000D02*
X155194000Y-93801700D01*
X115824000Y-89582700D02*
X115824000Y-94869000D01*
X119993300Y-107038000D02*
X119993300Y-109946600D01*
X155194000Y-93801700D02*
X154593400Y-94402300D01*
X119993300Y-109946600D02*
X120395000Y-110348300D01*
G04 #@! TO.N,Canal_2*
X159258000Y-101638000D02*
X159258000Y-101219000D01*
X151768100Y-106934000D02*
X150054200Y-105220100D01*
X156879200Y-102536100D02*
X158359900Y-102536100D01*
X107955000Y-88417900D02*
X107955000Y-97198800D01*
X152604500Y-84451700D02*
X153120000Y-84451700D01*
X154352700Y-106366000D02*
X156695700Y-104023000D01*
X150054200Y-105220100D02*
X150054200Y-87002000D01*
X156695700Y-102719600D02*
X156879200Y-102536100D01*
X156695700Y-104023000D02*
X156695700Y-102719600D01*
X107955000Y-97198800D02*
X108405500Y-97649300D01*
X150054200Y-87002000D02*
X152604500Y-84451700D01*
X153060400Y-106934000D02*
X154352700Y-106934000D01*
X158359900Y-102536100D02*
X159258000Y-101638000D01*
X108405500Y-97649300D02*
X109220000Y-97649300D01*
X153120000Y-83300000D02*
X153120000Y-84451700D01*
X153060400Y-106934000D02*
X151768100Y-106934000D01*
X154352700Y-106934000D02*
X154352700Y-106366000D01*
X109220000Y-98801000D02*
X109220000Y-97649300D01*
G04 #@! TO.N,Canal_1*
X157988000Y-105664000D02*
X156695700Y-105664000D01*
X156695700Y-105664000D02*
X156695700Y-108816700D01*
X143780000Y-110348300D02*
X143564100Y-110348300D01*
X141077800Y-106150200D02*
X133786300Y-98858700D01*
X143780000Y-111500000D02*
X143780000Y-110348300D01*
X143564100Y-110348300D02*
X141077800Y-107862000D01*
X141077800Y-107862000D02*
X141077800Y-106150200D01*
X145249400Y-111722200D02*
X145249400Y-108894600D01*
X156695700Y-108816700D02*
X156718000Y-108839000D01*
G04 #@! TO.N,-9V*
X144018000Y-106244300D02*
X144018000Y-94234000D01*
X129166700Y-111977100D02*
X129166700Y-111022900D01*
X125475000Y-111500000D02*
X126626700Y-112651700D01*
X142494000Y-92329000D02*
X143786300Y-92329000D01*
X143786300Y-92329000D02*
X143786300Y-94002300D01*
X126746000Y-103084000D02*
X126869900Y-102960100D01*
X159280300Y-108816700D02*
X159258000Y-108839000D01*
X126281900Y-103548100D02*
X126746000Y-103084000D01*
X146536500Y-108762800D02*
X144018000Y-106244300D01*
X157988000Y-106934000D02*
X159280300Y-106934000D01*
X146853300Y-109898100D02*
X146536500Y-109581300D01*
X129166700Y-111022900D02*
X126281900Y-108138100D01*
X159280300Y-106934000D02*
X159280300Y-108816700D01*
X146536500Y-109581300D02*
X146536500Y-108762800D01*
X125577600Y-101179000D02*
X126869900Y-101179000D01*
X126869900Y-102960100D02*
X126869900Y-101179000D01*
X128492100Y-112651700D02*
X129166700Y-111977100D01*
X143786300Y-94002300D02*
X144018000Y-94234000D01*
X126626700Y-112651700D02*
X128492100Y-112651700D01*
X126281900Y-108138100D02*
X126281900Y-103548100D01*
G04 #@! TO.N,+9V*
X150869300Y-86774800D02*
X150455900Y-87188200D01*
X118062300Y-103971000D02*
X118062300Y-98664400D01*
X118062300Y-98664400D02*
X119357700Y-97369000D01*
X125476600Y-109803200D02*
X122943200Y-109803200D01*
X120650000Y-97369000D02*
X119458600Y-97369000D01*
X151633900Y-86774800D02*
X150869300Y-86774800D01*
X136274100Y-88519000D02*
X136274100Y-86737900D01*
X121208300Y-108068300D02*
X121208300Y-107026700D01*
X119458600Y-97369000D02*
X119359200Y-97369000D01*
X126863300Y-111189900D02*
X125476600Y-109803200D01*
X126863300Y-111500000D02*
X126863300Y-111189900D01*
X122337900Y-91405400D02*
X121198200Y-91405400D01*
X128000000Y-85026700D02*
X126048300Y-86978400D01*
X119126000Y-93477600D02*
X119126000Y-95464000D01*
X119357700Y-97369000D02*
X119357700Y-95695700D01*
X118239000Y-104147700D02*
X118062300Y-103971000D01*
X121198200Y-91405400D02*
X119126000Y-93477600D01*
X118329300Y-104147700D02*
X118239000Y-104147700D01*
X151768100Y-101349100D02*
X151638000Y-101219000D01*
X121208300Y-107026700D02*
X118329300Y-104147700D01*
X119357700Y-95695700D02*
X119126000Y-95464000D01*
X128015000Y-111500000D02*
X126863300Y-111500000D01*
X153060400Y-103124000D02*
X151768100Y-103124000D01*
X122943200Y-109803200D02*
X121208300Y-108068300D01*
X150455900Y-87188200D02*
X150455900Y-100036900D01*
X136274100Y-86737900D02*
X136398000Y-86614000D01*
X151768100Y-103124000D02*
X151768100Y-101349100D01*
X126048300Y-86978400D02*
X126048300Y-87695000D01*
X119359200Y-97369000D02*
X119357700Y-97369000D01*
X128000000Y-83875000D02*
X128000000Y-85026700D01*
X126048300Y-87695000D02*
X122337900Y-91405400D01*
X137566400Y-88519000D02*
X136274100Y-88519000D01*
X150455900Y-100036900D02*
X151638000Y-101219000D01*
G04 #@! TO.N,Pot1_CS_(X9c104)*
X162619500Y-99668300D02*
X161206200Y-98255000D01*
X161206200Y-98255000D02*
X161206200Y-98202400D01*
X162860000Y-100820000D02*
X162860000Y-99668300D01*
X162860000Y-99668300D02*
X162619500Y-99668300D01*
G04 #@! TO.N,Pot1_X9c10x_INC*
X158110700Y-100447100D02*
X158110700Y-101934400D01*
X162860000Y-95740000D02*
X162860000Y-96891700D01*
X162860000Y-96891700D02*
X161666100Y-96891700D01*
X161666100Y-96891700D02*
X158110700Y-100447100D01*
G04 #@! TO.N,Pot2_CS_(X9c104)*
X162860000Y-93200000D02*
X161708300Y-93200000D01*
X157908800Y-94140800D02*
X157193500Y-93425500D01*
X157193500Y-89932900D02*
X158140700Y-88985700D01*
X158369000Y-87884000D02*
X158369000Y-88985700D01*
X157193500Y-93425500D02*
X157193500Y-89932900D01*
X158140700Y-88985700D02*
X158369000Y-88985700D01*
X160767500Y-94140800D02*
X157908800Y-94140800D01*
X161708300Y-93200000D02*
X160767500Y-94140800D01*
G04 #@! TO.N,Pot2_X9c10x_INC*
X161708300Y-88710200D02*
X161708300Y-88120000D01*
X158556200Y-91862300D02*
X161708300Y-88710200D01*
X158369000Y-92964000D02*
X158369000Y-91862300D01*
X158369000Y-91862300D02*
X158556200Y-91862300D01*
X162860000Y-88120000D02*
X161708300Y-88120000D01*
G04 #@! TO.N,Canal_1_buffer*
X157988000Y-104394000D02*
X159280300Y-104394000D01*
X158699200Y-103124000D02*
X156949400Y-104873800D01*
X156695700Y-104873800D02*
X156051500Y-105518000D01*
X156051500Y-105518000D02*
X156051500Y-106965500D01*
X156949400Y-104873800D02*
X156695700Y-104873800D01*
X158699200Y-103124000D02*
X159280300Y-103124000D01*
X156051500Y-106965500D02*
X154178000Y-108839000D01*
X159280300Y-104394000D02*
X159280300Y-103124000D01*
X157988000Y-103124000D02*
X158699200Y-103124000D01*
X151638000Y-108839000D02*
X151638000Y-111895000D01*
G04 #@! TO.N,In_gain_1*
X140172600Y-110348300D02*
X141240000Y-110348300D01*
X141240000Y-111500000D02*
X141240000Y-110348300D01*
X132715000Y-99949000D02*
X137780500Y-105014500D01*
X137780500Y-105014500D02*
X137780500Y-107956200D01*
X137780500Y-107956200D02*
X140172600Y-110348300D01*
G04 #@! TO.N,Canal_2_buffer*
X158200000Y-84451700D02*
X156718000Y-85933700D01*
X156718000Y-85933700D02*
X156718000Y-101219000D01*
X154251900Y-104394000D02*
X154351200Y-104394000D01*
X153060400Y-105664000D02*
X154352700Y-105664000D01*
X158200000Y-83300000D02*
X158200000Y-84451700D01*
X154351200Y-104394000D02*
X154352700Y-104394000D01*
X154351200Y-104394000D02*
X154352700Y-104392500D01*
X153060400Y-104394000D02*
X154251900Y-104394000D01*
X154352700Y-101393700D02*
X154178000Y-101219000D01*
X154352700Y-104392500D02*
X154352700Y-101393700D01*
X154352700Y-104394000D02*
X154352700Y-105664000D01*
G04 #@! TO.N,In_gain_2*
X148346800Y-89322300D02*
X149310700Y-88358400D01*
X149310700Y-85477300D02*
X152642800Y-82145200D01*
X152642800Y-82145200D02*
X153622000Y-82145200D01*
X149310700Y-88358400D02*
X149310700Y-85477300D01*
X153622000Y-82145200D02*
X154508300Y-83031500D01*
X148209000Y-90424000D02*
X148209000Y-89322300D01*
X148209000Y-89322300D02*
X148346800Y-89322300D01*
X155660000Y-83300000D02*
X154508300Y-83300000D01*
X154508300Y-83031500D02*
X154508300Y-83300000D01*
G04 #@! TO.N,Canal_1_gain*
X145474700Y-91336000D02*
X146264200Y-92125500D01*
X147828000Y-101219000D02*
X147828000Y-100117300D01*
X144210800Y-88943500D02*
X144210800Y-89932600D01*
X136398000Y-94234000D02*
X136398000Y-95297700D01*
X124285300Y-99909000D02*
X124285300Y-103004700D01*
X146264200Y-92125500D02*
X146264200Y-98553500D01*
X144070400Y-90073100D02*
X145333300Y-91336000D01*
X134817100Y-96878600D02*
X134817100Y-99031500D01*
X146264200Y-98553500D02*
X147828000Y-100117300D01*
X144070400Y-90073000D02*
X144070400Y-90073100D01*
X134817100Y-99031500D02*
X135676800Y-99891200D01*
X124285300Y-103004700D02*
X124206000Y-103084000D01*
X144210800Y-89932600D02*
X144070400Y-90073000D01*
X143786300Y-88519000D02*
X144210800Y-88943500D01*
X125577600Y-99909000D02*
X124285300Y-99909000D01*
X145333300Y-91336000D02*
X145474700Y-91336000D01*
X136398000Y-95297700D02*
X134817100Y-96878600D01*
X142494000Y-88519000D02*
X143786300Y-88519000D01*
G04 #@! TO.N,Canal_2_gain*
X126746000Y-95464000D02*
X126746000Y-96657800D01*
X127903100Y-85840200D02*
X126450000Y-87293300D01*
X129794000Y-99705800D02*
X129794000Y-104140000D01*
X132543200Y-85840200D02*
X127903100Y-85840200D01*
X126450000Y-87293300D02*
X126450000Y-88111300D01*
X138112600Y-89789000D02*
X137566400Y-89789000D01*
X126450000Y-88111300D02*
X125426100Y-89135200D01*
X138858700Y-86693300D02*
X138938000Y-86614000D01*
X126746000Y-96657800D02*
X125426100Y-96657800D01*
X126746000Y-96657800D02*
X129794000Y-99705800D01*
X136274100Y-89571100D02*
X132543200Y-85840200D01*
X120650000Y-101179000D02*
X121942300Y-101179000D01*
X137566400Y-89789000D02*
X136274100Y-89789000D01*
X122366500Y-100754800D02*
X121942300Y-101179000D01*
X122366500Y-98567900D02*
X122366500Y-100754800D01*
X125426100Y-96657800D02*
X124276600Y-96657800D01*
X138858700Y-89789000D02*
X138858700Y-86693300D01*
X138112600Y-89789000D02*
X138858700Y-89789000D01*
X125426100Y-89135200D02*
X125426100Y-96657800D01*
X124276600Y-96657800D02*
X122366500Y-98567900D01*
X136274100Y-89789000D02*
X136274100Y-89571100D01*
G04 #@! TO.N,+5V*
X159470700Y-98044000D02*
X159470700Y-97493200D01*
X162493900Y-94470000D02*
X163246800Y-94470000D01*
X165400000Y-93200000D02*
X164248300Y-93200000D01*
X120394900Y-106871600D02*
X117300200Y-103776900D01*
X159470700Y-97493200D02*
X162493900Y-94470000D01*
X142875000Y-107569000D02*
X143976700Y-107569000D01*
X158369000Y-98044000D02*
X159470700Y-98044000D01*
X121768300Y-84306200D02*
X121768300Y-83875000D01*
X149389800Y-108861000D02*
X149389800Y-100326500D01*
X117300200Y-103776900D02*
X117300200Y-88774300D01*
X122935000Y-111500000D02*
X122935000Y-110348300D01*
X120395000Y-106871600D02*
X120394900Y-106871600D01*
X145851100Y-109755200D02*
X146601800Y-110505900D01*
X147744900Y-110505900D02*
X149389800Y-108861000D01*
X122935000Y-110348300D02*
X122863000Y-110348300D01*
X122920000Y-83875000D02*
X121768300Y-83875000D01*
X117300200Y-88774300D02*
X121768300Y-84306200D01*
X120395000Y-107880300D02*
X120395000Y-106871600D01*
X145498600Y-108292900D02*
X145851100Y-108645400D01*
X149389800Y-100326500D02*
X148209000Y-99145700D01*
X122863000Y-110348300D02*
X120395000Y-107880300D01*
X164248300Y-93468500D02*
X164248300Y-93200000D01*
X143976700Y-107569000D02*
X144700600Y-108292900D01*
X144700600Y-108292900D02*
X145498600Y-108292900D01*
X163246800Y-94470000D02*
X164248300Y-93468500D01*
X148209000Y-98044000D02*
X148209000Y-99145700D01*
X146601800Y-110505900D02*
X147744900Y-110505900D01*
X145851100Y-108645400D02*
X145851100Y-109755200D01*
G04 #@! TO.N,auxiliar_1*
X140199200Y-90791500D02*
X140199200Y-92972800D01*
X146665900Y-98278900D02*
X148938100Y-100551100D01*
X146665900Y-91753000D02*
X146665900Y-98278900D01*
X145215900Y-91786600D02*
X145215900Y-103613800D01*
X145966100Y-84685600D02*
X145966100Y-91053200D01*
X141847900Y-89789000D02*
X142494000Y-89789000D01*
X143668600Y-89906800D02*
X143668600Y-90239300D01*
X132715000Y-105029000D02*
X132715000Y-102489000D01*
X145966100Y-91053200D02*
X146665900Y-91753000D01*
X143786300Y-89789000D02*
X143786300Y-89789100D01*
X143786300Y-89789100D02*
X143668600Y-89906800D01*
X148938100Y-100551100D02*
X148938100Y-102503700D01*
X147828000Y-108839000D02*
X147828000Y-103613800D01*
X141201700Y-89789000D02*
X140199200Y-90791500D01*
X140199200Y-92972800D02*
X138938000Y-94234000D01*
X148938100Y-102503700D02*
X147828000Y-103613800D01*
X146600000Y-82900000D02*
X146600000Y-84051700D01*
X145215900Y-103613800D02*
X147828000Y-103613800D01*
X146600000Y-84051700D02*
X145966100Y-84685600D01*
X141847900Y-89789000D02*
X141201700Y-89789000D01*
X142494000Y-89789000D02*
X143786300Y-89789000D01*
X143668600Y-90239300D02*
X145215900Y-91786600D01*
G04 #@! TO.N,auxiliar_2*
X136274100Y-91059000D02*
X134344400Y-92988700D01*
X138858700Y-90367700D02*
X138858700Y-91059000D01*
X131596800Y-100442100D02*
X131596800Y-98523100D01*
X148209000Y-95504000D02*
X148209000Y-92964000D01*
X140043500Y-88048500D02*
X140043500Y-89182900D01*
X134800000Y-103014600D02*
X133004400Y-101219000D01*
X137566400Y-91059000D02*
X136274100Y-91059000D01*
X148209000Y-91862300D02*
X147980700Y-91862300D01*
X133004400Y-101219000D02*
X132373700Y-101219000D01*
X138111700Y-91059000D02*
X137566400Y-91059000D01*
X138111700Y-91059000D02*
X138858700Y-91059000D01*
X133230400Y-98523100D02*
X131596800Y-98523100D01*
X134344400Y-97409100D02*
X133230400Y-98523100D01*
X147018100Y-90899700D02*
X147018100Y-85352100D01*
X132373700Y-101219000D02*
X131596800Y-100442100D01*
X134800000Y-111600000D02*
X134800000Y-103014600D01*
X141478000Y-86614000D02*
X140043500Y-88048500D01*
X134344400Y-92988700D02*
X134344400Y-97409100D01*
X131596800Y-98322800D02*
X131596800Y-98523100D01*
X140043500Y-89182900D02*
X138858700Y-90367700D01*
X148209000Y-92964000D02*
X148209000Y-91862300D01*
X129794000Y-96520000D02*
X131596800Y-98322800D01*
X147980700Y-91862300D02*
X147018100Y-90899700D01*
G04 #@! TD*
G04 #@! TA.AperFunction,Conductor*
G04 #@! TO.N,Earth*
G36*
X135872439Y-82019685D02*
G01*
X135918194Y-82072489D01*
X135929400Y-82124000D01*
X135929400Y-83647870D01*
X135929401Y-83647876D01*
X135935808Y-83707483D01*
X135986102Y-83842328D01*
X135986106Y-83842335D01*
X136072352Y-83957544D01*
X136072355Y-83957547D01*
X136187564Y-84043793D01*
X136187571Y-84043797D01*
X136322417Y-84094091D01*
X136322416Y-84094091D01*
X136329344Y-84094835D01*
X136382027Y-84100500D01*
X138077772Y-84100499D01*
X138137383Y-84094091D01*
X138272231Y-84043796D01*
X138387446Y-83957546D01*
X138473696Y-83842331D01*
X138523991Y-83707483D01*
X138530400Y-83647873D01*
X138530399Y-82123999D01*
X138550084Y-82056961D01*
X138602887Y-82011206D01*
X138654399Y-82000000D01*
X142585500Y-82000000D01*
X142652539Y-82019685D01*
X142698294Y-82072489D01*
X142709500Y-82124000D01*
X142709500Y-83797870D01*
X142709501Y-83797876D01*
X142715908Y-83857483D01*
X142766202Y-83992328D01*
X142766206Y-83992335D01*
X142852452Y-84107544D01*
X142852455Y-84107547D01*
X142967664Y-84193793D01*
X142967671Y-84193797D01*
X143102517Y-84244091D01*
X143102516Y-84244091D01*
X143109444Y-84244835D01*
X143162127Y-84250500D01*
X144957872Y-84250499D01*
X145017483Y-84244091D01*
X145152331Y-84193796D01*
X145267546Y-84107546D01*
X145353796Y-83992331D01*
X145402810Y-83860916D01*
X145444681Y-83804984D01*
X145510145Y-83780566D01*
X145578418Y-83795417D01*
X145606673Y-83816569D01*
X145708603Y-83918499D01*
X145742088Y-83979822D01*
X145737104Y-84049514D01*
X145708603Y-84093861D01*
X145485581Y-84316882D01*
X145485577Y-84316887D01*
X145474168Y-84336650D01*
X145467088Y-84348914D01*
X145406523Y-84453815D01*
X145365599Y-84606543D01*
X145365599Y-84606545D01*
X145365599Y-84774646D01*
X145365600Y-84774659D01*
X145365600Y-90219703D01*
X145345915Y-90286742D01*
X145293111Y-90332497D01*
X145223953Y-90342441D01*
X145160397Y-90313416D01*
X145153919Y-90307384D01*
X144847620Y-90001085D01*
X144832917Y-89974159D01*
X144816324Y-89948341D01*
X144815432Y-89942137D01*
X144814135Y-89939762D01*
X144811301Y-89913406D01*
X144811301Y-89882203D01*
X144811301Y-89853542D01*
X144811300Y-89853538D01*
X144811300Y-89032560D01*
X144811301Y-89032547D01*
X144811301Y-88864444D01*
X144811301Y-88864443D01*
X144770377Y-88711716D01*
X144751725Y-88679409D01*
X144691324Y-88574790D01*
X144691318Y-88574782D01*
X144155017Y-88038481D01*
X144155016Y-88038480D01*
X144064727Y-87986352D01*
X144018085Y-87959423D01*
X143906313Y-87929473D01*
X143900878Y-87927457D01*
X143877321Y-87909890D01*
X143852242Y-87894603D01*
X143844901Y-87885714D01*
X143844868Y-87885689D01*
X143844857Y-87885660D01*
X143844729Y-87885505D01*
X143842146Y-87882054D01*
X143842142Y-87882051D01*
X143726935Y-87795806D01*
X143726928Y-87795802D01*
X143592082Y-87745508D01*
X143592083Y-87745508D01*
X143532483Y-87739101D01*
X143532481Y-87739100D01*
X143532473Y-87739100D01*
X143532465Y-87739100D01*
X142437707Y-87739100D01*
X142370668Y-87719415D01*
X142324913Y-87666611D01*
X142314969Y-87597453D01*
X142343994Y-87533897D01*
X142350026Y-87527419D01*
X142394862Y-87482583D01*
X142440981Y-87436464D01*
X142557787Y-87275694D01*
X142648005Y-87098632D01*
X142709413Y-86909636D01*
X142740500Y-86713361D01*
X142740500Y-86514639D01*
X142709413Y-86318364D01*
X142676487Y-86217028D01*
X142648006Y-86129370D01*
X142648005Y-86129367D01*
X142557786Y-85952305D01*
X142440981Y-85791536D01*
X142300464Y-85651019D01*
X142139694Y-85534213D01*
X141962632Y-85443994D01*
X141962629Y-85443993D01*
X141773637Y-85382587D01*
X141675498Y-85367043D01*
X141577361Y-85351500D01*
X141378639Y-85351500D01*
X141313214Y-85361862D01*
X141182362Y-85382587D01*
X140993370Y-85443993D01*
X140993367Y-85443994D01*
X140816305Y-85534213D01*
X140655533Y-85651021D01*
X140515021Y-85791533D01*
X140398213Y-85952305D01*
X140318485Y-86108780D01*
X140270510Y-86159576D01*
X140202689Y-86176371D01*
X140136554Y-86153833D01*
X140097515Y-86108780D01*
X140064396Y-86043781D01*
X140017787Y-85952306D01*
X139900981Y-85791536D01*
X139760464Y-85651019D01*
X139599694Y-85534213D01*
X139422632Y-85443994D01*
X139422629Y-85443993D01*
X139233637Y-85382587D01*
X139135498Y-85367043D01*
X139037361Y-85351500D01*
X138838639Y-85351500D01*
X138773214Y-85361862D01*
X138642362Y-85382587D01*
X138453370Y-85443993D01*
X138453367Y-85443994D01*
X138276305Y-85534213D01*
X138115533Y-85651021D01*
X137975021Y-85791533D01*
X137858213Y-85952305D01*
X137778485Y-86108780D01*
X137730510Y-86159576D01*
X137662689Y-86176371D01*
X137596554Y-86153833D01*
X137557515Y-86108780D01*
X137524396Y-86043781D01*
X137477787Y-85952306D01*
X137360981Y-85791536D01*
X137220464Y-85651019D01*
X137059694Y-85534213D01*
X136882632Y-85443994D01*
X136882629Y-85443993D01*
X136693637Y-85382587D01*
X136595498Y-85367043D01*
X136497361Y-85351500D01*
X136298639Y-85351500D01*
X136233214Y-85361862D01*
X136102362Y-85382587D01*
X135913370Y-85443993D01*
X135913367Y-85443994D01*
X135736305Y-85534213D01*
X135575533Y-85651021D01*
X135435021Y-85791533D01*
X135318213Y-85952305D01*
X135227994Y-86129367D01*
X135227993Y-86129370D01*
X135166587Y-86318362D01*
X135135500Y-86514639D01*
X135135500Y-86713360D01*
X135166587Y-86909637D01*
X135227993Y-87098629D01*
X135227994Y-87098632D01*
X135298454Y-87236915D01*
X135318213Y-87275694D01*
X135435019Y-87436464D01*
X135435021Y-87436466D01*
X135575537Y-87576982D01*
X135575544Y-87576988D01*
X135622483Y-87611090D01*
X135665150Y-87666419D01*
X135673600Y-87711409D01*
X135673600Y-87822003D01*
X135653915Y-87889042D01*
X135601111Y-87934797D01*
X135531953Y-87944741D01*
X135468397Y-87915716D01*
X135461919Y-87909684D01*
X133030790Y-85478555D01*
X133030788Y-85478552D01*
X132911917Y-85359681D01*
X132911916Y-85359680D01*
X132825104Y-85309560D01*
X132825104Y-85309559D01*
X132825100Y-85309558D01*
X132774985Y-85280623D01*
X132622257Y-85239699D01*
X132464143Y-85239699D01*
X132456547Y-85239699D01*
X132456531Y-85239700D01*
X128800891Y-85239700D01*
X128733852Y-85220015D01*
X128688097Y-85167211D01*
X128678153Y-85098053D01*
X128707178Y-85034497D01*
X128727999Y-85015386D01*
X128879792Y-84905104D01*
X129030104Y-84754792D01*
X129030106Y-84754788D01*
X129030109Y-84754786D01*
X129155048Y-84582820D01*
X129155047Y-84582820D01*
X129155051Y-84582816D01*
X129251557Y-84393412D01*
X129317246Y-84191243D01*
X129350500Y-83981287D01*
X129350500Y-83768713D01*
X129317246Y-83558757D01*
X129251557Y-83356588D01*
X129155051Y-83167184D01*
X129155049Y-83167181D01*
X129155048Y-83167179D01*
X129030109Y-82995213D01*
X128879786Y-82844890D01*
X128707820Y-82719951D01*
X128518414Y-82623444D01*
X128518413Y-82623443D01*
X128518412Y-82623443D01*
X128316243Y-82557754D01*
X128316241Y-82557753D01*
X128316240Y-82557753D01*
X128154957Y-82532208D01*
X128106287Y-82524500D01*
X127893713Y-82524500D01*
X127845042Y-82532208D01*
X127683760Y-82557753D01*
X127481585Y-82623444D01*
X127292179Y-82719951D01*
X127120213Y-82844890D01*
X126969890Y-82995213D01*
X126844949Y-83167182D01*
X126840484Y-83175946D01*
X126792509Y-83226742D01*
X126724688Y-83243536D01*
X126658553Y-83220998D01*
X126619516Y-83175946D01*
X126615050Y-83167182D01*
X126490109Y-82995213D01*
X126339786Y-82844890D01*
X126167820Y-82719951D01*
X125978414Y-82623444D01*
X125978413Y-82623443D01*
X125978412Y-82623443D01*
X125776243Y-82557754D01*
X125776241Y-82557753D01*
X125776240Y-82557753D01*
X125614957Y-82532208D01*
X125566287Y-82524500D01*
X125353713Y-82524500D01*
X125305042Y-82532208D01*
X125143760Y-82557753D01*
X124941585Y-82623444D01*
X124752179Y-82719951D01*
X124580213Y-82844890D01*
X124429890Y-82995213D01*
X124304949Y-83167182D01*
X124300484Y-83175946D01*
X124252509Y-83226742D01*
X124184688Y-83243536D01*
X124118553Y-83220998D01*
X124079516Y-83175946D01*
X124075050Y-83167182D01*
X123950109Y-82995213D01*
X123799786Y-82844890D01*
X123627820Y-82719951D01*
X123438414Y-82623444D01*
X123438413Y-82623443D01*
X123438412Y-82623443D01*
X123236243Y-82557754D01*
X123236241Y-82557753D01*
X123236240Y-82557753D01*
X123074957Y-82532208D01*
X123026287Y-82524500D01*
X122813713Y-82524500D01*
X122765042Y-82532208D01*
X122603760Y-82557753D01*
X122401585Y-82623444D01*
X122212179Y-82719951D01*
X122040213Y-82844890D01*
X121889890Y-82995213D01*
X121764948Y-83167184D01*
X121764946Y-83167187D01*
X121760481Y-83175950D01*
X121712505Y-83226744D01*
X121644683Y-83243537D01*
X121578549Y-83220997D01*
X121539513Y-83175944D01*
X121535050Y-83167184D01*
X121535048Y-83167181D01*
X121535047Y-83167179D01*
X121410108Y-82995213D01*
X121259785Y-82844890D01*
X121087819Y-82719951D01*
X120898413Y-82623444D01*
X120898412Y-82623443D01*
X120898411Y-82623443D01*
X120696242Y-82557754D01*
X120696240Y-82557753D01*
X120696239Y-82557753D01*
X120534956Y-82532208D01*
X120486286Y-82524500D01*
X120273712Y-82524500D01*
X120225041Y-82532208D01*
X120063759Y-82557753D01*
X119861584Y-82623444D01*
X119672178Y-82719951D01*
X119500212Y-82844890D01*
X119349889Y-82995213D01*
X119224950Y-83167179D01*
X119128443Y-83356585D01*
X119062752Y-83558760D01*
X119039197Y-83707482D01*
X119029499Y-83768713D01*
X119029499Y-83981287D01*
X119039399Y-84043793D01*
X119061460Y-84183084D01*
X119062753Y-84191243D01*
X119103577Y-84316887D01*
X119128443Y-84393414D01*
X119224950Y-84582820D01*
X119349889Y-84754786D01*
X119488602Y-84893499D01*
X119522087Y-84954822D01*
X119517103Y-85024514D01*
X119488602Y-85068861D01*
X117335584Y-87221879D01*
X117274261Y-87255364D01*
X117204569Y-87250380D01*
X117148636Y-87208508D01*
X117127022Y-87151181D01*
X117125262Y-87151460D01*
X117120155Y-87119219D01*
X117107099Y-87036786D01*
X117092477Y-86944465D01*
X117046432Y-86802754D01*
X117029220Y-86749781D01*
X117029218Y-86749778D01*
X117029218Y-86749776D01*
X116963600Y-86620995D01*
X116936287Y-86567390D01*
X116925342Y-86552326D01*
X116815971Y-86401786D01*
X116671213Y-86257028D01*
X116505613Y-86136715D01*
X116505612Y-86136714D01*
X116505610Y-86136713D01*
X116427106Y-86096713D01*
X116323223Y-86043781D01*
X116128534Y-85980522D01*
X115950375Y-85952305D01*
X115926352Y-85948500D01*
X115721648Y-85948500D01*
X115697625Y-85952305D01*
X115519465Y-85980522D01*
X115324776Y-86043781D01*
X115142386Y-86136715D01*
X114976786Y-86257028D01*
X114832028Y-86401786D01*
X114711715Y-86567386D01*
X114618781Y-86749776D01*
X114555522Y-86944465D01*
X114523500Y-87146648D01*
X114523500Y-87351351D01*
X114555522Y-87553534D01*
X114618781Y-87748223D01*
X114678902Y-87866215D01*
X114710106Y-87927457D01*
X114711715Y-87930613D01*
X114832028Y-88096213D01*
X114976786Y-88240971D01*
X115109586Y-88337454D01*
X115142390Y-88361287D01*
X115238195Y-88410102D01*
X115324776Y-88454218D01*
X115324778Y-88454218D01*
X115324781Y-88454220D01*
X115395325Y-88477141D01*
X115519465Y-88517477D01*
X115623012Y-88533877D01*
X115721648Y-88549500D01*
X115721649Y-88549500D01*
X115726460Y-88550262D01*
X115726176Y-88552050D01*
X115784210Y-88574165D01*
X115825684Y-88630394D01*
X115830174Y-88700120D01*
X115796879Y-88760584D01*
X115455286Y-89102178D01*
X115343482Y-89213981D01*
X115343480Y-89213983D01*
X115343480Y-89213984D01*
X115298154Y-89292491D01*
X115298153Y-89292491D01*
X115264424Y-89350912D01*
X115264423Y-89350913D01*
X115247336Y-89414685D01*
X115223499Y-89503643D01*
X115223499Y-89503645D01*
X115223499Y-89671746D01*
X115223500Y-89671759D01*
X115223500Y-93639397D01*
X115203815Y-93706436D01*
X115155800Y-93749879D01*
X115142389Y-93756712D01*
X114976786Y-93877028D01*
X114832028Y-94021786D01*
X114711715Y-94187386D01*
X114618781Y-94369776D01*
X114555522Y-94564465D01*
X114523500Y-94766648D01*
X114523500Y-94971351D01*
X114555522Y-95173534D01*
X114618781Y-95368223D01*
X114657049Y-95443327D01*
X114709643Y-95546548D01*
X114711715Y-95550613D01*
X114832028Y-95716213D01*
X114976784Y-95860969D01*
X115020890Y-95893013D01*
X115045384Y-95910809D01*
X115048725Y-95915140D01*
X115053703Y-95917414D01*
X115069834Y-95942514D01*
X115088050Y-95966137D01*
X115089303Y-95972809D01*
X115091477Y-95976192D01*
X115096500Y-96011127D01*
X115096500Y-96179397D01*
X115076815Y-96246436D01*
X115028800Y-96289879D01*
X115015389Y-96296712D01*
X114849786Y-96417028D01*
X114705028Y-96561786D01*
X114584715Y-96727386D01*
X114491781Y-96909776D01*
X114428522Y-97104465D01*
X114396500Y-97306648D01*
X114396500Y-97511351D01*
X114428522Y-97713534D01*
X114491781Y-97908223D01*
X114584715Y-98090613D01*
X114705028Y-98256213D01*
X114705034Y-98256219D01*
X114849781Y-98400966D01*
X115015390Y-98521287D01*
X115028793Y-98528116D01*
X115079589Y-98576088D01*
X115096500Y-98638601D01*
X115096500Y-102655030D01*
X115096499Y-102655048D01*
X115096499Y-102820754D01*
X115096498Y-102820754D01*
X115128667Y-102940811D01*
X115137423Y-102973485D01*
X115139704Y-102977436D01*
X115162327Y-103016620D01*
X115216477Y-103110412D01*
X115216481Y-103110417D01*
X115335349Y-103229285D01*
X115335355Y-103229290D01*
X115629677Y-103523612D01*
X115663162Y-103584935D01*
X115658178Y-103654627D01*
X115616306Y-103710560D01*
X115561395Y-103733766D01*
X115392464Y-103760523D01*
X115197776Y-103823781D01*
X115015386Y-103916715D01*
X114849786Y-104037028D01*
X114705028Y-104181786D01*
X114584715Y-104347386D01*
X114491781Y-104529776D01*
X114428522Y-104724465D01*
X114397553Y-104920002D01*
X114396500Y-104926648D01*
X114396500Y-105131352D01*
X114398230Y-105142274D01*
X114428522Y-105333534D01*
X114491781Y-105528223D01*
X114548349Y-105639241D01*
X114583762Y-105708744D01*
X114584715Y-105710613D01*
X114705028Y-105876213D01*
X114815958Y-105987143D01*
X114820296Y-105995088D01*
X114827543Y-106000513D01*
X114836778Y-106025272D01*
X114849443Y-106048466D01*
X114848797Y-106057495D01*
X114851961Y-106065977D01*
X114846344Y-106091799D01*
X114844459Y-106118158D01*
X114838641Y-106127210D01*
X114837110Y-106134250D01*
X114815959Y-106162504D01*
X114715285Y-106263180D01*
X114653962Y-106296666D01*
X114627603Y-106299500D01*
X114587648Y-106299500D01*
X114563329Y-106303351D01*
X114385465Y-106331522D01*
X114190776Y-106394781D01*
X114008386Y-106487715D01*
X113842786Y-106608028D01*
X113698028Y-106752786D01*
X113577715Y-106918386D01*
X113484781Y-107100776D01*
X113421522Y-107295465D01*
X113389500Y-107497648D01*
X113389500Y-107702351D01*
X113421522Y-107904534D01*
X113484781Y-108099223D01*
X113524567Y-108177306D01*
X113577253Y-108280708D01*
X113577715Y-108281613D01*
X113698028Y-108447213D01*
X113842786Y-108591971D01*
X113968565Y-108683353D01*
X114008390Y-108712287D01*
X114119103Y-108768698D01*
X114190776Y-108805218D01*
X114190778Y-108805218D01*
X114190781Y-108805220D01*
X114271678Y-108831505D01*
X114385465Y-108868477D01*
X114486557Y-108884488D01*
X114587648Y-108900500D01*
X114587649Y-108900500D01*
X114792351Y-108900500D01*
X114792352Y-108900500D01*
X114994534Y-108868477D01*
X115189219Y-108805220D01*
X115371610Y-108712287D01*
X115464590Y-108644732D01*
X115537213Y-108591971D01*
X115537215Y-108591968D01*
X115537219Y-108591966D01*
X115681966Y-108447219D01*
X115681968Y-108447215D01*
X115681971Y-108447213D01*
X115749424Y-108354370D01*
X115802287Y-108281610D01*
X115895220Y-108099219D01*
X115958477Y-107904534D01*
X115990500Y-107702352D01*
X115990500Y-107497648D01*
X115965229Y-107338097D01*
X115958477Y-107295465D01*
X115895218Y-107100776D01*
X115841181Y-106994723D01*
X115828421Y-106969682D01*
X115815526Y-106901014D01*
X115841802Y-106836273D01*
X115851217Y-106825716D01*
X116055506Y-106621428D01*
X116055511Y-106621424D01*
X116065714Y-106611220D01*
X116065716Y-106611220D01*
X116177520Y-106499416D01*
X116242310Y-106387196D01*
X116256577Y-106362485D01*
X116292590Y-106228078D01*
X116293751Y-106224592D01*
X116311655Y-106198800D01*
X116327998Y-106171989D01*
X116332360Y-106168975D01*
X116333595Y-106167197D01*
X116336943Y-106165809D01*
X116355108Y-106153261D01*
X116378610Y-106141287D01*
X116544219Y-106020966D01*
X116688966Y-105876219D01*
X116688968Y-105876215D01*
X116688971Y-105876213D01*
X116776162Y-105756203D01*
X116809287Y-105710610D01*
X116902220Y-105528219D01*
X116965477Y-105333534D01*
X116992233Y-105164604D01*
X117022162Y-105101470D01*
X117081474Y-105064539D01*
X117151336Y-105065537D01*
X117202387Y-105096322D01*
X119356481Y-107250416D01*
X119389966Y-107311739D01*
X119392800Y-107338097D01*
X119392800Y-109859930D01*
X119392799Y-109859948D01*
X119392799Y-110025654D01*
X119392798Y-110025654D01*
X119433354Y-110177011D01*
X119433723Y-110178385D01*
X119449798Y-110206227D01*
X119512780Y-110315316D01*
X119516449Y-110318985D01*
X119523122Y-110330275D01*
X119529936Y-110357164D01*
X119539942Y-110383040D01*
X119538399Y-110390561D01*
X119540286Y-110398004D01*
X119531480Y-110424311D01*
X119525909Y-110451486D01*
X119519468Y-110460197D01*
X119518109Y-110464260D01*
X119514064Y-110467507D01*
X119504055Y-110481048D01*
X119364888Y-110620215D01*
X119239950Y-110792179D01*
X119143443Y-110981585D01*
X119077752Y-111183760D01*
X119051759Y-111347873D01*
X119044499Y-111393713D01*
X119044499Y-111606287D01*
X119051086Y-111647873D01*
X119077739Y-111816158D01*
X119077753Y-111816243D01*
X119128960Y-111973842D01*
X119143443Y-112018414D01*
X119239947Y-112207815D01*
X119309186Y-112303115D01*
X119332665Y-112368922D01*
X119316839Y-112436976D01*
X119266733Y-112485670D01*
X119208867Y-112500000D01*
X108124000Y-112500000D01*
X108056961Y-112480315D01*
X108011206Y-112427511D01*
X108000000Y-112376000D01*
X108000000Y-109952135D01*
X109299500Y-109952135D01*
X109299500Y-111647870D01*
X109299501Y-111647876D01*
X109305908Y-111707483D01*
X109356202Y-111842328D01*
X109356206Y-111842335D01*
X109442452Y-111957544D01*
X109442455Y-111957547D01*
X109557664Y-112043793D01*
X109557671Y-112043797D01*
X109692517Y-112094091D01*
X109692516Y-112094091D01*
X109699444Y-112094835D01*
X109752127Y-112100500D01*
X111447872Y-112100499D01*
X111507483Y-112094091D01*
X111642331Y-112043796D01*
X111757546Y-111957546D01*
X111843796Y-111842331D01*
X111894091Y-111707483D01*
X111900500Y-111647873D01*
X111900499Y-109952128D01*
X111894091Y-109892517D01*
X111884776Y-109867543D01*
X111843797Y-109757671D01*
X111843793Y-109757664D01*
X111757547Y-109642455D01*
X111757544Y-109642452D01*
X111642335Y-109556206D01*
X111642328Y-109556202D01*
X111507482Y-109505908D01*
X111507483Y-109505908D01*
X111447883Y-109499501D01*
X111447881Y-109499500D01*
X111447873Y-109499500D01*
X111447864Y-109499500D01*
X109752129Y-109499500D01*
X109752123Y-109499501D01*
X109692516Y-109505908D01*
X109557671Y-109556202D01*
X109557664Y-109556206D01*
X109442455Y-109642452D01*
X109442452Y-109642455D01*
X109356206Y-109757664D01*
X109356202Y-109757671D01*
X109305908Y-109892517D01*
X109301038Y-109937819D01*
X109299501Y-109952123D01*
X109299500Y-109952135D01*
X108000000Y-109952135D01*
X108000000Y-104926648D01*
X111348500Y-104926648D01*
X111348500Y-105131352D01*
X111350230Y-105142274D01*
X111380522Y-105333534D01*
X111443781Y-105528223D01*
X111500349Y-105639241D01*
X111535762Y-105708744D01*
X111536715Y-105710613D01*
X111657028Y-105876213D01*
X111801786Y-106020971D01*
X111951279Y-106129582D01*
X111967390Y-106141287D01*
X112064902Y-106190972D01*
X112149776Y-106234218D01*
X112149778Y-106234218D01*
X112149781Y-106234220D01*
X112238911Y-106263180D01*
X112344465Y-106297477D01*
X112445557Y-106313488D01*
X112546648Y-106329500D01*
X112546649Y-106329500D01*
X112751351Y-106329500D01*
X112751352Y-106329500D01*
X112953534Y-106297477D01*
X113148219Y-106234220D01*
X113330610Y-106141287D01*
X113445941Y-106057495D01*
X113496213Y-106020971D01*
X113496215Y-106020968D01*
X113496219Y-106020966D01*
X113640966Y-105876219D01*
X113640968Y-105876215D01*
X113640971Y-105876213D01*
X113728162Y-105756203D01*
X113761287Y-105710610D01*
X113854220Y-105528219D01*
X113917477Y-105333534D01*
X113949500Y-105131352D01*
X113949500Y-104926648D01*
X113923595Y-104763093D01*
X113917477Y-104724465D01*
X113885058Y-104624692D01*
X113854220Y-104529781D01*
X113854218Y-104529778D01*
X113854218Y-104529776D01*
X113795379Y-104414300D01*
X113761287Y-104347390D01*
X113731412Y-104306270D01*
X113640971Y-104181786D01*
X113496213Y-104037028D01*
X113330613Y-103916715D01*
X113330612Y-103916714D01*
X113330610Y-103916713D01*
X113250565Y-103875928D01*
X113148223Y-103823781D01*
X112953534Y-103760522D01*
X112766511Y-103730901D01*
X112751352Y-103728500D01*
X112546648Y-103728500D01*
X112531489Y-103730901D01*
X112344465Y-103760522D01*
X112149776Y-103823781D01*
X111967386Y-103916715D01*
X111801786Y-104037028D01*
X111657028Y-104181786D01*
X111536715Y-104347386D01*
X111443781Y-104529776D01*
X111380522Y-104724465D01*
X111349553Y-104920002D01*
X111348500Y-104926648D01*
X108000000Y-104926648D01*
X108000000Y-99790258D01*
X108019685Y-99723219D01*
X108072489Y-99677464D01*
X108141647Y-99667520D01*
X108205203Y-99696545D01*
X108211681Y-99702577D01*
X108340213Y-99831109D01*
X108512179Y-99956048D01*
X108512181Y-99956049D01*
X108512184Y-99956051D01*
X108701588Y-100052557D01*
X108903757Y-100118246D01*
X109113713Y-100151500D01*
X109113714Y-100151500D01*
X109326286Y-100151500D01*
X109326287Y-100151500D01*
X109536243Y-100118246D01*
X109738412Y-100052557D01*
X109927816Y-99956051D01*
X110031980Y-99880372D01*
X110099786Y-99831109D01*
X110099788Y-99831106D01*
X110099792Y-99831104D01*
X110250104Y-99680792D01*
X110250106Y-99680788D01*
X110250109Y-99680786D01*
X110372722Y-99512021D01*
X110375051Y-99508816D01*
X110471557Y-99319412D01*
X110537246Y-99117243D01*
X110570500Y-98907287D01*
X110570500Y-98694713D01*
X110537246Y-98484757D01*
X110471557Y-98282588D01*
X110375051Y-98093184D01*
X110375049Y-98093181D01*
X110375048Y-98093179D01*
X110250109Y-97921213D01*
X110136569Y-97807673D01*
X110103084Y-97746350D01*
X110108068Y-97676658D01*
X110149940Y-97620725D01*
X110180915Y-97603810D01*
X110312331Y-97554796D01*
X110427546Y-97468546D01*
X110513796Y-97353331D01*
X110564091Y-97218483D01*
X110570500Y-97158873D01*
X110570499Y-95363128D01*
X110564091Y-95303517D01*
X110548818Y-95262569D01*
X110513796Y-95168669D01*
X110513793Y-95168664D01*
X110427547Y-95053455D01*
X110427544Y-95053452D01*
X110312335Y-94967206D01*
X110312328Y-94967202D01*
X110177482Y-94916908D01*
X110177483Y-94916908D01*
X110117883Y-94910501D01*
X110117881Y-94910500D01*
X110117873Y-94910500D01*
X110117865Y-94910500D01*
X108679500Y-94910500D01*
X108612461Y-94890815D01*
X108566706Y-94838011D01*
X108555500Y-94786500D01*
X108555500Y-88997665D01*
X108575185Y-88930626D01*
X108576398Y-88928774D01*
X108664390Y-88797085D01*
X108664390Y-88797084D01*
X108664394Y-88797079D01*
X108724737Y-88651397D01*
X108755500Y-88496742D01*
X108755500Y-88339058D01*
X108755500Y-88339055D01*
X108755499Y-88339053D01*
X108751965Y-88321286D01*
X108724737Y-88184403D01*
X108724735Y-88184398D01*
X108664397Y-88038727D01*
X108664390Y-88038714D01*
X108576789Y-87907611D01*
X108576786Y-87907607D01*
X108465292Y-87796113D01*
X108465288Y-87796110D01*
X108334185Y-87708509D01*
X108334172Y-87708502D01*
X108188501Y-87648164D01*
X108188491Y-87648161D01*
X108099808Y-87630521D01*
X108037897Y-87598136D01*
X108003323Y-87537420D01*
X108000000Y-87508904D01*
X108000000Y-87146648D01*
X111475500Y-87146648D01*
X111475500Y-87351351D01*
X111507522Y-87553534D01*
X111570781Y-87748223D01*
X111630902Y-87866215D01*
X111662106Y-87927457D01*
X111663715Y-87930613D01*
X111784028Y-88096213D01*
X111928786Y-88240971D01*
X112061586Y-88337454D01*
X112094390Y-88361287D01*
X112190195Y-88410102D01*
X112276776Y-88454218D01*
X112276778Y-88454218D01*
X112276781Y-88454220D01*
X112347325Y-88477141D01*
X112471465Y-88517477D01*
X112572557Y-88533488D01*
X112673648Y-88549500D01*
X112673649Y-88549500D01*
X112878351Y-88549500D01*
X112878352Y-88549500D01*
X113080534Y-88517477D01*
X113275219Y-88454220D01*
X113457610Y-88361287D01*
X113567350Y-88281557D01*
X113623213Y-88240971D01*
X113623215Y-88240968D01*
X113623219Y-88240966D01*
X113767966Y-88096219D01*
X113767968Y-88096215D01*
X113767971Y-88096213D01*
X113878020Y-87944741D01*
X113888287Y-87930610D01*
X113981220Y-87748219D01*
X114044477Y-87553534D01*
X114076500Y-87351352D01*
X114076500Y-87146648D01*
X114064110Y-87068423D01*
X114044477Y-86944465D01*
X113998432Y-86802754D01*
X113981220Y-86749781D01*
X113981218Y-86749778D01*
X113981218Y-86749776D01*
X113915600Y-86620995D01*
X113888287Y-86567390D01*
X113877342Y-86552326D01*
X113767971Y-86401786D01*
X113623213Y-86257028D01*
X113457613Y-86136715D01*
X113457612Y-86136714D01*
X113457610Y-86136713D01*
X113379106Y-86096713D01*
X113275223Y-86043781D01*
X113080534Y-85980522D01*
X112902375Y-85952305D01*
X112878352Y-85948500D01*
X112673648Y-85948500D01*
X112649625Y-85952305D01*
X112471465Y-85980522D01*
X112276776Y-86043781D01*
X112094386Y-86136715D01*
X111928786Y-86257028D01*
X111784028Y-86401786D01*
X111663715Y-86567386D01*
X111570781Y-86749776D01*
X111507522Y-86944465D01*
X111475500Y-87146648D01*
X108000000Y-87146648D01*
X108000000Y-82952135D01*
X109899500Y-82952135D01*
X109899500Y-84647870D01*
X109899501Y-84647876D01*
X109905908Y-84707483D01*
X109956202Y-84842328D01*
X109956206Y-84842335D01*
X110042452Y-84957544D01*
X110042455Y-84957547D01*
X110157664Y-85043793D01*
X110157671Y-85043797D01*
X110292517Y-85094091D01*
X110292516Y-85094091D01*
X110299444Y-85094835D01*
X110352127Y-85100500D01*
X112047872Y-85100499D01*
X112107483Y-85094091D01*
X112242331Y-85043796D01*
X112357546Y-84957546D01*
X112443796Y-84842331D01*
X112494091Y-84707483D01*
X112500500Y-84647873D01*
X112500499Y-82952128D01*
X112494091Y-82892517D01*
X112476327Y-82844890D01*
X112443797Y-82757671D01*
X112443793Y-82757664D01*
X112357547Y-82642455D01*
X112357544Y-82642452D01*
X112242335Y-82556206D01*
X112242328Y-82556202D01*
X112107482Y-82505908D01*
X112107483Y-82505908D01*
X112047883Y-82499501D01*
X112047881Y-82499500D01*
X112047873Y-82499500D01*
X112047864Y-82499500D01*
X110352129Y-82499500D01*
X110352123Y-82499501D01*
X110292516Y-82505908D01*
X110157671Y-82556202D01*
X110157664Y-82556206D01*
X110042455Y-82642452D01*
X110042452Y-82642455D01*
X109956206Y-82757664D01*
X109956202Y-82757671D01*
X109905908Y-82892517D01*
X109899501Y-82952116D01*
X109899501Y-82952123D01*
X109899500Y-82952135D01*
X108000000Y-82952135D01*
X108000000Y-82124000D01*
X108019685Y-82056961D01*
X108072489Y-82011206D01*
X108124000Y-82000000D01*
X135805400Y-82000000D01*
X135872439Y-82019685D01*
G37*
G04 #@! TD.AperFunction*
G04 #@! TA.AperFunction,Conductor*
G36*
X160649156Y-98819638D02*
G01*
X160680897Y-98820202D01*
X160685090Y-98822207D01*
X160687189Y-98822358D01*
X160712738Y-98835432D01*
X160714657Y-98836715D01*
X160715870Y-98837525D01*
X160760679Y-98891133D01*
X160769393Y-98960457D01*
X160757529Y-98995589D01*
X160757537Y-98995593D01*
X160757490Y-98995704D01*
X160756353Y-98999074D01*
X160755206Y-99001220D01*
X160694864Y-99146898D01*
X160694861Y-99146910D01*
X160664100Y-99301553D01*
X160664100Y-99459246D01*
X160694861Y-99613889D01*
X160694864Y-99613901D01*
X160755202Y-99759572D01*
X160755209Y-99759585D01*
X160843202Y-99891274D01*
X160864080Y-99957951D01*
X160864100Y-99960165D01*
X160864100Y-103534730D01*
X160864099Y-103534748D01*
X160864099Y-103700454D01*
X160864098Y-103700454D01*
X160905023Y-103853186D01*
X160905024Y-103853187D01*
X160930603Y-103897491D01*
X160962929Y-103953482D01*
X160984081Y-103990117D01*
X161102949Y-104108985D01*
X161102955Y-104108990D01*
X161834352Y-104840387D01*
X161867837Y-104901710D01*
X161862853Y-104971402D01*
X161834363Y-105015738D01*
X161829903Y-105020199D01*
X161829892Y-105020211D01*
X161704951Y-105192179D01*
X161608444Y-105381585D01*
X161542753Y-105583760D01*
X161509500Y-105793713D01*
X161509500Y-106006286D01*
X161541726Y-106209757D01*
X161542754Y-106216243D01*
X161606182Y-106411454D01*
X161608444Y-106418414D01*
X161704951Y-106607820D01*
X161829890Y-106779786D01*
X161980213Y-106930109D01*
X162152179Y-107055048D01*
X162152181Y-107055049D01*
X162152184Y-107055051D01*
X162341588Y-107151557D01*
X162543757Y-107217246D01*
X162753713Y-107250500D01*
X162753714Y-107250500D01*
X162966286Y-107250500D01*
X162966287Y-107250500D01*
X163176243Y-107217246D01*
X163378412Y-107151557D01*
X163567816Y-107055051D01*
X163618657Y-107018113D01*
X163739786Y-106930109D01*
X163739788Y-106930106D01*
X163739792Y-106930104D01*
X163890104Y-106779792D01*
X163890106Y-106779788D01*
X163890109Y-106779786D01*
X164015048Y-106607820D01*
X164015047Y-106607820D01*
X164015051Y-106607816D01*
X164019514Y-106599054D01*
X164067488Y-106548259D01*
X164135308Y-106531463D01*
X164201444Y-106553999D01*
X164240486Y-106599056D01*
X164244951Y-106607820D01*
X164369890Y-106779786D01*
X164520213Y-106930109D01*
X164692179Y-107055048D01*
X164692181Y-107055049D01*
X164692184Y-107055051D01*
X164881588Y-107151557D01*
X165083757Y-107217246D01*
X165293713Y-107250500D01*
X165293714Y-107250500D01*
X165506286Y-107250500D01*
X165506287Y-107250500D01*
X165716243Y-107217246D01*
X165918412Y-107151557D01*
X166107816Y-107055051D01*
X166158657Y-107018113D01*
X166279786Y-106930109D01*
X166279788Y-106930106D01*
X166279792Y-106930104D01*
X166288319Y-106921577D01*
X166349642Y-106888092D01*
X166419334Y-106893076D01*
X166475267Y-106934948D01*
X166499684Y-107000412D01*
X166500000Y-107009258D01*
X166500000Y-112376000D01*
X166480315Y-112443039D01*
X166427511Y-112488794D01*
X166376000Y-112500000D01*
X152428493Y-112500000D01*
X152361454Y-112480315D01*
X152315699Y-112427511D01*
X152305755Y-112358353D01*
X152325390Y-112307109D01*
X152347394Y-112274179D01*
X152407737Y-112128497D01*
X152438500Y-111973842D01*
X152438500Y-111816158D01*
X152438500Y-111816155D01*
X152438499Y-111816153D01*
X152424106Y-111743796D01*
X152407737Y-111661503D01*
X152406097Y-111657544D01*
X152347397Y-111515827D01*
X152347390Y-111515814D01*
X152259398Y-111384125D01*
X152238520Y-111317447D01*
X152238500Y-111315234D01*
X152238500Y-110225499D01*
X152258185Y-110158460D01*
X152310989Y-110112705D01*
X152362500Y-110101499D01*
X152447871Y-110101499D01*
X152447872Y-110101499D01*
X152507483Y-110095091D01*
X152642331Y-110044796D01*
X152757546Y-109958546D01*
X152843796Y-109843331D01*
X152894091Y-109708483D01*
X152900500Y-109648873D01*
X152900499Y-109610197D01*
X152920182Y-109543161D01*
X152972985Y-109497405D01*
X153042143Y-109487460D01*
X153105699Y-109516483D01*
X153124817Y-109537312D01*
X153215019Y-109661464D01*
X153355536Y-109801981D01*
X153516306Y-109918787D01*
X153581739Y-109952127D01*
X153693367Y-110009005D01*
X153693370Y-110009006D01*
X153744618Y-110025657D01*
X153882364Y-110070413D01*
X154078639Y-110101500D01*
X154078640Y-110101500D01*
X154277360Y-110101500D01*
X154277361Y-110101500D01*
X154473636Y-110070413D01*
X154662632Y-110009005D01*
X154839694Y-109918787D01*
X155000464Y-109801981D01*
X155140981Y-109661464D01*
X155257787Y-109500694D01*
X155337515Y-109344218D01*
X155385490Y-109293423D01*
X155453311Y-109276628D01*
X155519446Y-109299165D01*
X155558484Y-109344218D01*
X155638213Y-109500694D01*
X155755019Y-109661464D01*
X155895536Y-109801981D01*
X156056306Y-109918787D01*
X156121739Y-109952127D01*
X156233367Y-110009005D01*
X156233370Y-110009006D01*
X156284618Y-110025657D01*
X156422364Y-110070413D01*
X156618639Y-110101500D01*
X156618640Y-110101500D01*
X156817360Y-110101500D01*
X156817361Y-110101500D01*
X157013636Y-110070413D01*
X157202632Y-110009005D01*
X157379694Y-109918787D01*
X157540464Y-109801981D01*
X157680981Y-109661464D01*
X157797787Y-109500694D01*
X157877515Y-109344218D01*
X157925490Y-109293423D01*
X157993311Y-109276628D01*
X158059446Y-109299165D01*
X158098484Y-109344218D01*
X158178213Y-109500694D01*
X158295019Y-109661464D01*
X158435536Y-109801981D01*
X158596306Y-109918787D01*
X158661739Y-109952127D01*
X158773367Y-110009005D01*
X158773370Y-110009006D01*
X158824618Y-110025657D01*
X158962364Y-110070413D01*
X159158639Y-110101500D01*
X159158640Y-110101500D01*
X159357360Y-110101500D01*
X159357361Y-110101500D01*
X159553636Y-110070413D01*
X159742632Y-110009005D01*
X159919694Y-109918787D01*
X160080464Y-109801981D01*
X160220981Y-109661464D01*
X160227759Y-109652135D01*
X161394400Y-109652135D01*
X161394400Y-111347870D01*
X161394401Y-111347876D01*
X161400808Y-111407483D01*
X161451102Y-111542328D01*
X161451106Y-111542335D01*
X161537352Y-111657544D01*
X161537355Y-111657547D01*
X161652564Y-111743793D01*
X161652571Y-111743797D01*
X161787417Y-111794091D01*
X161787416Y-111794091D01*
X161794344Y-111794835D01*
X161847027Y-111800500D01*
X163542772Y-111800499D01*
X163602383Y-111794091D01*
X163737231Y-111743796D01*
X163852446Y-111657546D01*
X163938696Y-111542331D01*
X163988991Y-111407483D01*
X163995400Y-111347873D01*
X163995399Y-109652128D01*
X163988991Y-109592517D01*
X163975446Y-109556202D01*
X163938697Y-109457671D01*
X163938693Y-109457664D01*
X163852447Y-109342455D01*
X163852444Y-109342452D01*
X163737235Y-109256206D01*
X163737228Y-109256202D01*
X163602382Y-109205908D01*
X163602383Y-109205908D01*
X163542783Y-109199501D01*
X163542781Y-109199500D01*
X163542773Y-109199500D01*
X163542764Y-109199500D01*
X161847029Y-109199500D01*
X161847023Y-109199501D01*
X161787416Y-109205908D01*
X161652571Y-109256202D01*
X161652564Y-109256206D01*
X161537355Y-109342452D01*
X161537352Y-109342455D01*
X161451106Y-109457664D01*
X161451102Y-109457671D01*
X161400808Y-109592517D01*
X161394749Y-109648883D01*
X161394401Y-109652123D01*
X161394400Y-109652135D01*
X160227759Y-109652135D01*
X160337787Y-109500694D01*
X160428005Y-109323632D01*
X160489413Y-109134636D01*
X160520500Y-108938361D01*
X160520500Y-108739639D01*
X160489413Y-108543364D01*
X160454719Y-108436586D01*
X160428006Y-108354370D01*
X160428005Y-108354367D01*
X160337786Y-108177305D01*
X160323431Y-108157547D01*
X160220981Y-108016536D01*
X160080464Y-107876019D01*
X159963065Y-107790724D01*
X159931914Y-107768091D01*
X159889249Y-107712761D01*
X159880800Y-107667773D01*
X159880800Y-106854945D01*
X159880800Y-106854943D01*
X159839877Y-106702216D01*
X159818623Y-106665402D01*
X159760824Y-106565290D01*
X159760818Y-106565282D01*
X159649017Y-106453481D01*
X159649009Y-106453475D01*
X159512090Y-106374426D01*
X159512086Y-106374424D01*
X159512084Y-106374423D01*
X159496264Y-106370184D01*
X159436605Y-106333820D01*
X159406076Y-106270973D01*
X159414371Y-106201598D01*
X159419533Y-106190972D01*
X159422391Y-106185737D01*
X159422396Y-106185731D01*
X159472691Y-106050883D01*
X159479100Y-105991273D01*
X159479099Y-105336728D01*
X159472691Y-105277117D01*
X159469490Y-105268536D01*
X159422398Y-105142274D01*
X159422397Y-105142273D01*
X159422396Y-105142269D01*
X159422393Y-105142265D01*
X159419533Y-105137028D01*
X159404674Y-105068757D01*
X159429084Y-105003290D01*
X159485013Y-104961413D01*
X159496259Y-104957817D01*
X159512084Y-104953577D01*
X159524585Y-104946360D01*
X159649009Y-104874524D01*
X159649008Y-104874524D01*
X159649016Y-104874520D01*
X159760820Y-104762716D01*
X159839877Y-104625784D01*
X159880800Y-104473057D01*
X159880800Y-103044943D01*
X159839877Y-102892216D01*
X159839873Y-102892209D01*
X159760824Y-102755290D01*
X159760818Y-102755282D01*
X159649017Y-102643481D01*
X159649009Y-102643475D01*
X159641882Y-102639360D01*
X159593668Y-102588792D01*
X159580447Y-102520185D01*
X159606417Y-102455321D01*
X159663332Y-102414794D01*
X159665469Y-102414076D01*
X159742632Y-102389005D01*
X159919694Y-102298787D01*
X160080464Y-102181981D01*
X160220981Y-102041464D01*
X160337787Y-101880694D01*
X160428005Y-101703632D01*
X160489413Y-101514636D01*
X160520500Y-101318361D01*
X160520500Y-101119639D01*
X160489413Y-100923364D01*
X160458709Y-100828866D01*
X160428006Y-100734370D01*
X160428005Y-100734367D01*
X160337786Y-100557305D01*
X160220981Y-100396536D01*
X160080464Y-100256019D01*
X159919694Y-100139213D01*
X159742632Y-100048995D01*
X159742626Y-100048993D01*
X159644800Y-100017207D01*
X159587125Y-99977769D01*
X159559927Y-99913410D01*
X159571842Y-99844564D01*
X159595435Y-99811598D01*
X160556176Y-98850857D01*
X160584031Y-98835647D01*
X160611039Y-98818961D01*
X160614478Y-98819022D01*
X160617497Y-98817374D01*
X160649156Y-98819638D01*
G37*
G04 #@! TD.AperFunction*
G04 #@! TA.AperFunction,Conductor*
G36*
X140953600Y-92724045D02*
G01*
X140967035Y-92725006D01*
X140984760Y-92738275D01*
X141004903Y-92747474D01*
X141013403Y-92759716D01*
X141022968Y-92766877D01*
X141039882Y-92797854D01*
X141059602Y-92850728D01*
X141059606Y-92850735D01*
X141145852Y-92965944D01*
X141145855Y-92965947D01*
X141261064Y-93052193D01*
X141261071Y-93052197D01*
X141395917Y-93102491D01*
X141395916Y-93102491D01*
X141402844Y-93103235D01*
X141455527Y-93108900D01*
X143058293Y-93108899D01*
X143125332Y-93128584D01*
X143171087Y-93181387D01*
X143181031Y-93250546D01*
X143152006Y-93314102D01*
X143145975Y-93320580D01*
X143055018Y-93411537D01*
X142938213Y-93572305D01*
X142847994Y-93749367D01*
X142847993Y-93749370D01*
X142786587Y-93938362D01*
X142755500Y-94134639D01*
X142755500Y-94333360D01*
X142786587Y-94529637D01*
X142847993Y-94718629D01*
X142847994Y-94718632D01*
X142901142Y-94822939D01*
X142938213Y-94895694D01*
X143055019Y-95056464D01*
X143195536Y-95196981D01*
X143307530Y-95278349D01*
X143356309Y-95313789D01*
X143358285Y-95315000D01*
X143358878Y-95315656D01*
X143360248Y-95316651D01*
X143360039Y-95316938D01*
X143405163Y-95366810D01*
X143417500Y-95420730D01*
X143417500Y-96047170D01*
X143397815Y-96114209D01*
X143345011Y-96159964D01*
X143275853Y-96169908D01*
X143255183Y-96165101D01*
X143179542Y-96140524D01*
X143179535Y-96140523D01*
X143078443Y-96124511D01*
X142977352Y-96108500D01*
X142772648Y-96108500D01*
X142748329Y-96112351D01*
X142570465Y-96140522D01*
X142375776Y-96203781D01*
X142193386Y-96296715D01*
X142027786Y-96417028D01*
X141883028Y-96561786D01*
X141762715Y-96727386D01*
X141669781Y-96909776D01*
X141606522Y-97104465D01*
X141574500Y-97306648D01*
X141574500Y-97511351D01*
X141606522Y-97713534D01*
X141669781Y-97908223D01*
X141762715Y-98090613D01*
X141883028Y-98256213D01*
X142027786Y-98400971D01*
X142127616Y-98473500D01*
X142193390Y-98521287D01*
X142274499Y-98562614D01*
X142286080Y-98568515D01*
X142336876Y-98616490D01*
X142353671Y-98684311D01*
X142331134Y-98750446D01*
X142286080Y-98789485D01*
X142193386Y-98836715D01*
X142027786Y-98957028D01*
X141883028Y-99101786D01*
X141762715Y-99267386D01*
X141669781Y-99449776D01*
X141606522Y-99644465D01*
X141574500Y-99846648D01*
X141574500Y-100051351D01*
X141606522Y-100253534D01*
X141669781Y-100448223D01*
X141762715Y-100630613D01*
X141883028Y-100796213D01*
X142027786Y-100940971D01*
X142182749Y-101053556D01*
X142193390Y-101061287D01*
X142284840Y-101107883D01*
X142286080Y-101108515D01*
X142336876Y-101156490D01*
X142353671Y-101224311D01*
X142331134Y-101290446D01*
X142286080Y-101329485D01*
X142193386Y-101376715D01*
X142027786Y-101497028D01*
X141883028Y-101641786D01*
X141762715Y-101807386D01*
X141669781Y-101989776D01*
X141606522Y-102184465D01*
X141574500Y-102386648D01*
X141574500Y-102591351D01*
X141606522Y-102793534D01*
X141669781Y-102988223D01*
X141762715Y-103170613D01*
X141883028Y-103336213D01*
X142027786Y-103480971D01*
X142170883Y-103584935D01*
X142193390Y-103601287D01*
X142300943Y-103656088D01*
X142375776Y-103694218D01*
X142375778Y-103694218D01*
X142375781Y-103694220D01*
X142450818Y-103718601D01*
X142570465Y-103757477D01*
X142589697Y-103760523D01*
X142772648Y-103789500D01*
X142772649Y-103789500D01*
X142977351Y-103789500D01*
X142977352Y-103789500D01*
X143179534Y-103757477D01*
X143255183Y-103732896D01*
X143325022Y-103730901D01*
X143384855Y-103766981D01*
X143415684Y-103829682D01*
X143417500Y-103850828D01*
X143417500Y-106144500D01*
X143397815Y-106211539D01*
X143345011Y-106257294D01*
X143293500Y-106268500D01*
X142027129Y-106268500D01*
X142027123Y-106268501D01*
X141967516Y-106274908D01*
X141845633Y-106320368D01*
X141775941Y-106325352D01*
X141714618Y-106291867D01*
X141681134Y-106230543D01*
X141678300Y-106204186D01*
X141678300Y-106071143D01*
X141678299Y-106071139D01*
X141677645Y-106068697D01*
X141676916Y-106065977D01*
X141637377Y-105918415D01*
X141608439Y-105868295D01*
X141558320Y-105781484D01*
X141446516Y-105669680D01*
X141446515Y-105669679D01*
X141442185Y-105665349D01*
X141442174Y-105665339D01*
X136322375Y-100545540D01*
X136288890Y-100484217D01*
X136293874Y-100414525D01*
X136306951Y-100388973D01*
X136386194Y-100270379D01*
X136446537Y-100124697D01*
X136477300Y-99970042D01*
X136477300Y-99812358D01*
X136477300Y-99812355D01*
X136477299Y-99812353D01*
X136466803Y-99759585D01*
X136446537Y-99657703D01*
X136446535Y-99657698D01*
X136386197Y-99512027D01*
X136386190Y-99512014D01*
X136298589Y-99380911D01*
X136298586Y-99380907D01*
X136187092Y-99269413D01*
X136187088Y-99269410D01*
X136055985Y-99181809D01*
X136055972Y-99181802D01*
X135910301Y-99121464D01*
X135910291Y-99121461D01*
X135754949Y-99090561D01*
X135693038Y-99058176D01*
X135691460Y-99056625D01*
X135453919Y-98819084D01*
X135420434Y-98757761D01*
X135417600Y-98731403D01*
X135417600Y-97178696D01*
X135437285Y-97111657D01*
X135453914Y-97091020D01*
X136156798Y-96388135D01*
X137972500Y-96388135D01*
X137972500Y-98683870D01*
X137972501Y-98683876D01*
X137978908Y-98743483D01*
X138029202Y-98878328D01*
X138029206Y-98878335D01*
X138115452Y-98993544D01*
X138115455Y-98993547D01*
X138230664Y-99079793D01*
X138230671Y-99079797D01*
X138365517Y-99130091D01*
X138365516Y-99130091D01*
X138372444Y-99130835D01*
X138425127Y-99136500D01*
X140720872Y-99136499D01*
X140780483Y-99130091D01*
X140915331Y-99079796D01*
X141030546Y-98993546D01*
X141116796Y-98878331D01*
X141167091Y-98743483D01*
X141173500Y-98683873D01*
X141173499Y-96388128D01*
X141167091Y-96328517D01*
X141160971Y-96312109D01*
X141116797Y-96193671D01*
X141116793Y-96193664D01*
X141030547Y-96078455D01*
X141030544Y-96078452D01*
X140915335Y-95992206D01*
X140915328Y-95992202D01*
X140780482Y-95941908D01*
X140780483Y-95941908D01*
X140720883Y-95935501D01*
X140720881Y-95935500D01*
X140720873Y-95935500D01*
X140720864Y-95935500D01*
X138425129Y-95935500D01*
X138425123Y-95935501D01*
X138365516Y-95941908D01*
X138230671Y-95992202D01*
X138230664Y-95992206D01*
X138115455Y-96078452D01*
X138115452Y-96078455D01*
X138029206Y-96193664D01*
X138029202Y-96193671D01*
X137978908Y-96328517D01*
X137973651Y-96377419D01*
X137972501Y-96388123D01*
X137972500Y-96388135D01*
X136156798Y-96388135D01*
X136756506Y-95788427D01*
X136756511Y-95788424D01*
X136766714Y-95778220D01*
X136766716Y-95778220D01*
X136878520Y-95666416D01*
X136897401Y-95633713D01*
X136938019Y-95563361D01*
X136938022Y-95563353D01*
X136940836Y-95558479D01*
X136991410Y-95510274D01*
X137048212Y-95496499D01*
X137207871Y-95496499D01*
X137207872Y-95496499D01*
X137267483Y-95490091D01*
X137402331Y-95439796D01*
X137517546Y-95353546D01*
X137603796Y-95238331D01*
X137654091Y-95103483D01*
X137660500Y-95043873D01*
X137660499Y-95005197D01*
X137680182Y-94938161D01*
X137732985Y-94892405D01*
X137802143Y-94882460D01*
X137865699Y-94911483D01*
X137884817Y-94932312D01*
X137909476Y-94966252D01*
X137975019Y-95056464D01*
X138115536Y-95196981D01*
X138276306Y-95313787D01*
X138301310Y-95326527D01*
X138453367Y-95404005D01*
X138453370Y-95404006D01*
X138514159Y-95423757D01*
X138642364Y-95465413D01*
X138838639Y-95496500D01*
X138838640Y-95496500D01*
X139037360Y-95496500D01*
X139037361Y-95496500D01*
X139233636Y-95465413D01*
X139422632Y-95404005D01*
X139599694Y-95313787D01*
X139760464Y-95196981D01*
X139900981Y-95056464D01*
X140017787Y-94895694D01*
X140108005Y-94718632D01*
X140169413Y-94529636D01*
X140200500Y-94333361D01*
X140200500Y-94134639D01*
X140169413Y-93938364D01*
X140169409Y-93938352D01*
X140168869Y-93936099D01*
X140168913Y-93935209D01*
X140168651Y-93933552D01*
X140168999Y-93933496D01*
X140172360Y-93866316D01*
X140201760Y-93819473D01*
X140557706Y-93463528D01*
X140557711Y-93463524D01*
X140567914Y-93453320D01*
X140567916Y-93453320D01*
X140679720Y-93341516D01*
X140734972Y-93245816D01*
X140758777Y-93204585D01*
X140799700Y-93051857D01*
X140799700Y-92893743D01*
X140799700Y-92841187D01*
X140803494Y-92828263D01*
X140802534Y-92814828D01*
X140813147Y-92795391D01*
X140819385Y-92774148D01*
X140829562Y-92765329D01*
X140836019Y-92753505D01*
X140855456Y-92742891D01*
X140872189Y-92728393D01*
X140885520Y-92726476D01*
X140897343Y-92720021D01*
X140919427Y-92721600D01*
X140941347Y-92718449D01*
X140953600Y-92724045D01*
G37*
G04 #@! TD.AperFunction*
G04 #@! TA.AperFunction,Conductor*
G36*
X164201444Y-104013999D02*
G01*
X164240486Y-104059056D01*
X164244951Y-104067820D01*
X164369890Y-104239786D01*
X164520213Y-104390109D01*
X164692182Y-104515050D01*
X164700946Y-104519516D01*
X164751742Y-104567491D01*
X164768536Y-104635312D01*
X164745998Y-104701447D01*
X164700946Y-104740484D01*
X164692182Y-104744949D01*
X164520213Y-104869890D01*
X164369890Y-105020213D01*
X164244949Y-105192182D01*
X164240484Y-105200946D01*
X164192509Y-105251742D01*
X164124688Y-105268536D01*
X164058553Y-105245998D01*
X164019516Y-105200946D01*
X164015050Y-105192182D01*
X163890109Y-105020213D01*
X163739786Y-104869890D01*
X163567815Y-104744948D01*
X163567812Y-104744946D01*
X163559050Y-104740481D01*
X163508256Y-104692505D01*
X163491463Y-104624683D01*
X163514003Y-104558549D01*
X163559056Y-104519514D01*
X163567816Y-104515051D01*
X163739792Y-104390104D01*
X163890104Y-104239792D01*
X163890106Y-104239788D01*
X163890109Y-104239786D01*
X164015048Y-104067820D01*
X164015047Y-104067820D01*
X164015051Y-104067816D01*
X164019514Y-104059054D01*
X164067488Y-104008259D01*
X164135308Y-103991463D01*
X164201444Y-104013999D01*
G37*
G04 #@! TD.AperFunction*
G04 #@! TA.AperFunction,Conductor*
G36*
X164201444Y-96393999D02*
G01*
X164240486Y-96439056D01*
X164244951Y-96447820D01*
X164369890Y-96619786D01*
X164520213Y-96770109D01*
X164692179Y-96895048D01*
X164692181Y-96895049D01*
X164692184Y-96895051D01*
X164881588Y-96991557D01*
X165083757Y-97057246D01*
X165293713Y-97090500D01*
X165293714Y-97090500D01*
X165506286Y-97090500D01*
X165506287Y-97090500D01*
X165716243Y-97057246D01*
X165918412Y-96991557D01*
X166107816Y-96895051D01*
X166132818Y-96876886D01*
X166279786Y-96770109D01*
X166279788Y-96770106D01*
X166279792Y-96770104D01*
X166288319Y-96761577D01*
X166349642Y-96728092D01*
X166419334Y-96733076D01*
X166475267Y-96774948D01*
X166499684Y-96840412D01*
X166500000Y-96849258D01*
X166500000Y-102250742D01*
X166480315Y-102317781D01*
X166427511Y-102363536D01*
X166358353Y-102373480D01*
X166294797Y-102344455D01*
X166288319Y-102338423D01*
X166279786Y-102329890D01*
X166107820Y-102204951D01*
X165918414Y-102108444D01*
X165918413Y-102108443D01*
X165918412Y-102108443D01*
X165716243Y-102042754D01*
X165716241Y-102042753D01*
X165716240Y-102042753D01*
X165554957Y-102017208D01*
X165506287Y-102009500D01*
X165293713Y-102009500D01*
X165245042Y-102017208D01*
X165083760Y-102042753D01*
X164881585Y-102108444D01*
X164692179Y-102204951D01*
X164520213Y-102329890D01*
X164369890Y-102480213D01*
X164244949Y-102652182D01*
X164240484Y-102660946D01*
X164192509Y-102711742D01*
X164124688Y-102728536D01*
X164058553Y-102705998D01*
X164019516Y-102660946D01*
X164015050Y-102652182D01*
X163890109Y-102480213D01*
X163739786Y-102329890D01*
X163567820Y-102204951D01*
X163562917Y-102202453D01*
X163559054Y-102200485D01*
X163508259Y-102152512D01*
X163491463Y-102084692D01*
X163513999Y-102018556D01*
X163559054Y-101979515D01*
X163567816Y-101975051D01*
X163651853Y-101913995D01*
X163739786Y-101850109D01*
X163739788Y-101850106D01*
X163739792Y-101850104D01*
X163890104Y-101699792D01*
X163890106Y-101699788D01*
X163890109Y-101699786D01*
X164015048Y-101527820D01*
X164015047Y-101527820D01*
X164015051Y-101527816D01*
X164111557Y-101338412D01*
X164177246Y-101136243D01*
X164210500Y-100926287D01*
X164210500Y-100713713D01*
X164177246Y-100503757D01*
X164111557Y-100301588D01*
X164015051Y-100112184D01*
X164015049Y-100112181D01*
X164015048Y-100112179D01*
X163890109Y-99940213D01*
X163739786Y-99789890D01*
X163567815Y-99664948D01*
X163567812Y-99664946D01*
X163559050Y-99660481D01*
X163508256Y-99612505D01*
X163491463Y-99544683D01*
X163514003Y-99478549D01*
X163559056Y-99439514D01*
X163567816Y-99435051D01*
X163739792Y-99310104D01*
X163890104Y-99159792D01*
X163890106Y-99159788D01*
X163890109Y-99159786D01*
X164015048Y-98987820D01*
X164015047Y-98987820D01*
X164015051Y-98987816D01*
X164111557Y-98798412D01*
X164177246Y-98596243D01*
X164210500Y-98386287D01*
X164210500Y-98173713D01*
X164177246Y-97963757D01*
X164111557Y-97761588D01*
X164015051Y-97572184D01*
X164015049Y-97572181D01*
X164015048Y-97572179D01*
X163890109Y-97400213D01*
X163739786Y-97249890D01*
X163567815Y-97124948D01*
X163567812Y-97124946D01*
X163559050Y-97120481D01*
X163508256Y-97072505D01*
X163491463Y-97004683D01*
X163514003Y-96938549D01*
X163559060Y-96899512D01*
X163567816Y-96895051D01*
X163592818Y-96876886D01*
X163739786Y-96770109D01*
X163739788Y-96770106D01*
X163739792Y-96770104D01*
X163890104Y-96619792D01*
X163890106Y-96619788D01*
X163890109Y-96619786D01*
X163999086Y-96469789D01*
X164015051Y-96447816D01*
X164019514Y-96439054D01*
X164067488Y-96388259D01*
X164135308Y-96371463D01*
X164201444Y-96393999D01*
G37*
G04 #@! TD.AperFunction*
G04 #@! TA.AperFunction,Conductor*
G36*
X151211785Y-93875363D02*
G01*
X151226816Y-93876842D01*
X151242921Y-93889582D01*
X151261603Y-93898114D01*
X151269768Y-93910820D01*
X151281613Y-93920190D01*
X151297696Y-93951607D01*
X151299072Y-93955621D01*
X151332423Y-94080085D01*
X151349381Y-94109457D01*
X151355390Y-94119866D01*
X151355391Y-94119867D01*
X151411477Y-94217012D01*
X151411481Y-94217017D01*
X151530349Y-94335885D01*
X151530355Y-94335890D01*
X154265490Y-97071025D01*
X154298975Y-97132348D01*
X154293991Y-97202040D01*
X154252119Y-97257973D01*
X154250694Y-97259024D01*
X154151350Y-97331201D01*
X154151345Y-97331205D01*
X153973205Y-97509345D01*
X153973201Y-97509350D01*
X153825132Y-97713151D01*
X153710760Y-97937616D01*
X153646933Y-98134057D01*
X153632910Y-98177215D01*
X153593500Y-98426038D01*
X153593500Y-98677962D01*
X153620884Y-98850859D01*
X153632910Y-98926785D01*
X153710760Y-99166383D01*
X153779636Y-99301558D01*
X153824886Y-99390367D01*
X153825132Y-99390848D01*
X153973201Y-99594649D01*
X153973205Y-99594654D01*
X154127908Y-99749357D01*
X154161393Y-99810680D01*
X154156409Y-99880372D01*
X154114537Y-99936305D01*
X154059625Y-99959511D01*
X153882362Y-99987587D01*
X153693370Y-100048993D01*
X153693367Y-100048994D01*
X153516305Y-100139213D01*
X153355533Y-100256021D01*
X153215021Y-100396533D01*
X153098213Y-100557305D01*
X153018485Y-100713780D01*
X152970510Y-100764576D01*
X152902689Y-100781371D01*
X152836554Y-100758833D01*
X152797515Y-100713780D01*
X152717786Y-100557305D01*
X152600981Y-100396536D01*
X152460464Y-100256019D01*
X152299694Y-100139213D01*
X152278873Y-100128604D01*
X152122632Y-100048994D01*
X152122629Y-100048993D01*
X151933637Y-99987587D01*
X151822874Y-99970044D01*
X151737361Y-99956500D01*
X151538639Y-99956500D01*
X151499384Y-99962717D01*
X151342360Y-99987587D01*
X151340087Y-99988133D01*
X151339197Y-99988088D01*
X151337552Y-99988349D01*
X151337497Y-99988003D01*
X151270305Y-99984635D01*
X151223472Y-99955237D01*
X151092719Y-99824484D01*
X151059234Y-99763161D01*
X151056400Y-99736803D01*
X151056400Y-93991827D01*
X151060655Y-93977335D01*
X151059980Y-93962247D01*
X151070299Y-93944490D01*
X151076085Y-93924788D01*
X151087498Y-93914898D01*
X151095088Y-93901839D01*
X151113370Y-93892479D01*
X151128889Y-93879033D01*
X151143837Y-93876883D01*
X151157282Y-93870001D01*
X151177719Y-93872011D01*
X151198047Y-93869089D01*
X151211785Y-93875363D01*
G37*
G04 #@! TD.AperFunction*
G04 #@! TA.AperFunction,Conductor*
G36*
X132310142Y-86460385D02*
G01*
X132330784Y-86477019D01*
X135637281Y-89783516D01*
X135670766Y-89844839D01*
X135672397Y-89860015D01*
X135672539Y-89859997D01*
X135673600Y-89868056D01*
X135673600Y-89868057D01*
X135712219Y-90012183D01*
X135714523Y-90020783D01*
X135714526Y-90020790D01*
X135793575Y-90157709D01*
X135793579Y-90157714D01*
X135793580Y-90157716D01*
X135905384Y-90269520D01*
X135905385Y-90269521D01*
X135905387Y-90269522D01*
X135986951Y-90316613D01*
X136035167Y-90367180D01*
X136048390Y-90435787D01*
X136022422Y-90500652D01*
X135986951Y-90531387D01*
X135905387Y-90578477D01*
X135905382Y-90578481D01*
X134410531Y-92073333D01*
X134410201Y-92073512D01*
X134410019Y-92073843D01*
X134379500Y-92090277D01*
X134349208Y-92106818D01*
X134348833Y-92106791D01*
X134348501Y-92106970D01*
X134314019Y-92104301D01*
X134279516Y-92101834D01*
X134279214Y-92101607D01*
X134278840Y-92101579D01*
X134251299Y-92080710D01*
X134223583Y-92059962D01*
X134223350Y-92059533D01*
X134223151Y-92059382D01*
X134222207Y-92057426D01*
X134206418Y-92028307D01*
X134204507Y-92023091D01*
X134170377Y-91895715D01*
X134141439Y-91845595D01*
X134091320Y-91758784D01*
X133979516Y-91646980D01*
X133979515Y-91646979D01*
X133975185Y-91642649D01*
X133975174Y-91642639D01*
X133194353Y-90861818D01*
X133160868Y-90800495D01*
X133165852Y-90730803D01*
X133207722Y-90674871D01*
X133237546Y-90652546D01*
X133323796Y-90537331D01*
X133374091Y-90402483D01*
X133380500Y-90342873D01*
X133380499Y-88647128D01*
X133374091Y-88587517D01*
X133369344Y-88574790D01*
X133323797Y-88452671D01*
X133323793Y-88452664D01*
X133237547Y-88337455D01*
X133237544Y-88337452D01*
X133122335Y-88251206D01*
X133122328Y-88251202D01*
X132987482Y-88200908D01*
X132987483Y-88200908D01*
X132927883Y-88194501D01*
X132927881Y-88194500D01*
X132927873Y-88194500D01*
X132927864Y-88194500D01*
X131232129Y-88194500D01*
X131232123Y-88194501D01*
X131172516Y-88200908D01*
X131037671Y-88251202D01*
X131037664Y-88251206D01*
X130922455Y-88337452D01*
X130922452Y-88337455D01*
X130836206Y-88452664D01*
X130836202Y-88452671D01*
X130785908Y-88587517D01*
X130782205Y-88621965D01*
X130779501Y-88647123D01*
X130779500Y-88647135D01*
X130779500Y-90342870D01*
X130779501Y-90342876D01*
X130785908Y-90402483D01*
X130836202Y-90537328D01*
X130836206Y-90537335D01*
X130922452Y-90652544D01*
X130922455Y-90652547D01*
X131037664Y-90738793D01*
X131037671Y-90738797D01*
X131082618Y-90755561D01*
X131172517Y-90789091D01*
X131232127Y-90795500D01*
X131429786Y-90795499D01*
X131496826Y-90815183D01*
X131537174Y-90857499D01*
X131599477Y-90965412D01*
X131599481Y-90965417D01*
X131718349Y-91084285D01*
X131718355Y-91084290D01*
X132973981Y-92339916D01*
X133007466Y-92401239D01*
X133010300Y-92427597D01*
X133010300Y-95675334D01*
X132990615Y-95742373D01*
X132989402Y-95744225D01*
X132901409Y-95875914D01*
X132901402Y-95875927D01*
X132841064Y-96021598D01*
X132841061Y-96021610D01*
X132810300Y-96176253D01*
X132810300Y-96333946D01*
X132841061Y-96488589D01*
X132841064Y-96488601D01*
X132901402Y-96634272D01*
X132901409Y-96634285D01*
X132989010Y-96765388D01*
X132989013Y-96765392D01*
X133100507Y-96876886D01*
X133100511Y-96876889D01*
X133231614Y-96964490D01*
X133231627Y-96964497D01*
X133377298Y-97024835D01*
X133377303Y-97024837D01*
X133514031Y-97052034D01*
X133531953Y-97055599D01*
X133531956Y-97055600D01*
X133549303Y-97055600D01*
X133616342Y-97075285D01*
X133662097Y-97128089D01*
X133672041Y-97197247D01*
X133643016Y-97260803D01*
X133636984Y-97267281D01*
X133017984Y-97886281D01*
X132956661Y-97919766D01*
X132930303Y-97922600D01*
X132097198Y-97922600D01*
X132067761Y-97913956D01*
X132037772Y-97907433D01*
X132032755Y-97903677D01*
X132030159Y-97902915D01*
X132009518Y-97886282D01*
X132009517Y-97886281D01*
X131965516Y-97842280D01*
X131965513Y-97842278D01*
X131088077Y-96964842D01*
X131054592Y-96903519D01*
X131057828Y-96838841D01*
X131058585Y-96836511D01*
X131062477Y-96824534D01*
X131094500Y-96622352D01*
X131094500Y-96417648D01*
X131075346Y-96296715D01*
X131062477Y-96215465D01*
X130999218Y-96020776D01*
X130959032Y-95941908D01*
X130906287Y-95838390D01*
X130869985Y-95788424D01*
X130785971Y-95672786D01*
X130641213Y-95528028D01*
X130475613Y-95407715D01*
X130475612Y-95407714D01*
X130475610Y-95407713D01*
X130398099Y-95368219D01*
X130293223Y-95314781D01*
X130098534Y-95251522D01*
X129923995Y-95223878D01*
X129896352Y-95219500D01*
X129691648Y-95219500D01*
X129667329Y-95223351D01*
X129489465Y-95251522D01*
X129294776Y-95314781D01*
X129112386Y-95407715D01*
X128946786Y-95528028D01*
X128946782Y-95528032D01*
X128938181Y-95536634D01*
X128876858Y-95570119D01*
X128807166Y-95565135D01*
X128751233Y-95523263D01*
X128726816Y-95457799D01*
X128726500Y-95448953D01*
X128726500Y-95228744D01*
X128726245Y-95227794D01*
X128726233Y-95227749D01*
X128724582Y-95221588D01*
X128710403Y-95168669D01*
X128685577Y-95076016D01*
X128667025Y-95043883D01*
X128606524Y-94939090D01*
X128606521Y-94939086D01*
X128606520Y-94939084D01*
X128494716Y-94827280D01*
X128494715Y-94827279D01*
X128490385Y-94822949D01*
X128490374Y-94822939D01*
X127336190Y-93668755D01*
X127336188Y-93668752D01*
X127217317Y-93549881D01*
X127217316Y-93549880D01*
X127116172Y-93491485D01*
X127116171Y-93491484D01*
X127080383Y-93470822D01*
X126927654Y-93429898D01*
X126919597Y-93428838D01*
X126919771Y-93427513D01*
X126860857Y-93410214D01*
X126840215Y-93393580D01*
X126493919Y-93047284D01*
X126460434Y-92985961D01*
X126457600Y-92959603D01*
X126457600Y-92566297D01*
X126477285Y-92499258D01*
X126493919Y-92478616D01*
X126937016Y-92035519D01*
X126998339Y-92002034D01*
X127024697Y-91999200D01*
X127079055Y-91999200D01*
X127079057Y-91999200D01*
X127231784Y-91958277D01*
X127368716Y-91879220D01*
X127480520Y-91767416D01*
X127542825Y-91659498D01*
X127593391Y-91611284D01*
X127650212Y-91597499D01*
X127847871Y-91597499D01*
X127847872Y-91597499D01*
X127907483Y-91591091D01*
X128042331Y-91540796D01*
X128157546Y-91454546D01*
X128243796Y-91339331D01*
X128294091Y-91204483D01*
X128300500Y-91144873D01*
X128300499Y-89449128D01*
X128294091Y-89389517D01*
X128294091Y-89389516D01*
X128243797Y-89254670D01*
X128243793Y-89254664D01*
X128157547Y-89139455D01*
X128157546Y-89139454D01*
X128150884Y-89134467D01*
X128109012Y-89078534D01*
X128104028Y-89008842D01*
X128137512Y-88947519D01*
X128198835Y-88914034D01*
X128214015Y-88912401D01*
X128213997Y-88912261D01*
X128222048Y-88911200D01*
X128222057Y-88911200D01*
X128374784Y-88870277D01*
X128511716Y-88791220D01*
X128623520Y-88679416D01*
X128702577Y-88542484D01*
X128737634Y-88411647D01*
X128773998Y-88351989D01*
X128801108Y-88333261D01*
X128824610Y-88321287D01*
X128990219Y-88200966D01*
X129134966Y-88056219D01*
X129134968Y-88056215D01*
X129134971Y-88056213D01*
X129215959Y-87944741D01*
X129255287Y-87890610D01*
X129348220Y-87708219D01*
X129411477Y-87513534D01*
X129443500Y-87311352D01*
X129443500Y-87106648D01*
X129421057Y-86964949D01*
X129411477Y-86904465D01*
X129378428Y-86802753D01*
X129348220Y-86709781D01*
X129348218Y-86709778D01*
X129348218Y-86709776D01*
X129302981Y-86620995D01*
X129290085Y-86552326D01*
X129316361Y-86487586D01*
X129373467Y-86447328D01*
X129413466Y-86440700D01*
X132243103Y-86440700D01*
X132310142Y-86460385D01*
G37*
G04 #@! TD.AperFunction*
G04 #@! TA.AperFunction,Conductor*
G36*
X149416119Y-96296068D02*
G01*
X149450477Y-96356906D01*
X149453700Y-96384993D01*
X149453700Y-97163006D01*
X149434015Y-97230045D01*
X149381211Y-97275800D01*
X149312053Y-97285744D01*
X149248497Y-97256719D01*
X149229382Y-97235891D01*
X149200971Y-97196787D01*
X149200967Y-97196782D01*
X149056213Y-97052028D01*
X148890614Y-96931715D01*
X148884006Y-96928348D01*
X148797917Y-96884483D01*
X148747123Y-96836511D01*
X148730328Y-96768690D01*
X148752865Y-96702555D01*
X148797917Y-96663516D01*
X148890610Y-96616287D01*
X148945297Y-96576555D01*
X149056213Y-96495971D01*
X149056215Y-96495968D01*
X149056219Y-96495966D01*
X149200966Y-96351219D01*
X149211786Y-96336326D01*
X149229381Y-96312109D01*
X149284710Y-96269442D01*
X149354324Y-96263462D01*
X149416119Y-96296068D01*
G37*
G04 #@! TD.AperFunction*
G04 #@! TA.AperFunction,Conductor*
G36*
X161797153Y-94062895D02*
G01*
X161841500Y-94091396D01*
X161844703Y-94094599D01*
X161878188Y-94155922D01*
X161873204Y-94225614D01*
X161844703Y-94269961D01*
X159396781Y-96717882D01*
X159335458Y-96751367D01*
X159280593Y-96750880D01*
X159276480Y-96749908D01*
X159216883Y-96743501D01*
X159216881Y-96743500D01*
X159216873Y-96743500D01*
X159216864Y-96743500D01*
X157521129Y-96743500D01*
X157521120Y-96743501D01*
X157455752Y-96750528D01*
X157386993Y-96738121D01*
X157335857Y-96690509D01*
X157318500Y-96627238D01*
X157318500Y-94699098D01*
X157338185Y-94632059D01*
X157390989Y-94586304D01*
X157460147Y-94576360D01*
X157511576Y-94596120D01*
X157521623Y-94602859D01*
X157540084Y-94621320D01*
X157601505Y-94656781D01*
X157677015Y-94700377D01*
X157829743Y-94741301D01*
X157829746Y-94741301D01*
X157995453Y-94741301D01*
X157995469Y-94741300D01*
X160680831Y-94741300D01*
X160680847Y-94741301D01*
X160688443Y-94741301D01*
X160846554Y-94741301D01*
X160846557Y-94741301D01*
X160999285Y-94700377D01*
X161074795Y-94656781D01*
X161136216Y-94621320D01*
X161248020Y-94509516D01*
X161248020Y-94509514D01*
X161258224Y-94499311D01*
X161258228Y-94499306D01*
X161666138Y-94091396D01*
X161727461Y-94057911D01*
X161797153Y-94062895D01*
G37*
G04 #@! TD.AperFunction*
G04 #@! TA.AperFunction,Conductor*
G36*
X119293593Y-87732655D02*
G01*
X119349526Y-87774527D01*
X119360743Y-87792541D01*
X119410713Y-87890611D01*
X119531028Y-88056213D01*
X119675786Y-88200971D01*
X119808285Y-88297235D01*
X119841390Y-88321287D01*
X119922499Y-88362614D01*
X120023776Y-88414218D01*
X120023778Y-88414218D01*
X120023781Y-88414220D01*
X120091561Y-88436243D01*
X120218465Y-88477477D01*
X120234496Y-88480016D01*
X120420648Y-88509500D01*
X120420649Y-88509500D01*
X120625348Y-88509500D01*
X120625352Y-88509500D01*
X120668103Y-88502728D01*
X120686641Y-88505123D01*
X120705147Y-88502463D01*
X120720575Y-88509508D01*
X120737393Y-88511682D01*
X120751694Y-88523720D01*
X120768703Y-88531488D01*
X120777872Y-88545756D01*
X120790846Y-88556677D01*
X120796368Y-88574537D01*
X120806477Y-88590266D01*
X120811034Y-88621965D01*
X120811487Y-88623428D01*
X120811500Y-88625201D01*
X120811500Y-88872500D01*
X120791815Y-88939539D01*
X120739011Y-88985294D01*
X120687501Y-88996500D01*
X120564130Y-88996500D01*
X120564123Y-88996501D01*
X120504516Y-89002908D01*
X120369671Y-89053202D01*
X120369664Y-89053206D01*
X120254455Y-89139452D01*
X120254452Y-89139455D01*
X120168206Y-89254664D01*
X120168203Y-89254670D01*
X120117908Y-89389517D01*
X120111501Y-89449116D01*
X120111501Y-89449123D01*
X120111500Y-89449135D01*
X120111500Y-91144870D01*
X120111501Y-91144876D01*
X120117908Y-91204483D01*
X120168202Y-91339328D01*
X120168204Y-91339331D01*
X120209483Y-91394472D01*
X120233901Y-91459936D01*
X120219050Y-91528210D01*
X120197898Y-91556465D01*
X118757286Y-92997078D01*
X118645482Y-93108881D01*
X118645480Y-93108883D01*
X118645480Y-93108884D01*
X118604050Y-93180643D01*
X118566423Y-93245815D01*
X118525499Y-93398543D01*
X118525499Y-93398545D01*
X118525499Y-93566646D01*
X118525500Y-93566659D01*
X118525500Y-94277270D01*
X118505815Y-94344309D01*
X118468133Y-94381191D01*
X118468248Y-94381349D01*
X118467176Y-94382127D01*
X118466285Y-94383000D01*
X118464309Y-94384210D01*
X118303533Y-94501021D01*
X118163020Y-94641534D01*
X118125018Y-94693840D01*
X118069687Y-94736505D01*
X118000074Y-94742484D01*
X117938279Y-94709878D01*
X117903922Y-94649039D01*
X117900700Y-94620954D01*
X117900700Y-89074397D01*
X117920385Y-89007358D01*
X117937019Y-88986716D01*
X118540516Y-88383219D01*
X119162580Y-87761154D01*
X119223901Y-87727671D01*
X119293593Y-87732655D01*
G37*
G04 #@! TD.AperFunction*
G04 #@! TA.AperFunction,Conductor*
G36*
X139551351Y-91343586D02*
G01*
X139591880Y-91400500D01*
X139598700Y-91441057D01*
X139598700Y-92672702D01*
X139579015Y-92739741D01*
X139562381Y-92760383D01*
X139352527Y-92970237D01*
X139291204Y-93003722D01*
X139238478Y-93003159D01*
X139238448Y-93003349D01*
X139237162Y-93003145D01*
X139235908Y-93003132D01*
X139233637Y-93002587D01*
X139128664Y-92985961D01*
X139037361Y-92971500D01*
X138838639Y-92971500D01*
X138773214Y-92981862D01*
X138642362Y-93002587D01*
X138453370Y-93063993D01*
X138453367Y-93063994D01*
X138276305Y-93154213D01*
X138115533Y-93271021D01*
X137975021Y-93411533D01*
X137975021Y-93411534D01*
X137975019Y-93411536D01*
X137937772Y-93462802D01*
X137884817Y-93535688D01*
X137829487Y-93578353D01*
X137759873Y-93584332D01*
X137698078Y-93551726D01*
X137663721Y-93490887D01*
X137660499Y-93462802D01*
X137660499Y-93424129D01*
X137660498Y-93424123D01*
X137659523Y-93415055D01*
X137654091Y-93364517D01*
X137648745Y-93350184D01*
X137603797Y-93229671D01*
X137603793Y-93229664D01*
X137517547Y-93114455D01*
X137517544Y-93114452D01*
X137402335Y-93028206D01*
X137402328Y-93028202D01*
X137267482Y-92977908D01*
X137267483Y-92977908D01*
X137207883Y-92971501D01*
X137207881Y-92971500D01*
X137207873Y-92971500D01*
X137207864Y-92971500D01*
X135588129Y-92971500D01*
X135588123Y-92971501D01*
X135520804Y-92978738D01*
X135520650Y-92977313D01*
X135459340Y-92974020D01*
X135402673Y-92933146D01*
X135377099Y-92868125D01*
X135390739Y-92799599D01*
X135412921Y-92769413D01*
X136325679Y-91856654D01*
X136387000Y-91823171D01*
X136456691Y-91828155D01*
X136468317Y-91832491D01*
X136468316Y-91832491D01*
X136475244Y-91833235D01*
X136527927Y-91838900D01*
X138604872Y-91838899D01*
X138664483Y-91832491D01*
X138799331Y-91782196D01*
X138914546Y-91695946D01*
X138917131Y-91692492D01*
X138920582Y-91689908D01*
X138920814Y-91689677D01*
X138920847Y-91689710D01*
X138973061Y-91650621D01*
X138984302Y-91647027D01*
X139046045Y-91630484D01*
X139090481Y-91618578D01*
X139090482Y-91618577D01*
X139090484Y-91618577D01*
X139112700Y-91605751D01*
X139227409Y-91539524D01*
X139227408Y-91539524D01*
X139227416Y-91539520D01*
X139339220Y-91427716D01*
X139367313Y-91379057D01*
X139417879Y-91330842D01*
X139486486Y-91317618D01*
X139551351Y-91343586D01*
G37*
G04 #@! TD.AperFunction*
G04 #@! TA.AperFunction,Conductor*
G36*
X141384291Y-90558155D02*
G01*
X141395917Y-90562491D01*
X141395916Y-90562491D01*
X141402844Y-90563235D01*
X141455527Y-90568900D01*
X143097601Y-90568899D01*
X143127044Y-90577544D01*
X143157027Y-90584067D01*
X143162042Y-90587821D01*
X143164640Y-90588584D01*
X143185282Y-90605217D01*
X143188078Y-90608013D01*
X143188080Y-90608016D01*
X143299884Y-90719820D01*
X143299886Y-90719821D01*
X143306956Y-90726891D01*
X144143560Y-91563495D01*
X144177045Y-91624818D01*
X144172061Y-91694510D01*
X144130189Y-91750443D01*
X144064725Y-91774860D01*
X144023785Y-91770951D01*
X144018085Y-91769423D01*
X144018084Y-91769423D01*
X143954000Y-91752251D01*
X143911904Y-91740972D01*
X143852244Y-91704606D01*
X143844737Y-91695516D01*
X143842146Y-91692054D01*
X143726931Y-91605804D01*
X143726929Y-91605803D01*
X143726928Y-91605802D01*
X143592082Y-91555508D01*
X143592083Y-91555508D01*
X143532483Y-91549101D01*
X143532481Y-91549100D01*
X143532473Y-91549100D01*
X143532464Y-91549100D01*
X141455529Y-91549100D01*
X141455523Y-91549101D01*
X141395916Y-91555508D01*
X141261071Y-91605802D01*
X141261064Y-91605806D01*
X141145855Y-91692052D01*
X141145852Y-91692055D01*
X141059606Y-91807264D01*
X141059602Y-91807271D01*
X141039882Y-91860145D01*
X140998011Y-91916079D01*
X140932546Y-91940496D01*
X140864273Y-91925644D01*
X140814868Y-91876239D01*
X140799700Y-91816812D01*
X140799700Y-91091596D01*
X140819385Y-91024557D01*
X140836015Y-91003919D01*
X141253279Y-90586654D01*
X141314600Y-90553171D01*
X141384291Y-90558155D01*
G37*
G04 #@! TD.AperFunction*
G04 #@! TA.AperFunction,Conductor*
G36*
X126801444Y-84528999D02*
G01*
X126840486Y-84574056D01*
X126844951Y-84582820D01*
X126969890Y-84754786D01*
X127108602Y-84893498D01*
X127142087Y-84954821D01*
X127137103Y-85024513D01*
X127108602Y-85068860D01*
X125679586Y-86497878D01*
X125567781Y-86609682D01*
X125567777Y-86609687D01*
X125527888Y-86678779D01*
X125527888Y-86678780D01*
X125488723Y-86746614D01*
X125479699Y-86780294D01*
X125447799Y-86899343D01*
X125447799Y-86899345D01*
X125447799Y-87067446D01*
X125447800Y-87067459D01*
X125447800Y-87394902D01*
X125428115Y-87461941D01*
X125411481Y-87482583D01*
X122924180Y-89969884D01*
X122862857Y-90003369D01*
X122793165Y-89998385D01*
X122737232Y-89956513D01*
X122712815Y-89891049D01*
X122712499Y-89882203D01*
X122712499Y-89449129D01*
X122712498Y-89449123D01*
X122712497Y-89449116D01*
X122706091Y-89389517D01*
X122706091Y-89389516D01*
X122655797Y-89254670D01*
X122655793Y-89254664D01*
X122569547Y-89139455D01*
X122569544Y-89139452D01*
X122454335Y-89053206D01*
X122454328Y-89053202D01*
X122319482Y-89002908D01*
X122319483Y-89002908D01*
X122259883Y-88996501D01*
X122259881Y-88996500D01*
X122259873Y-88996500D01*
X122259865Y-88996500D01*
X122136500Y-88996500D01*
X122069461Y-88976815D01*
X122023706Y-88924011D01*
X122012500Y-88872500D01*
X122012500Y-88187059D01*
X122012501Y-88187046D01*
X122012501Y-88018945D01*
X122012501Y-88018943D01*
X121971577Y-87866215D01*
X121936201Y-87804943D01*
X121892520Y-87729284D01*
X121811823Y-87648587D01*
X121807236Y-87642746D01*
X121796918Y-87616923D01*
X121783592Y-87592518D01*
X121783989Y-87584566D01*
X121781312Y-87577864D01*
X121785376Y-87556851D01*
X121786827Y-87527842D01*
X121791477Y-87513534D01*
X121823500Y-87311352D01*
X121823500Y-87106648D01*
X121801057Y-86964949D01*
X121791477Y-86904465D01*
X121758428Y-86802753D01*
X121728220Y-86709781D01*
X121728218Y-86709778D01*
X121728218Y-86709776D01*
X121680193Y-86615523D01*
X121635287Y-86527390D01*
X121613847Y-86497880D01*
X121514971Y-86361786D01*
X121370213Y-86217028D01*
X121204611Y-86096713D01*
X121106541Y-86046743D01*
X121055746Y-85998769D01*
X121038951Y-85930948D01*
X121061489Y-85864813D01*
X121075151Y-85848583D01*
X121952825Y-84970908D01*
X122014146Y-84937425D01*
X122083837Y-84942409D01*
X122113389Y-84958273D01*
X122133559Y-84972927D01*
X122212184Y-85030051D01*
X122401588Y-85126557D01*
X122603757Y-85192246D01*
X122813713Y-85225500D01*
X122813714Y-85225500D01*
X123026286Y-85225500D01*
X123026287Y-85225500D01*
X123236243Y-85192246D01*
X123438412Y-85126557D01*
X123627816Y-85030051D01*
X123706441Y-84972927D01*
X123799786Y-84905109D01*
X123799788Y-84905106D01*
X123799792Y-84905104D01*
X123950104Y-84754792D01*
X123950106Y-84754788D01*
X123950109Y-84754786D01*
X124075048Y-84582820D01*
X124075047Y-84582820D01*
X124075051Y-84582816D01*
X124079514Y-84574054D01*
X124127488Y-84523259D01*
X124195308Y-84506463D01*
X124261444Y-84528999D01*
X124300486Y-84574056D01*
X124304951Y-84582820D01*
X124429890Y-84754786D01*
X124580213Y-84905109D01*
X124752179Y-85030048D01*
X124752181Y-85030049D01*
X124752184Y-85030051D01*
X124941588Y-85126557D01*
X125143757Y-85192246D01*
X125353713Y-85225500D01*
X125353714Y-85225500D01*
X125566286Y-85225500D01*
X125566287Y-85225500D01*
X125776243Y-85192246D01*
X125978412Y-85126557D01*
X126167816Y-85030051D01*
X126246441Y-84972927D01*
X126339786Y-84905109D01*
X126339788Y-84905106D01*
X126339792Y-84905104D01*
X126490104Y-84754792D01*
X126490106Y-84754788D01*
X126490109Y-84754786D01*
X126615048Y-84582820D01*
X126615047Y-84582820D01*
X126615051Y-84582816D01*
X126619514Y-84574054D01*
X126667488Y-84523259D01*
X126735308Y-84506463D01*
X126801444Y-84528999D01*
G37*
G04 #@! TD.AperFunction*
G04 #@! TA.AperFunction,Conductor*
G36*
X166443039Y-82019685D02*
G01*
X166488794Y-82072489D01*
X166500000Y-82124000D01*
X166500000Y-87010742D01*
X166480315Y-87077781D01*
X166427511Y-87123536D01*
X166358353Y-87133480D01*
X166294797Y-87104455D01*
X166288319Y-87098423D01*
X166279786Y-87089890D01*
X166107820Y-86964951D01*
X165918414Y-86868444D01*
X165918413Y-86868443D01*
X165918412Y-86868443D01*
X165716243Y-86802754D01*
X165716241Y-86802753D01*
X165716240Y-86802753D01*
X165554957Y-86777208D01*
X165506287Y-86769500D01*
X165293713Y-86769500D01*
X165245042Y-86777208D01*
X165083760Y-86802753D01*
X164881585Y-86868444D01*
X164692179Y-86964951D01*
X164520215Y-87089889D01*
X164406673Y-87203431D01*
X164345350Y-87236915D01*
X164275658Y-87231931D01*
X164219725Y-87190059D01*
X164202810Y-87159082D01*
X164153797Y-87027671D01*
X164153793Y-87027664D01*
X164067547Y-86912455D01*
X164067544Y-86912452D01*
X163952335Y-86826206D01*
X163952328Y-86826202D01*
X163817482Y-86775908D01*
X163817483Y-86775908D01*
X163757883Y-86769501D01*
X163757881Y-86769500D01*
X163757873Y-86769500D01*
X163757864Y-86769500D01*
X161962129Y-86769500D01*
X161962123Y-86769501D01*
X161902516Y-86775908D01*
X161767671Y-86826202D01*
X161767664Y-86826206D01*
X161652455Y-86912452D01*
X161652452Y-86912455D01*
X161566206Y-87027664D01*
X161566202Y-87027671D01*
X161515908Y-87162517D01*
X161509501Y-87222116D01*
X161509500Y-87222135D01*
X161509500Y-87469787D01*
X161489815Y-87536826D01*
X161447500Y-87577174D01*
X161339587Y-87639477D01*
X161339582Y-87639481D01*
X161227781Y-87751282D01*
X161227775Y-87751290D01*
X161148726Y-87888209D01*
X161148723Y-87888216D01*
X161107800Y-88040943D01*
X161107800Y-88410102D01*
X161088115Y-88477141D01*
X161071481Y-88497783D01*
X159718619Y-89850644D01*
X159657296Y-89884129D01*
X159587604Y-89879145D01*
X159531671Y-89837273D01*
X159520453Y-89819258D01*
X159518670Y-89815758D01*
X159481287Y-89742390D01*
X159481285Y-89742387D01*
X159481284Y-89742385D01*
X159360971Y-89576786D01*
X159216213Y-89432028D01*
X159050611Y-89311713D01*
X159010488Y-89291269D01*
X158987969Y-89270000D01*
X158964094Y-89250288D01*
X158962795Y-89246224D01*
X158959693Y-89243295D01*
X158952249Y-89213235D01*
X158942819Y-89183736D01*
X158943510Y-89177948D01*
X158942898Y-89175473D01*
X158947008Y-89148698D01*
X158963634Y-89086647D01*
X158999998Y-89026989D01*
X159027108Y-89008261D01*
X159050610Y-88996287D01*
X159216219Y-88875966D01*
X159360966Y-88731219D01*
X159360968Y-88731215D01*
X159360971Y-88731213D01*
X159440343Y-88621965D01*
X159481287Y-88565610D01*
X159574220Y-88383219D01*
X159637477Y-88188534D01*
X159669500Y-87986352D01*
X159669500Y-87781648D01*
X159646983Y-87639481D01*
X159637477Y-87579465D01*
X159591013Y-87436464D01*
X159574220Y-87384781D01*
X159574218Y-87384778D01*
X159574218Y-87384776D01*
X159518637Y-87275694D01*
X159481287Y-87202390D01*
X159449822Y-87159082D01*
X159360971Y-87036786D01*
X159216213Y-86892028D01*
X159050613Y-86771715D01*
X159050612Y-86771714D01*
X159050610Y-86771713D01*
X158947177Y-86719011D01*
X158868223Y-86678781D01*
X158673534Y-86615522D01*
X158498995Y-86587878D01*
X158471352Y-86583500D01*
X158266648Y-86583500D01*
X158242329Y-86587351D01*
X158064465Y-86615522D01*
X157869776Y-86678781D01*
X157687386Y-86771715D01*
X157517839Y-86894897D01*
X157516958Y-86893685D01*
X157459273Y-86919535D01*
X157390187Y-86909100D01*
X157337710Y-86862970D01*
X157318500Y-86796675D01*
X157318500Y-86233796D01*
X157338185Y-86166757D01*
X157354814Y-86146120D01*
X158558506Y-84942427D01*
X158558511Y-84942424D01*
X158568714Y-84932220D01*
X158568716Y-84932220D01*
X158680520Y-84820416D01*
X158742825Y-84712498D01*
X158793391Y-84664284D01*
X158850212Y-84650499D01*
X159097871Y-84650499D01*
X159097872Y-84650499D01*
X159157483Y-84644091D01*
X159292331Y-84593796D01*
X159407546Y-84507546D01*
X159493796Y-84392331D01*
X159544091Y-84257483D01*
X159550500Y-84197873D01*
X159550499Y-82402128D01*
X159544091Y-82342517D01*
X159495292Y-82211681D01*
X159493797Y-82207671D01*
X159493795Y-82207667D01*
X159486792Y-82198313D01*
X159462373Y-82132849D01*
X159477223Y-82064576D01*
X159526627Y-82015169D01*
X159586057Y-82000000D01*
X166376000Y-82000000D01*
X166443039Y-82019685D01*
G37*
G04 #@! TD.AperFunction*
G04 #@! TA.AperFunction,Conductor*
G36*
X140922234Y-88121514D02*
G01*
X140978167Y-88163386D01*
X141002584Y-88228850D01*
X141002900Y-88237696D01*
X141002900Y-88846270D01*
X141002901Y-88846276D01*
X141009308Y-88905883D01*
X141059603Y-89040730D01*
X141062472Y-89045984D01*
X141077323Y-89114257D01*
X141052905Y-89179722D01*
X141006209Y-89217715D01*
X140996300Y-89222353D01*
X140969915Y-89229423D01*
X140926188Y-89254669D01*
X140921588Y-89257324D01*
X140921579Y-89257329D01*
X140829999Y-89310203D01*
X140762099Y-89326674D01*
X140696072Y-89303822D01*
X140652882Y-89248900D01*
X140644000Y-89202815D01*
X140644000Y-88348596D01*
X140663685Y-88281557D01*
X140680315Y-88260919D01*
X140791220Y-88150014D01*
X140852542Y-88116530D01*
X140922234Y-88121514D01*
G37*
G04 #@! TD.AperFunction*
G04 #@! TA.AperFunction,Conductor*
G36*
X151706441Y-82019685D02*
G01*
X151752196Y-82072489D01*
X151762140Y-82141647D01*
X151733115Y-82205203D01*
X151727083Y-82211681D01*
X148835193Y-85103570D01*
X148835191Y-85103572D01*
X148830180Y-85108584D01*
X148781878Y-85192246D01*
X148781367Y-85193129D01*
X148781358Y-85193146D01*
X148754481Y-85239699D01*
X148751123Y-85245515D01*
X148710199Y-85398243D01*
X148710199Y-85398245D01*
X148710199Y-85566346D01*
X148710200Y-85566359D01*
X148710200Y-88058302D01*
X148690515Y-88125341D01*
X148673881Y-88145983D01*
X148109890Y-88709973D01*
X148054304Y-88742066D01*
X147977220Y-88762721D01*
X147977209Y-88762726D01*
X147840290Y-88841775D01*
X147840282Y-88841781D01*
X147830281Y-88851783D01*
X147768958Y-88885268D01*
X147699266Y-88880284D01*
X147643333Y-88838412D01*
X147618916Y-88772948D01*
X147618600Y-88764102D01*
X147618600Y-85931865D01*
X147638285Y-85864826D01*
X147639498Y-85862974D01*
X147687232Y-85791536D01*
X147727494Y-85731279D01*
X147787837Y-85585597D01*
X147818600Y-85430942D01*
X147818600Y-85273258D01*
X147818600Y-85273255D01*
X147818599Y-85273253D01*
X147787837Y-85118603D01*
X147775376Y-85088519D01*
X147727497Y-84972927D01*
X147727490Y-84972914D01*
X147639889Y-84841811D01*
X147639886Y-84841807D01*
X147528392Y-84730313D01*
X147528388Y-84730310D01*
X147397285Y-84642709D01*
X147397272Y-84642702D01*
X147251601Y-84582364D01*
X147251592Y-84582362D01*
X147183989Y-84568914D01*
X147158369Y-84555512D01*
X147131530Y-84544767D01*
X147127790Y-84539515D01*
X147122079Y-84536528D01*
X147107772Y-84511403D01*
X147091002Y-84487853D01*
X147090695Y-84481414D01*
X147087505Y-84475812D01*
X147089053Y-84446937D01*
X147087678Y-84418062D01*
X147091053Y-84409629D01*
X147091246Y-84406043D01*
X147100789Y-84385307D01*
X147149753Y-84300500D01*
X147159577Y-84283485D01*
X147192737Y-84159730D01*
X147229101Y-84100072D01*
X147256218Y-84081341D01*
X147284826Y-84066765D01*
X147307816Y-84055051D01*
X147479792Y-83930104D01*
X147630104Y-83779792D01*
X147630106Y-83779788D01*
X147630109Y-83779786D01*
X147755048Y-83607820D01*
X147755047Y-83607820D01*
X147755051Y-83607816D01*
X147851557Y-83418412D01*
X147917246Y-83216243D01*
X147950500Y-83006287D01*
X147950500Y-82793713D01*
X147917246Y-82583757D01*
X147851557Y-82381588D01*
X147755051Y-82192184D01*
X147755049Y-82192181D01*
X147752969Y-82188786D01*
X147734728Y-82121339D01*
X147755846Y-82054737D01*
X147809620Y-82010126D01*
X147858699Y-82000000D01*
X151639402Y-82000000D01*
X151706441Y-82019685D01*
G37*
G04 #@! TD.AperFunction*
G04 #@! TD*
M02*
