%TF.GenerationSoftware,KiCad,Pcbnew,9.0.0-9.0.0-2~ubuntu24.04.1*%
%TF.CreationDate,2025-03-11T17:36:26-03:00*%
%TF.ProjectId,Compact_signal_conditioner_V02a,436f6d70-6163-4745-9f73-69676e616c5f,V02a*%
%TF.SameCoordinates,Original*%
%TF.FileFunction,Drillmap*%
%TF.FilePolarity,Positive*%
%FSLAX45Y45*%
G04 Gerber Fmt 4.5, Leading zero omitted, Abs format (unit mm)*
G04 Created by KiCad (PCBNEW 9.0.0-9.0.0-2~ubuntu24.04.1) date 2025-03-11 17:36:26*
%MOMM*%
%LPD*%
G01*
G04 APERTURE LIST*
%ADD10C,0.150000*%
%ADD11C,0.200000*%
G04 APERTURE END LIST*
D10*
X10730000Y-8120000D02*
X10730000Y-11320000D01*
X10730000Y-8120000D02*
X16730000Y-8120000D01*
X16730000Y-8120000D02*
X16730000Y-11320000D01*
X10730000Y-11320000D02*
X16730000Y-11320000D01*
D11*
X10983277Y-11638984D02*
X10983277Y-11438984D01*
X10983277Y-11438984D02*
X11030896Y-11438984D01*
X11030896Y-11438984D02*
X11059467Y-11448508D01*
X11059467Y-11448508D02*
X11078515Y-11467555D01*
X11078515Y-11467555D02*
X11088039Y-11486603D01*
X11088039Y-11486603D02*
X11097563Y-11524698D01*
X11097563Y-11524698D02*
X11097563Y-11553269D01*
X11097563Y-11553269D02*
X11088039Y-11591365D01*
X11088039Y-11591365D02*
X11078515Y-11610412D01*
X11078515Y-11610412D02*
X11059467Y-11629460D01*
X11059467Y-11629460D02*
X11030896Y-11638984D01*
X11030896Y-11638984D02*
X10983277Y-11638984D01*
X11183277Y-11638984D02*
X11183277Y-11505650D01*
X11183277Y-11543746D02*
X11192801Y-11524698D01*
X11192801Y-11524698D02*
X11202324Y-11515174D01*
X11202324Y-11515174D02*
X11221372Y-11505650D01*
X11221372Y-11505650D02*
X11240420Y-11505650D01*
X11307086Y-11638984D02*
X11307086Y-11505650D01*
X11307086Y-11438984D02*
X11297562Y-11448508D01*
X11297562Y-11448508D02*
X11307086Y-11458031D01*
X11307086Y-11458031D02*
X11316610Y-11448508D01*
X11316610Y-11448508D02*
X11307086Y-11438984D01*
X11307086Y-11438984D02*
X11307086Y-11458031D01*
X11430896Y-11638984D02*
X11411848Y-11629460D01*
X11411848Y-11629460D02*
X11402324Y-11610412D01*
X11402324Y-11610412D02*
X11402324Y-11438984D01*
X11535658Y-11638984D02*
X11516610Y-11629460D01*
X11516610Y-11629460D02*
X11507086Y-11610412D01*
X11507086Y-11610412D02*
X11507086Y-11438984D01*
X11764229Y-11638984D02*
X11764229Y-11438984D01*
X11764229Y-11438984D02*
X11830896Y-11581841D01*
X11830896Y-11581841D02*
X11897562Y-11438984D01*
X11897562Y-11438984D02*
X11897562Y-11638984D01*
X12078515Y-11638984D02*
X12078515Y-11534222D01*
X12078515Y-11534222D02*
X12068991Y-11515174D01*
X12068991Y-11515174D02*
X12049943Y-11505650D01*
X12049943Y-11505650D02*
X12011848Y-11505650D01*
X12011848Y-11505650D02*
X11992801Y-11515174D01*
X12078515Y-11629460D02*
X12059467Y-11638984D01*
X12059467Y-11638984D02*
X12011848Y-11638984D01*
X12011848Y-11638984D02*
X11992801Y-11629460D01*
X11992801Y-11629460D02*
X11983277Y-11610412D01*
X11983277Y-11610412D02*
X11983277Y-11591365D01*
X11983277Y-11591365D02*
X11992801Y-11572317D01*
X11992801Y-11572317D02*
X12011848Y-11562793D01*
X12011848Y-11562793D02*
X12059467Y-11562793D01*
X12059467Y-11562793D02*
X12078515Y-11553269D01*
X12173753Y-11505650D02*
X12173753Y-11705650D01*
X12173753Y-11515174D02*
X12192801Y-11505650D01*
X12192801Y-11505650D02*
X12230896Y-11505650D01*
X12230896Y-11505650D02*
X12249943Y-11515174D01*
X12249943Y-11515174D02*
X12259467Y-11524698D01*
X12259467Y-11524698D02*
X12268991Y-11543746D01*
X12268991Y-11543746D02*
X12268991Y-11600888D01*
X12268991Y-11600888D02*
X12259467Y-11619936D01*
X12259467Y-11619936D02*
X12249943Y-11629460D01*
X12249943Y-11629460D02*
X12230896Y-11638984D01*
X12230896Y-11638984D02*
X12192801Y-11638984D01*
X12192801Y-11638984D02*
X12173753Y-11629460D01*
X12354705Y-11619936D02*
X12364229Y-11629460D01*
X12364229Y-11629460D02*
X12354705Y-11638984D01*
X12354705Y-11638984D02*
X12345182Y-11629460D01*
X12345182Y-11629460D02*
X12354705Y-11619936D01*
X12354705Y-11619936D02*
X12354705Y-11638984D01*
X12354705Y-11515174D02*
X12364229Y-11524698D01*
X12364229Y-11524698D02*
X12354705Y-11534222D01*
X12354705Y-11534222D02*
X12345182Y-11524698D01*
X12345182Y-11524698D02*
X12354705Y-11515174D01*
X12354705Y-11515174D02*
X12354705Y-11534222D01*
M02*
