M48
; DRILL file {KiCad 9.0.0-9.0.0-2~ubuntu24.04.1} date 2025-03-11T17:36:26-0300
; FORMAT={-:-/ absolute / metric / decimal}
; #@! TF.CreationDate,2025-03-11T17:36:26-03:00
; #@! TF.GenerationSoftware,Kicad,Pcbnew,9.0.0-9.0.0-2~ubuntu24.04.1
; #@! TF.FileFunction,Plated,1,2,PTH
FMAT,2
METRIC
; #@! TA.AperFunction,Plated,PTH,ViaDrill
T1C0.300
; #@! TA.AperFunction,Plated,PTH,ComponentDrill
T2C0.800
; #@! TA.AperFunction,Plated,PTH,ComponentDrill
T3C0.813
; #@! TA.AperFunction,Plated,PTH,ComponentDrill
T4C1.000
; #@! TA.AperFunction,Plated,PTH,ComponentDrill
T5C1.100
%
G90
G05
T1
X107.955Y-88.418
X108.6Y-103.0
X118.2Y-89.4
X123.0Y-87.0
X123.763Y-98.022
X133.611Y-96.255
X133.786Y-98.859
X134.19Y-107.696
X134.2Y-90.8
X135.677Y-99.891
X136.2Y-85.0
X139.5Y-101.5
X145.216Y-103.614
X145.249Y-108.895
X145.249Y-111.722
X146.853Y-109.898
X147.018Y-85.352
X148.6Y-85.2
X149.306Y-96.379
X149.8Y-82.6
X151.634Y-86.775
X151.638Y-111.895
X151.892Y-96.304
X154.593Y-94.402
X158.111Y-101.934
X161.206Y-98.202
X161.465Y-99.38
X163.6Y-83.2
T2
X108.7Y-83.8
X110.6Y-108.3
X110.6Y-110.8
X111.2Y-83.8
X112.649Y-97.409
X112.649Y-105.029
X112.776Y-87.249
X112.776Y-94.869
X114.69Y-107.6
X115.697Y-97.409
X115.697Y-105.029
X115.824Y-87.249
X115.824Y-94.869
X120.523Y-87.209
X121.412Y-90.297
X121.412Y-92.797
X122.31Y-107.6
X124.895Y-107.0
X127.0Y-90.297
X127.0Y-92.797
X127.395Y-107.0
X128.143Y-87.209
X129.794Y-96.52
X129.794Y-104.14
X132.08Y-86.995
X132.08Y-89.495
X132.715Y-97.409
X132.715Y-99.949
X132.715Y-102.489
X132.715Y-105.029
X132.715Y-107.569
X137.23Y-82.8
X139.73Y-82.8
X142.875Y-97.409
X142.875Y-99.949
X142.875Y-102.489
X142.875Y-105.029
X142.875Y-107.569
X147.828Y-101.219
X147.828Y-108.839
X148.209Y-87.884
X148.209Y-90.424
X148.209Y-92.964
X148.209Y-95.504
X148.209Y-98.044
X158.369Y-87.884
X158.369Y-90.424
X158.369Y-92.964
X158.369Y-95.504
X158.369Y-98.044
X162.695Y-110.5
X165.195Y-110.5
T3
X119.126Y-95.464
X119.126Y-103.084
X121.666Y-95.464
X121.666Y-103.084
X124.206Y-95.464
X124.206Y-103.084
X126.746Y-95.464
X126.746Y-103.084
X136.398Y-86.614
X136.398Y-94.234
X138.938Y-86.614
X138.938Y-94.234
X141.478Y-86.614
X141.478Y-94.234
X144.018Y-86.614
X144.018Y-94.234
X151.638Y-101.219
X151.638Y-108.839
X154.178Y-101.219
X154.178Y-108.839
X156.718Y-101.219
X156.718Y-108.839
X159.258Y-101.219
X159.258Y-108.839
T4
X109.22Y-96.261
X109.22Y-98.801
X115.3Y-83.875
X115.315Y-111.5
X117.84Y-83.875
X117.855Y-111.5
X120.38Y-83.875
X120.395Y-111.5
X122.92Y-83.875
X122.935Y-111.5
X125.46Y-83.875
X125.475Y-111.5
X128.0Y-83.875
X128.015Y-111.5
X132.26Y-111.6
X134.8Y-111.6
X138.7Y-111.5
X141.24Y-111.5
X143.78Y-111.5
X144.06Y-82.9
X146.6Y-82.9
X153.12Y-83.3
X155.66Y-83.3
X158.2Y-83.3
X162.86Y-88.12
X162.86Y-90.66
X162.86Y-93.2
X162.86Y-95.74
X162.86Y-98.28
X162.86Y-100.82
X162.86Y-103.36
X162.86Y-105.9
X165.4Y-88.12
X165.4Y-90.66
X165.4Y-93.2
X165.4Y-95.74
X165.4Y-98.28
X165.4Y-100.82
X165.4Y-103.36
X165.4Y-105.9
T5
X136.271Y-97.536
X136.271Y-107.696
X139.573Y-97.536
X139.573Y-107.696
X151.892Y-88.392
X151.892Y-98.552
X155.194Y-88.392
X155.194Y-98.552
M30
