G04 #@! TF.GenerationSoftware,KiCad,Pcbnew,9.0.0-9.0.0-2~ubuntu24.04.1*
G04 #@! TF.CreationDate,2025-03-11T17:36:26-03:00*
G04 #@! TF.ProjectId,Compact_signal_conditioner_V02a,436f6d70-6163-4745-9f73-69676e616c5f,V02a*
G04 #@! TF.SameCoordinates,Original*
G04 #@! TF.FileFunction,Legend,Bot*
G04 #@! TF.FilePolarity,Positive*
%FSLAX46Y46*%
G04 Gerber Fmt 4.6, Leading zero omitted, Abs format (unit mm)*
G04 Created by KiCad (PCBNEW 9.0.0-9.0.0-2~ubuntu24.04.1) date 2025-03-11 17:36:26*
%MOMM*%
%LPD*%
G01*
G04 APERTURE LIST*
%ADD10C,0.100000*%
%ADD11C,0.050000*%
%ADD12C,0.150000*%
%ADD13C,0.152400*%
%ADD14C,0.120000*%
%ADD15R,1.600000X1.600000*%
%ADD16C,1.600000*%
%ADD17O,1.600000X1.600000*%
%ADD18R,1.700000X1.700000*%
%ADD19O,1.700000X1.700000*%
%ADD20R,1.524000X1.524000*%
%ADD21C,1.524000*%
%ADD22R,1.981200X0.558800*%
%ADD23R,2.200000X2.200000*%
%ADD24O,2.200000X2.200000*%
G04 APERTURE END LIST*
D10*
X161189594Y-96687323D02*
X161789594Y-96687323D01*
X161189594Y-96496847D02*
X161789594Y-96496847D01*
X161789594Y-96496847D02*
X161189594Y-96268276D01*
X161189594Y-96268276D02*
X161789594Y-96268276D01*
X161246737Y-95849228D02*
X161218166Y-95868276D01*
X161218166Y-95868276D02*
X161189594Y-95925418D01*
X161189594Y-95925418D02*
X161189594Y-95963514D01*
X161189594Y-95963514D02*
X161218166Y-96020657D01*
X161218166Y-96020657D02*
X161275308Y-96058752D01*
X161275308Y-96058752D02*
X161332451Y-96077799D01*
X161332451Y-96077799D02*
X161446737Y-96096847D01*
X161446737Y-96096847D02*
X161532451Y-96096847D01*
X161532451Y-96096847D02*
X161646737Y-96077799D01*
X161646737Y-96077799D02*
X161703880Y-96058752D01*
X161703880Y-96058752D02*
X161761023Y-96020657D01*
X161761023Y-96020657D02*
X161789594Y-95963514D01*
X161789594Y-95963514D02*
X161789594Y-95925418D01*
X161789594Y-95925418D02*
X161761023Y-95868276D01*
X161761023Y-95868276D02*
X161732451Y-95849228D01*
X160623628Y-96849227D02*
X160023628Y-96849227D01*
X160595057Y-96849227D02*
X160623628Y-96811132D01*
X160623628Y-96811132D02*
X160623628Y-96734942D01*
X160623628Y-96734942D02*
X160595057Y-96696846D01*
X160595057Y-96696846D02*
X160566485Y-96677799D01*
X160566485Y-96677799D02*
X160509342Y-96658751D01*
X160509342Y-96658751D02*
X160337914Y-96658751D01*
X160337914Y-96658751D02*
X160280771Y-96677799D01*
X160280771Y-96677799D02*
X160252200Y-96696846D01*
X160252200Y-96696846D02*
X160223628Y-96734942D01*
X160223628Y-96734942D02*
X160223628Y-96811132D01*
X160223628Y-96811132D02*
X160252200Y-96849227D01*
X160223628Y-96430180D02*
X160252200Y-96468275D01*
X160252200Y-96468275D02*
X160280771Y-96487322D01*
X160280771Y-96487322D02*
X160337914Y-96506370D01*
X160337914Y-96506370D02*
X160509342Y-96506370D01*
X160509342Y-96506370D02*
X160566485Y-96487322D01*
X160566485Y-96487322D02*
X160595057Y-96468275D01*
X160595057Y-96468275D02*
X160623628Y-96430180D01*
X160623628Y-96430180D02*
X160623628Y-96373037D01*
X160623628Y-96373037D02*
X160595057Y-96334941D01*
X160595057Y-96334941D02*
X160566485Y-96315894D01*
X160566485Y-96315894D02*
X160509342Y-96296846D01*
X160509342Y-96296846D02*
X160337914Y-96296846D01*
X160337914Y-96296846D02*
X160280771Y-96315894D01*
X160280771Y-96315894D02*
X160252200Y-96334941D01*
X160252200Y-96334941D02*
X160223628Y-96373037D01*
X160223628Y-96373037D02*
X160223628Y-96430180D01*
X160623628Y-96182560D02*
X160623628Y-96030179D01*
X160823628Y-96125417D02*
X160309342Y-96125417D01*
X160309342Y-96125417D02*
X160252200Y-96106370D01*
X160252200Y-96106370D02*
X160223628Y-96068275D01*
X160223628Y-96068275D02*
X160223628Y-96030179D01*
X160223628Y-95687323D02*
X160223628Y-95915894D01*
X160223628Y-95801608D02*
X160823628Y-95801608D01*
X160823628Y-95801608D02*
X160737914Y-95839704D01*
X160737914Y-95839704D02*
X160680771Y-95877799D01*
X160680771Y-95877799D02*
X160652200Y-95915894D01*
D11*
X122351941Y-109505933D02*
X122732894Y-109505933D01*
X122542417Y-109124980D02*
X122542417Y-109886885D01*
X123209084Y-110124980D02*
X122970989Y-110124980D01*
X122970989Y-110124980D02*
X122947180Y-109648790D01*
X122947180Y-109648790D02*
X122970989Y-109696409D01*
X122970989Y-109696409D02*
X123018608Y-109744028D01*
X123018608Y-109744028D02*
X123137656Y-109744028D01*
X123137656Y-109744028D02*
X123185275Y-109696409D01*
X123185275Y-109696409D02*
X123209084Y-109648790D01*
X123209084Y-109648790D02*
X123232894Y-109553552D01*
X123232894Y-109553552D02*
X123232894Y-109315457D01*
X123232894Y-109315457D02*
X123209084Y-109220219D01*
X123209084Y-109220219D02*
X123185275Y-109172600D01*
X123185275Y-109172600D02*
X123137656Y-109124980D01*
X123137656Y-109124980D02*
X123018608Y-109124980D01*
X123018608Y-109124980D02*
X122970989Y-109172600D01*
X122970989Y-109172600D02*
X122947180Y-109220219D01*
X123375751Y-110124980D02*
X123542417Y-109124980D01*
X123542417Y-109124980D02*
X123709084Y-110124980D01*
D10*
X166535771Y-107110401D02*
X166507200Y-107129449D01*
X166507200Y-107129449D02*
X166478628Y-107186591D01*
X166478628Y-107186591D02*
X166478628Y-107224687D01*
X166478628Y-107224687D02*
X166507200Y-107281830D01*
X166507200Y-107281830D02*
X166564342Y-107319925D01*
X166564342Y-107319925D02*
X166621485Y-107338972D01*
X166621485Y-107338972D02*
X166735771Y-107358020D01*
X166735771Y-107358020D02*
X166821485Y-107358020D01*
X166821485Y-107358020D02*
X166935771Y-107338972D01*
X166935771Y-107338972D02*
X166992914Y-107319925D01*
X166992914Y-107319925D02*
X167050057Y-107281830D01*
X167050057Y-107281830D02*
X167078628Y-107224687D01*
X167078628Y-107224687D02*
X167078628Y-107186591D01*
X167078628Y-107186591D02*
X167050057Y-107129449D01*
X167050057Y-107129449D02*
X167021485Y-107110401D01*
X166478628Y-106767544D02*
X166792914Y-106767544D01*
X166792914Y-106767544D02*
X166850057Y-106786591D01*
X166850057Y-106786591D02*
X166878628Y-106824687D01*
X166878628Y-106824687D02*
X166878628Y-106900877D01*
X166878628Y-106900877D02*
X166850057Y-106938972D01*
X166507200Y-106767544D02*
X166478628Y-106805639D01*
X166478628Y-106805639D02*
X166478628Y-106900877D01*
X166478628Y-106900877D02*
X166507200Y-106938972D01*
X166507200Y-106938972D02*
X166564342Y-106958020D01*
X166564342Y-106958020D02*
X166621485Y-106958020D01*
X166621485Y-106958020D02*
X166678628Y-106938972D01*
X166678628Y-106938972D02*
X166707200Y-106900877D01*
X166707200Y-106900877D02*
X166707200Y-106805639D01*
X166707200Y-106805639D02*
X166735771Y-106767544D01*
X166878628Y-106577067D02*
X166478628Y-106577067D01*
X166821485Y-106577067D02*
X166850057Y-106558020D01*
X166850057Y-106558020D02*
X166878628Y-106519925D01*
X166878628Y-106519925D02*
X166878628Y-106462782D01*
X166878628Y-106462782D02*
X166850057Y-106424686D01*
X166850057Y-106424686D02*
X166792914Y-106405639D01*
X166792914Y-106405639D02*
X166478628Y-106405639D01*
X166478628Y-106043734D02*
X166792914Y-106043734D01*
X166792914Y-106043734D02*
X166850057Y-106062781D01*
X166850057Y-106062781D02*
X166878628Y-106100877D01*
X166878628Y-106100877D02*
X166878628Y-106177067D01*
X166878628Y-106177067D02*
X166850057Y-106215162D01*
X166507200Y-106043734D02*
X166478628Y-106081829D01*
X166478628Y-106081829D02*
X166478628Y-106177067D01*
X166478628Y-106177067D02*
X166507200Y-106215162D01*
X166507200Y-106215162D02*
X166564342Y-106234210D01*
X166564342Y-106234210D02*
X166621485Y-106234210D01*
X166621485Y-106234210D02*
X166678628Y-106215162D01*
X166678628Y-106215162D02*
X166707200Y-106177067D01*
X166707200Y-106177067D02*
X166707200Y-106081829D01*
X166707200Y-106081829D02*
X166735771Y-106043734D01*
X166478628Y-105796115D02*
X166507200Y-105834210D01*
X166507200Y-105834210D02*
X166564342Y-105853257D01*
X166564342Y-105853257D02*
X167078628Y-105853257D01*
X166478628Y-105129448D02*
X166478628Y-105358019D01*
X166478628Y-105243733D02*
X167078628Y-105243733D01*
X167078628Y-105243733D02*
X166992914Y-105281829D01*
X166992914Y-105281829D02*
X166935771Y-105319924D01*
X166935771Y-105319924D02*
X166907200Y-105358019D01*
D11*
X124751941Y-109475933D02*
X125132894Y-109475933D01*
X125394799Y-109094980D02*
X125490037Y-109094980D01*
X125490037Y-109094980D02*
X125537656Y-109142600D01*
X125537656Y-109142600D02*
X125561465Y-109190219D01*
X125561465Y-109190219D02*
X125609084Y-109333076D01*
X125609084Y-109333076D02*
X125632894Y-109523552D01*
X125632894Y-109523552D02*
X125632894Y-109904504D01*
X125632894Y-109904504D02*
X125609084Y-109999742D01*
X125609084Y-109999742D02*
X125585275Y-110047361D01*
X125585275Y-110047361D02*
X125537656Y-110094980D01*
X125537656Y-110094980D02*
X125442418Y-110094980D01*
X125442418Y-110094980D02*
X125394799Y-110047361D01*
X125394799Y-110047361D02*
X125370989Y-109999742D01*
X125370989Y-109999742D02*
X125347180Y-109904504D01*
X125347180Y-109904504D02*
X125347180Y-109666409D01*
X125347180Y-109666409D02*
X125370989Y-109571171D01*
X125370989Y-109571171D02*
X125394799Y-109523552D01*
X125394799Y-109523552D02*
X125442418Y-109475933D01*
X125442418Y-109475933D02*
X125537656Y-109475933D01*
X125537656Y-109475933D02*
X125585275Y-109523552D01*
X125585275Y-109523552D02*
X125609084Y-109571171D01*
X125609084Y-109571171D02*
X125632894Y-109666409D01*
X125775751Y-110094980D02*
X125942417Y-109094980D01*
X125942417Y-109094980D02*
X126109084Y-110094980D01*
D12*
X162687030Y-110250855D02*
X162758458Y-110322284D01*
X162758458Y-110322284D02*
X162972744Y-110393712D01*
X162972744Y-110393712D02*
X163115601Y-110393712D01*
X163115601Y-110393712D02*
X163329887Y-110322284D01*
X163329887Y-110322284D02*
X163472744Y-110179426D01*
X163472744Y-110179426D02*
X163544173Y-110036569D01*
X163544173Y-110036569D02*
X163615601Y-109750855D01*
X163615601Y-109750855D02*
X163615601Y-109536569D01*
X163615601Y-109536569D02*
X163544173Y-109250855D01*
X163544173Y-109250855D02*
X163472744Y-109107998D01*
X163472744Y-109107998D02*
X163329887Y-108965141D01*
X163329887Y-108965141D02*
X163115601Y-108893712D01*
X163115601Y-108893712D02*
X162972744Y-108893712D01*
X162972744Y-108893712D02*
X162758458Y-108965141D01*
X162758458Y-108965141D02*
X162687030Y-109036569D01*
X162115601Y-110322284D02*
X161901316Y-110393712D01*
X161901316Y-110393712D02*
X161544173Y-110393712D01*
X161544173Y-110393712D02*
X161401316Y-110322284D01*
X161401316Y-110322284D02*
X161329887Y-110250855D01*
X161329887Y-110250855D02*
X161258458Y-110107998D01*
X161258458Y-110107998D02*
X161258458Y-109965141D01*
X161258458Y-109965141D02*
X161329887Y-109822284D01*
X161329887Y-109822284D02*
X161401316Y-109750855D01*
X161401316Y-109750855D02*
X161544173Y-109679426D01*
X161544173Y-109679426D02*
X161829887Y-109607998D01*
X161829887Y-109607998D02*
X161972744Y-109536569D01*
X161972744Y-109536569D02*
X162044173Y-109465141D01*
X162044173Y-109465141D02*
X162115601Y-109322284D01*
X162115601Y-109322284D02*
X162115601Y-109179426D01*
X162115601Y-109179426D02*
X162044173Y-109036569D01*
X162044173Y-109036569D02*
X161972744Y-108965141D01*
X161972744Y-108965141D02*
X161829887Y-108893712D01*
X161829887Y-108893712D02*
X161472744Y-108893712D01*
X161472744Y-108893712D02*
X161258458Y-108965141D01*
X160615602Y-109822284D02*
X159472745Y-109822284D01*
X157901316Y-110250855D02*
X157972744Y-110322284D01*
X157972744Y-110322284D02*
X158187030Y-110393712D01*
X158187030Y-110393712D02*
X158329887Y-110393712D01*
X158329887Y-110393712D02*
X158544173Y-110322284D01*
X158544173Y-110322284D02*
X158687030Y-110179426D01*
X158687030Y-110179426D02*
X158758459Y-110036569D01*
X158758459Y-110036569D02*
X158829887Y-109750855D01*
X158829887Y-109750855D02*
X158829887Y-109536569D01*
X158829887Y-109536569D02*
X158758459Y-109250855D01*
X158758459Y-109250855D02*
X158687030Y-109107998D01*
X158687030Y-109107998D02*
X158544173Y-108965141D01*
X158544173Y-108965141D02*
X158329887Y-108893712D01*
X158329887Y-108893712D02*
X158187030Y-108893712D01*
X158187030Y-108893712D02*
X157972744Y-108965141D01*
X157972744Y-108965141D02*
X157901316Y-109036569D01*
X157044173Y-110393712D02*
X157187030Y-110322284D01*
X157187030Y-110322284D02*
X157258459Y-110250855D01*
X157258459Y-110250855D02*
X157329887Y-110107998D01*
X157329887Y-110107998D02*
X157329887Y-109679426D01*
X157329887Y-109679426D02*
X157258459Y-109536569D01*
X157258459Y-109536569D02*
X157187030Y-109465141D01*
X157187030Y-109465141D02*
X157044173Y-109393712D01*
X157044173Y-109393712D02*
X156829887Y-109393712D01*
X156829887Y-109393712D02*
X156687030Y-109465141D01*
X156687030Y-109465141D02*
X156615602Y-109536569D01*
X156615602Y-109536569D02*
X156544173Y-109679426D01*
X156544173Y-109679426D02*
X156544173Y-110107998D01*
X156544173Y-110107998D02*
X156615602Y-110250855D01*
X156615602Y-110250855D02*
X156687030Y-110322284D01*
X156687030Y-110322284D02*
X156829887Y-110393712D01*
X156829887Y-110393712D02*
X157044173Y-110393712D01*
X155901316Y-110393712D02*
X155901316Y-109393712D01*
X155901316Y-109536569D02*
X155829887Y-109465141D01*
X155829887Y-109465141D02*
X155687030Y-109393712D01*
X155687030Y-109393712D02*
X155472744Y-109393712D01*
X155472744Y-109393712D02*
X155329887Y-109465141D01*
X155329887Y-109465141D02*
X155258459Y-109607998D01*
X155258459Y-109607998D02*
X155258459Y-110393712D01*
X155258459Y-109607998D02*
X155187030Y-109465141D01*
X155187030Y-109465141D02*
X155044173Y-109393712D01*
X155044173Y-109393712D02*
X154829887Y-109393712D01*
X154829887Y-109393712D02*
X154687030Y-109465141D01*
X154687030Y-109465141D02*
X154615601Y-109607998D01*
X154615601Y-109607998D02*
X154615601Y-110393712D01*
X153901316Y-109393712D02*
X153901316Y-110893712D01*
X153901316Y-109465141D02*
X153758459Y-109393712D01*
X153758459Y-109393712D02*
X153472744Y-109393712D01*
X153472744Y-109393712D02*
X153329887Y-109465141D01*
X153329887Y-109465141D02*
X153258459Y-109536569D01*
X153258459Y-109536569D02*
X153187030Y-109679426D01*
X153187030Y-109679426D02*
X153187030Y-110107998D01*
X153187030Y-110107998D02*
X153258459Y-110250855D01*
X153258459Y-110250855D02*
X153329887Y-110322284D01*
X153329887Y-110322284D02*
X153472744Y-110393712D01*
X153472744Y-110393712D02*
X153758459Y-110393712D01*
X153758459Y-110393712D02*
X153901316Y-110322284D01*
X151901316Y-110393712D02*
X151901316Y-109607998D01*
X151901316Y-109607998D02*
X151972744Y-109465141D01*
X151972744Y-109465141D02*
X152115601Y-109393712D01*
X152115601Y-109393712D02*
X152401316Y-109393712D01*
X152401316Y-109393712D02*
X152544173Y-109465141D01*
X151901316Y-110322284D02*
X152044173Y-110393712D01*
X152044173Y-110393712D02*
X152401316Y-110393712D01*
X152401316Y-110393712D02*
X152544173Y-110322284D01*
X152544173Y-110322284D02*
X152615601Y-110179426D01*
X152615601Y-110179426D02*
X152615601Y-110036569D01*
X152615601Y-110036569D02*
X152544173Y-109893712D01*
X152544173Y-109893712D02*
X152401316Y-109822284D01*
X152401316Y-109822284D02*
X152044173Y-109822284D01*
X152044173Y-109822284D02*
X151901316Y-109750855D01*
X150544173Y-110322284D02*
X150687030Y-110393712D01*
X150687030Y-110393712D02*
X150972744Y-110393712D01*
X150972744Y-110393712D02*
X151115601Y-110322284D01*
X151115601Y-110322284D02*
X151187030Y-110250855D01*
X151187030Y-110250855D02*
X151258458Y-110107998D01*
X151258458Y-110107998D02*
X151258458Y-109679426D01*
X151258458Y-109679426D02*
X151187030Y-109536569D01*
X151187030Y-109536569D02*
X151115601Y-109465141D01*
X151115601Y-109465141D02*
X150972744Y-109393712D01*
X150972744Y-109393712D02*
X150687030Y-109393712D01*
X150687030Y-109393712D02*
X150544173Y-109465141D01*
X163758458Y-111308628D02*
X163258458Y-112808628D01*
X163258458Y-112808628D02*
X162758458Y-111308628D01*
X161972744Y-111308628D02*
X161829887Y-111308628D01*
X161829887Y-111308628D02*
X161687030Y-111380057D01*
X161687030Y-111380057D02*
X161615602Y-111451485D01*
X161615602Y-111451485D02*
X161544173Y-111594342D01*
X161544173Y-111594342D02*
X161472744Y-111880057D01*
X161472744Y-111880057D02*
X161472744Y-112237200D01*
X161472744Y-112237200D02*
X161544173Y-112522914D01*
X161544173Y-112522914D02*
X161615602Y-112665771D01*
X161615602Y-112665771D02*
X161687030Y-112737200D01*
X161687030Y-112737200D02*
X161829887Y-112808628D01*
X161829887Y-112808628D02*
X161972744Y-112808628D01*
X161972744Y-112808628D02*
X162115602Y-112737200D01*
X162115602Y-112737200D02*
X162187030Y-112665771D01*
X162187030Y-112665771D02*
X162258459Y-112522914D01*
X162258459Y-112522914D02*
X162329887Y-112237200D01*
X162329887Y-112237200D02*
X162329887Y-111880057D01*
X162329887Y-111880057D02*
X162258459Y-111594342D01*
X162258459Y-111594342D02*
X162187030Y-111451485D01*
X162187030Y-111451485D02*
X162115602Y-111380057D01*
X162115602Y-111380057D02*
X161972744Y-111308628D01*
X160901316Y-111451485D02*
X160829888Y-111380057D01*
X160829888Y-111380057D02*
X160687031Y-111308628D01*
X160687031Y-111308628D02*
X160329888Y-111308628D01*
X160329888Y-111308628D02*
X160187031Y-111380057D01*
X160187031Y-111380057D02*
X160115602Y-111451485D01*
X160115602Y-111451485D02*
X160044173Y-111594342D01*
X160044173Y-111594342D02*
X160044173Y-111737200D01*
X160044173Y-111737200D02*
X160115602Y-111951485D01*
X160115602Y-111951485D02*
X160972745Y-112808628D01*
X160972745Y-112808628D02*
X160044173Y-112808628D01*
X158758460Y-112808628D02*
X158758460Y-112022914D01*
X158758460Y-112022914D02*
X158829888Y-111880057D01*
X158829888Y-111880057D02*
X158972745Y-111808628D01*
X158972745Y-111808628D02*
X159258460Y-111808628D01*
X159258460Y-111808628D02*
X159401317Y-111880057D01*
X158758460Y-112737200D02*
X158901317Y-112808628D01*
X158901317Y-112808628D02*
X159258460Y-112808628D01*
X159258460Y-112808628D02*
X159401317Y-112737200D01*
X159401317Y-112737200D02*
X159472745Y-112594342D01*
X159472745Y-112594342D02*
X159472745Y-112451485D01*
X159472745Y-112451485D02*
X159401317Y-112308628D01*
X159401317Y-112308628D02*
X159258460Y-112237200D01*
X159258460Y-112237200D02*
X158901317Y-112237200D01*
X158901317Y-112237200D02*
X158758460Y-112165771D01*
X158044174Y-112237200D02*
X156901317Y-112237200D01*
X156258459Y-111451485D02*
X156187031Y-111380057D01*
X156187031Y-111380057D02*
X156044174Y-111308628D01*
X156044174Y-111308628D02*
X155687031Y-111308628D01*
X155687031Y-111308628D02*
X155544174Y-111380057D01*
X155544174Y-111380057D02*
X155472745Y-111451485D01*
X155472745Y-111451485D02*
X155401316Y-111594342D01*
X155401316Y-111594342D02*
X155401316Y-111737200D01*
X155401316Y-111737200D02*
X155472745Y-111951485D01*
X155472745Y-111951485D02*
X156329888Y-112808628D01*
X156329888Y-112808628D02*
X155401316Y-112808628D01*
X154472745Y-111308628D02*
X154329888Y-111308628D01*
X154329888Y-111308628D02*
X154187031Y-111380057D01*
X154187031Y-111380057D02*
X154115603Y-111451485D01*
X154115603Y-111451485D02*
X154044174Y-111594342D01*
X154044174Y-111594342D02*
X153972745Y-111880057D01*
X153972745Y-111880057D02*
X153972745Y-112237200D01*
X153972745Y-112237200D02*
X154044174Y-112522914D01*
X154044174Y-112522914D02*
X154115603Y-112665771D01*
X154115603Y-112665771D02*
X154187031Y-112737200D01*
X154187031Y-112737200D02*
X154329888Y-112808628D01*
X154329888Y-112808628D02*
X154472745Y-112808628D01*
X154472745Y-112808628D02*
X154615603Y-112737200D01*
X154615603Y-112737200D02*
X154687031Y-112665771D01*
X154687031Y-112665771D02*
X154758460Y-112522914D01*
X154758460Y-112522914D02*
X154829888Y-112237200D01*
X154829888Y-112237200D02*
X154829888Y-111880057D01*
X154829888Y-111880057D02*
X154758460Y-111594342D01*
X154758460Y-111594342D02*
X154687031Y-111451485D01*
X154687031Y-111451485D02*
X154615603Y-111380057D01*
X154615603Y-111380057D02*
X154472745Y-111308628D01*
X153401317Y-111451485D02*
X153329889Y-111380057D01*
X153329889Y-111380057D02*
X153187032Y-111308628D01*
X153187032Y-111308628D02*
X152829889Y-111308628D01*
X152829889Y-111308628D02*
X152687032Y-111380057D01*
X152687032Y-111380057D02*
X152615603Y-111451485D01*
X152615603Y-111451485D02*
X152544174Y-111594342D01*
X152544174Y-111594342D02*
X152544174Y-111737200D01*
X152544174Y-111737200D02*
X152615603Y-111951485D01*
X152615603Y-111951485D02*
X153472746Y-112808628D01*
X153472746Y-112808628D02*
X152544174Y-112808628D01*
X151258461Y-111808628D02*
X151258461Y-112808628D01*
X151615603Y-111237200D02*
X151972746Y-112308628D01*
X151972746Y-112308628D02*
X151044175Y-112308628D01*
X111459580Y-95909523D02*
X111507200Y-95861904D01*
X111507200Y-95861904D02*
X111554819Y-95719047D01*
X111554819Y-95719047D02*
X111554819Y-95623809D01*
X111554819Y-95623809D02*
X111507200Y-95480952D01*
X111507200Y-95480952D02*
X111411961Y-95385714D01*
X111411961Y-95385714D02*
X111316723Y-95338095D01*
X111316723Y-95338095D02*
X111126247Y-95290476D01*
X111126247Y-95290476D02*
X110983390Y-95290476D01*
X110983390Y-95290476D02*
X110792914Y-95338095D01*
X110792914Y-95338095D02*
X110697676Y-95385714D01*
X110697676Y-95385714D02*
X110602438Y-95480952D01*
X110602438Y-95480952D02*
X110554819Y-95623809D01*
X110554819Y-95623809D02*
X110554819Y-95719047D01*
X110554819Y-95719047D02*
X110602438Y-95861904D01*
X110602438Y-95861904D02*
X110650057Y-95909523D01*
X111554819Y-96766666D02*
X111031009Y-96766666D01*
X111031009Y-96766666D02*
X110935771Y-96719047D01*
X110935771Y-96719047D02*
X110888152Y-96623809D01*
X110888152Y-96623809D02*
X110888152Y-96433333D01*
X110888152Y-96433333D02*
X110935771Y-96338095D01*
X111507200Y-96766666D02*
X111554819Y-96671428D01*
X111554819Y-96671428D02*
X111554819Y-96433333D01*
X111554819Y-96433333D02*
X111507200Y-96338095D01*
X111507200Y-96338095D02*
X111411961Y-96290476D01*
X111411961Y-96290476D02*
X111316723Y-96290476D01*
X111316723Y-96290476D02*
X111221485Y-96338095D01*
X111221485Y-96338095D02*
X111173866Y-96433333D01*
X111173866Y-96433333D02*
X111173866Y-96671428D01*
X111173866Y-96671428D02*
X111126247Y-96766666D01*
X110888152Y-97242857D02*
X111554819Y-97242857D01*
X110983390Y-97242857D02*
X110935771Y-97290476D01*
X110935771Y-97290476D02*
X110888152Y-97385714D01*
X110888152Y-97385714D02*
X110888152Y-97528571D01*
X110888152Y-97528571D02*
X110935771Y-97623809D01*
X110935771Y-97623809D02*
X111031009Y-97671428D01*
X111031009Y-97671428D02*
X111554819Y-97671428D01*
X111554819Y-98576190D02*
X111031009Y-98576190D01*
X111031009Y-98576190D02*
X110935771Y-98528571D01*
X110935771Y-98528571D02*
X110888152Y-98433333D01*
X110888152Y-98433333D02*
X110888152Y-98242857D01*
X110888152Y-98242857D02*
X110935771Y-98147619D01*
X111507200Y-98576190D02*
X111554819Y-98480952D01*
X111554819Y-98480952D02*
X111554819Y-98242857D01*
X111554819Y-98242857D02*
X111507200Y-98147619D01*
X111507200Y-98147619D02*
X111411961Y-98100000D01*
X111411961Y-98100000D02*
X111316723Y-98100000D01*
X111316723Y-98100000D02*
X111221485Y-98147619D01*
X111221485Y-98147619D02*
X111173866Y-98242857D01*
X111173866Y-98242857D02*
X111173866Y-98480952D01*
X111173866Y-98480952D02*
X111126247Y-98576190D01*
X111554819Y-99052381D02*
X110888152Y-99052381D01*
X110554819Y-99052381D02*
X110602438Y-99004762D01*
X110602438Y-99004762D02*
X110650057Y-99052381D01*
X110650057Y-99052381D02*
X110602438Y-99100000D01*
X110602438Y-99100000D02*
X110554819Y-99052381D01*
X110554819Y-99052381D02*
X110650057Y-99052381D01*
X111507200Y-99480952D02*
X111554819Y-99576190D01*
X111554819Y-99576190D02*
X111554819Y-99766666D01*
X111554819Y-99766666D02*
X111507200Y-99861904D01*
X111507200Y-99861904D02*
X111411961Y-99909523D01*
X111411961Y-99909523D02*
X111364342Y-99909523D01*
X111364342Y-99909523D02*
X111269104Y-99861904D01*
X111269104Y-99861904D02*
X111221485Y-99766666D01*
X111221485Y-99766666D02*
X111221485Y-99623809D01*
X111221485Y-99623809D02*
X111173866Y-99528571D01*
X111173866Y-99528571D02*
X111078628Y-99480952D01*
X111078628Y-99480952D02*
X111031009Y-99480952D01*
X111031009Y-99480952D02*
X110935771Y-99528571D01*
X110935771Y-99528571D02*
X110888152Y-99623809D01*
X110888152Y-99623809D02*
X110888152Y-99766666D01*
X110888152Y-99766666D02*
X110935771Y-99861904D01*
D10*
X167078628Y-96596115D02*
X166478628Y-96462782D01*
X166478628Y-96462782D02*
X167078628Y-96329449D01*
X166478628Y-96196115D02*
X166878628Y-96196115D01*
X166764342Y-96196115D02*
X166821485Y-96177068D01*
X166821485Y-96177068D02*
X166850057Y-96158020D01*
X166850057Y-96158020D02*
X166878628Y-96119925D01*
X166878628Y-96119925D02*
X166878628Y-96081830D01*
X166507200Y-95796115D02*
X166478628Y-95834211D01*
X166478628Y-95834211D02*
X166478628Y-95910401D01*
X166478628Y-95910401D02*
X166507200Y-95948496D01*
X166507200Y-95948496D02*
X166564342Y-95967544D01*
X166564342Y-95967544D02*
X166792914Y-95967544D01*
X166792914Y-95967544D02*
X166850057Y-95948496D01*
X166850057Y-95948496D02*
X166878628Y-95910401D01*
X166878628Y-95910401D02*
X166878628Y-95834211D01*
X166878628Y-95834211D02*
X166850057Y-95796115D01*
X166850057Y-95796115D02*
X166792914Y-95777068D01*
X166792914Y-95777068D02*
X166735771Y-95777068D01*
X166735771Y-95777068D02*
X166678628Y-95967544D01*
X166878628Y-95662782D02*
X166878628Y-95510401D01*
X166478628Y-95605639D02*
X166992914Y-95605639D01*
X166992914Y-95605639D02*
X167050057Y-95586592D01*
X167050057Y-95586592D02*
X167078628Y-95548497D01*
X167078628Y-95548497D02*
X167078628Y-95510401D01*
X109653257Y-94248609D02*
X109319924Y-94248609D01*
X109177067Y-94772419D02*
X109653257Y-94772419D01*
X109653257Y-94772419D02*
X109653257Y-93772419D01*
X109653257Y-93772419D02*
X109177067Y-93772419D01*
X108224686Y-94772419D02*
X108796114Y-94772419D01*
X108510400Y-94772419D02*
X108510400Y-93772419D01*
X108510400Y-93772419D02*
X108605638Y-93915276D01*
X108605638Y-93915276D02*
X108700876Y-94010514D01*
X108700876Y-94010514D02*
X108796114Y-94058133D01*
X161246737Y-101044466D02*
X161218166Y-101063514D01*
X161218166Y-101063514D02*
X161189594Y-101120656D01*
X161189594Y-101120656D02*
X161189594Y-101158752D01*
X161189594Y-101158752D02*
X161218166Y-101215895D01*
X161218166Y-101215895D02*
X161275308Y-101253990D01*
X161275308Y-101253990D02*
X161332451Y-101273037D01*
X161332451Y-101273037D02*
X161446737Y-101292085D01*
X161446737Y-101292085D02*
X161532451Y-101292085D01*
X161532451Y-101292085D02*
X161646737Y-101273037D01*
X161646737Y-101273037D02*
X161703880Y-101253990D01*
X161703880Y-101253990D02*
X161761023Y-101215895D01*
X161761023Y-101215895D02*
X161789594Y-101158752D01*
X161789594Y-101158752D02*
X161789594Y-101120656D01*
X161789594Y-101120656D02*
X161761023Y-101063514D01*
X161761023Y-101063514D02*
X161732451Y-101044466D01*
X161218166Y-100892085D02*
X161189594Y-100834942D01*
X161189594Y-100834942D02*
X161189594Y-100739704D01*
X161189594Y-100739704D02*
X161218166Y-100701609D01*
X161218166Y-100701609D02*
X161246737Y-100682561D01*
X161246737Y-100682561D02*
X161303880Y-100663514D01*
X161303880Y-100663514D02*
X161361023Y-100663514D01*
X161361023Y-100663514D02*
X161418166Y-100682561D01*
X161418166Y-100682561D02*
X161446737Y-100701609D01*
X161446737Y-100701609D02*
X161475308Y-100739704D01*
X161475308Y-100739704D02*
X161503880Y-100815895D01*
X161503880Y-100815895D02*
X161532451Y-100853990D01*
X161532451Y-100853990D02*
X161561023Y-100873037D01*
X161561023Y-100873037D02*
X161618166Y-100892085D01*
X161618166Y-100892085D02*
X161675308Y-100892085D01*
X161675308Y-100892085D02*
X161732451Y-100873037D01*
X161732451Y-100873037D02*
X161761023Y-100853990D01*
X161761023Y-100853990D02*
X161789594Y-100815895D01*
X161789594Y-100815895D02*
X161789594Y-100720656D01*
X161789594Y-100720656D02*
X161761023Y-100663514D01*
X160623628Y-101549227D02*
X160023628Y-101549227D01*
X160595057Y-101549227D02*
X160623628Y-101511132D01*
X160623628Y-101511132D02*
X160623628Y-101434942D01*
X160623628Y-101434942D02*
X160595057Y-101396846D01*
X160595057Y-101396846D02*
X160566485Y-101377799D01*
X160566485Y-101377799D02*
X160509342Y-101358751D01*
X160509342Y-101358751D02*
X160337914Y-101358751D01*
X160337914Y-101358751D02*
X160280771Y-101377799D01*
X160280771Y-101377799D02*
X160252200Y-101396846D01*
X160252200Y-101396846D02*
X160223628Y-101434942D01*
X160223628Y-101434942D02*
X160223628Y-101511132D01*
X160223628Y-101511132D02*
X160252200Y-101549227D01*
X160223628Y-101130180D02*
X160252200Y-101168275D01*
X160252200Y-101168275D02*
X160280771Y-101187322D01*
X160280771Y-101187322D02*
X160337914Y-101206370D01*
X160337914Y-101206370D02*
X160509342Y-101206370D01*
X160509342Y-101206370D02*
X160566485Y-101187322D01*
X160566485Y-101187322D02*
X160595057Y-101168275D01*
X160595057Y-101168275D02*
X160623628Y-101130180D01*
X160623628Y-101130180D02*
X160623628Y-101073037D01*
X160623628Y-101073037D02*
X160595057Y-101034941D01*
X160595057Y-101034941D02*
X160566485Y-101015894D01*
X160566485Y-101015894D02*
X160509342Y-100996846D01*
X160509342Y-100996846D02*
X160337914Y-100996846D01*
X160337914Y-100996846D02*
X160280771Y-101015894D01*
X160280771Y-101015894D02*
X160252200Y-101034941D01*
X160252200Y-101034941D02*
X160223628Y-101073037D01*
X160223628Y-101073037D02*
X160223628Y-101130180D01*
X160623628Y-100882560D02*
X160623628Y-100730179D01*
X160823628Y-100825417D02*
X160309342Y-100825417D01*
X160309342Y-100825417D02*
X160252200Y-100806370D01*
X160252200Y-100806370D02*
X160223628Y-100768275D01*
X160223628Y-100768275D02*
X160223628Y-100730179D01*
X160223628Y-100387323D02*
X160223628Y-100615894D01*
X160223628Y-100501608D02*
X160823628Y-100501608D01*
X160823628Y-100501608D02*
X160737914Y-100539704D01*
X160737914Y-100539704D02*
X160680771Y-100577799D01*
X160680771Y-100577799D02*
X160652200Y-100615894D01*
X161789594Y-91501609D02*
X161303880Y-91501609D01*
X161303880Y-91501609D02*
X161246737Y-91482562D01*
X161246737Y-91482562D02*
X161218166Y-91463514D01*
X161218166Y-91463514D02*
X161189594Y-91425419D01*
X161189594Y-91425419D02*
X161189594Y-91349228D01*
X161189594Y-91349228D02*
X161218166Y-91311133D01*
X161218166Y-91311133D02*
X161246737Y-91292086D01*
X161246737Y-91292086D02*
X161303880Y-91273038D01*
X161303880Y-91273038D02*
X161789594Y-91273038D01*
X161818166Y-90796847D02*
X161046737Y-91139704D01*
X161189594Y-90663513D02*
X161789594Y-90663513D01*
X161789594Y-90663513D02*
X161789594Y-90568275D01*
X161789594Y-90568275D02*
X161761023Y-90511132D01*
X161761023Y-90511132D02*
X161703880Y-90473037D01*
X161703880Y-90473037D02*
X161646737Y-90453990D01*
X161646737Y-90453990D02*
X161532451Y-90434942D01*
X161532451Y-90434942D02*
X161446737Y-90434942D01*
X161446737Y-90434942D02*
X161332451Y-90453990D01*
X161332451Y-90453990D02*
X161275308Y-90473037D01*
X161275308Y-90473037D02*
X161218166Y-90511132D01*
X161218166Y-90511132D02*
X161189594Y-90568275D01*
X161189594Y-90568275D02*
X161189594Y-90663513D01*
X160623628Y-91549227D02*
X160023628Y-91549227D01*
X160595057Y-91549227D02*
X160623628Y-91511132D01*
X160623628Y-91511132D02*
X160623628Y-91434942D01*
X160623628Y-91434942D02*
X160595057Y-91396846D01*
X160595057Y-91396846D02*
X160566485Y-91377799D01*
X160566485Y-91377799D02*
X160509342Y-91358751D01*
X160509342Y-91358751D02*
X160337914Y-91358751D01*
X160337914Y-91358751D02*
X160280771Y-91377799D01*
X160280771Y-91377799D02*
X160252200Y-91396846D01*
X160252200Y-91396846D02*
X160223628Y-91434942D01*
X160223628Y-91434942D02*
X160223628Y-91511132D01*
X160223628Y-91511132D02*
X160252200Y-91549227D01*
X160223628Y-91130180D02*
X160252200Y-91168275D01*
X160252200Y-91168275D02*
X160280771Y-91187322D01*
X160280771Y-91187322D02*
X160337914Y-91206370D01*
X160337914Y-91206370D02*
X160509342Y-91206370D01*
X160509342Y-91206370D02*
X160566485Y-91187322D01*
X160566485Y-91187322D02*
X160595057Y-91168275D01*
X160595057Y-91168275D02*
X160623628Y-91130180D01*
X160623628Y-91130180D02*
X160623628Y-91073037D01*
X160623628Y-91073037D02*
X160595057Y-91034941D01*
X160595057Y-91034941D02*
X160566485Y-91015894D01*
X160566485Y-91015894D02*
X160509342Y-90996846D01*
X160509342Y-90996846D02*
X160337914Y-90996846D01*
X160337914Y-90996846D02*
X160280771Y-91015894D01*
X160280771Y-91015894D02*
X160252200Y-91034941D01*
X160252200Y-91034941D02*
X160223628Y-91073037D01*
X160223628Y-91073037D02*
X160223628Y-91130180D01*
X160623628Y-90882560D02*
X160623628Y-90730179D01*
X160823628Y-90825417D02*
X160309342Y-90825417D01*
X160309342Y-90825417D02*
X160252200Y-90806370D01*
X160252200Y-90806370D02*
X160223628Y-90768275D01*
X160223628Y-90768275D02*
X160223628Y-90730179D01*
X160766485Y-90615894D02*
X160795057Y-90596846D01*
X160795057Y-90596846D02*
X160823628Y-90558751D01*
X160823628Y-90558751D02*
X160823628Y-90463513D01*
X160823628Y-90463513D02*
X160795057Y-90425418D01*
X160795057Y-90425418D02*
X160766485Y-90406370D01*
X160766485Y-90406370D02*
X160709342Y-90387323D01*
X160709342Y-90387323D02*
X160652200Y-90387323D01*
X160652200Y-90387323D02*
X160566485Y-90406370D01*
X160566485Y-90406370D02*
X160223628Y-90634942D01*
X160223628Y-90634942D02*
X160223628Y-90387323D01*
X159065569Y-82052371D02*
X159065569Y-81452371D01*
X159065569Y-81680942D02*
X159027474Y-81652371D01*
X159027474Y-81652371D02*
X158951284Y-81652371D01*
X158951284Y-81652371D02*
X158913188Y-81680942D01*
X158913188Y-81680942D02*
X158894141Y-81709514D01*
X158894141Y-81709514D02*
X158875093Y-81766657D01*
X158875093Y-81766657D02*
X158875093Y-81938085D01*
X158875093Y-81938085D02*
X158894141Y-81995228D01*
X158894141Y-81995228D02*
X158913188Y-82023800D01*
X158913188Y-82023800D02*
X158951284Y-82052371D01*
X158951284Y-82052371D02*
X159027474Y-82052371D01*
X159027474Y-82052371D02*
X159065569Y-82023800D01*
X158532236Y-81652371D02*
X158532236Y-82052371D01*
X158703664Y-81652371D02*
X158703664Y-81966657D01*
X158703664Y-81966657D02*
X158684617Y-82023800D01*
X158684617Y-82023800D02*
X158646522Y-82052371D01*
X158646522Y-82052371D02*
X158589379Y-82052371D01*
X158589379Y-82052371D02*
X158551283Y-82023800D01*
X158551283Y-82023800D02*
X158532236Y-81995228D01*
X158398902Y-81652371D02*
X158246521Y-81652371D01*
X158341759Y-82052371D02*
X158341759Y-81538085D01*
X158341759Y-81538085D02*
X158322712Y-81480942D01*
X158322712Y-81480942D02*
X158284617Y-81452371D01*
X158284617Y-81452371D02*
X158246521Y-81452371D01*
X155865570Y-82252371D02*
X155865570Y-81395228D01*
X154113189Y-81823800D02*
X154094142Y-81795228D01*
X154094142Y-81795228D02*
X154056046Y-81766657D01*
X154056046Y-81766657D02*
X153979856Y-81823800D01*
X153979856Y-81823800D02*
X153941761Y-81795228D01*
X153941761Y-81795228D02*
X153922713Y-81766657D01*
X153770332Y-82052371D02*
X153770332Y-81452371D01*
X153770332Y-81680942D02*
X153732237Y-81652371D01*
X153732237Y-81652371D02*
X153656047Y-81652371D01*
X153656047Y-81652371D02*
X153617951Y-81680942D01*
X153617951Y-81680942D02*
X153598904Y-81709514D01*
X153598904Y-81709514D02*
X153579856Y-81766657D01*
X153579856Y-81766657D02*
X153579856Y-81938085D01*
X153579856Y-81938085D02*
X153598904Y-81995228D01*
X153598904Y-81995228D02*
X153617951Y-82023800D01*
X153617951Y-82023800D02*
X153656047Y-82052371D01*
X153656047Y-82052371D02*
X153732237Y-82052371D01*
X153732237Y-82052371D02*
X153770332Y-82023800D01*
X153236999Y-81652371D02*
X153236999Y-82052371D01*
X153408427Y-81652371D02*
X153408427Y-81966657D01*
X153408427Y-81966657D02*
X153389380Y-82023800D01*
X153389380Y-82023800D02*
X153351285Y-82052371D01*
X153351285Y-82052371D02*
X153294142Y-82052371D01*
X153294142Y-82052371D02*
X153256046Y-82023800D01*
X153256046Y-82023800D02*
X153236999Y-81995228D01*
X153103665Y-81652371D02*
X152951284Y-81652371D01*
X153046522Y-82052371D02*
X153046522Y-81538085D01*
X153046522Y-81538085D02*
X153027475Y-81480942D01*
X153027475Y-81480942D02*
X152989380Y-81452371D01*
X152989380Y-81452371D02*
X152951284Y-81452371D01*
X161278628Y-104362782D02*
X161278628Y-104286591D01*
X161278628Y-104286591D02*
X161250057Y-104248496D01*
X161250057Y-104248496D02*
X161192914Y-104210401D01*
X161192914Y-104210401D02*
X161078628Y-104191353D01*
X161078628Y-104191353D02*
X160878628Y-104191353D01*
X160878628Y-104191353D02*
X160764342Y-104210401D01*
X160764342Y-104210401D02*
X160707200Y-104248496D01*
X160707200Y-104248496D02*
X160678628Y-104286591D01*
X160678628Y-104286591D02*
X160678628Y-104362782D01*
X160678628Y-104362782D02*
X160707200Y-104400877D01*
X160707200Y-104400877D02*
X160764342Y-104438972D01*
X160764342Y-104438972D02*
X160878628Y-104458020D01*
X160878628Y-104458020D02*
X161078628Y-104458020D01*
X161078628Y-104458020D02*
X161192914Y-104438972D01*
X161192914Y-104438972D02*
X161250057Y-104400877D01*
X161250057Y-104400877D02*
X161278628Y-104362782D01*
X161078628Y-103848496D02*
X160678628Y-103848496D01*
X161078628Y-104019924D02*
X160764342Y-104019924D01*
X160764342Y-104019924D02*
X160707200Y-104000877D01*
X160707200Y-104000877D02*
X160678628Y-103962782D01*
X160678628Y-103962782D02*
X160678628Y-103905639D01*
X160678628Y-103905639D02*
X160707200Y-103867543D01*
X160707200Y-103867543D02*
X160735771Y-103848496D01*
X161078628Y-103715162D02*
X161078628Y-103562781D01*
X161278628Y-103658019D02*
X160764342Y-103658019D01*
X160764342Y-103658019D02*
X160707200Y-103638972D01*
X160707200Y-103638972D02*
X160678628Y-103600877D01*
X160678628Y-103600877D02*
X160678628Y-103562781D01*
X161221485Y-103143734D02*
X161250057Y-103124686D01*
X161250057Y-103124686D02*
X161278628Y-103086591D01*
X161278628Y-103086591D02*
X161278628Y-102991353D01*
X161278628Y-102991353D02*
X161250057Y-102953258D01*
X161250057Y-102953258D02*
X161221485Y-102934210D01*
X161221485Y-102934210D02*
X161164342Y-102915163D01*
X161164342Y-102915163D02*
X161107200Y-102915163D01*
X161107200Y-102915163D02*
X161021485Y-102934210D01*
X161021485Y-102934210D02*
X160678628Y-103162782D01*
X160678628Y-103162782D02*
X160678628Y-102915163D01*
D11*
X119880513Y-110094980D02*
X120047179Y-109094980D01*
X120047179Y-109094980D02*
X120213846Y-110094980D01*
X120380512Y-109094980D02*
X120380512Y-109761647D01*
X120380512Y-109571171D02*
X120404322Y-109666409D01*
X120404322Y-109666409D02*
X120428131Y-109714028D01*
X120428131Y-109714028D02*
X120475750Y-109761647D01*
X120475750Y-109761647D02*
X120523369Y-109761647D01*
X120880512Y-109142600D02*
X120832893Y-109094980D01*
X120832893Y-109094980D02*
X120737655Y-109094980D01*
X120737655Y-109094980D02*
X120690036Y-109142600D01*
X120690036Y-109142600D02*
X120666227Y-109237838D01*
X120666227Y-109237838D02*
X120666227Y-109618790D01*
X120666227Y-109618790D02*
X120690036Y-109714028D01*
X120690036Y-109714028D02*
X120737655Y-109761647D01*
X120737655Y-109761647D02*
X120832893Y-109761647D01*
X120832893Y-109761647D02*
X120880512Y-109714028D01*
X120880512Y-109714028D02*
X120904322Y-109618790D01*
X120904322Y-109618790D02*
X120904322Y-109523552D01*
X120904322Y-109523552D02*
X120666227Y-109428314D01*
X121047179Y-109761647D02*
X121237655Y-109761647D01*
X121118607Y-109094980D02*
X121118607Y-109952123D01*
X121118607Y-109952123D02*
X121142417Y-110047361D01*
X121142417Y-110047361D02*
X121190036Y-110094980D01*
X121190036Y-110094980D02*
X121237655Y-110094980D01*
D10*
X161246737Y-93544466D02*
X161218166Y-93563514D01*
X161218166Y-93563514D02*
X161189594Y-93620656D01*
X161189594Y-93620656D02*
X161189594Y-93658752D01*
X161189594Y-93658752D02*
X161218166Y-93715895D01*
X161218166Y-93715895D02*
X161275308Y-93753990D01*
X161275308Y-93753990D02*
X161332451Y-93773037D01*
X161332451Y-93773037D02*
X161446737Y-93792085D01*
X161446737Y-93792085D02*
X161532451Y-93792085D01*
X161532451Y-93792085D02*
X161646737Y-93773037D01*
X161646737Y-93773037D02*
X161703880Y-93753990D01*
X161703880Y-93753990D02*
X161761023Y-93715895D01*
X161761023Y-93715895D02*
X161789594Y-93658752D01*
X161789594Y-93658752D02*
X161789594Y-93620656D01*
X161789594Y-93620656D02*
X161761023Y-93563514D01*
X161761023Y-93563514D02*
X161732451Y-93544466D01*
X161218166Y-93392085D02*
X161189594Y-93334942D01*
X161189594Y-93334942D02*
X161189594Y-93239704D01*
X161189594Y-93239704D02*
X161218166Y-93201609D01*
X161218166Y-93201609D02*
X161246737Y-93182561D01*
X161246737Y-93182561D02*
X161303880Y-93163514D01*
X161303880Y-93163514D02*
X161361023Y-93163514D01*
X161361023Y-93163514D02*
X161418166Y-93182561D01*
X161418166Y-93182561D02*
X161446737Y-93201609D01*
X161446737Y-93201609D02*
X161475308Y-93239704D01*
X161475308Y-93239704D02*
X161503880Y-93315895D01*
X161503880Y-93315895D02*
X161532451Y-93353990D01*
X161532451Y-93353990D02*
X161561023Y-93373037D01*
X161561023Y-93373037D02*
X161618166Y-93392085D01*
X161618166Y-93392085D02*
X161675308Y-93392085D01*
X161675308Y-93392085D02*
X161732451Y-93373037D01*
X161732451Y-93373037D02*
X161761023Y-93353990D01*
X161761023Y-93353990D02*
X161789594Y-93315895D01*
X161789594Y-93315895D02*
X161789594Y-93220656D01*
X161789594Y-93220656D02*
X161761023Y-93163514D01*
X160623628Y-94049227D02*
X160023628Y-94049227D01*
X160595057Y-94049227D02*
X160623628Y-94011132D01*
X160623628Y-94011132D02*
X160623628Y-93934942D01*
X160623628Y-93934942D02*
X160595057Y-93896846D01*
X160595057Y-93896846D02*
X160566485Y-93877799D01*
X160566485Y-93877799D02*
X160509342Y-93858751D01*
X160509342Y-93858751D02*
X160337914Y-93858751D01*
X160337914Y-93858751D02*
X160280771Y-93877799D01*
X160280771Y-93877799D02*
X160252200Y-93896846D01*
X160252200Y-93896846D02*
X160223628Y-93934942D01*
X160223628Y-93934942D02*
X160223628Y-94011132D01*
X160223628Y-94011132D02*
X160252200Y-94049227D01*
X160223628Y-93630180D02*
X160252200Y-93668275D01*
X160252200Y-93668275D02*
X160280771Y-93687322D01*
X160280771Y-93687322D02*
X160337914Y-93706370D01*
X160337914Y-93706370D02*
X160509342Y-93706370D01*
X160509342Y-93706370D02*
X160566485Y-93687322D01*
X160566485Y-93687322D02*
X160595057Y-93668275D01*
X160595057Y-93668275D02*
X160623628Y-93630180D01*
X160623628Y-93630180D02*
X160623628Y-93573037D01*
X160623628Y-93573037D02*
X160595057Y-93534941D01*
X160595057Y-93534941D02*
X160566485Y-93515894D01*
X160566485Y-93515894D02*
X160509342Y-93496846D01*
X160509342Y-93496846D02*
X160337914Y-93496846D01*
X160337914Y-93496846D02*
X160280771Y-93515894D01*
X160280771Y-93515894D02*
X160252200Y-93534941D01*
X160252200Y-93534941D02*
X160223628Y-93573037D01*
X160223628Y-93573037D02*
X160223628Y-93630180D01*
X160623628Y-93382560D02*
X160623628Y-93230179D01*
X160823628Y-93325417D02*
X160309342Y-93325417D01*
X160309342Y-93325417D02*
X160252200Y-93306370D01*
X160252200Y-93306370D02*
X160223628Y-93268275D01*
X160223628Y-93268275D02*
X160223628Y-93230179D01*
X160766485Y-93115894D02*
X160795057Y-93096846D01*
X160795057Y-93096846D02*
X160823628Y-93058751D01*
X160823628Y-93058751D02*
X160823628Y-92963513D01*
X160823628Y-92963513D02*
X160795057Y-92925418D01*
X160795057Y-92925418D02*
X160766485Y-92906370D01*
X160766485Y-92906370D02*
X160709342Y-92887323D01*
X160709342Y-92887323D02*
X160652200Y-92887323D01*
X160652200Y-92887323D02*
X160566485Y-92906370D01*
X160566485Y-92906370D02*
X160223628Y-93134942D01*
X160223628Y-93134942D02*
X160223628Y-92887323D01*
X166707200Y-88938972D02*
X166707200Y-88634211D01*
X166478628Y-88786591D02*
X166935771Y-88786591D01*
X166478628Y-88424687D02*
X166478628Y-88348496D01*
X166478628Y-88348496D02*
X166507200Y-88310401D01*
X166507200Y-88310401D02*
X166535771Y-88291353D01*
X166535771Y-88291353D02*
X166621485Y-88253258D01*
X166621485Y-88253258D02*
X166735771Y-88234211D01*
X166735771Y-88234211D02*
X166964342Y-88234211D01*
X166964342Y-88234211D02*
X167021485Y-88253258D01*
X167021485Y-88253258D02*
X167050057Y-88272306D01*
X167050057Y-88272306D02*
X167078628Y-88310401D01*
X167078628Y-88310401D02*
X167078628Y-88386592D01*
X167078628Y-88386592D02*
X167050057Y-88424687D01*
X167050057Y-88424687D02*
X167021485Y-88443734D01*
X167021485Y-88443734D02*
X166964342Y-88462782D01*
X166964342Y-88462782D02*
X166821485Y-88462782D01*
X166821485Y-88462782D02*
X166764342Y-88443734D01*
X166764342Y-88443734D02*
X166735771Y-88424687D01*
X166735771Y-88424687D02*
X166707200Y-88386592D01*
X166707200Y-88386592D02*
X166707200Y-88310401D01*
X166707200Y-88310401D02*
X166735771Y-88272306D01*
X166735771Y-88272306D02*
X166764342Y-88253258D01*
X166764342Y-88253258D02*
X166821485Y-88234211D01*
X167078628Y-88119925D02*
X166478628Y-87986592D01*
X166478628Y-87986592D02*
X167078628Y-87853259D01*
D11*
X124578133Y-85475933D02*
X124959086Y-85475933D01*
X125220991Y-85094980D02*
X125316229Y-85094980D01*
X125316229Y-85094980D02*
X125363848Y-85142600D01*
X125363848Y-85142600D02*
X125387657Y-85190219D01*
X125387657Y-85190219D02*
X125435276Y-85333076D01*
X125435276Y-85333076D02*
X125459086Y-85523552D01*
X125459086Y-85523552D02*
X125459086Y-85904504D01*
X125459086Y-85904504D02*
X125435276Y-85999742D01*
X125435276Y-85999742D02*
X125411467Y-86047361D01*
X125411467Y-86047361D02*
X125363848Y-86094980D01*
X125363848Y-86094980D02*
X125268610Y-86094980D01*
X125268610Y-86094980D02*
X125220991Y-86047361D01*
X125220991Y-86047361D02*
X125197181Y-85999742D01*
X125197181Y-85999742D02*
X125173372Y-85904504D01*
X125173372Y-85904504D02*
X125173372Y-85666409D01*
X125173372Y-85666409D02*
X125197181Y-85571171D01*
X125197181Y-85571171D02*
X125220991Y-85523552D01*
X125220991Y-85523552D02*
X125268610Y-85475933D01*
X125268610Y-85475933D02*
X125363848Y-85475933D01*
X125363848Y-85475933D02*
X125411467Y-85523552D01*
X125411467Y-85523552D02*
X125435276Y-85571171D01*
X125435276Y-85571171D02*
X125459086Y-85666409D01*
X125601943Y-86094980D02*
X125768609Y-85094980D01*
X125768609Y-85094980D02*
X125935276Y-86094980D01*
X127178133Y-85505933D02*
X127559086Y-85505933D01*
X127368609Y-85124980D02*
X127368609Y-85886885D01*
X127820991Y-85124980D02*
X127916229Y-85124980D01*
X127916229Y-85124980D02*
X127963848Y-85172600D01*
X127963848Y-85172600D02*
X127987657Y-85220219D01*
X127987657Y-85220219D02*
X128035276Y-85363076D01*
X128035276Y-85363076D02*
X128059086Y-85553552D01*
X128059086Y-85553552D02*
X128059086Y-85934504D01*
X128059086Y-85934504D02*
X128035276Y-86029742D01*
X128035276Y-86029742D02*
X128011467Y-86077361D01*
X128011467Y-86077361D02*
X127963848Y-86124980D01*
X127963848Y-86124980D02*
X127868610Y-86124980D01*
X127868610Y-86124980D02*
X127820991Y-86077361D01*
X127820991Y-86077361D02*
X127797181Y-86029742D01*
X127797181Y-86029742D02*
X127773372Y-85934504D01*
X127773372Y-85934504D02*
X127773372Y-85696409D01*
X127773372Y-85696409D02*
X127797181Y-85601171D01*
X127797181Y-85601171D02*
X127820991Y-85553552D01*
X127820991Y-85553552D02*
X127868610Y-85505933D01*
X127868610Y-85505933D02*
X127963848Y-85505933D01*
X127963848Y-85505933D02*
X128011467Y-85553552D01*
X128011467Y-85553552D02*
X128035276Y-85601171D01*
X128035276Y-85601171D02*
X128059086Y-85696409D01*
X128201943Y-86124980D02*
X128368609Y-85124980D01*
X128368609Y-85124980D02*
X128535276Y-86124980D01*
D10*
X166650057Y-99072020D02*
X166650057Y-98881544D01*
X166478628Y-99110115D02*
X167078628Y-98976782D01*
X167078628Y-98976782D02*
X166478628Y-98843449D01*
X167050057Y-98500592D02*
X167078628Y-98538687D01*
X167078628Y-98538687D02*
X167078628Y-98595830D01*
X167078628Y-98595830D02*
X167050057Y-98652973D01*
X167050057Y-98652973D02*
X166992914Y-98691068D01*
X166992914Y-98691068D02*
X166935771Y-98710115D01*
X166935771Y-98710115D02*
X166821485Y-98729163D01*
X166821485Y-98729163D02*
X166735771Y-98729163D01*
X166735771Y-98729163D02*
X166621485Y-98710115D01*
X166621485Y-98710115D02*
X166564342Y-98691068D01*
X166564342Y-98691068D02*
X166507200Y-98652973D01*
X166507200Y-98652973D02*
X166478628Y-98595830D01*
X166478628Y-98595830D02*
X166478628Y-98557734D01*
X166478628Y-98557734D02*
X166507200Y-98500592D01*
X166507200Y-98500592D02*
X166535771Y-98481544D01*
X166535771Y-98481544D02*
X166735771Y-98481544D01*
X166735771Y-98481544D02*
X166735771Y-98557734D01*
X166478628Y-98310115D02*
X167078628Y-98310115D01*
X167078628Y-98310115D02*
X166478628Y-98081544D01*
X166478628Y-98081544D02*
X167078628Y-98081544D01*
X166478628Y-97891067D02*
X167078628Y-97891067D01*
X167078628Y-97891067D02*
X167078628Y-97795829D01*
X167078628Y-97795829D02*
X167050057Y-97738686D01*
X167050057Y-97738686D02*
X166992914Y-97700591D01*
X166992914Y-97700591D02*
X166935771Y-97681544D01*
X166935771Y-97681544D02*
X166821485Y-97662496D01*
X166821485Y-97662496D02*
X166735771Y-97662496D01*
X166735771Y-97662496D02*
X166621485Y-97681544D01*
X166621485Y-97681544D02*
X166564342Y-97700591D01*
X166564342Y-97700591D02*
X166507200Y-97738686D01*
X166507200Y-97738686D02*
X166478628Y-97795829D01*
X166478628Y-97795829D02*
X166478628Y-97891067D01*
X166707200Y-91538972D02*
X166707200Y-91234211D01*
X166478628Y-91024687D02*
X166478628Y-90948496D01*
X166478628Y-90948496D02*
X166507200Y-90910401D01*
X166507200Y-90910401D02*
X166535771Y-90891353D01*
X166535771Y-90891353D02*
X166621485Y-90853258D01*
X166621485Y-90853258D02*
X166735771Y-90834211D01*
X166735771Y-90834211D02*
X166964342Y-90834211D01*
X166964342Y-90834211D02*
X167021485Y-90853258D01*
X167021485Y-90853258D02*
X167050057Y-90872306D01*
X167050057Y-90872306D02*
X167078628Y-90910401D01*
X167078628Y-90910401D02*
X167078628Y-90986592D01*
X167078628Y-90986592D02*
X167050057Y-91024687D01*
X167050057Y-91024687D02*
X167021485Y-91043734D01*
X167021485Y-91043734D02*
X166964342Y-91062782D01*
X166964342Y-91062782D02*
X166821485Y-91062782D01*
X166821485Y-91062782D02*
X166764342Y-91043734D01*
X166764342Y-91043734D02*
X166735771Y-91024687D01*
X166735771Y-91024687D02*
X166707200Y-90986592D01*
X166707200Y-90986592D02*
X166707200Y-90910401D01*
X166707200Y-90910401D02*
X166735771Y-90872306D01*
X166735771Y-90872306D02*
X166764342Y-90853258D01*
X166764342Y-90853258D02*
X166821485Y-90834211D01*
X167078628Y-90719925D02*
X166478628Y-90586592D01*
X166478628Y-90586592D02*
X167078628Y-90453259D01*
X166478628Y-101643772D02*
X167078628Y-101643772D01*
X167078628Y-101643772D02*
X167078628Y-101548534D01*
X167078628Y-101548534D02*
X167050057Y-101491391D01*
X167050057Y-101491391D02*
X166992914Y-101453296D01*
X166992914Y-101453296D02*
X166935771Y-101434249D01*
X166935771Y-101434249D02*
X166821485Y-101415201D01*
X166821485Y-101415201D02*
X166735771Y-101415201D01*
X166735771Y-101415201D02*
X166621485Y-101434249D01*
X166621485Y-101434249D02*
X166564342Y-101453296D01*
X166564342Y-101453296D02*
X166507200Y-101491391D01*
X166507200Y-101491391D02*
X166478628Y-101548534D01*
X166478628Y-101548534D02*
X166478628Y-101643772D01*
X167050057Y-101034249D02*
X167078628Y-101072344D01*
X167078628Y-101072344D02*
X167078628Y-101129487D01*
X167078628Y-101129487D02*
X167050057Y-101186630D01*
X167050057Y-101186630D02*
X166992914Y-101224725D01*
X166992914Y-101224725D02*
X166935771Y-101243772D01*
X166935771Y-101243772D02*
X166821485Y-101262820D01*
X166821485Y-101262820D02*
X166735771Y-101262820D01*
X166735771Y-101262820D02*
X166621485Y-101243772D01*
X166621485Y-101243772D02*
X166564342Y-101224725D01*
X166564342Y-101224725D02*
X166507200Y-101186630D01*
X166507200Y-101186630D02*
X166478628Y-101129487D01*
X166478628Y-101129487D02*
X166478628Y-101091391D01*
X166478628Y-101091391D02*
X166507200Y-101034249D01*
X166507200Y-101034249D02*
X166535771Y-101015201D01*
X166535771Y-101015201D02*
X166735771Y-101015201D01*
X166735771Y-101015201D02*
X166735771Y-101091391D01*
X166478628Y-100843772D02*
X167078628Y-100843772D01*
X167078628Y-100843772D02*
X166478628Y-100615201D01*
X166478628Y-100615201D02*
X167078628Y-100615201D01*
X166478628Y-100424724D02*
X167078628Y-100424724D01*
X167078628Y-100424724D02*
X167078628Y-100329486D01*
X167078628Y-100329486D02*
X167050057Y-100272343D01*
X167050057Y-100272343D02*
X166992914Y-100234248D01*
X166992914Y-100234248D02*
X166935771Y-100215201D01*
X166935771Y-100215201D02*
X166821485Y-100196153D01*
X166821485Y-100196153D02*
X166735771Y-100196153D01*
X166735771Y-100196153D02*
X166621485Y-100215201D01*
X166621485Y-100215201D02*
X166564342Y-100234248D01*
X166564342Y-100234248D02*
X166507200Y-100272343D01*
X166507200Y-100272343D02*
X166478628Y-100329486D01*
X166478628Y-100329486D02*
X166478628Y-100424724D01*
D11*
X117533846Y-110047361D02*
X117486227Y-110094980D01*
X117486227Y-110094980D02*
X117414798Y-110094980D01*
X117414798Y-110094980D02*
X117343370Y-110047361D01*
X117343370Y-110047361D02*
X117295751Y-109952123D01*
X117295751Y-109952123D02*
X117271941Y-109856885D01*
X117271941Y-109856885D02*
X117248132Y-109666409D01*
X117248132Y-109666409D02*
X117248132Y-109523552D01*
X117248132Y-109523552D02*
X117271941Y-109333076D01*
X117271941Y-109333076D02*
X117295751Y-109237838D01*
X117295751Y-109237838D02*
X117343370Y-109142600D01*
X117343370Y-109142600D02*
X117414798Y-109094980D01*
X117414798Y-109094980D02*
X117462417Y-109094980D01*
X117462417Y-109094980D02*
X117533846Y-109142600D01*
X117533846Y-109142600D02*
X117557655Y-109190219D01*
X117557655Y-109190219D02*
X117557655Y-109523552D01*
X117557655Y-109523552D02*
X117462417Y-109523552D01*
X117771941Y-109094980D02*
X117771941Y-110094980D01*
X117771941Y-110094980D02*
X118057655Y-109094980D01*
X118057655Y-109094980D02*
X118057655Y-110094980D01*
X118295751Y-109094980D02*
X118295751Y-110094980D01*
X118295751Y-110094980D02*
X118414799Y-110094980D01*
X118414799Y-110094980D02*
X118486227Y-110047361D01*
X118486227Y-110047361D02*
X118533846Y-109952123D01*
X118533846Y-109952123D02*
X118557656Y-109856885D01*
X118557656Y-109856885D02*
X118581465Y-109666409D01*
X118581465Y-109666409D02*
X118581465Y-109523552D01*
X118581465Y-109523552D02*
X118557656Y-109333076D01*
X118557656Y-109333076D02*
X118533846Y-109237838D01*
X118533846Y-109237838D02*
X118486227Y-109142600D01*
X118486227Y-109142600D02*
X118414799Y-109094980D01*
X118414799Y-109094980D02*
X118295751Y-109094980D01*
X115013846Y-110077361D02*
X114966227Y-110124980D01*
X114966227Y-110124980D02*
X114894798Y-110124980D01*
X114894798Y-110124980D02*
X114823370Y-110077361D01*
X114823370Y-110077361D02*
X114775751Y-109982123D01*
X114775751Y-109982123D02*
X114751941Y-109886885D01*
X114751941Y-109886885D02*
X114728132Y-109696409D01*
X114728132Y-109696409D02*
X114728132Y-109553552D01*
X114728132Y-109553552D02*
X114751941Y-109363076D01*
X114751941Y-109363076D02*
X114775751Y-109267838D01*
X114775751Y-109267838D02*
X114823370Y-109172600D01*
X114823370Y-109172600D02*
X114894798Y-109124980D01*
X114894798Y-109124980D02*
X114942417Y-109124980D01*
X114942417Y-109124980D02*
X115013846Y-109172600D01*
X115013846Y-109172600D02*
X115037655Y-109220219D01*
X115037655Y-109220219D02*
X115037655Y-109553552D01*
X115037655Y-109553552D02*
X114942417Y-109553552D01*
X115251941Y-109124980D02*
X115251941Y-110124980D01*
X115251941Y-110124980D02*
X115537655Y-109124980D01*
X115537655Y-109124980D02*
X115537655Y-110124980D01*
X115775751Y-109124980D02*
X115775751Y-110124980D01*
X115775751Y-110124980D02*
X115894799Y-110124980D01*
X115894799Y-110124980D02*
X115966227Y-110077361D01*
X115966227Y-110077361D02*
X116013846Y-109982123D01*
X116013846Y-109982123D02*
X116037656Y-109886885D01*
X116037656Y-109886885D02*
X116061465Y-109696409D01*
X116061465Y-109696409D02*
X116061465Y-109553552D01*
X116061465Y-109553552D02*
X116037656Y-109363076D01*
X116037656Y-109363076D02*
X116013846Y-109267838D01*
X116013846Y-109267838D02*
X115966227Y-109172600D01*
X115966227Y-109172600D02*
X115894799Y-109124980D01*
X115894799Y-109124980D02*
X115775751Y-109124980D01*
D12*
X166219047Y-86231009D02*
X165885714Y-86231009D01*
X165742857Y-86754819D02*
X166219047Y-86754819D01*
X166219047Y-86754819D02*
X166219047Y-85754819D01*
X166219047Y-85754819D02*
X165742857Y-85754819D01*
X165314285Y-86088152D02*
X165314285Y-86754819D01*
X165314285Y-86183390D02*
X165266666Y-86135771D01*
X165266666Y-86135771D02*
X165171428Y-86088152D01*
X165171428Y-86088152D02*
X165028571Y-86088152D01*
X165028571Y-86088152D02*
X164933333Y-86135771D01*
X164933333Y-86135771D02*
X164885714Y-86231009D01*
X164885714Y-86231009D02*
X164885714Y-86754819D01*
X164552380Y-86088152D02*
X164171428Y-86088152D01*
X164409523Y-85754819D02*
X164409523Y-86611961D01*
X164409523Y-86611961D02*
X164361904Y-86707200D01*
X164361904Y-86707200D02*
X164266666Y-86754819D01*
X164266666Y-86754819D02*
X164171428Y-86754819D01*
X163838094Y-86754819D02*
X163838094Y-86088152D01*
X163838094Y-86278628D02*
X163790475Y-86183390D01*
X163790475Y-86183390D02*
X163742856Y-86135771D01*
X163742856Y-86135771D02*
X163647618Y-86088152D01*
X163647618Y-86088152D02*
X163552380Y-86088152D01*
X162790475Y-86754819D02*
X162790475Y-86231009D01*
X162790475Y-86231009D02*
X162838094Y-86135771D01*
X162838094Y-86135771D02*
X162933332Y-86088152D01*
X162933332Y-86088152D02*
X163123808Y-86088152D01*
X163123808Y-86088152D02*
X163219046Y-86135771D01*
X162790475Y-86707200D02*
X162885713Y-86754819D01*
X162885713Y-86754819D02*
X163123808Y-86754819D01*
X163123808Y-86754819D02*
X163219046Y-86707200D01*
X163219046Y-86707200D02*
X163266665Y-86611961D01*
X163266665Y-86611961D02*
X163266665Y-86516723D01*
X163266665Y-86516723D02*
X163219046Y-86421485D01*
X163219046Y-86421485D02*
X163123808Y-86373866D01*
X163123808Y-86373866D02*
X162885713Y-86373866D01*
X162885713Y-86373866D02*
X162790475Y-86326247D01*
X161885713Y-86754819D02*
X161885713Y-85754819D01*
X161885713Y-86707200D02*
X161980951Y-86754819D01*
X161980951Y-86754819D02*
X162171427Y-86754819D01*
X162171427Y-86754819D02*
X162266665Y-86707200D01*
X162266665Y-86707200D02*
X162314284Y-86659580D01*
X162314284Y-86659580D02*
X162361903Y-86564342D01*
X162361903Y-86564342D02*
X162361903Y-86278628D01*
X162361903Y-86278628D02*
X162314284Y-86183390D01*
X162314284Y-86183390D02*
X162266665Y-86135771D01*
X162266665Y-86135771D02*
X162171427Y-86088152D01*
X162171427Y-86088152D02*
X161980951Y-86088152D01*
X161980951Y-86088152D02*
X161885713Y-86135771D01*
X160980951Y-86754819D02*
X160980951Y-86231009D01*
X160980951Y-86231009D02*
X161028570Y-86135771D01*
X161028570Y-86135771D02*
X161123808Y-86088152D01*
X161123808Y-86088152D02*
X161314284Y-86088152D01*
X161314284Y-86088152D02*
X161409522Y-86135771D01*
X160980951Y-86707200D02*
X161076189Y-86754819D01*
X161076189Y-86754819D02*
X161314284Y-86754819D01*
X161314284Y-86754819D02*
X161409522Y-86707200D01*
X161409522Y-86707200D02*
X161457141Y-86611961D01*
X161457141Y-86611961D02*
X161457141Y-86516723D01*
X161457141Y-86516723D02*
X161409522Y-86421485D01*
X161409522Y-86421485D02*
X161314284Y-86373866D01*
X161314284Y-86373866D02*
X161076189Y-86373866D01*
X161076189Y-86373866D02*
X160980951Y-86326247D01*
D11*
X117360038Y-86047361D02*
X117312419Y-86094980D01*
X117312419Y-86094980D02*
X117240990Y-86094980D01*
X117240990Y-86094980D02*
X117169562Y-86047361D01*
X117169562Y-86047361D02*
X117121943Y-85952123D01*
X117121943Y-85952123D02*
X117098133Y-85856885D01*
X117098133Y-85856885D02*
X117074324Y-85666409D01*
X117074324Y-85666409D02*
X117074324Y-85523552D01*
X117074324Y-85523552D02*
X117098133Y-85333076D01*
X117098133Y-85333076D02*
X117121943Y-85237838D01*
X117121943Y-85237838D02*
X117169562Y-85142600D01*
X117169562Y-85142600D02*
X117240990Y-85094980D01*
X117240990Y-85094980D02*
X117288609Y-85094980D01*
X117288609Y-85094980D02*
X117360038Y-85142600D01*
X117360038Y-85142600D02*
X117383847Y-85190219D01*
X117383847Y-85190219D02*
X117383847Y-85523552D01*
X117383847Y-85523552D02*
X117288609Y-85523552D01*
X117598133Y-85094980D02*
X117598133Y-86094980D01*
X117598133Y-86094980D02*
X117883847Y-85094980D01*
X117883847Y-85094980D02*
X117883847Y-86094980D01*
X118121943Y-85094980D02*
X118121943Y-86094980D01*
X118121943Y-86094980D02*
X118240991Y-86094980D01*
X118240991Y-86094980D02*
X118312419Y-86047361D01*
X118312419Y-86047361D02*
X118360038Y-85952123D01*
X118360038Y-85952123D02*
X118383848Y-85856885D01*
X118383848Y-85856885D02*
X118407657Y-85666409D01*
X118407657Y-85666409D02*
X118407657Y-85523552D01*
X118407657Y-85523552D02*
X118383848Y-85333076D01*
X118383848Y-85333076D02*
X118360038Y-85237838D01*
X118360038Y-85237838D02*
X118312419Y-85142600D01*
X118312419Y-85142600D02*
X118240991Y-85094980D01*
X118240991Y-85094980D02*
X118121943Y-85094980D01*
D10*
X137974429Y-112747628D02*
X137974429Y-113347628D01*
X137974429Y-113119057D02*
X138012524Y-113147628D01*
X138012524Y-113147628D02*
X138088714Y-113147628D01*
X138088714Y-113147628D02*
X138126810Y-113119057D01*
X138126810Y-113119057D02*
X138145857Y-113090485D01*
X138145857Y-113090485D02*
X138164905Y-113033342D01*
X138164905Y-113033342D02*
X138164905Y-112861914D01*
X138164905Y-112861914D02*
X138145857Y-112804771D01*
X138145857Y-112804771D02*
X138126810Y-112776200D01*
X138126810Y-112776200D02*
X138088714Y-112747628D01*
X138088714Y-112747628D02*
X138012524Y-112747628D01*
X138012524Y-112747628D02*
X137974429Y-112776200D01*
X138507762Y-113147628D02*
X138507762Y-112747628D01*
X138336334Y-113147628D02*
X138336334Y-112833342D01*
X138336334Y-112833342D02*
X138355381Y-112776200D01*
X138355381Y-112776200D02*
X138393476Y-112747628D01*
X138393476Y-112747628D02*
X138450619Y-112747628D01*
X138450619Y-112747628D02*
X138488715Y-112776200D01*
X138488715Y-112776200D02*
X138507762Y-112804771D01*
X138641096Y-113147628D02*
X138793477Y-113147628D01*
X138698239Y-112747628D02*
X138698239Y-113261914D01*
X138698239Y-113261914D02*
X138717286Y-113319057D01*
X138717286Y-113319057D02*
X138755381Y-113347628D01*
X138755381Y-113347628D02*
X138793477Y-113347628D01*
X141174428Y-112547628D02*
X141174428Y-113404771D01*
X142926809Y-112976200D02*
X142945856Y-113004771D01*
X142945856Y-113004771D02*
X142983952Y-113033342D01*
X142983952Y-113033342D02*
X143060142Y-112976200D01*
X143060142Y-112976200D02*
X143098237Y-113004771D01*
X143098237Y-113004771D02*
X143117285Y-113033342D01*
X143269666Y-112747628D02*
X143269666Y-113347628D01*
X143269666Y-113119057D02*
X143307761Y-113147628D01*
X143307761Y-113147628D02*
X143383951Y-113147628D01*
X143383951Y-113147628D02*
X143422047Y-113119057D01*
X143422047Y-113119057D02*
X143441094Y-113090485D01*
X143441094Y-113090485D02*
X143460142Y-113033342D01*
X143460142Y-113033342D02*
X143460142Y-112861914D01*
X143460142Y-112861914D02*
X143441094Y-112804771D01*
X143441094Y-112804771D02*
X143422047Y-112776200D01*
X143422047Y-112776200D02*
X143383951Y-112747628D01*
X143383951Y-112747628D02*
X143307761Y-112747628D01*
X143307761Y-112747628D02*
X143269666Y-112776200D01*
X143802999Y-113147628D02*
X143802999Y-112747628D01*
X143631571Y-113147628D02*
X143631571Y-112833342D01*
X143631571Y-112833342D02*
X143650618Y-112776200D01*
X143650618Y-112776200D02*
X143688713Y-112747628D01*
X143688713Y-112747628D02*
X143745856Y-112747628D01*
X143745856Y-112747628D02*
X143783952Y-112776200D01*
X143783952Y-112776200D02*
X143802999Y-112804771D01*
X143936333Y-113147628D02*
X144088714Y-113147628D01*
X143993476Y-112747628D02*
X143993476Y-113261914D01*
X143993476Y-113261914D02*
X144012523Y-113319057D01*
X144012523Y-113319057D02*
X144050618Y-113347628D01*
X144050618Y-113347628D02*
X144088714Y-113347628D01*
D11*
X114840038Y-86077361D02*
X114792419Y-86124980D01*
X114792419Y-86124980D02*
X114720990Y-86124980D01*
X114720990Y-86124980D02*
X114649562Y-86077361D01*
X114649562Y-86077361D02*
X114601943Y-85982123D01*
X114601943Y-85982123D02*
X114578133Y-85886885D01*
X114578133Y-85886885D02*
X114554324Y-85696409D01*
X114554324Y-85696409D02*
X114554324Y-85553552D01*
X114554324Y-85553552D02*
X114578133Y-85363076D01*
X114578133Y-85363076D02*
X114601943Y-85267838D01*
X114601943Y-85267838D02*
X114649562Y-85172600D01*
X114649562Y-85172600D02*
X114720990Y-85124980D01*
X114720990Y-85124980D02*
X114768609Y-85124980D01*
X114768609Y-85124980D02*
X114840038Y-85172600D01*
X114840038Y-85172600D02*
X114863847Y-85220219D01*
X114863847Y-85220219D02*
X114863847Y-85553552D01*
X114863847Y-85553552D02*
X114768609Y-85553552D01*
X115078133Y-85124980D02*
X115078133Y-86124980D01*
X115078133Y-86124980D02*
X115363847Y-85124980D01*
X115363847Y-85124980D02*
X115363847Y-86124980D01*
X115601943Y-85124980D02*
X115601943Y-86124980D01*
X115601943Y-86124980D02*
X115720991Y-86124980D01*
X115720991Y-86124980D02*
X115792419Y-86077361D01*
X115792419Y-86077361D02*
X115840038Y-85982123D01*
X115840038Y-85982123D02*
X115863848Y-85886885D01*
X115863848Y-85886885D02*
X115887657Y-85696409D01*
X115887657Y-85696409D02*
X115887657Y-85553552D01*
X115887657Y-85553552D02*
X115863848Y-85363076D01*
X115863848Y-85363076D02*
X115840038Y-85267838D01*
X115840038Y-85267838D02*
X115792419Y-85172600D01*
X115792419Y-85172600D02*
X115720991Y-85124980D01*
X115720991Y-85124980D02*
X115601943Y-85124980D01*
D10*
X161378628Y-106962782D02*
X161378628Y-106886591D01*
X161378628Y-106886591D02*
X161350057Y-106848496D01*
X161350057Y-106848496D02*
X161292914Y-106810401D01*
X161292914Y-106810401D02*
X161178628Y-106791353D01*
X161178628Y-106791353D02*
X160978628Y-106791353D01*
X160978628Y-106791353D02*
X160864342Y-106810401D01*
X160864342Y-106810401D02*
X160807200Y-106848496D01*
X160807200Y-106848496D02*
X160778628Y-106886591D01*
X160778628Y-106886591D02*
X160778628Y-106962782D01*
X160778628Y-106962782D02*
X160807200Y-107000877D01*
X160807200Y-107000877D02*
X160864342Y-107038972D01*
X160864342Y-107038972D02*
X160978628Y-107058020D01*
X160978628Y-107058020D02*
X161178628Y-107058020D01*
X161178628Y-107058020D02*
X161292914Y-107038972D01*
X161292914Y-107038972D02*
X161350057Y-107000877D01*
X161350057Y-107000877D02*
X161378628Y-106962782D01*
X161178628Y-106448496D02*
X160778628Y-106448496D01*
X161178628Y-106619924D02*
X160864342Y-106619924D01*
X160864342Y-106619924D02*
X160807200Y-106600877D01*
X160807200Y-106600877D02*
X160778628Y-106562782D01*
X160778628Y-106562782D02*
X160778628Y-106505639D01*
X160778628Y-106505639D02*
X160807200Y-106467543D01*
X160807200Y-106467543D02*
X160835771Y-106448496D01*
X161178628Y-106315162D02*
X161178628Y-106162781D01*
X161378628Y-106258019D02*
X160864342Y-106258019D01*
X160864342Y-106258019D02*
X160807200Y-106238972D01*
X160807200Y-106238972D02*
X160778628Y-106200877D01*
X160778628Y-106200877D02*
X160778628Y-106162781D01*
X160778628Y-105515163D02*
X160778628Y-105743734D01*
X160778628Y-105629448D02*
X161378628Y-105629448D01*
X161378628Y-105629448D02*
X161292914Y-105667544D01*
X161292914Y-105667544D02*
X161235771Y-105705639D01*
X161235771Y-105705639D02*
X161207200Y-105743734D01*
X166707200Y-93938972D02*
X166707200Y-93634211D01*
X166478628Y-93786591D02*
X166935771Y-93786591D01*
X167078628Y-93253258D02*
X167078628Y-93443734D01*
X167078628Y-93443734D02*
X166792914Y-93462782D01*
X166792914Y-93462782D02*
X166821485Y-93443734D01*
X166821485Y-93443734D02*
X166850057Y-93405639D01*
X166850057Y-93405639D02*
X166850057Y-93310401D01*
X166850057Y-93310401D02*
X166821485Y-93272306D01*
X166821485Y-93272306D02*
X166792914Y-93253258D01*
X166792914Y-93253258D02*
X166735771Y-93234211D01*
X166735771Y-93234211D02*
X166592914Y-93234211D01*
X166592914Y-93234211D02*
X166535771Y-93253258D01*
X166535771Y-93253258D02*
X166507200Y-93272306D01*
X166507200Y-93272306D02*
X166478628Y-93310401D01*
X166478628Y-93310401D02*
X166478628Y-93405639D01*
X166478628Y-93405639D02*
X166507200Y-93443734D01*
X166507200Y-93443734D02*
X166535771Y-93462782D01*
X167078628Y-93119925D02*
X166478628Y-92986592D01*
X166478628Y-92986592D02*
X167078628Y-92853259D01*
X161789594Y-99001609D02*
X161303880Y-99001609D01*
X161303880Y-99001609D02*
X161246737Y-98982562D01*
X161246737Y-98982562D02*
X161218166Y-98963514D01*
X161218166Y-98963514D02*
X161189594Y-98925419D01*
X161189594Y-98925419D02*
X161189594Y-98849228D01*
X161189594Y-98849228D02*
X161218166Y-98811133D01*
X161218166Y-98811133D02*
X161246737Y-98792086D01*
X161246737Y-98792086D02*
X161303880Y-98773038D01*
X161303880Y-98773038D02*
X161789594Y-98773038D01*
X161818166Y-98296847D02*
X161046737Y-98639704D01*
X161189594Y-98163513D02*
X161789594Y-98163513D01*
X161789594Y-98163513D02*
X161789594Y-98068275D01*
X161789594Y-98068275D02*
X161761023Y-98011132D01*
X161761023Y-98011132D02*
X161703880Y-97973037D01*
X161703880Y-97973037D02*
X161646737Y-97953990D01*
X161646737Y-97953990D02*
X161532451Y-97934942D01*
X161532451Y-97934942D02*
X161446737Y-97934942D01*
X161446737Y-97934942D02*
X161332451Y-97953990D01*
X161332451Y-97953990D02*
X161275308Y-97973037D01*
X161275308Y-97973037D02*
X161218166Y-98011132D01*
X161218166Y-98011132D02*
X161189594Y-98068275D01*
X161189594Y-98068275D02*
X161189594Y-98163513D01*
X160623628Y-99049227D02*
X160023628Y-99049227D01*
X160595057Y-99049227D02*
X160623628Y-99011132D01*
X160623628Y-99011132D02*
X160623628Y-98934942D01*
X160623628Y-98934942D02*
X160595057Y-98896846D01*
X160595057Y-98896846D02*
X160566485Y-98877799D01*
X160566485Y-98877799D02*
X160509342Y-98858751D01*
X160509342Y-98858751D02*
X160337914Y-98858751D01*
X160337914Y-98858751D02*
X160280771Y-98877799D01*
X160280771Y-98877799D02*
X160252200Y-98896846D01*
X160252200Y-98896846D02*
X160223628Y-98934942D01*
X160223628Y-98934942D02*
X160223628Y-99011132D01*
X160223628Y-99011132D02*
X160252200Y-99049227D01*
X160223628Y-98630180D02*
X160252200Y-98668275D01*
X160252200Y-98668275D02*
X160280771Y-98687322D01*
X160280771Y-98687322D02*
X160337914Y-98706370D01*
X160337914Y-98706370D02*
X160509342Y-98706370D01*
X160509342Y-98706370D02*
X160566485Y-98687322D01*
X160566485Y-98687322D02*
X160595057Y-98668275D01*
X160595057Y-98668275D02*
X160623628Y-98630180D01*
X160623628Y-98630180D02*
X160623628Y-98573037D01*
X160623628Y-98573037D02*
X160595057Y-98534941D01*
X160595057Y-98534941D02*
X160566485Y-98515894D01*
X160566485Y-98515894D02*
X160509342Y-98496846D01*
X160509342Y-98496846D02*
X160337914Y-98496846D01*
X160337914Y-98496846D02*
X160280771Y-98515894D01*
X160280771Y-98515894D02*
X160252200Y-98534941D01*
X160252200Y-98534941D02*
X160223628Y-98573037D01*
X160223628Y-98573037D02*
X160223628Y-98630180D01*
X160623628Y-98382560D02*
X160623628Y-98230179D01*
X160823628Y-98325417D02*
X160309342Y-98325417D01*
X160309342Y-98325417D02*
X160252200Y-98306370D01*
X160252200Y-98306370D02*
X160223628Y-98268275D01*
X160223628Y-98268275D02*
X160223628Y-98230179D01*
X160223628Y-97887323D02*
X160223628Y-98115894D01*
X160223628Y-98001608D02*
X160823628Y-98001608D01*
X160823628Y-98001608D02*
X160737914Y-98039704D01*
X160737914Y-98039704D02*
X160680771Y-98077799D01*
X160680771Y-98077799D02*
X160652200Y-98115894D01*
X109653257Y-100748609D02*
X109319924Y-100748609D01*
X109177067Y-101272419D02*
X109653257Y-101272419D01*
X109653257Y-101272419D02*
X109653257Y-100272419D01*
X109653257Y-100272419D02*
X109177067Y-100272419D01*
X108796114Y-100367657D02*
X108748495Y-100320038D01*
X108748495Y-100320038D02*
X108653257Y-100272419D01*
X108653257Y-100272419D02*
X108415162Y-100272419D01*
X108415162Y-100272419D02*
X108319924Y-100320038D01*
X108319924Y-100320038D02*
X108272305Y-100367657D01*
X108272305Y-100367657D02*
X108224686Y-100462895D01*
X108224686Y-100462895D02*
X108224686Y-100558133D01*
X108224686Y-100558133D02*
X108272305Y-100700990D01*
X108272305Y-100700990D02*
X108843733Y-101272419D01*
X108843733Y-101272419D02*
X108224686Y-101272419D01*
D11*
X127351941Y-109505933D02*
X127732894Y-109505933D01*
X127542417Y-109124980D02*
X127542417Y-109886885D01*
X127994799Y-109124980D02*
X128090037Y-109124980D01*
X128090037Y-109124980D02*
X128137656Y-109172600D01*
X128137656Y-109172600D02*
X128161465Y-109220219D01*
X128161465Y-109220219D02*
X128209084Y-109363076D01*
X128209084Y-109363076D02*
X128232894Y-109553552D01*
X128232894Y-109553552D02*
X128232894Y-109934504D01*
X128232894Y-109934504D02*
X128209084Y-110029742D01*
X128209084Y-110029742D02*
X128185275Y-110077361D01*
X128185275Y-110077361D02*
X128137656Y-110124980D01*
X128137656Y-110124980D02*
X128042418Y-110124980D01*
X128042418Y-110124980D02*
X127994799Y-110077361D01*
X127994799Y-110077361D02*
X127970989Y-110029742D01*
X127970989Y-110029742D02*
X127947180Y-109934504D01*
X127947180Y-109934504D02*
X127947180Y-109696409D01*
X127947180Y-109696409D02*
X127970989Y-109601171D01*
X127970989Y-109601171D02*
X127994799Y-109553552D01*
X127994799Y-109553552D02*
X128042418Y-109505933D01*
X128042418Y-109505933D02*
X128137656Y-109505933D01*
X128137656Y-109505933D02*
X128185275Y-109553552D01*
X128185275Y-109553552D02*
X128209084Y-109601171D01*
X128209084Y-109601171D02*
X128232894Y-109696409D01*
X128375751Y-110124980D02*
X128542417Y-109124980D01*
X128542417Y-109124980D02*
X128709084Y-110124980D01*
X122178133Y-85505933D02*
X122559086Y-85505933D01*
X122368609Y-85124980D02*
X122368609Y-85886885D01*
X123035276Y-86124980D02*
X122797181Y-86124980D01*
X122797181Y-86124980D02*
X122773372Y-85648790D01*
X122773372Y-85648790D02*
X122797181Y-85696409D01*
X122797181Y-85696409D02*
X122844800Y-85744028D01*
X122844800Y-85744028D02*
X122963848Y-85744028D01*
X122963848Y-85744028D02*
X123011467Y-85696409D01*
X123011467Y-85696409D02*
X123035276Y-85648790D01*
X123035276Y-85648790D02*
X123059086Y-85553552D01*
X123059086Y-85553552D02*
X123059086Y-85315457D01*
X123059086Y-85315457D02*
X123035276Y-85220219D01*
X123035276Y-85220219D02*
X123011467Y-85172600D01*
X123011467Y-85172600D02*
X122963848Y-85124980D01*
X122963848Y-85124980D02*
X122844800Y-85124980D01*
X122844800Y-85124980D02*
X122797181Y-85172600D01*
X122797181Y-85172600D02*
X122773372Y-85220219D01*
X123201943Y-86124980D02*
X123368609Y-85124980D01*
X123368609Y-85124980D02*
X123535276Y-86124980D01*
D10*
X161189594Y-88887323D02*
X161789594Y-88887323D01*
X161189594Y-88696847D02*
X161789594Y-88696847D01*
X161789594Y-88696847D02*
X161189594Y-88468276D01*
X161189594Y-88468276D02*
X161789594Y-88468276D01*
X161246737Y-88049228D02*
X161218166Y-88068276D01*
X161218166Y-88068276D02*
X161189594Y-88125418D01*
X161189594Y-88125418D02*
X161189594Y-88163514D01*
X161189594Y-88163514D02*
X161218166Y-88220657D01*
X161218166Y-88220657D02*
X161275308Y-88258752D01*
X161275308Y-88258752D02*
X161332451Y-88277799D01*
X161332451Y-88277799D02*
X161446737Y-88296847D01*
X161446737Y-88296847D02*
X161532451Y-88296847D01*
X161532451Y-88296847D02*
X161646737Y-88277799D01*
X161646737Y-88277799D02*
X161703880Y-88258752D01*
X161703880Y-88258752D02*
X161761023Y-88220657D01*
X161761023Y-88220657D02*
X161789594Y-88163514D01*
X161789594Y-88163514D02*
X161789594Y-88125418D01*
X161789594Y-88125418D02*
X161761023Y-88068276D01*
X161761023Y-88068276D02*
X161732451Y-88049228D01*
X160623628Y-89049227D02*
X160023628Y-89049227D01*
X160595057Y-89049227D02*
X160623628Y-89011132D01*
X160623628Y-89011132D02*
X160623628Y-88934942D01*
X160623628Y-88934942D02*
X160595057Y-88896846D01*
X160595057Y-88896846D02*
X160566485Y-88877799D01*
X160566485Y-88877799D02*
X160509342Y-88858751D01*
X160509342Y-88858751D02*
X160337914Y-88858751D01*
X160337914Y-88858751D02*
X160280771Y-88877799D01*
X160280771Y-88877799D02*
X160252200Y-88896846D01*
X160252200Y-88896846D02*
X160223628Y-88934942D01*
X160223628Y-88934942D02*
X160223628Y-89011132D01*
X160223628Y-89011132D02*
X160252200Y-89049227D01*
X160223628Y-88630180D02*
X160252200Y-88668275D01*
X160252200Y-88668275D02*
X160280771Y-88687322D01*
X160280771Y-88687322D02*
X160337914Y-88706370D01*
X160337914Y-88706370D02*
X160509342Y-88706370D01*
X160509342Y-88706370D02*
X160566485Y-88687322D01*
X160566485Y-88687322D02*
X160595057Y-88668275D01*
X160595057Y-88668275D02*
X160623628Y-88630180D01*
X160623628Y-88630180D02*
X160623628Y-88573037D01*
X160623628Y-88573037D02*
X160595057Y-88534941D01*
X160595057Y-88534941D02*
X160566485Y-88515894D01*
X160566485Y-88515894D02*
X160509342Y-88496846D01*
X160509342Y-88496846D02*
X160337914Y-88496846D01*
X160337914Y-88496846D02*
X160280771Y-88515894D01*
X160280771Y-88515894D02*
X160252200Y-88534941D01*
X160252200Y-88534941D02*
X160223628Y-88573037D01*
X160223628Y-88573037D02*
X160223628Y-88630180D01*
X160623628Y-88382560D02*
X160623628Y-88230179D01*
X160823628Y-88325417D02*
X160309342Y-88325417D01*
X160309342Y-88325417D02*
X160252200Y-88306370D01*
X160252200Y-88306370D02*
X160223628Y-88268275D01*
X160223628Y-88268275D02*
X160223628Y-88230179D01*
X160766485Y-88115894D02*
X160795057Y-88096846D01*
X160795057Y-88096846D02*
X160823628Y-88058751D01*
X160823628Y-88058751D02*
X160823628Y-87963513D01*
X160823628Y-87963513D02*
X160795057Y-87925418D01*
X160795057Y-87925418D02*
X160766485Y-87906370D01*
X160766485Y-87906370D02*
X160709342Y-87887323D01*
X160709342Y-87887323D02*
X160652200Y-87887323D01*
X160652200Y-87887323D02*
X160566485Y-87906370D01*
X160566485Y-87906370D02*
X160223628Y-88134942D01*
X160223628Y-88134942D02*
X160223628Y-87887323D01*
D11*
X119706705Y-86094980D02*
X119873371Y-85094980D01*
X119873371Y-85094980D02*
X120040038Y-86094980D01*
X120206704Y-85094980D02*
X120206704Y-85761647D01*
X120206704Y-85571171D02*
X120230514Y-85666409D01*
X120230514Y-85666409D02*
X120254323Y-85714028D01*
X120254323Y-85714028D02*
X120301942Y-85761647D01*
X120301942Y-85761647D02*
X120349561Y-85761647D01*
X120706704Y-85142600D02*
X120659085Y-85094980D01*
X120659085Y-85094980D02*
X120563847Y-85094980D01*
X120563847Y-85094980D02*
X120516228Y-85142600D01*
X120516228Y-85142600D02*
X120492419Y-85237838D01*
X120492419Y-85237838D02*
X120492419Y-85618790D01*
X120492419Y-85618790D02*
X120516228Y-85714028D01*
X120516228Y-85714028D02*
X120563847Y-85761647D01*
X120563847Y-85761647D02*
X120659085Y-85761647D01*
X120659085Y-85761647D02*
X120706704Y-85714028D01*
X120706704Y-85714028D02*
X120730514Y-85618790D01*
X120730514Y-85618790D02*
X120730514Y-85523552D01*
X120730514Y-85523552D02*
X120492419Y-85428314D01*
X120873371Y-85761647D02*
X121063847Y-85761647D01*
X120944799Y-85094980D02*
X120944799Y-85952123D01*
X120944799Y-85952123D02*
X120968609Y-86047361D01*
X120968609Y-86047361D02*
X121016228Y-86094980D01*
X121016228Y-86094980D02*
X121063847Y-86094980D01*
D10*
X166535771Y-104610401D02*
X166507200Y-104629449D01*
X166507200Y-104629449D02*
X166478628Y-104686591D01*
X166478628Y-104686591D02*
X166478628Y-104724687D01*
X166478628Y-104724687D02*
X166507200Y-104781830D01*
X166507200Y-104781830D02*
X166564342Y-104819925D01*
X166564342Y-104819925D02*
X166621485Y-104838972D01*
X166621485Y-104838972D02*
X166735771Y-104858020D01*
X166735771Y-104858020D02*
X166821485Y-104858020D01*
X166821485Y-104858020D02*
X166935771Y-104838972D01*
X166935771Y-104838972D02*
X166992914Y-104819925D01*
X166992914Y-104819925D02*
X167050057Y-104781830D01*
X167050057Y-104781830D02*
X167078628Y-104724687D01*
X167078628Y-104724687D02*
X167078628Y-104686591D01*
X167078628Y-104686591D02*
X167050057Y-104629449D01*
X167050057Y-104629449D02*
X167021485Y-104610401D01*
X166478628Y-104267544D02*
X166792914Y-104267544D01*
X166792914Y-104267544D02*
X166850057Y-104286591D01*
X166850057Y-104286591D02*
X166878628Y-104324687D01*
X166878628Y-104324687D02*
X166878628Y-104400877D01*
X166878628Y-104400877D02*
X166850057Y-104438972D01*
X166507200Y-104267544D02*
X166478628Y-104305639D01*
X166478628Y-104305639D02*
X166478628Y-104400877D01*
X166478628Y-104400877D02*
X166507200Y-104438972D01*
X166507200Y-104438972D02*
X166564342Y-104458020D01*
X166564342Y-104458020D02*
X166621485Y-104458020D01*
X166621485Y-104458020D02*
X166678628Y-104438972D01*
X166678628Y-104438972D02*
X166707200Y-104400877D01*
X166707200Y-104400877D02*
X166707200Y-104305639D01*
X166707200Y-104305639D02*
X166735771Y-104267544D01*
X166878628Y-104077067D02*
X166478628Y-104077067D01*
X166821485Y-104077067D02*
X166850057Y-104058020D01*
X166850057Y-104058020D02*
X166878628Y-104019925D01*
X166878628Y-104019925D02*
X166878628Y-103962782D01*
X166878628Y-103962782D02*
X166850057Y-103924686D01*
X166850057Y-103924686D02*
X166792914Y-103905639D01*
X166792914Y-103905639D02*
X166478628Y-103905639D01*
X166478628Y-103543734D02*
X166792914Y-103543734D01*
X166792914Y-103543734D02*
X166850057Y-103562781D01*
X166850057Y-103562781D02*
X166878628Y-103600877D01*
X166878628Y-103600877D02*
X166878628Y-103677067D01*
X166878628Y-103677067D02*
X166850057Y-103715162D01*
X166507200Y-103543734D02*
X166478628Y-103581829D01*
X166478628Y-103581829D02*
X166478628Y-103677067D01*
X166478628Y-103677067D02*
X166507200Y-103715162D01*
X166507200Y-103715162D02*
X166564342Y-103734210D01*
X166564342Y-103734210D02*
X166621485Y-103734210D01*
X166621485Y-103734210D02*
X166678628Y-103715162D01*
X166678628Y-103715162D02*
X166707200Y-103677067D01*
X166707200Y-103677067D02*
X166707200Y-103581829D01*
X166707200Y-103581829D02*
X166735771Y-103543734D01*
X166478628Y-103296115D02*
X166507200Y-103334210D01*
X166507200Y-103334210D02*
X166564342Y-103353257D01*
X166564342Y-103353257D02*
X167078628Y-103353257D01*
X167021485Y-102858019D02*
X167050057Y-102838971D01*
X167050057Y-102838971D02*
X167078628Y-102800876D01*
X167078628Y-102800876D02*
X167078628Y-102705638D01*
X167078628Y-102705638D02*
X167050057Y-102667543D01*
X167050057Y-102667543D02*
X167021485Y-102648495D01*
X167021485Y-102648495D02*
X166964342Y-102629448D01*
X166964342Y-102629448D02*
X166907200Y-102629448D01*
X166907200Y-102629448D02*
X166821485Y-102648495D01*
X166821485Y-102648495D02*
X166478628Y-102877067D01*
X166478628Y-102877067D02*
X166478628Y-102629448D01*
D12*
X131080951Y-94454819D02*
X131080951Y-95264342D01*
X131080951Y-95264342D02*
X131033332Y-95359580D01*
X131033332Y-95359580D02*
X130985713Y-95407200D01*
X130985713Y-95407200D02*
X130890475Y-95454819D01*
X130890475Y-95454819D02*
X130699999Y-95454819D01*
X130699999Y-95454819D02*
X130604761Y-95407200D01*
X130604761Y-95407200D02*
X130557142Y-95359580D01*
X130557142Y-95359580D02*
X130509523Y-95264342D01*
X130509523Y-95264342D02*
X130509523Y-94454819D01*
X129604761Y-94788152D02*
X129604761Y-95454819D01*
X129842856Y-94407200D02*
X130080951Y-95121485D01*
X130080951Y-95121485D02*
X129461904Y-95121485D01*
X129080951Y-95073866D02*
X128319047Y-95073866D01*
X127271428Y-95359580D02*
X127319047Y-95407200D01*
X127319047Y-95407200D02*
X127461904Y-95454819D01*
X127461904Y-95454819D02*
X127557142Y-95454819D01*
X127557142Y-95454819D02*
X127699999Y-95407200D01*
X127699999Y-95407200D02*
X127795237Y-95311961D01*
X127795237Y-95311961D02*
X127842856Y-95216723D01*
X127842856Y-95216723D02*
X127890475Y-95026247D01*
X127890475Y-95026247D02*
X127890475Y-94883390D01*
X127890475Y-94883390D02*
X127842856Y-94692914D01*
X127842856Y-94692914D02*
X127795237Y-94597676D01*
X127795237Y-94597676D02*
X127699999Y-94502438D01*
X127699999Y-94502438D02*
X127557142Y-94454819D01*
X127557142Y-94454819D02*
X127461904Y-94454819D01*
X127461904Y-94454819D02*
X127319047Y-94502438D01*
X127319047Y-94502438D02*
X127271428Y-94550057D01*
X126699999Y-95454819D02*
X126795237Y-95407200D01*
X126795237Y-95407200D02*
X126842856Y-95359580D01*
X126842856Y-95359580D02*
X126890475Y-95264342D01*
X126890475Y-95264342D02*
X126890475Y-94978628D01*
X126890475Y-94978628D02*
X126842856Y-94883390D01*
X126842856Y-94883390D02*
X126795237Y-94835771D01*
X126795237Y-94835771D02*
X126699999Y-94788152D01*
X126699999Y-94788152D02*
X126557142Y-94788152D01*
X126557142Y-94788152D02*
X126461904Y-94835771D01*
X126461904Y-94835771D02*
X126414285Y-94883390D01*
X126414285Y-94883390D02*
X126366666Y-94978628D01*
X126366666Y-94978628D02*
X126366666Y-95264342D01*
X126366666Y-95264342D02*
X126414285Y-95359580D01*
X126414285Y-95359580D02*
X126461904Y-95407200D01*
X126461904Y-95407200D02*
X126557142Y-95454819D01*
X126557142Y-95454819D02*
X126699999Y-95454819D01*
X125938094Y-94788152D02*
X125938094Y-95454819D01*
X125938094Y-94883390D02*
X125890475Y-94835771D01*
X125890475Y-94835771D02*
X125795237Y-94788152D01*
X125795237Y-94788152D02*
X125652380Y-94788152D01*
X125652380Y-94788152D02*
X125557142Y-94835771D01*
X125557142Y-94835771D02*
X125509523Y-94931009D01*
X125509523Y-94931009D02*
X125509523Y-95454819D01*
X124604761Y-95454819D02*
X124604761Y-94454819D01*
X124604761Y-95407200D02*
X124699999Y-95454819D01*
X124699999Y-95454819D02*
X124890475Y-95454819D01*
X124890475Y-95454819D02*
X124985713Y-95407200D01*
X124985713Y-95407200D02*
X125033332Y-95359580D01*
X125033332Y-95359580D02*
X125080951Y-95264342D01*
X125080951Y-95264342D02*
X125080951Y-94978628D01*
X125080951Y-94978628D02*
X125033332Y-94883390D01*
X125033332Y-94883390D02*
X124985713Y-94835771D01*
X124985713Y-94835771D02*
X124890475Y-94788152D01*
X124890475Y-94788152D02*
X124699999Y-94788152D01*
X124699999Y-94788152D02*
X124604761Y-94835771D01*
X124128570Y-95073866D02*
X123366666Y-95073866D01*
X122938094Y-95407200D02*
X122795237Y-95454819D01*
X122795237Y-95454819D02*
X122557142Y-95454819D01*
X122557142Y-95454819D02*
X122461904Y-95407200D01*
X122461904Y-95407200D02*
X122414285Y-95359580D01*
X122414285Y-95359580D02*
X122366666Y-95264342D01*
X122366666Y-95264342D02*
X122366666Y-95169104D01*
X122366666Y-95169104D02*
X122414285Y-95073866D01*
X122414285Y-95073866D02*
X122461904Y-95026247D01*
X122461904Y-95026247D02*
X122557142Y-94978628D01*
X122557142Y-94978628D02*
X122747618Y-94931009D01*
X122747618Y-94931009D02*
X122842856Y-94883390D01*
X122842856Y-94883390D02*
X122890475Y-94835771D01*
X122890475Y-94835771D02*
X122938094Y-94740533D01*
X122938094Y-94740533D02*
X122938094Y-94645295D01*
X122938094Y-94645295D02*
X122890475Y-94550057D01*
X122890475Y-94550057D02*
X122842856Y-94502438D01*
X122842856Y-94502438D02*
X122747618Y-94454819D01*
X122747618Y-94454819D02*
X122509523Y-94454819D01*
X122509523Y-94454819D02*
X122366666Y-94502438D01*
X121938094Y-95454819D02*
X121938094Y-94454819D01*
X121938094Y-94454819D02*
X121604761Y-95169104D01*
X121604761Y-95169104D02*
X121271428Y-94454819D01*
X121271428Y-94454819D02*
X121271428Y-95454819D01*
X120795237Y-95454819D02*
X120795237Y-94454819D01*
X120795237Y-94454819D02*
X120557142Y-94454819D01*
X120557142Y-94454819D02*
X120414285Y-94502438D01*
X120414285Y-94502438D02*
X120319047Y-94597676D01*
X120319047Y-94597676D02*
X120271428Y-94692914D01*
X120271428Y-94692914D02*
X120223809Y-94883390D01*
X120223809Y-94883390D02*
X120223809Y-95026247D01*
X120223809Y-95026247D02*
X120271428Y-95216723D01*
X120271428Y-95216723D02*
X120319047Y-95311961D01*
X120319047Y-95311961D02*
X120414285Y-95407200D01*
X120414285Y-95407200D02*
X120557142Y-95454819D01*
X120557142Y-95454819D02*
X120795237Y-95454819D01*
X119271428Y-95454819D02*
X119842856Y-95454819D01*
X119557142Y-95454819D02*
X119557142Y-94454819D01*
X119557142Y-94454819D02*
X119652380Y-94597676D01*
X119652380Y-94597676D02*
X119747618Y-94692914D01*
X119747618Y-94692914D02*
X119842856Y-94740533D01*
X125799999Y-95854819D02*
X125799999Y-96092914D01*
X126038094Y-95997676D02*
X125799999Y-96092914D01*
X125799999Y-96092914D02*
X125561904Y-95997676D01*
X125942856Y-96283390D02*
X125799999Y-96092914D01*
X125799999Y-96092914D02*
X125657142Y-96283390D01*
X145945180Y-94352380D02*
X145135657Y-94352380D01*
X145135657Y-94352380D02*
X145040419Y-94304761D01*
X145040419Y-94304761D02*
X144992800Y-94257142D01*
X144992800Y-94257142D02*
X144945180Y-94161904D01*
X144945180Y-94161904D02*
X144945180Y-93971428D01*
X144945180Y-93971428D02*
X144992800Y-93876190D01*
X144992800Y-93876190D02*
X145040419Y-93828571D01*
X145040419Y-93828571D02*
X145135657Y-93780952D01*
X145135657Y-93780952D02*
X145945180Y-93780952D01*
X145945180Y-92876190D02*
X145945180Y-93066666D01*
X145945180Y-93066666D02*
X145897561Y-93161904D01*
X145897561Y-93161904D02*
X145849942Y-93209523D01*
X145849942Y-93209523D02*
X145707085Y-93304761D01*
X145707085Y-93304761D02*
X145516609Y-93352380D01*
X145516609Y-93352380D02*
X145135657Y-93352380D01*
X145135657Y-93352380D02*
X145040419Y-93304761D01*
X145040419Y-93304761D02*
X144992800Y-93257142D01*
X144992800Y-93257142D02*
X144945180Y-93161904D01*
X144945180Y-93161904D02*
X144945180Y-92971428D01*
X144945180Y-92971428D02*
X144992800Y-92876190D01*
X144992800Y-92876190D02*
X145040419Y-92828571D01*
X145040419Y-92828571D02*
X145135657Y-92780952D01*
X145135657Y-92780952D02*
X145373752Y-92780952D01*
X145373752Y-92780952D02*
X145468990Y-92828571D01*
X145468990Y-92828571D02*
X145516609Y-92876190D01*
X145516609Y-92876190D02*
X145564228Y-92971428D01*
X145564228Y-92971428D02*
X145564228Y-93161904D01*
X145564228Y-93161904D02*
X145516609Y-93257142D01*
X145516609Y-93257142D02*
X145468990Y-93304761D01*
X145468990Y-93304761D02*
X145373752Y-93352380D01*
X145326133Y-92352380D02*
X145326133Y-91590476D01*
X145611847Y-90685714D02*
X144802323Y-90685714D01*
X144802323Y-90685714D02*
X144707085Y-90733333D01*
X144707085Y-90733333D02*
X144659466Y-90780952D01*
X144659466Y-90780952D02*
X144611847Y-90876190D01*
X144611847Y-90876190D02*
X144611847Y-91019047D01*
X144611847Y-91019047D02*
X144659466Y-91114285D01*
X144992800Y-90685714D02*
X144945180Y-90780952D01*
X144945180Y-90780952D02*
X144945180Y-90971428D01*
X144945180Y-90971428D02*
X144992800Y-91066666D01*
X144992800Y-91066666D02*
X145040419Y-91114285D01*
X145040419Y-91114285D02*
X145135657Y-91161904D01*
X145135657Y-91161904D02*
X145421371Y-91161904D01*
X145421371Y-91161904D02*
X145516609Y-91114285D01*
X145516609Y-91114285D02*
X145564228Y-91066666D01*
X145564228Y-91066666D02*
X145611847Y-90971428D01*
X145611847Y-90971428D02*
X145611847Y-90780952D01*
X145611847Y-90780952D02*
X145564228Y-90685714D01*
X144945180Y-89780952D02*
X145468990Y-89780952D01*
X145468990Y-89780952D02*
X145564228Y-89828571D01*
X145564228Y-89828571D02*
X145611847Y-89923809D01*
X145611847Y-89923809D02*
X145611847Y-90114285D01*
X145611847Y-90114285D02*
X145564228Y-90209523D01*
X144992800Y-89780952D02*
X144945180Y-89876190D01*
X144945180Y-89876190D02*
X144945180Y-90114285D01*
X144945180Y-90114285D02*
X144992800Y-90209523D01*
X144992800Y-90209523D02*
X145088038Y-90257142D01*
X145088038Y-90257142D02*
X145183276Y-90257142D01*
X145183276Y-90257142D02*
X145278514Y-90209523D01*
X145278514Y-90209523D02*
X145326133Y-90114285D01*
X145326133Y-90114285D02*
X145326133Y-89876190D01*
X145326133Y-89876190D02*
X145373752Y-89780952D01*
X144945180Y-89304761D02*
X145611847Y-89304761D01*
X145945180Y-89304761D02*
X145897561Y-89352380D01*
X145897561Y-89352380D02*
X145849942Y-89304761D01*
X145849942Y-89304761D02*
X145897561Y-89257142D01*
X145897561Y-89257142D02*
X145945180Y-89304761D01*
X145945180Y-89304761D02*
X145849942Y-89304761D01*
X145611847Y-88828571D02*
X144945180Y-88828571D01*
X145516609Y-88828571D02*
X145564228Y-88780952D01*
X145564228Y-88780952D02*
X145611847Y-88685714D01*
X145611847Y-88685714D02*
X145611847Y-88542857D01*
X145611847Y-88542857D02*
X145564228Y-88447619D01*
X145564228Y-88447619D02*
X145468990Y-88400000D01*
X145468990Y-88400000D02*
X144945180Y-88400000D01*
X144945180Y-87400000D02*
X144945180Y-87971428D01*
X144945180Y-87685714D02*
X145945180Y-87685714D01*
X145945180Y-87685714D02*
X145802323Y-87780952D01*
X145802323Y-87780952D02*
X145707085Y-87876190D01*
X145707085Y-87876190D02*
X145659466Y-87971428D01*
X142899999Y-87054819D02*
X142899999Y-87292914D01*
X143138094Y-87197676D02*
X142899999Y-87292914D01*
X142899999Y-87292914D02*
X142661904Y-87197676D01*
X143042856Y-87483390D02*
X142899999Y-87292914D01*
X142899999Y-87292914D02*
X142757142Y-87483390D01*
X134838094Y-109754819D02*
X134838094Y-108754819D01*
X134838094Y-108754819D02*
X134599999Y-108754819D01*
X134599999Y-108754819D02*
X134457142Y-108802438D01*
X134457142Y-108802438D02*
X134361904Y-108897676D01*
X134361904Y-108897676D02*
X134314285Y-108992914D01*
X134314285Y-108992914D02*
X134266666Y-109183390D01*
X134266666Y-109183390D02*
X134266666Y-109326247D01*
X134266666Y-109326247D02*
X134314285Y-109516723D01*
X134314285Y-109516723D02*
X134361904Y-109611961D01*
X134361904Y-109611961D02*
X134457142Y-109707200D01*
X134457142Y-109707200D02*
X134599999Y-109754819D01*
X134599999Y-109754819D02*
X134838094Y-109754819D01*
X133409523Y-109088152D02*
X133409523Y-109754819D01*
X133647618Y-108707200D02*
X133885713Y-109421485D01*
X133885713Y-109421485D02*
X133266666Y-109421485D01*
X134475504Y-106423619D02*
X134475504Y-105423619D01*
X133904076Y-106423619D02*
X134332647Y-105852190D01*
X133904076Y-105423619D02*
X134475504Y-105995047D01*
X128115219Y-100093542D02*
X127639028Y-99760209D01*
X128115219Y-99522114D02*
X127115219Y-99522114D01*
X127115219Y-99522114D02*
X127115219Y-99903066D01*
X127115219Y-99903066D02*
X127162838Y-99998304D01*
X127162838Y-99998304D02*
X127210457Y-100045923D01*
X127210457Y-100045923D02*
X127305695Y-100093542D01*
X127305695Y-100093542D02*
X127448552Y-100093542D01*
X127448552Y-100093542D02*
X127543790Y-100045923D01*
X127543790Y-100045923D02*
X127591409Y-99998304D01*
X127591409Y-99998304D02*
X127639028Y-99903066D01*
X127639028Y-99903066D02*
X127639028Y-99522114D01*
X128115219Y-101045923D02*
X128115219Y-100474495D01*
X128115219Y-100760209D02*
X127115219Y-100760209D01*
X127115219Y-100760209D02*
X127258076Y-100664971D01*
X127258076Y-100664971D02*
X127353314Y-100569733D01*
X127353314Y-100569733D02*
X127400933Y-100474495D01*
X128115219Y-101998304D02*
X128115219Y-101426876D01*
X128115219Y-101712590D02*
X127115219Y-101712590D01*
X127115219Y-101712590D02*
X127258076Y-101617352D01*
X127258076Y-101617352D02*
X127353314Y-101522114D01*
X127353314Y-101522114D02*
X127400933Y-101426876D01*
X149365619Y-100576571D02*
X150175142Y-100576571D01*
X150175142Y-100576571D02*
X150270380Y-100624190D01*
X150270380Y-100624190D02*
X150318000Y-100671809D01*
X150318000Y-100671809D02*
X150365619Y-100767047D01*
X150365619Y-100767047D02*
X150365619Y-100957523D01*
X150365619Y-100957523D02*
X150318000Y-101052761D01*
X150318000Y-101052761D02*
X150270380Y-101100380D01*
X150270380Y-101100380D02*
X150175142Y-101147999D01*
X150175142Y-101147999D02*
X149365619Y-101147999D01*
X149365619Y-102100380D02*
X149365619Y-101624190D01*
X149365619Y-101624190D02*
X149841809Y-101576571D01*
X149841809Y-101576571D02*
X149794190Y-101624190D01*
X149794190Y-101624190D02*
X149746571Y-101719428D01*
X149746571Y-101719428D02*
X149746571Y-101957523D01*
X149746571Y-101957523D02*
X149794190Y-102052761D01*
X149794190Y-102052761D02*
X149841809Y-102100380D01*
X149841809Y-102100380D02*
X149937047Y-102147999D01*
X149937047Y-102147999D02*
X150175142Y-102147999D01*
X150175142Y-102147999D02*
X150270380Y-102100380D01*
X150270380Y-102100380D02*
X150318000Y-102052761D01*
X150318000Y-102052761D02*
X150365619Y-101957523D01*
X150365619Y-101957523D02*
X150365619Y-101719428D01*
X150365619Y-101719428D02*
X150318000Y-101624190D01*
X150318000Y-101624190D02*
X150270380Y-101576571D01*
X149984666Y-102576571D02*
X149984666Y-103338476D01*
X150365619Y-103814666D02*
X149365619Y-103814666D01*
X149746571Y-103814666D02*
X149698952Y-103909904D01*
X149698952Y-103909904D02*
X149698952Y-104100380D01*
X149698952Y-104100380D02*
X149746571Y-104195618D01*
X149746571Y-104195618D02*
X149794190Y-104243237D01*
X149794190Y-104243237D02*
X149889428Y-104290856D01*
X149889428Y-104290856D02*
X150175142Y-104290856D01*
X150175142Y-104290856D02*
X150270380Y-104243237D01*
X150270380Y-104243237D02*
X150318000Y-104195618D01*
X150318000Y-104195618D02*
X150365619Y-104100380D01*
X150365619Y-104100380D02*
X150365619Y-103909904D01*
X150365619Y-103909904D02*
X150318000Y-103814666D01*
X149698952Y-105147999D02*
X150365619Y-105147999D01*
X149698952Y-104719428D02*
X150222761Y-104719428D01*
X150222761Y-104719428D02*
X150318000Y-104767047D01*
X150318000Y-104767047D02*
X150365619Y-104862285D01*
X150365619Y-104862285D02*
X150365619Y-105005142D01*
X150365619Y-105005142D02*
X150318000Y-105100380D01*
X150318000Y-105100380D02*
X150270380Y-105147999D01*
X149698952Y-105481333D02*
X149698952Y-105862285D01*
X150365619Y-105624190D02*
X149508476Y-105624190D01*
X149508476Y-105624190D02*
X149413238Y-105671809D01*
X149413238Y-105671809D02*
X149365619Y-105767047D01*
X149365619Y-105767047D02*
X149365619Y-105862285D01*
X149698952Y-106052762D02*
X149698952Y-106433714D01*
X150365619Y-106195619D02*
X149508476Y-106195619D01*
X149508476Y-106195619D02*
X149413238Y-106243238D01*
X149413238Y-106243238D02*
X149365619Y-106338476D01*
X149365619Y-106338476D02*
X149365619Y-106433714D01*
X150318000Y-107148000D02*
X150365619Y-107052762D01*
X150365619Y-107052762D02*
X150365619Y-106862286D01*
X150365619Y-106862286D02*
X150318000Y-106767048D01*
X150318000Y-106767048D02*
X150222761Y-106719429D01*
X150222761Y-106719429D02*
X149841809Y-106719429D01*
X149841809Y-106719429D02*
X149746571Y-106767048D01*
X149746571Y-106767048D02*
X149698952Y-106862286D01*
X149698952Y-106862286D02*
X149698952Y-107052762D01*
X149698952Y-107052762D02*
X149746571Y-107148000D01*
X149746571Y-107148000D02*
X149841809Y-107195619D01*
X149841809Y-107195619D02*
X149937047Y-107195619D01*
X149937047Y-107195619D02*
X150032285Y-106719429D01*
X150365619Y-107624191D02*
X149698952Y-107624191D01*
X149889428Y-107624191D02*
X149794190Y-107671810D01*
X149794190Y-107671810D02*
X149746571Y-107719429D01*
X149746571Y-107719429D02*
X149698952Y-107814667D01*
X149698952Y-107814667D02*
X149698952Y-107909905D01*
X150365619Y-108767048D02*
X150365619Y-108195620D01*
X150365619Y-108481334D02*
X149365619Y-108481334D01*
X149365619Y-108481334D02*
X149508476Y-108386096D01*
X149508476Y-108386096D02*
X149603714Y-108290858D01*
X149603714Y-108290858D02*
X149651333Y-108195620D01*
X158099999Y-101754819D02*
X158099999Y-101992914D01*
X158338094Y-101897676D02*
X158099999Y-101992914D01*
X158099999Y-101992914D02*
X157861904Y-101897676D01*
X158242856Y-102183390D02*
X158099999Y-101992914D01*
X158099999Y-101992914D02*
X157957142Y-102183390D01*
X142338094Y-109754819D02*
X142338094Y-108754819D01*
X142338094Y-108754819D02*
X142099999Y-108754819D01*
X142099999Y-108754819D02*
X141957142Y-108802438D01*
X141957142Y-108802438D02*
X141861904Y-108897676D01*
X141861904Y-108897676D02*
X141814285Y-108992914D01*
X141814285Y-108992914D02*
X141766666Y-109183390D01*
X141766666Y-109183390D02*
X141766666Y-109326247D01*
X141766666Y-109326247D02*
X141814285Y-109516723D01*
X141814285Y-109516723D02*
X141861904Y-109611961D01*
X141861904Y-109611961D02*
X141957142Y-109707200D01*
X141957142Y-109707200D02*
X142099999Y-109754819D01*
X142099999Y-109754819D02*
X142338094Y-109754819D01*
X141433332Y-108754819D02*
X140814285Y-108754819D01*
X140814285Y-108754819D02*
X141147618Y-109135771D01*
X141147618Y-109135771D02*
X141004761Y-109135771D01*
X141004761Y-109135771D02*
X140909523Y-109183390D01*
X140909523Y-109183390D02*
X140861904Y-109231009D01*
X140861904Y-109231009D02*
X140814285Y-109326247D01*
X140814285Y-109326247D02*
X140814285Y-109564342D01*
X140814285Y-109564342D02*
X140861904Y-109659580D01*
X140861904Y-109659580D02*
X140909523Y-109707200D01*
X140909523Y-109707200D02*
X141004761Y-109754819D01*
X141004761Y-109754819D02*
X141290475Y-109754819D01*
X141290475Y-109754819D02*
X141385713Y-109707200D01*
X141385713Y-109707200D02*
X141433332Y-109659580D01*
X141892304Y-101140419D02*
X141892304Y-100140419D01*
X141320876Y-101140419D02*
X141749447Y-100568990D01*
X141320876Y-100140419D02*
X141892304Y-100711847D01*
X152579294Y-86916419D02*
X152579294Y-85916419D01*
X152579294Y-85916419D02*
X152341199Y-85916419D01*
X152341199Y-85916419D02*
X152198342Y-85964038D01*
X152198342Y-85964038D02*
X152103104Y-86059276D01*
X152103104Y-86059276D02*
X152055485Y-86154514D01*
X152055485Y-86154514D02*
X152007866Y-86344990D01*
X152007866Y-86344990D02*
X152007866Y-86487847D01*
X152007866Y-86487847D02*
X152055485Y-86678323D01*
X152055485Y-86678323D02*
X152103104Y-86773561D01*
X152103104Y-86773561D02*
X152198342Y-86868800D01*
X152198342Y-86868800D02*
X152341199Y-86916419D01*
X152341199Y-86916419D02*
X152579294Y-86916419D01*
X151626913Y-86011657D02*
X151579294Y-85964038D01*
X151579294Y-85964038D02*
X151484056Y-85916419D01*
X151484056Y-85916419D02*
X151245961Y-85916419D01*
X151245961Y-85916419D02*
X151150723Y-85964038D01*
X151150723Y-85964038D02*
X151103104Y-86011657D01*
X151103104Y-86011657D02*
X151055485Y-86106895D01*
X151055485Y-86106895D02*
X151055485Y-86202133D01*
X151055485Y-86202133D02*
X151103104Y-86344990D01*
X151103104Y-86344990D02*
X151674532Y-86916419D01*
X151674532Y-86916419D02*
X151055485Y-86916419D01*
X150365619Y-89958895D02*
X149365619Y-89958895D01*
X150365619Y-90530323D02*
X149794190Y-90101752D01*
X149365619Y-90530323D02*
X149937047Y-89958895D01*
X155982894Y-86865619D02*
X155982894Y-85865619D01*
X155982894Y-85865619D02*
X155744799Y-85865619D01*
X155744799Y-85865619D02*
X155601942Y-85913238D01*
X155601942Y-85913238D02*
X155506704Y-86008476D01*
X155506704Y-86008476D02*
X155459085Y-86103714D01*
X155459085Y-86103714D02*
X155411466Y-86294190D01*
X155411466Y-86294190D02*
X155411466Y-86437047D01*
X155411466Y-86437047D02*
X155459085Y-86627523D01*
X155459085Y-86627523D02*
X155506704Y-86722761D01*
X155506704Y-86722761D02*
X155601942Y-86818000D01*
X155601942Y-86818000D02*
X155744799Y-86865619D01*
X155744799Y-86865619D02*
X155982894Y-86865619D01*
X154459085Y-86865619D02*
X155030513Y-86865619D01*
X154744799Y-86865619D02*
X154744799Y-85865619D01*
X154744799Y-85865619D02*
X154840037Y-86008476D01*
X154840037Y-86008476D02*
X154935275Y-86103714D01*
X154935275Y-86103714D02*
X155030513Y-86151333D01*
X153921619Y-89958895D02*
X152921619Y-89958895D01*
X153921619Y-90530323D02*
X153350190Y-90101752D01*
X152921619Y-90530323D02*
X153493047Y-89958895D01*
D13*
G04 #@! TO.C,U4-Cond-SMD1*
X120992900Y-96645100D02*
X125234700Y-96645100D01*
X125234700Y-101902900D02*
X120992900Y-101902900D01*
G04 #@! TO.C,U6-gain1*
X137909300Y-87795100D02*
X142151100Y-87795100D01*
X142151100Y-93052900D02*
X137909300Y-93052900D01*
D14*
G04 #@! TO.C,D4*
X134801000Y-99896000D02*
X137741000Y-99896000D01*
X134801000Y-105336000D02*
X134801000Y-99896000D01*
X136271000Y-98876000D02*
X136271000Y-99896000D01*
X136271000Y-106356000D02*
X136271000Y-105336000D01*
X137741000Y-99896000D02*
X137741000Y-105336000D01*
X137741000Y-104316000D02*
X134801000Y-104316000D01*
X137741000Y-104436000D02*
X134801000Y-104436000D01*
X137741000Y-104556000D02*
X134801000Y-104556000D01*
X137741000Y-105336000D02*
X134801000Y-105336000D01*
G04 #@! TO.C,R11*
X128424000Y-97060000D02*
X128424000Y-103600000D01*
X128424000Y-103600000D02*
X128754000Y-103600000D01*
X128754000Y-97060000D02*
X128424000Y-97060000D01*
X130834000Y-97060000D02*
X131164000Y-97060000D01*
X131164000Y-97060000D02*
X131164000Y-103600000D01*
X131164000Y-103600000D02*
X130834000Y-103600000D01*
D13*
G04 #@! TO.C,U5-buffer1*
X153403300Y-102400100D02*
X157645100Y-102400100D01*
X157645100Y-107657900D02*
X153403300Y-107657900D01*
D14*
G04 #@! TO.C,D3*
X138103000Y-99896000D02*
X141043000Y-99896000D01*
X138103000Y-100676000D02*
X141043000Y-100676000D01*
X138103000Y-100796000D02*
X141043000Y-100796000D01*
X138103000Y-100916000D02*
X141043000Y-100916000D01*
X138103000Y-105336000D02*
X138103000Y-99896000D01*
X139573000Y-98876000D02*
X139573000Y-99896000D01*
X139573000Y-106356000D02*
X139573000Y-105336000D01*
X141043000Y-99896000D02*
X141043000Y-105336000D01*
X141043000Y-105336000D02*
X138103000Y-105336000D01*
G04 #@! TO.C,D2*
X150422000Y-90752000D02*
X153362000Y-90752000D01*
X150422000Y-91532000D02*
X153362000Y-91532000D01*
X150422000Y-91652000D02*
X153362000Y-91652000D01*
X150422000Y-91772000D02*
X153362000Y-91772000D01*
X150422000Y-96192000D02*
X150422000Y-90752000D01*
X151892000Y-89732000D02*
X151892000Y-90752000D01*
X151892000Y-97212000D02*
X151892000Y-96192000D01*
X153362000Y-90752000D02*
X153362000Y-96192000D01*
X153362000Y-96192000D02*
X150422000Y-96192000D01*
G04 #@! TO.C,D1*
X153724000Y-90752000D02*
X156664000Y-90752000D01*
X153724000Y-91532000D02*
X156664000Y-91532000D01*
X153724000Y-91652000D02*
X156664000Y-91652000D01*
X153724000Y-91772000D02*
X156664000Y-91772000D01*
X153724000Y-96192000D02*
X153724000Y-90752000D01*
X155194000Y-89732000D02*
X155194000Y-90752000D01*
X155194000Y-97212000D02*
X155194000Y-96192000D01*
X156664000Y-90752000D02*
X156664000Y-96192000D01*
X156664000Y-96192000D02*
X153724000Y-96192000D01*
G04 #@! TD*
%LPC*%
D15*
G04 #@! TO.C,Cf2a1*
X110600000Y-110800000D03*
D16*
X110600000Y-108300000D03*
G04 #@! TD*
D15*
G04 #@! TO.C,U5-DigPot1*
X142875000Y-107569000D03*
D17*
X142875000Y-105029000D03*
X142875000Y-102489000D03*
X142875000Y-99949000D03*
X142875000Y-97409000D03*
X132715000Y-97409000D03*
X132715000Y-99949000D03*
X132715000Y-102489000D03*
X132715000Y-105029000D03*
X132715000Y-107569000D03*
G04 #@! TD*
D15*
G04 #@! TO.C,C3*
X121412000Y-90297000D03*
D16*
X121412000Y-92797000D03*
G04 #@! TD*
D15*
G04 #@! TO.C,Cf1b1*
X137229900Y-82800000D03*
D16*
X139729900Y-82800000D03*
G04 #@! TD*
D18*
G04 #@! TO.C,J8*
X158200000Y-83300000D03*
D19*
X155660000Y-83300000D03*
X153120001Y-83300000D03*
G04 #@! TD*
D16*
G04 #@! TO.C,R1*
X114690000Y-107600000D03*
D17*
X122310000Y-107600000D03*
G04 #@! TD*
D16*
G04 #@! TO.C,R3*
X112649000Y-105029000D03*
D17*
X112649000Y-97409000D03*
G04 #@! TD*
D16*
G04 #@! TO.C,R2*
X115697000Y-97409000D03*
D17*
X115697000Y-105029000D03*
G04 #@! TD*
D15*
G04 #@! TO.C,C4*
X127000000Y-90297000D03*
D16*
X127000000Y-92797000D03*
G04 #@! TD*
D18*
G04 #@! TO.C,Cf1-select1*
X144060000Y-82900000D03*
D19*
X146600000Y-82900000D03*
G04 #@! TD*
D20*
G04 #@! TO.C,U3-Cond-DIP1*
X119126000Y-103084000D03*
D21*
X121666000Y-103084000D03*
X124206000Y-103084000D03*
X126746000Y-103084000D03*
X126746000Y-95464000D03*
X124206000Y-95464000D03*
X121666000Y-95464000D03*
X119126000Y-95464000D03*
G04 #@! TD*
D15*
G04 #@! TO.C,Cf2b1*
X162694900Y-110500000D03*
D16*
X165194900Y-110500000D03*
G04 #@! TD*
D20*
G04 #@! TO.C,U1-buffer1*
X151638000Y-108839000D03*
D21*
X154178000Y-108839000D03*
X156718000Y-108839000D03*
X159258000Y-108839000D03*
X159258000Y-101219000D03*
X156718000Y-101219000D03*
X154178000Y-101219000D03*
X151638000Y-101219000D03*
G04 #@! TD*
D18*
G04 #@! TO.C,J4*
X115315000Y-111500000D03*
D19*
X117855000Y-111500000D03*
X120394999Y-111500000D03*
X122935000Y-111500000D03*
X125475000Y-111500000D03*
X128015000Y-111500000D03*
G04 #@! TD*
D15*
G04 #@! TO.C,C1*
X132080000Y-89495000D03*
D16*
X132080000Y-86995000D03*
G04 #@! TD*
G04 #@! TO.C,R5*
X112776000Y-87249000D03*
D17*
X112776000Y-94869000D03*
G04 #@! TD*
D20*
G04 #@! TO.C,U2-gain1*
X136398000Y-94234000D03*
D21*
X138938000Y-94234000D03*
X141478000Y-94234000D03*
X144018000Y-94234000D03*
X144018000Y-86614000D03*
X141478000Y-86614000D03*
X138938000Y-86614000D03*
X136398000Y-86614000D03*
G04 #@! TD*
D18*
G04 #@! TO.C,J7*
X138700000Y-111500000D03*
D19*
X141240000Y-111500000D03*
X143779999Y-111500000D03*
G04 #@! TD*
D18*
G04 #@! TO.C,J6*
X109220000Y-96261000D03*
D19*
X109220000Y-98801000D03*
G04 #@! TD*
D16*
G04 #@! TO.C,R4*
X115824000Y-94869000D03*
D17*
X115824000Y-87249000D03*
G04 #@! TD*
D18*
G04 #@! TO.C,J5*
X115300000Y-83875000D03*
D19*
X117840000Y-83875000D03*
X120379999Y-83875000D03*
X122920000Y-83875000D03*
X125460000Y-83875000D03*
X128000000Y-83875000D03*
G04 #@! TD*
D16*
G04 #@! TO.C,R10*
X147828000Y-108839000D03*
D17*
X147828000Y-101219000D03*
G04 #@! TD*
D15*
G04 #@! TO.C,C2*
X124894900Y-107000000D03*
D16*
X127394900Y-107000000D03*
G04 #@! TD*
D15*
G04 #@! TO.C,Cf1a1*
X111200000Y-83800000D03*
D16*
X108700000Y-83800000D03*
G04 #@! TD*
G04 #@! TO.C,R8*
X120523000Y-87209000D03*
D17*
X128143000Y-87209000D03*
G04 #@! TD*
D18*
G04 #@! TO.C,Cf2-select2*
X134800000Y-111600000D03*
D19*
X132260000Y-111600000D03*
G04 #@! TD*
D15*
G04 #@! TO.C,U4-DigPot2*
X158369000Y-98044000D03*
D17*
X158369000Y-95504000D03*
X158369000Y-92964000D03*
X158369000Y-90424000D03*
X158369000Y-87884000D03*
X148209000Y-87884000D03*
X148209000Y-90424000D03*
X148209000Y-92964000D03*
X148209000Y-95504000D03*
X148209000Y-98044000D03*
G04 #@! TD*
D19*
G04 #@! TO.C,J3*
X165400000Y-88120000D03*
X165400000Y-90660000D03*
X165400000Y-93200000D03*
X165400000Y-95740000D03*
X165400000Y-98280000D03*
X165400000Y-100820000D03*
X165400000Y-103360000D03*
X165400000Y-105900000D03*
X162860000Y-103360000D03*
X162860000Y-105900000D03*
X162860000Y-100820000D03*
X162860000Y-98280000D03*
X162860000Y-95740000D03*
X162860000Y-93200000D03*
X162860000Y-90660000D03*
D18*
X162860000Y-88120000D03*
G04 #@! TD*
D22*
G04 #@! TO.C,U4-Cond-SMD1*
X125577600Y-97369000D03*
X125577600Y-98639000D03*
X125577600Y-99909000D03*
X125577600Y-101179000D03*
X120650000Y-101179000D03*
X120650000Y-99909000D03*
X120650000Y-98639000D03*
X120650000Y-97369000D03*
G04 #@! TD*
G04 #@! TO.C,U6-gain1*
X142494000Y-88519000D03*
X142494000Y-89789000D03*
X142494000Y-91059000D03*
X142494000Y-92329000D03*
X137566400Y-92329000D03*
X137566400Y-91059000D03*
X137566400Y-89789000D03*
X137566400Y-88519000D03*
G04 #@! TD*
D23*
G04 #@! TO.C,D4*
X136271000Y-107696000D03*
D24*
X136271000Y-97536000D03*
G04 #@! TD*
D16*
G04 #@! TO.C,R11*
X129794000Y-96520000D03*
D17*
X129794000Y-104140000D03*
G04 #@! TD*
D22*
G04 #@! TO.C,U5-buffer1*
X157988000Y-103124000D03*
X157988000Y-104394000D03*
X157988000Y-105664000D03*
X157988000Y-106934000D03*
X153060400Y-106934000D03*
X153060400Y-105664000D03*
X153060400Y-104394000D03*
X153060400Y-103124000D03*
G04 #@! TD*
D23*
G04 #@! TO.C,D3*
X139573000Y-97536000D03*
D24*
X139573000Y-107696000D03*
G04 #@! TD*
D23*
G04 #@! TO.C,D2*
X151892000Y-88392000D03*
D24*
X151892000Y-98552000D03*
G04 #@! TD*
D23*
G04 #@! TO.C,D1*
X155194000Y-88392000D03*
D24*
X155194000Y-98552000D03*
G04 #@! TD*
%LPD*%
M02*
